<?xml version="1.0" encoding="utf-8"?>
<!-- Generator: Adobe Illustrator 19.1.0, SVG Export Plug-In . SVG Version: 6.00 Build 0)  -->
<svg version="1.1" id="Layer_1" xmlns="http://www.w3.org/2000/svg" xmlns:xlink="http://www.w3.org/1999/xlink" x="0px" y="0px" width="305.834px" height="112px"
	 viewBox="-152 341 305.8 112" style="enable-background:new -152 341 305.8 112;" xml:space="preserve">
<style type="text/css">
	.beast-eye-13-st-0{fill:#FCDCA4;}
	.beast-eye-13-st-1{fill:#F0A732;}
</style>
<g>
	<path class="beast-eye-13-st-0" d="M109,395.6c-0.7-2.6-2.9-3.7-5.1-5c-3-1.8-6.6-5.2-10.5-4.9c-5.6,0.4-13.2,3.2-16.2,8.5
		c-2,0.7-2.4,3.1-0.6,4.5c5.9,4.5,9.8,12.5,18.6,10.3c3.3-0.8,6.1-3.5,8.5-5.8C105.3,401.6,109.7,398.2,109,395.6z"/>
	<g>
		<path class="beast-eye-13-st-1" d="M121.2,398.5c2.4-1,0.3-4.5-2-3.5c-4.9,2.1-10.3-2.9-14-5.6c-3.6-2.7-7.2-5.3-11.8-5.8
			c-10.1-1.1-14.9,12.3-24.5,11.8c-2.6-0.1-2.6,3.9,0,4c1.9,0.1,3.7-0.3,5.3-1.1c0.2,0.2,0.4,0.3,0.6,0.5c6.8,3,9.3,10.3,17.3,11
			c8.9,0.7,11.7-6.9,17.7-11.3c0.3-0.2,0.5-0.5,0.6-0.7C113.7,399.6,117.1,400.3,121.2,398.5z M92.2,405.8c-5.6,0.1-9.3-6.8-14-9.8
			c5.4-3.9,10.1-9.7,16.8-8.1c4.6,1,8.3,4.7,12.3,7.6C102.1,399.7,99.8,405.7,92.2,405.8z"/>
		<path class="beast-eye-13-st-1" d="M110.8,433.7c-10.2,1.7-22.6-0.8-30.7-7.5c-4.1-3.4-6.1-7.9-7.1-13c-0.4-2-0.4-4.5-1-6.6
			c2,2.6,3.4,5.5,5.3,8.3c2.1,3.2,5,5.4,8.6,6.9c7.5,3.1,16.6,4.6,24.6,3c0.6-0.1,0.4-1.1-0.3-1c-8,1.6-17.2,0.1-24.5-3.2
			c-4.1-1.8-6.7-4.8-9-8.6c-1.7-2.8-3.3-5.7-5.5-8c5.9,2.5,9.1,9.2,15.2,11.6c7.9,3.2,18.5,1.5,26.2-1.5c0.6-0.2,0.3-1.2-0.3-1
			c-4.1,1.6-8.4,2.6-12.8,2.9c-4.5,0.4-9.8,0.2-13.9-1.9c-5.9-3.1-9.1-9.9-15.7-11.7c-0.4-0.1-0.6,0.2-0.6,0.5
			c-0.1,0.1-0.1,0.3-0.1,0.4c0.1,0.3,0.3,0.6,0.5,0.8c0.1,0.1,0.2,0.2,0.4,0.2c1,1.4,1.4,3.3,1.6,4.9c0.3,2.6,0.6,5.1,1.3,7.6
			c1.3,4.5,4.1,8.4,7.9,11.2c8.4,6.1,20.2,8.4,30.4,6.7C111.7,434.5,111.4,433.6,110.8,433.7z"/>
		<path class="beast-eye-13-st-1" d="M99.5,366.4c-3,0.1-6,0.7-8.8,1.7c-5.3,1.8-9.7,5.7-13.4,9.9c-1.8,2-3.2,4.3-4.6,6.6
			c-1.7,2.6-3.5,5.1-4.6,7.9c-0.1,0.1,0,0.2,0,0.3c0,0.2,0.1,0.4,0.3,0.4c4.3,1.3,8.4-2.1,11.5-4.7c2.1-1.7,4-3.6,6.2-5.1
			c3.5-2.3,8.4-2.5,12.3-1.4c6.4,1.8,10.4,8.6,17.2,9.2c3.8,0.4,9,0.1,9.4,5.3c0.3,4-5.1,5.8-8.1,5.6c-0.6-0.1-0.6,0.9,0,1
			c5,0.4,11.2-3.8,8.3-9.2c-1.4-2.7-4.1-3.5-6.9-3.5c-2.4-0.1-4.6-0.3-6.8-1.4c-1.8-0.9-3.3-2.2-4.8-3.4c-6.6-5-13.5-6.7-21.1-3
			c-2.6,1.2-4.8,3.8-7,5.6c-2.5,2-5.8,4.7-9.2,4.2c8.5-2.4,13.1-11.1,21.3-14.1c6-2.2,11.7-0.2,17.1,2.5c3.9,1.9,8.6,4.2,12.9,2.5
			c0.6-0.2,0.3-1.2-0.3-1c-5.3,2.1-10.8-1.9-15.5-4c-4.4-2-9.1-2.4-13.8-1.1c-8.2,2.2-12.6,10.7-20.2,13.8C77,385.1,82.4,378,90,374
			c4.6-2.4,10.4-2.8,15.5-2c4.3,0.6,8.8,2.8,13.1,0.9c0.6-0.3,0.1-1.1-0.5-0.9c-3,1.3-6,0.3-9-0.5c-2.1-0.5-4.2-0.8-6.4-0.9
			c-4.4-0.3-9.1,0.5-13.1,2.4c-7.7,3.8-13.1,11-19.1,16.9c1-1.7,2.1-3.3,3.2-5c1.7-2.6,3.3-5.2,5.5-7.5c4.3-4.7,9.4-8.1,15.7-9.5
			c6.4-1.4,13.5,0.7,19.7-1.5c4.9-1.8,8.9-6,12.2-9.8c0.4-0.5-0.3-1.2-0.7-0.7c-4.1,4.9-9.2,9.8-15.8,10.4
			C106.6,366.7,103,366.2,99.5,366.4z"/>
		<path class="beast-eye-13-st-1" d="M66.5,400.9c0.2,0.2,0.5,0.3,0.8,0.4c0.6,0.2,0.9-0.8,0.3-1c-2.4-0.8-2.5-4.5-0.4-5.8c0.4-0.2,0.3-0.7,0-0.9
			c-0.1-0.2-0.4-0.3-0.7-0.2c-0.2,0.1-0.3,0.2-0.4,0.3c2.8-6.2,4.5-12.7,9-18.1c4.7-5.6,11.3-10.1,18.7-11.1c0.6-0.1,0.6-1.1,0-1
			c-7.2,1-13.4,5-18.3,10.2c-2.7,2.8-4.8,6.1-6.4,9.6c-1.4,3-2.4,6.2-3.6,9.3c0-5.8,0.1-11.5,3-16.7c2.7-4.8,7.6-8.1,11.7-11.5
			c0.5-0.4-0.2-1.1-0.7-0.7c-4.3,3.6-8.9,6.9-11.9,11.7c-3.1,5.1-3.2,11-3.1,16.8c-0.4-2.2-0.8-4.3-1-6.5c-0.2-2.9-0.6-5.7-1.4-8.5
			c-0.2-0.6-1.1-0.4-1,0.3c0.9,2.9,1.2,6,1.4,9c0.2,3,0.9,5.8,1.4,8.7c-0.7,0.5-1.3,1.1-2,1.6c-2.3,1.8-5.2,2.3-8,1.6
			c-4.1-1-7.2-4.4-11.4-5.4c-0.6-0.1-0.9,0.8-0.3,1c4.6,1,7.9,4.8,12.6,5.7c3.7,0.7,6.1-1.1,8.7-3c-0.6,0.6-1.2,1.1-1.8,1.7
			c0,0,0,0-0.1,0c-3.1,2.9-8,3.9-12,2.7c-0.6-0.2-0.9,0.8-0.3,1c4,1.2,8.8,0.3,12.1-2.3c-3.6,3.2-8.9,4.4-11.9,8.5
			c-0.4,0.5,0.5,1,0.9,0.5c2.2-3,5.5-4.3,8.7-6c0.9-0.5,1.7-1,2.5-1.6c0,0-0.1,0.1-0.1,0.1c-1.2,1.7-2.8,2.9-4.4,4.2
			c-2.6,2.2-4.6,4.9-5.9,8c-0.3,0.6,0.6,1.1,0.9,0.5c1.5-3.3,3.6-6,6.4-8.3c1.2-1,2.4-2,3.4-3.2c0.8-1,1.5-2.2,2.3-3.2
			c-1.4,2.5-2.1,5.2-3.4,7.8c-1.4,2.7-3,5.1-3.5,8.1c-0.1,0.6,0.8,0.9,1,0.3c0.6-2.9,2-5.3,3.4-7.9c1.1-2,1.8-4.2,2.7-6.3
			c-0.5,2.5-0.6,5-1,7.4c-0.5,2.9-1.2,5.6-0.8,8.6c0.1,0.6,1.1,0.4,1-0.3c-0.4-3,0.4-5.9,0.9-8.9c0.4-2.4,0.5-4.8,1-7.2
			c1.3,6.8-0.4,14.1,3.5,20.3c0.3,0.5,1.2,0,0.9-0.5C66,414.7,67.7,407.5,66.5,400.9z"/>
		<path class="beast-eye-13-st-1" d="M127.2,411.2c-0.1-0.3-0.4-0.4-0.6-0.3c-1.8,0.4-2.7-0.6-4.2-1.2c-1.3-0.4-1,1.2-2.6-0.4
			c-1.1-1.1-1.2-3-3.2-2c-0.3,0.1-0.6,0.4-0.8,0.6c-1.4,1.2-2.3-1.2-2.7-1.9c-0.3-0.5-1-1-1.6-1c-2.6-0.3-3.8,2.7-5.6,4.1
			c-0.5,0.4,0,1.3,0.5,0.9c2-1.5,4.4-6.2,6.6-2c0.8,1.5,2.3,1.7,3.6,0.7c1.4-1.1,2.8,2.4,4.4,2.6c0.2,0,0.7-0.3,0.7-0.3
			c0.9-0.4,1.9,0.4,2.6,0.8c0.7,0.4,1.5,0.3,2.2,0.2c0.1,0.2,0.1,0.5,0.2,0.7c0.2,0.6,1.2,0.4,1-0.3
			C127.4,412,127.3,411.6,127.2,411.2z"/>
		<path class="beast-eye-13-st-1" d="M135.4,384.5c-0.8-0.3-1.3-0.3-1.9,0.4c-0.8,0.8-3.3-0.2-4.3,0.1c-1.6,0.4-3.2,2.2-4.9,1.1
			c-1.3-0.8-3,0.9-4.2,1c-0.6,0-0.6,1,0,1c1.6,0,3.1-1.5,4.6-0.5c0.8,0.6,2-0.1,2.7-0.6c1.6-1.1,2.9-1,4.7-0.8
			c0.8,0.1,2.5-0.8,3.1-0.6C135.7,385.7,136,384.7,135.4,384.5z"/>
		<path class="beast-eye-13-st-1" d="M124.1,376.7c-1.6,0.6-3-1.1-4.7-0.8c-1.8,0.3-3.9,3.7-5.4,0.7c-0.3-0.6-1.2-0.1-0.9,0.5c1,2,2.5,2.1,4.4,1
			c1.6-0.9,2.5-1.7,4.3-0.6c0.8,0.5,1.6,0.5,2.5,0.2C125,377.4,124.7,376.4,124.1,376.7z"/>
		<path class="beast-eye-13-st-1" d="M117.4,419.5c-1.5,1.1-2.8,0.1-4.3-0.3c-1-0.3-1.9,0.3-2.7,0.9c-0.5,0.4,0,1.3,0.5,0.9c2-1.5,3.4,0.3,5.6,0.1
			c1.8-0.2,2.8-2.7,4.5-0.8c0.4,0.5,1.1-0.2,0.7-0.7C120.1,417.8,119,418.3,117.4,419.5z"/>
		<path class="beast-eye-13-st-1" d="M88.9,438.2c-1.2-0.4-2.9,0.1-3.6-1.4c-0.3-0.6-0.8-1.3-1.4-1.6c-0.6-0.3-1.3-0.4-1.9-0.6
			c-1.1-0.4-2.2,0.2-2.2-2.2c0-0.2,0-0.7-0.1-0.9c-1.2-2.2-4.9,0-5.2-3.1c-0.1-1.9,0.3-3.4-1.7-4.3c-0.6-0.3-1.1,0.6-0.5,0.9
			c2.5,1.1,0.1,4.1,2,5.6c0.6,0.5,1,0.7,1.8,0.8c0.8,0.1,2.6-0.5,2.7,1.1c0,0.6-0.1,1,0.3,1.6c1.2,1.7,3,1,4.5,2.2
			c0.7,0.6,0.9,1.6,1.5,2.3c0.9,1,2.4,0.3,3.5,0.6C89.2,439.3,89.5,438.4,88.9,438.2z"/>
		<path class="beast-eye-13-st-1" d="M98.6,363.5c-0.3-2.5,2.3-1,3.3-0.5c0.8,0.4,1.5,0.4,2.3,0.2c1.1-0.3,1.9-1.8,2.7-2.3c1-0.7,2.3,0.7,3.3,1.1
			c0.9,0.3,1.8,0,2.5-0.7c0.7-0.7,0.5-3.5,2.2-2.6c2.7,1.5,2.4-2.6,3.4-3.6c0.4-0.5-0.3-1.2-0.7-0.7c-0.8,0.9-1.2,3.9-2.9,3.1
			c-0.6-0.3-1.7-0.1-2,0.5c-0.7,1.4-0.4,4.1-2.9,2.5c-0.4-0.2-1.9-1.1-2.5-0.9c-1,0.3-1.9,1.2-2.5,2c-1.3,1.6-2.9,0.3-4.2-0.3
			c-2-0.8-3.1,0.1-2.9,2.2C97.6,364.1,98.6,364.1,98.6,363.5z"/>
		<path class="beast-eye-13-st-1" d="M83.6,362.3c-0.1-0.4-0.6-1.9,0.1-2.1c0.4-0.1,0.9,0.1,1.3,0.1c0.8,0.2,1.7,0.3,2.5,0.1
			c0.7-0.2,1.2-0.9,1.2-1.6c0-0.6-0.5-3.2,1.4-2.2c0.6,0.3,1,0.5,1.7,0.6c0.6,0.1,0.6-0.9,0-1c-1.2-0.2-2.9-1.7-3.9,0
			c-0.4,0.6-0.3,1.2-0.3,1.9c0.1,1.2-0.4,1.5-1.5,1.4c-0.9-0.1-2.2-0.7-3-0.2c-1.1,0.6-0.7,2.2-0.5,3.2
			C82.7,363.2,83.7,363,83.6,362.3z"/>
		<path class="beast-eye-13-st-1" d="M52.1,388.6c0.4,0.2,1.1,0,1.5-0.1c0.6-0.1,0.5,2.7,0.5,3c0.1,0.8,0.6,1.3,1.4,1.3c1.1,0.1,3.2-0.3,2,1.4
			c-0.4,0.5,0.5,1,0.9,0.5c0.5-0.6,1.2-1.9,0.2-2.5c-0.9-0.5-2.1-0.3-3.1-0.4c-0.7-0.1-0.1-3.6-1.3-4.3c-0.3-0.2-1.6,0.2-1.7,0.1
			c-0.2-0.7-0.2-1.5-0.4-2.2c-0.2-0.6-1.2-0.3-1,0.3C51.4,386.7,51.2,388,52.1,388.6z"/>
	</g>
	<g>
		<path class="beast-eye-13-st-0" d="M64.7,376.6c2.1-7,9.9-9.8,13.3-16c0.3-0.6-0.6-1.1-0.9-0.5c-3.4,6.3-11.2,9.1-13.4,16.3
			C63.5,376.9,64.5,377.2,64.7,376.6z"/>
		<path class="beast-eye-13-st-0" d="M60.6,389.8c-2.6-0.5,0.7-3.9-1.1-5.2c-0.8-0.5-2.3-0.4-1.7-2c0.4-0.9,0.6-1.8,0.6-2.8c0-1.7-1.9-2.2-3.2-2.3
			c-0.6-0.1-0.9,0.9-0.3,1c1.2,0.2,2.4,0.3,2.5,1.8c0,1.1-0.7,2.2-1,3.3c-0.2,0.8,0.6,1.9,1.4,1.8c2.5-0.2,0,3.3,0.6,4.5
			c0.2,0.4,0.5,0.8,0.9,0.9c1.9,0.5,1.7,1.9,1.6,3.3c0,0.6,1,0.6,1,0C62,392.6,62.4,390.1,60.6,389.8z"/>
		<path class="beast-eye-13-st-0" d="M53.8,395.2c-1.3-0.3-1-1.5-1.5-2.3c-0.8-1.4-2.8-0.4-3.6-1.6c-0.6-0.8-0.8-1.6-1.7-2.1
			c-0.4-0.2-0.9-0.2-1.3-0.2c-0.2,0-0.5,0.1-0.7,0.2c-1.1,0.3-1.6-0.4-2.2-1.3c-0.4-0.5-1.2,0-0.9,0.5c0.5,0.8,1,2.3,2.2,2
			c1.1-0.2,2.5-0.8,3.3,0.6c0.3,0.5,0.6,1,1,1.5c1,1.1,2.8,0,3.3,1.8c0.4,1.8,1.8,1.4,3,2.3c0.5,0.4,1-0.5,0.5-0.9
			C54.7,395.5,54.4,395.4,53.8,395.2z"/>
		<path class="beast-eye-13-st-0" d="M47.2,386.8c1,0,1-1,0-1S46.2,386.8,47.2,386.8z"/>
		<path class="beast-eye-13-st-0" d="M53.2,381.7c1,0,1-1,0-1S52.2,381.7,53.2,381.7z"/>
		<path class="beast-eye-13-st-0" d="M50.2,384.3v-0.1c0.2-0.1,0.3-0.2,0.3-0.5v-0.2c0-0.6-1-0.6-1,0v0.1C49.4,383.9,49.6,384.3,50.2,384.3z"/>
		<path class="beast-eye-13-st-0" d="M45.9,383.6c0.2,0.3,0.6,0.4,0.8,0.1c0,0,0-0.1,0.1-0.1c0.3-0.1,0.3-0.4,0.2-0.6c-0.1-0.3-0.5-0.6-0.8-0.2
			c0,0.1-0.1,0.1-0.1,0.2C45.8,383.1,45.7,383.3,45.9,383.6C45.9,383.6,45.9,383.6,45.9,383.6z"/>
		<path class="beast-eye-13-st-0" d="M50.1,381.6c0.5,0.4,1.2-0.3,0.7-0.7c-0.1-0.1-0.1-0.1-0.2-0.2c-0.5-0.4-1.2,0.3-0.7,0.7L50.1,381.6z"/>
		<path class="beast-eye-13-st-0" d="M46.7,380.7c0.2,0.4,0.8,0.2,0.9-0.1c0.4-0.4-0.2-1.1-0.7-0.7c-0.1,0-0.1,0.1-0.1,0.1
			C46.6,380.2,46.5,380.4,46.7,380.7C46.7,380.6,46.7,380.6,46.7,380.7z"/>
		<path class="beast-eye-13-st-0" d="M102,411.3c0.6-0.3,0.1-1.1-0.5-0.9c-5.4,2.5-11.3,2.1-16.2-1.2c-2.4-1.6-4.7-3.2-6.9-5.1
			c-1.5-1.3-3.1-2.3-4.9-3c-0.6-0.2-0.9,0.7-0.3,1c5.4,2.2,9.1,7.4,14.5,9.6C92.5,413.7,97.4,413.5,102,411.3z"/>
		<path class="beast-eye-13-st-0" d="M69.1,407c0-0.6-1-0.6-1,0c0.1,4.1,1.1,8.1,2.3,12c0.2,0.6,1.2,0.4,1-0.3C70.2,414.9,69.2,411.1,69.1,407z"/>
		<path class="beast-eye-13-st-0" d="M64.9,415.2c-0.6-0.2-0.9,0.8-0.3,1c0,0,0,0,0,0c0.5,0.4,1.2-0.3,0.7-0.7C65.2,415.3,65.1,415.3,64.9,415.2z"
			/>
		<path class="beast-eye-13-st-0" d="M64.5,413.1c-0.3,0.3-0.2,0.9,0.3,0.9H65c0.5,0,0.6-0.7,0.3-0.9v-0.3C64.9,412.7,64.6,412.9,64.5,413.1z"/>
		<path class="beast-eye-13-st-0" d="M60.5,414.8c-0.1,0-0.1,0-0.2,0c0,0,0,0,0,0c0,0,0,0-0.1,0v0c-0.5,0.1-0.5,0.9,0,1v0c0,0,0,0,0.1,0
			c0,0,0,0,0,0c0.1,0,0.1,0,0.2,0C61.1,415.5,61.1,414.9,60.5,414.8z"/>
		<path class="beast-eye-13-st-0" d="M61.2,411.7c-1,0-1,1,0,1S62.2,411.7,61.2,411.7z"/>
		<path class="beast-eye-13-st-0" d="M55.2,414.7v-1C54.2,413.7,54.2,414.7,55.2,414.7z"/>
		<path class="beast-eye-13-st-0" d="M56.2,411c-1,0-1,1,0,1S57.2,411,56.2,411z"/>
		<path class="beast-eye-13-st-0" d="M58.2,408.2c-1,0-1,1,0,1S59.2,408.2,58.2,408.2z"/>
		<path class="beast-eye-13-st-0" d="M50.4,410.3c0,0.4,0.2,0.6,0.6,0.6c0.5,0,0.6-0.6,0.3-0.9C51,409.7,50.4,409.8,50.4,410.3z"/>
		<path class="beast-eye-13-st-0" d="M50.2,405.8c1,0,1-1,0-1V405.8z"/>
		<path class="beast-eye-13-st-0" d="M51.2,399.7c-1,0-1,1,0,1V399.7z"/>
		<path class="beast-eye-13-st-0" d="M59.2,396.1c-1,0-1,1,0,1S60.2,396.1,59.2,396.1z"/>
		<path class="beast-eye-13-st-0" d="M47.2,400.3v-1C46.2,399.3,46.2,400.3,47.2,400.3z"/>
		<path class="beast-eye-13-st-0" d="M86.4,362.5C86.5,362.4,86.5,362.4,86.4,362.5c0.6-0.6-0.2-1.3-0.6-0.8l-0.1,0.1
			C85.3,362.2,86,362.9,86.4,362.5z"/>
		<path class="beast-eye-13-st-0" d="M91.2,359.2c1,0,1-1,0-1S90.2,359.2,91.2,359.2z"/>
		<path class="beast-eye-13-st-0" d="M85.5,357.7L85.5,357.7c0-0.7-1-0.7-1-0.1v0.1C84.5,358.3,85.5,358.3,85.5,357.7z"/>
		<path class="beast-eye-13-st-0" d="M100.2,364.9c1,0,1-1,0-1S99.2,364.9,100.2,364.9z"/>
		<path class="beast-eye-13-st-0" d="M108,363.4c0.1,0,0.1,0,0.2,0c0,0,0,0,0,0v0c0.1,0,0.2,0,0.3-0.1c0.1-0.2,0.3-0.3,0.3-0.5
			c0.2-0.6-0.7-0.9-1-0.3C107.3,362.7,107.4,363.3,108,363.4z"/>
		<path class="beast-eye-13-st-0" d="M115,360.8c0.1,0,0.1,0,0.2,0v-0.1c0,0,0.1,0,0.1,0c0.5-0.2,0.2-0.9-0.3-0.9c-0.1,0-0.2,0-0.2,0.1
			c-0.1,0-0.2,0.1-0.2,0.2C114.1,360.3,114.5,361,115,360.8z"/>
		<path class="beast-eye-13-st-0" d="M110.2,359.2c1,0,1-1,0-1S109.2,359.2,110.2,359.2z"/>
		<path class="beast-eye-13-st-0" d="M103,360.8c0.1,0,0.2-0.1,0.2-0.2c0.3-0.3,0.2-0.6-0.1-0.7c-0.2-0.3-0.6-0.3-0.8,0c-0.1,0.2-0.2,0.4,0,0.7
			C102.4,360.9,102.8,360.9,103,360.8z"/>
		<path class="beast-eye-13-st-0" d="M115.1,375.7c0,0.6,0.8,0.6,1,0.1c0.4-0.5-0.3-1.1-0.7-0.7C115.2,375.3,115.1,375.5,115.1,375.7z"/>
		<path class="beast-eye-13-st-0" d="M120.2,378.7C120.2,378.7,120.3,378.7,120.2,378.7c0.5,0.2,0.7-0.2,0.7-0.5c0-0.3-0.2-0.7-0.6-0.5
			c0,0,0,0-0.1,0c-0.2,0.1-0.4,0.2-0.4,0.5v0C119.9,378.5,120,378.6,120.2,378.7z"/>
		<path class="beast-eye-13-st-0" d="M125.2,385.1c0.2,0.4,0.7,0.3,0.9-0.1c0.3-0.3,0.1-1-0.5-0.8C125.1,384.3,125,384.7,125.2,385.1z"/>
		<path class="beast-eye-13-st-0" d="M129,387.7C129,387.7,129,387.7,129,387.7c0.6,0.4,1.1-0.5,0.5-0.8c-0.2-0.1-0.3-0.2-0.5-0.2
			C128.4,386.7,128.4,387.7,129,387.7z"/>
		<path class="beast-eye-13-st-0" d="M122.4,388.1C122.4,388.1,122.4,388.1,122.4,388.1c-0.6,0.6,0.2,1.3,0.6,0.8c0,0,0.1-0.1,0.1-0.1
			C123.6,388.3,122.9,387.6,122.4,388.1z"/>
		<path class="beast-eye-13-st-0" d="M115.5,406.2v-0.3c0-0.6-1-0.6-1,0v0.3C114.5,406.8,115.5,406.8,115.5,406.2z"/>
		<path class="beast-eye-13-st-0" d="M110.8,408.8L110.8,408.8c0-0.7-1-0.7-1-0.1v0.1C109.8,409.5,110.8,409.5,110.8,408.8z"/>
		<path class="beast-eye-13-st-0" d="M116.5,410.1c-0.6-0.2-0.9,0.8-0.3,1c-0.3-0.1,0.1,0.1,0.2,0.1c0.6,0.2,0.9-0.8,0.3-1
			C117,410.3,116.6,410.1,116.5,410.1z"/>
		<path class="beast-eye-13-st-0" d="M123.2,413c1,0,1-1,0-1S122.2,413,123.2,413z"/>
		<path class="beast-eye-13-st-0" d="M121.4,406.9c0,0.1-0.1,0.2-0.1,0.3c-0.2,0.6,0.8,0.9,1,0.3c0-0.1,0.1-0.2,0.1-0.3
			C122.5,406.5,121.5,406.3,121.4,406.9z"/>
		<path class="beast-eye-13-st-0" d="M112.8,421.5C112.8,421.5,112.7,421.5,112.8,421.5c-0.6,0.6,0.2,1.3,0.6,0.8c0,0,0.1-0.1,0.1-0.1
			C114,421.7,113.3,421,112.8,421.5z"/>
		<path class="beast-eye-13-st-0" d="M119,420.6c-0.2,0.3-0.2,0.5,0,0.8c0.3,0.5,1.1,0.1,0.9-0.4C120,420.5,119.3,420.1,119,420.6z"/>
		<path class="beast-eye-13-st-0" d="M127.2,426.1c-0.5-0.2-1-0.4-1.5-0.6c-0.2-0.1-0.5,0.1-0.6,0.2c-1.2,2-2.2,0.4-3.5,0.8
			c-0.9,0.2-1.4,0.7-2.1,1.3c-0.2,0.2-2.1-0.8-2.4-0.8c-0.6,0-0.9,0.4-1.3,0.7c-1.7,1.8-4.3,0.1-6.3,1.6c-2.3,1.8-1.6-0.6-2.9-0.8
			c-0.8-0.1-1.2,0-1.9,0.4c-2.4,1.6-3.4-1.1-5.6-0.6c-0.4,0.1-0.8,0.4-1.1,0.5c-1.6,0.6-1.7-0.8-2.4-1.3c-0.7-0.4-1.2-0.5-2-0.2
			c-2.3,0.8-3.7,0.3-5.9-0.6c-1.5-0.7-2.9-1.3-4.3-2.3c-2-1.3-6.4-4.8-6.7-7.5c-0.1-0.6-1.1-0.6-1,0c0.2,2.2,2.4,4.1,3.8,5.6
			c2.6,2.7,5.7,4.3,9.2,5.7c1,0.4,2.8,1.1,4,0.6c0.7-0.3,1.9-0.9,2.7-0.1c0.3,0.3,0.7,0.8,1.1,1c0.8,0.2,1.5,0.3,2.3-0.1
			c2-1,2.4,1.3,4,1.3c0.9,0,3.5-1.5,3.9-1c0.4,0.6,0.9,1.1,1.7,1.1c1.7,0,1.9-1.8,4.1-1.4c1.2,0.2,1.9,0.4,3-0.2
			c0.4-0.2,0.7-0.6,1-0.9c0.9-0.9,1.7,0.1,2.6,0.3c0.5,0.1,0.7,0,1.1-0.3c1.6-1.4,2.4-0.6,3.9-0.8c1.3-0.2,1.3-1.3,2.8-0.8
			C127.5,427.2,127.8,426.3,127.2,426.1z"/>
		<path class="beast-eye-13-st-0" d="M116.8,414.9c-1.2,0.3-2.3,0.9-3.5,1.3c-1.3,0.5-2.8,0.2-4.2,0.7c-1.3,0.5-2.3,1.4-3.7,1.8
			c-1.5,0.4-2.6,1.6-4.3,1.8c-2.9,0.4-6.5-0.7-9.3-1.4c-3.4-0.9-6.6-2.3-9.6-4.1c-0.6-0.3-1.1,0.5-0.5,0.9
			c5.7,3.5,12.2,5.2,18.8,5.7c0.9,0.1,1.8-0.1,2.6-0.5c0.9-0.4,1.7-1,2.6-1.3c0.7-0.3,1.7-0.3,2.4-0.8c0.7-0.5,1.7-1.3,2.5-1.4
			c0.5-0.1,1,0,1.5-0.1c1.7-0.3,3.2-1.2,4.9-1.7C117.7,415.7,117.4,414.8,116.8,414.9z"/>
		<path class="beast-eye-13-st-0" d="M102.4,438.9c-1.6-0.4-3.1-1.1-4.8-1.2c-1.4,0-3.1,1.3-4.2-0.4c-0.3-0.5-0.5-1-0.9-1.4
			c-0.3-0.4-1-0.5-1.5-0.7c-1.3-0.4-2.3-0.6-3.3-1.6c-0.8-0.8-1.5-1-2.5-0.8c-0.6,0.1-0.4,1.1,0.3,1c1.2-0.2,2.8,1.6,4,2
			c1.1,0.4,2.2,0.1,2.9,1.5c0.3,0.6,0.6,1,1.1,1.4c0.7,0.7,2,0.4,2.8,0.2c2.4-0.5,3.8,0.3,6,0.8C102.8,440,103.1,439,102.4,438.9z"
			/>
		<path class="beast-eye-13-st-0" d="M81.6,438.7c0,0,0-0.1,0-0.1c-0.5,0.3,0,1.2,0.5,0.9c0.2-0.1,0.4-0.3,0.4-0.5C82.7,438.3,81.8,438,81.6,438.7
			z"/>
		<path class="beast-eye-13-st-0" d="M81.9,433c0.5,0,0.6-0.7,0.3-0.9c-0.1-0.2-0.4-0.2-0.6-0.1c-0.2,0.1-0.3,0.3-0.3,0.5c0,0.2,0.2,0.5,0.4,0.5
			C81.7,433,81.8,433,81.9,433z"/>
		<path class="beast-eye-13-st-0" d="M76.2,433.7L76.2,433.7c-0.1,0-0.2,0-0.3,0c-0.2,0-0.4,0.2-0.4,0.4c-0.2,0.5,0.4,0.7,0.7,0.5v0
			C77.2,434.7,77.2,433.7,76.2,433.7z"/>
		<path class="beast-eye-13-st-0" d="M76.7,427.9L76.7,427.9c-0.7,0-0.7,1-0.1,1h0.1C77.3,428.9,77.3,427.9,76.7,427.9z"/>
		<path class="beast-eye-13-st-0" d="M71.4,427.8L71.4,427.8c0,0.7,1,0.7,1,0.1v-0.1C72.4,427.1,71.4,427.1,71.4,427.8z"/>
		<path class="beast-eye-13-st-0" d="M116.3,370.2c3.8-0.2,6.5-3,9-5.6c0.4-0.5-0.3-1.2-0.7-0.7c-2.3,2.4-4.8,5.1-8.3,5.3
			C115.6,369.2,115.6,370.2,116.3,370.2z"/>
		<path class="beast-eye-13-st-0" d="M95.5,374.8c3.9-2.5,10.2,0,13.6,2.4c0.5,0.4,1-0.5,0.5-0.9c-3.8-2.5-10.4-5-14.7-2.4
			C94.4,374.3,94.9,375.2,95.5,374.8z"/>
		<path class="beast-eye-13-st-0" d="M109.5,385c1,0.5,1.7,1.2,2.7,1.7c1,0.4,2.2,0.4,3.2,0.6c0.6,0.2,0.9-0.8,0.3-1c-1.1-0.3-2.3-0.2-3.4-0.7
			c-0.9-0.4-1.5-1.1-2.4-1.5C109.4,383.8,108.9,384.7,109.5,385z"/>
		<path class="beast-eye-13-st-0" d="M143.3,394.2c-0.3-0.1-0.7-0.3-1-0.4c-0.2-0.2-0.6-0.4-0.8-0.1c-0.4,0.7-1,0.9-1.8,0.5
			c-0.2-0.2-0.6-0.2-0.8,0.1c-0.3,0.6-0.9-0.8-1-0.9c-0.5-0.5-0.5-0.5-1.1-0.7c-0.2-0.1-0.4,0-0.5,0.1c-0.5,0.4-0.4,0.9-0.5,1.5
			c0,0.4,0.1,0.9,0.1,1.3c0.1,0.9-0.6,4.2-0.7,1.6c-0.1-1.8-0.1-3.9-1.2-5.4c-0.6-0.9-1.9-1.1-2.5-0.2c-0.9,1.2,0.6,4.2,0.8,5.4
			c0.1,0.6,0,1.5-0.1,2.1c0,0.8-0.5,1.3-1.5,1.4c0.1-0.4,0.2-0.9,0.4-1.3c0.4-1.3,0.4-2.6,0.2-3.9c-0.2-1.5-1.4-5-3.4-5
			c-1.7,0-1.4,1.7-0.8,2.7c2.4,4.6,0.4,8.3-3.2,11.5c-0.5,0.4,0.2,1.1,0.7,0.7c2.5-2.2,4.5-4.8,4.7-8.3c0.1-1.4-0.4-2.9-1.1-4
			c-1.2-2.1,0.8-0.8,1.3,0.4c0.5,1.3,0.9,2.1,1,3.5c0,0.6-1.9,5.5-0.1,5.5c2.5,0.1,2.9-2.9,3-4.8c0.1-0.9-0.3-1.9-0.6-2.7
			c-0.2-0.8-0.4-1.5-0.5-2.3c0.8-0.2,1.2,0,1.3,0.8c0.1,0.3,0.2,0.6,0.2,0.9c0.2,1.1-0.2,4.9,1.1,5.4c2.4,1,1.9-3.8,1.8-4.8
			c-0.2-1.8,0.9,0.6,1.4,0.8c0.6,0.2,0.9-0.1,1.2-0.5c1,0.7,1.5,0.4,2.4-0.5c0.5,0.6,1.1,0.7,2,0.2
			C144.4,394.8,143.9,393.9,143.3,394.2z"/>
	</g>
	<path class="beast-eye-13-st-0" d="M-107.1,395.6c0.7-2.6,2.9-3.7,5.1-5c3-1.8,6.6-5.2,10.5-4.9c5.6,0.4,13.2,3.2,16.2,8.5c2,0.7,2.4,3.1,0.6,4.5
		c-5.9,4.5-9.8,12.5-18.6,10.3c-3.3-0.8-6.1-3.5-8.5-5.8C-103.5,401.6-107.8,398.2-107.1,395.6z"/>
	<g>
		<path class="beast-eye-13-st-1" d="M-108.7,397.8c0.1,0.3,0.3,0.5,0.6,0.7c6.1,4.4,8.8,12,17.7,11.3c8-0.7,10.5-8,17.3-11
			c0.3-0.1,0.5-0.3,0.6-0.5c1.7,0.7,3.4,1.2,5.3,1.1c2.6-0.1,2.6-4.1,0-4c-9.6,0.5-14.4-12.9-24.5-11.8c-4.6,0.5-8.2,3.1-11.8,5.8
			c-3.7,2.7-9,7.8-14,5.6c-2.3-1-4.4,2.4-2,3.5C-115.3,400.3-111.9,399.6-108.7,397.8z M-105.4,395.6c3.9-2.9,7.7-6.6,12.3-7.6
			c6.7-1.5,11.4,4.2,16.8,8.1c-4.7,3-8.4,9.9-14,9.8C-97.9,405.7-100.2,399.7-105.4,395.6z"/>
		<path class="beast-eye-13-st-1" d="M-108.9,433.7c10.2,1.7,22.6-0.8,30.7-7.5c4.1-3.4,6.1-7.9,7.1-13c0.4-2,0.4-4.5,1-6.6
			c-2,2.6-3.4,5.5-5.3,8.3c-2.1,3.2-5,5.4-8.6,6.9c-7.5,3.1-16.6,4.6-24.6,3c-0.6-0.1-0.4-1.1,0.3-1c8,1.6,17.2,0.1,24.5-3.2
			c4.1-1.8,6.7-4.8,9-8.6c1.7-2.8,3.3-5.7,5.5-8c-5.9,2.5-9.1,9.2-15.2,11.6c-7.9,3.2-18.5,1.5-26.2-1.5c-0.6-0.2-0.3-1.2,0.3-1
			c4.1,1.6,8.4,2.6,12.8,2.9c4.5,0.4,9.8,0.2,13.9-1.9c5.9-3.1,9.1-9.9,15.7-11.7c0.4-0.1,0.6,0.2,0.6,0.5c0.1,0.1,0.1,0.3,0.1,0.4
			c-0.1,0.3-0.3,0.6-0.5,0.8c-0.1,0.1-0.2,0.2-0.4,0.2c-1,1.4-1.4,3.3-1.6,4.9c-0.3,2.6-0.6,5.1-1.3,7.6c-1.3,4.5-4.1,8.4-7.9,11.2
			c-8.4,6.1-20.2,8.4-30.4,6.7C-109.8,434.5-109.6,433.6-108.9,433.7z"/>
		<path class="beast-eye-13-st-1" d="M-97.7,366.4c3,0.1,6,0.7,8.8,1.7c5.3,1.8,9.7,5.7,13.4,9.9c1.8,2,3.2,4.3,4.6,6.6c1.7,2.6,3.5,5.1,4.6,7.9
			c0.1,0.1,0,0.2,0,0.3c0,0.2-0.1,0.4-0.3,0.4c-4.3,1.3-8.4-2.1-11.5-4.7c-2.1-1.7-4-3.6-6.2-5.1c-3.5-2.3-8.4-2.5-12.3-1.4
			c-6.4,1.8-10.4,8.6-17.2,9.2c-3.8,0.4-9,0.1-9.4,5.3c-0.3,4,5.1,5.8,8.1,5.6c0.6-0.1,0.6,0.9,0,1c-5,0.4-11.2-3.8-8.3-9.2
			c1.4-2.7,4.1-3.5,6.9-3.5c2.4-0.1,4.6-0.3,6.8-1.4c1.8-0.9,3.3-2.2,4.8-3.4c6.6-5,13.5-6.7,21.1-3c2.6,1.2,4.8,3.8,7,5.6
			c2.5,2,5.8,4.7,9.2,4.2c-8.5-2.4-13.1-11.1-21.3-14.1c-6-2.2-11.7-0.2-17.1,2.5c-3.9,1.9-8.6,4.2-12.9,2.5c-0.6-0.2-0.3-1.2,0.3-1
			c5.3,2.1,10.8-1.9,15.5-4c4.4-2,9.1-2.4,13.8-1.1c8.2,2.2,12.6,10.7,20.2,13.8c-6.1-5.9-11.5-12.9-19.1-17
			c-4.6-2.4-10.4-2.8-15.5-2c-4.3,0.6-8.8,2.8-13.1,0.9c-0.6-0.3-0.1-1.1,0.5-0.9c3,1.3,6,0.3,9-0.5c2.1-0.5,4.2-0.8,6.4-0.9
			c4.4-0.3,9.1,0.5,13.1,2.4c7.7,3.8,13.1,11,19.1,16.9c-1-1.7-2.1-3.3-3.2-5c-1.7-2.6-3.3-5.2-5.5-7.5c-4.3-4.7-9.4-8.1-15.7-9.5
			c-6.4-1.4-13.5,0.7-19.7-1.5c-4.9-1.8-8.9-6-12.2-9.8c-0.4-0.5,0.3-1.2,0.7-0.7c4.1,4.9,9.2,9.8,15.8,10.4
			C-104.8,366.7-101.2,366.2-97.7,366.4z"/>
		<path class="beast-eye-13-st-1" d="M-64.6,400.9c-0.2,0.2-0.5,0.3-0.8,0.4c-0.6,0.2-0.9-0.8-0.3-1c2.4-0.8,2.5-4.5,0.4-5.8
			c-0.4-0.2-0.3-0.7,0-0.9c0.1-0.2,0.4-0.3,0.7-0.2c0.2,0.1,0.3,0.2,0.4,0.3c-2.8-6.2-4.5-12.7-9-18.1c-4.7-5.6-11.3-10.1-18.7-11.1
			c-0.6-0.1-0.6-1.1,0-1c7.2,1,13.4,5,18.3,10.2c2.7,2.8,4.8,6.1,6.4,9.6c1.4,3,2.4,6.2,3.6,9.3c0-5.8-0.1-11.5-3-16.7
			c-2.7-4.8-7.6-8.1-11.7-11.5c-0.5-0.4,0.2-1.1,0.7-0.7c4.3,3.6,8.9,6.9,11.9,11.7c3.1,5.1,3.2,11,3.1,16.8c0.4-2.2,0.8-4.3,1-6.5
			c0.2-2.9,0.6-5.7,1.4-8.5c0.2-0.6,1.1-0.4,1,0.3c-0.9,2.9-1.2,6-1.4,9c-0.2,3-0.9,5.8-1.4,8.7c0.7,0.5,1.3,1.1,2,1.6
			c2.3,1.8,5.2,2.3,8,1.6c4.1-1,7.2-4.4,11.4-5.4c0.6-0.1,0.9,0.8,0.3,1c-4.6,1-7.9,4.8-12.6,5.7c-3.7,0.7-6.1-1.1-8.7-3
			c0.6,0.6,1.2,1.1,1.8,1.7c0,0,0,0,0.1,0c3.1,2.9,8,3.9,12,2.7c0.6-0.2,0.9,0.8,0.3,1c-4,1.2-8.8,0.3-12.1-2.3
			c3.6,3.2,8.9,4.4,11.9,8.5c0.4,0.5-0.5,1-0.9,0.5c-2.2-3-5.5-4.3-8.7-6c-0.9-0.5-1.7-1-2.5-1.6c0,0,0.1,0.1,0.1,0.1
			c1.2,1.7,2.8,2.9,4.4,4.2c2.6,2.2,4.6,4.9,5.9,8c0.3,0.6-0.6,1.1-0.9,0.5c-1.5-3.3-3.6-6-6.4-8.3c-1.2-1-2.4-2-3.4-3.2
			c-0.8-1-1.5-2.2-2.3-3.2c1.4,2.5,2.1,5.2,3.4,7.8c1.4,2.7,3,5.1,3.5,8.1c0.1,0.6-0.8,0.9-1,0.3c-0.6-2.9-2-5.3-3.4-7.9
			c-1.1-2-1.8-4.2-2.7-6.3c0.5,2.5,0.6,5,1,7.4c0.5,2.9,1.2,5.6,0.8,8.6c-0.1,0.6-1.1,0.4-1-0.3c0.4-3-0.4-5.9-0.9-8.9
			c-0.4-2.4-0.5-4.8-1-7.2c-1.3,6.8,0.4,14.1-3.5,20.3c-0.3,0.5-1.2,0-0.9-0.5C-64.2,414.7-65.9,407.5-64.6,400.9z"/>
		<path class="beast-eye-13-st-1" d="M-125.4,411.2c0.1-0.3,0.4-0.4,0.6-0.3c1.8,0.4,2.7-0.6,4.2-1.2c1.3-0.4,1,1.2,2.6-0.4c1.1-1.1,1.2-3,3.2-2
			c0.3,0.1,0.6,0.4,0.8,0.6c1.4,1.2,2.3-1.2,2.7-1.9c0.3-0.5,1-1,1.6-1c2.6-0.3,3.8,2.7,5.6,4.1c0.5,0.4,0,1.3-0.5,0.9
			c-2-1.5-4.4-6.2-6.6-2c-0.8,1.5-2.3,1.7-3.6,0.7c-1.4-1.1-2.8,2.4-4.4,2.6c-0.2,0-0.7-0.3-0.7-0.3c-0.9-0.4-1.9,0.4-2.6,0.8
			c-0.7,0.4-1.5,0.3-2.2,0.2c-0.1,0.2-0.1,0.5-0.2,0.7c-0.2,0.6-1.2,0.4-1-0.3C-125.6,412-125.5,411.6-125.4,411.2z"/>
		<path class="beast-eye-13-st-1" d="M-133.5,384.5c0.8-0.3,1.3-0.3,1.9,0.4c0.8,0.8,3.3-0.2,4.3,0.1c1.6,0.4,3.2,2.2,4.9,1.1c1.3-0.8,3,0.9,4.2,1
			c0.6,0,0.6,1,0,1c-1.6,0-3.1-1.5-4.6-0.5c-0.8,0.6-2-0.1-2.7-0.6c-1.6-1.1-2.9-1-4.7-0.8c-0.8,0.1-2.5-0.8-3.1-0.6
			C-133.9,385.7-134.1,384.7-133.5,384.5z"/>
		<path class="beast-eye-13-st-1" d="M-122.3,376.7c1.6,0.6,3-1.1,4.7-0.8c1.8,0.3,3.9,3.7,5.4,0.7c0.3-0.6,1.2-0.1,0.9,0.5c-1,2-2.5,2.1-4.4,1
			c-1.6-0.9-2.5-1.7-4.3-0.6c-0.8,0.5-1.6,0.5-2.5,0.2C-123.1,377.4-122.9,376.4-122.3,376.7z"/>
		<path class="beast-eye-13-st-1" d="M-115.5,419.5c1.5,1.1,2.8,0.1,4.3-0.3c1-0.3,1.9,0.3,2.7,0.9c0.5,0.4,0,1.3-0.5,0.9c-2-1.5-3.4,0.3-5.6,0.1
			c-1.8-0.2-2.8-2.7-4.5-0.8c-0.4,0.5-1.1-0.2-0.7-0.7C-118.2,417.8-117.2,418.3-115.5,419.5z"/>
		<path class="beast-eye-13-st-1" d="M-87,438.2c1.2-0.4,2.9,0.1,3.6-1.4c0.3-0.6,0.8-1.3,1.4-1.6c0.6-0.3,1.3-0.4,1.9-0.6
			c1.1-0.4,2.2,0.2,2.2-2.2c0-0.2,0-0.7,0.1-0.9c1.2-2.2,4.9,0,5.2-3.1c0.1-1.9-0.3-3.4,1.7-4.3c0.6-0.3,1.1,0.6,0.5,0.9
			c-2.5,1.1-0.1,4.1-2,5.6c-0.6,0.5-1,0.7-1.8,0.8c-0.8,0.1-2.6-0.5-2.7,1.1c0,0.6,0.1,1-0.3,1.6c-1.2,1.7-3,1-4.5,2.2
			c-0.7,0.6-0.9,1.6-1.5,2.3c-0.9,1-2.4,0.3-3.5,0.6C-87.4,439.3-87.6,438.4-87,438.2z"/>
		<path class="beast-eye-13-st-1" d="M-96.7,363.5c0.3-2.5-2.3-1-3.3-0.5c-0.8,0.4-1.5,0.4-2.3,0.2c-1.1-0.3-1.9-1.8-2.7-2.3
			c-1-0.7-2.3,0.7-3.3,1.1c-0.9,0.3-1.8,0-2.5-0.7c-0.7-0.7-0.5-3.5-2.2-2.6c-2.7,1.5-2.4-2.6-3.4-3.6c-0.4-0.5,0.3-1.2,0.7-0.7
			c0.8,0.9,1.2,3.9,2.9,3.1c0.6-0.3,1.7-0.1,2,0.5c0.7,1.4,0.4,4.1,2.9,2.5c0.4-0.2,1.9-1.1,2.5-0.9c1,0.3,1.9,1.2,2.5,2
			c1.3,1.6,2.9,0.3,4.2-0.3c2-0.8,3.1,0.1,2.9,2.2C-95.8,364.1-96.8,364.1-96.7,363.5z"/>
		<path class="beast-eye-13-st-1" d="M-81.7,362.3c0.1-0.4,0.6-1.9-0.1-2.1c-0.4-0.1-0.9,0.1-1.3,0.1c-0.8,0.2-1.7,0.3-2.5,0.1
			c-0.7-0.2-1.2-0.9-1.2-1.6c0-0.6,0.5-3.2-1.4-2.2c-0.6,0.3-1,0.5-1.7,0.6c-0.6,0.1-0.6-0.9,0-1c1.2-0.2,2.9-1.7,3.9,0
			c0.4,0.6,0.3,1.2,0.3,1.9c-0.1,1.2,0.4,1.5,1.5,1.4c0.9-0.1,2.2-0.7,3-0.2c1.1,0.6,0.7,2.2,0.5,3.2
			C-80.9,363.2-81.9,363-81.7,362.3z"/>
		<path class="beast-eye-13-st-1" d="M-50.3,388.6c-0.4,0.2-1.1,0-1.5-0.1c-0.6-0.1-0.5,2.7-0.5,3c-0.1,0.8-0.6,1.3-1.4,1.3
			c-1.1,0.1-3.2-0.3-2,1.4c0.4,0.5-0.5,1-0.9,0.5c-0.5-0.6-1.2-1.9-0.2-2.5c0.9-0.5,2.1-0.3,3.1-0.4c0.7-0.1,0.1-3.6,1.3-4.3
			c0.3-0.2,1.6,0.2,1.7,0.1c0.2-0.7,0.2-1.5,0.4-2.2c0.2-0.6,1.2-0.3,1,0.3C-49.6,386.7-49.3,388-50.3,388.6z"/>
	</g>
	<g>
		<path class="beast-eye-13-st-0" d="M-62.9,376.6c-2.1-7-9.9-9.8-13.3-16c-0.3-0.6,0.6-1.1,0.9-0.5c3.4,6.3,11.2,9.1,13.4,16.3
			C-61.7,376.9-62.7,377.2-62.9,376.6z"/>
		<path class="beast-eye-13-st-0" d="M-58.7,389.8c2.6-0.5-0.7-3.9,1.1-5.2c0.8-0.5,2.3-0.4,1.7-2c-0.3-0.9-0.6-1.8-0.6-2.8c0-1.7,1.9-2.2,3.2-2.3
			c0.6-0.1,0.9,0.9,0.3,1c-1.2,0.2-2.4,0.3-2.5,1.8c0,1.1,0.7,2.2,1,3.3c0.2,0.8-0.6,1.9-1.4,1.8c-2.5-0.2,0,3.3-0.6,4.5
			c-0.2,0.4-0.5,0.8-0.9,0.9c-1.9,0.5-1.7,1.9-1.6,3.3c0,0.6-1,0.6-1,0C-60.2,392.6-60.5,390.1-58.7,389.8z"/>
		<path class="beast-eye-13-st-0" d="M-51.9,395.2c1.3-0.3,1-1.5,1.5-2.3c0.8-1.4,2.8-0.4,3.6-1.6c0.6-0.8,0.8-1.6,1.7-2.1
			c0.4-0.2,0.9-0.2,1.3-0.2c0.2,0,0.5,0.1,0.7,0.2c1.1,0.3,1.6-0.4,2.2-1.3c0.4-0.5,1.2,0,0.9,0.5c-0.5,0.8-1,2.3-2.2,2
			c-1.1-0.2-2.5-0.8-3.3,0.6c-0.3,0.5-0.6,1-1,1.5c-1,1.1-2.8,0-3.3,1.8c-0.4,1.8-1.8,1.4-3,2.3c-0.5,0.4-1-0.5-0.5-0.9
			C-52.9,395.5-52.5,395.4-51.9,395.2z"/>
		<path class="beast-eye-13-st-0" d="M-45.8,386.8c-1,0-1-1,0-1S-44.8,386.8-45.8,386.8z"/>
		<path class="beast-eye-13-st-0" d="M-51.8,381.7c-1,0-1-1,0-1S-50.8,381.7-51.8,381.7z"/>
		<path class="beast-eye-13-st-0" d="M-48.4,384.3v-0.1c-0.2-0.1-0.3-0.2-0.3-0.5v-0.2c0-0.6,1-0.6,1,0v0.1C-47.5,383.9-47.8,384.3-48.4,384.3z"/>
		<path class="beast-eye-13-st-0" d="M-44,383.6c-0.2,0.3-0.6,0.4-0.8,0.1c0,0,0-0.1-0.1-0.1c-0.3-0.1-0.3-0.4-0.2-0.6c0.1-0.3,0.5-0.6,0.8-0.2
			c0,0.1,0.1,0.1,0.1,0.2C-43.9,383.1-43.8,383.3-44,383.6C-44,383.6-44,383.6-44,383.6z"/>
		<path class="beast-eye-13-st-0" d="M-48.3,381.6c-0.5,0.4-1.2-0.3-0.7-0.7c0.1-0.1,0.1-0.1,0.2-0.2c0.5-0.4,1.2,0.3,0.7,0.7L-48.3,381.6z"/>
		<path class="beast-eye-13-st-0" d="M-44.9,380.7c-0.2,0.4-0.8,0.2-0.9-0.1c-0.4-0.4,0.2-1.1,0.7-0.7c0.1,0,0.1,0.1,0.1,0.1
			C-44.7,380.2-44.7,380.4-44.9,380.7C-44.8,380.6-44.8,380.6-44.9,380.7z"/>
		<path class="beast-eye-13-st-0" d="M-100.2,411.3c-0.6-0.3-0.1-1.1,0.5-0.9c5.4,2.5,11.3,2.1,16.2-1.2c2.4-1.6,4.7-3.2,6.9-5.1
			c1.5-1.3,3.1-2.3,4.9-3c0.6-0.2,0.9,0.7,0.3,1c-5.4,2.2-9.1,7.4-14.5,9.6C-90.6,413.7-95.6,413.5-100.2,411.3z"/>
		<path class="beast-eye-13-st-0" d="M-67.3,407c0-0.6,1-0.6,1,0c-0.1,4.1-1.1,8.1-2.3,12c-0.2,0.6-1.2,0.4-1-0.3C-68.4,414.9-67.4,411.1-67.3,407
			z"/>
		<path class="beast-eye-13-st-0" d="M-63.1,415.2c0.6-0.2,0.9,0.8,0.3,1c0,0,0,0,0,0c-0.5,0.4-1.2-0.3-0.7-0.7C-63.3,415.3-63.2,415.3-63.1,415.2
			z"/>
		<path class="beast-eye-13-st-0" d="M-62.7,413.1c0.3,0.3,0.2,0.9-0.3,0.9h-0.1c-0.5,0-0.6-0.7-0.3-0.9v-0.3C-63,412.7-62.8,412.9-62.7,413.1z"/>
		<path class="beast-eye-13-st-0" d="M-58.7,414.8c0.1,0,0.1,0,0.2,0c0,0,0,0,0,0c0,0,0,0,0.1,0v0c0.5,0.1,0.5,0.9,0,1v0c0,0,0,0-0.1,0
			c0,0,0,0,0,0c-0.1,0-0.1,0-0.2,0C-59.3,415.5-59.3,414.9-58.7,414.8z"/>
		<path class="beast-eye-13-st-0" d="M-59.8,411.7c1,0,1,1,0,1S-60.8,411.7-59.8,411.7z"/>
		<path class="beast-eye-13-st-0" d="M-53.8,414.7v-1C-52.8,413.7-52.8,414.7-53.8,414.7z"/>
		<path class="beast-eye-13-st-0" d="M-54.8,411c1,0,1,1,0,1S-55.8,411-54.8,411z"/>
		<path class="beast-eye-13-st-0" d="M-56.8,408.2c1,0,1,1,0,1S-57.8,408.2-56.8,408.2z"/>
		<path class="beast-eye-13-st-0" d="M-48.6,410.3c0,0.4-0.2,0.6-0.6,0.6c-0.5,0-0.6-0.6-0.3-0.9C-49.2,409.7-48.5,409.8-48.6,410.3z"/>
		<path class="beast-eye-13-st-0" d="M-48.8,405.8c-1,0-1-1,0-1V405.8z"/>
		<path class="beast-eye-13-st-0" d="M-49.8,399.7c1,0,1,1,0,1V399.7z"/>
		<path class="beast-eye-13-st-0" d="M-57.8,396.1c1,0,1,1,0,1S-58.8,396.1-57.8,396.1z"/>
		<path class="beast-eye-13-st-0" d="M-45.8,400.3v-1C-44.8,399.3-44.8,400.3-45.8,400.3z"/>
		<path class="beast-eye-13-st-0" d="M-84.6,362.5C-84.6,362.4-84.7,362.4-84.6,362.5c-0.6-0.6,0.2-1.3,0.6-0.8l0.1,0.1
			C-83.4,362.2-84.2,362.9-84.6,362.5z"/>
		<path class="beast-eye-13-st-0" d="M-89.8,359.2c-1,0-1-1,0-1S-88.8,359.2-89.8,359.2z"/>
		<path class="beast-eye-13-st-0" d="M-83.7,357.7L-83.7,357.7c0-0.7,1-0.7,1-0.1v0.1C-82.7,358.3-83.7,358.3-83.7,357.7z"/>
		<path class="beast-eye-13-st-0" d="M-98.8,364.9c-1,0-1-1,0-1S-97.8,364.9-98.8,364.9z"/>
		<path class="beast-eye-13-st-0" d="M-106.2,363.4c-0.1,0-0.1,0-0.2,0c0,0,0,0,0,0v0c-0.1,0-0.2,0-0.3-0.1c-0.1-0.2-0.3-0.3-0.3-0.5
			c-0.2-0.6,0.7-0.9,1-0.3C-105.5,362.7-105.5,363.3-106.2,363.4z"/>
		<path class="beast-eye-13-st-0" d="M-113.2,360.8c-0.1,0-0.1,0-0.2,0v-0.1c0,0-0.1,0-0.1,0c-0.5-0.2-0.2-0.9,0.3-0.9c0.1,0,0.2,0,0.2,0.1
			c0.1,0,0.2,0.1,0.2,0.2C-112.3,360.3-112.7,361-113.2,360.8z"/>
		<path class="beast-eye-13-st-0" d="M-108.8,359.2c-1,0-1-1,0-1S-107.8,359.2-108.8,359.2z"/>
		<path class="beast-eye-13-st-0" d="M-101.2,360.8c-0.1,0-0.2-0.1-0.2-0.2c-0.3-0.3-0.2-0.6,0.1-0.7c0.2-0.3,0.6-0.3,0.8,0c0.1,0.2,0.2,0.4,0,0.7
			C-100.6,360.9-100.9,360.9-101.2,360.8z"/>
		<path class="beast-eye-13-st-0" d="M-113.3,375.7c0,0.6-0.8,0.6-1,0.1c-0.4-0.5,0.3-1.1,0.7-0.7C-113.4,375.3-113.3,375.5-113.3,375.7z"/>
		<path class="beast-eye-13-st-0" d="M-118.4,378.7C-118.4,378.7-118.4,378.7-118.4,378.7c-0.5,0.2-0.7-0.2-0.7-0.5c0-0.3,0.2-0.7,0.6-0.5
			c0,0,0,0,0.1,0c0.2,0.1,0.4,0.2,0.4,0.5v0C-118,378.5-118.2,378.6-118.4,378.7z"/>
		<path class="beast-eye-13-st-0" d="M-123.3,385.1c-0.2,0.4-0.7,0.3-0.9-0.1c-0.3-0.3-0.1-1,0.5-0.8C-123.3,384.3-123.2,384.7-123.3,385.1z"/>
		<path class="beast-eye-13-st-0" d="M-127.2,387.7C-127.2,387.7-127.2,387.7-127.2,387.7c-0.6,0.4-1.1-0.5-0.5-0.8c0.2-0.1,0.3-0.2,0.5-0.2
			C-126.5,386.7-126.5,387.7-127.2,387.7z"/>
		<path class="beast-eye-13-st-0" d="M-120.6,388.1C-120.6,388.1-120.5,388.1-120.6,388.1c0.6,0.6-0.2,1.3-0.6,0.8c0,0-0.1-0.1-0.1-0.1
			C-121.8,388.3-121.1,387.6-120.6,388.1z"/>
		<path class="beast-eye-13-st-0" d="M-113.6,406.2v-0.3c0-0.6,1-0.6,1,0v0.3C-112.6,406.8-113.6,406.8-113.6,406.2z"/>
		<path class="beast-eye-13-st-0" d="M-109,408.8L-109,408.8c0-0.7,1-0.7,1-0.1v0.1C-108,409.5-109,409.5-109,408.8z"/>
		<path class="beast-eye-13-st-0" d="M-114.7,410.1c0.6-0.2,0.9,0.8,0.3,1c0.3-0.1-0.1,0.1-0.2,0.1c-0.6,0.2-0.9-0.8-0.3-1
			C-115.1,410.3-114.7,410.1-114.7,410.1z"/>
		<path class="beast-eye-13-st-0" d="M-121.8,413c-1,0-1-1,0-1S-120.8,413-121.8,413z"/>
		<path class="beast-eye-13-st-0" d="M-119.5,406.9c0,0.1,0.1,0.2,0.1,0.3c0.2,0.6-0.8,0.9-1,0.3c0-0.1-0.1-0.2-0.1-0.3
			C-120.6,406.5-119.7,406.3-119.5,406.9z"/>
		<path class="beast-eye-13-st-0" d="M-111,421.5C-110.9,421.5-110.9,421.5-111,421.5c0.6,0.6-0.2,1.3-0.6,0.8c0,0-0.1-0.1-0.1-0.1
			C-112.1,421.7-111.4,421-111,421.5z"/>
		<path class="beast-eye-13-st-0" d="M-117.1,420.6c0.2,0.3,0.2,0.5,0,0.8c-0.3,0.5-1.1,0.1-0.9-0.4C-118.2,420.5-117.5,420.1-117.1,420.6z"/>
		<path class="beast-eye-13-st-0" d="M-125.3,426.1c0.5-0.2,1-0.4,1.5-0.6c0.2-0.1,0.5,0.1,0.6,0.2c1.2,2,2.2,0.4,3.5,0.8c0.9,0.2,1.4,0.7,2.1,1.3
			c0.2,0.2,2.1-0.8,2.4-0.8c0.6,0,0.9,0.4,1.3,0.7c1.7,1.8,4.3,0.1,6.3,1.6c2.3,1.8,1.6-0.6,2.9-0.8c0.8-0.1,1.2,0,1.9,0.4
			c2.4,1.6,3.4-1.1,5.6-0.6c0.4,0.1,0.8,0.4,1.1,0.5c1.6,0.6,1.7-0.8,2.4-1.3c0.7-0.4,1.2-0.5,2-0.2c2.3,0.8,3.7,0.3,5.9-0.6
			c1.5-0.7,2.9-1.3,4.3-2.3c2-1.3,6.4-4.8,6.7-7.5c0.1-0.6,1.1-0.6,1,0c-0.2,2.2-2.4,4.1-3.8,5.6c-2.6,2.7-5.7,4.3-9.2,5.7
			c-1,0.4-2.8,1.1-4,0.6c-0.7-0.3-1.9-0.9-2.7-0.1c-0.3,0.3-0.7,0.8-1.1,1c-0.8,0.2-1.5,0.3-2.3-0.1c-2-1-2.4,1.3-4,1.3
			c-0.9,0-3.5-1.5-3.9-1c-0.4,0.6-0.9,1.1-1.7,1.1c-1.7,0-1.9-1.8-4.1-1.4c-1.2,0.2-1.9,0.4-3-0.2c-0.4-0.2-0.7-0.6-1-0.9
			c-0.9-0.9-1.7,0.1-2.6,0.3c-0.5,0.1-0.7,0-1.1-0.3c-1.6-1.4-2.4-0.6-3.9-0.8c-1.3-0.2-1.3-1.3-2.8-0.8
			C-125.7,427.2-125.9,426.3-125.3,426.1z"/>
		<path class="beast-eye-13-st-0" d="M-115,414.9c1.2,0.3,2.3,0.9,3.5,1.3c1.3,0.5,2.8,0.2,4.2,0.7c1.3,0.5,2.3,1.4,3.7,1.8
			c1.5,0.4,2.6,1.6,4.3,1.8c2.9,0.4,6.5-0.7,9.3-1.4c3.4-0.9,6.6-2.3,9.6-4.1c0.6-0.3,1.1,0.5,0.5,0.9c-5.7,3.5-12.2,5.2-18.8,5.7
			c-0.9,0.1-1.8-0.1-2.6-0.5c-0.9-0.4-1.7-1-2.6-1.3c-0.7-0.3-1.7-0.3-2.4-0.8c-0.7-0.5-1.7-1.3-2.5-1.4c-0.5-0.1-1,0-1.5-0.1
			c-1.7-0.3-3.2-1.2-4.9-1.7C-115.9,415.7-115.6,414.8-115,414.9z"/>
		<path class="beast-eye-13-st-0" d="M-100.6,438.9c1.6-0.4,3.1-1.1,4.8-1.2c1.4,0,3.1,1.3,4.2-0.4c0.3-0.5,0.5-1,0.9-1.4c0.3-0.4,1-0.5,1.5-0.7
			c1.3-0.4,2.3-0.6,3.3-1.6c0.8-0.8,1.5-1,2.5-0.8c0.6,0.1,0.4,1.1-0.3,1c-1.2-0.2-2.8,1.6-4,2c-1.1,0.4-2.2,0.1-2.9,1.5
			c-0.3,0.6-0.6,1-1.1,1.4c-0.7,0.7-2,0.4-2.8,0.2c-2.4-0.5-3.8,0.3-6,0.8C-101,440-101.2,439-100.6,438.9z"/>
		<path class="beast-eye-13-st-0" d="M-79.8,438.7c0,0,0-0.1,0-0.1c0.5,0.3,0,1.2-0.5,0.9c-0.2-0.1-0.4-0.3-0.4-0.5
			C-80.9,438.3-79.9,438-79.8,438.7z"/>
		<path class="beast-eye-13-st-0" d="M-80.1,433c-0.5,0-0.6-0.7-0.3-0.9c0.1-0.2,0.4-0.2,0.6-0.1c0.2,0.1,0.3,0.3,0.3,0.5c0,0.2-0.2,0.5-0.4,0.5
			C-79.9,433-80,433-80.1,433z"/>
		<path class="beast-eye-13-st-0" d="M-74.4,433.7L-74.4,433.7c0.1,0,0.2,0,0.3,0c0.2,0,0.4,0.2,0.4,0.4c0.2,0.5-0.4,0.7-0.7,0.5v0
			C-75.4,434.7-75.4,433.7-74.4,433.7z"/>
		<path class="beast-eye-13-st-0" d="M-74.8,427.9L-74.8,427.9c0.7,0,0.7,1,0.1,1h-0.1C-75.5,428.9-75.5,427.9-74.8,427.9z"/>
		<path class="beast-eye-13-st-0" d="M-69.6,427.8L-69.6,427.8c0,0.7-1,0.7-1,0.1v-0.1C-70.6,427.1-69.6,427.1-69.6,427.8z"/>
		<path class="beast-eye-13-st-0" d="M-114.4,370.2c-3.8-0.2-6.5-3-9-5.6c-0.4-0.5,0.3-1.2,0.7-0.7c2.3,2.4,4.8,5.1,8.3,5.3
			C-113.8,369.2-113.8,370.2-114.4,370.2z"/>
		<path class="beast-eye-13-st-0" d="M-93.7,374.8c-3.9-2.5-10.2,0-13.6,2.4c-0.5,0.4-1-0.5-0.5-0.9c3.8-2.5,10.4-5,14.7-2.4
			C-92.6,374.3-93.1,375.2-93.7,374.8z"/>
		<path class="beast-eye-13-st-0" d="M-107.7,385c-1,0.5-1.7,1.2-2.7,1.7c-1,0.4-2.2,0.4-3.2,0.6c-0.6,0.2-0.9-0.8-0.3-1c1.1-0.3,2.3-0.2,3.4-0.7
			c0.9-0.4,1.5-1.1,2.4-1.5C-107.6,383.8-107.1,384.7-107.7,385z"/>
		<path class="beast-eye-13-st-0" d="M-141.4,394.2c0.3-0.1,0.7-0.3,1-0.4c0.2-0.2,0.6-0.4,0.8-0.1c0.4,0.7,1,0.9,1.8,0.5c0.2-0.2,0.6-0.2,0.8,0.1
			c0.3,0.6,0.9-0.8,1-0.9c0.5-0.5,0.5-0.5,1.1-0.7c0.2-0.1,0.4,0,0.5,0.1c0.5,0.4,0.4,0.9,0.5,1.5c0,0.4-0.1,0.9-0.1,1.3
			c-0.1,0.9,0.6,4.2,0.7,1.6c0.1-1.8,0.1-3.9,1.2-5.4c0.6-0.9,1.9-1.1,2.5-0.2c0.9,1.2-0.6,4.2-0.8,5.4c-0.1,0.6,0,1.5,0.1,2.1
			c0,0.8,0.5,1.3,1.5,1.4c-0.1-0.4-0.2-0.9-0.4-1.3c-0.4-1.3-0.4-2.6-0.2-3.9c0.2-1.5,1.4-5,3.4-5c1.7,0,1.4,1.7,0.8,2.7
			c-2.4,4.6-0.4,8.3,3.2,11.5c0.5,0.4-0.2,1.1-0.7,0.7c-2.5-2.2-4.5-4.8-4.7-8.3c-0.1-1.4,0.4-2.9,1.1-4c1.2-2.1-0.8-0.8-1.3,0.4
			c-0.5,1.3-0.9,2.1-1,3.5c0,0.6,1.9,5.5,0.1,5.5c-2.5,0.1-2.9-2.9-3-4.8c-0.1-0.9,0.3-1.9,0.6-2.7c0.2-0.8,0.4-1.5,0.5-2.3
			c-0.8-0.2-1.2,0-1.3,0.8c-0.1,0.3-0.2,0.6-0.2,0.9c-0.2,1.1,0.2,4.9-1.1,5.4c-2.4,1-1.9-3.8-1.8-4.8c0.2-1.8-0.9,0.6-1.4,0.8
			c-0.6,0.2-0.9-0.1-1.2-0.5c-1,0.7-1.5,0.4-2.4-0.5c-0.5,0.6-1.1,0.7-2,0.2C-142.5,394.8-142,393.9-141.4,394.2z"/>
	</g>
</g>
</svg>
