<?xml version="1.0" encoding="utf-8"?>
<!-- Generator: Adobe Illustrator 19.1.0, SVG Export Plug-In . SVG Version: 6.00 Build 0)  -->
<svg version="1.1" id="Layer_1" xmlns="http://www.w3.org/2000/svg" xmlns:xlink="http://www.w3.org/1999/xlink" x="0px" y="0px" width="305.834px" height="112px"
	 viewBox="-152 341 305.8 112" style="enable-background:new -152 341 305.8 112;" xml:space="preserve">
<style type="text/css">
	.beast-eye-14-st-0{fill:#F0A732;}
	.beast-eye-14-st-1{fill:#0B3746;}
	.beast-eye-14-st-2{fill:#D72050;}
	.beast-eye-14-st-4{fill:#D72051;}
</style>
<g>
	<path class="beast-eye-14-st-0" d="M-110.3,377.7c-4.9,0-9,4.1-9,9v1c0,4.9,4.1,9,9,9c4.9,0,9-4.1,9-9v-1C-101.3,381.8-105.4,377.7-110.3,377.7z"
		/>
	<path class="beast-eye-14-st-1" d="M-110.3,383.3c-5,0-5,8,0,8S-105.3,383.3-110.3,383.3z"/>
	<path class="beast-eye-14-st-0" d="M-107.3,383.2L-107.3,383.2c-2,0-2,3,0,3l0,0C-105.3,386.2-105.3,383.2-107.3,383.2z"/>
	<g>
		<path class="beast-eye-14-st-2" d="M-113.8,398.2c-0.6-0.1-0.9,0.9-0.3,1c2.6,0.4,5.5,1.3,8,0.2c2.9-1.3,6.1-3.7,7.5-6.6
			c0.3-0.6-0.6-1.1-0.9-0.5c-1.3,2.6-4,4.6-6.5,5.9C-108.4,399.5-111.2,398.7-113.8,398.2z"/>
		<path class="beast-eye-14-st-2" d="M-98.6,384.7c-0.1-1.3-0.8-2.4-1.3-3.6c-1.1-2.2-2.3-4.1-4.7-4.9c-0.6-0.2-0.9,0.8-0.3,1
			c2.6,0.8,3.6,3.4,4.7,5.6c1,2,0.5,4.2,0.8,6.4c0.1,0.6,1.1,0.4,1-0.3C-98.7,387.5-98.5,386.1-98.6,384.7z"/>
		<path class="beast-eye-14-st-2" d="M-109,375.2c-5-0.9-10.2,1.7-12.1,6.5c-1.1,2.8-2.1,5.8-1.7,8.8c0.4,2.8,2.7,4.1,4.2,6.3
			c0.4,0.5,1.2,0,0.9-0.5c-1-1.5-2.5-2.6-3.5-4.1c-1.5-2.3-0.5-5.7,0.3-8.1c1.7-5.1,6-8.8,11.6-7.9
			C-108.6,376.3-108.3,375.4-109,375.2z"/>
		<path class="beast-eye-14-st-2" d="M-113.7,408.7c5.3,0.5,10.8-0.2,15.3-3.1c7.5-4.9,10.9-15.4,10.2-24c-0.6-8.2-8.1-11.7-15.3-13
			c-7.6-1.4-17-0.8-22.1,5.8c-1.6,2.1-3.2,4.7-3.5,7.4c-0.2,2.2,1.8,3.9,3.9,3.4c0.6-0.1,0.4-1.1-0.3-1c-3.9,0.8-2.4-4.2-1.5-5.9
			c0.8-1.7,2-3.5,3.4-4.8c5.4-5.2,13.6-5.2,20.5-3.9c5.8,1.1,11.8,3.7,13.6,9.8c2.1,7-1.2,16.4-5.7,21.9c-4.5,5.4-10.7,6.4-17.3,6.3
			c-3.1,0-5.5-0.9-7.1-3.7c-0.5-0.8-0.8-1.9-1.1-2.8c-0.1-0.4-1.1-3-0.1-2.5c2.1,1.2,1.6,4.7,3.7,6.3c1.7,1.4,4,1.8,6.2,1.9
			c4.7,0.1,9.8-2.2,13.3-5.3c4.9-4.3,6.5-11.6,5.9-17.9c-0.2-2.6-0.9-4.9-2.7-6.9c-2-2.2-5.1-3.2-7.3-5.2c-0.8-0.7-1.8-0.8-2.8-0.9
			c-2-0.1-4.1,0-6.1,0.1c-2.6,0.2-5.2,0.8-7.6,1.9c-2.6,1.3-9,4.8-6.5,8.5c0.1,0.2,0.4,0.3,0.7,0.2c2-1.2,3.1-3.3,4.7-5
			c2.5-2.7,7.1-3,10.5-2.8c6,0.3,11.7,3.9,13,9.9c1.5,6.6-1.4,14.4-7.9,17.1c-3.1,1.3-11.8,3-13.4-1.3c-0.2-0.6-1.2-0.3-1,0.3
			c1.8,4.9,9.8,3.4,13.6,2.3c6.5-1.8,10.3-8.9,10.1-15.3c-0.2-6.8-3.9-11-10.2-13.1c-3.8-1.3-8-1.1-11.8,0c-3.7,1.1-4.7,4.8-7.6,6.8
			c-1.4-3.6,7.1-7.3,9.6-7.8c3.3-0.7,6.6-0.7,9.9-0.8c1.8-0.1,2.9,1.4,4.2,2.3c1.2,0.7,2.5,1.4,3.6,2.3c5.3,3.7,4.6,11.7,3,17.1
			c-1.9,6.4-7.2,10.3-13.4,12c-3,0.8-6.2,0.7-8.9-0.8c-2.5-1.5-1.6-4.8-3.8-6.4c-3.2-2.3-2.3,2-1.7,3.7
			C-120.1,405.8-118.1,408.2-113.7,408.7z"/>
		<path class="beast-eye-14-st-2" d="M-81.4,377.5c-1.3-8.4-6.3-11.3-14.2-12.6c-4.2-0.7-8.3-1.9-12.5-2.2c-4.3-0.4-9.1,0.8-13.2,2
			c-7,2.2-13.4,7.9-14.7,15.3c-0.2,1.4,0,2.6,0.3,3.9c0.6,2.9,0.2,5.4-0.1,8.3c-0.4,4.6,1.2,10.2,2.3,14.7c0.4,1.4,1.7,1.7,2.8,1.2
			c0.9,0.3,2,0.2,3.2-0.2c0,0,0.1,0,0.1,0c0.5,0.2,0.9,0.5,0.9,1.1c0,1.3,0.5,2.4,1.4,3.3c0.2,0.4,0.5,0.9,0.9,1.3
			c1.2,1.3,3.1,1.9,5.1,2.2c2.2,0.9,4.6,1.1,7.1,1c2.7,0.4,5.1,0,7.8-1.2c0,0,0,0,0,0c0.4-0.1,0.8-0.2,1.2-0.3
			c3.3-0.8,7.3-1.6,10.1-3.7c0.5-0.3,1-0.6,1.5-1c0.2-0.2,0.2-0.4,0.2-0.6c2.1-2.4,3.6-5.4,5.3-8.1
			C-81.7,394.8-80.1,385.7-81.4,377.5z M-126.3,371.9c0.9-0.7,1.8-1.3,2.7-1.9c1.1-0.6,2.2-1.1,3.4-1.5c7-2.6,13.8-1.9,20.9-0.3
			c2.6,0.6,5.2,0.9,7.7,1.6c5.8,3.1,6.7,9.1,6.3,15.2c-0.3,6-2.3,12-5.8,16.9c-1.8,2.5-4,4.3-6.4,5.7c-2.1,0.9-4.3,1.5-6.4,2.4
			c-3.6,1.4-6.8,2.1-10.5,1.8c-2.2-0.3-4.2-1.1-5.7-2.7c-0.3-1-0.4-2.1-0.9-3.2c-0.3-0.7-0.7-1.2-1.1-1.6c-0.4-2.2-0.5-4.5-1.6-6.4
			c-0.2-0.4-0.8-0.3-0.9,0.1c-0.2,0.6-0.9,2.4-1.5,1.2c-0.4-0.8-0.6-1.7-0.8-2.6c-0.6-2.3-1.2-5-0.8-7.4c0.1-0.5,1.3-2.9,1.5-0.7
			c0.1,0.7-0.1,1.6-0.2,2.3c-0.1,1.3,0,2.4,0.5,3.6c0.4,1,1.4,2.8,2.5,1.7c0.6-0.6,0.6-2.1,0.4-2.9c-0.5-2.3-1.7-4-0.2-6.4
			c0.3-0.5-0.5-1-0.9-0.5c-1,1.6-1.2,3-0.6,4.8c0.1,0.4,0.3,0.8,0.4,1.2c0.1,0.2,0.1,0.4,0.2,0.6c0.4,0.8,0.2,1.5-0.5,2.1
			c-0.7-1.1-1-2.3-0.9-3.6c0.1-1.7,0.5-3-0.4-4.5c-0.4-0.7-1.4-0.7-1.9,0c-2.3,3.4-0.9,8.7,0.5,12.3c1,2.7,2.3,1.9,3.2,0.2
			c0.6,1.4,0.9,2.9,1.1,4.3c-0.3-0.2-0.7-0.4-1.2-0.6c-0.5-0.2-2.2,0.2-3.5,0.6c-0.7,0-1.4,0-2.2,0c-0.2-0.3-0.3-0.6-0.5-0.9
			c-0.2-1-0.4-2-0.6-3.1c-0.1-1.2-0.1-2.3-0.1-3.1c0-1.4,0-2.9-0.2-4.3c-0.1-0.6-0.2-1.1-0.2-1.7c0.2-0.9,0.4-1.9,0.5-2.8
			c0.1-0.1,0.1-0.2,0.2-0.4c0.6-0.8,0.5-1.5,0.2-2.4c-0.2-0.5-0.5-0.9-0.9-1.3c-0.5-3.4-0.2-6,2.2-9.1
			C-128.3,373.6-127.3,372.7-126.3,371.9z"/>
	</g>
	<path class="beast-eye-14-st-2" d="M-101.4,384.2c-1.5-5.1-7.3-8.4-12.3-6.7c-2.6,0.9-4.6,3.4-5.5,5.8c-1.4,3.8-0.3,6.2,1.1,9.6
		c0,0.1,0,0.3,0.1,0.5C-111.4,401.7-98.5,394-101.4,384.2z M-106.7,394.9c-3.6,2.2-7.6,1.2-10.3-1.8c-1.1-2.7-2.4-4.9-1.7-8
		c0.6-2.7,2.4-5.1,4.8-6.4c4.8-2.6,10.4,1.8,11.7,6.4C-101,388.9-103.5,392.9-106.7,394.9z"/>
	<path class="beast-eye-14-st-2" d="M-76.5,368.8c-0.3-0.7-1.1-0.9-1.6-0.5c-0.7-1.4-1.7-2.7-3.1-4.1c-2.9-3-7.5-4.5-11.4-5.5
		c-5-1.3-10.4-1-15.6-1c-4.9,0-9.8,0-14.7,0.8c-3.8,0.6-7.3,2.1-10.3,4.6c-1.5,1.3-2.4,3.2-3.3,4.9c-1.1,2.3-2.4,4.1-3.9,6.2
		c-2.3,3.2-1.9,7.8-1.5,11.4c0.5,5.4,0.9,10.8,1.3,16.2c0.3,4.3,2,15.7,8.4,14.7c2.2-0.3,2.6-0.9,4.6,0.5c1.5,1,3.6,1.5,5.3,2.1
		c4.6,1.7,8.2,3.1,13.1,2.9c3.8-0.2,7.3,2,10.6-0.6c3.6-2.9,7.6-3.7,11.4-6.1c3.2-2,4.5-6.6,5.9-9.9c0.4-1,0.8-2,1.1-3
		c2.2-4.4,3.8-8.9,4.4-13.9c0.2-0.5,0.3-1.1,0.5-1.6c0.1-0.4,0-0.7-0.2-0.9C-75,380.5-74.5,373.8-76.5,368.8z M-91.7,414.1
		c-4.3,0.9-7,4.2-11.2,5.6c-2.2,0.7-5-0.3-7.2-0.5c-2.7-0.3-5.2,0.1-7.9-0.6c-2.5-0.6-4.8-1.9-7.1-3.1c-1.8-0.9-3.1-3-5.1-3.5
		c-0.6-0.2-1.3,0.1-1.9,0.4c-2.6,1.2-4-4.9-4.4-6.1c-1.7-5.2-0.4-10.2-1.1-15.4c-0.7-4.8-1.9-10.9,0.1-15.5c0.8-1.8,2.5-3.5,3.6-5.1
		c1.6-2.5,2-4.6,5-6.2c8.8-4.8,20.8-3.6,30.4-3c6,0.3,10.5,2.1,15,6.2c4.5,4.1,4.8,10.7,4.8,16.4c0,5.8-1.5,11.4-3.3,16.8
		c-1.5,4.4-5.1,7.5-6.3,11.9c0,0,0,0,0,0.1C-89.3,413.1-90.4,413.8-91.7,414.1z"/>
	<path class="beast-eye-14-st-4" d="M-91.3,416.4c-0.9,0.3-2.5,0.5-3.2,1.3c-0.3,0.3-0.4,0.6-0.5,1c-0.1-0.1-0.2-0.2-0.3-0.3
		c-1.1-0.6-2.3,0.6-3,1.2c-1.3,1.2-3.5,0.8-4.5,2.2c-0.5,0.1-0.7,0.4-0.9,0.7c-0.2-0.7-0.6-1.2-1.4-1.7c-1.1-0.6-2.6,0.1-3.7,0.4
		c-1.2,0.3-2.1,0-3,0.3c-0.2-0.2-0.7-0.2-0.8,0.2c0,0.1-0.1,0.2-0.1,0.4c-0.1-0.2-0.2-0.3-0.4-0.5c-1.3-1.4-4.6-2.1-6.5-1.8
		c0,0,0,0,0,0c0,0,0,0,0,0c0,0-0.1,0-0.1,0c-0.2,0-0.3,0.2-0.4,0.4c-0.1-0.2-0.2-0.3-0.4-0.5c-1.1-1.1-3.9-2.6-5.4-2
		c-0.2,0.1-0.3,0.1-0.4,0.2c-0.2-0.5-0.6-1-1.1-1.4c-1.3-0.9-2.6-0.8-3.5,0c0-0.1,0-0.2,0-0.2c0-0.5-0.7-0.6-0.9-0.3
		c-0.2,0.3-0.3,0.4-0.3,0.5c-0.3-0.4-0.6-0.5-1.1-0.2c0-0.2,0-0.4,0-0.6c0-0.6-1-0.6-1,0c0,0.7,0,1.3,0,2c-0.6,1.8-0.2,4.4-0.1,6.5
		c0,0.7,0,1.5-0.1,2.2c0,0.6,0.9,0.7,1,0.1c0,0,0-0.1,0-0.1l0,0c0,0,0,0,0,0c0.2-1.2,0.2-2.3,0.1-3.5c0-1.4,0.1-2.8,0.1-4.2
		c0,0,0-0.1,0-0.1c0.3-2,0.6-0.4,0.8,0.5c0.1,1.1,0.2,2.3,0.2,3.5c0.2,2.9,0.3,5.8,0,8.7c-0.3,2.9-0.7,5.7-0.2,8.5
		c0.1,0.4,0.7,0.5,0.9,0.1c1.3-2.9,0.4-6.1,0.5-9.1c0-2.3,0.4-4.6,0.3-6.9c-0.1-1.7-0.2-3.5-0.2-5.2c0.1-0.1,0.1-0.1,0.2-0.3
		c0-1.2,0.7-1.7,2-1.7c1.5,0.2,1.8,1.5,1.9,2.6c0,0.5,0,1,0,1.5c0,0.8-0.1,1.5,0,2.3c0.1,0.5,0.9,0.7,1,0.1c0,0,0-0.1,0-0.1
		c0,0,0,0,0,0c0,0,0,0,0,0c0-0.4,0-1,0-1.7c0-0.6,0.1-1.2,0-1.8c0.1-0.7,0.3-1.1,0.7-1.2c2.6-0.1,4.6,1.8,5.2,4.2c0,0.7,0,1.4,0,1.8
		c0,1,0,1.9,0.1,2.9c-0.3,2.4-0.8,4.8-0.8,7.2c0,0.4,0.5,0.7,0.9,0.4c0.8-0.8,0.9-3.3,0.8-5.9c0.4-2.5,0.7-5.1,0-7.2
		c0.1-0.7,0.3-1.1,0.6-1.2c0.1,0,0.1,0,0.1-0.1c2.2,0.1,5.2,1.4,5.3,3.4c0.1,1.6-0.3,3,0.4,4.5c0.2,0.4,0.7,0.3,0.9,0
		c1-1.4,0.9-4.2,0.5-6.1c0.7-0.3,1.4,0.1,2.2-0.1c1.5-0.3,4.1-1.4,4.7,0.8c0.5,1.6,0,3.3,0.9,4.8c0.2,0.4,0.8,0.3,0.9-0.1
		c0.2-0.6,0.1-1.3,0.1-1.9c-0.1-0.6,0-1.5-0.1-2.2c0.1-0.3,0.2-0.5,0.3-0.7c0.1,0,0.1-0.1,0.1-0.1c0.2-0.1,0.4-0.3,0.4-0.5
		c0.8-0.7,1.9-0.9,3-1.3c0.5-0.2,1-0.6,1.4-0.9c1.7-1.4,2.1,0,2.4,1.3c0.1,0.5,0.8,0.4,1,0c0.2-0.6,0.3-0.9,0.2-1.5
		c-0.3-2.3,1.4-2.3,2.9-2.7C-90.4,417.2-90.7,416.2-91.3,416.4z"/>
	<path class="beast-eye-14-st-4" d="M-85.9,440.8c-0.3-1.4-0.1-2.9,0-4.3c0.1-1.9-0.1-3.8-0.1-5.6c-0.1-3.1,0.2-6.3,0.1-9.4c0-1.5-0.3-3.1-0.4-4.6
		c0-1.3,0.7-2.2,0.4-3.5c-0.1-0.4-0.6-0.4-0.8-0.2c-0.6,0.5-0.9,1.2-1.1,1.9c-0.3-0.4-1-0.1-0.9,0.5c1.5,5.4,0.8,10.7,0.3,16.2
		c-0.2,2.4,0.3,4.8,0.4,7.2c0.1,1.8,0.2,3.7,0.9,5.5c0.1,0.3,0.6,0.5,0.8,0.2C-85.3,443.4-85.6,442.2-85.9,440.8z"/>
	<path class="beast-eye-14-st-0" d="M-109.3,377.7c-4.9,0-9,4.1-9,9v1c0,4.9,4.1,9,9,9c4.9,0,9-4.1,9-9v-1C-100.3,381.8-104.4,377.7-109.3,377.7z"
		/>
	<path class="beast-eye-14-st-1" d="M-109.3,383.3c-5,0-5,8,0,8S-104.3,383.3-109.3,383.3z"/>
	<path class="beast-eye-14-st-0" d="M-106.3,383.2L-106.3,383.2c-2,0-2,3,0,3l0,0C-104.3,386.2-104.3,383.2-106.3,383.2z"/>
	<path class="beast-eye-14-st-2" d="M-100.1,384.2c-1.5-5.1-7.3-8.4-12.3-6.7c-0.1,0-0.2-0.1-0.3,0c-3,1-4.6,3.1-6,5.8c-1.8,3.5,0.3,6.8,1.4,10
		c0.1,0.4,0.5,0.4,0.8,0.3C-110,401.6-97.2,393.9-100.1,384.2z M-105.4,394.9c-3.6,2.2-7.6,1.2-10.3-1.8c-1.1-2.7-2.4-4.9-1.7-8
		c0.6-2.7,2.4-5.1,4.8-6.4c4.8-2.6,10.4,1.8,11.7,6.4C-99.8,388.9-102.2,392.9-105.4,394.9z"/>
	<path class="beast-eye-14-st-2" d="M-75.5,368.8c-0.3-0.7-1.1-0.9-1.6-0.5c-0.7-1.4-1.7-2.7-3.1-4.1c-2.9-3-7.5-4.5-11.4-5.5
		c-5-1.3-10.4-1-15.6-1c-4.9,0-9.8,0-14.7,0.8c-3.8,0.6-7.3,2.1-10.3,4.6c-1.5,1.3-2.4,3.2-3.3,4.9c-1.1,2.3-2.4,4.1-3.9,6.2
		c-2.3,3.2-1.9,7.8-1.5,11.4c0.5,5.4,0.9,10.8,1.3,16.2c0.3,4.3,2,15.7,8.4,14.7c2.2-0.3,2.6-0.9,4.6,0.5c1.5,1,3.6,1.5,5.3,2.1
		c4.6,1.7,8.2,3.1,13.1,2.9c3.8-0.2,7.3,2,10.6-0.6c3.6-2.9,7.6-3.7,11.4-6.1c3.2-2,4.5-6.6,5.9-9.9c0.4-1,0.8-2,1.1-3
		c2.2-4.4,3.8-8.9,4.4-13.9c0.2-0.5,0.3-1.1,0.5-1.6c0.1-0.4,0-0.7-0.2-0.9C-74,380.5-73.5,373.8-75.5,368.8z M-90.7,414.1
		c-4.3,0.9-7,4.2-11.2,5.6c-2.2,0.7-5-0.3-7.2-0.5c-2.7-0.3-5.2,0.1-7.9-0.6c-2.5-0.6-4.8-1.9-7.1-3.1c-1.8-0.9-3.1-3-5.1-3.5
		c-0.6-0.2-1.3,0.1-1.9,0.4c-2.6,1.2-4-4.9-4.4-6.1c-1.7-5.2-0.4-10.2-1.1-15.4c-0.7-4.8-1.9-10.9,0.1-15.5c0.8-1.8,2.5-3.5,3.6-5.1
		c1.6-2.5,2-4.6,5-6.2c8.8-4.8,20.8-3.6,30.4-3c6,0.3,10.5,2.1,15,6.2c4.5,4.1,4.8,10.7,4.8,16.4c0,5.8-1.5,11.4-3.3,16.8
		c-1.5,4.4-5.1,7.5-6.3,11.9c0,0,0,0,0,0.1C-88.3,413.1-89.4,413.8-90.7,414.1z"/>
	<path class="beast-eye-14-st-4" d="M-90.3,416.4c-0.9,0.3-2.5,0.5-3.2,1.3c-0.3,0.3-0.4,0.6-0.5,1c-0.1-0.1-0.2-0.2-0.3-0.3
		c-1.1-0.6-2.3,0.6-3,1.2c-1.3,1.2-3.5,0.8-4.5,2.2c-0.5,0.1-0.7,0.4-0.9,0.7c-0.2-0.7-0.6-1.2-1.4-1.7c-1.1-0.6-2.6,0.1-3.7,0.4
		c-1.2,0.3-2.1,0-3,0.3c-0.2-0.2-0.7-0.2-0.8,0.2c0,0.1-0.1,0.2-0.1,0.4c-0.1-0.2-0.2-0.3-0.4-0.5c-1.3-1.4-4.6-2.1-6.5-1.8
		c0,0,0,0,0,0c0,0,0,0,0,0c0,0-0.1,0-0.1,0c-0.2,0-0.3,0.2-0.4,0.4c-0.1-0.2-0.2-0.3-0.4-0.5c-1.1-1.1-3.9-2.6-5.4-2
		c-0.2,0.1-0.3,0.1-0.4,0.2c-0.2-0.5-0.6-1-1.1-1.4c-1.3-0.9-2.6-0.8-3.5,0c0-0.1,0-0.2,0-0.2c0-0.5-0.7-0.6-0.9-0.3
		c-0.2,0.3-0.3,0.4-0.3,0.5c-0.3-0.4-0.6-0.5-1.1-0.2c0-0.2,0-0.4,0-0.6c0-0.6-1-0.6-1,0c0,0.7,0,1.3,0,2c-0.6,1.8-0.2,4.4-0.1,6.5
		c0,0.7,0,1.5-0.1,2.2c0,0.6,0.9,0.7,1,0.1c0,0,0-0.1,0-0.1l0,0c0,0,0,0,0,0c0.2-1.2,0.2-2.3,0.1-3.5c0-1.4,0.1-2.8,0.1-4.2
		c0,0,0-0.1,0-0.1c0.3-2,0.6-0.4,0.8,0.5c0.1,1.1,0.2,2.3,0.2,3.5c0.2,2.9,0.3,5.8,0,8.7c-0.3,2.9-0.7,5.7-0.2,8.5
		c0.1,0.4,0.7,0.5,0.9,0.1c1.3-2.9,0.4-6.1,0.5-9.1c0-2.3,0.4-4.6,0.3-6.9c-0.1-1.7-0.2-3.5-0.2-5.2c0.1-0.1,0.1-0.1,0.2-0.3
		c0-1.2,0.7-1.7,2-1.7c1.5,0.2,1.8,1.5,1.9,2.6c0,0.5,0,1,0,1.5c0,0.8-0.1,1.5,0,2.3c0.1,0.5,0.9,0.7,1,0.1c0,0,0-0.1,0-0.1
		c0,0,0,0,0,0c0,0,0,0,0,0c0-0.4,0-1,0-1.7c0-0.6,0.1-1.2,0-1.8c0.1-0.7,0.3-1.1,0.7-1.2c2.6-0.1,4.6,1.8,5.2,4.2c0,0.7,0,1.4,0,1.8
		c0,1,0,1.9,0.1,2.9c-0.3,2.4-0.8,4.8-0.8,7.2c0,0.4,0.5,0.7,0.9,0.4c0.8-0.8,0.9-3.3,0.8-5.9c0.4-2.5,0.7-5.1,0-7.2
		c0.1-0.7,0.3-1.1,0.6-1.2c0.1,0,0.1,0,0.1-0.1c2.2,0.1,5.2,1.4,5.3,3.4c0.1,1.6-0.3,3,0.4,4.5c0.2,0.4,0.7,0.3,0.9,0
		c1-1.4,0.9-4.2,0.5-6.1c0.7-0.3,1.4,0.1,2.2-0.1c1.5-0.3,4.1-1.4,4.7,0.8c0.5,1.6,0,3.3,0.9,4.8c0.2,0.4,0.8,0.3,0.9-0.1
		c0.2-0.6,0.1-1.3,0.1-1.9c-0.1-0.6,0-1.5-0.1-2.2c0.1-0.3,0.2-0.5,0.3-0.7c0.1,0,0.1-0.1,0.1-0.1c0.2-0.1,0.4-0.3,0.4-0.5
		c0.8-0.7,1.9-0.9,3-1.3c0.5-0.2,1-0.6,1.4-0.9c1.7-1.4,2.1,0,2.4,1.3c0.1,0.5,0.8,0.4,1,0c0.2-0.6,0.3-0.9,0.2-1.5
		c-0.3-2.3,1.4-2.3,2.9-2.7C-89.4,417.2-89.7,416.2-90.3,416.4z"/>
	<path class="beast-eye-14-st-4" d="M-84.9,440.8c-0.3-1.4-0.1-2.9,0-4.3c0.1-1.9-0.1-3.8-0.1-5.6c-0.1-3.1,0.2-6.3,0.1-9.4c0-1.5-0.3-3.1-0.4-4.6
		c0-1.3,0.7-2.2,0.4-3.5c-0.1-0.4-0.6-0.4-0.8-0.2c-0.6,0.5-0.9,1.2-1.1,1.9c-0.3-0.4-1-0.1-0.9,0.5c1.5,5.4,0.8,10.7,0.3,16.2
		c-0.2,2.4,0.3,4.8,0.4,7.2c0.1,1.8,0.2,3.7,0.9,5.5c0.1,0.3,0.6,0.5,0.8,0.2C-84.3,443.4-84.6,442.2-84.9,440.8z"/>
	<path class="beast-eye-14-st-0" d="M111.7,377.7c4.9,0,9,4.1,9,9v1c0,4.9-4.1,9-9,9c-4.9,0-9-4.1-9-9v-1C102.7,381.8,106.8,377.7,111.7,377.7z"/>
	<path class="beast-eye-14-st-1" d="M111.7,383.3c5,0,5,8,0,8S106.7,383.3,111.7,383.3z"/>
	<path class="beast-eye-14-st-0" d="M114.7,383.2C114.7,383.2,112.7,383.2,114.7,383.2c0,0,2,3,0,3l0,0C112.7,386.2,112.7,383.2,114.7,383.2z"/>
	<g>
		<path class="beast-eye-14-st-2" d="M115.6,398.2c0.6-0.1,0.9,0.9,0.3,1c-2.6,0.4-5.5,1.3-8,0.2c-2.9-1.3-6.1-3.7-7.5-6.6
			c-0.3-0.6,0.6-1.1,0.9-0.5c1.3,2.6,4,4.6,6.5,5.9C110.2,399.5,113,398.7,115.6,398.2z"/>
		<path class="beast-eye-14-st-2" d="M100.4,384.7c0.1-1.3,0.8-2.4,1.3-3.6c1.1-2.2,2.3-4.1,4.7-4.9c0.6-0.2,0.9,0.8,0.3,1
			c-2.6,0.8-3.6,3.4-4.7,5.6c-1,2-0.5,4.2-0.8,6.4c-0.1,0.6-1.1,0.4-1-0.3C100.5,387.5,100.3,386.1,100.4,384.7z"/>
		<path class="beast-eye-14-st-2" d="M110.8,375.2c5-0.9,10.2,1.7,12.1,6.5c1.1,2.8,2.1,5.8,1.7,8.8c-0.4,2.8-2.7,4.1-4.2,6.3
			c-0.4,0.5-1.2,0-0.9-0.5c1-1.5,2.5-2.6,3.5-4.1c1.5-2.3,0.5-5.7-0.3-8.1c-1.7-5.1-6-8.8-11.6-7.9
			C110.4,376.3,110.2,375.4,110.8,375.2z"/>
		<path class="beast-eye-14-st-2" d="M115.6,408.7c-5.3,0.5-10.8-0.2-15.3-3.1c-7.5-4.9-10.9-15.4-10.2-24c0.6-8.2,8.1-11.7,15.3-13
			c7.6-1.4,17-0.8,22.1,5.8c1.6,2.1,3.2,4.7,3.5,7.4c0.2,2.2-1.8,3.9-3.9,3.4c-0.6-0.1-0.4-1.1,0.3-1c3.9,0.8,2.4-4.2,1.5-5.9
			c-0.8-1.7-2-3.5-3.4-4.8c-5.4-5.2-13.6-5.2-20.5-3.9c-5.8,1.1-11.8,3.7-13.6,9.8c-2.1,7,1.2,16.4,5.7,21.9
			c4.5,5.4,10.7,6.4,17.3,6.3c3.1,0,5.5-0.9,7.1-3.7c0.5-0.8,0.8-1.9,1.1-2.8c0.1-0.4,1.1-3,0.1-2.5c-2.1,1.2-1.6,4.7-3.7,6.3
			c-1.7,1.4-4,1.8-6.2,1.9c-4.7,0.1-9.8-2.2-13.3-5.3c-4.9-4.3-6.5-11.6-5.9-17.9c0.2-2.6,0.9-4.9,2.7-6.9c2-2.2,5.1-3.2,7.3-5.2
			c0.8-0.7,1.8-0.8,2.8-0.9c2-0.1,4.1,0,6.1,0.1c2.6,0.2,5.2,0.8,7.6,1.9c2.6,1.3,9,4.8,6.5,8.5c-0.1,0.2-0.4,0.3-0.7,0.2
			c-2-1.2-3.1-3.3-4.7-5c-2.5-2.7-7.1-3-10.5-2.8c-6,0.3-11.7,3.9-13,9.9c-1.5,6.6,1.4,14.4,7.9,17.1c3.1,1.3,11.8,3,13.4-1.3
			c0.2-0.6,1.2-0.3,1,0.3c-1.8,4.9-9.8,3.4-13.6,2.3c-6.5-1.8-10.3-8.9-10.1-15.3c0.2-6.8,3.9-11,10.2-13.1c3.8-1.3,8-1.1,11.8,0
			c3.7,1.1,4.7,4.8,7.6,6.8c1.4-3.6-7.1-7.3-9.6-7.8c-3.3-0.7-6.6-0.7-9.9-0.8c-1.8-0.1-2.9,1.4-4.2,2.3c-1.2,0.7-2.5,1.4-3.6,2.3
			c-5.3,3.7-4.6,11.7-3,17.1c1.9,6.4,7.2,10.3,13.4,12c3,0.8,6.2,0.7,8.9-0.8c2.5-1.5,1.6-4.8,3.8-6.4c3.2-2.3,2.3,2,1.7,3.7
			C122,405.8,119.9,408.2,115.6,408.7z"/>
		<path class="beast-eye-14-st-2" d="M87.9,402c1.6,2.7,3.1,5.7,5.3,8.1c-0.1,0.2,0,0.4,0.2,0.6c0.5,0.4,1,0.7,1.5,1c2.8,2.1,6.8,3,10.1,3.7
			c0.4,0.1,0.8,0.2,1.2,0.3c0,0,0,0,0,0c2.7,1.2,5,1.6,7.8,1.2c2.5,0.1,4.9-0.1,7.1-1c2-0.4,3.9-1,5.1-2.2c0.4-0.4,0.7-0.8,0.9-1.3
			c0.9-0.9,1.4-2.1,1.4-3.3c0-0.5,0.4-0.9,0.9-1.1c0,0,0.1,0,0.1,0c1.2,0.4,2.3,0.5,3.2,0.2c1,0.5,2.4,0.2,2.8-1.2
			c1.1-4.4,2.7-10,2.3-14.7c-0.3-2.9-0.7-5.4-0.1-8.3c0.3-1.3,0.6-2.5,0.3-3.9c-1.3-7.4-7.6-13.1-14.7-15.3c-4.1-1.3-8.9-2.4-13.2-2
			c-4.3,0.4-8.3,1.5-12.5,2.2c-7.9,1.4-12.9,4.2-14.2,12.6C81.9,385.7,83.6,394.8,87.9,402z M131.1,374.6c2.4,3.1,2.7,5.7,2.2,9.1
			c-0.4,0.4-0.7,0.8-0.9,1.3c-0.3,0.9-0.4,1.6,0.2,2.4c0.1,0.1,0.2,0.2,0.2,0.4c0.1,0.9,0.3,1.9,0.5,2.8c-0.1,0.5-0.1,1.1-0.2,1.7
			c-0.2,1.4-0.1,2.9-0.2,4.3c0,0.8,0,1.9-0.1,3.1c-0.2,1-0.4,2.1-0.6,3.1c-0.1,0.4-0.3,0.7-0.5,0.9c-0.7,0.1-1.5,0.1-2.2,0
			c-1.3-0.4-3-0.8-3.5-0.6c-0.4,0.2-0.8,0.4-1.2,0.6c0.3-1.4,0.6-2.9,1.1-4.3c0.8,1.7,2.2,2.4,3.2-0.2c1.4-3.6,2.8-8.9,0.5-12.3
			c-0.4-0.7-1.4-0.7-1.9,0c-0.8,1.5-0.5,2.8-0.4,4.5c0.1,1.3-0.2,2.5-0.9,3.6c-0.7-0.6-0.9-1.3-0.5-2.1c0.1-0.2,0.1-0.4,0.2-0.6
			c0.1-0.4,0.3-0.8,0.4-1.2c0.5-1.8,0.4-3.2-0.6-4.8c-0.3-0.5-1.2,0-0.9,0.5c1.5,2.3,0.3,4-0.2,6.4c-0.2,0.8-0.2,2.3,0.4,2.9
			c1.2,1.2,2.2-0.7,2.5-1.7c0.5-1.3,0.6-2.3,0.5-3.6c-0.1-0.7-0.2-1.5-0.2-2.3c0.2-2.2,1.4,0.3,1.5,0.7c0.4,2.4-0.2,5.1-0.8,7.4
			c-0.2,0.9-0.4,1.8-0.8,2.6c-0.6,1.2-1.3-0.7-1.5-1.2c-0.1-0.4-0.7-0.5-0.9-0.1c-1.1,2-1.2,4.3-1.6,6.4c-0.4,0.4-0.8,0.9-1.1,1.6
			c-0.5,1.1-0.7,2.2-0.9,3.2c-1.5,1.7-3.5,2.4-5.7,2.7c-3.7,0.3-6.8-0.4-10.5-1.8c-2.1-0.8-4.4-1.4-6.4-2.4
			c-2.4-1.4-4.6-3.2-6.4-5.7c-3.5-4.9-5.5-10.8-5.8-16.9c-0.3-6.1,0.5-12.1,6.3-15.2c2.6-0.7,5.2-1,7.7-1.6
			c7.1-1.5,13.9-2.3,20.9,0.3c1.1,0.4,2.3,0.9,3.4,1.5c0.9,0.6,1.8,1.2,2.7,1.9C129.2,372.7,130.2,373.6,131.1,374.6z"/>
	</g>
	<path class="beast-eye-14-st-2" d="M119.2,393.5c0.1-0.1,0.1-0.3,0.1-0.5c1.4-3.4,2.5-5.9,1.1-9.6c-0.9-2.5-2.9-5-5.5-5.8
		c-5-1.7-10.8,1.6-12.3,6.7C99.8,394,112.7,401.8,119.2,393.5z M103.4,385.1c1.3-4.5,6.9-8.9,11.7-6.4c2.4,1.3,4.2,3.7,4.8,6.4
		c0.7,3.1-0.6,5.2-1.7,8c-2.6,3-6.7,4-10.3,1.8C104.7,393,102.3,389,103.4,385.1z"/>
	<path class="beast-eye-14-st-2" d="M77.4,386.1c-0.2,0.2-0.4,0.5-0.2,0.9c0.2,0.5,0.4,1.1,0.5,1.6c0.6,5,2.2,9.5,4.4,13.9c0.4,1,0.7,2,1.1,3
		c1.3,3.3,2.6,7.9,5.9,9.9c3.8,2.4,7.8,3.2,11.4,6.1c3.3,2.6,6.8,0.4,10.6,0.6c4.9,0.3,8.5-1.2,13.1-2.9c1.6-0.6,3.8-1.1,5.3-2.1
		c2-1.4,2.4-0.8,4.6-0.5c6.4,0.9,8-10.4,8.4-14.7c0.4-5.4,0.8-10.8,1.3-16.2c0.4-3.6,0.8-8.2-1.5-11.4c-1.5-2.1-2.8-3.9-3.9-6.2
		c-0.8-1.7-1.8-3.7-3.3-4.9c-2.9-2.5-6.5-4-10.3-4.6c-4.8-0.8-9.8-0.9-14.7-0.8c-5.1,0-10.6-0.3-15.6,1c-3.9,1-8.6,2.5-11.4,5.5
		c-1.4,1.4-2.3,2.8-3.1,4.1c-0.5-0.4-1.3-0.2-1.6,0.5C76.3,373.8,76.8,380.5,77.4,386.1z M90.1,412.2
		C90.1,412.2,90.1,412.2,90.1,412.2c-1.2-4.4-4.8-7.6-6.3-12c-1.8-5.5-3.4-11-3.3-16.8c0-5.7,0.3-12.3,4.8-16.4
		c4.5-4.1,9-5.9,15-6.2c9.6-0.5,21.6-1.8,30.4,3c3,1.6,3.4,3.7,5,6.2c1.1,1.7,2.8,3.3,3.6,5.1c2,4.7,0.8,10.7,0.1,15.5
		c-0.8,5.2,0.6,10.2-1.1,15.4c-0.4,1.2-1.8,7.3-4.4,6.1c-0.5-0.2-1.3-0.5-1.9-0.4c-2,0.6-3.3,2.6-5.1,3.5c-2.3,1.2-4.6,2.4-7.1,3.1
		c-2.7,0.7-5.2,0.3-7.9,0.6c-2.2,0.3-5,1.3-7.2,0.5c-4.1-1.4-6.8-4.6-11.2-5.6C92.2,413.8,91.1,413.1,90.1,412.2z"/>
	<path class="beast-eye-14-st-4" d="M92.9,417.4c1.5,0.4,3.3,0.5,2.9,2.7c-0.1,0.6,0,0.9,0.2,1.5c0.2,0.4,0.8,0.5,1,0c0.3-1.3,0.7-2.7,2.4-1.3
		c0.4,0.4,0.8,0.7,1.4,0.9c1,0.4,2.2,0.6,3,1.3c0,0.2,0.1,0.5,0.4,0.5c0.1,0,0.1,0.1,0.1,0.1c0.1,0.2,0.2,0.4,0.3,0.7
		c0,0.8,0,1.6-0.1,2.2c-0.1,0.6-0.1,1.3,0.1,1.9c0.2,0.4,0.7,0.5,0.9,0.1c0.9-1.5,0.4-3.2,0.9-4.8c0.6-2.2,3.2-1.1,4.7-0.8
		c0.8,0.2,1.5-0.2,2.2,0.1c-0.4,1.9-0.5,4.7,0.5,6.1c0.2,0.3,0.7,0.4,0.9,0c0.7-1.5,0.3-2.9,0.4-4.5c0.1-2,3.1-3.3,5.3-3.4
		c0,0,0.1,0,0.1,0.1c0.3,0.1,0.5,0.5,0.6,1.2c-0.7,2.1-0.4,4.7,0,7.2c-0.1,2.6,0,5.1,0.8,5.9c0.3,0.3,0.8,0.1,0.9-0.4
		c0-2.4-0.5-4.8-0.8-7.2c0-1,0.1-1.9,0.1-2.9c0-0.4,0.1-1.1,0-1.8c0.5-2.4,2.6-4.3,5.2-4.2c0.4,0,0.6,0.5,0.7,1.2c0,0.6,0,1.2,0,1.8
		c0,0.7,0,1.3,0,1.7c0,0,0,0,0,0h0c0,0,0,0.1,0,0.1c0.1,0.6,0.9,0.4,1-0.1c0.1-0.8,0-1.5,0-2.3c0-0.5,0.1-1,0-1.5
		c0.1-1.1,0.4-2.4,1.9-2.6c1.3,0,2,0.5,2,1.7c0,0.1,0.1,0.2,0.2,0.3c0,1.7-0.2,3.5-0.2,5.2c-0.1,2.3,0.2,4.6,0.3,6.9
		c0.1,3-0.8,6.2,0.5,9.1c0.2,0.4,0.8,0.3,0.9-0.1c0.5-2.9,0-5.7-0.2-8.5c-0.3-2.9-0.1-5.8,0-8.7c0.1-1.2,0.1-2.3,0.2-3.5
		c0.1-1,0.4-2.5,0.8-0.5c0,0,0,0.1,0,0.1c0,1.4,0,2.8,0.1,4.2c-0.1,1.2-0.1,2.3,0.1,3.5c0,0,0,0,0,0c0,0,0,0,0,0c0,0,0,0.1,0,0.1
		c0.1,0.6,1,0.4,1-0.1c0-0.7,0-1.5-0.1-2.2c0.1-2.1,0.5-4.7-0.1-6.5c0-0.7,0-1.3,0-2c0-0.6-1-0.6-1,0c0,0.2,0,0.4,0,0.6
		c-0.5-0.3-0.8-0.1-1.1,0.2c-0.1-0.1-0.2-0.3-0.3-0.5c-0.3-0.4-0.9-0.3-0.9,0.3c0,0.1,0,0.2,0,0.2c-0.9-0.8-2.2-0.9-3.5,0
		c-0.6,0.4-0.9,0.8-1.1,1.4c-0.1-0.1-0.2-0.2-0.4-0.2c-1.6-0.6-4.4,0.9-5.4,2c-0.1,0.1-0.3,0.3-0.4,0.5c0-0.2-0.1-0.3-0.4-0.4
		c0,0-0.1,0-0.1,0c0,0,0,0,0,0c0,0,0,0,0,0c-1.8-0.3-5.2,0.5-6.5,1.8c-0.1,0.2-0.3,0.3-0.4,0.5c0-0.1-0.1-0.2-0.1-0.4
		c-0.1-0.4-0.6-0.5-0.8-0.2c-0.9-0.3-1.8,0.1-3-0.3c-1.1-0.3-2.6-1-3.7-0.4c-0.8,0.4-1.2,1-1.4,1.7c-0.2-0.4-0.4-0.7-0.9-0.7
		c-1.1-1.4-3.2-1.1-4.5-2.2c-0.7-0.6-1.9-1.9-3-1.2c-0.1,0.1-0.2,0.2-0.3,0.3c-0.1-0.3-0.2-0.6-0.5-1c-0.7-0.8-2.2-1-3.2-1.3
		C92.5,416.2,92.3,417.2,92.9,417.4z"/>
	<path class="beast-eye-14-st-4" d="M88.1,444.5c0.3,0.3,0.7,0.1,0.8-0.2c0.7-1.7,0.8-3.6,0.9-5.5c0.2-2.4,0.6-4.8,0.4-7.2
		c-0.5-5.5-1.2-10.7,0.3-16.2c0.2-0.5-0.6-0.8-0.9-0.5c-0.2-0.8-0.5-1.5-1.1-1.9c-0.3-0.2-0.7-0.2-0.8,0.2c-0.3,1.3,0.4,2.2,0.4,3.5
		c0,1.5-0.3,3.1-0.4,4.6c-0.1,3.1,0.2,6.3,0.1,9.4c-0.1,1.9-0.3,3.8-0.1,5.6c0.1,1.4,0.3,2.9,0,4.3
		C87.4,442.2,87.1,443.4,88.1,444.5z"/>
	<g>
		<path class="beast-eye-14-st-0" d="M-62.7,356c10.8-1.1,21.5-0.9,32.4,0.1c12,1.1,23.9-1.9,35.8-0.2c4.5,0.6,8.5,0.7,13,0.1
			c6.1-0.9,11.7-2.6,17.9-1.5c4.7,0.8,8.9,2,13.6,1.3c5.8-0.8,11.2-2.5,17.1-0.8c2.9,0.9,4.2-3.7,1.3-4.6c-4.6-1.3-8.9-1.1-13.6-0.2
			c-6.1,1.1-11.1,1-17.2-0.3c-4.7-1-9.2-0.6-13.9,0.2c-6.6,1.2-12.1,1.9-18.9,0.9c-11.1-1.5-22.3,1.1-33.5,0.5
			c-11.5-0.7-22.6-1.5-34.2-0.3C-65.7,351.6-65.8,356.3-62.7,356z"/>
		<path class="beast-eye-14-st-0" d="M-59.8,363.9c0.1-0.1,0.2-0.2,0.3-0.3c0.9-0.9,0.9-2.4,0-3.4c-0.9-0.9-2.4-0.9-3.4,0l-0.3,0.3
			c-0.9,0.9-0.9,2.4,0,3.4C-62.2,364.8-60.7,364.8-59.8,363.9z"/>
		<path class="beast-eye-14-st-0" d="M-51.3,359.8c-3,0-3,4.8,0,4.8S-48.3,359.8-51.3,359.8z"/>
		<path class="beast-eye-14-st-0" d="M-42.3,359.8c-4,0-4,4.8,0,4.8C-39.3,364.6-39.3,359.8-42.3,359.8z"/>
		<path class="beast-eye-14-st-0" d="M-34.3,360.1c-2,0-2,4.8,0,4.8C-30.3,364.9-30.3,360.1-34.3,360.1z"/>
		<path class="beast-eye-14-st-0" d="M-24.7,364.2c1.3,0,2.4-0.7,2.4-2c0-1.3-1.1-2-2.4-2H-25c-1.3,0-2.4,0.7-2.4,2c0,1.3,1.1,2,2.4,2H-24.7z"/>
		<path class="beast-eye-14-st-0" d="M-15.3,360.1c-3,0-3,4.8,0,4.8S-12.3,360.1-15.3,360.1z"/>
		<path class="beast-eye-14-st-0" d="M-6.3,359.5c-3,0-3,4.8,0,4.8S-3.3,359.5-6.3,359.5z"/>
		<path class="beast-eye-14-st-0" d="M2.2,364.2c1.3,0,2.4-0.7,2.4-2c0-1.3-1.1-2-2.4-2H1.9c-1.3,0-2.4,0.7-2.4,2c0,1.3,1.1,2,2.4,2H2.2z"/>
		<path class="beast-eye-14-st-0" d="M10.7,361.1c-3,0-3,4.8,0,4.8S13.7,361.1,10.7,361.1z"/>
		<path class="beast-eye-14-st-0" d="M21.3,364.5c0.1-0.1,0.2-0.2,0.3-0.3c0.9-0.9,0.9-2.4,0-3.4c-0.9-0.9-2.4-0.9-3.4,0l-0.3,0.3
			c-0.9,0.9-0.9,2.4,0,3.4C18.9,365.4,20.4,365.4,21.3,364.5z"/>
		<path class="beast-eye-14-st-0" d="M29.7,358.9c-3,0-3,4.8,0,4.8S32.7,358.9,29.7,358.9z"/>
		<path class="beast-eye-14-st-0" d="M41.5,363.9c1.3,0,2.4-1.1,2.4-2.4c0-1-0.7-1.9-1.6-2.2c-0.6-0.4-1.4-0.6-2-0.4c-0.6,0.2-1.1,0.6-1.4,1.1
			c-0.4,0.6-0.3,1.2-0.2,1.8C38.7,363.3,40.2,363.9,41.5,363.9z"/>
		<path class="beast-eye-14-st-0" d="M51.7,359.8c-3,0-3,4.8,0,4.8S54.7,359.8,51.7,359.8z"/>
		<path class="beast-eye-14-st-0" d="M60.7,359.2c-3,0-3,4.8,0,4.8S63.7,359.2,60.7,359.2z"/>
		<path class="beast-eye-14-st-0" d="M67.7,359.2c-3,0-3,4.8,0,4.8C71.7,363.9,71.7,359.2,67.7,359.2z"/>
		<path class="beast-eye-14-st-0" d="M68.4,368c-11.2,0.2-22.5,0.8-33.7,1.2c-11.8,0.4-23.5-0.3-35.3-0.7c-10.4-0.3-20.6,2.3-31.1,1.3
			c-10.3-1-20.7,1.5-31,0.2c-2.1-0.3-2.7,1.9-1.9,3.4c-0.8,1.5-0.2,3.7,1.9,3.5c10.8-1.1,21.5-0.9,32.4,0.1
			c12,1.1,23.9-1.9,35.8-0.2c4.5,0.6,8.5,0.7,13,0.1c6.1-0.9,11.7-2.6,17.9-1.5c4.7,0.8,8.9,2,13.6,1.3c5.8-0.8,11.2-2.5,17.1-0.8
			c2.3,0.7,3.5-1.9,2.6-3.5C71.4,371.2,70.9,368,68.4,368z"/>
		<path class="beast-eye-14-st-0" d="M-62.8,381.1l-0.3,0.3c-0.9,0.9-0.9,2.4,0,3.4c0.9,0.9,2.4,0.9,3.4,0c0.1-0.1,0.2-0.2,0.3-0.3
			c0.9-0.9,0.9-2.4,0-3.4C-60.4,380.2-61.9,380.2-62.8,381.1z"/>
		<path class="beast-eye-14-st-0" d="M-51.3,385.5c3,0,3-4.8,0-4.8S-54.3,385.5-51.3,385.5z"/>
		<path class="beast-eye-14-st-0" d="M-42.3,385.5c3,0,3-4.8,0-4.8C-46.3,380.7-46.3,385.5-42.3,385.5z"/>
		<path class="beast-eye-14-st-0" d="M-34.3,385.8c4,0,4-4.8,0-4.8C-36.3,381-36.3,385.8-34.3,385.8z"/>
		<path class="beast-eye-14-st-0" d="M-25,381.2c-1.3,0-2.4,0.7-2.4,2c0,1.3,1.1,2,2.4,2h0.3c1.3,0,2.4-0.7,2.4-2c0-1.3-1.1-2-2.4-2H-25z"/>
		<path class="beast-eye-14-st-0" d="M-15.3,385.8c3,0,3-4.8,0-4.8S-18.3,385.8-15.3,385.8z"/>
		<path class="beast-eye-14-st-0" d="M-6.3,385.1c3,0,3-4.8,0-4.8S-9.3,385.1-6.3,385.1z"/>
		<path class="beast-eye-14-st-0" d="M1.9,381.2c-1.3,0-2.4,0.7-2.4,2c0,1.3,1.1,2,2.4,2h0.3c1.3,0,2.4-0.7,2.4-2c0-1.3-1.1-2-2.4-2H1.9z"/>
		<path class="beast-eye-14-st-0" d="M10.7,386.7c3,0,3-4.8,0-4.8S7.7,386.7,10.7,386.7z"/>
		<path class="beast-eye-14-st-0" d="M18.3,381.7l-0.3,0.3c-0.9,0.9-0.9,2.4,0,3.4c0.9,0.9,2.4,0.9,3.4,0c0.1-0.1,0.2-0.2,0.3-0.3
			c0.9-0.9,0.9-2.4,0-3.4C20.7,380.8,19.2,380.8,18.3,381.7z"/>
		<path class="beast-eye-14-st-0" d="M29.7,379.8c-3,0-3,4.8,0,4.8S32.7,379.8,29.7,379.8z"/>
		<path class="beast-eye-14-st-0" d="M40.2,379.8c-0.6,0.2-1.1,0.6-1.4,1.1c-0.4,0.6-0.3,1.2-0.2,1.8c0.2,1.4,1.7,2.1,2.9,2.1
			c1.3,0,2.4-1.1,2.4-2.4c0-1-0.7-1.9-1.6-2.2C41.7,379.8,40.9,379.7,40.2,379.8z"/>
		<path class="beast-eye-14-st-0" d="M51.7,385.5c3,0,3-4.8,0-4.8S48.7,385.5,51.7,385.5z"/>
		<path class="beast-eye-14-st-0" d="M60.7,384.8c3,0,3-4.8,0-4.8S57.7,384.8,60.7,384.8z"/>
		<path class="beast-eye-14-st-0" d="M67.7,380.1c-3,0-3,4.8,0,4.8C71.7,384.8,71.7,380.1,67.7,380.1z"/>
		<path class="beast-eye-14-st-0" d="M-62.7,396.9c10.8-1.1,21.5-0.9,32.4,0.1c12,1.1,23.9-1.9,35.8-0.2c4.5,0.6,8.5,0.7,13,0.1
			c6.1-0.9,11.7-2.6,17.9-1.5c4.7,0.8,8.9,2,13.6,1.3c5.8-0.8,11.2-2.5,17.1-0.8c2,0.6,3.2-1.3,2.9-2.8c1.3-1.3,0.7-4.1-1.6-4.1
			c-11.2,0.2-22.5,0.8-33.7,1.2c-11.8,0.4-23.5-0.3-35.3-0.7c-10.4-0.3-20.6,2.3-31.1,1.3c-10.3-1-20.7,1.5-31,0.2
			c-1.9-0.3-2.6,1.5-2.1,2.9C-65.3,395.2-64.6,397.1-62.7,396.9z"/>
		<path class="beast-eye-14-st-0" d="M-62.8,401l-0.3,0.3c-0.9,0.9-0.9,2.4,0,3.4c0.9,0.9,2.4,0.9,3.4,0c0.1-0.1,0.2-0.2,0.3-0.3
			c0.9-0.9,0.9-2.4,0-3.4C-60.4,400.1-61.9,400.1-62.8,401z"/>
		<path class="beast-eye-14-st-0" d="M-51.3,405.4c3,0,3-4.8,0-4.8S-54.3,405.4-51.3,405.4z"/>
		<path class="beast-eye-14-st-0" d="M-42.3,405.4c3,0,3-4.8,0-4.8C-46.3,400.7-46.3,405.4-42.3,405.4z"/>
		<path class="beast-eye-14-st-0" d="M-34.3,405.7c4,0,4-4.8,0-4.8C-36.3,401-36.3,405.7-34.3,405.7z"/>
		<path class="beast-eye-14-st-0" d="M-25,401.2c-1.3,0-2.4,0.7-2.4,2c0,1.3,1.1,2,2.4,2h0.3c1.3,0,2.4-0.7,2.4-2c0-1.3-1.1-2-2.4-2H-25z"/>
		<path class="beast-eye-14-st-0" d="M-15.3,405.7c3,0,3-4.8,0-4.8S-18.3,405.7-15.3,405.7z"/>
		<path class="beast-eye-14-st-0" d="M-6.3,405.1c3,0,3-4.8,0-4.8S-9.3,405.1-6.3,405.1z"/>
		<path class="beast-eye-14-st-0" d="M1.9,401.2c-1.3,0-2.4,0.7-2.4,2c0,1.3,1.1,2,2.4,2h0.3c1.3,0,2.4-0.7,2.4-2c0-1.3-1.1-2-2.4-2H1.9z"/>
		<path class="beast-eye-14-st-0" d="M10.7,406.7c3,0,3-4.8,0-4.8S7.7,406.7,10.7,406.7z"/>
		<path class="beast-eye-14-st-0" d="M18.3,401.7l-0.3,0.3c-0.9,0.9-0.9,2.4,0,3.4c0.9,0.9,2.4,0.9,3.4,0c0.1-0.1,0.2-0.2,0.3-0.3
			c0.9-0.9,0.9-2.4,0-3.4C20.7,400.8,19.2,400.8,18.3,401.7z"/>
		<path class="beast-eye-14-st-0" d="M29.7,399.7c-3,0-3,4.8,0,4.8S32.7,399.7,29.7,399.7z"/>
		<path class="beast-eye-14-st-0" d="M40.2,399.8c-0.6,0.2-1.1,0.6-1.4,1.1c-0.4,0.6-0.3,1.2-0.2,1.8c0.2,1.4,1.7,2.1,2.9,2.1
			c1.3,0,2.4-1.1,2.4-2.4c0-1-0.7-1.9-1.6-2.2C41.7,399.8,40.9,399.6,40.2,399.8z"/>
		<path class="beast-eye-14-st-0" d="M51.7,405.4c3,0,3-4.8,0-4.8S48.7,405.4,51.7,405.4z"/>
		<path class="beast-eye-14-st-0" d="M60.7,404.8c3,0,3-4.8,0-4.8S57.7,404.8,60.7,404.8z"/>
		<path class="beast-eye-14-st-0" d="M67.7,400c-3,0-3,4.8,0,4.8C71.7,404.8,71.7,400,67.7,400z"/>
		<path class="beast-eye-14-st-0" d="M-62.7,417.8c10.8-1.1,21.5-0.9,32.4,0.1c12,1.1,23.9-1.9,35.8-0.2c4.5,0.6,8.5,0.7,13,0.1
			c6.1-0.9,11.7-2.6,17.9-1.5c4.7,0.8,8.9,2,13.6,1.3c5.8-0.8,11.2-2.5,17.1-0.8c2.3,0.7,3.5-1.9,2.6-3.5c1.6-1.2,1.1-4.4-1.4-4.3
			c-11.2,0.2-22.5,0.8-33.7,1.2c-11.8,0.4-23.5-0.3-35.3-0.7c-10.4-0.3-20.6,2.3-31.1,1.3c-10.3-1-20.7,1.5-31,0.2
			c-2.1-0.3-2.7,1.9-1.9,3.4C-65.5,415.7-64.9,418-62.7,417.8z"/>
		<path class="beast-eye-14-st-0" d="M-62.8,421.9l-0.3,0.3c-0.9,0.9-0.9,2.4,0,3.4c0.9,0.9,2.4,0.9,3.4,0c0.1-0.1,0.2-0.2,0.3-0.3
			c0.9-0.9,0.9-2.4,0-3.4C-60.4,421-61.9,421-62.8,421.9z"/>
		<path class="beast-eye-14-st-0" d="M-51.3,426.3c3,0,3-4.8,0-4.8S-54.3,426.3-51.3,426.3z"/>
		<path class="beast-eye-14-st-0" d="M-42.3,426.3c3,0,3-4.8,0-4.8C-46.3,421.6-46.3,426.3-42.3,426.3z"/>
		<path class="beast-eye-14-st-0" d="M-34.3,426.6c4,0,4-4.8,0-4.8C-36.3,421.9-36.3,426.6-34.3,426.6z"/>
		<path class="beast-eye-14-st-0" d="M-25,421.2c-1.3,0-2.4,1.2-2.4,2.5c0,1.3,1.1,2.5,2.4,2.5h0.3c1.3,0,2.4-1.2,2.4-2.5c0-1.3-1.1-2.5-2.4-2.5
			H-25z"/>
		<path class="beast-eye-14-st-0" d="M-15.3,426.6c3,0,3-4.8,0-4.8S-18.3,426.6-15.3,426.6z"/>
		<path class="beast-eye-14-st-0" d="M-6.3,426c3,0,3-4.8,0-4.8S-9.3,426-6.3,426z"/>
		<path class="beast-eye-14-st-0" d="M1.9,421.2c-1.3,0-2.4,1.2-2.4,2.5c0,1.3,1.1,2.5,2.4,2.5h0.3c1.3,0,2.4-1.2,2.4-2.5c0-1.3-1.1-2.5-2.4-2.5
			H1.9z"/>
		<path class="beast-eye-14-st-0" d="M10.7,427.6c3,0,3-4.8,0-4.8S7.7,427.6,10.7,427.6z"/>
		<path class="beast-eye-14-st-0" d="M18.3,422.6l-0.3,0.3c-0.9,0.9-0.9,2.4,0,3.4c0.9,0.9,2.4,0.9,3.4,0c0.1-0.1,0.2-0.2,0.3-0.3
			c0.9-0.9,0.9-2.4,0-3.4C20.7,421.7,19.2,421.7,18.3,422.6z"/>
		<path class="beast-eye-14-st-0" d="M29.7,420.6c-3,0-3,4.8,0,4.8S32.7,420.6,29.7,420.6z"/>
		<path class="beast-eye-14-st-0" d="M40.2,420.7c-0.6,0.2-1.1,0.6-1.4,1.1c-0.4,0.6-0.3,1.2-0.2,1.8c0.2,1.4,1.7,2.1,2.9,2.1
			c1.3,0,2.4-1.1,2.4-2.4c0-1-0.7-1.9-1.6-2.2C41.7,420.7,40.9,420.5,40.2,420.7z"/>
		<path class="beast-eye-14-st-0" d="M51.7,426.3c3,0,3-4.8,0-4.8S48.7,426.3,51.7,426.3z"/>
		<path class="beast-eye-14-st-0" d="M60.7,425.7c3,0,3-4.8,0-4.8S57.7,425.7,60.7,425.7z"/>
		<path class="beast-eye-14-st-0" d="M67.7,420.9c-3,0-3,4.8,0,4.8C71.7,425.7,71.7,420.9,67.7,420.9z"/>
		<path class="beast-eye-14-st-0" d="M68.4,429.8c-11.2,0.2-22.5,0.8-33.7,1.2c-11.8,0.4-23.5-0.3-35.3-0.7c-10.4-0.3-20.6,2.3-31.1,1.3
			c-10.3-1-20.7,1.5-31,0.2c-3-0.4-3,4.3,0,4.8c9.8,1.3,19.6-0.6,29.4-0.3c5.2,0.2,10.2,0.5,15.4,0.1c5.8-0.5,11.5-1.2,17.3-1.2
			c11.2,0,22.3,1.1,33.5,0.8c11.9-0.3,23.7-1,35.6-1.2C71.5,434.5,71.5,429.7,68.4,429.8z"/>
	</g>
</g>
</svg>
