<?xml version="1.0" encoding="utf-8"?>
<!-- Generator: Adobe Illustrator 19.1.0, SVG Export Plug-In . SVG Version: 6.00 Build 0)  -->
<svg version="1.1" id="Layer_1" xmlns="http://www.w3.org/2000/svg" xmlns:xlink="http://www.w3.org/1999/xlink" x="0px" y="0px"
	 viewBox="-152 341 305.8 112" style="enable-background:new -152 341 305.8 112;" xml:space="preserve">
<style type="text/css">
	.beast-eye-16-st-0{fill:#FCDCA4;}
	.beast-eye-16-st-1{fill:#D72050;}
</style>
<g>
	<path class="beast-eye-16-st-0" d="M103.6,396.5c-3.1-2.3-6.1-4.6-9.3-6.8c-10-11.6-35.2-22.8-40.9-25.5c-9.8-4.5-19.6-8.8-30.3-10.4
		c-8.5-1.3-17.7-2.2-26.7-1.6c-0.5-0.2-1-0.3-1.6-0.1c-0.5,0.1-1.1,0.3-1.6,0.4c-2.4,0.3-4.8,0.7-7.1,1.3c-3.5,0.3-6.9,0.8-10.4,1.6
		c-11.1,2.5-21.8,7-31.8,12.4c-9.2,5-17.3,11.3-25.3,18c-2.4,2-5.3,4.4-7.8,7.1c-7.4,2.5-12.4,11.2-16.2,17.5
		c-0.7,1.1-0.3,2.9,0.9,3.6c3.1,1.5,6.4,2.6,9.6,3.5c0.1,0.1,0.2,0.1,0.3,0.2c3.8,1.8,7.9,3.5,12,4.2c3.3,1.2,6.7,2,10,2.8
		c1.6,0.4,3.1,0.7,4.7,1c10.7,3.2,21.4,6.5,32.3,8.9c4.1,0.9,8.2,1.6,12.3,2.1c7.1,1.3,14.4,2,21.4,2.8c10.3,1.1,20.8,0.3,30.9-1.9
		c3.5-0.8,7.2-1.6,10.7-2.9c7.2-1.6,14.3-3.9,21.1-6.9c7.7-3.4,15-7.8,22.2-12.2c0.1-0.1,0.3-0.1,0.4-0.2c3.6-1.4,8.6-3.7,11.2-7.2
		c3.3-2.3,6.5-4.9,9.5-7.8C105.4,399.3,104.9,397.5,103.6,396.5z"/>
	<path class="beast-eye-16-st-1" d="M2.7,354.4c-22.6,0-41.5,18.9-41.5,41.5c0,22.6,18.9,41.5,41.5,41.5c22.6,0,41.5-18.9,41.5-41.5
		C44.2,373.3,25.3,354.4,2.7,354.4z"/>
	<path class="beast-eye-16-st-0" d="M2.4,395.4c-2,0-2,3,0,3S4.4,395.4,2.4,395.4z"/>
	<path class="beast-eye-16-st-0" d="M109.1,392.2c-2.5-1.9-5.2-3.4-7.8-5.1c-3.3-2.2-6.3-4.9-9.5-7.2c-5.9-4.2-12.6-7.2-19.2-10.2
		c-3.2-1.5-6.4-2.9-9.4-4.6c-3.4-1.9-6.6-4.2-9.9-6.2c-6.2-3.7-13.5-5.9-20.5-7.6c-14.7-3.5-30.1-4-45.1-2.8
		c-14.6,1.1-28.4,5.4-41.4,12c-11.3,5.8-22,14-31,22.9c-2.1,2.1-4,4.3-6.3,6.2c-2.2,1.8-4.5,3.4-6.6,5.3c-3.9,3.6-7.7,7.9-9.4,13
		c-0.2,0.6,0.8,0.9,1,0.3c2.3-6.7,8.2-12.2,13.8-16.3c2.6-1.9,4.8-4.2,7-6.4c2.8-2.8,5.7-5.5,8.7-8c12.2-10.2,25.5-18.3,40.6-23.3
		c14.7-4.9,30.4-5.8,45.8-5c15.4,0.7,32,3.7,45.2,12c4.3,2.7,8.5,5.3,13.1,7.5c4.7,2.3,9.5,4.4,14.2,6.8c4.7,2.4,9,5.2,13.2,8.5
		c4.1,3.2,8.7,5.6,12.8,8.8C108.9,393.3,109.6,392.5,109.1,392.2z"/>
	<path class="beast-eye-16-st-0" d="M-105.7,415.5c-1.7-0.9-2.9-2.4-2.2-4.4c0.2-0.6-0.7-0.9-1-0.3c-0.9,2.4,0.6,4.4,2.7,5.6
		C-105.6,416.7-105.1,415.8-105.7,415.5z"/>
	<path class="beast-eye-16-st-0" d="M-108.4,405.2c0.5-0.4,0-1.2-0.5-0.9c-3.4,2.6-4.3,10.2-0.7,13c0.5,0.4,1.2-0.3,0.7-0.7
		C-111.9,414.3-111.3,407.4-108.4,405.2z"/>
	<path class="beast-eye-16-st-0" d="M106.1,394.1c-0.5-0.4-1.2,0.3-0.7,0.7c2.4,2.2,2.9,4.8,1.8,7.8c-0.2,0.6,0.7,0.9,1,0.3
		C109.3,399.5,108.7,396.5,106.1,394.1z"/>
	<path class="beast-eye-16-st-0" d="M112,392.5c-0.8-2.3-1.3-4.5-4-4.9c-0.6-0.1-0.9,0.9-0.3,1c2.7,0.5,3.1,3.4,3.7,5.6c0.7,2.4-0.8,5.1-1.1,7.5
		c-0.1,0.6,0.9,0.9,1,0.3C111.8,398.5,113.2,395.9,112,392.5z"/>
	<path class="beast-eye-16-st-0" d="M28.3,440.7c-11.5,0.9-23,1.2-34.5,0.4c-11.8-0.9-23.4-3.7-35-6.2c-10.3-2.2-21-3-31.1-6
		c-5.5-1.6-10.5-4.3-15.7-6.8c-4.5-2.1-9.8-2.3-14-5.1c-0.5-0.4-1,0.5-0.5,0.9c4,2.7,8.8,2.9,13.2,4.7c5.1,2.2,9.8,4.9,15.1,6.7
		c10.3,3.5,21.3,4.1,31.9,6.3c11.4,2.3,22.7,5.2,34.3,6.3c12.1,1.1,24.3,0.7,36.4-0.2C29,441.6,29,440.6,28.3,440.7z"/>
	<path class="beast-eye-16-st-0" d="M102.5,404.6c-1.8,2.1-4.3,3.5-6.3,5.4c-2.4,2.4-4.7,4.7-7.6,6.5c-5.5,3.5-11.9,5.5-17.7,8.4
		c-6.5,3.2-13,6.4-19.8,9.1c-3.1,1.2-6.1,2.4-9.3,3.1c-2.8,0.6-5.8,2.3-8.7,1.4c-0.6-0.2-0.9,0.8-0.3,1c2.3,0.7,4.7-0.1,6.9-0.7
		c3.1-0.9,6.2-1.7,9.2-2.9c7.1-2.7,14-5.9,20.8-9.3c6.2-3,12.7-5.4,18.7-8.8c2.8-1.6,5.1-3.6,7.3-5.9c2.3-2.4,5.3-4.1,7.5-6.6
		C103.7,404.8,103,404.1,102.5,404.6z"/>
	<path class="beast-eye-16-st-0" d="M7.2,444.5c-4.6-0.3-9.2,0.4-13.8,0c-4.7-0.4-9.3-1.2-14-1.7c-5.1-0.5-10.1-1-15.1-1.9
		c-4.2-0.7-8.4-1.7-12.7-2c-9.4-0.6-19-1.6-27.7-5.4c-4-1.8-7.7-4.2-11.8-6.1c-2.1-1-4.3-1.9-6.5-2.8c-1.6-0.7-2.9-1.4-4.7-1.6
		c-0.6-0.1-0.6,0.9,0,1c2.1,0.2,4,1.4,5.9,2.2c2.4,1,4.8,2.1,7.1,3.2c3.7,1.9,7.2,4.1,11.1,5.6c8.1,3.3,17,4.1,25.6,4.7
		c4.8,0.3,9.4,1.4,14.2,2.2c4.5,0.8,9,1.2,13.5,1.7c4.7,0.5,9.3,1.2,14,1.7c5,0.6,9.8-0.2,14.7,0.1C7.8,445.6,7.8,444.6,7.2,444.5z"
		/>
	<path class="beast-eye-16-st-0" d="M36.4,442.6c-3.3,0.7-6.4,1.9-9.7,2.2c-3.7,0.4-7.4,0.1-11.1,0.2c-0.6,0-0.6,1,0,1c3.7-0.1,7.4,0.1,11.1-0.2
		c3.5-0.3,6.6-1.5,10-2.3C37.3,443.4,37,442.5,36.4,442.6z"/>
	<path class="beast-eye-16-st-0" d="M105.5,406.7c-3.4,4.8-9,8.2-13.7,11.6c-4.8,3.5-10.5,5.3-15.9,7.6c-6,2.6-11.6,5.9-17.3,9
		c-3,1.6-6.2,2.7-9.3,3.9c-2.8,1.1-5.4,2.5-8.4,3c-0.6,0.1-0.4,1.1,0.3,1c2.7-0.5,5.2-1.7,7.7-2.8c3.1-1.4,6.3-2.5,9.4-3.9
		c6.7-3.1,12.8-7.2,19.7-10c5.5-2.3,10.9-4.3,15.7-7.9c4.4-3.4,9.5-6.3,12.8-11C106.8,406.7,105.9,406.2,105.5,406.7z"/>
	<path class="beast-eye-16-st-0" d="M-8.2,345c-19,0.1-38,4.9-54.1,15.2c-8.5,5.4-15.9,12.3-23.2,19.2c-3.8,3.5-7.6,6.8-11.5,10.2
		c-3.9,3.4-6.7,7.5-9.9,11.6c-0.4,0.5,0.3,1.2,0.7,0.7c2.8-3.5,5.3-7.2,8.6-10.4c3.7-3.6,7.8-6.6,11.5-10.1
		c7.5-7.1,15-14.2,23.6-19.9c16-10.6,35.3-15.4,54.3-15.5C-7.5,346-7.5,345-8.2,345z"/>
	<path class="beast-eye-16-st-0" d="M99.9,380.4c-8.5-4.5-17.4-8.3-25.1-14.1c-3.9-3-8.2-5.2-12.7-7.2c-4.3-2-8.5-4.2-12.8-6
		c-9.1-3.8-18.9-5.8-28.7-6.8c-4.9-0.5-9.8-0.9-14.7-1.5c-3.1-0.4-6.6-1.1-9.6,0.3c-0.6,0.3-0.1,1.1,0.5,0.9c3-1.4,7.1-0.4,10.3,0
		c4.8,0.6,9.6,1,14.4,1.5c10.1,1,20.6,3.4,29.8,7.7c8.1,3.7,16.4,7.2,23.6,12.6c7.5,5.6,16.2,9.2,24.4,13.6
		C100,381.6,100.5,380.7,99.9,380.4z"/>
	<path class="beast-eye-16-st-0" d="M-103,420.2c-0.8-0.3-1.5-0.6-2.2-1c-0.6-0.3-1.1,0.6-0.5,0.9c0.8,0.4,1.6,0.8,2.4,1.1
		C-102.6,421.4-102.4,420.4-103,420.2z"/>
	<path class="beast-eye-16-st-0" d="M-110.8,419.6c-3.5-2.8-4.2-7-5.5-11.1c-0.2-0.6-1.2-0.3-1,0.3c1.4,4.2,2.2,8.6,5.8,11.5
		C-111,420.7-110.3,420-110.8,419.6z"/>
	<path class="beast-eye-16-st-0" d="M-112.5,403.4c-0.8,0.9-1.5,1.9-1.8,3c-0.2,0.6,0.8,0.9,1,0.3c0.3-1,0.9-1.8,1.5-2.6
		C-111.4,403.6-112.1,402.9-112.5,403.4z"/>
	<path class="beast-eye-16-st-0" d="M-110.1,398.6c-0.3,0.1-0.5,0.3-0.8,0.4c-0.6,0.3-0.1,1.2,0.5,0.9c0.3-0.1,0.5-0.3,0.8-0.4
		C-109.1,399.2-109.6,398.3-110.1,398.6z"/>
	<path class="beast-eye-16-st-0" d="M-119,405.8c-1.8,0-3.5-0.1-5.3,0.1c-0.6,0.1-0.4,1.1,0.3,1c1.7-0.2,3.3-0.1,5-0.1
		C-118.3,406.8-118.3,405.8-119,405.8z"/>
	<path class="beast-eye-16-st-0" d="M-120.2,411.2c-0.8-1.5-2.1-2.6-3.8-2.8c-0.6-0.1-0.6,0.9,0,1c1.3,0.2,2.3,1.2,2.9,2.3
		C-120.8,412.3-119.9,411.8-120.2,411.2z"/>
	<path class="beast-eye-16-st-0" d="M-116.6,416.5c-1.6-1-3.1-2.1-4.8-3c-1.3-0.7-3.1-1.6-4.6-1.1c-0.6,0.2-0.3,1.2,0.3,1c1.5-0.6,3.3,0.7,4.6,1.4
		c1.4,0.8,2.6,1.7,4,2.5C-116.5,417.7-116,416.9-116.6,416.5z"/>
	<path class="beast-eye-16-st-0" d="M-116.7,400.8c-2.5,1.7-5.8,1.7-8.7,2c-0.6,0.1-0.6,1.1,0,1c3-0.3,6.6-0.3,9.2-2.1
		C-115.6,401.3-116.1,400.4-116.7,400.8z"/>
	<path class="beast-eye-16-st-0" d="M-110.4,395.1c-1.2,1.1-2.7,1.8-3.8,2.9c-0.4,0.5,0.3,1.2,0.7,0.7c1.1-1.2,2.6-1.9,3.8-2.9
		C-109.2,395.4-109.9,394.7-110.4,395.1z"/>
	<path class="beast-eye-16-st-0" d="M-103.7,390.9c-0.9,1.1-1.8,2.1-2.6,3.3c-0.4,0.5,0.5,1,0.9,0.5c0.7-1.1,1.6-2.1,2.5-3.1
		C-102.6,391.1-103.3,390.4-103.7,390.9z"/>
	<path class="beast-eye-16-st-0" d="M-106.9,423.8c-2.2-0.1-4.1-1.2-6.3-1.4c-0.6-0.1-0.6,0.9,0,1c2.2,0.2,4.1,1.3,6.3,1.4
		C-106.3,424.8-106.3,423.8-106.9,423.8z"/>
	<path class="beast-eye-16-st-0" d="M-100.8,425.6c-1.2-0.8-2-2-3.2-2.8c-0.5-0.4-1,0.5-0.5,0.9c1.2,0.8,2,2,3.2,2.8
		C-100.8,426.9-100.3,426-100.8,425.6z"/>
	<path class="beast-eye-16-st-0" d="M-94.5,427.8c-1.7-0.2-3.3-0.3-5-0.5c-0.6-0.1-0.9,0.9-0.3,1c1.7,0.2,3.3,0.3,5,0.5
		C-94.1,428.8-93.9,427.9-94.5,427.8z"/>
	<path class="beast-eye-16-st-0" d="M-103.2,430.6c-0.6-0.5-1.3-0.8-2-1.1c-0.6-0.2-0.9,0.7-0.3,1c0.6,0.3,1.2,0.5,1.8,1
		C-103.2,431.9-102.7,431-103.2,430.6z"/>
	<path class="beast-eye-16-st-0" d="M110.1,406.2c-0.6,2.1-1.2,4.2-2.3,6.2c-0.3,0.6,0.6,1.1,0.9,0.5c1-2,1.7-4.2,2.4-6.4
		C111.3,405.9,110.3,405.6,110.1,406.2z"/>
	<path class="beast-eye-16-st-0" d="M114.3,402.4c-0.3,0.8-0.8,1.5-1.2,2.2c-0.4,0.5,0.5,1,0.9,0.5c0.5-0.8,1-1.5,1.3-2.4
		C115.5,402,114.5,401.8,114.3,402.4z"/>
	<path class="beast-eye-16-st-0" d="M115.5,397.8c-0.5,0.8-1,1.6-1.2,2.6c-0.1,0.6,0.9,0.9,1,0.3c0.1-0.9,0.7-1.6,1.1-2.3
		C116.7,397.7,115.9,397.2,115.5,397.8z"/>
	<path class="beast-eye-16-st-0" d="M105.1,383.9c-0.5-0.2-0.9-0.5-1.3-0.8c-0.5-0.4-1.2,0.3-0.7,0.7c0.4,0.4,1,0.7,1.5,1
		C105.1,385,105.6,384.2,105.1,383.9z"/>
	<path class="beast-eye-16-st-0" d="M114.8,387.2c-2.3-2.3-5.5-6.3-9.2-5.9c-0.6,0.1-0.6,1.1,0,1c3.3-0.4,6.4,3.5,8.5,5.6
		C114.5,388.3,115.2,387.6,114.8,387.2z"/>
	<path class="beast-eye-16-st-0" d="M118.8,393.1c-1.4-0.6-2.3-1.8-3.2-2.9c-0.4-0.5-1.1,0.2-0.7,0.7c1,1.2,2,2.4,3.4,3
		C118.9,394.2,119.4,393.4,118.8,393.1z"/>
	<path class="beast-eye-16-st-0" d="M120.8,396.9c-1,0.7-1.9,1.5-2.3,2.7c-0.2,0.6,0.8,0.9,1,0.3c0.3-0.9,1.1-1.6,1.8-2.1
		C121.9,397.4,121.4,396.6,120.8,396.9z"/>
	<path class="beast-eye-16-st-0" d="M121.8,400.9c-1.5,1.7-4.6,2.2-4.9,4.8c-0.1,0.6,0.9,0.6,1,0c0.1-1.1,1.2-1.8,2.1-2.3c0.9-0.6,1.8-1.1,2.5-1.8
		C122.9,401.1,122.2,400.4,121.8,400.9z"/>
	<path class="beast-eye-16-st-0" d="M123.8,394.2c-0.7-0.2-1.3-0.6-1.8-1c-0.5-0.4-1.2,0.3-0.7,0.7c0.7,0.5,1.4,1,2.3,1.3
		C124.1,395.4,124.4,394.4,123.8,394.2z"/>
	<path class="beast-eye-16-st-0" d="M122.9,389.8c-1.3-0.1-2.7-0.4-3.7-1.4c-0.5-0.4-1.2,0.3-0.7,0.7c1.2,1.1,2.8,1.5,4.5,1.7
		C123.5,390.9,123.5,389.9,122.9,389.8z"/>
	<path class="beast-eye-16-st-0" d="M127.4,397.5c-1,0-1.9,0-2.9-0.1c-0.6-0.1-0.7,0.9,0,1c1,0.1,1.9,0.1,2.9,0.1
		C128.4,398.5,128.4,397.5,127.4,397.5z"/>
	<path class="beast-eye-16-st-0" d="M127.5,392.8c-0.5,0-1-0.1-1.4-0.3c-0.6-0.3-1.1,0.6-0.5,0.9c0.6,0.3,1.2,0.4,1.9,0.5
		C128.1,393.8,128.1,392.8,127.5,392.8z"/>
	<path class="beast-eye-16-st-0" d="M-86.7,375.4c-2.3,2.7-4.8,5.3-7.8,7.1c-1.8,1.1-4.5,2.2-5.4,4.3c-0.3,0.6,0.6,1.1,0.9,0.5
		c1-2.2,4.2-3.3,6.1-4.5c2.7-1.6,5-4.3,7-6.7C-85.6,375.6-86.3,374.9-86.7,375.4z"/>
	<path class="beast-eye-16-st-0" d="M-81.6,369.5c-0.7,0.4-1.3,1-1.9,1.5c-0.5,0.4,0.2,1.1,0.7,0.7c0.6-0.5,1.1-0.9,1.7-1.3
		C-80.5,370.1-81,369.2-81.6,369.5z"/>
	<path class="beast-eye-16-st-0" d="M-120.3,399.1c-1.7,0.4-3.5,0.7-5.3,1c-0.6,0.1-0.4,1.1,0.3,1c1.7-0.4,3.5-0.7,5.3-1
		C-119.4,399.9-119.6,398.9-120.3,399.1z"/>
	<path class="beast-eye-16-st-0" d="M-126.9,407c-1.9-0.6-3.8-0.2-5.6,0.3c-0.6,0.1-0.4,1.1,0.3,1c1.7-0.4,3.4-0.8,5.1-0.3
		C-126.6,408.2-126.3,407.2-126.9,407z"/>
	<path class="beast-eye-16-st-0" d="M-128.3,410.1c-1.5-0.7-3.3-0.8-4.7,0.1c-0.5,0.3,0,1.2,0.5,0.9c1.1-0.7,2.5-0.7,3.7-0.1
		C-128.3,411.3-127.8,410.4-128.3,410.1z"/>
	<path class="beast-eye-16-st-0" d="M-129.7,412.4c-1.1,0.2-2,0.6-3.1,0.9c-0.6,0.2-0.4,1.1,0.3,1c1-0.3,2-0.7,3.1-0.9
		C-128.8,413.3-129.1,412.3-129.7,412.4z"/>
	<path class="beast-eye-16-st-0" d="M-130,401.9c-0.9,0-1.7-0.3-2.6-0.5c-0.6-0.2-0.9,0.8-0.3,1c0.9,0.3,1.9,0.5,2.8,0.5
		C-129.4,402.9-129.4,401.9-130,401.9z"/>
	<path class="beast-eye-16-st-0" d="M132.1,388.2c-2.1,0.5-4.3,1.5-6.4,0.6c-0.6-0.3-1.1,0.6-0.5,0.9c2.4,1.1,4.7,0.1,7.2-0.5
		C133,389,132.7,388,132.1,388.2z"/>
	<path class="beast-eye-16-st-0" d="M133,392.8c-1.2,0-2.3,0.1-3.5,0.1c-0.6,0-0.6,1,0,1c1.2,0,2.3-0.1,3.5-0.1C133.6,393.8,133.6,392.8,133,392.8
		z"/>
	<path class="beast-eye-16-st-0" d="M134.8,397.1c-1.1-0.4-2.3-0.3-3.5-0.5c-0.6-0.1-0.9,0.8-0.3,1c1.1,0.3,2.3,0.1,3.5,0.5
		C135.1,398.3,135.4,397.4,134.8,397.1z"/>
	<path class="beast-eye-16-st-0" d="M131.7,400.3c-0.7,0.1-1.4,0.2-2,0.4c-0.6,0.1-0.4,1.1,0.3,1c0.7-0.1,1.4-0.2,2-0.4
		C132.6,401.2,132.3,400.2,131.7,400.3z"/>
	<path class="beast-eye-16-st-0" d="M129.7,404.4c-1.7-0.5-3.2-1.4-4.9-1.9c-0.6-0.2-0.9,0.8-0.3,1c1.7,0.5,3.2,1.4,4.9,1.9
		C130,405.6,130.3,404.6,129.7,404.4z"/>
	<path class="beast-eye-16-st-0" d="M-13.3,448.8c-5-0.5-10.1,0.2-15-1.5c-0.6-0.2-0.9,0.7-0.3,1c4.9,1.8,10.1,1,15.2,1.6
		C-12.7,449.8-12.7,448.8-13.3,448.8z"/>
	<path class="beast-eye-16-st-0" d="M16.4,447.1c-2.4,0-4.7-0.9-7.1-0.2c-0.6,0.2-0.4,1.1,0.3,1c2.2-0.7,4.5,0.3,6.8,0.3
		C17.1,448.1,17.1,447.1,16.4,447.1z"/>
	<path class="beast-eye-16-st-0" d="M35.6,446.6c-1.5,0.5-3,0.6-4.6,0.8c-0.6,0.1-0.6,1.1,0,1c1.6-0.1,3.3-0.3,4.9-0.8
		C36.5,447.4,36.3,446.4,35.6,446.6z"/>
	<path class="beast-eye-16-st-0" d="M51.6,442.6c-2.5,0.7-4.9,1.6-7.3,2.4c-0.6,0.2-0.3,1.2,0.3,1c2.4-0.8,4.8-1.8,7.3-2.4
		C52.5,443.4,52.3,442.5,51.6,442.6z"/>
	<path class="beast-eye-16-st-0" d="M-42.4,444.4c-1.4-0.3-2.9-0.3-4.1-1.1c-0.5-0.4-1,0.5-0.5,0.9c1.3,0.9,2.9,0.8,4.3,1.2
		C-42,445.5-41.7,444.6-42.4,444.4z"/>
	<path class="beast-eye-16-st-0" d="M-57,351.2c-4,1.1-7.2,3.7-10.9,5.6c-0.6,0.3-0.1,1.2,0.5,0.9c3.6-1.8,6.7-4.3,10.6-5.5
		C-56.1,351.9-56.4,351-57,351.2z"/>
	<path class="beast-eye-16-st-0" d="M52.3,349.5c-1-0.5-2.1-0.7-3.1-1c-1.1-0.3-2.7-0.6-3.4-1.6c-0.4-0.5-1.2,0-0.9,0.5c1.4,2.1,4.7,2,6.8,3
		C52.4,350.7,52.9,349.8,52.3,349.5z"/>
	<path class="beast-eye-16-st-0" d="M113.2,377.6c-5-6.9-14.5-7.6-21.7-11.1c-0.6-0.3-1.1,0.6-0.5,0.9c7,3.4,16.5,4,21.3,10.7
		C112.7,378.7,113.6,378.2,113.2,377.6z"/>
</g>
</svg>
