<?xml version="1.0" encoding="utf-8"?>
<!-- Generator: Adobe Illustrator 19.1.0, SVG Export Plug-In . SVG Version: 6.00 Build 0)  -->
<svg version="1.1" id="Layer_1" xmlns="http://www.w3.org/2000/svg" xmlns:xlink="http://www.w3.org/1999/xlink" x="0px" y="0px"
	 viewBox="-152 341 305.8 112" style="enable-background:new -152 341 305.8 112;" xml:space="preserve">
<style type="text/css">
	.beast-eye-17-st-0{fill:#FCDCA4;}
	.beast-eye-17-st-1{fill:#0B3746;}
</style>
<g>
	<path class="beast-eye-17-st-0" d="M-31,398.1c0.2-19.2-10.4-40.6-30.3-45.2c-4.7-1.1-9.4,0-14,0.9c-0.9,0.1-1.7,0.3-2.6,0.5
		c-5.4,1-10.3,1.3-15.4,3.7c-9.1,4.2-15.6,15-18.5,24.2c-3.3,10.1-1.1,20.8,4.4,29.7c4.4,7.2,14.7,17.6,23.9,17.9
		c2.1,0.5,4.1,0.8,6.1,1c3.1,0.3,6.2,0.2,9.2-0.3C-50.4,429.6-31.2,416.5-31,398.1z"/>
	<path class="beast-eye-17-st-1" d="M-70.7,390.9c-2,0-2,3,0,3S-68.7,390.9-70.7,390.9z"/>
	<path class="beast-eye-17-st-1" d="M-28.2,396c-0.1-0.6-1.1-0.4-1,0.3c1.1,4.6-0.2,9.5-1.6,13.8c-1.3,4.2-2.8,8.6-5.3,12.2
		c-5.2,7.5-15.1,10-23.4,12.2c-5.6,1.5-11,2.5-16.8,2.3c-6-0.2-11.9-1.5-17.7-2.8c-5.5-1.2-11-2-16.5-3.4c-4.9-1.2-8.9-3.7-14.1-2.5
		c-0.6,0.1-0.4,1.1,0.3,1c5.7-1.4,11.4,2.1,16.9,3.2c6.2,1.2,12.3,2.5,18.5,3.8c5.6,1.1,11.3,1.9,17.1,1.7
		c5.4-0.2,10.6-1.8,15.8-3.2c8.2-2.3,16.7-5.5,21.5-12.9c2.4-3.7,3.8-8.5,5-12.7C-28.2,404.9-27.2,400.3-28.2,396z"/>
	<path class="beast-eye-17-st-1" d="M-31.1,379.2c-1.2-4.2-2.2-8.6-3.9-12.7c-1.8-4.2-4.3-7.6-7.8-10.6c-6-5.2-13.7-6.5-21.3-6.9
		c-10.9-0.6-22-1.4-32.7,1.3c-4.8,1.2-9.1,3.5-13.1,6.3c-1.8,1.2-3.5,2.6-4.9,4.2c-1.8,1.9-3,4.2-5.2,5.8c-0.5,0.4,0,1.2,0.5,0.9
		c3-2.1,4.8-5.5,7.6-8c3.7-3.2,8.2-5.8,12.8-7.4c10-3.4,21.1-2.8,31.5-2.2c8.4,0.5,16.7,1,23.6,6.4c7.6,5.9,9.4,14.5,12,23.2
		C-31.8,380.1-30.9,379.8-31.1,379.2z"/>
	<path class="beast-eye-17-st-1" d="M-27.7,392.5c-0.2-0.6-1.2-0.3-1,0.3c2.6,6.8,4.9,13.1,3.6,20.4c-1.2,6.6-4.3,13.1-8.6,18.1
		c-4.4,5.2-11,7.4-17.4,8.7c-6,1.3-12.6,0.6-18.3,3c-0.6,0.2-0.3,1.2,0.3,1c6.2-2.6,13.4-1.8,19.8-3.3c6.5-1.5,12.5-4.1,16.9-9.2
		c4.3-5,7.1-11.6,8.4-18C-22.7,406-25.1,399.4-27.7,392.5z"/>
	<path class="beast-eye-17-st-1" d="M-23,422.7c-1.9,3.3-3.6,6.8-5.8,9.9c-2.3,3.4-5.8,5.6-9,8c-0.5,0.4,0,1.2,0.5,0.9c2.9-2.2,5.8-4.2,8.2-6.9
		c2.9-3.3,4.7-7.6,6.9-11.4C-21.8,422.7-22.7,422.2-23,422.7z"/>
	<path class="beast-eye-17-st-1" d="M-107.4,362.3c-1.3,1.3-2.6,2.6-2.6,4.5c0,0.6,1,0.6,1,0c0.1-1.6,1.3-2.8,2.4-3.8
		C-106.2,362.6-106.9,361.9-107.4,362.3z"/>
	<path class="beast-eye-17-st-1" d="M-28.8,370.5c-2.2-4.4-3.1-9.3-5.7-13.6c-4.2-6.9-12.4-11.1-20.3-12c-20-2.3-41.8-2.8-60.2,6.5
		c-0.6,0.3-0.1,1.2,0.5,0.9c17.2-8.7,36.8-8.3,55.5-6.7c9.2,0.8,17.4,3.6,23.1,11.2c2.8,3.7,3.7,8.5,5.4,12.7c0.8,2,1.9,4,2.6,6.1
		c0.9,2.4,1.2,5,1.4,7.5c0.1,0.6,1.1,0.6,1,0C-25.7,378.5-26.8,374.5-28.8,370.5z"/>
	<path class="beast-eye-17-st-1" d="M-21.8,374c-0.3-3.4-0.5-6.8-1.4-10.2c-0.9-3.1-3.5-5.5-5.1-8.3c-0.3-0.6-1.2-0.1-0.9,0.5
		c1.3,2.3,3.1,4.4,4.4,6.7c1.5,2.8,1.6,6.5,1.8,9.5c0.5,5.4,0.8,11.6-4,15.2c-0.5,0.4,0,1.3,0.5,0.9C-21.9,385-21.3,379.4-21.8,374z
		"/>
	<path class="beast-eye-17-st-1" d="M-18.5,380.9c-0.6,3.7-2,7.1-3.4,10.5c-0.3,0.6,0.6,1.1,0.9,0.5c1.5-3.5,3-7,3.6-10.8
		C-17.5,380.5-18.4,380.2-18.5,380.9z"/>
	<path class="beast-eye-17-st-1" d="M-19.9,399.7c-0.2-0.6-1.2-0.3-1,0.3c0.7,1.6,1.6,3.2,1.8,5c0.1,0.6,1.1,0.6,1,0
		C-18.3,403.1-19.2,401.5-19.9,399.7z"/>
	<path class="beast-eye-17-st-1" d="M-109.4,416.6c-3.4-4.6-5.6-9.7-6.4-15.4c-0.1-0.6-1.1-0.4-1,0.3c0.9,5.8,3,10.9,6.6,15.6
		C-109.9,417.6-109.1,417.1-109.4,416.6z"/>
	<path class="beast-eye-17-st-1" d="M-114.5,375.1c-0.4,0.9-0.8,1.8-1.3,2.7c-0.3,0.6,0.5,1.1,0.9,0.5c0.5-0.9,0.9-1.8,1.3-2.7
		C-113.3,375-114.2,374.5-114.5,375.1z"/>
	<path class="beast-eye-17-st-1" d="M-85.7,432.2c-1.1-0.4-2.2-0.8-3.3-1.2c-0.6-0.2-0.9,0.8-0.3,1c1.1,0.3,2.2,0.8,3.3,1.2
		C-85.4,433.4-85.1,432.4-85.7,432.2z"/>
	<path class="beast-eye-17-st-1" d="M-80.2,441.2c-2-0.5-3.9-0.8-6-0.9c-0.6,0-0.6,1,0,1c1.9,0,3.8,0.4,5.7,0.8C-79.9,442.3-79.6,441.3-80.2,441.2
		z"/>
	<path class="beast-eye-17-st-1" d="M-46.7,433.3c-1.9,0.7-3.7,1.8-5.7,2.3c-0.6,0.2-0.4,1.1,0.3,1c2-0.5,3.7-1.7,5.7-2.3
		C-45.8,434.1-46.1,433.1-46.7,433.3z"/>
	<path class="beast-eye-17-st-1" d="M-18.4,413.4c-0.1-0.6-1.1-0.4-1,0.3c0.6,3.5,1.5,6.3,1,9.8c-0.5,3.2-1.8,6.1-3.5,8.8c-0.3,0.5,0.5,1,0.9,0.5
		c1.9-3,3.2-6.2,3.7-9.8C-16.8,419.5-17.8,416.7-18.4,413.4z"/>
	<path class="beast-eye-17-st-1" d="M-14.4,410.7c-0.1-0.6-1.1-0.4-1,0.3c0.7,4.6,2.5,8.9,2.8,13.6c0.3,4.4-1.6,8.7-4.4,12
		c-2.9,3.4-7.1,5.2-11.2,6.8c-2.4,1-4.8,2.1-7.4,2.4c-2.1,0.3-4.1,0.3-6.1,0.8c-0.6,0.1-0.4,1.1,0.3,1c2.5-0.6,5.1-0.5,7.7-1
		c2.3-0.4,4.7-1.7,6.8-2.6c4.2-1.8,8.1-3.8,11.1-7.2c2.5-2.9,4-6.6,4.3-10.4C-11.1,421-13.6,415.8-14.4,410.7z"/>
	<path class="beast-eye-17-st-1" d="M-15,379.5c0,2.8-0.3,5.4-1.3,8c-0.8,2.1-2.1,4.1-2.5,6.3c-0.1,0.6,0.9,0.9,1,0.3c0.4-2.5,1.9-4.8,2.8-7.2
		c0.9-2.4,1-5,1-7.5C-14,378.9-15,378.9-15,379.5z"/>
	<path class="beast-eye-17-st-1" d="M-31.6,346.8c-0.6-0.2-0.9,0.7-0.3,1c11.1,4.3,16.7,16.1,13.2,27.4c-0.2,0.6,0.8,0.9,1,0.3
		C-14,363.6-20,351.3-31.6,346.8z"/>
	<path class="beast-eye-17-st-1" d="M-121.3,421.5c-3.7-2.6-4.6-7.2-5.8-11.3c-0.2-0.6-1.2-0.4-1,0.3c1.3,4.4,2.4,9.1,6.3,11.9
		C-121.3,422.8-120.8,421.9-121.3,421.5z"/>
	<path class="beast-eye-17-st-1" d="M-122.8,389.6c-1.1,1.8-0.8,3.8-0.8,5.8c0,0.6,1,0.6,1,0c0-1.8-0.3-3.7,0.7-5.3
		C-121.6,389.6-122.4,389.1-122.8,389.6z"/>
	<path class="beast-eye-17-st-1" d="M-124.3,376.8c-0.7,1.5-1.3,3-1.6,4.7c-0.1,0.6,0.9,0.9,1,0.3c0.3-1.5,0.8-3,1.5-4.4
		C-123.1,376.7-124,376.2-124.3,376.8z"/>
	<path class="beast-eye-17-st-1" d="M-120.7,357.8c-2.7,0.7-4,3.9-5.1,6.3c-0.3,0.6,0.6,1.1,0.9,0.5c0.9-2.1,2.1-5.2,4.5-5.8
		C-119.8,358.6-120.1,357.7-120.7,357.8z"/>
	<path class="beast-eye-17-st-1" d="M-121.4,345.7c-8,2.6-13.6,8.8-14.7,17.3c-0.1,0.6,0.9,0.9,1,0.3c1.1-8.1,6.3-14,14-16.6
		C-120.6,346.5-120.8,345.5-121.4,345.7z"/>
	<path class="beast-eye-17-st-1" d="M-138,387.7c-1,2.5-0.8,5.1-0.5,7.7c0.1,0.6,1.1,0.6,1,0c-0.2-2.5-0.5-5,0.5-7.4
		C-136.7,387.4-137.7,387.1-138,387.7z"/>
	<path class="beast-eye-17-st-1" d="M-134.3,427.5c-0.7-1-1.2-2.2-1.5-3.4c-0.2-0.6-1.1-0.4-1,0.3c0.3,1.3,0.8,2.6,1.6,3.7
		C-134.8,428.5-133.9,428-134.3,427.5z"/>
	<path class="beast-eye-17-st-1" d="M-15.7,394.2c-0.8,1.1-1.1,2.5-0.5,3.8c0.3,0.6,1.1,0.1,0.9-0.5c-0.4-1-0.1-2,0.5-2.8
		C-14.5,394.2-15.3,393.7-15.7,394.2z"/>
	<path class="beast-eye-17-st-0" d="M32.8,401.1c-0.2-19.2,10.4-40.6,30.3-45.2c4.7-1.1,9.4,0,14,0.9c0.9,0.1,1.7,0.3,2.6,0.5
		c5.4,1,10.3,1.3,15.4,3.7c9.1,4.2,15.6,15,18.5,24.2c3.3,10.1,1.1,20.8-4.4,29.7c-4.4,7.2-14.7,17.6-23.9,17.9
		c-2.1,0.5-4.1,0.8-6.1,1c-3.1,0.3-6.2,0.2-9.2-0.3C52.2,432.6,33.1,419.5,32.8,401.1z"/>
	<path class="beast-eye-17-st-1" d="M72.3,393.9c2,0,2,3,0,3S70.3,393.9,72.3,393.9z"/>
	<path class="beast-eye-17-st-1" d="M30.1,399c0.1-0.6,1.1-0.4,1,0.3c-1.1,4.6,0.2,9.5,1.6,13.8c1.3,4.2,2.8,8.6,5.3,12.2
		c5.2,7.5,15.1,10,23.4,12.2c5.6,1.5,11,2.5,16.8,2.3c6-0.2,11.9-1.5,17.7-2.8c5.5-1.2,11-2,16.5-3.4c4.9-1.2,8.9-3.7,14.1-2.5
		c0.6,0.1,0.4,1.1-0.3,1c-5.7-1.4-11.4,2.1-16.9,3.2c-6.2,1.2-12.3,2.5-18.5,3.8c-5.6,1.1-11.3,1.9-17.1,1.7
		c-5.4-0.2-10.6-1.8-15.8-3.2c-8.2-2.3-16.7-5.5-21.5-12.9c-2.4-3.7-3.8-8.5-5-12.7C30,407.9,29.1,403.3,30.1,399z"/>
	<path class="beast-eye-17-st-1" d="M32.9,382.2c1.2-4.2,2.2-8.6,3.9-12.7c1.8-4.2,4.3-7.6,7.8-10.6c6-5.2,13.7-6.5,21.3-6.9
		c10.9-0.6,22-1.4,32.7,1.3c4.8,1.2,9.1,3.5,13.1,6.3c1.8,1.2,3.5,2.6,4.9,4.2c1.8,1.9,3,4.2,5.2,5.8c0.5,0.4,0,1.2-0.5,0.9
		c-3-2.1-4.8-5.5-7.6-8c-3.7-3.2-8.2-5.8-12.8-7.4c-10-3.4-21.1-2.8-31.5-2.2c-8.4,0.5-16.7,1-23.6,6.4c-7.6,5.9-9.4,14.5-12,23.2
		C33.7,383.1,32.7,382.8,32.9,382.2z"/>
	<path class="beast-eye-17-st-1" d="M29.6,395.5c0.2-0.6,1.2-0.3,1,0.3c-2.6,6.8-4.9,13.1-3.6,20.4c1.2,6.6,4.3,13.1,8.6,18.1
		c4.4,5.2,11,7.4,17.4,8.7c6,1.3,12.6,0.6,18.3,3c0.6,0.2,0.3,1.2-0.3,1c-6.2-2.6-13.4-1.8-19.8-3.3c-6.5-1.5-12.5-4.1-16.9-9.2
		c-4.3-5-7.1-11.6-8.4-18C24.5,409,27,402.4,29.6,395.5z"/>
	<path class="beast-eye-17-st-1" d="M24.8,425.7c1.9,3.3,3.6,6.8,5.8,9.9c2.3,3.4,5.8,5.6,9,8c0.5,0.4,0,1.2-0.5,0.9c-2.9-2.2-5.8-4.2-8.2-6.9
		c-2.9-3.3-4.7-7.6-6.9-11.4C23.6,425.7,24.5,425.2,24.8,425.7z"/>
	<path class="beast-eye-17-st-1" d="M109.2,365.3c1.3,1.3,2.6,2.6,2.6,4.5c0,0.6-1,0.6-1,0c-0.1-1.6-1.3-2.8-2.4-3.8
		C108.1,365.6,108.8,364.9,109.2,365.3z"/>
	<path class="beast-eye-17-st-1" d="M30.6,373.5c2.2-4.4,3.1-9.3,5.7-13.6c4.2-6.9,12.4-11.1,20.3-12c20-2.3,41.8-2.8,60.2,6.5
		c0.6,0.3,0.1,1.2-0.5,0.9c-17.2-8.7-36.8-8.3-55.5-6.7c-9.2,0.8-17.4,3.6-23.1,11.2c-2.8,3.7-3.7,8.5-5.4,12.7
		c-0.8,2-1.9,4-2.6,6.1c-0.9,2.4-1.2,5-1.4,7.5c-0.1,0.6-1.1,0.6-1,0C27.6,381.5,28.7,377.5,30.6,373.5z"/>
	<path class="beast-eye-17-st-1" d="M23.6,377c0.3-3.4,0.5-6.8,1.4-10.2c0.9-3.1,3.5-5.5,5.1-8.3c0.3-0.6,1.2-0.1,0.9,0.5
		c-1.3,2.3-3.1,4.4-4.4,6.7c-1.5,2.8-1.6,6.5-1.8,9.5c-0.5,5.4-0.8,11.6,4,15.2c0.5,0.4,0,1.3-0.5,0.9C23.7,388,23.1,382.4,23.6,377
		z"/>
	<path class="beast-eye-17-st-1" d="M20.4,383.9c0.6,3.7,2,7.1,3.4,10.5c0.3,0.6-0.6,1.1-0.9,0.5c-1.5-3.5-3-7-3.6-10.8
		C19.3,383.5,20.3,383.2,20.4,383.9z"/>
	<path class="beast-eye-17-st-1" d="M21.7,402.7c0.2-0.6,1.2-0.3,1,0.3c-0.7,1.6-1.6,3.2-1.8,5c-0.1,0.6-1.1,0.6-1,0
		C20.1,406.1,21,404.5,21.7,402.7z"/>
	<path class="beast-eye-17-st-1" d="M111.3,419.6c3.4-4.6,5.6-9.7,6.4-15.4c0.1-0.6,1.1-0.4,1,0.3c-0.9,5.8-3,10.9-6.6,15.6
		C111.8,420.6,110.9,420.1,111.3,419.6z"/>
	<path class="beast-eye-17-st-1" d="M116.3,378.1c0.4,0.9,0.8,1.8,1.3,2.7c0.3,0.6-0.5,1.1-0.9,0.5c-0.5-0.9-0.9-1.8-1.3-2.7
		C115.2,378,116,377.5,116.3,378.1z"/>
	<path class="beast-eye-17-st-1" d="M87.6,435.2c1.1-0.4,2.2-0.8,3.3-1.2c0.6-0.2,0.9,0.8,0.3,1c-1.1,0.3-2.2,0.8-3.3,1.2
		C87.2,436.4,87,435.4,87.6,435.2z"/>
	<path class="beast-eye-17-st-1" d="M82.1,444.2c2-0.5,3.9-0.8,6-0.9c0.6,0,0.6,1,0,1c-1.9,0-3.8,0.4-5.7,0.8C81.7,445.3,81.5,444.3,82.1,444.2z"
		/>
	<path class="beast-eye-17-st-1" d="M48.5,436.3c1.9,0.7,3.7,1.8,5.7,2.3c0.6,0.2,0.4,1.1-0.3,1c-2-0.5-3.7-1.7-5.7-2.3
		C47.6,437.1,47.9,436.1,48.5,436.3z"/>
	<path class="beast-eye-17-st-1" d="M20.2,416.4c0.1-0.6,1.1-0.4,1,0.3c-0.6,3.5-1.5,6.3-1,9.8c0.5,3.2,1.8,6.1,3.5,8.8c0.3,0.5-0.5,1-0.9,0.5
		c-1.9-3-3.2-6.2-3.7-9.8C18.6,422.5,19.7,419.7,20.2,416.4z"/>
	<path class="beast-eye-17-st-1" d="M16.2,413.7c0.1-0.6,1.1-0.4,1,0.3c-0.7,4.6-2.5,8.9-2.8,13.6c-0.3,4.4,1.6,8.7,4.4,12
		c2.9,3.4,7.1,5.2,11.2,6.8c2.4,1,4.8,2.1,7.4,2.4c2.1,0.3,4.1,0.3,6.1,0.8c0.6,0.1,0.4,1.1-0.3,1c-2.5-0.6-5.1-0.5-7.7-1
		c-2.3-0.4-4.7-1.7-6.8-2.6c-4.2-1.8-8.1-3.8-11.1-7.2c-2.5-2.9-4-6.6-4.3-10.4C12.9,424,15.4,418.8,16.2,413.7z"/>
	<path class="beast-eye-17-st-1" d="M16.9,382.5c0,2.8,0.3,5.4,1.3,8c0.8,2.1,2.1,4.1,2.5,6.3c0.1,0.6-0.9,0.9-1,0.3c-0.4-2.5-1.9-4.8-2.8-7.2
		c-0.9-2.4-1-5-1-7.5C15.9,381.9,16.9,381.9,16.9,382.5z"/>
	<path class="beast-eye-17-st-1" d="M33.4,349.8c0.6-0.2,0.9,0.7,0.3,1c-11.1,4.3-16.7,16.1-13.2,27.4c0.2,0.6-0.8,0.9-1,0.3
		C15.9,366.6,21.8,354.3,33.4,349.8z"/>
	<path class="beast-eye-17-st-1" d="M123.1,424.5c3.7-2.6,4.6-7.2,5.8-11.3c0.2-0.6,1.2-0.4,1,0.3c-1.3,4.4-2.4,9.1-6.3,11.9
		C123.1,425.8,122.6,424.9,123.1,424.5z"/>
	<path class="beast-eye-17-st-1" d="M124.6,392.6c1.1,1.8,0.8,3.8,0.8,5.8c0,0.6-1,0.6-1,0c0-1.8,0.3-3.7-0.7-5.3
		C123.4,392.6,124.3,392.1,124.6,392.6z"/>
	<path class="beast-eye-17-st-1" d="M126.1,379.8c0.7,1.5,1.3,3,1.6,4.7c0.1,0.6-0.9,0.9-1,0.3c-0.3-1.5-0.8-3-1.5-4.4
		C125,379.7,125.8,379.2,126.1,379.8z"/>
	<path class="beast-eye-17-st-1" d="M122.5,360.8c2.7,0.7,4,3.9,5.1,6.3c0.3,0.6-0.6,1.1-0.9,0.5c-0.9-2.1-2.1-5.2-4.5-5.8
		C121.6,361.6,121.9,360.7,122.5,360.8z"/>
	<path class="beast-eye-17-st-1" d="M123.3,348.7c8,2.6,13.6,8.8,14.7,17.3c0.1,0.6-0.9,0.9-1,0.3c-1.1-8.1-6.3-14-14-16.6
		C122.4,349.5,122.7,348.5,123.3,348.7z"/>
	<path class="beast-eye-17-st-1" d="M139.8,390.7c1,2.5,0.8,5.1,0.5,7.7c-0.1,0.6-1.1,0.6-1,0c0.2-2.5,0.5-5-0.5-7.4
		C138.6,390.4,139.6,390.1,139.8,390.7z"/>
	<path class="beast-eye-17-st-1" d="M136.1,430.5c0.7-1,1.2-2.2,1.5-3.4c0.2-0.6,1.1-0.4,1,0.3c-0.3,1.3-0.8,2.6-1.6,3.7
		C136.6,431.5,135.7,431,136.1,430.5z"/>
	<path class="beast-eye-17-st-1" d="M17.5,397.2c0.8,1.1,1.1,2.5,0.5,3.8c-0.3,0.6-1.1,0.1-0.9-0.5c0.4-1,0.1-2-0.5-2.8
		C16.3,397.2,17.2,396.7,17.5,397.2z"/>
</g>
</svg>
