<?xml version="1.0" encoding="utf-8"?>
<!-- Generator: Adobe Illustrator 19.1.0, SVG Export Plug-In . SVG Version: 6.00 Build 0)  -->
<svg version="1.1" id="Layer_1" xmlns="http://www.w3.org/2000/svg" xmlns:xlink="http://www.w3.org/1999/xlink" x="0px" y="0px" width="305.834px" height="112px"
	 viewBox="-152 341 305.8 112" style="enable-background:new -152 341 305.8 112;" xml:space="preserve">
<style type="text/css">
	.beast-eye-18-st-0{fill:#0B3746;}
	.beast-eye-18-st-1{fill:#F0A732;}
	.beast-eye-18-st-2{fill:#FCDCA4;}
	.beast-eye-18-st-3{fill:#D72050;}
	.beast-eye-18-st-4{fill:#75A08A;}
</style>
<g>
	<path class="beast-eye-18-st-0" d="M29.4,391c25.7-6,97.6-22.7,97.6-22.7s-12.6-13.3-33.4-7.7C80,364.3,54.5,381.7,29.4,391z"/>
	<path class="beast-eye-18-st-0" d="M-3,391c-25.7-6-97.6-22.7-97.6-22.7s12.6-13.3,33.4-7.7C-53.6,364.3-28,381.7-3,391z"/>
	<g>
		<g>
			<g>
				<path class="beast-eye-18-st-0" d="M-17.6,422.2c0,0-14.3-1.5-40.5-12.3c-21-8.8-38.5-23.8-38.5-23.8s-4,42.1,24.7,54.4
					C-41.5,453.4-17.6,422.2-17.6,422.2z"/>
				<polygon class="beast-eye-18-st-1" points="-61.8,420.3 -46.3,404.9 -61.8,373.5 -77.3,404.9 				"/>
				<polygon class="beast-eye-18-st-1" points="-75.3,414.8 -59.9,399.4 -75.3,368 -90.8,399.4 				"/>
				<polygon class="beast-eye-18-st-1" points="-83.1,408.6 -72.1,398.5 -87.6,367.1 -96.6,386.1 				"/>
				<path class="beast-eye-18-st-2" d="M-17.6,422.2c0,0-6.5-18-32.6-28.8c-21-8.8-46.4-7.3-46.4-7.3s0.9,26.9,29.7,39.2
					C-36.6,438.3-17.6,422.2-17.6,422.2z"/>
				<path class="beast-eye-18-st-3" d="M-49.4,393.7c2.6,4.4,4.9,9.9,4.9,16c0,8-4,15.2-7.5,19.9c-3.7-0.6-7.7-1.6-11.9-3.2
					c-2.8-4.5-5.3-10.3-5.3-16.7c0-8.2,4.1-15.4,7.6-20.1c3.8,1,7.7,2.2,11.4,3.8C-50,393.5-49.7,393.6-49.4,393.7z"/>
			</g>
		</g>
		<g>
			<g>
				<path class="beast-eye-18-st-0" d="M48.2,422.2c0,0,14.3-1.5,40.5-12.3c21-8.8,38.5-23.8,38.5-23.8s4,42.1-24.7,54.4
					C72.1,453.4,48.2,422.2,48.2,422.2z"/>
				<polygon class="beast-eye-18-st-1" points="92.4,420.3 76.9,404.9 92.4,373.5 107.9,404.9 				"/>
				<polygon class="beast-eye-18-st-1" points="106,414.8 90.5,399.4 106,368 121.4,399.4 				"/>
				<polygon class="beast-eye-18-st-1" points="113.7,408.6 102.8,398.5 118.2,367.1 127.2,386.1 				"/>
				<path class="beast-eye-18-st-2" d="M48.2,422.2c0,0,6.5-18,32.6-28.8c21-8.8,46.4-7.3,46.4-7.3s-0.9,26.9-29.7,39.2
					C67.2,438.3,48.2,422.2,48.2,422.2z"/>
				<path class="beast-eye-18-st-3" d="M80.1,393.7c-2.6,4.4-4.9,9.9-4.9,16c0,8,4,15.2,7.5,19.9c3.7-0.6,7.7-1.6,11.9-3.2
					c2.8-4.5,5.3-10.3,5.3-16.7c0-8.2-4.1-15.4-7.6-20.1c-3.8,1-7.7,2.2-11.4,3.8C80.6,393.5,80.3,393.6,80.1,393.7z"/>
			</g>
		</g>
	</g>
	<g>
		<path class="beast-eye-18-st-4" d="M47.4,366c-5.3,0-8,0-12.7,0c0-4,2.8-7.5,6.3-7.5S47.4,362,47.4,366z"/>
		<rect x="40.7" y="350.4" class="beast-eye-18-st-1" width="1" height="10.3"/>
		<rect x="43.9" y="353.3" transform="matrix(0.9651 0.2618 -0.2618 0.9651 95.3848 0.8693)" class="beast-eye-18-st-1" width="1" height="10.3"/>
		
			<rect x="36.8" y="356.5" transform="matrix(0.9509 -0.3094 0.3094 0.9509 -109.4441 29.1822)" class="beast-eye-18-st-1" width="1" height="6.4"/>
	</g>
	<path class="beast-eye-18-st-4" d="M-110,405.7c0,5.3,0,8,0,12.7c-4,0-7.5-2.8-7.5-6.3S-114,405.7-110,405.7z"/>
	<rect x="-125.6" y="411.4" class="beast-eye-18-st-1" width="10.3" height="1"/>
	
		<rect x="-118" y="403.5" transform="matrix(0.2618 -0.9651 0.9651 0.2618 -481.1746 188.3212)" class="beast-eye-18-st-1" width="1" height="10.3"/>
	
		<rect x="-116.8" y="412.6" transform="matrix(-0.3094 -0.9509 0.9509 -0.3094 -547.7035 433.8853)" class="beast-eye-18-st-1" width="1" height="6.4"/>
</g>
</svg>
