<?xml version="1.0" encoding="utf-8"?>
<!-- Generator: Adobe Illustrator 19.1.0, SVG Export Plug-In . SVG Version: 6.00 Build 0)  -->
<svg version="1.1" id="Layer_1" xmlns="http://www.w3.org/2000/svg" xmlns:xlink="http://www.w3.org/1999/xlink" x="0px" y="0px" width="305.834px" height="112px"
	 viewBox="-152 341 305.8 112" style="enable-background:new -152 341 305.8 112;" xml:space="preserve">
<style type="text/css">
	.beast-eye-19-st-0{fill:url(#beast-eye-19-id-1);}
	.beast-eye-19-st-1{opacity:0.6;fill:url(#beast-eye-19-id-2);}
	.beast-eye-19-st-2{fill:#D72050;}
	.beast-eye-19-st-3{fill:#FCDCA4;}
	.beast-eye-19-st-4{fill:#75A08A;}
	.beast-eye-19-st-5{fill:#F0A732;}
	.beast-eye-19-st-6{opacity:0.6;fill:url(#beast-eye-19-id-3);}
	.beast-eye-19-st-7{fill:#0B3746;}
</style>
<g>
	<linearGradient id="beast-eye-19-id-1" gradientUnits="userSpaceOnUse" x1="-41.5807" y1="358.5302" x2="-41.5807" y2="358.5302">
		<stop  offset="0.1" style="stop-color:#75A08A;stop-opacity:0"/>
		<stop  offset="0.4" style="stop-color:#75A08A"/>
	</linearGradient>
	<path class="beast-eye-19-st-0" d="M-41.6,358.5"/>
	<linearGradient id="beast-eye-19-id-2" gradientUnits="userSpaceOnUse" x1="38.7937" y1="368.3721" x2="124.6088" y2="399.6062">
		<stop  offset="0.5" style="stop-color:#0B3746"/>
		<stop  offset="1" style="stop-color:#0B3746;stop-opacity:0.2"/>
	</linearGradient>
	<path class="beast-eye-19-st-1" d="M28.8,403.6c0,0-1.4-14.2,10.3-27.7s33.8-26.2,48.5-25.1c3.4,0.2,29.9,0.5,42,21.3
		c7.4,12.7-10.8,32.4-26.1,23.4c0,0-29.1-5.7-39.9-3.3C50.4,395.1,28.8,403.6,28.8,403.6z"/>
	<path class="beast-eye-19-st-2" d="M24.3,410c-0.7,1.8,4.1,0.3,4.5,2.9c0,0,2.1,7.4,8.8,12.3c0,0,7.7,8.6,31.4,8.6c26.3,0,35.6-16.8,36.9-27.8
		c1.3-11-0.3-9.9-0.3-9.9l-3.8,0.2c0,0,7,31.1-35.8,33.6C27.2,430.4,32.2,402,32.2,402S25.4,407.1,24.3,410z"/>
	<path class="beast-eye-19-st-3" d="M32.3,402.5c0,0-5.7,27.1,33.6,27.5c36.6,0.3,37.8-28.3,35.6-34.2c0,0-22.3-3-37.3-2.8
		C49.2,393.3,32.3,402.5,32.3,402.5z"/>
	<path class="beast-eye-19-st-4" d="M42,398.8c0,0-5.5,28.4,21.6,30.7c27.2,2.4,30.7-27.8,24.9-34.5c0,0-13.8-1.6-25.7-0.9
		C51,394.8,42,398.8,42,398.8z"/>
	<circle class="beast-eye-19-st-5" cx="66" cy="405.6" r="12"/>
	<path class="beast-eye-19-st-3" d="M73.3,396.5c4,0,5.7,3.1,5.7,5.1c0,2,0.1,6.8-5.4,6.8c-5.5,0-6.4-3.4-6.4-7C67.2,397.9,70.3,396.5,73.3,396.5z
		"/>
	
		<linearGradient id="beast-eye-19-id-3" gradientUnits="userSpaceOnUse" x1="173.3489" y1="368.3721" x2="259.1639" y2="399.6062" gradientTransform="matrix(-1 0 0 1 137.1103 0)">
		<stop  offset="0.5" style="stop-color:#0B3746"/>
		<stop  offset="1" style="stop-color:#0B3746;stop-opacity:0.2"/>
	</linearGradient>
	<path class="beast-eye-19-st-6" d="M-26.3,403.6c0,0,1.4-14.2-10.3-27.7c-11.7-13.5-33.8-26.2-48.5-25.1c-3.4,0.2-29.9,0.5-42,21.3
		c-7.4,12.7,10.8,32.4,26.1,23.4c0,0,29.1-5.7,39.9-3.3C-47.8,395.1-26.3,403.6-26.3,403.6z"/>
	<path class="beast-eye-19-st-2" d="M-21.7,410c0.7,1.8-4.1,0.3-4.5,2.9c0,0-2.1,7.4-8.8,12.3c0,0-7.7,8.6-31.4,8.6c-26.3,0-35.6-16.8-36.9-27.8
		c-1.3-11,0.3-9.9,0.3-9.9l3.8,0.2c0,0-7,31.1,35.8,33.6c38.6,0.4,33.6-27.9,33.6-27.9S-22.9,407.1-21.7,410z"/>
	<path class="beast-eye-19-st-3" d="M-29.7,402.5c0,0,5.7,27.1-33.6,27.5c-36.6,0.3-37.8-28.3-35.6-34.2c0,0,22.3-3,37.3-2.8
		S-29.7,402.5-29.7,402.5z"/>
	<path class="beast-eye-19-st-4" d="M-39.5,398.8c0,0,5.5,28.4-21.6,30.7c-27.2,2.4-30.7-27.8-24.9-34.5c0,0,13.8-1.6,25.7-0.9
		C-48.4,394.8-39.5,398.8-39.5,398.8z"/>
	<circle class="beast-eye-19-st-5" cx="-63.5" cy="405.6" r="12"/>
	<g>
		<path class="beast-eye-19-st-3" d="M-55.8,396.5c4,0,5.7,3.1,5.7,5.1c0,2,0.1,6.8-5.4,6.8c-5.5,0-6.4-3.4-6.4-7
			C-61.9,397.9-58.9,396.5-55.8,396.5z"/>
	</g>
	<path class="beast-eye-19-st-7" d="M35.8,420.2c3.5,4.2,12,11.1,30.2,11.1c0.5,0,0.9,0,1.3,0c10.1-0.4,23.5-4.8,30.6-14c4.4-5.8,6-12.7,4.6-20.6
		c1.5-0.1,2.8-0.3,4.1-0.6c8.3-1.9,13.3-8.7,13.9-22.1c0,0-8.1,15.2-23.9,15.2c0,0,2.6-0.7,1.9-7.4c-2.2,3.3-9.4,6-19,7.4
		c-9.6,1.4-43.2-3.1-57.7,23.3c0,0,2.9-3.6,9.1-7.5C30.9,408.4,31.4,414.9,35.8,420.2z M100.5,396.7c1.3,7.5-0.1,13.9-4.2,19.3
		c-3.8,4.9-9.5,8.4-15.5,10.6c6.6-4.7,10.9-12.3,10.9-21c0-3.2-0.6-6.4-1.8-9.3C93.8,396.6,97.3,396.8,100.5,396.7z M43.2,399.1
		c5.5-1.9,12.2-3.4,20-3.9c9-0.5,17.3,0.2,24.5,0.9c1.3,3,2,6.2,2,9.5c0,12.7-10,23-22.5,23.7c-0.4,0-0.8,0-1.2,0
		c-13.1,0-23.7-10.6-23.7-23.7C42.3,403.4,42.6,401.2,43.2,399.1z M33,403.7c2.3-1.3,4.9-2.6,7.9-3.8c-0.4,1.8-0.6,3.7-0.6,5.6
		c0,9.5,5.2,17.9,12.9,22.3c-8.8-2.1-13.6-6.2-15.9-9C32.7,413.3,32.8,406,33,403.7z M128.1,403.2c0,0-10.6,0.5-15.5,1.3
		c-5,0.9-6.9,1.4-6.9,1.4c-1.8,15.6-16.6,26.4-38.9,27.4c-22.3,1.1-33.5-12.4-33.5-12.4c3,4.3,6.6,6.6,10.2,9.4
		c0.9,0.7,1.9,3.8,1.9,3.8s2-2.1,2.5-1.7c0.7,0.5,1.1,4.4,1.1,4.4s2.5-3.2,3.2-2.7c1,0.6,1.8,5.8,1.8,5.8s2.7-5.3,3.5-5
		c1,0.4,1.8,7.4,1.8,7.4s2.7-7.1,3.7-6.8c1.1,0.3,2.7,8.7,2.7,8.7s2.5-9.4,3.8-9.2c1.4,0.2,4.2,10.3,4.2,10.3s0.9-10.8,2-10.8
		c1.4,0,5.4,10.6,5.4,10.6s-1-11.5,0-11.7c1.4-0.3,7.1,10.3,7.1,10.3s-2.5-10.6-1.7-10.9c0.8-0.4,7.6,9.3,7.6,9.3s-4-10.9-2.7-11.6
		c1.1-0.6,8.6,8,8.6,8s-4.9-10.2-4.1-10.7c1.1-0.8,9.7,6.7,9.7,6.7s-6.5-10-5.6-10.8c0.9-0.8,11.4,5.5,11.4,5.5s-7.8-8.4-7.1-9.8
		c0.8-1.4,12.7,3.1,12.7,3.1s-10.2-7.3-9.7-8.1c0.5-0.8,15.7-1.1,15.7-1.1s-12.9-2.9-12.7-3.7C110.7,408.8,128.1,403.2,128.1,403.2z
		 M24.3,383c2.5-0.3,6.7-1.8,11.2-3.8c-0.4,0.6-0.8,1.2-1.1,1.8c-0.6,1-1.1,1.9-1.5,2.9c-0.2,0.5-0.4,0.9-0.7,1.4
		c-0.2,0.5-0.4,0.9-0.5,1.4c-0.2,0.4-0.3,0.9-0.5,1.3c-0.1,0.4-0.3,0.8-0.4,1.3c-0.1,0.4-0.2,0.8-0.4,1.2c-0.1,0.4-0.2,0.8-0.3,1.1
		c-0.2,0.7-0.3,1.4-0.4,2c-0.1,0.6-0.2,1.1-0.3,1.6c-0.1,0.5-0.1,0.9-0.2,1.2c-0.1,0.6-0.1,1-0.1,1s0.1-0.3,0.2-1
		c0.1-0.3,0.2-0.7,0.3-1.2c0.1-0.5,0.3-1,0.4-1.6c0.1-0.6,0.4-1.2,0.6-1.9c0.1-0.3,0.2-0.7,0.3-1.1c0.1-0.4,0.3-0.7,0.4-1.1
		c0.1-0.4,0.3-0.8,0.5-1.2c0.2-0.4,0.4-0.8,0.6-1.2c0.2-0.4,0.4-0.9,0.6-1.3c0.2-0.4,0.5-0.9,0.7-1.3c1-1.8,2.2-3.6,3.7-5.4
		c0.3-0.4,0.6-0.7,0.9-1c6.5-3,13.2-6.8,15.9-9.3c0.2-0.2,0.5-0.4,0.7-0.6c0.6-0.2,1.3-0.3,2-0.5c1.3-0.3,2.6-0.7,4-0.8
		c1.3-0.1,2.7-0.4,4-0.4c0.7,0,1.4-0.1,2-0.1c0.7,0,1.3,0,1.9,0c1.3,0,2.6,0.1,3.8,0.1c2.5,0.2,4.9,0.5,7.2,1.1
		c2.2,0.6,4.3,1.3,6.1,2.2c1.8,0.9,3.4,1.9,4.8,2.9c1.4,1,2.4,1.9,3.3,2.8c0.9,0.8,1.5,1.5,1.9,2c0.4,0.5,0.6,0.8,0.6,0.8
		s-0.2-0.3-0.6-0.8c-0.4-0.5-1-1.3-1.7-2.2c-0.8-0.9-1.8-2-3.1-3.1c-1.3-1.1-2.8-2.3-4.7-3.3c-1.8-1.1-3.9-2-6.2-2.8
		c-2.3-0.8-4.8-1.3-7.4-1.6c-1.3-0.1-2.7-0.3-4-0.3c-1.4-0.1-2.7,0.1-4.1,0.2l-1,0.1l-1,0.2c-0.7,0.1-1.4,0.2-2.1,0.3
		c-0.7,0.1-1.4,0.1-2.1,0.3l-0.6,0.1c5.5-5.1,14-12,28.4-12.4c18.1-0.5,37.4,8.5,43.2,19.2c-0.2-0.4-7.4-16.3-28.2-23.4
		c0,0-26.2,1.9-28.5,1c0,0-19,10.3-23.1,10.5c0,0-13.1,7.3-18.1,8.4c-5,1.1-15.7,2.9-14.8,9.3C17,378,17.7,383.8,24.3,383z
		 M66,415.7c4.3,0,8-2.8,9.5-6.6c2.8-0.9,4.8-3.5,4.8-6.6c0-3.8-3.1-6.9-6.9-6.9c-1.2,0-2.3,0.3-3.3,0.8c-1.2-0.5-2.6-0.8-4-0.8
		c-5.6,0-10.1,4.5-10.1,10.1C55.9,411.2,60.5,415.7,66,415.7z M73.3,397.5c2.7,0,4.9,2.2,4.9,4.9c0,2.7-2.2,4.9-4.9,4.9
		c-2.7,0-4.9-2.2-4.9-4.9C68.4,399.8,70.6,397.5,73.3,397.5z M-77,389.1c-9.6-1.4-16.7-4.1-19-7.4c-0.7,6.6,1.9,7.4,1.9,7.4
		c-15.8,0-23.9-15.2-23.9-15.2c0.6,13.4,5.6,20.1,13.9,22.1c1.3,0.3,2.7,0.5,4.1,0.6c-1.4,7.9,0.2,14.9,4.6,20.6
		c7.1,9.2,20.5,13.6,30.6,14c0.4,0,0.9,0,1.3,0c18.2,0,26.7-7,30.2-11.1c4.4-5.3,4.9-11.8,4.9-15.2c6.2,3.9,9.1,7.5,9.1,7.5
		C-33.9,386-67.5,390.5-77,389.1z M-93.8,416.1c-4.1-5.4-5.5-11.9-4.2-19.3c3.2,0.1,6.7-0.1,10.6-0.4c-1.1,3-1.8,6.1-1.8,9.3
		c0,8.7,4.3,16.4,10.9,21C-84.3,424.5-90,421-93.8,416.1z M-64.7,429.3c-12.5-0.6-22.5-11-22.5-23.7c0-3.3,0.7-6.5,2-9.5
		c7.3-0.6,15.5-1.4,24.5-0.9c1.3,0.1,2.5,0.2,3.7,0.3c-0.9,0.1-1.8,0.4-2.6,0.8c-1.2-0.5-2.6-0.8-4-0.8c-5.6,0-10.1,4.5-10.1,10.1
		c0,5.6,4.5,10.1,10.1,10.1c4.3,0,8-2.8,9.5-6.6c2.8-0.9,4.8-3.5,4.8-6.6c0-3-1.9-5.6-4.6-6.5c5,0.7,9.4,1.8,13.2,3.2
		c0.6,2.1,0.9,4.3,0.9,6.5c0,13.1-10.6,23.7-23.7,23.7C-63.9,429.3-64.3,429.3-64.7,429.3z M-56.2,397.5c2.7,0,4.9,2.2,4.9,4.9
		c0,2.7-2.2,4.9-4.9,4.9s-4.9-2.2-4.9-4.9C-61.2,399.8-59,397.5-56.2,397.5z M-34.8,418.9c-2.3,2.8-7.1,6.9-15.9,9
		c7.7-4.4,12.9-12.8,12.9-22.3c0-1.9-0.2-3.8-0.6-5.6c3,1.2,5.7,2.5,7.9,3.8C-30.3,406-30.2,413.3-34.8,418.9z M-64.3,433.3
		c-22.3-1.1-37.1-11.8-38.9-27.4c0,0-1.9-0.5-6.9-1.4c-5-0.9-15.5-1.3-15.5-1.3s17.4,5.6,17.6,6.4c0.2,0.8-12.7,3.7-12.7,3.7
		s15.2,0.3,15.7,1.1c0.5,0.8-9.7,8.1-9.7,8.1s12-4.5,12.7-3.1c0.8,1.4-7.1,9.8-7.1,9.8s10.5-6.3,11.4-5.5c0.9,0.8-5.6,10.8-5.6,10.8
		s8.6-7.5,9.7-6.7c0.7,0.5-4.1,10.7-4.1,10.7s7.5-8.7,8.6-8c1.2,0.7-2.7,11.6-2.7,11.6s6.9-9.7,7.6-9.3c0.8,0.4-1.7,10.9-1.7,10.9
		s5.8-10.5,7.1-10.3c1,0.2,0,11.7,0,11.7s4-10.6,5.4-10.6c1,0,2,10.8,2,10.8s2.8-10.1,4.2-10.3c1.3-0.2,3.8,9.2,3.8,9.2
		s1.6-8.4,2.7-8.7c1-0.3,3.7,6.8,3.7,6.8s0.8-6.9,1.8-7.4c0.8-0.4,3.5,5,3.5,5s0.9-5.2,1.8-5.8c0.7-0.4,3.2,2.7,3.2,2.7
		s0.4-3.9,1.1-4.4c0.5-0.4,2.5,1.7,2.5,1.7s0.9-3.1,1.9-3.8c3.6-2.8,7.2-5.2,10.2-9.4C-30.7,420.9-42,434.4-64.3,433.3z
		 M-29.2,368.7c-5-1.1-18.1-8.4-18.1-8.4c-4.1-0.3-23.1-10.5-23.1-10.5c-2.2,0.8-28.5-1-28.5-1c-20.8,7.1-28,23-28.2,23.4
		c5.8-10.7,25.1-19.8,43.2-19.2c14.4,0.4,23,7.3,28.4,12.4l-0.6-0.1c-0.7-0.2-1.4-0.2-2.1-0.3c-0.7-0.1-1.4-0.2-2.1-0.3l-1-0.2
		l-1-0.1c-1.3-0.1-2.7-0.2-4.1-0.2c-1.4,0-2.7,0.1-4,0.3c-2.6,0.4-5.1,0.8-7.4,1.6c-2.3,0.8-4.4,1.7-6.2,2.8
		c-1.8,1.1-3.4,2.2-4.7,3.3c-1.3,1.1-2.3,2.2-3.1,3.1c-0.8,0.9-1.4,1.7-1.7,2.2c-0.4,0.5-0.6,0.8-0.6,0.8s0.2-0.3,0.6-0.8
		c0.4-0.5,1.1-1.2,1.9-2c0.9-0.8,2-1.8,3.3-2.8c1.3-1,2.9-2,4.8-2.9c1.8-0.9,3.9-1.6,6.1-2.2c2.2-0.6,4.7-0.9,7.2-1.1
		c1.3,0,2.5-0.1,3.8-0.1c0.6,0,1.3,0,1.9,0c0.7,0,1.3,0.1,2,0.1c1.3,0,2.7,0.3,4,0.4c1.4,0.1,2.7,0.4,4,0.8c0.7,0.2,1.3,0.3,2,0.5
		c0.2,0.2,0.5,0.4,0.7,0.6c2.8,2.5,9.4,6.2,15.9,9.3c0.3,0.3,0.6,0.7,0.9,1c1.5,1.8,2.7,3.6,3.7,5.4c0.2,0.4,0.5,0.9,0.7,1.3
		c0.2,0.4,0.4,0.9,0.6,1.3c0.2,0.4,0.4,0.8,0.6,1.2c0.2,0.4,0.3,0.8,0.5,1.2c0.2,0.4,0.3,0.8,0.4,1.1c0.1,0.4,0.2,0.7,0.3,1.1
		c0.2,0.7,0.4,1.3,0.6,1.9c0.2,0.6,0.3,1.1,0.4,1.6c0.1,0.5,0.2,0.8,0.3,1.2c0.1,0.6,0.2,1,0.2,1s0-0.3-0.1-1c0-0.3-0.1-0.7-0.2-1.2
		c-0.1-0.5-0.2-1-0.3-1.6c-0.1-0.6-0.3-1.3-0.4-2c-0.1-0.4-0.2-0.7-0.3-1.1c-0.1-0.4-0.2-0.8-0.4-1.2c-0.1-0.4-0.3-0.8-0.4-1.3
		c-0.2-0.4-0.3-0.9-0.5-1.3c-0.2-0.4-0.3-0.9-0.5-1.4c-0.2-0.5-0.4-0.9-0.7-1.4c-0.4-1-1-1.9-1.5-2.9c-0.3-0.6-0.7-1.2-1.1-1.8
		c4.5,2,8.7,3.5,11.2,3.8c6.5,0.8,7.3-5,7.3-5C-13.6,371.6-24.3,369.9-29.2,368.7z"/>
</g>
</svg>
