<?xml version="1.0" encoding="utf-8"?>
<!-- Generator: Adobe Illustrator 15.0.0, SVG Export Plug-In . SVG Version: 6.00 Build 0)  -->
<!DOCTYPE svg PUBLIC "-//W3C//DTD SVG 1.1//EN" "http://www.w3.org/Graphics/SVG/1.1/DTD/svg11.dtd">
<svg version="1.1" id="Layer_1" xmlns="http://www.w3.org/2000/svg" xmlns:xlink="http://www.w3.org/1999/xlink" x="0px" y="0px"
	 width="305.834px" height="112px" viewBox="0 0 305.834 112" enable-background="new 0 0 305.834 112" xml:space="preserve">
<g>
	<polygon fill="#D72251" points="153.5,96.086 74.649,55.5 153.5,14.914 232.351,55.5 	"/>
</g>
<g>
	<path fill="#0C3846" d="M153.5,83.18c-11.731,0-21.274-9.544-21.274-21.274s9.543-21.274,21.274-21.274
		c11.73,0,21.274,9.543,21.274,21.274S165.23,83.18,153.5,83.18z M153.5,50.631c-6.217,0-11.274,5.058-11.274,11.274
		c0,6.217,5.058,11.274,11.274,11.274s11.274-5.058,11.274-11.274C164.774,55.689,159.717,50.631,153.5,50.631z"/>
</g>
<g>
	<polygon fill="#75A08A" points="74.649,56 153.5,15.414 232.351,56 	"/>
</g>
</svg>
