<?xml version="1.0" encoding="utf-8"?>
<!-- Generator: Adobe Illustrator 15.0.0, SVG Export Plug-In . SVG Version: 6.00 Build 0)  -->
<!DOCTYPE svg PUBLIC "-//W3C//DTD SVG 1.1//EN" "http://www.w3.org/Graphics/SVG/1.1/DTD/svg11.dtd">
<svg version="1.1" id="Layer_1" xmlns="http://www.w3.org/2000/svg" xmlns:xlink="http://www.w3.org/1999/xlink" x="0px" y="0px"
	 width="305.834px" height="112px" viewBox="0 0 305.834 112" enable-background="new 0 0 305.834 112" xml:space="preserve">
<g>
	<g>
		<defs>
			<rect id="nav-eye-10-st-0" x="12.354" y="8.662" width="281.125" height="94.676"/>
		</defs>
		<clipPath id="nav-eye-10-st-2">
			<use xlink:href="#nav-eye-10-st-0"  overflow="visible"/>
		</clipPath>
		<path clip-path="url(#nav-eye-10-st-2)" fill="#FCDCA4" d="M183.557,48.251c-0.179-15.885,12.433-39.004,45.506-38.435
			c33.073,0.57,49.839,15.282,51.207,35.926c1.369,20.643-16.081,51.322-49.04,48.927C198.269,92.273,183.898,78.816,183.557,48.251
			"/>
		<path clip-path="url(#nav-eye-10-st-2)" fill="#FCDCA4" d="M87.072,9.475c24.519,0.278,48.242,10.378,50.98,42.198
			c2.736,31.82-34.899,47.102-58.165,42.996c-23.266-4.106-40.931-21.339-38.32-48.242C44.19,19.396,66.999,9.247,87.072,9.475"/>
		<path clip-path="url(#nav-eye-10-st-2)" fill="#D72251" d="M75.211,16.432c14.939,0.233,28.17,10.607,28.968,25.661
			c0.799,15.054-9.922,28.968-28.398,29.31c-18.476,0.344-27.6-18.476-26.687-30.337C50.006,29.205,60.612,16.204,75.211,16.432"/>
		<path clip-path="url(#nav-eye-10-st-2)" fill="#D72251" d="M242.571,23.274c12.889-0.121,27.029,10.264,27.258,26.003
			c0.227,15.739-11.177,29.881-26.688,28.968c-15.51-0.912-29.881-11.747-28.055-29.651
			C216.91,30.688,230.368,23.389,242.571,23.274"/>
		<path clip-path="url(#nav-eye-10-st-2)" fill="#EE6372" d="M218.169,50.458c-0.508-5.461,5.174-10.648,11.333-10.763
			c6.158-0.113,9.069,6.326,12.72,5.87c3.648-0.456,7.081-5.87,13.125-5.299c6.045,0.57,11.887,3.251,11.09,11.006
			c-0.799,7.756-7.115,9.719-11.334,9.376c-4.22-0.342-7.945-5.396-12.393-5.055c-4.447,0.343-7.132,6.294-13.859,5.952
			C222.12,61.203,218.625,55.361,218.169,50.458"/>
		<path clip-path="url(#nav-eye-10-st-2)" fill="#EE6372" d="M52.179,43.038c-0.258-5.26,5.06-10.224,11.333-10.11
			c6.272,0.114,8.221,5.609,11.985,5.382c3.764-0.229,5.876-6.033,12.719-6.033c6.843,0,12.783,6.071,12.555,11.659
			S97.014,54.55,88.459,54.208c-8.553-0.342-6.983-4.94-11.658-5.055c-4.677-0.114-7.197,5.315-13.127,4.973
			C57.744,53.784,52.521,49.995,52.179,43.038"/>
		<path clip-path="url(#nav-eye-10-st-2)" fill="#0C3846" d="M182.901,36.298c0.133-0.486,0.264-0.958,0.387-1.409
			c0.295-0.888,0.535-1.719,0.801-2.437c0.247-0.726,0.5-1.343,0.693-1.864c0.221-0.504,0.375-0.918,0.502-1.185
			c0.127-0.271,0.195-0.416,0.195-0.416s-0.438,0.469-1.087,1.389c-0.31,0.468-0.702,1.032-1.075,1.721
			c-0.414,0.671-0.789,1.47-1.216,2.341c-0.38,0.885-0.825,1.843-1.164,2.897c-0.18,0.525-0.364,1.065-0.554,1.616
			c-0.148,0.563-0.303,1.138-0.457,1.723c-0.352,1.163-0.527,2.403-0.77,3.653c-0.179,1.256-0.352,2.538-0.453,3.823
			c-0.043,1.289-0.147,2.576-0.14,3.844c0.054,1.268,0.064,2.516,0.151,3.715c0.133,1.197,0.262,2.354,0.385,3.45
			c0.146,1.091,0.393,2.108,0.564,3.051c0.326,1.891,0.859,3.41,1.16,4.482c0.336,1.062,0.529,1.67,0.529,1.67
			s-0.05-0.636-0.138-1.749c-0.056-0.553-0.106-1.226-0.197-1.989c-0.11-0.761-0.135-1.632-0.2-2.575
			c-0.062-0.939-0.129-1.958-0.199-3.034c-0.027-1.076-0.056-2.209-0.086-3.384c-0.02-1.17,0.039-2.379,0.055-3.604
			c0.02-1.226,0.141-2.466,0.206-3.707c0.143-1.235,0.253-2.473,0.407-3.687c0.098-0.603,0.195-1.201,0.291-1.793
			c0.072-0.597,0.178-1.179,0.299-1.747c0.115-0.572,0.227-1.135,0.336-1.685c0.13-0.546,0.256-1.081,0.379-1.601
			C182.62,37.283,182.753,36.779,182.901,36.298 M242.938,101.881c-1.649-0.011-3.508,0.083-5.53-0.005
			c-2.021-0.043-4.209-0.175-6.498-0.443c-1.144-0.14-2.32-0.252-3.506-0.48c-0.594-0.106-1.199-0.187-1.8-0.316
			c-0.6-0.137-1.204-0.273-1.815-0.412c-1.221-0.263-2.43-0.665-3.664-1.02c-1.211-0.436-2.452-0.821-3.655-1.352
			c-2.442-0.955-4.843-2.144-7.206-3.401c-2.361-1.294-4.648-2.637-6.915-4.077c-2.265-1.378-4.274-2.871-6.06-4.571
			c-3.586-3.359-6.055-7.333-7.58-10.958c-0.129-0.298-0.242-0.588-0.36-0.879c5.185,8.887,13.44,15.469,23.847,19l-0.016,0.022
			c0,0,0.184,0.124,0.529,0.356c0.345,0.222,0.846,0.554,1.505,0.932c1.317,0.755,3.214,1.817,5.626,2.816
			c2.414,0.979,5.318,1.991,8.587,2.515c1.614,0.229,3.407,0.354,5.049,0.341c1.679,0.008,3.384,0.017,5.088,0.025
			c3.413-0.049,6.829-0.178,10.027-0.408c3.2-0.222,6.175-0.643,8.7-1.121c2.531-0.47,4.584-1.139,5.972-1.702
			c0.692-0.29,1.215-0.562,1.563-0.757c0.346-0.202,0.529-0.311,0.529-0.311s-0.195,0.085-0.562,0.241
			c-0.367,0.153-0.92,0.342-1.623,0.562c-1.418,0.431-3.496,0.818-6.012,1.104c-2.513,0.301-5.471,0.414-8.638,0.491
			c-3.169,0.071-6.554,0.018-9.94-0.09c-1.693-0.049-3.387-0.098-5.055-0.146c-1.707-0.031-3.201-0.182-4.738-0.428
			c-1.504-0.304-2.963-0.608-4.316-1.045c-1.256-0.367-2.412-0.809-3.492-1.234c1.997,0.321,4.055,0.54,6.161,0.66
			c0.161,0.036,0.438,0.097,0.851,0.187c0.66,0.133,1.623,0.321,2.854,0.515s2.733,0.396,4.462,0.552
			c1.727,0.176,3.684,0.285,5.825,0.349c1.069,0.009,2.187,0.02,3.342-0.01c1.155-0.073,2.351-0.077,3.576-0.222
			c0.612-0.059,1.235-0.119,1.864-0.18c0.627-0.073,1.261-0.182,1.902-0.273c1.286-0.158,2.581-0.464,3.903-0.736
			c0.665-0.118,1.313-0.346,1.979-0.519c0.66-0.199,1.336-0.346,1.992-0.592c0.658-0.24,1.319-0.481,1.983-0.724l0.499-0.183
			l0.125-0.045l0.102-0.042l0.059-0.027l0.236-0.106l0.941-0.428c0.633-0.299,1.258-0.539,1.896-0.902
			c0.638-0.351,1.276-0.703,1.916-1.056c0.646-0.349,1.225-0.771,1.84-1.154l0.91-0.589l0.873-0.647
			c2.346-1.693,4.493-3.663,6.373-5.8c1.887-2.131,3.521-4.42,4.867-6.769c1.35-2.349,2.42-4.752,3.153-7.143
			c0.321-1.166,0.634-2.301,0.937-3.398c0.305-1.072,0.635-2.112,0.963-3.103c0.641-1.989,1.301-3.792,1.893-5.388
			c0.607-1.589,1.164-2.966,1.66-4.083c0.49-1.122,0.964-1.954,1.312-2.505c0.341-0.563,0.642-0.765,0.626-0.783
			c0.02,0.017-0.324,0.165-0.771,0.667c-0.469,0.481-1.047,1.277-1.709,2.327c-1.354,2.091-2.971,5.251-4.592,9.184
			c-0.396,0.99-0.793,2.022-1.178,3.115c-0.4,1.094-0.715,2.257-1.074,3.342c-0.781,2.196-1.819,4.457-3.119,6.661
			c-1.305,2.203-2.879,4.345-4.685,6.331c-1.8,1.992-3.845,3.819-6.077,5.383l-0.826,0.6l-0.867,0.543
			c-0.58,0.349-1.143,0.75-1.735,1.057l-1.763,0.944c-0.576,0.319-1.252,0.58-1.866,0.878l-0.94,0.433l-0.236,0.107l-0.057,0.025
			l-0.019,0.007l-0.117,0.044l-0.467,0.172c-0.622,0.229-1.241,0.459-1.856,0.687c-0.613,0.235-1.256,0.375-1.877,0.565
			c-0.628,0.166-1.236,0.386-1.869,0.499c-1.257,0.264-2.483,0.562-3.715,0.719c-0.613,0.09-1.217,0.197-1.818,0.27
			c-0.604,0.062-1.201,0.12-1.789,0.181c-1.92,0.184-3.758,0.251-5.496,0.281c1.48-0.238,2.943-0.526,4.371-0.904l0.006,0.032
			c0,0,1.789-0.293,4.379-0.978c0.648-0.174,1.347-0.379,2.084-0.599c0.732-0.232,1.515-0.447,2.306-0.733
			c1.591-0.536,3.271-1.158,4.927-1.835c1.664-0.665,3.289-1.421,4.785-2.181c0.737-0.401,1.449-0.79,2.125-1.158
			c0.652-0.408,1.269-0.792,1.838-1.147c0.557-0.375,1.043-0.756,1.482-1.072c0.448-0.308,0.795-0.636,1.09-0.891
			c0.584-0.512,0.919-0.805,0.919-0.805s-0.364,0.254-1.002,0.697c-0.319,0.219-0.694,0.502-1.171,0.756
			c-0.471,0.264-0.984,0.583-1.57,0.889c-0.594,0.292-1.234,0.609-1.914,0.943c-0.694,0.299-1.427,0.613-2.186,0.938
			c-0.773,0.289-1.562,0.61-2.381,0.894c-0.821,0.275-1.641,0.591-2.485,0.841c-0.614,0.196-1.229,0.376-1.843,0.557
			c2.003-1.21,3.912-2.577,5.715-4.102c0.15-0.054,0.719-0.263,1.592-0.622c1.021-0.436,2.465-1.08,4.16-1.967
			c1.678-0.922,3.616-2.054,5.495-3.729c0.465-0.427,0.925-0.892,1.351-1.432c0.111-0.15,0.195-0.255,0.323-0.446l0.243-0.383
			c0.162-0.251,0.326-0.514,0.488-0.812c0.664-1.154,1.197-2.275,1.712-3.449c2.021-4.653,3.431-9.475,4.245-13.148
			c0.417-1.833,0.664-3.383,0.834-4.466c0.168-1.083,0.227-1.709,0.227-1.709s-0.871,2.338-2.18,5.843
			c-0.328,0.871-0.684,1.814-1.061,2.812c-0.385,0.99-0.791,2.036-1.211,3.116c-0.861,2.15-1.789,4.438-2.852,6.639
			c-0.528,1.086-1.084,2.208-1.669,3.164c-0.638,1.068-1.196,1.824-2.019,2.559c-1.56,1.416-3.354,2.489-4.903,3.37
			c3.204-3.622,5.94-7.823,8.102-12.536c6.072-13.24,6.325-27.965,0.628-36.64c-2.32-3.533-4.914-6.623-7.77-9.309
			c1.127,0.819,2.221,1.659,3.244,2.509c0.512,0.457,1.014,0.905,1.506,1.346c0.492,0.439,0.986,0.862,1.4,1.337
			c0.85,0.925,1.732,1.745,2.418,2.609c0.696,0.856,1.321,1.656,1.904,2.352c0.557,0.713,0.958,1.392,1.333,1.926
			c0.724,1.084,1.17,1.696,1.17,1.696s-0.288-0.688-0.85-1.877c-0.29-0.589-0.593-1.339-1.037-2.142
			c-0.465-0.792-1.022-1.668-1.619-2.641c-0.604-0.966-1.426-1.887-2.21-2.936c-0.389-0.531-0.863-1.004-1.34-1.5
			c-0.477-0.497-0.962-1.004-1.456-1.521c-0.499-0.514-1.079-0.954-1.628-1.444c-0.564-0.47-1.105-0.99-1.711-1.434
			c-1.225-0.864-2.428-1.817-3.751-2.578c-0.652-0.394-1.291-0.815-1.954-1.186c-0.674-0.351-1.346-0.7-2.01-1.047
			c-0.658-0.364-1.344-0.651-2.014-0.955c-0.673-0.293-1.324-0.623-1.996-0.861c-1.334-0.506-2.623-0.999-3.873-1.378
			c-1.236-0.425-2.436-0.723-3.531-1.037c-1.108-0.256-2.123-0.502-3.033-0.667c-0.905-0.179-1.699-0.323-2.359-0.423
			c-0.66-0.11-1.043-0.167-1.389-0.213c-0.348-0.044-0.406-0.068-0.406-0.068v0.008c-4-0.588-7.531-0.894-11.57-0.894
			c-3.135,0-6.527,0.195-9.98,0.547c-0.035,0.001-0.182,0.007-0.406,0.02c-0.27,0.018-0.686,0.031-1.177,0.082
			c-0.99,0.091-2.408,0.229-4.089,0.482c-0.837,0.146-1.751,0.285-2.707,0.472c-0.954,0.193-1.971,0.362-3,0.629
			c-1.036,0.236-2.102,0.514-3.176,0.822c-1.078,0.289-2.152,0.668-3.232,1.016c-1.082,0.345-2.129,0.806-3.176,1.195
			c-1.031,0.44-2.031,0.907-2.993,1.363c-0.942,0.508-1.858,0.985-2.692,1.493c-0.817,0.538-1.588,1.047-2.302,1.516
			c-0.675,0.527-1.282,1.02-1.812,1.463c-0.549,0.415-0.932,0.898-1.289,1.237c-0.678,0.713-1.065,1.122-1.065,1.122
			s0.459-0.326,1.261-0.894c0.407-0.273,0.844-0.671,1.451-0.986c0.592-0.336,1.246-0.724,1.949-1.157
			c0.743-0.367,1.548-0.765,2.398-1.185c0.514-0.218,1.048-0.443,1.591-0.672c-15.241,11.172-16.784,31.102-15.599,39.819
			c0.235,1.74,0.569,3.429,0.976,5.073c0.004,0.171,0.01,0.405,0.017,0.715c0.027,0.661,0.082,1.623,0.239,2.834
			c0.334,2.412,0.99,5.87,2.615,9.75c1.612,3.863,4.245,8.142,8.094,11.766c1.912,1.797,4.185,3.401,6.499,4.768
			c2.26,1.393,4.674,2.769,7.089,4.047c2.444,1.248,4.922,2.463,7.483,3.382c1.262,0.504,2.568,0.863,3.834,1.271
			c1.291,0.325,2.558,0.696,3.83,0.925c0.636,0.121,1.266,0.241,1.889,0.361c0.624,0.111,1.25,0.174,1.863,0.262
			c1.23,0.187,2.439,0.281,3.617,0.356c2.354,0.137,4.58,0.14,6.627,0.062c1.024-0.014,2.002-0.074,2.932-0.146
			c0.93-0.065,1.812-0.11,2.637-0.209c1.648-0.195,3.086-0.333,4.264-0.505c2.351-0.353,3.694-0.554,3.694-0.554
			s-1.354,0.072-3.727,0.2C246.026,101.804,244.585,101.821,242.938,101.881 M185.696,62.184c-0.002-0.038,0.02-0.071,0.02-0.071
			h-0.014c-0.412-2-0.746-3.294-0.981-5.021c-1.367-10.055,1.063-35.76,25.837-43.349c0.46-0.106,0.917-0.206,1.368-0.297
			c2.021-0.455,3.924-0.81,5.56-1.088c1.637-0.261,3.207-0.505,4.166-0.623c0.951-0.134,1.703-0.209,1.703-0.209v-0.001
			c3-0.345,6.443-0.537,9.512-0.537c3.951,0,7.543,0.286,11.024,0.84l-0.056,0.021c0,0,0.701,0.145,1.974,0.399
			c0.628,0.119,1.375,0.287,2.247,0.493c0.874,0.189,1.838,0.475,2.902,0.747c0.272,0.08,0.564,0.163,0.85,0.243
			c9.939,3.23,17.719,9.362,23.838,18.68c5.334,8.122,5.021,22.07-0.775,34.708c-6.717,14.65-19.164,24.172-34.145,26.126
			c-3.372,0.44-6.688,0.663-9.855,0.663c-1.172,0-2.344-0.042-3.484-0.104l-0.031-0.001v-0.006
			C206.354,92.622,190.372,80.625,185.696,62.184 M204.573,97.26c-0.615-0.346-1.261-0.816-1.975-1.306
			c-0.712-0.485-1.482-1.014-2.297-1.572c-0.784-0.598-1.594-1.246-2.46-1.872c-0.841-0.661-1.646-1.421-2.511-2.129
			c-0.844-0.732-1.631-1.553-2.457-2.329c-0.76-0.839-1.565-1.641-2.283-2.493c-0.68-0.881-1.439-1.684-2.036-2.564
			c-0.642-0.849-1.216-1.7-1.75-2.521c-0.283-0.401-0.51-0.818-0.742-1.217c-0.233-0.396-0.485-0.77-0.681-1.15
			c-0.396-0.758-0.782-1.45-1.075-2.087c-0.315-0.629-0.544-1.196-0.756-1.659c-0.386-0.938-0.571-1.498-0.571-1.498
			s0.006,0.589,0.164,1.613c0.1,0.504,0.192,1.133,0.398,1.822c0.166,0.706,0.428,1.478,0.732,2.316
			c0.322,0.828,0.678,1.733,1.153,2.637c0.235,0.455,0.479,0.922,0.728,1.4c0.262,0.469,0.574,0.921,0.869,1.396
			c0.573,0.965,1.288,1.873,2.006,2.805c0.741,0.908,1.549,1.789,2.36,2.662c0.882,0.801,1.728,1.643,2.627,2.392
			c0.925,0.717,1.83,1.431,2.739,2.069c0.927,0.612,1.852,1.163,2.711,1.701c0.877,0.511,1.758,0.903,2.545,1.303
			c0.787,0.401,1.52,0.742,2.2,0.977c0.669,0.262,1.26,0.465,1.741,0.64c0.969,0.341,1.525,0.517,1.525,0.517
			s-0.49-0.333-1.35-0.884C205.698,97.957,205.178,97.619,204.573,97.26 M293.333,65.086c-0.086,0.229-0.241,0.554-0.434,0.964
			c-0.389,0.82-0.992,1.963-1.748,3.312c-0.767,1.346-1.681,2.902-2.673,4.565c-1.004,1.654-2.053,3.434-3.146,5.187
			c-0.523,0.871-1.065,1.792-1.603,2.612c-0.528,0.806-1.089,1.59-1.7,2.301c-0.611,0.712-1.231,1.385-1.848,2.003
			c-0.629,0.604-1.227,1.181-1.805,1.689c-1.154,1.016-2.163,1.832-2.881,2.394c-0.717,0.563-1.143,0.874-1.143,0.874
			s0.504-0.16,1.348-0.532c0.842-0.374,2.029-0.956,3.369-1.814c0.674-0.422,1.383-0.917,2.104-1.486
			c0.717-0.573,1.464-1.2,2.162-1.935c0.699-0.73,1.412-1.515,2.011-2.42c0.603-0.879,1.136-1.74,1.703-2.64
			c0.524-0.906,1.05-1.812,1.567-2.704c0.516-0.892,0.963-1.806,1.412-2.68c0.881-1.758,1.623-3.446,2.166-4.931
			c0.555-1.48,0.901-2.764,1.082-3.672c0.1-0.45,0.137-0.814,0.161-1.062c0.026-0.244,0.04-0.375,0.04-0.375
			S293.429,64.858,293.333,65.086 M275.67,93.552c-0.468,0.303-1.032,0.586-1.621,0.93c-0.604,0.322-1.224,0.725-1.92,1.078
			c-0.695,0.354-1.419,0.742-2.166,1.143c-0.767,0.365-1.56,0.737-2.351,1.141c-0.815,0.355-1.643,0.717-2.47,1.078
			c-0.841,0.326-1.665,0.701-2.507,0.982c-0.837,0.3-1.652,0.619-2.465,0.859c-1.607,0.542-3.141,0.941-4.461,1.278
			c-1.324,0.323-2.443,0.541-3.232,0.688c-0.789,0.138-1.248,0.195-1.248,0.195s0.458,0.063,1.268,0.094
			c0.81,0.017,1.973,0.007,3.356-0.146c0.69-0.081,1.441-0.17,2.226-0.319c0.783-0.156,1.615-0.297,2.453-0.536
			c0.848-0.207,1.709-0.47,2.58-0.752c0.875-0.275,1.729-0.645,2.603-0.966c0.858-0.354,1.692-0.77,2.524-1.146
			c0.816-0.415,1.6-0.86,2.362-1.278c0.747-0.445,1.45-0.909,2.117-1.344c0.677-0.419,1.259-0.905,1.815-1.318
			c0.551-0.422,1.064-0.794,1.476-1.184c0.418-0.378,0.782-0.708,1.082-0.98c0.585-0.555,0.919-0.873,0.919-0.873
			s-0.4,0.229-1.104,0.631C276.564,93.013,276.147,93.264,275.67,93.552 M142.888,55.868c-0.126-0.887-0.217-1.659-0.35-2.289
			c-0.109-0.631-0.225-1.123-0.307-1.457c-0.082-0.333-0.127-0.51-0.127-0.51s0.039,0.732,0.041,2.005
			c0.016,0.635-0.015,1.409-0.009,2.29c-0.051,0.884-0.032,1.877-0.115,2.959c-0.032,0.54-0.063,1.103-0.097,1.685
			c-0.053,0.579-0.105,1.18-0.161,1.796c-0.094,1.232-0.28,2.522-0.442,3.858c-0.223,1.326-0.425,2.701-0.701,4.082
			c-0.155,0.688-0.312,1.38-0.471,2.076c-0.13,0.702-0.322,1.39-0.527,2.075c-0.195,0.688-0.392,1.376-0.588,2.061
			c-0.205,0.682-0.482,1.335-0.705,2.003c-0.239,0.661-0.459,1.326-0.709,1.97c-0.283,0.628-0.564,1.25-0.842,1.859
			c-0.277,0.61-0.516,1.23-0.81,1.805c-0.312,0.566-0.617,1.119-0.914,1.658c-0.294,0.544-0.579,1.073-0.854,1.584
			c-0.291,0.502-0.627,0.953-0.922,1.406c-0.611,0.887-1.115,1.751-1.629,2.467c-0.555,0.687-1.037,1.284-1.436,1.777
			c-0.786,1.008-1.234,1.584-1.234,1.584s0.535-0.496,1.471-1.365c0.463-0.444,1.023-0.985,1.668-1.606
			c0.601-0.66,1.242-1.441,1.941-2.297c0.342-0.435,0.727-0.868,1.072-1.354c0.324-0.499,0.662-1.016,1.008-1.547
			c0.344-0.535,0.693-1.085,1.055-1.647c0.34-0.573,0.629-1.19,0.953-1.804c0.311-0.621,0.627-1.252,0.946-1.891
			c0.285-0.654,0.539-1.33,0.813-2.005c0.265-0.68,0.559-1.355,0.779-2.059c0.213-0.706,0.424-1.415,0.637-2.123
			c0.474-1.405,0.715-2.869,1.031-4.289c0.258-1.43,0.473-2.847,0.612-4.223c0.09-1.381,0.252-2.708,0.228-3.977
			c0.03-1.267,0.017-2.461-0.056-3.562C143.099,57.764,142.975,56.757,142.888,55.868 M137.54,66.682
			c0.183-1.155,0.281-2.072,0.334-2.703c0.022-0.319,0.039-0.563,0.052-0.729c0.001-0.024,0.001-0.034,0.002-0.055
			c0.952-4.022,1.278-8.238,0.923-12.54c-0.723-8.768-3.359-16.533-7.704-22.901c1.259,1.159,2.45,2.362,3.511,3.57
			c1.398,1.546,2.59,3.097,3.476,4.515c0.431,0.715,0.847,1.364,1.147,1.977c0.334,0.598,0.557,1.149,0.762,1.599
			c0.371,0.911,0.562,1.448,0.562,1.448s-0.027-0.139-0.08-0.399c-0.061-0.258-0.109-0.649-0.246-1.129
			c-0.262-0.961-0.701-2.329-1.453-3.882c-0.758-1.546-1.801-3.278-3.086-5.009c-1.305-1.718-2.828-3.443-4.445-5.074
			c-0.803-0.821-1.647-1.599-2.499-2.34c-0.851-0.741-1.699-1.458-2.542-2.125c-1.667-1.359-3.328-2.486-4.766-3.431
			c-1.435-0.954-2.696-1.646-3.6-2.125c-0.448-0.242-0.83-0.41-1.11-0.53c-0.135-0.065-0.373-0.134-0.523-0.167
			c-7.654-3.975-16.98-5.99-27.871-5.99c-1.975,0-4.025,0.069-6.094,0.203c-4.949,0.322-9.494,1.142-13.643,2.43
			c-0.07,0.015-0.173,0.035-0.333,0.069c-0.295,0.063-0.687,0.16-1.194,0.298c-0.995,0.303-2.41,0.749-4.04,1.44
			c-0.806,0.362-1.683,0.751-2.582,1.213c-0.902,0.46-1.849,0.95-2.795,1.516c-0.959,0.546-1.896,1.191-2.861,1.827
			c-0.968,0.633-1.875,1.381-2.821,2.072c-0.908,0.739-1.805,1.492-2.672,2.25c-0.834,0.795-1.661,1.567-2.438,2.338
			c-0.739,0.808-1.462,1.578-2.124,2.329c-0.669,0.743-1.234,1.507-1.774,2.189c-0.531,0.692-1.04,1.304-1.413,1.911
			c-0.391,0.589-0.732,1.104-1.012,1.526c-0.56,0.844-0.858,1.339-0.858,1.339s0.423-0.401,1.126-1.126
			c0.35-0.362,0.777-0.8,1.265-1.304c0.478-0.511,1.064-1.043,1.682-1.639c0.636-0.58,1.261-1.265,2.005-1.905
			c0.709-0.634,1.457-1.302,2.229-1.991c-7.576,10.405-8.981,23.516-7.672,32.607c0.157,1.094,0.36,2.198,0.61,3.309
			c-0.286-0.443-0.573-0.891-0.857-1.342c-1.283-2.079-2.499-4.212-3.27-5.893c-0.413-0.829-0.711-1.544-0.92-2.046
			c-0.205-0.507-0.323-0.796-0.323-0.796s0.088,1.253,0.53,3.096c0.234,0.914,0.55,1.974,0.94,3.093
			c0.187,0.562,0.423,1.126,0.657,1.701c0.234,0.576,0.489,1.153,0.759,1.725c1.051,2.295,2.334,4.471,3.391,6.019
			c0.524,0.777,0.995,1.399,1.302,1.825c0.138,0.19,0.246,0.34,0.319,0.442c0,0-0.034,0.037-0.047,0.009
			c-0.02-0.043-0.101-0.088-0.101-0.131v-0.012c1,1.582,1.513,3.146,2.397,4.681c-0.588-0.506-1.165-1.045-1.784-1.641
			c-0.779-0.733-1.548-1.544-2.335-2.393c-0.399-0.422-0.784-0.862-1.156-1.324c-0.392-0.449-0.752-0.925-1.104-1.415
			c-0.727-0.964-1.354-2.008-1.902-3.082c-0.564-1.137-1.127-2.274-1.682-3.395c-0.567-1.123-1.124-2.229-1.664-3.298
			c-1.088-2.14-2.246-4.075-3.319-5.685c-0.528-0.808-1.079-1.511-1.588-2.11c-0.513-0.6-1.002-1.083-1.421-1.462
			c-0.435-0.362-0.786-0.632-1.051-0.778c-0.255-0.156-0.391-0.24-0.391-0.24s0.121,0.104,0.347,0.299
			c0.236,0.182,0.529,0.509,0.905,0.909c0.358,0.421,0.767,0.949,1.185,1.592c0.41,0.649,0.854,1.391,1.299,2.226
			c0.908,1.657,1.782,3.691,2.739,5.866c0.465,1.096,0.946,2.228,1.434,3.377c0.492,1.157,0.943,2.328,1.479,3.516
			c0.567,1.213,1.223,2.378,1.968,3.441c0.364,0.54,0.738,1.064,1.138,1.556c0.382,0.508,0.782,0.987,1.189,1.446
			c0.791,0.94,1.637,1.77,2.444,2.543c0.806,0.775,1.596,1.477,2.34,2.104c0.736,0.638,1.443,1.18,2.076,1.653
			c0.63,0.477,1.192,0.875,1.658,1.2c0.463,0.329,0.842,0.564,1.102,0.734c0.027,0.016,0.037,0.022,0.061,0.038
			c0.987,1.208,2.058,2.375,3.208,3.496c-0.884-0.546-1.776-1.116-2.666-1.719c-1.076-0.722-2.126-1.507-3.151-2.315
			c-1.024-0.8-2.075-1.691-3.051-2.525c-0.987-0.863-1.96-1.714-2.901-2.536c-1.878-1.668-3.631-3.225-5.133-4.559
			c-1.513-1.332-2.787-2.436-3.699-3.191c-0.455-0.38-0.817-0.675-1.073-0.865c-0.25-0.198-0.398-0.285-0.398-0.285
			s0.116,0.122,0.303,0.38c0.189,0.254,0.466,0.627,0.819,1.103c0.71,0.946,1.749,2.28,3.058,3.829
			c1.313,1.545,2.886,3.315,4.677,5.114c0.892,0.904,1.829,1.823,2.814,2.729c1.004,0.922,1.972,1.807,3.033,2.702
			c2.129,1.766,4.388,3.337,6.594,4.649c1.1,0.661,2.174,1.278,3.22,1.813c1.04,0.546,2.034,1.04,2.967,1.464
			c1.87,0.844,3.462,1.47,4.619,1.866c0.288,0.098,0.552,0.178,0.794,0.242c0.119,0.033,0.229,0.064,0.329,0.093
			c0.106,0.029,0.314,0.071,0.444,0.091c0.076,0.012,0.146,0.021,0.211,0.027c3.513,1.635,7.44,2.912,11.806,3.731
			c-0.481,0.004-0.953,0.011-1.45,0.007c-0.838-0.007-1.695-0.052-2.573-0.077c-0.873-0.066-1.764-0.134-2.671-0.203
			c-1.799-0.209-3.66-0.454-5.477-0.926c-0.453-0.12-0.918-0.215-1.37-0.344l-1.338-0.441l-0.634-0.208l-0.684-0.289l-1.368-0.579
			c-1.676-0.826-3.386-1.739-4.999-2.779c-1.628-1.006-3.173-2.112-4.668-3.187c-1.483-1.107-2.917-2.178-4.277-3.193
			c-1.359-1.028-2.679-1.965-3.916-2.815c-1.248-0.832-2.406-1.586-3.492-2.164c-0.53-0.306-1.042-0.568-1.529-0.789
			c-0.482-0.226-0.92-0.437-1.341-0.581c-0.414-0.149-0.784-0.283-1.106-0.4c-0.333-0.08-0.616-0.149-0.847-0.204
			c-0.455-0.104-0.698-0.16-0.698-0.16s0.223,0.111,0.642,0.32c0.208,0.102,0.464,0.227,0.765,0.374
			c0.286,0.173,0.615,0.373,0.984,0.596c0.374,0.204,0.763,0.483,1.186,0.78c0.427,0.289,0.887,0.602,1.357,0.976
			c0.952,0.719,2.014,1.55,3.143,2.504c1.152,0.92,2.356,1.986,3.679,3.058c1.308,1.091,2.714,2.225,4.194,3.371
			c1.494,1.134,3.045,2.306,4.711,3.395c1.636,1.126,3.417,2.107,5.287,3.051l1.36,0.599l0.68,0.298
			c0.315,0.123,0.508,0.18,0.768,0.271l1.463,0.502c0.489,0.148,0.984,0.26,1.475,0.384c1.965,0.5,3.924,0.751,5.815,0.964
			c0.946,0.082,1.877,0.144,2.788,0.201c0.91,0.024,1.801,0.067,2.667,0.072c1.731,0.01,3.366-0.031,4.869-0.135
			c3.008-0.193,5.496-0.496,7.234-0.75c0.868-0.145,1.551-0.258,2.016-0.335c0.466-0.088,0.715-0.135,0.715-0.135L89.9,95.954
			c4.398-0.102,8.615-0.584,12.607-1.425c-2.721,0.968-5.713,1.856-8.913,2.516c-2.45,0.514-5.01,0.906-7.627,1.152
			c-1.308,0.126-2.63,0.225-3.959,0.284l-0.998,0.042l-0.477,0.018l-0.509,0.004l-2.037,0.013c-1.369,0.03-2.701-0.018-4.028-0.07
			c-1.327-0.024-2.654-0.126-3.971-0.236c-2.635-0.194-5.21-0.553-7.682-0.986c-1.242-0.198-2.438-0.505-3.622-0.743
			c-1.169-0.299-2.318-0.577-3.427-0.881c-2.2-0.658-4.281-1.305-6.145-2.055c-3.759-1.429-6.744-3.005-8.812-4.161
			c-1.025-0.594-1.82-1.084-2.361-1.422c-0.544-0.337-0.834-0.516-0.834-0.516s0.252,0.231,0.723,0.662
			c0.464,0.447,1.2,1.027,2.134,1.78c0.48,0.359,1.012,0.759,1.591,1.192c0.604,0.397,1.245,0.853,1.958,1.291
			c1.427,0.877,3.076,1.822,4.957,2.682c1.867,0.895,3.966,1.694,6.22,2.434c1.131,0.353,2.302,0.692,3.506,1.006
			c1.215,0.264,2.446,0.596,3.718,0.818c2.537,0.483,5.179,0.889,7.876,1.128c1.347,0.132,2.707,0.256,4.086,0.302
			c1.378,0.074,2.761,0.141,4.11,0.13l2.037,0.017l0.509,0.005l0.54-0.013l1.033-0.027c1.374-0.045,2.746-0.115,4.098-0.261
			c2.708-0.264,5.358-0.678,7.893-1.217c5.07-1.084,9.683-2.633,13.459-4.35c3.787-1.699,6.772-3.468,8.788-4.821
			c1.007-0.68,1.775-1.252,2.294-1.656c0.259-0.207,0.458-0.365,0.592-0.473c0.008-0.007,0.011-0.009,0.018-0.016
			c3.634-2.19,6.879-4.809,9.648-7.838c1.541-1.688,2.904-3.489,4.103-5.378c-0.037,0.094-0.069,0.185-0.108,0.279
			c-1.421,3.529-3.549,7.492-6.647,11.091c-3.084,3.598-7.097,6.813-11.651,9.071l-1.723,0.813l-1.78,0.738
			c-1.171,0.453-2.369,0.889-3.575,1.268c-2.407,0.771-4.83,1.371-7.19,1.897c-4.729,1.031-9.232,1.616-13.102,2.041
			c-3.874,0.395-7.125,0.565-9.403,0.677c-2.278,0.084-3.585,0.102-3.585,0.102s1.296,0.179,3.582,0.305
			c2.284,0.15,5.557,0.243,9.488,0.099c3.93-0.119,8.521-0.527,13.381-1.433c2.431-0.441,4.92-1.048,7.417-1.796
			c1.249-0.371,2.492-0.798,3.75-1.264l1.836-0.729l1.827-0.825c2.411-1.161,4.716-2.559,6.82-4.16
			c2.111-1.593,3.994-3.414,5.633-5.325c3.285-3.829,5.551-8.01,7.015-11.735C136.436,72.258,137.157,68.985,137.54,66.682
			 M127.415,78.912c-2.65,2.902-5.764,5.409-9.255,7.508l-0.01-0.012c0,0-0.045,0.036-0.113,0.089
			c-8.032,4.791-18.082,7.401-29.315,7.49l-0.561,0.003c-17.772,0-29.729-6.815-37.021-15.825l0.011-0.016
			c0,0-0.034-0.024-0.058-0.041c-2.402-2.979-4.289-6.199-5.714-9.489c-0.014-0.038-0.025-0.074-0.043-0.113
			c-0.012-0.024-0.025-0.052-0.038-0.081c-0.002-0.004-0.005-0.009-0.007-0.013c-1.481-3.47-2.453-7.015-2.947-10.442
			c-1.313-9.127,0.208-22.488,8.417-32.61c2.999-3.698,6.65-6.697,10.917-9.003c0.815-0.425,1.608-0.789,2.336-1.126
			c0.774-0.329,1.468-0.668,2.105-0.91c0.629-0.268,1.188-0.456,1.645-0.628c0.417-0.141,0.74-0.25,0.979-0.331
			c0.105-0.034,0.21-0.065,0.315-0.098c0.081-0.024,0.133-0.04,0.133-0.04v-0.001c4.013-1.253,8.42-2.05,13.229-2.362
			c2.026-0.132,4.032-0.199,5.964-0.199c12.623,0,21.975,2.697,28.91,6.775c0.189,0.111,0.389,0.234,0.604,0.369
			c0.468,0.285,0.929,0.575,1.374,0.875c0.084,0.054,0.178,0.115,0.264,0.171c13.556,9.253,16.668,24.052,17.323,31.968
			C137.724,61.323,134.37,71.3,127.415,78.912 M32.77,88.116c-0.575-0.545-1.163-1.226-1.842-1.919
			c-0.645-0.732-1.356-1.508-2.063-2.369c-0.735-0.836-1.443-1.772-2.192-2.727c-0.765-0.94-1.462-1.986-2.221-3.006
			c-0.714-1.055-1.461-2.11-2.156-3.2c-0.656-1.115-1.405-2.174-2.033-3.283c-0.617-1.115-1.283-2.18-1.873-3.244
			c-0.567-1.074-1.124-2.11-1.675-3.084c-0.507-0.997-0.986-1.939-1.428-2.811c-0.448-0.869-0.868-1.665-1.199-2.39
			c-0.339-0.721-0.648-1.345-0.905-1.859c-0.527-1.025-0.828-1.612-0.828-1.612s0.152,0.64,0.457,1.752
			c0.152,0.556,0.339,1.231,0.571,2.001c0.206,0.78,0.515,1.631,0.864,2.557c0.34,0.931,0.709,1.939,1.145,2.987
			c0.454,1.041,0.957,2.128,1.484,3.251c0.531,1.122,1.163,2.239,1.789,3.382c0.631,1.142,1.348,2.26,2.056,3.378
			c0.731,1.106,1.514,2.179,2.265,3.245c0.829,1.012,1.592,2.044,2.423,2.972c0.814,0.94,1.635,1.818,2.447,2.619
			c0.78,0.83,1.617,1.52,2.344,2.192c0.762,0.64,1.461,1.221,2.118,1.693c0.637,0.493,1.233,0.871,1.713,1.191
			c0.981,0.617,1.574,0.904,1.574,0.904s-0.515-0.413-1.356-1.189C33.83,89.158,33.331,88.679,32.77,88.116 M218.635,66.579
			c1.494,2.333,3.354,4.391,5.403,6.174c2.074,1.771,4.412,3.133,6.801,4.262c1.238,0.451,2.431,1.025,3.697,1.318
			c0.625,0.171,1.244,0.355,1.869,0.513c0.644,0.113,1.283,0.228,1.92,0.341l0.955,0.165c0.312,0.045,0.606,0.055,0.909,0.084
			c0.601,0.05,1.198,0.099,1.792,0.146l0.506,0.038l0.465-0.011l0.926-0.024c0.613-0.019,1.226-0.024,1.832-0.058
			c4.854-0.422,9.312-2.104,12.835-4.492c3.555-2.372,6.138-5.408,7.938-8.326c1.803-2.938,2.817-5.78,3.479-8.141
			c0.295-1.192,0.569-2.251,0.682-3.226c0.147-0.962,0.284-1.787,0.296-2.404c0.094-1.265,0.143-1.938,0.143-1.938l0.003-0.051
			c0,0-0.011-0.705-0.033-2.025c0.019-0.661-0.095-1.471-0.202-2.424c-0.068-0.96-0.326-2.034-0.586-3.243
			c-0.613-2.386-1.618-5.261-3.471-8.188c-1.834-2.923-4.54-5.871-8.131-8.171c-3.598-2.315-7.937-3.942-12.871-4.518
			c-4.668-0.547-10.01-0.005-14.918,1.999c-2.411,1.104-4.801,2.431-6.842,4.254c-2.039,1.804-3.916,3.86-5.349,6.233
			c-1.424,2.366-2.603,4.906-3.36,7.59c-0.729,2.646-1.125,5.576-1.172,8.221c0.004,2.864,0.346,5.607,1.086,8.317
			C216.042,61.666,217.165,64.231,218.635,66.579 M217.218,43.004c0.73-2.499,1.855-4.854,3.24-7.001
			c1.381-2.158,3.156-3.997,5.058-5.592c1.904-1.614,4.112-2.749,6.319-3.691c1.143-0.387,2.246-0.85,3.419-1.067
			c0.579-0.124,1.144-0.304,1.727-0.382c0.583-0.076,1.163-0.151,1.74-0.226c0.289-0.034,0.575-0.083,0.864-0.106l0.867-0.022
			c0.578-0.016,1.151-0.03,1.721-0.047l0.214,0.119l0.054,0.124h0.032l0.069-0.122l0.445-0.037l0.883,0.021
			c0.584,0.04,1.178,0.046,1.744,0.097c1.072,0.198,2.133,0.277,3.176,0.542c1.035,0.292,2.091,0.47,3.051,0.879
			c0.488,0.179,0.974,0.354,1.454,0.53c0.476,0.188,0.919,0.436,1.372,0.646c0.447,0.229,0.91,0.415,1.33,0.67
			c0.418,0.26,0.832,0.516,1.242,0.769c3.25,2.074,5.719,4.706,7.418,7.332c1.711,2.635,2.655,5.241,3.246,7.412
			c0.246,1.101,0.502,2.08,0.569,2.959c0.108,0.871,0.226,1.61,0.212,2.22c0.036,1.193,0.055,1.835,0.055,1.857
			c-0.01,0.166-0.051,0.812-0.121,1.891c-0.02,0.653-0.158,1.368-0.297,2.222c-0.103,0.854-0.371,1.838-0.654,2.94
			c-0.633,2.174-1.594,4.79-3.271,7.467c-1.678,2.659-4.06,5.39-7.271,7.526c-3.192,2.144-7.203,3.646-11.623,4.022
			c-1.09,0.023-2.274,0.088-3.329,0.052c-0.595-0.038-1.192-0.077-1.796-0.116c-0.297-0.023-0.608-0.03-0.896-0.067l-0.846-0.139
			c-0.564-0.091-1.135-0.183-1.705-0.273c-0.57-0.146-1.146-0.294-1.723-0.442c-1.174-0.245-2.267-0.762-3.416-1.15
			c-2.204-1.003-4.375-2.21-6.305-3.805c-1.906-1.609-3.658-3.463-5.084-5.588c-1.39-2.145-2.515-4.491-3.267-6.979
			c-0.705-2.486-1.039-5.143-1.067-7.683C216.089,47.996,216.522,45.549,217.218,43.004 M222.692,54.843
			c-0.677-0.781-1.066-1.594-1.293-2.169c-0.228-0.58-0.295-0.937-0.295-0.937s0.002,0.361,0.121,0.987
			c0.125,0.62,0.362,1.519,0.934,2.495c0.562,0.972,1.511,2.009,2.828,2.695c0.65,0.346,1.377,0.604,2.131,0.772
			c0.764,0.147,1.515,0.305,2.332,0.223l1.064-0.179c0.376-0.085,0.751-0.171,1.123-0.255c0.719-0.203,1.415-0.431,2.061-0.719
			c1.301-0.56,2.385-1.29,3.254-1.925c0.873-0.638,1.594-1.136,2.17-1.37c0.285-0.116,0.519-0.195,0.684-0.227
			c0.163-0.042,0.25-0.064,0.25-0.064s-0.09,0.007-0.258,0.018c-0.172,0.001-0.417,0.036-0.73,0.102
			c-0.629,0.132-1.486,0.503-2.447,0.986c-0.393,0.195-0.819,0.392-1.262,0.579c2.438-1.415,4.877-3.138,6.898-3.402
			c3.57-0.465,7.775,4.983,12.744,5.294c2.252,0.142,4.052-0.646,5.367-1.741c-0.008,0.013-0.017,0.026-0.025,0.037
			c-0.436,0.571-0.872,1.032-1.184,1.358c-0.312,0.333-0.492,0.523-0.492,0.523s0.259-0.056,0.697-0.204
			c0.215-0.079,0.486-0.171,0.775-0.319c0.29-0.145,0.628-0.309,0.957-0.554c0.335-0.235,0.695-0.517,1.023-0.871
			c0.316-0.361,0.662-0.756,0.914-1.229c0.267-0.466,0.48-0.979,0.656-1.511c0.146-0.509,0.275-1.155,0.309-1.656l0.033-0.379
			c0.019-0.191,0-0.302,0.002-0.457c-0.004-0.289-0.008-0.576-0.061-0.855c-0.066-0.565-0.223-1.105-0.423-1.598
			c-0.379-0.995-0.956-1.797-1.519-2.385c-0.556-0.597-1.113-0.984-1.517-1.221c-0.403-0.237-0.661-0.324-0.661-0.324
			s0.143,0.229,0.366,0.619c0.146,0.257,0.328,0.592,0.521,0.973c-0.855-0.828-2.028-1.469-3.594-1.732
			c0.66-0.031,1.239-0.029,1.674-0.029c0.547-0.003,0.861-0.004,0.861-0.004s-0.068-0.041-0.193-0.118
			c-0.127-0.075-0.312-0.199-0.562-0.315c-0.491-0.259-1.228-0.562-2.179-0.771c-0.475-0.115-1.008-0.158-1.576-0.181
			c-0.571-0.025-1.172,0.061-1.791,0.159c-0.612,0.126-1.236,0.312-1.83,0.574c-0.581,0.245-1.206,0.585-1.719,0.925l-0.744,0.491
			c-0.223,0.161-0.473,0.292-0.713,0.435c-0.485,0.277-1,0.5-1.49,0.742c-1.001,0.444-1.979,0.817-2.83,1.116
			c-0.85,0.312-1.574,0.548-2.083,0.721c-0.513,0.174-0.806,0.271-0.806,0.271s0.309,0.037,0.854,0.064
			c0.544,0.02,1.32,0.011,2.254-0.071c0.463-0.051,0.965-0.119,1.498-0.206c0.004,0,0.006-0.001,0.008-0.001
			c-1.041,0.467-2.187,0.796-3.578,0.835c-2.698,0.076-4.414-1.155-6.188-2.422c0.063,0.031,0.132,0.062,0.194,0.093
			c0.477,0.241,0.939,0.442,1.355,0.614c0.413,0.176,0.801,0.283,1.114,0.356c0.635,0.146,1.008,0.103,1.002,0.123
			c0,0-0.081-0.04-0.233-0.115c-0.154-0.065-0.367-0.191-0.627-0.354c-0.264-0.156-0.559-0.383-0.898-0.639
			c-0.336-0.271-0.717-0.576-1.129-0.91c-0.428-0.33-0.893-0.71-1.441-1.048c-0.551-0.331-1.152-0.684-1.828-0.937
			c-0.668-0.27-1.392-0.455-2.13-0.608c-0.374-0.071-0.769-0.1-1.155-0.147l-1.07-0.055c-0.825-0.015-1.561,0.049-2.336,0.206
			c-0.758,0.162-1.502,0.421-2.166,0.789c-1.342,0.729-2.285,1.883-2.766,2.939c-0.498,1.063-0.609,2.021-0.621,2.667
			c-0.014,0.652,0.076,1.014,0.076,1.014s0.104-0.356,0.344-0.926c0.234-0.536,0.597-1.271,1.157-2.002
			c-0.532,1.116-0.793,2.4-0.767,3.751c0.042,2.137,1.217,4.275,3.625,5.498c-0.069-0.019-0.143-0.027-0.21-0.049
			C224.333,56.34,223.36,55.624,222.692,54.843 M104.651,39.526c-0.073-0.952-0.336-2.017-0.601-3.215
			c-0.625-2.363-1.639-5.206-3.491-8.093c-1.836-2.879-4.511-5.788-8.06-8.065c-3.554-2.293-7.861-3.889-12.725-4.507
			c-4.65-0.563-9.94-0.15-14.88,1.781c-2.429,1.046-4.854,2.319-6.944,4.107c-2.084,1.769-4.018,3.805-5.516,6.17
			c-1.496,2.357-2.722,4.918-3.525,7.631c-0.213,0.674-0.344,1.369-0.519,2.055c-0.078,0.347-0.173,0.684-0.236,1.038l-0.157,1.074
			c-0.084,0.703-0.249,1.468-0.26,2.124l-0.111,2.024c0.011,2.956,0.376,5.717,1.14,8.479c0.822,2.719,2.01,5.309,3.522,7.676
			c1.541,2.354,3.47,4.398,5.563,6.174c2.12,1.759,4.499,3.097,6.918,4.197c1.254,0.437,2.459,0.994,3.735,1.271
			c0.631,0.163,1.253,0.337,1.882,0.486c0.648,0.104,1.292,0.21,1.933,0.313l0.958,0.152c0.313,0.04,0.607,0.046,0.91,0.07
			c0.602,0.04,1.2,0.079,1.795,0.119c0.702,0.071,1.263-0.012,1.896-0.011c0.615-0.022,1.225-0.031,1.83-0.067
			c4.85-0.445,9.291-2.148,12.789-4.546c3.528-2.385,6.095-5.41,7.884-8.32c1.79-2.93,2.793-5.763,3.447-8.112
			c0.292-1.188,0.564-2.243,0.673-3.211c0.144-0.955,0.279-1.773,0.29-2.393c0.078-1.266,0.12-1.94,0.12-1.94l0.002-0.043
			c0,0-0.016-0.701-0.046-2.013C104.882,41.274,104.765,40.472,104.651,39.526 M102.769,45.788
			c-0.021,0.651-0.162,1.373-0.304,2.233c-0.105,0.861-0.377,1.849-0.663,2.955c-0.641,2.184-1.611,4.809-3.303,7.495
			c-1.69,2.668-4.088,5.409-7.328,7.531c-3.215,2.135-7.244,3.618-11.668,3.97c-0.555,0.012-1.113,0.023-1.676,0.035
			c-0.543-0.008-1.169,0.062-1.654-0.007c-0.594-0.048-1.192-0.095-1.793-0.144c-0.298-0.028-0.61-0.039-0.897-0.081l-0.841-0.153
			c-0.562-0.099-1.127-0.199-1.694-0.299c-0.567-0.156-1.137-0.312-1.709-0.469c-1.163-0.262-2.244-0.794-3.379-1.198
			c-2.174-1.031-4.304-2.262-6.186-3.869c-1.863-1.618-3.545-3.482-4.926-5.588c-1.346-2.125-2.406-4.447-3.141-6.888
			c-0.68-2.435-0.992-5.072-1.014-7.522l0.078-2.025c0.003-0.698,0.145-1.262,0.207-1.899l0.118-0.932
			c0.049-0.312,0.134-0.625,0.199-0.938c0.15-0.623,0.254-1.258,0.438-1.871c0.687-2.471,1.762-4.804,3.076-6.96
			c1.316-2.165,3.035-4.024,4.889-5.654c1.857-1.65,4.028-2.839,6.218-3.839c4.497-1.833,9.247-2.343,13.816-1.882
			c4.375,0.452,8.515,1.965,11.772,4.062c3.292,2.096,5.792,4.767,7.488,7.437c1.713,2.677,2.647,5.315,3.226,7.509
			c0.243,1.112,0.491,2.101,0.555,2.987c0.104,0.879,0.216,1.625,0.198,2.238c0.027,1.176,0.041,1.816,0.043,1.863
			C102.902,44.036,102.853,44.688,102.769,45.788 M95.679,47.348c-0.105,0.091-0.221,0.187-0.337,0.281
			c0.754-1.239,1.121-2.748,1.09-4.346c-0.031-1.595-0.695-3.189-2.029-4.406c0.072,0.046,0.156,0.084,0.225,0.134
			c0.916,0.613,1.507,1.382,1.846,1.953c0.344,0.574,0.457,0.952,0.457,0.952s-0.033-0.39-0.26-1.044
			c-0.224-0.648-0.664-1.576-1.529-2.462c-0.417-0.458-0.96-0.863-1.57-1.243c-0.306-0.19-0.644-0.334-0.984-0.509
			c-0.35-0.136-0.714-0.27-1.088-0.398c-0.381-0.095-0.769-0.19-1.161-0.286c-0.395-0.053-0.799-0.143-1.209-0.152
			c-0.78,0.043-1.602,0.129-2.403,0.264c-1.6,0.271-3.18,0.788-4.503,1.533c-1.334,0.731-2.379,1.643-3.289,2.335
			c-0.899,0.711-1.736,1.16-2.381,1.352c-0.641,0.195-1.033,0.225-1.033,0.225s0.097-0.001,0.279-0.003s0.45-0.017,0.79-0.072
			c0.679-0.097,1.634-0.44,2.653-1.034c1.022-0.584,2.147-1.318,3.446-1.815c0.437-0.174,0.897-0.31,1.366-0.427
			c-2.731,1.474-5.523,3.604-7.791,3.899c-1.174,0.153-2.418-0.337-3.732-1.069c0.513,0.104,0.955,0.156,1.285,0.183
			c0.422,0.03,0.663,0.047,0.663,0.047s-0.168-0.187-0.5-0.45c-0.327-0.271-0.808-0.613-1.373-1.002
			c-0.561-0.397-1.216-0.828-1.904-1.292c-0.341-0.23-0.693-0.47-1.052-0.713c-0.35-0.229-0.708-0.497-1.132-0.759
			c-0.44-0.282-0.902-0.516-1.37-0.688c-0.464-0.186-0.934-0.312-1.388-0.406c-0.91-0.191-1.766-0.216-2.487-0.185
			c-1.448,0.063-2.357,0.434-2.357,0.434s0.905,0.235,2.163,0.605c-1.926-0.018-3.508,0.637-4.711,1.567
			c0.014-0.019,0.027-0.04,0.041-0.059c0.428-0.555,0.843-1.007,1.126-1.337c0.283-0.336,0.444-0.527,0.444-0.527
			s-0.241,0.075-0.652,0.235c-0.407,0.166-0.984,0.419-1.632,0.85c-0.646,0.427-1.349,1.061-1.933,1.909
			c-0.267,0.435-0.52,0.907-0.705,1.412c-0.209,0.504-0.318,1.023-0.411,1.588c-0.053,0.296-0.057,0.511-0.082,0.759l-0.015,0.181
			c-0.011,0.129-0.002,0.152-0.004,0.233l0.007,0.402c0.015,0.534,0.088,1.063,0.23,1.557c0.14,0.491,0.302,0.959,0.524,1.369
			c0.231,0.405,0.451,0.781,0.72,1.082c0.513,0.616,1.044,1.016,1.442,1.239c0.395,0.231,0.651,0.296,0.651,0.296
			s-0.315-0.51-0.666-1.311c0.821,0.926,1.974,1.677,3.57,2.017c-0.093-0.003-0.192-0.012-0.281-0.009
			c-0.388-0.002-0.726-0.123-1.005-0.123h-0.9c0,0,0.071,0.159,0.203,0.239c0.133,0.079,0.325,0.322,0.585,0.444
			c0.511,0.272,1.276,0.592,2.268,0.822c0.498,0.104,1.051,0.175,1.65,0.191c0.598,0.013,1.236-0.062,1.884-0.194
			c0.65-0.137,1.293-0.386,1.912-0.688c0.606-0.295,1.247-0.729,1.715-1.098c0.527-0.387,0.954-0.724,1.469-1.027
			c0.501-0.297,1.012-0.562,1.52-0.804c1.023-0.46,2.043-0.791,2.946-0.996c1.806-0.42,3.115-0.452,3.115-0.452
			s-0.302-0.12-0.859-0.259c-0.556-0.129-1.37-0.255-2.365-0.26c-0.312,0.002-0.648,0.021-0.993,0.05
			c0.734-0.228,1.527-0.383,2.43-0.408c2.81-0.079,4.553,1.258,6.409,2.578c-0.228-0.112-0.47-0.224-0.685-0.335
			c-0.886-0.445-1.693-0.777-2.28-0.896c-0.289-0.072-0.525-0.083-0.683-0.094c-0.155-0.013-0.238-0.019-0.238-0.019
			s0.074,0.038,0.215,0.107c0.14,0.065,0.339,0.17,0.577,0.328c0.244,0.136,0.515,0.348,0.823,0.587
			c0.312,0.232,0.643,0.53,1.022,0.848c0.75,0.632,1.703,1.386,2.908,1.955c0.595,0.298,1.258,0.496,1.935,0.679
			c0.342,0.067,0.682,0.15,1.037,0.202c0.357,0.032,0.732,0.073,1.078,0.092l0.981,0.019c0.423-0.021,0.727-0.039,1.092-0.073
			c0.7-0.092,1.384-0.25,2.025-0.484c0.64-0.238,1.225-0.554,1.742-0.904c0.498-0.381,0.946-0.763,1.291-1.177
			c0.339-0.42,0.63-0.81,0.816-1.2c0.202-0.376,0.336-0.725,0.422-1.016c0.181-0.579,0.179-0.928,0.179-0.928
			s-0.203,0.279-0.585,0.7C96.199,46.847,95.972,47.099,95.679,47.348"/>
	</g>
</g>
</svg>
