<?xml version="1.0" encoding="utf-8"?>
<!-- Generator: Adobe Illustrator 19.1.0, SVG Export Plug-In . SVG Version: 6.00 Build 0)  -->
<svg version="1.1" id="Layer_1" xmlns="http://www.w3.org/2000/svg" xmlns:xlink="http://www.w3.org/1999/xlink" x="0px" y="0px"
	 viewBox="-152 341 305.8 112" style="enable-background:new -152 341 305.8 112;" xml:space="preserve">
<style type="text/css">
	.nav-eye-12-st-0{fill:#FCDCA4;}
	.nav-eye-12-st-1{fill:#D72050;}
	.nav-eye-12-st-2{fill:#6B8E7B;}
	.nav-eye-12-st-3{fill:#F0A732;}
	.nav-eye-12-st-4{fill:#0B3746;}
	.nav-eye-12-st-5{fill:#D72051;}
	.nav-eye-12-st-6{fill:none;stroke:#0B3746;stroke-miterlimit:10;}
</style>
<path class="nav-eye-12-st-0" d="M151.8,357h2v-16H-149l-2,22.6l0.5-4c-1.2,10.2-0.9,27.9-0.7,34.3c-1,8.4-0.1,15.7,0,22.5
	c-1.7,15.5,1.8,36.3,1.8,27.6c0-11.9,5.1-8.5,8.4-23c2-8.6-0.3-13.8-2.4-16.5c1.2-2,2.4-4.7,3.4-9c2.3-9.9-1.1-15.2-3.4-17.6
	c1.5-2.1,3.1-4.9,4.3-10.4c1-4.4,0.9-7.5,0.3-10.5h283.5c-2.1,3-4.2,7.8-2.3,16.3c1.5,6.4,3.4,9.3,5.2,11.6
	c-2.2,1.8-6.7,7.1-4.2,18.4c0.7,3.1,1.5,5.3,2.4,7.1c-2.1,2.8-4.3,7.9-2.4,16.5l7.8,23c0,8.5,1-13.4-0.6-28.9c0.3,1.4,0.6,3,0.6,5.2
	c0,8.8,3.2-15.4,1.4-30.9C152.9,387.5,154.7,365,151.8,357z"/>
<rect x="-150.3" y="348.2" class="nav-eye-12-st-1" width="302" height="2.7"/>
<path class="nav-eye-12-st-2" d="M-35.3,393.2c-0.4,0.3-0.5,4.2-0.7,5c-2.1,7.6-8.5,13.7-15,17.7c-5.6,3.4-12,5.8-18.3,7.6
	c-15.5,4.6-40.5,4.8-47.9-12.9C-117.2,410.5-76.1,412.4-35.3,393.2z"/>
<path class="nav-eye-12-st-0" d="M-130.1,405l96.1-13.2C-34,391.8-77.6,433.1-130.1,405z"/>
<path class="nav-eye-12-st-3" d="M-54.9,394.9c0,0-9.4,19.8-39.8,19.9c-30.4,0.1,0,0,0,0l3.5,0l6.2-0.2c0,0,24.5-0.3,51.1-22.7
	C-42,393.6-54.9,394.9-54.9,394.9"/>
<path class="nav-eye-12-st-4" d="M-127.1,404.6c0.8,0.1,1.6-0.1,2.3-0.2c15.1-2.1,30.2-4.3,45.2-6.3c7.9-1.1,15.9-2.2,23.8-3.3
	c7.6-1.1,16.5-1.1,23.8-3.3c-5.9,1.8-18.1-1.1-21.5-6.4c-1-1.5-1.7-3.2-2.9-4.7c-6.1-7.4-15.1-5.4-22.6-2.3
	c-4.2,1.7-8.7-0.8-12.9-1.3c-11.2-1.4-18.2,9.5-29.3,8.4c-6.7-0.6-12,1.3-14.6,7.8C-138.2,399.3-132.8,404.1-127.1,404.6z"/>
<circle class="nav-eye-12-st-4" cx="-61.6" cy="447" r="3"/>
<path class="nav-eye-12-st-4" d="M-54.7,394.6c0,0-6.9,18.4-35.6,20c9.2-0.5,21.3-4,25.1-13.5c0.2-0.5,0.1-5,0-5L-54.7,394.6z"/>
<circle class="nav-eye-12-st-4" cx="-83.5" cy="373.1" r="1.8"/>
<circle class="nav-eye-12-st-4" cx="-116.1" cy="378.6" r="1.8"/>
<circle class="nav-eye-12-st-4" cx="-78.9" cy="420.9" r="3"/>
<path class="nav-eye-12-st-4" d="M-59.4,395.4c0,4.8-3.9,7.9-8.8,8.6c-4.8,0.7-9.3-2.3-10.7-6.9"/>
<circle class="nav-eye-12-st-4" cx="-81.6" cy="436" r="0.6"/>
<circle class="nav-eye-12-st-0" cx="-73.9" cy="399.4" r="1.8"/>
<path class="nav-eye-12-st-3" d="M-42.8,393.7l-71.4,9.4l-4-3.6c-1.1-1-0.2-2.8,1.2-2.6l5.8,1l-1.1-2.4l8.9,2.6c0,0-1.3-0.1-2.1-2.5
	c-0.8-2.4,2.3,3.7,5.8,3.5C-96.1,398.8-42.8,393.7-42.8,393.7z"/>
<path class="nav-eye-12-st-3" d="M-126.7,406.2c0,0,10.9,6.2,19.9,7.2c0,0-11.6-0.3-21.3,5.2c0,0,1.6-3.9,3.6-4.1c0,0-3.7-2.1-6.7,0.7
	c0,0,2.9-3.1,6.8-2.2c0,0-4-9.4-19.1-4.8c0,0,10.2-3.8,17.9,0.2L-126.7,406.2z"/>
<path class="nav-eye-12-st-4" d="M-117.3,411.2c0,0,2.1-2.1,5.5-0.4c0,0,2.3,2.2,7.2,2.2c4.9,0,3.3-1.6,8.3,0.2c5,1.8,7.7,2.3,12.5,1.5
	C-83.8,414.7-94.6,418.7-117.3,411.2z"/>
<path class="nav-eye-12-st-3" d="M-109.8,413c0,0-16.2-5.8-17.6-34.7c0,0-2.1,23.3,8.8,32.9l14.6,3.5L-109.8,413z"/>
<path class="nav-eye-12-st-4" d="M-68.1,342.7c0,0-10,42-62.2,51C-130.4,393.7-83.6,385.3-68.1,342.7z"/>
<g>
	<path class="nav-eye-12-st-4" d="M-40.7,392.7c0,0,0,0.2,0.1,0.6l-0.1-0.2c0,0-13.6,20.9-54.9,22.2c0,0,9.4,6.4,54-13.6
		c-0.1,0.3-0.1,0.5-0.2,0.8c-0.3,0.7-0.7,1.4-1.1,2.1c-16.3,19.7-41.2,15.9-42.1,15.8c20.2,3.6,32.8-4.2,40.2-12.4
		c-1.5,2.5-3.1,4.8-4.8,7c-17.3,20.2-43.1,21.9-43.1,21.9c13.3-0.8,23.5-4.6,31.2-9.7c-18,14.9-38.4,18.8-39.3,19
		c26.4-4.6,42-17.6,51-29.3c2.1-2.5,3.8-5,5.3-7.3c-3.9,7.6-11.5,17-26.2,26c0,0,30.6-17.6,37.1-43.7L-40.7,392.7z"/>
	<path class="nav-eye-12-st-4" d="M-100.9,446.2C-100.9,446.2-100.9,446.2-100.9,446.2C-100.9,446.2-100.9,446.2-100.9,446.2z"/>
	<path class="nav-eye-12-st-4" d="M-85,420.4C-85,420.4-85,420.4-85,420.4C-85,420.4-85,420.4-85,420.4z"/>
</g>
<path class="nav-eye-12-st-4" d="M146.6,399.5c0,0-43.1-1.8-62-51.4C84.7,348.1,101.9,392.4,146.6,399.5z"/>
<path class="nav-eye-12-st-2" d="M41.2,381.9c0.4,0.3,0.1,4.2,0.3,5c1.5,7.7,7.3,14.4,13.5,18.9c5.3,3.9,11.5,6.8,17.6,9.1
	c15.1,5.9,39.9,8.2,48.8-8.9C121.4,406,80.2,404.4,41.2,381.9z"/>
<path class="nav-eye-12-st-0" d="M134.7,401.6L40,380.4C40,380.4,80,425.2,134.7,401.6z"/>
<path class="nav-eye-12-st-3" d="M60.6,385.2c0,0,7.7,20.5,38,23.2s0,0,0,0l-3.5-0.3l-6.2-0.7c0,0-24.4-2.4-49-26.9
	C47.8,382.8,60.6,385.2,60.6,385.2"/>
<path class="nav-eye-12-st-4" d="M131.7,400.8c-0.8,0-1.6-0.2-2.3-0.3c-14.9-3.3-29.7-6.7-44.6-10.1c-7.8-1.8-15.6-3.5-23.5-5.3
	c-7.5-1.7-16.4-2.5-23.4-5.3c5.7,2.3,18.1,0.4,22-4.6c1.1-1.5,2-3.1,3.3-4.4c6.7-6.9,15.5-4.1,22.7-0.4c4,2.1,8.7-0.1,12.9-0.3
	c11.3-0.5,17.3,11,28.5,10.8c6.7-0.1,11.8,2.3,13.9,9C143.3,396.5,137.5,400.9,131.7,400.8z"/>
<circle class="nav-eye-12-st-4" cx="38.8" cy="421.9" r="3"/>
<circle class="nav-eye-12-st-4" cx="71.8" cy="351.2" r="2.3"/>
<circle class="nav-eye-12-st-4" cx="62.7" cy="429.1" r="2.3"/>
<circle class="nav-eye-12-st-4" cx="-121" cy="349.8" r="2.3"/>
<circle class="nav-eye-12-st-4" cx="-143" cy="432.8" r="2.3"/>
<path class="nav-eye-12-st-4" d="M60.4,385c0,0,5.3,18.9,33.8,22.8c-9.1-1.3-20.9-5.7-23.9-15.5c-0.1-0.5,0.3-5,0.4-5L60.4,385z"/>
<circle class="nav-eye-12-st-4" cx="90.9" cy="365.8" r="1.8"/>
<circle class="nav-eye-12-st-4" cx="122.9" cy="374" r="1.8"/>
<circle class="nav-eye-12-st-4" cx="82.4" cy="413.1" r="3"/>
<path class="nav-eye-12-st-4" d="M84.5,390.5c-0.4,4.8,3.2,8.2,8,9.3c4.8,1.1,9.5-1.6,11.2-6"/>
<circle class="nav-eye-12-st-4" cx="98.8" cy="431.1" r="0.6"/>
<circle class="nav-eye-12-st-0" cx="87.8" cy="392.9" r="1.8"/>
<path class="nav-eye-12-st-3" d="M48.7,382.9l70.4,15.3l4.3-3.3c1.2-0.9,0.5-2.8-1-2.7l-5.9,0.5l1.3-2.3l-9.1,1.8c0,0,1.3,0,2.3-2.3
	s-2.6,3.5-6.1,3C101.3,392.5,48.7,382.9,48.7,382.9z"/>
<path class="nav-eye-12-st-3" d="M131.2,402.5c0,0-11.4,5.2-20.4,5.6c0,0,11.6,0.7,20.8,7c0,0-1.3-4.1-3.2-4.4c0,0,3.9-1.8,6.6,1.3
	c0,0-2.7-3.3-6.6-2.8c0,0,4.8-9,19.4-3.2c0,0-9.8-4.7-17.8-1.3L131.2,402.5z"/>
<path class="nav-eye-12-st-4" d="M100.3,406.9c-5.1,1.4-7.9,1.7-12.6,0.4c0,0,10.4,4.9,33.6-0.7c0,0-1.9-2.3-5.4-0.9c0,0-2.5,2-7.4,1.6"/>
<path class="nav-eye-12-st-3" d="M113.8,407.8c0,0,16.6-4.5,20.5-33.1c0,0,0.2,23.3-11.5,32l-14.9,2.3L113.8,407.8z"/>
<g>
	<path class="nav-eye-12-st-4" d="M49,398.6c1.3,2.6,2.8,5.3,4.8,8.1c8,12.4,22.4,26.7,48.4,33.5c-0.9-0.3-20.9-5.9-37.6-22.2
		c7.3,5.7,17.1,10.3,30.3,12.2c-1-0.2-25.9-4.3-41.1-25.4c-1.5-2.3-2.9-4.8-4.2-7.4c6.7,8.8,18.5,17.6,38.8,15.8
		c-2.6,0.2-26.4,0.9-40.4-19.3c-0.3-0.7-0.6-1.5-0.9-2.2c0-0.2-0.1-0.5-0.1-0.7C89.5,414.6,99.4,409,99.4,409
		c-41-4.7-52.8-26.7-52.8-26.7l-0.1,0.2c0.1-0.4,0.1-0.6,0.1-0.6l-6.8-1.5c4.3,26.6,33.4,46.7,33.4,46.7
		C59,416.7,52.2,406.6,49,398.6z"/>
	<path class="nav-eye-12-st-4" d="M102.2,440.1C102.2,440.2,102.2,440.2,102.2,440.1C102.2,440.2,102.2,440.1,102.2,440.1z"/>
	<path class="nav-eye-12-st-4" d="M94.8,430.1C94.8,430.1,94.8,430.1,94.8,430.1C94.8,430.1,94.8,430.1,94.8,430.1z"/>
	<path class="nav-eye-12-st-4" d="M88.2,413.1c0.2,0,0.3,0,0.3,0C88.4,413.1,88.3,413.1,88.2,413.1z"/>
</g>
<path class="nav-eye-12-st-4" d="M-35.5,391.8c0,0,26.6,0.5,25-31.5C-10.5,360.2-13.3,387.2-35.5,391.8z"/>
<path class="nav-eye-12-st-4" d="M15.3,355.5c0,0-0.5,26.6,31.5,25C46.8,380.5,19.8,377.7,15.3,355.5z"/>
<path class="nav-eye-12-st-4" d="M2,400.1L2,400.1c-0.6,0-1-0.4-1-1v-53.3c0-0.6,0.4-1,1-1h0c0.6,0,1,0.4,1,1v53.3C3,399.6,2.6,400.1,2,400.1z"
	/>
<g>
	<path class="nav-eye-12-st-4" d="M138.5,422.1c-1.6-3.4-6.5-5.1-10-5.2c-3.6-0.1-4,4.1-4.3,7.2c-1.9-1.8-4.2-3.2-6.7-4
		c-2.8-0.9-6.3-1.4-8.8,0.5c-3.6,2.7-3,7.3-0.1,9.7c0,0.3,0.2,0.6,0.6,0.7c3.5,1.3,6.1,4,8.7,6.6c2.5,2.6,4.9,5.4,7.3,8.2
		c0.4,0.4,1,0.2,1.3-0.2c2.9-4.4,6.2-8.3,9.3-12.5C137.8,430.1,140.2,425.7,138.5,422.1z M136.9,427.4c-1.1,3.3-3.5,6-5.7,8.7
		c-2,2.5-3.8,5.1-5.6,7.7c-2.5-2.9-5-5.8-7.7-8.5c-1.6-1.6-3.2-3.1-5.1-4.3c0-0.4-0.3-0.8-0.8-0.9c-2.4-0.3-4.3-2.4-4.1-4.9
		c0.2-2.7,2.6-4.2,5.2-4.2c4.3,0.1,8.4,2.4,11.2,5.5c0.4,0.4,1.3,0.2,1.4-0.4c0.3-1.7,0.5-3.5,0.8-5.3c0.2-1.3,0.3-2.1,2-2.4
		c0.8-0.1,1.7,0.2,2.5,0.4c1.7,0.4,3.6,1.2,4.9,2.5C137.6,423,137.6,425.2,136.9,427.4z"/>
	<path class="nav-eye-12-st-4" d="M121.7,427.6c-0.1-0.3-0.5-0.1-0.4,0.1c0.4,1.2,0.7,2.4,0.6,3.7c-0.5-0.7-1.1-1.4-1.7-1.9
		c-0.2-0.2-0.5-0.4-0.8-0.2c-0.3,0.2-0.2,0.6-0.2,0.8c0,0.8,0,1.7,0,2.5c-0.8-1-1.6-2-2.4-3.1c-0.2-0.2-0.5,0.1-0.3,0.3
		c0.9,1.2,1.9,2.3,2.8,3.5c0.1,0.1,0.4,0,0.4-0.1l0-1.5c0-0.4-0.1-1.5,0.2-1.7c0.3-0.2,0.3,0,0.5,0.3c0.2,0.2,0.3,0.4,0.5,0.6
		c0.4,0.4,0.7,0.9,1.1,1.3c0.1,0.1,0.3,0.1,0.3-0.1C122.5,430.4,122.1,429,121.7,427.6z"/>
	<rect x="124" y="429" class="nav-eye-12-st-4" width="1" height="5"/>
	<path class="nav-eye-12-st-4" d="M125,427.1c-1,0-1,0.4,0,0.4V427.1z"/>
	<path class="nav-eye-12-st-4" d="M133.4,432.4c-1.4-0.4-3.1-0.9-4.5-0.3c-0.6,0.2-0.9,0.6-0.9,1.1v-2.3c0,0,0.6,0.1,1.1,0.2
		c0.3,0.1,0-0.3-0.3-0.4c-0.5-0.2-0.8-0.2-1.8-0.2v-1c0-0.2,0.1-1.1,0.3-1.2c0.3-0.3,1.2,0,1.5,0.1c0.7,0.2,1.5,0.4,2.2,0.7
		c0.2,0.1,0.4-0.3,0.1-0.4c-1-0.4-2-0.8-3-1c-0.4-0.1-0.8-0.1-1,0.3c-0.1,0.2-0.1,0.6-0.1,0.9c0,0.5,0,1.1,0,1.7c0,0-0.4,0-0.6,0.1
		c-0.3,0-0.1,0.4,0.1,0.4c0.2,0,0.4-0.1,0.6-0.1c0,1.1,0,2.2,0,3.2c0,0,0.1,0,0.1,0c-0.1,0-0.1,0.7-0.1,1c0,0.9,0.1,2.4,1.3,2.5
		c1.3,0,1.3-1.7,1.4-2.6c0-0.3-0.4-0.3-0.4,0c0,0.4,0,1.2-0.2,1.5c-0.4,0.2-0.9,0.4-1.3,0.5c-0.3-0.3-0.4-0.7-0.4-1.2
		c0-0.7,0-1.5,0.3-2.2c0.2-0.4,0.5-0.7,0.8-0.9c0,0.1,0,0.3,0.2,0.3c1.5,0,3,0,4.5-0.1C133.6,432.8,133.7,432.5,133.4,432.4z
		 M131.8,432.4c-1,0-1.9,0-2.9,0C129.8,432.1,130.9,432.2,131.8,432.4z"/>
</g>
<g>
	<path class="nav-eye-12-st-4" d="M-109.7,445.8c0,0-3.9-0.2-5.5-4.6C-115.2,441.2-113.7,445.2-109.7,445.8z"/>
	<path class="nav-eye-12-st-4" d="M-109.1,446.5c0,0-3.3-2-2.6-6.7C-111.7,439.8-112.3,444-109.1,446.5z"/>
	<circle class="nav-eye-12-st-1" cx="-109.2" cy="446.6" r="1.7"/>
</g>
<g>
	<g>
		<path class="nav-eye-12-st-5" d="M-136,346.2c0,5.5,0,11,0,16.5c0,0.7,1,0.7,1,0c0-5.5,0-11,0-16.5C-135,345.6-136,345.6-136,346.2L-136,346.2
			z"/>
	</g>
</g>
<g>
	<g>
		<path class="nav-eye-12-st-5" d="M-132.5,346.2c0,6.4-0.7,13.3,2.1,19.3c0.3,0.6,1.2,0.1,0.9-0.5c-2.7-5.7-2-12.6-1.9-18.7
			C-131.5,345.6-132.5,345.6-132.5,346.2L-132.5,346.2z"/>
	</g>
</g>
<path class="nav-eye-12-st-6" d="M-113.5,419.8c0,0-7,8-2.5,11S-112,426.2-113.5,419.8z"/>
<path class="nav-eye-12-st-6" d="M-122,420.4c0,0-8.9,5.8-5.4,9.9C-123.9,434.4-122.3,427-122,420.4z"/>
</svg>
