<?xml version="1.0" encoding="utf-8"?>
<!-- Generator: Adobe Illustrator 19.1.0, SVG Export Plug-In . SVG Version: 6.00 Build 0)  -->
<svg version="1.1" id="Layer_1" xmlns="http://www.w3.org/2000/svg" xmlns:xlink="http://www.w3.org/1999/xlink" x="0px" y="0px"
	 viewBox="-152 341 305.8 112" style="enable-background:new -152 341 305.8 112;" xml:space="preserve">
<style type="text/css">
	.nav-eye-15-st-0{fill:#FCDCA4;}
	.nav-eye-15-st-1{fill:#75A08A;}
	.nav-eye-15-st-2{fill:#0B3746;}
</style>
<g>
	<path class="nav-eye-15-st-0" d="M-105.3,378.8c-12.8,0-23.5,10.7-23.5,23.5c0,12.8,10.7,23.5,23.5,23.5c12.8,0,23.5-10.7,23.5-23.5
		C-81.8,389.5-92.5,378.8-105.3,378.8z"/>
	<path class="nav-eye-15-st-0" d="M-52.3,378.5c-12.8,0-23.5,10.7-23.5,23.5s10.7,23.5,23.5,23.5c12.8,0,23.5-10.7,23.5-23.5
		S-39.5,378.5-52.3,378.5z"/>
	<path class="nav-eye-15-st-0" d="M0.7,378.5c-12.8,0-23.5,10.7-23.5,23.5s10.7,23.5,23.5,23.5c12.8,0,23.5-10.7,23.5-23.5S13.5,378.5,0.7,378.5
		z"/>
	<path class="nav-eye-15-st-0" d="M53,377.8c-12.8,0-23.5,10.7-23.5,23.5c0,12.8,10.7,23.5,23.5,23.5c12.8,0,23.5-10.7,23.5-23.5
		C76.5,388.5,65.9,377.8,53,377.8z"/>
	<path class="nav-eye-15-st-0" d="M104.7,376.2c-12.8,0-23.5,10.7-23.5,23.5s10.7,23.5,23.5,23.5c12.8,0,23.5-10.7,23.5-23.5
		S117.5,376.2,104.7,376.2z"/>
	<path class="nav-eye-15-st-0" d="M-106,397.9c-7,0-7,11,0,11S-99,397.9-106,397.9z"/>
	<path class="nav-eye-15-st-0" d="M-52,396.7c-7,0-7,11,0,11S-45,396.7-52,396.7z"/>
	<path class="nav-eye-15-st-0" d="M0,397.4c-7.1,0-7.1,11,0,11C7.1,408.4,7.1,397.4,0,397.4z"/>
	<path class="nav-eye-15-st-0" d="M58.2,398.5c-0.4-0.4-0.9-0.8-1.4-1c-1.4-0.7-2.8-1-4.3-0.6c-1.8,0.5-3.6,2.1-4,4c-0.3,1.5-0.2,2.9,0.6,4.2
		c0.7,1.2,1.9,2.1,3.3,2.5c0.5,0.1,1,0.2,1.5,0.2c0.2,0,0.3,0,0.5,0c1.5,0,2.9-0.6,3.9-1.6c1-1,1.6-2.4,1.6-3.9
		C59.8,401.1,59.2,399.4,58.2,398.5z"/>
	<path class="nav-eye-15-st-0" d="M105,394.4c-7.1,0-7.1,11,0,11C112.1,405.4,112.1,394.4,105,394.4z"/>
	<path class="nav-eye-15-st-1" d="M-106,390.9c-14,0-14,23,0,23C-91,413.9-91,390.9-106,390.9z"/>
	<path class="nav-eye-15-st-1" d="M-51,389.9c-14.8,0-14.8,23,0,23S-36.1,389.9-51,389.9z"/>
	<path class="nav-eye-15-st-1" d="M0,391.4c-15,0-15,23,0,23S15,391.4,0,391.4z"/>
	<path class="nav-eye-15-st-1" d="M52,390.2c-14,0-14,23,0,23C67,413.2,67,390.2,52,390.2z"/>
	<path class="nav-eye-15-st-1" d="M103,388.9c-14,0-14,23,0,23C118,411.9,118,388.9,103,388.9z"/>
	<path class="nav-eye-15-st-2" d="M-106,397.2c-7.1,0-7.1,11,0,11C-98.9,408.2-98.9,397.2-106,397.2z"/>
	<path class="nav-eye-15-st-2" d="M-50,395.7L-50,395.7c-7,0-7,11,0,11l0,0C-42.9,406.7-42.9,395.7-50,395.7z"/>
	<path class="nav-eye-15-st-2" d="M-1,396.9c-7,0-7,11,0,11C7,407.9,7,396.9-1,396.9z"/>
	<path class="nav-eye-15-st-2" d="M52,396.4c-7.1,0-7.1,11,0,11C59.1,407.4,59.1,396.4,52,396.4z"/>
	<path class="nav-eye-15-st-2" d="M102,394.9c-7,0-7,11,0,11C110,405.9,110,394.9,102,394.9z"/>
	<path class="nav-eye-15-st-0" d="M-103,395.9c-3,0-3,5,0,5S-100,395.9-103,395.9z"/>
	<path class="nav-eye-15-st-0" d="M-47,394.4c-3,0-3,5,0,5S-44,394.4-47,394.4z"/>
	<path class="nav-eye-15-st-0" d="M2,396.4c-3,0-3,5,0,5S5,396.4,2,396.4z"/>
	<path class="nav-eye-15-st-0" d="M54,394.7c-3.2,0-3.2,5,0,5C57.3,399.7,57.3,394.7,54,394.7z"/>
	<path class="nav-eye-15-st-0" d="M106,394.9c-3,0-3,5,0,5C110,399.9,110,394.9,106,394.9z"/>
	<path class="nav-eye-15-st-2" d="M-79.6,417.2c-2.3,5-6.1,8.4-10.9,10.9c-4.5,2.2-10.3,4.2-15.3,4.6c-5.3,0.4-10.6-2-14.9-4.7
		c-4.3-2.7-8.4-6.6-10.4-11.4c-0.2-0.6-1.2-0.3-1,0.3c3.8,9.3,15.1,16.4,25,16.8c2.7,0.1,5.2-0.7,7.8-1.4c2.7-0.7,5.4-1.6,8.1-2.8
		c5.5-2.4,10-6.3,12.5-11.8C-78.5,417.1-79.4,416.6-79.6,417.2z"/>
	<path class="nav-eye-15-st-2" d="M-27.9,416.2c-1.7,3.9-5.5,6.5-9.1,8.7c-4,2.4-8.4,4.2-13,5.1c-4.4,0.8-9.2-0.3-13.3-1.8
		c-5.1-1.8-9.8-5.1-12.8-9.7c-0.3-0.5-1.2,0-0.9,0.5c2.8,4.5,7.1,7.5,11.9,9.6c4.3,1.8,9.6,3.2,14.2,2.5c4.8-0.7,9.4-2.6,13.7-5
		c3.9-2.2,8.1-5.2,10-9.4C-26.8,416.1-27.6,415.6-27.9,416.2z"/>
	<path class="nav-eye-15-st-2" d="M23.4,417.2c-4.3,8-12.7,10.3-21.2,10.7c-5,0.2-9.1-0.6-13.5-3.1c-4.1-2.3-7.6-5.5-11.3-8.5
		c-0.5-0.4-1.2,0.3-0.7,0.7c3.9,3.2,7.8,6.5,12.2,9c4.2,2.4,8.5,3,13.3,2.8c8.8-0.3,17.7-3,22.1-11.2
		C24.5,417.1,23.7,416.6,23.4,417.2z"/>
	<path class="nav-eye-15-st-2" d="M75.2,420.1c-2.9,2.8-6,5.3-9.8,6.8c-3.5,1.4-7.3,1.5-11.1,1.5c-4.8,0-9.6-0.3-14.2-2c-2.6-1-4.8-2.4-6.9-4.2
		c-1.5-1.3-2.9-2.6-4.7-3.5c-0.6-0.3-1.1,0.6-0.5,0.9c2.2,1,3.8,2.7,5.6,4.3c1.6,1.4,3.5,2.4,5.5,3.2c4.9,2,10,2.3,15.2,2.3
		c4,0,8.1-0.3,11.8-1.8c3.7-1.5,6.8-4.2,9.7-6.9C76.4,420.3,75.7,419.6,75.2,420.1z"/>
	<path class="nav-eye-15-st-2" d="M130.1,410.8c-7.3,21.9-40.8,22.4-50.1,1.9c-0.3-0.6-1.1-0.1-0.9,0.5c9.6,21.4,44.3,20.5,51.9-2.1
		C131.2,410.4,130.3,410.2,130.1,410.8z"/>
	<path class="nav-eye-15-st-2" d="M-80.8,383.7c-5.3-9.7-15.1-15.8-26.3-13.9c-11.7,2-17.2,11.8-24,20.3c-0.4,0.5,0.3,1.2,0.7,0.7
		c2.9-3.6,5.5-7.6,8.5-11.1c3.4-4,7.7-6.8,12.7-8.4c11.4-3.5,22.1,2.9,27.5,12.9C-81.3,384.7-80.5,384.2-80.8,383.7z"/>
	<path class="nav-eye-15-st-2" d="M-27.5,385.7c-3.5-4.7-7.1-9.4-12.3-12.4c-4.7-2.8-10.2-2.7-15.4-1.4c-9.4,2.3-21.4,9.5-23,20
		c-0.1,0.6,0.9,0.9,1,0.3c1.6-10,12.8-16.5,21.7-19.1c5.2-1.5,10.4-1.4,15.2,1.2c5,2.7,8.6,7.6,11.9,12.1
		C-28,386.7-27.1,386.2-27.5,385.7z"/>
	<path class="nav-eye-15-st-2" d="M23,385.2c-3-3.9-5.9-8-10.2-10.5c-4.2-2.5-9.3-2.7-14-2c-9.1,1.3-19.6,6.8-22.4,16.2c-0.2,0.6,0.8,0.9,1,0.3
		c2.6-8.7,12.2-13.6,20.5-15.3c4.7-0.9,9.6-0.7,13.9,1.4c4.5,2.2,7.5,6.6,10.4,10.5C22.5,386.2,23.4,385.7,23,385.2z"/>
	<path class="nav-eye-15-st-2" d="M76.3,385.8c-3.4-9.7-15.2-12.8-24.4-12.2c-9.6,0.7-19.1,5.7-23,14.8c-0.3,0.6,0.6,1.1,0.9,0.5
		c3.7-8.7,12.4-13.3,21.5-14.3c8.8-1,20.8,2,24.1,11.4C75.5,386.6,76.5,386.4,76.3,385.8z"/>
	<path class="nav-eye-15-st-2" d="M135.4,393.6c-3.9-4.4-6.7-9.6-10.6-14c-4-4.5-9-6.7-14.9-7.2c-6.1-0.5-13-0.3-18.6,2.3
		c-5.5,2.5-9.8,7.3-11.9,12.9c-0.2,0.6,0.7,0.9,1,0.3c2.2-5.9,6.9-10.4,12.7-12.8c5.2-2.1,12.1-2,17.6-1.5
		c12.5,0.9,16.7,12.7,24.1,20.8C135.1,394.7,135.8,394,135.4,393.6z"/>
	<path class="nav-eye-15-st-2" d="M-79.1,424.7c-2.1,0.6-3.4,2-4.9,3.4c-2.4,2.1-6.3,2.6-9.1,4.2c-5.3,3.1-10,6-16.3,5.9c-0.6,0-0.6,1,0,1
		c5.6,0.1,10.1-2,14.9-4.8c3-1.8,6-2.9,9.2-4.3c2.5-1.1,3.9-3.7,6.6-4.4C-78.2,425.5-78.5,424.5-79.1,424.7z"/>
	<path class="nav-eye-15-st-2" d="M-78.1,426.6c-3.9,4.8-8.9,8.3-14.8,10.4c-0.6,0.2-0.3,1.2,0.3,1c6-2.1,11.2-5.7,15.2-10.6
		C-77,426.8-77.7,426.1-78.1,426.6z"/>
	<path class="nav-eye-15-st-2" d="M-28.2,423c-3.1,8.7-13.2,11-21.5,10.8c-4-0.1-8.2-1-12.1-1.9c-4.1-1-9-2.5-11.3-6.3c-0.3-0.5-1.2,0-0.9,0.5
		c2.3,3.7,6.6,5.3,10.6,6.4c4.4,1.2,9.1,2.1,13.6,2.3c8.7,0.3,19.2-2.6,22.4-11.6C-27,422.7-28,422.4-28.2,423z"/>
	<path class="nav-eye-15-st-2" d="M-60.6,437.7c-3.2-0.7-10.8-0.5-11.9-4.4c-0.2-0.6-1.1-0.4-1,0.3c1.3,4.6,8.9,4.3,12.6,5.1
		C-60.2,438.8-59.9,437.8-60.6,437.7z"/>
	<path class="nav-eye-15-st-2" d="M-127.1,432.2c-7.4-2.8-9.6-10.8-9.6-18c0-0.6-1-0.6-1,0c0.1,7.7,2.5,16,10.4,19
		C-126.7,433.4-126.5,432.4-127.1,432.2z"/>
	<path class="nav-eye-15-st-2" d="M-132.5,405.7c0-0.6-1-0.6-1,0c0,1.7,0,3.3,0.2,5c0.1,0.6,1.1,0.6,1,0C-132.4,409-132.5,407.3-132.5,405.7z"/>
	<path class="nav-eye-15-st-2" d="M-137.1,401.9c-1,1.9-0.8,3.9-0.3,5.9c0.2,0.6,1.1,0.4,1-0.3c-0.5-1.7-0.7-3.5,0.2-5.1
		C-136,401.8-136.8,401.3-137.1,401.9z"/>
	<path class="nav-eye-15-st-2" d="M-132.3,397.1c-0.8,0.9-1.4,1.9-1.4,3.1c0,0.6,1,0.6,1,0c0-0.9,0.5-1.7,1.1-2.4
		C-131.2,397.3-131.9,396.6-132.3,397.1z"/>
	<path class="nav-eye-15-st-2" d="M-134.8,394.9c-2.4,0.8-5,2.1-5.3,4.8c-0.1,0.6,0.9,0.9,1,0.3c0.3-2.4,2.6-3.5,4.7-4.2
		C-134,395.7-134.2,394.7-134.8,394.9z"/>
	<path class="nav-eye-15-st-2" d="M-141.7,407.6c-0.2-0.6-1.2-0.3-1,0.3c0.5,1.5,0.5,2.7,0.5,4.7h1C-141.2,410.7-141.2,409.2-141.7,407.6z"/>
	<path class="nav-eye-15-st-2" d="M-76.5,377.4c-7.1-9.5-20.1-19.2-32.3-13.9c-5.8,2.5-11.3,6.1-16.2,10.2c-4.4,3.8-9.1,8.8-9.9,14.8
		c-0.1,0.6,0.9,0.9,1,0.3c0.8-5.5,4.7-9.8,8.6-13.4c4.4-4.1,9.6-7.4,15-10.1c2.6-1.3,5.2-2.3,8.2-2.5c3.4-0.1,6.8,1,9.8,2.5
		c5.9,2.8,11.1,7.4,15,12.6C-77,378.4-76.1,377.9-76.5,377.4z"/>
	<path class="nav-eye-15-st-2" d="M-75.7,365.5c-2.9-1.5-5.2-3.6-7.7-5.6c-2.9-2.2-5.8-3.3-9.3-4.2c-7.1-1.8-14.2-0.8-20.9,2
		c-12,5-22.4,15.5-26.6,27.8c-0.2,0.6,0.8,0.9,1,0.3c4.3-12.3,14.7-22.4,26.6-27.4c6.7-2.8,13.5-3.2,20.5-1.5
		c3.6,0.9,6.4,2.4,9.2,4.7c2.1,1.7,4.2,3.5,6.7,4.7C-75.6,366.6-75.1,365.8-75.7,365.5z"/>
	<path class="nav-eye-15-st-2" d="M-24.1,427.9c-2.6,4.3-5.7,8-9.9,10.7c-5.4,3.6-11.4,1.6-17.4,1.5c-0.6,0-0.6,1,0,1c5.9,0.1,11.8,1.9,17.2-1.2
		c4.7-2.8,8.2-6.9,11-11.5C-22.9,427.9-23.8,427.4-24.1,427.9z"/>
	<path class="nav-eye-15-st-2" d="M-26.2,377.3c-0.9-4.5-4.4-8-8-10.6c-4.8-3.4-10.2-4.1-15.9-3.3c-4.8,0.6-9.7,2.1-14.3,3.7
		c-3,1.1-7.2,2.7-8,6.2c-0.2,0.6,0.8,0.9,1,0.3c0.8-3.4,5.5-4.9,8.4-5.9c3.9-1.3,8-2.4,12.1-3.2c5.3-0.9,10.4-0.5,15,2.3
		c3.9,2.3,7.8,6.2,8.7,10.8C-27.1,378.2-26.1,377.9-26.2,377.3z"/>
	<path class="nav-eye-15-st-2" d="M-20.2,375.5c-5.4-17.8-31.4-23-45.5-12.5c-0.5,0.4,0,1.2,0.5,0.9c13.5-10,38.7-5.3,44,12
		C-21,376.4-20,376.1-20.2,375.5z"/>
	<path class="nav-eye-15-st-2" d="M-13.5,371c-2.2-9.7-12.8-14.5-21.3-17.3c-5.7-1.9-11.8-3.5-17.8-2.4c-6.3,1.2-12.5,5.1-17.8,8.5
		c-0.5,0.3,0,1.2,0.5,0.9c5.1-3.2,10.4-6.1,16.1-7.9c5.6-1.8,11.8-0.1,17.3,1.5c8.6,2.7,19.9,7.3,22.1,17.1
		C-14.3,371.9-13.3,371.7-13.5,371z"/>
	<path class="nav-eye-15-st-2" d="M27,380c-2-6.6-10.1-11-16.3-12.6c-9.6-2.4-19.5,2.6-27.1,7.8c-0.5,0.4,0,1.2,0.5,0.9
		c7.6-5.1,16.1-9.3,25.5-7.9c6.1,0.9,14.6,5.9,16.5,12.1C26.2,380.9,27.2,380.6,27,380z"/>
	<path class="nav-eye-15-st-2" d="M30.8,377.3c-2.7-6.9-7.8-12.9-15.3-14.3c-6.4-1.2-15.1-1.8-20.6,2.3c-0.5,0.4,0,1.2,0.5,0.9
		c5.1-3.8,12.8-3.2,18.7-2.4c7.7,1.1,13.1,6.8,15.8,13.8C30,378.1,31,377.9,30.8,377.3z"/>
	<path class="nav-eye-15-st-2" d="M24.9,423.3c-3,3.7-6.7,6.8-11,9c-5,2.6-10.5,2.8-15.9,1.6c-4.2-0.9-8-2.8-11.5-5.4c-1.4-1-2.9-2.1-4.3-3.2
		c-0.5-0.4-0.9-0.7-1.3-1.1c-0.3-0.3-0.7-0.9-0.7-0.4c0-0.6-1-0.6-1,0c0,0.6,0.9,1,1.2,1.3c1.4,1.1,2.8,2.2,4.2,3.3
		c3.8,2.8,7.6,5,12.2,6.2c11.2,3,21.6-2,28.7-10.7C26,423.5,25.3,422.8,24.9,423.3z"/>
	<path class="nav-eye-15-st-2" d="M14.7,437.2c-2.4,0.7-4.7,1.6-7,2.3c-3.2,1-6.2,0.9-9.4,0c-6.3-1.7-12.1-5.4-17.2-9.3c-0.5-0.4-1,0.5-0.5,0.9
		c5.5,4.2,11.5,7.8,18.3,9.6c5.8,1.6,10.6-1,16.1-2.5C15.5,438,15.3,437,14.7,437.2z"/>
	<path class="nav-eye-15-st-2" d="M80.4,425.4c-2.6,3.7-4.8,7.9-8.5,10.5c-4.8,3.4-11,1.9-16.2,0.8c-9.4-2-18.1-4.6-26.3-9.8
		c-0.5-0.3-1,0.5-0.5,0.9c9.3,5.8,19.3,8.5,29.9,10.6c5,1,10,1,14.3-2c3.6-2.6,5.8-6.9,8.3-10.5C81.6,425.4,80.7,424.9,80.4,425.4z"
		/>
	<path class="nav-eye-15-st-2" d="M74.9,427.1c-3.8,4.2-11,9.6-16.6,5.7c-0.5-0.4-1,0.5-0.5,0.9c6,4.2,13.8-1.3,17.9-5.8
		C76.1,427.3,75.4,426.6,74.9,427.1z"/>
	<path class="nav-eye-15-st-2" d="M76.8,376.8c-7.5-18.1-34.9-13.9-44.4,0.1c-0.4,0.5,0.5,1,0.9,0.5c8.9-13.3,35.4-17.6,42.6-0.4
		C76.1,377.6,77,377.4,76.8,376.8z"/>
	<path class="nav-eye-15-st-2" d="M75,364.5c-3.4-3-8-4-12.4-4.2c-2.5-0.1-5.1,0.1-7.6,0.2c-2.7,0.1-5.4,0.1-8,0.5c-2.4,0.4-4.6,1-6.7,2.1
		c-2.4,1.3-3.9,3.6-6.2,5.2c-0.5,0.4,0,1.2,0.5,0.9c1.4-1,2.6-2.3,3.8-3.5c1.8-1.7,4.2-2.7,6.6-3.3c4.5-1.2,9.3-0.8,13.9-1
		c4.3-0.2,8.6,0.1,12.5,1.9c3.7,1.8,9.4,7.2,8,11.8c-0.2,0.6,0.8,0.9,1,0.3C81.6,371.1,77.9,367,75,364.5z"/>
	<path class="nav-eye-15-st-2" d="M35.9,359.7c-2.6,0.8-5.4,2.5-6.1,5.3c-0.1,0.6,0.8,0.9,1,0.3c0.6-2.5,3.1-3.9,5.4-4.7
		C36.8,360.4,36.5,359.5,35.9,359.7z"/>
	<path class="nav-eye-15-st-2" d="M53,442.9c-5.7-0.5-11.1-1.6-16.3-4.1c-2.2-1.1-4.4-2.3-6.5-3.6c-1.3-0.8-4.1-2.2-4.5-4
		c-0.1-0.6-1.1-0.4-1,0.3c0.3,1.4,1.8,2.3,2.8,3.1c2.4,1.8,5,3.2,7.6,4.5c5.6,2.9,11.5,4.2,17.8,4.7C53.7,444,53.7,443,53,442.9z"/>
	<path class="nav-eye-15-st-2" d="M85.4,428.2c-2.4,3.9-4.6,8-7.8,11.3c-3.6,3.7-8.4,4.2-13.2,4.7c-0.6,0.1-0.6,1.1,0,1
		c4.6-0.5,9.1-0.9,12.8-3.8c4-3.3,6.5-8.3,9.2-12.7C86.6,428.1,85.7,427.6,85.4,428.2z"/>
	<path class="nav-eye-15-st-2" d="M102.9,431.4c-4.4-1.6-8.6-3.6-13-5c-0.6-0.2-0.9,0.8-0.3,1c4.4,1.4,8.6,3.4,13,5
		C103.3,432.6,103.5,431.6,102.9,431.4z"/>
	<path class="nav-eye-15-st-2" d="M128.5,437.5c-3.1,2.1-6.2,3.4-10,3.1c-3.4-0.2-6.8-1.6-10.1-2.5c-5.8-1.5-13.7-0.5-18.3-4.8
		c-0.5-0.4-1.2,0.3-0.7,0.7c4.8,4.5,12.8,3.6,18.8,5.1c3.5,0.9,6.8,2.1,10.4,2.5c3.9,0.4,7.4-1.1,10.5-3.3
		C129.6,438,129.1,437.1,128.5,437.5z"/>
	<path class="nav-eye-15-st-2" d="M136.9,416.7c-5.2,8.6-12.8,18.7-24.2,15.5c-0.6-0.2-0.9,0.8-0.3,1c11.9,3.3,19.9-6.9,25.3-16
		C138.1,416.6,137.2,416.1,136.9,416.7z"/>
	<path class="nav-eye-15-st-2" d="M136.1,407.3c-0.5,2.3-1.5,4.4-2.7,6.4c-0.3,0.6,0.5,1.1,0.9,0.5c1.3-2.1,2.2-4.3,2.8-6.6
		C137.2,406.9,136.2,406.6,136.1,407.3z"/>
	<path class="nav-eye-15-st-2" d="M133.9,400.7c-0.6,1.2-0.8,2.3-0.2,3.5c0.3,0.6,1.1,0.1,0.9-0.5c-0.4-0.9-0.1-1.7,0.2-2.5
		C135,400.6,134.1,400.1,133.9,400.7z"/>
	<path class="nav-eye-15-st-2" d="M140.2,392c-1.5-2.8-4.3-4.7-6.3-7.1c-4.7-5.5-8.3-11.4-15-14.9c-9.7-5.1-24-6.2-32,2.6
		c-0.4,0.5,0.3,1.2,0.7,0.7c7.8-8.6,21.3-7.1,30.8-2.4c5.8,2.9,9.3,7.8,13.2,12.8c1.9,2.5,4.3,4.5,6.4,6.9c2.3,2.6,2.9,6.1,3.1,9.4
		c0,0.6,1,0.6,1,0C141.9,397.1,141.5,394.5,140.2,392z"/>
	<path class="nav-eye-15-st-2" d="M143,385.5c-0.9-2.9-2.9-5-5-7c-2.7-2.7-5.2-5.5-7.9-8.2c-4.5-4.6-10-7.2-16.3-8.5c-10-2.2-23.5-1.5-29.5,8.1
		c-0.3,0.5,0.5,1,0.9,0.5c5.9-9.4,19.3-9.7,29-7.5c5.9,1.3,10.9,3.9,15.2,8.2c2.2,2.1,4.1,4.5,6.3,6.7c2.4,2.4,5.3,4.7,6.3,8.1
		C142.2,386.4,143.2,386.1,143,385.5z"/>
	<path class="nav-eye-15-st-2" d="M146.3,381.3c-4.1-12-15.8-18-27-22.1c-2.9-1.1-5.9-2.2-8.9-3.1c-3.7-1-7.5-0.7-11.2,0
		c-3.9,0.7-7.6,2-11.5,2.6c-2.7,0.4-5,1.2-6.3,3.8c-0.3,0.6,0.6,1.1,0.9,0.5c1.6-3,4.6-3.1,7.5-3.5c3.3-0.5,6.4-1.6,9.7-2.3
		c3.9-0.8,7.7-0.8,11.6,0.3c2.7,0.8,5.4,1.8,8,2.8c10.8,4,22.3,9.8,26.3,21.4C145.5,382.1,146.5,381.9,146.3,381.3z"/>
	<path class="nav-eye-15-st-2" d="M55.4,354.9c-4.1,0.8-8.3,0.9-11.7,3.6c-0.5,0.4,0.2,1.1,0.7,0.7c3.2-2.5,7.4-2.6,11.3-3.4
		C56.3,355.8,56,354.8,55.4,354.9z"/>
	<path class="nav-eye-15-st-2" d="M4,356.7c-2.8,1.3-5.9,1.8-8.8,2.9c-2.7,1-4.7,2.8-6.3,5c-0.4,0.5,0.5,1,0.9,0.5c2-2.6,4.2-4.2,7.4-5.1
		c2.5-0.8,5-1.3,7.5-2.5C5.1,357.3,4.6,356.5,4,356.7z"/>
	<path class="nav-eye-15-st-2" d="M-76.3,358.7c-3.9-0.7-7.1-3.1-10.4-5.2c-0.5-0.3-1.1,0.5-0.5,0.9c3.4,2.1,6.6,4.6,10.6,5.3
		C-76,359.7-75.7,358.8-76.3,358.7z"/>
	<path class="nav-eye-15-st-2" d="M-110.3,352.2c-3.7,0.8-7.1,2.8-10.3,4.7c-3.1,1.8-6.2,3.7-9.1,5.7c-5.2,3.6-11.1,8.4-12.6,14.9
		c-0.1,0.6,0.8,0.9,1,0.3c1.5-6.5,7.6-11.1,12.7-14.7c2.5-1.8,5.2-3.3,7.9-4.9c3.4-2.1,6.9-4.2,10.8-5
		C-109.4,353-109.7,352-110.3,352.2z"/>
	<path class="nav-eye-15-st-2" d="M-99.2,350.2c-9-6.9-23.6,0.5-30.9,6.8c-0.5,0.4,0.2,1.1,0.7,0.7c7-6.1,21-13.3,29.6-6.7
		C-99.2,351.5-98.7,350.6-99.2,350.2z"/>
	<path class="nav-eye-15-st-2" d="M-117.3,437.9c-2-0.3-3.7-1.1-5-2.6c-0.4-0.5-1.1,0.2-0.7,0.7c1.4,1.6,3.4,2.6,5.5,2.9
		C-117,439-116.7,438-117.3,437.9z"/>
	<path class="nav-eye-15-st-2" d="M-107.8,443.2c-4.5,0.9-8.9,2-13.5,0.6c-3.7-1.2-6.9-3.9-10.4-5.5c-0.6-0.3-1.1,0.6-0.5,0.9
		c3.9,1.8,7.3,4.5,11.4,5.9c4.3,1.4,9,0,13.3-0.8C-106.9,444-107.2,443.1-107.8,443.2z"/>
	<path class="nav-eye-15-st-2" d="M-95.5,442.5c-3.4,2.2-6.9,3.6-10.9,4.4c-0.6,0.1-0.4,1.1,0.3,1c4-0.9,7.6-2.3,11.1-4.6
		C-94.4,443-94.9,442.1-95.5,442.5z"/>
	<path class="nav-eye-15-st-2" d="M-81.3,437.3c-2.3,2.8-5,5.2-7.5,7.8c-0.5,0.5,0.2,1.2,0.7,0.7c2.5-2.5,5.2-5,7.5-7.8
		C-80.2,437.5-80.9,436.8-81.3,437.3z"/>
	<path class="nav-eye-15-st-2" d="M-93.3,447.9c-0.9,0.2-1.8,0.5-2.6,1.1c-0.5,0.3,0,1.2,0.5,0.9c0.7-0.5,1.5-0.7,2.4-0.9
		C-92.4,448.7-92.7,447.8-93.3,447.9z"/>
	<path class="nav-eye-15-st-2" d="M-77.9,438.4c-1.8,3.4-4.1,6.5-7.2,8.9c-0.5,0.4,0.2,1.1,0.7,0.7c3.1-2.4,5.4-5.7,7.3-9.1
		C-76.7,438.3-77.6,437.8-77.9,438.4z"/>
	<path class="nav-eye-15-st-2" d="M-129,446c-3.3-1.5-6.8-2.8-8.3-6.5c-0.2-0.6-1.2-0.3-1,0.3c1.6,3.9,5.1,5.4,8.7,7
		C-128.9,447.1-128.4,446.2-129,446z"/>
	<path class="nav-eye-15-st-2" d="M-135.9,432.3c-1.9-1.7-2.6-4.1-3.1-6.5c-0.1-0.6-1.1-0.4-1,0.3c0.5,2.6,1.4,5.1,3.4,7
		C-136.1,433.4-135.4,432.7-135.9,432.3z"/>
	<path class="nav-eye-15-st-2" d="M-142,442.5c-1.7-1.1-2.3-3.1-2.5-5c-0.1-0.6-1.1-0.4-1,0.3c0.3,2.1,1.1,4.4,3,5.5
		C-141.9,443.7-141.4,442.8-142,442.5z"/>
	<path class="nav-eye-15-st-2" d="M-143.4,423.8c-1.3-1.4-0.6-3.4-0.1-5c0.2-0.6-0.8-0.9-1-0.3c-0.6,2-1.2,4.2,0.4,6
		C-143.6,425-142.9,424.3-143.4,423.8z"/>
	<path class="nav-eye-15-st-2" d="M-144.7,400c-2,1.5-3.4,3.5-3,6.1c0.1,0.6,1.1,0.4,1-0.3c-0.4-2.1,0.9-3.8,2.5-4.9
		C-143.7,400.5-144.2,399.6-144.7,400z"/>
	<path class="nav-eye-15-st-2" d="M-144.7,394.1c-0.4-1.2-0.5-2.5-0.5-3.5c0-1-1-1-1,0c0,1,0.1,2.6,0.5,3.8
		C-145.5,395.1-144.5,394.8-144.7,394.1z"/>
	<path class="nav-eye-15-st-2" d="M-142.5,363c-3.4,1.8-4.9,5.6-4.2,9.3c0.1,0.6,1.1,0.4,1-0.3c-0.6-3.3,0.8-6.6,3.8-8.2
		C-141.4,363.5-141.9,362.7-142.5,363z"/>
	<path class="nav-eye-15-st-2" d="M-138.2,351.7c-1.2,0.6-2.1,1.6-2.9,2.7c-0.4,0.5,0.5,1,0.9,0.5c0.7-0.9,1.5-1.8,2.6-2.3
		C-137.1,352.3-137.6,351.4-138.2,351.7z"/>
	<path class="nav-eye-15-st-2" d="M140.2,440.1c-5.7,4.4-12,5.8-19.1,5c-6.1-0.7-12.1-2.4-18.3-2.7c-0.6,0-0.6,1,0,1c6.9,0.3,13.5,2.3,20.4,2.9
		c6.6,0.5,12.5-1.5,17.7-5.5C141.4,440.4,140.7,439.7,140.2,440.1z"/>
	<path class="nav-eye-15-st-2" d="M143.6,419.4c-2.8,5.9-7.2,10.4-12.3,14.3c-0.5,0.4,0,1.3,0.5,0.9c5.2-4,9.8-8.7,12.7-14.7
		C144.8,419.3,143.9,418.8,143.6,419.4z"/>
	<path class="nav-eye-15-st-2" d="M143.5,403.7c0-0.6-1-0.6-1,0c0.2,3.1-0.2,6.1-0.7,9.1c-0.1,0.6,0.9,0.9,1,0.3
		C143.3,409.9,143.8,406.8,143.5,403.7z"/>
	<path class="nav-eye-15-st-2" d="M147.5,410.9c-0.1-0.6-1.1-0.6-1,0c0.5,4.2,1.9,8.2,2,12.4c0.1,4.7-3.8,7.7-6.4,11.1c-0.4,0.5,0.5,1,0.9,0.5
		c2.4-3.2,5.7-5.8,6.4-9.9C150.3,420.4,148.1,415.5,147.5,410.9z"/>
	<path class="nav-eye-15-st-2" d="M146.4,437.9c-0.8,1.4-1.4,2.9-2.2,4.2c-0.3,0.6,0.5,1.1,0.9,0.5c0.8-1.4,1.4-2.9,2.2-4.2
		C147.6,437.9,146.7,437.3,146.4,437.9z"/>
	<path class="nav-eye-15-st-2" d="M146.3,391c-0.2-0.6-1.2-0.3-1,0.3c0.7,1.6,1.2,3.2,0.8,5c-0.2,0.6,0.8,0.9,1,0.3
		C147.5,394.6,147,392.8,146.3,391z"/>
	<path class="nav-eye-15-st-2" d="M147.5,372c-2.6-10.5-13.7-15.5-23.7-15.9c-0.6,0-0.6,1,0,1c9.6,0.3,20.3,5,22.8,15.1
		C146.7,372.9,147.7,372.6,147.5,372z"/>
	<path class="nav-eye-15-st-2" d="M139.5,352.5c-4.8-2.6-12.9-5.8-17.9-1.9c-0.5,0.4,0.2,1.1,0.7,0.7c4.4-3.5,12.3-0.3,16.6,2.1
		C139.6,353.6,140.1,352.8,139.5,352.5z"/>
	<path class="nav-eye-15-st-2" d="M144.8,348c-0.7-0.3-1.5-0.5-2.3-0.6c-0.6,0-0.6,1,0,1c0.6,0,1.2,0.2,1.7,0.4
		C144.9,349.1,145.4,348.3,144.8,348z"/>
	<path class="nav-eye-15-st-2" d="M90.7,351.4c-5.3,1-10.6,1.3-15.8,3c-0.6,0.2-0.3,1.2,0.3,1c5.1-1.7,10.5-2,15.8-3
		C91.6,352.3,91.3,351.3,90.7,351.4z"/>
	<path class="nav-eye-15-st-2" d="M24.7,359.2c-2.6-0.8-5.3-2-8-1.5c-0.6,0.1-0.4,1.1,0.3,1c2.5-0.4,5.1,0.8,7.5,1.5
		C25,360.3,25.3,359.4,24.7,359.2z"/>
	<path class="nav-eye-15-st-2" d="M35.7,350.2c-1.6,0.6-3,1.4-4.2,2.6c-0.5,0.5,0.2,1.2,0.7,0.7c1.1-1.1,2.3-1.9,3.8-2.4
		C36.5,350.9,36.3,350,35.7,350.2z"/>
	<path class="nav-eye-15-st-2" d="M-9.7,354c-2-1.2-4.1-2.3-6.4-2.8c-0.6-0.1-0.9,0.8-0.3,1c2.2,0.5,4.2,1.5,6.1,2.7
		C-9.7,355.2-9.2,354.3-9.7,354z"/>
	<path class="nav-eye-15-st-2" d="M-71.6,349.2c-1.3,0.3-2.5,1-3.6,1.8c-0.5,0.4,0,1.2,0.5,0.9c1-0.8,2.1-1.4,3.4-1.7
		C-70.7,350-71,349-71.6,349.2z"/>
	<path class="nav-eye-15-st-2" d="M-58.3,444.4c-3.7-1.5-7.3-3.2-10.9-4.9c-0.6-0.3-1.1,0.6-0.5,0.9c3.6,1.8,7.3,3.5,11.1,5.1
		C-58,445.6-57.7,444.7-58.3,444.4z"/>
	<path class="nav-eye-15-st-2" d="M-39.7,447c-2.6,1.3-5.3,0.5-8,0.4c-0.6,0-0.6,1,0,1c3,0.1,5.7,0.8,8.5-0.6C-38.6,447.6-39.1,446.7-39.7,447z"
		/>
	<path class="nav-eye-15-st-2" d="M-23.7,441c-1.1,0.8-2.3,1.5-3.1,2.6c-0.4,0.5,0.3,1.2,0.7,0.7c0.8-1,1.9-1.7,2.9-2.4
		C-22.7,441.5-23.2,440.6-23.7,441z"/>
	<path class="nav-eye-15-st-2" d="M-16.1,442.1c-1.5,1.4-3.3,2.1-5.3,2.6c-0.6,0.2-0.4,1.1,0.3,1c2.1-0.5,4.1-1.3,5.7-2.9
		C-14.9,442.3-15.6,441.6-16.1,442.1z"/>
	<path class="nav-eye-15-st-2" d="M-17.3,437.2c-1-0.2-2-0.5-3-0.2c-0.6,0.2-0.4,1.1,0.3,1c0.8-0.2,1.7,0.1,2.5,0.2
		C-17,438.3-16.7,437.3-17.3,437.2z"/>
	<path class="nav-eye-15-st-2" d="M-8.3,446.2c-1.5,0.5-3.2,0.5-4.8,0.8c-0.6,0.1-0.4,1,0.3,1c1.6-0.2,3.2-0.3,4.8-0.8
		C-7.5,446.9-7.7,446-8.3,446.2z"/>
	<path class="nav-eye-15-st-2" d="M-28.5,446.7c-0.6-0.3-1.1-0.3-1.8-0.3c-0.6,0-0.6,1,0,1c0.4,0,0.8,0,1.2,0.2C-28.4,447.8-27.9,447-28.5,446.7
		z"/>
	<path class="nav-eye-15-st-2" d="M-33.7,443.5c-0.4,0.2-0.8,0.3-1.2,0.5c-0.6,0.3-0.1,1.1,0.5,0.9c0.4-0.2,0.8-0.3,1.2-0.5
		C-32.6,444.1-33.1,443.2-33.7,443.5z"/>
	<path class="nav-eye-15-st-2" d="M-1.1,443.2c-1.9-0.5-3.6-1.4-5.5-2c-0.6-0.2-0.9,0.8-0.3,1c1.9,0.6,3.6,1.5,5.5,2
		C-0.7,444.3-0.5,443.3-1.1,443.2z"/>
	<path class="nav-eye-15-st-2" d="M3,448.2c-2,0-4,0-5.9-0.2c-0.6-0.1-0.6,0.9,0.1,1c1.9,0.3,3.8,0.2,5.8,0.2V448.2z"/>
	<path class="nav-eye-15-st-2" d="M9.9,441.9c-1.3-0.2-2.5-0.3-3.8,0c-0.6,0.1-0.4,1.1,0.3,1c1.1-0.2,2.2-0.2,3.2,0C10.3,443,10.6,442,9.9,441.9
		z"/>
	<path class="nav-eye-15-st-2" d="M18.7,446.7c-2.2,0.9-4.5,1.2-6.9,1c-0.6-0.1-0.6,0.9,0,1c2.5,0.2,4.9-0.1,7.1-1
		C19.5,447.4,19.3,446.4,18.7,446.7z"/>
	<path class="nav-eye-15-st-2" d="M22.7,438.7c-2.3,0.9-4.6,2-6.2,3.9c-0.4,0.5,0.3,1.2,0.7,0.7c1.5-1.7,3.6-2.8,5.8-3.6
		C23.5,439.4,23.3,438.4,22.7,438.7z"/>
	<path class="nav-eye-15-st-2" d="M32.5,444.7c-2.2,1.3-4.9,0.8-7.4,1.2c-0.6,0.1-0.4,1.1,0.3,1c2.6-0.4,5.2,0.1,7.6-1.3
		C33.6,445.3,33.1,444.4,32.5,444.7z"/>
	<path class="nav-eye-15-st-2" d="M45.5,446.4c-6.9-0.4-12.7-4.4-18.2-8.2c-0.5-0.4-1,0.5-0.5,0.9c5.7,3.9,11.7,7.9,18.8,8.3
		C46.2,447.4,46.2,446.4,45.5,446.4z"/>
	<path class="nav-eye-15-st-2" d="M59.2,447.7c-3.9,0.6-7.7,0.2-11.5-0.8c-0.6-0.2-0.9,0.8-0.3,1c4,1,7.9,1.4,12,0.8
		C60.1,448.5,59.8,447.6,59.2,447.7z"/>
	<path class="nav-eye-15-st-2" d="M72,448.2c-3,0-5.6,0-8.2-0.5c-0.6-0.1-0.8,0.8-0.2,1c2.8,0.5,5.4,0.5,8.4,0.5V448.2z"/>
	<path class="nav-eye-15-st-2" d="M60,440.9c-1,0-1,1,0,1V440.9z"/>
	<path class="nav-eye-15-st-2" d="M85.2,443.8c-2.3,2.6-5.8,3.3-9.1,3.6c-0.6,0.1-0.6,1.1,0,1c3.6-0.3,7.4-1.1,9.9-3.9
		C86.3,444,85.6,443.3,85.2,443.8z"/>
	<path class="nav-eye-15-st-2" d="M85.3,438c-1.4,0.9-2.4,2-3,3.5c-0.2,0.6,0.8,0.9,1,0.3c0.5-1.3,1.4-2.2,2.5-3C86.3,438.5,85.8,437.6,85.3,438
		z"/>
	<path class="nav-eye-15-st-2" d="M93.9,440.9c-1.3,0.5-2.4,1.5-3,2.7c-0.3,0.6,0.6,1.1,0.9,0.5c0.5-1,1.4-1.8,2.5-2.3
		C94.8,441.6,94.5,440.7,93.9,440.9z"/>
	<path class="nav-eye-15-st-2" d="M99.9,447.9c-4-1.4-8.8-0.7-12.8,0.5c-0.6,0.2-0.4,1.1,0.3,1c3.8-1.1,8.4-1.8,12.2-0.5
		C100.3,449.1,100.5,448.1,99.9,447.9z"/>
	<path class="nav-eye-15-st-2" d="M104.8,447.5c-1.7-0.7-4.2-1.5-4.8-3.5c-0.2-0.6-1.1-0.4-1,0.3c0.7,2.3,3.2,3.2,5.2,4
		C104.9,448.6,105.4,447.7,104.8,447.5z"/>
	<path class="nav-eye-15-st-2" d="M117.4,448.2c-3.1-0.8-6.4-1-9.5-0.5c-0.6,0.1-0.4,1.1,0.3,1c3-0.5,6.1-0.2,9,0.5
		C117.8,449.3,118.1,448.3,117.4,448.2z"/>
	<path class="nav-eye-15-st-2" d="M139.2,447.7c-2.5,0.5-5.1,0.3-7.5,1.2c-0.6,0.2-0.3,1.2,0.3,1c2.4-1,5-0.8,7.5-1.2
		C140.1,448.5,139.8,447.6,139.2,447.7z"/>
	<path class="nav-eye-15-st-2" d="M146.9,445.9c-0.2-0.1-0.5,0-0.7,0c-0.1,0-0.2,0.1-0.2,0.1c-0.1,0-0.2,0-0.2,0.1c0,0-0.3,0-0.2,0
		c-0.6,0-0.6,1,0,1c0.4,0,1.1-0.2,1.4-0.5C147.2,446.5,147.2,446.1,146.9,445.9z"/>
	<path class="nav-eye-15-st-2" d="M72.8,357.2c-3-1.4-5.6-3.7-9.1-3.1c-0.6,0.1-0.4,1.1,0.3,1c3.1-0.6,5.7,1.7,8.4,2.9
		C72.9,358.4,73.4,357.5,72.8,357.2z"/>
	<path class="nav-eye-15-st-2" d="M74.3,350.2c-2.4-0.3-4.6-0.9-7-0.8c-0.6,0-0.6,1,0,1c2.4-0.2,4.7,0.5,7,0.8C74.9,351.2,74.9,350.2,74.3,350.2
		z"/>
	<path class="nav-eye-15-st-2" d="M54,348.4c-2.5-0.3-6.2-0.9-7.9,1.5c-0.4,0.5,0.5,1,0.9,0.5c1.4-2,5-1.2,7.1-1C54.7,349.5,54.7,348.5,54,348.4
		z"/>
	<path class="nav-eye-15-st-2" d="M24,349.4c-3.8-0.4-7.6-1.1-11.4-1.2c-3.8-0.1-7.3,1.1-10.6,3c-0.6,0.3-0.1,1.2,0.5,0.9
		c3.4-2,6.9-2.9,10.8-2.9c3.6,0.1,7.1,0.8,10.7,1.2C24.7,350.5,24.7,349.5,24,349.4z"/>
	<path class="nav-eye-15-st-2" d="M-16.1,356.1c-4.4-3.7-10.3-6.7-16.1-7.4c-0.6-0.1-0.6,0.9,0,1c5.5,0.7,11.2,3.6,15.4,7.1
		C-16.3,357.2-15.6,356.5-16.1,356.1z"/>
	<path class="nav-eye-15-st-2" d="M-20.5,344.7c-1.4-0.8-2.9-0.8-4.4-0.3c-0.6,0.2-0.3,1.2,0.3,1c1.2-0.5,2.5-0.4,3.6,0.2
		C-20.4,345.9-19.9,345-20.5,344.7z"/>
	<path class="nav-eye-15-st-2" d="M-55.8,348.4c-3.3,0.5-7,0.1-9,3.2c-0.4,0.5,0.5,1,0.9,0.5c1.8-2.8,5.6-2.3,8.5-2.8
		C-54.9,349.3-55.2,348.3-55.8,348.4z"/>
	<g>
		<path class="nav-eye-15-st-2" d="M-85.1,348.6C-85.1,348.6-85.1,348.6-85.1,348.6C-85,348.6-85,348.6-85.1,348.6z"/>
		<path class="nav-eye-15-st-2" d="M-84.9,348.6c-0.1,0-0.1,0-0.2-0.1c0,0,0,0,0,0c0,0,0,0,0,0c0,0,0,0,0,0c-0.2-0.1-0.3-0.1-0.5-0.2
			c-0.1,0-0.1,0-0.2,0c0,0-0.1,0-0.1,0c-0.4-0.1-0.7-0.2-1.1-0.2c-0.6,0-0.6,1,0,1c-0.1,0,0.2,0,0.3,0.1c0.2,0.1,0.5,0.1,0.7,0.2
			c0.3,0.1,0.7,0.3,1,0.2C-84.6,349.4-84.5,348.8-84.9,348.6z"/>
	</g>
	<path class="nav-eye-15-st-2" d="M-3.3,349.8c-1.8,1.4-3.9,0-5.6-0.8c-0.6-0.3-1.1,0.6-0.5,0.9c2.3,1.1,4.5,2.5,6.9,0.7
		C-2.1,350.1-2.8,349.4-3.3,349.8z"/>
</g>
</svg>
