<?xml version="1.0" encoding="utf-8"?>
<!-- Generator: Adobe Illustrator 15.0.0, SVG Export Plug-In . SVG Version: 6.00 Build 0)  -->
<!DOCTYPE svg PUBLIC "-//W3C//DTD SVG 1.1//EN" "http://www.w3.org/Graphics/SVG/1.1/DTD/svg11.dtd">
<svg version="1.1" id="Layer_1" xmlns="http://www.w3.org/2000/svg" xmlns:xlink="http://www.w3.org/1999/xlink" x="0px" y="0px"
	 width="305.834px" height="112px" viewBox="0 0 305.834 112" enable-background="new 0 0 305.834 112" xml:space="preserve">
<g>
	<g>
		<defs>
			<rect id="nav-eye-8-id-1" x="10.396" y="12.712" width="285.042" height="86.576"/>
		</defs>
		<clipPath id="nav-eye-8-id-2">
			<use xlink:href="#nav-eye-8-id-1"  overflow="visible"/>
		</clipPath>
		<path clip-path="url(#nav-eye-8-id-2)" fill="#D72251" d="M125.188,47.897c0,0-0.75-9.667-2.25-12.085
			c-1.5-2.415-7.333-11.082-7.333-11.082l-5.25-0.667c0,0-15.831-9.141-27.762-9.733c-19.322-0.961-28.268,4.643-28.268,4.643
			l-9.97,3.591c0,0-6.334,6.667-6.917,16.084c-0.748,12.069,3.552,19.287,4.823,21.415C45.594,65.647,53.266,80.23,78.85,81.98
			c38.692,2.646,45.106-24.208,45.106-24.208s3.647,0.333,4.063-4.25C128.246,51.049,125.188,47.897,125.188,47.897"/>
		<path clip-path="url(#nav-eye-8-id-2)" fill="#FCDCA4" d="M49.021,21.772c0,0-9.25,7.75-8.375,20.625s9.375,33.125,38,35.375
			s43.871-14.711,43-29c-0.311-5.11-0.055-7.378-1.375-10.875c-2.395-6.344-7.302-12.253-11.25-14.75
			c-6.125-3.875-20.617-10.252-29.875-9.75C65.271,14.147,49.021,21.772,49.021,21.772"/>
		<path clip-path="url(#nav-eye-8-id-2)" fill="#EE6372" d="M82.593,14.329c-0.215,0.407-0.462,0.965-0.653,1.537
			c-0.407,1.146-0.473,2.333-0.473,2.333s0.319-1.145,0.928-2.125c0.293-0.495,0.63-0.957,0.903-1.28
			c0.274-0.331,0.462-0.508,0.462-0.508l-0.772-0.636C82.988,13.65,82.802,13.925,82.593,14.329 M87.355,19.695
			c0.266-0.147,0.552-0.366,0.838-0.623c0.286-0.256,0.569-0.562,0.809-0.902c0.498-0.67,0.834-1.449,1.022-2.053
			c0.194-0.593,0.245-1.05,0.245-1.05l-0.998-0.057c0,0,0.019,0.345-0.068,0.913c-0.082,0.558-0.27,1.305-0.627,1.983
			c-0.168,0.344-0.383,0.666-0.613,0.948c-0.228,0.281-0.467,0.532-0.699,0.712c-0.222,0.197-0.43,0.332-0.578,0.423
			c-0.147,0.095-0.231,0.149-0.231,0.149s0.091-0.04,0.251-0.111C86.869,19.96,87.099,19.858,87.355,19.695 M98.137,21.889
			c0.474-0.152,0.928-0.349,1.362-0.514c0.436-0.16,0.828-0.345,1.166-0.495c0.677-0.303,1.107-0.551,1.107-0.551l-0.411-0.912
			c0,0-0.475,0.148-1.158,0.439c-0.34,0.146-0.742,0.308-1.155,0.518c-0.415,0.206-0.868,0.405-1.3,0.65
			c-0.878,0.459-1.742,0.947-2.38,1.337c-0.636,0.392-1.05,0.677-1.05,0.677s0.493-0.109,1.216-0.311
			C96.255,22.523,97.203,22.221,98.137,21.889 M111.428,33.483c-0.727,0.006-1.473,0.034-2.226,0.078
			c-0.753,0.047-1.514,0.12-2.279,0.29c-0.382,0.09-0.767,0.195-1.15,0.396c-0.344,0.152-0.681,0.481-0.88,0.706
			c-0.146-0.067-0.314-0.144-0.517-0.225c-0.56-0.229-1.322-0.487-2.105-0.641c-0.782-0.161-1.578-0.212-2.167-0.183
			c-0.295,0.012-0.538,0.039-0.707,0.07c-0.168,0.023-0.265,0.038-0.265,0.038s0.098,0.002,0.268,0.005
			c0.17-0.004,0.411,0.009,0.699,0.044c0.574,0.062,1.324,0.235,2.035,0.507c0.713,0.263,1.383,0.621,1.864,0.913
			c0.081,0.049,0.148,0.093,0.218,0.137c-0.271,0.251-0.546,0.494-0.807,0.726c-0.474,0.399-0.927,0.777-1.359,1.104
			c-0.43,0.33-0.833,0.621-1.203,0.858c-0.367,0.242-0.7,0.431-0.983,0.574c-0.283,0.141-0.521,0.229-0.686,0.272
			c-0.168,0.048-0.259,0.074-0.259,0.074s0.094,0.007,0.27,0.019c0.18,0.021,0.442-0.014,0.771-0.071
			c0.665-0.112,1.57-0.464,2.551-1.035c0.494-0.283,1.006-0.624,1.523-1.02c0.527-0.392,1.03-0.827,1.567-1.353
			c0.28-0.297,0.393-0.41,0.663-0.538c0.253-0.126,0.572-0.21,0.898-0.277c0.66-0.129,1.376-0.182,2.099-0.208
			c0.723-0.029,1.456-0.018,2.184-0.032c0.781-0.025,1.321-0.018,1.954,0.161c1.249,0.327,2.393,0.922,3.366,1.393
			c0.973,0.489,1.763,0.948,2.313,1.271c0.546,0.325,0.859,0.512,0.859,0.512l0.555-0.831c0,0-1.206-0.896-3.182-1.984
			c-0.993-0.542-2.172-1.135-3.602-1.537C113.004,33.478,112.098,33.455,111.428,33.483 M100.636,25.034
			c-0.309,0.148-0.625,0.296-0.91,0.458c-0.301,0.173-0.557,0.354-0.785,0.536c-0.456,0.368-0.744,0.765-0.922,1.046
			c-0.174,0.287-0.227,0.47-0.227,0.47s0.417-0.662,1.367-1.203c0.234-0.135,0.503-0.264,0.78-0.369
			c0.303-0.105,0.622-0.215,0.952-0.328c0.662-0.229,1.369-0.529,1.946-0.464c0.304,0.028,0.586,0.127,0.906,0.275
			c0.302,0.145,0.598,0.315,0.883,0.5c0.571,0.361,1.103,0.727,1.549,1.051c0.252,0.185,0.472,0.345,0.67,0.488
			c-0.046,0.013-0.1,0.016-0.145,0.029c-0.291,0.085-0.566,0.158-0.805,0.276c-0.238,0.107-0.457,0.206-0.65,0.293
			c-0.178,0.116-0.333,0.219-0.461,0.303c-0.253,0.164-0.387,0.269-0.387,0.269s0.173-0.037,0.456-0.124
			c0.28-0.095,0.689-0.19,1.177-0.277c0.237-0.065,0.511-0.062,0.788-0.098c0.276-0.046,0.574-0.035,0.877-0.046
			c0.302-0.023,0.617,0.02,0.934,0.027c0.318,0.002,0.639,0.072,0.96,0.104c1.279,0.216,2.521,0.639,3.422,1.021
			c0.453,0.187,0.826,0.354,1.082,0.484c0.307,0.144,0.483,0.226,0.483,0.226l0.337-0.941c0,0-0.034-0.02-0.099-0.057
			c-0.05-0.034-0.092-0.066-0.243-0.148c-0.267-0.147-0.659-0.344-1.136-0.562c-0.487-0.195-1.059-0.42-1.695-0.593
			c-0.631-0.192-1.333-0.297-2.032-0.375c-0.354-0.014-0.704-0.063-1.053-0.044c-0.138,0.002-0.272,0.008-0.407,0.014
			c-0.098-0.085-0.622-0.531-1.456-1.13c-0.468-0.325-1.01-0.71-1.643-1.067c-0.316-0.178-0.658-0.352-1.031-0.502
			c-0.354-0.14-0.795-0.277-1.242-0.284c-0.457-0.007-0.884,0.129-1.239,0.278C101.277,24.72,100.952,24.882,100.636,25.034
			 M114.676,38.549c-0.752-0.007-1.238,0.104-1.238,0.104s0.497-0.048,1.228,0.052c0.73,0.093,1.684,0.332,2.616,0.636
			c1.87,0.602,3.636,1.442,3.636,1.442l0.369-0.929c0,0-1.913-0.63-3.881-0.997C116.424,38.669,115.427,38.55,114.676,38.549
			 M112.01,44.324c-0.414-0.015-0.792,0.089-1.14,0.141c-0.342,0.079-0.642,0.201-0.907,0.291c-0.269,0.081-0.472,0.237-0.653,0.321
			c-0.354,0.188-0.541,0.314-0.541,0.314s0.235-0.015,0.619-0.074c0.195-0.021,0.424-0.074,0.692-0.081
			c0.268-0.008,0.563-0.045,0.881-0.052c0.319,0.036,0.661-0.021,1.01,0.058c0.174,0.024,0.354,0.048,0.536,0.073
			c0.177,0.046,0.358,0.094,0.541,0.142c0.728,0.212,1.434,0.618,2.08,1.141c0.326,0.259,0.636,0.55,0.948,0.849
			c0.324,0.305,0.611,0.603,1.076,0.918c0.157,0.089,0.378,0.188,0.501,0.216l0.151,0.027l0.037,0.007l0.019,0.007l0.009,0.007
			l0.13,0.02h0.007l0.098-0.024c0.267-0.028,0.496-0.104,0.703-0.177c0.415-0.146,0.768-0.316,1.073-0.498
			c0.611-0.359,1.074-0.699,1.395-0.945c0.156-0.129,0.279-0.23,0.361-0.301c0.113-0.1,0.174-0.153,0.174-0.153l-0.718-0.696
			c0,0-0.01,0.008-0.03,0.021c-0.016,0.008-0.002-0.008-0.048,0.024c-0.084,0.055-0.206,0.136-0.362,0.238
			c-0.312,0.208-0.769,0.499-1.329,0.781c-0.281,0.137-0.584,0.281-0.894,0.377c-0.3,0.111-0.66,0.123-0.647,0.018
			c-0.226-0.152-0.555-0.466-0.871-0.756c-0.33-0.3-0.678-0.609-1.058-0.894c-0.422-0.322-0.891-0.593-1.376-0.812
			c-0.042-0.15-0.098-0.352-0.179-0.591c-0.199-0.562-0.562-1.339-1.215-1.851c-0.152-0.137-0.33-0.237-0.503-0.333
			c-0.167-0.105-0.36-0.148-0.529-0.22c-0.175-0.059-0.353-0.078-0.515-0.114c-0.162-0.037-0.322-0.021-0.463-0.035
			c-0.286-0.026-0.522,0.022-0.686,0.031c-0.163,0.016-0.256,0.024-0.256,0.024s0.093,0.007,0.257,0.019
			c0.163,0.018,0.398,0.009,0.666,0.081c0.134,0.036,0.285,0.045,0.43,0.106c0.144,0.06,0.302,0.103,0.45,0.182
			c0.14,0.091,0.302,0.152,0.43,0.27c0.133,0.108,0.268,0.215,0.374,0.352c0.465,0.51,0.654,1.194,0.744,1.701
			c0.002,0.009,0.002,0.015,0.003,0.022c-0.058-0.015-0.116-0.038-0.175-0.051C112.86,44.357,112.425,44.304,112.01,44.324
			 M120.52,55.393c0.012-0.036,0.084-0.11,0.154-0.122c-0.086,0.01-0.212,0.024-0.372,0.044c-0.326,0.038-0.801,0.078-1.362,0.068
			c-0.56,0.004-1.217-0.032-1.85-0.213c-0.315-0.093-0.623-0.209-0.89-0.386c-0.198-0.118-0.227-0.173-0.355-0.287
			c-0.111-0.109-0.207-0.241-0.301-0.377c-0.387-0.557-0.538-1.34-0.987-2.08c-0.217-0.371-0.58-0.712-0.982-0.855
			c-0.236-0.1-0.333-0.104-0.526-0.148c-0.179-0.035-0.345-0.053-0.502-0.067c-0.638-0.045-1.156,0.066-1.495,0.182
			c-0.344,0.105-0.514,0.222-0.514,0.222s0.828-0.136,1.911,0.168c0.134,0.041,0.272,0.085,0.401,0.141
			c0.112,0.052,0.34,0.128,0.405,0.188c0.225,0.132,0.387,0.331,0.525,0.611c0.082,0.169,0.151,0.366,0.22,0.573
			c-0.204,0.071-0.477,0.167-0.825,0.242c-0.744,0.195-1.767,0.343-2.801,0.344c-0.517,0.003-1.035-0.04-1.522-0.1
			c-0.245-0.026-0.476-0.08-0.706-0.096c-0.052-0.004-0.101-0.014-0.151-0.021c0.014-0.08,0.027-0.163,0.037-0.259
			c0.049-0.444,0.027-1.06-0.201-1.608c-0.212-0.556-0.613-0.986-0.947-1.224c-0.159-0.133-0.314-0.207-0.415-0.267
			c-0.103-0.059-0.162-0.091-0.162-0.091s0.05,0.046,0.137,0.126c0.084,0.081,0.213,0.185,0.333,0.345
			c0.259,0.295,0.511,0.758,0.573,1.244c0.077,0.483-0.023,0.965-0.144,1.3c-0.045,0.129-0.088,0.225-0.127,0.305
			c-0.217-0.029-0.416-0.058-0.57-0.071c-0.246-0.034-0.399-0.033-0.399-0.033s0.101,0.108,0.299,0.262
			c0.197,0.159,0.477,0.4,0.866,0.586c0.375,0.221,0.852,0.392,1.373,0.545c0.529,0.126,1.104,0.227,1.688,0.264
			c1.168,0.069,2.348-0.114,3.179-0.412c0.346-0.119,0.618-0.245,0.84-0.354c0.079,0.196,0.169,0.395,0.278,0.592
			c0.12,0.198,0.253,0.392,0.415,0.567c0.147,0.165,0.402,0.391,0.54,0.473c0.374,0.273,0.796,0.435,1.192,0.546
			c0.194,0.055,0.385,0.097,0.572,0.131c-0.07,0.263-0.195,0.571-0.423,0.836c-0.251,0.308-0.625,0.526-0.932,0.627
			c-0.152,0.063-0.287,0.084-0.381,0.106c-0.095,0.021-0.15,0.033-0.15,0.033s0.056,0.003,0.152,0.01
			c0.098,0.004,0.24,0.023,0.41,0.004c0.34-0.013,0.816-0.123,1.228-0.402c0.419-0.27,0.737-0.681,0.917-1.015
			c0.019-0.034,0.032-0.064,0.049-0.098c0.256,0.016,0.503,0.023,0.73,0.018c0.628-0.022,1.142-0.093,1.502-0.153
			c0.182-0.039,0.325-0.07,0.422-0.091c0.16-0.032,0.302-0.121,0.36-0.168c0.022-0.009,0.034-0.013,0.034-0.013l-0.714-0.701
			C120.556,55.382,120.543,55.387,120.52,55.393 M121.597,51.071c-0.162-0.074-0.392-0.163-0.667-0.252
			c-0.554-0.171-1.301-0.318-2.046-0.35c-0.746-0.036-1.482,0.018-2.023,0.104c-0.542,0.079-0.896,0.161-0.896,0.161
			s0.364-0.021,0.905-0.005c0.54,0.006,1.258,0.08,1.947,0.234c0.691,0.151,1.344,0.405,1.797,0.637
			c0.225,0.119,0.403,0.227,0.519,0.307c0.119,0.083,0.151,0.116,0.162,0.123l0.565-0.825
			C121.87,51.213,121.753,51.144,121.597,51.071 M114.397,63.004c-0.8-0.237-1.743-0.55-2.578-1.043
			c-0.195-0.131-0.39-0.265-0.536-0.415c-0.152-0.165-0.219-0.233-0.368-0.533c-0.193-0.389-0.318-0.93-0.43-1.487
			c-0.121-0.564-0.258-1.236-0.674-1.81c-0.401-0.576-0.98-0.949-1.525-1.167c-0.532-0.223-1.063-0.37-1.575-0.468
			c-0.506-0.099-0.988-0.149-1.43-0.17c-0.885-0.056-1.618-0.003-2.126,0.062c-0.508,0.054-0.792,0.128-0.792,0.128
			s1.168,0.106,2.829,0.451c0.415,0.091,0.853,0.222,1.309,0.355c0.448,0.145,0.912,0.325,1.365,0.547
			c0.436,0.221,0.814,0.503,1.053,0.871c0.25,0.361,0.35,0.854,0.448,1.412c0.063,0.351,0.127,0.717,0.23,1.094
			c-0.06,0.016-0.115,0.03-0.185,0.046c-0.481,0.111-1.15,0.186-1.826,0.158c-0.676-0.021-1.353-0.158-1.847-0.314
			c-0.251-0.07-0.452-0.153-0.593-0.21c-0.142-0.057-0.224-0.089-0.224-0.089s0.074,0.047,0.204,0.127
			c0.13,0.081,0.316,0.2,0.553,0.316c0.468,0.246,1.135,0.514,1.842,0.665c0.705,0.158,1.439,0.21,1.993,0.185
			c0.147-0.004,0.281-0.014,0.402-0.025c0.113,0.225,0.306,0.532,0.507,0.717c0.248,0.246,0.509,0.419,0.765,0.586
			c1.038,0.593,2.033,0.906,2.891,1.141c1.72,0.438,2.895,0.548,2.895,0.548l0.153-0.988c0,0-0.274-0.062-0.755-0.169
			C115.891,63.416,115.202,63.252,114.397,63.004 M111.937,67.324c-0.381-0.242-0.872-0.437-1.406-0.55
			c-0.531-0.121-1.122-0.128-1.663-0.094c-0.543,0.043-1.036,0.049-1.515,0.004c-0.467-0.053-0.881-0.196-1.126-0.471
			c-0.257-0.264-0.367-0.595-0.451-0.808c-0.077-0.22-0.121-0.347-0.121-0.347s0.018,0.133,0.051,0.365
			c0.045,0.229,0.079,0.577,0.316,0.951c0.236,0.384,0.73,0.646,1.236,0.783c0.504,0.144,1.084,0.192,1.606,0.224
			c0.525,0.031,1.004,0.123,1.442,0.256c0.435,0.135,0.803,0.333,1.094,0.522c0.288,0.198,0.496,0.396,0.628,0.537
			c0.14,0.158,0.165,0.204,0.173,0.216l0.854-0.519c0.009,0.013-0.102-0.174-0.273-0.365
			C112.605,67.822,112.325,67.559,111.937,67.324 M105.283,70.451c-0.299-0.175-0.568-0.386-0.823-0.59
			c-0.244-0.212-0.444-0.44-0.608-0.649c-0.146-0.217-0.274-0.405-0.326-0.556c-0.066-0.146-0.103-0.229-0.103-0.229
			s0.01,0.092,0.028,0.251c0.006,0.167,0.069,0.39,0.151,0.669c0.106,0.265,0.264,0.563,0.469,0.864
			c0.211,0.293,0.472,0.582,0.757,0.839c0.564,0.525,1.215,0.944,1.734,1.184c0.51,0.246,0.903,0.334,0.903,0.334l0.311-0.951
			c0,0-0.314-0.134-0.785-0.335C106.516,71.075,105.878,70.805,105.283,70.451 M100.24,71.775l0.017-0.201l0.039-0.187
			c0.019-0.063,0.047-0.227,0.061-0.343c0.008-0.113,0.018-0.228,0.012-0.343c-0.002-0.456-0.142-0.919-0.386-1.313
			c-0.497-0.81-1.35-1.208-2.065-1.354c-0.38-0.083-0.679-0.11-1.015-0.143c-0.322-0.021-0.622-0.037-0.894-0.035
			c-0.269-0.001-0.516-0.003-0.67-0.037c-0.144-0.025-0.231-0.157-0.276-0.307c-0.086-0.291-0.118-0.48-0.118-0.48
			s-0.009,0.045-0.027,0.13c-0.018,0.085-0.046,0.21-0.047,0.38c-0.01,0.152,0.025,0.443,0.291,0.62
			c0.244,0.162,0.501,0.206,0.766,0.286c0.258,0.07,0.537,0.146,0.833,0.226c0.272,0.087,0.619,0.171,0.886,0.285
			c0.575,0.203,1.08,0.563,1.318,1.019c0.121,0.227,0.174,0.483,0.172,0.737c0.003,0.063-0.007,0.126-0.011,0.188
			c-0.014,0.058-0.006,0.069-0.037,0.173L99.057,71.2l-0.042,0.194c-0.011,0.103-0.027,0.213-0.03,0.308
			c-0.03,0.756,0.036,1.377,0.088,1.929c0.07,0.537,0.128,0.984,0.168,1.298c0.011,0.074,0.02,0.142,0.029,0.199
			c0.004,0.027,0.008,0.054,0.011,0.076c0.005,0.021,0.003,0.067,0.011-0.009c0.011-0.088,0.114-0.182,0.11-0.156
			c-0.005,0.023-0.007,0.034-0.007,0.034l0.842,0.62c0,0,0.061-0.011,0.068-0.031c0.006-0.016,0.217-0.175,0.229-0.348
			c0.003-0.066,0.238-0.148,0.238-0.244V74.85c0-0.316-0.252-0.768-0.269-1.31C100.485,73.014,100.213,72.372,100.24,71.775
			 M90.193,73.52c0.001-0.002,0.002-0.003,0.003-0.004c0.204-0.354,0.369-0.844,0.401-1.332c0.037-0.489-0.016-0.953-0.099-1.292
			c-0.077-0.339-0.15-0.541-0.15-0.541s0.012,0.261-0.006,0.598c-0.01,0.337-0.087,0.841-0.234,1.24
			c-0.107,0.304-0.272,0.637-0.432,0.864c-0.008-0.007-0.015-0.014-0.023-0.021c-0.004-0.03-0.007-0.082-0.007-0.082l-0.03,0.05
			c-0.009-0.009-0.02-0.017-0.029-0.026c-0.499-0.48-0.986-0.972-1.417-1.455c-0.435-0.483-0.81-0.958-1.128-1.376
			c-0.149-0.214-0.281-0.415-0.412-0.589c-0.132-0.173-0.21-0.343-0.294-0.475c-0.166-0.269-0.261-0.423-0.261-0.423
			s0.026,0.177,0.097,0.487c0.056,0.316,0.193,0.751,0.396,1.266c0.103,0.256,0.249,0.515,0.387,0.801
			c0.141,0.284,0.335,0.554,0.513,0.851c0.385,0.57,0.842,1.146,1.339,1.683c0.985,1.084,2.132,1.992,3.018,2.626
			c0.893,0.616,1.556,0.954,1.556,0.954l0.518-0.854c0,0-0.559-0.395-1.39-1.037C91.839,74.928,91.017,74.251,90.193,73.52
			 M84.29,77.714l0.991-0.14l-1.092-4.156L84.29,77.714z M80.549,71.331c-0.358,0.589-0.74,1.44-0.971,2.344
			c-0.047,0.156-0.076,0.314-0.108,0.473c-0.01-0.003-0.017-0.005-0.027-0.008c-0.36-0.111-0.837-0.283-1.287-0.51
			c-0.451-0.223-0.872-0.508-1.125-0.791c-0.258-0.279-0.344-0.535-0.344-0.535s0.014,0.063,0.038,0.176
			c0.017,0.116,0.086,0.27,0.178,0.45c0.192,0.358,0.562,0.768,0.976,1.116c0.511,0.437,1.082,0.789,1.445,0.995
			c-0.055,0.427-0.061,0.829-0.052,1.174c0.011,0.696,0.134,1.183,0.134,1.183l0.987-0.159c0,0-0.024-0.4-0.038-1.047
			c-0.01-0.64,0-1.496,0.09-2.357c0.037-0.431,0.105-0.859,0.189-1.261c0.072-0.402,0.152-0.782,0.25-1.099
			c0.081-0.324,0.165-0.593,0.23-0.778c0.057-0.19,0.09-0.299,0.09-0.299s-0.069,0.089-0.191,0.247
			C80.894,70.805,80.72,71.033,80.549,71.331 M72.272,68.655c0,0-0.007,0.039-0.02,0.111c-0.003,0.068-0.066,0.156-0.149,0.239
			c-0.179,0.173-0.537,0.297-0.964,0.464c-0.431,0.168-0.964,0.318-1.515,0.67c-0.281,0.164-0.549,0.4-0.785,0.761
			c-0.058,0.103-0.113,0.215-0.158,0.321l-0.062,0.224c-0.057,0.28-0.049,0.413-0.037,0.643c0.033,0.42,0.258,0.864,0.537,1.137
			c0.275,0.281,0.557,0.464,0.784,0.626c0.122,0.081,0.215,0.148,0.296,0.211c0.139,0.121,0.116,0.094,0.178,0.182
			c0.091,0.132,0.17,0.333,0.226,0.522c0.12,0.385,0.187,0.75,0.223,1c0.037,0.248,0.058,0.39,0.058,0.39l0.999-0.037
			c0,0,0.008-0.175-0.004-0.459c-0.023-0.289-0.045-0.699-0.179-1.21c-0.076-0.255-0.165-0.536-0.369-0.85
			c-0.075-0.143-0.304-0.357-0.379-0.415c-0.137-0.112-0.276-0.212-0.395-0.293c-0.253-0.164-0.482-0.308-0.641-0.458
			c-0.156-0.155-0.245-0.285-0.285-0.482c-0.018-0.078-0.019-0.259-0.018-0.282l0.04-0.228c0.019-0.033,0.033-0.059,0.042-0.092
			c0.076-0.161,0.236-0.367,0.433-0.532c0.387-0.343,0.857-0.632,1.244-0.902c0.394-0.26,0.721-0.541,0.865-0.812
			c0.068-0.133,0.089-0.262,0.061-0.335C72.282,68.694,72.272,68.655,72.272,68.655 M64.75,69.088
			c-0.294,0.531-0.823,1.145-1.373,1.751c-0.148,0.173-0.285,0.391-0.363,0.599c-0.09,0.21-0.142,0.421-0.187,0.624
			c-0.084,0.407-0.111,0.787-0.122,1.11c-0.018,0.646,0.034,1.085,0.034,1.085l0.984-0.171c0,0-0.101-0.366-0.175-0.949
			c-0.06-0.565-0.135-1.398,0.225-1.992c0.452-0.686,0.901-1.399,1.118-1.99c0.233-0.589,0.203-1.013,0.203-1.013
			S65.058,68.563,64.75,69.088 M56.104,67.381c-0.946,0.534-1.78,1.26-1.78,1.26l0.738,0.675c0,0,0.137-0.199,0.383-0.498
			c0.241-0.297,0.582-0.681,0.955-1.033c0.372-0.354,0.781-0.67,1.12-0.859c0.339-0.188,0.595-0.265,0.595-0.265
			s-0.265,0.012-0.655,0.121C57.072,66.89,56.574,67.111,56.104,67.381 M52.612,62.979c-0.264,0.215-0.644,0.457-1.048,0.65
			c-0.402,0.196-0.82,0.354-1.136,0.459c-0.32,0.106-0.521,0.154-0.521,0.154l0.379,0.925c0,0,0.223-0.124,0.518-0.322
			c0.299-0.202,0.684-0.485,1.041-0.802c0.358-0.313,0.677-0.67,0.881-0.958c0.203-0.291,0.297-0.502,0.297-0.502
			S52.874,62.763,52.612,62.979 M44.895,49.522c0.403,0.024,0.657,0.137,0.657,0.137s-0.218-0.176-0.619-0.31
			c-0.395-0.143-0.942-0.264-1.492-0.353c-0.55-0.087-1.104-0.154-1.52-0.176c-0.414-0.024-0.696,0.006-0.696,0.006l0.074,0.997
			c0,0,0.259-0.01,0.659-0.067c0.397-0.053,0.929-0.145,1.465-0.194C43.957,49.51,44.494,49.487,44.895,49.522 M44.473,56.237
			c-0.246,0.132-0.36,0.291-0.36,0.291l0.566,0.824c0,0,0.192-0.047,0.405-0.226c0.216-0.175,0.471-0.456,0.741-0.715
			c0.53-0.533,1.02-1.125,1.02-1.125s-0.735,0.235-1.43,0.529C45.074,55.971,44.716,56.103,44.473,56.237"/>
		<path clip-path="url(#nav-eye-8-id-2)" fill="#F0A733" d="M68.771,34.105l2.458-11.25c0,0-24.041-1.958-24.625,22.542
			c-0.583,24.5,36.417,25.5,42.292,11.75s2.708-22.834-0.792-25.584l-9.958,6.834l-12.875,8.5L68.771,34.105z"/>
		<path clip-path="url(#nav-eye-8-id-2)" fill="#D72251" d="M181.439,35.48c-1.5,0.833-5.084,13.417-5.084,13.417s-4.084,1.75-3.209,4.875
			s3.875,4.25,3.875,4.25s7.168,22.458,34.834,22.791c27.666,0.334,39-5.666,43.166-12.5c4.168-6.833,6.5-16.75,0.75-31.5
			l-13.332-1.166c0,0-17.006-4.754-29.281-5.051S182.939,34.647,181.439,35.48"/>
		<path clip-path="url(#nav-eye-8-id-2)" fill="#FCDCA4" d="M186.15,34.326c0,0-7.209,6.796-6.488,17.66s8.289,25.075,36.402,25.384
			c28.111,0.308,40.982-12.306,39.594-26.568c-1.391-14.262-4.428-14.674-4.428-14.674s-13.49-0.875-21.574-2.935
			c-8.082-2.06-15.754-4.067-24.096-2.626S186.15,34.326,186.15,34.326"/>
		<path clip-path="url(#nav-eye-8-id-2)" fill="#EE6372" d="M196.887,55.929c-0.475,0.022-0.988,0.093-1.529,0.2
			c-0.529,0.093-1.135,0.286-1.689,0.537c-0.57,0.258-1.156,0.691-1.561,1.28c-0.414,0.589-0.602,1.257-0.779,1.853
			c-0.172,0.596-0.346,1.144-0.605,1.613c-0.061,0.12-0.131,0.211-0.193,0.318l-0.264,0.357c-0.131,0.138-0.322,0.329-0.527,0.464
			c-0.842,0.574-1.875,0.879-2.732,1.104c-0.869,0.23-1.619,0.359-2.143,0.438c-0.527,0.087-0.818,0.117-0.818,0.117l0.08,0.997
			c0,0,1.275-0.028,3.15-0.448c0.934-0.229,2.033-0.536,3.127-1.265c0.279-0.19,0.52-0.404,0.787-0.713
			c0.09-0.123,0.18-0.23,0.273-0.37c0.09-0.152,0.195-0.312,0.27-0.466c0.043-0.087,0.068-0.178,0.107-0.266
			c0.156-0.008,0.34-0.02,0.559-0.038c0.582-0.05,1.354-0.139,2.113-0.282c0.762-0.141,1.508-0.342,2.053-0.532
			c0.543-0.189,0.887-0.358,0.887-0.358s-0.367,0.111-0.928,0.207c-0.559,0.098-1.311,0.172-2.062,0.187
			c-0.754,0.018-1.504-0.021-2.062-0.064c-0.084-0.007-0.15-0.014-0.223-0.021c0.068-0.234,0.137-0.471,0.193-0.694
			c0.154-0.595,0.303-1.146,0.584-1.57c0.277-0.432,0.678-0.748,1.146-1.001c0.486-0.264,0.955-0.43,1.459-0.59
			c0.494-0.148,0.971-0.27,1.418-0.372c1.795-0.375,3.045-0.529,3.045-0.529s-0.309-0.057-0.855-0.092
			C198.617,55.882,197.834,55.859,196.887,55.929 M180.17,51.78c-0.01,0.032-0.1,0.087-0.088,0.074
			c0.027-0.015,0.062-0.032,0.1-0.051c0.15-0.077,0.371-0.186,0.643-0.302c0.543-0.239,1.295-0.518,2.068-0.725
			c0.773-0.213,1.57-0.349,2.174-0.408c0.305-0.033,0.557-0.046,0.734-0.051c0.18-0.007,0.281-0.011,0.281-0.011
			s-0.102-0.012-0.279-0.032c-0.178-0.022-0.432-0.049-0.738-0.062c-0.613-0.035-1.441-0.023-2.264,0.071
			c-0.824,0.091-1.643,0.257-2.252,0.418c-0.305,0.079-0.557,0.158-0.734,0.217c-0.045,0.015-0.086,0.028-0.121,0.04
			c-0.051,0.015-0.193,0.095-0.248,0.146c-0.148,0.148-0.107,0.08-0.127,0.103l0.846,0.533
			C180.146,51.765,180.232,51.671,180.17,51.78 M184.867,58.513c0.137,0.042,0.275,0.044,0.398,0.059
			c0.244,0.036,0.451,0.018,0.592,0.015c0.143-0.005,0.225-0.008,0.225-0.008s-0.08-0.013-0.223-0.035
			c-0.137-0.023-0.338-0.045-0.564-0.125c-0.113-0.036-0.238-0.062-0.359-0.126c-0.121-0.062-0.258-0.104-0.377-0.188
			c-0.248-0.15-0.494-0.332-0.695-0.559c-0.383-0.402-0.617-0.902-0.75-1.31c0.455,0.054,0.949,0.077,1.5,0.023
			c0.248-0.037,0.508-0.092,0.781-0.207c0.221-0.099,0.404-0.193,0.623-0.315c0.408-0.231,0.824-0.503,1.195-0.847
			c0.273-0.252,0.504-0.553,0.705-0.867c0.24,0.103,0.574,0.228,0.984,0.333c0.844,0.243,2.023,0.402,3.189,0.311
			c0.582-0.033,1.16-0.118,1.688-0.25c0.266-0.055,0.514-0.147,0.748-0.223c0.238-0.07,0.455-0.157,0.652-0.246
			c0.396-0.166,0.707-0.345,0.92-0.472s0.334-0.199,0.334-0.199s-0.137,0.037-0.375,0.104c-0.236,0.074-0.57,0.172-0.982,0.241
			c-0.201,0.05-0.42,0.094-0.656,0.117c-0.061,0.008-0.123,0.017-0.188,0.025c-0.008-0.091-0.018-0.193-0.023-0.32
			c-0.012-0.385,0.021-0.916,0.207-1.403c0.18-0.489,0.535-0.908,0.879-1.139c0.336-0.242,0.623-0.312,0.615-0.327
			c0.006,0.018-0.287,0.021-0.689,0.19c-0.406,0.155-0.912,0.525-1.248,1.044c-0.342,0.513-0.516,1.113-0.604,1.564
			c-0.035,0.178-0.053,0.328-0.064,0.458c-0.396,0.019-0.805,0.026-1.213-0.01c-0.539-0.031-1.072-0.122-1.568-0.197
			c-0.494-0.105-0.951-0.206-1.338-0.312c-0.328-0.091-0.588-0.17-0.795-0.236c0.088-0.249,0.156-0.49,0.207-0.686
			c0.068-0.236,0.1-0.305,0.189-0.452c0.076-0.136,0.184-0.245,0.295-0.346c0.229-0.201,0.525-0.325,0.82-0.408
			c0.598-0.153,1.164-0.167,1.555-0.171c0.396,0.007,0.623,0.011,0.623,0.011s-0.207-0.103-0.592-0.222
			c-0.381-0.119-0.947-0.284-1.688-0.234c-0.365,0.024-0.787,0.119-1.188,0.373c-0.197,0.124-0.391,0.289-0.535,0.492
			c-0.15,0.177-0.301,0.49-0.357,0.654c-0.158,0.444-0.268,0.764-0.477,1.113c-0.193,0.337-0.455,0.624-0.75,0.884
			c-0.299,0.256-0.646,0.471-1.012,0.661c-0.186,0.091-0.373,0.181-0.555,0.269c-0.127,0.053-0.287,0.09-0.457,0.117
			c-0.711,0.077-1.477-0.045-2.109-0.155c-0.639-0.109-1.172-0.24-1.543-0.336c-0.367-0.096-0.576-0.151-0.576-0.151l-0.316,0.948
			c0,0,0.848,0.343,2.193,0.636c0.049,0.115,0.105,0.24,0.18,0.382c0.244,0.47,0.662,1.06,1.236,1.466
			c0.277,0.211,0.594,0.36,0.893,0.47C184.572,58.457,184.729,58.474,184.867,58.513 M180.285,47.165
			c0.037-0.006-0.066,0.063-0.127,0.051c0.008,0.008,0.197,0.059,0.363,0.118c0.363,0.118,0.896,0.305,1.527,0.545
			c0.316,0.118,0.658,0.247,1.02,0.384c0.178,0.07,0.361,0.142,0.547,0.216c0.193,0.083,0.389,0.168,0.59,0.254
			c0.445,0.16,0.881,0.001,1.125-0.168c0.25-0.168,0.418-0.332,0.586-0.485c0.32-0.309,0.627-0.578,0.973-0.808
			c0.371-0.254,0.744-0.507,1.111-0.757c0.357-0.231,0.719-0.425,1.086-0.572c0.729-0.308,1.471-0.434,2.123-0.494
			s1.217-0.04,1.617-0.033c0.396,0.029,0.635,0.028,0.635,0.028s-0.207-0.104-0.588-0.256c-0.381-0.146-0.943-0.333-1.658-0.4
			c-0.357-0.043-0.75-0.043-1.168-0.004c-0.32,0.035-0.656,0.105-0.994,0.201c0.01-0.052,0.016-0.096,0.027-0.151
			c0.055-0.291,0.127-0.63,0.223-0.987c0.049-0.179,0.104-0.361,0.162-0.546c0.006-0.01,0.08-0.193,0.109-0.208
			c0.029-0.037,0.064-0.087,0.137-0.13c0.25-0.188,0.668-0.218,1.031-0.233c0.371-0.011,0.73,0.005,1.037-0.001
			c0.309-0.003,0.568-0.032,0.74-0.093c0.174-0.051,0.248-0.133,0.252-0.123c-0.004-0.009-0.088,0.059-0.262,0.082
			c-0.172,0.032-0.422,0.021-0.721-0.022c-0.301-0.04-0.646-0.109-1.033-0.159c-0.383-0.032-0.822-0.104-1.291,0.114
			c-0.113,0.047-0.229,0.13-0.334,0.245c-0.115,0.126-0.113,0.14-0.213,0.298c-0.092,0.185-0.182,0.367-0.258,0.547
			c-0.158,0.358-0.291,0.699-0.395,0.994c-0.115,0.322-0.197,0.583-0.248,0.763c-0.182,0.086-0.363,0.176-0.537,0.274
			c-0.418,0.233-0.791,0.483-1.17,0.72c-0.426,0.262-0.816,0.584-1.15,0.887c-0.166,0.147-0.322,0.292-0.439,0.366
			c-0.115,0.082-0.141,0.035-0.109,0.063c-0.016-0.004-0.135-0.056-0.098-0.038l-0.162-0.077l-0.305-0.131
			c-0.195-0.078-0.387-0.154-0.572-0.229c-0.371-0.144-0.721-0.274-1.051-0.382c-0.656-0.218-1.205-0.39-1.605-0.499
			c-0.217-0.054-0.332-0.084-0.533-0.117c-0.166-0.026-0.35,0.017-0.365,0.02c-0.027,0.005-0.041,0.007-0.041,0.007l0.363,0.932
			C180.242,47.169,180.258,47.168,180.285,47.165 M183.508,40.327c0.623-0.255,1.473-0.567,2.344-0.804
			c0.871-0.242,1.766-0.407,2.445-0.478c0.34-0.035,0.623-0.056,0.824-0.057c0.199-0.007,0.314-0.011,0.314-0.011
			s-0.115-0.011-0.312-0.032c-0.201-0.026-0.486-0.046-0.832-0.057c-0.691-0.023-1.619,0.019-2.539,0.144
			c-0.92,0.119-1.83,0.319-2.508,0.493c-0.676,0.171-1.133,0.328-1.133,0.328l0.383,0.925
			C182.494,40.779,182.881,40.583,183.508,40.327 M195.133,66.99c0.266-0.101,0.514-0.232,0.721-0.377
			c0.207-0.146,0.383-0.299,0.502-0.467c0.133-0.152,0.199-0.319,0.273-0.437c0.107-0.261,0.145-0.411,0.145-0.411
			s-0.102,0.116-0.279,0.318c-0.104,0.084-0.205,0.206-0.363,0.293c-0.146,0.099-0.316,0.191-0.514,0.268
			c-0.797,0.301-1.963,0.21-3.225,0.229c-0.305,0.005-0.672,0.025-0.955,0.064c-0.367,0.052-0.73,0.157-1.043,0.336
			c-0.629,0.36-1.029,0.884-1.287,1.334c-0.256,0.459-0.377,0.868-0.457,1.153c-0.068,0.277-0.09,0.479-0.088,0.469l0.98,0.188
			c0.002-0.011,0.033-0.112,0.119-0.35c0.08-0.227,0.221-0.547,0.43-0.886c0.199-0.344,0.49-0.695,0.873-0.904
			c0.184-0.119,0.396-0.187,0.627-0.235c0.316-0.05,0.559-0.093,0.869-0.122c0.594-0.06,1.219-0.107,1.814-0.226
			C194.572,67.164,194.865,67.106,195.133,66.99 M198.664,69.587c-0.371,0.501-1.025,1.026-1.734,1.459
			c-0.705,0.436-1.465,0.788-2.037,1.029c-0.578,0.245-0.959,0.373-0.959,0.373l0.395,0.918c0,0,1.562-0.797,2.895-1.916
			c0.666-0.554,1.264-1.202,1.574-1.778c0.152-0.284,0.254-0.542,0.275-0.729c0.031-0.183,0.049-0.288,0.049-0.288
			s-0.033,0.101-0.09,0.277C198.982,69.106,198.85,69.341,198.664,69.587 M206.311,68.675c-0.168,0.05-0.328,0.05-0.535-0.024
			c-0.205-0.073-0.449-0.193-0.754-0.316c-0.156-0.062-0.326-0.11-0.52-0.145c-0.104-0.011-0.234-0.025-0.322-0.027
			c-0.104,0.008-0.111-0.013-0.295,0.017c-0.465,0.045-0.93,0.394-1.17,0.778c-0.109,0.166-0.189,0.335-0.252,0.504
			c-0.059-0.032-0.115-0.062-0.176-0.104c-0.381-0.24-0.699-0.72-0.514-1.379c0.33-1.402,0.66-2.804,0.66-2.804
			s-0.568,1.324-1.137,2.647c-0.068,0.149-0.148,0.389-0.166,0.584c-0.031,0.209-0.018,0.431,0.035,0.632
			c0.102,0.415,0.346,0.735,0.568,0.957c0.186,0.186,0.357,0.308,0.5,0.4c-0.102,0.668-0.098,1.302-0.104,1.882
			c0.01,0.667,0.041,1.275,0.072,1.795c0.033,0.512,0.062,0.937,0.082,1.234c0.01,0.121,0.008,0.289,0.02,0.255
			c0.037-0.039-0.01,0.084,0.002,0.06l0.938,0.349c0.004-0.026,0.008,0.02,0.059-0.183c0.041-0.195,0.049-0.269,0.068-0.451
			c0.025-0.325,0.049-0.767,0.059-1.293c-0.002-0.521-0.004-1.127-0.008-1.776c-0.008-0.648-0.021-1.327,0.049-1.938
			c0.037-0.304,0.111-0.589,0.209-0.794c0.105-0.208,0.217-0.309,0.4-0.381c-0.025-0.012,0.131-0.027,0.186-0.042l0.156-0.014
			c0.117-0.001,0.25,0.011,0.383,0.029c0.273,0.034,0.559,0.121,0.871,0.133c0.309,0.022,0.646-0.068,0.84-0.244
			c0.201-0.166,0.297-0.35,0.369-0.493c0.139-0.29,0.158-0.471,0.168-0.467c0,0-0.117,0.142-0.33,0.348
			C206.617,68.504,206.477,68.622,206.311,68.675 M215.627,69.744c-0.115,0.156-0.205,0.344-0.354,0.526
			c-0.266,0.379-0.584,0.812-0.941,1.263c-0.352,0.455-0.734,0.935-1.135,1.404c-0.082,0.097-0.164,0.192-0.248,0.289
			c-0.271-0.225-0.602-0.546-0.855-0.934c-0.125-0.204-0.238-0.423-0.303-0.641c-0.072-0.217-0.104-0.434-0.107-0.622
			c-0.016-0.38,0.088-0.631,0.07-0.634c0.018,0.006-0.146,0.223-0.227,0.619c-0.043,0.196-0.068,0.436-0.049,0.694
			c0.014,0.26,0.078,0.53,0.164,0.797c0.184,0.527,0.484,1.006,0.736,1.34c0.006,0.007,0.012,0.012,0.018,0.02
			c-0.523,0.599-1.025,1.16-1.451,1.602c-0.309,0.343-0.57,0.624-0.756,0.805l-0.061,0.065c0,0,0.002,0.006,0.006,0.011
			c0.006,0.01,0.014,0.025,0.018,0.042c-0.035,0.039-0.088,0.065-0.082,0.063l0.277,0.962c0,0,0.037-0.02,0.109-0.055
			c0.061-0.032,0.139-0.074,0.227-0.132c0.043-0.031,0.088-0.063,0.137-0.1l0.082-0.066c0.225-0.186,0.527-0.45,0.875-0.782
			c0.682-0.678,1.551-1.613,2.297-2.658c0.764-1.027,1.402-2.164,1.713-3.093c0.086-0.226,0.137-0.449,0.186-0.641
			s0.078-0.362,0.092-0.504c0.039-0.282,0.043-0.441,0.043-0.441s-0.092,0.14-0.221,0.381
			C215.824,69.446,215.738,69.59,215.627,69.744 M218.549,77.402l0.197-4.088l-1.182,3.918L218.549,77.402z M226.18,71.925
			c-0.018-0.005-0.012,0.292-0.193,0.658c-0.094,0.179-0.232,0.365-0.408,0.539c-0.188,0.161-0.396,0.317-0.635,0.435
			c-0.467,0.243-0.982,0.387-1.373,0.461c-0.17,0.033-0.303,0.053-0.41,0.066c-0.021-0.097-0.039-0.192-0.064-0.288
			c-0.207-0.825-0.535-1.613-0.854-2.157c-0.162-0.272-0.305-0.489-0.424-0.63c-0.109-0.146-0.172-0.228-0.172-0.228
			s0.049,0.092,0.137,0.25c0.094,0.155,0.201,0.391,0.318,0.676c0.229,0.572,0.424,1.368,0.502,2.177
			c0.082,0.807,0.053,1.618,0,2.218c-0.055,0.607-0.135,0.98-0.135,0.98l0.994,0.117c0,0,0.023-0.45-0.018-1.086
			c-0.018-0.322-0.053-0.696-0.109-1.095c0.127-0.044,0.299-0.11,0.496-0.198c0.406-0.178,0.938-0.464,1.395-0.851
			c0.23-0.189,0.43-0.42,0.594-0.645c0.154-0.237,0.258-0.477,0.314-0.688C226.236,72.206,226.16,71.923,226.18,71.925
			 M233.662,70.524c-0.059-0.072-0.148-0.161-0.225-0.232c-0.148-0.116-0.287-0.207-0.428-0.28c-0.564-0.289-1.09-0.424-1.527-0.583
			c-0.439-0.148-0.801-0.277-1-0.441c-0.217-0.155-0.186-0.347-0.193-0.341c0.014-0.011-0.084,0.179,0.109,0.42
			c0.184,0.229,0.523,0.461,0.936,0.692c0.404,0.23,0.904,0.479,1.338,0.797c0.109,0.075,0.207,0.165,0.287,0.243
			c0.023,0.039,0.047,0.052,0.08,0.099c0.021,0.046,0.104,0.181,0.074,0.156c0.084,0.257,0.076,0.417-0.018,0.579
			c-0.219,0.364-0.729,0.818-1.133,1.222c-0.219,0.218-0.402,0.391-0.6,0.625c-0.195,0.22-0.367,0.457-0.504,0.711
			c-0.133,0.258-0.234,0.534-0.236,0.833c-0.008,0.297,0.09,0.578,0.215,0.762c0.125,0.189,0.262,0.293,0.354,0.36
			c0.094,0.062,0.189,0.106,0.17,0.097l0.445-0.895c-0.018-0.011,0.006,0.001-0.021-0.021c-0.021-0.02-0.053-0.057-0.074-0.098
			c-0.043-0.07-0.068-0.209,0.094-0.545c0.084-0.157,0.205-0.335,0.361-0.515c0.172-0.194,0.352-0.4,0.537-0.612
			c0.195-0.222,0.396-0.45,0.6-0.682c0.203-0.245,0.434-0.501,0.592-0.893c0.178-0.413,0.082-0.919-0.082-1.217
			C233.73,70.598,233.715,70.61,233.662,70.524 M239.961,72.916c-0.109-0.609-0.408-1.374-0.869-2.008
			c-0.439-0.621-0.926-1.197-1.254-1.643c-0.164-0.223-0.26-0.429-0.297-0.587c-0.039-0.158-0.047-0.252-0.047-0.252
			s-0.01,0.093,0.004,0.259c0.012,0.166,0.074,0.404,0.205,0.66c0.258,0.508,0.639,1.151,0.959,1.815
			c0.318,0.646,0.457,1.343,0.461,1.846c0.004,0.253-0.02,0.457-0.045,0.592c-0.027,0.149-0.043,0.175-0.045,0.187l0.977,0.212
			c-0.002,0.012,0.025-0.146,0.023-0.322C240.033,73.484,240.018,73.221,239.961,72.916"/>
		<path clip-path="url(#nav-eye-8-id-2)" fill="#F0A733" d="M228.709,37.147l0.947-3.954c0,0-12.01-3.233-13.76-2.483
			s-9.812,5.688-10.375,12.749c-0.562,7.063,1.5,20.521,17.25,22.604c15.75,2.085,21-4.915,23.438-7.604
			c2.438-2.687,5.562-10.437,5.125-13.812s-3-7.875-3.375-8.062s-3.312,0.25-3.312,0.25l-12.5,9.062l-7.812,4.688
			C224.396,50.397,228.709,37.147,228.709,37.147"/>
		<path clip-path="url(#nav-eye-8-id-2)" fill="#0C3846" d="M183.578,35.785c0.205-0.027,0.422-0.063,0.629-0.093
			c-0.48,0.64-1.012,1.396-1.566,2.29c-1.025,1.681-2.182,3.817-2.945,6.492c-0.193,0.642-0.354,1.319-0.482,2.021
			c-0.643,0.256-1.232,0.529-1.828,0.836c-0.615,0.32-1.219,0.67-1.805,1.066c-0.584,0.397-1.156,0.832-1.684,1.356
			c-0.527,0.519-1.021,1.126-1.373,1.881c-0.168,0.381-0.312,0.788-0.363,1.229c-0.055,0.43-0.047,0.906,0.045,1.303l0.096,0.492
			l0.184,0.6c0.145,0.384,0.297,0.729,0.514,1.072c0.205,0.346,0.453,0.647,0.734,0.934c0.271,0.297,0.588,0.503,0.914,0.729
			c0.33,0.223,0.676,0.324,1.041,0.475c0.184,0.076,0.354,0.12,0.537,0.146c0.674,2.121,1.566,4.165,2.631,6.025
			c1.137,1.998,2.502,3.863,4.025,5.593c3.066,3.441,6.85,6.266,11.037,8.227c2.092,0.984,4.275,1.77,6.504,2.362
			c2.244,0.576,4.484,0.959,6.812,1.213c2.221,0.173,4.418,0.347,6.701,0.376c1.133,0.036,2.264,0.07,3.389,0.045
			c1.127-0.016,2.254,0.035,3.383-0.022c1.127-0.048,2.256-0.064,3.385-0.141c1.127-0.093,2.258-0.162,3.385-0.276
			c1.125-0.147,2.252-0.261,3.375-0.437c1.117-0.209,2.246-0.354,3.355-0.615c1.113-0.256,2.23-0.478,3.326-0.817l1.646-0.476
			l1.625-0.563c2.156-0.777,4.275-1.702,6.273-2.859c2.004-1.141,3.928-2.449,5.67-3.972c0.867-0.746,1.736-1.655,2.467-2.574
			c0.742-0.927,1.398-1.914,1.975-2.938c1.158-2.048,1.963-4.251,2.537-6.486c0.525-2.081,0.82-4.157,0.896-6.333
			c0.062-0.04,0.125-0.081,0.189-0.119c0.25-0.149,0.504-0.294,0.762-0.433c0.518-0.278,1.051-0.53,1.598-0.756
			c1.098-0.446,2.254-0.775,3.475-0.864c-1.199-0.245-2.469-0.249-3.717-0.106c-0.625,0.074-1.25,0.18-1.869,0.317
			c-0.311,0.069-0.619,0.146-0.93,0.23c-0.312,0.087-0.604,0.173-0.943,0.295l-0.5,0.242l-0.041,0.636
			c-0.131,2.07-0.572,4.242-1.158,6.282c-0.6,2.053-1.43,4.023-2.49,5.834c-1.08,1.821-2.375,3.402-3.986,4.746
			c-1.617,1.396-3.398,2.59-5.264,3.636c-1.857,1.061-3.838,1.91-5.869,2.627l-1.529,0.52l-1.561,0.439
			c-1.033,0.313-2.1,0.521-3.156,0.762c-1.053,0.247-2.137,0.383-3.205,0.581c-1.074,0.166-2.16,0.272-3.24,0.412
			c-1.086,0.106-2.18,0.172-3.268,0.26c-1.09,0.071-2.186,0.083-3.279,0.128c-2.188,0.039-4.393,0.029-6.568-0.12
			c-2.164-0.086-4.398-0.325-6.613-0.472c-2.098-0.186-4.258-0.499-6.336-0.985c-2.082-0.505-4.117-1.186-6.07-2.052
			c-3.908-1.724-7.455-4.246-10.381-7.38c-1.443-1.582-2.773-3.282-3.904-5.111c-1.129-1.808-2.133-3.798-2.781-5.738l-0.199-0.593
			l-0.619-0.13c-0.166-0.03-0.473-0.122-0.703-0.224c-0.246-0.102-0.477-0.233-0.695-0.379c-0.215-0.151-0.42-0.312-0.594-0.503
			c-0.18-0.184-0.338-0.39-0.469-0.613c-0.139-0.212-0.244-0.469-0.334-0.7l-0.109-0.341l-0.096-0.477
			c-0.057-0.247-0.049-0.44-0.025-0.664c0.02-0.218,0.104-0.439,0.197-0.661c0.416-0.904,1.355-1.736,2.359-2.416
			c0.508-0.344,1.049-0.658,1.607-0.947c0.195-0.102,0.4-0.198,0.604-0.295c-0.002,0.008-0.002,0.015-0.004,0.023
			c-0.027,0.823-0.07,1.513-0.033,2.351c0.035,0.82,0.053,1.665,0.18,2.499c0.389,3.351,1.441,6.97,3.51,10.286
			c2.043,3.324,5.125,6.217,8.771,8.303c0.457,0.263,0.895,0.565,1.369,0.797c0.482,0.218,0.965,0.437,1.451,0.655
			c0.977,0.417,1.928,0.937,2.969,1.217c1.02,0.336,2.045,0.673,3.078,1.013c1.047,0.276,2.117,0.482,3.18,0.728l1.605,0.354
			c0.535,0.115,1.082,0.153,1.625,0.233c1.088,0.141,2.178,0.281,3.271,0.422c1.092,0.184,2.197,0.147,3.297,0.229l3.307,0.163
			c2.248,0.011,4.387-0.067,6.578-0.102c1.104-0.099,2.205-0.198,3.301-0.297c1.096-0.112,2.199-0.156,3.27-0.382
			c1.076-0.188,2.148-0.373,3.217-0.56c1.07-0.163,2.1-0.529,3.143-0.783l1.551-0.421c0.52-0.131,1.006-0.365,1.51-0.542
			c0.986-0.398,2-0.719,2.947-1.179c3.84-1.728,7.225-4.266,9.689-7.316c2.482-3.047,3.986-6.565,4.645-9.906
			c0.141-0.84,0.334-1.657,0.383-2.472c0.039-0.405,0.078-0.807,0.115-1.202c0.012-0.398,0.021-0.791,0.033-1.18l0.012-0.578
			l0.002-0.144l-0.006-0.166l-0.01-0.274c-0.016-0.362-0.031-0.722-0.045-1.074c-0.055-0.72-0.121-1.461-0.213-2.141
			c-0.379-2.726-1.029-5.041-1.701-6.89c-0.502-1.378-1.004-2.504-1.432-3.377c2.178-0.119,4.264-0.312,6.229-0.578
			c2.965-0.401,5.67-0.902,8.02-1.53c1.178-0.305,2.256-0.677,3.256-0.994c0.984-0.376,1.893-0.696,2.689-1.055
			c0.799-0.351,1.512-0.663,2.111-0.986c0.605-0.302,1.115-0.569,1.514-0.814c0.812-0.469,1.229-0.745,1.229-0.745
			s-0.498,0.078-1.406,0.276c-0.402,0.087-0.9,0.194-1.465,0.316c0.604-0.447,1.225-0.929,1.828-1.439
			c0.686-0.579,1.354-1.178,1.943-1.773c0.604-0.583,1.127-1.165,1.564-1.671c0.436-0.508,0.779-0.944,1.004-1.262
			c0.232-0.312,0.365-0.489,0.365-0.489s-0.152,0.161-0.42,0.442c-0.26,0.288-0.65,0.679-1.139,1.126
			c-0.486,0.447-1.068,0.955-1.725,1.455c-0.645,0.512-1.365,1.016-2.096,1.499c-1.461,0.969-3.004,1.803-4.178,2.375
			c-0.611,0.303-1.115,0.526-1.463,0.675c-1.244,0.268-2.615,0.555-4.129,0.847c-0.391,0.078-0.803,0.157-1.211,0.236
			c0.574-0.398,1.156-0.812,1.734-1.244c1.561-1.163,3.043-2.42,4.092-3.425c0.52-0.507,0.949-0.933,1.229-1.25
			c0.285-0.31,0.449-0.486,0.449-0.486s-0.184,0.154-0.508,0.424c-0.318,0.277-0.795,0.643-1.371,1.073
			c-1.16,0.853-2.77,1.892-4.436,2.826c-1.666,0.938-3.381,1.777-4.68,2.375c-0.43,0.198-0.807,0.365-1.127,0.504
			c-0.646,0.094-1.307,0.184-1.984,0.262c-1.805,0.218-3.727,0.371-5.717,0.458c0.762-0.338,1.539-0.694,2.316-1.075
			c1.99-0.973,3.914-2.072,5.295-2.984c0.688-0.465,1.254-0.854,1.631-1.156c0.383-0.29,0.602-0.456,0.602-0.456
			s-0.236,0.14-0.648,0.385c-0.408,0.256-1.014,0.577-1.74,0.957c-1.465,0.743-3.473,1.605-5.527,2.334
			c-2.057,0.731-4.148,1.346-5.723,1.764c-0.445,0.117-0.842,0.219-1.191,0.305c-0.393-0.01-0.787-0.021-1.166-0.027
			c-0.834-0.057-1.676-0.077-2.535-0.185c-1.066-0.1-2.156-0.261-3.252-0.441c1.271-0.393,2.65-0.845,4.029-1.35
			c1.127-0.408,2.238-0.857,3.27-1.303c1.027-0.451,1.969-0.914,2.758-1.342c0.4-0.203,0.744-0.434,1.059-0.613
			c0.316-0.18,0.578-0.36,0.789-0.514c0.428-0.299,0.672-0.47,0.672-0.47s-0.262,0.144-0.717,0.396
			c-0.225,0.129-0.5,0.28-0.832,0.425c-0.33,0.146-0.689,0.335-1.105,0.494c-0.822,0.339-1.791,0.694-2.848,1.03
			c-1.059,0.331-2.191,0.656-3.34,0.94c-2.291,0.575-4.609,1.03-6.354,1.326c-0.541,0.092-1.016,0.168-1.426,0.231
			c-1.406-0.286-2.83-0.592-4.273-0.911c1.301-0.32,2.715-0.697,4.129-1.131c2.281-0.694,4.51-1.54,6.131-2.28
			c0.805-0.385,1.473-0.702,1.92-0.965c0.455-0.248,0.715-0.39,0.715-0.39s-0.273,0.113-0.752,0.312
			c-0.471,0.212-1.166,0.456-1.998,0.751c-1.676,0.561-3.951,1.157-6.258,1.601c-2.305,0.447-4.631,0.765-6.375,0.957
			c-0.758,0.084-1.391,0.142-1.879,0.183c-0.129-0.026-0.252-0.056-0.381-0.083c-1.016-0.219-2.041-0.428-3.072-0.63
			c0.027-0.005,0.057-0.009,0.084-0.014c1.041-0.195,2.074-0.412,3.033-0.659c0.48-0.124,0.943-0.237,1.377-0.373
			c0.434-0.134,0.848-0.238,1.219-0.375c0.75-0.25,1.367-0.473,1.791-0.653c0.426-0.17,0.668-0.267,0.668-0.267
			s-0.252,0.067-0.695,0.185c-0.441,0.129-1.078,0.275-1.844,0.434c-0.379,0.09-0.801,0.144-1.242,0.224
			c-0.439,0.083-0.908,0.14-1.391,0.204c-0.967,0.129-2.002,0.22-3.037,0.288c-2.037,0.137-4.072,0.125-5.611,0.074
			c-1.008-0.131-2.025-0.243-3.051-0.327l-1.471-0.089c-0.545-0.038-1.018-0.029-1.531-0.046c-1.006-0.037-2.01,0.003-3.014,0.013
			c-2.002,0.081-3.986,0.241-5.939,0.479c-3.904,0.489-7.668,1.205-11.285,1.882c-2.283,0.436-4.508,0.847-6.676,1.224
			c-0.146-0.004-0.299-0.011-0.475-0.021c-0.42-0.05-0.916-0.136-1.447-0.288c-0.531-0.155-1.096-0.37-1.648-0.627
			c-1.105-0.518-2.16-1.195-2.916-1.75c-0.758-0.558-1.227-0.982-1.227-0.982s0.375,0.508,1.018,1.215
			c0.643,0.703,1.561,1.6,2.611,2.375c0.293,0.216,0.598,0.417,0.904,0.607c-0.082,0.013-0.168,0.027-0.25,0.041
			c-0.119-0.01-0.291-0.026-0.516-0.045c-0.223-0.02-0.492-0.041-0.801-0.066c-0.305-0.063-0.65-0.134-1.027-0.212
			c-0.381-0.057-0.773-0.206-1.199-0.339c-0.43-0.12-0.863-0.304-1.311-0.507c-0.459-0.181-0.902-0.429-1.357-0.683
			c-0.467-0.231-0.893-0.55-1.344-0.835c-0.877-0.604-1.709-1.286-2.443-1.982c-0.74-0.689-1.379-1.393-1.906-2.013
			c-1.057-1.244-1.629-2.182-1.629-2.182s0.461,0.995,1.379,2.369c0.459,0.685,1.021,1.47,1.697,2.26
			c0.668,0.797,1.443,1.598,2.287,2.336c0.438,0.354,0.85,0.739,1.316,1.044c0.451,0.325,0.9,0.646,1.371,0.899
			c0.361,0.217,0.719,0.41,1.076,0.579c-0.324,0.037-0.646,0.069-0.963,0.099c-0.238-0.05-0.523-0.082-0.834-0.189
			c-0.348-0.121-0.74-0.258-1.168-0.406c-0.428-0.162-0.859-0.411-1.34-0.634c-0.477-0.229-0.93-0.568-1.432-0.866
			c-0.49-0.32-0.955-0.715-1.453-1.083c-0.461-0.412-0.943-0.823-1.398-1.266c-0.438-0.46-0.908-0.893-1.311-1.378
			c-0.418-0.469-0.822-0.939-1.188-1.418c-0.754-0.938-1.385-1.872-1.92-2.678c-1.047-1.629-1.621-2.793-1.621-2.793
			s0.459,1.213,1.352,2.949c0.457,0.86,1.002,1.864,1.674,2.889c0.324,0.521,0.689,1.04,1.07,1.562
			c0.363,0.535,0.803,1.027,1.211,1.547c0.426,0.504,0.885,0.981,1.332,1.461c0.484,0.439,0.938,0.904,1.428,1.299
			c0.5,0.37,0.953,0.775,1.447,1.078c-0.066-0.005-0.125-0.02-0.188-0.024c-0.113-0.039-0.285-0.098-0.521-0.179
			c-0.426-0.136-1.029-0.345-1.727-0.673c-0.357-0.146-0.734-0.325-1.121-0.543c-0.391-0.21-0.812-0.418-1.215-0.69
			c-0.828-0.507-1.688-1.105-2.488-1.78c-1.629-1.325-3.057-2.909-4.01-4.187c-0.971-1.271-1.479-2.217-1.479-2.217l-0.031,0.015
			c0,0,0.396,1.001,1.225,2.392c0.812,1.397,2.074,3.175,3.602,4.742c0.576,0.609,1.195,1.164,1.818,1.686
			c-0.408-0.166-0.818-0.332-1.197-0.514c-2.057-0.977-3.705-2.148-4.984-3.22c-1.283-1.071-2.201-2.052-2.803-2.744
			c-0.598-0.694-0.895-1.099-0.895-1.099s0.133,0.482,0.539,1.332c0.396,0.854,1.105,2.054,2.254,3.414
			c1.15,1.349,2.783,2.842,4.99,4.062c2.199,1.211,4.961,2.124,8.039,2.408C176.932,36.673,180.271,36.234,183.578,35.785
			 M216.369,32.15l0.346,0.025c3.779,0.304,7.623,1.007,11.375,1.806c3.764,0.795,7.479,1.682,11.158,2.341
			c1.844,0.312,3.672,0.596,5.494,0.739c0.746,0.082,1.494,0.104,2.236,0.136l-0.035,0.032c3.396,3.804,5.717,8.727-0.283,18.91
			c-5.818,9.872-16.348,9.823-23.77,8.931c-4.152-0.5-10.209-3.513-13.752-8.304c-2.641-3.57-3.58-7.588-2.801-11.943
			C207.93,35.967,213.416,33.076,216.369,32.15 M186.826,35.57c0.105-0.118,0.189-0.209,0.279-0.308
			c2.289-0.35,4.615-0.724,7.012-1.134c3.633-0.628,7.361-1.303,11.143-1.733c1.891-0.209,3.795-0.341,5.703-0.398
			c0.371,0,0.744-0.004,1.115-0.007c-2.826,1.808-6.443,5.435-7.707,12.48c-0.871,4.849,0.221,9.512,3.16,13.485
			c4.059,5.49,10.684,8.566,15.121,9.101c1.836,0.221,3.848,0.392,5.939,0.392c6.996,0,14.857-1.917,19.791-10.294
			c5.99-10.168,4.256-15.859,1.146-19.929c0.176-0.001,0.346,0.001,0.525-0.003c0.414-0.005,0.814-0.023,1.221-0.034
			c0.008,0.014,0.014,0.024,0.021,0.039c0.461,0.871,1.1,2.186,1.74,3.928c0.635,1.742,1.25,3.924,1.609,6.478
			c0.088,0.64,0.145,1.269,0.201,1.959c0.016,0.354,0.029,0.712,0.047,1.074l0.012,0.274l0.004,0.109l-0.002,0.132l-0.012,0.535
			c-0.008,0.358-0.018,0.722-0.025,1.09c-0.037,0.366-0.072,0.737-0.107,1.112c-0.041,0.755-0.223,1.506-0.35,2.282
			c-0.602,3.083-1.969,6.292-4.238,9.083c-2.26,2.785-5.336,5.19-8.963,6.853c-0.889,0.441-1.855,0.753-2.793,1.142
			c-0.477,0.173-0.934,0.402-1.432,0.531l-1.488,0.415l-1.498,0.419c-0.5,0.145-1,0.288-1.521,0.363
			c-1.031,0.188-2.07,0.378-3.111,0.567c-1.037,0.231-2.1,0.279-3.158,0.397c-1.059,0.104-2.123,0.21-3.186,0.315
			c-2.162,0.045-4.395,0.136-6.516,0.136l-3.24-0.143c-1.076-0.075-2.166-0.032-3.229-0.207c-1.066-0.131-2.131-0.263-3.191-0.394
			c-0.529-0.075-1.066-0.108-1.586-0.218l-1.557-0.336c-4.182-0.729-8.115-2.244-11.561-4.226c-3.445-1.998-6.289-4.712-8.166-7.806
			c-1.898-3.086-2.861-6.457-3.207-9.603c-0.115-0.79-0.123-1.553-0.154-2.301c-0.035-0.727,0.02-1.573,0.045-2.241
			c0.121-1.413,0.367-2.747,0.744-3.967c0.74-2.445,1.852-4.426,2.838-5.984C185.248,37.442,186.176,36.312,186.826,35.57
			 M169.645,62.659c0.23,0.241,0.377,0.363,0.377,0.363s-0.004-0.201-0.035-0.521c-0.02-0.158-0.041-0.349-0.066-0.567
			c-0.012-0.221-0.035-0.463-0.072-0.719c-0.096-1.018-0.223-2.373-0.35-3.729c-0.123-1.352-0.25-2.727-0.41-3.787
			c-0.139-1.056-0.316-1.801-0.316-1.801s-0.412,0.657-0.705,1.726c-0.312,1.063-0.508,2.537-0.393,4.017
			c0.105,1.478,0.555,2.946,1.148,3.919C169.109,62.05,169.402,62.424,169.645,62.659 M250.646,90.272c0,0-0.371,0.154-1.066,0.444
			c-0.602,0.273-1.463,0.666-2.525,1.15c0.029-0.022,0.059-0.041,0.09-0.064c0.264-0.222,0.559-0.43,0.816-0.685
			c0.27-0.245,0.537-0.499,0.795-0.765s0.496-0.548,0.732-0.826c0.244-0.269,0.438-0.574,0.646-0.851
			c0.213-0.273,0.375-0.569,0.541-0.84c0.174-0.267,0.311-0.534,0.428-0.786c0.254-0.491,0.414-0.927,0.516-1.233
			c0.104-0.306,0.152-0.482,0.152-0.482s-0.119,0.141-0.326,0.388c-0.197,0.251-0.479,0.605-0.822,1.019
			c-0.334,0.421-0.746,0.892-1.18,1.394c-0.443,0.495-0.906,1.026-1.408,1.525c-0.973,1.025-2.004,2.001-2.799,2.729
			c-0.23,0.211-0.43,0.393-0.609,0.558c-0.76,0.326-1.586,0.665-2.473,1.004c0.092-0.097,0.188-0.189,0.277-0.289
			c1.029-1.132,1.938-2.344,2.543-3.296c0.32-0.463,0.545-0.877,0.719-1.153c0.17-0.28,0.266-0.44,0.266-0.44
			s-0.123,0.142-0.336,0.39c-0.217,0.244-0.504,0.611-0.895,1.012c-0.746,0.828-1.826,1.853-2.979,2.756
			c-1.145,0.91-2.395,1.65-3.35,2.101c-0.314,0.145-0.953,0.41-1.438,0.602c-0.34,0.09-0.674,0.182-1.025,0.266
			c-0.621,0.151-1.268,0.287-1.924,0.411c0.449-0.344,0.904-0.705,1.352-1.086c1.156-0.976,2.227-2.038,2.971-2.881
			c0.375-0.42,0.672-0.78,0.869-1.042c0.201-0.256,0.316-0.402,0.316-0.402s-0.139,0.125-0.379,0.344
			c-0.236,0.224-0.588,0.527-1.021,0.873c-0.865,0.699-2.072,1.548-3.338,2.294c-1.26,0.753-2.574,1.405-3.57,1.853
			c-0.689,0.313-1.211,0.52-1.471,0.619c-0.41,0.033-0.816,0.072-1.23,0.095c-0.541,0.029-1.092,0.041-1.643,0.05
			c0.318-0.228,0.635-0.463,0.951-0.709c1.047-0.813,2.02-1.711,2.693-2.431c0.678-0.716,1.07-1.237,1.07-1.237
			s-0.486,0.438-1.275,1.002c-0.787,0.568-1.885,1.246-3.027,1.824c-1.141,0.583-2.322,1.074-3.209,1.389
			c-0.131,0.044-0.24,0.08-0.359,0.12c-1.018-0.04-2.051-0.1-3.1-0.174c0.803-0.518,1.547-1.085,2.076-1.547
			c0.551-0.471,0.895-0.802,0.895-0.802s-0.42,0.232-1.064,0.539c-0.641,0.314-1.52,0.675-2.406,0.952
			c-0.887,0.284-1.789,0.459-2.449,0.534c-0.141,0.016-0.264,0.025-0.381,0.033c-0.979-0.099-1.967-0.213-2.959-0.34
			c0.641-0.293,1.238-0.607,1.693-0.884c0.588-0.362,0.941-0.647,0.941-0.647s-0.42,0.178-1.066,0.361
			c-0.65,0.18-1.525,0.354-2.408,0.459c-0.883,0.107-1.771,0.161-2.432,0.18c-0.119,0.004-0.221,0.005-0.324,0.007
			c-0.793-0.124-1.588-0.278-2.385-0.423c0.395-0.204,0.754-0.415,1.039-0.611c0.262-0.188,0.475-0.344,0.609-0.472
			c0.137-0.12,0.217-0.188,0.217-0.188s-0.096,0.042-0.264,0.116c-0.162,0.08-0.408,0.165-0.699,0.264
			c-0.588,0.183-1.389,0.34-2.197,0.408c-0.352,0.03-0.703,0.046-1.039,0.053c-1.143-0.234-2.283-0.495-3.42-0.768
			c0.578-0.242,1.113-0.502,1.525-0.742c0.301-0.183,0.549-0.334,0.711-0.459c0.164-0.117,0.258-0.185,0.258-0.185
			s-0.426,0.183-1.088,0.356c-0.662,0.171-1.555,0.315-2.453,0.379c-0.5,0.036-0.998,0.049-1.459,0.049
			c-2.492-0.636-4.943-1.379-7.309-2.241c-1.457-0.502-2.844-1.115-4.223-1.707c-1.33-0.664-2.693-1.283-3.861-2.016
			c-2.523-1.477-4.592-3.233-6.318-5.222c-1.703-2.003-3.045-4.131-4.184-6.156c-0.277-0.513-0.549-1.015-0.816-1.504
			c-0.246-0.503-0.484-0.993-0.719-1.472c-0.49-0.948-0.891-1.883-1.281-2.755c-0.389-0.875-0.756-1.695-1.055-2.471
			c-0.336-0.765-0.607-1.481-0.863-2.127c-1.006-2.589-1.559-4.114-1.559-4.114s-0.002,0.404,0.043,1.163
			c0.045,0.758,0.166,1.862,0.393,3.262c0.248,1.396,0.621,3.078,1.195,4.977c0.617,1.881,1.375,3.999,2.514,6.183
			c1.133,2.182,2.557,4.465,4.369,6.681c1.828,2.193,4.191,4.249,6.811,5.834c2.709,1.692,5.584,2.946,8.613,4.031
			c3.014,1.095,6.129,2.003,9.279,2.734c3.148,0.74,6.33,1.305,9.473,1.737c3.145,0.447,6.254,0.765,9.281,0.91
			c3.016,0.148,5.973,0.203,8.742-0.024c2.834-0.226,5.447-0.703,7.812-1.347c2.365-0.651,4.459-1.481,6.236-2.358
			s3.242-1.78,4.414-2.562c1.168-0.791,2.051-1.448,2.654-1.898C250.326,90.515,250.646,90.272,250.646,90.272 M267.062,85.592
			c-0.314,0.625-0.648,1.298-1.029,1.993c-0.391,0.688-0.807,1.405-1.287,2.11c-0.48,0.692-1.006,1.419-1.59,2.032l-0.428,0.464
			c-0.154,0.158-0.34,0.316-0.51,0.475c-0.158,0.138-0.375,0.367-0.486,0.429l-0.525,0.385c-0.701,0.519-1.488,0.952-2.279,1.353
			c-0.803,0.389-1.615,0.735-2.424,1.034c-0.809,0.302-1.604,0.562-2.365,0.799c-0.764,0.236-1.494,0.432-2.17,0.626
			c-2.711,0.718-4.572,1.106-4.572,1.106s0.475,0.035,1.307,0.018c0.832,0.001,2.016-0.07,3.439-0.23
			c0.711-0.073,1.475-0.206,2.285-0.352c0.807-0.16,1.654-0.363,2.525-0.605c0.867-0.258,1.754-0.569,2.646-0.934
			c0.879-0.404,1.766-0.849,2.592-1.435l0.605-0.46c0.275-0.206,0.369-0.336,0.564-0.507c0.17-0.165,0.34-0.313,0.51-0.491
			l0.5-0.577c0.652-0.771,1.16-1.555,1.633-2.345c0.443-0.801,0.84-1.585,1.154-2.353c0.314-0.769,0.584-1.5,0.785-2.191
			c0.418-1.375,0.67-2.54,0.791-3.366c0.139-0.82,0.162-1.297,0.162-1.297s-0.17,0.44-0.471,1.212
			C268.105,83.245,267.668,84.336,267.062,85.592 M282.891,73.192c-0.043-0.189-0.086-0.379-0.127-0.564
			c-0.086-0.371-0.168-0.734-0.248-1.088c-0.133-0.713-0.447-1.329-0.676-1.909c-0.281-0.562-0.447-1.106-0.758-1.518
			c-0.287-0.422-0.525-0.788-0.746-1.076c-0.209-0.293-0.381-0.515-0.506-0.661c-0.119-0.149-0.184-0.229-0.184-0.229
			s0.02,0.102,0.053,0.294c0.031,0.194,0.084,0.473,0.162,0.817c0.059,0.299,0.152,0.649,0.25,1.035
			c-0.105-0.134-0.203-0.27-0.311-0.399c-0.426-0.529-0.887-1.027-1.344-1.461c-0.455-0.44-0.904-0.82-1.307-1.116
			c-0.396-0.306-0.744-0.532-0.994-0.68c-0.244-0.153-0.385-0.24-0.385-0.24s0.121,0.112,0.334,0.308
			c0.215,0.19,0.51,0.476,0.834,0.844c0.332,0.356,0.689,0.802,1.037,1.298c0.354,0.492,0.693,1.039,0.994,1.605
			c0.615,1.125,1.07,2.319,1.344,3.224c0.139,0.451,0.23,0.831,0.291,1.092c0.059,0.264,0.285,2.244,0.293,2.282
			c0.008,0.343,0.004,0.688-0.043,1.036c-0.027,0.368-0.057,0.739-0.082,1.111c-0.006,0.084-0.025,0.167-0.039,0.251
			c-0.148-0.428-0.312-0.863-0.498-1.294c-0.473-1.113-1.07-2.157-1.576-2.89c-0.246-0.371-0.473-0.663-0.637-0.863
			c-0.16-0.202-0.252-0.316-0.252-0.316s0.064,0.132,0.18,0.362c0.115,0.229,0.273,0.559,0.434,0.966
			c0.332,0.808,0.684,1.913,0.896,3.038c0.223,1.124,0.322,2.26,0.338,3.102c0.01,0.422,0,0.769-0.01,1.007
			c-0.016,0.229-0.297,2.013-0.297,2.013c-0.215,0.466-0.416,0.922-0.629,1.362c-0.02-0.359-0.049-0.722-0.096-1.086
			c-0.135-1.09-0.406-2.145-0.67-2.906c-0.121-0.383-0.252-0.691-0.338-0.908c-0.088-0.216-0.137-0.34-0.137-0.34l-0.092,0.03
			c0,0,0.02,0.13,0.057,0.357c0.037,0.229,0.094,0.552,0.125,0.944c0.084,0.78,0.111,1.823,0.008,2.842
			c-0.102,1.021-0.314,2.013-0.543,2.721c-0.107,0.356-0.219,0.64-0.297,0.832c-0.08,0.196-1.424,2.959-1.43,2.977
			c0,0,0.352-0.205,0.918-0.638c0.568-0.432,1.336-1.106,2.172-2.014c0.408-0.46,0.84-0.972,1.256-1.548
			c0.447-0.557,0.797-1.223,1.215-1.883c0.363-0.691,0.74-1.413,1.023-2.188c0.281-0.776,0.594-1.564,0.732-2.402
			c0.082-0.414,0.203-0.823,0.248-1.242c0.043-0.421,0.086-0.839,0.127-1.254c0.127-0.831,0.006-1.656-0.027-2.448
			C282.92,73.582,282.914,73.387,282.891,73.192 M257.99,82.696c-0.113,0.177-0.201,0.382-0.336,0.578
			c-0.123,0.2-0.254,0.41-0.389,0.628c-0.285,0.423-0.578,0.874-0.91,1.301c-0.328,0.428-0.676,0.845-1.025,1.217
			c-0.342,0.379-0.688,0.716-0.992,1c-0.607,0.569-1.066,0.936-1.066,0.936s0.594-0.077,1.379-0.485
			c0.793-0.388,1.752-1.119,2.484-2.059c0.199-0.22,0.346-0.482,0.512-0.721c0.162-0.243,0.287-0.504,0.412-0.751
			c0.23-0.504,0.404-0.991,0.49-1.426c0.117-0.425,0.137-0.797,0.15-1.053c0.014-0.255,0.01-0.401,0.01-0.401
			s-0.086,0.125-0.211,0.344C258.369,82.022,258.209,82.338,257.99,82.696 M263.314,76.522c0,0-0.035,0.14-0.098,0.387
			c-0.061,0.243-0.104,0.59-0.217,0.992c-0.084,0.406-0.221,0.862-0.357,1.345c-0.166,0.476-0.344,0.974-0.568,1.45
			c-0.451,0.951-1.033,1.838-1.557,2.469c-0.514,0.636-0.934,1.045-0.934,1.045s0.596-0.104,1.33-0.607
			c0.367-0.246,0.771-0.584,1.125-1.016c0.186-0.209,0.359-0.441,0.51-0.693c0.166-0.244,0.293-0.515,0.426-0.782
			c0.117-0.273,0.213-0.556,0.316-0.83c0.066-0.284,0.129-0.562,0.193-0.834c0.041-0.273,0.055-0.542,0.08-0.791
			c0.023-0.25-0.006-0.491-0.008-0.708c-0.006-0.436-0.1-0.794-0.146-1.041C263.354,76.66,263.314,76.522,263.314,76.522
			 M270.881,41.808c0.85-0.263,1.678-0.593,2.428-0.975c0.752-0.363,1.434-0.763,1.977-1.167c0.547-0.39,0.971-0.767,1.221-1.069
			c0.26-0.297,0.391-0.471,0.391-0.471s-0.186,0.12-0.508,0.329c-0.15,0.114-0.359,0.218-0.598,0.334
			c-0.23,0.126-0.486,0.27-0.791,0.388c-0.59,0.257-1.291,0.529-2.055,0.786c-0.758,0.266-1.588,0.506-2.404,0.781
			c-0.818,0.281-1.639,0.563-2.408,0.826c-0.775,0.253-1.504,0.489-2.125,0.691c-1.254,0.406-2.092,0.677-2.092,0.677
			s0.889-0.008,2.201-0.177c0.66-0.07,1.422-0.197,2.236-0.351C269.166,42.254,270.035,42.074,270.881,41.808 M279.984,39.821
			c-0.41,0.17-0.834,0.347-1.266,0.525c-0.441,0.152-0.877,0.337-1.32,0.506c-0.447,0.16-0.879,0.358-1.324,0.512
			c-0.439,0.17-0.871,0.336-1.297,0.477c-0.852,0.293-1.658,0.529-2.352,0.744c-0.699,0.192-1.283,0.354-1.691,0.466
			c-0.414,0.101-0.65,0.159-0.65,0.159s0.979,0.014,2.436-0.16c0.729-0.088,1.578-0.21,2.477-0.411
			c0.902-0.183,1.859-0.425,2.791-0.76c0.928-0.341,1.812-0.803,2.605-1.285c0.389-0.259,0.773-0.489,1.117-0.741
			c0.34-0.261,0.652-0.514,0.936-0.751c0.266-0.259,0.51-0.495,0.725-0.706c0.219-0.205,0.361-0.435,0.5-0.596
			c0.264-0.336,0.414-0.527,0.414-0.527s-0.189,0.152-0.521,0.419c-0.172,0.125-0.352,0.308-0.607,0.457
			c-0.242,0.163-0.514,0.346-0.812,0.545C281.52,39.051,280.795,39.455,279.984,39.821 M281.893,41.006
			c-1.145,0.628-1.893,1.1-1.893,1.1s0.873-0.161,2.121-0.575c1.252-0.404,2.877-1.067,4.43-1.886
			c0.773-0.416,1.535-0.859,2.219-1.327c0.688-0.46,1.299-0.938,1.791-1.387c0.256-0.209,0.459-0.444,0.646-0.637
			c0.193-0.189,0.342-0.371,0.457-0.531c0.229-0.312,0.357-0.49,0.357-0.49s-0.18,0.126-0.494,0.347
			c-0.148,0.117-0.342,0.242-0.566,0.384c-0.225,0.14-0.463,0.309-0.744,0.47c-1.1,0.671-2.607,1.488-4.133,2.287
			c-0.762,0.404-1.523,0.809-2.238,1.188C283.129,40.326,282.461,40.687,281.893,41.006 M295.033,37.286
			c-0.244,0.182-0.605,0.415-1.041,0.68c-0.207,0.147-0.461,0.262-0.709,0.411c-0.244,0.152-0.521,0.283-0.803,0.425
			c-0.557,0.293-1.172,0.557-1.789,0.815c-0.621,0.256-1.254,0.479-1.85,0.696c-0.604,0.204-1.168,0.394-1.65,0.558
			c-0.988,0.328-1.65,0.547-1.65,0.547s0.709,0.133,1.768,0.045c0.527-0.035,1.143-0.125,1.787-0.279
			c0.324-0.071,0.652-0.171,0.986-0.278c0.326-0.121,0.668-0.22,0.99-0.377c0.652-0.28,1.287-0.609,1.84-0.988
			c0.559-0.363,1.039-0.77,1.418-1.145c0.381-0.372,0.662-0.715,0.834-0.975c0.174-0.255,0.275-0.398,0.275-0.398
			S295.291,37.118,295.033,37.286 M276.051,48.396c0.898-0.147,1.783-0.368,2.602-0.615c0.818-0.251,1.566-0.528,2.189-0.808
			c0.307-0.152,0.586-0.291,0.834-0.414c0.248-0.12,0.447-0.268,0.615-0.367c0.332-0.214,0.523-0.336,0.523-0.336
			s-0.215,0.073-0.588,0.2c-0.188,0.06-0.4,0.157-0.668,0.219c-0.262,0.074-0.555,0.158-0.873,0.25
			c-0.652,0.146-1.402,0.321-2.221,0.457c-0.818,0.125-1.691,0.238-2.566,0.344c-0.875,0.13-1.75,0.26-2.57,0.381
			c-0.83,0.109-1.602,0.212-2.264,0.3c-1.338,0.159-2.23,0.267-2.23,0.267s0.891,0.179,2.246,0.259
			c0.676,0.05,1.467,0.07,2.316,0.055C274.246,48.585,275.154,48.528,276.051,48.396 M277.051,50.714
			c0.861-0.054,1.797-0.082,2.701-0.288c0.906-0.205,1.781-0.532,2.586-0.851c0.805-0.322,1.537-0.663,2.137-1.008
			c0.611-0.318,1.09-0.638,1.422-0.865c0.332-0.221,0.52-0.347,0.52-0.347s-0.209,0.089-0.578,0.245
			c-0.361,0.162-0.887,0.375-1.527,0.595c-0.316,0.122-0.664,0.237-1.037,0.339c-0.373,0.106-0.756,0.239-1.168,0.328
			c-0.814,0.214-1.693,0.371-2.57,0.526c-0.869,0.189-1.738,0.402-2.566,0.55c-0.83,0.135-1.611,0.253-2.285,0.317
			c-1.352,0.142-2.268,0.142-2.268,0.142s0.896,0.203,2.275,0.286C275.379,50.733,276.186,50.745,277.051,50.714 M288.658,49.722
			c0.211-0.152,0.377-0.339,0.533-0.482c0.16-0.138,0.271-0.291,0.365-0.414c0.184-0.245,0.277-0.387,0.277-0.387
			s-0.148,0.087-0.41,0.239c-0.123,0.08-0.273,0.171-0.461,0.259c-0.186,0.086-0.379,0.203-0.607,0.301
			c-0.453,0.203-0.982,0.423-1.562,0.636c-0.584,0.205-1.201,0.433-1.836,0.62c-1.262,0.406-2.543,0.787-3.508,1.098
			c-0.967,0.305-1.615,0.557-1.615,0.557s0.695,0.083,1.723,0.009c0.514-0.032,1.111-0.102,1.744-0.222
			c0.635-0.114,1.301-0.282,1.959-0.49C286.576,51.024,287.838,50.39,288.658,49.722 M292.035,51.446
			c-0.855,0.219-1.998,0.47-3.146,0.723c-1.148,0.26-2.303,0.532-3.17,0.774c-0.867,0.236-1.447,0.454-1.447,0.454
			s0.611,0.114,1.523,0.111c0.912,0.007,2.121-0.104,3.311-0.365c1.186-0.265,2.348-0.692,3.148-1.164
			c0.4-0.237,0.719-0.457,0.916-0.646c0.203-0.182,0.311-0.289,0.311-0.289s-0.148,0.041-0.406,0.115
			C292.828,51.246,292.457,51.327,292.035,51.446 M266.156,44.656c-0.211-0.14-0.531-0.293-0.938-0.424
			c-0.402-0.128-0.893-0.225-1.418-0.252c-0.523-0.032-1.084-0.004-1.631,0.086c-1.096,0.176-2.119,0.618-2.816,1.063
			c-0.707,0.436-1.082,0.893-1.082,0.893s0.582,0.011,1.369-0.074c0.793-0.075,1.799-0.228,2.781-0.405
			c0.494-0.075,0.982-0.178,1.443-0.252c0.23-0.021,0.457-0.093,0.67-0.111c0.213-0.021,0.42-0.077,0.609-0.099
			c0.381-0.05,0.715-0.113,0.949-0.137c0.24-0.036,0.387-0.068,0.387-0.068S266.369,44.789,266.156,44.656 M264.059,47.934
			c-0.488-0.096-1.021-0.146-1.545-0.124c-1.051,0.023-2.064,0.297-2.781,0.612c-0.725,0.307-1.148,0.663-1.148,0.663
			s0.543,0.114,1.293,0.16c0.377,0.029,0.809,0.044,1.264,0.053c0.451,0.005,0.932,0.014,1.402,0.006s0.939-0.016,1.379-0.022
			c0.219,0,0.432-0.005,0.639-0.02c0.199,0.008,0.393,0.006,0.578-0.009c0.355,0.017,0.68-0.011,0.902,0.006
			c0.23,0.002,0.375-0.008,0.375-0.008s-0.082-0.107-0.254-0.276c-0.168-0.18-0.443-0.379-0.803-0.579
			C264.998,48.206,264.549,48.043,264.059,47.934 M16.655,21.986c0.722,0.604,1.849,1.445,3.454,2.219
			c1.598,0.778,3.662,1.507,6.117,1.942c1.227,0.226,2.546,0.342,3.943,0.421c1.393-0.015,2.865,0.005,4.382-0.183
			c0.38-0.037,0.764-0.075,1.152-0.113c0.383-0.066,0.77-0.132,1.161-0.198c0.778-0.147,1.585-0.238,2.379-0.44
			c1.587-0.378,3.262-0.784,4.872-1.285c0.913-0.269,1.841-0.554,2.778-0.85c-2.562,2.907-5.184,7.623-6.09,15.123
			c-1.888,15.62,9.882,31.499,21.626,35.982c3.501,1.336,12.138,4.152,22.648,4.152c7.523-0.001,16.006-1.444,24.245-5.907
			c12.617-6.833,14.412-17.238,14.4-24.499c0.238,0.088,0.478,0.179,0.707,0.286c0.549,0.254,1.068,0.559,1.534,0.913
			c0.931,0.712,1.626,1.635,1.916,2.706c0.072,0.259,0.134,0.558,0.154,0.805c0.018,0.113,0.028,0.268,0.03,0.446l0.006,0.209
			l-0.008,0.189c-0.037,0.501-0.191,0.947-0.481,1.336c-0.287,0.391-0.708,0.724-1.2,0.986c-0.245,0.132-0.509,0.243-0.779,0.339
			c-0.263,0.093-0.578,0.179-0.797,0.218l-0.81,0.724c-0.69,2.037-1.736,4.115-2.904,6.013c-1.181,1.914-2.562,3.697-4.101,5.319
			c-1.528,1.632-3.237,3.085-5.075,4.341c-0.925,0.618-1.874,1.202-2.861,1.716c-0.489,0.272-0.979,0.483-1.466,0.73
			c-0.515,0.221-1.096,0.484-1.568,0.668c-4.217,1.706-8.603,2.976-13.08,3.686c-4.476,0.726-9.028,0.844-13.54,0.501
			c-2.258-0.173-4.5-0.521-6.723-0.959c-2.223-0.44-4.425-1.012-6.584-1.719c-2.158-0.707-4.283-1.538-6.344-2.499
			c-2.089-0.97-4.01-2.026-5.758-3.445c-1.764-1.381-3.382-2.988-4.81-4.757c-1.425-1.774-2.703-3.662-4.05-5.517
			c-1.32-1.875-2.552-3.821-3.757-5.797c-1.186-1.986-2.322-4.012-3.402-6.084c0.606,2.263,1.43,4.461,2.348,6.621
			c0.912,2.166,1.978,4.269,3.153,6.318c1.172,2.053,2.578,3.975,4.149,5.76c1.551,1.798,3.179,3.553,5.03,5.101
			c1.818,1.584,3.976,2.832,6.059,3.902c2.113,1.09,4.291,2.045,6.522,2.873c4.469,1.628,9.151,2.732,13.909,3.15
			c4.754,0.461,9.566,0.219,14.27-0.554c2.352-0.393,4.678-0.927,6.964-1.593c2.283-0.674,4.539-1.445,6.719-2.392
			c0.605-0.253,1.077-0.486,1.625-0.734c0.546-0.285,1.118-0.554,1.639-0.857c1.064-0.584,2.085-1.245,3.078-1.94
			c1.972-1.41,3.792-3.034,5.405-4.832c1.614-1.797,3.016-3.784,4.21-5.869c1.097-1.928,2.011-3.922,2.683-6.096
			c0.178-0.045,0.348-0.104,0.526-0.165c0.36-0.128,0.716-0.221,1.06-0.406c0.688-0.366,1.355-0.87,1.867-1.561
			c0.519-0.685,0.818-1.554,0.871-2.389l0.012-0.312l-0.008-0.293c-0.002-0.157-0.011-0.337-0.037-0.556
			c-0.039-0.421-0.115-0.78-0.221-1.167c-0.41-1.53-1.43-2.85-2.625-3.753c-0.601-0.457-1.244-0.833-1.912-1.142
			c-0.334-0.154-0.674-0.291-1.02-0.412c-0.193-0.066-0.382-0.127-0.577-0.183c-0.038-0.872-0.091-1.68-0.139-2.4
			c-0.037-0.545-0.07-1.038-0.091-1.473c-0.213-4.771-5.003-12.315-9.917-17.36c1.514,0.398,3.016,0.682,4.492,0.802
			c0.387,0.031,0.771,0.063,1.15,0.096c0.374,0.008,0.745,0.016,1.11,0.023c0.356,0.007,0.708,0.014,1.055,0.02
			c0.361-0.031,0.723-0.055,1.074-0.098c0.352-0.041,0.699-0.08,1.043-0.119c0.335-0.06,0.666-0.117,0.992-0.176
			c0.652-0.102,1.279-0.241,1.881-0.396c2.418-0.584,4.421-1.428,5.976-2.261c1.562-0.829,2.666-1.673,3.384-2.274
			c0.715-0.606,1.039-0.986,1.039-0.986s-0.377,0.328-1.164,0.817c-0.783,0.492-1.984,1.128-3.58,1.738
			c-1.599,0.605-3.604,1.148-5.938,1.449c-0.582,0.081-1.185,0.146-1.81,0.17c-0.312,0.019-0.627,0.039-0.946,0.059
			c-0.316-0.001-0.636-0.002-0.96-0.002c-0.108,0.001-0.223,0.003-0.332,0.004c0.516-0.197,1.031-0.413,1.537-0.647
			c0.512-0.218,1.008-0.465,1.492-0.714c0.487-0.238,0.959-0.488,1.405-0.75c0.447-0.26,0.892-0.485,1.288-0.742
			c0.4-0.25,0.779-0.485,1.128-0.703c0.699-0.434,1.251-0.841,1.65-1.105c0.395-0.269,0.62-0.423,0.62-0.423
			s-0.241,0.127-0.666,0.35c-0.426,0.217-1.018,0.558-1.758,0.905c-0.369,0.176-0.769,0.365-1.19,0.566
			c-0.418,0.207-0.882,0.38-1.349,0.583c-0.465,0.205-0.953,0.396-1.455,0.574c-0.498,0.188-1.006,0.372-1.522,0.524
			c-1.021,0.34-2.064,0.596-3.04,0.79c-0.976,0.19-1.891,0.306-2.666,0.333c-0.775,0.042-1.408,0.003-1.824-0.054
			c-0.208-0.021-0.373-0.06-0.451-0.075c-0.091-0.024-0.14-0.037-0.14-0.037l-0.009,0.04c-1.473-0.344-2.984-0.824-4.521-1.403
			c0.518-0.05,1.047-0.086,1.578-0.176c0.63-0.098,1.269-0.18,1.897-0.326c0.63-0.129,1.259-0.258,1.866-0.433
			c0.609-0.164,1.211-0.309,1.777-0.507c1.147-0.349,2.19-0.74,3.078-1.088c0.896-0.326,1.606-0.688,2.119-0.897
			c0.508-0.223,0.798-0.35,0.798-0.35s-0.301,0.098-0.828,0.27c-0.531,0.159-1.269,0.446-2.188,0.682
			c-0.912,0.258-1.978,0.541-3.136,0.771c-0.572,0.139-1.176,0.223-1.785,0.324c-0.606,0.112-1.229,0.176-1.85,0.24
			c-0.618,0.081-1.242,0.099-1.852,0.133c-0.61,0.043-1.21,0.008-1.787,0.017c-0.577-0.038-1.135-0.045-1.656-0.113
			c-0.523-0.051-1.012-0.119-1.457-0.204c-0.412-0.077-0.783-0.16-1.115-0.244c-1.218-0.545-2.456-1.108-3.726-1.679
			c1.516,0.072,3.119,0.068,4.718-0.022c0.837-0.02,1.668-0.139,2.487-0.204c0.818-0.073,1.616-0.223,2.39-0.326
			c0.774-0.104,1.509-0.291,2.211-0.422c0.704-0.126,1.355-0.314,1.958-0.47c0.601-0.167,1.159-0.286,1.638-0.451
			c0.48-0.158,0.899-0.295,1.243-0.409c0.689-0.226,1.082-0.355,1.082-0.355s-0.402,0.1-1.105,0.273
			c-0.352,0.086-0.778,0.192-1.267,0.312c-0.486,0.128-1.052,0.204-1.659,0.324c-0.609,0.109-1.264,0.247-1.97,0.318
			c-0.704,0.077-1.439,0.205-2.209,0.251c-0.771,0.043-1.562,0.132-2.371,0.144c-0.808,0.002-1.626,0.059-2.446,0.015
			c-1.638-0.03-3.27-0.148-4.787-0.344c-0.761-0.078-1.487-0.223-2.178-0.321c-0.686-0.141-1.338-0.244-1.928-0.393
			c-0.899-0.193-1.669-0.407-2.282-0.588c-2.373-0.866-4.84-1.627-7.416-2.134c-3.984-0.813-8.038-0.896-12.065-0.656
			c-2.016,0.103-4.03,0.365-6.024,0.687c-1.985,0.372-3.958,0.803-5.858,1.385c-3.824,1.122-7.411,2.543-10.876,3.842
			c-3.472,1.31-6.818,2.468-10.061,3.459c-1.639,0.528-3.181,0.915-4.708,1.3c-0.757,0.202-1.52,0.294-2.26,0.443
			c-0.37,0.068-0.738,0.135-1.101,0.202c-0.367,0.039-0.73,0.079-1.089,0.117c-2.868,0.379-5.526,0.385-7.855,0.148
			c-2.332-0.221-4.341-0.669-5.961-1.181c-1.624-0.505-2.841-1.093-3.657-1.522c-0.819-0.431-1.224-0.729-1.224-0.729
			S15.938,21.37,16.655,21.986 M51.905,21.829c0.813-0.284,1.629-0.575,2.448-0.875c3.514-1.246,7.057-2.714,10.728-3.784
			c3.661-1.113,7.478-1.784,11.363-2.018c0.969-0.075,1.942-0.12,2.917-0.128l1.415-0.033l1.481,0.054l1.478,0.054l1.4,0.162
			l1.396,0.163l1.401,0.263c3.732,0.706,7.299,1.955,10.691,3.366c1.666,0.69,3.292,1.42,4.898,2.134l-0.012,0.028
			c0,0,0.087,0.031,0.251,0.091c0.034,0.012,0.076,0.023,0.112,0.036c1.549,0.687,3.08,1.358,4.605,1.961
			c0.087,0.035,0.175,0.066,0.263,0.102c5.468,4.04,12.466,13.737,12.702,19.037c0.021,0.448,0.056,0.957,0.093,1.519
			c0.421,6.264,1.296,19.298-13.165,27.131c-19,10.293-39.422,3.861-45.228,1.645c-11.054-4.219-22.131-19.168-20.354-33.873
			C44.12,27.852,49.294,23.401,51.905,21.829 M133.711,54.47c-0.233-0.843-0.392-1.28-0.392-1.28s0.254,1.852,0.287,5.058
			c0.012,1.601-0.051,3.544-0.361,5.723c-0.059,0.551-0.174,1.089-0.266,1.654c-0.133,0.562-0.248,1.228-0.418,1.757
			c-0.297,1.179-0.744,2.396-1.244,3.649c-1.027,2.5-2.392,5.129-4.076,7.753c-1.699,2.614-3.653,5.277-6.071,7.615
			c-1.139,1.094-2.549,2.071-4.036,2.904c-1.489,0.844-3.076,1.597-4.735,2.223c-1.294,0.5-2.629,0.936-3.98,1.336
			c-0.321,0.022-0.74,0.047-1.242,0.069c-1.159,0.049-2.71,0.075-4.261,0.013c-0.775-0.029-1.548-0.089-2.274-0.158
			c-0.724-0.078-1.396-0.179-1.971-0.283c-0.569-0.121-1.05-0.22-1.375-0.325c-0.33-0.097-0.518-0.151-0.518-0.151
			s0.178,0.084,0.488,0.231c0.308,0.158,0.768,0.332,1.322,0.547c0.559,0.198,1.22,0.407,1.938,0.604
			c0.719,0.188,1.492,0.373,2.27,0.529c0.272,0.055,0.543,0.104,0.814,0.153c-0.326,0.07-0.653,0.142-0.98,0.207l0.002-0.016
			c0,0-0.88-0.035-2.231-0.163c-1.345-0.128-3.14-0.344-4.921-0.662c-1.78-0.315-3.543-0.745-4.843-1.151
			c-0.647-0.211-1.188-0.391-1.556-0.543c-0.373-0.144-0.585-0.226-0.585-0.226s0.199,0.11,0.549,0.304
			c0.346,0.201,0.858,0.455,1.478,0.756c1.246,0.586,2.96,1.264,4.714,1.831c0.825,0.267,1.655,0.511,2.446,0.729
			c-0.679,0.104-1.357,0.2-2.036,0.29c-1.002-0.103-2.429-0.25-3.246-0.327c-1.345-0.128-3.14-0.344-4.921-0.662
			c-1.78-0.315-3.543-0.745-4.843-1.151c-0.647-0.211-1.188-0.391-1.556-0.543c-0.373-0.144-0.585-0.226-0.585-0.226
			s0.199,0.11,0.549,0.304c0.346,0.201,0.858,0.455,1.478,0.756c1.246,0.586,2.96,1.264,4.714,1.831
			c0.766,0.248,1.533,0.474,2.273,0.68c-1.213,0.115-2.418,0.241-3.643,0.283c-0.253,0.012-0.505,0.039-0.757,0.07
			c-0.32-0.055-0.682-0.117-1.086-0.195c-1.482-0.279-3.453-0.72-5.386-1.301c-0.97-0.281-1.923-0.611-2.806-0.954
			c-0.447-0.158-0.857-0.358-1.258-0.526c-0.404-0.164-0.756-0.372-1.098-0.537c-0.347-0.161-0.628-0.363-0.897-0.517
			c-0.27-0.153-0.491-0.307-0.664-0.446c-0.357-0.267-0.561-0.42-0.561-0.42s0.184,0.177,0.506,0.487
			c0.158,0.161,0.36,0.343,0.612,0.528c0.249,0.188,0.514,0.43,0.84,0.634c0.323,0.208,0.66,0.466,1.045,0.681
			c0.383,0.22,0.779,0.475,1.21,0.691c0.851,0.456,1.779,0.911,2.726,1.317c0.585,0.257,1.17,0.495,1.75,0.725
			c-1.485-0.053-2.943-0.258-4.376-0.32c-0.696-0.03-1.377-0.229-2.054-0.341c-0.096-0.046-0.194-0.093-0.297-0.144
			c-0.997-0.484-2.315-1.18-3.569-1.986c-1.259-0.799-2.452-1.706-3.294-2.456c-0.42-0.376-0.762-0.7-0.986-0.943
			c-0.231-0.237-0.363-0.373-0.363-0.373s0.108,0.156,0.297,0.428c0.183,0.278,0.468,0.657,0.826,1.104
			c0.716,0.89,1.769,2.01,2.914,3.036c0.305,0.276,0.616,0.544,0.927,0.804c-1.236-0.225-2.446-0.437-3.6-0.75
			c-0.114-0.029-0.227-0.055-0.341-0.083c-0.253-0.157-0.565-0.354-0.921-0.589c-0.968-0.641-2.233-1.546-3.426-2.548
			c-1.194-0.999-2.293-2.112-3.036-3.024c-0.361-0.462-0.664-0.852-0.843-1.146c-0.19-0.289-0.299-0.453-0.299-0.453
			s0.082,0.18,0.224,0.495c0.132,0.322,0.37,0.757,0.661,1.281c0.6,1.035,1.535,2.346,2.59,3.558
			c0.411,0.474,0.835,0.929,1.254,1.364c-1.288-0.379-2.486-0.859-3.642-1.265c-0.265-0.113-0.52-0.214-0.781-0.32
			c-0.267-0.229-0.603-0.524-0.994-0.883c-0.962-0.879-2.215-2.095-3.38-3.396c-1.169-1.299-2.24-2.688-2.966-3.787
			c-0.357-0.554-0.649-1.021-0.828-1.362c-0.189-0.338-0.297-0.53-0.297-0.53s0.08,0.206,0.22,0.567
			c0.129,0.366,0.354,0.871,0.633,1.479c0.57,1.205,1.451,2.762,2.448,4.246c0.476,0.714,0.976,1.408,1.462,2.056
			c-1.5-0.683-2.823-1.328-3.978-1.842c-0.232-0.11-0.442-0.209-0.658-0.312c-0.061-0.059-0.145-0.141-0.254-0.248
			c-0.228-0.233-0.556-0.577-0.927-1.013c-0.754-0.863-1.687-2.094-2.497-3.416c-0.41-0.658-0.784-1.34-1.108-1.994
			c-0.322-0.655-0.61-1.279-0.814-1.83c-0.222-0.545-0.376-1.012-0.478-1.341c-0.106-0.328-0.167-0.516-0.167-0.516
			s0.021,0.195,0.059,0.541c0.033,0.348,0.109,0.839,0.231,1.425c0.099,0.593,0.284,1.268,0.516,1.981
			c0.23,0.716,0.506,1.472,0.825,2.21c0.435,0.965,0.936,1.887,1.422,2.698c-0.491-0.232-0.758-0.358-0.758-0.358
			s0.074,0.092,0.219,0.27c0.144,0.179,0.371,0.438,0.682,0.752c0.615,0.641,1.579,1.513,2.907,2.492
			c0.672,0.474,1.416,1.009,2.277,1.5c0.839,0.533,1.793,1.026,2.827,1.521c1.022,0.521,2.164,0.953,3.34,1.474
			c1.207,0.442,2.457,0.964,3.806,1.379c0.673,0.213,1.36,0.427,2.059,0.648c0.703,0.214,1.433,0.372,2.168,0.57
			c1.466,0.418,3.019,0.666,4.605,0.989c0.792,0.175,1.612,0.21,2.433,0.337c0.825,0.098,1.653,0.199,2.502,0.248
			c1.697,0.108,3.428,0.135,5.197,0.135h2.688c0.879,0,1.764,0.038,2.654-0.003c1.771-0.057,3.614-0.117,5.448-0.241
			c3.658-0.347,7.372-0.816,11.046-1.575c3.674-0.749,7.317-1.746,10.785-3.131c1.737-0.679,3.42-1.486,5.019-2.422
			c1.601-0.943,3.104-2.003,4.443-3.337c2.521-2.536,4.506-5.353,6.211-8.09c1.692-2.756,3.071-5.497,4.082-8.154
			c0.477-1.339,0.914-2.634,1.174-3.922c0.166-0.69,0.219-1.247,0.324-1.858c0.062-0.62,0.15-1.228,0.174-1.801
			c0.133-2.307-0.014-4.304-0.236-5.927C134.226,56.563,133.937,55.312,133.711,54.47 M56.039,98.102
			c-0.546-0.13-1.146-0.354-1.806-0.538c-0.201-0.059-0.416-0.121-0.627-0.181l0.008-0.014c0,0-0.618-0.286-1.553-0.845
			c-0.928-0.549-2.139-1.349-3.266-2.268c-0.564-0.457-1.117-0.935-1.603-1.416c-0.498-0.472-0.929-0.946-1.288-1.363
			c-0.362-0.417-0.645-0.781-0.83-1.046c-0.192-0.261-0.302-0.409-0.302-0.409s0.083,0.165,0.229,0.454
			c0.139,0.296,0.358,0.705,0.649,1.184c0.283,0.484,0.658,1.022,1.089,1.575c0.422,0.562,0.907,1.136,1.429,1.674
			c0.264,0.272,0.531,0.541,0.8,0.802c-0.511-0.204-1.027-0.412-1.524-0.686c-0.048-0.023-0.097-0.047-0.145-0.071
			c-0.243-0.168-0.547-0.385-0.908-0.67c-0.848-0.663-1.935-1.629-2.888-2.73c-0.48-0.547-0.937-1.12-1.318-1.691
			c-0.397-0.561-0.722-1.12-0.978-1.609c-0.264-0.488-0.454-0.912-0.57-1.216c-0.126-0.302-0.199-0.474-0.199-0.474
			s0.043,0.182,0.117,0.5c0.065,0.322,0.182,0.775,0.364,1.311c0.175,0.537,0.409,1.16,0.716,1.802
			c0.292,0.65,0.661,1.318,1.062,1.97c0.085,0.14,0.177,0.273,0.266,0.41c-0.07-0.044-0.145-0.083-0.215-0.127
			c-0.772-0.438-1.455-0.987-2.17-1.44c-0.38-0.269-0.749-0.537-1.108-0.804c-0.176-0.253-0.377-0.548-0.614-0.923
			c-0.65-1.016-1.454-2.425-2.114-3.909c-0.333-0.741-0.642-1.496-0.885-2.221c-0.258-0.722-0.452-1.411-0.599-2.009
			c-0.153-0.597-0.252-1.102-0.305-1.458c-0.062-0.355-0.098-0.56-0.098-0.56s0.005,0.206,0.012,0.568
			c-0.001,0.362,0.021,0.881,0.083,1.502c0.056,0.621,0.145,1.348,0.296,2.115c0.134,0.774,0.33,1.591,0.555,2.399
			c0.197,0.72,0.427,1.424,0.666,2.094c-0.359-0.287-0.699-0.566-1.021-0.805c-0.435-0.352-0.838-0.646-1.166-0.894
			c-0.657-0.495-1.067-0.773-1.067-0.773s0.125,0.483,0.515,1.233c0.191,0.377,0.443,0.823,0.771,1.308
			c0.325,0.484,0.72,1.012,1.19,1.553c0.702,0.821,1.59,1.648,2.574,2.494c0.028,0.052,0.048,0.087,0.048,0.087l0.031-0.02
			c0.3,0.257,0.606,0.515,0.921,0.775c0.712,0.545,1.45,1.109,2.253,1.606c0.397,0.255,0.796,0.513,1.198,0.771l1.272,0.669
			c0.839,0.465,1.722,0.844,2.596,1.199c0.859,0.392,1.765,0.624,2.609,0.921c0.84,0.317,1.711,0.432,2.503,0.634
			c0.799,0.185,1.57,0.274,2.283,0.331c0.713,0.054,1.357,0.146,1.939,0.122c0.58-0.008,1.085-0.043,1.498-0.061
			c0.827-0.054,1.293-0.111,1.293-0.111s-0.458-0.15-1.249-0.367C57.062,98.357,56.584,98.224,56.039,98.102 M34.402,48.94
			c0,0-0.309-0.074-0.881-0.113c-0.564-0.062-1.368-0.076-2.335-0.085c-1.933,0.005-4.512,0.229-7.043,0.769
			c-1.265,0.271-2.509,0.644-3.658,1.038c-0.565,0.226-1.111,0.443-1.629,0.649c-0.507,0.234-0.983,0.461-1.415,0.685
			c-0.418,0.248-0.802,0.476-1.142,0.678c-0.343,0.192-0.603,0.429-0.832,0.593c-0.443,0.348-0.696,0.546-0.696,0.546
			s0.292-0.135,0.802-0.371c0.255-0.115,0.549-0.278,0.916-0.408c0.358-0.145,0.761-0.307,1.201-0.483
			c0.455-0.14,0.94-0.308,1.448-0.491c0.52-0.15,1.068-0.31,1.636-0.474c0.574-0.143,1.166-0.288,1.768-0.438
			c0.611-0.115,1.217-0.288,1.84-0.396c1.236-0.253,2.475-0.505,3.647-0.702c1.174-0.195,2.271-0.376,3.21-0.532
			c0.947-0.145,1.736-0.267,2.288-0.351C34.074,48.971,34.402,48.94,34.402,48.94 M23.41,43.17c0.85,0.169,1.692,0.373,2.544,0.462
			c0.845,0.12,1.679,0.217,2.493,0.258c0.811,0.055,1.592,0.118,2.339,0.111c0.745,0,1.445,0.017,2.094-0.047
			c0.646-0.049,1.238-0.093,1.762-0.132c0.522-0.069,0.974-0.158,1.345-0.216c0.742-0.121,1.16-0.209,1.16-0.209
			s-0.432-0.043-1.177-0.081c-0.744-0.022-1.802-0.13-3.059-0.272c-0.629-0.042-1.304-0.212-2.018-0.301
			c-0.277-0.033-0.562-0.085-0.849-0.137c-0.039-0.024-0.667-0.415-1.643-0.978c-1.004-0.577-2.369-1.318-3.661-2.183
			c-0.64-0.437-1.282-0.876-1.862-1.318c-0.585-0.438-1.097-0.887-1.544-1.269c-0.432-0.394-0.793-0.729-1.022-0.986
			c-0.237-0.25-0.374-0.393-0.374-0.393s0.108,0.165,0.297,0.455c0.18,0.297,0.475,0.694,0.837,1.172
			c0.742,0.934,1.846,2.099,3.06,3.14c0.607,0.519,1.23,1.021,1.827,1.474c-0.69-0.163-1.383-0.351-2.082-0.513
			c-0.707-0.152-1.406-0.334-2.107-0.485c-0.12-0.08-0.233-0.156-0.372-0.251c-0.854-0.581-1.897-1.416-2.911-2.367
			c-0.508-0.474-1.004-0.967-1.432-1.46c-0.441-0.484-0.815-0.969-1.124-1.394c-0.309-0.427-0.55-0.795-0.701-1.063
			c-0.159-0.265-0.252-0.415-0.252-0.415s0.065,0.163,0.182,0.45c0.11,0.292,0.287,0.696,0.531,1.173s0.539,1.028,0.91,1.59
			c0.359,0.571,0.769,1.152,1.216,1.721c0.367,0.47,0.748,0.914,1.127,1.338c-0.734-0.19-1.443-0.384-2.114-0.572
			c-0.004-0.003-0.004-0.007-0.009-0.01c-0.232-0.152-0.562-0.391-0.95-0.689c-0.77-0.603-1.768-1.468-2.646-2.454
			c-0.438-0.492-0.861-1.003-1.216-1.511c-0.179-0.253-0.356-0.498-0.498-0.745c-0.146-0.244-0.302-0.468-0.409-0.693
			c-0.239-0.438-0.42-0.815-0.525-1.089c-0.115-0.271-0.181-0.425-0.181-0.425s0.046,0.161,0.126,0.443
			c0.072,0.287,0.205,0.686,0.392,1.157c0.081,0.242,0.205,0.485,0.323,0.754c0.114,0.269,0.257,0.537,0.408,0.817
			c0.298,0.564,0.655,1.139,1.043,1.702c0.507,0.732,1.062,1.412,1.592,2.005c-2.084-0.633-3.446-1.087-3.446-1.087
			s0.349,0.255,0.996,0.637c0.64,0.395,1.572,0.932,2.728,1.504c1.146,0.599,2.525,1.206,4.029,1.802
			C20.087,42.192,21.725,42.769,23.41,43.17 M20.199,29.398c1.338,0.4,2.779,0.792,4.245,1.083c0.729,0.163,1.471,0.264,2.199,0.377
			c0.727,0.112,1.455,0.157,2.153,0.224c0.7,0.058,1.385,0.044,2.028,0.067c0.644,0.012,1.257-0.036,1.817-0.071
			c0.561-0.028,1.074-0.143,1.525-0.197c0.453-0.051,0.839-0.166,1.154-0.259c0.626-0.183,0.983-0.287,0.983-0.287
			s-0.37,0.029-1.019,0.08c-0.32,0.037-0.708,0.063-1.159,0.053c-0.448-0.008-0.948,0.035-1.498-0.014
			c-0.549-0.054-1.141-0.051-1.767-0.116c-0.625-0.078-1.285-0.121-1.963-0.236c-0.678-0.111-1.382-0.179-2.089-0.326
			c-0.712-0.116-1.434-0.238-2.154-0.379c-1.446-0.249-2.884-0.561-4.236-0.844c-1.352-0.288-2.601-0.612-3.682-0.864
			c-2.154-0.55-3.589-0.916-3.589-0.916s1.338,0.656,3.434,1.421C17.623,28.594,18.862,28.991,20.199,29.398 M134.045,26.735
			c-0.569,0.188-1.151,0.356-1.735,0.525c-0.578,0.191-1.168,0.327-1.746,0.485c-0.576,0.169-1.155,0.263-1.713,0.394
			c-1.121,0.188-2.179,0.358-3.094,0.405c-0.457,0.04-0.876,0.029-1.25,0.044c-0.374,0.001-0.699-0.007-0.968-0.027
			c-0.537-0.038-0.843-0.102-0.843-0.102s1.178,0.455,3.062,0.551c0.47,0.033,0.978,0.041,1.517,0.033
			c0.541,0,1.104-0.065,1.691-0.105c0.58-0.082,1.191-0.126,1.797-0.245c0.607-0.107,1.228-0.219,1.832-0.382
			c1.221-0.29,2.399-0.729,3.477-1.188c1.072-0.472,2.052-0.95,2.867-1.406c0.826-0.436,1.473-0.875,1.932-1.164
			c0.454-0.299,0.713-0.469,0.713-0.469s-0.292,0.105-0.803,0.293c-0.516,0.173-1.215,0.498-2.092,0.793
			c-0.438,0.146-0.901,0.328-1.395,0.515c-0.494,0.179-1.027,0.337-1.57,0.518C135.189,26.406,134.615,26.549,134.045,26.735
			 M141.437,28.159c-0.262,0.146-0.557,0.309-0.879,0.486c-0.336,0.156-0.695,0.327-1.067,0.517
			c-0.388,0.164-0.794,0.337-1.216,0.517c-0.86,0.323-1.772,0.674-2.713,0.963c-0.931,0.307-1.875,0.583-2.768,0.831
			c-0.896,0.242-1.732,0.469-2.449,0.664c-1.451,0.381-2.418,0.636-2.418,0.636s0.254,0.019,0.693,0.013
			c0.439-0.013,1.07-0.021,1.822-0.092c0.75-0.071,1.625-0.186,2.553-0.371c0.93-0.172,1.906-0.432,2.873-0.731
			c0.963-0.312,1.908-0.688,2.767-1.104c0.427-0.217,0.828-0.443,1.207-0.66c0.37-0.237,0.712-0.472,1.024-0.69
			c0.304-0.233,0.564-0.471,0.797-0.675c0.238-0.194,0.408-0.411,0.562-0.571c0.297-0.329,0.451-0.525,0.451-0.525
			s-0.22,0.133-0.58,0.376C141.915,27.86,141.712,28.025,141.437,28.159 M39.509,78.969c-0.184-0.367-0.33-0.744-0.493-1.104
			c-0.289-0.729-0.569-1.419-0.765-2.029c-0.092-0.308-0.225-0.583-0.289-0.839c-0.07-0.254-0.147-0.476-0.207-0.659
			c-0.124-0.368-0.209-0.582-0.209-0.582s-0.039,0.22-0.083,0.61c-0.042,0.391-0.105,0.956-0.047,1.629
			c0.022,0.337,0.024,0.711,0.11,1.089c0.077,0.38,0.115,0.797,0.247,1.201c0.133,0.403,0.227,0.839,0.403,1.251
			c0.177,0.412,0.334,0.844,0.561,1.239c0.416,0.812,0.933,1.568,1.481,2.22c0.554,0.647,1.127,1.2,1.671,1.608
			c1.067,0.845,1.946,1.135,1.946,1.135s-0.57-0.702-1.324-1.741c-0.376-0.521-0.799-1.13-1.217-1.797
			c-0.421-0.664-0.849-1.38-1.23-2.12C39.852,79.722,39.702,79.331,39.509,78.969 M26.916,86.501
			c-0.092-0.263-0.175-0.554-0.294-0.843c-0.097-0.301-0.244-0.598-0.354-0.923c-0.256-0.639-0.43-1.353-0.625-2.063
			c-0.17-0.718-0.302-1.446-0.404-2.142c-0.039-0.349-0.077-0.688-0.114-1.008c-0.048-0.323-0.035-0.629-0.066-0.916
			c-0.052-0.572-0.046-1.052-0.06-1.394c-0.018-0.344-0.028-0.54-0.028-0.54s-0.067,0.184-0.182,0.508
			c-0.053,0.164-0.118,0.364-0.191,0.593c-0.085,0.23-0.118,0.497-0.184,0.787c-0.057,0.291-0.138,0.607-0.16,0.948
			c-0.029,0.339-0.083,0.698-0.09,1.073c0.003,0.373-0.005,0.763,0.008,1.158c0.039,0.393,0.067,0.795,0.131,1.192
			c0.072,0.396,0.117,0.799,0.235,1.18c0.095,0.386,0.206,0.762,0.333,1.119c0.222,0.727,0.553,1.364,0.918,1.856
			c0.361,0.494,0.765,0.839,1.065,1.051c0.308,0.211,0.522,0.284,0.522,0.284s-0.031-0.225-0.104-0.57
			C27.203,87.503,27.076,87.038,26.916,86.501 M24.591,68.912c0.145-0.396,0.228-0.622,0.228-0.622s-0.164,0.177-0.451,0.483
			c-0.138,0.16-0.314,0.351-0.502,0.582c-0.162,0.249-0.345,0.529-0.544,0.835c-0.207,0.307-0.366,0.668-0.551,1.048
			c-0.186,0.381-0.335,0.799-0.48,1.237c-0.162,0.434-0.256,0.9-0.363,1.372c-0.128,0.469-0.162,0.959-0.226,1.445
			c-0.054,0.486-0.076,0.976-0.09,1.456c0.024,0.48,0.012,0.954,0.067,1.407c0.092,0.909,0.266,1.744,0.474,2.442
			c0.409,1.402,0.97,2.229,0.97,2.229s0.009-0.982-0.012-2.379c-0.008-0.699-0.026-1.505-0.018-2.361
			c0.003-0.428,0.005-0.869,0.008-1.317c0.037-0.445,0.014-0.901,0.059-1.352c0.047-0.449,0.066-0.904,0.13-1.345
			c0.051-0.442,0.11-0.878,0.199-1.293c0.068-0.421,0.141-0.827,0.256-1.201c0.094-0.379,0.161-0.753,0.288-1.071
			c0.104-0.333,0.199-0.639,0.283-0.909C24.422,69.333,24.516,69.103,24.591,68.912 M26.487,63.581
			c-0.271,0.092-0.537,0.266-0.852,0.421c-0.301,0.177-0.649,0.343-0.966,0.593c-0.321,0.243-0.681,0.482-1.001,0.791
			c-0.316,0.31-0.673,0.61-0.956,0.985c-0.289,0.368-0.616,0.726-0.85,1.145l-0.377,0.61l-0.312,0.64
			c-0.224,0.417-0.351,0.865-0.502,1.285c-0.11,0.433-0.23,0.849-0.273,1.256c-0.064,0.403-0.079,0.789-0.091,1.142
			c-0.003,0.709,0.071,1.293,0.161,1.694c0.039,0.209,0.08,0.336,0.112,0.452c0.022,0.112,0.025,0.176,0.025,0.176
			s0.031-0.048,0.076-0.145c0.044-0.096,0.104-0.277,0.163-0.463c0.129-0.387,0.285-0.929,0.492-1.556
			c0.086-0.316,0.208-0.65,0.33-1c0.105-0.354,0.268-0.71,0.388-1.089c0.17-0.361,0.284-0.759,0.476-1.129
			c0.169-0.381,0.357-0.759,0.574-1.123c0.195-0.377,0.437-0.723,0.668-1.074c0.22-0.36,0.517-0.649,0.748-0.982
			c0.239-0.328,0.542-0.579,0.784-0.867c0.238-0.294,0.521-0.51,0.762-0.736c0.245-0.222,0.452-0.461,0.676-0.613
			c0.213-0.173,0.399-0.322,0.552-0.447c0.305-0.264,0.479-0.413,0.479-0.413s-0.218,0.07-0.6,0.195
			C26.983,63.398,26.752,63.483,26.487,63.581 M71.604,67.548c2.781,0,5.482-0.372,8.028-1.106
			c13.211-3.811,16.165-19.927,14.107-27.878c-1.784-6.895-9.991-16.603-22.651-16.603c-2.211,0-4.503,0.297-6.813,0.884
			c-15.886,4.032-17.89,15.881-17.67,22.585C47.103,60.627,59.913,67.548,71.604,67.548 M64.768,24.782
			c2.149-0.545,4.276-0.821,6.321-0.821c12.698,0,19.439,10.176,20.715,15.103c1.544,5.966,0.075,21.764-12.726,25.456
			c-2.365,0.682-4.879,1.028-7.473,1.028c-15.433,0-22.671-10.138-23-20.184C48.404,39.261,50.238,28.471,64.768,24.782
			 M74.062,52.98c5.084-1.75,6.75-5.542,4.625-13l6.209-5.542c0,0-17.334,10.834-17.334,10.709s2.25-11.084,2.25-11.084
			s-12.5,0-12.125,10.25S68.895,54.76,74.062,52.98 M233.064,55.98c5.082-1.75,6.75-5.542,4.625-13l6.207-5.542
			c0,0-17.332,10.834-17.332,10.709s2.25-11.084,2.25-11.084s-12.5,0-12.125,10.25S227.895,57.76,233.064,55.98"/>
	</g>
</g>
</svg>
