<?xml version="1.0" encoding="utf-8"?>
<!-- Generator: Adobe Illustrator 15.0.0, SVG Export Plug-In . SVG Version: 6.00 Build 0)  -->
<!DOCTYPE svg PUBLIC "-//W3C//DTD SVG 1.1//EN" "http://www.w3.org/Graphics/SVG/1.1/DTD/svg11.dtd">
<svg version="1.1" id="Layer_1" xmlns="http://www.w3.org/2000/svg" xmlns:xlink="http://www.w3.org/1999/xlink" x="0px" y="0px"
	 width="305.834px" height="176.833px" viewBox="0 0 305.834 176.833" enable-background="new 0 0 305.834 176.833"
	 xml:space="preserve">
<g>
	<polygon fill="#0C3846" points="206.917,106 98.917,106 78.917,7 226.917,7 	"/>
	<path fill="#D72251" d="M98.917,106h108l1.362-6.995c-5.536-25.491-28.213-44.713-55.362-44.713s-49.826,19.283-55.363,44.774
		L98.917,106z"/>
	<g>
		<polygon fill="#FCDCA4" points="149,27.5 132.5,21.82 116,27.5 116,7 149,7 		"/>
		<polygon fill="#FCDCA4" points="189,27.5 172.5,21.82 156,27.5 156,7 189,7 		"/>
	</g>
	<g>
		<polygon fill="#FCDCA4" points="156,84.5 172.5,90.18 189,84.5 189,106 156,106 		"/>
		<polygon fill="#FCDCA4" points="116,84.5 132.5,90.18 149,84.5 149,106 116,106 		"/>
	</g>
	<g>
		<polygon fill="#FCDCA4" points="97.917,72 89.617,7 106.218,7 		"/>
		<polygon fill="#FCDCA4" points="205.917,72 197.616,7 214.218,7 		"/>
	</g>
	<circle fill="#75A08A" cx="125.417" cy="74.333" r="2.833"/>
	<circle fill="#75A08A" cx="197.417" cy="98.333" r="2.833"/>
	<circle fill="#75A08A" cx="152.417" cy="77.333" r="2.833"/>
	<circle fill="#75A08A" cx="106.417" cy="98.333" r="2.833"/>
	<circle fill="#75A08A" cx="162.417" cy="63.333" r="2.833"/>
	<circle fill="#75A08A" cx="176.417" cy="77.333" r="2.833"/>
	<circle fill="#75A08A" cx="139.417" cy="66.333" r="2.833"/>
</g>
</svg>
