<?xml version="1.0" encoding="utf-8"?>
<!-- Generator: Adobe Illustrator 19.1.0, SVG Export Plug-In . SVG Version: 6.00 Build 0)  -->
<svg version="1.1" id="Layer_1" xmlns="http://www.w3.org/2000/svg" xmlns:xlink="http://www.w3.org/1999/xlink" x="0px" y="0px" width="305.834px" height="176.833px"
	 viewBox="-152 308.1 305.8 176.9" style="enable-background:new -152 308.1 305.8 176.9;" xml:space="preserve">
<style type="text/css">
	.beast-mouth-14-st-0{fill:#0B3746;}
	.beast-mouth-14-st-1{fill:#75A08A;}
	.beast-mouth-14-st-2{fill:#FCDCA4;}
</style>
<path class="beast-mouth-14-st-0" d="M-69.1,420.9c-1.4-1.8-1.7-5.1-2.3-7.3c-1-3.6-2-7.1-3.2-10.6c-0.3-1.4-0.6-2.7-0.9-4.1
	c-0.4-1.6-0.7-3.3-1.1-4.9c0.1-0.2,0-0.4-0.1-0.6c-1.3-6.1-2.4-12.1-4.1-18.1c-0.2-0.9-0.5-1.5-0.7-2.3c0.1,0,0.1,0.3,0.2,0.3h0.2
	c1,0,1-1,0-1h-0.2c-0.2,0-0.3-0.2-0.4,0c-0.8-3.2-1.6-6.4-2.1-9.6c0,0-0.2-0.1-0.2-0.2v-0.2c0-0.1,0.2-0.2,0.2-0.3
	c-0.8-5.4-1-10.7-1-16.2c0,0.2,0.4,0.4,0.9,0.4v-1c-0.5,0-0.7,0.2-0.7,0.4c0-5.4,0.3-10.9,0.9-16.6c0.5-4.5-6.9-5.4-7.9-1.1
	c-1.5,6.8-2.8,13.5-3.5,20.2H-96v1h0.7c-0.9,8.7-1,17.4,1.1,26.3c-0.3-0.1-0.7,0.1-0.7,0.5v0.2c0,0.5,0.7,0.6,1,0.4
	c0.2,1,0.6,2,0.9,3c0.2,0.8,0.5,1.5,0.8,2.2c-0.6,0.2-0.5,0.9,0.3,0.9c1.3,3.5,2.8,6.9,4.4,10.3c-0.1,0-0.2,0-0.3,0v1
	c0.3,0,0.5-0.1,0.7-0.3c1.5,3.2,3.1,6.5,4.4,9.7c0.1,0.4,0.3,0.7,0.4,1.1c0.2,1.1,0.4,2.2,0.7,3.3c-0.2,0.2-0.2,0.7,0.2,0.8
	c0.9,4.3,1.9,8.5,3.5,12.4c0.2,0.6,0.6,1.1,1,1.5c0.3,0.8,0.7,1.6,1.2,2.2C-72.9,429-66,425-69.1,420.9z"/>
<path class="beast-mouth-14-st-0" d="M-55.9,387.7c-4.9-12.3-6.3-25.4-6.8-38.6c-0.2-5.9,2.4-18.2-7-18.2c-2.6,0-4.5,0.7-5.9,1.9
	c-0.1-0.1-0.2-0.2-0.4-0.2c-0.5,0-0.6,0.6-0.3,0.9c-3.3,3.5-3.2,10.1-3,15.3c0.1,3.8,0.8,7.7,1.9,11.5c-0.3,0.1-0.6,0.5-0.3,0.8
	l0.1,0.1c0.1,0.1,0.3,0.2,0.5,0.1c2,7,4.8,13.9,6.8,20.5c3.6,11.9,7.6,23.7,13.6,34.7c0.1,0.2,0.2,0.3,0.3,0.4
	c-0.9,2.9-2.7,5.6-5.8,7.9c-5.9,4.4-16,2.4-20.2-3.7c-2.9-4.2-9.8-0.2-6.9,4c4.6,6.7,14,11.1,22.2,10c9.6-1.3,17.9-9.6,19.4-19.2
	C-46.2,406-52.4,396.5-55.9,387.7z"/>
<path class="beast-mouth-14-st-1" d="M-58,390.9c-2.3-6.7-4.3-13.5-6-20.4c-1.7-7.1-1.9-14.5-2.5-21.7c-0.7-9,1.2-22.1-6.1-28.4
	c-4.3-3.7-12.2,0.5-13.9,5.8c-3.6,10.7-3.4,23.5-2.4,34.6c1,11.7,4.9,23,8.5,34.1c3.4,10.5,7,19,8.1,29.5c-1-5.2-4-11-5-13.9
	c-4.8-13.4-9.3-27-11.6-41.1c-1.3-7.7-1.5-15.5-1.1-23.3c0.3-6.3,1.6-12.5,1.7-18.8c0.1-9.3-9.3-9.3-16.2-7.9
	c-0.9,0.2-0.9,1.3-0.3,1.7c-2,3.4-2.1,7.5-2.3,11.4c-0.3,7-1.6,14-1.8,21c-0.5,14.5,2.4,28.6,6.1,42.5c2.6,9.7,6.3,19.3,12.1,27.5
	c2.4,3.5,8.1,10.3,18.2,9.9c0.2,0-0.1,0.1,0,0c8.4,0.9,14.1-4.9,18-12.2C-49.2,411-54.7,400.7-58,390.9z"/>
<path class="beast-mouth-14-st-2" d="M148.2,317.2c-16.6,0.1-33.1-0.7-49.6-1.1c-0.3-0.2-0.6-0.2-1,0c-7.5-0.2-15.1-0.3-22.6-0.2
	c-12.2,0.2-24.3,1.1-36.4,1.5c-13,0.5-25.9,0.2-38.9-0.1c-12.2-0.3-24.5-0.7-36.7-0.6c-11.9,0.1-23.7,1.7-35.5,1.8
	c-5.7,0.1-11.3-0.6-17-0.9c-6.3-0.4-13,0-19.3,0.1c-13,0.2-26.1,0-39.1,0c-1,0-1,2,0,2c0.6,0,1.3,0,1.9,0c-0.1,0.1-0.1,0.3-0.1,0.5
	c0,4.5-0.9,12.6,3,15.8c2,1.6,5.2,0.1,6.4-1.9c2.4-4.1,0.8-9,1.8-13.4c0.1-0.4-0.1-0.8-0.3-1c2,0,4.1,0,6.1,0
	c-0.6,4.5-3.2,15.9,2.7,17.8c3.1,1,6.3-1,7.5-3.9c1.7-4.4,0.8-9.3,1.4-13.9c1.5,0,3,0,4.6,0c-0.2,0.2-0.3,0.4-0.3,0.7
	c0,4.9-2,18.4,4.5,20.4c3.8,1.2,7.5-2,9-5.1c2.3-4.8,1.9-10.7,1.8-15.9c1.6,0,3.2,0.1,4.7,0.1c-0.7,6.5-2.5,18.4,3.4,22.9
	c3.1,2.4,7.8-1,9.4-3.6c3.3-5.3,0.4-13.1,0.2-18.8c2,0.1,3.9,0.1,5.9,0.2c0.3,0,0.7,0,1,0c-0.1,0.1-0.1,0.2-0.2,0.4
	c-0.8,5.8,0.3,16.9,6.3,19.9c3.4,1.7,7.2-1.5,9-4.1c3.1-4.6,1.1-11.6,0.7-16.7c1.4-0.1,2.8-0.2,4.2-0.3c0,0.1,0.1,0.2,0.1,0.3
	c1.8,2.8,1.5,7.5,2,10.7c0.4,2.9,1,7.4,3.7,9.3c3,2.1,6.7-0.8,8.6-3.1c3.9-4.7,3.1-12.2,3.1-17.9c0-0.1,0-0.2,0-0.2
	c1.7,0,3.4,0,5.1,0c-3.1,6.1-3.5,21.8,4.1,24.8c4.7,1.9,8.9-1.4,10.7-5.6c2.5-5.7,2-13,0.9-18.9c0,0,0,0,0,0
	c2.3,0.1,4.5,0.1,6.8,0.2c1,8.3-2.6,24.3,7.5,28.2c4.8,1.8,10.3-1.3,11.9-5.9c2.5-7,1.4-14.6,1.3-21.9c0,0,0,0,0,0
	c1.8,0,3.7,0,5.5,0c0.1,4,0.7,8,1,12.1c0.2,2.2,0.3,4.7,1.3,6.7c1.8,3.4,5.3,3.9,8.9,3.4c4.6-0.7,7.5-2.4,8.5-7.1
	c1.1-5-0.3-10.4-0.5-15.4c1.9-0.1,3.8-0.1,5.8-0.2c-1.4,10.8,1.1,30.5,16.4,27c11.6-2.6,9-19,7.2-27.7c1.4,0,2.8-0.1,4.2-0.1
	c0.4,4.8,0.2,12.3,4.5,15.3c2.2,1.5,5.4-0.5,6.4-2.5c2-3.7,0.5-8.8,0.7-12.9c1.4,0,2.7,0,4.1,0c0.2,3,0.4,6.1,0.8,9.1
	c0.4,2.6,0.9,7,3.4,8.6c2.7,1.7,5.3-1.3,6.6-3.4c2.4-3.8,2.6-9.5,2.1-14.1c0.8,0,1.6,0,2.4,0.1c0,0.1-0.1,0.2-0.1,0.3
	c-0.7,5.6-0.3,16.2,6.4,18.1c3.3,1,6.6-1.1,7.7-4.2c1.5-4.4-0.2-9.3,0.1-13.8c1,0,2,0.1,2.9,0.1c-1.1,4.7-1.3,12.9,3.5,15.2
	c2.6,1.2,5.7-0.3,7.1-2.6c2.1-3.4,1.5-8.4,1.5-12.3c0.9,0,1.9,0,2.8,0.1c-0.1,0.1-0.1,0.2-0.1,0.4c-0.1,6.2-1.1,14.8,7.3,15.1
	c8.8,0.3,8.1-9.3,6.2-15.3c0.4,0,0.8,0,1.2,0C149.5,319.2,149.5,317.2,148.2,317.2z"/>
<path class="beast-mouth-14-st-0" d="M-81.5,414.2H-82c-0.6,0-0.6,1,0,1h0.5C-80.9,415.2-80.9,414.2-81.5,414.2z"/>
<path class="beast-mouth-14-st-0" d="M-92,411.7v1C-91,412.7-91,411.7-92,411.7z"/>
<path class="beast-mouth-14-st-0" d="M-87,404.2v1C-86,405.2-86,404.2-87,404.2z"/>
<path class="beast-mouth-14-st-0" d="M-94,399.2v1C-93,400.2-93,399.2-94,399.2z"/>
<path class="beast-mouth-14-st-0" d="M-98,390.2v1C-97,391.2-97,390.2-98,390.2z"/>
<path class="beast-mouth-14-st-0" d="M-101,378.5h-0.2c-0.6,0-0.6,1,0,1h0.2C-100.4,379.5-100.4,378.5-101,378.5z"/>
<path class="beast-mouth-14-st-0" d="M-94,389.5c-1,0-1,1,0,1V389.5z"/>
<path class="beast-mouth-14-st-0" d="M-103.5,370c-0.4,0-0.6,0.1-0.9,0.4c-0.5,0.5,0.2,1.2,0.7,0.7c0.1-0.1,0.1-0.1,0.1-0.1c0,0,0,0,0.1,0
	C-102.9,371-102.9,370-103.5,370z"/>
<path class="beast-mouth-14-st-0" d="M-96,369.5v1C-95,370.5-95,369.5-96,369.5z"/>
<path class="beast-mouth-14-st-0" d="M-98.8,360v0.2c0,0.6,1,0.6,1,0V360C-97.8,359.3-98.8,359.3-98.8,360z"/>
<path class="beast-mouth-14-st-0" d="M-99,366.7c-1,0-1,1,0,1V366.7z"/>
<path class="beast-mouth-14-st-0" d="M-103.8,362.5h-0.2c-0.6,0-0.6,1,0,1h0.2C-103.1,363.5-103.1,362.5-103.8,362.5z"/>
<path class="beast-mouth-14-st-0" d="M-101,352.5c-1,0-1,1,0,1V352.5z"/>
<path class="beast-mouth-14-st-0" d="M-97,339.5c-0.6,0-0.6,1,0,1C-96.4,340.5-96.4,339.5-97,339.5z"/>
<path class="beast-mouth-14-st-0" d="M-104,345v1C-103,346-103,345-104,345z"/>
<path class="beast-mouth-14-st-0" d="M-106,353.5c-0.6,0-0.6,1,0,1C-105.4,354.5-105.4,353.5-106,353.5z"/>
<path class="beast-mouth-14-st-0" d="M-97,355.7v0.2c0,0.6,1,0.6,1,0v-0.2C-96,355.1-97,355.1-97,355.7z"/>
<path class="beast-mouth-14-st-0" d="M-97,334.5h-0.2c-0.6,0-0.6,1,0,1h0.2C-96.4,335.5-96.4,334.5-97,334.5z"/>
<path class="beast-mouth-14-st-0" d="M-76,375v1C-75,376-75,375-76,375z"/>
<path class="beast-mouth-14-st-0" d="M-72,387.5c-0.6,0-0.6,1,0,1C-71.4,388.5-71.4,387.5-72,387.5z"/>
<path class="beast-mouth-14-st-0" d="M-72,383.5v1C-71,384.5-71,383.5-72,383.5z"/>
<path class="beast-mouth-14-st-0" d="M-72,399v1C-71,400-71,399-72,399z"/>
<path class="beast-mouth-14-st-0" d="M-69.2,408.2c-0.1-0.2-0.3-0.2-0.5-0.2c-0.4,0-0.5,0.3-0.5,0.6c-0.2,0.4,0.4,0.9,0.8,0.5
	c0.1-0.1,0.2-0.2,0.3-0.3C-69,408.6-69,408.3-69.2,408.2z"/>
<path class="beast-mouth-14-st-0" d="M-65,419.7v1C-64,420.7-64,419.7-65,419.7z"/>
<path class="beast-mouth-14-st-0" d="M-67,415v1C-66,416-66,415-67,415z"/>
<path class="beast-mouth-14-st-0" d="M-59,417.7c-1,0-1,1,0,1V417.7z"/>
<path class="beast-mouth-14-st-0" d="M-64,406.2c-0.6,0-0.6,1,0,1C-63.4,407.2-63.4,406.2-64,406.2z"/>
<path class="beast-mouth-14-st-0" d="M-62,412.2v1C-61,413.2-61,412.2-62,412.2z"/>
<path class="beast-mouth-14-st-0" d="M-81,350.2v1C-80,351.2-80,350.2-81,350.2z"/>
<path class="beast-mouth-14-st-0" d="M-79,365.7v1C-78,366.7-78,365.7-79,365.7z"/>
<path class="beast-mouth-14-st-0" d="M-83.9,354.6c-0.1,0.1-0.2,0.2-0.2,0.2c-0.5,0.5,0.3,1.2,0.7,0.7l0.2-0.2C-82.7,354.9-83.4,354.2-83.9,354.6z"
	/>
<path class="beast-mouth-14-st-0" d="M-77,327.2c-0.6,0-0.6,1,0,1C-76.4,328.2-76.4,327.2-77,327.2z"/>
<path class="beast-mouth-14-st-0" d="M-100.2,340.5h-0.2c-0.6,0-0.6,1,0,1h0.2C-99.6,341.5-99.6,340.5-100.2,340.5z"/>
<path class="beast-mouth-14-st-0" d="M-95.9,344.6c0,0-0.1-0.1-0.1-0.1c-0.5-0.5-1.2,0.3-0.7,0.7l0.1,0.1C-96.1,345.8-95.4,345.1-95.9,344.6z"/>
<path class="beast-mouth-14-st-0" d="M-98.5,384h-0.2c-0.6,0-0.6,1,0,1h0.2C-97.9,385-97.9,384-98.5,384z"/>
<path class="beast-mouth-14-st-0" d="M-95.9,399.1c-0.1,0.1-0.2,0.2-0.2,0.2c-0.5,0.5,0.3,1.2,0.7,0.7l0.2-0.2C-94.7,399.4-95.4,398.7-95.9,399.1z"
	/>
<path class="beast-mouth-14-st-0" d="M-97,406.5v1C-96,407.5-96,406.5-97,406.5z"/>
<path class="beast-mouth-14-st-0" d="M-86,410c-0.6,0-0.6,1,0,1C-85.4,411-85.4,410-86,410z"/>
<path class="beast-mouth-14-st-0" d="M-85.4,399.4c-0.4-0.4-1.1-0.3-1.1,0.4c0,0.4,0.3,0.5,0.6,0.5C-85.4,400.3-85,399.7-85.4,399.4z"/>
<path class="beast-mouth-14-st-0" d="M-89,416.2c-0.6,0-0.6,1,0,1C-88.4,417.2-88.4,416.2-89,416.2z"/>
<path class="beast-mouth-14-st-0" d="M-81.5,419.2h-0.2c-0.6,0-0.6,1,0,1h0.2C-80.9,420.2-80.9,419.2-81.5,419.2z"/>
<path class="beast-mouth-14-st-0" d="M-68,396v1C-67,397-67,396-68,396z"/>
<path class="beast-mouth-14-st-0" d="M-69,403.2c-1,0-1,1,0,1V403.2z"/>
</svg>
