<?xml version="1.0" encoding="utf-8"?>
<!-- Generator: Adobe Illustrator 19.1.0, SVG Export Plug-In . SVG Version: 6.00 Build 0)  -->
<svg version="1.1" id="Layer_1" xmlns="http://www.w3.org/2000/svg" xmlns:xlink="http://www.w3.org/1999/xlink" x="0px" y="0px" width="305.834px" height="176.833px"
	 viewBox="-152 308.1 305.8 176.9" style="enable-background:new -152 308.1 305.8 176.9;" xml:space="preserve">
<style type="text/css">
	.beast-mouth-18-st-0{fill:#75A08A;}
	.beast-mouth-18-st-1{fill:#0B3746;}
	.beast-mouth-18-st-2{fill:#D72050;}
	.beast-mouth-18-st-3{fill:#F0A732;}
	.beast-mouth-18-st-4{fill:#FCDCA4;}
</style>
<g>
	<path class="beast-mouth-18-st-0" d="M0.8,433.4c26.8,0,34-17.2,50.5-18c0,0-126.8-2.5-110.8-2.5S-29.3,433.4,0.8,433.4z"/>
	<path class="beast-mouth-18-st-0" d="M-52.5,389.9c3.5-8.7,19.5-44.5,26.4-63.5c6.9-19,22.7,2.5,22.7,2.5s13.9-20.5,21.9-4
		c7,14.4,15.1,32.6,29.5,53.6C62.1,399-52.5,389.9-52.5,389.9z"/>
	<path class="beast-mouth-18-st-1" d="M-1.7,332c48.8,0,63.7,87,63.7,87H-68C-68,419-60.6,332-1.7,332z"/>
	<path class="beast-mouth-18-st-2" d="M-54.5,419.6c0,0,2.5-47.5,53.5-52s59,18.5,91,11c27.4-6.4,29.5-16.5,29.5-16.5s3,27.5-30,36
		c-39,10-43-9.5-65.5,21L-54.5,419.6z"/>
	<g>
		<path class="beast-mouth-18-st-0" d="M-92,391.5c-4.8,2.3-7.2,3.4-11.4,5.5c-1.7-3.6-0.7-8,2.5-9.5C-97.7,385.9-93.7,387.9-92,391.5z"/>
		
			<rect x="-102.4" y="379.8" transform="matrix(0.9027 -0.4303 0.4303 0.9027 -175.5842 -6.3804)" class="beast-mouth-18-st-3" width="1" height="10.3"/>
		
			<rect x="-98.3" y="381.1" transform="matrix(0.9838 -0.1791 0.1791 0.9838 -70.738 -11.2614)" class="beast-mouth-18-st-3" width="1" height="10.3"/>
		
			<rect x="-104.2" y="387.2" transform="matrix(0.7252 -0.6885 0.6885 0.7252 -297.2711 35.8748)" class="beast-mouth-18-st-3" width="1" height="6.4"/>
	</g>
	<g>
		<path class="beast-mouth-18-st-0" d="M92.6,355.3c-3.8-3.7-5.8-5.6-9.1-8.8c2.8-2.9,7.2-3.4,9.8-1S95.4,352.4,92.6,355.3z"/>
		
			<rect x="94.7" y="338.5" transform="matrix(0.7197 0.6942 -0.6942 0.7197 265.2675 30.1907)" class="beast-mouth-18-st-3" width="1" height="10.3"/>
		<rect x="95" y="342.8" transform="matrix(0.5129 0.8584 -0.8584 0.5129 345.2296 87.5151)" class="beast-mouth-18-st-3" width="1" height="10.3"/>
		<rect x="89" y="340.7" transform="matrix(0.8992 0.4375 -0.4375 0.8992 159.4731 -4.5118)" class="beast-mouth-18-st-3" width="1" height="6.4"/>
	</g>
	<path class="beast-mouth-18-st-4" d="M-32,357.1l-0.6-14.9c-5.3,4-9.9,8.9-13.8,14.3l-0.1,4.7l9.3,4.5L-32,357.1z"/>
	<path class="beast-mouth-18-st-3" d="M-32.3,349l-0.3-6.8c-4.3,3.2-8,6.9-11.3,11.1C-40.2,353.4-35.3,351.7-32.3,349z"/>
	<path class="beast-mouth-18-st-4" d="M13,335.2c-4-1.9-9-3-15-3.1v11.5l15,10.5V335.2z"/>
	<path class="beast-mouth-18-st-3" d="M-2,332.1v5.8c2,1.2,3.9,2.4,6,1.2c2.3-1.3,4.6-3.1,6.5-5C7,332.8,2.8,332.1-2,332.1z"/>
	<rect x="-23" y="394.7" class="beast-mouth-18-st-4" width="14" height="24.4"/>
	<polygon class="beast-mouth-18-st-4" points="20.5,419.1 6.5,419.1 15,409.6 20.5,400.6 	"/>
	<polygon class="beast-mouth-18-st-3" points="-9,419.1 -23,419.1 -23,415.1 -9,412.1 	"/>
	<circle class="beast-mouth-18-st-0" cx="6" cy="387.1" r="2"/>
	<circle class="beast-mouth-18-st-0" cx="-36" cy="401.1" r="2"/>
	<circle class="beast-mouth-18-st-0" cx="-20" cy="386.1" r="2"/>
	<circle class="beast-mouth-18-st-0" cx="12" cy="373.1" r="2"/>
	<circle class="beast-mouth-18-st-0" cx="37" cy="380.1" r="2"/>
	<circle class="beast-mouth-18-st-0" cx="106" cy="381.1" r="2"/>
	<circle class="beast-mouth-18-st-0" cx="31" cy="393.1" r="2"/>
	<circle class="beast-mouth-18-st-0" cx="-11" cy="378.1" r="2"/>
	<circle class="beast-mouth-18-st-0" cx="60" cy="387.1" r="2"/>
	<circle class="beast-mouth-18-st-0" cx="88" cy="386.1" r="2"/>
	<path class="beast-mouth-18-st-1" d="M-3.7,462.5c11.1,0.4,20.5-7.7,21.9-18.5c0,0.6,0,1.3,0,1.9c-0.5,11.7-10.4,20.9-22.1,20.4
		c-11.7-0.5-20.9-10.4-20.4-22.1c0-0.6,0.1-1.3,0.2-1.9C-23.6,453.2-14.8,462-3.7,462.5z"/>
</g>
</svg>
