<?xml version="1.0" encoding="utf-8"?>
<!-- Generator: Adobe Illustrator 19.1.0, SVG Export Plug-In . SVG Version: 6.00 Build 0)  -->
<svg version="1.1" id="Layer_1" xmlns="http://www.w3.org/2000/svg" xmlns:xlink="http://www.w3.org/1999/xlink" x="0px" y="0px" width="305.834px" height="176.833px"
	 viewBox="-152 308.1 305.8 176.9" style="enable-background:new -152 308.1 305.8 176.9;" xml:space="preserve">
<style type="text/css">
	.beast-mouth-19-st-0{fill:#D72050;}
	.beast-mouth-19-st-1{fill:#FCDCA4;}
	.beast-mouth-19-st-2{opacity:0.7;fill:#0B3746;}
	.beast-mouth-19-st-3{opacity:0.7;fill:#75A08A;}
	.beast-mouth-19-st-4{fill:#0B3746;}
</style>
<g>
	<path class="beast-mouth-19-st-0" d="M52.4,430.4c-4.1-2.2-8-1-9.7,2.6c-1.7,3.6-0.9,8,3,9.8c3.9,1.8,7.7-0.1,9-3.4
		C55.8,436.2,55.9,432.3,52.4,430.4z"/>
	<path class="beast-mouth-19-st-1" d="M-67.8,352c0,0,5,11.2,5.1,11.3c0.1,0.2,4.3-11.3,4.3-11.3l1.9,0.8l5.2,13.3L-46,353c0,0-0.9-4.6-1.2-4.5
		c-0.2,0.1-6.1-2.6-8.8,2.5c0,0-2,2-2.7,0.2c-0.7-1.8-1.3-3.1-1.3-3.1S-67.9,346.3-67.8,352z"/>
	<path class="beast-mouth-19-st-1" d="M-33.5,349c0,0-2-2.1-4.2-1.8c-2.2,0.3-5.8,1.5-5.5,5.2c0.3,3.8,5.6,15.8,5.6,15.8l5.3-14.5
		C-32.3,353.8-34.8,351.7-33.5,349z"/>
	<path class="beast-mouth-19-st-1" d="M-20,349c0,0-9.8-0.4-9.5,3.1s5.9,18.5,5.9,18.5s5.2-13.6,5.8-17.5C-17.8,353.1-20.6,352-20,349z"/>
	<path class="beast-mouth-19-st-1" d="M-0.2,351.8c0,0-4.3-5.2-8.7-5c-4.3,0.2-6.5,3.2-6.3,5.6c0.2,2.3,7.8,19.4,7.8,19.4L-0.2,351.8z"/>
	<path class="beast-mouth-19-st-1" d="M0.3,351.9c0,0,10.3-7.9,14.3,1.1c-1.6,10-8.6,18.1-8.6,18.1L0.3,351.9z"/>
	<path class="beast-mouth-19-st-1" d="M16.7,354c0,0,2.9-1.7,2.3-3.4c0,0,9.3-2.2,9.2,4.2c-0.1,6.4-7.5,17.5-7.5,17.5L16.7,354z"/>
	<path class="beast-mouth-19-st-1" d="M31.1,355.5c0,0,1.6-2.2,0.9-3.8c0,0,2.7-2.7,6.5-1.9c3.8,0.8,5.3,2.8,4.8,6c-0.6,3.2-7.6,14-7.6,14
		L31.1,355.5z"/>
	<path class="beast-mouth-19-st-1" d="M46,355.1c0,0,2.8-2.8,2.6-4.3c0,0,8.3-1.4,8.8,4c0.4,5.4-6.7,14.8-6.9,14.8S46,355.1,46,355.1z"/>
	<path class="beast-mouth-19-st-1" d="M58.7,353.8c0,0,2.7-1.5,2.8-2.5c0,0,7.6-0.7,8.2,4.5l-6.9,12.6L58.7,353.8z"/>
	<path class="beast-mouth-19-st-1" d="M-71.5,367.7c0.1-0.2,2.9-7.1,2.9-7.1l4.4,10.8L-71.5,367.7z"/>
	<path class="beast-mouth-19-st-1" d="M-59.4,373.3c0,0,1.1-9.2,2.2-11l6.8,14.1L-59.4,373.3z"/>
	<path class="beast-mouth-19-st-1" d="M-38.8,373.9c0,0-1.7,2.6-4.1,2.6c-2.4,0-4.7-1.5-4.8-4.9c-0.1-3.4,2.7-12,2.7-12L-38.8,373.9z"/>
	<path class="beast-mouth-19-st-1" d="M-35.9,374c0-2.2,4.5-13,4.5-13s6.5,14.2,6.5,14.5s-3.1,4.3-5.7,3.7C-33.2,378.5-35.9,376.2-35.9,374z"/>
	<path class="beast-mouth-19-st-1" d="M-9.4,376c0,0-6.6-16.2-6.9-16c-0.3,0.2-4.6,12.3-5.1,14c-0.5,1.7,0.3,7.2,5.7,6.8c5.4-0.5,5.3-1.7,5.3-1.7
		L-9.4,376z"/>
	<path class="beast-mouth-19-st-1" d="M-6.6,376.4c0,0,5.8-11.2,6.1-13.7c0,0,4.2,11.8,4.2,13.8s-1.2,5-5,5.2C-5.1,381.9-7.2,378.8-6.6,376.4z"/>
	<path class="beast-mouth-19-st-1" d="M6.7,376.9c0,0,8.2-11.3,8.1-12.9c0,0,5.1,10.2,2,14.8C13.7,383.4,5.8,383,6.7,376.9z"/>
	<path class="beast-mouth-19-st-1" d="M22.3,377.6l7.4-13.7c0,0,5,9.6,2.8,13.4S24.1,382,22.3,377.6z"/>
	<path class="beast-mouth-19-st-1" d="M37,376.1l7.3-13.7c0,0,4.8,9.6,3.8,12.1S40.4,382.9,37,376.1z"/>
	<path class="beast-mouth-19-st-1" d="M51.9,376.1l6.2-10.9c0,0,1.8,7.2,0.9,8.3C58.1,374.7,51.9,376.1,51.9,376.1z"/>
	<polygon class="beast-mouth-19-st-1" points="67.7,370.1 71.6,361.4 73.4,367.4 	"/>
	<path class="beast-mouth-19-st-0" d="M-62.8,343.7l25.3-1.8l28.6,0.3l9.8,5.1l6-3.8l61.4,2.5c0,0-25.1-5.2-30.9-6.8c-5.8-1.5-21.5-10.1-23.2-13.8
		L1,333.7c0,0-0.3-2.6-12.8-7.8c0,0-20.4,9.2-26.3,10.7C-44.1,338.1-62.8,343.7-62.8,343.7z"/>
	<path class="beast-mouth-19-st-0" d="M-30.8,381.3c0,0,31.5,7.1,58.1,2.1c0,0-7.2,3.4-8.5,10.2c-1.3,6.8-2.8,17.9-17.9,17.5
		c-15.2-0.4-16.5-8.9-17.7-12C-18,396-18.3,388.2-30.8,381.3z"/>
	<path class="beast-mouth-19-st-2" d="M-102.4,350.3l18.9-2.4c0,0,2.2,2.5,5,2.2s6.4,0.4,6.4,0.4s0.9,2.4,2.2,2.4s1.9,0,1.9,0l5.2,10.2l4.3-11.2
		l2.7,0.9l4.5,13.3L-46,353l2.5,0.7l5.6,15.3l5.5-15.2l2.8,0.3l5.9,16.6l5.8-17.5l2.5,0.2l8,18.5l7.7-19.9l5.5,19.9l8.9-17l1.9-0.7
		l4.1,18.1c0,0,7-13.1,7.8-17.1H31l4.7,14.7c0,0,7.6-11.3,8.2-13.9l2.2-0.7l4.4,14.4c0,0,6.9-9.9,7.4-13.5l0.9-1.7l1.5,2.4l2.5,11.6
		l6.8-11.8c0,0,3.5-0.1,4.3-1.6s2-4.3,3.8-3.7c1.8,0.6,7.1-1,8.1-3.7l20.4,2.3c0,0-21.3,13.5-32.7,17.5l-2-6.5l-3.8,9.2
		c0,0-8.2,4.2-8.4,4.1s-0.3-7.3-1.2-9l-6.2,10.9l-5,2.1c0,0,2.4-3.4,0.4-8.5s-3.1-8.7-3.1-8.7l-6.8,14H33c0,0-1.8-8.6-3.2-10.6
		c0,0-6.8,13.3-7.4,13.1c-0.6-0.2-4.6-1.7-4.6-1.7s-0.6-8.4-3-11.9l-8.1,12.9L4.5,376l-4.6-14.1l-5.8,14l-3.4,1.1l-7.1-17l-5,15
		l-3.9-0.4l-6.2-13.6c0,0-4.8,11-4.5,13l-2.8,0.3l-6.2-14.8c0,0-4.2,8.9-3,13.5l-3.5,0.2l-5.7-11.1c0,0-2.3,5.5-2.3,7.1
		s0.4,4.4,0.4,4.4l-5-2.4c0,0-4.8-11.2-4.8-10.8s-2.5,7.1-2.5,7.1S-93.3,359.4-102.4,350.3z"/>
	<path class="beast-mouth-19-st-3" d="M-83.5,346.8c0,0,45.5-7.2,74.3-4.6L1,347.3c0,0,6.7-3.8,6.4-3.8c-0.2,0.1,65.8,1.4,77.4,3.9
		c0,0,0.4,2.4-1.8,3.1c-2.2,0.7-6.4-0.2-7.6,1.4c-1.2,1.7-3.7,4.6-5.7,4.2c0,0-0.9-5-5-5c-4.1,0-7.1,3.7-7.1,3.7s-1.8-4.8-5.1-4.5
		c-3.3,0.2-4.4,1.2-4.4,1.2s-2.5,3.8-4.2,4c0,0-1.2-5.8-6.1-5.8c-4.9,0-6,2-6,2s1.2,4-3.1,3.8c0,0-2.7-7.9-10-5.4c0,0-0.8,4.2-3.6,4
		c-0.3-0.2-1.2-6-6.8-6.1s-8.5,4.2-8.5,4.2s-4-5.6-8.9-5.6c-4.9,0-6.2,6-6.4,6s-5.7,0.6-4.8-3.8c0,0-10.2-0.6-9.7,4.4
		c-0.2-0.1-4.6,0.9-3.5-4.1c0,0-2.8-2.8-5.9-1.7c-3.2,1.1-4.2,4-4,5.8c0,0-1.7,0.7-2.7-1.4c-1-2.1-1.9-3.9-1.9-3.9s-3.2-1.2-5,0.3
		c-1.8,1.5-3.1,4.4-3.1,4.4s-3.3-0.9-3.4-3.8c0,0-1.7-1.2-4.1-1.1c-2.4,0.2-4.2,4.6-4.2,4.6s-2,1-3.5-0.7c-1.5-1.7-1.4-2.3-3.4-2
		C-76.4,350.3-82.8,350.2-83.5,346.8z"/>
	<path class="beast-mouth-19-st-3" d="M-51.2,375.8l-0.2-2.4l2.9-0.7c0,0,2.1,3.8,4.5,3.6c2.4-0.2,4.5-0.9,5.6-2.2c1.1-1.3,2.6-0.2,3.2,1.5
		c0.6,1.7,2.8,4.5,5.2,3.8c2.4-0.8,5.8-4.4,6.8-4.3c1,0.1,1.4,2.3,2.3,3.5c0.9,1.2,5.9,4.1,9.6,2.1c0,0,2.6-5,4.8-4.1
		c0,0,0.3,5.6,5.3,5.3s6.1-5.5,6.1-5.5s1.8,0.5,1.7,1.8c-0.2,1.3,1.9,3.9,5.3,3.8c3.4-0.1,5.2-2.5,5.9-5.1c0,0,3.8-0.4,3.8,0.9
		c0.1,1.3,2.9,2.7,5.5,2.4c2.6-0.2,5.1-1.4,5.7-4.2c0,0,2.9-0.8,3.8,0.5c0.8,1.2,3.9,3.3,7,2.6c0,0-19,7.5-45.1,5.9
		C-27.7,383.4-51.2,375.8-51.2,375.8z"/>
	<path class="beast-mouth-19-st-4" d="M52.2,429.3c-1.3-0.7-2.8-1-4.2-1c-1.4,0-2.6,0.3-3.6,1c-0.2-0.1-0.6-0.3-1-0.4c-0.2-0.1-0.5-0.1-0.8-0.1
		c-0.3,0-0.6,0-0.9,0c-0.3,0.1-0.6,0.1-1,0.2c-0.3,0.1-0.6,0.2-0.9,0.4c-0.3,0.1-0.5,0.4-0.8,0.5c-0.2,0.2-0.4,0.4-0.6,0.7
		c-0.2,0.2-0.3,0.5-0.5,0.7c-0.1,0.2-0.2,0.4-0.3,0.6c-0.2,0.4-0.3,0.8-0.3,1c-0.1,0.2-0.1,0.4-0.1,0.4s0.1-0.1,0.2-0.3
		c0.2-0.2,0.3-0.5,0.6-0.8c0.1-0.1,0.3-0.3,0.4-0.5c0.2-0.1,0.4-0.3,0.5-0.4c0.2-0.1,0.4-0.2,0.6-0.4c0.2-0.1,0.4-0.2,0.7-0.2
		c0.2,0,0.4-0.1,0.7-0.1c0.2,0,0.4,0,0.6,0c0.2,0.1,0.4,0.1,0.6,0.2c0.1,0,0.1,0,0.2,0.1c-0.5,0.6-0.9,1.3-1.2,2.1
		c-1.9,5-0.5,8.8,3.8,10.9c1.1,0.5,2.3,0.8,3.5,0.8c2.1,0,3.9-0.8,5.2-2.1c0,0.1,0,0.3,0,0.4c0,0.3,0,0.6-0.1,0.9
		c-0.1,0.3-0.1,0.6-0.2,0.9c-0.1,0.3-0.2,0.6-0.4,0.9c-0.1,0.3-0.3,0.5-0.5,0.8c-0.2,0.3-0.4,0.5-0.6,0.7c-0.2,0.2-0.4,0.4-0.6,0.6
		c-0.2,0.2-0.4,0.4-0.6,0.5c-0.2,0.1-0.3,0.2-0.5,0.3c-0.3,0.2-0.4,0.3-0.4,0.3s0.2,0,0.5-0.1c0.2,0,0.4-0.1,0.6-0.1
		c0.2,0,0.5-0.1,0.7-0.3c0.3-0.1,0.6-0.2,0.9-0.4c0.3-0.2,0.6-0.4,0.9-0.6c0.3-0.3,0.6-0.5,0.8-0.8c0.3-0.3,0.5-0.7,0.7-1
		c0.2-0.4,0.4-0.8,0.5-1.2c0.1-0.4,0.2-0.8,0.3-1.2c0.1-0.8,0.1-1.5,0-2.1c-0.1-0.6-0.2-1.1-0.3-1.4c0-0.1-0.1-0.2-0.1-0.3
		C56.9,434.4,55.8,431.1,52.2,429.3z M53.6,439.1c-0.6,2.1-2.5,3.5-4.9,3.5c-0.9,0-1.8-0.2-2.6-0.6c-3.5-1.7-4.4-4.4-2.9-8.4
		c0.8-2.1,2.5-3.3,4.8-3.3c1.1,0,2.2,0.3,3.3,0.8C54,432.5,54.7,434.9,53.6,439.1z M126.2,344.9c-1.7,0.4-3.7,0.9-6,1.4
		c-2.3,0.5-5,1-7.8,1.4c-0.7,0.1-1.4,0.1-2.2,0.2c-0.7,0-1.5,0.1-2.3,0.1c-1.5,0-3.1-0.2-4.8-0.3c-3.4-0.3-6.9-0.6-10.6-0.9
		c-6.1-0.5-12.4-1-18.9-1.5c-7.5-1.2-22.2-4-33.6-6.6c-13.3-3-24.8-14.1-24.9-14.2l-0.7-0.6L1.4,332c-3.2-2.9-11.7-6.7-12.7-7.2
		l-0.4-0.2l-0.4,0.2c-0.8,0.3-20.3,7.8-26.2,10.7c-4.2,2.1-20.6,5.7-28.8,7.4c-1.4,0.2-2.8,0.4-4.2,0.5c-2.6,0.3-5.2,0.8-7.7,1.2
		c-2.6,0.4-5.1,0.9-7.7,1.3c-2.6,0.5-5.1,0.9-7.7,1.4l-7.7,1.5c-2.6,0.5-5,1-7.6,1.5c-2.3,0.4-4.7-0.1-6.9-1c-2.2-1-4.4-2.3-6.4-3.8
		c-2.1-1.5-4.1-3.1-6.1-4.7c1.3,2.3,3,4.4,4.9,6.3c1.9,1.8,4.2,3.4,6.7,4.5c0.6,0.3,1.3,0.5,1.9,0.7c0.7,0.2,1.4,0.3,2,0.5
		c0.7,0.1,1.4,0.2,2.1,0.2c0.7,0,1.5,0,2.2-0.1c2.1-0.3,4.3-0.7,6.5-1.1c3,2.7,13.2,9.7,27.1,16.1c9.8,4.5,23.3,9.7,40,13.5l0,0
		c4.5,1,13.9,5.7,16.1,12.7c0.2,0.7,0.4,1.4,0.6,2.1c0.5,1.8,1.1,3.7,1.9,5.5c-0.4,0-0.8-0.1-1.2-0.1c-0.7-0.1-1.5-0.2-2.4-0.3
		c-0.9-0.1-1.8-0.3-2.8-0.4c-1-0.2-2.1-0.4-3.2-0.5c-2.2-0.4-4.5-0.9-6.8-1.4c-4.6-1.1-9.2-2.4-12.6-3.5c-3.4-1.1-5.6-2-5.6-2
		s2.1,1,5.5,2.4c3.3,1.3,7.9,2.9,12.4,4.3c2.3,0.7,4.6,1.3,6.8,1.8c1.1,0.3,2.2,0.5,3.2,0.7c1,0.2,2,0.4,2.8,0.6
		c0.9,0.2,1.7,0.4,2.4,0.5c0.7,0.1,1.3,0.2,1.9,0.3c0.3,0.1,0.6,0.1,0.9,0.2c2.6,4.4,7.1,7.9,17,8.2c0.3,0,0.6,0,0.9,0
		c8,0,12.3-3.2,14.6-7.1c0.3,0,0.7-0.1,1.2-0.1c1.1-0.1,2.8-0.3,4.7-0.6c3.9-0.6,9.1-1.5,14.2-2.9c5.1-1.3,10-3,13.7-4.4
		c0.9-0.3,1.7-0.7,2.5-1c0.7-0.3,1.4-0.6,1.9-0.8c1-0.5,1.6-0.7,1.6-0.7s-0.6,0.2-1.7,0.6c-0.5,0.2-1.2,0.4-1.9,0.7
		c-0.8,0.3-1.6,0.6-2.5,0.9c-3.7,1.2-8.7,2.6-13.8,3.6c-5.1,1-10.2,1.7-14.1,2.1c-1.8,0.2-3.4,0.3-4.5,0.3c1.1-2.6,1.5-5.2,1.9-7.2
		c0.1-0.6,0.2-1.1,0.3-1.6c1-5.1,5.2-9,10.9-10.4c12.2-2.6,25.3-6.9,39.1-13c19.7-8.7,34.6-18.4,37.8-20.5c0.1,0,0.2,0,0.2,0
		c1.7,0,3.2-0.2,4.7-0.4c3-0.5,5.6-1.2,7.9-1.9c2.3-0.7,4.3-1.5,5.9-2.1c1.6-0.6,2.8-1.2,3.7-1.6c0.8-0.4,1.3-0.6,1.3-0.6
		S129.5,344,126.2,344.9z M83.6,348.5c-1.2,1.5-4.1,1.7-5.9,1.6c-3-0.1-3.5,1.5-4.1,3c-0.1,0.3-0.2,0.5-0.3,0.8
		c-0.2,0.6-1.5,0.9-2.6,1c-0.2-1.4-1.1-2.6-2.6-3.5c-1.5-0.9-3.7-1.4-5.9-0.9c0.1-0.5,0.1-0.9,0-1.3c0-0.5-0.1-0.8-0.2-1.1
		c-0.1-0.2-0.1-0.4-0.1-0.4s-0.1,0.1-0.1,0.4c-0.1,0.2-0.2,0.6-0.4,0.9c-0.1,0.2-0.2,0.4-0.3,0.6c-0.1,0.2-0.2,0.4-0.4,0.6
		c-0.2,0.4-0.6,0.8-0.9,1.1c-0.2,0.2-0.4,0.3-0.5,0.5c-0.2,0.2-0.3,0.3-0.5,0.5c-0.2,0.2-0.5,0.4-0.7,0.6c-0.5-1.2-1.5-2.2-2.8-2.8
		c-2-0.9-4.6-0.8-6.3-0.2c0-0.1,0-0.2,0-0.2c0-0.3-0.1-0.6-0.1-0.9c-0.1-0.5-0.2-1-0.2-1.3c-0.1-0.3-0.1-0.5-0.1-0.5s0,0.2-0.1,0.5
		c-0.1,0.3-0.1,0.7-0.2,1.2c-0.1,0.2-0.1,0.5-0.2,0.8c-0.1,0.3-0.2,0.6-0.3,0.8c0,0.1-0.1,0.2-0.1,0.3c0,0,0,0-0.1,0l0,0
		c-0.2,0.5-0.4,0.9-0.6,1.3c-0.1,0.3-0.3,0.5-0.5,0.7c-0.2,0.2-0.4,0.4-0.6,0.6c-0.2,0.2-0.4,0.4-0.6,0.5c-0.1,0.1-0.2,0.2-0.3,0.2
		c-0.3-2.2-2.2-4.1-5.3-4.8c-2.7-0.6-5.6-0.4-7.5,1c0-0.1-0.1-0.2-0.1-0.3c-0.1-0.3-0.2-0.6-0.2-0.9c-0.1-0.3-0.1-0.6-0.1-0.8
		c-0.1-0.5,0-0.9,0-1.3c0.1-0.3,0.1-0.5,0.1-0.5s-0.2,0.1-0.4,0.3c-0.1,0.1-0.3,0.3-0.4,0.5c-0.1,0.2-0.3,0.5-0.4,0.8
		c-0.2,0.6-0.4,1.3-0.4,2.1c0,0.8,0,1.6,0.1,2.3c0,0.4,0.1,0.7,0.1,1c0,0.1,0,0.4,0,0.5c-0.1,0-0.2,0.1-0.4,0.1
		c-0.2,0-0.4,0.1-0.6,0.1c-0.3-2-1.6-3.7-3.6-4.7c-2.1-1.1-4.7-1.3-6.7-0.5c-0.1-0.2-0.1-0.4-0.2-0.6c-0.4-1.2-0.8-2.3-0.7-3.3
		c2.3,0,4.9,0.1,7.8,0.2c5.9,0.2,12.7,0.5,20.1,0.9c7.4,0.4,15.2,0.9,23,1.4C74.1,347.8,78.9,348.2,83.6,348.5z M68.4,355.6
		c-0.1,1.8-2.8,6.5-5.1,10.1l-2.7-11.6c0.2-0.3,0.4-0.5,0.6-0.8c2-1.1,4.3-0.8,5.7,0.1C67.4,353.6,68.5,354.4,68.4,355.6z
		 M56.3,355.6c-0.1,3.9-3.5,8.9-5.5,11.5c-1-3.9-2.9-10.5-3.4-12.2c0,0,0.1-0.1,0.1-0.1c0.2-0.3,0.4-0.6,0.6-1
		c0.1-0.4,0.3-0.7,0.4-1.1c0.1-0.2,0.1-0.5,0.2-0.7l0.3,0.3c0.6-0.6,3.2-1,5.2-0.2C55.7,352.8,56.4,353.9,56.3,355.6z M33.1,353.7
		c0-0.2-0.1-0.4-0.1-0.6c0-0.1,0-0.2-0.1-0.3c0.6-1.4,3.5-2,6.2-1.3c0.9,0.2,4,1.2,3.5,3.6c-0.6,3.2-4.6,9.4-6.7,12.6L32.4,356
		c0.4-0.3,0.7-0.9,0.7-1.4C33.2,354.2,33.1,353.8,33.1,353.7z M30.5,354C30.5,354.1,30.5,354.1,30.5,354
		C30.5,354.1,30.5,354,30.5,354z M19.8,351.3c1.4-0.6,3.5-0.5,5.1,0.3c0.9,0.5,2.4,1.5,2.4,3.6c0.1,3.1-3.6,10.2-6.1,14.5l-3.6-15.1
		c1.2-0.5,2.2-1.4,2.2-2.9C19.8,351.5,19.8,351.4,19.8,351.3z M-37.4,337.6c5.3-2.7,22.5-9.3,25.5-10.4c3.2,1.4,10.5,5,12.1,7
		l0.6,0.8l13.3-8.4c2.7,2.5,13.1,11.5,25.3,14.2c4.4,1,9.4,2,14.2,3c-2.5-0.1-5-0.3-7.4-0.4c-3.7-0.2-7.3-0.4-10.6-0.5
		c-3.4-0.2-6.6-0.2-9.5-0.3c-3,0-5.7-0.1-8.1-0.1c-2.4,0-4.5,0-6.2,0c-1.2,0-2.2,0.1-3,0.1c0.3-0.3,0.5-0.6,0.8-0.9
		c0.4-0.5,0.8-0.9,1.1-1.4c0.3-0.5,0.7-1,1-1.5c-0.5,0.4-0.9,0.7-1.4,1.1c-0.5,0.3-0.9,0.7-1.4,1C8,341.7,7,342.3,6,342.9
		c-1,0.6-2,1.1-2.9,1.7l-1.5,0.9c-0.3,0.2-0.5,0.4-0.8,0.6l-9.2-5l-0.2-0.1l-0.3,0l-7.8-0.4c-2.6-0.1-5.2-0.1-7.8-0.2
		c-2.6-0.1-5.2,0-7.8,0c-2.6,0-5.2,0.1-7.8,0.3c-2.6,0.1-5.2,0.3-7.8,0.5l-0.4,0C-43.6,339.8-39.3,338.6-37.4,337.6z M7.8,346.9
		c-3.3,0.2-6.2,2.4-7.6,3.6c-1.5-1.6-4.9-4.6-8.6-4.6c-2.9,0-5.7,1.2-7.1,3.1c-0.6,0.8-1,1.8-1,2.7c-0.5,0.1-1.2,0.1-1.6-0.2
		c-0.2-0.1-0.4-0.3-0.5-1c-0.1-1.1,0.2-2.2,0.5-3.4c0.3-1.3,0.7-2.7,0.4-4.1c0.3,0,0.6,0,0.9,0l7.5,0.2l9.6,5.2l0.5,0.3l0.5-0.3l0,0
		c0.6-0.3,1.1-0.5,1.6-0.8c0.5-0.3,1-0.6,1.5-1c0.7-0.5,1.4-1.1,2-1.6l0,0.1c0,0,2,0,5.4,0c1.2,0,2.6,0,4.1,0
		c-0.1,1.5,0.4,2.9,0.9,4.1c0.3,0.9,0.6,1.8,0.6,2.5c0,0.5-0.7,0.8-1.5,1c-0.1-0.9-0.5-1.7-1.1-2.6C13.4,348,10.6,346.7,7.8,346.9z
		 M13.6,354.3c-0.3,0.9-4.5,10.1-7.4,14.9c-2.8-10.5-4.1-14.9-4.8-16.7c1-1,3.6-3.1,6.5-3.3c1.9-0.1,4,0.8,5.1,2.3
		C13.5,352.2,14,353.2,13.6,354.3z M-1.2,352.3c-0.6,1.3-1.5,3.9-3.3,9.1c-0.9,2.6-1.9,5.5-2.7,7.4c-2-4.5-6.2-13.9-6.8-16.1
		c-0.3-1,0.1-1.8,0.5-2.3c1-1.4,3-2.2,5.2-2.2C-5.3,348.2-2.4,351.1-1.2,352.3z M-19.1,353.6c-0.9,3.6-2.7,10.5-4.3,14.4
		c-1.6-4.2-4.6-12.4-5-15.2c-0.1-1.1,0.8-1.8,1.6-2.2c2-1.1,4.8-1,5.8-0.3c0,0.2,0,0.4,0,0.5c0.2,1.5,0.9,2.2,1.6,2.6
		C-19.3,353.5-19.2,353.5-19.1,353.6z M-55.6,344.6l3.9-0.4l3.9-0.3c2.6-0.2,5.2-0.4,7.7-0.5c2.6-0.1,5.2-0.3,7.8-0.3
		c2.6-0.1,5.2-0.2,7.8-0.2c1.5,0,3,0,4.5,0c0.4,0.9,0.2,2-0.2,3.6c-0.1,0.4-0.2,0.9-0.3,1.3c-2.1-0.8-5.1-0.4-7.2,0.7
		c-1.9,1-2.9,2.5-2.8,4.3c-0.1,0-0.2,0-0.3-0.1c-0.5-0.1-0.9-0.4-1.1-0.7c-0.1-0.1-0.2-0.3-0.2-0.6c0-0.5,0-0.7,0.1-1.1
		c0-0.4,0-0.8,0-1.2c0-0.4,0.1-0.8,0.1-1.2c0.1-0.8,0.1-1.6,0-2.3c-0.1-0.7-0.3-1.2-0.4-1.6c-0.2-0.3-0.3-0.5-0.3-0.5s0,0.2,0,0.6
		c0,0.4-0.1,0.9-0.2,1.5c-0.1,0.6-0.4,1.2-0.7,1.8c-1.6-1.3-4-1.7-6.3-0.8c-2.8,1-4.6,3.2-4.5,5.5c0,0,0,0-0.1,0
		c-0.1,0-0.2-0.1-0.3-0.2c-0.1-0.1-0.2-0.2-0.2-0.5c0-0.1-0.1-0.2-0.1-0.3l0-0.2l0-0.3c0-0.3-0.1-0.7-0.1-1.1
		c-0.1-0.4-0.2-0.7-0.4-1c-0.1-0.3-0.3-0.6-0.4-0.9c-0.3-0.6-0.6-1.1-0.9-1.6c-0.6-0.9-1-1.5-1-1.5s0,0.7,0.1,1.8c0,0.2,0,0.5,0,0.7
		c-1.7-0.8-3.6-0.6-5.3,0c-2,0.8-3.4,2.3-3.8,3.9c-0.3-0.1-0.6-0.4-0.7-0.8c-0.3-1.2-0.8-3.6-1.2-5.3L-55.6,344.6z M-34.6,351.5
		c0,0.6,0.2,1.2,0.5,1.8c0.1,0.1,0.2,0.2,0.3,0.3c-0.7,1.8-3,7.6-4.3,11.8c-1.8-4-3.8-10-4-13.2c-0.1-1.6,1.4-2.9,2.9-3.4
		c1.5-0.5,3.5-0.5,4.7,1c0,0.1,0,0.1-0.1,0.2C-34.6,350.5-34.6,351.2-34.6,351.5z M-47.1,352.4c-0.6,1.1-1.7,3.9-4.2,10.7
		c-1.2-3.2-2.9-8.3-3.4-10.7c-0.3-1.2,1-2.5,2.4-3c1.4-0.6,3.4-0.6,4.6,0.9c0.1,0.3,0.2,0.6,0.3,1c0,0.2,0.1,0.4,0.1,0.6
		C-47.3,351.9-47.2,352.1-47.1,352.4C-47.1,352.4-47.1,352.4-47.1,352.4z M-59.9,350.7c0.1,0.3,0.2,0.6,0.3,0.8
		c-1.1,3.5-2.3,7.3-3.1,9.6c-1.5-3-3.5-7.4-3.8-9.4c-0.2-1.2,1.1-2,1.5-2.2c1.4-0.7,3.4-0.8,4.9,0.5
		C-60.1,350.2-60,350.5-59.9,350.7z M-78.7,347.6c2.6-0.4,5.1-0.8,7.7-1.1c2.6-0.4,5.1-0.7,7.7-1l2.2-0.3c0.1,0.5,0.2,1.1,0.4,1.7
		c-1.9-0.6-3.9-0.3-5.3,0.4c-1.9,1-2.9,2.6-2.8,4.4c-0.5,0-1.2-0.1-1.6-0.8c-1.1-2-2.1-2.3-3.5-2c-0.3,0.1-0.5,0.1-0.8,0.1
		c-2.7,0-5-0.4-6.5-1.1C-80.4,347.8-79.5,347.7-78.7,347.6z M-70.3,367.9c0.1-1.3,0.8-3.1,1.5-4.6c0.7,2,1.7,4.4,2.3,6.2
		C-67.8,369-69,368.5-70.3,367.9z M-58.3,372.6c-0.2-2.8,0.4-5.6,1-7.6c1.3,3.4,3.1,7.1,4.4,9.4C-54.8,373.8-56.6,373.2-58.3,372.6z
		 M-56,361.2l-0.7-3.2l-1.4,3c-0.1,0.2-2.5,5.3-2.4,10.8c-1-0.4-1.9-0.7-2.8-1.1c-0.7-1.8-3.3-8.5-4-10.6l-0.8-2.5l-1.3,2.3
		c-0.3,0.5-2.3,4.1-2.9,7.1c-14.4-6.5-23.8-12.9-27.5-15.7c4.5-0.8,9.1-1.7,13.6-2.5c0.7-0.1,1.3-0.2,2-0.3c2.1,2.4,6.8,2.9,9.6,2.9
		c0.6,0,1-0.1,1.3-0.2c0.1,0,0.3-0.1,0.3-0.1c0,0,0.2,0.1,0.7,0.9c0.9,1.6,2.2,2,3.5,2c0.2,0,0.5,0,0.7-0.1c1.3,4,4.4,10,4.6,10.3
		l0.8,1.6l1.1-1.4c0.8-1.1,3-8,4.1-11.4c0.3,0.1,0.6,0.2,0.8,0.2c1,4.1,4.4,13.2,4.5,13.6l1.1,2.9l1.1-2.9c1.5-4,3.8-10.2,4.8-12.5
		c0.5,0.2,1,0.3,1.3,0.3c0.9,4.7,3.6,11.7,5.4,14.7l1.7,2.7l0.5-3.1c0.5-3,3.6-11.2,4.7-14c0,0,0.1,0,0.1,0c0.6,0.2,1.1,0.2,1.5,0.3
		c1.4,5.4,5.4,15.6,5.6,16.1l0.8,2.1l1.2-1.9c2.1-3.2,4.9-14.1,5.7-17.4c0.3,0,0.6,0,0.8-0.1c1.5,4.2,7.6,17.6,7.8,18.2l1,2.1l1.1-2
		c0.5-1,1.8-4.6,3.8-10.1c0.8-2.3,1.7-4.9,2.4-6.8c1.2,4,3.3,11.7,4.7,16.9l0.6,2.3l1.4-1.9c2.5-3.3,7.5-13.8,8.8-16.9l4.7,19.7
		c-0.4-0.1-0.7-0.1-1.1,0c0.2-5.2-3.5-12.1-3.7-12.5l-1.3-2.4l-0.8,2.6c-1,3.2-5.5,9.9-7.3,12.5c-0.4-0.2-0.8-0.4-1.1-0.5
		c-0.9-3.5-3.9-13.4-4-13.9l-1.2-4l-1,4.1c-0.7,2.7-3.8,10.3-5.6,13.2c-0.4,0.1-1,0.2-1.6,0.5l-7.8-18.1l-1,2.7
		c-0.2,0.5-4,10.8-5.1,14.4c-0.4-0.1-0.7-0.2-1-0.2c-0.4,0-0.7,0.1-1,0.2c-2-4.1-5.5-11.6-6-13.6l-0.7-3.6l-1.5,3.4
		c-0.2,0.4-3.4,8-4,12.4c-0.3-0.1-0.5-0.1-0.8-0.1c-0.4,0-0.8,0.1-1.2,0.2c-1.8-3.5-5-10.4-5.3-12.9l-0.5-3.9l-1.7,3.5
		c-0.2,0.3-3.5,7.2-3.1,12.4c-0.8,0-1.6,0.3-2.2,0.7C-52.9,369.4-55.3,364.6-56,361.2z M16.7,376.3c-0.4,2.1-1.5,3.7-3.1,4.3
		c-1.7,0.7-3.8,0.2-5.9-1.3c0-0.2,0-0.4,0-0.6c0-0.3,0-0.6-0.1-0.9c1.1-1.6,5-7.2,7-11.3C15.7,369,17.3,373.3,16.7,376.3z M-1.4,383
		L-1.4,383c2.2,0,4.1-0.8,5.3-2.3c0.7-0.8,1.1-1.8,1.3-2.8c0.1,0.2,0.1,0.4,0.1,0.7c0,2.4,1,4.2,2,5.4c-2.1,0-4.3,0-6.4-0.1
		c-3.6-0.2-7.2-0.4-10.7-0.8c0.3-0.8,0.4-1.6,0.4-2.4c0-0.6,0.1-1.2,0.2-2c0.1-0.7,0.6-1.1,1.2-1.4c0,0.8,0.2,1.5,0.6,2.3
		C-6.2,381.8-4,383-1.4,383z M-5.3,376.4c1.3-2,3.6-7,5.1-10.8c1.1,3.8,2.8,9.5,3.2,11c0.2,0.9-0.1,2-0.7,2.8
		c-0.5,0.7-1.5,1.5-3.3,1.5c-2,0-3.5-1.2-4-2.1C-5.5,377.9-5.7,377-5.3,376.4z M-10.4,376.5c-0.5,0.5-0.8,1.2-0.9,2
		c0,0.1,0,0.2,0,0.3c-0.9,0.7-2,1-5.1,1.2c-1.2,0.1-2.3-0.4-3.1-1.3c-0.8-1-1-2.3-0.7-3.6c0.6-2.2,2.8-8.2,4.1-11.7L-10.4,376.5z
		 M-49.7,375.4c-0.1-0.1-0.2-0.4-0.5-0.9c0.6-0.3,1.2-0.6,1.7-0.3c0.4,0.8,0.9,1.5,1.6,2C-47.9,376-48.8,375.7-49.7,375.4z
		 M-42.8,375.4c-1.7,0-3.5-1-3.9-3.1c-0.5-2.6,0.6-6.3,1.6-8.9c1.4,3.9,4,9.1,4.9,10.9C-40.8,375.1-41.9,375.4-42.8,375.4
		L-42.8,375.4z M-34.4,379.4c-0.3-0.1-0.7-0.2-1-0.2l0,0c-2.2-0.5-4.3-1-6.4-1.5c1.7-0.3,3.1-1.2,3.7-2.6c0.1-0.1,0.4-0.2,0.6-0.2
		c0.3,0,0.6,0.2,0.9,0.6c0.3,1.2,0.9,2.2,1.7,3.1c0.5,0.5,1.1,0.9,1.7,1.3C-33.5,379.6-34,379.5-34.4,379.4z M-33.1,376.8
		c-0.8-0.8-1.3-1.9-1.2-3.1c0-2.2,1.6-6.6,2.8-9.7c1.6,4,4.5,9.9,5.5,12c-0.4,0.5-1.4,1.3-3.1,1.9c-0.4,0.1-0.7,0.2-1.1,0.2
		C-31.3,378.1-32.3,377.6-33.1,376.8z M-28.3,380.1c3.4-1.2,4.5-3.2,4.7-3.4l0.1-0.4c0.1,0,0.1-0.2,0.2-0.2h0c0.2,0,0.5,0.3,0.7,0.4
		c0.1,1.3,0.5,2.5,1.3,3.5c1.1,1.4,2.8,2.2,4.6,2.2c0.1,0,0.2,0,0.4,0c2.1-0.1,3.5-0.3,4.7-0.7c-0.1,0.5-0.2,1-0.5,1.5
		c-6.2-0.7-12-1.6-17.6-2.6C-29.3,380.3-28.8,380.2-28.3,380.1z M17.6,393.6c-0.1,0.5-0.2,1.1-0.3,1.7c-1,5.9-2.6,14.7-15.4,14.7
		c-0.3,0-0.5,0-0.8,0c-13.7-0.4-15.8-7.2-17.9-14.5c-0.2-0.7-0.4-1.4-0.6-2.1c-1.3-4.2-4.8-7.6-8.4-10c8.3,1.4,17.2,2.5,26.7,2.9
		c1.5,0.1,3.1,0.1,4.6,0.1c5.6,0,11.4-0.5,17.4-1.4C20.2,387.3,18.3,390.2,17.6,393.6z M10.6,384c-0.2-0.2-0.9-0.6-1.5-1.4
		c1,0.4,2,0.6,3,0.6c0.8,0,1.6-0.1,2.4-0.4c2-0.8,3.5-2.5,4.3-4.9c0.6-0.1,1.5-0.2,1.7,0.3c0.1,0.2,0.2,0.4,0.2,0.6
		c0.5,1.1,1.2,2.8,2.4,4C18.9,383.3,14.7,383.8,10.6,384z M22,376.4c-0.4-0.5-1-0.7-1.6-0.8l1.3-2.2c0.7-1.2,6.7-10.9,7.8-16.6
		c0.2,0,0.5,0,0.7,0l4.8,16.1l1.4-1.9c0.2-0.3,5-7,7.3-12.2l-0.6,2.9c-0.7,3.4-5,10.5-6.6,13c-0.7-0.2-1.5-0.4-2.3-0.2
		c-0.1-4.5-3.1-10.5-3.5-11.2l-1.3-2.5l-0.8,2.7C27.4,367.2,23.5,373.9,22,376.4z M23.7,378c1.4-2.3,4.3-7.2,6-11.2
		c1.2,2.9,2.7,7.1,2,9.3c-0.6,2.1-2.1,3.3-4.1,3.3c-1.2,0-2.5-0.4-3.8-1.2C23.7,378.1,23.7,378.1,23.7,378z M26.5,382.1L26.5,382.1
		c-0.6-0.1-1.1-0.4-1.5-0.8c0.9,0.3,1.8,0.4,2.6,0.4c2.9,0,5.2-1.7,6.2-4.5c0.9-0.7,1.8-0.4,2.3-0.1c0.5,1,1.1,1.9,2,2.4
		C34.2,380.5,30.3,381.4,26.5,382.1z M46.7,374.7c-0.3,1.5-3.1,3.4-5.5,3.4c-1.4,0-2.4-0.6-3-1.8c1.1-1.7,4.4-7,6.1-11.1
		C45.7,368.7,47.1,373,46.7,374.7z M58.1,373c-1.3,0.5-2.7,1-4,1.5c1.1-1.8,2.5-4.2,3.6-6.3C58,369.9,58.3,371.8,58.1,373z
		 M69.9,368.1c0.5-1.1,1.1-2.5,1.7-3.8c0.3,0.9,0.6,1.9,0.7,2.7C71.4,367.4,70.6,367.7,69.9,368.1z M74.4,366
		c-0.4-2.5-1.7-5-1.9-5.4l-1.3-2.6l-0.8,2.8c-0.7,2.5-3,7.3-3.7,8.7c-2,0.9-4.1,1.7-6.2,2.5c0-3-1.1-7.1-1.3-7.6l-1-3.4l-1.2,3.3
		c-0.9,2.4-5.3,9.6-6.3,11.3c-0.7,0.2-1.4,0.5-2.1,0.7c0.2-0.4,0.4-0.8,0.5-1.2c0.8-3.7-3.3-12.6-3.8-13.6l-1.4-3
		c0.3-0.6,0.5-1.1,0.7-1.7c0.1,0,0.1,0,0.2,0c0.2-0.1,0.5-0.2,0.8-0.4c0.9,3.2,3.2,11.4,3.6,13.3l0.5,2.3l1.5-1.7
		c0.3-0.3,7.2-8.2,7.5-14.5l3.6,15.4l1.5-2.1c0.6-0.9,5.5-7.9,6.8-12c1.5,0,4.1-0.4,4.9-2.4c0.1-0.3,0.3-0.6,0.4-0.9
		c0.5-1.3,0.6-1.5,1.9-1.5c4.6,0.2,7.6-1.2,8.5-3.7c2.1,0.1,4.1,0.3,6.1,0.4c3.7,0.3,7.2,0.5,10.6,0.8c0.3,0,0.6,0,0.8,0.1
		C98.6,353.2,88,359.6,74.4,366z"/>
</g>
</svg>
