<?xml version="1.0" encoding="utf-8"?>
<!-- Generator: Adobe Illustrator 15.0.0, SVG Export Plug-In . SVG Version: 6.00 Build 0)  -->
<!DOCTYPE svg PUBLIC "-//W3C//DTD SVG 1.1//EN" "http://www.w3.org/Graphics/SVG/1.1/DTD/svg11.dtd">
<svg version="1.1" id="Layer_1" xmlns="http://www.w3.org/2000/svg" xmlns:xlink="http://www.w3.org/1999/xlink" x="0px" y="0px"
	 width="305.834px" height="176.833px" viewBox="0 0 305.834 176.833" enable-background="new 0 0 305.834 176.833"
	 xml:space="preserve">
<g>
	<path fill="#0B3746" d="M200.729,83.311c-1.466-9.223-12.794-15.01-12.794-15.01s-3.574-9.233-10.117-10.806
		c-5.661-1.36-10.885,3.255-16.299,5.382c-5.562,2.185-12.245,2.256-17.42,0c-5.331-2.324-10.535-6.221-16.299-5.382
		c-5.038,0.732-9.984,10.574-9.984,10.574s-11.093,6.019-12.559,15.241c-0.95,5.979,0.793,9.896,5.438,13.602
		c11.921,9.51,26.303-0.866,40.903-0.866c14.6,0,31.598,10.807,43.694,0.866C199.881,93.14,201.679,89.291,200.729,83.311"/>
	<path fill="#D72050" d="M181.315,102.546c6.253-7.015,3.002-13.835-6.332-15.984c-3.831-0.882-6.333-1.054-10.742-7.379
		c-2.75-3.945-7.436-6.655-12.953-6.233c-5.503,0.421-10.193,4.433-7.404,9.24c2.826-5.025,10.044-4.938,8.991,1.595
		c-0.77,4.769-12.368,1.724-21.736,3.457c-7.882,1.459-14.954,6.687-7.425,17.275l26.255-5.91l32.217,4.443L181.315,102.546z"/>
	<path fill="#FCDCA4" d="M121.865,85.641c-0.436-0.228-0.896-0.584-1.364-0.714c0.864,4.147,0.17,9.989-2.104,14.989h9.016
		C128.75,94.917,127.024,88.332,121.865,85.641"/>
	<polygon fill="#FCDCA4" points="153.171,88.917 146.84,88.917 144.907,100.929 153.171,97.74 	"/>
	<polygon fill="#FCDCA4" points="145.861,88.917 138.478,88.917 136.789,99.917 144.172,99.917 	"/>
	<polygon fill="#FCDCA4" points="137.418,88.917 130.035,88.917 128.346,99.917 135.729,99.917 	"/>
	<path fill="#FCDCA4" d="M186.076,85.641c0.436-0.228,0.895-0.584,1.364-0.714c-0.864,4.147-0.171,9.989,2.104,14.989h-9.016
		C179.191,94.917,180.917,88.332,186.076,85.641"/>
	<polygon fill="#FCDCA4" points="154.171,88.917 161.101,88.917 162.735,100.929 154.171,97.74 	"/>
	<polygon fill="#FCDCA4" points="162.08,88.917 169.463,88.917 171.151,99.917 163.769,99.917 	"/>
	<polygon fill="#FCDCA4" points="170.522,88.917 177.906,88.917 179.595,99.917 172.212,99.917 	"/>
	<path fill="#FCDCA4" d="M126.462,57.917c0.451,2,1.188,9.006,1.409,11.559c0.634,7.311-0.1,7.791-2.659,13.406
		c0.477,0.103,0.959,0.102,1.451,0.102c6.701,0,11.34-4.044,10.445-12.777c-0.13-1.262-1.762-11.289-1.877-12.289H126.462z"/>
	<polygon fill="#FCDCA4" points="153.171,68.917 146.519,68.917 144.746,57.7 153.171,61.686 	"/>
	<polygon fill="#FCDCA4" points="145.54,68.917 138.156,68.917 136.467,57.917 143.851,57.917 	"/>
	<path fill="#FCDCA4" d="M180.937,57.917c-0.451,2-1.188,9.006-1.409,11.559c-0.634,7.311,0.101,7.791,2.659,13.406
		c-0.477,0.103-0.959,0.102-1.451,0.102c-6.7,0-11.34-4.044-10.444-12.777c0.13-1.262,1.762-11.289,1.877-12.289H180.937z"/>
	<polygon fill="#FCDCA4" points="154.171,68.917 160.88,68.917 162.624,57.7 154.171,61.124 	"/>
	<polygon fill="#FCDCA4" points="161.859,68.917 169.242,68.917 170.932,57.917 163.548,57.917 	"/>
	<path fill="#D72050" d="M130.135,58.528c4.937,0,9.484,3.305,14.13,5.354c2.47,1.09,5.298,1.622,8.173,1.622
		c2.923,0,5.896-0.549,8.595-1.622c4.739-1.882,9.244-5.35,14.193-5.35c0.494,0,0.992,0.035,1.496,0.109
		c4.849,0.714,9.739,6.412,9.739,10.522c0,2.766,10.903,5.635,12.314,14.615c0.915,5.822-0.815,9.571-5.233,13.244
		c-3.669,3.049-7.805,4.093-12.189,4.093c-9.534,0-20.244-4.937-29.87-4.937c-9.638,0-19.175,4.751-27.92,4.751
		c-4.006,0-7.847-0.998-11.452-3.907c-4.471-3.607-6.376-7.462-5.234-13.244c2.138-10.829,12.381-11.521,12.088-14.841
		c-0.361-4.095,4.761-9.583,9.611-10.297C129.1,58.564,129.619,58.528,130.135,58.528 M130.135,53.528
		c-0.767,0-1.537,0.057-2.288,0.166c-6.752,0.994-13.129,7.582-13.833,13.772c-0.29,0.189-0.616,0.395-0.893,0.569
		c-3.286,2.071-9.402,5.927-11.15,14.774c-1.447,7.33,0.777,13.082,7,18.104c4.183,3.375,8.956,5.016,14.592,5.016
		c4.891,0,9.783-1.241,14.514-2.442c4.677-1.187,9.095-2.309,13.406-2.309c4.225,0,8.888,1.135,13.824,2.336
		c5.256,1.279,10.691,2.601,16.046,2.601c6.104,0,11.137-1.717,15.385-5.248c5.985-4.976,8.138-10.484,6.978-17.864
		c-1.22-7.768-7.313-11.998-10.953-14.526c-0.456-0.317-1.016-0.707-1.443-1.025c-1.02-6.289-7.389-12.804-13.869-13.758
		c-0.729-0.106-1.478-0.161-2.224-0.161c-4.591,0-8.543,2.019-12.03,3.8c-1.404,0.717-2.731,1.395-4.009,1.902
		c-2.089,0.829-4.422,1.269-6.749,1.269c-2.252,0-4.381-0.414-6.156-1.196c-1.119-0.494-2.271-1.09-3.491-1.721
		C139.115,55.684,134.949,53.528,130.135,53.528"/>
	<path fill="#0B3746" d="M113.921,67.191c0,0,0.065-0.322,0.188-0.934c0.103-0.621,0.352-1.514,0.742-2.651
		c0.437-1.115,1.028-2.487,2.025-3.914c0.99-1.421,2.348-2.914,4.133-4.23c1.797-1.29,3.989-2.437,6.563-3.101
		c1.268-0.338,2.746-0.511,4.19-0.415c1.455,0.086,2.909,0.4,4.322,0.844c2.831,0.892,5.506,2.283,8.213,3.509
		c0.682,0.312,1.357,0.596,1.997,0.836c0.667,0.225,1.347,0.433,2.051,0.588c1.404,0.315,2.875,0.479,4.37,0.496
		c2.997,0.034,5.923-0.544,8.552-1.593c2.652-1.036,5.23-2.624,8.131-3.516c1.434-0.449,2.893-0.715,4.298-0.824
		c1.423-0.112,2.729-0.094,4.084,0.061c2.799,0.345,5.012,1.636,6.741,2.995c1.742,1.373,3.054,2.876,4.044,4.289
		c0.992,1.415,1.664,2.753,2.054,3.899c0.231,0.559,0.313,1.101,0.439,1.542c0.068,0.46,0.114,0.851,0.145,1.161
		c-0.021,0.628-0.031,0.958-0.031,0.958s-0.039-0.324-0.114-0.94c-0.074-0.301-0.174-0.671-0.3-1.099
		c-0.185-0.413-0.328-0.908-0.624-1.414c-1.035-2.054-3.184-4.812-6.587-7.02c-0.845-0.557-1.792-1.01-2.783-1.418
		c-1.012-0.321-2.075-0.661-3.169-0.654c-2.323-0.071-4.873,0.253-7.276,1.16c-2.429,0.878-4.838,2.51-7.812,3.802
		c-2.985,1.297-6.358,2.024-9.822,1.984c-1.732-0.019-3.448-0.223-5.105-0.622c-0.829-0.197-1.638-0.459-2.431-0.751
		c-0.803-0.321-1.533-0.656-2.226-0.998c-2.793-1.374-5.294-2.81-7.764-3.738c-2.472-0.949-4.833-1.303-7.101-0.867
		c-2.294,0.4-4.37,1.246-6.118,2.252c-1.738,1.034-3.138,2.263-4.221,3.481c-1.089,1.222-1.817,2.451-2.385,3.471
		c-0.521,1.044-0.894,1.885-1.085,2.478C114.034,66.883,113.921,67.191,113.921,67.191"/>
	<path fill="#0B3746" d="M119.076,71.096c0.07-0.002-0.535-1.152-0.316-3.433c0.155-1.117,0.574-2.487,1.442-3.874
		c0.864-1.382,2.118-2.799,3.793-4.014c0.833-0.617,1.778-1.169,2.854-1.629c1.095-0.466,2.351-0.718,3.617-0.771
		c2.569-0.08,5.184,0.684,7.649,1.716c2.465,1.024,4.901,2.355,7.347,3.326c2.39,0.916,5.112,1.313,7.883,1.205
		c2.787-0.109,5.442-0.712,7.899-1.735c2.513-1.022,4.971-2.281,7.535-3.183c2.541-0.908,5.289-1.439,7.827-1.017
		c2.634,0.396,4.641,1.797,6.126,3.228c3.006,2.946,3.946,6.407,3.934,8.625c0.001,0.279,0.003,0.545,0.004,0.793
		c-0.027,0.246-0.053,0.478-0.077,0.691c-0.024,0.212-0.047,0.408-0.067,0.588c-0.042,0.175-0.08,0.334-0.114,0.478
		c-0.139,0.562-0.212,0.858-0.212,0.858s0.024-0.303,0.068-0.88c0.012-0.142,0.023-0.302,0.038-0.478
		c-0.008-0.178-0.016-0.37-0.023-0.58c-0.008-0.207-0.017-0.432-0.026-0.67c-0.036-0.236-0.073-0.487-0.114-0.753
		c-0.289-2.095-1.604-5.112-4.525-7.407c-1.439-1.123-3.275-2.096-5.267-2.2c-2.067-0.164-4.279,0.415-6.547,1.381
		c-2.28,0.957-4.62,2.3-7.295,3.498c-2.711,1.238-5.835,2.019-9.03,2.136c-3.201,0.123-6.38-0.387-9.226-1.584
		c-2.762-1.21-5.047-2.626-7.311-3.727c-2.24-1.104-4.416-1.887-6.483-2.003c-1.039-0.04-2.014,0.059-2.924,0.345
		c-0.924,0.294-1.817,0.69-2.616,1.16c-1.615,0.923-2.904,2.069-3.844,3.218c-0.945,1.154-1.499,2.34-1.797,3.361
		c-0.106,0.518-0.243,0.981-0.242,1.397c-0.029,0.413-0.069,0.77-0.025,1.053C119.053,70.793,119.076,71.096,119.076,71.096"/>
	<path fill="#0B3746" d="M113.921,67.792c0,0-0.492,0.328-1.428,0.951c-0.931,0.629-2.334,1.525-3.959,2.884
		c-1.59,1.371-3.472,3.219-4.741,5.882c-0.682,1.301-1.107,2.827-1.429,4.448c-0.116,0.824-0.26,1.664-0.269,2.548
		c-0.076,0.874-0.027,1.781,0.008,2.706c0.093,3.628,1.882,7.395,4.723,10.574c2.83,3.215,6.861,5.64,11.513,6.462
		c4.687,0.784,9.817-0.012,15.121-1.175c2.657-0.568,5.391-1.227,8.225-1.765c2.829-0.541,5.771-1.003,8.829-1.051
		c6.149-0.13,11.844,1.294,17.182,2.473c2.671,0.597,5.275,1.164,7.822,1.576c2.544,0.369,5.04,0.647,7.445,0.562
		c4.828-0.106,9.181-1.635,12.747-4.11c1.778-1.214,3.347-2.596,4.637-4.098c1.277-1.511,2.246-3.161,2.846-4.855
		c1.226-3.385,0.819-6.895,0.11-9.733c-0.749-2.861-2.114-5.097-3.404-6.763c-1.298-1.673-2.474-2.85-3.26-3.649
		c-0.799-0.793-1.218-1.209-1.218-1.209s0.453,0.38,1.316,1.102c0.852,0.736,2.12,1.817,3.567,3.42
		c1.437,1.597,3.029,3.816,4.021,6.791c0.496,1.479,0.854,3.123,1.017,4.883c0.16,1.786,0.034,3.738-0.543,5.678
		c-0.568,1.94-1.562,3.851-2.891,5.591c-1.343,1.731-2.986,3.319-4.856,4.721c-3.672,2.83-8.675,4.826-13.962,5.078
		c-2.645,0.174-5.322-0.051-8.013-0.375c-2.684-0.367-5.364-0.896-8.065-1.452c-5.38-1.103-10.876-2.385-16.423-2.254
		c-2.774,0.039-5.549,0.455-8.292,0.957c-2.746,0.496-5.461,1.111-8.185,1.647c-2.727,0.518-5.435,1.03-8.18,1.211
		c-2.735,0.176-5.478,0.144-8.119-0.402c-5.292-1.088-9.808-4.099-12.738-7.758c-2.971-3.617-4.775-7.97-4.659-12.031
		c0.016-0.983,0.021-1.941,0.154-2.876c0.067-0.935,0.272-1.833,0.451-2.704c0.448-1.721,1.011-3.323,1.829-4.668
		c1.544-2.751,3.643-4.523,5.36-5.798c1.756-1.257,3.227-2.039,4.207-2.591C113.403,68.077,113.921,67.792,113.921,67.792"/>
	<path fill="#0B3746" d="M119.784,73.792c0,0-1.544,1.185-4.337,3.326c-1.352,1.093-3.073,2.443-4.338,4.469
		c-0.624,1.012-1.093,2.19-1.323,3.514c-0.244,1.366-0.433,2.812-0.333,4.27c0.057,0.727,0.184,1.451,0.405,2.156
		c0.237,0.699,0.573,1.371,0.998,2.007c0.43,0.635,0.978,1.213,1.573,1.766c0.606,0.549,1.337,1.002,2.065,1.474
		c1.437,0.975,3.117,1.595,4.868,2.071c1.792,0.344,3.674,0.549,5.649,0.373c3.941-0.228,8.087-1.393,12.467-2.544
		c4.369-1.157,9.091-2.326,14.171-2.411c5.092-0.016,9.795,1.121,14.203,2.17c4.407,1.071,8.58,2.164,12.567,2.577
		c3.975,0.451,7.762,0.09,10.925-1.323c1.56-0.686,3.048-1.648,4.188-2.671c1.134-1.059,1.93-2.368,2.396-3.733
		c0.917-2.767,0.441-5.599-0.394-7.846c-0.112-0.282-0.224-0.559-0.332-0.83c-0.106-0.264-0.223-0.465-0.384-0.698
		c-0.306-0.449-0.663-0.865-1.014-1.254c-0.71-0.776-1.415-1.447-2.059-2.039c-1.294-1.182-2.353-2.047-3.07-2.633
		c-0.721-0.582-1.101-0.887-1.101-0.887s0.408,0.265,1.187,0.77c0.774,0.513,1.913,1.273,3.322,2.346
		c0.703,0.538,1.475,1.152,2.276,1.893c0.399,0.375,0.809,0.774,1.199,1.255c0.191,0.228,0.396,0.529,0.538,0.815
		c0.138,0.278,0.278,0.562,0.421,0.85c1.066,2.308,1.88,5.39,1.027,8.738c-0.438,1.646-1.293,3.295-2.597,4.668
		c-1.337,1.349-2.84,2.428-4.612,3.34c-3.53,1.817-7.874,2.408-12.158,2.078c-4.316-0.287-8.655-1.296-13.058-2.269
		c-4.396-0.961-8.913-1.965-13.45-1.941c-9.143,0.113-17.745,4.2-26.543,4.425c-2.183,0.107-4.363-0.202-6.41-0.707
		c-2.019-0.636-3.931-1.478-5.504-2.662c-0.796-0.577-1.58-1.134-2.266-1.826c-0.675-0.698-1.295-1.438-1.782-2.259
		c-0.482-0.821-0.847-1.691-1.081-2.571c-0.218-0.884-0.31-1.763-0.318-2.606c0.001-1.694,0.324-3.227,0.678-4.624
		c0.362-1.452,1.001-2.759,1.778-3.814c1.58-2.119,3.461-3.319,4.916-4.301C118.13,74.825,119.784,73.792,119.784,73.792"/>
	<path fill="#0B3746" d="M156.489,85.425c-0.048,0.017-0.146-1.063-0.893-2.413c-0.375-0.67-0.95-1.365-1.697-1.968
		c-0.773-0.573-1.718-1.042-2.778-1.273c-0.268-0.035-0.528-0.126-0.792-0.129c-0.265-0.014-0.525-0.028-0.782-0.042
		c-0.509,0.055-1.013,0.067-1.474,0.212c-0.485,0.071-0.889,0.307-1.311,0.447c-0.389,0.203-0.747,0.422-1.084,0.617
		c-0.309,0.242-0.588,0.463-0.834,0.655c-0.25,0.199-0.417,0.418-0.584,0.574c-0.327,0.326-0.509,0.508-0.509,0.508
		s0.105-0.235,0.292-0.657c0.107-0.207,0.204-0.489,0.391-0.768c0.2-0.276,0.427-0.591,0.678-0.938
		c0.301-0.305,0.644-0.646,1.047-0.975c0.441-0.268,0.892-0.632,1.464-0.814c0.547-0.259,1.172-0.363,1.823-0.474
		c0.33-0.003,0.665-0.007,1.005-0.01c0.342-0.003,0.679,0.092,1.025,0.144c1.372,0.297,2.547,1.021,3.384,1.872
		c0.818,0.883,1.301,1.858,1.518,2.703c0.207,0.848,0.25,1.541,0.185,2.011C156.516,85.168,156.489,85.425,156.489,85.425"/>
	<path fill="#0B3746" d="M181.702,89.622c0,0-1.202-0.729-3.291-1.456c-2.075-0.724-5.029-1.587-8.264-1.791
		c-0.755-0.028-1.724-0.038-2.562-0.192c-0.859-0.142-1.676-0.429-2.394-0.793c-1.451-0.736-2.437-1.794-3.15-2.68
		c-0.715-0.9-1.202-1.673-1.539-2.208c-0.326-0.54-0.507-0.84-0.507-0.84s0.254,0.239,0.712,0.674
		c0.456,0.432,1.108,1.07,1.941,1.788c0.833,0.711,1.863,1.494,3.127,1.967c0.631,0.237,1.312,0.417,2.05,0.495
		c0.756,0.089,1.46,0.07,2.41,0.104c3.608,0.236,6.563,1.579,8.533,2.711c0.987,0.577,1.729,1.135,2.215,1.546
		c0.244,0.204,0.422,0.375,0.539,0.495C181.641,89.559,181.702,89.622,181.702,89.622"/>
	<path fill="#0B3746" d="M208.315,80.822c0,0-0.092-0.31-0.257-0.866c-0.139-0.547-0.408-1.323-0.752-2.223
		c-0.347-0.902-0.816-1.924-1.396-2.986c-0.599-1.056-1.286-2.159-2.096-3.248c-0.822-1.08-1.676-2.042-2.525-2.892
		c-0.862-0.827-1.721-1.538-2.511-2.079c-0.381-0.306-0.77-0.495-1.1-0.716c-0.331-0.225-0.636-0.378-0.888-0.508
		c-0.509-0.277-0.791-0.433-0.791-0.433s0.314-0.043,0.904-0.082c0.296-0.022,0.662-0.045,1.079-0.002
		c0.417,0.041,0.918,0.045,1.436,0.179c1.062,0.196,2.308,0.625,3.572,1.357c1.246,0.748,2.502,1.803,3.524,3.151
		c1.01,1.355,1.659,2.849,2.047,4.234c0.371,1.398,0.467,2.697,0.412,3.767c-0.058,1.069-0.211,1.912-0.389,2.479
		C208.423,80.522,208.315,80.822,208.315,80.822"/>
	<path fill="#0B3746" d="M97.519,80.822c0,0-0.108-0.3-0.271-0.867c-0.177-0.566-0.331-1.409-0.388-2.479
		c-0.055-1.069,0.041-2.368,0.412-3.767c0.387-1.386,1.037-2.879,2.047-4.234c1.022-1.349,2.278-2.403,3.524-3.151
		c1.265-0.732,2.51-1.161,3.572-1.357c0.518-0.134,1.019-0.138,1.436-0.179c0.417-0.043,0.783-0.021,1.079,0.002
		c0.59,0.039,0.904,0.082,0.904,0.082s-0.282,0.155-0.791,0.433c-0.252,0.13-0.556,0.283-0.887,0.508
		c-0.33,0.221-0.719,0.41-1.1,0.716c-0.79,0.541-1.648,1.252-2.511,2.079c-0.849,0.85-1.703,1.812-2.525,2.892
		c-0.81,1.089-1.497,2.192-2.096,3.248c-0.58,1.062-1.05,2.084-1.396,2.986c-0.344,0.899-0.614,1.676-0.752,2.223
		C97.61,80.512,97.519,80.822,97.519,80.822"/>
	<path fill="#0B3746" d="M185.437,124.913c0,0-0.206-0.145-0.6-0.419c-0.392-0.274-0.946-0.694-1.707-1.166
		c-1.491-0.977-3.692-2.282-6.524-3.479c-5.646-2.477-13.797-4.208-22.964-3.992c-4.6,0.038-8.979,0.449-12.937,1.09
		c-3.947,0.679-7.497,1.568-10.421,2.596c-2.925,1.016-5.278,2.055-6.864,2.874c-0.817,0.378-1.406,0.746-1.837,0.959
		c-0.424,0.223-0.648,0.34-0.648,0.34s0.16-0.194,0.463-0.562c0.316-0.357,0.745-0.937,1.391-1.581
		c1.242-1.352,3.218-3.165,5.977-5.043c2.75-1.887,6.342-3.71,10.567-5.11c4.231-1.36,9.089-2.267,14.226-2.312
		c2.573-0.059,5.1,0.175,7.515,0.523c2.41,0.421,4.719,0.94,6.841,1.707c4.273,1.431,7.791,3.558,10.431,5.619
		c2.649,2.075,4.412,4.133,5.508,5.603c0.563,0.724,0.936,1.333,1.196,1.736C185.303,124.7,185.437,124.913,185.437,124.913"/>
</g>
</svg>
