<?xml version="1.0" encoding="utf-8"?>
<!-- Generator: Adobe Illustrator 15.0.0, SVG Export Plug-In . SVG Version: 6.00 Build 0)  -->
<!DOCTYPE svg PUBLIC "-//W3C//DTD SVG 1.1//EN" "http://www.w3.org/Graphics/SVG/1.1/DTD/svg11.dtd">
<svg version="1.1" id="Layer_1" xmlns="http://www.w3.org/2000/svg" xmlns:xlink="http://www.w3.org/1999/xlink" x="0px" y="0px"
	 width="305.834px" height="176.833px" viewBox="0 0 305.834 176.833" enable-background="new 0 0 305.834 176.833"
	 xml:space="preserve">
<g>
	<g>
		<polygon fill="#FCDCA4" points="84,59 84,100 97,95 97,59 		"/>
		<polygon fill="#FCDCA4" points="125,59 125,93 138,100 138,59 		"/>
		<polygon fill="#FCDCA4" points="105,59 105,96 118,85 118,59 		"/>
		<polygon fill="#FCDCA4" points="146,59 146,87 159,80 159,59 		"/>
		<polygon fill="#FCDCA4" points="187,59 187,84 200,86 200,59 		"/>
		<polygon fill="#FCDCA4" points="167,59 167,100 180,97 180,59 		"/>
		<polygon fill="#FCDCA4" points="208,59 208,95 221,96 221,59 		"/>
	</g>
	<rect x="132" y="14" fill="#D72251" width="42" height="49"/>
	<rect x="70" y="52" fill="#F0A733" width="165" height="13"/>
	<g>
		<circle fill="#75A08A" cx="47" cy="31" r="8"/>
		<circle fill="#75A08A" cx="77.5" cy="31" r="8"/>
		<circle fill="#75A08A" cx="108" cy="31" r="8"/>
		<circle fill="#75A08A" cx="198" cy="31" r="8"/>
		<circle fill="#75A08A" cx="228.5" cy="31" r="8"/>
		<circle fill="#75A08A" cx="259" cy="31" r="8"/>
	</g>
</g>
</svg>
