<svg id="Layer_1" xmlns="http://www.w3.org/2000/svg" viewBox="-65 292 480 210"><style>.nav-crown-17-st-0{display:none}.nav-crown-17-st-1{display:inline;fill:#0e5941}.nav-crown-17-st-2{fill:#fcdca4}.nav-crown-17-st-3{fill:#0b3746}.nav-crown-17-st-4{fill:#75a08a}</style><path class="nav-crown-17-st-0 nav-crown-17-st-1" d="M263 1041.4c0 84.3-68.3 152.6-152.6 152.6h-.7C25.3 1194-43 1125.7-43 1041.4V817.6C-43 733.3 25.3 665 109.6 665h.7c84.3 0 152.6 68.3 152.6 152.6l.1 223.8z" id="Layer_1_1_"/><path class="nav-crown-17-st-2" d="M90.3 428C89 414.9 77.1 409.5 66 406.3c-11-3.2-19.5-9.8-28.6-16.1-4.4-8.7-4.3-20.2-2.2-29.9 3.1-14.5 12.7-31 29.3-31.4 2 0 2.7-2.7 1-3.7-11.5-6.8-23.7-8.5-36.7-6.1-12.5 2.3-25.7 7.9-35.5 16.1-18 14.9-22.7 39.5-20.5 61.7 2 20.2 11.9 38.4 28.2 50.5 15 11.1 34 15.5 52.4 15.6.4.7 1.2 1.2 2.2.8 1-.3 2-.6 2.9-.9h1c.6 0 1.1-.3 1.4-.7 7.1-1.9 13.4-3.5 18.7-9.9l1.2-1.5c6-6.1 10.3-14.2 9.5-22.8z"/><path class="nav-crown-17-st-3" d="M82.6 410.1c-.5-.4-1.2.3-.7.7 2.9 2.4 5.9 4.8 8.1 7.9 2.4 3.3 3.2 7.2 3 11.2-.5 8.6-3.4 17.5-9.2 24.1-5.3 6-13.7 9.3-21.3 11.2-8.2 2-17 2.2-25.1-.2-.6-.2-.9.8-.3 1 8.3 2.5 17.2 2.1 25.6.2 8.4-2 17.1-5.9 22.7-12.6 5.5-6.5 7.9-15.3 8.5-23.7.7-9-5-14.4-11.3-19.8z"/><path class="nav-crown-17-st-3" d="M96.2 422c-2-4.6-5.2-8.6-7.9-12.8-.3-.5-1.2 0-.9.5 2.5 3.9 5.2 7.5 7.3 11.6 2.4 4.6 3.1 9.6 2.6 14.8-.1.6.9.6 1 0 .6-4.9-.1-9.5-2.1-14.1zM95.4 441.7c-2.3 5.5-3.7 11.3-6.9 16.3-3.7 5.8-10.4 9.1-16.7 11.2-2.9.9-6 1.8-9.1 2.1-3.2.3-6.4-.2-9.6.1-1.2.1-3.7.3-4.4 1.5-.3.5-.4 1.1-.6 1.6-.8 3-5-.6-2-2.3.3-.2.3-.6.1-.8-2.4-2.4-5.9-1.6-9-1.8-.6-.1-.6.9 0 1 2.6.2 5.7-.5 7.8 1.1-3.8 2.8 2 6.6 3.5 4.4.4-.6.6-1.3.8-2 .6-2 4.5-1.8 6.2-1.9 3.8-.1 7.4.2 11.1-.7 7.5-1.7 14.7-4.6 20.2-10 5.3-5.2 6.8-13.1 9.6-19.7.2-.5-.8-.7-1-.1z"/><path class="nav-crown-17-st-3" d="M71.9 473c-4.9.1-10.3 2.6-15.1 1.4-1.4-.3-2.4-.7-3.7-.1-.3.2-.6.6-.8.9-.6 1-1.6 1.3-2.6 1.8-1.9 1-3.3 1.5-5.3.3-1.8-1.1-2.4-2.4-3.2-4.2-1-2.3-2.9-2.2-4.9-1.1-.6.3-.1 1.2.5.9 2.1-1.2 3-.4 3.8 1.5.5 1.2 1 1.9 1.9 2.7 1.8 1.6 3.8 2.5 6.1 1.5 1.2-.5 3.1-1.1 4-2 .9-.9.3-2 2.7-1.6.8.1 1.6.4 2.4.6 1.7.3 3.7-.1 5.4-.4 3-.4 5.9-1.1 8.9-1.2.5-.1.5-1.1-.1-1z"/><path class="nav-crown-17-st-3" d="M95.7 459.7c-2 5.5-7.8 9.1-12.8 11.8-5 2.6-10.7 4.9-16.4 5.2-.6 0-.6 1 0 1 6.1-.3 12.2-2.8 17.5-5.6 5-2.7 10.6-6.5 12.6-12.1.3-.7-.7-.9-.9-.3z"/><path class="nav-crown-17-st-3" d="M103.1 446.9c-1.3 1.9-1.2 4.3-1.4 6.5-.1.7-.2 1.3-.5 1.9-.2.5-1.6 2.3-1.4.8.2-1.4.6-2.7.9-4 .7-2.7 1.3-5.5 1.7-8.3.2-1.7.4-4-.9-5.4-.1-.2-.4-.2-.6-.1-4.6 3-4 10.8-5.7 15.4-1.1 3-3.5 5.7-5.7 8-2.3 2.5-5.7 5.8-9.4 5.5-.6 0-.6 1 0 1 4.7.3 8.7-4.1 11.5-7.3 3.1-3.6 4.9-7.2 5.8-11.8.5-2.6 1-5.3 2.1-7.7.3-.6 1.3-2.6 1.7-1.5.4 1 .2 2.3.1 3.3-.4 4.7-2.3 9.2-2.8 13.9 0 .2.2.5.5.5 5.1-.7 2.6-7.1 4.8-10.2.5-.6-.3-1.1-.7-.5zM106.5 432.1c-.9-1.3-2.3-2.3-3.8-2.7-.3-.1-.7-.1-1-.1.1 0 0-1.8-.1-1.9-.1-1.6-.4-3.1-.8-4.6-1-4-11.8-24.7-16.7-14.9-.3.6.6 1.1.9.5 3.1-6.3 9.1 3.6 10.9 6.3 3.1 4.6 4.8 9.6 4.8 15.2 0 .3.2.5.5.5 4-.3 7.8 5.8 4.7 8.7.3-2.5-.1-5.4-3.1-5.4-.1 0-.3.1-.3.1v-.1c-1 0-1 1 0 1v-.1c.1.1.2.1.3.1 2.8-.1 2.3 3.6 1.9 5.4-.1.4.3.8.7.6 3.5-1.9 3-5.9 1.1-8.6zM98.2 408.4c-2.4-2.5-4.5-5.7-8.4-5.5-.6 0-.6 1 0 1 3.5-.2 5.5 3 7.6 5.2.6.5 1.3-.2.8-.7zM37.8 476.4c-1-.8-3-1.9-4.4-1.4-.6.2-.3 1.2.3 1 1.1-.4 2.8.7 3.6 1.3.5.3 1-.6.5-.9zM44.5 481.6c-1.4 0-2.8 0-4.1-.6-.6-.3-1.1.6-.5.9 1.5.7 3 .7 4.6.7.7 0 .7-1 0-1zM58.3 479.7c-.5.3-1 .6-1.4 1.1-.5.5.3 1.2.7.7.4-.4.8-.7 1.2-.9.6-.3.1-1.2-.5-.9zM50.5 488h-.7c-.6 0-.6 1 0 1h.7c.7 0 .7-1 0-1zM68.2 481c-.5 0-.9.1-1.4.5-.5.4.2 1.1.7.7.2-.2.4-.2.6-.2.7 0 .7-1 .1-1zM83.5 480h-2c-.6 0-.6 1 0 1h2c.7 0 .7-1 0-1zM98.8 465.1c-1.3 1.7-2.4 3.5-3.1 5.6-.2.6.8.9 1 .3.7-1.9 1.6-3.6 2.9-5.1.4-.6-.4-1.3-.8-.8zM108.7 454.1c0-.3 0-.6-.2-.8-.2-.3-.7-.1-.8.1-.3.4-.3 1-.5 1.3-.4.5.3 1.2.7.7.2-.2.3-.5.4-.8v-.1c.2 0 .4-.1.4-.4z"/><path class="nav-crown-17-st-4" d="M66.3 326.2c-.6-1.9-2.6-3.1-4.5-3.9-6.4-3.6-14.6-4.7-21.7-4.8-8.2-.1-16.2 1.9-23.8 4.8-2.9.8-5.7 1.8-8.5 2.9-5.8 2.4-11 6.1-15.8 10.1-1.4 1.2-2.9 2.4-4.3 3.7-1.1.9-2.2 1.8-3.2 2.9l-.3.3-.2.2c-.3.3-.6.7-.8 1l-.1.1c-1.3 1.7-3.2 4.5-2.1 6.7.1.3.3.5.5.7 0 0 0 .1.1.1.2.2.5.3.7.3 1.8.4 4.8-.9 5.8-1.5 1.1-.6 5.1-3.6 5.9-1.8.1.3.2.7.2 1.1-.1 1.9-.8 3.8-.6 5.7 0 .7.1 1.2.4 1.5l.1.1c1.4 2.1 4.4-1.2 5.8-2.4 1.5-1.4 3.4-1.7 4.2.7.4 1.1.4 2.4.5 3.5.1 1.1.4 2.9 1.5 3.6 1.9 1.2 4.1-1.7 5.2-2.8 1-.9 2.5-2.4 4-1.6 1.8 1 1.3 4.7 1.5 6.4.5 3.3 3.2 3.8 5.1 1.3 1.1-1.5 2.2-4.6 4.3-4.6.7.2 1.2.5 1.6.9.8 1.3.9 3.7 1.1 4.7.4 1.8 1.8 4.5 3.7 2.5 2.3-2.3 3.1-6.6 4-9.6 1.1-3.7 2-7.4 3.6-10.9 2.7-6.2 6.9-11.6 12.6-15.2 2.9-1.8 5.9-2.8 9.3-2.8.9 0 2.1 0 2.9-.5 2.4-.9 2.3-2.2 1.3-3.4z"/><path class="nav-crown-17-st-4" d="M.1 355.6c-.9.8-1.7 1.6-2.8 2.2-1 .6-2 .8-3.1.6-1.1-.2-1.1-2.4-1.2-3.2 0-1.2.3-4.2-.7-5.2-.8-.8-1.9-.1-2.7.3-1.8.9-6.2 3.8-8.1 1.6-.4-.5-1.1.2-.7.7 1.2 1.4 3 1.1 4.6.6 1.1-.3 2.1-.8 3.2-1.3.7-.3 3-2.1 3.3.3.1 1.2.2 2.5.3 3.7.5 5.7 6 2.7 8.7.2.4-.2-.3-.9-.8-.5zM12.6 360.9c-1.3 1.4-3.2 3.1-5 3.7-3.7 1.4-4.4-2.9-4.2-5.5.1-1.5.6-4.7-1.2-5.3-.6-.2-.9.8-.3 1 1.2.4.5 4.6.4 5.5-.1 1.8.3 3.5 1.7 4.7 3 2.5 7.3-1.3 9.2-3.4.5-.5-.2-1.2-.6-.7z"/><path class="nav-crown-17-st-4" d="M-11.6 354.2c-1.1-.7-2.2.2-2.9.9-.5.4.2 1.1.7.7.5-.4 1.4-1.4 1.9-.5.3.6.3 1.4.4 2.1.1.6 1.1.4 1-.3-.2-.9-.1-2.3-1.1-2.9zM12 366.4c-2.1 1.7-5.2 3.9-8 2.7-3.1-1.3-2.4-4.5-3.1-7-.9-3.1-3.1-1.1-4.8.2-.5.4 0 1.2.5.9.4-.3.8-.6 1.2-1 2.1-1.8 2.2 1.6 2.3 2.9.2 1.8 1.4 3.4 2.7 4.6 3.1 2.5 7.4-.4 9.8-2.4.6-.6-.1-1.3-.6-.9zM25.1 364.5c-1.6 1.4-2.4 3.1-3.9 4.7-.5.4-1 .8-1.6 1.1-.4.2-.8.3-1.2.5-2-.6-2.7-1.8-2-3.5.2-1 .4-1.9.2-2.9-.2-1.3-1.2-6.8-3.7-5.1-.5.4 0 1.2.5.9.9-.6 1.4 1.5 1.6 1.9.7 2 .6 3.7.3 5.8-.2 1.2-.3 3.2 1.1 3.7 4.4 1.8 6.8-4.2 9.4-6.3.5-.5-.3-1.2-.7-.8z"/><path class="nav-crown-17-st-4" d="M25.2 367.6c-1.5 1.9-2.3 4.1-4.4 5.5-2.6 1.7-7.4 1.3-7.1-2.7.1-.6-.9-.6-1 0-.3 3.5 2.7 5 5.8 4.6 4.1-.5 5.4-4 7.5-6.9.5-.5-.4-1-.8-.5zM32.1 371.7c-4.2 2.7-2.6-8.5-5.9-9.1-.6-.1-.9.9-.3 1 1.4.2 1.5 3.6 1.7 4.5.2 1 .4 2.2.8 3.2.9 2 2.3 2.5 4.2 1.3.6-.3.1-1.2-.5-.9zM30.5 374.3c-1.5.3-2.8-.5-3-2-.1-.6-1.1-.4-1 .3.4 2 2.3 3.1 4.3 2.7.6-.2.4-1.1-.3-1zM-17.4 357c-.6.4-1.3.6-2 .2-.6-.3-1.1.6-.5.9 1 .5 2 .5 3-.2.6-.4.1-1.3-.5-.9zM-8.8 363.7c-1.5-1.4-2.7-2.9-4.9-3.3-2-.3-3.6 1.1-5.5 1.4-.6.1-.4 1.1.3 1 1.3-.2 2.5-.9 3.7-1.3 2.5-.7 4.1 1.5 5.6 2.9.5.5 1.2-.2.8-.7zM-1.8 371.2c-.9 0-1.7-.4-1.6-1.4.1-.6-.9-.6-1 0-.2 1.6 1.2 2.4 2.6 2.4.6 0 .6-1 0-1zM11.3 376.8c-.6-.2-1-.5-1.3-1-.3-.6-1.2-.1-.9.5.4.8 1.1 1.2 1.9 1.5.7.1 1-.8.3-1zM25.1 377.6c-.5.3-1.6.3-1.6.3-1 0-1 1 0 1s1.4-.1 2.1-.4c.7-.4.1-1.2-.5-.9z"/><path class="nav-crown-17-st-2" d="M259.7 428c1.3-13.2 13.1-18.5 24.3-21.7 11-3.2 19.5-9.8 28.6-16.1 4.4-8.7 4.3-20.2 2.2-29.9-3.1-14.5-12.7-31-29.3-31.4-2 0-2.7-2.7-1-3.7 11.5-6.8 23.7-8.5 36.7-6.1 12.5 2.3 25.7 7.9 35.5 16.1 18 14.9 22.7 39.5 20.5 61.7-2 20.2-11.9 38.4-28.2 50.5-15 11.1-33.9 15.5-52.4 15.7-.4.7-1.2 1.2-2.2.8-1-.3-2-.6-2.9-.9h-1c-.6 0-1.1-.3-1.4-.7-7.1-1.9-13.4-3.5-18.7-9.9l-1.2-1.5c-6-6.2-10.3-14.3-9.5-22.9z"/><path class="nav-crown-17-st-3" d="M267.4 410.1c.5-.4 1.2.3.7.7-2.9 2.4-5.9 4.8-8.1 7.9-2.4 3.3-3.2 7.2-3 11.2.5 8.6 3.4 17.5 9.2 24.1 5.3 6 13.7 9.3 21.3 11.2 8.2 2 17 2.2 25.1-.2.6-.2.9.8.3 1-8.3 2.5-17.2 2.1-25.6.2-8.4-2-17.1-5.9-22.7-12.6-5.5-6.5-7.9-15.3-8.5-23.7-.7-9 5-14.4 11.3-19.8z"/><path class="nav-crown-17-st-3" d="M253.8 422c2-4.6 5.2-8.6 7.9-12.8.3-.5 1.2 0 .9.5-2.5 3.9-5.2 7.5-7.3 11.6-2.4 4.6-3.1 9.6-2.6 14.8.1.6-.9.6-1 0-.6-4.9.1-9.5 2.1-14.1zM254.6 441.7c2.3 5.5 3.7 11.3 6.9 16.3 3.7 5.8 10.4 9.1 16.7 11.2 2.9.9 6 1.8 9.1 2.1 3.2.3 6.4-.2 9.6.1 1.2.1 3.7.3 4.4 1.5.3.5.4 1.1.6 1.6.8 3 5-.6 2-2.3-.3-.2-.3-.6-.1-.8 2.4-2.4 5.9-1.6 9-1.8.6-.1.6.9 0 1-2.6.2-5.7-.5-7.8 1.1 3.8 2.8-2 6.6-3.5 4.4-.4-.6-.6-1.3-.8-2-.6-2-4.5-1.8-6.2-1.9-3.8-.1-7.4.2-11.1-.7-7.5-1.7-14.7-4.6-20.2-10-5.3-5.2-6.8-13.1-9.6-19.7-.2-.5.8-.7 1-.1z"/><path class="nav-crown-17-st-3" d="M278.1 473c4.9.1 10.3 2.6 15.1 1.4 1.4-.3 2.4-.7 3.7-.1.3.2.6.6.8.9.6 1 1.6 1.3 2.6 1.8 1.9 1 3.3 1.5 5.3.3 1.8-1.1 2.4-2.4 3.2-4.2 1-2.3 2.9-2.2 4.9-1.1.6.3.1 1.2-.5.9-2.1-1.2-3-.4-3.8 1.5-.5 1.2-1 1.9-1.9 2.7-1.8 1.6-3.8 2.5-6.1 1.5-1.2-.5-3.1-1.1-4-2-.9-.9-.3-2-2.7-1.6-.8.1-1.6.4-2.4.6-1.7.3-3.7-.1-5.4-.4-3-.4-5.9-1.1-8.9-1.2-.5-.1-.5-1.1.1-1z"/><path class="nav-crown-17-st-3" d="M254.3 459.7c2 5.5 7.8 9.1 12.8 11.8 5 2.6 10.7 4.9 16.4 5.2.6 0 .6 1 0 1-6.1-.3-12.2-2.8-17.5-5.6-5-2.7-10.6-6.5-12.6-12.1-.3-.7.7-.9.9-.3z"/><path class="nav-crown-17-st-3" d="M246.9 446.9c1.3 1.9 1.2 4.3 1.4 6.5.1.7.2 1.3.5 1.9.2.5 1.6 2.3 1.4.8-.2-1.4-.6-2.7-.9-4-.7-2.7-1.3-5.5-1.7-8.3-.2-1.7-.4-4 .9-5.4.1-.2.4-.2.6-.1 4.6 3 4 10.8 5.7 15.4 1.1 3 3.5 5.7 5.7 8 2.3 2.5 5.7 5.8 9.4 5.5.6 0 .6 1 0 1-4.7.3-8.7-4.1-11.5-7.3-3.1-3.6-4.9-7.2-5.8-11.8-.5-2.6-1-5.3-2.1-7.7-.3-.6-1.3-2.6-1.7-1.5-.4 1-.2 2.3-.1 3.3.4 4.7 2.3 9.2 2.8 13.9 0 .2-.2.5-.5.5-5.1-.7-2.6-7.1-4.8-10.2-.5-.6.3-1.1.7-.5zM243.5 432.1c.9-1.3 2.3-2.3 3.8-2.7.3-.1.7-.1 1-.1-.1 0 0-1.8.1-1.9.1-1.6.4-3.1.8-4.6 1-4 11.8-24.7 16.7-14.9.3.6-.6 1.1-.9.5-3.1-6.3-9.1 3.6-10.9 6.3-3.1 4.6-4.8 9.6-4.8 15.2 0 .3-.2.5-.5.5-4-.3-7.8 5.8-4.7 8.7-.3-2.5.1-5.4 3.1-5.4.1 0 .4.1.4.1v-.1c1 0 1 1 0 1v-.1c0 .1-.2.1-.4.1-2.8-.1-2.3 3.6-1.9 5.4.1.4-.4.8-.7.6-3.5-1.9-3-5.9-1.1-8.6zM251.8 408.4c2.4-2.5 4.5-5.7 8.4-5.5.6 0 .6 1 0 1-3.5-.2-5.5 3-7.6 5.2-.6.5-1.3-.2-.8-.7zM312.2 476.4c1-.8 3-1.9 4.4-1.4.6.2.3 1.2-.3 1-1.1-.4-2.8.7-3.6 1.3-.5.3-1-.6-.5-.9zM305.5 481.6c1 0 2.8 0 4-.6.6-.3 1.1.6.5.9-1.5.7-2.6.7-4.6.7-.9 0-.9-1 .1-1zM291.7 479.7c.5.3 1 .6 1.4 1.1.5.5-.3 1.2-.7.7-.4-.4-.8-.7-1.2-.9-.6-.3-.1-1.2.5-.9zM299.5 488h.7c.6 0 .6 1 0 1h-.7c-.7 0-.7-1 0-1zM281.8 481c.5 0 .9.1 1.4.5.5.4-.2 1.1-.7.7-.2-.2-.4-.2-.6-.2-.7 0-.7-1-.1-1zM266.5 480.5h2c1 0 1 1 0 1h-2c-1 0-1-1 0-1zM251.2 465.1c1.3 1.7 2.4 3.5 3.1 5.6.2.6-.8.9-1 .3-.7-1.9-1.6-3.6-2.9-5.1-.4-.6.4-1.3.8-.8zM241.3 454.1c0-.3 0-.6.2-.8.2-.3.7-.1.8.1.3.4.3 1 .5 1.3.4.5-.3 1.2-.7.7-.2-.2-.3-.5-.4-.8v-.1c-.2 0-.4-.1-.4-.4z"/><path class="nav-crown-17-st-4" d="M283.7 326.2c.6-1.9 2.6-3.1 4.5-3.9 6.4-3.6 14.6-4.7 21.7-4.8 8.2-.1 16.2 1.9 23.8 4.8 2.9.8 5.7 1.8 8.5 2.9 5.8 2.4 11 6.1 15.8 10.1 1.4 1.2 2.9 2.4 4.3 3.7 1.1.9 2.2 1.8 3.2 2.9l.3.3.2.2c.3.3.6.7.8 1l.1.1c1.3 1.7 3.2 4.5 2.1 6.7-.1.3-.3.5-.5.7 0 0 0 .1-.1.1-.2.2-.5.3-.7.3-1.8.4-4.8-.9-5.8-1.5-1.1-.6-5.1-3.6-5.9-1.8-.1.3-.2.7-.2 1.1.1 1.9.8 3.8.6 5.7 0 .7-.1 1.2-.4 1.5l-.1.1c-1.4 2.1-4.4-1.2-5.8-2.4-1.5-1.4-3.4-1.7-4.2.7-.4 1.1-.4 2.4-.5 3.5-.1 1.1-.4 2.9-1.5 3.6-1.9 1.2-4.1-1.7-5.2-2.8-1-.9-2.5-2.4-4-1.6-1.8 1-1.3 4.7-1.5 6.4-.5 3.3-3.2 3.8-5.1 1.3-1.1-1.5-2.2-4.6-4.3-4.6-.7.2-1.2.5-1.6.9-.8 1.3-.9 3.7-1.1 4.7-.4 1.8-1.8 4.5-3.7 2.5-2.3-2.3-3.1-6.6-4-9.6-1.1-3.7-2-7.4-3.6-10.9-2.7-6.2-6.9-11.6-12.6-15.2-2.9-1.8-5.9-2.8-9.3-2.8-.9 0-2.1 0-2.9-.5-2.4-.9-2.3-2.2-1.3-3.4z"/><path class="nav-crown-17-st-4" d="M349.9 355.6c.9.8 1.7 1.6 2.8 2.2 1 .6 2 .8 3.1.6 1.1-.2 1.1-2.4 1.2-3.2.1-1.2-.2-4.2.8-5.1.8-.8 1.9-.1 2.7.3 1.8.9 6.2 3.8 8.1 1.6.4-.5 1.1.2.7.7-1.2 1.4-3 1.1-4.6.6-1.1-.3-2.1-.8-3.2-1.3-.7-.3-3-2.1-3.3.3-.1 1.2-.2 2.5-.3 3.7-.5 5.7-6 2.7-8.7.2-.5-.3.2-1 .7-.6zM337.4 360.9c1.3 1.4 3.2 3.1 5 3.7 3.7 1.4 4.4-2.9 4.2-5.5-.1-1.5-.6-4.7 1.2-5.3.6-.2.9.8.3 1-1.2.4-.5 4.6-.4 5.5.1 1.8-.3 3.5-1.7 4.7-3 2.5-7.3-1.3-9.2-3.4-.5-.5.2-1.2.6-.7z"/><path class="nav-crown-17-st-4" d="M361.6 354.2c1.1-.7 2.2.2 2.9.9.5.4-.2 1.1-.7.7-.5-.4-1.4-1.4-1.9-.5-.3.6-.3 1.4-.4 2.1-.1.6-1.1.4-1-.3.2-.9.1-2.3 1.1-2.9zM338 366.4c2.1 1.7 5.2 3.9 8 2.7 3.1-1.3 2.4-4.5 3.1-7 .9-3.1 3.1-1.1 4.8.1.5.4 0 1.2-.5.9-.4-.3-.8-.6-1.2-1-2.1-1.8-2.2 1.6-2.3 2.9-.2 1.8-1.4 3.4-2.7 4.6-3.1 2.5-7.4-.4-9.8-2.4-.6-.5.1-1.2.6-.8zM324.9 364.5c1.6 1.4 2.4 3.1 3.9 4.7.5.4 1 .8 1.6 1.1.4.2.8.3 1.2.5 2-.6 2.7-1.8 2-3.5-.2-1-.4-1.9-.2-2.9.2-1.3 1.2-6.8 3.7-5.1.5.4 0 1.2-.5.9-.9-.6-1.4 1.5-1.6 1.9-.7 2-.6 3.7-.3 5.8.2 1.2.3 3.2-1.1 3.7-4.4 1.8-6.8-4.2-9.4-6.3-.5-.5.3-1.2.7-.8z"/><path class="nav-crown-17-st-4" d="M324.8 367.6c1.5 1.9 2.3 4.1 4.4 5.5 2.6 1.7 7.4 1.3 7.1-2.7-.1-.6.9-.6 1 0 .3 3.5-2.7 5-5.8 4.6-4.1-.5-5.4-4-7.5-6.9-.5-.5.4-1 .8-.5zM317.9 371.7c4.2 2.7 2.6-8.5 5.9-9.1.6-.1.9.9.3 1-1.4.2-1.5 3.6-1.7 4.5-.2 1-.4 2.2-.8 3.2-.9 2-2.3 2.5-4.2 1.3-.6-.3-.1-1.2.5-.9zM319.5 374.3c1.5.3 2.8-.5 3-2 .1-.6 1.1-.4 1 .3-.4 2-2.3 3.1-4.3 2.7-.6-.2-.4-1.1.3-1zM367.4 357c.6.4 1.3.6 2 .2.6-.3 1.1.6.5.9-1 .5-2 .5-3-.2-.6-.4-.1-1.3.5-.9zM358.8 363.7c1.5-1.4 2.7-2.9 4.9-3.3 2-.3 3.6 1.1 5.5 1.4.6.1.4 1.1-.3 1-1.3-.2-2.5-.9-3.7-1.3-2.5-.7-4.1 1.5-5.6 2.9-.5.5-1.2-.2-.8-.7zM351.8 371.2c.9 0 1.7-.4 1.6-1.4-.1-.6.9-.6 1 0 .2 1.6-1.2 2.4-2.6 2.4-.6 0-.6-1 0-1zM338.7 376.8c.6-.2 1-.5 1.3-1 .3-.6 1.2-.1.9.5-.4.8-1.1 1.2-1.9 1.5-.7.1-1-.8-.3-1zM324.9 377.6c.5.3 1.6.3 1.6.3 1 0 1 1 0 1s-1.4-.1-2.2-.4c-.5-.4 0-1.2.6-.9z"/><path class="nav-crown-17-st-3" d="M202.6 421.5c-4 1.5-7.8 3.3-11.6 5.2 0-1.8-.1-3.5-.3-5.3-.1-.6-1.1-.6-1 0 .3 1.9.3 3.9.3 5.8-.5.3-1.1.5-1.6.8-2.6 1.2-5.1 2.4-7.7 3.5.4-3.7 1-7.4 1.7-11.1.1-.6-.8-.9-1-.3-.8 3.9-1.4 7.8-1.8 11.8-1.9.8-3.7 1.6-5.6 2.4-2.1.9-4.2 1.8-6.4 2.8.4-5.3 1-10.5 2.4-15.6.2-.6-.8-.9-1-.3-1.5 5.3-2.1 10.8-2.5 16.4-3 1.3-6 2.7-8.9 4.2.6-6.8.9-13.7 2-20.5.1-.6-.9-.9-1-.3-1.1 7.1-1.4 14.2-2 21.3-3.6 1.9-7.1 3.9-10.4 6.2-.5.4 0 1.2.5.9 3.2-2.2 6.5-4.1 9.8-5.9-.2 1.8-.4 3.5-.6 5.3-.1.6.9.9 1 .3.3-2 .5-4.1.7-6.1 2.9-1.5 5.9-2.9 8.9-4.3-.2 4-.4 8.1-.6 12.1 0 .6 1 .6 1 0 .3-4.2.4-8.4.6-12.6 2-.9 4.1-1.8 6.1-2.7 1.9-.8 3.9-1.7 5.8-2.5-.6 5.7-.8 11.4-1.1 17.1 0 .6 1 .6 1 0 .2-5.9.5-11.7 1.1-17.6 2.3-1 4.5-2 6.7-3 .9-.4 1.8-.9 2.7-1.3-.3 8.2-2.5 16.4-2.6 24.6 0 .6 1 .6 1 0 .1-8.4 2.4-16.7 2.6-25.1 3.9-1.9 7.8-3.8 11.9-5.3.7-.1.5-1.1-.1-.9z"/></svg>