<svg xmlns="http://www.w3.org/2000/svg" width="480" height="210" viewBox="0 0 480 210"><path fill="#75A08A" d="M150 208.167H71.083c-14.97 0-33.858-1.617-47.17-14.23C9.65 180.425 8 159.88 8 145.603l16.874-68.535 16.875 68.535c0 12.438 1.807 20.33 5.374 23.71 3.49 3.305 11.55 4.854 23.96 4.854H150v34zM330 208.167h78.916c14.97 0 33.858-1.617 47.172-14.23C470.35 180.425 472 159.88 472 145.603l-16.874-68.535-16.874 68.535c0 12.438-1.81 20.33-5.375 23.71-3.488 3.305-11.55 4.854-23.96 4.854H330v34zM249 176.167h-19v-20l9.5-16 9.5 16zM291 143.167h-19v-20l9.5-16 9.5 16zM200 143.167h-19v-20l9.5-16 9.5 16zM249 120.167h-19v-20l9.5-16 9.5 16z"/></svg>