<svg xmlns="http://www.w3.org/2000/svg" width="480" height="210" viewBox="0 0 480 210"><g fill-rule="evenodd" clip-rule="evenodd" fill="#F0A733"><path d="M245.93 152.002c.002-.086.033-.135.07-.186.053-.188-.168-.125-.114-.314.017-.242-.03-.552.15-.62.02-.164-.24-.06-.18-.258.11-.052.122-.212.2-.304-.086-.082-.027-.297-.11-.38.083-.274.09-.638.1-.996-.093-.548-.06-.84-.07-1.442-.088-.12.012-.413-.108-.502.037-.093.1-.154.137-.245-.164-.298.078-.672-.025-.94-.04-.172.125-.12.13-.244-.098-.452.077-.788.116-1.372.09-.01.107-.096.192-.115.142.023.074-.18.192-.18.047-.29-.072-.383.023-.564-.006-.177-.104-.267-.11-.44.043-.196.07-.406.147-.56-.016-.185-.097-.31-.235-.384-.04-.17.128-.12.133-.244-.136-.014-.015-.266-.046-.377a.342.342 0 0 0-.242-.258c.048-.242-.038-.365-.104-.504.057-.222-.167-.384.078-.436-.154-.2-.166-.26-.105-.568.06-.195-.093-.196-.114-.315-.004-.157.106-.19.138-.31-.062-.163.2-.288.013-.374.074-.192.27-.253.146-.492.083-.106.218-.158.2-.368-.014-.31-.168-.484-.35-.64.117-.204-.03-.32.023-.624a7.843 7.843 0 0 1-.666-.648c-.45.195-.842.074-1.38.134-.046-.017-.122-.007-.12-.067.003-.082-.11-.06-.12-.13-.218.042-.262-.078-.37-.138-.21-.055-.092.25-.318.176-.077-.012-.15-.025-.12-.132-.11.003-.16-.053-.185-.13-.184.166-.5.06-.748-.027-.42.073-.72.05-1.068.084-.22-.034-.327-.18-.618-.148-.23-.075-.184.147-.378.107-.258-.136-.424-.1-.685-.086-.15.01-.26-.02-.437-.015-.088 0-.137-.035-.186-.07.002-.104-.174-.042-.182-.132-.43.167-.658.016-1.19.017-.077.005-.147.015-.128.12l-.313-.01c-.204.046-.122-.167-.24-.197-.306-.065-.42.067-.63.1-.076-.01-.15-.023-.12-.13-.15-.03-.142.108-.317.052-.014-.147-.27-.07-.305-.198-.23.06-.65-.027-.934-.098-.378.046-.803.042-1.01.273-.088-.06-.194-.102-.178-.258-.082-.066-.185-.108-.244-.196-.154-.017-.196.09-.317.11-.172.04-.12-.13-.245-.133-.156.046-.34.07-.562.043-.016.092-.155.05-.254.05-.03-.18-.1.093-.19.058-.2.045-.188-.107-.308-.137-.072.05-.17.077-.31.052-.288-.143-.69-.17-1.122-.168-.156.004-.19-.105-.31-.137-.05.012-.12-.004-.126.058-.074.008-.18-.017-.19.056-.08-.09-.35-.1-.438-.015-.17.038-.12-.13-.244-.137-.186-.053-.23.057-.376.05-.01-.07-.096-.155-.122-.07-.13-.038-.197-.135-.306-.196-.093-.014-.23.014-.246-.072-.12-.016-.14.064-.253.054-.006.103-.176.026-.193.118-.19-.006-.238-.14-.368-.2-.19.074-.52.08-.622-.09-.346.166-.608.028-1.063.024-.194.04-.114-.176-.308-.137-.19-.01-.32.044-.38.17-.196-.278-.702-.274-1.178-.292-.17-.052-.13.117-.255.113-.023.13-.134.163-.197.245-.04-.126-.35.004-.37-.138-.23.032-.065-.302-.237-.323-.187-.078-.372-.055-.568.105-.15.013-.292-.286-.432-.08-.083-.067-.187-.112-.245-.197-.155-.017-.198.09-.317.11-.154-.012-.188-.12-.31-.01-.192-.023-.278-.145-.43-.204-.185.07-.45-.087-.69.035-.013-.087-.134-.076-.182-.13-.154-.017-.26.02-.317.11-.08-.092-.352-.103-.44-.016-.327-.09-.825-.302-1.18-.17-.138.003-.04.264-.075.372-.25.048-.035-.332-.175-.382-.048-.015-.122-.007-.123-.067-.09.03-.32-.083-.314.05-.07-.015-.094-.07-.122-.128-.092-.015-.23.014-.245-.072-.27.062-.253-.014-.498-.08-.36.06-.648-.06-1.124-.043-.173.037-.122-.128-.244-.136-.4-.084-.602-.003-.87-.156-.214.1-.276-.044-.563-.022-.157.004-.19-.105-.307-.137-.2.065-.425.104-.57.228-.118-.03-.155-.14-.307-.137-.018-.145-.297-.05-.242-.26l-.437-.016c.02-.176-.388.04-.37-.138-.115.07-.363-.002-.444.106-.154.005-.188-.104-.306-.136-.14-.022-.236.007-.255.115-.12-.03-.15-.138-.308-.136-.19.055-.377.115-.567.168-.205.045-.08-.207-.18-.26-.107.002-.158-.053-.182-.132-.424-.058-1.025-.172-1.438-.054-.244.048-.215-.16-.366-.2-.175-.058-.165.082-.315.05-.077-.008-.147-.02-.122-.13-.085.003-.134-.032-.185-.07-.222.026-.145-.226-.368-.2-.003-.115-.033-.21-.115-.253-.058-.212.027-.214-.044-.44-.206-.143.092-.285.077-.436.212.113.278.013.56.084.17-.053.324-.124.508-.167.193.024.35.076.496.143.582-.208 1.42.12 2.062.016.192.022.348.078.495.145.25-.03.433-.14.63-.227.257.066.523.122.683.276.14-.04.318-.044.44-.108.172-.04.12.13.245.135-.053.17.293-.03.245.135.164-.02.196-.182.38-.174.008.093.15.062.25.072.177-.045.156.094.31.074.238-.104.35.064.504-.106.157.013.21.124.3.2.193.054.13-.168.318-.114.014.13.275.026.31.14.125.003.25.008.374.01.14.053.32.068.432.143.132-.054.3.002.447-.17.22.215.694.312 1.053.227.257.06.75.164.996.037.35.202.97.146 1.367.303.147-.016.26-.064.378-.11.094.016.232-.013.248.07.245-.082.48-.175.818-.154.014.086.135.074.184.132-.01.105.042.16.117.19.615.033 1.205.088 1.746.19.387.055.594-.064.874.033a.41.41 0 0 0 .315-.05c.156.033.283.1.367.203.217.04.16-.216.38-.176.018.205.33.14.428.27.213.054.09-.252.317-.178.01.093.15.063.25.07.008.093.15.064.245.073.12.092.355.075.494.143.228.005.368-.082.57-.102.026.074.06.143.118.19.2.044.292-.03.44-.046.176-.002.48.193.623.023.13.126.314.192.492.27.146.005.29.01.435.017.112-.03.366.09.376-.05.126.01.072.175.246.137.24.02.458.02.625-.038.007.114.212.046.247.134l.312.013c.093-.01.23.03.25-.055.62.186.94-.043 1.494.182a.292.292 0 0 0 .19-.054c.093-.01.23.028.253-.054.11-.014.303.186.375.016.118.028.152.137.308.134.35-.153.59-.017 1.004-.086.195-.022.238.1.37.138.144.026.238 0 .313-.05.217.022.29.1.44-.046.078.107.353.033.432.14.04-.085.242 0 .253-.113.415.144 1.02.073 1.312.05.184-.01.188.146.37.137.21.014.436.037.506-.104.124.024.117.174.24.196.557-.17.93-.045 1.497.12.232.036.288-.122.384-.235.036.036.293.156.312.01.193-.038.113.176.308.136.163-.04.355-.047.443-.17.204-.008.122.248.302.262.216.034.352-.01.502-.043.012.13.273.027.308.137.15-.03.45.095.502-.045.193-.04.112.176.31.138.27-.032.544-.06.753-.16.195-.038.113.178.308.138l.313.013c.164-.018.342-.02.442-.11.22.194.95.222 1.186.046.052-.15.038-.23.08-.497.062-.196-.093-.195-.114-.316a.993.993 0 0 0-.03-.753c.1-.22.114-.65.032-.875-.047-.18.092-.157.072-.31.02-.117-.064-.14-.05-.25-.034-.15.094-.45-.044-.503-.04-.173.127-.122.13-.247a2.338 2.338 0 0 1-.23-.445c.058-.196.056-.457.148-.62.02-.106-.166-.317.016-.374-.02-.09-.097-.11-.118-.192-.026-.088.044-.233-.052-.25.038-.176.102-.323.142-.496.06-.198-.088-.197-.11-.32.015-.253.028-.51-.04-.687.036 0 .074-.05.003-.062-.04-.194.173-.114.137-.31.018-.236.014-.454-.104-.566.077-.257.028-.273.022-.56-.004-.158.04-.262.137-.31-.14-.118-.14-.32-.043-.502.013-.156-.095-.2-.183-.256.024-.127.174-.116.2-.243a.6.6 0 0 0-.177-.38c.143-.127.026-.276-.046-.378.024-.145.086-.256.137-.368-.083-.274.112-.45-.166-.57.133-.077.102-.326.268-.365-.133-.06.037-.397-.11-.443.056-.228-.14-.354.02-.5a.57.57 0 0 0-.238-.26c.01-.16.244-.08.256-.238-.065-.29.06-.404-.103-.63.125-.522.01-.805-.01-1.376.11-.02-.007-.08.01-.188.242-.018.27-.267.33-.485.145-.08.354-.096.327-.364.155.017.2-.088.255-.177.17-.012.46.104.384-.174.16.01.076.248.238.26-.087.077-.097.29-.015.373-.006.147-.01.29-.018.437.12.576.043.8.075 1.38.065.423.118.58.025.94.052.53.106 1.063.062 1.688-.01.188.123.246.174.38-.003.108-.053.16-.135.183.07.077.064.224.05.378-.057.176.085.166.053.313-.03.228.03.555-.088.684.035.312.21.664.086.94 0 .083.11.06.122.133.023.42-.03.57-.04 1.06.02.232.047.328.037.688.09.22.11.5.156.758.04.192-.174.114-.133.307-.037.216.01.352.043.502-.067.357 0 .46-.092.746.008.076.105.146-.008.188-.052.17.3-.033.244.136.063.198.023.166-.072.31-.012.16-.046.295-.14.37.03.09-.085.32.05.314-.06.106-.156.175-.2.304-.036.193.164.172.175.32-.01.178.02.41-.078.498.063.002.075.11-.005.124-.013.094.015.23-.07.247.127.244.06.478.095.69-.143.375-.04.94-.108 1.245.067.098.174.162.242.26.256-.05.25.017.56.02.195.037.257-.068.32-.175.18.015.1.272.3.26.12.022.144-.063.254-.052.117-.004.045-.208.137-.244.2-.047.075.21.24.195.157-.005.192.104.245.196.162-.02.193-.178.38-.174l.25.012c-.002.104.173.04.185.132.096-.112.41.007.504-.108.193.104.55.055.743.156.46-.01.646-.004 1.058.102.31-.082.783.022 1.07-.085.17-.037.118.13.244.137.186.05.227-.057.372-.052.008.24.462.058.557.21.275-.188.553.025.82-.156.23-.058.167.16.367.137.108.01.196-.006.253-.052.162.114.53.025.68.15.25-.035.255-.034.5.02.3.052.444-.066.625.02.087.01.14-.02.19-.054.004-.1.175-.025.192-.116.107.06.21.125.174.322.34-.28.837.152 1.255-.016.49.084.918.123 1.306.172.155.018.262-.022.317-.11.15.1.482.03.618.145.216-.003.3-.075.437.082.174-.18.498.093.625-.04.178.015.255.124.435.14.388-.053.832-.055 1.25-.077.107 0 .16.056.185.132.116.013.208.05.245.136.27-.107.415.045.69-.038.353.15.634-.007 1.057.04.146-.01.234.027.244.137.203-.154.466.056.628-.04.123-.012.135.076.25.072.19.052.23-.057.375-.05.415.2 1.05.173 1.5.058.16.334.914.117 1.238.297.196-.05.336-.158.51-.23.224-.09.03.213.178.193-.02.145.18.076.18.194.4.015.75.067 1.06.166.135-.066.26-.153.506-.106.227.032.173-.248.44-.172.076.012.145.023.12.13l.247.01c.004.16.23.108.308.2.18.02.318-.004.378-.112.332.26.89.337 1.367.303.073.11.29.086.3.262.244-.046.218.16.368.2.008.338.038.375-.023.686 0 .08.012.15.116.135.01.07-.015.175.06.188-.026.147-.22.108-.198.304a.342.342 0 0 0-.26.24c-.128-.004-.25-.008-.377-.014-.097.088-.294.072-.382.174-.26-.02-.52-.04-.63.103-.214-.022-.29-.1-.437.046-.243-.116-.656-.074-1-.1-.197.045-.19-.107-.305-.14-.14-.022-.076.18-.192.183-.114.03-.26.02-.316.112-.073-.015-.065-.103-.058-.19a.445.445 0 0 1-.182-.132c-.197.13-.668-.03-.88.094-.248-.034-.6.03-.746-.095-.085.084-.31.016-.318.174-.108.002-.158-.053-.182-.13-.106-.026-.164.087-.19-.005-.185.07-.53-.02-.813.09-.215-.022-.298-.168-.56-.145-.195-.06-.195.09-.315.11-.562.037-1.162-.132-1.56-.06-.197.04-.182-.112-.375-.073-.11.033-.255-.19-.312-.012-.11-.133-.393-.113-.55-.208-.277.08-.418-.073-.69.034-.236-.014-.177-.074-.376-.016-.07-.09-.237-.1-.307-.197-.26-.024-.298.092-.498-.02-.063 0-.082.05-.13.06-.053.013-.122-.003-.126.058-.004.083-.112.054-.128.124-.085-.008-.054-.115-.123-.133-.116.048-.23.098-.377.112-.004-.16-.206-.13-.372-.14.034-.17-.23-.067-.24-.198-.3.053-.327-.01-.63.04-.157-.013-.21-.122-.304-.198-.23.034-.263-.117-.496-.082-.26-.04-.284.172-.57.104-.23.073-.332.284-.633.286.007-.12.01-.248.017-.373-.355.033-.915-.164-1.008.15-.133-.118-.44-.077-.49-.27-.27.147-.39-.257-.685-.088-.045-.14-.212-.163-.304-.26-.478.022-.91.097-1.377.135-.08.022-.133.077-.134.183.035.17-.295-.055-.256.113-.142.052-.134-.137-.182-.193-.06-.068-.166-.143-.24-.197l-.875-.03c-.197 0-.278.13-.504.104-.017-.084-.086-.12-.055-.252-.092-.014-.23.014-.246-.07-.316-.062-.455.07-.753.032-.154-.017-.2.09-.256.18-.14-.08-.587-.28-.686-.028-.165-.148-.215-.223-.494-.144-.11-.178-.436-.158-.616-.274a1.6 1.6 0 0 0-.505.107c-.24-.002-.545-.072-.63.1-.11-.078-.204-.17-.3-.262-.313.157-.793.035-1.19-.045-.312-.082-.58.127-.682-.088-.123-.004-.086.168-.254.115-.207.077-.193.398-.334.55.043.257.004.215-.02.5-.045.288.07.38-.02.562-.025.224.178.234.17.444-.177.044-.088.378-.207.49.055.113.012.314.112.38-.01.097-.16.044-.132.182.066.458.132.734-.044 1.124.127.412-.01.996-.11 1.373.04.16.046.356.17.444.01.18-.148.184-.14.367.125.297.083.658-.04 1 .032.172.146.266.172.443.048.202-.104.19-.135.307.054.413-.07.672.022 1.002a.397.397 0 0 1-.073.31c.12.45-.02 1.14-.002 1.688a.89.89 0 0 0 .17.443c.04.175-.126.124-.134.247.22.218-.09.722.086 1.065a.406.406 0 0 1-.073.31c-.054.17.118.132.112.256-.08.172-.082.428-.088.684.088.202.004.56.162.692-.21.357.103.737-.1 1-.02.116.064.14.053.25.084.042 0 .24.114.256-.12.168-.17.423-.274.614-.06.197.093.195.114.316-.05.367.077.572.156.818-.113.005-.045.21-.13.246-.013.246-.02.5-.03.746.023.123.13.164.11.318.305.08.716.062.995.164.104.002.21.008.312.01.094-.008.23.03.253-.053.034.088.238.018.244.132.195.04.147-.185.38-.108.01.097.104.013.128-.058.192.23.646.308.99.224.28.006.205.333.42.392.146.025.245 0 .32-.05.263.147.53-.063.743.152.095-.07.258-.068.32-.175.15.206.275.058.498.018.077.106.27.106.365.202.417.018.78.082 1.057.225.352-.013.484-.05.812.03.134.02.2-.042.193-.18.4.196.966.232 1.49.308.01.09.133.076.182.133.12.006.072.174.24.136.25.02.33-.123.513-.17.362-.024.545-.018.803.154.843-.026 1.85.132 2.553.41.164.005.352.038.438-.046.18.052.264.197.557.146.09.193.355.232.483.394.166.01.3.005.44.017.082.004.224.075.246.07.023-.003-.008-.067.064-.058.28.025.573.176.874.093.012.09.132.077.182.133.124.005.07.173.245.134.297.018.47-.1.694-.162.253.002.51.012.618.148.14-.135.212.06.436.018.158-.004.19.105.31.137.146.006.293.01.436.017.25-.007.184.273.43.268.013.048-.005.122.056.126.12.482-.047.91-.053 1.438-.397.023-.648.21-1.07.21-.436.267-1.066.323-1.644.44-.2.027-.186-.127-.31-.014-.178-.018-.255-.125-.434-.144-.436.093-1.008.042-1.324.265-.346-.05-.617-.033-.927-.22-.108-.013-.165.037-.197.114-.072-.013-.134-.118-.186-.008-.124-.005-.07-.175-.245-.134-.152-.018-.26.02-.316.113-.146-.025-.134-.2-.24-.26-.21-.033-.27.1-.38.173-.25-.11-.354.01-.622-.086-.135.032-.41-.092-.44.047-.107-.062-.313-.035-.37-.14-.16.18-.615.03-.76.223-.24.044-.217-.163-.368-.2-.23-.078-.185.146-.377.107-.183-.2-.427.023-.557-.207-.123-.004-.085.166-.256.114.028-.348-.332-.333-.607-.396-.107-.008-.162.043-.195.117-.062.062-.127.12-.193.185-.146-.148-.447-.126-.554-.212-.04-.032-.043-.128-.12-.13-.312.12-.576-.102-.875.03-.135-.136.062-.2-.054-.316-.128.1-.08-.006-.25-.01-.108.034-.36-.087-.375.05a.716.716 0 0 0-.56-.02c-.19-.228-.738-.123-.992-.287l-.374-.015c-.112 0-.195-.02-.25-.073l-.187-.006c0 .034-.05.07-.064-.003-.09.01-.062.148-.07.247-.122-.022-.127.08-.192.12-.314.184-.18-.282-.555-.21l.008-.188c-.323-.1-.83.043-1.12-.166-.22-.042-.162.215-.38.174-.006-.2-.243-.178-.43-.204-.083-.004-.063.106-.13.12-.076.006-.073.096-.072.186-.032-.11-.295-.008-.307-.138-.247.07-.144-.188-.305-.198-.157 0-.13.204-.136.368-.044.128.06.413-.083.435.086.16.144.25.048.438.005.118.034.21.112.256-.057.154-.09.33-.08.558-.024.143.006.236.116.255-.036.092-.1.154-.137.247-.015.154.093.194.114.315.03.112.022.26.11.317-.04.127-.135.195-.2.303.006.178.105.264.11.443-.134-.016-.034.22-.072.31-.167-.052.032.295-.135.244.044.22.177.36.227.57-.14.046-.164.214-.26.304-.006.146-.01.292-.017.438.006.117.034.212.117.256-.072.288.066.38.1.567-.074.01-.04.067-.003.125-.09.013-.077.134-.13.182.053.13.12.252.174.383-.013.16-.122.212-.2.304.338.722-.334 1.596.107 2.13.652.13 1.483-.108 2.125.02.143-.042.318-.046.44-.11.73.095 1.15.076 2.122.145.18.022.196-.136.378-.113 1.058.19 2.442.176 3.366.315.34-.033.396-.018.69-.035.626.158 1.398.186 2.05.326.23-.012.547.073.686-.037.125-.014.125.09.185.13.225-.025.3.085.43.145.15.03.143-.11.316-.05.263.007.397.135.626.02.012.092.13.078.182.135.297-.06.502.164.687.025.183.01.204.172.368.2.213-.075.41-.157.633-.224.083.004.165.006.25.008.072.01.1-.086.126.006.233-.016.103.306.297.324.205-.044.468-.024.63-.104.174-.037.12.13.25.137.31-.012.564.037.74.152.23.073.184-.15.38-.112.092.176.468.088.616.212.484-.026.81.093 1.248.11.153-.004.19.104.306.135.7-.107 1.425.234 2.243.21.32.118.852.25 1.182.17.327.14.588.055.806.22.213-.02.346.035.495.08.105.004.21.008.313.01.152.017.263-.02.316-.11.125.04.115.192.242.073.178-.04.124.127.247.132.23-.032.33.056.432.142.193-.075.498-.023.695-.098.32.054.348.146.684.086.2.256.677.258.918.474.2.493.125 1.01.067 1.565-.332-.063-.525.112-.682-.09-.2.124-.518-.032-.63.038-.194-.036-.167.163-.318.176-.156.03-.228.145-.32.237-.178-.057-.17.086-.316.052-.244.026-.252-.168-.43-.202-.19-.01-.247.123-.382.174-.197.023-.155-.176-.306-.2-.25-.086-.46.148-.498-.082-.115-.018-.14.064-.25.054-.16.005-.194-.105-.31-.138-.143-.005-.29-.01-.437-.017-.195.076-.518.01-.63.166-.224-.03-.224-.177-.434-.08-.008-.092-.15-.06-.25-.07-.115.01-.135-.076-.248-.072-.106-.01-.16.042-.188.116-.043.088-.243.004-.26.115-.084.01-.11-.32-.18-.13-.155.005-.192-.105-.31-.138-.195.05-.348.143-.51.23-.2.012-.122-.246-.3-.262-.61.104-1.083-.062-1.684-.125-.16-.016-.26.023-.318.113-.113-.014-.206-.05-.247-.133-.285.145-.615.034-.876.09-.182.01-.186-.146-.367-.138-.182-.023-.2.134-.38.11-.43-.12-.6.016-.995-.162-.158-.016-.303-.023-.316.112-.146-.024-.11-.222-.307-.198-.1.002-.217-.02-.19.115a.416.416 0 0 1-.183-.132c-.146.014-.127.212-.32.176-.23-.006-.394-.078-.556-.145-.093.005-.23-.032-.255.05-.17-.12-.423-.17-.614-.27-.107-.042-.368.06-.372-.078-.083-.003-.06.108-.13.118-.198.024-.218-.12-.434-.076-.44.04-.584.013-1.062.02-.12.005-.212.034-.258.117-.287-.072-.38.065-.563.104-.002-.112-.16-.037-.247-.072-.086-.03-.106-.098-.18-.132-.255-.01-.504-.02-.752-.028-.19.01-.1.328-.266.364-.233.034-.146-.224-.237-.32-.237.093-.718-.084-.698.284-.108-.06-.313-.03-.37-.138-.16-.014-.295-.046-.367-.14-.08.004-.15.014-.137.12-.113-.017-.135.067-.25.054-.013-.084-.082-.122-.05-.252-.26-.02-.317.18-.572.166a.387.387 0 0 0-.115-.19c-.2.09-.273-.046-.498-.082-.365-.014-.62.124-1-.038-.19.03-.328.12-.506.168-.155.002-.304 0-.308-.136-.1.104-.336.07-.446.17-.19-.063-.374-.134-.49-.27-.24 0-.12.388-.325.426-.312.07-.295-.168-.362-.326-.286-.038-.69.038-.873-.095a.292.292 0 0 0-.19.055c-.002.082-.11.053-.127.12-.104-.112-.213.048-.438-.017-.08 0-.09.078-.188.057-.385.156-.253.47-.41.86a2.45 2.45 0 0 1-.044 1.122c.057.21.098.434.164.633.056.117-.195.2-.01.248-.005.126-.173.074-.13.246.157.515.04.778-.052 1.313-.014.192.064.302.106.44-.013.155-.122.19-.013.312.042.172-.126.12-.13.244.182.058-.047.2-.012.313-.005.572.03.765.008 1.374-.06.2.094.196.115.318-.122.18.003.386-.083.496.084.414.158.623.152 1.008.043.2-.107.188-.14.307.066.258.115.535.223.758-.03.57-.09 1.168.195 1.445-.084.265-.007.254.043.502-.01.072.005.178-.07.186a.42.42 0 0 1-.13.182c.165.242.026.408.097.754.048.137.398-.01.434.143.415-.107.648-.04 1.125-.02.154.017.196-.09.316-.113.157-.003.26.042.31.136.144.025.078-.176.193-.178a.71.71 0 0 0 .564.02c.377.09.595-.003.93.16.228.03.554-.033.686.088.175-.05.312-.137.508-.168.247-.06.213.23.372.076.013.1.135.05.187.008.014.09.132.076.18.13.22-.083.495.04.75.095.283.04.357-.1.56.02.156.014.262-.022.318-.114.104 0 .16.054.182.133.093.012.232-.015.248.07.127-.015.13-.164.257-.18.44.075.854.175 1.367.18.198.06.197-.093.32-.116.145.027.264.076.304.2.072-.007.098-.063.13-.118.067.008.102-.088.124.004.305-.02.282.258.487.33.525-.128.987.065 1.495.12.23.05.243-.127.446-.108.016.142.328.012.366.138.338.026.753-.014.996.1.286-.034.313.034.502-.043.108 0 .16.054.186.132.09.013.23-.014.243.07.11.01.163-.04.192-.117.063.125.286.1.37.2.076 0 .145-.01.13-.118.128.023.112.173.243.197.152.016.193-.092.317-.113.208.047.31.19.617.146.157-.002.192.105.304.136.155.017.306.024.32-.11.21.185.628.227.8.28.193.054.132-.167.32-.115.197-.02.155.176.306.2.158-.002.257.04.307.137.188.028.488-.05.496.145.143-.017.237-.093.437-.048.112-.003.143.068.118.19.405-.012.562.204.8.345.147.008.19-.1.38-.05.105 0 .156.056.18.134.034.09.24.02.244.135.174.06.166-.082.313-.052.1.094.216.167.24.323.343.024.602.124.736.34.24.08.23-.212.38-.048.264.48.463 1.012.432 1.768-.05.01-.073.05-.067.12-.085.02-.12.086-.25.056.013.123-.09.12-.132.18-.03.08-.087.125-.19.12-.202.022-.198-.142-.18-.32-.147-.003-.177-.114-.37-.075-.154-.086-.2.022-.248-.072-.223.012-.16.166-.38.047-.117.092-.35.055-.44.172-.276-.06-.38.068-.63.04-.118-.026-.124.08-.19.117-.238.025-.25-.168-.43-.204-.194-.013-.3.065-.442.108-.224-.03-.22-.177-.432-.08-.07-.135-.266-.155-.366-.263-.19.245-.38.115-.753.098-.092.05-.242.04-.196.244-.202.02-.135-.197-.372-.143-.2-.06-.093.204-.257.18-.302.003-.276-.306-.484-.394-.078.022-.127.074-.133.18-.104-.005-.158.045-.19.12-.315-.188-.572-.434-.978-.537-.14-.09-.242.15-.25-.01-.124-.004-.09.165-.255.115-.152.02-.13-.12-.312-.074a1.985 1.985 0 0 0-.68-.213c-.197-.036-.182.15-.26.24-.17-.103-.345-.202-.485-.33-.178.005-.32-.028-.37-.14-.16-.08-.275.182-.248-.073-.552.133-.784.056-1.376.01-.194-.016-.212.16-.44.11-.178.004-.15-.184-.242-.26-.328-.032-.654-.074-.865-.22-.153-.016-.197.09-.316.114-.136.006-.196-.06-.18-.193-.256.12-.54.004-.682-.153-.15-.03-.14.108-.315.05-.116-.012-.206-.047-.244-.133-.05.01-.123-.004-.128.057-.052.013-.124-.005-.13.058-.12-.006-.07-.174-.243-.135-.145-.023-.236.007-.257.115-.127-.023-.116-.173-.24-.195-.286.05-.678-.02-.997-.1-.32-.002-.51.145-.817.154-.248.046-.218-.16-.37-.2-.094-.015-.23.015-.248-.073-.094-.01-.232.017-.247-.07a2.36 2.36 0 0 0-.448.235c-.122.012-.118-.09-.182-.133.005-.104-.17-.042-.182-.134-.268.133-.453-.075-.682-.15-.52.077-.672-.098-1.064.083-.19-.042-.323-.142-.493-.203-.137.157-.288.296-.574.292-.204.007-.124-.25-.306-.265-.215.044-.257-.126-.373-.013-.147.112-.247.276-.142.495-.084-.004-.06.107-.13.12-.006.077-.084.08-.07.185-.007.408.265.56.406.828.208.23.323.545.534.77-.065.302.068.418.1.63-.004.232-.107.358-.205.49.023.273.004.353.044.503l-.015.375c-.04.11.062.37-.077.372.003.118.208.052.182.195-.067.165-.15.313-.206.492l-.02.562c-.018.134.04.2.182.192.02.197-.174.16-.2.307-.138.047-.11.27-.2.365.004.075-.02.18.054.19a.462.462 0 0 0 .118.193c-.006.123-.172.072-.135.244.02.196-.175.158-.2.305-.01.158-.122.213-.2.304.007.183-.024.318-.138.374-.018.196.158.212.107.44-.008.207.196.22.17.443-.162-.025-.056.242-.255.177-.096.07-.107.233-.197.308-.102.27.2.294.043.438.007.158-.103.19-.194.244-.05-.172-.146.137-.256.113.04.22-.1.238-.08.437-.305.057-.432.313-.584.54-.154-.014-.188-.126-.25.053-.117-.116-.412-.06-.62-.086-.147-.165-.32-.308-.485-.456.047-.222-.06-.303-.104-.44-.023-.08-.078-.13-.184-.133-.064-.06-.01-.23-.18-.19.16-.817-.125-2.007.04-2.814.02-.153-.087-.196-.11-.317.002-.165.048-.365-.11-.378.075-.136.214-.2.263-.365-.29-.552.113-1.378-.123-1.756.06-.173.09-.382.15-.557-.004-.075-.017-.148-.122-.13-.04-.193.177-.113.138-.307.01-.29.02-.583.033-.873-.004-.18-.103-.267-.108-.442-.023-.198.097-.24.14-.37-.187-.51-.142-1.234-.115-1.94-.013-.172-.258-.124-.302-.264-.14-.09-.24.152-.248-.01-.074-.072-.22-.078-.375-.076-.2-.062-.096.2-.197.242-.168-.127-.317-.266-.486-.39-.142-.026-.233.003-.252.112-.135-.06-.208-.168-.435-.14-.11 0-.158-.054-.182-.134-.093-.014-.23.014-.247-.072-.198-.062-.092.2-.256.18-.172.04-.122-.13-.242-.135-.145.043-.252.12-.443.108-.002-.08-.08-.088-.057-.19-.1.003-.054.16-.19.12.022-.144-.18-.078-.184-.195-.103-.006-.158.043-.19.116-.124-.003-.072-.17-.243-.13-.113.03-.365-.093-.38.045-.22.028-.144-.226-.366-.2-.06.062-.23.012-.194.18-.04.105-.295-.016-.315.114-.2.047-.077-.21-.24-.197-.51.13-1.017-.146-1.564-.06-.034-.087-.127-.122-.242-.136-.17-.012-.13.102-.25-.01-.182-.022-.197.136-.38.113-.073-.012-.146-.023-.12-.132-.117.012-.133-.074-.248-.07-.092-.094-.238-.14-.367-.203-.213-.034-.353.013-.5.044-.217-.02-.23-.23-.43-.266-.216-.06-.24.084-.44.046-.11 0-.195-.02-.247-.073.003-.104-.17-.042-.183-.13-.43-.09-1.014-.06-1.488-.246-.148-.005-.19.103-.38.05-.36-.047-.53-.273-.926-.285-.072-.02-.097.035-.128.06-.042.03-.082.09-.13.12-.14-.023-.234.005-.253.114-.064-.092-.216-.045-.31-.077-.14-.042-.158-.07-.246-.132-.152.03-.29.08-.5.044-.232-.01-.274-.188-.43-.268-.177-.076-.365-.144-.49-.268-.094-.014-.232.014-.25-.072-.19.01-.284.125-.44.17-.12.012-.136-.075-.25-.07-.176.003-.147-.184-.238-.26-.25.03-.245-.175-.495-.143.068-.366-.257-.365-.29-.635.02-.244.265-.24.33-.428.146.008.292.012.436.018.126.004.087-.166.256-.115.115-.004.05-.206.193-.18-.016-.146.184-.064.193-.18.42.04.664-.107.946-.217.173.035.067-.23.198-.242.273.005.445.11.55.27.29-.13.61.025.872.098.16 0 .3-.025.38-.11.155.01.19.124.31.01.14-.007.2.06.184.195.212-.096.428.002.62.087.262-.028.69.008.997.1.19.052.188-.1.376-.048.18-.046.16.094.31.073.105.002.21.008.313.01.108-.02.158.1.187.008.247-.02.318.144.438-.044.127.063.242.135.37.2.123-.038.17-.16.198-.305.098.037.14.14.243.193.09.05.295 0 .307.14.118.017.14-.067.25-.054.052.11.107.22.307.197.174.06.165-.082.315-.05.083.014.133-.314.19-.118.172-.155.198.168.302.26l.375.015c.2-.048.123.167.242.198.214-.05.393-.14.632-.164.78.177 1.688.083 2.305.21.27.015.34-.194.57-.228-.004.082.107.062.12.13.08.007.083.082.187.07.208-.013.396-.05.506-.17.113.075.292.09.43.142.19.053.188-.1.38-.05.122.134.122-.02.25-.05.187.03.313.11.43.203l1.002.038c.142-.042.144-.233.32-.238.023-.144-.002-.24-.052-.315-.02-.15.12-.132.074-.31.006-.165.012-.333.02-.5-.15-.078.136-.23-.052-.313.056-.118.115-.227.142-.37-.018-.32-.092-.474.03-.813.017-.255.03-.51-.038-.688.156-.05-.002-.438.144-.495.008-.288.05-.61-.03-.815-.06-.236.162-.172.137-.37.078-.27-.204-.214-.17-.442a.417.417 0 0 0 .19-.12c-.01-.145.022-.24.077-.308.008-.166.012-.336.02-.5.01-.074-.006-.18.068-.186-.008-.072-.105-.145.006-.188-.027-.093-.082-.16-.117-.254-.016-.152.124-.13.08-.31-.085-.204-.043-.526-.036-.813.04-.112.043-.26.14-.31-.17-.242.083-.613-.03-.812-.013-.12.074-.137.07-.25.053-.188-.102-.186-.047-.375.086-.31.08-.55.152-.746-.03-.177-.08-.327-.107-.504.076-.01.04-.066.005-.123.037-.11.04-.26.137-.31.02-.14-.008-.234-.115-.253.03-.117.182-.107.137-.307-.127-.184-.54-.105-.744-.217-.23-.074-.184.148-.377.112-.027-.22-.386-.124-.424-.33-.148-.026-.232.106-.258.114-.05.02-.125-.067-.122-.067a2.06 2.06 0 0 0-.44.107c-.392-.157-1.098-.025-1.494-.18-.195-.014-.35.015-.44.107-.165-.03-.18-.192-.37-.2-.232.032-.478.048-.69.096-.317-.05-.76-.153-1.063-.038-.088.012-.105.1-.19.117-.092.14.15.242-.01.252-.286.045-.166-.287-.296-.388-.345-.048-.776-.188-1.063-.102-.088.012-.075.134-.134.182-.076.022-.13.075-.128.183-.14.085-.3.154-.27.425-.083-.02-.116-.092-.243-.07-.148.014-.148.188-.262.24-.195-.01-.355.193-.502.044-.082.082-.297.026-.38.11-.092.03-.318-.086-.315.05-.31-.11-.632-.115-.867-.158-.19.04-.113-.175-.31-.137-.224-.025-.304.102-.503.105-.267-.014-.45-.1-.682-.15-.14-.02-.233.006-.253.115-.16-.125-.568-.085-.75-.028-.078-.106-.273-.108-.367-.2-.334.098-.594-.096-.997-.1-.18-.055-.3-.162-.426-.268a21.924 21.924 0 0 0-.25-.01c-.074.008-.18-.02-.19.056-.135-.076-.2-.218-.365-.264-.214-.06-.264.058-.378.108-.204.07-.042-.204-.245-.133-.11-.038-.262-.042-.312-.136-.116.005-.207.034-.25.117-.29-.24-.957-.122-1.174-.423-.092.01-.23-.03-.253.055-.088.03-.143-.25-.185-.073-.124-.02-.116-.17-.24-.195-.46-.055-.83-.195-1.368-.176-.01-.234-.306-.2-.36-.39-.126-.003-.252-.01-.377-.015-.006-.07.018-.175-.055-.187-.305.01-.403.152-.328.424-.153.02-.13-.12-.31-.074-.013-.127-.12-.17-.178-.256-.18-.084-.538.03-.68-.212-.198.065-.423.108-.63.162-.067-.06-.015-.23-.182-.194-.06-.086-.164-.13-.18-.258-.106 0-.156-.053-.182-.13-.424.03-.66-.11-1.056-.103a.98.98 0 0 0-.738-.404c-.02-.08-.074-.13-.182-.13a.47.47 0 0 0-.297-.386c-.008-.075.017-.178-.056-.19.01-.357.18-.545.16-.933.025-.19.203-.217.143-.497.152-.03.15-.23.202-.368.142-.044.165-.21.263-.302.117-.004.208-.033.253-.114.232.002.18-.066.378.014-.007-.18.38.066.376-.11.075.09.293.048.37.138.084-.06.234-.053.317-.113.124.028.455.17.56.02.176-.04.12.128.246.135.04-.018.246-.146.25.01.072-.05.17-.076.314-.053.123.006.085-.166.253-.113.01.17.228.15.302.26.23.03.555-.033.685.09.09-.032.322.083.316-.053.137.073.308.115.43.205.254.024.604-.04.682.15.096-.094.32-.044.502-.044.21.107.49.147.74.216.447-.062.422.02.94.036.108.04.257.04.306.136.07-.01.1-.067.13-.118.095-.01.23.03.253-.055.25.165.663.38.987.285.07.137.373.057.432.205.19-.037.12-.04.31.012a3.31 3.31 0 0 1 .875-.03c.203-.044.19.107.308.138.19.01.247-.12.384-.173.197-.02.238.1.37.14.325-.096.562-.03.816-.095.094.063.218.015.372.014.17.002.385.01.562.02.113.007.185.065.247.07.093.013.136-.054.19-.054.083 0 .117.11.246.07.077-.002.148-.01.13-.12.27.097.552.172.804.282.2-.01.383-.13.627-.104.147.02.257.06.373.143.853-.076 1.225.154 2.12.143.034 0 .07-.05.002-.062.002-.064.055-.072.067-.125.223.07.407.184.68.215.175.02.31-.033.5-.044.48-.023.883-.034 1.188.046.154.015.196-.092.317-.115.233.088.303-.043.494.082.147-.04.325-.043.445-.106l.87.033c.556-.16 1.548-.092 2 .012.134-.055.253-.117.383-.172.017-.074 0-.178.07-.186-.063-.146.02-.166-.112-.316.102-.194.03-.273.02-.5.135-.456-.04-.675.165-1.055-.1-.17.015-.536-.098-.692-.04-.193.174-.113.137-.307.09-.14-.155-.24.01-.25-.108-.043.013-.295-.116-.316.358-.602-.063-1.388.14-2.06.02-.152-.087-.196-.112-.315.008-.29.02-.583.03-.873.085-.107.027-.363.146-.434-.118-.154.058-.578-.164-.63.018-.09.105-.103.132-.184.013-.095-.015-.23.07-.248-.05-.112-.142-.187-.176-.316.046-.372-.04-.56.032-.815-.012-.126-.165-.127-.178-.256-.26.04-.317-.108-.56-.083-.346-.168-.903-.17-1.296-.426-.2-.015-.38-.017-.445.108-.14-.047-.156-.213-.302-.26-.213.02-.35-.04-.492-.084-.12.014-.14-.074-.25-.07-.093-.014-.232.015-.246-.072-.13.016-.17.12-.26.18-.17.037-.12-.13-.242-.135-.154.002-.303-.002-.37-.078-.34.064-.442-.013-.813-.03-.178-.04-.26-.163-.43-.205-.515.06-1.006-.11-1.494-.243-.318.103-.574-.106-1 .024-.19-.225-.65-.2-.86-.405-.206.018-.28.173-.447.232-.164.07-.204-.127-.304-.14-.123-.008-.182.066-.32.116-.232-.105-.458-.215-.804-.22-.187-.065-.37-.138-.554-.208-.148.034-.29.08-.502.044-.373-.167-.798.052-1.06-.164-.19.028-.328.12-.503.168-.2.073-.34-.198-.44-.016-.126-.022-.115-.175-.243-.198-.166-.006-.357.01-.434-.076-.166-.05-.124.123-.193.178-.085-.003-.055-.11-.12-.13 0-.1-.17-.04-.183-.132-.158-.054-.352-.075-.434-.203-.252.007-.334.2-.568.23-.036-.13-.315-.027-.242-.26-.145.037-.22.152-.318.24-.088-.022-.067-.14-.12-.193a.434.434 0 0 1-.18-.133c-.325.037-.45-.104-.75-.09-.196-.062-.198.088-.257.18-.126-.025-.114-.175-.242-.197.074-.232-.206-.133-.24-.26-.126.122-.406.08-.57.166a.914.914 0 0 1-.428-.203c-.073-.014-.178.004-.186-.07-.313.023-.527.027-.812-.03-.196.02-.156-.175-.305-.2-.294.002-.41.055-.688-.023-.075-.012-.145-.027-.12-.133-.083-.002-.166-.006-.25-.01-.04-.202-.314-.19-.426-.328-.088-.037-.324.06-.31-.074-.13.05-.19.185-.38.172 0-.258-.327-.217-.432-.077-.215.038-.073-.257-.307-.198-.073-.09-.303-.042-.303-.2-.155.002-.3-.002-.373-.077-.343.03-.375-.004-.688.036-.02-.204-.253-.21-.3-.39a.403.403 0 0 1-.31-.07c-.174-.06-.163.08-.314.05-.273-.055-.375-.004-.618-.15-.19-.052-.19.103-.38.05-.006-.072-.096-.072-.183-.07-.085 0-.135-.035-.185-.068.003-.085-.105-.06-.12-.13-.095-.015-.234.01-.246-.073-.095-.015-.234.013-.25-.07-.224.013-.306.083-.502-.02-.002-.31.063-.544.216-.68-.034-.298.104-.407.21-.557.662.085 1.252-.24 1.874.01.137-.067.403.003.442-.172.12.035.153.145.308.137.566.008.802.1 1.247.048.01.074.097.07.188.07.007.092.147.063.246.07.272.058.264-.19.447-.23.204.028.303.156.426.265.183.023.198-.133.38-.11.056.177.265-.007.375.014.007.094.146.063.245.072.12-.01.135.075.247.07.2.047.2-.108.315.013.188.052.126-.17.313-.114.27.45 1.01.206 1.49.372.18.022.195-.136.376-.114.203-.045.19.107.307.14.296-.026.376.1.567.022.143-.018.24.016.307.07.117-.045.235-.095.38-.108.183-.012.21.124.304.198.184.023.197-.134.38-.11.183-.008.21.126.308.2.046.014.12.004.12.065.166.008.356-.01.436.08.515-.072.652.014 1.25-.017.168.052.13-.12.256-.114.378.06.61-.117.806.093.144-.107.34-.155.45-.298.418-.023.67.106.932.224.434-.002.775.083 1.054.228.182.022.197-.135.377-.11.26.083.586.1.74.276.396-.004.584.184.996.162.12.025.127-.078.192-.115.298.003.408.182.613.272.145.027.24 0 .315-.05.31.147.5.046.736.276.128.003.23-.094.384-.11.213-.02.426.056.62.087.235-.05.335-.246.693-.16.105-.016.165.088.058.125.012.092.1.11.12.193.314.047.805-.066.932.16.146-.014.237-.088.438-.045.156-.077.25.19.312.01.106.06.31.033.37.14.154.016.198-.087.254-.177.333.3 1.095.193 1.553.37.093-.03.318.087.312-.05.143.067.303.12.5.145.14.024.232-.006.252-.117.187.094.422.028.627-.038-.022-.46-.083-.93-.014-1.312-.005-.117-.033-.212-.113-.256.018-.036.164-.232.008-.248-.035-.168.13-.115.195-.182-.068-.228-.077-.28-.11-.44.106-.173-.06-.27.08-.436-.083-.018-.052-.125-.12-.144z"/><path d="M245.93 152.002c.004.076-.095.036 0 0zM226.68 118.766c.074-.004.033.09 0 0z"/><path d="M226.68 118.766c-.04-.007-.074-.013-.06-.065.038.006.074.013.06.066zM226.62 118.7c-.038-.005-.072-.012-.062-.065.04.006.077.013.062.065zM226.557 118.635c-.073.004-.03-.09 0 0zM246.033 116.184c.03.033-.047.078-.065.06-.03-.035.048-.08.065-.06zM246.035 114.494c.03.035-.05.078-.067.062-.03-.035.05-.078.067-.062zM247.336 113.105c-.015.072-.062.034-.062-.002.015-.07.063-.03.062.002zM247.354 112.67c-.1-.066-.057-.27-.108-.38.068-.282-.03-.347.082-.56.036-.137-.118-.094-.12-.19.038-.267-.036-.647.098-.812-.132-.26-.11-.662-.088-1.066-.045-.14-.025-.34-.172-.38.133-.333.11-.833.232-1.18.05-.168-.12-.132-.116-.255l.03-.81c-.074-.192-.007-.517-.164-.633.07-.67-.148-1.066-.06-1.754-.05-.112-.145-.187-.173-.317-.23.02-.312.147-.504.043-.134-.094.085-.148-.054-.19-.02-.08-.107-.103-.117-.19 0-.236-.064-.182.015-.375-.035-.15-.082-.288-.046-.5-.032-.116-.024-.26-.114-.317.02-.238.012-.457-.104-.568.128-.112.042-.295.017-.436a.414.414 0 0 1 .074-.312c-.17-.332-.006-.603-.153-.943.06-.314.084-.643-.092-.877-.004-.188.238-.205.08-.374-.053-.172-.52.04-.493-.206-.194-.037-.17.162-.32.175-.138.03-.082-.122-.182-.13-.276.012-.48-.037-.62-.15-.47-.004-.803-.14-1.307-.11-.184.104-.597-.035-.697.16-.343-.306-.747-.272-1.17-.42-.646.08-1.352.007-1.934-.136-.37.078-.75.146-1.135.208-.194.022-.132-.196-.368-.14-.04-.064-.14-.068-.12-.192-.103 0-.157-.052-.18-.13-.198.076-.577.088-.685-.088-.153-.018-.195.088-.316.11-.13.034-.405-.093-.437.048-.117-.042-.117-.14-.245-.196-.157-.072-.396.013-.494-.145-.198.062-.142 0-.375-.015-.232.03-.373.163-.57.23-.203.045-.08-.21-.245-.2-.19-.053-.126.167-.317.114-.137-.13-.282-.257-.42-.39-.312.047-.422-.09-.557-.21-.43.054-.723.26-1.258.204-.187-.055-.124.166-.317.113-.087-.22-.6-.045-.545-.396-.196-.035-.06.287-.2.308-.12-.03-.27-.033-.243-.197-.053-.067-.23-.026-.18-.194-.186-.02-.22.223-.377.047-.166.016-.122.26-.26.305-.428.08-.522-.283-.81-.156-.015-.207-.174-.28-.296-.387-.074.008-.11-.02-.125-.066-.17.095-.315-.1-.502.04-.172.043-.12-.125-.244-.13-.26-.005-.51-.01-.683-.09-.183-.023-.198.134-.382.11-.416 0-.856-.322-1.182-.045-.198.02-.16-.175-.308-.2-.357-.028-.798.018-1.06-.1-.2-.046-.292.03-.438.044-.045-.12-.287-.2-.313-.014a.326.326 0 0 1-.18-.194c-.095.068-.26.068-.32.176-.173-.262-.552.034-.74-.216-.21-.008-.22.194-.444.17.083-.196-.2-.054-.115-.255-.083-.022-.096-.112-.184-.13-.2-.045-.292.03-.438.047-.027-.058-.05-.114-.12-.132-.28-.02-.535-.07-.748-.153l-.373-.014c-.14-.07-.377-.054-.494-.145-.743.155-1.315-.278-2.24-.27a.324.324 0 0 0-.18-.195c-.146.016-.063-.184-.18-.192.063-.17.128-.34.326-.364-.032-.23.144-.234.14-.435.066-.037.2-.002.255-.05.096-.092.133-.02.374.015.244.03.503.023.746.088.168.05.127-.124.193-.18.075.076.22.078.373.077.11-.012.15-.103.133-.245.145.05.162.213.303.262.2-.002.377.012.435.14.24-.145.603.017.873.034.216.06.244-.084.442-.044.19-.038.226.07.372.075l.812.03c.336.14.75.064.992.163.117-.005.21-.033.255-.115.173.18.64.09.868.22.096-.067.26-.067.32-.176.117.014.208.05.246.134.1.01.238-.02.246.07.11.01.163-.038.193-.116.117.03.106.182.306.136.206.005.248-.168.505-.104.203-.046.19.104.308.136.165.008.358-.01.435.08.332.008.533.048.684.09.305-.02.265-.022.564.02.145.026.253.083.368.14.15.023.183-.104.317-.113.074-.006.22.066.312.074.164.01.27-.084.438-.047.452.153.738.084 1.31.11.185-.007.187.15.37.14.27.033.353-.137.572-.165.008.072.057.036.06.003.217.064.204-.007.37.14.105.002.206.007.31.01.112.04.26.042.31.138.052-.052.172-.028.19-.12.126.024.118.177.245.2.22-.09.477-.134.693-.226.16.035.286.1.37.202.09.076.25.087.302.2l.813.03c.27.153.712.145.925.347.146-.08.357-.09.508-.17.157.014.297.047.37.14.145-.015.235-.09.438-.046.28.14.73.125 1.053.228l.373.015c.1-.003.24.04.255-.053.172-.04.12.128.242.132.427.048.762 0 1.13-.018.2-.046.187.105.303.136.737.05 1.356.023 1.878.008.143.05.316.068.43.143.373-.06.697.062 1.188.045.114-.004.13.08.25.07.62-.06.904.054 1.436-.006-.04-.352-.102-.557-.027-.878.06-.174-.082-.164-.053-.315 0-.153.004-.298.078-.37.03-.13-.037-.167-.056-.25-.02-.133.052-.166.075-.25-.1-.107-.036-.365-.043-.564.067-.113-.18-.215.01-.248.054-.168-.117-.13-.113-.255.003-.147.114-.18.075-.374.054-.17-.12-.13-.116-.256l.03-.812c.012-.11-.07-.135-.052-.25-.03-.092.084-.318-.05-.314.005-.123.173-.074.133-.244a2.85 2.85 0 0 1-.032-.813c.023-.143-.005-.234-.115-.256.09-.076.074-.27.082-.434-.008-.176-.102-.27-.305-.262.02-.234.207-.297.268-.49-.022-.342-.047-.68-.152-.94.07-.017.05-.127.132-.124a.295.295 0 0 0 .068-.186c.042-.236-.002-.4-.105-.503.1-.272.033-.754-.022-1.065l.018-.436c.037-.088-.06-.324.076-.31-.027-.056-.05-.114-.12-.13.13-.24-.04-.46.03-.81.035-.196-.16-.174-.176-.32-.022-.197.173-.16.2-.306-.103-.29-.097-.404.024-.688-.063-.414-.14-.5-.027-.876.014-.136-.045-.2-.184-.192-.023-.225.227-.147.205-.37.017-.18-.006-.317-.11-.38-.07-.166.202-.262-.058-.25-.02-.132.05-.165.074-.25-.166-.228-.138-.634-.216-.945.15.034.142-.106.317-.05.044-.304.01-.534-.23-.57.03-.116.136-.153.134-.308-.042-.144-.122-.25-.106-.44-.02-.12-.177-.122-.114-.316-.005-.074-.11-.06-.185-.072.25-.172.023-.355.023-.624-.01-.204.248-.124.26-.302-.084-.325.05-.557-.024-.94-.028-.157-.145-.228-.237-.32-.04-.173.127-.122.133-.245.054-.17-.118-.13-.112-.255.002-.146.114-.178.075-.373.027-.148-.11-.14-.05-.314-.017-.13-.163-.128-.245-.195.012-.227.166-.297.205-.494-.07-.295-.084-.644-.28-.82-.032-.143.122-.087.132-.183.038-.2-.08-.25-.11-.382.138-.543.08-.907-.202-1.257.11-.226.23-.444.338-.674-.01-.133-.272-.028-.307-.137.012-.073-.01-.113-.056-.13-.003-.303.125-.463.092-.805-.056-.114-.012-.314-.11-.38.004-.168.047-.366-.11-.38.052-.07.084-.163.07-.31.01-.105-.037-.163-.115-.192.01-.086.015-.176-.058-.19-.014-.098.062-.105.07-.183.068-.012.046-.125.13-.123-.126-.142-.034-.414.082-.496.05-.167-.12-.128-.115-.253.006-.35-.046-.645-.094-.94.073-.604.07-1.093-.125-1.57.03-.308.012-.573-.034-.812a.42.42 0 0 0-.18-.134c.01-.086.017-.176-.054-.19-.006-.44.127-.508.033-.873.143-.37.044-.78.044-1.187.037-.195-.188-.146-.11-.38-.054-.173-.184-.27-.237-.446.002-.22.222-.197.268-.366.072-.388-.045-.598-.225-.76-.014-.1.062-.103.072-.185.068-.012.045-.12.127-.12-.07-.19-.038-.245.077-.368.037-.2-.068-.263-.175-.32.074-.075.08-.22.075-.376-.03-.263-.28-.092-.365-.202-.008-.223.055-.372.203-.428-.002-.1.037-.24-.053-.255.06-.128.196-.175.2-.366.004-.226-.146-.307-.168-.507.13-.01.026-.274.136-.308-.088-.14-.307-.158-.3-.387-.062-.198.106-.148.136-.242-.055-.257.033-.297.023-.625l.026-.685c.016-.137-.042-.202-.182-.195.002-.108.053-.16.133-.182-.002-.092-.004-.18.068-.184-.14-.363-.158-.522-.152-.946-.05-.094-.086-.203-.24-.198.015-.156-.09-.197-.176-.257.07-.252-.002-.252.02-.56.09-.012.028-.188.13-.183.026-.08.114-.097.134-.182.022-.686.192-1.092-.003-1.566-.123-.146-.312-.232-.487-.328.104-.174.204-.42.022-.564-.04-.167.133-.115.193-.18-.046-.31.093-.42.208-.556-.067-.157-.052-.393-.362-.326-.028-.14.124-.083.134-.182-.002-.11.05-.16.13-.182-.004-.155.002-.3.08-.375.02-.2-.103-.27-.048-.5-.112-.178-.262-.318-.354-.513-.04-.196.072-.228.076-.375.015-.837-.165-1.693-.084-2.755-.065-.137.004-.402-.17-.442 0-.108.053-.163.132-.183-.02-.12-.127-.162-.115-.316.145-.02.042-.31.085-.436-.112-.307-.176-.75-.088-1.065-.05-.094-.04-.246-.242-.197-.013-.165.096-.2.258-.176-.088-.31.12-.697-.156-.946.094-.285.04-.335.094-.686.03-.128-.04-.165-.057-.25a.436.436 0 0 1 .077-.31c-.012-.192-.127-.285-.17-.446.062-.217-.006-.203.137-.367.04-.196-.127-.25.014-.375-.052-.308-.315-.06-.49-.208-.003-.113.083-.13.072-.248.134.034.122-.082.132-.183l.188.01c.014-.12.05-.208.133-.247-.08-.084-.024-.294-.11-.38-.02-.247.146-.32-.046-.438-.02-.152.116-.132.074-.31-.126-.224-.52-.2-.54-.522-.025-.134.09-.117.19-.118.026-.055.058-.11.126-.116-.076-.193-.072-.462.086-.563-.037-.252-.11-.714.036-.94-.028-.173-.082-.324-.106-.5-.01-.073-.113-.057-.184-.073 0-.103.052-.156.132-.183-.004-.086-.005-.173.068-.182.032-.15-.108-.138-.05-.317.088-.018.006-.107-.06-.125.204-.366.187-.967.306-1.427.06-.197-.092-.197-.113-.315-.016-.288.106-.703-.096-.82.003-.144.114-.176.077-.37.038-.195-.164-.17-.174-.32-.05-.2.164-.122.195-.24-.025-.353.01-.425-.037-.69.027-.11-.043-.123-.117-.13-.013-.185.146-.187.136-.37.03-.15-.11-.14-.05-.315.015-.174-.172-.165-.242-.26.008-.124.174-.074.134-.244.054-.168-.116-.132-.116-.257-.03-.17.1-.49-.04-.563.098-.07.107-.233.198-.307a1.1 1.1 0 0 0-.293-.506c-.002-.225.224-.2.268-.37.05-.166-.122-.128-.118-.25-.05-.052-.03-.177-.117-.195-.02-.195.158-.25-.05-.315.13-.162.06-.542.093-.808.022-.184-.133-.2-.11-.378-.044-.18.097-.16.075-.31.168.048-.036-.297.135-.248-.07-.354-.185-.67-.212-1.07-.01-.066-.12-.044-.117-.13.02-.14-.008-.233-.115-.253.005-.125.173-.07.138-.246-.036-.13-.125-.205-.18-.317.006-.314.18-.56-.097-.694.24-.28.047-.833.165-1.116-.057-.09-.16-.132-.24-.198.05-.168-.124-.127-.18-.198-.03-.22.31-.376.018-.494.11-.273.306-.456.282-.87-.018-.08-.104-.1-.117-.19-.006-.114-.21-.047-.245-.133.078-.08.03-.098.008-.186-.04-.198.22-.072.138-.31.12-.022.163-.126.317-.114-.034-.11.086-.363-.05-.378.2-.478.27-1.094.374-1.67.043-.204-.03-.294-.045-.44 0-.11.054-.16.134-.183.053-.047.042-.172.13-.182-.008-.075.02-.113.066-.124-.033-.233.117-.267.083-.498.297-.174.24-.736.533-.915.014-.115-.07-.137-.053-.255.11-.012.145-.1.133-.243.064-.04.07-.144.19-.12.005-.08.01-.168.01-.252.427-.036.48-.48.835-.59.215-.1.278.042.565.02.108-.01.146-.103.132-.247.08-.022.13-.073.133-.18.105.006.162-.04.19-.116.205.093.474-.027.692-.103.158-.002.192.106.244.203.117-.024.118-.175.314-.116.114.277.468.33.67.527.154.017.196-.09.256-.18.22.116.588.095.61.4.076-.052.17-.078.315-.05.058.083.095.19.177.255.055.068.23.028.18.194.184-.008.187.15.37.138.02.185.204.21.3.324.063.604.61.765.765 1.28.167.328.558.448.657.836-.09-.008-.18-.016-.19.058-.09.487.2.89.586 1.02.02.153-.12.132-.074.31.064.06.008.232.178.194-.006.108.043.164.12.19.022.203-.122.218-.08.437.026.36.318.47.215.95.016.054.16.277.183.127.12.035.152.143.308.14.045.203-.104.19-.196.242.307.345.002.818-.05 1.308-.05.168.124.125.18.194-.02.22-.23.23-.267.428-.02.203.1.266.045.502.018.164.18.195.173.382.045.2-.106.188-.137.308.006.35-.035.655-.217.803.014.15.055.272.174.32-.04.13-.16.173-.14.37-.056.174.08.165.053.315.032.15-.096.45.044.5-.214.293-.162.916-.11 1.31 0 .12.2.05.177.197.043.215-.078.26-.14.368-.003.126-.01.25-.013.375-.12.066-.14.237-.26.303.022.12.128.16.112.314-.277.202-.232.748-.416 1.048-.005.167-.012.333-.018.5-.04.126.062.412-.078.437.014.144.187.143.238.257.05.32.014.412-.088.683l-.252-.008c.004.242-.064.545.105.627a2.54 2.54 0 0 1-.268.43c.053.222.104.118.24.196.023.194-.174.156-.197.303-.062.21.013.31-.145.495-.004.426-.09.93.082 1.19-.072.206-.084.477-.213.62.004.242-.014.46-.084.623.014.128.23.065.242.195-.008.188-.168.208-.202.37.005.177-.07.425.11.44-.123.13-.063.457-.09.684.047.203-.208.08-.198.242-.014.154.094.198.114.316-.05.14-.066.318-.142.43-.01.253-.02.504-.028.752-.058.177.08.165.053.316-.1.018.05.11-.07.123.033.13.124.207.176.316-.074.155-.115.354-.264.43.047.073.073.17.048.315-.012.115-.05.206-.132.242.118.128.024.36-.02.5-.086.2.2.056.114.258-.094.022.004.053-.005.122.032.312-.297.23-.142.497-.002.237.328.174.422.327-.062.196-.195.267-.078.497-.054-.013-.063.025-.068.063.04.17-.13.12-.132.243-.145-.023-.078.18-.195.18 0 .16.24.1.238.262.004.175-.156.172-.318.175.042.19-.114.18-.074.372.183.062-.15.087-.07.246.01.15.087.24.044.44.088.1.072.297.173.382-.108.21-.148.492-.216.745.013.187.02.38.17.443-.033.097-.198.046-.136.244-.06.24.145.228.173.38.058.28-.217.198-.204.433.02.182.207.21.302.32-.108.19-.322.262-.393.49-.052.267.095.35.168.507.052.356-.125.467-.155.743-.03.127.04.168.056.25.09.017.015.188.117.19-.106.1.048.267-.018.5.022.2-.175.162-.202.306-.05.247.158.258.108.505-.122.022-.163.13-.317.114-.016.154-.02.3.05.376a.587.587 0 0 1-.266.364c.047.058.06.147.053.255-.03.244.26.2.233.443.05.114.222.114.24.262.017.107-.054.114-.13.12-.014.11.072.135.053.253-.19-.008-.074.312-.26.3.027.32-.13.427-.213.62.078.25.22.436.158.82.045.2-.21.076-.2.24.05.06.063.143.056.25.057.108.264.08.37.14.05.233-.033.594.16.695-.014.14-.267.015-.376.05-.014.115-.215.03-.256.11.062.47-.078.677.084 1.07.025.2-.098.24-.14.37-.015.154.094.197.115.318.107.04-.017.294.115.317-.016.073-.116.047-.19.053.015.385-.134.593-.102.997-.073.23.152.185.11.38-.14.02-.004.342-.197.304.097.45-.188 1.005-.05 1.374-.102.483-.17 1.325-.07 1.81.037.173-.127.12-.136.243-.002.308-.06.658.03.878-.077.196-.183.367-.27.554-.053.285.084.4.102.627.03.092.082.16.114.253.084.042 0 .24.115.252-.02.18-.3.07-.26.305-.037.195.15.18.24.26-.08.13-.082.345-.205.432.11.356-.05.398-.032.873.024.32.062.34-.024.62.01.216-.068.506.04.63.02.197-.176.154-.2.303-.042.358.004.64.027.938-.056.193.168.126.114.318.047.2-.106.188-.137.31-.007.405-.017.804-.167 1.05.068.18.06.332-.018.502-.053.19.1.188.05.376-.09.398-.034.57-.038 1-.04.137.114.092.117.193-.008.085-.02.177.057.19-.012.204-.12.305-.086.56.04.193-.175.113-.135.307 0 .307.053.39.162.693-.015.115-.05.206-.135.243.178.21.044.37.033.692 0 .16.023.296.113.378.01.182-.15.186-.14.368-.036.27.185.212.048.438 0 .123.2.053.178.196.055.19-.143.106-.256.116-.033.132.088.123.184.13.025.058.05.116.12.132.038.236-.243.126-.26.304-.015.254.185.31.165.568-.083-.003-.17-.005-.25-.01-.01.11.07.134.053.25-.105.218.21.046.182.196.046.2-.104.19-.197.243-.014.17.098.128-.01.252-.082.253.123.246.107.44-.128.01-.13.158-.196.24-.056.23.14.353-.02.498-.026.106.048.12.12.13.023.197-.175.16-.197.305-.01.23-.017.46-.025.688.004.114.21.046.242.137-.006.23-.108.358-.205.492-.008.086-.02.173.056.19-.008.085-.018.176.055.187-.026.145-.22.11-.198.306.025.636.05 1.54-.086 2.308.047.206-.21.083-.197.245.043.45-.028.633-.044 1.125-.035.13.084.122.182.13.023.224-.227.147-.2.37.093.252.19.508.154.88-.017.155.088.198.113.318-.115.18.007.315-.08.435.087.14-.024.465.167.506-.102.126-.06.41-.143.558-.017.152-.024.3.045.376-.16.47-.02.882-.114 1.37.07.288.058.654-.032.938-.018.152.02.26.11.314-.15.23.055.57-.036.94.006.11.037.208.115.25-.053.115-.113.228-.138.37.02.39-.035.565.03.814-.01.116-.048.206-.134.248.053.127.12.25.174.38-.077.34-.038.427-.092.81-.06.16.174.35-.018.435.065.142.15.264.107.507.064.2-.105.148-.135.244.043.16.068.34.3.323-.022.218-.23.23-.27.428 0 .438.02.49.033.876.136.118.466.05.617.15l.438.017c.09.04.324-.06.308.074.134-.03.21-.124.32-.174.275.103.67.103.93.222.44.006.634-.025 1.062.04.202.044.293-.03.44-.046.01.132.273.028.308.137.277.055.31-.01.497.08.148.032.14-.108.312-.05.206.01.31.116.56.082.397-.084.694-.018 1.005-.086.278.074.61-.06.936.035.14.042.03.026.25.012.13-.01.427-.005.625.022.132.02.254.128.495.082.054-.012.064-.056.128-.06.102-.003.105.06.185.07-.02-.003.04-.097.066-.06.06.08.03-.005.125.005-.005 0 .023.06.056.066.107.008.403-.05.57-.105.196.103.56.047.68.214.155.017.197-.09.317-.11.415.003.64.056.874.095.182 0 .235-.136.32-.24.124.023.116.176.243.198.093-.09.41-.078.496.018.244-.025.42-.156.632-.04.158 0 .294-.022.374-.108.138.076.2.215.37.264.19.014.345-.018.44-.11.098.134.46.017.56.147.163.048.12-.126.19-.182.13.042.2.142.31.2.09-.094.32-.042.497-.045.743.152 1.216 0 1.992.2.366-.127 1.026.067 1.378-.07.634.196 1.413.097 2.178.27.396-.01.502-.038.873.032.19.052.19-.1.38-.05.196-.022.24.1.37.14.146-.013.26-.064.378-.11.244.08.58.063.81.155.14.025.24 0 .314-.05.41.142 1.045.074 1.557.12.2.138.682.014.867.158.06-.046.144-.06.255-.053.128.043.41-.062.433.078.228-.11.294-.06.506-.105.19-.04.18.116.374.076.287-.044.8-.052 1.25-.013.132.01.157.06.246.07.14.02.166-.06.255-.053-.03 0 .042.06.058.065a.78.78 0 0 0 .25.01c.028-.007.08-.06.064-.06.057 0 .315.164.435.017.427.045.978.152 1.437.114.246.055.702.162.937.036.69.162 1.29.076 1.988.264.486-.14.91.02 1.38-.074.195-.02.236.1.37.14.154-.057.13-.017.378-.05.19.016.184-.188.44-.107.14-.03.083.12.183.133.008.09.184.027.18.13.16-.044.338-.067.566-.04.222.043.164-.216.38-.174.012.13.274.03.31.14.07.052.163.086.31.072.1.15.412.098.49.27.084-.083.275-.052.437-.046.118.092.18.238.234.383.125.08.226.19.3.326.196.038.345.122.495.206-.007.147.096.186.046.376-.203.046-.23.233-.442.107-.15.08-.433.01-.567.104-.11 0-.128-.085-.245-.073-.26.06-.688.084-.877.03-.206.048-.427-.007-.63.162-.297-.037-.384-.04-.685-.15-.178-.095-.324.157-.373-.014-.08.09-.24.088-.318.176-.12-.074-.29-.093-.434-.144-.154-.013-.3-.02-.378.05-.186-.008-.375-.014-.562-.02-.102.012-.105-.063-.187-.072-.127-.04-.41.062-.434-.08-.205.084-.525.04-.814.035-.163.06-.42.022-.506.17-.124-.007-.074-.174-.242-.138-.143-.04-.098.118-.194.118-.622.008-1.06-.187-1.618-.122-.148-.025-.26-.084-.37-.14-.232.093-.448.347-.762.157-.125-.027-.135.07-.188.12-.043.04-.104.058-.132.12a.32.32 0 0 1-.182-.195c-.034-.087-.24-.02-.243-.133-.146.012-.123.212-.32.176-.023-.216-.295-.107-.433-.082-.063-.16-.332-.134-.556-.143-.17-.052-.134.12-.255.114-.206-.01-.42-.015-.625-.023-.17.032-.492-.098-.563.042-.112-.038-.26-.042-.305-.138-.097.03-.162.087-.26.115-.194.04-.113-.176-.31-.14-.19.093-.603-.047-.69.165-.05-.046-.058-.092-.12-.13-.022-.013-.107.015-.122-.005-.062-.08-.02-.01-.064-.003-.06.01-.15-.11-.313-.01-.684-.12-1.743-.174-2.433-.094.016-.133-.22-.038-.31-.074-.068-.054-.165-.09-.31-.072-.195.07-.474.048-.574.228-.154-.014-.21-.12-.3-.2-.206.03-.29-.053-.436-.077-.19-.054-.23.052-.38.046-.15.005-.298 0-.37-.075-.144.015-.262.116-.378-.013-.046.12-.345-.03-.376.11-.375-.176-.755-.098-1.188-.046-.14.03-.087-.12-.18-.13-.093.002-.178.004-.188-.07-.283.05-.484.125-.75.032-.266.042-.414.205-.7.225-.12-.125-.356-.15-.42-.33-.114-.012-.14.074-.255.055-.102.003-.237-.04-.252.052-.193.04-.114-.175-.306-.136-.532-.043-.91.012-1.312-.05-.2-.022-.267.102-.504.046-.168.053-.326.125-.506.167-.19-.007-.237-.142-.367-.202-.127-.004-.25-.008-.376-.014-.228-.073-.182.15-.38.11a5.66 5.66 0 0 0 .01-.186c-.155.002-.302-.002-.37-.076-.21 0-.337.112-.436-.08-.133.03-.183.148-.382.11-.19.038-.225-.07-.37-.076-.327-.082-.607.163-.747-.09-.2.034-.496.2-.63.1-.096.07-.255.07-.32.177-.123-.025-.116-.175-.237-.198-.194-.053-.13.166-.318.11-.053-.09-.087-.2-.245-.194-.214.047-.437.094-.57.23-.205-.07-.278-.263-.486-.332-.713.065-1.038.054-1.69.062-.176.048-.314.14-.508.168.054-.21-.224-.11-.24-.258-.208.094-.387.008-.56-.084-.32.045-.51-.043-.937-.034-.18.046-.39.056-.565.103.012-.072-.01-.112-.06-.128-.187-.007-.375-.015-.56-.02-.223-.045-.162.214-.383.17-.1-.11-.23-.188-.367-.26-.273-.08-.314.093-.506.104-.01-.08-.12-.07-.122-.007-.344-.15-.775-.256-1.122-.104.032.11-.09.36.05.374-.006.125.166.086.113.254.056.278-.22.2-.205.432-.017.197-.02.377.11.44a.23.23 0 0 0-.013.313c-.13.23-.032.702-.16.933.042.163.05.355.17.443-.005.123-.173.072-.132.244.062.2-.026.163.05.314-.015.176.17.163.238.26-.013.158-.1.24-.258.24 0 .118.203.052.18.194-.017.223-.24.22-.206.493-.037.194.15.18.238.258-.05.138-.047.338-.2.368-.036.196.188.147.11.38-.072-.013-.11.01-.128.06l-.01.31c-.062.107-.034.312-.14.37.092.095.04.323.045.503-.056.19.167.125.11.316-.002.188-.068.313-.2.366.093.172.135.243-.015.377.115.152.02.502.035.75-.027.105.043.118.12.13-.014.07.012.11.056.126l-.016.435c.03.143-.124.086-.133.184.015.1-.06.104-.067.185-.007.165-.05.367.11.38-.02.067-.127.038-.13.12a.3.3 0 0 1 .054.19c.04.17-.128.118-.133.244.004.406-.095.535-.03.873-.03.4-.174.832-.05 1.31-.07.01-.053.113-.066.187z"/><path d="M245.996 110.555c.03.033-.05.08-.066.06-.03-.033.05-.078.066-.06zM246.357 109.192c-.25.094-.01-.27-.178-.257.07-.057.028-.228.194-.18-.007.147-.01.292-.017.437zM246.385 108.443c-.033.097-.063.003-.058-.064.04-.094.065 0 .058.063zM246.3 105.753c.035.034-.047.08-.064.06-.03-.034.047-.08.065-.06zM246.308 105.564c-.072.018-.206-.186-.056-.188-.02-.122-.173-.12-.113-.318.164.067.34.317.168.506zM246.27 104.938c.033.035-.046.08-.062.06-.032-.03.045-.076.062-.06z"/><g><path d="M274.56 121.583c.137.016.134-.107.155-.207.188.018.207.205.463.154.12.068.1.28.154.412.266.078.352.334.617.412.152-.002.174-.135.308-.154.123.03.234.074.41.05.092.087-.045.173 0 .36.15-.133.32.023.516 0 .043-.11.133-.174.103-.36 0-.1.14-.063.103-.204.186.014.356.012.31-.207.31.17.457-.122.77-.103.01-.18.183-.195.206-.36.092-.007.108.063.206.052-.003-.09.038-.134.103-.155-.04-.047-.056-.117-.052-.207-.045-.164.17-.07.154-.205.003-.088-.038-.133-.103-.154-.044-.042-.03-.142-.103-.155v-.31c-.073-.08-.13-.18-.257-.204v-.206c-.106-.03-.166-.107-.257-.154.015-.135-.2-.04-.154-.205-.22-.03-.34.037-.515.05-.28-.075-.508-.21-.822-.255a.258.258 0 0 1-.154-.154c-.005-.098-.17-.035-.153-.154a.515.515 0 0 1-.31-.154c-.06.043-.137.068-.257.05-.015.106-.103.138-.154.206-.33-.057-.358.19-.668.154-.134.16-.224.36-.41.463.006.13-.028.216-.105.26-.02.106.035.136.052.204-.012.08-.198.24-.052.31-.013.056-.103.034-.103.103.02.346-.26.755 0 1.026zM253.73 119.782c.028-.025-.036-.064-.05-.05-.026.025.038.064.05.05zM253.938 119.886c.01.25-.21.27-.206.514.228.03.4.115.515.258.157-.037.188.053.31.05.102.14.342.138.41.31.14-.11.005-.38-.05-.463.082-.16.062.205.256.104.03-.255-.164-.282-.31-.362-.02-.24.09-.29-.05-.41-.165-.045-.16.08-.258.102-.193-.13-.335-.173-.617-.104zM261.6 127.702c-.087-.02-.096.04-.102.104-.135-.016-.222.018-.206.154h.31v-.258zM260.572 128.114c-.15.008-.25.33 0 .31v-.31zM260.418 128.833c.134-.084.31.078.463-.05.062-.216-.216-.093-.257-.206-.147.006-.244.065-.205.256zM269.932 132.485c-.01-.06-.052-.03-.05 0 .008.06.05.03.05 0zM270.19 132.69h-.105v.104h.104v-.104zM270.24 133.206c.02-.1-.234-.076-.154.05h.104c-.01-.042.02-.048.05-.05zM268.44 133.206c-.12.018-.24.033-.206.205.162.025.23-.044.206-.204zM269.11 133.515c-.19-.033-.275.033-.36.102.008.146-.045.354.102.36-.024.16.073.202.104.31.205.016.14-.238.31-.258-.084-.142-.076-.375-.157-.515zM270.344 134.028c-.2-.01-.296.082-.31.258.165.137.394.012.31-.258zM267.206 134.08c-.027-.08-.054-.003-.052.052.093.014.106-.05.052-.053zM269.366 134.337c-.057.166-.15.297-.206.463-.3.043-.497.188-.72.31.015.08-.05.087-.052.153.018.12.062.213.104.31.02.122-.234-.03-.154.153.086.09.172-.045.36 0-.008-.06.073-.027.103-.05.09-.075.13-.22.31-.208.15.045-.03.166 0 .258.11.023.098-.074.103-.154.167-.03.24.035.36.05.05-.067.048-.19.154-.204.094.057.128.283.257.154.024-.162-.064-.21-.154-.258.077-.076.092-.217.206-.256-.006-.098-.17-.037-.154-.154-.008-.162.132-.178.257-.207v-.31c-.108-.02-.137.036-.207.054-.167-.115-.316-.2-.567-.103zM270.344 134.696c-.19-.047-.094.27-.052.31.14 0 .122-.243.052-.31zM262.475 135.005c-.006.092.062.11.052.207.16.023.23-.045.205-.207-.128-.006-.16-.096-.257 0zM261.035 135.417c-.166-.045-.07.17-.206.154v.464c.1.035.136.137.153.258.192-.057.146.127.31.102.072.06.097.133.153.207.046.06.147.103.154.206.158.037.1-.14.257-.104.167-.03.24.035.36.053.022-.047.045-.094.103-.104.043-.145-.072-.132-.05-.257-.006-.082.023-.195-.053-.205-.038-.158.14-.1.103-.258-.123-.145-.19-.05-.41-.05-.242-.017-.244-.37-.516-.206-.06-.01-.043-.094-.05-.154-.09-.048-.257-.017-.31-.103zM260.572 135.57c.026-.026-.037-.065-.052-.05-.026.026.038.065.052.05zM259.955 135.52c-.14.198-.372-.128-.566.103.01.18.182.195.205.36.022.106-.446-.147-.41.103.187.018.454-.043.564.053.03.218-.168.208-.155.41.295.065.68.136.978.052v-.516c-.136.016-.17-.07-.154-.205h-.31c-.145-.027-.096-.248-.155-.36zM269.11 136.034c-.138.053-.294.084-.31.258.125.162.337-.238.36.102.142-.08.005-.31-.05-.36zM270.652 144.108c-.15.01-.124.244.05.205.023-.107-.034-.134-.05-.205zM289.68 149.2c-.135.053-.314.06-.514.05-.14.052-.264.114-.41.155.094.207-.022.424.05.566-.046.09-.124.15-.153.257-.118.123-.26.223-.31.412-.03.2.045.298.104.41-.032.2-.043.212.052.36.036.156-.054.188-.053.31.132.124.243.27.36.41.045-.04.115-.056.205-.052.08.023.044.162.206.104.044-.164-.08-.16-.103-.258-.017-.137.287.05.205-.154.16-.01.378.035.463-.05.162-.026.2.11.31 0 .173-.017.148-.23.308-.26.053.034.055.12.155.105-.02-.088.04-.098.103-.104-.008-.058.012-.09.052-.1-.05-.175-.13-.317-.31-.362v-.205c-.095-.008-.17-.033-.205-.104.01-.042.052-.052.052-.103.013-.133.09.07.206 0 .186-.596-.22-.96-.463-1.287-.107-.03-.358.086-.31-.1zM290.452 149.663c.026-.027-.037-.066-.052-.053-.026.028.038.067.052.053zM282.687 150.64c-.022.107.035.137.05.205.15-.008.124-.244-.05-.205zM283.046 150.845a.26.26 0 0 0-.154.154c-.14.005-.104-.087-.205 0-.1.185.014.327.205.36.093-.13.176-.27.154-.515zM283.51 151c.062.167-.167.038-.104.206-.12 0-.15-.09-.31-.053-.036.14.104.104.104.207.05-.002.04-.064.052-.104h.31c-.005-.254.2-.102.36-.104-.036-.15-.206-.17-.413-.153zM279.91 157.067c-.01.13.08.16.102.258.06.076.194.08.258.154.38-.167-.09-.754-.36-.413zM271.886 161.388c0-.05-.062-.04-.103-.05.002.05.064.038.103.05zM280.73 164.37c-.218.1-.053.52 0 .67h.36c.06-.213.35-.305.207-.566-.276-.055-.437.033-.566-.104zM279.55 165.04c-.03.184.06.248.103.36.008.11-.183.022-.258.05-.052.156.115.092.206.104-.016.223.07.34.207.412-.072.146.14.262 0 .31.015.103.14.1.154.204.007.092-.062.11-.05.205.1.002.064.14.205.104-.01.112.042.163.154.153.11.01.162-.04.152-.154.12.015.198-.01.258-.052.24-.02.156.29.41.256.055-.178-.234-.273-.05-.41-.006-.133-.2-.074-.206-.207-.028-.113.098-.072.103-.154-.012-.2-.27-.424.103-.514-.033-.083-.313-.278 0-.26 0-.048-.062-.038-.103-.05-.182.027-.126-.182-.31-.154-.012.21-.214.23-.41.258-.09-.047-.085-.19-.206-.207.054-.223-.105-.236-.153-.36h-.205c-.023.046-.046.09-.103.103zM282.224 165.966c.025.248.165.383.463.36.07-.067.05-.224.05-.36-.173-.057-.41-.154-.513 0zM281.452 166.84c-.042.01-.052.052-.104.052.01.04.052.05.052.102.06-.01.043-.095.052-.155zM280.423 167.046c-.03.2.115.227.258.256.02-.104-.01-.16-.103-.154-.022-.063-.065-.106-.154-.102zM280.577 167.405c-.15-.076-.15.23 0 .154v-.155z"/></g><g><path d="M212.408 121.583c-.136.016-.133-.107-.154-.207-.188.018-.207.205-.463.154-.12.068-.098.28-.153.412-.266.078-.352.334-.617.412-.153-.002-.175-.135-.31-.154-.122.03-.233.074-.41.05-.09.087.046.173 0 .36-.148-.133-.32.023-.515 0-.043-.11-.133-.174-.103-.36 0-.1-.14-.063-.103-.204-.187.014-.357.012-.31-.207-.312.17-.458-.122-.77-.103-.01-.18-.184-.195-.207-.36-.092-.007-.108.063-.206.052.003-.09-.038-.134-.103-.155.04-.047.056-.117.052-.207.045-.164-.17-.07-.154-.205-.003-.088.038-.133.103-.154.044-.042.03-.142.103-.155v-.31c.074-.08.13-.18.258-.204v-.206c.106-.03.166-.107.257-.154-.015-.135.2-.04.154-.205.22-.03.34.037.515.05.28-.075.508-.21.822-.255a.258.258 0 0 0 .154-.154c.006-.098.17-.035.154-.154a.515.515 0 0 0 .31-.154c.06.043.137.068.257.05.014.106.102.138.153.206.33-.057.358.19.668.154.135.16.225.36.412.463-.007.13.027.216.104.26.02.106-.035.136-.052.204.012.08.198.24.052.31.013.056.103.034.103.103-.02.346.257.755-.002 1.026zM233.237 119.782c-.027-.025.037-.064.05-.05.027.025-.037.064-.05.05zM233.03 119.886c-.01.25.212.27.207.514-.228.03-.4.115-.515.258-.157-.037-.188.053-.31.05-.102.14-.342.138-.41.31-.14-.11-.005-.38.05-.463-.082-.16-.062.205-.256.104-.03-.255.164-.282.31-.362.02-.24-.09-.29.05-.41.165-.045.16.08.258.102.192-.13.335-.173.617-.104zM225.368 127.702c.088-.02.097.04.103.104.136-.016.223.018.207.154h-.31v-.258zM226.396 128.114c.15.008.25.33 0 .31v-.31zM226.55 128.833c-.134-.084-.31.078-.463-.05-.06-.216.217-.093.258-.206.148.006.244.065.205.256zM217.037 132.485c.01-.06.052-.03.05 0-.008.06-.05.03-.05 0zM216.78 132.69h.103v.104h-.104v-.104zM216.728 133.206c-.02-.1.234-.076.154.05h-.104c.01-.042-.02-.048-.05-.05zM218.528 133.206c.12.018.24.033.206.205-.16.025-.23-.044-.206-.204zM217.86 133.515c.187-.033.273.033.36.102-.01.146.043.354-.104.36.024.16-.073.202-.104.31-.205.016-.14-.238-.31-.258.085-.142.076-.375.157-.515zM216.625 134.028c.2-.01.296.082.31.258-.166.137-.394.012-.31-.258zM219.762 134.08c.027-.08.054-.003.052.052-.093.014-.106-.05-.052-.053zM217.602 134.337c.057.166.15.297.206.463.3.043.497.188.72.31-.015.08.05.087.052.153-.018.12-.062.213-.104.31-.02.122.234-.03.154.153-.086.09-.172-.045-.36 0 .008-.06-.073-.027-.103-.05-.09-.075-.13-.22-.31-.208-.15.045.032.166 0 .258-.108.023-.097-.074-.102-.154-.167-.03-.24.035-.36.05-.05-.067-.048-.19-.154-.204-.093.057-.127.283-.256.154-.024-.162.064-.21.154-.258-.077-.076-.092-.217-.206-.256.006-.098.17-.037.154-.154.008-.162-.132-.178-.257-.207v-.31c.106-.02.135.036.205.054.168-.115.316-.2.567-.103zM216.625 134.696c.19-.047.094.27.052.31-.14 0-.123-.243-.052-.31zM224.494 135.005c.006.092-.062.11-.052.207-.16.023-.23-.045-.205-.207.128-.006.16-.096.257 0zM225.933 135.417c.166-.045.07.17.206.154v.464c-.103.035-.138.137-.155.258-.192-.057-.146.127-.31.102-.072.06-.097.133-.153.207-.046.06-.147.103-.154.206-.158.037-.1-.14-.257-.104-.166-.03-.238.035-.36.053-.02-.047-.044-.094-.102-.104-.043-.145.072-.132.05-.257.006-.082-.023-.195.053-.205.04-.158-.14-.1-.102-.258.123-.145.19-.05.41-.05.242-.017.244-.37.516-.206.06-.01.043-.094.05-.154.09-.048.257-.017.31-.103zM226.396 135.57c-.026-.026.037-.065.052-.05.026.026-.037.065-.052.05zM227.013 135.52c.14.198.372-.128.566.103-.01.18-.184.195-.207.36-.022.106.446-.147.41.103-.187.018-.454-.043-.564.053-.033.218.166.208.153.41-.295.065-.68.136-.978.052v-.516c.136.016.17-.07.154-.205h.308c.145-.027.097-.248.155-.36zM217.86 136.034c.136.053.292.084.308.258-.125.162-.337-.238-.36.102-.14-.08-.005-.31.05-.36zM216.316 144.108c.15.01.124.244-.05.205-.022-.107.034-.134.05-.205zM197.288 149.2c.136.053.315.06.515.05.14.052.264.114.41.155-.094.207.022.424-.05.566.046.09.124.15.153.257.118.123.26.223.31.412.03.2-.045.298-.104.41.032.2.043.212-.052.36-.037.156.053.188.052.31-.132.124-.243.27-.36.41-.045-.04-.115-.056-.205-.052-.08.023-.044.162-.206.104-.043-.164.082-.16.104-.258.017-.137-.287.05-.205-.154-.162-.01-.38.035-.464-.05-.162-.026-.2.11-.31 0-.173-.017-.148-.23-.308-.26-.052.034-.054.12-.154.105.02-.088-.04-.098-.103-.104.01-.058-.01-.09-.05-.1.048-.175.128-.317.308-.362v-.205c.096-.008.172-.033.206-.104-.01-.042-.052-.052-.052-.103-.013-.133-.09.07-.206 0-.186-.596.22-.96.463-1.287.105-.03.356.086.308-.1zM196.516 149.663c-.026-.027.037-.066.052-.053.026.028-.037.067-.052.053zM204.282 150.64c.022.107-.035.137-.05.205-.15-.008-.125-.244.05-.205zM203.922 150.845a.26.26 0 0 1 .154.154c.14.005.104-.087.205 0 .1.185-.013.327-.204.36-.093-.13-.176-.27-.154-.515zM203.46 151c-.064.167.165.038.102.206.12 0 .15-.09.31-.053.036.14-.104.104-.104.207-.05-.002-.04-.064-.052-.104h-.31c.005-.254-.2-.102-.36-.104.037-.15.206-.17.413-.153zM207.06 157.067c.007.13-.082.16-.104.258-.06.076-.194.08-.258.154-.38-.167.092-.754.36-.413zM215.083 161.388c0-.05.062-.04.103-.05-.003.05-.064.038-.103.05zM206.237 164.37c.22.1.054.52 0 .67h-.36c-.058-.213-.35-.305-.206-.566.277-.055.438.033.567-.104zM207.42 165.04c.03.184-.06.248-.105.36-.008.11.183.022.258.05.052.156-.115.092-.206.104.017.223-.07.34-.206.412.073.146-.14.262 0 .31-.014.103-.138.1-.153.204-.006.092.063.11.052.205-.103.002-.066.14-.207.104.01.112-.042.163-.154.153-.112.01-.164-.04-.154-.154-.12.015-.198-.01-.258-.052-.24-.02-.156.29-.41.256-.055-.178.234-.273.05-.41.006-.133.2-.074.206-.207.028-.113-.098-.072-.103-.154.013-.2.27-.424-.102-.514.033-.083.313-.278 0-.26 0-.048.062-.038.103-.05.183.027.127-.182.31-.154.013.21.215.23.41.258.092-.047.086-.19.207-.207-.053-.223.106-.236.154-.36h.206c.023.046.046.09.103.103zM204.745 165.966c-.025.248-.165.383-.463.36-.07-.067-.05-.224-.05-.36.172-.057.408-.154.513 0zM205.516 166.84c.042.01.052.052.104.052-.01.04-.052.05-.052.102-.06-.01-.043-.095-.052-.155zM206.545 167.046c.03.2-.115.227-.258.256-.018-.104.01-.16.104-.154.024-.063.067-.106.155-.102zM206.39 167.405c.15-.076.15.23 0 .154v-.155z"/></g><g><path d="M201.974 58.884c.404.153.312.56.854.63-.016.903.345 1.605 1.085 2.12-.226.824.225 1.3.444 1.9-.39 1.323-.783 2.643-1.45 3.417-1.485-.295-2.69-.04-4.145-.278.337-.708.345-1.245.19-1.697-.625-.305.084-1.294-.542-1.593.632-1.124.1-1.65.5-2.66.567-1.506 2.27-.785 3.064-1.838zM201.974 58.884c-.395-.094-.047-.532 0 0zM210.59 70.484c.56-.267 1-1.413.195-1.696.465-.48 1.152-.53 1.255-1.72.324-1.47.03-3.35.794-5.74.043-1.308 1.085-.656 1.26-1.714.237-.756.85-.766.934-1.812.96-.557 1.882-1.203 2.53-2.36 1.294-.256 2.153-1.352 3.595-1.318.304-.976.815-1.53 1.573-1.6.17-1.244 1.094-1.004 1.366-2.03.73.022 1.25-.344 1.91-.453.048-1.11 1.04-.394 1.368-.965.996-.49 1.892-1.166 3.174-1.097.335-.558 1.102-.282 1.158-1.384 1.802.22 2.81-1.122 4.772-.586 1.64-.45 3.476-.5 4.98-1.215.99.193 2.008.44 2.55-.24.533.176 1.065.343 1.596.514 1.1-.278 2.416-.153 3.394-.67l2.236.72c.65.067 1.03-.43 1.805-.124.12-.8 1.4.646 1.27-.647.602.866 1.34.14 2.137 1.04 3.84-.044 6.933 1.476 11.062 1.8 1.877 1.502 4.585 1.03 5.873 2.595.824.06 1.603.018 2.655.512 1.116 1.027 3.037 1.646 3.64 2.942 2.165.308 2.11 1.76 4.272 2.078.31.91 1.557 1.335 2.568 1.886.748 1.08 1.38.83 2.347 1.47.172.71 1.02 1.07 1.19 1.79 1.288.14 1.404.883 2.458 1.142-.102.76 1.764.517 1.284 1.472 1.443.063 1.03 1.078 2.03 1.36.358.53 1.183.824 1.293 1.48.793.388 1.7.73 2.03 1.36.806.3 1.466.675 1.71 1.252.976.93 2.382 1.63 3 2.737-.225.56.18.8-.087 1.38-.18.447-.344.888.007 1.064-.867 1.3-2.51 2.528-2.4 4.172-.936-.61-.927.608-1.588.54-.217 1.314-.875 1.77-1.466 2.353-.667.255-.688 1.78-1.356 2.037-1.146 1.06-1.91 2.865-3.257 3.528-.558.82.185.98-.2 1.705-.174 1.396-1.722.105-1.896 1.502-.713.166-1.076 1.025-1.796 1.19-.756 1.634-2.145 2.06-2.717 4.063-.626-.357-.918-.055-1.383-.095-.255 1.595-1.13 1.956-1.883 2.563-.12.465-.242.932-.626.86-.296 1.628-1.252 1.94-1.032 3.2-.39.814-1.19.805-2.015.762-.537 1.38-1.708 1.518-2.09 3.205-.996.326-1.43 1.72-2.43 2.05-.367 1.706-1.647 1.632-1.87 3.622-.707-.336-.65.812-1.268.654l-.618 1.916c-1.165-.7-.78 1.615-1.582 1.61-.218.962-1.038.743-1.257 1.708-.612 1.578-1.793 2.053-2.518 3.426-1.042.918-1.725 2.535-2.83 3.326-.518 1.766-1.928 1.793-2.302 3.844-.68-.117-.907.66-1.588.545-.316 2.155-1.63 2.37-2.51 3.425-.007.803.645 1.27 1.18 1.787-.477.96.054 1.402.024 2.133-.212.904.95 1.11 1.186 1.79-.356.98.708 1.245-.083 2.45.573.5-.466 1.836.34 2.223-.816 1.357-1.868 2.27-2.62 3.75-1.323.36-2.25 1.504-3.487 2.047-2.4-.178-4.68-.096-6.573.7-1.192-.183-.422-1.382-1.61-1.58-1.626.485-3.54.386-4.977 1.226-.713-.337-1.246-.343-1.706-.198-2.85-.94-4.584-2.453-6.52-3.86-.303-1.005-.302-2.163-.766-3.077-.028-.52.9-1.53.192-1.703 1.038-.904 1.77-2.21 1.874-3.623.69.124.543-1.382 1.157-1.396.114-.82.807-.51.834-1.5.412-1.275 1.258-1.71 1.67-2.988.337-1.328.095-2.36.073-3.504-.494-.998-1.413-1.766-2.366-2.533a11.98 11.98 0 0 0-1.732-3.374c.143-.78-.756-1.04-.86-1.695.227-.83-1.03-.9-1.296-1.468-.284-1.367-1.335-2.35-1.632-3.707-1.055-.168-.4-1.215-1.71-1.254-.11-.653-.233-1.308-1.287-1.476-.303-.645-.266-1.47-.343-2.23-.75-.242-.76-.854-1.812-.936.03-.73-.496-1.17-.02-2.125-1.144-.305-.702-1.422-1.508-1.898-.792-.395-.655-1.264-1.606-1.576a4.71 4.71 0 0 0-1.086-2.114c.145-.947-1.436-.86-1.076-2.116-.564-.602-1.622-.954-1.515-1.896-.2-.34-.607-.574-1.17-.734.388-.598-.364-.955-.54-.518-.714-.35-.4-1.22-.863-1.703-.237-.583-1.14-.833-.87-1.69-.917-.237-.43-1.19-1.284-1.464.11-.688-.666-.91-.55-1.596-.962-.845-2.004-1.64-2.26-2.843-.715-.202-.99-1.06-1.286-1.478-.143-.2-.735-.393-.862-.623-.104-.212.346-.717-.11-.75-.234-1.212-1.865-1.708-1.832-3.06-1.122-.05-.097-1.196-.972-1.37-.624-.31-.344-1.07-.97-1.374.454-1.836.586-3.494 1.427-5.53a3.042 3.042 0 0 0 1.693-.868c.946-.23 2.507.72 3.406.39z"/></g><g><path d="M156.12 136.53c.08-.054.024-.12-.01-.183.11-.076.204.018.32-.127.097-.018.18.107.272.152.18-.078.342.02.52-.057.083-.07.034-.152.098-.223.082-.04.16-.066.246-.16.088.004.054.113.163.193.02-.14.182-.13.277-.232-.027-.08-.007-.154-.108-.24-.045-.057.046-.1-.04-.16.107-.076.2-.154.074-.25.246-.05.192-.273.373-.406-.078-.102.01-.19-.054-.29.047-.044.088-.015.135-.063-.042-.047-.04-.09-.015-.13-.043-.01-.083-.038-.122-.09-.098-.067.062-.116-.008-.18-.04-.05-.08-.056-.126-.038-.042-.002-.08-.062-.125-.037l-.14-.167c-.076-.01-.15-.04-.23.006a9.24 9.24 0 0 0-.095-.112c-.07.03-.14.018-.21.03-.053-.077-.125.07-.176-.038-.133.082-.168.174-.256.26-.187.086-.37.117-.56.236a.18.18 0 0 1-.154-.014c-.05-.05-.11.06-.154-.014a.372.372 0 0 1-.238.057c-.013.05-.043.1-.116.145.04.064.006.12.01.182-.206.12-.108.264-.292.387 0 .145.042.294-.012.437.062.066.082.13.06.186.04.068.083.06.122.088.03.048.002.222.112.192.02.035-.038.064-.007.102.165.18.2.526.466.555zM144.027 145.018c.003-.025-.048-.018-.05-.004-.003.025.05.017.05.004zM144.187 144.98c.12.13.007.24.12.37a.533.533 0 0 1 .397-.093c.068-.092.126-.06.19-.113.118.03.248-.08.363-.02.026-.123-.17-.207-.238-.227-.03-.125.126.08.186-.062-.1-.15-.217-.078-.333-.055-.12-.12-.083-.197-.213-.197-.11.05-.05.115-.094.17-.16.02-.257.06-.38.227zM151.885 145.73c-.056.028-.032.065-.01.103-.08.053-.11.11-.04.178l.167-.14-.117-.14zM151.516 146.42c-.078.072.015.29.14.168l-.14-.168zM151.76 146.88c.033-.108.2-.1.226-.24-.064-.142-.16.05-.232.007-.078.07-.104.146.005.232zM158.567 144.533c-.03-.027-.042.008-.027.02.03.03.04-.004.027-.02zM158.8 144.527c-.02.018-.038.03-.056.047l.047.057.058-.046-.047-.057zM159.062 144.783c-.034-.062-.162.066-.06.098l.056-.048c-.025-.018-.013-.033.004-.05zM158.088 145.602c-.057.062-.115.127-.02.203.1-.06.104-.127.02-.203zM158.59 145.463c-.117.068-.134.145-.15.22.073.075.137.212.22.15.06.097.13.075.197.118.118-.083-.034-.19.05-.278-.11-.04-.21-.168-.317-.21zM159.49 145.182c-.11.084-.122.178-.048.28.15-.003.217-.173.05-.28zM157.815 146.635c-.05-.03-.03.023-.004.053.058-.038.037-.077.005-.053zM159.102 145.793c.045.115.055.23.1.344-.143.158-.184.328-.25.494.046.038.013.07.042.106.064.057.13.088.195.12.065.06-.14.09-.014.155.087.01.072-.103.195-.163-.03-.03.028-.05.034-.074.014-.082-.03-.178.073-.252.102-.044.058.105.117.14.07-.037.02-.084-.015-.13.077-.09.145-.09.217-.136-.003-.06-.06-.125-.01-.182.077-.01.198.096.21-.033-.06-.1-.13-.085-.2-.07.006-.077-.05-.16-.006-.233-.046-.05-.108.06-.152-.012-.08-.084-.01-.156.044-.23l-.14-.167c-.068.037-.058.082-.087.123-.142.015-.26.037-.353.203zM159.794 145.543c-.124.06.073.19.112.19.076-.063-.043-.186-.112-.19zM155.675 149.285c.04.05.083.03.122.088.098-.06.105-.13.017-.205-.07.055-.13.02-.14.117zM155.084 150.16c-.11.053.038.125-.042.178l.21.252c.072-.027.136.012.2.068.08-.117.138.004.213-.084.067-.002.113.027.178.04.05.013.125-.01.176.042.102-.053-.01-.12.092-.174.077-.09.146-.088.22-.133-.01-.038-.02-.073.006-.105-.042-.098-.098-.04-.143-.117-.04-.04-.076-.115-.122-.086-.092-.07.03-.12-.062-.186-.13-.023-.124.057-.244.158-.137.1-.3-.09-.372.12-.037.024-.066-.028-.1-.058-.067.016-.143.11-.21.084zM154.903 150.455c.002-.027-.05-.02-.05-.004-.003.027.05.02.05.005zM154.546 150.707c.015.172-.26.102-.26.312.088.093.188.022.275.103.062.047-.308.123-.175.24.11-.074.227-.23.33-.227.116.104.004.188.103.29.19-.097.43-.233.553-.413-.077-.094-.155-.188-.233-.28-.066.07-.123.038-.176-.042l-.166.142c-.09.05-.166-.09-.248-.125zM159.734 146.828c-.05.09-.12.178-.05.28.142.03.074-.282.24-.108.04-.11-.136-.17-.19-.172zM164.236 150.498c-.076.072.044.188.123.086-.04-.068-.082-.057-.124-.086zM176.85 144.607a.94.94 0 0 1-.256.262c-.052.09-.09.18-.152.27.146.07.182.24.285.284.016.068 0 .137.032.207-.01.122-.04.24.02.364.075.123.16.143.242.178.074.123.073.133.192.17.09.068.056.127.112.19.128.01.256.036.383.06.005-.043.035-.082.086-.12.054-.024.097.067.16-.038-.053-.11-.117-.05-.174-.094-.072-.066.176-.104.04-.176.083-.08.22-.154.23-.238.074-.088.158-.03.166-.14.087-.09-.024-.192.05-.28.042-.006.082.04.13-.014-.05-.04-.023-.072.008-.104-.03-.027-.035-.055-.017-.078-.107-.072-.215-.113-.334-.057a5.272 5.272 0 0 1-.093-.11c-.055.038-.108.06-.16.038-.013-.026.006-.05-.017-.08-.054-.075.08 0 .11-.09-.17-.41-.553-.42-.834-.487-.07.032-.155.207-.212.084zM177.478 144.508c0-.025-.05-.018-.053-.004-.002.025.05.017.053.004zM173.718 148.564c.036.068.08.06.12.088.078-.072-.045-.187-.12-.088zM174.006 148.512a.186.186 0 0 0-.014.154c-.073.066-.095 0-.11.094.03.145.156.17.274.102a.492.492 0 0 0-.15-.35zM174.326 148.385c.11.064-.07.098.04.158-.067.057-.124.02-.192.113.043.094.102.01.15.066.025-.025-.01-.055-.02-.082.056-.045.11-.092.168-.14-.118-.136.062-.145.147-.22-.09-.063-.19 0-.294.105zM196.102 131.2c-.032-.028-.042.007-.028.024.03.026.04-.01.028-.025zM202.194 126.7c-.098.063-.038.138.035.212l.082-.07c.008-.098-.06-.037-.118-.14zM202.72 126.31c-.057.03-.035.065-.008.1.012.056-.017.105-.065.15.083.126.175.16.265.204l.195-.162c-.106-.088-.053-.16-.16-.246-.077-.01-.155 0-.227-.045zM203.48 126.762c-.047-.03-.024.025-.057.047.037.028.08-.02.056-.048zM203.228 126.973c-.01.11.083.23.15.35a.997.997 0 0 0 .153-.27c-.09-.07-.055-.127-.11-.19-.06-.008-.126.05-.192.11zM203.342 127.447c.172.032.024-.164 0 0zM199.837 130.957c.003-.025-.05-.016-.05-.002-.004.025.048.018.05.002zM201.188 130.252c-.04-.03-.09.035-.133.064.065.05-.02.084.014.13.015.044.01.087-.04.126.104.12.22.242.253.357.075.028.16-.07.238-.058.052-.055-.008-.12.042-.178.087-.104.158-.03.24-.105.007-.046-.045-.093-.013-.132.08-.027.147.084.223.096.07-.088.09-.18 0-.283a.955.955 0 0 1 .27-.13c.086.076.05.143.084.213-.21.053-.296.264-.32.412.14.09.123.14.18.273.075-.047.134.053.21-.033-.098-.09.15-.182-.024-.312.173-.13.13-.28.27-.416-.06-.21-.278-.36-.443-.244-.093-.12-.186-.24-.29-.23a.553.553 0 0 0 .043.39c-.105.022-.206 0-.298-.128-.167.096.01.225-.158.32-.118.08-.213-.102-.34.05-.067-.068-.09-.13-.01-.183zM200.108 131.395c.06-.088.104-.02.163-.088-.068-.116-.286-.04-.162.088z"/><path d="M201.572 130.88c-.008.075.033.155.108.24.07-.032.157.003.162-.09a.884.884 0 0 0-.27-.15zM175.134 153.305c.055.074.117.05.173.094.066.013.14-.046.21-.036.13-.262-.392-.366-.383-.06zM172.755 159.287c-.022-.025-.052.01-.08.02.025.027.053-.006.08-.02zM197.964 138.225c-.032-.027-.04.006-.028.02.033.03.042-.005.028-.02zM178.896 156.885c-.073.152.208.307.305.36l.197-.163c-.067-.14.05-.322-.147-.398-.173.095-.222.216-.354.2zM178.562 157.783c.066.115.145.107.22.148.054.058-.09.097-.117.146.042.107.104-.002.158-.037.092.126.192.15.3.128.027.11.193.078.14.166.054.05.12-.008.175.04.045.048.016.09.065.136.056-.045.1.047.16-.037.045.066.096.068.152.012.063-.043.07-.094.013-.15.072-.047.103-.096.116-.145.122-.12.216.084.34-.05-.052-.12-.252-.042-.215-.198-.063-.07-.142.05-.206-.018-.067-.05.02-.086-.014-.13-.097-.105-.338-.108-.18-.325-.054-.03-.293-.01-.116-.142-.023-.025-.052.008-.078.02-.086.098-.15-.04-.238.057.09.12-.012.223-.105.326-.07.017-.13-.063-.205-.02-.072-.142-.166-.077-.247-.122-.037.03-.073.06-.11.094.01.035.017.07-.008.1zM204.167 136.908c.092-.168.134-.055.27-.13.018.052.153.114.088.16.064.054.176-.1.116-.144-.043-.092-.102-.006-.152-.014-.04-.055.08-.096.064-.148-.087-.12-.01-.227-.15-.35-.17-.002-.44.13-.185.346.073.102-.16.177-.05.28zM205.372 135.8l-.11.093c.088.06.02.107.088.164.1-.077.14-.16.022-.256zM205.577 135.818l-.083.07c.045.04.015.07.042.107.025.02.012.035-.004.05.072.065.152.015.223.1.027-.067.025-.136.068-.202-.077-.08-.164-.074-.246-.125zM204.315 136.973c-.023-.025-.053.008-.08.02.025.027.055-.007.08-.02zM180.43 157.07c.126.123.264.13.414-.016.008-.068-.074-.145-.136-.22-.12.05-.292.105-.278.236zM205.733 136.4c-.187.13-.224.273-.32.41.11.135.228.146.34.236.11-.11 0-.24.134-.35-.095-.12.014-.24-.154-.296zM180.41 157.893c-.02.025-.006.053-.033.076.023.017.05.003.073.03.03-.03-.02-.07-.04-.107zM179.945 158.473c.076.12.165.07.255.02-.037-.063-.078-.08-.126-.036-.04-.023-.082-.027-.13.016zM204.876 137.64c-.04-.03-.09.036-.135.067.024.027.048.055.07.084.095-.044.01-.102.066-.15zM205.912 137.008a1 1 0 0 1-.056.047c.017.02.032.037.047.057l.056-.047c-.017-.02-.03-.038-.048-.057zM205.795 137.152c.004-.025-.05-.018-.05-.004-.002.028.05.02.05.004zM180.19 158.598c-.113.025.026.19.07.084a1.153 1.153 0 0 0-.07-.084zM205.43 137.508c-.032-.025-.042.01-.027.023.03.03.04-.007.027-.022zM209.97 134.268c.077-.002.153-.004.24-.107-.102-.12-.015-.24-.155-.296-.05.002-.104.025-.162.09.003.1-.052.2.077.314zM205.574 137.623c-.03-.027-.04.01-.028.023.032.03.042-.005.028-.023zM205.2 138.648c.033.062 0 .12.062.188.075.006.217-.113.223-.188-.093-.017-.183-.066-.284 0zM206.904 137.457l-.056.047c.037.07.083.02.13-.014-.023-.02-.05-.006-.074-.033zM208.65 136.088c.01.096-.09.18.05.287.136-.04-.06-.107.014-.152.078-.055.002.08.094.11.072-.034.158.005.164-.09-.102-.126-.22-.052-.323-.155zM208.683 136.58c-.02.016-.037.03-.055.047.016.02.03.037.047.055l.056-.045-.047-.057zM206.454 139.068c-.03-.025-.04.008-.027.023.03.027.04-.006.027-.022zM206.287 139.21c.047.042.102.022.158-.038-.042-.11-.102.002-.158.037zM175.46 177.94c-.04.075-.016.155.056.237.06-.002.125-.06.182-.01.025-.122-.17-.204-.24-.226zM177.278 178.977c-.023-.025-.053.008-.08.02.025.024.053-.01.08-.02zM176.464 180.324c-.027.023-.056.05-.083.07l.094.11c.08-.05.058-.11-.01-.18zM178.44 179.234c.067.125.155.018.226.098.154-.193.277-.035.426-.17-.02-.07-.038-.14-.084-.215-.112.004-.238.172-.357.254-.056-.14-.132-.028-.21.034zM183.6 175.428c-.125-.04-.108.145-.225.188.145.1.226-.073.224-.188zM177.617 180.4c-.018.023-.003.05-.03.074.022.02.05.004.073.033.02-.025.004-.05.033-.076-.024-.016-.052-.002-.076-.03zM178.42 179.773c-.118.076-.17.158-.176.244.055.072.116.05.173.092.192-.108.167-.272.004-.337zM176.988 181.12c-.028.022-.056.046-.083.07l.07.08a2.48 2.48 0 0 0 .082-.067 3.103 3.103 0 0 0-.07-.084zM183.81 175.963c.088.06.02.105.088.162.106-.033.123-.094.172-.19a1.946 1.946 0 0 1-.07-.085c-.06-.002-.125.05-.19.113zM178.86 180.354c-.063-.06-.1.09-.087.123-.103.05-.08.11-.145.166.107.088.054.16.16.248a.264.264 0 0 1 .126.036c.028-.03.053-.035.078-.018.058-.066.087-.13.12-.197-.092-.17-.305-.196-.252-.356zM179.205 180.254l.186.223c.177-.074.24-.324.25-.492-.038-.068-.08-.06-.12-.09-.212.02-.204.248-.315.36zM184.262 176.39c-.108.042.002.103.038.157-.003.064.026.053.07.084.16-.085-.004-.273-.108-.24zM180.096 181.262c.035.037.07.074.043.105.08.14.184.04.272.104.068-.036.06-.08.09-.12.163-.016.343-.188.51-.24-.023-.047.05-.082.09-.123a.5.5 0 0 0-.083-.264.492.492 0 0 0-.08-.264c-.152.05-.182.06-.302.204.027.14-.06.27-.138.4-.143.16-.262.04-.404.198zM175.422 185.47c-.13.136-.3.267-.116.43.214-.052.193-.275.116-.43zM179.476 182.162c-.018.014-.037.03-.055.047.017.017.032.036.047.054.02-.025.035-.01.05.004.02-.016.038-.03.057-.047l-.046-.054c-.02.025-.036.012-.052-.004zM175.576 185.484c.062.057.13.086.195.12.204-.07.225-.237.343-.384-.195-.11-.376.07-.537.264zM180.173 181.86c.104.01.044-.058.087-.12-.072-.076-.188.045-.087.12zM180.665 181.543c.042.1.1.04.145.115l.167-.14c.074-.036-.006-.087.037-.126-.11-.046-.228.046-.35.15zM181.432 181.326c-.147.117-.1.357.065.418a.394.394 0 0 0 .08-.3c-.044-.1-.1-.042-.145-.118zM175.656 186.316c.033.17.165.352.35.133-.108-.145-.216-.28-.35-.134zM175.658 186.6c-.125.066.075.162.107.242.073-.045.104-.094.116-.145-.063-.154-.15-.045-.222-.097zM185.005 179.086c.088.092.188.02.276.102.065.082-.077.146.005.232-.016.074-.06.148.007.232.036-.023.067.03.098.06l.195-.163c-.063-.067-.03-.124-.01-.183-.04-.05-.08-.055-.125-.037 0-.043-.023-.088-.066-.135-.037-.088.055-.168.073-.252-.062-.064-.028-.12-.06-.186-.065-.057-.13-.086-.198-.12-.208.138-.262.287-.195.45zM176.286 186.785c-.076.084-.138.014-.2-.07-.037.035-.075.07-.106.043-.04.072-.04.15.057.236-.072.092.026.104.09.162.07-.045.098-.096.063-.148.07-.047.1-.094.064-.148.152-.01.14.127.265.203a.804.804 0 0 1 .418-.066c.102-.12-.092-.268-.197-.404-.062.04-.112-.082-.175-.04.007-.124-.142-.112-.215-.2-.04-.006-.09.047-.13.014-.052.03-.025.066-.06.098.066.103-.018.287.126.32zM177.394 185.615l-.083.07c.077.006.15.275.286.283.064-.055.006-.252-.107-.24-.004-.068-.03-.097-.096-.113zM185.64 179.217c-.117.05.03.123.062.188.114-.093.013-.135-.06-.188zM185.804 179.412c-.05-.03-.03.023-.004.05.055-.032.034-.07.004-.05zM185.878 179.445c.018.078.012.154.007.232-.146.086-.295.207-.438.27-.074.056-.052.116-.04.177.002.06-.03.12.008.182a.37.37 0 0 0 .41.037c.322.188.366.453.64.648.093.07-.03.118.06.187.08.105.17.03.248.125.083.035.17.016.252.074.12-.102.242-.203.36-.305.08-.095.078-.198.233-.288-.09-.047-.01-.203.064-.148.023-.04.027-.086-.014-.13.08-.114.172-.228.133-.35-.083-.11-.188.005-.283 0 .04-.228-.22-.12-.345-.185-.197-.37-.597-.53-.89-.724-.13.03-.262.04-.404.2zM177.408 186.65c-.082.068-.05.15-.047.227-.072.062-.166.123-.17.19.043.095.102.01.15.067.095.09.192.156.29.23.114-.06.09-.13.12-.195-.088-.09-.183-.075-.267-.206-.08-.057.013-.102.014-.152-.07-.056 0-.103-.09-.162zM184.42 181.098c.068.096.144.105.226.045 0-.043-.022-.088-.065-.135-.05.004-.104.027-.16.09zM176.997 187.516c.062.068.125.14.2.07-.06-.084-.125-.156-.2-.07zM185.5 180.805c.12.113.247.13.387.01-.11-.137-.33-.196-.387-.01zM184.648 181.71c.066.116.15.062.232-.005-.066-.117-.148-.06-.232.006zM185.062 181.695c.028-.02.05.016.075.033.158-.1.19-.21.156-.322-.123-.13-.425.16-.23.29zM218.83 155.96c.05.11.116.05.173.095.042.107.104-.004.158-.04-.09-.175-.29-.232-.33-.054zM216.18 158.852c.085.102.172.18.274.1.077.104.17.014.25.074.07-.098.124-.027.187-.06.084-.07.034-.153.1-.226-.048-.072.032-.135.015-.203-.066-.123-.145-.105-.214-.2-.157.067-.312.054-.356.25-.138.122-.233.114-.255.265zM220.94 160.17c.123-.02.353-.217.338-.332-.09-.064-.183-.082-.276-.102-.036.035-.074.07-.105.043-.065.12-.098.247.043.39zM231.796 151.342c.17.03.023-.164 0 0zM229.954 153.838c-.08.053-.023.117.008.182.08-.055.06-.118-.008-.182zM231.6 152.975c-.072-.053-.15.104-.063.15.092-.045.01-.104.064-.15zM230.708 153.773c0-.025-.05-.018-.053-.004-.002.027.05.02.053.003zM231.18 153.377c-.117.027.022.193.07.084a1.946 1.946 0 0 0-.07-.083zM230.694 153.928c-.066.047-.07.098-.014.154-.1.06-.076.13-.12.195-.095.078-.172-.01-.267.08.034.062-.09.11.01.182.04.06-.03.116.01.18.05.05.098.077.15.065-.01.125.12.104.187.223.123.012.29-.05.353-.2-.02-.1.018-.19-.104-.294.07-.148.226-.29.09-.457-.09-.135-.21.06-.296-.13zM229.88 154.656c.06.104.128.113.192.172l.166-.14c.007-.046-.09-.23-.163-.194-.07-.01-.19.092-.194.162zM241.8 155.8a9.24 9.24 0 0 0-.11.095c.07.095.222 0 .11-.094zM225.973 169.277c-.03-.03-.04.008-.027.023.03.026.04-.007.027-.023zM226.553 168.836a2.817 2.817 0 0 1-.287.336c.042.05.06.227.163.195.066.03.135.023.2.07.067.1.017.19 0 .283.046.074.063.143.085.215-.08.025-.154.006-.24.105.053.074.115.05.172.094.11-.05.05-.115.092-.174a.476.476 0 0 1 .382.06c.086-.106.158-.052.245-.16-.07-.16-.198-.325.04-.46-.018-.078-.05-.158-.006-.23-.132-.05-.278.066-.42.117-.063-.074-.145-.15-.137-.22-.096-.077-.2-.073-.29-.23zM242.127 155.906c-.23.17-.316.352-.203.55.137-.03.146-.157.307-.257-.02-.096.016-.188-.103-.294zM242.23 157.102c.06.105.128.115.19.172.105-.076.152-.158.126-.246-.108-.102-.26-.053-.317.074zM227.39 170.174c.097 0 .034-.033.113-.094a.078.078 0 0 0-.112.094zM242.99 157.555c.123.143.232-.012.32-.125-.15-.21-.394-.076-.32.125zM243.178 158.062c.062.068.13.074.205.018.07-.033.137.002.213-.084.01-.08.06-.225-.057-.236-.17.01-.202.21-.362.302z"/></g><g><path d="M310.07 112.334c.076.057.12-.02.165-.074.11.075.057.197.23.256.052.084-.035.207-.047.307.137.14.1.328.236.47.096.05.154-.024.243.01.066.063.12.13.236.175.026.085-.088.092-.125.222.137-.03.187.124.316.18.065-.056.142-.062.188-.187.037-.062.11.01.136-.09.108.07.214.13.26-.022.133.215.324.087.51.208.07-.108.182-.058.253-.15.06.027.047.076.11.103.028-.056.07-.068.115-.06-.008-.043.008-.09.042-.145.028-.117.13.016.166-.072.032-.055.02-.096-.01-.132-.013-.04.03-.096-.01-.13.035-.062.07-.126.107-.188-.02-.076-.018-.155-.087-.216.023-.042.048-.083.07-.127-.054-.057-.064-.125-.103-.186.056-.078-.11-.093-.023-.18-.125-.095-.223-.096-.334-.147-.146-.145-.24-.306-.418-.442a.183.183 0 0 1-.04-.148c.03-.064-.094-.082-.042-.15a.377.377 0 0 1-.136-.2c-.053.004-.108-.007-.177-.06-.046.06-.11.05-.167.072-.185-.15-.285-.01-.464-.138-.14.05-.263.144-.415.143-.04.082-.092.12-.153.12-.05.06-.025.098-.04.146-.033.046-.205.08-.14.173-.025.03-.073-.012-.097.03-.11.218-.42.374-.356.63zM297.88 103.986c.024-.006 0-.05-.014-.047-.026.004 0 .05.013.046zM297.97 104.123c-.08.157-.223.092-.306.244a.53.53 0 0 1 .23.338c.108.03.097.098.17.138.016.122.163.204.146.333.126-.02.136-.23.13-.303.107-.07-.03.147.123.154.105-.148-.003-.23-.065-.33.073-.155.157-.148.11-.272-.085-.084-.124-.005-.192-.027-.076-.144-.15-.22-.345-.275zM299.97 111.594c-.048-.042-.073-.006-.1.03-.078-.058-.143-.067-.18.022.062.035.126.07.187.106l.092-.158zM299.19 111.49c-.093-.047-.266.117-.105.19.036-.063.072-.126.106-.19zM298.848 111.88c.112-.005.163.154.303.13.112-.11-.1-.133-.085-.217-.095-.05-.175-.045-.217.088zM303.434 117.432c.014-.038-.023-.035-.03-.016-.018.038.02.033.03.016zM303.52 117.648a.767.767 0 0 1-.063-.036c-.013.02-.024.042-.037.063.02.014.042.024.064.037.013-.02.025-.042.037-.064zM303.372 117.984c.047-.055-.118-.13-.112-.023.02.013.04.023.064.036.01-.03.028-.023.048-.012zM302.265 117.357c-.08-.03-.16-.062-.197.056.09.07.155.052.197-.056zM302.57 117.78c-.105-.085-.182-.075-.26-.063-.044.095-.148.202-.06.257-.07.09-.025.15-.043.227.12.08.167-.097.28-.05-.004-.115.082-.255.082-.37zM303.15 118.525c-.12-.076-.21-.053-.28.05.055.143.238.146.28-.05zM301.2 117.467c.01-.06-.03-.02-.05.014.054.04.083.007.05-.013zM302.44 118.375c-.092.083-.194.132-.288.213-.197-.077-.37-.057-.55-.06-.02.057-.06.036-.084.077-.03.08-.035.152-.045.225-.03.082-.133-.098-.147.043.02.085.12.03.22.125.018-.04.056.008.083.004.08-.016.154-.09.26-.02.078.08-.077.09-.09.158.06.052.087-.012.117-.06.113.04.136.106.203.155.058-.023.097-.1.167-.072.037.068-.02.22.104.186.073-.093.034-.153-.004-.214.075-.02.132-.102.217-.086.028-.062-.093-.08-.042-.148.05-.102.143-.063.23-.037l.107-.19c-.06-.052-.097-.026-.145-.04-.06-.127-.123-.23-.312-.26zM302.917 118.937c-.1-.097-.15.134-.14.17.088.05.16-.105.14-.17zM297.97 116.39c-.035.058 0 .09-.04.147.09.07.156.053.197-.057-.077-.047-.065-.113-.158-.09zM296.94 116.145c-.086-.084-.103.08-.18.023l-.162.285c.05.057.037.13.006.213.138.032.045.13.153.168.025.064.015.115.023.182.008.052.057.114.023.18.086.078.11-.05.195.025.112.04.135.107.202.16.03-.02.06-.042.1-.03.076-.074.003-.104.06-.174.024-.053.08-.112.037-.146.033-.11.122-.013.152-.124-.026-.13-.1-.097-.235-.173-.142-.093-.02-.312-.244-.305-.033-.026.006-.073.022-.114-.037-.06-.15-.097-.152-.17zM296.602 116.078c.026-.006 0-.053-.015-.05-.025.007 0 .054.015.05zM296.24 115.833c-.155.073-.186-.21-.384-.134-.057.113.044.183 0 .292-.022.074-.223-.246-.287-.08.108.077.294.133.328.23-.057.145-.175.07-.238.197.158.143.37.32.583.37l.18-.316c-.09-.037-.08-.102-.022-.18l-.19-.107c-.08-.066.026-.185.03-.274zM301.693 119.33c-.102-.014-.21-.05-.278.053.02.143.288-.03.185.186.115-.002.11-.19.093-.24zM299.836 124.833c-.095-.045-.16.108-.038.146.05-.06.025-.097.038-.147zM309.775 134.58a.948.948 0 0 1-.335-.148c-.103-.018-.2-.022-.306-.05-.014.163-.16.257-.166.368-.06.04-.13.05-.184.104-.115.035-.236.048-.333.146-.088.114-.075.2-.08.29-.09.11-.1.115-.09.238-.033.11-.1.097-.142.173.038.123.057.253.08.38.04-.01.09.004.144.04.04.04-.03.113.09.135.084-.087.007-.128.027-.196.035-.09.158.128.178-.024.104.05.222.153.304.13.107.04.085.14.19.107.112.052.17-.09.278-.052.02.04-.008.093.06.118.02-.062.058-.046.1-.027.015-.038.04-.05.067-.042.028-.127.03-.24-.065-.332l.07-.125c-.054-.038-.093-.08-.09-.135.02-.022.05-.013.068-.044.053-.077.03.074.126.072.32-.303.197-.667.162-.953-.054-.057-.247-.074-.153-.17zM310.09 135.133c.024-.008 0-.054-.015-.052-.025.01 0 .057.014.053zM304.973 133.035c-.053.057-.027.096-.04.145.093.046.158-.11.04-.145zM305.122 133.285a.182.182 0 0 0-.148.04c-.088-.043-.035-.088-.127-.07-.125.08-.105.208 0 .294a.484.484 0 0 0 .275-.265zM305.353 133.54c-.02.127-.115-.032-.134.093-.077-.043-.064-.107-.174-.14-.072.074.027.1-.01.163.032.017.048-.025.07-.045.06.036.124.072.19.108.084-.158.157.006.256.06.03-.104-.066-.174-.2-.237zM329.085 147.904c.015-.038-.022-.035-.033-.017-.014.04.022.037.033.017zM335.435 152.033c-.093-.07-.142.012-.185.106l.094.053c.094-.027.014-.068.09-.16zM335.985 152.39c-.048-.044-.073-.012-.098.026-.047.03-.102.02-.163-.01-.088.122-.086.22-.098.32.074.04.147.084.222.126.044-.13.13-.104.174-.236-.017-.075-.056-.143-.037-.227zM335.828 153.258c.012-.053-.03-.013-.063-.035-.015.045.046.068.063.035zM335.542 153.097c-.107.028-.186.16-.273.263.11.04.208.045.305.05.033-.11.1-.098.14-.173-.017-.06-.093-.1-.173-.14zM335.14 153.37c.03.17.16-.036 0 0zM330.622 151.318c.024-.006-.002-.052-.016-.05-.024.007 0 .054.016.05zM331.757 152.336c.016-.05-.064-.07-.108-.102-.022.078-.087.01-.118.06-.035.03-.076.04-.13.008-.078.138-.15.292-.247.36 0 .082.12.13.138.203.07.03.11-.05.18-.023.128.045.083.137.185.188.043-.01.068-.074.117-.06.053.067-.026.17-.012.245.107.035.2.022.266-.102.092.064.16.135.217.208-.042.11-.116.1-.17.156-.124-.18-.352-.186-.498-.156-.036.163-.088.164-.194.266.07.054-.003.144.105.186.05-.124.223.076.285-.133.183.115.308.022.483.106.175-.13.238-.39.073-.502.08-.13.16-.258.115-.354a.556.556 0 0 0-.35.18c-.06-.092-.072-.194.016-.325-.148-.122-.206.087-.355-.036-.115-.083.02-.235-.164-.3.038-.088.09-.13.167-.074zM330.308 151.727c.104.023.056.09.14.12.082-.105-.063-.283-.14-.12z"/><path d="M331.305 152.916c-.074.02-.135.086-.188.185.055.057.053.15.14.12.04-.106.044-.205.048-.304zM301.03 136.023c-.05.078-.007.128-.027.195.01.066.09.117.105.185.29.03.204-.496-.08-.38zM294.593 135.895c.016-.03-.027-.046-.046-.066-.017.03.024.043.046.065zM323.16 152.113c.015-.04-.02-.035-.03-.018-.016.04.02.037.03.018zM298.997 140.803c-.17-.015-.214.303-.232.412l.223.127c.108-.112.32-.067.322-.278-.15-.128-.28-.132-.313-.26zM298.037 140.805c-.083.103-.05.173-.062.258-.034.07-.12-.05-.177-.06-.086.077.04.097.092.136-.088.13-.074.23-.018.324-.094.065-.004.21-.106.188-.026.07.05.11.024.18-.028.06-.078.047-.104.11.062.036-.01.108.092.135-.047.066-.03.114.04.147.064.045.114.032.147-.04.07.05.125.06.176.058.157.07-.003.23.167.3.094-.09-.05-.25.11-.27.043-.082-.1-.115-.056-.197.023-.08.088-.012.12-.06.06-.127-.02-.355.24-.28.008-.063-.097-.28.09-.16.016-.03-.025-.046-.046-.066-.12-.048-.015-.155-.136-.203-.082.125-.214.067-.344.016-.04-.06.015-.146-.054-.198.11-.12.016-.183.03-.275l-.127-.07c-.028.017-.057.037-.096.025zM326.568 157.46c.188.028.098.106.216.206-.043.037-.054.186-.12.14-.027.08.156.13.176.06.07-.073-.03-.1-.04-.148.037-.057.116.04.16.007.082-.123.21-.09.275-.263-.06-.16-.277-.367-.388-.053-.07.104-.22-.09-.28.05zM328.028 158.2a3.122 3.122 0 0 1-.126-.07c-.025.104-.093.058-.122.14.107.068.2.076.248-.07zM328.083 158.4l-.096-.055c-.02.056-.06.038-.085.078-.01.03-.03.023-.05.014-.034.09.04.147-.012.242.07.002.135-.024.21-.007.05-.1.013-.18.033-.274zM326.56 157.623c.017-.03-.025-.047-.045-.067-.018.03.023.047.045.067zM299.36 142.303c-.07.162-.03.293.16.383.067-.017.11-.12.157-.203-.087-.096-.198-.24-.316-.18zM327.594 158.75c-.188-.13-.335-.115-.498-.156-.088.148-.057.264-.1.4.14.064.224-.084.372.004.08-.13.23-.07.226-.248zM298.583 142.574c-.03-.01-.052.012-.082-.006-.007.028.016.05-.002.08.04.018.06-.042.085-.074zM297.878 142.342c-.088.113-.008.18.07.246.046-.057.048-.102-.01-.13.007-.046-.004-.087-.06-.116zM326.13 158.383c.016-.05-.063-.072-.108-.104l-.054.094c.074.073.1-.026.163.01zM327.086 159.13c-.022-.013-.043-.023-.063-.036-.013.022-.023.043-.036.064l.064.035.036-.063zM326.91 159.07c.025-.004 0-.052-.015-.048-.025.01 0 .054.015.05zM297.847 142.615c-.063-.096-.17.092-.054.096.02-.03.037-.063.054-.095zM326.45 158.854c.013-.04-.024-.035-.033-.018-.015.04.02.035.032.018zM331.076 161.97c.028.07.058.14.186.187.077-.14.222-.1.223-.25-.02-.047-.06-.09-.14-.12-.096.038-.208.022-.27.182zM326.392 159.03c.015-.04-.022-.034-.03-.02-.017.04.02.038.03.02zM325.3 159.04c-.046.052-.113.04-.153.122.02.073.182.164.255.143-.018-.092-.004-.194-.1-.266zM327.015 160.216l-.063-.034c-.053.06.01.084.06.117.007-.03-.016-.052.003-.084zM328.91 161.37c-.087.044-.202-.02-.253.15.084.112.08-.096.148-.042.077.054-.074.03-.07.127.056.056.05.148.14.12.084-.137-.027-.223.034-.354zM328.46 161.574l-.063-.035c-.013.02-.023.04-.036.062.022.012.042.022.063.036.013-.02.024-.042.037-.064zM325.347 160.36c.014-.04-.02-.036-.03-.017-.014.04.02.035.03.016zM325.156 160.253c-.023.06.015.104.092.135.086-.077-.04-.095-.092-.135zM278.07 144.97c-.08-.01-.147.04-.2.136.023.057.1.096.073.166.124-.02.133-.23.128-.303zM277.74 147.036c.016-.03-.025-.047-.045-.067-.016.03.025.046.045.066zM276.193 146.747l-.096-.054c-.023.042-.048.084-.072.125.08.057.128.016.168-.07zM277.908 148.215c-.094.106.037.15-.014.245.235.077.13.248.31.34.06-.044.118-.085.17-.153-.042-.104-.242-.162-.362-.246.11-.1-.02-.134-.104-.185zM283.28 151.71c-.004-.13-.172-.05-.254-.144-.042.17.148.188.255.145zM276.526 147.853c-.028-.008-.05.017-.08-.003-.01.028.013.05-.005.08.03.01.05-.014.083.006.008-.03-.014-.05.003-.083zM277.396 148.387c-.113-.085-.208-.105-.29-.08-.05.075-.005.125-.025.193.167.143.313.06.316-.113zM275.632 147.516c-.03-.018-.063-.035-.094-.052l-.054.093.095.055.052-.096zM282.854 152.096c-.024.104-.092.056-.12.14.067.087.13.083.238.094l.054-.095c-.018-.06-.09-.1-.172-.14zM277.007 149c.03-.08-.12-.062-.146-.038-.084-.08-.133-.036-.206-.077-.045.13-.13.105-.176.237a.234.234 0 0 1 .01.13c.04.016.053.037.045.066.082.03.152.035.227.045.13-.148.077-.357.247-.363zM277.22 149.29l-.143.25c.13.14.388.11.55.062.05-.06.025-.096.04-.145-.094-.19-.304-.103-.447-.168zM282.614 152.67c-.08-.088-.097.037-.136.09-.062.02-.04.043-.054.096.138.12.257-.1.19-.187zM276.59 150.477c-.023.047-.045.093-.085.078-.103.125.027.187 0 .29.06.052.098.027.145.042.072.148.296.257.404.395.035-.037.094.018.146.04a.497.497 0 0 0 .218-.17.507.507 0 0 0 .22-.166c-.1-.124-.122-.147-.298-.21-.12.074-.274.04-.423.01-.2-.08-.13-.23-.328-.31zM271.01 147.575c-.173-.073-.355-.187-.443.042.122.182.325.086.442-.042zM275.53 150.212l-.064-.036-.035.062c.03.01.022.03.014.05.02.013.043.023.064.036.012-.02.023-.043.035-.062-.03-.01-.023-.03-.014-.05zM271.05 147.725c-.03.078-.036.15-.044.225.136.166.3.127.48.186.034-.223-.2-.327-.436-.41zM276.056 150.76c.027.1.07.02.144.04.045-.095-.11-.163-.144-.04zM276.525 151.11c-.08.073-.002.104-.058.175l.19.105c.06.057.078-.035.13-.01.008-.116-.12-.195-.262-.27zM276.997 151.75c-.16-.097-.37.03-.368.21a.4.4 0 0 0 .31-.034c.076-.074 0-.108.057-.176zM270.3 148.092c-.15.09-.273.28-.004.374.098-.152.186-.3.003-.374zM270.033 148.193c-.105-.094-.125.127-.19.186.07.05.126.06.18.056.12-.114-.013-.157.01-.243zM280.35 154.31c-.056.116.045.185 0 .295-.053.09-.164-.02-.215.085-.076.012-.16-.002-.215.09.034.023-.006.072-.02.11.07.042.145.083.22.126.04-.082.104-.07.166-.072.032-.053.023-.094-.01-.13.04-.017.074-.054.105-.11.07-.064.177-.006.262-.02.04-.08.104-.068.153-.122.03-.08.035-.15.043-.226-.202-.147-.36-.145-.488-.025zM270.08 148.847c-.105-.042-.06-.125-.004-.214-.047-.02-.093-.044-.077-.083-.084-.013-.156.015-.203.136-.11-.035-.088.06-.12.14.066.05.124.06.16.008.068.05.124.06.163.01.062.138-.07.175-.098.32a.818.818 0 0 1 .21.368c.148.053.218-.18.31-.326-.06-.047.036-.135-.023-.18.115-.037.054-.172.11-.272-.01-.04-.077-.067-.06-.116-.046-.04-.07 0-.112-.02-.076.096-.277.08-.257.23zM271.564 149.474l-.096-.054c.02.074-.204.236-.165.366.075.04.24-.083.188-.186.065-.025.084-.06.074-.126zM280.448 154.95c-.09-.09-.104.07-.154.124.127.075.13-.035.154-.123zM280.324 155.174c.01-.06-.034-.02-.05.014.05.04.08.005.05-.014zM280.32 155.254c-.07.045-.143.066-.217.088-.132-.107-.298-.204-.41-.314-.074-.05-.123-.008-.178.023-.055.025-.12.015-.166.073a.37.37 0 0 0 .108.396c-.062.366-.296.5-.383.825-.03.11-.12.014-.153.123-.07.11.03.17-.03.275-.004.09.046.165.02.262l.41.23c.12.043.215.002.354.117.013-.1.187-.08.162.008.047.008.09-.004.117-.06.134.036.272.083.374.003.072-.117-.072-.176-.103-.266.23-.04.037-.248.054-.388.276-.314.286-.746.364-1.088-.07-.11-.128-.23-.325-.308zM270.6 149.85c-.093-.053-.157.006-.228.035-.084-.047-.174-.113-.24-.093-.07.074.027.1-.008.163-.052.12-.08.234-.115.353.095.087.15.04.224.042.055-.11.007-.196.1-.32.025-.096.1-.023.147-.04.03-.085.096-.038.12-.14zM278.26 154.468c-.066.098-.05.173.036.228.04-.014.075-.05.104-.107-.022-.05-.062-.09-.14-.122zM269.646 149.768c-.044.082-.088.168.004.212.058-.086.102-.17-.004-.212zM278.913 155.377c-.064.152-.036.277.127.365.09-.148.065-.377-.127-.365zM277.765 154.896c-.085.104-.004.162.088.216.085-.102.003-.16-.088-.216zM277.926 155.28c.03.02.003.052-.005.08.148.114.263.106.357.034.077-.16-.3-.34-.35-.115zM313.87 177.875c-.085.086-.007.127-.027.195-.087.076.04.096.09.134.134-.147.117-.353-.064-.33zM310.232 176.406c-.065.117-.108.227.003.293-.07.106.048.164.02.26.115.03.067.105.122.153.095.053.153-.02.243.014.052-.07.138-.018.196-.057.093-.105.048-.172.11-.27-.117-.124-.158-.274-.36-.247-.16-.086-.185-.18-.334-.147zM310.668 181.327c.062.108.326.255.43.2a.667.667 0 0 0-.002-.295c-.046-.02-.093-.044-.077-.084-.138-.017-.268-.003-.352.18zM322.743 188.397c.03.17.16-.037 0 0zM319.758 187.547c-.076-.057-.117.02-.166.072.08.056.13.013.166-.073zM321.145 188.787c.023-.088-.15-.106-.162-.008.074.072.1-.027.162.007zM320.083 188.23c.025-.008 0-.055-.014-.05-.027.008-.002.053.013.05zM320.62 188.533c-.065-.1-.172.09-.054.096.02-.033.037-.066.054-.097zM319.934 188.27c-.065-.044-.116-.03-.148.042-.092-.072-.15-.025-.226-.045-.105-.06-.05-.162-.167-.22-.048.054-.137-.044-.168.073-.044.06-.12.014-.166.073-.03.062-.038.118-.01.16-.12.036-.054.15-.142.255.03.12.146.254.312.26.084-.053.182-.05.238-.2.164.018.35.11.46-.073.094-.132-.132-.177.016-.324zM318.967 187.767c-.076.093-.062.158-.094.238.064.037.126.07.19.108.044-.01.183-.164.124-.222-.015-.068-.153-.146-.22-.123zM322.076 199.332c-.04-.024-.084-.048-.127-.072-.065.1.077.208.126.072zM303.904 189.235c.016-.04-.02-.035-.03-.018-.015.04.02.035.03.018zM304.52 189.624a2.672 2.672 0 0 1-.415-.152c-.032.058-.188.138-.124.222-.004.073.026.137.006.213-.07.1-.173.084-.265.1-.053.07-.11.11-.17.156-.054-.066-.063-.145-.186-.19-.05.078-.007.128-.026.194.085.085.125.006.193.025.08.113.105.238.08.38.13.044.104.13.235.174.125-.122.236-.302.445-.125.067-.043.13-.102.215-.084.002-.143-.16-.238-.257-.354.047-.085.09-.188.155-.205.042-.118.002-.213.118-.353zM322.09 199.672c-.237-.152-.438-.17-.584.004.076.116.2.082.348.196.082-.052.182-.05.237-.2zM321.008 200.188c-.077.092-.062.16-.094.24.108.07.202.085.275.03.055-.138-.042-.26-.182-.27zM303.562 190.88c.033.087.043.018.127.07.09-.108-.085-.21-.128-.07zM320.85 201.06c-.09.165.094.215.23.255.144-.214-.067-.395-.23-.256zM320.44 201.414c-.042.08-.022.148.057.197.057.056.046.13.154.172.078-.02.23-.023.2-.137-.067-.157-.265-.116-.41-.23z"/></g></g></svg>