<?xml version="1.0" encoding="utf-8"?>
<!-- Generator: Adobe Illustrator 15.0.0, SVG Export Plug-In . SVG Version: 6.00 Build 0)  -->
<!DOCTYPE svg PUBLIC "-//W3C//DTD SVG 1.1//EN" "http://www.w3.org/Graphics/SVG/1.1/DTD/svg11.dtd">
<svg version="1.1" id="Layer_1" xmlns="http://www.w3.org/2000/svg" xmlns:xlink="http://www.w3.org/1999/xlink" x="0px" y="0px"
	 width="305.834px" height="112px" viewBox="0 0 305.834 112" enable-background="new 0 0 305.834 112" xml:space="preserve">
<path fill="#D72050" d="M200.79,82.211c4.868,2.919,9.002,7.02,12.587,11.422c0.306,0.377,0.609,0.759,0.913,1.14
	c2.062,0.396,4.205,0.612,6.409,0.612c15.783,0,28.578-10.721,28.578-23.947c0-13.226-12.795-23.948-28.578-23.948
	s-28.578,10.722-28.578,23.948c0,2.675,0.531,5.244,1.497,7.646C196.136,79.793,198.536,80.86,200.79,82.211z"/>
<g>
	<path fill="#0B3746" d="M255.649,33.181c-5.869-10.99-11.021-10.811-11.686-15.006c-0.665-4.194,4.634-5.637,3.969-9.831
		C247,2.461,241.305,1.4,241.305,1.4s3.345,1.183,3.001,7.629c-0.251,4.73-9.479,5.353-8.814,9.547
		c0.665,4.195,1.963,8.374-4.842,9.663c-5.351,1.014-16.147-6.363-4.103-12.19c8.154-3.945,2.774-10.23,2.774-10.23
		c-0.242,5.753-8.286,4.671-14.526,7.925c-3.568,1.862-4.012,6.463-3.739,10.064c-2.06-1.846-3.199-4.272-2.221-7.43
		c0.587-1.895,1.561-3.891,0.849-5.913c-0.651-1.852-2.871-2.869-4.527-1.507c5.531,0.619-1.426,8.396-2.275,10.06
		c-2.875,5.629-0.698,9.954,1.416,13.45c0,0-0.346,1.156-4.424-1.677c-4.08-2.833-3.854-5.218-3.854-5.218
		s-2.133,15.179,3.506,18.931c0,0-3.278,0.113-5.824-5.005c-2.447-4.917-2.262-8.594-2.262-8.594s-3.864,7.553-4.217,17.601
		c-0.084,2.394,0.152,4.34,0.481,5.848l-3.121-8.592c0,0-5.831,17.568,4.881,29.621c-0.223-1.289-0.342-2.605-0.342-3.945
		c0-14.859,14.166-26.948,31.578-26.948c10.238,0,19.351,4.183,25.124,10.648C255.742,55.718,261.549,44.229,255.649,33.181z"/>
</g>
<path fill="#FCDCA4" d="M243.747,71.438c0,10.667-10.318,19.314-23.048,19.314s-23.048-8.647-23.048-19.314
	s10.318-19.314,23.048-19.314S243.747,60.771,243.747,71.438"/>
<path fill="#F0A732" d="M210.617,71.438c0,5.568,4.514,10.082,10.082,10.082c5.567,0,10.082-4.514,10.082-10.082
	s-4.515-10.082-10.082-10.082C215.131,61.355,210.617,65.869,210.617,71.438"/>
<path fill="#0B3746" d="M224.586,71.438c0,2.303-1.866,4.169-4.169,4.169c-2.302,0-4.169-1.866-4.169-4.169s1.867-4.169,4.169-4.169
	C222.72,67.269,224.586,69.135,224.586,71.438"/>
<path fill="#FCDCA4" d="M225.358,71.102c0,1.137-0.922,2.059-2.059,2.059s-2.059-0.922-2.059-2.059s0.922-2.059,2.059-2.059
	S225.358,69.965,225.358,71.102"/>
<path fill="#0B3746" d="M194.278,62.296c0,0,0.071-0.264,0.206-0.767c0.124-0.512,0.391-1.24,0.815-2.156
	c0.433-0.912,1.065-1.991,1.961-3.138c0.901-1.136,2.053-2.349,3.479-3.517c2.857-2.315,6.796-4.456,11.526-5.741
	c4.713-1.281,10.252-1.736,15.907-0.592c2.818,0.584,5.507,1.548,7.923,2.833c0.604,0.319,1.198,0.646,1.76,1.02
	c0.572,0.353,1.126,0.72,1.646,1.126c0.534,0.385,1.048,0.784,1.525,1.218l0.722,0.629l0.594,0.537
	c1.57,1.362,3.272,2.507,4.94,3.22c1.671,0.72,3.312,1.013,4.787,0.833c1.496-0.145,2.717-0.919,3.772-1.647
	c0.468-0.445,0.937-0.846,1.341-1.253c0.362-0.451,0.694-0.864,0.994-1.235c0.324-0.362,0.524-0.743,0.727-1.058
	c0.2-0.32,0.369-0.59,0.506-0.808c0.279-0.441,0.425-0.672,0.425-0.672s-0.078,0.261-0.226,0.758
	c-0.077,0.25-0.172,0.56-0.285,0.926c-0.119,0.365-0.225,0.804-0.461,1.248c-0.219,0.459-0.462,0.97-0.728,1.529
	c-0.326,0.53-0.734,1.085-1.162,1.701c-1,1.087-2.342,2.384-4.324,2.976c-1.942,0.623-4.254,0.582-6.475-0.019
	c-2.236-0.601-4.393-1.687-6.479-3.147l-0.762-0.562l-0.66-0.471c-0.432-0.328-0.893-0.624-1.367-0.91
	c-0.46-0.306-0.948-0.578-1.449-0.84c-0.486-0.283-1.004-0.524-1.525-0.763c-2.086-0.965-4.367-1.709-6.775-2.209
	c-4.83-0.978-9.669-0.901-13.971-0.197c-4.312,0.706-8.089,2.062-11.024,3.663c-2.933,1.615-4.987,3.49-6.192,4.984
	c-0.601,0.747-1.038,1.372-1.285,1.821C194.418,62.062,194.278,62.296,194.278,62.296"/>
<path fill="#0B3746" d="M268.824,73.953c-0.336,0.574-0.729,1.467-1.408,2.527c-1.246,2.173-3.284,5.186-6.173,8.551
	c-2.882,3.371-6.74,7.01-11.505,10.323c-2.401,1.622-4.999,3.21-7.837,4.545c-2.838,1.326-5.878,2.461-9.077,3.259
	c-3.258,0.847-6.517,1.207-9.656,1.167c0.573,0.425,1.167,0.825,1.788,1.188c1.292,0.758,2.664,1.344,4.085,1.779
	c1.529-0.189,3.064-0.461,4.59-0.858c3.466-0.862,6.715-2.138,9.697-3.638c2.983-1.51,5.661-3.305,8.091-5.144
	c4.821-3.749,8.52-7.845,11.15-11.579c2.64-3.732,4.341-7.016,5.317-9.354c0.542-1.144,0.818-2.095,1.069-2.708
	c0.23-0.623,0.351-0.95,0.351-0.95S269.141,73.369,268.824,73.953z"/>
<g>
	<path fill="#0B3746" d="M213.377,93.633c0.761,0.936,1.513,1.891,2.27,2.844c0.715,0.076,1.435,0.14,2.162,0.172
		c2.455,0.082,4.848-0.08,7.128-0.414c2.275-0.368,4.432-0.918,6.435-1.588c3.982-1.41,7.352-3.291,9.777-5.373
		c2.455-2.053,3.964-4.203,4.738-5.775c0.187-0.398,0.366-0.743,0.49-1.055c0.105-0.32,0.194-0.592,0.268-0.811
		c0.139-0.433,0.212-0.66,0.212-0.66s-0.119,0.207-0.346,0.604c-0.111,0.195-0.248,0.439-0.411,0.725
		c-0.178,0.277-0.416,0.576-0.662,0.922c-1.015,1.356-2.755,3.104-5.285,4.688c-5.022,3.176-13.202,5.721-22.207,5.366
		c-1.855-0.086-3.654-0.305-5.388-0.621C212.832,92.98,213.109,93.305,213.377,93.633z"/>
	<path fill="#0B3746" d="M193.267,78.979c0.259,0.069,0.513,0.154,0.769,0.23c-0.128-0.247-0.249-0.485-0.362-0.705
		c-0.659-1.591-1.023-2.471-1.023-2.471s0.165,0.934,0.527,2.648C193.205,78.775,193.237,78.881,193.267,78.979z"/>
</g>
<path fill="#0B3746" d="M259.588,98.838c0,0-0.937,0.806-2.711,2.17c-1.786,1.346-4.411,3.281-8.033,5.137
	c-3.601,1.82-8.363,3.561-13.958,3.533c-2.777-0.029-5.75-0.501-8.621-1.708c-2.898-1.189-5.493-3.224-7.676-5.513
	c-2.199-2.299-3.985-4.73-5.721-6.971c-1.724-2.24-3.452-4.311-5.224-6.167c-3.524-3.721-7.24-6.516-10.724-8.216
	c-3.479-1.723-6.617-2.443-8.805-2.673c-1.098-0.124-1.961-0.147-2.547-0.15c-0.588,0.009-0.896,0.013-0.896,0.013
	s0.305-0.055,0.885-0.156c0.582-0.09,1.449-0.199,2.578-0.233c2.25-0.083,5.592,0.226,9.45,1.649
	c3.861,1.396,8.111,4.041,12.059,7.74c1.98,1.84,3.901,3.933,5.745,6.177c1.843,2.229,3.626,4.556,5.633,6.649
	c2.003,2.094,4.154,3.821,6.542,4.895c2.388,1.096,4.944,1.643,7.42,1.818c4.989,0.33,9.533-0.85,13.176-2.23
	c3.651-1.404,6.48-2.96,8.426-4.034C258.519,99.453,259.588,98.838,259.588,98.838"/>
<path fill="#0B3746" d="M284.371,41.79c0,0-0.208,0.571-0.645,1.582c-0.435,1.012-1.118,2.455-2.103,4.172
	c-1.95,3.426-5.241,7.939-9.936,11.842c-2.335,1.949-4.845,3.575-7.347,4.636c-2.494,1.078-4.959,1.557-6.997,1.596
	c-2.049,0.049-3.671-0.295-4.729-0.64c-1.063-0.346-1.598-0.638-1.598-0.638s0.608,0.092,1.686,0.117
	c1.073,0.027,2.62-0.068,4.425-0.514c1.81-0.439,3.851-1.242,5.944-2.472c2.101-1.216,4.249-2.838,6.456-4.681
	c4.423-3.676,8.146-7.381,10.729-10.24c1.293-1.425,2.32-2.618,3.02-3.456C283.981,42.255,284.371,41.79,284.371,41.79"/>
<path fill="#0B3746" d="M297.939,65.727c0,0-0.649-0.08-1.821-0.227c-0.29-0.04-0.611-0.084-0.963-0.133
	c-0.352-0.037-0.741-0.051-1.153-0.082c-0.825-0.043-1.75-0.161-2.784-0.133c-0.514-0.004-1.051-0.01-1.609-0.016
	c-0.559-0.003-1.14,0.059-1.738,0.081c-1.195,0.021-2.465,0.206-3.792,0.34c-2.647,0.382-5.511,0.97-8.449,1.849
	c-2.924,0.92-5.623,2.041-8.028,3.211c-1.174,0.636-2.328,1.193-3.329,1.849c-0.508,0.317-1.024,0.592-1.484,0.908
	c-0.46,0.319-0.9,0.624-1.323,0.916c-0.873,0.557-1.57,1.173-2.229,1.674c-0.323,0.257-0.638,0.485-0.909,0.714
	c-0.264,0.238-0.505,0.455-0.722,0.65c-0.888,0.779-1.38,1.209-1.38,1.209s0.35-0.555,0.981-1.557
	c0.164-0.25,0.345-0.529,0.544-0.832c0.21-0.298,0.462-0.599,0.724-0.934c0.536-0.657,1.113-1.45,1.885-2.198
	c0.377-0.386,0.772-0.79,1.185-1.211c0.418-0.416,0.9-0.793,1.38-1.212c0.947-0.859,2.074-1.621,3.257-2.443
	c2.42-1.543,5.279-2.972,8.461-3.971c3.192-0.958,6.36-1.382,9.229-1.462c1.44,0.017,2.801,0.015,4.067,0.194
	c0.632,0.076,1.243,0.119,1.822,0.229c0.577,0.117,1.132,0.229,1.66,0.338c1.058,0.186,1.981,0.518,2.793,0.76
	c0.404,0.131,0.782,0.24,1.122,0.367c0.336,0.141,0.643,0.269,0.918,0.385C297.338,65.464,297.939,65.727,297.939,65.727"/>
<path fill="#0B3746" d="M264.284,47.976c0,0,0.543-0.697,1.525-1.958c0.94-1.274,2.231-3.156,3.481-5.598
	c1.238-2.441,2.449-5.449,3.101-8.875c0.694-3.408,0.805-7.225,0.051-11.025c-0.725-3.818-2.408-7.166-4.463-9.885
	c-2.118-2.673-4.582-4.746-6.895-6.199c-2.301-1.487-4.406-2.365-5.851-3.029c-1.487-0.584-2.31-0.907-2.31-0.907
	s0.881,0.029,2.503,0.14c1.595,0.215,3.964,0.497,6.766,1.52c2.797,0.988,6.036,2.759,8.978,5.637
	c2.873,2.902,5.341,7.004,6.234,11.723c0.936,4.701,0.409,9.326-0.888,13.131c-1.257,3.842-3.234,6.898-5.118,9.171
	c-1.903,2.277-3.734,3.795-5.033,4.758c-0.646,0.487-1.19,0.81-1.54,1.047C264.472,47.856,264.284,47.976,264.284,47.976"/>
<path fill="#D72050" d="M118.177,79.08c0.965-2.4,1.496-4.969,1.496-7.643c0-13.226-12.795-23.948-28.578-23.948
	c-15.783,0-28.578,10.722-28.578,23.948c0,13.227,12.795,23.947,28.578,23.947c2.203,0,4.345-0.216,6.405-0.611
	c-0.465,0.584-0.938,1.167-1.406,1.753c0.004-0.001,0.008-0.001,0.011-0.001c0.771-0.969,1.534-1.941,2.309-2.893
	c3.585-4.402,7.714-8.503,12.584-11.422c2.774-1.663,5.768-2.901,8.935-3.553l0,0C119.341,78.778,118.756,78.918,118.177,79.08z"/>
<g>
	<path fill="#0B3746" d="M65.971,55.138c5.773-6.465,14.885-10.648,25.124-10.648c17.412,0,31.578,12.088,31.578,26.948
		c0,1.347-0.13,2.666-0.355,3.96c10.73-12.053,4.895-29.636,4.895-29.636l-3.122,8.594c0.33-1.508,0.566-3.455,0.482-5.85
		c-0.352-10.048-4.217-17.601-4.217-17.601s0.186,3.677-2.261,8.594c-2.546,5.118-5.825,5.005-5.825,5.005
		c5.64-3.752,3.506-18.931,3.506-18.931s0.226,2.385-3.854,5.218c-4.078,2.833-4.423,1.677-4.423,1.677
		c2.113-3.496,4.29-7.821,1.415-13.45c-0.85-1.664-7.807-9.441-2.275-10.06c-1.657-1.362-3.876-0.345-4.528,1.507
		c-0.711,2.022,0.262,4.018,0.85,5.913c0.977,3.158-0.162,5.584-2.222,7.43c0.273-3.601-0.171-8.202-3.739-10.064
		c-6.239-3.254-14.284-2.172-14.526-7.925c0,0-5.38,6.285,2.774,10.23c12.045,5.827,1.248,13.204-4.103,12.19
		c-6.804-1.289-5.506-5.468-4.841-9.663c0.665-4.194-8.564-4.817-8.815-9.547C67.145,2.583,70.489,1.4,70.489,1.4
		s-5.695,1.061-6.628,6.944c-0.665,4.194,4.634,5.637,3.969,9.831c-0.665,4.195-5.816,4.016-11.685,15.006
		C50.245,44.229,56.051,55.718,65.971,55.138z"/>
	<path fill="#0B3746" d="M77.485,50.375c-1.55,0.705-3.01,1.529-4.371,2.453C74.758,51.882,76.2,51.069,77.485,50.375z"/>
</g>
<path fill="#FCDCA4" d="M68.046,71.438c0,10.667,10.319,19.314,23.048,19.314s23.048-8.647,23.048-19.314
	s-10.319-19.314-23.048-19.314S68.046,60.771,68.046,71.438"/>
<path fill="#F0A732" d="M101.177,71.438c0,5.568-4.514,10.082-10.082,10.082c-5.568,0-10.082-4.514-10.082-10.082
	s4.514-10.082,10.082-10.082C96.663,61.355,101.177,65.869,101.177,71.438"/>
<path fill="#0B3746" d="M87.208,71.438c0,2.303,1.867,4.169,4.169,4.169c2.303,0,4.169-1.866,4.169-4.169s-1.866-4.169-4.169-4.169
	C89.075,67.269,87.208,69.135,87.208,71.438"/>
<path fill="#FCDCA4" d="M86.435,71.102c0,1.137,0.922,2.059,2.059,2.059c1.137,0,2.059-0.922,2.059-2.059s-0.922-2.059-2.059-2.059
	C87.357,69.043,86.435,69.965,86.435,71.102"/>
<g>
	<path fill="#0B3746" d="M118.529,78.976c0.029-0.098,0.061-0.202,0.089-0.294c0.362-1.715,0.528-2.648,0.528-2.648
		s-0.366,0.88-1.025,2.471c-0.112,0.219-0.234,0.455-0.361,0.701C118.016,79.129,118.27,79.045,118.529,78.976z"/>
	<path fill="#0B3746" d="M65.417,82.443c0.124,0.312,0.304,0.656,0.491,1.055c0.773,1.572,2.283,3.723,4.738,5.775
		c2.426,2.082,5.795,3.963,9.778,5.373c2.002,0.67,4.158,1.22,6.434,1.588c2.28,0.334,4.673,0.496,7.128,0.414
		c0.727-0.032,1.445-0.095,2.158-0.172c0.757-0.953,1.509-1.908,2.27-2.844c0.268-0.328,0.544-0.651,0.818-0.977
		c-1.732,0.316-3.53,0.535-5.383,0.621c-9.005,0.354-17.185-2.19-22.207-5.366c-2.53-1.585-4.271-3.332-5.285-4.688
		c-0.246-0.346-0.485-0.645-0.662-0.922c-0.163-0.285-0.3-0.529-0.411-0.725c-0.227-0.396-0.346-0.604-0.346-0.604
		s0.073,0.228,0.212,0.66C65.223,81.852,65.312,82.123,65.417,82.443z"/>
</g>
<path fill="#0B3746" d="M117.516,62.296c0,0-0.14-0.233-0.405-0.68c-0.248-0.449-0.686-1.074-1.286-1.821
	c-1.206-1.494-3.26-3.369-6.193-4.984c-2.935-1.601-6.713-2.957-11.024-3.663c-4.302-0.704-9.141-0.781-13.971,0.197
	c-2.408,0.5-4.689,1.244-6.775,2.209c-0.522,0.239-1.039,0.48-1.526,0.763c-0.501,0.262-0.989,0.534-1.449,0.84
	c-0.475,0.286-0.936,0.582-1.367,0.91l-0.66,0.471L72.098,57.1c-2.086,1.461-4.242,2.547-6.478,3.147
	c-2.221,0.601-4.533,0.642-6.475,0.019c-1.983-0.592-3.323-1.889-4.324-2.976c-0.429-0.616-0.836-1.171-1.162-1.701
	c-0.266-0.559-0.509-1.07-0.728-1.529c-0.236-0.444-0.342-0.883-0.461-1.248c-0.113-0.366-0.208-0.676-0.285-0.926
	c-0.148-0.497-0.226-0.758-0.226-0.758s0.147,0.231,0.425,0.672c0.137,0.218,0.306,0.488,0.506,0.808
	c0.202,0.315,0.402,0.696,0.727,1.058c0.299,0.371,0.631,0.784,0.994,1.235c0.404,0.407,0.873,0.808,1.339,1.253
	c1.057,0.728,2.278,1.502,3.774,1.647c1.475,0.18,3.116-0.113,4.787-0.833c1.668-0.713,3.37-1.858,4.94-3.22l0.594-0.537
	l0.722-0.629c0.477-0.434,0.991-0.833,1.525-1.218c0.521-0.406,1.075-0.773,1.647-1.126c0.561-0.374,1.155-0.701,1.76-1.02
	c2.416-1.285,5.104-2.249,7.922-2.833c5.656-1.144,11.195-0.689,15.908,0.592c4.73,1.285,8.669,3.426,11.526,5.741
	c1.426,1.168,2.577,2.381,3.479,3.517c0.895,1.147,1.528,2.226,1.96,3.138c0.425,0.916,0.692,1.645,0.816,2.156
	C117.444,62.032,117.516,62.296,117.516,62.296"/>
<path fill="#0B3746" d="M60.375,97.653c2.43,1.839,5.108,3.634,8.091,5.144c2.983,1.5,6.232,2.775,9.697,3.638
	c1.525,0.397,3.059,0.669,4.588,0.858c1.421-0.436,2.793-1.021,4.085-1.779c0.621-0.363,1.214-0.764,1.788-1.188
	c-3.14,0.039-6.397-0.321-9.655-1.168c-3.199-0.798-6.239-1.933-9.077-3.259c-2.838-1.335-5.436-2.923-7.838-4.545
	c-4.764-3.313-8.622-6.952-11.504-10.323c-2.889-3.365-4.927-6.378-6.173-8.551c-0.678-1.061-1.072-1.953-1.408-2.527
	c-0.316-0.584-0.482-0.892-0.482-0.892s0.12,0.327,0.349,0.95c0.252,0.613,0.529,1.564,1.071,2.708
	c0.976,2.339,2.677,5.622,5.317,9.354C51.855,89.809,55.554,93.904,60.375,97.653z"/>
<path fill="#0B3746" d="M52.206,98.838c0,0,1.069,0.615,3.001,1.729c1.945,1.074,4.774,2.63,8.426,4.034
	c3.642,1.381,8.186,2.561,13.175,2.23c2.476-0.176,5.033-0.723,7.42-1.818c2.388-1.073,4.539-2.801,6.542-4.895
	c2.007-2.094,3.79-4.42,5.634-6.649c1.844-2.244,3.764-4.337,5.745-6.177c3.947-3.699,8.197-6.344,12.058-7.74
	c3.858-1.424,7.2-1.732,9.45-1.649c1.129,0.034,1.996,0.144,2.578,0.233c0.58,0.102,0.885,0.156,0.885,0.156
	s-0.308-0.004-0.896-0.013c-0.585,0.003-1.449,0.026-2.545,0.15c-2.189,0.229-5.327,0.95-8.805,2.673
	c-3.485,1.7-7.2,4.495-10.725,8.216c-1.771,1.856-3.5,3.927-5.222,6.167c-1.737,2.24-3.522,4.672-5.722,6.971
	c-2.183,2.289-4.777,4.323-7.676,5.513c-2.871,1.207-5.844,1.679-8.62,1.708c-5.596,0.027-10.358-1.713-13.958-3.533
	c-3.623-1.855-6.248-3.791-8.034-5.137C53.142,99.644,52.206,98.838,52.206,98.838"/>
<path fill="#0B3746" d="M27.423,41.79c0,0,0.389,0.465,1.093,1.305c0.699,0.838,1.726,2.031,3.019,3.456
	c2.583,2.859,6.307,6.564,10.729,10.24c2.208,1.843,4.357,3.465,6.457,4.681c2.093,1.229,4.134,2.032,5.944,2.472
	c1.805,0.445,3.352,0.541,4.425,0.514c1.077-0.025,1.685-0.117,1.685-0.117s-0.534,0.292-1.597,0.638
	c-1.058,0.345-2.68,0.688-4.729,0.64c-2.038-0.039-4.503-0.518-6.997-1.596c-2.502-1.061-5.012-2.687-7.347-4.636
	c-4.694-3.903-7.985-8.416-9.935-11.842c-0.984-1.717-1.668-3.16-2.103-4.172C27.631,42.361,27.423,41.79,27.423,41.79"/>
<path fill="#0B3746" d="M13.854,65.727c0,0,0.601-0.263,1.687-0.736c0.276-0.116,0.582-0.244,0.918-0.385
	c0.34-0.127,0.718-0.236,1.122-0.367c0.812-0.242,1.736-0.574,2.793-0.76c0.529-0.109,1.083-0.221,1.66-0.338
	c0.58-0.109,1.191-0.152,1.823-0.229c1.266-0.18,2.627-0.178,4.066-0.194c2.87,0.08,6.038,0.504,9.231,1.462
	c3.181,0.999,6.041,2.428,8.46,3.971c1.183,0.822,2.31,1.584,3.257,2.443c0.48,0.419,0.961,0.796,1.38,1.212
	c0.412,0.421,0.808,0.825,1.185,1.211c0.771,0.748,1.349,1.541,1.885,2.198c0.261,0.335,0.513,0.636,0.723,0.934
	c0.198,0.303,0.38,0.582,0.544,0.832c0.632,1.002,0.982,1.557,0.982,1.557s-0.492-0.43-1.38-1.209
	c-0.217-0.195-0.458-0.412-0.722-0.65c-0.271-0.229-0.586-0.457-0.909-0.714c-0.659-0.501-1.357-1.117-2.23-1.674
	c-0.422-0.292-0.863-0.597-1.323-0.916c-0.46-0.316-0.976-0.591-1.484-0.908c-1.002-0.655-2.156-1.213-3.329-1.849
	c-2.406-1.17-5.105-2.291-8.03-3.211c-2.937-0.879-5.8-1.467-8.448-1.849c-1.327-0.134-2.596-0.319-3.792-0.34
	c-0.598-0.022-1.18-0.084-1.738-0.081c-0.559,0.006-1.096,0.012-1.609,0.016c-1.035-0.028-1.959,0.09-2.785,0.133
	c-0.412,0.031-0.801,0.045-1.154,0.082c-0.351,0.049-0.673,0.093-0.962,0.133C14.503,65.646,13.854,65.727,13.854,65.727"/>
<path fill="#0B3746" d="M47.51,47.976c0,0-0.186-0.116-0.54-0.338c-0.348-0.231-0.889-0.544-1.534-1.018
	c-1.294-0.938-3.122-2.416-5.027-4.648c-1.887-2.229-3.873-5.235-5.137-9.036c-1.299-3.762-1.829-8.356-0.856-13.01
	c0.49-2.317,1.304-4.523,2.422-6.463c1.108-1.946,2.465-3.636,3.908-5.059c2.948-2.807,6.177-4.499,8.952-5.44
	c2.775-0.987,5.121-1.237,6.697-1.44c1.604-0.1,2.475-0.125,2.475-0.125s-0.814,0.318-2.286,0.893
	c-1.429,0.652-3.519,1.501-5.803,2.96c-2.299,1.412-4.767,3.424-6.888,6.04c-2.082,2.644-3.774,5.927-4.523,9.675
	c-0.778,3.731-0.669,7.491,0.024,10.848c0.652,3.374,1.868,6.335,3.109,8.736c1.253,2.401,2.545,4.25,3.485,5.502
	C46.968,47.291,47.51,47.976,47.51,47.976"/>
<ellipse fill="#D72050" cx="155.712" cy="32.119" rx="16.095" ry="19.207"/>
<path fill="#FCDCA4" d="M155.712,47.609c-7.169,0-12.98-6.935-12.98-15.49c0-8.555,5.811-15.49,12.98-15.49s12.98,6.935,12.98,15.49
	C168.692,40.674,162.881,47.609,155.712,47.609"/>
<path fill="#F0A732" d="M155.712,25.343c-3.742,0-6.776,3.034-6.776,6.776c0,3.742,3.034,6.776,6.776,6.776
	c3.742,0,6.776-3.034,6.776-6.776C162.488,28.377,159.454,25.343,155.712,25.343"/>
<path fill="#0B3746" d="M155.712,34.731c-1.547,0-2.802-1.254-2.802-2.802c0-1.547,1.255-2.802,2.802-2.802
	c1.549,0,2.803,1.255,2.803,2.802C158.515,33.477,157.261,34.731,155.712,34.731"/>
<path fill="#FCDCA4" d="M155.938,35.25c-0.765,0-1.385-0.62-1.385-1.384c0-0.764,0.62-1.384,1.385-1.384
	c0.764,0,1.383,0.62,1.383,1.384C157.321,34.63,156.702,35.25,155.938,35.25"/>
<path fill="#0B3746" d="M148.358,58.516c0,0,0.058-0.004,0.172-0.013c0.111-0.017,0.279,0.005,0.486-0.054
	c0.418-0.09,0.999-0.372,1.528-0.95c0.526-0.574,0.989-1.454,1.138-2.515c0.161-1.059-0.11-2.278-0.845-3.299
	c-0.411-0.512-0.857-0.924-1.5-1.385c-0.645-0.466-1.332-0.938-2.053-1.427c-0.726-0.5-1.477-1.017-2.251-1.549
	c-0.772-0.552-1.571-1.121-2.392-1.871c-3.215-2.917-5.372-7.589-5.345-12.601c0.012-5.007,2.005-9.5,4.53-12.779
	c1.249-1.635,2.505-2.997,3.531-4.335c1.039-1.331,1.818-2.624,2.337-3.941c1.049-2.637,1.272-5.067,1.413-6.708
	c0.122-1.658,0.13-2.589,0.13-2.589s0.203,0.904,0.397,2.579c0.167,1.666,0.401,4.157-0.333,7.232
	c-0.36,1.533-1.083,3.177-2.038,4.726c-0.942,1.564-2.087,3.083-3.105,4.67c-2.015,3.109-3.477,7.01-3.487,11.149
	c-0.023,4.105,1.549,7.984,3.97,10.571c0.584,0.632,1.298,1.254,1.99,1.856c0.707,0.605,1.393,1.191,2.056,1.758
	c0.67,0.575,1.318,1.145,1.926,1.716c0.297,0.262,0.619,0.632,0.913,0.954c0.293,0.333,0.516,0.726,0.744,1.082
	c0.808,1.538,0.863,3.195,0.453,4.428c-0.398,1.248-1.117,2.14-1.827,2.671c-0.719,0.533-1.412,0.698-1.863,0.7
	c-0.225,0.015-0.396-0.045-0.507-0.052C148.416,58.523,148.358,58.516,148.358,58.516"/>
<path fill="#0B3746" d="M138.604,49.708c0,0,0.011,0.211,0.031,0.589c-0.008,0.37,0.069,0.904,0.164,1.524
	c0.245,1.25,0.943,2.749,2.298,3.915c1.357,1.167,2.961,1.887,4.18,2.315c0.61,0.211,1.127,0.371,1.489,0.455
	c0.365,0.1,0.569,0.154,0.569,0.154s-0.209,0.039-0.581,0.109c-0.378,0.073-0.931,0.123-1.625,0.112
	c-1.362-0.028-3.402-0.393-5.144-1.877c-0.856-0.74-1.455-1.706-1.764-2.634c-0.341-0.931-0.316-1.825-0.266-2.524
	c0.115-0.703,0.255-1.241,0.42-1.594C138.521,49.903,138.604,49.708,138.604,49.708"/>
<path fill="#0B3746" d="M163.773,58.516c0,0-0.057,0.008-0.168,0.025c-0.11,0.007-0.282,0.066-0.507,0.052
	c-0.451-0.002-1.145-0.167-1.863-0.7c-0.71-0.531-1.429-1.423-1.826-2.671c-0.41-1.233-0.356-2.89,0.453-4.428
	c0.228-0.356,0.451-0.749,0.743-1.082c0.294-0.322,0.616-0.692,0.913-0.954c0.608-0.571,1.256-1.141,1.926-1.716
	c0.663-0.567,1.35-1.153,2.056-1.758c0.692-0.602,1.407-1.224,1.991-1.856c2.42-2.587,3.992-6.466,3.97-10.571
	c-0.01-4.139-1.472-8.04-3.487-11.149c-1.018-1.587-2.163-3.106-3.104-4.67c-0.956-1.549-1.679-3.193-2.038-4.726
	c-0.734-3.075-0.5-5.566-0.333-7.232c0.193-1.675,0.396-2.579,0.396-2.579s0.007,0.931,0.13,2.589
	c0.142,1.641,0.364,4.071,1.413,6.708c0.52,1.317,1.298,2.61,2.337,3.941c1.026,1.338,2.282,2.7,3.531,4.335
	c2.525,3.279,4.519,7.772,4.53,12.779c0.027,5.012-2.13,9.684-5.345,12.601c-0.821,0.75-1.62,1.319-2.393,1.871
	c-0.773,0.532-1.524,1.049-2.251,1.549c-0.722,0.489-1.408,0.961-2.053,1.427c-0.645,0.461-1.089,0.873-1.5,1.385
	c-0.735,1.021-1.007,2.24-0.845,3.299c0.148,1.061,0.611,1.941,1.138,2.515c0.529,0.578,1.11,0.86,1.528,0.95
	c0.206,0.059,0.374,0.037,0.485,0.054C163.716,58.512,163.773,58.516,163.773,58.516"/>
<path fill="#0B3746" d="M173.528,49.708c0,0,0.082,0.195,0.229,0.545c0.165,0.353,0.305,0.891,0.42,1.594
	c0.05,0.699,0.075,1.593-0.267,2.524c-0.309,0.928-0.906,1.894-1.763,2.634c-1.743,1.484-3.783,1.849-5.145,1.877
	c-0.694,0.011-1.247-0.039-1.625-0.112c-0.372-0.07-0.58-0.109-0.58-0.109s0.203-0.055,0.567-0.154
	c0.363-0.084,0.879-0.244,1.49-0.455c1.218-0.428,2.822-1.148,4.18-2.315c1.354-1.166,2.053-2.665,2.298-3.915
	c0.095-0.62,0.172-1.154,0.164-1.524C173.518,49.919,173.528,49.708,173.528,49.708"/>
<path fill="#0B3746" d="M140.984,13.15c0,0-1.085,1.714-2.834,4.477c-1.672,2.765-4.015,6.683-4.774,11.407
	c-0.709,4.733,0.398,9.157,1.379,12.218c0.498,1.542,0.969,2.78,1.309,3.63c0.342,0.85,0.532,1.322,0.532,1.322
	s-0.285-0.421-0.768-1.205c-0.483-0.783-1.151-1.939-1.858-3.438c-0.706-1.498-1.442-3.351-1.935-5.524
	c-0.5-2.163-0.714-4.67-0.327-7.26c0.412-2.587,1.366-4.905,2.449-6.831c1.084-1.936,2.268-3.523,3.304-4.805
	c1.038-1.283,1.928-2.27,2.549-2.948C140.637,13.522,140.984,13.15,140.984,13.15"/>
<path fill="#0B3746" d="M171.116,13.15c0,0,0.348,0.372,0.975,1.043c0.621,0.678,1.511,1.665,2.549,2.948
	c1.036,1.282,2.22,2.869,3.304,4.805c1.083,1.926,2.037,4.244,2.449,6.831c0.387,2.59,0.173,5.097-0.327,7.26
	c-0.493,2.173-1.229,4.026-1.935,5.524c-0.707,1.499-1.375,2.655-1.858,3.438c-0.482,0.784-0.768,1.205-0.768,1.205
	s0.189-0.472,0.531-1.322c0.341-0.85,0.812-2.088,1.31-3.63c0.979-3.061,2.088-7.485,1.379-12.218
	c-0.759-4.724-3.103-8.642-4.774-11.407C172.201,14.864,171.116,13.15,171.116,13.15"/>
</svg>
