<?xml version="1.0" encoding="utf-8"?>
<!-- Generator: Adobe Illustrator 15.0.0, SVG Export Plug-In . SVG Version: 6.00 Build 0)  -->
<!DOCTYPE svg PUBLIC "-//W3C//DTD SVG 1.1//EN" "http://www.w3.org/Graphics/SVG/1.1/DTD/svg11.dtd">
<svg version="1.1" id="Layer_1" xmlns="http://www.w3.org/2000/svg" xmlns:xlink="http://www.w3.org/1999/xlink" x="0px" y="0px"
	 width="305.834px" height="112px" viewBox="0 0 305.834 112" enable-background="new 0 0 305.834 112" xml:space="preserve">
<g>
	<g>
		<defs>
			<rect id="nav-eye-9-id-1" x="-0.088" width="306.01" height="112"/>
		</defs>
		<clipPath id="nav-eye-9-id-2">
			<use xlink:href="#nav-eye-9-id-1"  overflow="visible"/>
		</clipPath>
		<path clip-path="url(#nav-eye-9-id-2)" fill="#FCDCA4" d="M305.912,23.635c0-8.039-0.627-15.932-1.824-23.635H1.735
			C0.538,7.703-0.088,15.596-0.088,23.635V112h306v-6l-69.793-8.373c0,0,22.742-10.625,23.031-31.441
			c0.279-19.936-9.93-26.801-9.93-26.801l56.691-5.429V23.635z M171.287,89.375L155.412,48.25l36.625-4
			c-0.625,1.25-8.125,4.75-8.25,22.375S197.287,93,197.287,93L171.287,89.375z"/>
		<path clip-path="url(#nav-eye-9-id-2)" fill="#F0A733" d="M221.365,63.924l7.654-21.854l-21.107,1.014c0,0-10.545,6.879-10.26,20.471
			c0.287,13.592,12.92,24.241,24.598,24.208c16.787-0.048,24.162-11.138,24.596-24.208c0.439-13.276-1.35-13.322-1.35-13.322
			l-23.809,14.646L221.365,63.924z"/>
		<path clip-path="url(#nav-eye-9-id-2)" fill="#0C3846" d="M305.488,38.832c-0.215-0.034-0.48-0.079-0.785-0.084
			s-0.652,0.005-1.023,0.077c-0.738,0.126-1.594,0.433-2.348,1.026c-0.377,0.297-0.727,0.656-1.01,1.077
			c-0.283,0.433-0.506,0.862-0.641,1.405c-0.086,0.291-0.092,0.477-0.115,0.684l-0.062,0.556c-0.074,0.324-0.16,0.664-0.316,0.978
			c-0.293,0.64-0.723,1.198-1.123,1.649c-0.396,0.46-0.775,0.812-1.047,1.051c-0.271,0.244-0.438,0.372-0.438,0.372
			s0.807-0.251,1.891-0.953c0.537-0.358,1.133-0.844,1.67-1.519c0.277-0.331,0.51-0.734,0.695-1.18
			c0.045-0.111,0.074-0.231,0.113-0.35l0.053-0.179c0.004-0.009,0.025-0.109,0.016-0.041l0.025-0.074
			c0.059-0.196,0.123-0.42,0.193-0.513c0.113-0.249,0.322-0.541,0.529-0.755c0.215-0.226,0.473-0.398,0.723-0.558
			c0.262-0.145,0.525-0.265,0.791-0.351c0.262-0.087,0.52-0.151,0.762-0.187c0.238-0.038,0.463-0.064,0.66-0.063
			c0.199-0.016,0.371-0.008,0.516-0.001c0.281,0.027,0.695,0.038,0.695,0.038l0.01-1.938C305.922,39,305.922,38.909,305.488,38.832
			 M279.889,51.561c1.145-0.389,1.875-1.161,2.393-1.834c0.518-0.697,0.879-1.367,1.162-1.99c0.574-1.236,0.889-2.265,1.264-2.856
			c0.184-0.292,0.379-0.466,0.564-0.535c0.182-0.076,0.311-0.053,0.309-0.063c-0.004,0.013-0.088-0.081-0.318-0.137
			c-0.229-0.06-0.633-0.003-1.014,0.239c-0.771,0.472-1.523,1.407-2.312,2.438c-0.406,0.508-0.811,1.06-1.277,1.522
			c-0.451,0.478-0.973,0.829-1.432,0.904c-0.443,0.068-1.1-0.039-1.557-0.308c-0.49-0.281-0.996-0.848-1.68-1.5
			c-0.668-0.661-1.564-1.347-2.564-1.748c-0.498-0.215-1-0.343-1.518-0.446c-0.266-0.033-0.531-0.084-0.795-0.116
			c-0.252-0.022-1.375,0.042-1.375,0.042c-0.248,0.023-0.492,0.051-0.73,0.09c-0.473,0.121-0.932,0.233-1.346,0.43
			c-0.836,0.365-1.52,0.882-2.037,1.42c-1.045,1.083-1.518,2.197-1.779,2.965c-0.248,0.783-0.275,1.251-0.275,1.251
			s0.309-0.354,0.855-0.899c0.547-0.537,1.342-1.289,2.361-1.88c0.498-0.314,1.068-0.544,1.658-0.697
			c0.596-0.176,1.201-0.19,1.889-0.126c0.197,0.022,0.438,0.03,0.602,0.065c0.154,0.036,0.307,0.074,0.461,0.101
			c0.311,0.086,0.652,0.181,0.943,0.331c0.611,0.274,1.139,0.689,1.746,1.244c0.6,0.556,1.326,1.3,2.391,1.826
			C277.57,51.79,278.73,51.918,279.889,51.561 M290.328,60.109c0,0-0.559-1.123-2.006-2.306c-0.355-0.305-0.775-0.587-1.242-0.865
			c-0.465-0.275-0.988-0.527-1.557-0.733c-0.57-0.194-1.186-0.37-1.83-0.437c-0.322-0.037-0.645-0.068-1.006-0.045
			c-0.35,0.011-0.723,0.038-0.984,0.099l-0.432,0.078l-0.107,0.02l-0.053,0.011l-0.014,0.003l-0.068,0.013l-0.008,0.002l-0.029,0.01
			l-0.242,0.08c-0.316,0.119-0.641,0.184-0.939,0.352c-0.607,0.28-1.17,0.652-1.629,1.093c-0.242,0.211-0.449,0.441-0.623,0.689
			c-0.197,0.232-0.34,0.488-0.482,0.732c-0.275,0.49-0.434,0.994-0.562,1.445c-0.111,0.46-0.186,0.879-0.207,1.252
			c-0.02,0.375-0.016,0.698,0,0.962c0.027,0.527,0.109,0.818,0.109,0.818s0.061-0.295,0.199-0.785
			c0.072-0.244,0.172-0.536,0.305-0.855c0.135-0.321,0.289-0.674,0.492-1.032c0.213-0.353,0.467-0.714,0.771-1.041
			c0.297-0.333,0.643-0.641,1.043-0.877c0.381-0.259,0.83-0.432,1.291-0.568c0.217-0.093,0.48-0.098,0.717-0.153l0.18-0.036
			l0.023-0.009l0.006-0.012l0.014,0.004l0.109,0.011l0.436-0.041c0.316-0.048,0.529-0.01,0.762-0.016
			c0.221-0.015,0.475,0.012,0.727,0.023c0.498,0.023,1.002,0.071,1.484,0.178c0.488,0.078,0.961,0.201,1.408,0.338
			c0.455,0.12,0.877,0.283,1.275,0.426C289.234,59.54,290.328,60.109,290.328,60.109 M281.389,58h0.014l0.002,0.001
			C281.393,58.001,281.383,58,281.389,58 M304.355,59.758c-0.504,0.066-1.078,0.182-1.699,0.391
			c-0.311,0.138-0.705,0.264-0.938,0.437l-0.381,0.254l-0.215,0.145l-0.146,0.109c-0.424,0.278-1,0.421-1.541,0.495
			c-0.547,0.074-1.08,0.08-1.535,0.063c-0.912-0.035-1.521-0.151-1.521-0.151s0.57,0.236,1.479,0.461
			c0.455,0.11,0.994,0.217,1.596,0.26c0.6,0.035,1.271,0.031,1.959-0.228l0.254-0.115c0.021-0.007,0.133-0.068,0.08-0.031
			l0.105-0.044l0.426-0.171c0.293-0.131,0.5-0.097,0.727-0.161c0.242-0.026,0.504-0.036,0.732-0.052
			c0.24,0.01,0.465,0.018,0.674,0.026c0.422,0.038,0.766,0.091,1.004,0.137c0.242,0.049,0.498,0.079,0.498,0.079v-1.977
			c0,0-0.049-0.013-0.34-0.011C305.273,59.678,304.854,59.7,304.355,59.758 M283.271,65.124c0.125-0.248,0.125-0.179,0.182-0.275
			c0.268-0.276,0.607-0.39,1.051-0.35c0.436,0.029,0.881,0.216,1.236,0.433c0.35,0.223,0.643,0.452,0.834,0.627
			c0.203,0.181,0.311,0.276,0.311,0.276s0.01-0.143,0-0.425c-0.021-0.276-0.092-0.692-0.348-1.179
			c-0.25-0.485-0.715-1.059-1.529-1.407c-0.77-0.375-2.111-0.32-2.996,0.558c-0.211,0.198-0.494,0.572-0.555,0.697l-0.082,0.133
			l-0.021,0.034l-0.061,0.113l-0.047,0.106c-0.066,0.142-0.119,0.291-0.166,0.445c-0.178,0.617-0.16,1.266-0.051,1.829
			c0.232,1.138,0.711,2.075,1.176,2.979c0.469,0.894,0.951,1.775,1.221,2.581c0.117,0.327,0.176,0.796,0.225,1.271
			c0.045,0.468,0.059,0.941,0.031,1.404c-0.047,0.929-0.275,1.808-0.666,2.489c-0.393,0.684-0.977,1.157-1.727,1.406
			c-0.186,0.062-0.383,0.111-0.576,0.151l-0.273,0.047l-0.355,0.033c-0.361,0.026-0.756,0.028-1.1-0.037
			c-0.691-0.137-1.307-0.466-1.807-0.934c-0.516-0.454-0.898-1.02-1.223-1.542c-0.314-0.527-0.555-1.031-0.738-1.453
			c-0.367-0.849-0.533-1.376-0.533-1.376s-0.104,0.544-0.041,1.514c0.037,0.483,0.111,1.075,0.305,1.743
			c0.186,0.671,0.498,1.422,1.049,2.166c0.555,0.724,1.412,1.45,2.514,1.756c0.547,0.156,1.1,0.232,1.697,0.223l0.369-0.012
			l0.455-0.045c0.291-0.041,0.578-0.094,0.873-0.174c1.178-0.291,2.375-1.109,3.088-2.222c0.729-1.107,1.016-2.364,1.121-3.557
			c0.053-0.602,0.047-1.196,0.006-1.787c-0.039-0.582-0.125-1.171-0.346-1.841c-0.406-1.189-0.998-2.098-1.48-2.96
			c-0.484-0.848-0.955-1.636-1.125-2.297c-0.088-0.327-0.137-0.597-0.096-0.814c0.012-0.048-0.029-0.097-0.025-0.142l0.133-0.017
			L283.271,65.124z M282.912,65.255V65.25c0-0.002,0.004,0.004,0.006,0.007L282.912,65.255z M296.088,67.08
			c-0.496-0.369-0.922-0.589-1.215-0.727c-0.299-0.131-0.461-0.185-0.461-0.185s0.465,0.524,1.064,1.48
			c0.293,0.48,0.607,1.076,0.83,1.759c0.211,0.684,0.326,1.447,0.174,2.211c-0.057,0.365-0.189,0.819-0.363,1.078
			c-0.168,0.262-0.424,0.576-0.783,0.855c-0.711,0.58-1.754,1.138-2.842,1.875c-1.088,0.727-2.248,1.706-3.088,3.008
			c-0.846,1.297-1.301,2.824-1.453,4.289c-0.072,0.742-0.092,1.447-0.053,2.192c0.021,0.339,0.016,0.636,0.061,1.008
			c0.047,0.371,0.084,0.746,0.146,1.11c0.248,1.42,0.793,2.883,1.764,4.062c0.977,1.18,2.33,1.894,3.523,2.273
			c0.607,0.193,1.188,0.318,1.729,0.424c0.545,0.09,0.855,0.159,1.217,0.327c0.709,0.309,1.293,0.817,1.711,1.345
			c0.42,0.533,0.678,1.094,0.789,1.591c0.113,0.498,0.088,0.932,0.037,1.231c-0.053,0.3-0.113,0.465-0.113,0.465l0.051,0.036
			c0,0,0.143-0.099,0.367-0.355c0.213-0.259,0.494-0.71,0.611-1.377c0.117-0.662,0.049-1.517-0.33-2.392
			c-0.377-0.871-1.068-1.765-2.109-2.409c-0.508-0.322-1.197-0.558-1.699-0.689c-0.502-0.145-0.998-0.288-1.463-0.479
			c-0.953-0.343-1.779-0.855-2.393-1.601c-0.615-0.742-1.039-1.747-1.236-2.893l-0.115-0.836c-0.039-0.279-0.037-0.644-0.057-0.963
			c-0.037-0.573,0.012-1.197,0.082-1.771c0.154-1.162,0.523-2.23,1.145-3.103c0.619-0.878,1.469-1.577,2.426-2.246
			c0.953-0.674,2.027-1.294,3.01-2.246c0.484-0.481,0.945-1.041,1.225-1.757c0.279-0.715,0.336-1.298,0.35-1.921
			c-0.021-1.229-0.441-2.28-0.957-3.029C297.16,67.962,296.582,67.447,296.088,67.08 M297.229,81.403
			c0.043-0.118,0.129-0.293,0.256-0.419c0.236-0.283,0.578-0.487,0.922-0.586c0.699-0.208,1.412-0.007,1.854,0.229
			c0.227,0.113,0.395,0.229,0.512,0.309c0.119,0.079,0.184,0.122,0.184,0.122c-0.018,0.015-0.119-0.286-0.496-0.689
			c-0.182-0.209-0.443-0.437-0.801-0.642c-0.357-0.197-0.83-0.347-1.373-0.35c-0.543,0.002-1.141,0.165-1.693,0.54
			c-0.279,0.188-0.521,0.436-0.744,0.782c-0.059,0.104-0.113,0.213-0.162,0.324l-0.08,0.212c-0.072,0.274-0.104,0.421-0.105,0.659
			c-0.01,0.44,0.129,0.912,0.338,1.268c0.201,0.36,0.453,0.664,0.707,0.904c0.512,0.501,1.041,0.882,1.58,1.217
			c0.543,0.328,1.084,0.614,1.643,0.86c0.26,0.124,0.564,0.23,0.785,0.327c0.205,0.076,0.381,0.181,0.553,0.287
			c0.688,0.414,1.133,1.148,1.396,1.91c0.248,0.762,0.355,1.5,0.398,2.018c0.051,0.522,0.057,0.838,0.057,0.838
			s0.186-0.256,0.406-0.764c0.205-0.508,0.475-1.271,0.48-2.286c0.004-0.507-0.07-1.074-0.285-1.669
			c-0.209-0.593-0.6-1.188-1.119-1.687c-0.27-0.234-0.562-0.457-0.877-0.631c-0.289-0.168-0.514-0.302-0.779-0.438
			c-0.498-0.259-1.006-0.522-1.512-0.786c-0.496-0.253-0.986-0.502-1.365-0.767c-0.385-0.282-0.615-0.491-0.672-0.702
			c-0.021-0.038-0.031-0.174-0.043-0.164c0.01-0.058,0.021-0.156,0.031-0.182C297.229,81.436,297.23,81.421,297.229,81.403
			 M302.939,104.016c0.674-0.766,1.078-1.667,1.311-2.341c0.23-0.678,0.285-1.145,0.285-1.145s-0.18,0.437-0.566,1.008
			c-0.385,0.568-0.979,1.271-1.703,1.738c-0.352,0.241-0.73,0.428-1.094,0.546c-0.359,0.122-0.842,0.201-1.141,0.215
			c-0.586,0.064-1.119-0.021-1.119,0.002v0.007l-3.02-0.38c-0.055-0.027-0.029-0.051-0.105-0.089
			c-0.227-0.124-0.533-0.318-0.916-0.577c-0.201-0.122-0.369-0.282-0.584-0.44c-0.223-0.152-0.389-0.351-0.605-0.54
			c-0.221-0.188-0.359-0.423-0.561-0.643c-0.098-0.112-0.135-0.24-0.211-0.361l-0.104-0.187l-0.053-0.095l-0.014-0.023l-0.006-0.012
			c-0.043-0.117-0.016-0.041-0.027-0.071l-0.027-0.055c-0.176-0.299-0.254-0.579-0.551-0.9c-0.131-0.147-0.244-0.312-0.387-0.426
			c-0.145-0.104-0.289-0.208-0.432-0.309c-0.289-0.186-0.613-0.298-0.904-0.38c-0.309-0.042-0.59-0.114-0.857-0.063
			c-0.131,0.012-0.256,0.022-0.375,0.034c-0.113,0.026-0.221,0.072-0.32,0.104c-0.201,0.066-0.369,0.124-0.486,0.225
			c-0.242,0.165-0.381,0.26-0.381,0.26s0.152-0.066,0.418-0.183c0.125-0.073,0.299-0.097,0.492-0.122
			c0.098-0.013,0.199-0.036,0.305-0.04c0.109,0.011,0.223,0.021,0.34,0.033c0.238-0.004,0.475,0.115,0.721,0.193
			c0.23,0.118,0.475,0.256,0.674,0.447l0.289,0.303c0.09,0.104,0.135,0.232,0.207,0.339c0.15,0.173,0.217,0.565,0.322,0.865
			l0.146,0.476c0.064,0.177,0.105,0.376,0.195,0.533c0.178,0.311,0.33,0.659,0.537,0.924c0.102,0.133,0.199,0.273,0.299,0.406
			l-34.227-4.121c0.516-0.481,1.125-1.062,1.793-1.763c0.479-0.522,1.02-1.052,1.533-1.693c0.264-0.312,0.533-0.634,0.809-0.963
			c0.26-0.358,0.523-0.723,0.791-1.094c0.277-0.342,0.504-0.848,0.754-1.28l0.182-0.339l0.006-0.011
			c-0.01,0.022-0.014,0.034-0.018,0.042l0.006-0.014l0.018-0.038l0.037-0.074l0.074-0.151l0.287-0.614
			c0.197-0.383,0.406-0.667,0.604-1.018c0.26-0.317,0.498-0.661,0.773-0.968c0.555-0.606,1.17-1.164,1.861-1.567
			c0.684-0.409,1.416-0.723,2.17-0.854c0.371-0.036,0.766-0.162,1.109-0.137c0.455-0.01,0.723,0.04,1.082,0.096
			c0.707,0.13,1.369,0.396,1.969,0.676c1.195,0.577,2.131,1.255,2.754,1.756c0.625,0.504,0.965,0.824,0.965,0.824
			s-0.238-0.4-0.754-1.036c-0.531-0.616-1.297-1.525-2.488-2.354c-0.592-0.41-1.279-0.832-2.107-1.101
			c-0.408-0.135-0.939-0.266-1.316-0.304c-0.486-0.097-0.936-0.002-1.424-0.003c-0.955,0.068-1.947,0.337-2.852,0.792
			c-0.916,0.441-1.736,1.066-2.482,1.762c-0.359,0.357-0.676,0.756-1.012,1.135c-0.289,0.427-0.621,0.884-0.857,1.296l-0.32,0.596
			l-0.182,0.355l-0.148,0.242c-0.213,0.324-0.33,0.64-0.609,0.966c-0.242,0.324-0.482,0.643-0.717,0.955
			c-0.258,0.308-0.51,0.609-0.756,0.903c-0.48,0.591-0.996,1.126-1.434,1.639c-0.918,1.001-1.678,1.85-2.23,2.423
			c-0.234,0.251-0.414,0.445-0.555,0.596l-4.197-0.505c0.455-0.403,0.945-0.881,1.482-1.384c0.557-0.593,1.186-1.186,1.748-1.843
			c0.561-0.66,1.156-1.28,1.629-1.939c0.479-0.65,0.971-1.216,1.309-1.768c0.695-1.076,1.16-1.793,1.16-1.793
			s-0.562,0.639-1.404,1.598c-0.406,0.488-0.977,0.976-1.533,1.537c-0.549,0.569-1.223,1.089-1.854,1.645
			c-0.633,0.552-1.328,1.036-1.943,1.522c-0.646,0.45-1.236,0.884-1.766,1.219c-0.527,0.344-0.965,0.619-1.27,0.795
			c-0.062,0.036-0.115,0.067-0.168,0.098l-2.508-0.303c0.637-0.429,1.354-0.941,2.145-1.548c1.318-1.01,2.775-2.293,4.225-3.78
			c0.734-0.732,1.416-1.566,2.148-2.37c0.664-0.866,1.391-1.7,2.016-2.613c0.619-0.919,1.287-1.799,1.807-2.76
			c0.559-0.936,1.08-1.867,1.488-2.821c0.217-0.469,0.43-0.93,0.639-1.38c0.195-0.457,0.338-0.925,0.502-1.368
			c0.311-0.893,0.65-1.718,0.797-2.535c0.184-0.799,0.354-1.532,0.506-2.181c0.076-0.661,0.143-1.237,0.199-1.712
			c0.102-0.944,0.158-1.484,0.158-1.484s-0.127,0.528-0.352,1.451c-0.107,0.459-0.238,1.017-0.387,1.656
			c-0.221,0.618-0.467,1.315-0.738,2.077c-0.236,0.768-0.629,1.55-1.01,2.385c-0.199,0.414-0.375,0.85-0.605,1.273
			c-0.242,0.417-0.488,0.843-0.74,1.275c-0.258,0.427-0.484,0.881-0.777,1.303s-0.59,0.85-0.889,1.28
			c-0.557,0.884-1.264,1.688-1.912,2.525c-0.656,0.832-1.414,1.586-2.102,2.367c-0.758,0.724-1.461,1.473-2.211,2.125
			c-1.461,1.351-2.902,2.52-4.145,3.509c-0.619,0.498-1.209,0.925-1.727,1.311c-0.531,0.363-0.969,0.72-1.352,0.973
			c-0.438,0.299-0.75,0.514-0.949,0.649l-3.564-0.429c1.695-0.923,3.924-2.253,6.361-4.114c2.686-2.066,5.645-4.781,8.188-8.248
			c2.531-3.458,4.574-7.718,5.424-12.274c0.105-0.573,0.184-1.163,0.273-1.744c0.09-0.585,0.107-1.109,0.164-1.665
			c0.096-1.183,0.053-2.267,0.086-3.393c0.051-1.112-0.084-2.22-0.127-3.312c-0.014-0.528-0.064-1.05-0.127-1.568
			c0.129-0.078,0.275-0.163,0.441-0.258c0.713-0.411,1.797-0.959,3.094-1.234c0.643-0.154,1.336-0.198,1.99-0.072
			c0.17,0.011,0.328,0.063,0.486,0.118c0.162,0.044,0.322,0.097,0.469,0.189l0.229,0.117l0.057,0.028l0.027,0.014l0.119,0.085
			c0.17,0.133,0.43,0.29,0.531,0.403c0.223,0.213,0.49,0.479,0.691,0.795c0.199,0.31,0.367,0.646,0.461,1.028
			c0.213,0.75,0.221,1.639,0.086,2.552c-0.129,0.918-0.395,1.853-0.686,2.781c-0.285,0.918-0.639,1.89-0.891,2.855
			c-0.246,0.97-0.434,1.941-0.469,2.888c-0.029,0.946,0.068,1.854,0.293,2.651c0.232,0.797,0.572,1.479,0.949,2.018
			c0.381,0.536,0.76,0.955,1.102,1.262c0.316,0.333,0.631,0.521,0.82,0.668c0.195,0.143,0.301,0.218,0.301,0.218
			s-0.08-0.102-0.23-0.292c-0.141-0.195-0.383-0.45-0.615-0.827c-0.256-0.358-0.516-0.825-0.746-1.374
			c-0.213-0.557-0.422-1.185-0.49-1.894c-0.16-1.415,0.139-3.064,0.801-4.78c0.312-0.867,0.701-1.734,1.094-2.712
			c0.379-0.967,0.715-1.994,0.932-3.096c0.219-1.093,0.297-2.298-0.012-3.499c-0.309-1.216-0.949-2.285-1.926-3.108
			c-0.242-0.223-0.4-0.303-0.602-0.459l-0.143-0.104l-0.1-0.066l-0.049-0.026l-0.098-0.053l-0.389-0.203
			c-0.252-0.146-0.521-0.242-0.795-0.322c-0.27-0.091-0.537-0.17-0.809-0.199c-1.076-0.176-2.078-0.061-2.918,0.155
			c-1.467,0.389-2.533,0.977-3.32,1.463c-0.123-0.834-0.295-1.653-0.453-2.455c-0.172-1.013-0.494-1.972-0.752-2.916
			c-0.557-1.879-1.258-3.602-1.973-5.158c-0.371-0.771-0.766-1.494-1.127-2.187c-0.408-0.668-0.779-1.31-1.172-1.888
			c-0.787-1.154-1.523-2.126-2.191-2.881c-0.229-0.27-0.441-0.503-0.646-0.721l3.297-0.312c0.141,0.108,0.305,0.238,0.508,0.413
			c0.533,0.455,1.229,1.104,1.861,1.819c0.311,0.361,0.641,0.718,0.9,1.084c0.262,0.364,0.545,0.691,0.723,1.006
			c0.389,0.621,0.65,1.035,0.65,1.035s-0.148-0.47-0.369-1.173c-0.098-0.363-0.289-0.749-0.459-1.186
			c-0.164-0.441-0.398-0.88-0.621-1.331c-0.338-0.671-0.727-1.319-1.084-1.867l3.049-0.288c0.238,0.285,0.576,0.65,1.027,1.045
			c0.234,0.208,0.498,0.423,0.795,0.626c0.281,0.221,0.625,0.396,0.955,0.601c0.363,0.154,0.707,0.364,1.107,0.475l0.584,0.19
			l0.611,0.116c0.398,0.101,0.818,0.076,1.215,0.104c0.4,0.007,0.789-0.068,1.16-0.099c0.367-0.067,0.715-0.176,1.041-0.256
			c0.328-0.081,0.613-0.238,0.887-0.341c0.551-0.198,0.947-0.487,1.244-0.645c0.289-0.168,0.455-0.265,0.455-0.265
			s-0.18,0.068-0.494,0.188c-0.316,0.107-0.744,0.324-1.307,0.427c-0.277,0.054-0.566,0.16-0.887,0.184s-0.652,0.071-0.994,0.078
			c-0.346-0.03-0.699-0.018-1.049-0.083c-0.346-0.086-0.701-0.115-1.031-0.263l-0.496-0.181l-0.465-0.243
			c-0.314-0.139-0.576-0.373-0.852-0.543c-0.246-0.221-0.504-0.401-0.707-0.627c-0.217-0.207-0.402-0.421-0.568-0.624
			c-0.021-0.025-0.033-0.045-0.053-0.07l20.832-1.968c-0.916,0.228-1.752,0.625-2.406,1.151c-1.418,1.218-1.852,2.681-1.992,3.615
			c-0.135,0.964-0.002,1.506-0.002,1.506s0.244-0.498,0.719-1.242c0.484-0.735,1.246-1.715,2.357-2.36
			c0.561-0.316,1.215-0.522,1.941-0.639c0.377-0.016,0.752-0.07,1.162-0.015c0.186,0.019,0.445,0.02,0.574,0.048
			c0.234,0.041,0.471,0.082,0.711,0.124c0.26,0.028,0.43,0.094,0.629,0.144c0.195,0.058,0.393,0.087,0.59,0.177
			c0.195,0.082,0.402,0.144,0.596,0.228l0.559,0.283c0.715,0.418,1.332,0.975,1.775,1.7c0.441,0.724,0.762,1.576,0.928,2.483
			c0.17,0.905,0.221,1.848,0.221,2.771c0.006,0.578-0.016,0.922,0.062,1.523c0.068,0.566,0.199,1.063,0.398,1.549
			c0.379,0.969,1.09,1.772,1.896,2.207c0.805,0.451,1.648,0.521,2.326,0.467c0.691-0.057,1.238-0.285,1.67-0.461
			c0.422-0.213,0.736-0.391,0.93-0.55c0.199-0.144,0.307-0.22,0.307-0.22s-0.125,0.041-0.357,0.118
			c-0.227,0.088-0.572,0.175-1,0.276c-0.436,0.063-0.967,0.138-1.541,0.042c-0.572-0.061-1.184-0.276-1.684-0.678
			c-0.504-0.401-0.869-1.002-1.057-1.717c-0.096-0.352-0.145-0.762-0.139-1.124c-0.029-0.327,0.037-0.942,0.072-1.331
			c0.107-1.013,0.131-2.086-0.002-3.196c-0.139-1.103-0.42-2.273-1.037-3.335c-0.602-1.063-1.514-1.999-2.561-2.604l-0.799-0.401
			c-0.27-0.115-0.545-0.204-0.816-0.298c-0.527-0.169-1.176-0.305-1.648-0.368c-0.24-0.024-0.48-0.047-0.719-0.071
			c-0.146-0.016-0.268-0.017-0.385-0.017l20.676-1.953v-1.991L127.773,49.77C170.006,30.073,212.092,9.923,231.322,1h72.918
			l-0.152-1H1.734L1.568,1h78.735C63.56,7.467,2.798,36.031-0.088,37.349v2.215C0.63,39.234,69.038,7.02,85,1h142.57
			c-20.309,9.429-63.785,29.768-105.707,49.328l-0.046,0.005l0.001,0.016C61.85,78.331,0.988,106.757-0.088,107.26v2.179
			c0.732-0.343,29.61-13.825,67.167-31.352l169.396,20.395l0.029,0.068c0,0,0.047-0.021,0.117-0.051l69.291,8.341v-1.984
			l-3.391-0.408C302.666,104.309,302.811,104.168,302.939,104.016 M169.867,47.803c0.68,0.886,0.916,1.81,0.65,2.589
			c-0.377,1.106-1.721,1.911-3.785,2.266c-3.477,0.597-5.555,3.086-6.664,4.98l-3.348-8.594L169.867,47.803z M70.454,76.513
			c16.329-7.62,34.147-15.933,51.921-24.224l32.275-3.049l15.288,39.247L70.454,76.513z M172.189,88.759l-4.15-10.653
			c0.406-0.618,1.369-1.62,3.357-1.469c2.406,0.186,2.725,1.287,3.359,3.484c0.107,0.373,0.219,0.757,0.346,1.148l0.084,0.262
			c0.715,2.217,1.795,5.552,3.494,8.009L172.189,88.759z M188.65,90.74c-0.02-0.018-0.037-0.03-0.059-0.05
			c-0.1-0.093-0.305-0.263-0.531-0.489c-0.238-0.223-0.506-0.527-0.814-0.875c-0.293-0.368-0.65-0.757-0.979-1.245
			c-0.359-0.46-0.672-1.021-1.047-1.584c-0.34-0.587-0.705-1.205-1.043-1.872c-0.338-0.669-0.686-1.36-0.992-2.093
			c-0.158-0.364-0.318-0.731-0.479-1.1l-0.42-1.139c-0.297-0.756-0.531-1.535-0.758-2.307c-0.244-0.767-0.449-1.531-0.633-2.278
			c-0.18-0.748-0.408-1.462-0.527-2.16c-0.141-0.695-0.273-1.352-0.395-1.959c-0.27-1.213-0.393-2.243-0.525-2.959
			c-0.129-0.718-0.203-1.128-0.203-1.128s-0.006,0.416-0.018,1.145c0.014,0.728-0.033,1.774,0.033,3.027
			c0.043,0.626,0.09,1.304,0.137,2.022c0.031,0.722,0.164,1.471,0.25,2.256c0.049,0.391,0.1,0.79,0.15,1.193
			c0.08,0.398,0.16,0.803,0.242,1.21c0.158,0.815,0.326,1.646,0.562,2.462l0.326,1.231c0.133,0.404,0.266,0.807,0.396,1.205
			c0.24,0.809,0.584,1.567,0.9,2.311c0.311,0.745,0.709,1.429,1.059,2.085c0.389,0.642,0.771,1.236,1.178,1.761
			c0.236,0.336,0.482,0.632,0.725,0.912l-3.545-0.426c-2.266-1.917-3.75-6.49-4.555-8.981l-0.084-0.262
			c-0.121-0.371-0.227-0.735-0.328-1.088c-0.658-2.277-1.338-4.633-5.127-4.924c-1.971-0.148-3.387,0.531-4.322,1.372l-6.176-15.853
			c0.447-1.129,2.205-4.879,6.02-5.534c3.805-0.653,4.979-2.53,5.34-3.591c0.377-1.103,0.244-2.299-0.33-3.443l11.463-1.083
			c-0.23,0.347-0.469,0.712-0.676,1.131c-0.162,0.31-0.342,0.621-0.5,0.947c-0.141,0.334-0.285,0.674-0.428,1.013
			c-0.133,0.343-0.307,0.666-0.4,1.016c-0.105,0.342-0.213,0.679-0.314,1.005c-0.102,0.323-0.199,0.636-0.293,0.932
			c-0.064,0.305-0.125,0.593-0.184,0.857c-0.223,1.054-0.373,1.756-0.373,1.756s0.268-0.664,0.67-1.659
			c0.1-0.247,0.209-0.514,0.324-0.797c0.141-0.271,0.287-0.557,0.441-0.852c0.152-0.294,0.311-0.598,0.469-0.904
			c0.145-0.315,0.367-0.595,0.547-0.895c0.191-0.292,0.379-0.584,0.566-0.872c0.199-0.276,0.416-0.533,0.613-0.788
			c0.381-0.523,0.818-0.931,1.158-1.302c0.365-0.329,0.686-0.633,0.883-0.76c0.041-0.028,0.07-0.051,0.1-0.074l3.031-0.286
			c-0.018,0.024-0.033,0.045-0.051,0.069c-0.449,0.63-0.982,1.404-1.545,2.321c-0.566,0.915-1.168,1.973-1.744,3.171
			c-0.596,1.186-1.154,2.517-1.676,3.954c-0.279,0.712-0.469,1.479-0.711,2.246c-0.203,0.778-0.381,1.585-0.561,2.403
			c-0.285,1.654-0.512,3.387-0.504,5.162l0.012,1.337c0.002,0.501,0.059,0.872,0.084,1.316c0.059,0.847,0.137,1.711,0.256,2.604
			c0.197,1.771,0.529,3.495,0.92,5.201c0.434,1.694,0.926,3.355,1.592,4.901c0.621,1.561,1.443,2.983,2.256,4.298
			c0.871,1.282,1.768,2.447,2.707,3.42c0.922,0.988,1.861,1.798,2.719,2.47c0.211,0.169,0.418,0.326,0.617,0.477L188.65,90.74z
			 M236.412,96.385c-0.066,0.032-0.119,0.057-0.176,0.083l-38.064-4.582c-0.086-0.053-0.213-0.131-0.377-0.231
			c-0.324-0.216-0.836-0.482-1.422-0.908c-0.598-0.412-1.314-0.921-2.08-1.573c-0.77-0.642-1.596-1.417-2.414-2.33
			c-0.838-0.897-1.629-1.97-2.398-3.144c-0.713-1.211-1.439-2.509-1.982-3.957c-0.596-1.423-1.049-2.966-1.443-4.552
			c-0.355-1.594-0.664-3.252-0.836-4.9c-0.107-0.813-0.18-1.66-0.232-2.522c-0.084-0.876-0.084-1.628-0.094-2.451
			c-0.023-1.61,0.174-3.195,0.42-4.718c0.164-0.755,0.318-1.5,0.502-2.222c0.221-0.714,0.391-1.425,0.631-2.097
			c0.455-1.352,0.949-2.613,1.484-3.743c0.512-1.143,1.066-2.15,1.559-3.041c0.496-0.891,0.969-1.645,1.367-2.256
			c0.402-0.61,0.734-1.075,0.963-1.387c0.039-0.051,0.07-0.092,0.102-0.134l12.182-1.15c-3.648,3.514-8.965,10.645-7.441,21.44
			c2.258,15.979,15.232,22.968,26.963,22.967c0.568,0,1.135-0.017,1.695-0.049c7.631-0.442,14.164-4.1,18.396-10.299
			c5.205-7.62,6.137-17.829,2.641-28.768l4.473-3.611l-6.777,4.084l-0.176,0.057c0.006,0.015,0.008,0.028,0.014,0.042
			l-21.797,13.135l3.867-12.441c0,0-1.828-0.932-5.398-0.655c-2.412,0.188-11.764,1.463-11.98,13.478
			c-0.217,12.014,11.201,13.824,14.551,14.033c3.35,0.21,10.938-3.52,12.781-10.481c1.5-5.666-0.668-8.666-0.668-8.666l8.988-7.258
			c2.908,9.817,2.002,18.882-2.604,25.628c-3.781,5.537-9.625,8.804-16.457,9.201c-11.039,0.639-23.865-5.581-26.01-20.748
			c-2.018-14.291,8.941-21.208,9.41-21.496c0,0-0.01-0.007-0.016-0.013l40.312-3.809c0.07,0.066,0.148,0.142,0.24,0.234
			c0.338,0.345,0.844,0.861,1.42,1.591c0.59,0.712,1.246,1.636,1.941,2.731c0.348,0.546,0.666,1.163,1.039,1.787
			c0.324,0.653,0.68,1.333,1.014,2.061c0.641,1.468,1.268,3.091,1.756,4.864c0.492,1.771,0.924,3.67,1.176,5.668
			c0.113,1,0.283,2.01,0.303,3.052c0.033,1.037,0.16,2.083,0.102,3.146c-0.033,1.048-0.012,2.161-0.09,3.174
			c-0.053,0.538-0.072,1.12-0.152,1.627l-0.234,1.528c-0.756,4.162-2.602,8.075-4.941,11.309c-2.318,3.26-5.076,5.878-7.607,7.883
			c-2.533,2.014-4.84,3.449-6.486,4.373C237.521,95.829,236.861,96.165,236.412,96.385 M264.555,92.071l-0.004,0.006
			C264.561,92.059,264.537,92.106,264.555,92.071 M284.072,88.005c0,0-0.166,0.42-0.426,1.129c-0.27,0.703-0.617,1.709-1.15,2.773
			c-0.541,1.048-1.273,2.179-2.381,2.721c-0.551,0.266-1.178,0.402-1.859,0.421c-0.674,0.019-1.439-0.128-2.105-0.313
			c-0.68-0.191-1.318-0.559-2.062-0.968c-0.738-0.406-1.596-0.848-2.488-1.087c-0.449-0.12-0.889-0.188-1.334-0.224
			c-0.482-0.04-0.857-0.028-1.217-0.013c-0.924,0.063-1.73,0.329-2.363,0.798c-0.629,0.456-1.029,1.029-1.277,1.546
			c-0.26,0.516-0.365,0.997-0.438,1.381c-0.123,0.781-0.055,1.22-0.055,1.22s0.148-0.421,0.518-1.055
			c0.355-0.623,0.994-1.495,1.955-1.905c0.467-0.191,1.051-0.28,1.596-0.212c0.373,0.035,0.752,0.074,1.035,0.143
			c0.316,0.064,0.648,0.17,0.967,0.277c0.641,0.234,1.244,0.604,1.941,1.066c0.688,0.464,1.539,0.965,2.494,1.287
			c0.959,0.332,1.908,0.442,2.916,0.403c0.996-0.035,2.018-0.322,2.861-0.851c0.85-0.518,1.5-1.229,1.947-1.949
			c0.449-0.725,0.721-1.454,0.883-2.131c0.182-0.671,0.229-1.299,0.266-1.842c0.02-0.548,0.006-1.021-0.035-1.408
			c-0.031-0.387-0.084-0.688-0.123-0.894C284.096,88.114,284.072,88.005,284.072,88.005 M170.91,61.979c0,0-0.223-0.762-0.998-1.62
			c-0.389-0.431-0.91-0.89-1.691-1.215c-0.393-0.156-0.873-0.256-1.422-0.221c-0.273,0.018-0.557,0.093-0.824,0.206
			c-0.229,0.081-0.639,0.381-0.695,0.443c-0.5,0.428-0.756,0.997-0.85,1.519c-0.09,0.521-0.039,0.979,0.049,1.375
			c0.195,0.79,0.533,1.383,0.877,1.845c0.676,0.928,1.375,1.315,1.375,1.315s-0.062-0.789-0.178-1.798
			c-0.041-0.505-0.105-1.076-0.064-1.586c0.018-0.251,0.07-0.477,0.135-0.626c0.066-0.14,0.145-0.222,0.18-0.246
			c0.203-0.169,0.08-0.072,0.168-0.135c0.043-0.038,0.096-0.06,0.16-0.092c0.135-0.061,0.336-0.087,0.574-0.068
			c0.48,0.022,1.025,0.188,1.504,0.332C170.23,61.75,170.91,61.979,170.91,61.979 M177.996,60.381
			c-0.184-0.021-0.385-0.054-0.6-0.067c-0.217,0.011-0.447,0.021-0.688,0.034c-0.48,0.07-1.01,0.226-1.518,0.514
			c-0.525,0.271-0.965,0.706-1.385,1.173c-0.371,0.495-0.719,1.04-0.953,1.619c-0.254,0.581-0.41,1.183-0.523,1.799
			c-0.113,0.65-0.109,1.238-0.146,1.704c0.008,0.431-0.104,0.844-0.23,1.246c-0.145,0.396-0.318,0.789-0.549,1.14
			c-0.205,0.369-0.463,0.689-0.701,0.997c-0.494,0.602-0.977,1.099-1.336,1.433c-0.354,0.342-0.578,0.535-0.578,0.535
			s0.297-0.006,0.799-0.124c0.494-0.127,1.209-0.349,1.98-0.831c0.395-0.228,0.785-0.543,1.18-0.916
			c0.381-0.382,0.746-0.846,1.047-1.388c0.275-0.552,0.529-1.169,0.623-1.831c0.104-0.618,0.137-1.143,0.219-1.586
			c0.084-0.476,0.18-0.959,0.316-1.4c0.113-0.458,0.307-0.853,0.504-1.228c0.215-0.352,0.438-0.694,0.723-0.939
			c0.262-0.281,0.582-0.461,0.889-0.648c0.324-0.149,0.646-0.277,0.957-0.356c0.305-0.086,0.592-0.125,0.832-0.176
			c0.479-0.049,0.779-0.098,0.779-0.098s-0.246-0.144-0.725-0.358C178.668,60.558,178.365,60.432,177.996,60.381 M36.44,104.759
			c-2.695,0.506-8.621,1.086-9.35,1.009c-0.377-0.094-0.765,0.117-0.89,0.49c-0.132,0.394,0.081,0.818,0.473,0.95
			c0.108,0.036,0.327,0.052,0.631,0.052c1.998,0,7.658-0.698,9.412-1.026c0.407-0.076,0.676-0.469,0.599-0.875
			C37.238,104.951,36.847,104.682,36.44,104.759 M29.162,99.909c0.044-0.005,4.447-0.489,6.182-0.332
			c0.404,0.03,0.777-0.268,0.815-0.679c0.037-0.413-0.266-0.778-0.679-0.815c-1.885-0.17-6.296,0.314-6.484,0.335
			c-0.412,0.045-0.708,0.417-0.663,0.828c0.043,0.383,0.368,0.667,0.745,0.667C29.105,99.913,29.133,99.912,29.162,99.909
			 M24.06,87.246c0.054,0.001,0.339,0.008,0.791,0.008c1.902,0,6.755-0.116,9.662-1.224c0.387-0.147,0.581-0.58,0.433-0.967
			c-0.147-0.389-0.58-0.583-0.968-0.435c-3.32,1.265-9.813,1.12-9.88,1.117c-0.419-0.003-0.759,0.317-0.768,0.73
			C23.318,86.892,23.646,87.235,24.06,87.246 M22.997,80.492C23.016,80.894,23.347,81,23.745,81h0.036
			c0.292,0,7.172-0.159,9.446-1.208c0.375-0.174,0.54-0.426,0.366-0.803c-0.174-0.375-0.619-0.566-0.995-0.393
			c-1.668,0.771-6.981,1.123-8.888,1.214C23.295,79.83,22.977,80.079,22.997,80.492 M24.579,76.08c0.084,0,0.169-0.015,0.252-0.044
			c0.046-0.017,4.535-1.611,6.695-1.458c0.408,0.033,0.772-0.282,0.801-0.695c0.029-0.413-0.282-0.771-0.695-0.801
			c-2.461-0.17-7.109,1.471-7.305,1.541c-0.39,0.14-0.594,0.568-0.455,0.959C23.981,75.889,24.271,76.08,24.579,76.08
			 M32.935,67.147c-3.445,1.565-11.215,0.941-11.294,0.935c-0.398-0.024-0.775,0.273-0.81,0.686
			c-0.034,0.412,0.273,0.775,0.686,0.81c0.144,0.012,1.692,0.136,3.711,0.136c2.67,0,6.164-0.217,8.328-1.201
			c0.377-0.171,0.544-0.614,0.372-0.993C33.756,67.143,33.314,66.975,32.935,67.147 M32.269,59.813
			c-3.544,1.61-11.092,3.099-11.167,3.113c-0.407,0.08-0.672,0.475-0.592,0.88c0.07,0.358,0.383,0.606,0.735,0.606
			c0.047,0,0.096-0.004,0.145-0.014c0.316-0.062,7.795-1.537,11.5-3.221c0.377-0.172,0.543-0.615,0.372-0.993
			C33.089,59.809,32.646,59.642,32.269,59.813 M30.523,54.192c0.385-0.153,0.572-0.591,0.418-0.976
			c-0.153-0.384-0.59-0.569-0.975-0.417c-3.226,1.29-9.3,2.448-9.361,2.459c-0.407,0.077-0.674,0.47-0.597,0.877
			c0.068,0.36,0.383,0.61,0.736,0.61c0.046,0,0.093-0.004,0.14-0.013C21.14,56.685,27.162,55.538,30.523,54.192 M18.372,50.412
			c0.108,0.308,0.397,0.501,0.707,0.501c0.083,0,0.167-0.014,0.249-0.043c0.056-0.021,5.588-1.957,8.918-1.957
			c0.414,0,0.75-0.336,0.75-0.75c0-0.415-0.336-0.75-0.75-0.75c-3.588,0-9.181,1.959-9.417,2.043
			C18.438,49.593,18.232,50.022,18.372,50.412 M20.034,43.9c0.105,0.313,0.398,0.513,0.712,0.513c0.078,0,0.158-0.013,0.237-0.039
			c1.902-0.634,7.253-2.229,9.163-1.968c0.41,0.052,0.788-0.234,0.843-0.645c0.055-0.411-0.234-0.788-0.644-0.843
			c-2.598-0.347-9.103,1.788-9.837,2.032C20.115,43.082,19.902,43.507,20.034,43.9 M22.214,38.36c0.147,0.146,0.339,0.22,0.531,0.22
			c0.191,0,0.383-0.074,0.53-0.22c0.03-0.029,2.983-2.947,6.136-2.947c0.414,0,0.75-0.336,0.75-0.75c0-0.415-0.336-0.75-0.75-0.75
			c-3.768,0-7.059,3.248-7.197,3.386C21.921,37.592,21.921,38.067,22.214,38.36 M31.987,27.626l-6.834,2.5
			c-0.388,0.142-0.589,0.572-0.447,0.961c0.112,0.304,0.399,0.493,0.705,0.493c0.085,0,0.173-0.015,0.258-0.046l6.833-2.5
			c0.389-0.143,0.589-0.573,0.447-0.962C32.808,27.683,32.375,27.481,31.987,27.626 M25.201,15.761
			c-0.13,0.393,0.082,0.816,0.474,0.946c0.092,0.031,1.652,0.539,4.011,0.539c1,0,2.143-0.092,3.379-0.349
			c0.406-0.084,0.666-0.482,0.581-0.888c-0.084-0.406-0.482-0.663-0.887-0.582c-3.732,0.779-6.582-0.134-6.612-0.144
			C25.754,15.154,25.331,15.368,25.201,15.761 M26.167,10.066c-0.053,0.41,0.237,0.787,0.648,0.84
			c0.155,0.02,2.807,0.357,5.138,0.357c0.931,0,1.812-0.054,2.46-0.203c0.404-0.094,0.655-0.495,0.563-0.899
			c-0.093-0.404-0.493-0.651-0.9-0.562c-1.668,0.385-5.669,0.001-7.069-0.18C26.599,9.365,26.221,9.655,26.167,10.066 M33.04,6.314
			c0.117,0.066,0.245,0.099,0.372,0.099c0.26,0,0.513-0.136,0.651-0.378c0.206-0.36,0.081-0.818-0.279-1.024
			c-1.291-0.737-4.453-0.628-5.074-0.597c-0.414,0.019-0.733,0.371-0.713,0.784c0.02,0.414,0.373,0.726,0.784,0.714
			C30.143,5.849,32.367,5.93,33.04,6.314"/>
		<rect x="-0.088" y="111" clip-path="url(#nav-eye-9-id-2)" fill="#0C3846" width="306" height="1"/>
	</g>
</g>
</svg>
