<svg id="Layer_1" xmlns="http://www.w3.org/2000/svg" xmlns:xlink="http://www.w3.org/1999/xlink" viewBox="-152 308.1 305.8 176.9"><style>.st0{clip-path:url(#SVGID_2_);fill:#d72251}.st1{fill:#fcdca4}.st2{clip-path:url(#SVGID_4_);fill:#0c3846}</style><defs><path id="SVGID_1_" d="M-304.5 650h306v177h-306z"/></defs><clipPath id="SVGID_2_"><use xlink:href="#SVGID_1_" overflow="visible"/></clipPath><path class="st0" d="M-190 717.8l42.5 4.1s8.7 10.3 12.1 18.9c3.4 8.6 12.8 22.1 32.8 24.4 20 2.2 29.9-5.8 29.9-5.8s-3.1-3.2-7.5-2.2-9.8 2.8-13.5 2.5c0 0 5.3-1.7 8.3-5.3s5.7-5.3 7.9-5.2c2.2.2 6.2-1.5 6-3.6 0 0 1.4.5.3 3.8-1.1 3.3 2 6.3 2 6.3s3.6-5.1 3.4-9c-.2-3.9-6.3-9.1-12.6-9.4 0 0-1.5-11.4-11.4-20.9s-17.5-18.2-47.5-20.5c-28.3-2.2-49.3 16.3-52.7 21.9"/><path class="st1" d="M-304.4 650v24.5c0 50.7 24.7 95.6 62.7 123.3l.1.1c.9.6 1.7 1.3 2.6 1.9.2.1.4.3.6.4.7.5 1.5 1 2.2 1.5.3.2.7.5 1 .7l1.8 1.2 1.5.9c.5.3.9.6 1.4.8.7.4 1.3.8 2 1.2.3.2.6.4.9.5.9.5 1.7 1 2.6 1.4.1.1.3.1.4.2 21.6 11.7 46.3 18.3 72.6 18.3h.7c82.5 0 149.8-65.5 152.5-147.4V650h-305.6zm119 61.2l-4.6 6.2-27.6-3.8 32.2-2.4zm116.1 44.5s-3.1-3-2-6.3-.3-3.8-.3-3.8c.2 2.1-3.8 3.8-6 3.6-2.2-.2-4.9 1.5-7.9 5.2s-8.3 5.3-8.3 5.3c3.8.3 9.1-1.5 13.5-2.5s7.5 2.2 7.5 2.2-9.9 8-29.9 5.8-29.4-15.8-32.8-24.4c-3.4-8.6-12.1-18.9-12.1-18.9l-42.5-4.1c3.4-5.6 24.4-24.1 52.7-21.9 18.3 1.4 28.3 5.2 35.5 10.1l18.7-1.2c-.6 3.3-4.5 12.3-5 13.5 8.3 9.1 9.7 19.1 9.7 19.1 6.4.3 12.5 5.5 12.6 9.4s-3.4 8.9-3.4 8.9z"/><g><defs><path id="SVGID_3_" d="M-304.5 650h306v177h-306z"/></defs><clipPath id="SVGID_4_"><use xlink:href="#SVGID_3_" overflow="visible"/></clipPath><path class="st2" d="M1.5 650.1h-306v1h65.7l193.5 33.7c-.1.2-.3.4-.4.6-.2.3-.3.6-.5.9-1.3 2.2-2 3.8-2 3.8s1.3-1.2 3-3.1c.4-.5.9-1 1.4-1.5l.4-.4 3.8.6c-.5.5-1.1 1-1.7 1.6-.6.6-1.2 1.2-1.8 1.9-.6.7-1.2 1.3-1.8 2-.6.7-1.1 1.4-1.7 2.1l-1.5 2.1c-.5.7-.9 1.4-1.3 2.1-.4.7-.7 1.3-1 1.9-.3.6-.5 1.2-.8 1.7-.1.2-.2.5-.3.7-14 .9-30.8 1.9-50.1 3.1-.7-.5-1.5-1-2.3-1.4-7-4.2-15.4-7.3-24-8.5-2.2-.3-4.3-.5-6.5-.6-1.1-.1-2.2 0-3.2-.1h-1.6l-1.6.1c-1.1.1-2.1.1-3.2.2s-2.1.1-3.1.3c-2.1.3-4.1.5-6.1.9l-3 .6c-1 .2-2 .4-2.9.7-.9.3-1.9.5-2.8.8-.9.3-1.8.5-2.7.9-1.7.7-3.5 1.2-5.1 2-.8.4-1.6.7-2.4 1.1-.8.3-1.5.8-2.2 1.1-.7.4-1.4.8-2.1 1.1-.7.4-1.3.8-1.9 1.2-1.3.8-2.4 1.6-3.5 2.4-1.1.8-2 1.6-2.9 2.4l-.2.2c-61 3.9-113.5 7.1-113.5 7.1l.6 2.1s31.4-2 74-4.7c2 .2 35.3 4.1 76.1 8.3.7.8 1.4 1.8 2.2 2.7.8 1.2 1.6 2.3 2.4 3.7.8 1.3 1.6 2.7 2.4 4 .8 1.4 1.6 2.9 2.3 4.3 1.6 3 3.1 6.1 5 9.2 1.9 3.1 4.1 6.1 6.8 8.6 2.7 2.6 5.8 4.6 9 6.3l1.2.6c.5.3.8.4 1.3.6.8.3 1.6.7 2.4 1 .9.3 1.7.6 2.5.8.9.2 1.7.4 2.5.6 3.4.8 6.7 1.1 9.8 1.2 3.2 0 6.1-.2 8.8-.6 2.7-.5 5.2-1 7.3-1.7 2.1-.7 3.9-1.5 5.4-2.2 1.4-.8 2.6-1.4 3.3-1.9.1-.1.2-.1.2-.2.1.1.3.2.4.4l.4.6.5.8.5.8.3.8c.4 1 .6 2.2.6 3.3 0 1.2-.4 2.3-.9 3.5-.6 1.3-1.1 2.8-1.2 4.4v.3c-97.4-7.4-212.3-26.5-213.4-26.7l1.3 2.2c1 .2 86.9 14.4 173.4 23.1-40.6 13.5-125.1 27.6-125.9 27.7l2.5 1.7c.5-.1 25.4-4.2 54.6-10.2 2.8.7 69.6 16.7 92.6 20.3l3.2-1.5c-20-3.1-75.3-16-91.1-19.7 24.8-5.2 51.7-11.5 68.9-17.7 11.5 1.1 22.9 2.1 34.1 3 .2.9.6 1.9 1.3 2.7.6.7 1.3 1.2 2.1 1.6l.2.1c.1 0 .2.1.3.1l.7.2c.4.1.9.2 1.3.2 1.8 0 3.4-.7 4.7-1.7.8-.6 1.4-1.4 2-2.2 6.9.5 13 .8 19.4 1.1l1.7-1.9c-6.2-.3-13.3-.7-20.1-1.1.5-1.3.8-2.6.9-3.8.2-3-.9-5.8-2.5-7.9-.8-1-1.6-1.9-2.4-2.8-.8-.8-1.6-1.6-2.5-2.3-1.3-1.1-2.6-2.1-3.5-3.1l.2-.2c.2-.2.4-.5.7-.8.3-.3.5-.8.9-1.2.3-.5.6-1 .9-1.6.3-.6.6-1.3.8-2.1.4-1.6.6-3.5-.1-5.5s-2.1-3.8-3.9-5c-1.8-1.3-3.9-2.3-6.2-2.9-.8-.2-1.6-.3-2.4-.4 0-.2 0-.3-.1-.5-.1-1.1-.4-2.6-1.1-4.4-.2-.7-.6-1.4-.9-2.2 8.8.7 16.9 1.3 24.5 1.9-.1.2-.1.3-.2.5-.5 1.4-.8 2.5-.8 2.5s.8-.7 1.8-1.9c.2-.3.5-.6.7-.9 17.8 1.2 32.2 1.9 43.3 2l.8-2c-10.8-.1-25.2-.7-42.8-1.9.4-.6.7-1.3 1-1.9.5-.9.9-1.9 1.2-2.8.3-.9.6-1.8.8-2.6.4-1.5.4-2.6.4-2.6s-.2.2-.5.6c-.3.4-.7.9-1.1 1.6-.4.6-.9 1.4-1.4 2.3-.4.8-.9 1.7-1.4 2.7l-1.2 2.7c-8.1-.5-16.9-1.2-26.3-2-1.5-2.8-3.5-6-6.3-9.3l-.1-.1c.9-2.1 3.3-7.5 4.5-12.1 12.1-.8 23-1.4 32.6-2-.3.3-.6.7-.9 1l-1.5 1.8c-.5.6-.9 1.3-1.3 1.9-.8 1.3-1.4 2.5-1.9 3.6-.2.6-.4 1.1-.6 1.5-.2.4-.2.9-.3 1.2-.2.7-.2 1.1-.2 1.1l.6-.9c.2-.3.4-.6.7-1 .3-.4.6-.8.9-1.3.3-.5.7-1 1.1-1.5.4-.5.8-1 1.3-1.6.4-.6.9-1.1 1.4-1.7.5-.6 1-1.1 1.5-1.7.8-.9 1.5-1.7 2.3-2.6 24.3-1.5 39.7-2.4 46.1-2.7l.3-2c-6.3.3-21.2 1.2-44.6 2.6.5-.6 1-1.1 1.4-1.6.8-.9 1.4-1.6 1.9-2.1.4-.5.7-.8.7-.8l-1 .5c-.6.3-1.4.9-2.4 1.5-1 .7-2 1.5-3.1 2.5-.1 0-.1.1-.2.2-.9.1-1.9.1-2.9.2.4-.5.8-1 1.3-1.7.4-.5.9-1.1 1.3-1.7l1.5-1.8c.5-.6 1.1-1.3 1.6-2 .6-.7 1.1-1.4 1.7-2 1.1-1.4 2.3-2.7 3.4-4 .5-.6 1.1-1.2 1.5-1.8.2-.3.4-.5.6-.7l38.1 6.4.2-2-36.9-6.2c1.3-1.6 2-2.7 2-2.7s-1.5.9-3.5 2.5l-4.1-.7 1.2-1.2 1.8-1.8c.6-.6 1.2-1.2 1.8-1.7.6-.6 1.2-1.1 1.7-1.7.6-.5 1.1-1.1 1.6-1.6s1-1 1.5-1.4c.9-.9 1.7-1.6 2.2-2.1l.8-.8s-.4.1-1.1.5c-.7.3-1.6.8-2.7 1.5-.6.3-1.1.7-1.7 1.1-.6.4-1.2.9-1.9 1.4-.6.5-1.3 1.1-1.9 1.6-.6.6-1.3 1.1-1.9 1.7l-1.8 1.8c-.6.6-1.1 1.3-1.6 1.9-.1.1-.2.2-.3.4l-185.8-31.9H1.5v-1.6zm-192 66.3c-8.9-1-16.4-1.8-22-2.5 8.2-.5 16.7-1.1 25.4-1.6-1.3 1.3-2.2 2.4-2.8 3.3-.3.3-.4.6-.6.8m109.8 15.8c.6 1.7 1 3 1.1 3.9v.2c-1 0-2 .1-2.9.3-2.4.4-4.8 1.1-7.1 1.9-2.3.8-4.5 1.8-6.7 2.7-1 .4-2.2.9-3.3 1.4-1 .5-2.1 1-3.1 1.5-4 2-7.7 3.8-11.1 4.5-1.7.4-3.2.4-4.5.3-1.3-.1-2.4-.4-3.3-.8-.9-.4-1.6-.8-2.1-1.1-.5-.3-.7-.5-.7-.5s.1.3.4.8c.3.5.8 1.2 1.7 1.9.9.7 2.2 1.4 3.7 1.7 1.6.3 3.4.2 5.2-.1 3.7-.7 7.7-2.5 11.7-4.5 1-.5 2-1 3.1-1.5 1-.5 2-.9 3.2-1.3 2.2-.9 4.4-1.8 6.6-2.6 2.2-.8 4.4-1.4 6.6-1.8 2.2-.4 4.4-.4 6.4.1s3.9 1.4 5.4 2.5c1.5 1.1 2.7 2.4 3.2 3.9.5 1.4.5 2.9.2 4.1-.2.6-.4 1.2-.6 1.7-.2.5-.5 1-.7 1.4-.3.4-.4.8-.7 1.1-.2.3-.4.5-.6.7-.6-.9-1.1-1.9-1.2-2.7-.3-1.1-.2-2.1-.1-2.7.1-.7.1-1 .1-1s-.1.3-.4.9c-.2.6-.5 1.6-.4 2.9 0 1.3.6 2.9 1.6 4.4 1 1.5 2.5 2.9 4.1 4.3.7.7 1.5 1.5 2.2 2.3.8.8 1.5 1.7 2.1 2.6.6.9 1.2 1.9 1.5 3 .3 1.1.5 2.3.4 3.4 0 .3-.1.6-.1 1 0 .2-.1.6-.2.8-.2.6-.4 1.1-.6 1.7-.5 1.1-1.2 2.1-2.1 2.8-.9.7-2 1.1-3 1.1-.3 0-.5-.1-.8-.1-.1 0-.2-.1-.3-.1h-.2l-.2-.1c-.5-.2-.9-.6-1.3-.9-.6-.7-.9-1.8-.8-3 .1-1.2.5-2.4 1-3.6.6-1.3 1.1-2.9 1.1-4.4 0-1.6-.2-3.1-.9-4.5-.2-.4-.3-.7-.5-1.1l-.5-.8-.5-.8-.1-.1v-.1l-.1-.1-.2-.2-.4-.4c-1-1.1-2.3-1.9-3.6-2.3-2.6-.9-5.2-.8-7.3-.4-1.1.2-2.1.5-3.1.9-.3.1-.5.2-.7.3l-.6.3c-.4.2-.8.3-1.2.5-1.6.5-3 .8-4.2 1.1-2.4.5-3.8.7-3.8.7s.4 0 1 .1c.7.1 1.6.1 2.9.1.6 0 1.3 0 2.1-.1.8 0 1.6-.2 2.5-.3.4-.1.9-.2 1.4-.3l.4-.1c.1 0 .2-.1.3-.1.2-.1.5-.2.7-.2.8-.2 1.8-.4 2.8-.6 2-.3 4.2-.2 6.1.5.1 0 .1.1.2.1-.6.4-1.5.9-2.5 1.4-1.4.7-3.1 1.4-5.1 2.1-2 .7-4.4 1.2-7 1.7-2.6.4-5.5.6-8.5.5-3-.1-6.2-.5-9.4-1.2l-2.4-.6c-.8-.3-1.6-.5-2.3-.8-.8-.2-1.6-.7-2.4-1-.4-.2-.9-.3-1.2-.5l-1.1-.6c-3.1-1.6-6-3.6-8.5-6s-4.6-5.2-6.4-8.2c-1.8-3-3.3-6.1-4.9-9.1-.8-1.5-1.6-3-2.4-4.4-.8-1.4-1.6-2.8-2.5-4.1-.8-1.3-1.7-2.6-2.6-3.8-.9-1.2-1.8-2.3-2.8-3.3-.9-1-1.9-1.9-2.8-2.8-1-.8-1.9-1.5-2.9-2.1-1.9-1.2-3.7-2-5.3-2.5-1.6-.5-2.8-.6-3.7-.6-.9 0-1.3.1-1.3.1s1.8.3 4.6 1.7c2.3 1.2 5.2 3.1 8.2 5.9-14-1.4-27.1-2.8-38.3-4 .6-.7 1.5-1.7 2.7-2.9.6-.6 1.4-1.3 2.2-2 .9-.7 1.8-1.4 2.8-2.2 1.1-.7 2.1-1.5 3.4-2.2.6-.4 1.2-.7 1.9-1.1.7-.3 1.3-.7 2-1.1.7-.3 1.4-.8 2.1-1.1.8-.3 1.5-.6 2.3-1 1.5-.7 3.2-1.2 4.9-1.8.8-.3 1.7-.5 2.6-.8.9-.2 1.8-.5 2.7-.7 1.8-.5 3.7-.8 5.7-1.2 1.9-.3 3.9-.5 5.9-.8 1-.2 2-.2 3-.3 1-.1 2.1-.2 3.1-.3l1.6-.2h1.5c1.1 0 2.1.1 3.1.2 2 .1 4.1.5 6.2.7 8.3 1.1 16.2 4 23 8 3.4 2 6.5 4.2 9.2 6.5 2.8 2.3 5.2 4.7 7.2 7.1 4.3 4.4 6.9 8.9 8.2 12.3m-7.6-16c-1.8-1.9-3.7-3.9-5.9-5.8-1.4-1.2-3-2.5-4.6-3.6 5-.3 9.7-.6 14.3-.9-1.1 3.7-2.8 7.9-3.8 10.3m-34.2-12.1c.3.1.6.3.9.4 1.2.6 2.3 1 3.3 1.4 1.9.9 3.2 1.4 3.2 1.4s-1.1-.9-2.8-2.2c-.4-.3-.9-.6-1.4-.9-.5-.3-1.1-.6-1.7-1-.6-.3-1.2-.7-1.8-.9-.6-.3-1.3-.6-1.9-.9-.6-.3-1.3-.5-2-.8-.6-.2-1.3-.5-1.9-.7-1.3-.4-2.5-.7-3.5-.9-2.1-.5-3.5-.6-3.5-.6s1.3.6 3.2 1.4c1 .4 2.1.9 3.3 1.4.6.2 1.2.5 1.9.8.6.3 1.3.5 1.9.8.6.3 1.3.5 1.9.8.2.3.5.4.9.5m6.2 6.2c.4.2.9.4 1.3.6.8.4 1.6.7 2.3 1 1.4.6 2.4.8 2.4.8s-.7-.7-2-1.6c-.6-.5-1.3-1-2.1-1.5-.4-.3-.8-.5-1.3-.7-.4-.2-.9-.4-1.4-.6-.9-.4-1.8-.8-2.7-1.1-.9-.3-1.7-.5-2.5-.7-.7-.2-1.3-.3-1.8-.4-.4-.1-.7-.1-.7-.1s.2.1.6.4c.4.2.9.6 1.6.9.7.4 1.4.8 2.3 1.2.8.4 1.7.9 2.6 1.3.6.1 1 .3 1.4.5m3.2 4.1c.7.4 1.5.9 2.2 1.2.7.4 1.4.7 2.1.9.6.2 1.2.3 1.6.4.4.1.6.1.6.1s-.2-.2-.5-.4c-.3-.3-.7-.6-1.2-1s-1.1-.8-1.8-1.3-1.4-.9-2.2-1.4l-1.2-.6c-.4-.2-.8-.3-1.2-.5-.4-.1-.8-.2-1.2-.4-.4-.1-.7-.2-1-.3-1.3-.2-2.2-.3-2.2-.3s.7.5 1.9 1.1c.3.2.6.3.9.5.3.2.7.3 1 .5.3.2.7.4 1.1.6.4.4.7.7 1.1.9m5.1 5.2c.6.3 1.1.5 1.6.7 1 .4 1.7.5 1.7.5s-.4-.6-1.2-1.3c-.4-.4-.9-.7-1.4-1.1-.5-.4-1.2-.7-1.8-1-.6-.3-1.2-.6-1.9-.8-.6-.2-1.2-.4-1.7-.5-1-.2-1.7-.2-1.7-.2s.1.1.4.3c.2.2.6.4 1 .7.4.3.9.6 1.5.9.6.3 1.1.7 1.7.9.6.4 1.3.6 1.8.9m5.2 5.3c.9.3 1.6.3 1.6.3s-.4-.5-1.1-1.1c-.7-.6-1.7-1.3-2.8-1.9-1.1-.6-2.2-1-3.1-1.3-.9-.3-1.6-.3-1.6-.3s.4.5 1.1 1.1c.7.6 1.7 1.3 2.8 1.9 1.1.6 2.2 1 3.1 1.3m2.2 2.7c-.5-.2-1.1-.4-1.6-.6-1.1-.4-2.2-.7-3.1-.9-.9-.2-1.6-.2-1.6-.2s.4.5 1.2 1.1c.4.3.8.6 1.3.8.5.3 1.1.5 1.7.7.6.2 1.2.3 1.8.4.6.1 1.1.1 1.6.1 1-.1 1.6-.3 1.6-.3s-.6-.4-1.4-.7c-.5 0-1-.2-1.5-.4m-164.8-30.9c-6-1-11.9-1.5-11.9-1.5-.4 0-.8.3-.8.7 0 .4.3.8.7.8.1 0 5.9.5 11.8 1.5h.1c.4 0 .7-.3.7-.6.1-.5-.2-.8-.6-.9m1 6.9l-9.8-1.1c-.4 0-.8.2-.8.7 0 .4.2.8.7.8l9.8 1.1h.1c.4 0 .7-.3.7-.7 0-.4-.3-.8-.7-.8m-8.8 4.8c-.4 0-.8.3-.8.7s.3.8.7.8l8.9.8h.1c.4 0 .7-.3.7-.7 0-.4-.3-.8-.7-.8l-8.9-.8zm-6.5-19.1l12.4 1.6h.1c.4 0 .7-.3.7-.7.1-.4-.2-.8-.6-.8l-12.4-1.6c-.4-.1-.8.2-.8.6-.1.5.2.8.6.9m-1.1-5.4c0 .4.3.8.7.8.2 0 2.4.1 4.9.1 2.6 0 5.7-.1 7-.3.4-.1.7-.5.6-.9-.1-.4-.5-.7-.9-.6-2.5.5-11.5.2-11.6.2-.3 0-.6.3-.7.7m12-5.9c.1 0 .2.1.3.1.3 0 .6-.2.7-.5.2-.4 0-.9-.4-1-2.7-1.2-11.2-1.4-11.5-1.4-.4 0-.7.5-.8.9 0 .4.3.9.7.9 2.4-.2 9 .1 11 1m-12.6-8.4c-.1.4.2.8.6.9.2 0 4.4.7 7.8.7.7 0 1.3 0 1.9-.1.4 0 .7-.4.7-.8s-.4-.7-.8-.7c-3.4.4-9.2-.6-9.3-.6-.4-.1-.8.1-.9.6m2.2-7.1c-.1.4.2.8.6.8l9.7 1.2h.1c.4 0 .7-.3.7-.7.1-.4-.2-.8-.6-.8l-9.8-1.2c-.3 0-.7.2-.7.7m12.2-4.6l-9.8-1.1c-.4 0-.8.2-.8.7 0 .4.2.8.7.8l9.8 1.1h.1c.4 0 .7-.3.7-.7 0-.4-.3-.7-.7-.8m3.2 63.9l-9.7-.7c-.4 0-.8.3-.8.7 0 .4.3.8.7.8l9.7.7h.1c.4 0 .7-.3.7-.7 0-.4-.3-.8-.7-.8m-12.1 5.2c-.1.4.2.8.7.8l6.8.8h.1c.4 0 .7-.3.7-.7 0-.4-.2-.8-.7-.8l-6.8-.8c-.4 0-.8.2-.8.7m13.7 10.8c0-.4-.4-.7-.8-.7-3 .2-6.1-.3-6.2-.3-.4-.1-.8.2-.9.6-.1.4.2.8.6.9.1 0 2.4.4 5.1.4h1.4c.5-.1.8-.4.8-.9m.2 7c.2.1 3.9 1.1 8.2 1.1 1.4 0 2.9-.1 4.3-.4.4-.1.7-.5.6-.9-.1-.4-.5-.7-.9-.6-5.4 1.1-11.7-.6-11.8-.7-.4-.1-.8.1-.9.5-.2.4.1.9.5 1m14.5 16.9c.1 0 .2.1.3.1.3 0 .6-.2.7-.5.2-.4 0-.8-.4-1-2.3-1-8.2-.6-12.4-.3-.4 0-.6 0-.7.1-.4 0-.7.3-.7.8 0 .4.3.8.8.8.1 0 .4 0 .8-.1 6.2-.5 10.2-.5 11.6.1m3.9 5.1c.4 0 .7-.4.7-.8s-.4-.7-.8-.7c-1.8.2-8.2 0-8.2 0-.4 0-.8.3-.8.7 0 .4.3.8.7.8.2 0 2.9.1 5.4.1 1.2 0 2.4 0 3-.1m7.9 6.7c.3 0 .6-.2.7-.5.1-.4 0-.8-.4-1-2.2-.9-10-1.2-10.9-1.2-.4 0-.8.3-.8.7 0 .4.3.8.7.8 2.3.1 8.7.5 10.4 1.1.2 0 .2.1.3.1m5.9 4.7c0-.4-.3-.8-.8-.8-5.8 0-7-.3-7.1-.3-.4-.1-.8.1-.9.5-.1.4.1.8.5.9.2.1 1.4.4 7.6.4.4.1.7-.3.7-.7m5.2 6.3c-3.1.5-7.3.3-7.4.3-.4 0-.8.3-.8.7 0 .4.3.8.7.8h1.8c1.6 0 3.9-.1 5.9-.4.4-.1.7-.4.6-.9 0-.3-.4-.6-.8-.5m-.8 8.8c0 .4.4.7.7.7h.1c.1 0 2.9-.4 5.3-1.2.4-.1.6-.6.5-1-.1-.4-.6-.6-1-.5-2.2.8-5 1.1-5 1.1-.4.1-.7.5-.6.9m-34.6-61.7c-4.6 1-10.2.2-10.2.2-.4-.1-.8.2-.9.6-.1.4.2.8.6.9.1 0 2.3.3 5.1.3 1.7 0 3.7-.1 5.6-.5.4-.1.7-.5.6-.9 0-.4-.4-.6-.8-.6M-50.1 712c-.6.6-1.2 1.4-1.8 2.2-.6.8-1.2 1.8-1.8 2.7-.6.9-1 2-1.5 2.9-.2.5-.4 1-.5 1.4-.2.5-.3.9-.4 1.3-.1.4-.2.8-.3 1.1-.1.3-.1.6-.1.9-.1.5-.1.8-.1.8s.2-.2.4-.6c.3-.4.6-1 1.1-1.7.2-.3.5-.7.7-1.1.2-.4.5-.8.8-1.2.3-.4.6-.9.8-1.3.3-.5.6-.9.8-1.4.3-.5.6-.9.8-1.4.3-.5.5-.9.8-1.4.2-.5.5-.9.7-1.3l.6-1.2c.3-.8.6-1.4.8-1.9.2-.5.2-.7.2-.7s-.2.2-.6.5l-1.4 1.4"/></g></svg>