<svg id="Layer_1" xmlns="http://www.w3.org/2000/svg" xmlns:xlink="http://www.w3.org/1999/xlink" viewBox="-152 341.9 305.8 111.1"><style>.st0{fill:#fcdca4}.st1{clip-path:url(#SVGID_2_);fill:#d72251}.st2{clip-path:url(#SVGID_4_);fill:#d72251}.st3{clip-path:url(#SVGID_6_)}.st4,.st5{fill:#0c3846}.st5{clip-path:url(#SVGID_8_)}</style><path class="st0" d="M-304 794.8H1.8v-111H-304v111zm245.5-61.2c-11.5 9.6-41.6 25.1-41.6 25.1-3.7 5.6-11.8 10.8-11.8 10.8.9-2.6-1.4-8.8-11.8-5.8-10.4 3-3.7 9.7-3.7 9.7s-9.5 8.4-23.8 8.4S-172 773-172 773s3-4.5-6.2-8.7-13.6 3.6-13.6 3.6c-6.1.5-10.5-8.9-10.5-8.9-11.7-1.9-35.9-15.5-35.9-15.5l87-5.5 92.7-4.4z"/><defs><path id="SVGID_1_" d="M-304.1 683.8h306v111h-306z"/></defs><clipPath id="SVGID_2_"><use xlink:href="#SVGID_1_" overflow="visible"/></clipPath><path class="st1" d="M-189.7 765s3.8 4.6 7.8 5.6c3.9 1 10.2-1.2 10.2-1.2s-6.2-9.6-18-4.4"/><defs><path id="SVGID_3_" d="M-304.1 683.8h306v111h-306z"/></defs><clipPath id="SVGID_4_"><use xlink:href="#SVGID_3_" overflow="visible"/></clipPath><path class="st2" d="M-130.1 768.8s.5-1.9 3.3-3.6c3.4-2 10.9-3.4 13.4.4 0 0-1 3.3-7.1 5-9.5 2.6-9.6-1.8-9.6-1.8"/><defs><path id="SVGID_5_" d="M-304.1 683.8h306v111h-306z"/></defs><clipPath id="SVGID_6_"><use xlink:href="#SVGID_5_" overflow="visible"/></clipPath><g class="st3"><path class="st4" d="M-111.3 770.3c1.7-1.1 3.2-2.2 4.7-3.4 1.5-1.2 3-2.5 4.3-3.9.9-.9 1.7-1.8 2.5-2.8 5-2.9 31.2-18.2 42.5-25.6 20.7-.7 40.6-1.2 58.9-1.3v-2c-65.7.4-152.4 5.3-216.7 9.6-.1-.1-.2-.1-.2-.1l-.1.2c-50.2 3.3-86.7 6.3-88.8 6.4v2c1.8-.1 27.7-2.2 65.5-4.8 11.1 7.1 30.9 14.3 35.3 15.9.7 1.3 1.5 2.5 2.4 3.6 1.1 1.3 2.4 2.4 3.9 3.3 1.5.9 3.2 1.6 5 1.6l.6.1.4-.7c.2-.3.6-.8.9-1.1.1-.1.2-.1.2-.2 1.1 1.2 3.7 3.7 7.3 4.7 1.1.3 2.3.4 3.5.4 2.5 0 4.9-.5 6.2-.9v.9c0 .2-.1.5-.1.4v1.3c.8.8 1.5 1.5 2.3 2.2.1.1.2.2.4.3v.1h.1c.7.5 1.4 1.1 2.1 1.6l.9.6c.4.3.9.5 1.3.8-4.6-.7-8.8-1.7-12.8-2.5-2-.5-3.9-1-5.7-1.4-1.8-.4-3.5-.9-5.2-1.3-3.2-.8-6.1-1.5-8.4-2.1-2.3-.6-4.2-1-5.4-1.3-1.3-.3-1.9-.4-1.9-.4s.6.3 1.8.8c1.2.5 2.9 1.3 5.2 2.1 1.1.4 2.4.9 3.8 1.4 1.4.4 2.9.9 4.5 1.4 3.2 1 6.9 1.9 10.9 2.9 4 .9 8.4 2 13.1 2.7l3.6.6c1.2.2 2.4.3 3.7.4 1.2.1 2.5.3 3.8.4.7.1 1.2.1 2 .2h1.9c2.5.1 5.3-.1 8-.3 2.7-.3 5.4-.5 8.1-1 5.4-.8 10.8-1.8 16.2-3 5.4-1.2 10.8-2.5 16-3.9 5.3-1.4 10.4-2.8 15.4-4.2 5-1.5 9.7-3 14.2-4.5 2.2-.7 4.5-1.5 6.5-2.3 2.1-.8 4.1-1.5 6-2.1 3.9-1.3 7.5-2.4 10.7-3.2 1.6-.4 3.1-.8 4.5-1.1 1.4-.3 2.7-.5 3.7-.6h.4v.1c.1.1-.2.5-.5.8-.6.6-1.3 1-1.8 1.4-1.1.7-1.7 1-1.7 1s.2 0 .5-.1.8-.2 1.5-.4c.6-.2 1.4-.5 2.3-1 .2-.1.4-.3.7-.5.2-.2.5-.5.6-1 0-.3 0-.5-.1-.8 0-.1-.1-.1-.1-.2l-.1-.1-.1-.1-.1-.1-.1-.1c-.5-.4-.9-.4-1.2-.5-1.4-.2-2.8 0-4.3.2s-3 .6-4.7 1c-3.3.8-6.9 1.9-10.9 3.2-2 .6-4 1.3-6.1 2.1-2.1.8-4.2 1.5-6.5 2.2-4.5 1.4-9.2 2.9-14.2 4.3-4.9 1.4-10.1 2.9-15.3 4.2-5.2 1.4-10.6 2.6-15.9 3.8-5.4 1.2-10.7 2.3-16 3.1-.3 0-.5.1-.8.1.4-.2.8-.3 1.2-.5 1-.4 1.9-.9 2.8-1.4 1.8-1 3.6-2.1 5.3-3.3l1-.6-.9-1c-.2-.2-.3-.4-.5-.6.5 0 1 .1 1.6.1 1.6 0 3.5-.1 5.7-.6 3.4-.7 5.6-2.7 6.7-4.2 0 .1.1.3.1.4.1.5.2 1.1.2 1.6l-.3 2.2 2.1-1.6zm33.1-25.1c-.4-2.2-.5-5.8 1.5-6.4 2.4-.7 5.2.5 6.8 1.3-2.6 1.7-5.4 3.4-8.3 5.1zm-18.5-9l.2.2c.3.3.8.8 1.3 1.4.3.3.5.6.8 1 .3.4.5.7.8 1.1.1.2.2.4.4.6l.2.3.1.3.3.6c.2.5.2.5.5 1 .4.8 1 1.2 1.6 1.6.6.4 1.2.6 1.8.7.6.1 1.2.1 1.8 0 .3-.1.6-.1.8-.2.3-.1.5-.2.7-.3.2-.1.4-.3.6-.4.2-.1.3-.3.4-.5.3-.3.3-.6.5-.9.1-.3.1-.5.1-.6v-.2s-.2.3-.5.6l-.6.6c-.1.1-.3.2-.4.2-.2.1-.3.1-.5.2s-.4.1-.6.1h-.6c-.4 0-.8-.1-1.3-.3-.4-.2-.8-.4-1.1-.7-.2-.1-.3-.3-.4-.5-.1-.1-.1-.2-.2-.2-.1-.1-.1-.1-.1-.2-.1 0-.2-.6-.2-.6-.1-.3-.2-.6-.3-1l-.2-.5-.2-.4c-.2-.3-.3-.5-.4-.8-.3-.5-.7-.9-1-1.4-.3-.4-.7-.8-1-1.1l-.1-.1c10.9-.5 21.8-.9 32.5-1.3-2 1.3-4.3 2.7-6.7 4.2-1.3-.8-5.7-3.2-9.5-2.1-4.2 1.2-3.3 7.6-2.9 9.5-6.6 3.9-12.8 7.6-16.9 10 .1-.1.1-.2.2-.3.5-.9.9-1.8 1.3-2.8.3-1 .6-2 .7-3.1.1-.5.1-1.1 0-1.6v-.7l-.1-.8c-.3-2.1-1.2-4.1-2.5-5.8-1.2-1.7-2.9-3-4.6-4.1-.3-.2-.7-.4-1.1-.6 2.1.1 4.2 0 6.4-.1zM-227.9 748c-2.5-1.2-5-2.5-7.2-3.8 2.4-.2 4.9-.3 7.5-.5.8 1.8.1 3.5-.3 4.3zm18.9 8.1s0-.1 0 0c.1-.6.3-1.3.5-2.3.1-.9.2-2 .1-3.3-.1-.7-.2-1.3-.6-2.1-.1-.2-.3-.4-.5-.6l-.1-.1-.1-.1-.1-.1-.2-.1c-.2-.1-.4-.3-.7-.3-.2-.1-.4-.1-.7-.2-.9-.1-1.7.2-2.3.5-.6.3-1.1.7-1.6 1-.2.2-.4.3-.6.4h-.2l-.2.1c-.1 0-.2.1-.3.1-.4.1-.8.2-1.2.2-.8 0-1.3-.4-1.6-.8-.1-.2-.2-.4-.2-.5 0-.1-.1-.2-.1-.2s-.1.3 0 .9c.1.3.2.6.5 1 .3.3.7.6 1.2.8.5.2 1.1.2 1.7.2.1 0 .3 0 .5-.1h.4c.3-.1.6-.2.9-.4.5-.2 1-.5 1.5-.7.5-.2.9-.2 1.2-.1.1 0 .1.1.2.1l.1.1.2.1.1.1-.1-.1c0 .1.1.1.1.1.1.2.2.7.2 1.2.1 1 0 2-.1 2.8-.1.7-.2 1.3-.2 1.8-4.4-1.7-9.8-3.9-14.9-6.3.6-1.1 1.4-3.1.6-5.3 3.2-.2 6.5-.4 9.8-.7.1 0 .1.1.2.1.3.2.5.5.8.8.1.1.2.2.3.5l.1.4.1.2v.1c.1.3-.1.7-.5.9-.3.3-.7.5-1.1.6-.7.3-1.2.4-1.2.4s.5.1 1.3 0c.4 0 .9-.1 1.3-.3.2-.1.5-.3.7-.5.2-.2.4-.6.5-.9v-.9c0-.3-.1-.6-.2-.9-.1-.1-.1-.3-.2-.4 1.5-.1 3.1-.2 4.7-.3-.3 1.7.1 3 1 4s2.3 1.4 3.4 1.6c-.2.5-.3.9-.4 1.4-.2.9-.3 1.8-.3 2.7 0 .4 0 .8.1 1.3 0 .4.1.9.1 1.3.2 1.1.4 2.1.8 3.1-1.2-1-2.8-1.6-4.7-2.3zm5.4-10c-.8 0-2.1-.2-2.8-1-.5-.6-.6-1.5-.4-2.8 2.4-.2 4.9-.3 7.3-.5-1.2.8-2.3 1.7-3.2 2.8-.2.5-.6 1-.9 1.5zm21.7 23.5c-3-.8-5.3-2.9-6.3-4 .6-.4 1.3-.7 2-.9 1-.3 2-.4 3-.3 1 0 2.1.2 3.1.5.5.1 1.1.3 1.6.5l1.5.6c.9.4 1.8 1 2.5 1.6.5.5.9 1 1.2 1.6-1.6.4-5.5 1.3-8.6.4zm14.7 3.2c-.1.6-.2 1.3-.3 1.9v.9c-.3-.2-.6-.5-.9-.7 0-.1-.1-.3-.1-.5-.1-.4-.1-.9-.1-1.4v-1.6c.1-2.2.5-4.5.5-4.5s-.9 2.1-1.5 4.3c-.2.6-.3 1.1-.4 1.7 0 .2-.1.4-.1.5-.3-.2-.5-.5-.7-.7 0-.1.1-.2.1-.4.1-.4.2-.7.2-1 .1-.7 0-1.4-.2-2.1-.3-1.4-1.1-2.6-2-3.5-.9-1-2.1-1.6-3.2-2.2-.6-.3-1.1-.5-1.7-.7-.7-.2-1.1-.4-1.8-.5-1.2-.3-2.5-.5-3.7-.5-.6 0-1.3 0-1.9.1-.6.1-1.3.2-1.9.5-1.2.4-2.4 1.1-3.4 1.9-.5.4-.9.9-1.3 1.4-.3.4-.5.7-.7 1.1-1.1-.2-2.2-.9-3.2-1.5-1.2-.8-2.3-1.8-3.2-3-1.8-2.3-3-5.1-3.4-8-.1-.4-.1-.7-.1-1.1v-1.1c0-.7 0-1.4.2-2.1.3-1.3.9-2.6 1.7-3.7.8-1.1 1.9-2.1 3.2-2.9.6-.4 1.2-.8 1.9-1.1.6-.3 1.3-.6 1.9-.9 7-.4 14.1-.9 21.4-1.3-.1.1-.2.2-.2.4-.4.7-.9 1.5-1.5 2.4-.5 1-1.2 2-1.7 3.3-.6 1.2-1.2 2.6-1.6 4.2-.1.4-.2.9-.2 1.3 0 .5-.1.8 0 1.3 0 .5 0 .9.1 1.4.1.4.1.9.3 1.3.4 1.7 1.2 3.4 2.1 5 1 1.6 2.2 3 3.7 4.2.7.6 1.5 1.1 2.3 1.6.8.4 1.6.9 2.5 1.2.1.1.3.1.4.2-.3.3-1.1 2.5-1.5 4.9zm47-3.2c-3.9.8-7.1.5-8.1.4-.3-.9-.2-1.7.3-2.4.3-.3.6-.7 1.1-1 .4-.3.9-.6 1.4-.8.5-.2 1.1-.4 1.6-.6l.8-.3.9-.3c.6-.1 1.1-.3 1.7-.4.6-.1 1.1-.2 1.7-.2 1.1-.1 2.2 0 3.2.4.6.2 1.1.6 1.5 1-.9 1.3-2.8 3.5-6.1 4.2zm5.5-7.3c-1.4-.6-2.8-.7-4.2-.7-.7 0-1.4.1-2 .2-.7.1-1.3.3-2 .4l-.9.2c-.4.1-.6.2-1 .3-.6.2-1.2.5-1.9.8-.6.3-1.2.6-1.8 1.1-.6.4-1.2.9-1.6 1.6-.5.7-.8 1.5-.9 2.3-.1.9.1 1.7.4 2.4.3.7.7 1.3 1.1 1.9.2.2.3.4.5.6-.2.2-.5.3-.7.5-.1 0-.2-.1-.3-.1-.3-.1-.6-.2-1-.5-.2-.1-.4-.3-.6-.4-.2-.1-.5-.4-.7-.5-.2-.2-.5-.4-.7-.7-.2-.2-.4-.5-.7-.7-.9-1-1.6-2.2-2.1-3.2-.5-.9-.7-1.6-.7-1.6s.1.7.4 1.7c.3 1 .8 2.3 1.5 3.6l.6.9.6.9c.2.3.4.5.7.8.2.2.4.5.7.6.2.1.3.2.4.3-.6.3-1.1.7-1.7 1h-.1c-.3-.1-.6-.4-1.1-.7-.2-.2-.4-.4-.7-.6l-.7-.7c-.5-.5-1-1.1-1.5-1.7-.9-1.2-1.8-2.5-2.4-3.5-.6-1-.9-1.7-.9-1.7s.9 3 2.5 5.8c.4.7.8 1.4 1.2 2 .2.3.5.6.7.9.2.3.5.5.7.8l.4.4c-.4.2-.8.4-1.1.5-.3-.1-.6-.4-.9-.6-.2-.2-.4-.4-.7-.6l-.7-.7c-.5-.5-1-1.1-1.4-1.8-.9-1.3-1.7-2.6-2.2-3.7-.5-1.1-.8-1.8-.8-1.8s.8 3.1 2.2 6l1.2 2.1.6.9c.2.3.5.5.7.8l.2.2c-.1 0-.2.1-.4.1-.3.1-.5.2-.8.3-.2-.2-.6-.5-1.1-.9l-.6-.6c-.2-.2-.4-.5-.7-.7-.2-.2-.4-.5-.7-.8-.2-.3-.4-.6-.7-.9l-.6-.9-.6-.9c-.3-.6-.7-1.2-.9-1.7-.5-1-.8-1.7-.8-1.7s.1.7.5 1.8c.1.5.4 1.2.6 1.8.1.3.3.7.4 1 .2.3.3.7.5 1 .2.3.4.7.5 1 .2.3.3.7.6 1l.6.9c.2.3.3.6.6.8.1.2.3.3.4.4h-.1c-.6.2-1.2.3-1.7.5l-.3-.3c-.2-.2-.6-.5-.9-.8l-.6-.6c-.2-.2-.4-.5-.6-.7-.4-.5-.8-1.1-1.2-1.8-.7-1.3-1.3-2.7-1.7-3.7-.4-1.1-.5-1.8-.5-1.8s0 .8.2 1.9c.2 1.1.5 2.6 1.1 4.1l.9 2.1c.2.3.3.6.5.9.2.3.3.6.5.8.1.2.2.3.4.5l-1.8.3c-.1-.1-.2-.3-.4-.5-.4-.4-.7-1.1-1.1-1.7-.4-.6-.7-1.4-1.1-2.1-.2-.4-.3-.7-.5-1.1-.1-.4-.3-.7-.4-1.1-.2-.7-.5-1.4-.6-2l-.5-2v.6c0 .4.1.9.1 1.5.1.6.2 1.3.3 2.1l.3 1.2.3 1.2c.3.8.5 1.6.8 2.3.3.6.5 1.2.8 1.8h-1.8c-.1-.2-.3-.4-.4-.6-.1-.3-.3-.5-.4-.8-.1-.3-.3-.6-.5-.9-.3-.7-.6-1.4-.9-2.2-.3-.8-.5-1.5-.7-2.2-.2-.7-.4-1.4-.5-2l-.5-2s0 .8.1 2c.1.6.1 1.3.2 2.1s.2 1.6.4 2.4c.1.8.4 1.6.5 2.4.1.4.2.8.3 1.1.1.3.2 1 .3 1-.3 0-.6-.1-.8-.1l-.2-.4c-.2-.2-.4-.6-.7-1.1-.3-.5-.6-1-.8-1.7-.3-.6-.5-1.3-.8-2-.5-1.4-.8-2.9-1-4-.2-1.1-.3-1.9-.3-1.9s-.1 3 .4 6.1c.1.8.3 1.5.4 2.2.2.7.4 1.4.6 1.9.1.1.1.3.2.4-.6-.1-1.2-.1-1.8-.2 0 0 0-.1-.1-.1-.1-.1-.2-.3-.2-.5l-.3-.6c-.1-.2-.2-.5-.3-.8l-.3-.9c-.2-.7-.4-1.3-.5-2.1-.1-.7-.3-1.4-.4-2.1-.1-.7-.2-1.3-.3-1.9-.1-1.1-.2-1.8-.2-1.8s-.1.7-.1 1.9v4.1c0 .8.1 1.5.2 2.2 0 .4.1.7.2 1 .1.3.1.6.2.9-.5-.2-1-.3-1.5-.5 0-.1-.1-.1-.1-.2l-.5-1c-.2-.4-.4-1-.5-1.6-.1-.6-.3-1.3-.4-1.9-.4-2.7-.3-5.4-.3-5.4s-.6 2.7-.7 5.5v2.1c0 .5.1 1 .2 1.5-.6-.3-1.2-.7-1.8-1 0-.1-.1-.1-.1-.2-.1-.1-.1-.3-.2-.5-.1-.4-.2-.9-.3-1.5-.1-.6-.1-1.2-.1-1.8-.1-2.3.2-4.7.2-5l.9.3c.4.1.9.2 1.3.4.9.3 1.7.3 2.6.5h1.3c.4 0 .8.1 1.2.1.8 0 1.6.1 2.3.1.8 0 1.5-.1 2.3-.1.7 0 1.4 0 2.1-.2 1.3-.2 2.6-.3 3.6-.6 1.1-.2 1.9-.6 2.7-.9.7-.3 1.3-.6 1.6-.8.4-.2.5-.4.5-.4l-.6.3c-.4.2-1 .4-1.7.6-.8.2-1.6.4-2.7.5-.5 0-1.1.2-1.7.2-.6 0-1.2.1-1.9.1-.6.1-1.3 0-2 0s-1.4-.1-2.1-.1c-.8-.1-1.5-.2-2.3-.3-.4 0-.8-.1-1.2-.2l-.6-.1h-.2s-.1 0 0 0h-.1l-.3-.1c-1.6-.3-3.2-.7-4.6-1.4-.8-.3-1.5-.7-2.2-1.1-.7-.5-1.4-.9-2-1.5-1.3-1.1-2.3-2.3-3.1-3.8-.8-1.4-1.4-2.9-1.8-4.4-.1-.4-.2-.7-.2-1.1-.1-.4-.1-.7-.1-1v-1.1c.1-.3.1-.6.2-1 .3-1.3.9-2.6 1.4-3.8 1.1-2.3 2.2-4.2 2.9-5.5.4-.7.7-1.3 1-1.6 19.9-1.2 40.7-2.3 61.6-3.3.8.3 1.6.6 2.3 1 .8.4 1.6.9 2.3 1.4 1.5 1 2.8 2.2 3.8 3.6.5.7.9 1.4 1.2 2.2.3.8.5 1.6.7 2.4l.1.6.1.7v1.2c-.1.8-.3 1.7-.5 2.5-.3.8-.6 1.6-1.1 2.4-.4.8-.9 1.6-1.4 2.3-1 1.5-2.2 2.9-3.5 4.3-1.3 1.3-2.6 2.6-4 3.9-.9.8-1.9 1.6-2.8 2.3v-.1c-.1-.7-.3-1.4-.6-2.1-.8-1.5-2-2.7-3.4-3.2zm-159.1 27.4c-.4 0-.7.3-.7.7 0 .4.3.5.7.5h8.6c.4 0 .8-.1.8-.6 0-.4-.3-.8-.8-.8-2.2 0-8.5.2-8.6.2z"/><path class="st4" d="M-276.9 755.5c0 .4.3.8.7.8l9.7.5c.4 0 .7-.4.7-.8s-.3-.8-.7-.8l-9.7-.5c-.3 0-.6.4-.7.8zm278.7.4c-20.1 7.5-79.3 26-120 32.5-32.2 5.1-44.3 1.6-57.1-2.2-3.7-1.1-7.6-2.2-11.9-3.1-18.5-3.8-113.2-16.7-116.7-17.2v2c3.6.5 97.9 13.4 116.3 17.1 4.3.9 8.1 2 11.8 3.1 8.4 2.4 16.5 4.8 29.9 4.8 7.4 0 16.5-.7 28.2-2.6C-76.8 783.8-18.1 765.5 2 758v-2.1zm-264.2 27.7c.1-.4-.2-.8-.6-.8-2.4-.3-9.2.1-9.5.2-.4 0-.7.4-.7.8s.4.7.7.7h.1c.1 0 6.9-.5 9.2-.2.4 0 .8-.3.8-.7zm-4.1-6c-2.6.2-10.2-.3-10.2-.3-.4 0-.8.3-.8.7 0 .4.3.8.7.8.3 0 5.7.4 9 .4h1.5c.4 0 .7-.4.7-.8-.1-.5-.5-.8-.9-.8zm5.2-28.7c-2.2-.3-8.9.5-9.2.5-.4.1-.7.4-.7.8s.4.7.7.7h.1c1.9-.2 7.1-.8 8.8-.5.4.1.8-.2.9-.6s-.2-.8-.6-.9z"/><path class="st4" d="M-273.8 765.8c-.4-.1-.8.2-.8.6-.1.4.2.8.6.8l10.7 1.5h.1c.4 0 .7-.3.7-.6.1-.4-.2-.8-.6-.8l-10.7-1.5zm13.2-3.2c.4 0 .7-.3.7-.7 0-.4-.3-.8-.7-.8-2.1-.2-12.7-1.6-12.8-1.7-.4-.1-.8.2-.8.6-.1.4.2.8.6.8.5.2 10.8 1.6 13 1.8zm-4.1-58.7c-2.1.3-14.2 1.3-14.3 1.3-.4 0-.7.4-.7.8s.4.7.7.7h.1c.5 0 12.2-1 14.4-1.3.4-.1.7-.4.6-.9 0-.3-.4-.6-.8-.6zm85.2 18.4c-.9 1-1.9 2.3-2.7 3.8-.4.7-.8 1.5-1.1 2.3-.3.7-.5 1.5-.7 2.1-.2.6-.2 1.2-.2 1.6v.6s.2-.2.4-.5c.3-.3.6-.7 1-1.2s.8-1.1 1.3-1.8c.4-.7.9-1.4 1.3-2.1.8-1.5 1.5-3 1.9-4.3.4-1.2.6-2.1.6-2.1s-.9.7-1.8 1.6zm55.1-19.9s.8 1.2 2.1 2.9 3.2 3.8 5.3 5.7c1 1 2.1 1.9 3.1 2.8 1 .9 2 1.6 2.8 2.3.9.6 1.6 1.1 2.1 1.5.5.3.9.5.9.5s-.2-.3-.6-.8c-.4-.5-.9-1.2-1.6-2.1-.7-.8-1.5-1.8-2.4-2.8-.9-1-1.9-2-2.9-3-2-2-4.2-3.8-5.9-5.1-1.6-1.2-2.9-1.9-2.9-1.9zm-54.2 9.4c-.5.4-1.1 1.1-1.8 1.9-.7.8-1.5 1.7-2.3 2.8-.8 1.1-1.6 2.2-2.3 3.4-.4.6-.7 1.2-1.1 1.9-.3.6-.7 1.2-1 1.9-.5 1.2-.9 2.4-1.2 3.4-.3 1-.5 1.9-.6 2.5-.1.6-.2 1-.2 1s.2-.3.6-.8c.3-.5.8-1.2 1.4-2.1.6-.9 1.2-1.9 1.9-3.1.3-.5.7-1.1 1.1-1.6.4-.6.7-1.1 1.1-1.7.8-1.2 1.5-2.4 2.1-3.5.6-1.1 1.2-2.2 1.7-3.2.5-.9.8-1.8 1.1-2.3.2-.6.4-.9.4-.9s-.5 0-.9.4zm-10.1-1.4c.3-.4.6-.9 1-1.5.4-.5.7-1.1 1.1-1.7.4-.6.9-1.3 1.3-2s.9-1.4 1.3-2.1c.4-.7.9-1.5 1.3-2.3.4-.8.8-1.5 1.3-2.3.4-.8.7-1.5 1.1-2.3.3-.7.7-1.5.9-2.2.3-.7.5-1.4.7-2 .4-1.2.7-2.3.9-3 .2-.7.3-1.2.3-1.2s-1.1 1.4-2.4 3.7c-.3.6-.7 1.2-1.1 1.8-.4.6-.8 1.3-1.2 2-.4.7-.8 1.4-1.2 2.2-.4.7-.9 1.5-1.3 2.2-.4.8-.8 1.5-1.2 2.2-.4.8-.8 1.5-1.2 2.2-.4.7-.7 1.4-1 2.1-.3.7-.6 1.4-.8 2-.5 1.2-.8 2.3-1 3-.1.4-.2.7-.2.9 0 .2-.1.3-.1.3s.1-.1.2-.3c.1-.2.3-.4.5-.7.2-.2.5-.6.8-1zm79.3 14.2c-.2-.2-.5-.4-.8-.7-.3-.3-.6-.5-1-.9-.7-.7-1.5-1.5-2.4-2.3l-1.3-1.3c-.5-.4-.9-.9-1.4-1.3-.9-.9-1.9-1.8-2.7-2.6-.4-.4-.9-.8-1.3-1.2-.4-.4-.8-.7-1.2-1-.8-.6-1.4-1.1-1.9-1.5-.5-.4-.7-.5-.7-.5s.1.3.4.8c.3.5.7 1.2 1.3 2.1.5.8 1.2 1.7 2 2.7.8 1 1.7 1.9 2.7 2.8.9.9 2 1.7 3 2.5.5.4 1 .7 1.5 1 .5.3.9.6 1.4.8.4.3.9.4 1.3.6.4.2.7.3 1 .4.5.2.9.3.9.3s-.3-.3-.8-.7zm-15.9-6.5s.1.3.4.9c.3.5.7 1.3 1.2 2.1.5.9 1.2 1.8 2 2.8.8 1 1.7 2 2.7 2.9 1 .9 2 1.8 3.1 2.5.5.4 1.1.7 1.5 1 .5.3 1 .5 1.4.8.5.2.9.4 1.3.6.4.2.7.3 1 .3.6.2.9.2.9.2s-.3-.2-.7-.6c-.5-.3-1.1-.9-1.8-1.5-.4-.3-.8-.7-1.2-1.1-.4-.4-.8-.8-1.3-1.2-.9-.8-1.8-1.7-2.8-2.7-.9-.9-1.9-1.8-2.7-2.7-.9-.8-1.7-1.6-2.5-2.3-.7-.7-1.4-1.2-1.8-1.6-.4-.2-.7-.4-.7-.4zm-65.5 4.9s.3-.4.8-1.1c.3-.4.6-.8.9-1.3.3-.5.8-1 1.2-1.6.5-.6.9-1.2 1.4-1.9.5-.7 1.1-1.4 1.6-2.2.5-.8 1.1-1.5 1.7-2.3.5-.8 1.1-1.6 1.7-2.5l.8-1.3c.2-.4.5-.9.7-1.3.5-.9.9-1.7 1.4-2.6.5-.8.8-1.7 1.1-2.5.3-.8.6-1.6.9-2.3.5-1.4.9-2.6 1.1-3.5.2-.9.3-1.3.3-1.3s-.3.4-.7 1.2c-.5.7-1.1 1.8-1.8 3.1-.4.6-.8 1.3-1.2 2.1-.4.7-.8 1.5-1.3 2.3l-1.5 2.4c-.2.4-.5.8-.7 1.2l-.8 1.2c-1.1 1.7-2.1 3.4-3.1 4.9-1 1.6-1.8 3.1-2.5 4.5-.7 1.3-1.2 2.5-1.5 3.3-.3 1-.5 1.5-.5 1.5zm73.2-20.5c.7.7 1.5 1.5 2.3 2.2.4.4.8.7 1.2 1.1.4.4.8.7 1.2 1 .8.7 1.5 1.2 2.2 1.7 1.3 1 2.4 1.5 2.4 1.5s-.5-1-1.5-2.3c-.5-.7-1.1-1.4-1.8-2.2-.7-.8-1.5-1.5-2.3-2.2-.8-.7-1.6-1.4-2.5-2-.8-.6-1.6-1.2-2.3-1.6-1.4-.9-2.4-1.3-2.4-1.3s.1.2.4.6c.3.4.7.9 1.2 1.6l1.9 1.9zM-273 736.9c-.4 0-.7.4-.7.8s.4.7.7.7h.1l7.2-.5c.4 0 .7-.4.7-.8s-.4-.7-.8-.7l-7.2.5zm-7.5-20.7c-.1.4.2.8.6.9.6.1 5 1 8.1 1 1.1 0 2.1-.1 2.7-.4.4-.2.5-.6.4-1-.2-.4-.6-.5-1-.4-1.4.7-6.8-.1-9.9-.7-.4-.1-.8.2-.9.6zm3.9-3.8h.2c.3-.1 7.3-1.5 9-2.2.4-.2.6-.6.4-1-.2-.4-.6-.6-1-.4-1.3.5-6.3 1.6-8.7 2.1-.4.1-.7.5-.6.9 0 .4.3.6.7.6zm0 12.5c3.2-.1 8.8 0 10.2.9.1.1.3.1.4.1.3 0 .5-.1.6-.4.2-.4.1-.8-.2-1-2.3-1.4-10.2-1.1-11.1-1.1-.4 0-.7.4-.7.8.1.4.4.8.8.7zm13.9 5.2c-.1-.4-.6-.6-.9-.5-3.8 1.3-11 .8-11 .8-.4 0-.8.3-.8.7 0 .4.3.8.7.8.1 0 1.5.1 3.3.1 2.5 0 6-.2 8.4-1 .2-.1.4-.5.3-.9zm-41.3-46.3H1.8v1H-304zm21.3 11c0 .4.3.8.7.8.2 0 4.6.4 7.1.4h1.1c.4 0 .7-.4.7-.8s-.4-.7-.8-.7c-1.9.2-8-.3-8-.3-.4-.1-.8.2-.8.6zm-.8 6.2c0 .4.3.8.8.8.2 0 .5-.1 1.4-.2 2.2-.4 7.2-1.4 9.3-1 .4.1.8-.2.9-.6.1-.4-.2-.8-.6-.9-2.4-.6-7.5.5-9.9.9-.6.1-1 .2-1.1.2-.5.1-.8.4-.8.8zm16.4-11.7c-3-.9-11.2.7-11.5.8-.4.1-.7.5-.6.9.1.4.4.6.7.6h.1c2.3-.5 8.6-1.5 10.8-.8.4.1.8-.1.9-.5.3-.5 0-.9-.4-1z"/></g><g><defs><path id="SVGID_7_" d="M-304.1 683.8h306v111h-306z"/></defs><clipPath id="SVGID_8_"><use xlink:href="#SVGID_7_" overflow="visible"/></clipPath><path class="st5" d="M-304.1 793.8h306v1h-306z"/></g></svg>