<svg id="Layer_1" xmlns="http://www.w3.org/2000/svg" viewBox="-152 341 305.8 112"><style>.st0{fill:#fcdca4}.st1{fill:#f0a732}</style><path class="st0" d="M3.8 352c4.7-.1 13.8 9.6 15.6 11.5 8 8.2 16.4 16.3 25.6 23.1 9.3 6.9 20.5 12.1 31.5 15.6 10.3 3.3 22.4 5.3 32.7.9 2.6-1.1 4.9-2.5 7.1-4.2.5-.4-.2-1.1-.7-.7-10.1 8-23.5 7.3-35.3 4.1-11.5-3.1-22.9-8.5-32.7-15.1-10-6.7-18.9-15.5-27.2-24.1-2.8-2.9-5.8-5.8-9-8.3-1.7-1.3-3.9-3-6.1-3.5 7-2.7 17.2 6.8 21.9 10.7 5.6 4.6 11 8.9 17.1 12.6 5 3 10.1 5.9 15.4 8.4 8 3.7 16.7 6.1 25.3 7.6 7.9 1.4 17.4 2.2 24.7-1.8 1.9-1.1 3.6-2.6 4.8-4.5.4-.5-.5-1-.9-.5-4.9 7.5-16 7.2-23.8 6.4-9.4-1-18.7-3.6-27.4-7.2-4.8-2-9.3-4.5-13.7-7.1-6.6-3.8-13.1-8-18.8-13-3.5-3-7-6-10.8-8.6-2.8-1.9-6.1-3.8-9.5-4.3.6-.1 1.1-.1 1.4-.2 4.6-.5 8.8 0 13.3 1.3 11.9 3.6 22.2 11.4 33.4 16.6 17.2 8 41.6 14.6 57.3.1.5-.4-.2-1.1-.7-.7-17.7 16.3-46.3 5.5-64.4-4.5-6.2-3.4-12.2-7-18.7-9.9-5-2.2-10.8-4.4-16.4-4.2-1.6.1-9.5.5-12.5 2.5-.3 0-.6 0-.7.2-.1.2-.2.4-.3.7-.1.2-.2.3-.2.5-.1.1-.1.2-.2.3-.1-.1-.1-.2-.2-.3 0-.2-.1-.3-.2-.5s-.2-.5-.3-.7c-.1-.3-.4-.3-.6-.2-3-2-10.9-2.4-12.5-2.5-5.6-.2-11.4 1.9-16.4 4.2-6.4 2.9-12.5 6.5-18.7 9.9-18.1 10-46.7 20.8-64.4 4.5-.5-.4-1.2.3-.7.7 15.7 14.5 40.1 7.8 57.3-.1 11.2-5.2 21.5-13 33.4-16.6 4.5-1.4 8.7-1.9 13.3-1.3.2 0 .7.1 1.4.2-3.4.6-6.7 2.4-9.5 4.3-3.8 2.6-7.3 5.6-10.8 8.6-5.8 5-12.2 9.2-18.8 13-4.5 2.5-9 5.1-13.7 7.1-8.7 3.6-18 6.2-27.4 7.2-7.8.8-18.9 1.1-23.8-6.4-.3-.5-1.2 0-.9.5 1.2 1.9 2.8 3.4 4.8 4.5 7.4 4 16.8 3.1 24.7 1.8 8.6-1.5 17.3-4 25.3-7.6 5.3-2.4 10.4-5.4 15.4-8.4 6.2-3.8 11.6-8.1 17.1-12.6 4.7-3.9 14.9-13.3 21.9-10.7-2.3.6-4.4 2.2-6.1 3.5-3.2 2.5-6.2 5.4-9 8.3-8.4 8.6-17.3 17.4-27.2 24.1-9.8 6.6-21.3 12-32.7 15.1-11.8 3.2-25.2 3.9-35.3-4.1-.5-.4-1.2.3-.7.7 2.2 1.7 4.5 3.1 7.1 4.2 10.3 4.4 22.4 2.5 32.7-.9 11-3.6 22.2-8.8 31.5-15.6 9.2-6.8 17.6-14.9 25.6-23.1 1.8-1.8 10.9-11.6 15.6-11.5v.1H-2c-.5-.1-.8.4-.5.8-1.1.7-2.2 2.1-2.7 2.7-2.7 3.1-5 6.4-7.4 9.6-7.2 9.8-15.3 18.7-24.8 26.4-19.6 15.9-47.3 34.1-72.5 19.1-.6-.3-1.1.5-.5.9 22.9 13.7 48.2.2 67.1-14.1 10.2-7.7 19.7-16.3 27.5-26.5 1.4-1.8 10.8-15.4 13.9-17.3.2.3.3.6.5.9-.2 1.6-1 3.5-1.5 4.5-1.6 3.6-3.7 7.1-5.9 10.4-4.9 7.5-10.4 14.7-16.2 21.6-4.2 5-8.5 9.7-13.5 13.8-9.9 8.1-20.8 15.4-32.6 20.2-11.5 4.7-24.4 7.2-36.4 2.6-.6-.2-.9.7-.3 1 17.1 6.6 36-.7 50.8-9.5 8.3-4.9 16.8-10.6 23.7-17.4 5.3-5.2 10-11 14.6-16.8 5.2-6.7 10.4-13.5 14.5-21 1-1.8 3.2-5.3 3.8-8.3.2-.1.5-.4.3-.7 0-.1.1-.2.1-.3 0 .1.1.1.2 0 .1.3.1.5.1.8-.1 1-.1 2 0 3-.2 1.5-.5 2.9-1 4.3-3.2 9.7-9.7 17.6-14.8 26.2-6.9 11.7-15.8 21.8-26.9 29.7-9.7 6.9-20 13.1-31.2 17.3-11.2 4.2-24.1 6.8-35.4 1.7-.6-.3-1.1.6-.5.9 7.9 3.5 16.6 3.6 25 1.8 11.7-2.6 22.7-8 32.9-14.3 10.2-6.3 19.9-13.5 27.5-22.9 3.8-4.7 7-9.7 10.2-14.7 2.6-4.1 5.3-8 7.8-12.2 2.4-4 5.6-9.3 7-14.6 1.3 5.3 4.6 10.6 7 14.6 2.5 4.1 5.2 8.1 7.8 12.2 3.2 5.1 6.4 10.1 10.2 14.7 7.6 9.4 17.3 16.6 27.5 22.9 10.1 6.3 21.2 11.7 32.9 14.3 8.3 1.8 17.1 1.8 25-1.8.6-.3.1-1.1-.5-.9-11.3 5.1-24.2 2.5-35.4-1.7-11.1-4.2-21.5-10.4-31.2-17.3-11.1-7.9-20-18-26.9-29.7-5.1-8.6-11.6-16.6-14.8-26.2-.5-1.4-.8-2.9-1-4.3.1-1 .1-2 0-3 0-.3.1-.6.1-.9.2.2.4.2.4.1v.3c-.1.3.1.6.3.7.6 3.1 2.8 6.5 3.8 8.3 4.1 7.4 9.3 14.3 14.5 21 4.6 5.8 9.3 11.6 14.5 16.8C42 408.3 50.5 414 58.8 419c14.8 8.8 33.8 16.1 50.8 9.5.6-.2.3-1.2-.3-1-12 4.6-24.9 2.1-36.4-2.6-11.9-4.8-22.8-12.1-32.6-20.2-5-4.1-9.3-8.9-13.5-13.8-5.8-6.9-11.3-14-16.2-21.6-2.2-3.3-4.3-6.8-5.9-10.4-.5-1.1-1.3-2.9-1.5-4.5.1-.3.3-.6.5-.9 3.2 1.9 12.5 15.5 13.9 17.3 7.8 10.2 17.3 18.8 27.5 26.5 18.9 14.3 44.2 27.8 67.1 14.1.6-.3.1-1.2-.5-.9-25.2 15.1-52.8-3.1-72.5-19.1-9.5-7.7-17.6-16.6-24.8-26.4-2.4-3.3-4.7-6.6-7.4-9.6-.5-.6-1.6-2-2.7-2.7.4-.3.1-.7-.5-.7.1 0 0 0 0 0z"/><path class="st1" d="M26.2 407.4c-2-7.2-3-14.9-4.4-22.3-1.6-8.1-3.2-16.2-5.2-24.2-.9-3.9-1.5-8.7-4.2-11.8-3-3.4-9.3-3.7-13.2-3.2-15.2 1.8-17.6 18.5-20 31.1-3.4 18.2-7.7 36.1-11 54.3-.1.4 0 .7.1 1 .5 5.6 10.4 6.4 14.4 2.7 3-2.7 4.2-7.9 6-11.4 3.4-6.7 6.1 4.6 6.9 7.1 2.1 6.3 6.1 7.8 9.6 1.4 1.8-3.3 2.1-7.2 4-10.4 1.8-3 8.2 7.9 9 9 2.9 4 9.8 9.3 12.5 1.7 2.9-7.7-2.4-17.5-4.5-25z"/><path class="st1" d="M31.7 425.2c-.1-2.6-.7-5.1-1.6-7.6-.8-3.1-1.9-6.2-2.8-9.3v-.3c0-.1-.1-.2-.1-.3l-.6-2.1c-1.1-4.2-2.1-8.4-3.2-12.6-.8-3-1.2-6-1.8-9 0-.3-.1-.6-.1-.9-.9-5.8-2.1-11.5-3.5-17.2-.4-3.2-.8-6.7-2.1-9.7-.4-1-1-2-1.6-2.9-.2-.3-.3-.6-.5-.9 0-.1-.1-.1-.1-.2-1.4-2.3-3.2-4.2-5.7-5.3-2.1-1.4-4.9-1.2-7.7-.3-2.3.3-4.4 1.2-6.4 2.4-2.2 1.1-4.1 2.6-5.8 4.4-5.4 5.2-7.1 13-8.6 20.5-2.7 13.5-6.7 26.6-8.6 40.3-.5 3.5-.5 7.1-1.4 10.6-.5 2-1.5 4.5-1.1 6.7.1 1.1.3 2.1.7 3.2.6 1.4 1.7 2.2 2.9 2.7.4.2.9.3 1.4.3.6.1 1.2.1 1.7.2.1.1.2.2.4.2 3.4-.1 6.9-1.2 9-4.1 1.3-1.8 2.3-3.9 3.4-5.9.2-.4.5-1.1.9-1.9l.3-.6c.7-1.4 1.5-2.9 2.5-3.1 1.8 1.2 3.3 6.1 3.8 7.3.8 2.1 1.8 5.8 4 6.9 6.2 2.9 9.3-9.4 10.6-13.7.6-.6 1.3-.7 1.9.2 2 2.6 3.8 5.4 5.9 7.9 2.5 2.9 7.3 7.4 10.7 5l.1.1c.2.2.5.4.7.1 0 0 0-.1.1-.1 2.3-3.3 2.7-7.1 2.3-11zm-1.1 3.2c-.2 1-.4 2-.7 2.9l-.3.9c-.2.6-.5 1.2-1 1.7-.1.1-.1.3-.1.4-4.3 5.9-13.2-7.8-15.4-10.9-1.1-1.5-2-3-3.9-1.6-.2 0-.3.1-.4.3-1.7 1.6-2.1 4.7-2.8 6.8-.1.2 0 .3.1.4-1 2.5-2.3 4.9-5.3 5.2-.1 0-.2 0-.2.1-.3 0-.6.1-.9.1-4.8-3.4-2.6-13.1-8.9-14.9 0-.3-.4-.6-.7-.4-1.1.7-2 1.5-2.8 2.4l-.6.6s0 .1-.1.1c-.4.1-.7.3-1 .7-.7.9-1.3 1.8-1.9 2.8-.3.1-.5.3-.7.6-.2.3-2.1 2.7-4 4.6-.3.3-.6.5-.9.7-.2-.1-.4-.1-.6-.1-.9-.6-1.8-1.2-2.8-1.8l-.1-.1c-.1-2.6 1.4-5.9 2-7.7 1.5-4.8 2.3-9.8 3.2-14.7 1.4-7.8 3-15.5 5-23.2 3.4-13.4 8.7-28.9 23.6-32.7l.6-.3c.7.1 1.4.4 2.1.7.8.6 1.6 1.3 2.3 2 .9 1.9 1.5 4.1 2.1 6.3.6 2.3 1.1 4.7 1.7 7v.3c.8 6.2 2.4 12.1 3.7 18.1 1 6.4 2 12.8 3.7 19 .1.5.3 1.1.5 1.6 0 .1.1.2.1.3 1.3 4.2 3.4 8.5 4.7 12.8.3 1 .5 2 .7 3.1.2 2.1.3 4 0 5.9zm-55.3-73.8c-4.7 2.6-9 5.8-13.5 8.8-4.5 2.9-9.2 5.5-14.1 7.8-9.6 4.6-19.4 10.3-30.2 11.2-10.7.9-20.8-2.6-30.5-6.7-5.1-2.1-10.5-3.3-15.4-5.9-3.9-2-6.7-5.8-10.9-7.2-.6-.2-.9.8-.3 1 4.6 1.5 7.9 5.8 12.3 7.9 4.7 2.3 10 3.5 14.9 5.5 9.9 4.1 19.9 7.2 30.8 6.3 10.1-.8 19.3-6.3 28.3-10.5 5.1-2.4 10.2-5 15-8.1 4.8-3.1 9.3-6.6 14.2-9.2.5-.4 0-1.2-.6-.9zm3.7-1.8v1c1 0 1-1 0-1z"/><path class="st1" d="M-25.2 365.6c-4.2 3.1-8.3 6.5-12.2 9.9-4.2 3.7-8.2 7.1-13.1 9.7-4.2 2.2-8.7 4-12.9 6.1-5.2 2.5-10.5 4.2-16.2 4.8-23 2.4-44.9-8.5-65.2-17.7-.6-.3-1.1.6-.5.9 20.7 9.4 42.4 19.9 65.7 17.9 10-.9 19.3-5.9 28.2-10.3 10.2-5 17.8-13.6 26.8-20.3.4-.5-.1-1.4-.6-1zm5.2-5.6c-.6 0-.6 1 0 1 .7 0 .7-1 0-1z"/><path class="st1" d="M-112.8 405.5c5.5 1.6 10.7 3.7 16.4 4.5 5 .7 10.2.8 15.2 0 10.3-1.5 19.8-5.8 28.6-11.3 5.1-3.2 9.4-7.1 14.2-10.7 2-1.5 3.9-2.9 5.8-4.6 2-1.9 4-3.8 6.4-5.2.6-.3.1-1.2-.5-.9-4.3 2.4-7.4 6.5-11.5 9.3-4.7 3.2-8.7 7.2-13.5 10.3-8.8 5.8-18.5 10.3-29 12-5.7.9-11.5.8-17.2-.2-5.6-.9-10.9-3.2-16.4-4.8-2.8-.8-5.5-1.3-8.4-1.8-3.2-.6-6-1.8-8.9-3.2-4.5-2.2-8.9-4.5-14-4.8-.6 0-.6 1 0 1 5.7.3 10.6 3.4 15.7 5.7 5.5 2.6 11.5 3 17.1 4.7zm88.8-32v1c1 0 1-1 0-1z"/><path class="st1" d="M-28.3 389.5c-1.8.6-3.3 1.8-4.7 3.1l-6 5.4c-4.1 3.6-8.3 7-12.7 10.1-8.9 6.4-18.9 11.6-29.7 13.5-6 1.1-12.2-.2-18.2-1.2-5.9-1-11.7-1.2-17.6-1.8-8.9-1-18-7.2-27.1-4.8-.6.2-.4 1.1.3 1 4.8-1.3 9.8.3 14.4 1.7 4.5 1.4 8.7 2.8 13.4 3.3 6.1.7 12.1.9 18.2 2 5.3.9 10.7 1.8 16 1 10.5-1.5 20.2-6.5 28.9-12.3 4.1-2.8 8-5.9 11.8-9 2.1-1.8 4.2-3.6 6.2-5.4 2.2-1.9 4.3-4.6 7.1-5.5.5-.3.3-1.3-.3-1.1zm2.3-2.7c-.6 0-.6 1 0 1 .7 0 .7-1 0-1z"/><path class="st1" d="M-30.8 403.9c-3.5 3.3-7.7 5.8-11.2 9-3.9 3.5-8 6.7-12.4 9.5-8.7 5.5-18.4 9.4-28.5 11.1-5.8.9-11.5.5-17.3-.2-5.5-.7-11-1.2-16.4-2.3-9.3-1.9-18.9-4.9-28.4-3-.6.1-.4 1.1.3 1 10.5-2.1 21 1.8 31.2 3.6 5 .9 10.2 1.3 15.2 1.9 5.5.7 11 .7 16.5-.2 10-1.6 19.4-5.7 27.9-11.1 4-2.5 7.8-5.4 11.4-8.6 4-3.5 8.6-6.4 12.5-10.1.4-.3-.3-1-.8-.6zm1.8-3.4v1c1 0 1-1 0-1zm5.4-54.2c-4.4 1.3-8.8 2.2-13.2 3.3-4.2 1.1-8.2 2.6-12.1 4.4-8.6 3.9-16.7 8.8-26.1 10.8-4.9 1.1-10.1 1.2-15.1.4-4.2-.7-8.4-2.4-12.5-3.8-8.6-3-17.1-6.6-24.3-12.5-.5-.4-1.2.3-.7.7 6.6 5.4 14.3 9 22.3 11.9 8.7 3.2 17.4 6.2 26.9 4.9 9.4-1.3 17.6-5.5 26-9.6 4.5-2.3 9.2-4.3 14.1-5.7 5-1.4 10.1-2.2 15-3.8.6-.3.3-1.2-.3-1zm4.9-.5h-.3c-.6 0-.6 1 0 1h.2c.7 0 .7-1 .1-1z"/><path class="st1" d="M-36.1 419.4c-21.3 21.4-56.8 37.1-85.6 21.7-.6-.3-1.1.6-.5.9 29.3 15.7 65.3-.1 86.9-21.8.4-.6-.3-1.3-.8-.8zm3.9-2.6h-.2c-.6 0-.6 1 0 1h.2c.6 0 .6-1 0-1zM26.5 354.6c4.7 2.6 9 5.8 13.5 8.8 4.5 2.9 9.2 5.5 14.1 7.8 9.6 4.6 19.4 10.3 30.2 11.2 10.7.9 20.8-2.6 30.5-6.7 5.1-2.1 10.5-3.3 15.4-5.9 3.9-2 6.7-5.8 10.9-7.2.6-.2.9.8.3 1-4.6 1.5-7.9 5.8-12.3 7.9-4.7 2.3-10 3.5-14.9 5.5-9.9 4.1-19.9 7.2-30.8 6.3-10.1-.8-19.3-6.3-28.3-10.5-5.1-2.4-10.2-5-15-8.1-4.8-3.1-9.3-6.6-14.2-9.2-.4-.4.1-1.2.6-.9zm-3.5-1.8v1c-1 0-1-1 0-1z"/><path class="st1" d="M27 365.6c4.2 3.1 8.3 6.5 12.2 9.9 4.2 3.7 8.2 7.1 13.1 9.7 4.2 2.2 8.7 4 12.9 6.1 5.2 2.5 10.5 4.2 16.2 4.8 23 2.4 44.9-8.5 65.2-17.7.6-.3 1.1.6.5.9-20.7 9.4-42.4 19.9-65.7 17.9-10-.9-19.3-5.9-28.2-10.3-10.2-5-17.8-13.6-26.8-20.3-.4-.5.1-1.4.6-1zm-5-5.6v1c-1 0-1-1 0-1z"/><path class="st1" d="M114.6 405.5c-5.5 1.6-10.7 3.7-16.4 4.5-5 .7-10.2.8-15.2 0-10.3-1.5-19.8-5.8-28.6-11.3-5.1-3.2-9.4-7.1-14.2-10.7-2-1.5-3.9-2.9-5.8-4.6-2-1.9-4-3.8-6.4-5.2-.6-.3-.1-1.2.5-.9 4.3 2.4 7.4 6.5 11.5 9.3 4.7 3.2 8.7 7.2 13.5 10.3 8.8 5.8 18.5 10.3 29 12 5.7.9 11.5.8 17.2-.2 5.6-.9 10.9-3.2 16.4-4.8 2.8-.8 5.5-1.3 8.4-1.8 3.2-.6 6-1.8 8.9-3.2 4.5-2.2 8.9-4.5 14-4.8.6 0 .6 1 0 1-5.7.3-10.6 3.4-15.7 5.7-5.5 2.6-11.5 3-17.1 4.7zm-88.6-32v1c-1 0-1-1 0-1z"/><path class="st1" d="M30.2 389.5c1.8.6 3.3 1.8 4.7 3.1l6 5.4c4.1 3.6 8.3 7 12.7 10.1 8.9 6.4 18.9 11.6 29.7 13.5 6 1.1 12.2-.2 18.2-1.2 5.9-1 11.7-1.2 17.6-1.8 8.9-1 18-7.2 27.1-4.8.6.2.4 1.1-.3 1-4.8-1.3-9.8.3-14.4 1.7-4.5 1.4-8.7 2.8-13.4 3.3-6.1.7-12.1.9-18.2 2-5.3.9-10.7 1.8-16 1-10.5-1.5-20.2-6.5-28.9-12.3-4.1-2.8-8-5.9-11.8-9-2.1-1.8-4.2-3.6-6.2-5.4-2.2-1.9-4.3-4.6-7.1-5.5-.6-.3-.3-1.3.3-1.1zm-2.2-2.7v1c-1 0-1-1 0-1z"/><path class="st1" d="M32.6 403.9c3.5 3.3 7.7 5.8 11.2 9 3.9 3.5 8 6.7 12.4 9.5 8.7 5.5 18.4 9.4 28.5 11.1 5.8.9 11.5.5 17.3-.2 5.5-.7 11-1.2 16.4-2.3 9.3-1.9 18.9-4.9 28.4-3 .6.1.4 1.1-.3 1-10.5-2.1-21 1.8-31.2 3.6-5 .9-10.2 1.3-15.2 1.9-5.5.7-11 .7-16.5-.2-10-1.6-19.4-5.7-27.9-11.1-4-2.5-7.8-5.4-11.4-8.6-4-3.5-8.6-6.4-12.5-10.1-.3-.3.4-1 .8-.6zm-1.6-3.4v1c-1 0-1-1 0-1zm-5.6-54.2c4.4 1.3 8.8 2.2 13.2 3.3 4.2 1.1 8.2 2.6 12.1 4.4 8.6 3.9 16.7 8.8 26.1 10.8 4.9 1.1 10.1 1.2 15.1.4 4.2-.7 8.4-2.4 12.5-3.8 8.6-3 17.1-6.6 24.3-12.5.5-.4 1.2.3.7.7-6.6 5.4-14.3 9-22.3 11.9-8.7 3.2-17.4 6.2-26.9 4.9-9.4-1.3-17.6-5.5-26-9.6-4.5-2.3-9.2-4.3-14.1-5.7-5-1.4-10.1-2.2-15-3.8-.6-.3-.3-1.2.3-1zm-4.9-.5h.2c.6 0 .6 1 0 1h-.2c-.6 0-.6-1 0-1z"/><path class="st1" d="M37.9 419.4c21.3 21.4 56.8 37.1 85.6 21.7.6-.3 1.1.6.5.9-29.3 15.7-65.3-.1-86.9-21.8-.4-.6.3-1.3.8-.8zm-3.9-2.6h.2c.6 0 .6 1 0 1H34c-.6 0-.6-1 0-1z"/></svg>