<svg id="Layer_1" xmlns="http://www.w3.org/2000/svg" viewBox="-152 341 305.8 112"><style>.st0{fill:#d72050}.st1{fill:#f0a732}</style><path class="st0" d="M34.3 426.6c-1.1-2.6-2.2-5.2-3-8-.9-3.4-1.2-6.9-1.5-10.4-.8-8.1-1.3-16.3-2.1-24.4-.3-4-.9-8-1.2-12-.2-3.2-.3-6.4-.7-9.6-.6-4.5-1.7-8.7-4.6-12.3-1.3-1.6-3.1-3.2-4.7-2.7v.2c-5.8-1.9-13.2-1.4-18.9-1.4-4.3 0-9.2-.2-12.8 1.6l-.1-.4c-1.6-.5-3.5 1.2-4.7 2.7-2.9 3.6-4 7.8-4.6 12.3-.4 3.2-.5 6.4-.7 9.6-.3 4-.8 8-1.2 12-.7 8.1-1.2 16.3-2.1 24.4-.4 3.5-.6 7-1.5 10.4-.7 2.7-1.9 5.4-3 8-1.9 4.6-3.9 9.5-3.2 14.6.6 4.2 4.4 8.1 8.7 7.9 4.5-.2 8.3-4.3 12.1-6.2 3.4-1.7 6.2-.8 8.9 1.5 1.5 1.3 2.9 2.5 4.6 3.4.5.8 1.3 1.1 2.2 1.1.1 0 .2.1.3.1v-.2h.1v.2c2.8-1 4.9-2.7 7.1-4.6 2.7-2.3 5.6-3.2 8.9-1.5 3.8 1.9 7.6 6 12.1 6.2 4.3.2 8.2-3.8 8.7-7.9.9-5.1-1.2-10-3.1-14.6z"/><path class="st1" d="M-26.7 346.9c-11 13.8-8.8 30.7-9.2 47.2-.2 10.2-2.9 20.2-5.9 29.9-2.7 8.7-6.3 16.1-1.3 24.6 1.6 2.8 5.9.3 4.3-2.5-4.9-8.3 1-17.7 3.4-25.9 2.3-8 4-16.2 4.5-24.5.8-15.3-2.6-32.2 7.8-45.2 1.9-2.5-1.6-6.1-3.6-3.6z"/><path class="st1" d="M-39.8 398c1.8-16.7-3.4-33.9 7.7-48.4 2-2.6-2.4-5-4.3-2.5-10.8 14.2-7.4 31.2-8.1 47.8-.3 9-4.1 17.8-6.7 26.4-2.5 8.5-3.6 17.1-1.5 25.7.8 3.1 5.6 1.8 4.8-1.3-4-16.7 6.4-31.5 8.1-47.7z"/><path class="st1" d="M-48.2 394.7c1.4-13.7-5.1-31.1 5.1-42.6 2.1-2.4-1.4-6-3.5-3.5-10.2 11.5-6.4 26.8-6.3 40.7.1 8.8-3 17.3-5.5 25.6-2.6 8.9-4.4 17.8-3.3 27.1.4 3.2 5.4 3.2 5 0-2-16.7 6.8-31 8.5-47.3z"/><path class="st1" d="M-57.2 375c-.7-7.2 1.3-12.9 3.3-19.6.9-3.1-3.9-4.4-4.8-1.3-1.7 5.8-3.9 11.2-3.8 17.3.1 7.2 1.7 14.2 1.2 21.4-.9 13.9-8.2 26.5-8.2 40.6 0 3.2 5 3.2 5 0 0-13.5 6.7-25.6 8-38.9.8-6.6 0-13-.7-19.5z"/><path class="st1" d="M-63.5 362.7c1.1-3.1-3.8-4.4-4.8-1.3-3.7 10.8.8 21.9-.8 32.9-1.5 11-6.2 21.3-7.3 32.4-.3 3.2 4.7 3.2 5 0 1.2-11.2 5.8-21.7 7.4-32.9 1.4-10.4-3-20.9.5-31.1z"/><path class="st1" d="M-70.8 368.7c1.2-3-3.6-4.3-4.8-1.3-3.1 7.4-1.8 15.5-1.7 23.3 0 9.2-4.7 17.8-5 27.1-.1 3.2 4.9 3.2 5 0 .3-8.8 4.1-16.9 5-25.7.7-8-1.8-15.7 1.5-23.4zm-8.3 4.9c1.4-2.9-2.9-5.4-4.3-2.5-3.1 6.2-1.6 12-1.3 18.6.2 7.5-4.3 14.4-4.3 22 0 3.2 5 3.2 5 0 0-6.3 2.9-12 4-18.1 1.1-6.7-2.3-13.6.9-20z"/><path class="st1" d="M-87.3 391.5c1.1-4.9-.6-9.9.8-14.8.9-3.1-3.9-4.4-4.8-1.3-1.6 5.4 0 10.8-1.2 16.2-1 4.7-3.5 8.5-2.9 13.5.3 3.2 5.3 3.2 5 0-.5-4.9 2-9 3.1-13.6zm-7.5-3.5c1-3.1 1.2-6.1.7-9.3-.6-3.2-5.4-1.8-4.8 1.3 1.2 6.8-4 13-3 20 .5 3.2 5.3 1.8 4.8-1.3-.6-3.7 1.2-7.3 2.3-10.7zm-11.6-6.3c-.4 4.3-1.9 8.3-2 12.7-.1 3.2 4.9 3.2 5 0 .1-4.3 1.6-8.4 2-12.7.3-3.2-4.7-3.2-5 0zm-7.3 1.7c-.8 2.8-1.7 5.4-1.8 8.3-.1 3.2 4.9 3.2 5 0 .1-2.4.9-4.7 1.6-7 1-3.1-3.9-4.4-4.8-1.3zm-6.9.1c-3 0-3 5 0 5 4 0 4-5 0-5zM28.3 346.9c11 13.8 8.8 30.7 9.2 47.2.2 10.2 2.9 20.2 5.9 29.9 2.7 8.7 6.3 16.1 1.3 24.6-1.6 2.8-5.9.3-4.3-2.5 4.9-8.3-1-17.7-3.4-25.9-2.3-8-4-16.2-4.5-24.5-.8-15.3 2.6-32.2-7.8-45.2-1.9-2.5 1.6-6.1 3.6-3.6z"/><path class="st1" d="M41.4 398c-1.8-16.7 3.4-33.9-7.7-48.4-2-2.6 2.4-5 4.3-2.5 10.8 14.2 7.4 31.2 8.1 47.8.3 9 4.1 17.8 6.7 26.4 2.5 8.5 3.6 17.1 1.5 25.7-.8 3.1-5.6 1.8-4.8-1.3 4-16.7-6.3-31.5-8.1-47.7z"/><path class="st1" d="M49.8 394.7c-1.4-13.7 5.1-31.1-5.1-42.6-2.1-2.4 1.4-6 3.5-3.5 10.2 11.5 6.4 26.8 6.3 40.7-.1 8.8 3 17.3 5.5 25.6 2.6 8.9 4.4 17.8 3.3 27.1-.4 3.2-5.4 3.2-5 0 2.1-16.7-6.8-31-8.5-47.3z"/><path class="st1" d="M58.8 375c.7-7.2-1.3-12.9-3.3-19.6-.9-3.1 3.9-4.4 4.8-1.3 1.7 5.8 3.9 11.2 3.8 17.3-.1 7.2-1.7 14.2-1.2 21.4.9 13.9 8.2 26.5 8.2 40.6 0 3.2-5 3.2-5 0 0-13.5-6.7-25.6-8-38.9-.8-6.6 0-13 .7-19.5z"/><path class="st1" d="M65.1 362.7c-1.1-3.1 3.8-4.4 4.8-1.3 3.7 10.8-.8 21.9.8 32.9 1.5 11 6.2 21.3 7.3 32.4.3 3.2-4.7 3.2-5 0-1.2-11.2-5.8-21.7-7.4-32.9-1.4-10.4 3-20.9-.5-31.1z"/><path class="st1" d="M72.5 368.7c-1.2-3 3.6-4.3 4.8-1.3 3.1 7.4 1.8 15.5 1.7 23.3 0 9.2 4.7 17.8 5 27.1.1 3.2-4.9 3.2-5 0-.3-8.8-4.1-16.9-5-25.7-.8-8 1.7-15.7-1.5-23.4z"/><path class="st1" d="M80.7 373.6c-1.4-2.9 2.9-5.4 4.3-2.5 3.1 6.2 1.6 12 1.3 18.6-.2 7.5 4.3 14.4 4.3 22 0 3.2-5 3.2-5 0 0-6.3-2.9-12-4-18.1-1.1-6.7 2.3-13.6-.9-20zm8.3 17.9c-1.1-4.9.6-9.9-.8-14.8-.9-3.1 3.9-4.4 4.8-1.3 1.6 5.4 0 10.8 1.2 16.2 1 4.7 3.5 8.5 2.9 13.5-.3 3.2-5.3 3.2-5 0 .4-4.9-2.1-9-3.1-13.6zm7.4-3.5c-1-3.1-1.2-6.1-.7-9.3.6-3.2 5.4-1.8 4.8 1.3-1.2 6.8 4 13 3 20-.5 3.2-5.3 1.8-4.8-1.3.6-3.7-1.2-7.3-2.3-10.7zm11.6-6.3c.4 4.3 1.9 8.3 2 12.7.1 3.2-4.9 3.2-5 0-.1-4.3-1.6-8.4-2-12.7-.3-3.2 4.7-3.2 5 0zm7.3 1.7c.8 2.8 1.7 5.4 1.8 8.3.1 3.2-4.9 3.2-5 0-.1-2.4-.9-4.7-1.6-7-1-3.1 3.9-4.4 4.8-1.3zm7.1.1c3 0 3 5 0 5-4 0-4-5 0-5z"/></svg>