<svg id="Layer_1" xmlns="http://www.w3.org/2000/svg" viewBox="-152 341 305.8 112"><style>.st0{fill:#f0a732}.st1{fill:#d72050}.st2{fill:#75a08a}.st3{fill:#0b3746}</style><path class="st0" d="M-4.6 354.7s21.7 49.3 29.7 65c-11.3.3-14.4 7.6-30.4 27.8-13.5-18.5-18.9-28.2-30.6-27.8l31.3-65z"/><path class="st0" d="M-27.6 402.6c-6.6 7.6-13.6.2-17.5 9.5-2.6 6.1 3.9 7.6 10.7 7.6l6.8-17.1zm44.2-.6c7 7.7 14.1.3 18.2 9.9 2.6 6.3-4 7.8-11.1 7.8L16.6 402z"/><path class="st1" d="M-38.4 419.6c.9-.7 4.5-1.9 8.7-1.1.7.7 5.3 5 5.3 5s-11.1-3-11.8-3.3c-.8-.2-2.2-.6-2.2-.6zm51 5.5c1-1.1 3.7-3.9 6.1-6.1 4.1-1.7 7.3.8 7.3.8l-13.4 5.3z"/><path class="st2" d="M8.5 390.5c-3.1-4.3-4.7-6.5-7.4-10.3 3.2-2.3 7.7-2.1 9.8.8 2.1 2.9.9 7.2-2.4 9.5z"/><path class="st0" d="M17.14 376.17l.584.812-8.366 6.007-.584-.814zm.22 5.466l.35.937-9.647 3.607-.35-.937zm-8.38-5.73l.806.592-3.79 5.158-.805-.592z"/><path class="st2" d="M-101.6 418.4c-4.8 2.3-7.2 3.4-11.4 5.5-1.7-3.6-.7-8 2.5-9.5 3.2-1.6 7.2.4 8.9 4z"/><path class="st0" d="M-114.194 407.428l.903-.43 4.43 9.298-.903.43zm5.404.742l.985-.18 1.845 10.134-.984.18zm-7.06 7.143l.726-.69 4.407 4.642-.726.69z"/><path class="st3" d="M89.3 391.8c-18.9 3.5-37-8.1-42.1-26.2.1 1.1.2 2.2.4 3.2 3.7 19.9 22.9 33.1 42.8 29.4 19.9-3.7 33.1-22.9 29.4-42.8-.2-1.1-.5-2.1-.7-3.2 1.9 18.8-10.9 36.1-29.8 39.6zm-179.8 0c18.9 3.5 37-8.1 42.1-26.2-.1 1.1-.2 2.2-.4 3.2-3.7 19.9-22.9 33.1-42.8 29.4-19.9-3.7-33.1-22.9-29.4-42.8.2-1.1.5-2.1.7-3.2-1.9 18.8 10.9 36.1 29.8 39.6z"/><g><path class="st2" d="M82.4 385.4c-4.8 2.3-7.2 3.4-11.4 5.5-1.7-3.6-.7-8 2.5-9.5 3.2-1.6 7.2.4 8.9 4z"/><path class="st0" d="M69.813 374.434l.903-.43 4.432 9.297-.903.433zm5.39.728l.983-.18 1.845 10.134-.982.18zm-7.06 7.15l.724-.69 4.406 4.643-.725.688z"/></g></svg>