<svg id="Layer_1" xmlns="http://www.w3.org/2000/svg" viewBox="-152 341 305.8 112"><style>.st0{opacity:.5}.st0,.st1{fill:#d72050}.st2{fill:url(#SVGID_1_)}.st3{fill:#0b3746}</style><circle class="st0" cx="79" cy="384.6" r="33.5"/><circle class="st0" cx="-76.7" cy="384.6" r="33.5"/><path class="st1" d="M-6.8 421.6c2.4-.1 4 1.2 4 3.3 0 2-1.3 3.9-3.5 4-2.2 0-3.6-1.7-3.5-3.5.1-1.9.9-3.7 3-3.8z"/><linearGradient id="SVGID_1_" gradientUnits="userSpaceOnUse" x1="-122.071" y1="405.89" x2="-116.585" y2="402.462"><stop offset=".469" stop-color="#D72050"/><stop offset=".872" stop-color="#D72050" stop-opacity="0"/></linearGradient><path class="st2" d="M-120.8 401.1s-2.6 2.5-1.3 4.7 4.7 1.4 5.3.9c0 0 1.9-1.7 0-4.6-1.9-2.9-4-1-4-1z"/><path class="st3" d="M10 371.7c.2 2.5.4 5.2.7 7.8.3 2.7.7 5.4 1.2 8 .4 2.7 1 5.3 1.4 7.9.4 2.6.7 5.1.8 7.7.1 2.5.2 4.9.1 7.2s-.3 4.5-.5 6.5-.5 3.8-.9 5.4c-.3 1.6-.6 3-.9 4.1-.6 2.3-1.1 3.6-1.1 3.6s.6-1.2 1.4-3.4c.8-2.2 1.8-5.5 2.6-9.5s1.3-8.8 1.2-14c-.1-2.5-.3-5.2-.6-7.9s-.8-5.4-1.2-8c-.4-2.7-.8-5.3-1.2-7.9-.4-2.6-.6-5.2-.9-7.7-.3-2.5-.5-4.9-.7-7.3-.2-2.3-.4-4.5-.6-6.5-.4-4-.6-7.4-.9-9.8-.2-2.4-.4-3.7-.4-3.7s-.1 1.4-.1 3.7c0 1.2-.1 2.6-.1 4.3v5.5c.2 4.2.4 8.9.7 14zm19.3 43.6c-.5-1.4-1.1-2.4-1.5-3.1-.4-.7-.6-1-.6-1s.1.4.2 1.2c.1.8.4 1.9.6 3.3.2 1.4.5 3.1.4 4.9 0 .9-.1 1.9-.3 2.8-.1.5-.3.9-.5 1.3-.1.2-.2.3-.4.5l-.3.3-.3.2c-1.7 1.5-4 2.7-6.5 4-2.5 1.4-5.3 2.9-7.4 5.7-1 1.4-1.7 2.7-2.5 4.1-.8 1.4-1.6 2.7-2.5 3.9-.9 1.2-1.9 2.4-3 3.2l-.9.6c-.3.2-.6.3-.9.4-.3.1-.6.1-.9.2-.2.2-.6.2-1 .2H.1c-.3-.1-.6-.1-1-.3-.3-.1-.6-.2-.9-.4-.3-.2-.6-.3-.9-.6-1.1-.8-2.1-2-3-3.2-1.8-2.5-3.2-5.3-5-8-1-1.4-2.3-2.5-3.5-3.4-1.3-.9-2.6-1.6-3.8-2.3-2.5-1.3-4.8-2.5-6.5-4-1.6-1.2-1.8-3.4-1.8-5.2 0-1.9.3-3.6.5-4.9.2-1.4.5-2.5.6-3.2.1-.8.2-1.2.2-1.2s-.3.3-.6 1c-.4.7-.9 1.7-1.4 3.1-.5 1.4-1 3.1-1.2 5.2-.1 1.1-.1 2.2.3 3.4.1.6.4 1.2.7 1.9l.6.9c.2.3.5.6.8.7 1.9 1.7 4.4 3 6.8 4.4 2.4 1.4 4.9 2.8 6.4 5.1 1.6 2.4 3 5.3 4.9 8.1 1 1.4 2.1 2.7 3.6 3.8.4.3.8.5 1.2.8.4.3.9.4 1.3.6.4.2.9.3 1.4.4.2.1.5.1.7.1h.9c.4 0 .8 0 1.2-.1.5-.1 1.1-.2 1.5-.4.4-.2.9-.3 1.3-.6.4-.2.8-.5 1.2-.8 1.5-1.1 2.6-2.5 3.6-3.8 1.9-2.7 3.3-5.7 4.9-8.1 1.5-2.2 4-3.7 6.4-5 2.4-1.4 4.9-2.6 6.8-4.4l.2-.2.1-.1.1-.1.3-.3c.2-.3.5-.6.7-.9.4-.6.6-1.3.8-1.9.3-1.3.3-2.4.2-3.5-.3-2.2-.9-3.9-1.4-5.3zm-41.1 13.1l.3.6c.1.2.3.3.4.4.1.1.3.2.4.3.2.2.5.3.7.3.2.1.3.1.3.1s-.1-.1-.1-.2c-.1-.1-.3-.3-.4-.6-.1-.1-.1-.2-.2-.4 0-.1-.1-.3-.1-.4 0-.2-.1-.3 0-.4 0-.1 0-.3.1-.4 0-.1.1-.3.1-.4.1-.1.1-.2.2-.3.2.4.4.8.6 1.1.8.9 2 1.5 3.2 1.5h.1c2.7-.1 4.2-1.6 4.3-4.5v-.6c.2.1.3.2.5.3l.3.3c.1.1.2.2.2.3l.3.6c.1.2.1.4.1.5v.2s0-.1.1-.2c0-.1.1-.3.1-.6v-.8c-.1-.3-.2-.7-.4-1-.4-.6-.9-1.1-1.4-1.3-.2-.1-.4-.2-.6-.2l-.1-.1c-.8-.9-2.1-1.5-3.7-1.6h-.3c-1.4 0-3.1.7-3.7 4-.2.1-.4.3-.6.5-.2.3-.5.6-.7 1-.2.4-.3.9-.3 1.4l.3.6zm2.8-3c.5-3.1 1.8-3.1 2.3-3.1h.2c1.1.1 2.1.5 2.6 1 .4.4.5.9.5 1.6-.1 2.1-1 3.1-2.9 3.1h-.1c-.8 0-1.6-.3-2.1-.9-.3-.3-.6-.9-.5-1.7zm138.8-55.8c-.2-2.3-.3-3.7-.3-3.7s0 .3-.1 1c-.1.6-.1 1.5-.2 2.7-.1 1.2-.3 2.6-.4 4.2-.2 1.6-.4 3.4-.6 5.4-.1 1-.3 2-.4 3.1-.2 1.1-.3 2.1-.5 3.3-.2 1.1-.4 2.3-.7 3.4-.3 1.2-.5 2.3-.8 3.5-.3 1.2-.7 2.4-1 3.6-.4 1.2-.8 2.4-1.3 3.6-.3.6-.5 1.2-.8 1.7-.3.6-.5 1.2-.8 1.7-.6 1.1-1.2 2.3-2 3.3-.4.5-.7 1-1.1 1.6l-1.2 1.6c-.8 1-1.6 2.2-2.3 3.3-1.5 2.2-2.8 4.5-4 6.7-1.2 2.2-2.2 4.5-3.1 6.6-.9 2.2-1.6 4.2-2.2 6.2-.6 1.9-1 3.7-1.4 5.3-.3 1.6-.5 3-.7 4.2-.1 1.2-.2 2.1-.2 2.7v1s.1-.3.2-.9c.1-.6.3-1.5.6-2.6s.7-2.5 1.2-4 1.1-3.2 1.8-5.1c.7-1.8 1.6-3.8 2.6-5.8s2.1-4.2 3.3-6.3c1.2-2.1 2.6-4.3 4-6.4.8-1 1.5-2.1 2.3-3.1l1.2-1.6 1.2-1.7c1.7-2.3 2.8-4.8 3.8-7.3.5-1.3.9-2.5 1.3-3.8.3-1.3.7-2.5 1-3.8.2-1.2.5-2.5.7-3.7.2-1.2.4-2.4.5-3.5.1-1.2.2-2.3.4-3.4.1-1.1.1-2.1.2-3.1.1-4.2 0-7.5-.2-9.9zm-233.5 64.7c-.3-1.4-.7-2.9-1.2-4.3-.4-1.4-1-2.8-1.5-4.2-.5-1.4-1.1-2.7-1.7-4.1-.6-1.3-1.2-2.7-1.9-4-.7-1.3-1.3-2.6-2-3.9-1.4-2.6-2.9-5.1-4.4-7.6l-.7-1.2-1.3.6c-.6.3-1.2.4-1.6.4-.2 0-.3-.1-.5-.2-.1 0-.1-.1-.2-.2l-.1-.1-.2-.3s-.1-.2-.1-.3c-.1-.1-.1-.2-.1-.3v-.5c.1-.3.5-.8 1.1-1.3l1-.9-.7-1.2c-.4-.7-.8-1.3-1.2-2-.4-.7-.7-1.4-1-2.1-.3-.7-.6-1.4-.9-2.2-.3-.7-.5-1.5-.7-2.3-.2-.8-.4-1.5-.6-2.3-.2-.8-.4-1.6-.5-2.3-.3-1.6-.6-3.2-.8-4.8-.4-3.2-.6-6.5-.8-9.7-.2-3.3-.2-6.5-.3-9.9-.9 3.2-1.3 6.5-1.5 9.8-.1 1.7-.2 3.3-.2 5 0 1.7.1 3.3.2 5 .1 1.7.3 3.3.6 5 .2 1.7.6 3.3 1 5 .2.8.5 1.6.7 2.5l.9 2.4c.3.8.7 1.6 1.1 2.4.2.4.4.8.7 1.2l-.1.1c-.3.4-.7.9-.9 1.6-.1.3-.2.7-.2 1 0 .3 0 .7.1 1l.3.9c.1.3.2.5.4.8l.2.3c.1.1.2.3.3.4.2.3.5.5.8.7.6.4 1.3.6 1.9.7.6.1 1.2 0 1.8-.2.1 0 .1 0 .2-.1l3.9 6.3c.8 1.2 1.5 2.5 2.2 3.7.7 1.3 1.4 2.5 2.1 3.8 1.4 2.5 2.7 5.1 3.9 7.7.3.7.6 1.3.9 2 .3.7.6 1.3.9 2 .6 1.3 1 2.7 1.5 4.1-.1-.7-.2-1.5-.3-2.2-.2-.3-.3-1-.5-1.7z"/></svg>