<?xml version="1.0" encoding="utf-8"?>
<!-- Generator: Adobe Illustrator 19.1.0, SVG Export Plug-In . SVG Version: 6.00 Build 0)  -->
<svg version="1.1" id="Layer_1" xmlns="http://www.w3.org/2000/svg" xmlns:xlink="http://www.w3.org/1999/xlink" x="0px" y="0px"
	 viewBox="-417 343 24 24" style="enable-background:new -417 343 24 24;" xml:space="preserve">
<path d="M-398.6,349.9l0-1.4c0-3-2.6-5.5-5.6-5.5c-3,0-5.6,2.4-5.6,5.5v1.5h-4.5v2.6h1.9v14.7h14.7v-13.4h-1.9v-1.3h2.2
	h0.6h1v-2.6H-398.6z M-403.4,363c-0.9,0-1.7-0.8-1.7-1.7c0-0.9,1.7-4.6,1.7-4.6s1.7,3.6,1.7,4.6C-401.7,362.3-402.5,363-403.4,363z
	 M-399.9,349.9h-6.8l0,2c0.9,0.3,1.5,1.2,1.5,2.1c0,1.2-1,2.2-2.1,2.2h-1.3V355h1.3c0.4,0,0.8-0.5,0.8-1c0-0.5-0.4-1-0.8-1h-0.6
	l-0.1-3.2h-0.6v-1.5c0-2.4,2-4.3,4.3-4.3c2.3,0,4.3,1.9,4.3,4.1L-399.9,349.9z"/>
</svg>
