<?xml version="1.0" encoding="utf-8"?>
<!-- Generator: Adobe Illustrator 19.1.0, SVG Export Plug-In . SVG Version: 6.00 Build 0)  -->
<svg version="1.1" id="Layer_1" xmlns="http://www.w3.org/2000/svg" xmlns:xlink="http://www.w3.org/1999/xlink" x="0px" y="0px"
	 viewBox="-391 269 24 24" style="enable-background:new -391 269 24 24;" xml:space="preserve">
<g>
	<g>
		<path d="M-374.8,286.3l-0.2-0.5c3.2-1.2,5.7-3.3,6.9-4.5l0.4,0.4C-368.9,282.9-371.5,285.1-374.8,286.3z"/>
	</g>
	<circle cx="-379.8" cy="280.5" r="1.8"/>
	<path d="M-372.8,281.3c0-0.5,0.1-0.9,0.4-1.3l0.5,0.3c-0.2,0.3-0.3,0.6-0.3,1c0,0.5,0.2,1,0.6,1.4c1.5-1,2.5-2,2.5-2
		s-4.7-4.8-10.6-4.8c-5.8,0-10.6,4.8-10.6,4.8s4.7,4.8,10.6,4.8c3,0,5.7-1.3,7.7-2.5C-372.5,282.5-372.8,281.9-372.8,281.3z
		 M-379.8,284.6c-2.2,0-4-1.8-4-4c0-2.2,1.8-4,4-4c2.2,0,4,1.8,4,4C-375.7,282.8-377.5,284.6-379.8,284.6z"/>
</g>
</svg>
