<?xml version="1.0" encoding="utf-8"?>
<!-- Generator: Adobe Illustrator 19.1.0, SVG Export Plug-In . SVG Version: 6.00 Build 0)  -->
<svg version="1.1" id="Layer_1" xmlns="http://www.w3.org/2000/svg" xmlns:xlink="http://www.w3.org/1999/xlink" x="0px" y="0px"
	 viewBox="-391 269 24 24" style="enable-background:new -391 269 24 24;" xml:space="preserve">
<g>
	<path d="M-377.6,280.4c3.6,0,6.3,0,10.7,0c-3.5-1.9-6.9-3.8-9-3.8c-1.1,0-2.1,0.5-2.8,1.3c-0.7-0.8-1.7-1.3-2.8-1.3
		c-2.1,0-5.5,1.9-9,3.8c4.4,0,7.1,0,10.7,0C-379,280.4-378.3,280.4-377.6,280.4z"/>
	<path d="M-374,281.6c-3.2,0-6.1,0-10,0c-1.9,0-4,0-6.5,0c4.1,1.7,8.1,3.4,10.9,3.7c0.2,0,0.5,0,0.7,0c0,0,0,0,0,0
		c0,0,0,0,0,0c0.1,0,0.3,0,0.4,0c2.8-0.2,7.1-2,11.5-3.8C-369.6,281.6-371.9,281.6-374,281.6z"/>
</g>
</svg>
