<?xml version="1.0" encoding="utf-8"?>
<!-- Generator: Adobe Illustrator 19.1.0, SVG Export Plug-In . SVG Version: 6.00 Build 0)  -->
<svg version="1.1" id="Layer_1" xmlns="http://www.w3.org/2000/svg" xmlns:xlink="http://www.w3.org/1999/xlink" x="0px" y="0px"
	 viewBox="-391 269 24 24" style="enable-background:new -391 269 24 24;" xml:space="preserve">
<g>
	<path d="M-374.8,269h-8.4c0,0,0,19.5,0,19.5c0,2.3,1.9,4.2,4.2,4.2c2.3,0,4.2-1.9,4.2-4.2
		C-374.8,288.5-374.8,269-374.8,269z"/>
	<path d="M-373.1,282.4v5.2c0,0,1.6,0,1.7,0c1.4,0,2.6-1.2,2.6-2.6c0-1.4-1.2-2.6-2.6-2.6
		C-371.5,282.4-373.1,282.4-373.1,282.4z"/>
	<path d="M-384.9,287.6v-5.2c0,0-1.6,0-1.6,0c-1.4,0-2.6,1.2-2.6,2.6c0,1.4,1.1,2.6,2.6,2.6
		C-386.6,287.6-384.9,287.6-384.9,287.6z"/>
</g>
</svg>
