<?xml version="1.0" encoding="utf-8"?><svg width="72" height="48" viewBox="0 0 72 48" xmlns="http://www.w3.org/2000/svg" xmlns:xlink="http://www.w3.org/1999/xlink"><svg viewBox="-417 343 24 24" width="24" height="24" id="colour"><path d="M-398.6 349.9v-1.4c0-3-2.6-5.5-5.6-5.5-3 0-5.6 2.4-5.6 5.5v1.5h-4.5v2.6h1.9v14.7h14.7v-13.4h-1.9v-1.3h3.8V350h-2.8zm-4.8 13.1c-.9 0-1.7-.8-1.7-1.7 0-.9 1.7-4.6 1.7-4.6s1.7 3.6 1.7 4.6c0 1-.8 1.7-1.7 1.7zm3.5-13.1h-6.8v2c.9.3 1.5 1.2 1.5 2.1 0 1.2-1 2.2-2.1 2.2h-1.3V355h1.3c.4 0 .8-.5.8-1s-.4-1-.8-1h-.6l-.1-3.2h-.6v-1.5c0-2.4 2-4.3 4.3-4.3s4.3 1.9 4.3 4.1l.1 1.8z"/></svg><svg viewBox="-391 269 24 24" width="24" height="24" id="crown"><path d="M-376.7 285.5v-1.9h5.8v-9.7l-8.2 3.7-4.3 2-.6-1.2 3.3-1.5-6.4-3v11.6h-3.9v2.6h24v-2.6z"/></svg><svg viewBox="-391 269 24 24" width="24" height="24" id="eyes"><path d="M-374.8 286.3l-.2-.5c3.2-1.2 5.7-3.3 6.9-4.5l.4.4c-1.2 1.2-3.8 3.4-7.1 4.6z"/><circle cx="-379.8" cy="280.5" r="1.8"/><path d="M-372.8 281.3c0-.5.1-.9.4-1.3l.5.3c-.2.3-.3.6-.3 1 0 .5.2 1 .6 1.4 1.5-1 2.5-2 2.5-2s-4.7-4.8-10.6-4.8c-5.8 0-10.6 4.8-10.6 4.8s4.7 4.8 10.6 4.8c3 0 5.7-1.3 7.7-2.5-.5-.5-.8-1.1-.8-1.7zm-7 3.3c-2.2 0-4-1.8-4-4s1.8-4 4-4 4 1.8 4 4c.1 2.2-1.7 4-4 4z"/></svg><svg viewBox="-391 269 24 24" width="24" height="24" id="mouth"><path d="M-377.6 280.4h10.7c-3.5-1.9-6.9-3.8-9-3.8-1.1 0-2.1.5-2.8 1.3-.7-.8-1.7-1.3-2.8-1.3-2.1 0-5.5 1.9-9 3.8h12.9zm3.6 1.2h-16.5c4.1 1.7 8.1 3.4 10.9 3.7h1.1c2.8-.2 7.1-2 11.5-3.8-2.6.1-4.9.1-7 .1z"/></svg><svg viewBox="-391 269 24 24" width="24" height="24" id="nose"><path d="M-374.8 269h-8.4v19.5c0 2.3 1.9 4.2 4.2 4.2 2.3 0 4.2-1.9 4.2-4.2V269zm1.7 13.4v5.2h1.7c1.4 0 2.6-1.2 2.6-2.6 0-1.4-1.2-2.6-2.6-2.6h-1.7zm-11.8 5.2v-5.2h-1.6c-1.4 0-2.6 1.2-2.6 2.6 0 1.4 1.1 2.6 2.6 2.6h1.6z"/></svg><svg viewBox="-391 269 24 24" width="24" height="24" id="share"><path d="M-372.1 291.3h-17.2v-17.2h10.3v-1.7h-12V293h20.6v-12h-1.7z"/><path d="M-375.6 269v1.7h5.6l-11.6 11.6 1.2 1.2 11.7-11.6v5.7h1.7V269z"/></svg></svg>