<svg id="Layer_1" xmlns="http://www.w3.org/2000/svg" viewBox="-152 341 305.8 112"><style>.nav-eye-16-st-0{fill:#fcdca4}.nav-eye-16-st-1{fill:#d72050}</style><path class="nav-eye-16-st-0" d="M103.6 396.5c-3.1-2.3-6.1-4.6-9.3-6.8-10-11.6-35.2-22.8-40.9-25.5-9.8-4.5-19.6-8.8-30.3-10.4-8.5-1.3-17.7-2.2-26.7-1.6-.5-.2-1-.3-1.6-.1-.5.1-1.1.3-1.6.4-2.4.3-4.8.7-7.1 1.3-3.5.3-6.9.8-10.4 1.6-11.1 2.5-21.8 7-31.8 12.4-9.2 5-17.3 11.3-25.3 18-2.4 2-5.3 4.4-7.8 7.1-7.4 2.5-12.4 11.2-16.2 17.5-.7 1.1-.3 2.9.9 3.6 3.1 1.5 6.4 2.6 9.6 3.5.1.1.2.1.3.2 3.8 1.8 7.9 3.5 12 4.2 3.3 1.2 6.7 2 10 2.8 1.6.4 3.1.7 4.7 1 10.7 3.2 21.4 6.5 32.3 8.9 4.1.9 8.2 1.6 12.3 2.1 7.1 1.3 14.4 2 21.4 2.8 10.3 1.1 20.8.3 30.9-1.9 3.5-.8 7.2-1.6 10.7-2.9 7.2-1.6 14.3-3.9 21.1-6.9 7.7-3.4 15-7.8 22.2-12.2.1-.1.3-.1.4-.2 3.6-1.4 8.6-3.7 11.2-7.2 3.3-2.3 6.5-4.9 9.5-7.8 1.3-1.1.8-2.9-.5-3.9z"/><path class="nav-eye-16-st-1" d="M2.7 354.4c-22.6 0-41.5 18.9-41.5 41.5s18.9 41.5 41.5 41.5 41.5-18.9 41.5-41.5-18.9-41.5-41.5-41.5z"/><path class="nav-eye-16-st-0" d="M2.4 395.4c-2 0-2 3 0 3s2-3 0-3z"/><path class="nav-eye-16-st-0" d="M109.1 392.2c-2.5-1.9-5.2-3.4-7.8-5.1-3.3-2.2-6.3-4.9-9.5-7.2-5.9-4.2-12.6-7.2-19.2-10.2-3.2-1.5-6.4-2.9-9.4-4.6-3.4-1.9-6.6-4.2-9.9-6.2-6.2-3.7-13.5-5.9-20.5-7.6-14.7-3.5-30.1-4-45.1-2.8-14.6 1.1-28.4 5.4-41.4 12-11.3 5.8-22 14-31 22.9-2.1 2.1-4 4.3-6.3 6.2-2.2 1.8-4.5 3.4-6.6 5.3-3.9 3.6-7.7 7.9-9.4 13-.2.6.8.9 1 .3 2.3-6.7 8.2-12.2 13.8-16.3 2.6-1.9 4.8-4.2 7-6.4 2.8-2.8 5.7-5.5 8.7-8 12.2-10.2 25.5-18.3 40.6-23.3 14.7-4.9 30.4-5.8 45.8-5 15.4.7 32 3.7 45.2 12 4.3 2.7 8.5 5.3 13.1 7.5 4.7 2.3 9.5 4.4 14.2 6.8 4.7 2.4 9 5.2 13.2 8.5 4.1 3.2 8.7 5.6 12.8 8.8.5.5 1.2-.3.7-.6zM-105.7 415.5c-1.7-.9-2.9-2.4-2.2-4.4.2-.6-.7-.9-1-.3-.9 2.4.6 4.4 2.7 5.6.6.3 1.1-.6.5-.9z"/><path class="nav-eye-16-st-0" d="M-108.4 405.2c.5-.4 0-1.2-.5-.9-3.4 2.6-4.3 10.2-.7 13 .5.4 1.2-.3.7-.7-3-2.3-2.4-9.2.5-11.4zM106.1 394.1c-.5-.4-1.2.3-.7.7 2.4 2.2 2.9 4.8 1.8 7.8-.2.6.7.9 1 .3 1.1-3.4.5-6.4-2.1-8.8zM112 392.5c-.8-2.3-1.3-4.5-4-4.9-.6-.1-.9.9-.3 1 2.7.5 3.1 3.4 3.7 5.6.7 2.4-.8 5.1-1.1 7.5-.1.6.9.9 1 .3.5-3.5 1.9-6.1.7-9.5zM28.3 440.7c-11.5.9-23 1.2-34.5.4-11.8-.9-23.4-3.7-35-6.2-10.3-2.2-21-3-31.1-6-5.5-1.6-10.5-4.3-15.7-6.8-4.5-2.1-9.8-2.3-14-5.1-.5-.4-1 .5-.5.9 4 2.7 8.8 2.9 13.2 4.7 5.1 2.2 9.8 4.9 15.1 6.7 10.3 3.5 21.3 4.1 31.9 6.3 11.4 2.3 22.7 5.2 34.3 6.3 12.1 1.1 24.3.7 36.4-.2.6-.1.6-1.1-.1-1zM102.5 404.6c-1.8 2.1-4.3 3.5-6.3 5.4-2.4 2.4-4.7 4.7-7.6 6.5-5.5 3.5-11.9 5.5-17.7 8.4-6.5 3.2-13 6.4-19.8 9.1-3.1 1.2-6.1 2.4-9.3 3.1-2.8.6-5.8 2.3-8.7 1.4-.6-.2-.9.8-.3 1 2.3.7 4.7-.1 6.9-.7 3.1-.9 6.2-1.7 9.2-2.9 7.1-2.7 14-5.9 20.8-9.3 6.2-3 12.7-5.4 18.7-8.8 2.8-1.6 5.1-3.6 7.3-5.9 2.3-2.4 5.3-4.1 7.5-6.6.5-.5-.2-1.2-.7-.7z"/><path class="nav-eye-16-st-0" d="M7.2 444.5c-4.6-.3-9.2.4-13.8 0-4.7-.4-9.3-1.2-14-1.7-5.1-.5-10.1-1-15.1-1.9-4.2-.7-8.4-1.7-12.7-2-9.4-.6-19-1.6-27.7-5.4-4-1.8-7.7-4.2-11.8-6.1-2.1-1-4.3-1.9-6.5-2.8-1.6-.7-2.9-1.4-4.7-1.6-.6-.1-.6.9 0 1 2.1.2 4 1.4 5.9 2.2 2.4 1 4.8 2.1 7.1 3.2 3.7 1.9 7.2 4.1 11.1 5.6 8.1 3.3 17 4.1 25.6 4.7 4.8.3 9.4 1.4 14.2 2.2 4.5.8 9 1.2 13.5 1.7 4.7.5 9.3 1.2 14 1.7 5 .6 9.8-.2 14.7.1.8.2.8-.8.2-.9zM36.4 442.6c-3.3.7-6.4 1.9-9.7 2.2-3.7.4-7.4.1-11.1.2-.6 0-.6 1 0 1 3.7-.1 7.4.1 11.1-.2 3.5-.3 6.6-1.5 10-2.3.6-.1.3-1-.3-.9zM105.5 406.7c-3.4 4.8-9 8.2-13.7 11.6-4.8 3.5-10.5 5.3-15.9 7.6-6 2.6-11.6 5.9-17.3 9-3 1.6-6.2 2.7-9.3 3.9-2.8 1.1-5.4 2.5-8.4 3-.6.1-.4 1.1.3 1 2.7-.5 5.2-1.7 7.7-2.8 3.1-1.4 6.3-2.5 9.4-3.9 6.7-3.1 12.8-7.2 19.7-10 5.5-2.3 10.9-4.3 15.7-7.9 4.4-3.4 9.5-6.3 12.8-11 .3-.5-.6-1-1-.5zM-8.2 345c-19 .1-38 4.9-54.1 15.2-8.5 5.4-15.9 12.3-23.2 19.2-3.8 3.5-7.6 6.8-11.5 10.2-3.9 3.4-6.7 7.5-9.9 11.6-.4.5.3 1.2.7.7 2.8-3.5 5.3-7.2 8.6-10.4 3.7-3.6 7.8-6.6 11.5-10.1 7.5-7.1 15-14.2 23.6-19.9 16-10.6 35.3-15.4 54.3-15.5.7 0 .7-1 0-1zM99.9 380.4c-8.5-4.5-17.4-8.3-25.1-14.1-3.9-3-8.2-5.2-12.7-7.2-4.3-2-8.5-4.2-12.8-6-9.1-3.8-18.9-5.8-28.7-6.8-4.9-.5-9.8-.9-14.7-1.5-3.1-.4-6.6-1.1-9.6.3-.6.3-.1 1.1.5.9 3-1.4 7.1-.4 10.3 0 4.8.6 9.6 1 14.4 1.5 10.1 1 20.6 3.4 29.8 7.7 8.1 3.7 16.4 7.2 23.6 12.6 7.5 5.6 16.2 9.2 24.4 13.6.7.2 1.2-.7.6-1zM-103 420.2c-.8-.3-1.5-.6-2.2-1-.6-.3-1.1.6-.5.9.8.4 1.6.8 2.4 1.1.7.2.9-.8.3-1zM-110.8 419.6c-3.5-2.8-4.2-7-5.5-11.1-.2-.6-1.2-.3-1 .3 1.4 4.2 2.2 8.6 5.8 11.5.5.4 1.2-.3.7-.7zM-112.5 403.4c-.8.9-1.5 1.9-1.8 3-.2.6.8.9 1 .3.3-1 .9-1.8 1.5-2.6.4-.5-.3-1.2-.7-.7zM-110.1 398.6c-.3.1-.5.3-.8.4-.6.3-.1 1.2.5.9.3-.1.5-.3.8-.4.5-.3 0-1.2-.5-.9zM-119 405.8c-1.8 0-3.5-.1-5.3.1-.6.1-.4 1.1.3 1 1.7-.2 3.3-.1 5-.1.7 0 .7-1 0-1zM-120.2 411.2c-.8-1.5-2.1-2.6-3.8-2.8-.6-.1-.6.9 0 1 1.3.2 2.3 1.2 2.9 2.3.3.6 1.2.1.9-.5zM-116.6 416.5c-1.6-1-3.1-2.1-4.8-3-1.3-.7-3.1-1.6-4.6-1.1-.6.2-.3 1.2.3 1 1.5-.6 3.3.7 4.6 1.4 1.4.8 2.6 1.7 4 2.5.6.4 1.1-.4.5-.8zM-116.7 400.8c-2.5 1.7-5.8 1.7-8.7 2-.6.1-.6 1.1 0 1 3-.3 6.6-.3 9.2-2.1.6-.4.1-1.3-.5-.9zM-110.4 395.1c-1.2 1.1-2.7 1.8-3.8 2.9-.4.5.3 1.2.7.7 1.1-1.2 2.6-1.9 3.8-2.9.5-.4-.2-1.1-.7-.7zM-103.7 390.9c-.9 1.1-1.8 2.1-2.6 3.3-.4.5.5 1 .9.5.7-1.1 1.6-2.1 2.5-3.1.3-.5-.4-1.2-.8-.7zM-106.9 423.8c-2.2-.1-4.1-1.2-6.3-1.4-.6-.1-.6.9 0 1 2.2.2 4.1 1.3 6.3 1.4.6 0 .6-1 0-1zM-100.8 425.6c-1.2-.8-2-2-3.2-2.8-.5-.4-1 .5-.5.9 1.2.8 2 2 3.2 2.8.5.4 1-.5.5-.9zM-94.5 427.8c-1.7-.2-3.3-.3-5-.5-.6-.1-.9.9-.3 1 1.7.2 3.3.3 5 .5.7 0 .9-.9.3-1zM-103.2 430.6c-.6-.5-1.3-.8-2-1.1-.6-.2-.9.7-.3 1 .6.3 1.2.5 1.8 1 .5.4 1-.5.5-.9zM110.1 406.2c-.6 2.1-1.2 4.2-2.3 6.2-.3.6.6 1.1.9.5 1-2 1.7-4.2 2.4-6.4.2-.6-.8-.9-1-.3zM114.3 402.4c-.3.8-.8 1.5-1.2 2.2-.4.5.5 1 .9.5.5-.8 1-1.5 1.3-2.4.2-.7-.8-.9-1-.3zM115.5 397.8c-.5.8-1 1.6-1.2 2.6-.1.6.9.9 1 .3.1-.9.7-1.6 1.1-2.3.3-.7-.5-1.2-.9-.6zM105.1 383.9c-.5-.2-.9-.5-1.3-.8-.5-.4-1.2.3-.7.7.4.4 1 .7 1.5 1 .5.2 1-.6.5-.9zM114.8 387.2c-2.3-2.3-5.5-6.3-9.2-5.9-.6.1-.6 1.1 0 1 3.3-.4 6.4 3.5 8.5 5.6.4.4 1.1-.3.7-.7zM118.8 393.1c-1.4-.6-2.3-1.8-3.2-2.9-.4-.5-1.1.2-.7.7 1 1.2 2 2.4 3.4 3 .6.3 1.1-.5.5-.8zM120.8 396.9c-1 .7-1.9 1.5-2.3 2.7-.2.6.8.9 1 .3.3-.9 1.1-1.6 1.8-2.1.6-.4.1-1.2-.5-.9zM121.8 400.9c-1.5 1.7-4.6 2.2-4.9 4.8-.1.6.9.6 1 0 .1-1.1 1.2-1.8 2.1-2.3.9-.6 1.8-1.1 2.5-1.8.4-.5-.3-1.2-.7-.7zM123.8 394.2c-.7-.2-1.3-.6-1.8-1s-1.2.3-.7.7c.7.5 1.4 1 2.3 1.3.5.2.8-.8.2-1zM122.9 389.8c-1.3-.1-2.7-.4-3.7-1.4-.5-.4-1.2.3-.7.7 1.2 1.1 2.8 1.5 4.5 1.7.5.1.5-.9-.1-1zM127.4 397.5c-1 0-1.9 0-2.9-.1-.6-.1-.7.9 0 1 1 .1 1.9.1 2.9.1s1-1 0-1zM127.5 392.8c-.5 0-1-.1-1.4-.3-.6-.3-1.1.6-.5.9.6.3 1.2.4 1.9.5.6-.1.6-1.1 0-1.1zM-86.7 375.4c-2.3 2.7-4.8 5.3-7.8 7.1-1.8 1.1-4.5 2.2-5.4 4.3-.3.6.6 1.1.9.5 1-2.2 4.2-3.3 6.1-4.5 2.7-1.6 5-4.3 7-6.7.3-.5-.4-1.2-.8-.7zM-81.6 369.5c-.7.4-1.3 1-1.9 1.5-.5.4.2 1.1.7.7.6-.5 1.1-.9 1.7-1.3.6-.3.1-1.2-.5-.9zM-120.3 399.1c-1.7.4-3.5.7-5.3 1-.6.1-.4 1.1.3 1 1.7-.4 3.5-.7 5.3-1 .6-.2.4-1.2-.3-1zM-126.9 407c-1.9-.6-3.8-.2-5.6.3-.6.1-.4 1.1.3 1 1.7-.4 3.4-.8 5.1-.3.5.2.8-.8.2-1zM-128.3 410.1c-1.5-.7-3.3-.8-4.7.1-.5.3 0 1.2.5.9 1.1-.7 2.5-.7 3.7-.1.5.3 1-.6.5-.9zM-129.7 412.4c-1.1.2-2 .6-3.1.9-.6.2-.4 1.1.3 1 1-.3 2-.7 3.1-.9.6-.1.3-1.1-.3-1zM-130 401.9c-.9 0-1.7-.3-2.6-.5-.6-.2-.9.8-.3 1 .9.3 1.9.5 2.8.5.7 0 .7-1 .1-1zM132.1 388.2c-2.1.5-4.3 1.5-6.4.6-.6-.3-1.1.6-.5.9 2.4 1.1 4.7.1 7.2-.5.6-.2.3-1.2-.3-1zM133 392.8c-1.2 0-2.3.1-3.5.1-.6 0-.6 1 0 1 1.2 0 2.3-.1 3.5-.1.6 0 .6-1 0-1zM134.8 397.1c-1.1-.4-2.3-.3-3.5-.5-.6-.1-.9.8-.3 1 1.1.3 2.3.1 3.5.5.6.2.9-.7.3-1zM131.7 400.3c-.7.1-1.4.2-2 .4-.6.1-.4 1.1.3 1 .7-.1 1.4-.2 2-.4.6-.1.3-1.1-.3-1zM129.7 404.4c-1.7-.5-3.2-1.4-4.9-1.9-.6-.2-.9.8-.3 1 1.7.5 3.2 1.4 4.9 1.9.6.2.9-.8.3-1zM-13.3 448.8c-5-.5-10.1.2-15-1.5-.6-.2-.9.7-.3 1 4.9 1.8 10.1 1 15.2 1.6.7-.1.7-1.1.1-1.1zM16.4 447.1c-2.4 0-4.7-.9-7.1-.2-.6.2-.4 1.1.3 1 2.2-.7 4.5.3 6.8.3.7-.1.7-1.1 0-1.1zM35.6 446.6c-1.5.5-3 .6-4.6.8-.6.1-.6 1.1 0 1 1.6-.1 3.3-.3 4.9-.8.6-.2.4-1.2-.3-1zM51.6 442.6c-2.5.7-4.9 1.6-7.3 2.4-.6.2-.3 1.2.3 1 2.4-.8 4.8-1.8 7.3-2.4.6-.2.4-1.1-.3-1zM-42.4 444.4c-1.4-.3-2.9-.3-4.1-1.1-.5-.4-1 .5-.5.9 1.3.9 2.9.8 4.3 1.2.7.1 1-.8.3-1zM-57 351.2c-4 1.1-7.2 3.7-10.9 5.6-.6.3-.1 1.2.5.9 3.6-1.8 6.7-4.3 10.6-5.5.7-.3.4-1.2-.2-1zM52.3 349.5c-1-.5-2.1-.7-3.1-1-1.1-.3-2.7-.6-3.4-1.6-.4-.5-1.2 0-.9.5 1.4 2.1 4.7 2 6.8 3 .7.3 1.2-.6.6-.9zM113.2 377.6c-5-6.9-14.5-7.6-21.7-11.1-.6-.3-1.1.6-.5.9 7 3.4 16.5 4 21.3 10.7.4.6 1.3.1.9-.5z"/></svg>