<?xml version="1.0" encoding="utf-8"?>
<!-- Generator: Adobe Illustrator 19.1.0, SVG Export Plug-In . SVG Version: 6.00 Build 0)  -->
<svg version="1.1" id="Layer_1" xmlns="http://www.w3.org/2000/svg" xmlns:xlink="http://www.w3.org/1999/xlink" x="0px" y="0px"
	 viewBox="-65 292 480 210" style="enable-background:new -65 292 480 210;" xml:space="preserve">
<style type="text/css">
	.nav-crown-10-st-0{display:none;}
	.nav-crown-10-st-1{display:inline;fill:transparent;}
	.nav-crown-10-st-2{clip-path:url(#SVGID_4_);fill:#FCDCA4;}
	.nav-crown-10-st-3{clip-path:url(#SVGID_6_);fill:#D72251;}
	.nav-crown-10-st-4{clip-path:url(#SVGID_8_);fill:#0C3846;}
</style>
<g id="Layer_1_1_" class="nav-crown-10-st-0">
	<path class="nav-crown-10-st-1" d="M328,749.4c0,84.3-68.3,152.6-152.6,152.6h-0.7C90.3,902,22,833.7,22,749.4V525.6C22,441.3,90.3,373,174.6,373
		h0.7c84.3,0,152.6,68.3,152.6,152.6V749.4z"/>
</g>
<g id="Layer_2">
	<g>
		<g>
			<defs>
				<rect id="SVGID_1_" x="23.8" y="373" width="302.4" height="130"/>
			</defs>
			<clipPath id="SVGID_2_">
				<use xlink:href="#SVGID_1_"  style="overflow:visible;"/>
			</clipPath>
		</g>
		<g>
			<defs>
				<rect id="SVGID_3_" x="23.8" y="373" width="302.4" height="130"/>
			</defs>
			<clipPath id="SVGID_4_">
				<use xlink:href="#SVGID_3_"  style="overflow:visible;"/>
			</clipPath>
			<path class="nav-crown-10-st-2" d="M316.2,467.8l-278.5-8.6C31,472.8,26.2,487.5,23.8,503h302.4C324.3,490.7,320.9,478.9,316.2,467.8"/>
		</g>
		<g>
			<defs>
				<rect id="SVGID_5_" x="23.8" y="373" width="302.4" height="130"/>
			</defs>
			<clipPath id="SVGID_6_">
				<use xlink:href="#SVGID_5_"  style="overflow:visible;"/>
			</clipPath>
			<path class="nav-crown-10-st-3" d="M47.2,453.5c0,0,0-9,11.2-9c0,0-1.7-11.8,3.8-16.2c5.5-4.4,14.7-3.5,14.7-3.5s1.6-7.9,5.2-9.7
				c5.7-2.7,14,1.2,14,1.2s-1.8-18.6,11.3-24c13.2-5.4,25.9,3,25.9,3s8.9-11.7,22.6-6.8c10.7,3.8,11.9,9.1,11.9,9.1
				s5.1-16.2,22.5-15.5c15.8,0.6,19.8,14.8,19.8,14.8s11.1-11.2,26.6-2.1c15.5,9.1,9.4,26.1,9.4,26.1s12.6-9.6,22.5-3.1
				c7.6,4.9,6,15.3,6,15.3s9.5-3.6,16.8,2.5s4.5,16.8,4.5,16.8L47.2,453.5z"/>
		</g>
		<g>
			<defs>
				<rect id="SVGID_7_" x="23.8" y="373" width="302.4" height="130"/>
			</defs>
			<clipPath id="SVGID_8_">
				<use xlink:href="#SVGID_7_"  style="overflow:visible;"/>
			</clipPath>
			<path class="nav-crown-10-st-4" d="M315.8,466.6l-277.7-8.3l-1,2l279.5,8.4L315.8,466.6z M308.2,451.3l-11,0c0.1-0.4,0.1-0.9,0.1-1.3
				c0-0.8,0.1-1.5,0-2.3c0-0.8-0.1-1.5-0.2-2.3c-0.1-0.8-0.2-1.5-0.4-2.3c-0.2-0.8-0.4-1.5-0.7-2.3c-0.1-0.4-0.3-0.7-0.4-1.1
				c-0.2-0.4-0.3-0.7-0.5-1.1c-0.4-0.7-0.8-1.4-1.3-2c-0.5-0.7-1-1.2-1.5-1.8c-0.4-0.4-0.6-0.5-0.9-0.8c-0.3-0.3-0.6-0.5-1-0.7
				l-1-0.6l-1.1-0.5c-0.4-0.2-0.7-0.3-1.1-0.4c-0.4-0.1-0.8-0.3-1.1-0.3l-1.2-0.3l-1.2-0.2c-0.8-0.1-1.6-0.1-2.4-0.1
				c-0.8,0-1.6,0.1-2.3,0.2c-0.8,0.1-1.5,0.2-2.3,0.4c-0.3,0.1-0.5,0.1-0.8,0.2c0-0.4,0-0.8,0-1.2c0-0.9-0.1-1.8-0.2-2.7
				c-0.2-0.9-0.4-1.8-0.7-2.7c-0.3-0.9-0.6-1.7-1.1-2.5c-0.2-0.4-0.4-0.8-0.7-1.2c-0.3-0.4-0.5-0.8-0.8-1.1l-0.9-1.1
				c-0.3-0.3-0.7-0.7-1-1c-0.2-0.2-0.3-0.3-0.5-0.5l-0.5-0.4l-0.5-0.4l-0.2-0.2l-0.1-0.1l-0.1-0.1l-0.1-0.1l0,0l0,0
				c-0.8-0.5-1.6-1-2.5-1.4c-1.8-0.7-3.7-1-5.6-1c-1.9,0-3.7,0.4-5.4,0.9c-1.7,0.5-3.4,1.2-4.9,2c-0.8,0.4-1.5,0.8-2.3,1.3
				c0.1-0.4,0.2-0.7,0.2-1.1c0.2-1.3,0.3-2.5,0.3-3.8c0-0.6,0-1.3-0.1-1.9l-0.2-1.9l-0.4-1.9c-0.2-0.6-0.4-1.2-0.5-1.9
				c-0.4-1.2-0.9-2.4-1.5-3.6l-0.4-0.9l-0.5-0.8c-0.4-0.5-0.7-1.1-1.1-1.6c-0.4-0.5-0.8-1-1.2-1.5l-1.4-1.4c-0.4-0.5-1-0.8-1.5-1.2
				c-0.5-0.4-1-0.8-1.6-1.1l-1.7-1l-1.6-0.8l-0.8-0.4l-0.1,0l0,0l-0.1,0l-0.1,0l-0.2-0.1l-0.5-0.2l-1.8-0.6
				c-1.3-0.3-2.5-0.6-3.8-0.7c-1.3-0.2-2.6-0.2-3.9-0.1c-0.6,0.1-1.3,0.1-1.9,0.2l-1.9,0.4l-1.9,0.6c-0.6,0.3-1.2,0.5-1.8,0.8
				c-1.2,0.6-2.3,1.2-3.3,2c-0.6,0.5-1.2,0.9-1.7,1.5c-0.3-0.6-0.6-1.2-0.9-1.8c-0.3-0.6-0.6-1.1-1-1.7c-0.3-0.6-0.7-1.1-1.1-1.6
				c-0.4-0.5-0.7-1.1-1.2-1.5c-0.4-0.5-0.8-1-1.3-1.4l-1.4-1.3c-0.5-0.4-1-0.8-1.6-1.2c-0.5-0.4-1.1-0.7-1.7-1
				c-0.6-0.3-1.1-0.7-1.8-0.9l-1.8-0.7c-0.6-0.2-1.3-0.3-1.9-0.5c-1.3-0.4-2.5-0.4-3.8-0.5l-0.5,0l-0.1,0l-0.1,0l-0.1,0l-0.2,0l-1,0
				l-1.9,0.1l-1.9,0.3l-1,0.2c-0.3,0.1-0.6,0.2-0.9,0.3l-1.9,0.6l-1.8,0.8c-0.6,0.2-1.2,0.6-1.7,0.9c-0.6,0.3-1.1,0.6-1.6,1
				c-0.5,0.4-1.1,0.7-1.6,1.2l-1.5,1.3l-1.3,1.4l-1.2,1.5c-0.4,0.5-0.8,1-1.1,1.6c-0.3,0.6-0.7,1.1-1,1.6c-0.3,0.5-0.6,1.1-0.9,1.7
				c-0.1-0.2-0.2-0.3-0.3-0.5c-0.8-1.1-1.8-2.1-2.8-3c-0.5-0.4-1-0.9-1.6-1.3c-0.5-0.4-1.1-0.8-1.7-1.1c-0.6-0.4-1.2-0.6-1.8-1
				l-0.2-0.1l-0.1-0.1l-0.2-0.1l-0.4-0.2l-0.9-0.4c-0.6-0.2-1.2-0.5-1.8-0.7l-2-0.5l-1-0.3l-1-0.1c-0.7-0.1-1.3-0.2-2-0.3l-2.1,0
				c-0.7,0-1.4,0.1-2,0.2c-0.7,0.1-1.4,0.2-2,0.4l-1,0.3c-0.3,0.1-0.6,0.2-1,0.4l-1,0.4c-0.3,0.1-0.6,0.3-0.9,0.5l-0.9,0.5
				c-0.3,0.2-0.6,0.4-0.9,0.6c-1.1,0.7-2.2,1.7-3.1,2.6c-0.7,0.7-1.3,1.5-1.9,2.3c-0.7-0.5-1.4-1-2.1-1.5c-1-0.6-2.1-1.2-3.2-1.7
				c-0.5-0.3-1.1-0.5-1.7-0.7c-0.6-0.2-1.1-0.4-1.7-0.6c-1.2-0.4-2.4-0.7-3.6-0.9l-1.8-0.3c-0.6-0.1-1.2,0-1.9-0.1
				c-0.6,0-1.2,0-1.9,0.1c-0.6,0.1-1.3,0.1-1.9,0.2l-1.8,0.4c-0.6,0.1-1.2,0.4-1.8,0.6c-1.2,0.4-2.3,1-3.4,1.6l-0.4,0.2l-0.1,0l0,0
				l-0.1,0.1l0,0l-0.1,0.1l-0.2,0.1l-0.7,0.5c-0.5,0.3-1,0.6-1.4,1c-1,0.9-2,1.7-2.8,2.7c-0.4,0.5-0.9,0.9-1.2,1.4l-1.1,1.5
				c-0.6,1.1-1.3,2.2-1.7,3.3c-0.5,1.1-0.8,2.3-1.1,3.5c-0.1,0.6-0.3,1.2-0.4,1.8l-0.2,1.8c-0.1,1.2-0.1,2.4-0.1,3.7
				c0,0.6,0.1,1.2,0.1,1.8c-0.1,0-0.1-0.1-0.2-0.1c-0.6-0.3-1.3-0.5-2-0.7c-0.7-0.2-1.3-0.4-2-0.5c-0.7-0.1-1.4-0.3-2.1-0.3
				c-0.7-0.1-1.4-0.1-2.2-0.1c-0.4,0-0.7,0.1-1.1,0.1c-0.4,0-0.7,0.1-1.1,0.2c-0.7,0.1-1.5,0.4-2.2,0.7c-0.4,0.1-0.7,0.4-1,0.6
				l-0.5,0.3l-0.5,0.4l-0.5,0.4l-0.2,0.2l-0.1,0.1l0,0l-0.1,0.1l-0.1,0.1l-0.7,0.8c-0.2,0.2-0.4,0.6-0.7,0.9c-0.2,0.3-0.4,0.7-0.6,1
				c-0.2,0.3-0.3,0.7-0.5,1l-0.3,1.1c-0.2,0.7-0.3,1.5-0.4,2.2c0,0.3,0,0.6,0,0.8c-1.1-0.1-2.1-0.2-3.2-0.2c-0.7,0-1.4,0-2.2,0.1
				c-0.7,0.1-1.4,0.2-2.2,0.3c-0.7,0.1-1.4,0.4-2.1,0.6c-0.7,0.3-1.4,0.5-2,0.9c-0.6,0.4-1.3,0.7-1.9,1.2c-0.3,0.2-0.6,0.5-0.9,0.7
				l-0.8,0.8c-0.6,0.5-0.9,1.2-1.3,1.8c-0.2,0.3-0.4,0.6-0.5,1l-0.5,1l-0.1,0.3l-0.1,0.1l0,0l0,0.1l0,0.1l-0.1,0.5l-0.3,1
				c-0.2,0.6-0.3,1.4-0.4,2.1c-0.2,0.7-0.2,1.4-0.2,2.2c-0.1,0.7,0,1.4-0.1,2.1c0,0.7,0.1,1.4,0.1,2.1c0,0.3,0.1,0.7,0.1,1
				c-0.3,0-0.7,0-1,0.1c-0.7,0.1-1.4,0.2-2.1,0.4c-0.4,0.1-0.7,0.2-1,0.3c-0.3,0.1-0.7,0.2-1,0.4c-0.3,0.2-0.7,0.3-1,0.5
				c-0.3,0.2-0.7,0.4-1,0.6l-0.9,0.7c-0.3,0.3-0.5,0.5-0.8,0.8c-0.3,0.3-0.5,0.6-0.7,0.9l-0.3,0.5c-0.1,0.2-0.2,0.4-0.2,0.5
				c-0.1,0.4-0.3,0.7-0.4,1.1l-0.3,1.2c-0.1,0.3-0.1,0.7-0.1,1.1l-5.2,0l-1.1,2l269.4-1L308.2,451.3z M99.7,452.3
				c0.9-2.6,4-9.7,12.7-9.5c8.6,0.2,12.8,6.6,14.3,9.4L99.7,452.3z M179.3,451.9l-50.3,0.2c-1-2.2-5.9-11.2-16.4-11.4
				c-0.1,0-0.3,0-0.4,0c-10.4,0-13.8,9.2-14.5,11.5l-49.3,0.2c0-0.3,0-0.6,0.1-0.8l0.2-0.9c0.1-0.3,0.2-0.5,0.3-0.8
				c0.1-0.1,0.1-0.3,0.2-0.4l0.2-0.4c0.2-0.2,0.3-0.5,0.5-0.7c0.2-0.2,0.4-0.4,0.6-0.6l0.7-0.5c0.2-0.2,0.5-0.3,0.8-0.5
				c0.3-0.2,0.6-0.3,0.8-0.4c0.3-0.1,0.6-0.2,0.9-0.3c0.3-0.1,0.6-0.2,0.9-0.3c0.6-0.2,1.2-0.3,1.9-0.3c0.3,0,0.6-0.1,1-0.1
				c0.3,0,0.6,0,0.9,0h0l1.2,0.1l-0.1-1.2c-0.1-0.6-0.1-1.3-0.1-1.9c0-0.7,0-1.3,0-2c0.1-0.7,0-1.3,0.1-2c0.1-0.6,0.1-1.3,0.3-1.9
				l0.2-0.9l0.1-0.5l0.6-2l0,0l0,0l0-0.1l0.1-0.2l0.4-0.8c0.1-0.3,0.3-0.6,0.4-0.8c0.4-0.5,0.6-1.1,1.1-1.5l0.6-0.7
				c0.2-0.2,0.5-0.4,0.7-0.6c0.4-0.4,1-0.7,1.5-1c0.5-0.3,1.1-0.5,1.7-0.8c0.6-0.2,1.2-0.4,1.8-0.5c0.6-0.2,1.3-0.3,1.9-0.4
				c0.6-0.1,1.3-0.1,1.9-0.2c1.1-0.1,2.1,0,3.2,0.1c0,0.5,0.1,0.9,0.2,1.4c0.1,0.7,0.3,1.4,0.5,2.1c0,0.1,0.1,0.3,0.1,0.4
				c-0.4,0-0.9-0.1-1.3-0.1c-0.5,0-1,0-1.6,0.1c-0.5,0.1-1,0.2-1.6,0.3c-1,0.3-2,0.7-2.9,1.4c-0.4,0.3-0.8,0.7-1.2,1.1
				c-0.4,0.4-0.7,0.8-1,1.3c-0.3,0.4-0.5,0.9-0.7,1.4c-0.2,0.5-0.4,1-0.5,1.5c-0.1,0.5-0.2,1-0.3,1.5c-0.1,0.5-0.1,1-0.1,1.5
				c0,0.5,0,1,0,1.5c0,0.5,0,1,0.1,1.5c0.1,1,0.3,1.9,0.5,2.9c-0.1-1-0.1-1.9-0.1-2.9c0-1,0.1-1.9,0.2-2.9c0.1-0.5,0.1-0.9,0.2-1.4
				c0.1-0.5,0.2-0.9,0.4-1.4c0.1-0.5,0.3-0.9,0.5-1.3c0.2-0.4,0.5-0.8,0.7-1.2c0.3-0.4,0.6-0.7,0.9-1c0.3-0.3,0.7-0.6,1.1-0.8
				c0.8-0.5,1.6-0.7,2.5-0.9c0.9-0.2,1.8-0.2,2.7-0.1c0.5,0,0.9,0.1,1.4,0.2c0.4,0.1,0.9,0.4,1.3,0.4h0l1.8,0.5l-0.6-2.1
				c-0.2-0.5-0.4-1.2-0.5-1.8c-0.1-0.6-0.2-1.2-0.3-1.9c-0.1-0.6-0.1-1.2-0.1-1.9c0-0.6,0-1.2,0.1-1.8c0.1-0.6,0.2-1.2,0.4-1.8
				l0.3-0.8c0.1-0.3,0.3-0.5,0.4-0.8c0.1-0.3,0.3-0.5,0.4-0.7c0.2-0.2,0.2-0.4,0.5-0.7l0.7-0.8l0.6-0.5l0.3-0.3l0.4-0.2
				c0.2-0.1,0.5-0.3,0.7-0.4c0.5-0.2,1.1-0.4,1.6-0.5c0.3-0.1,0.6-0.1,0.9-0.2c0.3,0,0.6-0.1,0.9-0.1c0.6,0,1.2,0,1.8,0
				c0.6,0,1.2,0.1,1.9,0.2c0.6,0.1,1.2,0.3,1.9,0.4c0.6,0.2,1.2,0.3,1.8,0.5c0.6,0.2,1.2,0.4,1.8,0.7l0,0l1.6,0.9l-0.2-1.9
				c-0.1-1-0.1-2.2-0.1-3.3c0-1.1,0.2-2.2,0.3-3.3l0.3-1.6c0.1-0.5,0.3-1.1,0.4-1.6c0.3-1.1,0.7-2.1,1.1-3.1c0.2-0.5,0.4-1,0.7-1.5
				c0.3-0.5,0.5-1,0.8-1.4l0.9-1.3c0.3-0.5,0.7-0.8,1.1-1.2c0.7-0.9,1.5-1.5,2.3-2.2c0.4-0.3,0.9-0.7,1.4-1l0.7-0.5l0.2-0.1l0.1,0
				l0,0l0.4-0.2c1-0.5,1.9-1.1,2.9-1.4c0.5-0.2,1-0.4,1.5-0.5l1.6-0.4c0.5-0.1,1.1-0.1,1.6-0.2c0.5-0.1,1.1-0.1,1.6-0.1
				c0.5,0,1.1,0,1.6,0l1.6,0.2c1.1,0.2,2.2,0.3,3.2,0.7c0.5,0.1,1.1,0.3,1.6,0.5c0.5,0.2,1.1,0.4,1.6,0.6c1,0.4,2.1,0.9,3.1,1.4
				c1,0.5,2,1.1,2.9,1.7h0l0.8,0.7l0.6-1c0.6-0.9,1.5-1.9,2.3-2.7c0.9-0.8,1.8-1.6,2.9-2.2c0.3-0.2,0.5-0.3,0.8-0.5l0.8-0.4
				c0.3-0.1,0.5-0.3,0.8-0.4l0.8-0.3l0.8-0.3l0.9-0.2c0.6-0.1,1.2-0.3,1.8-0.3l0.9-0.1c0.3,0,0.6-0.1,0.9,0l1.8,0
				c0.6,0.1,1.2,0.2,1.8,0.3l0.9,0.1l0.9,0.2l1.7,0.5c0.6,0.2,1.2,0.5,1.8,0.7l0.9,0.4l0.4,0.2l0.1,0l0,0l0.1,0l0.2,0.1
				c0.5,0.3,1.1,0.5,1.6,0.8c0.5,0.3,1,0.6,1.5,1c0.5,0.3,1,0.7,1.4,1.1c0.9,0.8,1.7,1.6,2.4,2.6c0.7,0.9,1.3,2,1.8,3.1
				c0.5,1.1,0.9,2.2,1.2,3.4c0.6,2.3,0.7,4.8,0.6,7.3c-0.1,1.2-0.2,2.5-0.4,3.7c-0.2,1-0.4,2-0.7,3c-1.2-0.2-2.4-0.1-3.7-0.1
				c-1.2,0.1-2.5,0.2-3.7,0.4c-0.6,0.1-1.2,0.2-1.8,0.3c-0.6,0.1-1.2,0.2-1.8,0.4c-0.8,0.2-1.5,0.4-2.2,0.6
				c-0.1-0.2-0.1-0.5-0.1-0.7c-0.1-0.7-0.4-1.3-0.5-1.9c-0.2-0.6-0.4-1.3-0.6-1.9c-0.2-0.6-0.5-1.2-0.9-1.8
				c-0.7-1.2-1.5-2.3-2.5-3.2c-1-1-2.2-1.7-3.5-2.2c-0.3-0.1-0.7-0.2-1-0.3c-0.3-0.1-0.7-0.2-1-0.2c-0.7-0.1-1.3-0.2-2-0.2
				c-0.7,0-1.3,0-2,0.1c-0.7,0.1-1.3,0.2-1.9,0.4c-0.6,0.1-1.2,0.4-1.8,0.6c-0.6,0.2-1.2,0.5-1.8,0.7c-0.6,0.3-1.1,0.6-1.7,0.9
				c-0.5,0.3-1.1,0.6-1.6,1c0.6-0.2,1.2-0.4,1.8-0.6c0.6-0.2,1.2-0.3,1.8-0.5l1.8-0.4c0.6-0.1,1.2-0.2,1.8-0.3
				c0.6-0.1,1.2-0.1,1.8-0.1c0.6,0,1.2,0,1.8,0.1c0.6,0.1,1.1,0.2,1.7,0.3c0.3,0.1,0.5,0.2,0.8,0.3c0.3,0.1,0.5,0.2,0.8,0.3
				c1,0.5,1.9,1.2,2.7,1.9c0.8,0.8,1.4,1.7,2,2.7c0.3,0.5,0.6,1,0.8,1.5c0.2,0.5,0.5,1.1,0.7,1.6c0.2,0.6,0.4,1.1,0.6,1.7
				c0.2,0.6,0.5,1.2,0.5,1.7v0l0,1.2l1.1-0.4c1.1-0.4,2.2-0.7,3.4-1c0.6-0.2,1.1-0.3,1.7-0.4c0.6-0.1,1.1-0.2,1.7-0.3
				c1.2-0.2,2.3-0.3,3.5-0.3c1.2,0,2.3,0,3.4,0.1c0.6,0,1.1,0.1,1.7,0.3c0.6,0.1,1.1,0.2,1.6,0.4c1.1,0.3,2.1,0.8,3.1,1.3l1.4,0.9
				c0.4,0.4,0.8,0.8,1.2,1.1l0.3,0.3l0.3,0.3l0.5,0.7l0.5,0.7l0.4,0.7c0.3,0.5,0.6,1,0.8,1.5l0.6,1.6c0.2,0.5,0.4,1.1,0.5,1.7
				l0.4,1.7c0.2,1.2,0.4,2.3,0.6,3.5l0.2,1.8c0.1,0.6,0.1,1.2,0.1,1.8c0,0.6,0.1,1.2,0,1.8c0,0.6,0,1.2,0,1.7
				c-0.1,1.2-0.2,2.3-0.4,3.4c-0.2,1.1-0.6,2.2-1,3.2c-0.4,1-1,2-1.7,2.6L179.3,451.9z M295.2,450c0,0.5-0.1,1-0.1,1.4l-15.3,0.1
				c0-0.3,0-0.5,0-0.9c0-0.6-0.1-1.2-0.3-2c-0.2-0.8-0.4-1.6-0.8-2.5c-0.2-0.4-0.4-0.9-0.7-1.3c-0.1-0.2-0.3-0.4-0.4-0.7
				c-0.2-0.2-0.3-0.4-0.5-0.6c-0.3-0.4-0.7-0.8-1.1-1.3c-0.4-0.4-0.8-0.8-1.3-1.2c-0.4-0.4-0.9-0.7-1.5-1l-0.8-0.5l-0.8-0.4
				c-1.1-0.6-2.2-0.9-3.4-1.4l-1.7-0.4c-0.5-0.2-1.2-0.2-1.8-0.3c-0.6-0.1-1.2-0.1-1.8-0.1c-0.6,0-1.2,0.1-1.8,0.2
				c-0.6,0.1-1.1,0.3-1.7,0.4c-0.5,0.1-1,0.4-1.5,0.7c-1,0.5-1.7,1.2-2.4,1.8c-0.3,0.3-0.6,0.7-0.9,1c-0.2,0.3-0.5,0.6-0.7,1
				c-0.4,0.6-0.7,1.2-0.9,1.7c-0.2,0.5-0.3,0.9-0.4,1.1c-0.1,0.3-0.1,0.4-0.1,0.4s0.3-0.5,0.8-1.4c0.3-0.4,0.7-0.9,1.1-1.4
				c0.2-0.3,0.5-0.5,0.8-0.8c0.3-0.2,0.6-0.5,0.9-0.8c0.4-0.2,0.7-0.5,1.1-0.7c0.4-0.2,0.8-0.5,1.2-0.6c0.4-0.2,0.9-0.4,1.4-0.5
				c0.5-0.1,1-0.2,1.5-0.3c0.5-0.1,1-0.1,1.5-0.1c0.5,0,1.1,0,1.6,0.1l0.8,0.1c0.3,0,0.5,0.1,0.8,0.2l1.7,0.5c0.9,0.4,2.1,0.8,3,1.3
				l0.7,0.4l0.7,0.4c0.4,0.3,0.9,0.6,1.3,0.9c0.4,0.3,0.8,0.6,1.1,1c0.3,0.3,0.7,0.7,0.9,1.1c0.1,0.2,0.3,0.4,0.4,0.5
				c0.1,0.2,0.2,0.4,0.3,0.6c0.2,0.4,0.4,0.7,0.6,1.1c0.4,0.7,0.6,1.4,0.7,2c0.2,0.6,0.2,1.2,0.3,1.7c0,0.3,0,0.5,0.1,0.8l-96.2,0.4
				c0.1-0.1,0.1-0.2,0.2-0.3c0.4-0.6,0.7-1.1,0.9-1.7c0.5-1.2,0.9-2.4,1.1-3.6c0.3-1.2,0.4-2.5,0.4-3.7c0.1-0.6,0-1.2,0-1.9
				c0-0.6,0-1.2-0.1-1.8c0-0.6-0.1-1.2-0.1-1.8l-0.2-1.8c-0.1-1.2-0.4-2.4-0.6-3.6l-0.5-1.8c-0.2-0.6-0.3-1.2-0.5-1.8l-0.7-1.8
				c-0.3-0.6-0.6-1.1-0.9-1.7l-0.5-0.8l-0.6-0.8l-0.6-0.8l-0.3-0.4l-0.4-0.3c-0.5-0.4-0.9-0.9-1.4-1.3l-1.6-1.1
				c-1.1-0.6-2.3-1.2-3.5-1.5c-0.6-0.2-1.2-0.3-1.8-0.4c0.3-1,0.6-2,0.8-2.9c0.3-1.3,0.5-2.6,0.6-3.9c0.2-2.6,0.1-5.4-0.5-8
				c-0.4-1.7-1-3.3-1.8-4.9c0.4-0.9,0.8-1.9,1.3-2.8c0.3-0.5,0.6-1,0.9-1.5l1-1.5l1.1-1.4l1.2-1.3l1.3-1.2c0.4-0.4,1-0.7,1.4-1.1
				c0.5-0.4,1-0.6,1.5-0.9c0.5-0.3,1-0.6,1.6-0.8l1.6-0.7l1.7-0.5c0.3-0.1,0.6-0.2,0.9-0.2l0.9-0.1l1.8-0.3l1.8-0.1l1.1,0l0,0l0.1,0
				l0.5,0c1.2,0.1,2.5,0.1,3.6,0.5c0.6,0.1,1.1,0.2,1.7,0.4l1.6,0.6c0.6,0.2,1.1,0.5,1.6,0.8c0.5,0.3,1,0.5,1.5,0.9
				c0.5,0.4,1,0.7,1.4,1l1.3,1.2c0.4,0.4,0.8,0.9,1.2,1.3c0.4,0.4,0.8,0.9,1.1,1.4c0.4,0.5,0.7,1,1,1.5c0.3,0.5,0.6,1,0.9,1.6
				c0.6,1.1,1.1,2.1,1.5,3.3c0.4,1.1,0.8,2.3,1.1,3.4l0.3,1.3l1.2-0.7l0,0c0.5-0.2,1-0.4,1.5-0.6c0.5-0.2,1-0.4,1.5-0.5
				c0.5-0.1,1-0.3,1.6-0.4c0.5-0.1,1-0.2,1.6-0.2c0.5,0,1-0.1,1.6,0c0.5,0,1,0.1,1.5,0.2c0.5,0.1,1,0.3,1.4,0.5l0.3,0.1l0.4,0.2
				c0.2,0.1,0.5,0.3,0.7,0.4c0.4,0.3,0.9,0.6,1.3,0.9c0.4,0.4,0.8,0.7,1.1,1.1c0.3,0.4,0.6,0.9,0.9,1.3c0.2,0.5,0.4,1,0.5,1.5
				c0.1,0.5,0.2,1.1,0.2,1.6c0,0.6,0,1.1-0.1,1.7c-0.1,0.6-0.2,1.1-0.4,1.7c-0.1,0.6-0.4,1.1-0.5,1.6c0.3-0.5,0.6-1,0.8-1.5
				c0.3-0.5,0.5-1.1,0.7-1.6c0.2-0.6,0.3-1.2,0.4-1.8c0.1-0.6,0.1-1.2,0-1.8c-0.1-0.6-0.2-1.2-0.4-1.8c-0.2-0.6-0.5-1.2-0.8-1.7
				c-0.3-0.5-0.7-1-1.2-1.5c-0.4-0.4-0.9-0.9-1.4-1.3c-0.3-0.2-0.5-0.3-0.7-0.5l-0.4-0.2c-0.2-0.1-0.3-0.2-0.5-0.3
				c-0.6-0.3-1.2-0.6-1.8-0.8c-0.6-0.2-1.3-0.3-1.9-0.4c-0.3,0-0.6-0.1-1-0.1c-0.3,0-0.6,0-1,0c-0.6,0-1.3,0.1-1.9,0.3
				c-0.6,0.1-1.2,0.3-1.8,0.5c-0.6,0.2-1.2,0.4-1.7,0.7c-0.2,0.1-0.3,0.2-0.5,0.3c-0.2-0.7-0.4-1.3-0.6-2c0.7-0.6,1.4-1.2,2.2-1.7
				c1-0.6,2-1.1,3-1.6c0.5-0.2,1.1-0.4,1.6-0.6l1.6-0.5l1.7-0.3c0.6-0.1,1.1-0.1,1.7-0.1c1.1,0,2.3,0,3.4,0.1
				c1.1,0.1,2.2,0.4,3.3,0.7l1.6,0.6l0.7,0.3l0.8,0.4l1.7,0.8l1.4,0.9c0.5,0.3,0.9,0.6,1.4,1c0.4,0.4,0.9,0.7,1.3,1.1l1.2,1.2
				l1.1,1.3c0.4,0.4,0.7,0.9,1,1.4l0.5,0.7l0.4,0.7c0.6,1,1,2,1.4,3.1c0.2,0.5,0.4,1.1,0.5,1.6l0.4,1.7l0.3,1.7
				c0.1,0.6,0.1,1.2,0.1,1.7c0.1,1.2,0,2.3-0.1,3.5c0,0.6-0.2,1.1-0.2,1.7c-0.1,0.6-0.2,1.1-0.4,1.7l-0.6,2.7l2.1-1.6l0,0
				c0.7-0.4,1.4-0.8,2.1-1.2c0.7-0.4,1.5-0.7,2.2-1.1c1.5-0.7,3-1.2,4.6-1.7c1.6-0.4,3.1-0.7,4.7-0.7c1.6,0,3.1,0.2,4.4,0.8
				c0.7,0.3,1.3,0.7,1.9,1.1c0.5,0.4,1.4,1,1.8,1.5c0.3,0.3,0.5,0.5,0.8,0.8l0.8,0.9c0.3,0.3,0.5,0.6,0.7,0.9c0.2,0.3,0.4,0.6,0.6,1
				c0.4,0.7,0.7,1.4,1,2.1c0.3,0.7,0.5,1.5,0.7,2.3c0.2,0.8,0.3,1.6,0.4,2.3c0.1,0.8,0.1,1.6,0.1,2.3l-0.1,1.7l1.4-0.6l0,0
				c0.6-0.2,1.3-0.4,2-0.5c0.7-0.2,1.4-0.3,2.1-0.4c0.7-0.1,1.4-0.1,2.1-0.1c0.7,0,1.4,0,2.1,0.1l1,0.1l1,0.2c0.3,0.1,0.7,0.2,1,0.3
				c0.3,0.1,0.7,0.2,1,0.4l0.9,0.4l0.9,0.5c0.3,0.2,0.6,0.4,0.8,0.6c0.2,0.2,0.6,0.5,0.7,0.6c0.5,0.5,1.1,1.1,1.4,1.6
				c0.4,0.5,0.7,1.1,1.1,1.7c0.2,0.3,0.3,0.6,0.4,0.9c0.1,0.3,0.3,0.6,0.4,1c0.2,0.7,0.4,1.3,0.6,2c0.1,0.7,0.3,1.4,0.4,2.1
				c0.1,0.7,0.1,1.4,0.2,2.1C295.3,448.5,295.3,449.3,295.2,450 M60.8,496.1c-1.7,0.4-6.9,1.5-7.5,1.5c-0.4,0-0.7,0.3-0.7,0.8
				c0,0.4,0.3,0.8,0.8,0.8c0.5,0,2.6-0.4,7.8-1.5c0.4-0.1,0.7-0.5,0.6-0.9C61.6,496.3,61.3,496,60.8,496.1 M61,489.4
				c-4-0.2-9.1,3-9.3,3.1c-0.3,0.2-0.5,0.7-0.2,1c0.1,0.2,0.4,0.4,0.6,0.4c0.1,0,0.3,0,0.4-0.1c0,0,4.8-3,8.4-2.9
				c0.4,0,0.8-0.3,0.8-0.7C61.8,489.8,61.4,489.4,61,489.4 M62.4,483.6c-3.8-0.4-8.2,1.8-8.4,1.9c-0.4,0.2-0.5,0.6-0.3,1
				c0.1,0.3,0.4,0.4,0.7,0.4c0.1,0,0.2,0,0.3-0.1c0,0,4.2-2.1,7.6-1.8c0.4,0,0.8-0.3,0.8-0.7C63.1,484,62.8,483.6,62.4,483.6
				 M64.3,478.3c-1.5-0.2-4.4,0.1-6.6,0.3c-0.9,0.1-1.9,0.2-2.2,0.2c-0.4-0.1-0.8,0.1-0.9,0.5c-0.1,0.4,0.1,0.8,0.5,0.9
				c0.1,0,0.2,0.1,0.5,0.1c0.4,0,1-0.1,2.3-0.2c1.9-0.2,4.8-0.5,6.2-0.3c0.4,0.1,0.8-0.2,0.8-0.6C65,478.7,64.7,478.3,64.3,478.3
				 M66.4,473.6l-7.5,1.3c-0.4,0.1-0.7,0.5-0.6,0.9c0.1,0.4,0.4,0.6,0.7,0.6c0,0,0.1,0,0.1,0l7.5-1.3c0.4-0.1,0.7-0.5,0.6-0.9
				C67.2,473.8,66.8,473.5,66.4,473.6 M66.1,467.9l-5.2,1.3c-0.4,0.1-0.6,0.5-0.5,0.9c0.1,0.3,0.4,0.6,0.7,0.6c0.1,0,0.1,0,0.2,0
				l5.2-1.3c0.4-0.1,0.6-0.5,0.5-0.9C67,468.1,66.5,467.8,66.1,467.9 M237,438.9l-1-1.3c-0.3-0.4-0.8-0.8-1.2-1.2l-0.6-0.6
				c-0.2-0.2-0.5-0.3-0.7-0.5c-0.5-0.3-0.9-0.6-1.4-0.9l-1.6-0.6c-0.5-0.2-1.1-0.3-1.6-0.4c-0.5-0.2-1.1-0.2-1.7-0.2
				c-0.6-0.1-1.1-0.1-1.7-0.1c-0.6,0-1.1,0-1.7,0.1c-0.6,0.1-1.1,0.1-1.6,0.3c-0.5,0.1-1.1,0.2-1.6,0.4c-0.5,0.1-1.1,0.3-1.6,0.5
				c-0.4,0.1-0.8,0.3-1.1,0.4c0,0,0,0,0,0c0.1-0.7,0.4-1.5,0.4-2.3c0-0.8,0-1.5-0.2-2.3c-0.1-0.8-0.4-1.5-0.6-2.2
				c-0.2-0.4-0.3-0.7-0.5-1.1l-0.6-1c-0.2-0.3-0.5-0.6-0.7-0.9c-0.1-0.1-0.2-0.3-0.4-0.4l-0.4-0.4c-0.3-0.3-0.6-0.6-0.9-0.8
				l-0.9-0.6l-0.2-0.1l-0.1-0.1l0,0l-0.1,0l0,0l0,0l-0.1,0l-0.5-0.3c-0.4-0.2-0.7-0.3-1.1-0.5c-0.8-0.2-1.5-0.5-2.3-0.5
				c-0.4,0-0.8-0.1-1.2-0.1l-1.2,0.1c-0.4,0-0.8,0.1-1.1,0.2c-0.4,0.1-0.7,0.2-1.1,0.3c-0.4,0.1-0.7,0.2-1.1,0.4l-1,0.5
				c-0.6,0.3-1.3,0.7-1.9,1.1c-0.6,0.4-1.2,0.9-1.7,1.3c-0.5,0.5-1.1,1-1.5,1.5c-0.5,0.5-1,1.1-1.4,1.6c1.1-0.9,2.3-1.7,3.5-2.4
				c0.6-0.3,1.2-0.7,1.8-1c0.6-0.3,1.2-0.6,1.9-0.8l0.9-0.3c0.3-0.1,0.6-0.2,1-0.3c0.3-0.1,0.6-0.1,1-0.2c0.3,0,0.6-0.1,1-0.1l1,0
				c0.3,0,0.6,0.1,0.9,0.1c0.6,0,1.2,0.3,1.8,0.5l0.8,0.4l0.4,0.2l0.1,0l0,0l0.1,0.1l0.2,0.2l0.9,0.6c0.3,0.2,0.4,0.4,0.7,0.6
				c0.2,0.2,0.4,0.4,0.6,0.7c0.2,0.2,0.4,0.5,0.6,0.7l0.5,0.8l0.4,0.8c0.2,0.6,0.4,1.2,0.5,1.8c0.1,0.6,0.2,1.3,0.2,1.9
				c0,0.6,0,1.3-0.1,1.9c-0.1,0.6-0.2,1.3-0.4,1.9v0l-1,2.3l2.4-1.1c0.4-0.2,0.9-0.4,1.4-0.6c0.5-0.2,0.9-0.3,1.4-0.5
				c1-0.3,1.9-0.6,2.9-0.7c0.5-0.1,1-0.2,1.5-0.2c0.5-0.1,1-0.1,1.5-0.1c0.5,0,1-0.1,1.5,0c0.5,0,1,0,1.5,0.1c0.5,0.1,1,0.1,1.4,0.3
				l1.4,0.4c0.5,0.2,0.9,0.4,1.3,0.6c0.2,0.1,0.5,0.2,0.7,0.3l0.6,0.4c0.4,0.3,0.9,0.5,1.2,0.9l1.1,1c0.4,0.3,0.7,0.7,1.1,1.1
				c0.3,0.4,0.7,0.8,1.1,1.2c-0.2-0.5-0.5-1-0.7-1.4C237.6,439.8,237.4,439.3,237,438.9 M136.1,428.3c-0.6,0.4-1.3,0.9-2.2,1.4
				c-0.4,0.3-0.9,0.5-1.4,0.8c-0.5,0.3-1,0.5-1.5,0.8c-1.1,0.5-2.3,1-3.6,1.3c-1.3,0.3-2.7,0.4-4.1,0.2c-1.4-0.1-2.9-0.6-4.3-1.2
				c-1.4-0.6-2.8-1.4-4.3-2.2c-1.4-0.8-2.9-1.7-4.4-2.5c-1.5-0.7-3.1-1.4-4.9-1.6l-0.6,0c-0.3,0-0.4,0-0.7,0c-0.4,0-0.8,0-1.2,0.1
				c-0.8,0.2-1.6,0.2-2.3,0.6c-0.7,0.2-1.4,0.6-2,1c-0.6,0.4-1.2,0.8-1.6,1.3c-1,0.9-1.7,1.9-2.2,2.8c-0.5,0.9-0.9,1.8-1.1,2.4
				c-0.2,0.7-0.4,1.3-0.5,1.6c-0.1,0.4-0.1,0.6-0.1,0.6s0.3-0.8,0.9-2.1c0.3-0.6,0.8-1.4,1.4-2.2c0.6-0.8,1.3-1.6,2.3-2.4
				c0.5-0.4,1-0.7,1.5-1c0.6-0.2,1.2-0.5,1.8-0.7c0.6-0.2,1.3-0.2,2-0.3c0.4,0,0.7,0,1.1,0c0.2,0,0.4,0,0.5,0l0.6,0.1
				c1.3,0.2,2.8,0.9,4.1,1.6c1.4,0.8,2.8,1.7,4.2,2.6c1.4,0.9,2.9,1.8,4.5,2.5c1.6,0.7,3.3,1.2,5,1.3c1.7,0.2,3.4-0.1,4.9-0.5
				c0.7-0.2,1.4-0.5,2.1-0.8c0.6-0.3,1.3-0.6,1.8-1c0.6-0.3,1.1-0.7,1.5-1.1c0.5-0.4,0.9-0.7,1.3-1.1c0.8-0.7,1.4-1.4,1.9-1.9
				c0.5-0.6,0.8-1,1.1-1.4c0.2-0.3,0.4-0.5,0.4-0.5s-0.2,0.1-0.5,0.3C137.2,427.6,136.7,427.9,136.1,428.3"/>
		</g>
	</g>
</g>
</svg>
