<?xml version="1.0" encoding="utf-8"?>
<!-- Generator: Adobe Illustrator 19.1.0, SVG Export Plug-In . SVG Version: 6.00 Build 0)  -->
<svg version="1.1" id="Layer_1" xmlns="http://www.w3.org/2000/svg" xmlns:xlink="http://www.w3.org/1999/xlink" x="0px" y="0px"
	 viewBox="-65 292 480 210" style="enable-background:new -65 292 480 210;" xml:space="preserve">
<style type="text/css">
	.nav-crown-13-st-0{display:none;}
	.nav-crown-13-st-1{display:inline;fill:transparent;}
	.nav-crown-13-st-2{fill:#D72050;}
	.nav-crown-13-st-3{fill:#F0A732;}
	.nav-crown-13-st-4{fill:#FCDCA4;}
	.nav-crown-13-st-5{fill:#75A08A;}
</style>
<g id="Layer_1_1_" class="nav-crown-12-st-0">
	<path class="nav-crown-13-st-1" d="M328,749.4c0,84.3-68.3,152.6-152.6,152.6h-0.7C90.3,902,22,833.7,22,749.4V525.6C22,441.3,90.3,373,174.6,373
		h0.7c84.3,0,152.6,68.3,152.6,152.6V749.4z"/>
</g>
<g>
	<path class="nav-crown-13-st-2" d="M100.5,415.9c-7.9,10.6-17.8,19.3-25.8,29.8c-4,5.2-8.4,10.2-11.7,15.9c-1.6,2.7-3.2,5.5-4.7,8.3
		c-1.6,2.9-2.9,6.1-5.1,8.7c-0.4,0.5,0.3,1.2,0.7,0.7c1.7-2,2.9-4.4,4.1-6.7c1.4-2.8,3-5.4,4.5-8.1c3.4-6.1,7.8-11.2,11.9-16.8
		c8.3-11,18.6-20.2,26.9-31.2C101.8,415.9,100.9,415.4,100.5,415.9z"/>
	<path class="nav-crown-13-st-2" d="M59.3,473c-2.3-0.3-4.7,0-6.9-0.8c-0.6-0.2-0.9,0.8-0.3,1c2.2,0.7,4.6,0.4,6.9,0.8
		C59.7,474.1,60,473.1,59.3,473z"/>
	<path class="nav-crown-13-st-2" d="M63,469.3c-2-1.1-4-2.2-5.9-3.5c-0.5-0.4-1,0.5-0.5,0.9c1.9,1.3,3.9,2.4,5.9,3.5C63,470.5,63.5,469.6,63,469.3
		z"/>
	<path class="nav-crown-13-st-2" d="M64.6,464.7c-1.9-1-2.6-3.5-4.6-4.4c-0.6-0.3-1.1,0.6-0.5,0.9c2,0.9,2.7,3.4,4.6,4.4
		C64.7,465.9,65.2,465,64.6,464.7z"/>
	<path class="nav-crown-13-st-2" d="M68.7,459.5c-1.6-0.6-2.7-1.9-3.9-3.1c-0.5-0.5-1.2,0.2-0.7,0.7c1.3,1.3,2.6,2.7,4.3,3.4
		C69.1,460.7,69.3,459.7,68.7,459.5z"/>
	<path class="nav-crown-13-st-2" d="M71.8,455.3c-1.8-0.9-3.4-2.2-5.4-2.8c-0.6-0.2-0.9,0.8-0.3,1c1.9,0.6,3.4,1.9,5.1,2.7
		C71.9,456.5,72.4,455.6,71.8,455.3z"/>
	<path class="nav-crown-13-st-2" d="M76,449.5c-1.7-0.6-3.5-1-5.2-1.8c-0.6-0.2-0.9,0.7-0.3,1c1.7,0.7,3.5,1.1,5.2,1.8
		C76.3,450.7,76.6,449.7,76,449.5z"/>
	<path class="nav-crown-13-st-2" d="M77.8,445.8c-0.8-0.3-1.6-0.6-2.2-1.1c-0.6-0.5-1-1.3-1.3-2c-0.2-0.6-1.2-0.3-1,0.3c0.4,0.9,0.8,1.8,1.6,2.5
		c0.7,0.7,1.7,1,2.6,1.4C78.2,447,78.4,446,77.8,445.8z"/>
	<path class="nav-crown-13-st-2" d="M82.5,441.6c-2.3-1-4.2-3.2-5.7-5.2c-0.4-0.5-1.2,0-0.9,0.5c1.6,2.2,3.5,4.4,6.1,5.6
		C82.5,442.7,83,441.8,82.5,441.6z"/>
	<path class="nav-crown-13-st-2" d="M85.2,438.1c-1.1-1.2-2.4-2.2-3.7-3.1c-0.3-0.7-0.4-1.3-0.5-2c-0.1-0.6-1.1-0.6-1,0c0.1,0.7,0.3,1.5,0.5,2.2
		c0,0.2,0,0.4,0.2,0.5c0.8,1.7,2.1,3.1,4.1,3.3C85.3,439.1,85.4,438.4,85.2,438.1z"/>
	<path class="nav-crown-13-st-2" d="M88.1,433.9c-1-0.5-1.7-1.3-2.4-2c-0.5-0.5-1.2,0.2-0.7,0.7c0.8,0.8,1.6,1.7,2.6,2.2
		C88.1,435.1,88.7,434.2,88.1,433.9z"/>
	<path class="nav-crown-13-st-2" d="M90.6,431.1c-1.7-0.9-3.3-2.1-4.5-3.5c-0.4-0.5-1.1,0.2-0.7,0.7c1.3,1.5,2.9,2.8,4.7,3.7
		C90.7,432.2,91.2,431.4,90.6,431.1z"/>
	<path class="nav-crown-13-st-2" d="M94.2,428.2c-1.6-1.1-3.5-1.7-4.8-3.2c-0.4-0.5-1.1,0.2-0.7,0.7c1.4,1.5,3.4,2.1,5,3.3
		C94.2,429.4,94.7,428.6,94.2,428.2z"/>
	<path class="nav-crown-13-st-2" d="M97.5,424.7c-1.6-1.1-3.4-1.7-5.1-2.4c-0.6-0.2-0.9,0.7-0.3,1c1.7,0.7,3.4,1.2,4.9,2.3
		C97.5,425.9,98,425.1,97.5,424.7z"/>
	<path class="nav-crown-13-st-2" d="M99.7,421.2c-1.6-0.9-3.4-1.5-4.6-2.9c-0.4-0.5-1.1,0.2-0.7,0.7c1.3,1.5,3.2,2.2,4.9,3.1
		C99.8,422.4,100.3,421.5,99.7,421.2z"/>
	<path class="nav-crown-13-st-3" d="M100.5,414.9c-1.1,1.3-2.3,2.7-3.4,4c-0.7-0.4-1.3-0.7-2-1.1c-0.6-0.3-1.1,0.6-0.5,0.9c0.6,0.3,1.2,0.6,1.8,1
		c-0.7,0.9-1.5,1.7-2.2,2.6c-0.6-0.2-1.1-0.3-1.7-0.5c-0.6-0.2-0.9,0.8-0.3,1c0.4,0.1,0.8,0.2,1.2,0.3c-0.7,0.8-1.4,1.6-2.1,2.4
		c-0.6-0.4-1.2-0.8-1.8-1.1c-0.6-0.3-1.1,0.6-0.5,0.9c0.6,0.3,1.1,0.6,1.6,1c-0.7,0.8-1.5,1.6-2.2,2.5c-0.8-0.6-1.6-1.2-2.4-1.8
		c-0.5-0.4-1,0.5-0.5,0.9c0.8,0.6,1.5,1.1,2.3,1.7c-0.6,0.7-1.3,1.4-1.9,2.2c-0.1-0.1-0.2-0.2-0.4-0.2c-0.6-0.3-1.1,0.6-0.5,0.9
		c0.1,0,0.1,0.1,0.2,0.1c-0.8,0.9-1.6,1.9-2.5,2.8c-0.7-0.7-1.2-1.6-1.5-2.5c-0.2-0.6-1.1-0.4-1,0.3c0.3,1.1,1,2.1,1.8,3
		c-0.9,1-1.7,2-2.6,3c-0.9-0.8-1.7-1.7-2.3-2.8c-0.3-0.6-1.2-0.1-0.9,0.5c0.6,1.2,1.5,2.2,2.5,3.1c-1.2,1.4-2.3,2.7-3.4,4.1
		c-0.4-0.4-0.6-0.9-0.7-1.4c0-0.6-1-0.6-1,0c0,0.9,0.5,1.6,1,2.2c-0.9,1.1-1.8,2.1-2.6,3.2c-0.4-0.1-0.9-0.2-1.3-0.4
		c-0.6-0.2-0.9,0.8-0.3,1c0.3,0.1,0.6,0.2,0.9,0.2c-1.1,1.4-2.2,2.8-3.3,4.2l-1.8-0.9c-0.6-0.3-1.1,0.6-0.5,0.9l1.6,0.8
		c-0.7,1-1.5,2-2.2,3c-0.3-0.2-0.6-0.5-1-0.7c-0.5-0.4-1,0.5-0.5,0.9c0.3,0.2,0.6,0.4,0.9,0.6c-1,1.4-1.9,2.8-2.8,4.2
		c-0.7-0.6-1.3-1.3-1.9-2c-0.4-0.5-1.3,0-0.9,0.5c0.7,0.9,1.4,1.6,2.2,2.3c-0.9,1.4-1.8,2.8-2.6,4.2c-0.6-0.4-1.3-0.8-1.9-1.2
		c-0.5-0.4-1,0.5-0.5,0.9c0.6,0.5,1.3,0.9,1.9,1.2c-0.9,1.5-1.7,3.1-2.5,4.6c-1.4-0.2-2.7-0.3-4.1-0.3c-0.6,0-0.6,1,0,1
		c1.2,0,2.4,0.1,3.6,0.3c-0.9,1.8-1.8,3.6-2.6,5.5c-0.3,0.6,0.6,1.1,0.9,0.5c0.8-2,1.8-3.9,2.7-5.8c1.1,0.2,2.1,0.3,3.2,0.6
		c0.6,0.1,0.9-0.8,0.3-1c-1-0.2-2-0.4-3-0.5c0.8-1.5,1.6-2.9,2.4-4.3c1.2,0.7,2.5,1.3,3.9,1.8c0.6,0.2,0.9-0.7,0.3-1
		c-1.2-0.5-2.4-1.1-3.6-1.7c0.8-1.4,1.6-2.7,2.5-4c0.9,0.8,1.8,1.5,2.7,2.2c0.5,0.4,1-0.5,0.5-0.9c-0.9-0.7-1.8-1.4-2.7-2.1
		c0.9-1.5,1.9-2.9,2.9-4.3c1.1,0.8,2.2,1.6,3.3,2.3c0.5,0.4,1-0.5,0.5-0.9c-1.1-0.7-2.1-1.5-3.2-2.2c0.7-1,1.5-2.1,2.3-3.1
		c1.1,0.6,2.3,1.1,3.4,1.7c0.6,0.3,1.1-0.6,0.5-0.9l-3.3-1.7c1.1-1.5,2.2-2.9,3.4-4.4c1.2,0.3,2.4,0.7,3.6,1c0.6,0.2,0.9-0.8,0.3-1
		c-1.1-0.3-2.1-0.6-3.1-0.9c0.8-1,1.5-1.9,2.3-2.8c0.8,0.6,1.7,0.9,2.6,1.2c0.6,0.2,0.9-0.8,0.3-1c-0.7-0.2-1.5-0.5-2.2-1
		c1.1-1.4,2.3-2.7,3.4-4.1c0.9,0.7,1.9,1.4,2.9,2c0.6,0.3,1.1-0.5,0.5-0.9c-0.9-0.6-1.9-1.2-2.7-1.9c0.8-1,1.7-1.9,2.5-2.9
		c0.9,0.8,1.8,1.5,2.7,2.1c0.5,0.4,1-0.5,0.5-0.9c-0.8-0.6-1.7-1.3-2.5-2c0.9-1,1.7-1.9,2.6-2.9c0.7,0.5,1.3,1.1,1.9,1.7
		c0.5,0.5,1.2-0.3,0.7-0.7c-0.6-0.6-1.2-1.2-1.9-1.8c0.6-0.7,1.3-1.4,1.9-2.1c0.8,0.6,1.6,1.2,2.4,1.7c0.5,0.4,1-0.5,0.5-0.9
		c-0.8-0.5-1.5-1-2.2-1.6c0.7-0.8,1.5-1.7,2.2-2.5c1,0.7,2,1.4,3,1.9c0.6,0.3,1.1-0.6,0.5-0.9c-1-0.5-1.9-1.2-2.9-1.8
		c0.8-0.9,1.5-1.7,2.3-2.6c1.1,0.4,2.1,0.9,3,1.7c0.5,0.4,1.2-0.3,0.7-0.7c-0.9-0.8-1.9-1.4-3-1.8c0.7-0.8,1.4-1.6,2.1-2.4
		c0.9,0.5,1.8,1,2.8,1.5c0.6,0.3,1.1-0.6,0.5-0.9c-0.9-0.5-1.6-1-2.5-1.5c0,0,0,0-0.1,0c1.1-1.2,2.1-2.5,3.2-3.7
		C101.6,415.1,100.9,414.4,100.5,414.9z"/>
	<path class="nav-crown-13-st-2" d="M251.6,447.8c-2.6,1.7-5,3.6-7.4,5.6c0.1-1,0.4-2.1,0.7-3.1c0.2-0.6-0.8-0.9-1-0.3c-0.4,1.2-0.6,2.4-0.7,3.6
		c-1.6-0.2-3.2-0.4-4.8-0.5c-0.6,0-0.6,1,0,1c1.5,0,2.9,0.2,4.4,0.4c-3.2,2.6-6.3,5.3-9.8,7.5c0.3-1.4,0.6-2.8,0.9-4.3
		c0.1-0.6-0.9-0.9-1-0.3c-0.3,1.6-0.6,3.2-1,4.7c-1.6-0.5-3.2-0.8-4.9-1.1c-0.6-0.1-0.9,0.9-0.3,1c1.5,0.2,3,0.6,4.5,1
		c-0.9,0.5-1.8,1.1-2.8,1.5c-2.7,1.3-5.5,2.2-8.3,2.7c0.7-1.1,1.5-2,2.6-2.8c0.5-0.4-0.2-1.1-0.7-0.7c-1.1,0.9-2,2-2.8,3.2
		c-0.7-0.4-1.4-0.9-2.1-1.2c-0.6-0.3-1.1,0.6-0.5,0.9c0.6,0.3,1.2,0.7,1.8,1c-2.8,0.4-5.6,0.5-8.4,0.3c0.7-0.7,1.4-1.3,2.2-1.8
		c0.5-0.4,0-1.3-0.5-0.9c-1,0.8-2.1,1.7-3,2.6c-1.1-1-2.1-2.2-2.8-3.5c-0.3-0.5-1.2,0-0.9,0.5c0.6,1,1.3,1.9,2.1,2.8
		c-3.5-0.4-6.9-1-10.3-1.9c-0.2-0.6-0.4-1.2-0.6-1.9c1.7-1.7,3.5-3.4,5.5-4.9c0.5-0.4,0-1.3-0.5-0.9c-1.9,1.4-3.6,3-5.3,4.7
		c-0.3-0.9-0.6-1.7-1-2.5c-0.3-0.6-1.1-0.1-0.9,0.5c0.4,0.9,0.8,1.8,1.1,2.8c-0.4,0.4-0.9,0.9-1.3,1.3c-0.3-0.1-0.5-0.2-0.8-0.2
		c-3.3-1-6.4-1.9-9.7-2.6c1.2-1.2,2.4-2.4,3.5-3.7c0.4-0.5-0.3-1.2-0.7-0.7c-1.2,1.4-2.6,2.7-3.9,4.1c-0.1,0-0.1,0-0.2,0
		c-0.5-1.2-0.8-2.5-1-3.9c-0.1-0.6-1.1-0.4-1,0.3c0.2,1.2,0.5,2.3,0.9,3.4c-1.2-0.2-2.4-0.4-3.7-0.5c-2.8-0.3-5.6-0.3-8.5-0.1
		c0.9-1.2,1.8-2.4,2.7-3.6c0.4-0.5-0.5-1-0.9-0.5c-1,1.4-2.1,2.8-3.1,4.2c-0.1,0-0.2,0-0.3,0c-0.8-0.8-1.5-1.6-2.3-2.4
		c-0.5-0.5-1.2,0.3-0.7,0.7c0.6,0.6,1.2,1.2,1.8,1.8c-1.5,0.1-3,0.3-4.4,0.5c-2.8,0.4-5.6,1.1-8.4,1.9c0.9-1.6,1.8-3.2,2.8-4.8
		c0.4-0.5-0.5-1-0.9-0.5c-1.1,1.6-2,3.3-2.9,5c-1-0.7-1.9-1.3-2.8-2.1c-0.5-0.4-1.2,0.3-0.7,0.7c1,0.8,1.9,1.5,2.9,2.2
		c-3.9,1.2-7.7,2.7-11.3,4.4c0.2-0.9,0.5-1.8,0.7-2.7c0.2-0.6-0.8-0.9-1-0.3c-0.3,1.2-0.6,2.4-1,3.6c-0.5,0.2-0.9,0.5-1.4,0.7
		c-1.7-1.3-3.3-2.9-4.8-4.5c-0.5-0.5-1.2,0.3-0.7,0.7c1.5,1.5,2.9,2.9,4.6,4.2c-2.2,1.1-4.4,2.3-6.5,3.5c-0.6,0.3-0.1,1.2,0.5,0.9
		c2.2-1.3,4.5-2.5,6.8-3.7c0.3,0.2,0.5,0.4,0.8,0.6c-0.4,1.7-0.9,3.4-1.4,5c-0.2,0.6,0.8,0.9,1,0.3c0.4-1.6,0.9-3.2,1.3-4.7
		c1.1,0.7,2.3,1.2,3.6,1.6c0.6,0.2,0.9-0.8,0.3-1c-1.3-0.4-2.5-0.9-3.6-1.6c0.1-0.4,0.2-0.8,0.3-1.2c3.7-1.7,7.4-3.2,11.3-4.4
		c-0.4,1-0.8,2.1-1.2,3.1c-0.2,0.6,0.8,0.9,1,0.3c0.4-1.3,0.9-2.6,1.5-3.8c0.1,0,0.2,0,0.2-0.1c1.5,1,3,1.9,4.6,2.7
		c0.6,0.3,1.1-0.6,0.5-0.9c-1.3-0.7-2.5-1.4-3.8-2.2c2.8-0.8,5.7-1.4,8.6-1.9c1.4-0.2,2.8-0.4,4.2-0.5c0,0,0,0,0.1,0.1
		c-0.6,1-1.1,2.1-1.3,3.3c-0.1,0.6,0.8,0.9,1,0.3c0.2-1,0.6-1.9,1.1-2.8c1.4,1.5,2.8,3,4.1,4.5c0.4,0.5,1.1-0.2,0.7-0.7
		c-1.4-1.6-2.8-3.2-4.3-4.7c0,0,0,0,0,0c4.2-0.3,8.4-0.1,12.5,0.5c0.2,0,0.4,0.1,0.7,0.1c0,0.1,0.1,0.1,0.1,0.2
		c-0.7,0.8-1.3,1.6-1.8,2.5c-0.3,0.6,0.6,1.1,0.9,0.5c0.4-0.7,0.9-1.4,1.4-2c0.7,1.5,1.7,2.9,2.9,4.1c0.4,0.5,1.2-0.2,0.7-0.7
		c-1.2-1.3-2.1-2.7-2.9-4.2c0,0,0.1-0.1,0.1-0.1c3.6,0.7,7,1.8,10.5,2.9c-0.8,0.8-1.6,1.7-2.5,2.5c-0.5,0.5,0.3,1.2,0.7,0.7
		c1-1,1.9-1.9,2.8-2.9c0.6,0.2,1.3,0.4,2,0.5c0.4,1.3,0.9,2.5,1.4,3.8c0.3,0.6,1.1,0.1,0.9-0.5c-0.5-1-0.8-1.9-1.2-2.9
		c3.5,0.9,7.1,1.5,10.7,1.8c-0.5,0.7-1,1.4-1.4,2.1c-0.3,0.6,0.6,1.1,0.9,0.5c0.4-0.8,0.9-1.5,1.5-2.2c0.7,0.6,1.6,1,2.4,1.4
		c0.6,0.3,0.9-0.7,0.3-1c-0.5-0.2-1-0.5-1.4-0.8c2.8,0.1,5.5,0,8.2-0.4c-0.3,0.7-0.6,1.3-0.9,2c-0.2,0.6,0.7,0.9,1,0.3
		c0.3-0.8,0.7-1.7,1.2-2.4c1.1,0.7,2.1,1.5,3.1,2.2c0.5,0.4,1-0.5,0.5-0.9c-0.7-0.6-1.5-1.1-2.2-1.6c2.5-0.5,5-1.2,7.4-2.3
		c1.1-0.5,2.1-1,3.2-1.6c-0.2,0.9-0.4,1.9-0.6,2.8c-0.1,0.6,0.9,0.9,1,0.3c0.2-1.3,0.5-2.5,0.8-3.8c0,0,0,0,0,0
		c2,0.6,4.1,1.4,6.1,2.1c0.6,0.2,0.9-0.7,0.3-1c-1.7-0.7-3.5-1.3-5.3-1.9c3.2-2.1,6.2-4.3,9.2-6.8c-0.1,1.3-0.1,2.2-0.1,4.2h1
		c0-2,0-3.5,0.2-5.1c0.1-0.1,0.2-0.2,0.3-0.3c1.6,0.3,3.3,0.6,4.9,0.8c0.6,0.1,0.9-0.9,0.3-1c-1.4-0.2-2.8-0.5-4.2-0.7
		c2.2-1.8,4.4-3.7,6.8-5.3C252.6,448.5,252.1,447.5,251.6,447.8z"/>
	<path class="nav-crown-13-st-3" d="M253.1,447.5c-0.3-0.1-0.7-0.2-1-0.3c-1-0.3-1.5,0.9-1,1.6c-2.3,2.1-5,3.8-7.6,5.6c0,0,0,0,0,0
		c0-0.1,0-0.2,0-0.4c0.2-1.5,0.9-2.8,1.1-4.3c0.1-0.6-0.9-0.6-1,0c-0.2,1.5-0.9,2.9-1.1,4.5c-1.4-0.2-2.8-0.5-4.3-0.6
		c-0.6,0-0.6,1,0,1c1.4,0.1,2.7,0.4,4.1,0.6c-0.8,0.6-1.6,1.2-2.3,1.8c-2.5,2.2-4.7,4.2-7.1,5.9c-0.2-0.1-0.3-0.1-0.5-0.2
		c0-0.1,0.1-0.3,0.1-0.4c0.3-1.5,0.5-3,0.6-4.5c0-0.6-0.8-0.7-1-0.1c-0.4,1.5-1,3-1.6,4.5c-1.2-0.4-2.5-0.6-3.8-0.5
		c-0.6,0-0.6,1,0,1c1.2,0,2.4,0.2,3.5,0.5c0,0.1-0.1,0.2-0.1,0.2c-0.1,0.4-0.3,1-0.4,1.5c-1.2,0.6-2.5,1.2-4,1.6
		c-2.2,0.7-4.3,1.1-6.5,1.4c0.9-1.5,2-2.8,3.2-4.2c0.4-0.5-0.3-1.2-0.7-0.7c-1.3,1.4-2.4,2.9-3.4,4.5c-0.6-0.3-1.3-0.7-1.9-1
		c-0.6-0.3-1.1,0.6-0.5,0.9c0.5,0.2,1,0.5,1.4,0.7c-2.8,0.2-5.7,0.2-8.5,0c0.9-1,2-1.9,2.9-2.8c0.4-0.5-0.3-1.2-0.7-0.7
		c-1,1.1-2.2,2.1-3.2,3.3c-1.3-0.9-2-2.3-3-3.5c-0.4-0.5-1.1,0.2-0.7,0.7c0.7,0.9,1.3,1.9,2.1,2.7c-3.4-0.5-6.8-1.2-10.1-2.1
		c-0.2-0.6-0.5-1.2-0.7-1.8c0,0,0.1,0,0.1-0.1c2-2.1,4.5-3.6,6.6-5.5c0.5-0.4-0.2-1.1-0.7-0.7c-2,1.8-4.3,3.4-6.3,5.3
		c-0.3-0.8-0.5-1.6-0.6-2.5c-0.1-0.6-1.1-0.4-1,0.3c0.2,1,0.5,2,0.8,3c-0.4,0.4-0.8,0.8-1.2,1.2c-0.9-0.2-1.7-0.5-2.6-0.8
		c-2.7-0.8-5.6-1.4-8.5-1.8c1.3-1.4,2.9-2.6,4.3-3.9c0.5-0.4-0.2-1.1-0.7-0.7c-1.5,1.4-3.2,2.7-4.6,4.2c-0.4-1.1-0.7-2.3-0.8-3.5
		c-0.1-0.6-1.1-0.6-1,0c0.2,1.2,0.4,2.5,0.8,3.7c-4.2-0.5-8.5-0.5-12.6-0.2c1-1.6,2.3-3,3.5-4.5c0.4-0.5-0.5-1-0.9-0.5
		c-1.3,1.7-2.8,3.3-3.8,5.1c0,0-0.1,0-0.1,0c-0.3-0.4-0.5-0.9-0.8-1.3c-0.1-0.2-0.3-0.4-0.5-0.7c-0.1-0.2-0.2-0.4-0.3-0.4
		c0,0,0-0.1-0.1-0.1c0,0-0.1-0.1-0.1-0.1c-0.2-0.3-0.8-0.1-0.8,0.2c-0.1,0.4,0.2,0.6,0.4,0.9c0.4,0.5,0.7,1.1,1.1,1.7
		c-1.7,0.2-3.3,0.4-4.9,0.7c-2.5,0.4-5,1-7.6,1.7c-0.2-0.1-0.4-0.3-0.6-0.4c1-2,2.3-3.8,3.8-5.3c0.5-0.5-0.3-1.2-0.7-0.7
		c-1.5,1.5-2.8,3.4-3.9,5.3c-0.8-0.6-1.6-1.2-2.4-1.7c-0.6-0.3-1.1,0.5-0.5,0.9c0.9,0.5,1.7,1.1,2.5,1.7c-0.1,0.3-0.3,0.5-0.4,0.8
		c-3.9,1.2-7.7,2.6-11.4,4.3c0.3-0.9,0.6-1.8,0.8-2.8c0-0.1,0-0.1,0-0.2c0.2-0.3,0.3-0.7,0.5-1c0.3-0.6-0.5-1.1-0.9-0.5
		c-0.9,1.6-1.6,3.4-2,5.2c-0.1,0-0.2,0.1-0.3,0.1c-1.9-1-3.6-2.3-4.7-4.4c-0.3-0.6-1.1-0.1-0.9,0.5c1,2.1,2.6,3.4,4.5,4.4
		c-1.8,0.9-3.6,1.9-5.2,2.9c-1.1,0.7-0.1,2.4,1,1.7c1.6-1,3.3-1.9,5.1-2.8c-0.2,1.4-0.3,2.8-0.3,4.1c0,0.6,1,0.6,1,0
		c0-1.6,0.1-3.1,0.4-4.7c0.1-0.1,0.2-0.1,0.4-0.2c1.6,0.8,3.3,1.5,4.8,2.5c0.5,0.4,1-0.5,0.5-0.9c-1.3-0.9-2.7-1.6-4.1-2.2
		c3.2-1.5,6.6-2.7,10-3.8c-0.2,0.7-0.3,1.3-0.4,2c-0.1,0.6,0.9,0.6,1,0c0.1-0.8,0.3-1.6,0.5-2.3c1-0.3,1.9-0.6,2.9-0.8
		c1.3,1,2.7,1.8,4.3,2.3c0.6,0.2,0.9-0.8,0.3-1c-1.2-0.4-2.3-1-3.3-1.7c3.2-0.8,6.4-1.5,9.5-2.1c0.4-0.1,0.7-0.1,1.1-0.2
		c-0.3,0.8-0.4,1.6-0.5,2.5c0,0.6,1,0.6,1,0c0-0.9,0.2-1.7,0.5-2.4c1.4,1.5,3.3,2.5,4.8,3.9c0.4,0.4,1.1-0.1,0.8-0.6
		c-0.9-1.2-1.8-2.7-3-3.7c3.5-0.2,7,0.1,10.5,0.7c-0.3,0.5-0.5,1.1-0.7,1.7c-0.2,0.6,0.8,0.9,1,0.3c0.2-0.7,0.4-1.3,0.7-1.8
		c0.2,0,0.4,0.1,0.6,0.1c0.8,1.6,1.8,3,3.1,4.2c0.5,0.4,1.2-0.3,0.7-0.7c-1-0.9-1.9-2.1-2.6-3.3c3,0.6,6.1,1.3,9.1,2.1
		c-0.4,0.6-0.8,1.2-1,1.9c-0.2,0.6,0.8,0.9,1,0.3c0.2-0.7,0.6-1.3,1.1-1.9c1.2,0.3,2.3,0.6,3.5,0.9c0.3,0.8,0.7,1.7,1,2.5
		c0.2,0.6,1.2,0.3,1-0.3c-0.2-0.7-0.5-1.3-0.7-2c0.8,0.2,1.6,0.4,2.4,0.6c2.3,0.5,4.6,0.9,6.9,1.2c-0.2,0.5-0.4,0.9-0.5,1.5
		c-0.1,0.6,0.8,0.9,1,0.3c0.1-0.6,0.3-1.1,0.6-1.6c0.7,0.1,1.5,0.1,2.2,0.2c0.7,0.4,1.4,0.7,2.1,1c0.6,0.2,0.8-0.6,0.4-0.9
		c1.6,0,3.2,0,4.9-0.2c-0.1,0.3-0.3,0.7-0.4,1c-0.2,0.6,0.8,0.9,1,0.3c0.1-0.5,0.3-1,0.5-1.4c0.6-0.1,1.3-0.2,1.9-0.3
		c0.8,0.5,1.5,0.9,2.3,1.4c0.6,0.3,1.1-0.5,0.5-0.9c-0.4-0.2-0.8-0.5-1.2-0.8c2.6-0.5,5.2-1.1,7.8-2.1c0.2-0.1,0.3-0.1,0.5-0.2
		c0.1,0.2,0.2,0.4,0.4,0.6c0.1,0.1,0.1,0.1,0.2,0.1c0,0,0,0.1,0,0.1c0,0.6,1,0.6,1,0c0-0.5,0-1,0.1-1.5c1.1-0.5,2-1.2,3-1.8
		c1.6,0.4,3.3,0.8,4.6,1.7c0.5,0.4,1-0.5,0.5-0.9c-1.2-0.9-2.7-1.2-4.1-1.6c1.6-1.3,3.1-2.7,4.6-4.2c0.7-0.7,1.4-1.3,2.2-1.9
		c0,0.8,0,1.7,0,2.5c0,0.6,1,0.6,1,0c0-1.1,0-2.2,0-3.3c0.7-0.5,1.4-1,2.1-1.5c1.3,0,2.7,0.1,3.9,0.6c0.6,0.3,1.1-0.6,0.5-0.9
		c-1-0.4-2-0.6-3-0.6c2.4-1.6,4.8-3.2,6.8-5.4C254.1,448.6,253.8,447.8,253.1,447.5z"/>
	<g>
		<polygon class="nav-crown-13-st-2" points="165.1,399.2 165.1,399.2 165.1,399.2 		"/>
		<path class="nav-crown-13-st-2" d="M164.8,396v-0.2c0-0.1,0.2-0.1,0.2-0.2c0-0.2,0.2-0.4,0.2-0.5c0-0.6-0.7-0.6-0.9-0.1
			c-0.5,1.4-1.1,2.8-1.8,4.2c-0.1,0-0.1,0.1-0.1,0.2c-0.2,0.4-0.4,0.9-0.6,1.3c-2,3.9-4.2,7.8-6.1,11.7c-2,3.5-3.9,7-5.6,10.6
			c-2.4,4.4-4.3,8.9-4.8,14.1c0,0.6,0.7,0.6,0.9,0.2c0.1,0,0.3-0.1,0.3-0.3c0-0.2,0.1-0.5,0.1-0.7c3.6-8.8,9.6-16.6,13.9-25
			c2.2-3.7,3.9-7.5,4.5-11.9c0,0,0,0,0,0c0,0,0-0.1,0-0.2c0-0.2-0.1-0.3-0.2-0.4c0.1-0.4,0.1-0.8,0.2-1.2c0-0.2,0.1-0.5,0.1-0.7
			c0.1-0.1-0.1-0.3-0.1-0.5C165.1,396.1,165.8,396.1,164.8,396z"/>
	</g>
	<path class="nav-crown-13-st-3" d="M166.8,400.6c-0.8-0.4-1.6-0.8-2.4-1.3c0.2-0.4,0.4-0.9,0.5-1.4c0.4,0.3,0.8,0.6,1.1,0.9
		c0.5,0.4,1.2-0.3,0.7-0.7c-0.4-0.4-0.9-0.8-1.4-1.2c0.2-0.7,0.4-1.4,0.5-2.1c0.2-1.3-1.7-1.8-1.9-0.5c-0.1,0.6-0.3,1.2-0.4,1.7
		c-0.5-0.1-1.1-0.2-1.6-0.1c-0.6,0.1-0.4,1.1,0.3,1c0.3-0.1,0.7,0,1.1,0c-0.2,0.5-0.3,0.9-0.5,1.4c-0.6-0.3-1.2-0.5-1.8-0.7
		c-0.6-0.2-0.9,0.8-0.3,1c0.6,0.2,1.1,0.4,1.7,0.6c-0.4,0.8-0.8,1.7-1.2,2.5c-0.5-0.3-1-0.7-1.5-1c-0.5-0.4-1,0.5-0.5,0.9
		c0.5,0.4,1,0.7,1.5,1c-0.3,0.6-0.6,1.1-1,1.7c-0.6-0.3-1.1-0.6-1.7-0.9c-0.6-0.3-1.1,0.6-0.5,0.9c0.6,0.3,1.1,0.6,1.6,0.9
		c-0.3,0.5-0.6,0.9-0.9,1.4c-0.6-0.4-1.2-0.9-1.7-1.3c-0.5-0.4-1,0.5-0.5,0.9c0.6,0.4,1.1,0.9,1.7,1.3c-0.5,0.7-0.9,1.4-1.4,2
		c-0.5-0.3-1-0.7-1.5-1c-0.5-0.4-1,0.5-0.5,0.9c0.5,0.4,1,0.7,1.5,1c-0.5,0.8-1.1,1.5-1.6,2.3c-0.7-0.4-1.3-0.8-2-1.3
		c-0.5-0.3-1,0.5-0.5,0.9c0.7,0.4,1.3,0.8,2,1.2c-0.5,0.8-1,1.6-1.5,2.3c-0.7-0.3-1.4-0.6-2.1-0.9c-0.6-0.2-0.9,0.8-0.3,1
		c0.6,0.2,1.3,0.5,1.9,0.8c-0.5,0.8-0.9,1.6-1.3,2.4c-0.3-0.3-0.5-0.5-0.7-0.9c-0.4-0.5-1.2,0-0.9,0.5c0.3,0.5,0.7,0.9,1.1,1.2
		c-0.4,0.7-0.7,1.4-1.1,2.1c-0.5-0.3-1-0.6-1.5-1c-0.5-0.4-1,0.5-0.5,0.9c0.5,0.4,1,0.7,1.5,1c-0.4,0.8-0.7,1.5-1.1,2.3
		c-0.4-0.2-0.8-0.4-1.2-0.7c-0.5-0.4-1,0.5-0.5,0.9c0.4,0.3,0.9,0.5,1.3,0.7c-0.2,0.6-0.5,1.2-0.7,1.8c-0.8-0.3-1.6-0.6-1.8-1.1
		c-0.3-0.6-1.1-0.1-0.9,0.5c0.3,0.8,1.5,1.2,2.4,1.5c-0.2,0.5-0.3,1-0.5,1.5c-0.8-0.1-1.6-0.3-2.5-0.4c-0.6-0.1-0.9,0.8-0.3,1
		c0.8,0.1,1.6,0.3,2.5,0.4c-0.1,0.4-0.2,0.9-0.3,1.3c-0.7-0.1-1.4-0.2-2.1-0.3c-0.6-0.1-0.9,0.9-0.3,1c0.7,0.1,1.5,0.2,2.2,0.3
		c-0.1,0.5-0.2,0.9-0.3,1.4c-1.4-0.1-2.8-0.3-4.1-0.5c-0.6-0.1-0.6,0.9,0,1c1.3,0.2,2.6,0.3,4,0.5c0,0.3-0.1,0.6-0.1,0.9
		c0,0.1-0.1,0.2-0.1,0.3v0.6c0,1.3,2,1.3,2.1,0c0-0.6,0.1-1.1,0.1-1.7c1.7,0,3.3-0.1,4.8-0.6c0.6-0.2,0.4-1.2-0.3-1
		c-1.4,0.4-2.9,0.6-4.4,0.5c0.1-0.4,0.1-0.8,0.2-1.2c0.9,0.1,1.8,0.2,2.7,0.2c0.6,0,0.6-1,0-1c-0.8,0-1.7-0.1-2.5-0.2
		c0.1-0.4,0.2-0.8,0.3-1.2c1.4,0.2,2.8,0.4,4.2,0.6c0.6,0.1,0.6-0.9,0-1c-1.3-0.2-2.6-0.4-3.9-0.6c0.1-0.4,0.3-0.8,0.4-1.2
		c1.4,0.4,2.9,0.8,4.3,1.3c0.6,0.2,0.9-0.8,0.3-1c-1.3-0.4-2.6-0.8-4-1.2c-0.1,0-0.2-0.1-0.3-0.1c0.2-0.5,0.4-1,0.6-1.5
		c1.5,0.6,3.1,1,4.6,1.4c0.6,0.2,0.9-0.8,0.3-1c-1.5-0.4-3-0.8-4.5-1.3c0.3-0.7,0.6-1.4,1-2.1c1.7,1,3.4,1.9,5.2,2.8
		c0.6,0.3,1.1-0.6,0.5-0.9c-1.8-0.9-3.5-1.9-5.2-2.9c0.3-0.6,0.6-1.2,1-1.8c1.3,0.9,2.8,1.6,4,2.6c0.5,0.4,1-0.5,0.5-0.9
		c-1.3-0.9-2.7-1.7-4.1-2.6c0.5-0.9,1-1.8,1.6-2.8c1.9,1.1,3.7,2.3,5.8,3.2c0.6,0.3,1.1-0.6,0.5-0.9c-2-0.9-3.9-2.1-5.8-3.2
		c0.4-0.8,0.9-1.5,1.3-2.3c1.5,0.9,3,1.6,4.7,2.2c0.6,0.2,0.9-0.7,0.3-1c-1.5-0.6-3-1.3-4.4-2.1c0.5-0.8,1-1.5,1.5-2.3
		c0.8,0.5,1.6,0.9,2.3,1.5c0.5,0.4,1-0.5,0.5-0.9c-0.7-0.5-1.5-1-2.2-1.4c0.4-0.6,0.9-1.3,1.3-1.9c0.7,0.5,1.4,0.9,2.2,1.3
		c0.6,0.3,1.1-0.6,0.5-0.9c-0.7-0.4-1.4-0.8-2.1-1.3c0.3-0.5,0.7-1,1-1.5c1.6,1,3.1,2,4.7,3c0.5,0.4,1-0.5,0.5-0.9
		c-1.5-1-3.1-2-4.7-3c0.4-0.5,0.7-1.1,1-1.7c0.8,0.4,1.6,0.9,2.4,1.3c0.6,0.3,1.1-0.6,0.5-0.9c-0.8-0.4-1.6-0.8-2.3-1.3
		c0.5-0.9,1-1.7,1.4-2.6c0.8,0.4,1.5,0.9,2.3,1.2C166.9,401.7,167.4,400.8,166.8,400.6z"/>
	<path class="nav-crown-13-st-2" d="M275.9,439.2c0-10.4-10.5-21.4-16.9-27.9c-6.5-6.6-13.7-8.2-22.5-9.5c-4.9-0.7-9.9-0.9-14.8-1.8
		c-3.9-0.7-7.1-3-11.1-3.5c-2-0.2-2.7,2.9-1,3.7c0,0,0.1,0,0.1,0.1c0.1,0.2,0.3,0.4,0.5,0.6c8.7,7.7,19.2,11.8,29.3,17.2
		c6.2,3.3,11.9,7.5,17.3,11.9c3.1,2.6,5.9,5.5,8.7,8.4c1.3,3.7,3,7.2,5.9,10c0.8,0.8,2,0.8,2.8,0
		C276.7,446.1,276.8,442.6,275.9,439.2z"/>
	<path class="nav-crown-13-st-3" d="M282.1,426.5c-2.1,1.1-4.2,2.2-6.3,3.3c-0.2-0.8-0.5-1.6-0.8-2.3c0.4-0.9,0.7-1.8,1.1-2.7
		c0.2-0.6-0.7-0.9-1-0.3c-0.2,0.5-0.4,1.1-0.6,1.6c-1.4-3.2-3.3-6.2-5.5-9c1.3-1,2.6-2.1,3.8-3.1c0.5-0.4-0.2-1.1-0.7-0.7
		c-1.2,1.1-2.5,2.1-3.7,3.1c-1.2-1.4-2.4-2.7-3.8-3.9c0.1-0.9,0.3-1.7,0.4-2.6c0.1-0.6-0.9-0.6-1,0c-0.1,0.6-0.2,1.2-0.2,1.8
		c-1.8-1.6-3.7-3.1-5.8-4.5c1.3-1.5,2.6-3,3.9-4.6c0.4-0.5-0.3-1.2-0.7-0.7c-1.3,1.6-2.6,3.2-4,4.7c-0.1,0-0.1-0.1-0.2-0.1
		c-2.1-1.4-4.3-2.4-6.4-3.2c0.1-1,0.2-2.1,0.3-3.1c0.1-0.6-0.9-0.9-1-0.3c-0.1,1-0.2,2-0.3,3.1c-1.9-0.6-3.8-1.1-5.7-1.4
		c0.9-1.2,1.9-2.5,2.9-3.7c0.4-0.5-0.3-1.2-0.7-0.7c-1.1,1.4-2.2,2.8-3.2,4.2c-0.4-0.1-0.8-0.1-1.2-0.2c0.2-0.8,0.5-1.6,0.8-2.4
		c0.2-0.6-0.7-0.9-1-0.3c-0.3,0.8-0.6,1.7-0.8,2.5c-1.7-0.2-3.4-0.4-5.1-0.6c1.1-1.1,2.2-2.2,3.3-3.4c0.4-0.5-0.3-1.2-0.7-0.7
		c-1.2,1.4-2.5,2.7-3.8,4c-0.4,0-0.7-0.1-1.1-0.1c0.3-0.9,0.7-1.8,1-2.7c0.2-0.6-0.6-1.1-0.9-0.5c-0.4,1-0.8,2.1-1.2,3.1
		c-1.5-0.2-3.1-0.4-4.7-0.7c-0.4-0.1-0.9-0.2-1.3-0.3c1.2-1,2.5-2.1,3.8-3.1c0.5-0.4-0.2-1.1-0.7-0.7c-1.4,1.1-2.9,2.3-4.2,3.5
		c-0.5-0.1-0.9-0.3-1.4-0.4c0.3-1,0.7-2,0.9-3c0.2-0.6-0.8-0.9-1-0.3c-0.3,1-0.6,2-0.9,3c-1.4-0.5-2.9-1-4.3-1.4
		c0.5-0.7,1-1.3,1.5-1.9c0.4-0.5-0.3-1.2-0.7-0.7c-0.6,0.8-1.3,1.6-1.9,2.4c-0.2,0-0.4-0.1-0.6-0.1c0.1-0.4,0.2-0.7,0.3-1.1
		c0.1-0.4-0.3-0.7-0.6-0.6c0-0.4-0.5-0.7-0.9-0.4c-0.7,0.6-1.3,1.2-1.9,1.8c-0.1,0-0.2,0-0.3,0c0.2-0.5,0.4-1,0.6-1.5
		c0.2-0.6-0.7-0.9-1-0.3c-0.2,0.6-0.5,1.2-0.8,1.9c-0.4,0.1-0.9,0.2-1.3,0.4c-0.4,0-0.7,0.1-1.1,0.1c-0.5,0.1-0.9,0.6-1,1.1
		c-0.1,0.1-0.2,0.2-0.4,0.3c-0.9,0.8-0.4,1.9,0.4,2.3c-0.5,0.4-1.1,0.8-1.7,1.2c-0.5,0.4,0,1.2,0.5,0.9c0.7-0.5,1.4-1,2.1-1.5
		c0.1,0.1,0.3,0.1,0.4,0.2c0.1,0.1,0.2,0.1,0.3,0.1c-0.3,1.2-0.4,2.3-0.2,3.4c0.1,0.6,1.1,0.4,1-0.3c-0.2-1,0-2,0.3-3.1
		c0.9-0.1,1.7,0,2.6,0c-0.9,1.6-1.5,3.3-1.9,5.1c-0.1,0.6,0.8,0.9,1,0.3c0.2-0.8,0.4-1.6,0.7-2.4c-0.1,0.7-0.3,1.3-0.3,2
		c-0.1,0.6,0.9,0.9,1,0.3c0.2-1.7,0.6-3.4,1-5.1c1.9,0.2,3.7,0.6,5.6,1c-2.1,2-4.1,4.1-5.9,6.4c-0.4,0.5,0.3,1.2,0.7,0.7
		c1.5-1.9,3.2-3.7,4.9-5.5c-0.7,2.2-1.2,4.5-1.4,6.8c-0.1,0.6,0.9,0.6,1,0c0.3-2.8,1-5.5,1.9-8.1c2.6,0.6,5.2,1.4,7.8,1.9
		c-2.5,2.6-4.8,5.4-6.5,8.6c-0.3,0.6,0.6,1.1,0.9,0.5c1.6-3.2,3.8-5.8,6.2-8.4c-0.9,3.7-1.6,7.6-2.3,11.3c-0.1,0.6,0.8,0.9,1,0.3
		c0.8-4,1.5-8.1,2.5-12c2.7,0.4,5.3,0.5,7.9,0.7c0,0.2-0.1,0.4-0.1,0.5c-2.5,3.9-4.6,8.1-5.9,12.6c-0.2,0.6,0.8,0.9,1,0.3
		c1.1-3.6,2.7-7.2,4.7-10.5c-0.5,5-0.5,9.9-0.5,14.9c0,1,1,1,1,0c0-5-0.1-11.3,0.8-17c0.2-0.3,0.3-0.5,0.5-0.7
		c2.9,0.2,5.7,0.6,8.4,1.7c0,2.4,0,4.7,0,7.1c-2.9,2.7-5.9,5.2-8.3,8.5c-0.4,0.5,0.5,1,0.9,0.5c2.1-2.9,4.7-5.3,7.4-7.6
		c-0.1,4.3-0.4,8.6-1.6,12.7c-0.2,0.6,0.8,0.9,1,0.3c1.4-4.5,1.6-9.2,1.6-13.9c0.4-0.4,0.8-0.8,1.3-1.1c1.1-1,2.2-2.2,3.3-3.3
		c2.8,2,5.4,4.5,7.7,7.1c-0.3,1.3-0.7,2.6-1,3.8c-3.6,2.5-7.4,4.8-11.3,6.9c-0.6,0.3-0.1,1.2,0.5,0.9c3.5-1.9,7-4,10.3-6.3
		c-1.4,4.7-3,9.4-4.2,14.2c-0.2,0.6,0.8,0.9,1,0.3c1.3-5.2,3.1-10.2,4.6-15.4c0.8-0.5,1.6-1.1,2.4-1.7c1.3,1.8,2.5,3.7,3.5,5.7
		c1.1,2.1,2.1,4,2.8,6.1c-3.6,1.7-7.3,3.3-11,4.7c-0.6,0.2-0.3,1.2,0.3,1c3.8-1.4,7.4-3,11.1-4.7c0.1,0.2,0.1,0.5,0.2,0.7
		c-1.8,4.6-3.5,9.1-5.5,13.6c-0.3,0.6,0.6,1.1,0.9,0.5c1.8-4.1,3.4-8.3,5.1-12.4c0.2,0.8,0.3,1.7,0.3,2.6c0.1,2.3,0.1,4.8,0,7.3
		c-1.4,0.4-2.9,0.8-4.3,1.3c-0.6,0.2-0.3,1.2,0.3,1c1.3-0.5,2.6-0.9,3.9-1.2c0,0.5-0.1,1-0.1,1.5c-1.2,0.4-2.5,0.7-3.7,1.3
		c-0.6,0.3-0.1,1.2,0.5,0.9c1-0.5,2-0.8,3.1-1.2c0.2,1.2,2.2,1.5,2.8,0.4c0.1-0.2,0.2-0.4,0.3-0.5c0.5-0.1,0.9-0.4,1.1-1.1
		c0.5-1.9,0.8-3.8,1-5.7c0,0,0-0.1,0-0.1c0-0.1,0-0.2,0-0.2c0.3-3.8-0.1-7.5-1-10.9c2.2-1.1,4.4-2.2,6.6-3.4
		C283.2,427,282.6,426.2,282.1,426.5z M215.5,396c-0.2,0-0.5-0.1-0.7-0.1c0.3-0.3,0.7-0.6,1-0.9C215.7,395.3,215.6,395.6,215.5,396z
		 M250.7,413c-0.2,0.2-0.4,0.3-0.6,0.5c0-1.9,0-3.9,0-5.8c0.8,0.3,1.5,0.7,2.3,1.2c0.5,0.3,1,0.6,1.4,1
		C252.8,410.9,251.8,412,250.7,413z M262.6,420.5c0.2-0.7,0.4-1.3,0.5-2c0.3,0.3,0.6,0.7,0.8,1C263.5,419.9,263.1,420.2,262.6,420.5
		z"/>
	<path class="nav-crown-13-st-3" d="M140.7,384.8c-1.5,0.5-3,1.1-4.5,1.7c-0.6-1-1.1-2.1-1.6-3.1c-0.3-0.6-1.2-0.1-0.9,0.5c0.5,1,1,2,1.5,3
		c-1.1,0.4-2.1,0.8-3.2,1.2c-0.3-0.7-0.7-1.3-1.2-2c-0.4-0.5-1.2,0-0.9,0.5c0.4,0.6,0.8,1.2,1.1,1.8c-0.8,0.3-1.6,0.6-2.4,0.9
		c-0.2,0.1-0.3,0.1-0.5,0.2c-0.2-0.6-0.4-1.2-0.6-1.9c-0.2-0.6-1.1-0.4-1,0.3c0.2,0.6,0.4,1.3,0.6,1.9c-1.1,0.3-2.2,0.7-3.3,1
		c-0.2-0.9-0.3-1.8-0.3-2.7c0-0.6-1-0.6-1,0c0,1,0.1,2,0.3,2.9c-0.4,0.1-0.8,0.2-1.3,0.3c-0.5,0.1-1.1,0.3-1.8,0.4
		c-0.1-1.1-0.3-2.3-0.6-3.4c-0.2-0.6-1.1-0.4-1,0.3c0.3,1.1,0.4,2.1,0.6,3.2c-0.9,0.1-1.8,0-2.5-0.4c-0.6-0.3-1.1,0.5-0.5,0.9
		c0.9,0.5,2,0.7,3.1,0.7c0.1,0.8,0.2,1.6,0.3,2.4c0.1,0.6,1.1,0.4,1-0.3c-0.1-0.7-0.2-1.4-0.3-2.2c1.1-0.1,2.1-0.4,3.2-0.7
		c0.1,0.5,0.3,1,0.5,1.4c0.2,0.6,1.2,0.3,1-0.3c-0.2-0.5-0.3-1-0.5-1.4c1.2-0.4,2.2-0.7,3.1-1c0.1,0,0.2-0.1,0.3-0.1
		c0.2,0.5,0.3,1,0.4,1.5c0.2,0.6,1.1,0.4,1-0.3c-0.1-0.5-0.3-1-0.5-1.5c1-0.3,2.1-0.7,3.1-1.1c0.3,0.5,0.5,1.1,0.8,1.6
		c0.3,0.6,1.1,0.1,0.9-0.5c-0.2-0.5-0.5-1-0.7-1.5c1.1-0.4,2.1-0.8,3.2-1.2c0.4,0.7,0.8,1.5,1.3,2.2c0.4,0.5,1.2,0,0.9-0.5
		c-0.4-0.7-0.8-1.3-1.2-2c1.4-0.5,2.8-1.1,4.3-1.6C141.6,385.5,141.3,384.5,140.7,384.8z"/>
	<path class="nav-crown-13-st-3" d="M291.9,464.2c-1.4,0.9-2.6,1.9-3.9,2.9c0.2-0.7,0.4-1.3,0.7-2c0.2-0.6-0.8-0.9-1-0.3c-0.3,0.8-0.5,1.7-0.8,2.5
		c-0.6-0.1-1.3-0.3-1.9-0.5c-0.6-0.2-0.9,0.8-0.3,1c0.6,0.2,1.2,0.4,1.9,0.5c-1.6,1.3-3.1,2.7-4.7,4c0,0-0.1,0-0.1,0
		c0.1-0.4,0.1-0.8,0.2-1.2c0.1-0.6-0.9-0.9-1-0.3c-0.1,0.4-0.1,0.9-0.2,1.3c-0.7-0.1-1.5-0.2-2.2-0.3c-0.6-0.1-0.9,0.9-0.3,1
		c0.8,0.1,1.5,0.2,2.3,0.4c0,0.1,0,0.1,0,0.2c-1.1,0.9-2.2,1.8-3.3,2.6c-0.1-0.4-0.7-0.7-0.9-0.2c-0.2,0.4-0.3,0.8-0.5,1.2
		c-0.9-0.2-1.7-0.5-2.5-1c-0.6-0.3-1.1,0.5-0.5,0.9c0.6,0.3,1.3,0.6,1.9,0.8c-0.7,0.5-1.5,0.9-2.2,1.3c-0.6,0.3-0.1,1.2,0.5,0.9
		c0.8-0.4,1.6-0.9,2.4-1.4c-0.2,0.6-0.3,1.2-0.5,1.8c-0.2,0.6,0.8,0.9,1,0.3c0.2-0.8,0.4-1.6,0.6-2.4c0.7,0.2,1.4,0.3,2.1,0.4
		c0.6,0.1,0.9-0.9,0.3-1c-0.6-0.1-1.2-0.2-1.7-0.3c1.1-0.8,2.2-1.6,3.2-2.4c-0.1,0.6-0.1,1.3-0.1,1.9c0,0.6,1,0.6,1,0
		c0-0.9,0.1-1.9,0.2-2.8c0.2-0.2,0.4-0.3,0.6-0.5c0.8,0.1,1.6,0.1,2.3,0.2c0.6,0,0.6-1,0-1c-0.4,0-0.8,0-1.3-0.1c1-0.9,2-1.7,3-2.6
		c-0.1,0.3-0.1,0.7-0.2,1c-0.1,0.6,0.9,0.9,1,0.3c0.1-0.8,0.3-1.6,0.5-2.3c0.1-0.1,0.2-0.1,0.3-0.2c1.2,0.2,2.4,0.4,3.6,0.6
		c0.6,0.1,0.9-0.9,0.3-1c-0.9-0.1-1.9-0.3-2.8-0.4c1.2-0.9,2.3-1.8,3.6-2.7C293,464.7,292.5,463.8,291.9,464.2z"/>
	<path class="nav-crown-13-st-3" d="M99.9,471c-1.6-2.3-3.3-4.6-4.5-7.1c1.2-1.1,2.3-2.2,3.4-3.3c0,0,0,0,0,0c0,0,0,0,0,0c0.1-0.2,0.1-0.4,0.1-0.5
		c-0.1-0.2-0.2-0.3-0.4-0.3c0,0,0,0,0,0c0,0,0,0,0,0c0,0,0,0-0.1,0c0,0-0.1,0-0.1,0c-0.1,0-0.1,0.1-0.1,0.1c0,0,0,0,0,0
		c-1,1-2.1,2-3.2,3c-0.3-0.7-0.5-1.4-0.7-2.1c-0.1-0.6-1.1-0.4-1,0.3c0.2,0.9,0.5,1.8,0.9,2.6c-0.9,0.8-1.8,1.7-2.6,2.5
		c-0.5-1-1-2-1.3-3.1c-0.1-0.6-1.1-0.4-1,0.3c0.3,1.3,0.9,2.4,1.5,3.5c-0.8,0.8-1.6,1.6-2.3,2.4c-0.5-1.2-0.8-2.4-0.8-3.7
		c0-0.6-1-0.6-1,0c0.1,1.6,0.5,3.1,1.1,4.5c-0.6,0.7-1.2,1.4-1.8,2.2c-0.7-1.3-1.4-2.6-2-4c-0.3-0.6-1.1-0.1-0.9,0.5
		c0.7,1.5,1.4,2.9,2.2,4.3c-0.8,1.1-1.6,2.3-2.2,3.5c-0.3,0.6,0.6,1.1,0.9,0.5c0.6-1.1,1.2-2.1,1.9-3c0.3,0.5,0.6,0.9,0.9,1.4
		c0.4,0.5,1.2,0,0.9-0.5c-0.4-0.6-0.7-1.2-1.1-1.7c0.6-0.7,1.1-1.4,1.7-2.1c0.6,1.2,1.4,2.3,2.2,3.4c0.4,0.5,1.2,0,0.9-0.5
		c-0.9-1.2-1.7-2.4-2.3-3.7c0.8-0.9,1.6-1.7,2.4-2.5c0.9,1.4,1.7,2.7,2.3,4.3c0.2,0.6,1.2,0.3,1-0.3c-0.6-1.7-1.6-3.2-2.6-4.7
		c0.8-0.8,1.7-1.6,2.6-2.5c1.2,2.4,2.9,4.6,4.4,6.9C99.4,472,100.3,471.5,99.9,471z"/>
	<path class="nav-crown-13-st-4" d="M107.1,421.1c-0.5-2.1-4.9-2.1-2.4-5c1.2-1.4,1.2-3.8,0.5-5.4c-1.6-3.8-6.4-1.1-7.9,1.2
		c-0.6,1-1.1,2.1-1.7,3.1c-1.1,1.8-2.3,0.5-3.5-0.2c-0.7-0.5-2.9-0.3-3.2,0.6c-0.1,0.3,0,0.6,0.2,0.9c0.3,0.6,0,1.3,0.3,1.8
		c0.6,1,0.1,1.2-0.8,1c-0.7-0.2-1.7,0-2.4,0.1c-1.1,0.2-1.2,1.6-0.6,2.2c0.5,0.6,0.3,1.7-0.4,2c-1.2,0.6-1.8,0.5-3,0.5
		c-0.9,0-1.7,1.8-1.7,2.6c0,0.5,0.1,0.8,0.4,1.2c0.7,0.7-0.6,1.3-1.2,1c-0.4-0.1-1-0.3-1.4-0.2c-1.5,0.3-2,2.5-2,3.9
		c0,1.7-2.3,0.3-2.9,0.2c-0.7-0.1-1.2,0.3-1.7,0.8c-1.3,1.3-0.4,3.1,0.5,4.5c-1.3-0.3-3.1-0.4-3.5,1c-0.4,1.6,0.6,3.1,0.6,4.6
		c-1.3-0.3-3-0.6-3.6,0.9c-0.4,1.1,1.4,4.7,0,4.8c-1.6,0.1-3.4-0.6-5,0.1c-1.2,0.5-0.4,2.1,0.3,3.1h-1.1c-0.3,0-0.5,0-0.6,0.2
		c-0.3,0-0.5,0.1-0.8,0.2c-0.4,0.2-0.3,0.6,0,0.8c0.9,0.6,2.6,1.6,0.7,1.7c-0.9,0-1.7,0-2.6-0.1c-1.2-0.1-2.5-0.3-3.2,0.8
		c-1,1.4-0.2,2.4,0.9,3.4c0.5,0.4,1.9,1.8,0.3,2.5c-0.5,0.2-1.4,0-2-0.1c-0.7,0-1.6,0.3-2,1c-1,1.6-0.3,2.7,1,3.9
		c2.3,2.1-1.1,2.4-2.3,2.5c-1,0.1-1.8,0.4-2.4,1.1c-0.9,0.9-1,2.7-0.2,3.6c1.2,1.3,3.8,1.6,3.4,3.4c-0.1,0-0.3,0.1-0.3,0.3
		c-0.6,2.1-2.5,5.8,1,5.9c2.1,0,4.4-0.5,6.3-1.4c2.2-1.2,3.7-4.2,6.3-4.2c1.5,0,1.7-1.1,1.4-2.2c-0.2-1,0.9-3,2-2.6
		c0.4,0.2,0.9,0.1,1.2-0.3c0.6-0.9,0.8-1.6,0.8-2.7c0-1.5,0.3-2.4,1.9-2.7c0.5-0.1,0.6-0.6,0.7-0.9c0.1-0.4,0-0.8,0-1.2
		c0-0.8,1-1.2,1.6-1.7c1-0.7,2.2-1.5,2.1-2.8c0-0.6-0.5-1.1-0.8-1.5c-1.1-1.8,3-2.6,3.9-3.3c0.3-0.2,0.2-0.6,0.3-0.9
		c0.1-1.8,0.7-2.7,2.4-3.2c1.5-0.5,1.9-2,1.3-3.3c-1.1-2.5,1.1-1.6,1.7-1.4c0.2,0.1,0.5,0.1,0.7,0c0.5-0.2,0.7-0.4,0.9-0.9
		c0.2-0.5,0.6-1.3,0.5-1.8c-0.1-0.4-0.3-0.9-0.5-1.3c-0.1-0.2,1.9-1.2,2.1-1.3c1.2-0.4,2.7-0.7,2.7-2.4c0-0.3-0.1-0.6-0.2-0.9
		c-0.4-1.1,0.9-2.2,1.8-1.6c0.5,0.3,1.3,0.8,1.9,0.6c2.1-0.8,1-2.9,1.3-4.7c1.1,0.7,2.8,1.5,3.3,0.1c0.3-0.7-0.5-5.1-0.1-5.2
		c1.6-0.5,3.3,0.1,4.8-0.8c1.1-0.7,0.5-1.8-0.3-2.6C105,424.4,107.7,424.3,107.1,421.1z M101.1,423c-0.4-0.1-0.7,0.6-0.4,0.9
		c4.4,3.4-1.8,1.8-3.2,3c-1.9,1.7,2.3,8-2.6,4.7c-0.3-0.2-0.6,0-0.7,0.3c-0.3,0.8-0.3,1.7-0.2,2.5c0,0.5,0,1,0,1.6
		c0,1.5-1.8,0.1-2.1-0.1c-1.3-0.9-2.3-0.3-3.1,0.9c-0.3,0.5-0.1,1.2,0,1.7c0.6,1.7-0.7,2.1-1.9,2.6c-1.7,0.6-2.9,1-2.2,2.9
		c0.4,1-0.1,2.4-1.5,2c-0.5-0.2-1-0.3-1.5,0c-2.1,1.2,1.1,4.2-1.5,5.1c-1.6,0.6-2.3,1.2-2.6,3c-0.2,1.4,0.2,1.4-1.4,2
		c-0.7,0.3-1.9,0.4-2.4,1.1c-0.4,0.5-0.8,1.2-0.6,1.9c0.2,0.8,1.1,1.7,0.8,2.5c-0.4,1.4-3,1.6-3.5,3c-0.3,1,0.1,2.1-1.4,2.2
		c-0.5,0.1-0.8,0.3-1.1,0.7c-0.5,0.8-0.3,2-0.3,2.8c0,0.8-0.2,2.2-1.2,1.8c-0.3-0.1-0.6-0.2-0.9-0.1c-0.9,0.3-2,2.5-2,3.5
		c0.1,1.6-0.9,1.3-1.9,1.6c-1,0.3-1.8,1.5-2.5,2.2c-2.3,2.3-4.7,3.1-8,3.4c-1.1,0.1-1.7,0.1-1.5-1.1c0.2-0.9,0.5-1.8,0.7-2.7
		c0.1,0,0.1-0.1,0.2-0.2c0.6-1.2,0.9-2.5-0.4-3.5c-0.7-0.5-1.5-0.9-2.3-1.4c-0.8-0.5-1-1.2-0.7-2.1c0.4-1.5,1.9-1.5,3-1.6
		c1.6-0.1,3.1-0.7,3-2.6c0-0.8-0.8-1.4-1.3-1.9c-1.1-1-0.7-2.9,1.1-2.8c0.5,0,1,0.1,1.4,0.1c1.6-0.2,2.1-1.9,1.4-3.2
		c-0.3-0.5-3.5-2.9-1.2-3.5c0.8-0.2,1.9,0,2.7,0c1,0,3,0.4,3.8-0.5c0.7-0.8-0.2-1.7-1.1-2.3c0.3,0,0.6,0.1,0.8,0.2
		c0.3,0.1,0.5-0.1,0.6-0.3c0.2,0,0.4-0.1,0.7-0.2c0.4-0.1,0.5-0.5,0.2-0.8c-3.4-4.3,2.9-0.9,4.6-2.4c2.1-1.9-3.3-6.9,2.6-5.2
		c0.3,0.1,0.6-0.1,0.6-0.3c0.2-1,0-2-0.3-3c-0.2-0.6-0.3-1.2-0.3-1.8c0-1.4,2.9-0.5,3.5-0.4c0.4,0.1,0.8-0.3,0.6-0.7
		c-0.2-0.3-0.3-0.6-0.5-0.9c-0.1-0.2-0.2-0.4-0.3-0.5c-0.7-1.1-0.5-2.1,0.8-3.3c0.6,0.1,1.3,0.6,1.9,0.8c0.9,0.3,1.8-0.7,1.9-1.5
		c0.1-0.9,0.2-1.6,0.5-2.5c0.5-1.4,2.3-0.2,3.2-0.6c0.6-0.2,1.6-1.4,1.2-2.2c-0.4-0.8-0.6-1.5-0.1-2.4c0.2-0.4,1.3-0.1,1.6-0.1
		c0.9-0.1,2.2-0.5,2.7-1.4c0.6-1.2,1.1-1.6,0.2-2.6c-0.8-0.9,2-0.8,2.2-0.7c0.5,0.3,0.8,0.4,1.4,0.3c1.1-0.3,0.9-1.7,0.6-2.4
		c-0.3-0.6-0.2-1-0.3-1.6c-0.2-0.7-0.7-0.8,0.2-1c1.5-0.4,3.1,2.3,4.6,1.3c1.4-0.9,2-2.7,2.8-4.1c1.6-2.9,6.6-4.8,6.8,0
		c0.1,1.5-0.7,2.3-1.5,3.5c-0.4,0.5-0.8,1.1-0.6,1.8c0.6,1.8,3,1.6,3.5,3.2C107,424.3,102.4,423.2,101.1,423z"/>
	<path class="nav-crown-13-st-4" d="M146.4,383.5c-0.1-1.6-1.5-2.6-2.8-3c-0.9-0.2-1.9,0-2.8,0.2c-1.4,0.3-3.2,1.9-4.7,1.1
		c-1.4-0.8-2.6-2.3-4.4-1.6c-1.2,0.4-1.2,1.9-1.1,3c-1.8-0.5-2.7-0.5-3.2,1.5c-0.7-0.4-1.4-0.7-2.1-0.5c-0.7,0.2-0.9,1.7-1.4,1.4
		c-0.8-0.4-1.4-1.4-2.4-1.4c-0.7,0-1.1,0.7-1.3,1.4c-1.2-1.4-2.5-2.7-4.4-1.4c-1.3,0.9-1.1,3.2-1,4.7c-0.8-0.2-1.6-0.3-2.4-0.6
		c-0.1,0-0.2,0-0.3,0c-1.1-0.5-1.8,0.4-2,1.8c-0.3,2.5,3.1,3.4,4.8,4.1c2.6,0.9,1.4,5.4,4.5,5.3c1.6,0,1.7-2.3,2.2-3.7
		c0.6,0.9,1.3,1.5,2.6,1.4c1.5-0.1,1.7-1.5,1.9-2.8c0.9,0.9,1.1,2.2,2.7,2c1.2-0.2,1.1-2.8,1.5-3.6c0.3-0.6,1.1,1.3,1.2,1.4
		c0.4,0.4,0.7,0.4,1.3,0.4c1.8-0.1,1.8-1.8,2.1-3.1c1.4,1.1,2.7,2,4.5,1.3c1.5-0.6,0.8-2.2,0.5-3.4
		C139.4,387,146.6,386.8,146.4,383.5z M139.5,387.9c-0.4,0.6-0.4,1.1-0.3,1.8c0.1,0.9,1.1,1.8-0.4,2.4c-1.2,0.5-2.7-1.1-3.5-1.7
		c-0.2-0.2-0.6-0.2-0.8,0.1c-0.2,0.4-0.3,0.7-0.4,1.2c0.1,1.1-0.5,1.6-1.8,1.5c-0.1-0.2-0.1-0.5-0.3-0.7c-0.3-0.6-1-1.2-1.7-0.7
		c-0.9,0.5-1,1.5-1.1,2.4c-0.2,1.5-1,1.2-1.7,0.1c-0.3-0.5-0.7-0.8-1.2-1.1c-0.3-0.1-0.6,0-0.7,0.3c-0.1,0.4-0.2,0.7-0.3,1.1
		c0,1.4-1,1.4-3,0c-0.1-0.3-0.6-0.5-0.8-0.2c-0.6,0.7-0.7,1.5-1,2.3c-0.1,0.3-0.2,0.6-0.3,0.8c-0.3,1.2-1,1.1-2-0.2
		c-0.2-0.7-0.3-1.4-0.6-2.1c-0.3-0.9-1-1.5-1.8-1.8c-0.7-0.3-1.4-0.5-2.2-0.8c-0.6-0.2-1.2-0.5-1.7-0.9c-1.1-1.1-1-1.8,0.2-2.3
		c0.2,0.2,0.4,0.1,0.6,0c0.8,0.3,1.6,0.5,2.5,0.6c0.3,0,0.6-0.1,0.6-0.5c0-1,0-1.9,0-2.9c0.1-1.6,1.4-2.7,2.9-1.4
		c0.6,0.5,1,1.2,1.5,1.8c0.2,0.3,0.8,0.1,0.8-0.2c0.4-1.8,0.9-1.4,2-0.6c0.5,0.4,1.1,0.6,1.7,0.6c0.3,0,0.5-0.2,0.5-0.5
		c0.1-2,1.4-0.8,2.2-0.4c0.3,0.1,0.7,0,0.7-0.3c0.4-2,1.3-1.6,2.9-1.2c0.4,0.1,0.7-0.3,0.6-0.6c-1-5.5,3.8-0.2,6-0.8
		c1.5-0.4,2.8-1.3,4.4-1.5c1.5-0.2,3.5,0.8,3.2,2.6c-0.1,0.7-1,1.1-1.5,1.4C142.5,386.2,140.4,386.5,139.5,387.9z"/>
	<path class="nav-crown-13-st-4" d="M170.4,399.8c0.3-0.1,0.6-0.4,0.5-0.8c-0.7-2.1-2.8-2.2-2.3-5.1c0.3-2.1-0.2-4.4-2.4-5.1
		c-1.8-0.6-3.8,1.3-4.4,2.8c-0.5,1.4-0.1,2.7-2.1,2.1c-0.5-0.1-1.4,0.3-1.5,0.8c-0.1,0.5,0.3,1.5-0.5,1.4c-0.8-0.1-1.2,0.3-1.5,1.1
		c-0.2,0.7,0.5,1.2,0.9,1.6c0.9,0.8-0.4,0.3-1,0.7c-0.2,0.1-0.3,0.3-0.2,0.6c0.1,0.4,0.2,1.1,0.4,1.4c0.3,0.4-0.9-0.1-1.3-0.1
		c-0.9,0.1-1.2,0.9-1.3,1.7c-1-0.2-2.1,0.1-1.7,1.5c0.1,0.4,1.7,2,0.3,1.5c-0.5-0.2-1.4-0.3-1.9,0.2c-0.5,0.6-0.6,1-0.4,1.7
		c0-0.1,1.1,1.7,0.3,1.4c-0.4-0.1-0.8-0.3-1.2-0.2c-2.2,0.6-2.1,2.1-1.2,3.6c-0.9-0.1-1.8-0.2-2.4,0.8c-0.2,0.4-0.2,1.2,0,1.6
		c0.7,1.1,0.3,1.1-0.2,1.9c-0.3,0.4,0.2,1,0.4,1.3c0.6,1-0.7,0.2-1.2,0.5c-1.3,0.7-1.2,1.9-0.8,3.1c-1.4-0.2-2.1,0.7-2.1,2.2
		c-1.8-0.3-2,1.1-1.3,2.9c0.6,1.5,0.2,0.9-0.7,1.8c-0.5,0.6-0.4,1.3,0,1.9c-0.4,0.1-0.7,0.4-1.1,0.7c-0.2,0.2-0.2,0.5,0,0.7
		c0.2,0.3-3.8,1.7-2.6,3.6c0.8,1.3,2.7,1.8,4.1,2.2c2,0.6,2.1,1.9,2.4,3.6c0.1,0.6,0.6,1,1.1,1.2c0.1,0.1,0.2,0.1,0.3,0
		c0.2,0.1,0.4,0.1,0.5-0.1c0.4-0.5,1.3,0.4,2.1,0.2c0.9-0.3,1.3-1.7,1.7-2.4c1-2.1,3-1.3,4.7-2.1c1.6-0.8-0.1-3,1.6-3.4
		c0.3-0.1,0.5-0.5,0.3-0.7c-0.3-0.4,0.1-2.3,0.1-2.8c0-1.4,1.7-1.4,2.1-2.6c0.1-0.4,0.8-0.3,1.1-0.7c0.4-0.5,0.2-1.6,0-1.6h0.3
		c0.4,0,0.5-0.6,0.5-0.9c-0.1-0.6-0.2-1.3-0.3-1.9c-0.1-0.3,1-0.3,1.3-0.3c1.2-0.1,2.6-0.3,3.5-1.2c1-1-0.4-2.7-1.4-3.7
		c2.2-0.6,1.5-2.1-0.1-3.5c0.6-0.4,1.2-0.9,1.5-1.4c0.3-0.5,0.6-0.8,0.7-1.4c0.2-1.2,1.9,0.2,2.5,0.4c1,0.5,2.2-0.1,2.5-1.2
		c0.5-1.9-1-2.7-1.8-4.1c0.3-0.1,0.7-0.1,1-0.1c0.4,0,0.6-0.4,0.4-0.8c-0.2-0.3-0.2-0.8-0.4-1.1c-0.2-0.4-1.4-0.9,0.1-1.1
		c0.8-0.1,1.3,0,1.9-0.6C171.5,402,168.2,400.8,170.4,399.8z M168.6,400.3c-0.2,0.3-0.2,1,0.1,1.3c1.2,1.3-0.4,1.1-1.3,1.6
		c-1.5,0.7-0.6,1.8,0.1,2.8c-0.3,0-0.6,0.1-0.9,0.1c-0.3,0-0.6,0.3-0.5,0.6c0.2,0.5,0.4,0.9,0.7,1.4c0.1,0.2,0.3,0.3,0.4,0.5
		c0.8,1,0.4,3.2-1.1,2.4c-0.7-0.3-1.7-1.1-2.5-0.6c-0.8,0.5-0.8,1.6-1.3,2.3c0-0.1-1.4,1.2-1.7,1.4c-0.4,0.1-0.5,0.7-0.1,0.9
		c0.6,0.4,3.2,2,0.4,2.3c-0.5,0.1-0.6,0.5-0.4,0.9c0.6,0.8,3,2.8,1.1,3.5c-1.1,0.4-2.4,0.6-3.6,0.8c-1,0.2-0.7,1.8-0.5,2.8h-0.5
		c-0.4,0-0.6,0.2-0.4,0.5c0.5,0.7,0.4,1.2-0.3,1.7c-0.3,0-0.5,0.2-0.5,0.4c0,1.1-1.9,1.5-2.1,2.8c-0.1,1-0.5,2.2-0.2,3.2
		c-0.4,0.2-0.9,0.4-1,0.9c-0.1,0.3-0.1,0.7,0,1c0.3,1.6-1.5,1.8-2.7,1.9c-0.8,0.1-1.5,0.4-2,1c-0.7,0.9-1.3,3.9-3.1,2.4
		c-0.2-0.2-0.5-0.2-0.7,0c-0.1,0.1-0.2,0.3-0.3,0.4c-0.7-0.5-0.5-1.6-0.7-2.4c-0.1-0.6-0.6-1.1-1.1-1.5c-0.6-0.6-6.3-2.2-5.3-3.2
		c0.7-0.7,1.9-0.8,2.6-1.6c1.2-1.2-1.3-1.1,1.3-1.5c0.4-0.1,0.5-0.6,0.2-0.8c0.2-0.5,0.3-1,0.5-1.5c0.3,0,0.5-0.2,0.5-0.5
		c-0.1-1-1.8-4,0.2-3.4c0.4,0.1,0.7-0.3,0.6-0.6c0.2-1.6,0.8-2.1,1.8-1.5c0.5,0.2,0.7-0.4,0.6-0.7c-0.4-0.9-0.7-2.7,1-2.4
		c0.3,0.1,0.5-0.1,0.8-0.3c0.5-0.3,0.3-1,0.1-1.4c-0.8-1.3,0.4-1,0.4-1.9c0-0.5-0.3-0.9-0.6-1.3c-1.1-1.7,1.8-1.2,2.2-1.2
		c0.4,0,0.7-0.5,0.4-0.8c-0.3-0.3-0.5-0.7-0.7-1.1c-1.9-3,1.8-1.6,2.1-1.6c0.6,0,0.7,0,1.1-0.5c0.6-0.6-1.2-3.4,0.2-3
		c0.7,0.2,1.3,0.5,1.8-0.3c0.2-0.4,0.2-1.1,0.1-1.4c0,0-1.2-1.8,0-1.1c0.3,0.2,0.8-0.1,0.8-0.4c-0.1-2.3,1.5-0.6,2.2-1.3
		c0.5-0.4,0.9-0.8,0.5-1.4c-0.4-0.6-0.2-0.9,0.3-0.9c0.5,0,0.8-0.7,0.9-1.1c0.1-0.6-0.6-1.1-1-1.4c-0.2-0.2,1.7-0.7,1.8-0.9
		c0.4-0.7-0.4-1.9,1.2-1.6c0.7,0.1,1.4,0.1,1.8-0.6c0.7-1.2,0.2-2.5,1.2-3.6c2.5-2.6,4.6,0.5,4.2,2.9c-0.1,0.5-0.3,1.3-0.2,1.9
		c0.2,1.1,0.5,1.8,1.4,2.4C170.4,399,169.2,399.3,168.6,400.3z"/>
	<path class="nav-crown-13-st-4" d="M99.7,466.8c-2.2-2.4,5-6.1,1.7-9c-1.7-1.5-4.1-0.4-5.6,1c-2-2.8-5.6-1.4-5.4,1.7c-0.9-0.6-1.8-0.9-2.8-0.3
		c-0.7,0.4-0.8,1.3-0.7,2.1c-1.4-0.4-2.1,1.7-2.4,3.5c-1.1-1.4-2.9-2.6-4.2-0.7c-1.1,1.5-1.3,2.8-1,4.6c0.2,1,0.5,1.9,0.8,2.9
		c0.7,2.2-0.2,3.4-1.7,4.9c-0.2,0.2-0.2,0.4-0.1,0.6c-0.1,0.3,0,0.6,0.3,0.6c1.1,0.2,1.4,0.4,2,1.4c0.3,0.6,1.1,1.2,1.8,1.1
		c1.7-0.2,2.9-1.5,3.8-2.9c1.4,1.4,3.5,0.5,3.7-1.3c1.9,1.1,3.5-0.2,3.4-2.4c2,1.2,4,0.6,3.8-1.7c2,1.5,4,3.2,5.9,0.4
		C104.8,470.8,101,468.2,99.7,466.8z M99.2,473.2c-0.9-0.6-1.7-1.4-2.6-2c-0.4-0.2-0.9,0.1-0.7,0.6c0.5,0.9,0.3,1.7-0.5,2.5
		c-0.9,0.1-1.7-0.7-2.3-1.3c-0.4-0.4-1,0-0.8,0.5c0.1,0.4,0.1,0.8,0.2,1.2c-1.3,1.5-2.3,1.6-3,0.5c-0.4-0.4-1.1,0.1-0.8,0.6
		c-0.7,0.4-1.3,0.8-2,1.2c-0.2-0.3-0.7-0.3-0.9,0c-0.4,0.7-0.9,1.3-1.5,1.9c-0.8,1-1.8,1-3,0c0-0.2,0-0.4-0.1-0.6
		c-0.5-0.8-1-0.7-1.7-0.7c1.1-1.1,2.1-2.3,1.8-4.1c-0.2-1.2-0.6-2.3-0.9-3.5c-0.4-1.4-0.5-2.6,0.2-3.9c1.4-2.7,3.3,0.3,3.8,1.1
		c0.3,0.5,0.9,0.2,0.9-0.3c0.1-0.9,0.5-5,2.1-3.1c0.4,0.4,1-0.1,0.8-0.6c-0.9-1.3-0.4-2,1.3-2.2c0.4,0.3,0.9,0.6,1.2,0.9
		c0.3,0.3,1,0,0.8-0.5c-1.2-3,2-4.8,3.6-1.7c0.1,0.3,0.6,0.3,0.8,0.1c0.7-0.8,1.4-1.3,2.4-1.7c2.6-1,3,1.8,1.8,3.6
		c-0.9,1.3-2.6,2.5-2.1,4.4c0.4,1.4,2,2.5,3,3.4c0.5,0.5,0.9,1.1,1.2,1.7C103.1,473.2,100.4,473.9,99.2,473.2z"/>
	<path class="nav-crown-13-st-4" d="M257.2,446.7c-1.1-5.1-8.6-3.1-10.9,0.2c-0.2-0.3-0.3-0.5-0.5-0.8c0-0.4-0.4-0.6-0.8-0.4
		c-2.2,1.3-0.6-1.4-2.1-1.7c-1.7-0.3-2.5,1.1-3,2.5c-0.4,1-0.8,3.8-2.3,3.7c-0.8,0-1.6,0-2.2,0.6c-1.2,1.2-0.6,2.5,0,3.9
		c-1.8-0.6-3.3-2.5-5.2-1.3c-1.3,0.8-1.7,3-2.2,4.5c-1.2-0.3-2.7-0.8-3.7,0.1c-0.4,0.4-0.7,0.7-0.9,1.2c-0.4,0.8-1.3,0.2-2,0.3
		c-1.7,0.1-1.6,1.4-2.9,2.3c-0.6,0.4-2.7,1.1-3,0.2c-0.2-0.7-0.5-1.2-1-1.7c-2.6-2.8-5.2,1.3-7.3,2.2c-0.7,0.3-1.7-1.6-2.7-1.5
		c-0.5,0-0.8,0.2-1.1,0.5c2.2-2.6,4.7-6.1,1.7-7.6c-2.7-1.3-6.7,2.2-9.1,3.5c-2.2-2.7-4.3,1.9-6,3.2c-1.5,1.1-0.3-3-0.1-3.7
		c0.3-1.1,0.4-2.5-0.6-3.2c-0.8-0.6-2.2,0.2-2.9,0.6c-0.8,0.4-1.5,0.9-2.2,1.3c-1.3,0.8-1.7,0.7-2.4-0.7c-0.6-1.3-2.3-1.3-3.3-0.7
		c-0.5,0.3-0.7,0.9-0.8,1.4c-0.1,0.4-0.2,0.9-0.3,1.4c-0.2,1.4-1.2,1.4-2.8,0.1c0.1-0.3,0.2-0.6,0.3-0.9c0.3-1-0.1-2.9-1.1-3.4
		c-1.2-0.6-2.3,0-3.4,0.7c-1.4,0.9-2.4,2.2-3.8,3.1c-0.7,0.5-2-0.5-2.8-0.7c-0.9-0.2-1.6,0.4-2.1,0.9c-0.5,0.5-0.5,1.2-0.5,1.8
		c-0.4,0.2-0.9,0.5-1.3,0.7c0-0.2,0-0.5,0-0.7c0-0.4,0.1-0.9,0.1-1.3c0.1-1.4,0-2.9-1.3-3.7c-3.2-1.8-5.3,1.6-6.8,3.9
		c-1,1.5-1.8,2.2-3.5,1.1c-0.9-0.6-1.6-0.7-2.6-0.4c-1,0.3-1.7,1.1-2,2.1c-0.1,0.4,0,1.1,0.1,1.5c0,0.2,0.1,0.4,0.2,0.5
		c0.1,0.2,0.1,0.3,0.2,0.5c0.4,0.4,0.3,0.7-0.4,0.9c-0.9-1.3-1.8-4.9-4.3-3.5c-1.1,0.6-1.8,1.5-2.5,2.6c-0.5,0.7-0.6,1.8-1.6,1.3
		c-1-0.5-1.9-1.2-2.8-1.7c-1.8-1-4.8-0.6-5.6,1.6c-0.7,2.1,2.3,4.4,3,6.2c0.5,1.2-1.9,2.8-2.5,3.8c-0.5,1-0.2,2.3,0.2,3.2
		c1.1,2.2,4.2,2.3,6,1.2c0,0,0,0,0,0c1.4,1,1.9,2.9,4,2.4c2.4-0.5,2.8-2.3,3.2-4.4c1.5,0.8,4.2,3.2,5.4,1.2c1-1.7-0.1-4-1-5.7
		c0.6-0.3,1.3-0.6,1.9-0.8c0.5,1.5,1.8,2.9,3.5,2.3c1.8-0.6,2.3-2.2,3.1-3.7c2.3,2,5.3,2.3,7.9,0.3c1.1-0.8,1.4-1.7,1.1-2.4
		c0.9,0.7,1.5,1.9,2.7,2.4c0.9,0.5,1.7-0.1,2.3-0.7c1.7,1.8,4.3,3.7,6.8,2.6c3-1.3,0.4-3.8-0.9-5.4c1.2,0,2.3,0.1,2.8,1.5
		c0.2,0.4,0.6,1.1,1,1.4c1.1,0.8,2.1,0.5,2.9-0.3c0.4,1.6,1.3,3,3.1,3.3c0.6,0.1,1.2-0.2,1.6-0.6c0.6-0.4,2.5-2.1,2.5-2.2
		c0,1.4-0.5,2.5,0.8,3.4c1,0.8,2.3-0.1,3.1-0.7c0.8-0.6,1.4-1.4,2.3-1.9c1.4-0.8,1.6,2,1.8,2.6c0.3,1.3,1,2,2.3,1.8
		c1.8-0.2,2.5-2,3.8-3c2-1.5,2.8,1.7,3,2.8c0.1,0.5,0.3,1,0.8,1.2c1.3,0.7,3-0.9,3.8-1.7c0.7-0.7,1.2-0.8,2.1-0.5
		c0.6,0.3,2.1-0.7,2.6-0.9c0.2-0.1,2,2.7,3.2,2.6c2.1-0.1,2-4.3,5-1.8c0.8,0.7,1.9,1.4,2.8,0.6c0.7-0.6,1.2-1.2,1.4-2.1
		c0.3-1.1,1.3-1.3,2.2-1.5c0.8-0.2,1,1.1,1.4,1.5c1,1,2.6,0.5,3.4-0.6c0.6-0.9,0.8-1.6,1-2.7c0.2-1.5,3.3,0.7,3.9,0.9
		c2.3,0.7,7.7-1,4.7-4c-0.5-0.5-0.5-0.5-1-0.9c-0.2-0.1-0.3-0.2-0.5-0.2c-0.8-0.2-0.7-0.6,0.3-1.3c1.1,0.2,2,0.6,3.1,0.9
		c1.4,0.5,2.5,0.1,2.8-1.4c0-0.2,0-0.3-0.1-0.4c0-1.1-0.3-2.1-0.4-3.1c0.1,0,0.1-0.1,0.1-0.1c0,0,0-0.1,0.1-0.1
		c0.1-0.1,0.2-0.2,0.2-0.3c0.9-0.5,2.1-0.2,2.9,0.4c0.2,0.2,0.4,0.2,0.6,0c0.1,0.1,0.2,0.1,0.4,0.1c2.3-0.4,5.5-2.4,2.8-4.7
		c-2-1.7,1.9-2.9,2.6-4.1C257,449.1,257.5,447.8,257.2,446.7z M255.8,449.1c-0.6,1.4-3.8,2.1-3.7,3.9c0,0.7,0.2,1,0.7,1.5
		c1.8,1.9,0,3-2,3.3c0,0-0.1,0-0.1,0c-1.3-1.1-3.4-1.3-4.6,0c0,0,0,0,0,0.1c-0.1,0.1-0.2,0.2-0.2,0.4c0,1.3,0.6,2.7,0.4,4
		c0,0,0,0.1,0,0.1c-0.8,1.4-4.5-1.2-5.8-0.6c-1.8,0.9-1.2,2.4,0.3,3.2c0.8,0.4,2.4,1.5,1.5,2.7c-0.6,0.8-2.1,0.8-3,0.8
		c-1.7,0-2.6-1.3-4.1-1.8c-0.7-0.2-1.4,0.3-1.7,0.8c-0.3,0.3-0.3,0.8-0.4,1.2c0,0.5-0.2,1-0.5,1.4c-1.4,0.9-2.2,1-2.5,0.1
		c-0.8-1.5-2.7-1.2-3.9-0.2c-0.9,0.7-1.5,3.8-2.9,3c-0.8-0.4-1.3-1.4-2.3-1.5c-0.8-0.1-1.6,0.2-2.2,0.7c-0.5,0.4-0.8,0.8-1.2,1.2
		c-1.1,1.4-1.9-0.6-2.4-1.3c-0.3-0.4-0.7-0.9-1.3-0.7c-0.5,0.1-0.9,0.3-1.4,0.6c-1,0.5-1.1,0.3-1.9-0.2c-0.1-0.1-0.4-0.1-0.5,0
		c-1.6,1-4.2,4.8-4.8,1.2c-0.3-1.6-1.7-2.5-3.2-2.6c-1.6-0.1-2.5,2.1-3.6,2.9c-2.2,1.6-2.2-2.7-3.2-3.7c-0.8-0.9-2-0.4-2.8,0.2
		c-0.6,0.5-1.2,1.1-1.8,1.6c-1.7,1.5-2.5,0.2-2.2-1.5c0.1-0.6,0.1-1.8-0.9-1.5c-0.7,0.2-1.3,0.9-1.9,1.4c-0.5,0.5-1,0.9-1.5,1.3
		c-1.7,1.1-2.8-2.1-3-3.3c-0.1-0.4-0.6-0.5-0.8-0.2c-1,1.1-2.7,0.6-3.2-0.9c-0.1-0.2-0.3-0.5-0.5-0.7c-1.2-0.8-2.5-0.7-4-0.6
		c-0.4,0-0.6,0.4-0.4,0.8c0.8,1.2,4,3.2,1.9,4.8c-1.8,1.4-4.9-1.7-6-2.9c-0.2-0.3-0.6-0.1-0.8,0.1c-1.8,2.4-3.2-1.1-4.3-2
		c-0.8-0.6-1.8-0.2-2.6,0c-0.6,0.2-0.4,0.9,0.1,1c3,0.4,0,2.4-0.7,2.8c-2,1.1-4.4-0.1-5.8-1.5c-0.2-0.2-0.6-0.2-0.8,0.1
		c-0.3,0.6-0.6,1.3-0.9,1.9c-0.2,0.5-0.5,0.9-0.8,1.3c-2.2,0.6-3.4,0.1-3.5-1.4c-0.1-0.3-0.4-0.4-0.6-0.3c-1.1,0.4-2.1,0.9-3.1,1.3
		c-0.2,0.1-0.3,0.5-0.2,0.7c0.8,1.3,1.5,2.7,1.6,4.2c0.2,2.5-4.3-0.7-5.1-0.9c-0.2-0.1-0.6,0.1-0.6,0.3c-0.3,1.8-0.8,5.4-3.7,4.1
		c-1-0.4-1.4-1.9-2.5-2.4c-0.3-0.2-0.6,0-0.7,0.3c-1.6,0.9-3.4,0.7-4.6-0.9c-1.3-1.8,0.5-3.2,1.6-4.3c0.8-0.8,1-1.9,0.5-2.9
		c-0.8-1.6-2.6-3.1-2.8-5c0.4-1.1,1.3-1.7,2.5-1.6c1-0.1,2,0.6,2.7,1.1c1,0.6,1.9,1.2,2.9,1.6c0.2,0.1,0.5,0,0.6-0.2
		c0.7-1.1,1.4-2.3,2.2-3.3c1.7-2,3.2,0.5,3.8,1.9c0.5,1.3,1.6,1.8,2.7,0.9c0.4-0.3,0.2-0.9,0.1-1.3c-0.1-0.4-0.3-0.7-0.5-1.1
		c-0.8-1.5,0.3-4,2.4-3c1.3,0.6,2.3,1.5,3.7,0.6c1.1-0.7,1.8-2.2,2.5-3.3c0.6-0.9,1.2-1.6,2.1-2.2c1.9-1.1,3.3,0.7,3.2,2.4
		c0,0.9-0.6,3,0.2,3.6c0.9,0.7,2.2,0.2,2.7-0.7c0.1-0.2,0.2-0.5,0.2-0.7c0.1-1.4,1.7-2.2,2.9-1.7c0.5,0.2,1,0.4,1.6,0.3
		c1.2-0.2,2.5-1.9,3.3-2.6c0.8-0.6,1.6-1.3,2.5-1.5c2.1-0.6,1.2,2.9,1,3.8c-0.3,1.3,1.4,2.6,2.6,2.4c1.6-0.3,2.1-1.9,2.4-3.4
		c0.2-1.2,2.1-1.6,2.6-0.5c0.1,0.3,0.2,0.6,0.5,0.9c0.3,0.4,0.8,0.7,1.3,0.6c1.3-0.3,2.5-1.3,3.7-2c0.5-0.3,2.2-1.4,2.5-0.5
		c0.4,0.9-0.2,2.1-0.4,3c-0.3,1.1-1.1,3.7,0.5,4.1c2,0.4,4.8-5.9,6.3-3.6c0.2,0.2,0.4,0.3,0.7,0.2c2.4-1.1,4.5-2.8,7.1-3.6
		c3.7-1.1,1.6,3.4,0.5,4.7c-1.1,1.4-2.4,2.5-3.3,4c-0.2,0.3,0,0.8,0.4,0.8c1-0.1,1.6-0.6,2.3-1.3c0.8-0.9,1.7-1.4,2.7,0
		c0.1,0.2,0.4,0.4,0.6,0.4c1,0.2,1.8-0.2,2.6-0.8c0.4-0.3,0.8-0.7,1.2-1.1c1.4-1.3,4.2-1.8,4.5,1.3c0,0.3,0.2,0.5,0.5,0.5
		c1.1,0.1,2.3,0.1,3.4-0.4c0.8-0.3,2.6-2.5,3.2-2.2c0.7,0.3,1.7,0.1,2.3-0.3c0.2-0.1,0.3-0.3,0.3-0.5c0.6-1.7,2.7-1.1,3.9-0.8
		c0.3,0.1,0.5-0.1,0.6-0.3c0.6-1.5,1.1-5.6,3.8-4.3c1.3,0.6,2,1.5,3.6,1.5c0.3,0,0.6-0.3,0.5-0.6c-0.2-0.9-0.6-1.7-0.9-2.5
		c-0.6-1.8,2.7-1.2,3.4-1.7c1.1-0.6,1.3-2.7,1.6-3.7c0.1-0.4,1.2-3,1.8-1.9c0.3,0.6,0.6,1.1,0.8,1.6c0.3,0.6,1,0.2,1.6-0.1
		c0.2,0.6,0.5,1,1.1,1.4c0.2,0.1,0.6,0.1,0.7-0.2c1-2.3,3.3-3.4,5.7-3.4C255.2,444.6,257,446.4,255.8,449.1z"/>
	<path class="nav-crown-13-st-4" d="M286.3,425.6c-1.4-2.9-6-1.4-8.6,0.2c0.3-1.6,0.3-3.1-1.1-4.4c-0.8-0.7-1.6-0.6-2.2-0.1
		c-0.7-1.3-1.8-2.2-2.7-3.4c2-1.5,5.5-6.2,2-7.4c-0.9-0.3-1.5-0.3-2.4,0c-1.2,0.5-2.3,2.9-3.9,1.4c-1.4-1.3,0.6-3.8-1.2-5.4
		c-1.5-1.3-2.2-0.7-3.5,0.7c-0.7,0.8-0.5-1.2-0.3-1.5c0.4-0.5,0.5-1,0.7-1.6c0.3-0.9,0.5-2.1,0.3-3c-0.4-1.6-1.4-2.5-3-2.2
		c-1.7,0.3-2.9,2.5-4,4c-0.1,0-0.2-0.1-0.3-0.1c-4.2,0.3-1.5-5.2-3.8-6.6c-1.7-1.1-2.4-0.1-3.2,1c0.2-1.2,0.1-2.4-0.8-3
		c-2.3-1.2-3.5,0.8-4.8,2.4c-0.9-1.2-1.9-1.7-2.9-0.7c-1.1-2-3-2.8-4.7-1.1c-1.1-2-2.5-1.4-4,0.1c-0.2-1.1-0.7-2.6-1.8-2.6
		c-1.3,0-2.5,1.1-3.5,2c-0.2-1.2-0.6-2.5-1.9-2.6c-1.2-0.1-2.1,0.7-2.7,1.7c-0.1-1.4-0.5-3-1.9-2.7c-1.1,0.2-3,2-3.8,1.2
		c-0.5-0.5-0.9-0.4-1.3-0.1c-0.9-1.3-2.7-0.6-3.8,0.6c-0.5,0.5-0.7,1.3-1.1,1.9c-0.6,0.7-1.6,1.1-2.4,1.5c-0.7,0.3-2.1,1.1-2.2,2
		c-0.3,2.7-4.9,3.1-3.8,6.6c0.6,1.9,3.2,0.8,4.7,0.5c0.1,0.1,0.2,0.1,0.4,0c0.3-0.1,0.5-0.1,0.7-0.2c0.2,0.9,0.3,1.8,0.6,2.7
		c0.3,0.7,0.8,0.8,1.3,0.5c0.1,0.9,0.1,1.7,0.5,2.5c0.4,0.9,1.2,0.7,1.9,0.2c0.1,0.5,0.3,1,0.5,1.3c-0.2,0.2-0.3,0.5-0.1,0.7
		c0.2,0.2,0.4,0.5,0.6,0.8c0.4,0.5,1.1-0.2,0.7-0.7c0,0-0.1-0.1-0.1-0.1c0.9,0.1,2.1-0.6,3.3-1.3c-0.1,1.5-0.3,3.1,1,4.1
		c1.1,0.8,2.3-0.1,3.2-1.1c-0.1,0.9,0.1,1.7,0.8,2.4c0.8,0.7,1.9,0.6,2.8,0.2c0.1,0.1,0.3,0.2,0.5,0.1c0,0,0,0.1,0.1,0.3
		c0,0,0,0.1,0,0.1c0,0.7,0,1.3,0.3,2c0.1,0.2,0.2,0.3,0.4,0.3c0.3,0.3,0.6,0.6,1.2,0.8c0.6,0.2,1.2-0.1,1.7-0.4
		c0.3-0.2,2.2-2.9,2.6-1.7c0.4,1.4-0.7,3.7,0.9,4.7c1.4,0.8,2.6-0.4,3.5-1.5c0.4,2.5,0.6,7.2,3.8,6.2c0.6-0.2,1.1-0.8,1.5-1.3
		c0.2-0.2,0.7,0.2,1,0.3c0.9,0.2,1.7-0.7,2.4-1.2c1.4,0.4,1.9,1.1,1.4,2.2c-0.1,0.4-0.2,0.7-0.4,1.1c-0.2,0.7-0.6,1.4-0.7,2.2
		c0,1.1,0.3,1.9,1.4,2.2c1,0.3,3.4-1.5,3.9-1c0.3,0.3,0.6,0.7,1.1,0.7c1.2,0,3.3-2.2,3.4,1.1c0,1.9-2.6,6.7,0.9,7.4
		c0.5,0.1,1-0.1,1.4-0.2c1.1-0.3,1.8,0.3,2.7,0.6c1.5,0.5,3.4-1.7,4,0.2c0.6,1.9,0.2,4.3-0.3,6.1c-0.2,0.7-0.7,2.7,0.3,3.2
		c0.3,0.2,0.5,0.2,0.8,0.1c1.3-0.2,0.9,1,1.3,1.5c1,1.3,1.5,0.4,3.1,0.6c0.2,0,0.3,0,0.4-0.1c1.7-0.8,2.9-0.5,4.7-0.2
		c0.5,0.1,1.1,0,1.4-0.4c0.2-0.2,0.8-1.9,0.6-1.9c0.7,0,1.4-0.5,1.8-1c1.2-1.6,1.4-3.8,1.6-5.8c0.4-3.5,0.6-6.8-0.1-10.2
		c-0.8-3.4,2.9-3.6,5.3-4.8C285.4,428.3,286.9,427.1,286.3,425.6z M284.8,427.4c-1.7,1.7-4.9,1.5-6.4,3.4c-0.6,0.7-0.5,1.8-0.4,2.6
		c0.4,2.3,0.7,4.4,0.6,6.7c-0.1,2.2,0,9.6-3.2,9.7c-0.3,0-0.5,0.2-0.5,0.5c-0.1,2.8-1.8,1.3-3.5,1.2c-1.1,0-1.8,0.4-2.8,0.9
		c-0.5-0.1-1,0-1.6,0.1c-0.7,0.1-0.4-1.1-0.6-1.4c-0.4-0.5-0.9-1.2-1.7-1c-1.6,0.3,0-2.8,0-3.7c0.1-1.4,0.1-2.8,0-4.2
		c-0.2-1.6-1.2-3.2-3-2.2c-0.8,0.4-1.4,1.1-2.2,0.2c-0.3-0.3-0.7-0.4-1.1-0.4c-0.4-0.1-0.8,0.1-1.2,0.1c-2,0.4-2.7-1.3-2.3-3.1
		c0.3-1.3,1.8-5.2-0.7-5.7c-0.6-0.1-3,0.5-3.3,0.1c-0.6-0.6-1.5-0.2-2.2,0.1c-1.2,0.5-3.2,0.7-2.5-1.5c0.2-0.7,0.5-1.4,0.7-2.1
		c0.3-1,0.2-2-0.4-2.8c-1.6-2.4-3.4,1.6-5,0.1c-0.2-0.2-0.5-0.2-0.7,0c-0.3,0.3-0.6,0.6-0.9,0.9c-0.9-0.3-1.7-0.7-2.6-1
		c-0.2-0.6-0.3-1.3-0.3-1.9c-0.1-1-0.2-1.9-0.5-2.9c-0.1-0.4-0.6-0.5-0.8-0.2c-0.7,0.7-1.3,1.4-2,2c-1.6,1.2-1.3-2.1-1.3-2.5
		c0-0.9,0-2.2-0.9-2.7c-0.7-0.4-1.3,0-1.8,0.5c-0.4,0.4-2.4,3.5-3.3,1.4c-0.1-0.6-0.2-1.1-0.2-1.7c0-0.3,0.1-0.6,0.1-1
		c0.1-0.6-0.7-0.9-0.9-0.4c0,0,0,0-0.1,0c-0.1,0-0.2,0.1-0.3,0.1c-0.1-0.2-0.4-0.2-0.6-0.1c-3.3,2.3-2.2-2.8-2.1-3.3
		c0.1-0.5-0.6-0.9-0.9-0.4c-0.3,0.5-0.7,1-1,1.4c-1,1.2-2.6,1-2.7-0.7c0-0.8,0.1-1.7,0.1-2.5c0-0.4-0.4-0.7-0.8-0.4
		c-1.5,1-4.1,3.2-4.4-0.2c0-0.1-0.1-0.2-0.1-0.3c-0.1-0.2-0.4-0.3-0.6-0.2c-0.1,0-0.2,0.1-0.2,0.2c-0.2,0.2-0.7,0.8-0.9,0.6
		c-0.2-0.2-0.3-0.7-0.3-1c-0.1-0.7-0.1-1.5-0.2-2.2c-0.1-0.5-0.7-0.4-0.9-0.1c-0.3,0.5-0.2,0.5-0.4,0c-0.1-0.4-0.2-0.8-0.3-1.1
		c-0.1-0.6-0.2-1.3-0.4-1.9c-0.1-0.3-0.6-0.3-0.8-0.1c-0.2,0.2-0.4,0.3-0.6,0.3c-0.1,0-0.2-0.1-0.3-0.1c-0.5,0.1-1,0.2-1.5,0.3
		c-0.3,0.1-0.7,0.2-1,0.3c-1.2-1.3-1.4-2.2-0.4-3c0.6-0.6,2.6-1.4,2.7-2.4c0.2-2.1,2.4-2.5,4-3.6c0.6-0.4,3.4-5,4.1-2.7
		c0.1,0.4,0.6,0.5,0.8,0.2c0.2-0.2,1.5,0.7,2.2,0.5c0.9-0.2,1.7-1.3,2.6-1.7c1.2-0.4,1.1,2.9,1.2,3.4c0.1,0.4,0.7,0.8,0.9,0.3
		c0.3-0.8,0.7-1.4,1.2-2c1.3-1.5,2.3,0.8,2.5,1.9c0,0.3,0.4,0.7,0.8,0.4c0.8-0.6,1.6-1.3,2.4-1.9c1.6-1.2,2,1.3,2.2,2.4
		c0.1,0.3,0.6,0.5,0.8,0.2c0.5-0.7,2.3-3.3,3.3-0.6c0.1,0.3,0.6,0.5,0.8,0.2c1.2-1.6,3.2-0.7,3.9,0.9c0.2,0.4,0.6,0.5,0.9,0.1
		c1.1-0.4,1.8-0.2,2.1,0.6c0.2,0.3,0.6,0.4,0.8,0.1c0.6-0.7,1.1-1.5,1.7-2.2c0.9,0.2,1.8,0.4,2.6,0.6c0,0.5-0.1,0.9-0.2,1.4
		c-0.1,0.5-0.2,0.9-0.3,1.4c-0.1,0.5,0.4,0.8,0.8,0.5c0.7-0.6,1-1.4,1.5-2.2c0.7,0.2,1.4,0.4,2.1,0.5c0.1,0.4,0.1,0.8,0.1,1.2
		c0,0.5,0.1,0.9,0.2,1.4c0.4,1.7,1.5,3.2,3.3,3.3c0,0.4,0.5,0.7,0.8,0.4c1.3-1.4,2.2-3.5,4-4.3c2.4-0.9,1.7,3.1,1.5,4
		c-0.3,1.1-1.3,1.9-1.5,3.1c-0.1,0.6,0.9,2.2,1.7,1.9c0.4-0.2,0.6-0.3,0.8-0.6c0.5-0.7,1.5-1.9,2.5-0.6c0.7,0.9,0.4,2.5-0.1,3.4
		c-0.1,0.2-0.1,0.4,0.1,0.6c1.4,1.5,2.4,2.4,4.4,1.1c0.3-0.2,0.6-0.5,0.9-0.8c1.1-1.1,2.1-0.9,3.1,0.7c-0.1,0.6-0.2,1.1-0.5,1.6
		c-0.6,1.3-1.6,2.5-2.9,3.1c-0.2,0.1-0.3,0.5-0.2,0.7c1.1,1.5,2.7,2.6,3.3,4.4c0.2,0.5,0.8,0.5,1,0c1.9-0.4,2.5,0.6,2,2.9
		c-0.1,0.5-0.2,1-0.3,1.5c-0.1,0.5,0.4,0.8,0.8,0.5c1.1-0.9,2.5-1.4,3.8-1.8C282.3,425.1,287.3,424.9,284.8,427.4z"/>
	<path class="nav-crown-13-st-4" d="M296.9,462.1c-2-1-4.3,0.6-6.3,1.1c-1-4-4.1-1.7-5.3,1.2c-2.2-0.2-3.9,1.1-3.5,3.2c-2.1-0.4-4.2,0.3-3.6,2.6
		c-1.9,0.6-3.6,1.3-2.5,3.2c-0.5,0.3-0.9,0.7-1.6,0.5c-0.9-0.2-2.4-0.7-3.3-0.2c-2,1.1-1.5,2.9-0.1,4.1c-1.1,0.7-2.6,1.6-2,3
		c0.7,1.6,2.4,2.4,3.9,1.8c1.1,0.8,1.7,2.4,3.3,1.5c1.1-0.6,2-1.6,2.1-2.9c1,0.2,1.8,0,2.4-0.7c1,1.9,3.3-1.7,3.7-3.8
		c1.7,0.2,2.7-1.1,3.1-2.7c1.1,0.3,1.9-0.3,2.7-1.4c0.6-0.8,0.3-1.4,1.4-1.5c0.9-0.1,1.9,0.2,2.9,0.2c1.2,0,1.8-0.9,1.8-2
		c0-1-1-1.5-2-1.8c1.3-0.9,2.8-1.5,3.3-3C297.4,463.8,297.8,462.6,296.9,462.1z M294.9,465.6c-0.8,0.6-1.7,1-2.5,1.7
		c-0.3,0.3-0.1,0.8,0.4,0.9c1.2-0.1,1.5,0.6,0.8,2.1c-0.5,0-1-0.1-1.5-0.2c-0.8-0.1-1.2-0.1-1.9,0.2c-1.2,0.4-1.2,3.6-3.1,2.6
		c-0.4-0.2-0.7,0-0.8,0.4c0,1.4-0.8,2.1-2.5,2.3c-0.3-0.1-0.6,0.2-0.6,0.5c0,1-1.8,5.2-2.1,3c-0.1-0.5-0.8-0.4-1,0
		c-0.8,0.4-1.5,0.7-2.3,1.1c-0.3-0.1-0.8,0-0.8,0.4c-0.1,0.4-0.1,0.8-0.2,1.3c-0.5,1.2-1.5,1.4-2.9,0.7c-0.3-0.4-0.5-0.6-1-0.9
		c0,0-0.1,0-0.1,0c0,0,0,0,0,0c-0.1,0-0.1,0-0.2,0c0,0,0,0-0.1,0c0,0-0.1,0-0.1,0c0,0,0,0-0.1,0c-2.4,1.3-3.3-1.5-1.8-2.6
		c0.4-0.3,0.9-0.6,1.3-0.9c0.3-0.2,0.2-0.6-0.1-0.8c-0.3-2.2,0.2-3.1,1.4-2.6c0.6,0.1,1.1,0.3,1.7,0.4c0.2,0,0.4,0,0.6-0.2
		c0.4-0.3,0.7-0.5,1.1-0.8c0.3-0.1,0.5-0.5,0.3-0.7c-1.3-1.8,0.8-2,2.1-2.4c0.3-0.1,0.4-0.4,0.3-0.6c-0.8-2.4,1.8-2.1,3.1-1.6
		c0.3,0.1,0.8-0.3,0.6-0.6c-0.7-1.8,0.7-3.1,2.5-2.8c0.3,0.1,0.5-0.1,0.6-0.3c0.6-1.6,3-5,3.7-1.1c0.1,0.3,0.4,0.4,0.6,0.3
		c1.4-0.3,2.7-0.9,4.1-1.3C296.9,462.4,296.5,464.5,294.9,465.6z"/>
	<path class="nav-crown-13-st-4" d="M49.8,436.4c-0.4-2.7-2.5-4.9-4.6-6.5c-3.6-2.7-7.4-4.8-10.4-8.2c-3.2-3.5-5.3-7.9-6.7-12.4
		c-3.1-9.9-1.4-20.5-4.9-30.3c-0.1-0.4-0.7-0.5-0.9-0.1c-4.1,7.1-7,14.8-9.3,22.6c-2.1,7.5-4,15.9-3.1,23.7
		c0.8,6.8,5.4,11.8,9.7,16.7c4.8,5.4,10,11.5,16.9,14.1c-0.1,0.2,0,0.6,0.3,0.6c6.4,1.5,9.8-5.6,11.5-10.5
		C49.5,443.1,50.3,439.7,49.8,436.4z"/>
	<g>
		<path class="nav-crown-13-st-5" d="M46.6,465.4c-4.4,1.6-8,2.4-12.5,0.9c-0.6-0.2-0.9,0.8-0.3,1c4.7,1.6,8.5,0.8,13-0.9
			C47.4,466.2,47.2,465.2,46.6,465.4z"/>
		<path class="nav-crown-13-st-5" d="M52.6,430.9c-0.2-0.2-0.4-0.4-0.7-0.2c-0.9,0.7-0.8,2.9-0.9,3.8c-0.2,3-0.3,6.1-0.8,9.1
			c-1,6.6-6.2,14.8-13.6,14.4c-0.6,0-0.6,1,0,1c7.3,0.4,11.1-5.9,13.6-11.9c1-2.4,1.2-5,1.4-7.7c0.1-1.6,0.2-3.3,0.3-4.9
			c0-0.4,0-1.7,0.2-2.5c4.1,6.2,1.3,14.9-2.2,20.8c-2.1,3.5-4.9,7-9.2,7.5c-2.6,0.3-5.5-0.2-7.3,2.1c-0.2,0.2-0.2,0.6,0.1,0.8
			c1.1,0.6,2.3,0.9,3.6,1c0.6,0,0.6-1,0-1c-1,0-1.7-0.2-2.5-0.6c1.5-1.3,3.5-1.2,5.4-1.2c1.7-0.1,3.1-0.4,4.6-1.2
			c3.2-1.8,5.5-5.5,7.2-8.7C55.2,445.5,57.1,436.7,52.6,430.9z"/>
		<path class="nav-crown-13-st-5" d="M53.6,430.5c-0.5-0.4-1,0.5-0.5,0.9c2.5,1.8,3.6,5.7,3.7,8.7c0,0.6,1,0.6,1,0
			C57.8,436.7,56.5,432.5,53.6,430.5z"/>
		<path class="nav-crown-13-st-5" d="M56.3,444.9c-1,1.8-1.5,3.9-1.9,5.9c-0.1,0.6,0.9,0.9,1,0.3c0.3-1.9,0.8-3.9,1.8-5.7
			C57.5,444.9,56.6,444.4,56.3,444.9z"/>
		<path class="nav-crown-13-st-5" d="M59.7,440.6c0.5-4.6-1.3-8.4-3.7-12.1c-0.4-0.5-1.2,0-0.9,0.5c2.4,3.6,4,7.2,3.6,11.6
			C58.6,441.3,59.6,441.3,59.7,440.6z"/>
		<path class="nav-crown-13-st-5" d="M57.8,443.6v-1C56.8,442.6,56.8,443.6,57.8,443.6z"/>
		<path class="nav-crown-13-st-5" d="M41.3,465.5c1.4-0.3,2.8-0.9,4.1-1.6c0.6-0.3,0.1-1.2-0.5-0.9c-1.2,0.6-2.5,1.2-3.8,1.5
			C40.5,464.6,40.7,465.6,41.3,465.5z"/>
		<path class="nav-crown-13-st-5" d="M49.8,460.3v-1C48.8,459.3,48.8,460.3,49.8,460.3z"/>
		<path class="nav-crown-13-st-5" d="M61.6,433.7c-1-2.9-2.7-7.5-6.4-7.5c-0.6,0-0.6,1,0,1c3.2,0,4.7,4.8,5.6,7.3c1.6,4.4,0.1,9-2.1,13
			c-0.3,0.6,0.6,1.1,0.9,0.5C62,443.5,63.4,438.6,61.6,433.7z"/>
	</g>
	<g>
		<path class="nav-crown-13-st-2" d="M16.6,395.8c2,0.6,4.3,0.6,6.3,0.6c0,0,0-1,0-1c-2,0-4.1,0-6-0.6C16.2,394.6,16,395.6,16.6,395.8z"/>
		<path class="nav-crown-13-st-2" d="M15.2,399.7c2.3,0.9,4.8,1.2,7.3,0.6c0.6-0.2,0.4-1.1-0.3-1c-2.3,0.6-4.6,0.3-6.7-0.6
			C14.9,398.5,14.6,399.5,15.2,399.7z"/>
		<path class="nav-crown-13-st-2" d="M14.1,405.2c2.9,0.1,5.6,0.7,8.2-1c0.5-0.4,0-1.2-0.5-0.9c-2.4,1.6-5,0.9-7.7,0.8
			C13.5,404.2,13.5,405.2,14.1,405.2z"/>
		<path class="nav-crown-13-st-2" d="M23.3,408.5c-3.1,2.1-7.4,1.5-10.9,0.9c-0.6-0.1-0.9,0.9-0.3,1c3.7,0.7,8.3,1.3,11.6-1
			C24.3,409,23.8,408.2,23.3,408.5z"/>
		<path class="nav-crown-13-st-2" d="M22.5,392.7c0.6-0.1,0.4-1.1-0.3-1c-1.2,0.2-2.3,0.1-3.2-0.8c-0.5-0.4-1.2,0.3-0.7,0.7
			C19.5,392.8,20.9,393,22.5,392.7z"/>
		<path class="nav-crown-13-st-2" d="M19.6,388.8c0.6,0,1.2,0.3,1.8,0.3c0.6,0,0.6-1,0-1c-0.6,0-1.2-0.3-1.8-0.3C19,387.8,19,388.8,19.6,388.8z"/>
		<path class="nav-crown-13-st-2" d="M21.1,385.1c0.3,0,0.6,0.3,0.9,0.5c0.5,0.4,1.2-0.3,0.7-0.7c-0.4-0.4-1-0.7-1.6-0.8
			C20.5,384.1,20.5,385.1,21.1,385.1z"/>
	</g>
	<path class="nav-crown-13-st-4" d="M301.6,446.1c1.8,4.9,5.1,12,11.5,10.5c0.3-0.1,0.4-0.4,0.3-0.6c7-2.6,12.2-8.7,16.9-14.1
		c4.3-4.9,8.9-9.9,9.7-16.7c0.9-7.8-1-16.2-3.1-23.7c-2.2-7.8-5.2-15.5-9.3-22.6c-0.2-0.4-0.8-0.3-0.9,0.1
		c-3.5,9.8-1.9,20.5-4.9,30.3c-1.4,4.5-3.5,8.9-6.7,12.4c-3.1,3.4-6.8,5.5-10.4,8.2c-2.1,1.6-4.2,3.8-4.6,6.5
		C299.7,439.7,300.5,443.1,301.6,446.1z"/>
	<g>
		<path class="nav-crown-13-st-5" d="M303.4,465.4c4.4,1.6,8,2.4,12.5,0.9c0.6-0.2,0.9,0.8,0.3,1c-4.7,1.6-8.5,0.8-13-0.9
			C302.6,466.2,302.8,465.2,303.4,465.4z"/>
		<path class="nav-crown-13-st-5" d="M297.4,430.9c0.2-0.2,0.4-0.4,0.7-0.2c0.9,0.7,0.8,2.9,0.9,3.8c0.2,3,0.3,6.1,0.8,9.1
			c1,6.6,6.2,14.8,13.6,14.4c0.6,0,0.6,1,0,1c-7.3,0.4-11.1-5.9-13.6-11.9c-1-2.4-1.2-5-1.4-7.7c-0.1-1.6-0.2-3.3-0.3-4.9
			c0-0.4,0-1.7-0.2-2.5c-4.1,6.2-1.3,14.9,2.2,20.8c2.1,3.5,4.9,7,9.2,7.5c2.6,0.3,5.5-0.2,7.3,2.1c0.2,0.2,0.2,0.6-0.1,0.8
			c-1.1,0.6-2.3,0.9-3.6,1c-0.6,0-0.6-1,0-1c1,0,1.7-0.2,2.5-0.6c-1.5-1.3-3.5-1.2-5.4-1.2c-1.7-0.1-3.1-0.4-4.6-1.2
			c-3.2-1.8-5.5-5.5-7.2-8.7C294.8,445.5,292.9,436.7,297.4,430.9z"/>
		<path class="nav-crown-13-st-5" d="M296.4,430.5c0.5-0.4,1,0.5,0.5,0.9c-2.5,1.8-3.6,5.7-3.7,8.7c0,0.6-1,0.6-1,0
			C292.2,436.7,293.5,432.5,296.4,430.5z"/>
		<path class="nav-crown-13-st-5" d="M293.7,444.9c1,1.8,1.5,3.9,1.9,5.9c0.1,0.6-0.9,0.9-1,0.3c-0.3-1.9-0.8-3.9-1.8-5.7
			C292.5,444.9,293.4,444.4,293.7,444.9z"/>
		<path class="nav-crown-13-st-5" d="M290.3,440.6c-0.5-4.6,1.3-8.4,3.7-12.1c0.4-0.5,1.2,0,0.9,0.5c-2.4,3.6-4,7.2-3.6,11.6
			C291.4,441.3,290.4,441.3,290.3,440.6z"/>
		<path class="nav-crown-13-st-5" d="M291.8,443.6v-1C292.8,442.6,292.8,443.6,291.8,443.6z"/>
		<path class="nav-crown-13-st-5" d="M308.7,465.5c-1.4-0.3-2.8-0.9-4.1-1.6c-0.6-0.3-0.1-1.2,0.5-0.9c1.2,0.6,2.5,1.2,3.8,1.5
			C309.5,464.6,309.3,465.6,308.7,465.5z"/>
		<path class="nav-crown-13-st-5" d="M299.8,460.3v-1C300.8,459.3,300.8,460.3,299.8,460.3z"/>
		<path class="nav-crown-13-st-5" d="M288.4,433.7c1-2.9,2.7-7.5,6.4-7.5c0.6,0,0.6,1,0,1c-3.2,0-4.7,4.8-5.6,7.3c-1.6,4.4-0.1,9,2.1,13
			c0.3,0.6-0.6,1.1-0.9,0.5C288,443.5,286.6,438.6,288.4,433.7z"/>
	</g>
	<g>
		<path class="nav-crown-13-st-2" d="M333.3,395.8c-2,0.6-4.4,0.6-6.4,0.6c0,0,0-1,0-1c2,0,4.2,0,6.1-0.6C333.6,394.6,333.9,395.6,333.3,395.8z"/>
		<path class="nav-crown-13-st-2" d="M334.8,399.7c-2.3,0.9-4.8,1.2-7.3,0.6c-0.6-0.2-0.4-1.1,0.3-1c2.3,0.6,4.6,0.3,6.7-0.6
			C335.1,398.5,335.4,399.5,334.8,399.7z"/>
		<path class="nav-crown-13-st-2" d="M335.9,405.2c-2.9,0.1-5.6,0.7-8.2-1c-0.5-0.4,0-1.2,0.5-0.9c2.4,1.6,5,0.9,7.7,0.8
			C336.5,404.2,336.5,405.2,335.9,405.2z"/>
		<path class="nav-crown-13-st-2" d="M326.7,408.5c3.1,2.1,7.4,1.5,10.9,0.9c0.6-0.1,0.9,0.9,0.3,1c-3.7,0.7-8.3,1.3-11.6-1
			C325.7,409,326.2,408.2,326.7,408.5z"/>
		<path class="nav-crown-13-st-2" d="M327.5,392.7c-0.6-0.1-0.4-1.1,0.3-1c1.2,0.2,2.3,0.1,3.2-0.8c0.5-0.4,1.2,0.3,0.7,0.7
			C330.5,392.8,329.1,393,327.5,392.7z"/>
		<path class="nav-crown-13-st-2" d="M330.4,388.8c-0.6,0-1.2,0.3-1.8,0.3c-0.6,0-0.6-1,0-1c0.6,0,1.2-0.3,1.8-0.3
			C331,387.8,331,388.8,330.4,388.8z"/>
		<path class="nav-crown-13-st-2" d="M328.9,385.1c-0.3,0-0.6,0.3-0.9,0.5c-0.5,0.4-1.2-0.3-0.7-0.7c0.4-0.4,1-0.7,1.6-0.8
			C329.5,384.1,329.5,385.1,328.9,385.1z"/>
	</g>
</g>
</svg>
