<?xml version="1.0" encoding="utf-8"?>
<!-- Generator: Adobe Illustrator 19.1.0, SVG Export Plug-In . SVG Version: 6.00 Build 0)  -->
<svg version="1.1" id="Layer_1" xmlns="http://www.w3.org/2000/svg" xmlns:xlink="http://www.w3.org/1999/xlink" x="0px" y="0px"
	 viewBox="-65 292 480 210" style="enable-background:new -65 292 480 210;" xml:space="preserve">
<style type="text/css">
	.nav-crown-14-st-0{display:none;}
	.nav-crown-14-st-1{display:inline;fill:#0E5941;}
	.nav-crown-14-st-2{fill:#F0A732;}
	.nav-crown-14-st-3{fill:#D72050;}
	.nav-crown-14-st-4{fill:#FCDCA4;}
</style>
<g id="Layer_1_1_" class="nav-crown-14-st-0">
	<path class="nav-crown-14-st-1" d="M263,1041.4c0,84.3-68.3,152.6-152.6,152.6h-0.7C25.3,1194-43,1125.7-43,1041.4V817.6
		C-43,733.3,25.3,665,109.6,665h0.7c84.3,0,152.6,68.3,152.6,152.6L263,1041.4L263,1041.4z"/>
</g>
<g>
	<path class="nav-crown-14-st-2" d="M106.1,333.1c-10.8-16.7-26.5-29.6-45.7-35.5c-18-5.5-37.6-4.2-55.2,1.9c-18.8,6.5-35.5,18.7-47.9,34.2
		c-14.6,18.2-18.3,41.7-13.7,64.2c4.2,21,15.2,39.4,29.7,55c7.3,7.9,15.5,15,24.6,20.8c8.2,5.2,17.5,9.3,27.3,9.9
		c1.5,0.1,2.9,0,4.4-0.1c7.1,1.2,14.3,1.4,21.4-1.2c10.5-3.8,18.1-11.9,22.7-21.8c4.1-8.9,5.7-19.9,1.1-28.9
		c-2.1-4.2-5.8-7.5-10.1-9.3c-5-2.1-10.8-2.2-16.2-2.8c-6.9-0.7-13-2.8-19.3-5.6c-6.5-3-13-6.6-18.4-11.3
		C2.4,395.3-0.3,383.8,0.4,373c0.7-11.3,5.1-22.5,12.1-31.4c6.3-8.1,15.2-12.8,24.8-15.9c11.5-3.7,24-5,36-4.1
		c11.4,0.9,23.5,4.1,32.1,12.1C105.7,334.1,106.4,333.6,106.1,333.1z"/>
	<g>
		<path class="nav-crown-14-st-3" d="M18.3,314.5c1.7,4.2,2.5,8.6,4.7,12.6c0.7,1.3,2,1.5,3,1c0.1,0,0.2-0.1,0.3-0.2c0.5-0.3,0.9-0.8,1.1-1.4
			c2.2-2.4,5-4.2,6.7-7.1c0.2-0.3,0-0.6-0.3-0.7c-3-0.9-5.9-0.1-9-0.2v-0.1c2.4-2.7,5-5.3,6.9-8.4c0.2-0.3,0-0.6-0.3-0.7
			c-3.3-1.2-6.8-1.1-10.2-1.5c0-0.1-0.1-0.2-0.1-0.3c2.6-2.4,5.4-4.5,8.4-6.4c0.4-0.2,0.3-0.8-0.1-0.9c-3.9-1.4-8.1-1.2-12.1-2.3
			c-0.1,0-0.2,0-0.3,0c-1.4-0.2-2.8,0.6-2.5,2.3C15.1,305.3,16.4,309.9,18.3,314.5z"/>
		<path class="nav-crown-14-st-3" d="M18.5,324.8c0.9,2.1,1.7,4.2,3.7,5.5c0.5,0.4,1-0.5,0.5-0.9c-2.2-1.5-2.8-4.2-3.9-6.5
			c-1.3-2.7-2.6-5.4-3.4-8.2c-1.4-4.9-4.1-9.8-3-15c0.1-0.6-0.8-0.9-1-0.3c-1.2,5.7,1.7,11.1,3.2,16.4
			C15.5,319,17.3,321.8,18.5,324.8z"/>
		<path class="nav-crown-14-st-3" d="M92.2,323.9c0.6-0.6,1.1-1.4,1.6-2c0,1.3,0,2.6,0.4,3.8c0.1,0.3,0.4,0.5,0.7,0.3c0.8-0.4,1.4-0.9,2.2-1.2
			c0.1,1,0,1.8,0.8,2.6c0.4,0.4,1,0.6,1.5,0.8c1.3,0.7,2.4,2.1,3.5,3c0.5,0.4,1.2-0.3,0.7-0.7c-1-0.9-2-1.9-3.1-2.7
			c-0.5-0.4-1-0.7-1.6-1c-0.9-0.5-0.8-2-0.9-2.9c-0.1-0.3-0.4-0.4-0.6-0.3c-0.9,0.2-1.6,0.7-2.4,1.2c-0.3-1.4-0.1-2.8-0.3-4.3
			c0-0.4-0.5-0.7-0.9-0.4c-0.9,0.9-1.5,2-2.4,3C91,323.7,91.7,324.4,92.2,323.9z"/>
		<path class="nav-crown-14-st-3" d="M48.9,485c-4.3,0.9-9.3,0.8-13.7,0.5c-2.8-0.2-5.8-1.6-8.1,0.5c-0.5,0.4,0.2,1.1,0.7,0.7
			c1.8-1.7,4.6-0.6,6.7-0.3c2,0.3,4,0.2,6,0.1c4.6-0.1,9-0.4,13.3-2c7.9-3,13.7-9.2,18.5-15.9c5-7,8.1-14.8,7.9-23.5
			c-0.1-4.7-0.3-9.3-1.7-13.8c-1.3-4.1-4.8-6.6-6.5-10.5c-0.3-0.6-1.1-0.1-0.9,0.5c1.7,3.8,5,6.3,6.4,10.2c1.5,4.3,1.6,9,1.7,13.5
			c0.2,9.2-3.4,17.1-8.7,24.3C65.1,476.9,58.1,483.1,48.9,485z"/>
		<path class="nav-crown-14-st-3" d="M30.1,492c2,0,4,0.1,6,0.1c1.8,0,3.6-0.3,5.4-0.1c1.8,0.2,3.5,0.4,5.3,0.3c3.5-0.1,7.1-1.2,10.4-2.3
			c6.6-2.1,11.4-6,15.7-11.3c4.3-5.2,8.2-10.1,11-16.4c2.6-6,3.7-12.4,3.7-18.9c0-6.7-2-12.7-4.8-18.6c-2-4.2-3.8-8.6-8.5-10.2
			c-2-0.7-4.4-0.8-6.2,0.4c-1,0.7-2.4,2.7-2.4,3.9c0,1.9,2.6,3.2,4,1.6c0.3-0.3,0.5-1,0.6-1.3c1.1-1.8,2.7-0.7,3.9,0.4
			c2.2,1.9,3.3,4.6,4.4,7.3c1.9,4.9,4.3,9.5,4.2,14.9c-0.2,6-1,11.9-3.7,17.4c-2.2,4.5-4.9,8.9-7.6,13.1c-3,4.7-7,8.1-11.8,10.8
			c-4.8,2.8-9.9,4.3-15.5,4.6c-2.9,0.1-5.7,0.1-8.6-0.1c-1.2-0.1-2.4,0-3.6,0.2c-0.8,0.1-1.5,0.6-2.3,0.5c-0.6-0.1-0.6,0.9,0,1
			c0.7,0.1,1.5-0.3,2.2-0.4c1.8-0.5,3.7-0.2,5.6-0.1c3.5,0.3,7.4,0.2,10.9-0.3c6.2-1,12-4,17-7.8c5.1-3.9,8-9.5,11.3-14.9
			c3.6-5.9,6.1-11.6,6.8-18.6c0.3-3.2,0.6-6.5,0-9.7c-0.6-3.5-2.3-6.8-3.6-10c-1-2.5-1.9-4.9-3.6-7.1c-1-1.2-3.3-3.6-5.1-3.2
			c-1.6,0.4-1.6,2.9-3.2,3c-2.5,0.2-1.1-1.9-0.8-2.5c0.2-0.4,0.5-0.8,0.8-1.2c1.4-2.1,5-1.3,6.9-0.5c2.5,1.1,4,3.6,5.2,5.9
			c1.5,2.9,3,6,4.1,9.1c5.8,15.8,0,33-10.6,45.2c-2.7,3.1-5.2,6.4-8.5,8.9c-3.4,2.5-7.6,3.9-11.7,5c-4.5,1.2-8.5,1.3-13.1,0.9
			c-2.4-0.2-4.7,0.4-7.1,0.1c-0.6-0.1-1.2-0.1-1.8-0.1c-0.5,0-1.1,0.1-1.6,0.1c-1.1,0.2-1.8-0.3-2.2-1.7c0.5-0.4-0.2-1.1-0.7-0.7
			c-1,0.8-1.3,2.2,0.1,2.9C28.3,492,29.1,492.1,30.1,492z"/>
		<path class="nav-crown-14-st-3" d="M72.3,412.7c0.9,0.4,1.8,0.6,2.8,0.8c1.9,0.3,3.6,1.1,5.1,2.3c2.4,1.9,4,4.7,5.3,7.4c3,6,3.5,13.1,3.9,19.6
			c0.5,7-0.1,14.2-3.5,20.4c-2.8,5.2-7.1,9.5-10.1,14.6c-0.3,0.6,0.5,1.1,0.9,0.5c3.3-5.5,7.8-10.2,10.8-15.9
			c3.2-6.2,3.3-13.7,2.9-20.5c-0.5-6.6-1.2-13.2-4-19.2c-1.3-2.8-3.2-5.5-5.5-7.6c-1-0.9-2.1-1.5-3.3-2c-1.4-0.6-2.9-0.6-4.3-1.1
			c0.7-1,2.1-1.7,3.3-2c0.3,1.5,2.2,1.5,3.6,1.9c0.6,0.2,0.9-0.8,0.3-1c-0.7-0.2-3.1-0.3-2.9-1.5c0.1-0.4-0.2-0.7-0.6-0.6
			c-1.8,0.3-4,1.4-4.8,3.1C72,412.2,72.1,412.6,72.3,412.7z"/>
		<path class="nav-crown-14-st-3" d="M75.3,480.4c0.3-0.6-0.6-1.1-0.9-0.5c-5.4,10.3-17,13.9-27.9,14.7c-5.1,0.4-10.5-0.1-15.5-0.9
			c-0.7-0.1-5.4-0.6-3.5,1.4c0.4,0.5,1.1-0.2,0.7-0.7c0.5,0.5,3.4,0.4,4.2,0.5c1.8,0.3,3.6,0.4,5.4,0.5c5.4,0.4,10.7,0.2,16-0.8
			C62.6,493,71,488.6,75.3,480.4z"/>
		<path class="nav-crown-14-st-3" d="M84.4,481.5c-0.2,0.3-2.5,3.3-2.1,2.1c0.2-1,0.9-1.9,1.3-2.7c3.3-5.8,9-9.7,11.6-16c1.3-3,1.9-6.1,1.9-9.4
			c0-4-0.7-7.9-0.5-12c0.4-6.7,0.7-13.4-1.9-19.8c-1.2-2.8-2.9-5.3-4.8-7.7c-1.3-1.6-2.7-3.1-3.4-5.1c-0.4-1.3-0.5-2.6-1.1-3.8
			c-0.8-1.6-2.6-2.4-4.3-2.3c-1.3,0.1-2.8,1.4-2.7,2.8c0.1,1,1.6,1.4,2.4,1.7c1.1,0.4,2,0.8,1.5,2.5c-0.1,0.4-0.4,0.9-0.3,1.3
			c0.1,1,0.4,1.3,1.2,1.9c2.1,2,4.1,3.7,5.8,6.2c1.8,2.7,2.9,5.9,3.5,9c0.7,3.7,0.2,7.7,0,11.4c-0.3,3.7-0.1,7.4-0.3,11.2
			c-0.2,7.5-3.1,13.2-7.4,19c-2.7,3.6-7.7,7.7-7.4,12.7c0,0.6,1,0.6,1,0c-0.2-3.1,2.1-5.9,4-8.1c1.8-2.2,3.5-4.3,5.2-6.6
			c3.9-5.4,5.5-11.2,5.7-17.9c0.1-3.7,0-7.4,0.3-11.1c0.3-3.6,0.5-7.2-0.1-10.8c-0.8-5.4-3.9-10.9-8.1-14.4c-1.2-1-2.6-1.7-2-3.5
			c0.2-0.7,0.4-1.6,0-2.2c-0.3-0.5-0.7-0.8-1.3-1.1c-0.8-0.4-3.3-0.7-2-2.1c2.2-2.6,4.8,0.8,5.3,2.7c0.3,1.1,0.5,2.2,1,3.2
			c0.6,1.3,1.7,2.5,2.6,3.6c1.4,1.8,2.8,3.6,3.9,5.7c3.7,6.8,3.5,14.3,3,21.8c-0.2,3.7,0.2,7.3,0.4,11c0.3,4.3-0.9,8.3-2.9,12
			c-2.5,4.6-6.6,8.1-9.6,12.3c-0.6,0.8-3.7,5-2.1,5.9c0.6,0.4,1.6-0.2,2.1-0.5c0.5-0.4,0.8-0.9,1.1-1.5c0.1-0.5,0.5-0.7,1-0.7
			c-0.1,0.5-0.5,1.1-0.7,1.5c-0.9,1.5-2.7,2.4-3.9,3.6c-0.4,0.4-0.8,1-0.9,1.5c0,0.2-0.1,0.4-0.1,0.6c-0.4-0.3-0.7-0.7-1.1-1
			c0-0.5,0.1-1,0.3-1.5c0.1-0.3-0.2-0.6-0.5-0.6c-0.5,0-0.9,0.1-1.4,0.3c-1.2,0.5-2.1,1.9-2.2-0.5c0-0.3-0.3-0.6-0.6-0.5
			c-0.5,0.2-0.9,0.3-1.2,0.8c-0.8,1.2-1.7,2.1-2.8,2.9c-1,0.6-2.4,1.7-2.4,3c0,1.7,3-0.6,4.1-1.4c0.5,1.4,1.4,2,3,1.2
			c0.6-0.3,0.1-1.2-0.5-0.9c-0.6-0.4-1.1-0.8-1.7-1.3c-0.1-0.2-0.4-0.5-0.6-0.3c-1.1,0.4-1.9,1.2-2.9,1.9c0.2-0.3,0.4-0.5,0.6-0.7
			c0.6-0.6,1.4-1,2-1.4c0.8-0.6,1.4-1.8,2.2-2.4c0.1,0.8,0.3,1.6,1,1.8c1,0.3,1.9-0.9,2.9-1.3c-0.3,1.7,0.3,2.8,2.5,2.9
			c0.3,0,0.5-0.2,0.5-0.5c-0.1-2.5,3.2-3.4,4.5-5.2c0.5-0.7,1.8-2.5,1.1-3.5C86,480.4,84.9,480.8,84.4,481.5z"/>
		<path class="nav-crown-14-st-3" d="M100.9,436.6c0.1,0.5,0.3,0.9,0.5,1.3c1,1.8,2.5-0.7,2.6-1.6c0.2-1.6,0-4-1.8-4.7c-2.5-1-2.9-2.5-3.3-5
			c-0.4-2-1-3.9-1.9-5.7c-1.9-3.8-4.7-7.3-7-10.9c-0.9-1.5-1.6-3.3-2.9-4.5c-0.6-0.5-1.2-0.9-1.8-1.4c-0.6-0.5-0.9-1.1-0.7-2
			c0.6-0.2,1.3-0.4,1.9-0.6c0,0.2-0.1,0.4-0.1,0.5c0,2.3,3.3,1.6,4.3,0.7c0.4-0.4,0.7-1.5,0.4-2c-0.4-0.7-0.9-0.5-1.6-0.8
			c-0.2-0.1-0.4,0-0.5,0.1c0.6-0.6,1-1.2,2.2-1.2c2.4,0,1.8,3.1,1,4.4c-0.7,1.3-1.4,1.8-1.3,3.5c0.2,1.7,1.5,3.2,2.6,4.5
			c0.4,0.5,1.1-0.2,0.7-0.7c-1.7-1.9-3.1-3.9-1.4-6.3c0.6-0.8,1-1.8,1.1-2.8c0.1-1.3-0.2-2.9-1.7-3.3c-1.7-0.5-5.2,0.7-3.3,2.9
			c0.2,0.2,0.4,0.2,0.6,0.1l0,0c0.9,0.1-2.2,1.9-2,0.3c0.1-0.8-0.3-1-1-1.3c-1.8-0.6-3.4,1.9-3,3.4c0.2,1,1.3,1.7,2.1,2.2
			c1.9,1.5,2.8,3.6,4.1,5.7c2.2,3.6,4.9,7,6.8,10.8c1,2,1.3,4.1,1.7,6.2c0.2,1,0.6,2.6,1.5,3.3c0.6,0.4,1.1,0.6,1.7,0.9
			c1.5,0.5,1.5,1.6,1.6,2.8c0,0.3-0.4,3.3-1,1.6c-0.2-0.5-0.2-1-0.5-1.5c-0.6-1.2-2-1.4-2.6-0.1c-0.7,1.5-0.5,4.1,0.1,5.6
			c0.2,0.4,0.6,0.5,0.9,0.1s0.5-0.7,0.8-1.1c1.2,2,1.5,5.1,1.1,7.2c-0.4,2.4-1.3,0.2-1.5-0.8c-0.2-0.8-0.3-1.6-0.8-2.2
			c-0.2-0.2-0.5-0.2-0.7,0c-1.5,1.4-1.2,3.7-1,5.5c0.4,3.3,0.9,6.5,0.7,9.9c-0.2,4.1-2.3,7.8-4.5,11.1c-1.7,2.6-4.5,4.4-5.1,7.6
			c-0.1,0.6,0.8,0.9,1,0.3c0.5-3,3.3-5.1,5-7.4c1.8-2.4,3.2-5.3,4.1-8.2c1-3.1,0.7-6.7,0.3-9.9c-0.2-2.4-1.1-4.9-0.5-7.3
			c0.2-0.9,0.6,1.4,0.7,1.7c0.1,0.5,0.2,1.2,0.6,1.6c0.7,0.9,1.5,0.2,2.1-0.4c1.8-2.1,0.4-7.8-1.1-9.8c-0.2-0.3-0.6-0.3-0.9,0
			c-0.2,0.3-0.4,0.6-0.7,0.9c-0.2-0.8-0.2-1.7-0.2-2.5C99.7,436.1,100.6,435.3,100.9,436.6z"/>
		<path class="nav-crown-14-st-3" d="M-7.4,311.3c3.9-3,8.4-6.6,13.3-7.5c-2.2,6.1-7,10.8-9.6,16.8c-0.3,0.8,0.6,1.3,1.2,1.2
			c1.9-0.3,3.4-1,5.1-1.9c1.5-0.8,2.9-1.6,4.6-2.2c2.2-0.8-0.7,5.6-0.4,4.8c-2.1,4.9-5.5,8.9-6.4,14.3c-0.1,0.8,0.7,1.7,1.5,1.1
			c3.8-2.6,7.1-6.2,11.5-7.7c2.7-0.9,1.1,3.2,0.5,4.2c-1,1.7-2.5,3.1-3.8,4.5c-2.1,2.4-4.5,4.4-6.2,7c-0.7,1.1,1,2.1,1.7,1
			c2.2-3.3,15.9-13.3,10.4-18.3c-3-2.7-9.2,2.7-12.9,5.8c2.1-6.2,6.9-11.2,7.3-18c0-0.5-0.5-1-1-1c-3.9,0-6.8,2.6-10.3,3.9
			c2.9-5.6,7.5-10.3,9.2-16.5c0.2-0.6-0.3-1.3-1-1.3c-6.2,0.5-11.5,4.6-16.2,8.3C-9.9,310.7-8.4,312.1-7.4,311.3z"/>
		<path class="nav-crown-14-st-3" d="M44.9,304.5c-3.5,2.2-7.9,2.3-11,5.4c-0.5,0.5-0.3,1.2,0.2,1.6c1.4,1,2.5,1.4,4.2,1.6c1,0.1,5.9-0.1,5.9-0.1
			c-2.1,1.5-5.5,3-6.3,5.7c-1.3,4.9,15.1,0.5,16.6,0.1c1.2-0.3,0.7-2.3-0.5-1.9c-4.5,1.2-8.8,2.2-13.5,2c-1,0.3-0.8,0,0.6-1.1
			c0.8-0.8,1.6-1.5,2.6-2.1c0.9-0.6,1.9-1.1,2.7-1.9c0.7-0.7,0.3-1.7-0.5-2.2c-3-1.8-6.3,0.1-9.4-1.1c3.3-2.4,7.9-2.5,11.1-5.3
			c0.5-0.5,0.3-1.2-0.2-1.6c-2.4-1.8-5.8-1.7-8.7-2.1c-2.6-0.4-6.7-2.6-1-3.1c3.9-0.3,7.9,1,11.8,1.6c1.3,0.2,1.8-1.7,0.5-1.9
			c-5.8-0.9-11.3-2.6-17-0.8c-0.4,0.1-0.8,0.5-0.7,1C32.7,304.7,40.4,302.7,44.9,304.5z"/>
		<path class="nav-crown-14-st-3" d="M59,316.6c-0.1,0.1-0.2,0.2-0.3,0.3c-0.9,0.9,0.5,2.3,1.4,1.4c0.1-0.1,0.2-0.2,0.3-0.3
			C61.3,317.1,59.9,315.7,59,316.6z"/>
		<path class="nav-crown-14-st-3" d="M55.5,300c0.6,0,1.1-0.4,1.2-1c0.1-0.5-0.1-1.1-0.7-1.2c-0.4-0.1-0.9,0.1-1.1,0.5
			C54.3,298.8,54.5,300.1,55.5,300z"/>
		<path class="nav-crown-14-st-3" d="M66,319.1c1,0,1-2,0-2C64,317.1,64,319.1,66,319.1z"/>
		<path class="nav-crown-14-st-3" d="M64.3,312.9v0.3c0,1.3,2,1.3,2,0v-0.3C66.3,311.6,64.3,311.6,64.3,312.9z"/>
		<path class="nav-crown-14-st-3" d="M65,308.5c1,0,1-2,0-2C63,306.5,63,308.5,65,308.5z"/>
		<path class="nav-crown-14-st-3" d="M64,302.1c1,0,1-2,0-2C62,300.1,62,302.1,64,302.1z"/>
		<path class="nav-crown-14-st-3" d="M59,310.6c-1,0-1,2,0,2S60,310.6,59,310.6z"/>
		<path class="nav-crown-14-st-3" d="M59,307.2c1,0,1-2,0-2C57,305.2,57,307.2,59,307.2z"/>
		<path class="nav-crown-14-st-3" d="M52,312.7c-2,0-2,2,0,2C53,314.7,53,312.7,52,312.7z"/>
		<path class="nav-crown-14-st-3" d="M51,310.3c2,0,2-2,0-2C50,308.3,50,310.3,51,310.3z"/>
		<path class="nav-crown-14-st-3" d="M52,304.6c1,0,1-2,0-2S51,304.6,52,304.6z"/>
		<path class="nav-crown-14-st-3" d="M71,316.8h-0.3c-1.3,0-1.3,2,0,2H71C72.3,318.8,72.3,316.8,71,316.8z"/>
		<path class="nav-crown-14-st-3" d="M69,313.1c1,0,1-2,0-2S68,313.1,69,313.1z"/>
		<path class="nav-crown-14-st-3" d="M69,308.8c2,0,2-2,0-2C68,306.8,68,308.8,69,308.8z"/>
		<path class="nav-crown-14-st-3" d="M71.3,305.7h0.5c1.3,0,1.3-2,0-2h-0.5C70,303.7,70,305.7,71.3,305.7z"/>
		<path class="nav-crown-14-st-3" d="M74.6,314.2h0.5c1.3,0,1.3-2,0-2h-0.5C73.3,312.2,73.3,314.2,74.6,314.2z"/>
		<path class="nav-crown-14-st-3" d="M75,309.3c2,0,2-2,0-2C74,307.3,74,309.3,75,309.3z"/>
		<path class="nav-crown-14-st-3" d="M75,319.1c1,0,1-2,0-2S74,319.1,75,319.1z"/>
		<path class="nav-crown-14-st-3" d="M80,318.4h-0.3c-1.3,0-1.3,2,0,2H80C81.3,320.4,81.3,318.4,80,318.4z"/>
		<path class="nav-crown-14-st-3" d="M79,315.7c1,0,1-2,0-2C77,313.7,77,315.7,79,315.7z"/>
		<path class="nav-crown-14-st-3" d="M80.5,311.6h0.3c1.3,0,1.3-2,0-2h-0.3C79.2,309.6,79.2,311.6,80.5,311.6z"/>
		<path class="nav-crown-14-st-3" d="M85,317.3c1,0,1-2,0-2C83,315.3,83,317.3,85,317.3z"/>
		<path class="nav-crown-14-st-3" d="M85,321.1c2,0,2-2,0-2C84,319.1,84,321.1,85,321.1z"/>
		<path class="nav-crown-14-st-3" d="M90,322.9c1,0,1-2,0-2S89,322.9,90,322.9z"/>
		<path class="nav-crown-14-st-3" d="M90,319.1c1,0,1-2,0-2S89,319.1,90,319.1z"/>
		<path class="nav-crown-14-st-3" d="M84,313.4c2,0,2-2,0-2C83,311.4,83,313.4,84,313.4z"/>
		<path class="nav-crown-14-st-3" d="M7.9,311.3c0,0,0.1,0.1,0.2,0.1c0.5,0.7,1.8,0.5,1.8-0.5c0-0.4-0.1-0.8-0.4-1.1c-0.5-0.5-1.1-0.3-1.6,0.1
			C7.5,310.2,7.6,310.9,7.9,311.3z"/>
		<path class="nav-crown-14-st-3" d="M12.3,325.2c0.4,0.4,1.1,0.4,1.4,0c0.3-0.3,0.5-0.7,0.4-1.2c-0.2-0.5-0.5-0.7-1.1-0.8c-0.5,0-1,0.5-1,1
			c0,0.1,0,0.1,0,0.2C12,324.7,12.1,325,12.3,325.2z"/>
		<path class="nav-crown-14-st-3" d="M8,336.7c-1,0-1,2,0,2S9,336.7,8,336.7z"/>
		<path class="nav-crown-14-st-3" d="M2.7,325.8v-0.5c0-1.3-2-1.3-2,0v0.5C0.7,327.1,2.7,327.1,2.7,325.8z"/>
		<path class="nav-crown-14-st-3" d="M-1.5,311.4v-0.3c0-1.3-2-1.3-2,0v0.3C-3.5,312.7-1.5,312.7-1.5,311.4z"/>
		<path class="nav-crown-14-st-3" d="M1.3,347.5c-1.2-1.3-1.6-3.1-0.9-4.7c0.5-1.2-1.2-2.2-1.7-1c-1.1,2.5-0.7,5.1,1.2,7.1
			C0.8,349.9,2.2,348.5,1.3,347.5z"/>
		<path class="nav-crown-14-st-3" d="M-2.2,332.2c-2-1.4-1.9-4-1.1-6.1c0.5-1.2-1.5-1.7-1.9-0.5c-1.1,3-0.7,6.4,2,8.3
			C-2.2,334.6-1.2,332.9-2.2,332.2z"/>
		<path class="nav-crown-14-st-3" d="M-7.6,318.6c0.5-0.1,1-0.4,1-1c0-0.5-0.5-1.1-1-1c-1.1,0.1-1.4-0.9-1.1-1.8c0.4-1.2-1.6-1.8-1.9-0.5
			C-11.3,316.3-10.1,318.8-7.6,318.6z"/>
		<path class="nav-crown-14-st-3" d="M-17.7,317.2c1.7,0.5,3.1,2.2,3.4,3.9c0.2,1.3,2.1,0.7,1.9-0.5c-0.4-2.5-2.5-4.6-4.8-5.3
			C-18.4,314.9-18.9,316.8-17.7,317.2z"/>
		<path class="nav-crown-14-st-3" d="M-6.4,334.1c-0.1-3.8-3.2-6-6.2-7.8c-1.1-0.7-2.1,1-1,1.7c2.3,1.4,5.1,3.1,5.2,6.1
			C-8.3,335.3-6.3,335.3-6.4,334.1z"/>
		<path class="nav-crown-14-st-3" d="M-6.9,344.3c1.6,0.7,2.1,2.4,2.1,3.9c0,1.3,2,1.3,2,0c0-2.6-1.1-4.8-3.6-5.9C-7.5,341.9-8,343.8-6.9,344.3z"
			/>
		<path class="nav-crown-14-st-3" d="M60.1,453.7c4.3-7,5-15.6,6-23.7c1.7,4.5,1.1,10.5,0.3,14.7c-1.5,7.3-7.2,14.5-11.7,20.2
			c-3.9,4.9-9.3,8.5-15.4,10c-4.3,1.1-9.2,1.3-12.6,4.3c-0.6,0.5-0.2,1.5,0.4,1.7c27,8.8,56.3-22.9,45.6-49.2
			c-0.5-1.2-2.4-0.7-1.9,0.5c9.9,24.2-16,53.5-41.1,47.3c4.6-2.8,11.7-2.8,16.5-5.1c5.8-2.8,10-7.9,13.5-13.1
			c4.1-6.2,8.3-12,9.2-19.6c0.6-4.8,0.6-11.4-2.5-15.5c-0.4-0.6-1.7-0.7-1.8,0.2c-2,13.2-2.7,26.1-14.4,34.7
			c-9.1,6.6-20.2,11.4-30.6,15.4c-0.9,0.3-1.8,0.6-2.7,0.8c-0.5,0.1-0.9,0.1-1.4,0.2c-0.9,0.2-1.6-0.2-2.2-1
			c2.1-0.3,4.2-1.3,6.1-2.3c5.6-2.8,10.7-6.4,16.4-8.9c11.5-5.1,20.5-12.8,24.8-25c1.4-3.9,2.8-13.8-0.4-17c-5-5-5.5,8.4-5.6,10.1
			c-0.4,5.3-1.9,10.3-5.6,14.2c-4.9,5.1-12.9,6.5-19,10c-5.9,3.3-10.9,8-16.8,11.2c-4,2.2-15.1,3.2-18.8-1.2
			c7.7-2.2,15.3,2.3,21.9-4c3.5-3.3,8-5.1,11.6-8.3c3.6-3.2,8.1-4.2,12.3-6.2c6.4-3.1,9.2-8.7,10.9-15.3c0.7-2.9,2.8-8.3,1.1-11.2
			c-1.9-3.3-5.2,0.6-5.9,2.7c-1.2,3.6-0.3,7.4-2,10.9c-2.2,4.4-7.9,6-12.1,7.6c-9,3.2-14.6,11.7-23.7,14.4
			c-5.2,1.6-11.4,2.5-16.8,1.7c-2.1-0.3-10.3-2.6-12.5-5.6c8.1,3.3,16.4,4.5,25,2.1c4.4-1.2,8.4-3.8,12-6.6
			c4.8-3.7,9.8-6.8,14.9-10.2c5.4-3.6,10.2-8.2,11.1-14.9c0.6-5-1.8-8.1-7-6.6c-0.6,0.2-1,0.9-0.6,1.5c6.7,9.9-12.7,15.9-18.5,20.3
			c-6.8,5.2-14.2,9.5-22.9,10.7c-4.7,0.6-8.9-0.7-13.1-2.7c-3.4-1.6-7.5-3.1-10.5-5.4c0.5-0.4,1.1-0.9,1.6-1.3
			c1.5,0.2,3,0.7,4.3,1.5c1.6,0.8,3.2,1.6,4.8,2.4c3.1,1.5,6.5,1.9,9.9,2.1c7.2,0.4,13.2-1.9,19.3-5.6c6-3.6,11.8-8.1,17.2-12.5
			c4.2-3.4,4.8-6.1,3.5-9.9c0.4-0.2,0.7-0.6,0.5-1.1c-0.6-1.6-2-3.6-3.9-2.2c-3.8,2.6-5.4,7.2-9.4,9.9c-4.6,3.1-9.6,5.3-14,8.9
			c-3.1,2.5-6.1,4.7-10.2,4.9c-4.4,0.3-9.1-1.4-13.4-2.2c-6.5-1.4-13.5-2-19.2-5.7c-3.6-2.3-0.3-5.1,3-3.5c1.9,0.9,3.6,2.4,5.3,3.6
			c4.4,3.4,11,4.7,16.4,4.6c5.8-0.2,11.4-3.5,16.3-6.2c5.1-2.8,10.7-5,15.7-8c2.7-1.7,5.2-4,5.5-7.4c0.2-2.6-1.6-5.7-4.5-4.9
			c-1.7,0.5-3.1,2.9-4.4,3.9c-2.3,1.8-5.1,2.8-7.3,4.7c-6.5,5.4-13,8.7-21.6,8.9c-7.5,0.1-14.5-3-21.5-5.2c-2.4-0.7-4.8-1-7.1-2.1
			c0,0-4.1-5.3-1.1-4.3c1.5,0.5,2.9,1.1,4.4,1.7c3.3,1.3,6.8,2,10.2,3s6.5,2.6,10,3.3c4.7,0.9,9.8-0.3,14.1-2.2
			c5.2-2.3,10.1-5.4,15.2-7.9c2.4-1.2,5.7-3.4,3.7-6.4c-1.7-2.6-3.6-3.4-6.2-1.5c-1.7,1.2-3,3.1-4.4,4.6c-2.4,2.6-6.1,2.9-9.4,3.5
			c-3.7,0.7-7.3,1.8-11,2c-4,0.2-8-1.2-11.7-2.5c-3.4-1.1-6.9-2.2-10.4-3.2c-3.3-1-11.5-1.9-11-6.9c13.7,4.3,26.5,11.8,41.3,8.9
			c7.2-1.4,19.7-6.3,13.7-15.5c-0.4-0.6-1.3-0.6-1.7,0c-7.8,12-23.5,8.7-35.1,5.7c-6.1-1.6-12.9-3.5-17.5-8c-3-3-4.7-9.3-4.6-14.2
			c3.7,6,8.8,9.9,15.2,13.3c4.1,2.2,8.2,4.2,12.5,5.8c4.4,1.7,8.3,0.8,12.6,0.9c0.1,0,0.2,0.1,0.3,0.1c5.1,0.5,12.4-0.7,15.3-5.4
			c0.3-0.4,0.2-0.9-0.1-1.1c0.1-0.3,0.1-0.6,0.2-0.9c0.1-0.4-0.1-0.9-0.5-1.1c-0.5-0.3-0.7-1-1.3-1.3c-0.3-0.2-0.6-0.2-0.8-0.1
			c-1.3-0.4-2.2-0.4-3.8,0.1c-4.2,1.3-6.5,3.2-11.3,2.5c-6-0.9-12.2-2.6-17.9-4.6c-6-2.2-10.9-6-13.8-11.7c-1.9-3.8-2.8-8-2.9-12.2
			c0-1.5,0.3-3,0.6-4.5c0.6-2.9,1.6,3.8,1.6,4.9c0,5,0.8,9.1,4,13.1c3.1,3.9,8.9,5.4,13.3,7.4c8.7,3.8,18.6,7.8,28,3.7
			c1.7-0.8,4.5-3.8,2.6-5.7c-2.7-3.1-6.7-1.7-9.7-0.1c-5.4,2.8-13.1-0.9-18.2-3.2c-6.1-2.8-10.3-6.7-12.6-13
			c-2-5.4-3.5-11.1-3.7-16.9c-0.1-1.4,1.5-10.1,2.9-5.8c1.1,3.5,0.7,7.5,1,11c0.7,10.6,5.2,18.3,15.3,22.1c6.3,2.4,13,3.9,19.7,2.9
			c3.5-0.5,7.4-2.6,2.7-5.3c-2.8-1.6-6.9-0.6-10-1.4c-5-1.2-10-2.8-14.1-6c-4.8-3.7-5.8-9.5-6.5-15.1c-0.3-2.3-0.7-4.5-1.2-6.7
			c-0.9-3.6-4.1-6.8-2.8-10.7c4.5,3.1,4.7,9.7,5.3,14.6c0.5,4.7,2.1,9.1,4.8,13c2.3,3.3,5.8,5.9,9.5,7.2c4.6,1.7,10,4.3,15,2.9
			c2.6-0.7,0.6-3.2-0.6-4.1c-1.5-1.3-3.7-1.6-5.6-1.9c-5.1-0.9-8.5-3.2-11.5-7.4c-3.4-4.9-4.3-11.5-6.1-17.1c-1-3.1-2.8-6-4-9
			c-0.1-0.3-1.5-4.4-0.9-4.3c3.2,0.4,4.6,5.1,5.4,7.5c1.8,5.3,2.9,10.9,5.1,16.1c2.7,6.5,11.5,17.7,20,13.3c2.1-1.1,0.1-3.5-0.9-4.4
			c-1.7-1.5-4.2-2.2-6.1-3.3c-2.9-1.8-5-4.5-6.5-7.5c-2.2-4.3-3-9.1-5.4-13.3c-1.3-2.3-2.6-4.5-3.8-6.8c-0.7-1.3-1.2-2.7-1.6-4.1
			s0.6-6.6,1.7-3.4c0.6,1.9,1,3.8,1.6,5.7c0.9,2.9,3.7,5.3,5.3,7.7c2,3,2.3,7.4,3.5,10.8c1.1,3.1,2.9,5.7,5.3,7.9
			c3.4,3.4,14.1,5.6,10.6-2.2c-0.2-0.4-0.7-0.6-1.1-0.5c-8.6,2-9.3-11.9-11-17.3c-1.2-3.7-5.2-5.5-6.5-9.2c-1.3-3.8-0.4-6.1-3.9-8.7
			c-1-0.8-2,1-1,1.7c3,2.3,2.4,5.6,3.4,8.7c0.5,1.6,1.6,2.8,2.8,4c3.8,4,4,8.1,5.5,13.1c1,3.2,2.4,6.5,5.1,8.6c0.8,0.6,2,1.2,3,1.2
			c0.7,0,1.4,0.1,2.1-0.1c0.1,1.6-0.5,2.2-1.8,1.7c-0.6-0.1-1.1-0.2-1.6-0.4c-6.1-1.8-8.6-7.7-10.2-13.3c-0.7-2.4-1.2-4.8-2.4-7.1
			c-1.6-3.1-4.4-5.1-5.5-8.6c-0.7-2.3-0.8-5.4-2.6-7.2c-1.8-1.8-3.6,1.9-4,3c-1,3.5,0.7,6.9,2.3,9.9c2.7,5.2,5.1,9.8,7.1,15.4
			c1.4,3.9,3.5,7.4,6.6,10.2c1.7,1.5,3.8,2.6,5.9,3.6c0.8,0.4,5.3,2.6,1.1,2.7c-2.5,0-5-1.1-7.1-2.4c-5.8-3.5-8.6-11.9-10.4-17.9
			c-1.5-4.8-2.3-9.8-5-14.1c-2.6-4-8-4.3-6.5,1.3c0.7,2.9,2.2,5.6,3.5,8.3c1.7,3.7,2.8,7.6,3.9,11.5c1.2,4.2,2.9,8.1,5.7,11.5
			c3.3,4,7.3,5.2,12.2,6.1c1.4,0.1,2.5,0.8,3.2,2.2c-1.8,0.2-3.5-0.4-5.2-0.8c-3.1-0.9-6.4-2-9.3-3.4c-5.2-2.6-8.2-7.6-9.8-13
			c-2.2-7.1-0.2-17.2-8.1-21.3c-0.5-0.2-1.1-0.1-1.4,0.4c-2.5,4.8,0.7,8.5,2.2,13.2c1.8,5.8,1.2,11.8,3.9,17.4
			c3.6,7.6,13.8,11.2,21.5,12.3c2.8,0.4,6.1-0.3,8.5,1.6c-0.1-0.1-4.6,1-4.9,1c-4.6,0.5-9.1-0.5-13.5-1.8
			c-5.7-1.6-11.2-4.6-14.5-9.7c-4-6.3-2.4-14.4-3.6-21.3c-0.2-1.4-0.8-5.6-3.1-5.3c-3.2,0.5-3.9,5.7-4.1,8.2
			c-0.6,8.5,2.7,20.7,8.6,27c3,3.3,7.4,5.5,11.5,7.1c3.8,1.5,9.9,4.4,14.1,3.3c2.2-0.6,4.1-1.8,6.3-2.6c0.8,1.1,1.5,2.3,2.3,3.4
			c-1,0.4-2,0.8-3,1c-1.5,0.4-3.2,0.4-4.7,0.4c-7.2,0.1-13.4-2.9-19.8-5.7c-4.7-2.1-9.6-3.6-12.6-8.1c-3.5-5.4-1-11.9-3.5-17.5
			c-0.9-1.9-2.6-1.1-3.5,0.2c-2,3.3-1.5,8.8-0.9,12.4c1.6,10.1,8.5,17,17.7,20.6c5.2,2,10.8,3,16.2,4.3c2.2,0.5,4.7,1,7,0.6
			c2.6-0.4,7.8-3.7,10.1-2.7c0.1,0.1,0.3,0.1,0.4,0.1c0.1,0.1,0.2,0.2,0.3,0.4c-0.1,0.4-0.1,0.9-0.3,1.3c-0.1,0.2-0.1,0.4-0.1,0.6
			c-2.5,2.9-7.5,3.7-11.4,3.7c-0.1,0-0.2-0.1-0.3-0.1c-4.8-0.4-8.9,0.6-13.7-1c-4.2-1.4-8.1-3.6-12-5.6c-7-3.6-12.5-8.2-16-15.4
			c-0.4-0.8-1.7-0.6-1.8,0.2c-1.2,5.7,0.7,12.4,3.5,17.4c3.4,6,12.3,8.2,18.4,9.9c12.3,3.5,28.9,6.7,37.7-4.9
			C6.9,406.9-8.2,410-14,410.7c-12.8,1.5-25.1-6.3-37-9.9c-0.5-0.2-1.1,0.2-1.2,0.7c-1,3.4-0.3,5.7,3,7.3c6,3,13.3,4.3,19.7,6.3
			c6.1,1.9,11.5,3.1,17.8,1.8c4.9-1,11.5-1.2,15.4-4.5c2.1-1.7,3.4-4.1,5.6-5.7c0.6,1.3,1.1,2.6,1.7,3.9c-0.6,0.4-1.3,0.8-2,1.2
			c-0.9,0.5-1.9,0.9-2.8,1.4c-6.7,3.4-12.8,7.8-20.5,8.7c-7,0.8-14.6-3.5-21.2-5.4c-1.8-0.5-8.7-4.5-10.6-2.8
			c-1.7,1.5-0.8,5.2,0.6,6.5c3.1,3.1,8.7,3.5,12.7,4.8c12.1,4,23.3,6.3,35-0.2c2.9-1.6,5.2-4,7.9-5.9c2.3-1.6,5.2-2.7,7.2-4.7
			l0.7-0.7c0.9-1.7,2.1-1.3,3.6,1.2c0.1,2.1-2.1,3.8-3.5,4.9c-2.3,1.8-5.1,3-7.7,4.2c-6.2,2.8-11.9,6.6-18.2,9.1
			c-7.2,2.8-16.1,1.3-22.2-3.4c-2.7-2.1-6.4-5.2-10-3.8c-1.9,0.7-2.7,3.1-2.2,4.9c1.5,5.3,12.3,6.8,16.6,7.7
			c9,1.9,19.3,5.8,27.6,0.5c2.3-1.5,4.4-3.4,6.5-5.1c2.9-2.2,6.2-3.7,9.3-5.4c2.3-1.3,4.8-3,6.3-5.2c0.4-0.5,2.8-4.3,4.3-4.9
			c1.3,2.8,2.1,4.8-0.4,7.8c-1.3,1.6-3.3,2.9-4.9,4.1c-3.8,2.7-7.4,5.6-11.3,8.2c-9.5,6.6-20.5,9.6-31.4,4.4c-2-1-11-6.4-12.4-1.4
			c-0.4,1.6,0.5,2.7,1.9,3.6c3.6,2.3,7.7,3.9,11.5,5.7c7.1,3.4,14.6,2.5,21.8-0.1c6.9-2.5,12.1-7.5,18.4-11c6.5-3.7,21-10,16.1-19.4
			c5.4-0.5,2.8,7.6,1.1,10.7c-3.2,5.7-10.4,9-15.7,12.3c-6.4,4-11.4,9.3-18.7,11.7c-8.5,2.9-17.6,0.8-25.5-2.7
			c-0.7-0.3-1.4,0.1-1.5,0.9c-0.6,4.8,6.9,6.7,10.3,8c7.4,3,16.4,1.3,23.8-0.9c8.4-2.5,13.7-10.9,22-13.9c5.2-1.9,11.9-4.1,13.9-9.9
			c1-2.8,0.8-5.9,1.2-8.9c0.2-1.6,2.5-5.3,2.7-2c0.1,1.6-0.3,3.2-0.6,4.7c-1.4,6.8-3.3,12.9-9.4,16.9c-3.4,2.2-7.4,3-10.9,4.8
			c-3.9,2.1-7,5.4-10.9,7.6c-1.4,0.8-2.7,2-3.9,3.2c-3.2,3.1-6.3,3.4-10.4,3.2c-4.1-0.2-8-0.8-11.9,0.7c-0.6,0.2-0.9,0.8-0.6,1.5
			c2,4.2,8.3,4.8,12.5,4.9c7.9,0.2,13-4,19.2-8.3c3.8-2.7,7.6-5.2,11.7-7.3c3.9-2,8.1-2.7,11.8-5.2c5.1-3.5,7.6-8.3,9-14.2
			c0.5-2,0.4-4.2,0.6-6.2c0.1-1.6,0.3-3.3,0.6-4.9c0.3-2,1.8-1,2.1,0.4c1.2,5.7-0.1,12.3-2.6,17.4c-4.4,9-11.7,14.8-20.7,18.8
			c-3.8,1.7-7.6,3.4-11.3,5.6c-4.2,2.4-8.1,5.5-13,6.1c-0.5,0.1-1.1,0.4-1,1c0.4,4.6,4.8,4.1,8.3,3.1c6.3-1.9,12.6-5.3,18.5-8
			C46.3,466.9,55.1,461.8,60.1,453.7z"/>
	</g>
	<path class="nav-crown-14-st-2" d="M244.7,333.7c8.5-8,20.7-11.3,32.1-12.1c12.1-0.9,24.5,0.4,36,4.1c9.6,3.1,18.4,7.8,24.8,15.9
		c6.9,8.9,11.4,20.1,12.1,31.4c0.7,10.7-2,22.2-10.4,29.6c-5.4,4.7-11.9,8.4-18.4,11.3c-6.3,2.9-12.4,4.9-19.3,5.6
		c-5.4,0.6-11.1,0.7-16.2,2.8c-4.3,1.8-8,5.1-10.1,9.3c-4.6,9-2.9,20,1.1,28.9c4.5,10,12.2,18.1,22.7,21.8
		c7.1,2.6,14.3,2.4,21.4,1.2c1.5,0.1,2.9,0.2,4.4,0.1c9.8-0.6,19.1-4.7,27.3-9.9c9.1-5.8,17.2-13,24.6-20.8
		c14.5-15.5,25.5-34,29.7-55c4.5-22.5,0.9-46-13.7-64.2c-12.4-15.5-29.1-27.7-47.9-34.2c-17.7-6.1-37.2-7.4-55.2-1.9
		c-19.2,5.9-34.9,18.7-45.7,35.5C243.6,333.6,244.3,334.1,244.7,333.7z"/>
	<g>
		<path class="nav-crown-14-st-3" d="M331.7,314.5c-1.7,4.2-2.5,8.6-4.7,12.6c-0.7,1.3-2,1.5-3,1c-0.1,0-0.2-0.1-0.3-0.2c-0.5-0.3-0.9-0.8-1.1-1.4
			c-2.2-2.4-5-4.2-6.7-7.1c-0.2-0.3,0-0.6,0.3-0.7c3-0.9,5.9-0.1,9-0.2v-0.1c-2.4-2.7-5-5.3-6.9-8.4c-0.2-0.3,0-0.6,0.3-0.7
			c3.3-1.2,6.8-1.1,10.2-1.5c0-0.1,0.1-0.2,0.1-0.3c-2.6-2.4-5.4-4.5-8.4-6.4c-0.4-0.2-0.3-0.8,0.1-0.9c3.9-1.4,8.1-1.2,12.1-2.3
			c0.1,0,0.2,0,0.3,0c1.4-0.2,2.8,0.6,2.5,2.3C334.9,305.3,333.6,309.9,331.7,314.5z"/>
		<path class="nav-crown-14-st-3" d="M331.5,324.8c-0.9,2.1-1.7,4.2-3.7,5.5c-0.5,0.4-1-0.5-0.5-0.9c2.2-1.5,2.8-4.2,3.9-6.5
			c1.3-2.7,2.6-5.4,3.4-8.2c1.4-4.9,4.1-9.8,3-15c-0.1-0.6,0.8-0.9,1-0.3c1.2,5.7-1.7,11.1-3.2,16.4
			C334.5,319,332.7,321.8,331.5,324.8z"/>
		<path class="nav-crown-14-st-3" d="M257.8,323.9c-0.6-0.6-1.1-1.4-1.6-2c0,1.3,0,2.6-0.4,3.8c-0.1,0.3-0.4,0.5-0.7,0.3c-0.8-0.4-1.4-0.9-2.2-1.2
			c-0.1,1,0,1.8-0.8,2.6c-0.4,0.4-1,0.6-1.5,0.8c-1.3,0.7-2.4,2.1-3.5,3c-0.5,0.4-1.2-0.3-0.7-0.7c1-0.9,2-1.9,3.1-2.7
			c0.5-0.4,1-0.7,1.6-1c0.9-0.5,0.8-2,0.9-2.9c0.1-0.3,0.4-0.4,0.6-0.3c0.9,0.2,1.6,0.7,2.4,1.2c0.3-1.4,0.1-2.8,0.3-4.3
			c0-0.4,0.5-0.7,0.9-0.4c0.9,0.9,1.5,2,2.4,3C259,323.7,258.3,324.4,257.8,323.9z"/>
		<path class="nav-crown-14-st-3" d="M301.1,485c4.3,0.9,9.3,0.8,13.7,0.5c2.8-0.2,5.8-1.6,8.1,0.5c0.5,0.4-0.2,1.1-0.7,0.7
			c-1.8-1.7-4.6-0.6-6.7-0.3c-2,0.3-4,0.2-6,0.1c-4.6-0.1-9-0.4-13.3-2c-7.9-3-13.7-9.2-18.5-15.9c-5-7-8.1-14.8-7.9-23.5
			c0.1-4.7,0.3-9.3,1.7-13.8c1.3-4.1,4.8-6.6,6.5-10.5c0.3-0.6,1.1-0.1,0.9,0.5c-1.7,3.8-5,6.3-6.4,10.2c-1.5,4.3-1.6,9-1.7,13.5
			c-0.2,9.2,3.4,17.1,8.7,24.3C284.9,476.9,291.9,483.1,301.1,485z"/>
		<path class="nav-crown-14-st-3" d="M319.9,492c-2,0-4,0.1-6,0.1c-1.8,0-3.6-0.3-5.4-0.1c-1.8,0.2-3.5,0.4-5.3,0.3c-3.5-0.1-7.1-1.2-10.4-2.3
			c-6.6-2.1-11.4-6-15.7-11.3c-4.3-5.2-8.2-10.1-11-16.4c-2.6-6-3.7-12.4-3.7-18.9c0-6.7,2-12.7,4.8-18.6c2-4.2,3.8-8.6,8.5-10.2
			c2-0.7,4.4-0.8,6.2,0.4c1,0.7,2.4,2.7,2.4,3.9c0,1.9-2.6,3.2-4,1.6c-0.3-0.3-0.5-1-0.6-1.3c-1.1-1.8-2.7-0.7-3.9,0.4
			c-2.2,1.9-3.3,4.6-4.4,7.3c-1.9,4.9-4.3,9.5-4.2,14.9c0.2,6,1,11.9,3.7,17.4c2.2,4.5,4.9,8.9,7.6,13.1c3,4.7,7,8.1,11.8,10.8
			c4.8,2.8,9.9,4.3,15.5,4.6c2.9,0.1,5.7,0.1,8.6-0.1c1.2-0.1,2.4,0,3.6,0.2c0.8,0.1,1.5,0.6,2.3,0.5c0.6-0.1,0.6,0.9,0,1
			c-0.7,0.1-1.5-0.3-2.2-0.4c-1.8-0.5-3.7-0.2-5.6-0.1c-3.5,0.3-7.4,0.2-10.9-0.3c-6.2-1-12-4-17-7.8c-5.1-3.9-8-9.5-11.3-14.9
			c-3.6-5.9-6.1-11.6-6.8-18.6c-0.3-3.2-0.6-6.5,0-9.7c0.6-3.5,2.3-6.8,3.6-10c1-2.5,1.9-4.9,3.6-7.1c1-1.2,3.3-3.6,5.1-3.2
			c1.6,0.4,1.6,2.9,3.2,3c2.5,0.2,1.1-1.9,0.8-2.5c-0.2-0.4-0.5-0.8-0.8-1.2c-1.4-2.1-5-1.3-6.9-0.5c-2.5,1.1-4,3.6-5.2,5.9
			c-1.5,2.9-3,6-4.1,9.1c-5.8,15.8,0,33,10.6,45.2c2.7,3.1,5.2,6.4,8.5,8.9c3.4,2.5,7.6,3.9,11.7,5c4.5,1.2,8.5,1.3,13.1,0.9
			c2.4-0.2,4.7,0.4,7.1,0.1c0.6-0.1,1.2-0.1,1.8-0.1c0.5,0,1.1,0.1,1.6,0.1c1.1,0.2,1.8-0.3,2.2-1.7c-0.5-0.4,0.2-1.1,0.7-0.7
			c1,0.8,1.3,2.2-0.1,2.9C321.7,492,320.9,492.1,319.9,492z"/>
		<path class="nav-crown-14-st-3" d="M277.7,412.7c-0.9,0.4-1.8,0.6-2.8,0.8c-1.9,0.3-3.6,1.1-5.1,2.3c-2.4,1.9-4,4.7-5.3,7.4
			c-3,6-3.5,13.1-3.9,19.6c-0.5,7,0.1,14.2,3.5,20.4c2.8,5.2,7.1,9.5,10.1,14.6c0.3,0.6-0.5,1.1-0.9,0.5
			c-3.3-5.5-7.8-10.2-10.8-15.9c-3.2-6.2-3.3-13.7-2.9-20.5c0.5-6.6,1.2-13.2,4-19.2c1.3-2.8,3.2-5.5,5.5-7.6c1-0.9,2.1-1.5,3.3-2
			c1.4-0.6,2.9-0.6,4.3-1.1c-0.7-1-2.1-1.7-3.3-2c-0.3,1.5-2.2,1.5-3.6,1.9c-0.6,0.2-0.9-0.8-0.3-1c0.7-0.2,3.1-0.3,2.9-1.5
			c-0.1-0.4,0.2-0.7,0.6-0.6c1.8,0.3,4,1.4,4.8,3.1C278,412.2,277.9,412.6,277.7,412.7z"/>
		<path class="nav-crown-14-st-3" d="M274.7,480.4c-0.3-0.6,0.6-1.1,0.9-0.5c5.4,10.3,17,13.9,27.9,14.7c5.1,0.4,10.5-0.1,15.5-0.9
			c0.7-0.1,5.4-0.6,3.5,1.4c-0.4,0.5-1.1-0.2-0.7-0.7c-0.5,0.5-3.4,0.4-4.2,0.5c-1.8,0.3-3.6,0.4-5.4,0.5c-5.4,0.4-10.7,0.2-16-0.8
			C287.4,493,279,488.6,274.7,480.4z"/>
		<path class="nav-crown-14-st-3" d="M265.6,481.5c0.2,0.3,2.5,3.3,2.1,2.1c-0.2-1-0.9-1.9-1.3-2.7c-3.3-5.8-9-9.7-11.6-16c-1.3-3-1.9-6.1-1.9-9.4
			c0-4,0.7-7.9,0.5-12c-0.4-6.7-0.7-13.4,1.9-19.8c1.2-2.8,2.9-5.3,4.8-7.7c1.3-1.6,2.7-3.1,3.4-5.1c0.4-1.3,0.5-2.6,1.1-3.8
			c0.8-1.6,2.6-2.4,4.3-2.3c1.3,0.1,2.8,1.4,2.7,2.8c-0.1,1-1.6,1.4-2.4,1.7c-1.1,0.4-2,0.8-1.5,2.5c0.1,0.4,0.4,0.9,0.3,1.3
			c-0.1,1-0.4,1.3-1.2,1.9c-2.1,2-4.1,3.7-5.8,6.2c-1.8,2.7-2.9,5.9-3.5,9c-0.7,3.7-0.2,7.7,0,11.4c0.3,3.7,0.1,7.4,0.3,11.2
			c0.2,7.5,3.1,13.2,7.4,19c2.7,3.6,7.7,7.7,7.4,12.7c0,0.6-1,0.6-1,0c0.2-3.1-2.1-5.9-4-8.1c-1.8-2.2-3.5-4.3-5.2-6.6
			c-3.9-5.4-5.5-11.2-5.7-17.9c-0.1-3.7,0-7.4-0.3-11.1c-0.3-3.6-0.5-7.2,0.1-10.8c0.8-5.4,3.9-10.9,8.1-14.4c1.2-1,2.6-1.7,2-3.5
			c-0.2-0.7-0.4-1.6,0-2.2c0.3-0.5,0.7-0.8,1.3-1.1c0.8-0.4,3.3-0.7,2-2.1c-2.2-2.6-4.8,0.8-5.3,2.7c-0.3,1.1-0.5,2.2-1,3.2
			c-0.6,1.3-1.7,2.5-2.6,3.6c-1.4,1.8-2.8,3.6-3.9,5.7c-3.7,6.8-3.5,14.3-3,21.8c0.2,3.7-0.2,7.3-0.4,11c-0.3,4.3,0.9,8.3,2.9,12
			c2.5,4.6,6.6,8.1,9.6,12.3c0.6,0.8,3.7,5,2.1,5.9c-0.6,0.4-1.6-0.2-2.1-0.5c-0.5-0.4-0.8-0.9-1.1-1.5c-0.1-0.5-0.5-0.7-1-0.7
			c0.1,0.5,0.5,1.1,0.7,1.5c0.9,1.5,2.7,2.4,3.9,3.6c0.4,0.4,0.8,1,0.9,1.5c0,0.2,0.1,0.4,0.1,0.6c0.4-0.3,0.7-0.7,1.1-1
			c0-0.5-0.1-1-0.3-1.5c-0.1-0.3,0.2-0.6,0.5-0.6c0.5,0,0.9,0.1,1.4,0.3c1.2,0.5,2.1,1.9,2.2-0.5c0-0.3,0.3-0.6,0.6-0.5
			c0.5,0.2,0.9,0.3,1.2,0.8c0.8,1.2,1.7,2.1,2.8,2.9c1,0.6,2.4,1.7,2.4,3c0,1.7-3-0.6-4.1-1.4c-0.5,1.4-1.4,2-3,1.2
			c-0.6-0.3-0.1-1.2,0.5-0.9c0.6-0.4,1.1-0.8,1.7-1.3c0.1-0.2,0.4-0.5,0.6-0.3c1.1,0.4,1.9,1.2,2.9,1.9c-0.2-0.3-0.4-0.5-0.6-0.7
			c-0.6-0.6-1.4-1-2-1.4c-0.8-0.6-1.4-1.8-2.2-2.4c-0.1,0.8-0.3,1.6-1,1.8c-1,0.3-1.9-0.9-2.9-1.3c0.3,1.7-0.3,2.8-2.5,2.9
			c-0.3,0-0.5-0.2-0.5-0.5c0.1-2.5-3.2-3.4-4.5-5.2c-0.5-0.7-1.8-2.5-1.1-3.5C264,480.4,265.1,480.8,265.6,481.5z"/>
		<path class="nav-crown-14-st-3" d="M249.1,436.6c-0.1,0.5-0.3,0.9-0.5,1.3c-1,1.8-2.5-0.7-2.6-1.6c-0.2-1.6,0-4,1.8-4.7c2.5-1,2.9-2.5,3.3-5
			c0.4-2,1-3.9,1.9-5.7c1.9-3.8,4.7-7.3,7-10.9c0.9-1.5,1.6-3.3,2.9-4.5c0.6-0.5,1.2-0.9,1.8-1.4c0.6-0.5,0.9-1.1,0.7-2
			c-0.6-0.2-1.3-0.4-1.9-0.6c0,0.2,0.1,0.4,0.1,0.5c0,2.3-3.3,1.6-4.3,0.7c-0.4-0.4-0.7-1.5-0.4-2c0.4-0.7,0.9-0.5,1.6-0.8
			c0.2-0.1,0.4,0,0.5,0.1c-0.6-0.6-1-1.2-2.2-1.2c-2.4,0-1.8,3.1-1,4.4c0.7,1.3,1.4,1.8,1.3,3.5c-0.2,1.7-1.5,3.2-2.6,4.5
			c-0.4,0.5-1.1-0.2-0.7-0.7c1.7-1.9,3.1-3.9,1.4-6.3c-0.6-0.8-1-1.8-1.1-2.8c-0.1-1.3,0.2-2.9,1.7-3.3c1.7-0.5,5.2,0.7,3.3,2.9
			c-0.2,0.2-0.4,0.2-0.6,0.1l0,0c-0.9,0.1,2.2,1.9,2,0.3c-0.1-0.8,0.3-1,1-1.3c1.8-0.6,3.4,1.9,3,3.4c-0.2,1-1.3,1.7-2.1,2.2
			c-1.9,1.5-2.8,3.6-4.1,5.7c-2.2,3.6-4.9,7-6.8,10.8c-1,2-1.3,4.1-1.7,6.2c-0.2,1-0.6,2.6-1.5,3.3c-0.6,0.4-1.1,0.6-1.7,0.9
			c-1.5,0.5-1.5,1.6-1.6,2.8c0,0.3,0.4,3.3,1,1.6c0.2-0.5,0.2-1,0.5-1.5c0.6-1.2,2-1.4,2.6-0.1c0.7,1.5,0.5,4.1-0.1,5.6
			c-0.2,0.4-0.6,0.5-0.9,0.1s-0.5-0.7-0.8-1.1c-1.2,2-1.5,5.1-1.1,7.2c0.4,2.4,1.3,0.2,1.5-0.8c0.2-0.8,0.3-1.6,0.8-2.2
			c0.2-0.2,0.5-0.2,0.7,0c1.5,1.4,1.2,3.7,1,5.5c-0.4,3.3-0.9,6.5-0.7,9.9c0.2,4.1,2.3,7.8,4.5,11.1c1.7,2.6,4.5,4.4,5.1,7.6
			c0.1,0.6-0.8,0.9-1,0.3c-0.5-3-3.3-5.1-5-7.4c-1.8-2.4-3.2-5.3-4.1-8.2c-1-3.1-0.7-6.7-0.3-9.9c0.2-2.4,1.1-4.9,0.5-7.3
			c-0.2-0.9-0.6,1.4-0.7,1.7c-0.1,0.5-0.2,1.2-0.6,1.6c-0.7,0.9-1.5,0.2-2.1-0.4c-1.8-2.1-0.4-7.8,1.1-9.8c0.2-0.3,0.6-0.3,0.9,0
			c0.2,0.3,0.4,0.6,0.7,0.9c0.2-0.8,0.2-1.7,0.2-2.5C250.3,436.1,249.4,435.3,249.1,436.6z"/>
		<path class="nav-crown-14-st-3" d="M357.4,311.3c-3.9-3-8.4-6.6-13.3-7.5c2.2,6.1,7,10.8,9.6,16.8c0.3,0.8-0.6,1.3-1.2,1.2
			c-1.9-0.3-3.4-1-5.1-1.9c-1.5-0.8-2.9-1.6-4.6-2.2c-2.2-0.8,0.7,5.6,0.4,4.8c2.1,4.9,5.5,8.9,6.4,14.3c0.1,0.8-0.7,1.7-1.5,1.1
			c-3.8-2.6-7.1-6.2-11.5-7.7c-2.7-0.9-1.1,3.2-0.5,4.2c1,1.7,2.5,3.1,3.8,4.5c2.1,2.3,4.5,4.3,6.2,6.9c0.7,1.1-1,2.1-1.7,1
			c-2.2-3.3-15.9-13.3-10.4-18.3c3-2.7,9.2,2.7,12.9,5.8c-2.1-6.2-6.9-11.2-7.3-18c0-0.5,0.5-1,1-1c3.9,0,6.8,2.6,10.3,3.9
			c-2.9-5.6-7.5-10.3-9.2-16.5c-0.2-0.6,0.3-1.3,1-1.3c6.2,0.5,11.5,4.6,16.2,8.3C359.9,310.7,358.4,312.1,357.4,311.3z"/>
		<path class="nav-crown-14-st-3" d="M305.1,304.5c3.5,2.2,7.9,2.3,11,5.4c0.5,0.5,0.3,1.2-0.2,1.6c-1.4,1-2.5,1.4-4.2,1.6c-1,0.1-5.9-0.1-5.9-0.1
			c2.1,1.5,5.5,3,6.3,5.7c1.3,4.9-15.1,0.5-16.6,0.1c-1.2-0.3-0.7-2.3,0.5-1.9c4.5,1.2,8.8,2.2,13.5,2c1,0.3,0.8,0-0.6-1.1
			c-0.8-0.8-1.6-1.5-2.6-2.1c-0.9-0.6-1.9-1.1-2.7-1.9c-0.7-0.7-0.3-1.7,0.5-2.2c3-1.8,6.3,0.1,9.4-1.1c-3.3-2.4-7.9-2.5-11.1-5.3
			c-0.5-0.5-0.3-1.2,0.2-1.6c2.4-1.8,5.8-1.7,8.7-2.1c2.6-0.4,6.7-2.6,1-3.1c-3.9-0.3-7.9,1-11.8,1.6c-1.3,0.2-1.8-1.7-0.5-1.9
			c5.8-0.9,11.3-2.6,17-0.8c0.4,0.1,0.8,0.5,0.7,1C317.3,304.7,309.6,302.7,305.1,304.5z"/>
		<path class="nav-crown-14-st-3" d="M291,316.6c0.1,0.1,0.2,0.2,0.3,0.3c0.9,0.9-0.5,2.3-1.4,1.4c-0.1-0.1-0.2-0.2-0.3-0.3
			C288.7,317.1,290.1,315.7,291,316.6z"/>
		<path class="nav-crown-14-st-3" d="M294.5,300c-0.6,0-1.1-0.4-1.2-1c-0.1-0.5,0.1-1.1,0.7-1.2c0.4-0.1,0.9,0.1,1.1,0.5
			C295.7,298.8,295.5,300.1,294.5,300z"/>
		<path class="nav-crown-14-st-3" d="M284,319.1c-1,0-1-2,0-2C286,317.1,286,319.1,284,319.1z"/>
		<path class="nav-crown-14-st-3" d="M286,313.3L286,313.3c0,1-2,1-2,0l0,0C284,311.3,286,311.3,286,313.3z"/>
		<path class="nav-crown-14-st-3" d="M285,308.5c-1,0-1-2,0-2C287,306.5,287,308.5,285,308.5z"/>
		<path class="nav-crown-14-st-3" d="M286,302.1c-1,0-1-2,0-2C288,300.1,288,302.1,286,302.1z"/>
		<path class="nav-crown-14-st-3" d="M291,310.6c1,0,1,2,0,2S290,310.6,291,310.6z"/>
		<path class="nav-crown-14-st-3" d="M291,307.2c-1,0-1-2,0-2C293,305.2,293,307.2,291,307.2z"/>
		<path class="nav-crown-14-st-3" d="M298,312.7c2,0,2,2,0,2C297,314.7,297,312.7,298,312.7z"/>
		<path class="nav-crown-14-st-3" d="M299,310.3c-2,0-2-2,0-2C300,308.3,300,310.3,299,310.3z"/>
		<path class="nav-crown-14-st-3" d="M298,304.6c-1,0-1-2,0-2S299,304.6,298,304.6z"/>
		<path class="nav-crown-14-st-3" d="M279,317.3L279,317.3c2,0,2,2,0,2l0,0C278,319.3,278,317.3,279,317.3z"/>
		<path class="nav-crown-14-st-3" d="M281,313.1c-1,0-1-2,0-2S282,313.1,281,313.1z"/>
		<path class="nav-crown-14-st-3" d="M281,308.8c-2,0-2-2,0-2C282,306.8,282,308.8,281,308.8z"/>
		<path class="nav-crown-14-st-3" d="M279,305.3h-1c-1,0-1-2,0-2h1C280,303.3,280,305.3,279,305.3z"/>
		<path class="nav-crown-14-st-3" d="M275,314.3L275,314.3c-1,0-1-2,0-2l0,0C277,312.3,277,314.3,275,314.3z"/>
		<path class="nav-crown-14-st-3" d="M275,309.3c-2,0-2-2,0-2C276,307.3,276,309.3,275,309.3z"/>
		<path class="nav-crown-14-st-3" d="M275,319.1c-1,0-1-2,0-2S276,319.1,275,319.1z"/>
		<path class="nav-crown-14-st-3" d="M270,318.3L270,318.3c2,0,2,2,0,2l0,0C269,320.3,269,318.3,270,318.3z"/>
		<path class="nav-crown-14-st-3" d="M271,315.7c-1,0-1-2,0-2C273,313.7,273,315.7,271,315.7z"/>
		<path class="nav-crown-14-st-3" d="M269,311.3L269,311.3c-1,0-1-2,0-2l0,0C271,309.3,271,311.3,269,311.3z"/>
		<path class="nav-crown-14-st-3" d="M265,317.3c-1,0-1-2,0-2C267,315.3,267,317.3,265,317.3z"/>
		<path class="nav-crown-14-st-3" d="M265,321.1c-2,0-2-2,0-2C266,319.1,266,321.1,265,321.1z"/>
		<path class="nav-crown-14-st-3" d="M260,322.9c-1,0-1-2,0-2S261,322.9,260,322.9z"/>
		<path class="nav-crown-14-st-3" d="M260,319.1c-1,0-1-2,0-2S261,319.1,260,319.1z"/>
		<path class="nav-crown-14-st-3" d="M266,313.4c-2,0-2-2,0-2C267,311.4,267,313.4,266,313.4z"/>
		<path class="nav-crown-14-st-3" d="M342.1,311.3c0,0-0.1,0.1-0.2,0.1c-0.5,0.7-1.8,0.5-1.8-0.5c0-0.4,0.1-0.8,0.4-1.1c0.5-0.5,1.1-0.3,1.6,0.1
			C342.5,310.2,342.4,310.9,342.1,311.3z"/>
		<path class="nav-crown-14-st-3" d="M337.7,325.2c-0.4,0.4-1.1,0.4-1.4,0c-0.3-0.3-0.5-0.7-0.4-1.2c0.2-0.5,0.5-0.7,1.1-0.8c0.5,0,1,0.5,1,1
			c0,0.1,0,0.1,0,0.2C338,324.7,337.9,325,337.7,325.2z"/>
		<path class="nav-crown-14-st-3" d="M342,336.7c1,0,1,2,0,2S341,336.7,342,336.7z"/>
		<path class="nav-crown-14-st-3" d="M347,326.3v-1c0-1,2-1,2,0v1C349,327.3,347,327.3,347,326.3z"/>
		<path class="nav-crown-14-st-3" d="M351,311.3L351,311.3c0-1,2-1,2,0l0,0C353,312.3,351,312.3,351,311.3z"/>
		<path class="nav-crown-14-st-3" d="M348.7,347.5c1.2-1.3,1.6-3.1,0.9-4.7c-0.5-1.2,1.2-2.2,1.7-1c1.1,2.5,0.7,5.1-1.2,7.1
			C349.2,349.9,347.8,348.5,348.7,347.5z"/>
		<path class="nav-crown-14-st-3" d="M352.2,332.2c2-1.4,1.9-4,1.1-6.1c-0.5-1.2,1.5-1.7,1.9-0.5c1.1,3,0.7,6.4-2,8.3
			C352.2,334.6,351.2,332.9,352.2,332.2z"/>
		<path class="nav-crown-14-st-3" d="M357.6,318.6c-0.5-0.1-1-0.4-1-1c0-0.5,0.5-1.1,1-1c1.1,0.1,1.4-0.9,1.1-1.8c-0.4-1.2,1.6-1.8,1.9-0.5
			C361.3,316.3,360.1,318.8,357.6,318.6z"/>
		<path class="nav-crown-14-st-3" d="M367.7,317.2c-1.7,0.5-3.1,2.2-3.4,3.9c-0.2,1.3-2.1,0.7-1.9-0.5c0.4-2.5,2.5-4.6,4.8-5.3
			C368.4,314.9,368.9,316.8,367.7,317.2z"/>
		<path class="nav-crown-14-st-3" d="M356.4,334.1c0.1-3.8,3.2-6,6.2-7.8c1.1-0.7,2.1,1,1,1.7c-2.3,1.4-5.1,3.1-5.2,6.1
			C358.3,335.3,356.3,335.3,356.4,334.1z"/>
		<path class="nav-crown-14-st-3" d="M356.9,344.3c-1.6,0.7-2.1,2.4-2.1,3.9c0,1.3-2,1.3-2,0c0-2.6,1.1-4.8,3.6-5.9
			C357.5,341.9,358,343.8,356.9,344.3z"/>
		<path class="nav-crown-14-st-3" d="M289.9,453.7c-4.3-7-5-15.6-6-23.7c-1.7,4.5-1.1,10.5-0.3,14.7c1.5,7.3,7.2,14.5,11.7,20.2
			c3.9,4.9,9.3,8.5,15.4,10c4.3,1.1,9.2,1.3,12.6,4.3c0.6,0.5,0.2,1.5-0.4,1.7c-27,8.8-56.3-22.9-45.6-49.2c0.5-1.2,2.4-0.7,1.9,0.5
			c-9.9,24.2,16,53.5,41.1,47.3c-4.6-2.8-11.7-2.8-16.5-5.1c-5.8-2.8-10-7.9-13.5-13.1c-4.1-6.2-8.3-12-9.2-19.6
			c-0.6-4.8-0.6-11.4,2.5-15.5c0.4-0.6,1.7-0.7,1.8,0.2c2,13.2,2.7,26.1,14.4,34.7c9.1,6.6,20.2,11.4,30.6,15.4
			c0.9,0.3,1.8,0.6,2.7,0.8c0.5,0.1,0.9,0.1,1.4,0.2c0.9,0.2,1.6-0.2,2.2-1c-2.1-0.3-4.2-1.3-6.1-2.3c-5.6-2.8-10.7-6.4-16.4-8.9
			c-11.5-5.1-20.5-12.8-24.8-25c-1.4-3.9-2.8-13.8,0.4-17c5-5,5.5,8.4,5.6,10.1c0.4,5.3,1.9,10.3,5.6,14.2c4.9,5.1,12.9,6.5,19,10
			c5.9,3.3,10.9,8,16.8,11.2c4,2.2,15.1,3.2,18.8-1.2c-7.7-2.2-15.3,2.3-21.9-4c-3.5-3.3-8-5.1-11.6-8.3c-3.6-3.2-8.1-4.2-12.3-6.2
			c-6.4-3.1-9.2-8.7-10.9-15.3c-0.7-2.9-2.8-8.3-1.1-11.2c1.9-3.3,5.2,0.6,5.9,2.7c1.2,3.6,0.3,7.4,2,10.9c2.2,4.4,7.9,6,12.1,7.6
			c9,3.2,14.6,11.7,23.7,14.4c5.2,1.6,11.4,2.5,16.8,1.7c2.1-0.3,10.3-2.6,12.5-5.6c-8.1,3.3-16.4,4.5-25,2.1
			c-4.4-1.2-8.4-3.8-12-6.6c-4.8-3.7-9.8-6.8-14.9-10.2c-5.4-3.6-10.2-8.2-11.1-14.9c-0.6-5,1.8-8.1,7-6.6c0.6,0.2,1,0.9,0.6,1.5
			c-6.7,9.9,12.7,15.9,18.5,20.3c6.8,5.2,14.2,9.5,22.9,10.7c4.7,0.6,8.9-0.7,13.1-2.7c3.4-1.6,7.5-3.1,10.5-5.4
			c-0.5-0.4-1.1-0.9-1.6-1.3c-1.5,0.2-3,0.7-4.3,1.5c-1.6,0.8-3.2,1.6-4.8,2.4c-3.1,1.5-6.5,1.9-9.9,2.1c-7.2,0.4-13.2-1.9-19.3-5.6
			c-6-3.6-11.8-8.1-17.2-12.5c-4.2-3.4-4.8-6.1-3.5-9.9c-0.4-0.2-0.7-0.6-0.5-1.1c0.6-1.6,2-3.6,3.9-2.2c3.8,2.6,5.4,7.2,9.4,9.9
			c4.6,3.1,9.6,5.3,14,8.9c3.1,2.5,6.1,4.7,10.2,4.9c4.4,0.3,9.1-1.4,13.4-2.2c6.5-1.4,13.5-2,19.2-5.7c3.6-2.3,0.3-5.1-3-3.5
			c-1.9,0.9-3.6,2.4-5.3,3.6c-4.4,3.4-11,4.7-16.4,4.6c-5.8-0.2-11.4-3.5-16.3-6.2c-5.1-2.8-10.7-5-15.7-8c-2.7-1.7-5.2-4-5.5-7.4
			c-0.2-2.6,1.6-5.7,4.5-4.9c1.7,0.5,3.1,2.9,4.4,3.9c2.3,1.8,5.1,2.8,7.3,4.7c6.5,5.4,13,8.7,21.6,8.9c7.5,0.1,14.5-3,21.5-5.2
			c2.4-0.7,4.8-1,7.1-2.1c0,0,4.1-5.3,1.1-4.3c-1.5,0.5-2.9,1.1-4.4,1.7c-3.3,1.3-6.8,2-10.2,3c-3.4,1-6.5,2.6-10,3.3
			c-4.7,0.9-9.8-0.3-14.1-2.2c-5.2-2.3-10.1-5.4-15.2-7.9c-2.4-1.2-5.7-3.4-3.7-6.4c1.7-2.6,3.6-3.4,6.2-1.5c1.7,1.2,3,3.1,4.4,4.6
			c2.4,2.6,6.1,2.9,9.4,3.5c3.7,0.7,7.3,1.8,11,2c4,0.2,8-1.2,11.7-2.5c3.4-1.1,6.9-2.2,10.4-3.2c3.3-1,11.5-1.9,11-6.9
			c-13.7,4.3-26.5,11.8-41.3,8.9c-7.2-1.4-19.7-6.3-13.7-15.5c0.4-0.6,1.3-0.6,1.7,0c7.8,12,23.5,8.7,35.1,5.7
			c6.1-1.6,12.9-3.5,17.5-8c3-3,4.7-9.3,4.6-14.2c-3.7,6-8.8,9.9-15.2,13.3c-4.1,2.2-8.2,4.2-12.5,5.8c-4.4,1.7-8.3,0.8-12.6,0.9
			c-0.1,0-0.2,0.1-0.3,0.1c-5.1,0.5-12.4-0.7-15.3-5.4c-0.3-0.4-0.2-0.9,0.1-1.1c-0.1-0.3-0.1-0.6-0.2-0.9c-0.1-0.4,0.1-0.9,0.5-1.1
			c0.5-0.3,0.7-1,1.3-1.3c0.3-0.2,0.6-0.2,0.8-0.1c1.3-0.4,2.2-0.4,3.8,0.1c4.2,1.3,6.5,3.2,11.3,2.5c6-0.9,12.2-2.6,17.9-4.6
			c6-2.2,10.9-6,13.8-11.7c1.9-3.8,2.8-8,2.9-12.2c0-1.5-0.3-3-0.6-4.5c-0.6-2.9-1.6,3.8-1.6,4.9c0,5-0.8,9.1-4,13.1
			c-3.1,3.9-8.9,5.4-13.3,7.4c-8.7,3.8-18.6,7.8-28,3.7c-1.7-0.8-4.5-3.8-2.6-5.7c2.8-2.9,6.8-1.5,9.9,0.1
			c5.4,2.8,13.1-0.9,18.2-3.2c6.1-2.8,10.3-6.7,12.6-13c2-5.4,3.5-11.1,3.7-16.9c0.1-1.4-1.5-10.1-2.9-5.8c-1.1,3.5-0.7,7.5-1,11
			c-0.7,10.6-5.2,18.3-15.3,22.1c-6.3,2.4-13,3.9-19.7,2.9c-3.5-0.5-7.4-2.6-2.7-5.3c2.8-1.6,6.9-0.6,10-1.4c5-1.2,10-2.8,14.1-6
			c4.8-3.7,5.8-9.5,6.5-15.1c0.3-2.3,0.7-4.5,1.2-6.7c0.9-3.6,4.1-6.8,2.8-10.7c-4.5,3.1-4.7,9.7-5.3,14.6c-0.5,4.7-2.1,9.1-4.8,13
			c-2.3,3.3-5.8,5.9-9.5,7.2c-4.6,1.7-10,4.3-15,2.9c-2.6-0.7-0.6-3.2,0.6-4.1c1.5-1.3,3.7-1.6,5.6-1.9c5.1-0.9,8.5-3.2,11.5-7.4
			c3.4-4.9,4.3-11.5,6.1-17.1c1-3.1,2.8-6,4-9c0.1-0.3,1.5-4.4,0.9-4.3c-3.2,0.4-4.6,5.1-5.4,7.5c-1.8,5.3-2.9,10.9-5.1,16.1
			c-2.7,6.5-11.5,17.7-20,13.3c-2.1-1.1-0.1-3.5,0.9-4.4c1.7-1.5,4.2-2.2,6.1-3.3c2.9-1.8,5-4.5,6.5-7.5c2.2-4.3,3-9.1,5.4-13.3
			c1.3-2.3,2.6-4.5,3.8-6.8c0.7-1.3,1.2-2.7,1.6-4.1s-0.6-6.6-1.7-3.4c-0.6,1.9-1,3.8-1.6,5.7c-0.9,2.9-3.7,5.3-5.3,7.7
			c-2,3-2.3,7.4-3.5,10.8c-1.1,3.1-2.9,5.7-5.3,7.9c-3.4,3.4-14.1,5.6-10.6-2.2c0.2-0.4,0.7-0.6,1.1-0.5c8.6,2,9.3-11.9,11-17.3
			c1.2-3.7,5.2-5.5,6.5-9.2c1.3-3.8,0.4-6.1,3.9-8.7c1-0.8,2,1,1,1.7c-3,2.3-2.4,5.6-3.4,8.7c-0.5,1.6-1.6,2.8-2.8,4
			c-3.8,4-4,8.1-5.5,13.1c-1,3.2-2.4,6.5-5.1,8.6c-0.8,0.6-2,1.2-3,1.2c-0.7,0-1.4,0.1-2.1-0.1c-0.1,1.6,0.5,2.2,1.8,1.7
			c0.6-0.1,1.1-0.2,1.6-0.4c6.1-1.8,8.6-7.7,10.2-13.3c0.7-2.4,1.2-4.8,2.4-7.1c1.6-3.1,4.4-5.1,5.5-8.6c0.7-2.3,0.8-5.4,2.6-7.2
			c1.8-1.8,3.6,1.9,4,3c1,3.5-0.7,6.9-2.3,9.9c-2.7,5.2-5.1,9.8-7.1,15.4c-1.4,3.9-3.5,7.4-6.6,10.2c-1.7,1.5-3.8,2.6-5.9,3.6
			c-0.8,0.4-5.3,2.6-1.1,2.7c2.5,0,5-1.1,7.1-2.4c5.8-3.5,8.6-11.9,10.4-17.9c1.5-4.8,2.3-9.8,5-14.1c2.6-4,8-4.3,6.5,1.3
			c-0.7,2.9-2.2,5.6-3.5,8.3c-1.7,3.7-2.8,7.6-3.9,11.5c-1.2,4.2-2.9,8.1-5.7,11.5c-3.3,4-7.3,5.2-12.2,6.1
			c-1.4,0.1-2.5,0.8-3.2,2.2c1.8,0.2,3.5-0.4,5.2-0.8c3.1-0.9,6.4-2,9.3-3.4c5.2-2.6,8.2-7.6,9.8-13c2.2-7.1,0.2-17.2,8.1-21.3
			c0.5-0.2,1.1-0.1,1.4,0.4c2.5,4.8-0.7,8.5-2.2,13.2c-1.8,5.8-1.2,11.8-3.9,17.4c-3.6,7.6-13.8,11.2-21.5,12.3
			c-2.8,0.4-6.1-0.3-8.5,1.6c0.1-0.1,4.6,1,4.9,1c4.6,0.5,9.1-0.5,13.5-1.8c5.7-1.6,11.2-4.6,14.5-9.7c4-6.3,2.4-14.4,3.6-21.3
			c0.2-1.4,0.8-5.6,3.1-5.3c3.2,0.5,3.9,5.7,4.1,8.2c0.6,8.5-2.7,20.7-8.6,27c-3,3.3-7.4,5.5-11.5,7.1c-3.8,1.5-9.9,4.4-14.1,3.3
			c-2.2-0.6-4.1-1.8-6.3-2.6c-0.8,1.1-1.5,2.3-2.3,3.4c1,0.4,2,0.8,3,1c1.5,0.4,3.2,0.4,4.7,0.4c7.2,0.1,13.4-2.9,19.8-5.7
			c4.7-2.1,9.6-3.6,12.6-8.1c3.5-5.4,1-11.9,3.5-17.5c0.9-1.9,2.6-1.1,3.5,0.2c2,3.3,1.5,8.8,0.9,12.4c-1.6,10.1-8.5,17-17.7,20.6
			c-5.2,2-10.8,3-16.2,4.3c-2.2,0.5-4.7,1-7,0.6c-2.6-0.4-7.8-3.7-10.1-2.7c-0.1,0.1-0.3,0.1-0.4,0.1c-0.1,0.1-0.2,0.2-0.3,0.4
			c0.1,0.4,0.1,0.9,0.3,1.3c0.1,0.2,0.1,0.4,0.1,0.6c2.5,2.9,7.5,3.7,11.4,3.7c0.1,0,0.2-0.1,0.3-0.1c4.8-0.4,8.9,0.6,13.7-1
			c4.2-1.4,8.1-3.6,12-5.6c7-3.6,12.5-8.2,16-15.4c0.4-0.8,1.7-0.6,1.8,0.2c1.2,5.7-0.7,12.4-3.5,17.4c-3.4,6-12.3,8.2-18.4,9.9
			c-12.3,3.5-28.9,6.7-37.7-4.9c-3.4,8.1,11.7,11.2,17.5,11.9c12.8,1.5,25.1-6.3,37-9.9c0.5-0.2,1.1,0.2,1.2,0.7
			c1,3.4,0.3,5.7-3,7.3c-6,3-13.3,4.3-19.7,6.3c-6.1,1.9-11.5,3.1-17.8,1.8c-4.9-1-11.5-1.2-15.4-4.5c-2.1-1.7-3.4-4.1-5.6-5.7
			c-0.6,1.3-1.1,2.6-1.7,3.9c0.6,0.4,1.3,0.8,2,1.2c0.9,0.5,1.9,0.9,2.8,1.4c6.7,3.4,12.8,7.8,20.5,8.7c7,0.8,14.6-3.5,21.2-5.4
			c1.8-0.5,8.7-4.5,10.6-2.8c1.7,1.5,0.8,5.2-0.6,6.5c-3.1,3.1-8.7,3.5-12.7,4.8c-12.1,4-23.3,6.3-35-0.2c-2.9-1.6-5.2-4-7.9-5.9
			c-2.3-1.6-5.2-2.7-7.2-4.7l-0.7-0.7c-0.9-1.7-2.1-1.3-3.6,1.2c-0.1,2.1,2.1,3.8,3.5,4.9c2.3,1.8,5.1,3,7.7,4.2
			c6.2,2.8,11.9,6.6,18.2,9.1c7.2,2.8,16.1,1.3,22.2-3.4c2.7-2.1,6.4-5.2,10-3.8c1.9,0.7,2.7,3.1,2.2,4.9
			c-1.5,5.3-12.3,6.8-16.6,7.7c-9,1.9-19.3,5.8-27.6,0.5c-2.3-1.5-4.4-3.4-6.5-5.1c-2.9-2.2-6.2-3.7-9.3-5.4c-2.3-1.3-4.8-3-6.3-5.2
			c-0.4-0.5-2.8-4.3-4.3-4.9c-1.3,2.8-2.1,4.8,0.4,7.8c1.3,1.6,3.3,2.9,4.9,4.1c3.8,2.7,7.4,5.6,11.3,8.2c9.5,6.6,20.5,9.6,31.4,4.4
			c2-1,11-6.4,12.4-1.4c0.4,1.6-0.5,2.7-1.9,3.6c-3.6,2.3-7.7,3.9-11.5,5.7c-7.1,3.4-14.6,2.5-21.8-0.1c-6.9-2.5-12.1-7.5-18.4-11
			c-6.5-3.7-21-10-16.1-19.4c-5.4-0.5-2.8,7.6-1.1,10.7c3.2,5.7,10.4,9,15.7,12.3c6.4,4,11.4,9.3,18.7,11.7
			c8.5,2.9,17.6,0.8,25.5-2.7c0.7-0.3,1.4,0.1,1.5,0.9c0.6,4.8-6.9,6.7-10.3,8c-7.4,3-16.4,1.3-23.8-0.9c-8.4-2.5-13.7-10.9-22-13.9
			c-5.2-1.9-11.9-4.1-13.9-9.9c-1-2.8-0.8-5.9-1.2-8.9c-0.2-1.6-2.5-5.3-2.7-2c-0.1,1.6,0.3,3.2,0.6,4.7c1.4,6.8,3.3,12.9,9.4,16.9
			c3.4,2.2,7.4,3,10.9,4.8c3.9,2.1,7,5.4,10.9,7.6c1.4,0.8,2.7,2,3.9,3.2c3.2,3.1,6.3,3.4,10.4,3.2c4.1-0.2,8-0.8,11.9,0.7
			c0.6,0.2,0.9,0.8,0.6,1.5c-2,4.2-8.3,4.8-12.5,4.9c-7.9,0.2-13-4-19.2-8.3c-3.8-2.7-7.6-5.2-11.7-7.3c-3.9-2-8.1-2.7-11.8-5.2
			c-5.1-3.5-7.6-8.3-9-14.2c-0.5-2-0.4-4.2-0.6-6.2c-0.1-1.6-0.3-3.3-0.6-4.9c-0.3-2-1.8-1-2.1,0.4c-1.2,5.7,0.1,12.3,2.6,17.4
			c4.4,9,11.7,14.8,20.7,18.8c3.8,1.7,7.6,3.4,11.3,5.6c4.2,2.4,8.1,5.5,13,6.1c0.5,0.1,1.1,0.4,1,1c-0.4,4.6-4.8,4.1-8.3,3.1
			c-6.3-1.9-12.6-5.3-18.5-8C303.7,466.9,294.9,461.8,289.9,453.7z"/>
	</g>
	<path class="nav-crown-14-st-4" d="M216.7,295.2c-2.5,1.8-4.9,4-7.8,5.2c0.3-0.7,0.6-1.5,1-2.2c0.6-1.2-1.2-2.2-1.7-1c-0.4,0.8-0.7,1.5-1,2.3
		c-0.8-1.3-1.6-2.5-2.3-3.8c-0.5-1-0.7-2.2-1.3-3.2c-0.7-1.1-2.4-0.1-1.7,1c0.5,0.9,0.8,2,1.2,2.9c0.7,1.7,1.9,3.1,2.8,4.7
		c0.1,0.2,0.3,0.4,0.6,0.4c-0.4,1.2-0.8,2.3-1.2,3.5c-1.3-2.3-2.6-4.5-3.6-6.9c-0.5-1.2-2.4-0.7-1.9,0.5c1.2,3,2.9,5.7,4.4,8.5
		c0.1,0.2,0.2,0.3,0.4,0.4c-0.3,1-0.5,1.9-0.8,2.9c-1.2-2.9-2.9-5.5-4.2-8.4c-0.5-1.2-2.3-0.2-1.7,1c1.4,3.1,3.5,6,4.6,9.3
		c0.1,0.4,0.4,0.6,0.8,0.7c-0.2,0.9-0.4,1.8-0.6,2.7c-1.5-2.6-3-5.2-4.1-8c-0.5-1.2-2.4-0.7-1.9,0.5c1.3,3.5,3.3,6.7,5.1,10
		c0.1,0.2,0.2,0.3,0.4,0.4c-0.2,1.2-0.5,2.4-0.7,3.5c-1.1-2.9-2.7-5.7-4.4-8.4c-0.7-1.1-2.4-0.1-1.7,1c2,3.2,4,6.6,5,10.3
		c0.1,0.3,0.2,0.4,0.4,0.5c-0.3,1.3-0.5,2.5-0.8,3.8c-0.4-0.8-0.8-1.5-1-2c-1-2.2-2.5-4.6-3-7c-0.3-1.3-2.2-0.7-1.9,0.5
		c0.4,1.8,1.4,3.6,2.2,5.3c0.5,1.1,1,2.3,1.5,3.4c0.2,0.5,0.4,1,0.6,1.5s0,0.8,0.3,0.4c-0.4,0.6,0,1.2,0.5,1.4
		c-1.4,6.2-2.8,12.5-4.1,18.7c-2,9.6-3.7,19.1-6.6,28.5c-3,9.9-6.6,19.5-8.2,29.8c-0.2,1.3,1.7,1.8,1.9,0.5c1.4-9,4.3-17.6,7.1-26.2
		c3-9.3,5-18.8,6.9-28.4c1.5-7.7,3.3-15.3,5-22.9c0,0,0.1,0,0.1-0.1c2.5-2.2,5.5-3.8,8.3-5.6c1.1-0.7,0.1-2.4-1-1.7
		c-2.3,1.4-4.6,2.7-6.8,4.3c0.2-1,0.4-1.9,0.6-2.9c0.1-0.5,0.2-1,0.3-1.5c3.1-0.7,5.8-2.5,8.7-3.8c1.2-0.5,0.2-2.3-1-1.7
		c-2.4,1.1-4.7,2.6-7.3,3.4c0.3-1.5,0.6-3,0.9-4.5c3.1-0.9,6-2.5,9-3.7c1.2-0.5,0.7-2.4-0.5-1.9c-2.7,1.1-5.3,2.5-8,3.4
		c0.2-1,0.4-2,0.6-3c1.6-0.5,2.8-1.4,4.3-2.2c1.7-0.9,3.5-1.8,5.2-2.5c1.2-0.5,0.2-2.2-1-1.7c-1.6,0.7-3.1,1.4-4.6,2.2
		c-1.1,0.6-2.2,1.3-3.3,1.8c0.3-1,0.5-2.1,0.8-3.1c0.2,0.1,0.5,0.1,0.8-0.1c3.2-1.8,6.4-3.6,9.7-5.2c1.2-0.6,0.1-2.3-1-1.7
		c-3,1.5-5.9,3.1-8.8,4.7c0.3-1,0.7-2,1-3c0.1,0,0.3,0,0.4,0c3.6-1.1,6.4-3.7,9.3-5.8C218.7,296.2,217.7,294.5,216.7,295.2z"/>
	<path class="nav-crown-14-st-4" d="M168.8,454.5c-0.7,0.5-0.8,1.3-1.1,2.1c-1.2,3.2-2.3,6.4-3.5,9.5c-1.9,4.9-3.5,10-6,14.7
		c-1.8-1.2-3.2-2.9-4.3-5c-0.3-0.7-0.6-1.4-1-2.1c-0.3-0.5-1-0.5-1.5-0.3c-0.5,0.1-0.9,0.4-0.9,1c0,0.1,0,0.2,0,0.4
		c0,0.1-0.1,0.1-0.1,0.2c-0.1,0.3-0.1,0.6,0,0.9c0,0.2,0.1,0.3,0.2,0.4l0,0c0.4,4.5,1.2,8.9,1.9,13.4c0.1,0.4,0.6,0.7,1,0.7
		c2.4,0,4.5-1.1,6.6-2.3c2.3-1.3,4.7-2.5,6.6-4.4c0.6-0.6,0.1-1.8-0.8-1.7c-0.1-0.1-0.3-0.1-0.5-0.1c-0.1,0-0.2,0-0.3,0l0,0l0,0
		c-0.6,0.1-1.1,0.2-1.7,0.2c-1.3,0-2.5-0.2-3.6-0.6c1.8-3.4,3.1-7,4.5-10.7c0.9-2.5,1.9-5,2.8-7.5c0.5-1.5,1.4-6.5,2.5-7.3
		C170.8,455.4,169.8,453.7,168.8,454.5z"/>
	<path class="nav-crown-14-st-3" d="M182.1,411.7c-1.2,0.5-3-0.4-3-1.9c0-0.6-1-0.6-1,0c0,2,2.4,3.5,4.3,2.8C182.9,412.5,182.7,411.5,182.1,411.7z
		"/>
	<path class="nav-crown-14-st-3" d="M183.1,410v0.3c0,0.6,1,0.6,1,0V410C184.1,409.3,183.1,409.3,183.1,410z"/>
	<path class="nav-crown-14-st-3" d="M182.6,413.4c-1.2,0.6-2.7,0.3-3.9-0.3c-0.6-0.3-1.1,0.6-0.5,0.9c1.5,0.7,3.4,1.1,4.9,0.3
		C183.7,413.9,183.2,413.1,182.6,413.4z"/>
	<path class="nav-crown-14-st-3" d="M178.9,407.8c-2.4-0.6-2.7,2.5-1.9,4c0.3,0.6,1.2,0.1,0.9-0.5c-0.4-0.7-0.6-2.9,0.7-2.5
		C179.2,408.9,179.5,408,178.9,407.8z"/>
	<path class="nav-crown-14-st-3" d="M183.4,411.5c0,0.1-0.1,0.2-0.2,0.2c-0.6,0.3-0.1,1.2,0.5,0.9c0.2-0.1,0.4-0.3,0.6-0.6
		C184.6,411.4,183.8,410.9,183.4,411.5z"/>
	<path class="nav-crown-14-st-3" d="M171.4,454c-1.6-1.9-4.2-0.8-5.2,1.1c-0.3,0.6,0.6,1.1,0.9,0.5c0.7-1.4,2.4-2.3,3.6-0.9
		C171.1,455.1,171.8,454.4,171.4,454z"/>
	<path class="nav-crown-14-st-3" d="M170.9,456.3c-0.1,0.2-0.2,0.3-0.4,0.4c-0.6,0.3-0.1,1.2,0.5,0.9c0.4-0.2,0.7-0.6,0.9-1
		C172,456,171,455.7,170.9,456.3z"/>
	<path class="nav-crown-14-st-3" d="M171.9,452.1c-2.4-1.6-5.7-0.5-7,1.9c-0.1,0.1-0.1,0.2,0,0.3c-0.1,0.1-0.1,0.2-0.1,0.3c-0.1,1.2,0.2,2.2,1,3.2
		c0.4,0.5,1.1-0.2,0.7-0.7c-0.6-0.7-0.8-1.5-0.7-2.5v-0.1l0,0c1-1.9,3.9-2.9,5.8-1.4c1.4,1.2,0.8,3.6-0.1,4.8
		c-0.4,0.5,0.5,1,0.9,0.5C173.5,456.6,174,453.5,171.9,452.1z"/>
	<path class="nav-crown-14-st-3" d="M170.2,458.4h-0.5c-0.6,0-0.6,1,0,1h0.5C170.9,459.4,170.9,458.4,170.2,458.4z"/>
	<path class="nav-crown-14-st-3" d="M166.9,450.2c-0.4,0.1-0.7,0.3-1,0.5c-0.5,0.4,0.2,1.1,0.7,0.7c0.2-0.1,0.3-0.2,0.5-0.2
		C167.8,450.9,167.5,450,166.9,450.2z"/>
	<path class="nav-crown-14-st-3" d="M171.1,450c-0.5-0.2-0.9-0.3-1.5-0.3s-0.6,1,0,1c0.3,0,0.7,0.1,1,0.2C171.2,451.2,171.7,450.3,171.1,450z"/>
	<path class="nav-crown-14-st-3" d="M183.8,407.4c-0.6-0.3-1.1,0.6-0.5,0.9c1.8,0.9,2.6,3.2,1.1,4.8c-0.4,0.5,0.3,1.2,0.7,0.7
		C187.1,411.7,186.3,408.6,183.8,407.4z"/>
	<path class="nav-crown-14-st-4" d="M138.2,424.2c-1.6-3.4-2-7.2-5.4-9.4c-2.8-1.8-5.6,1.5-6.8,3.6c-2.2,3.8,0,8,0.8,11.8c0.1,0.3,0.3,0.4,0.6,0.3
		l0,0c1.2,0.2,2.1,0.3,3.2,0c0,1.7,0.1,5.4,1.9,4.7c0.8-0.3,1.1-1.2,1.1-2.2c0.4,0.7,0.8,1.4,1.3,2c0.2,0.3,0.8,0.1,0.8-0.2
		c0.1-0.6,0.1-1.2,0-1.8c0.2,0.3,0.3,0.5,0.5,0.7c0.3,0.4,0.8,0,0.9-0.4c0.1-1.8-0.4-3.2-1.1-4.7C138,427.4,139.5,427,138.2,424.2z"
		/>
	<path class="nav-crown-14-st-4" d="M144.2,430c0.1,0.1,0.3,0.2,0.5,0.2c3,0.3,3.1-2.9,0.9-3.2c0.1-0.7,0.1-1.5-0.3-1.8c-1-0.8-2.1-0.4-2.7,0.7
		c-0.3,0.4-0.1,1.2,0.1,1.6c0.8,1.7-2.3,4.8-3.1,5.8c-1.1,1.3-2,2.8-2.9,4.2c-0.6,0.1-1.1,0.1-1.7,0.2c-2.7,0.2-5.4-0.1-8.1-0.1
		c-0.5-1.2-1.5-2.2-2.8-1.8c-0.7,0.2-1.2,0.9-1.2,1.7c0,0.3,0.1,0.6,0.2,0.9c-0.1,0.1-0.2,0.1-0.3,0.2c-0.5,0.5-0.7,1.2-0.5,1.9
		c0.2,0.7,0.9,1.2,1.7,1.2c1,0,1.8-1.1,2.4-1.9c0.1-0.1,0.1,0.5,0.1-0.5l0,0c0.1,0,0.2,0.2,0.3,0.1c2.3,0,4.6,0.3,6.9,0.3
		c0.6,0,1.2,0,1.8,0c-0.6,1-1.2,1.9-1.8,2.9l0,0c-0.7-0.2-1.4-0.2-1.9,0.3s-0.5,1.2-0.3,1.8c0.3,0.6,1.1,0.9,1.7,0.8c0,0,0,0,0.1,0
		c0.1,0.3,0.2,0.5,0.5,0.8c0.5,0.6,1.4,0.6,2.1,0.3c0.7-0.3,1-1.1,0.9-1.8c-0.1-0.6-0.6-1-1.1-1.3c0.8-1.3,1.7-2.5,2.5-3.8
		c1.5-0.1,3-0.3,4.5-0.3c0.2,1.4,0.7,2.3,2.2,2.8c0.5,0.2,1.1-0.2,1.2-0.7c0.1-0.5-0.2-1.8-0.2-2.7c0.5-0.3,0.8-0.9,0.9-1.7
		c0.1-0.7-0.4-1.4-1.2-1.2c-1.2,0.3-1.7,0.8-2.1,1.6c-1.3,0-2.6,0-3.9,0.1c1-1.5,2-3,3.1-4.4C143.1,432,143.7,431,144.2,430z"/>
	<path class="nav-crown-14-st-3" d="M127.7,423C127.7,423,127.7,422.9,127.7,423c0.2-0.7-0.8-0.9-0.9-0.3l0,0c-0.1,0.1-0.1,0.1-0.1,0.3
		c-0.1,0.5,0,0.8,0.6,0.9c0.2,0,0.4-0.2,0.5-0.4C127.8,423.3,127.8,423.1,127.7,423z"/>
	<path class="nav-crown-14-st-3" d="M134,420c-1,0-1,1,0,1S135,420,134,420z"/>
	<path class="nav-crown-14-st-3" d="M133.6,425.5c-0.4-0.4-0.8-0.6-1.3-0.8c-0.3-0.1-0.6,0.2-0.6,0.5c0,0.6-0.1,1.2,0,1.8c0.1,0.6,1.1,0.4,1-0.3
		c-0.1-0.2,0-0.5,0-0.7c0.1,0.1,0.2,0.2,0.3,0.3C133.3,426.7,134.1,426,133.6,425.5z"/>
	<path class="nav-crown-14-st-4" d="M216.5,455.2c-1.2,0.1-2.3,0.1-3.5,0.2c0.3-0.8,0.5-1.7,0.8-2.5c0.2-0.6-0.8-0.9-1-0.3c-0.3,1-0.6,1.9-0.9,2.9
		c-1.7,0.1-3.5,0.3-5.2,0.5c0.4-1.3,0.9-2.7,1.3-4c0.2-0.6-0.8-0.9-1-0.3c-0.5,1.5-1,3-1.4,4.4c-0.6,0.1-1.2,0.1-1.8,0.2
		s-1.3,0.2-1.9,0.2c0.4-1.8,0.7-3.6,1.1-5.4c0.1-0.6-0.8-0.9-1-0.3c-0.4,1.9-0.8,3.9-1.2,5.8c-1.4,0.2-2.8,0.4-4.2,0.5
		c0.6-2.6,1.3-5.1,2.2-7.6c0.2-0.6-0.7-0.9-1-0.3c-1,2.6-1.7,5.3-2.3,8c-1.8,0.2-3.4,0.3-5.2,0.9c-0.6,0.2-0.3,1.2,0.3,1
		c1.5-0.5,3.1-0.8,4.7-1c-0.3,1-0.5,2-0.8,3c-0.2,0.6,0.8,0.9,1,0.3c0.3-1.1,0.6-2.2,0.9-3.4c1.4-0.1,2.8-0.2,4.2-0.3
		c-0.4,1.8-1,3.5-1.9,5.2c-0.3,0.6,0.6,1.1,0.9,0.5c1-1.8,1.6-3.8,2.1-5.8c0.2,0,0.4,0,0.5-0.1c1-0.2,2.1-0.3,3.1-0.4
		c-0.7,2.3-1.3,4.7-1.6,7.1c-0.1,0.6,0.9,0.6,1,0c0.3-2.5,1-4.9,1.7-7.2c1.7-0.2,3.5-0.4,5.2-0.5c-0.9,3.1-1.7,6.2-2.1,9.5
		c-0.1,0.6,0.9,0.6,1,0c0.4-3.2,1.2-6.4,2.1-9.5c1.3-0.1,2.6-0.2,3.8-0.3C217.1,456.1,217.1,455.1,216.5,455.2z"/>
	<path class="nav-crown-14-st-4" d="M118.3,483.6c-0.6-0.6-1.3-1.2-2-1.8c0.6-0.9,1-2,1.5-2.6c0.3-0.5-0.5-1-0.9-0.5c-0.5,0.8-0.9,1.6-1.4,2.4
		c-0.7-0.6-1.4-1.3-1.9-2c0.9-1.6,1.7-3.6,0.1-5c-0.4-0.4-1.2-0.5-1.6,0c-0.8,0.9-0.6,2.2-0.4,3.2c0.1,0.7,0.4,1.4,0.8,2
		c-0.3,0.5-0.6,1-0.8,1.5c-0.7,1.7,0.2,3.6,2.2,3.3c0.8-0.1,1.4-0.7,1.9-1.3c0.7,0.6,1.3,1.1,1.9,1.7
		C118,484.8,118.7,484.1,118.3,483.6z M112.4,476.3c0-0.3-0.1-2.1,0.6-1.5c0.6,0.5,0.5,1.7,0.3,2.3c-0.1,0.3-0.2,0.7-0.4,1
		C112.7,477.5,112.5,476.9,112.4,476.3z M113,483c-1.4-0.3-0.4-2.2-0.1-2.9V480c0.6,0.7,1.2,1.3,1.9,1.9
		C114.4,482.5,113.8,483.1,113,483z"/>
	<path class="nav-crown-14-st-4" d="M221.8,427.1L221.8,427.1c-0.1-0.1-0.2-0.2-0.3-0.2c-1.1-0.5-1.9-1.3-2.8-2l0,0l0,0l-0.1-0.1
		c-0.2-0.2-0.5-0.1-0.6,0.2c-0.5-0.2-1,0.4-0.6,0.8c0.1,0.1,0.2,0.2,0.3,0.3c0,0.1,0,0.2,0.1,0.3c0.3,0.3,0.6,0.6,0.8,0.8
		c-10.3,0-21.1,0.3-32,0.4c0.2-0.1,0.3-0.4,0.1-0.6c-0.5-0.8-1.2-1.6-1.7-2.5c-0.3-0.6-1.2-0.1-0.9,0.5c0.5,0.9,1.2,1.6,1.7,2.5
		c0,0.1,0.1,0.1,0.1,0.1c-0.5,0-0.9,0-1.4,0c0-0.1,0-0.2-0.1-0.3c-0.5-0.8-1.1-1.6-1.8-2.3c-0.5-0.5-1.2,0.2-0.7,0.7
		c0.6,0.6,1.1,1.2,1.5,1.9c-0.5,0-1,0-1.5,0c0,0,0,0,0-0.1c-0.4-0.8-1-1.5-1.6-2.1c-0.5-0.5-1.2,0.2-0.7,0.7
		c0.4,0.4,0.8,0.9,1.2,1.4c-0.3,0-0.7,0-1,0v1c0.5,0,1,0,1.4,0c-0.6,0.5-1.2,1.2-1.5,1.9c-0.3,0.6,0.6,1.1,0.9,0.5
		c0.4-0.7,0.9-1.3,1.5-1.7c0.2-0.2,0.2-0.5,0-0.6c0.4,0,0.8,0,1.2,0l0,0c-0.3,0.5-0.7,0.9-1.1,1.4s0.5,1,0.9,0.5
		c0.3-0.5,0.7-0.9,1.1-1.4c0.1-0.2,0.1-0.4,0-0.5c0.7,0,1.3,0,2,0c0,0,0,0-0.1,0.1c-0.5,0.6-0.9,1.3-1.2,2c-0.3,0.6,0.6,1.1,0.9,0.5
		c0.4-0.7,0.8-1.4,1.2-2c0.2-0.2,0.1-0.4-0.1-0.6c11-0.1,21.8-0.4,32.1-0.4c-0.2,0.6-1.2,1.6-1.5,1.9c-0.4,0.5,0.3,1.2,0.7,0.7l0,0
		h0.1c0.2,0.2,0.5,0.3,0.7,0.1c0.9-0.9,1.9-1.7,2.4-2.8C222,427.9,222.2,427.3,221.8,427.1z"/>
</g>
</svg>
