<?xml version="1.0" encoding="utf-8"?>
<!-- Generator: Adobe Illustrator 19.1.0, SVG Export Plug-In . SVG Version: 6.00 Build 0)  -->
<svg version="1.1" id="Layer_1" xmlns="http://www.w3.org/2000/svg" xmlns:xlink="http://www.w3.org/1999/xlink" x="0px" y="0px"
	 viewBox="-65 292 480 210" style="enable-background:new -65 292 480 210;" xml:space="preserve">
<style type="text/css">
	.nav-crown-16-st-0{display:none;}
	.nav-crown-16-st-1{display:inline;fill:#0E5941;}
	.nav-crown-16-st-2{fill:#FCDCA4;}
	.nav-crown-16-st-3{fill:#D72050;}
</style>
<g id="Layer_1_1_" class="nav-crown-16-st-0">
	<path class="nav-crown-16-st-1" d="M263,1041.4c0,84.3-68.3,152.6-152.6,152.6h-0.7C25.3,1194-43,1125.7-43,1041.4V817.6
		C-43,733.3,25.3,665,109.6,665h0.7c84.3,0,152.6,68.3,152.6,152.6L263,1041.4L263,1041.4z"/>
</g>
<g>
	<path class="nav-crown-16-st-2" d="M73.2,434.7c-2.2-7.1-9-11.5-15.3-14.7c-9.4-4.8-19.6-7.9-29.3-12.1c-10.3-4.4-20.8-10.1-26.9-19.8
		c-5.4-8.6-3.2-21.2-2.3-30.7c1.9-20.9,1.9-35.6,4.5-56.5c0.2-1.3-1.5-2.1-2.4-1.1c-5.7,6.7-8.3,8.1-12,16
		c-4.1,8.7-8.5,17.3-12.5,26c-6.4,14-10.4,27.9-10.6,43.3c-0.3,23.8,8.5,48.3,25.6,65c1.2,1.7,2.5,3.4,3.9,4.8
		c0.1,0.1,0.1,0.2,0.2,0.2c0.2,0.2,0.4,0.3,0.5,0.4c0.3,0.2,0.5,0.4,0.8,0.6c9.4,7.3,17.6,16.2,29.2,20c8.1,2.6,16.7,2.3,24.6-0.8
		C65.8,469.6,78.1,450.3,73.2,434.7z"/>
	<path class="nav-crown-16-st-3" d="M0.7,347.1c0-1.5,0-3,0.1-4.5c0-0.2-0.2-0.4-0.4-0.4c-3.9-0.8-7.7-1.6-11.5-2.8c-0.6-0.2-1.3-0.4-1.9-0.5
		c-0.3-0.1-0.6-0.2-0.9-0.2c-1.2-0.3-2.4-0.3-3.6-0.5c-1.1-0.2-2.1-0.6-3.3-0.5c-1.2,0.1-1.6,1.9-1.9,2.8c-0.3,0.7-1,1.6-0.7,2.2
		c0,0.2,0.1,0.4,0.3,0.4c2,0.4,4,0.8,5.9,1.3c2.2,0.5,4.2,1.4,6.4,1.7c3.6,0.6,7.3,1.6,10.9,1.5C0.5,347.6,0.7,347.3,0.7,347.1z"/>
	<path class="nav-crown-16-st-3" d="M-0.6,361.1c0.1-0.7,0.7-2.3,0.2-3c-0.5-0.6-0.9-0.7-1.7-0.8c-1.7-0.2-3.4-0.4-5.1-0.6
		c-4.2-0.7-8.4-1.1-12.6-2c-1.8-0.4-3.4-0.9-5.1-1.6c-0.7-0.3-1.8-0.7-2.5-0.3c-1.5,0.8-2,3.1-2.4,5.1c-0.3,0.6-0.6,1.4-0.5,2.1
		c-0.1,0.2-0.1,0.6,0.3,0.7c3.7,1.2,7.2,2.6,11.1,3.1c4.2,0.5,8.4,0.9,12.6,1.5c1,0.1,4.7,1.3,5.3-0.1C-0.4,364-0.7,362.3-0.6,361.1
		z"/>
	<path class="nav-crown-16-st-2" d="M58.4,476.7c-3.7,4-8.1,5.9-13.4,6.5c-4.7,0.5-9.5,0.2-14.3,0.9c-0.6,0.1-0.6,1.1,0,1c5.2-0.7,10.4-0.3,15.6-1
		c5-0.7,9.3-2.9,12.7-6.6C59.6,476.9,58.8,476.2,58.4,476.7z"/>
	<path class="nav-crown-16-st-2" d="M72.9,461.2c-2.5,2.5-5.4,4.8-6.6,8.2c-0.2,0.6,0.7,0.9,1,0.3c1.2-3.2,4-5.5,6.4-7.8
		C74.1,461.4,73.4,460.7,72.9,461.2z"/>
	<path class="nav-crown-16-st-2" d="M77.8,446c0,2.7-0.5,5.3-1,7.9c-0.1,0.6,0.8,0.9,1,0.3c0.5-2.7,1-5.4,1-8.1C78.8,445.4,77.8,445.4,77.8,446z"
		/>
	<path class="nav-crown-16-st-2" d="M80.2,438.3c-2.8-6.2-5.4-14-11.9-17.3c5.3-2.5,7,5.4,10.7,8c0.3,0.2,0.6,0,0.7-0.3c1.5-4.9-2.8-11.2-7.2-13.1
		c-0.6-0.3-1.1,0.6-0.5,0.9c3.8,1.6,7.7,6.8,6.9,11.2c-3.9-3.3-5.5-11.2-11.9-7.1c-0.4,0.3-0.3,0.7,0.1,0.9
		c6.8,2.8,9.4,11.1,12.2,17.3C79.6,439.4,80.5,438.8,80.2,438.3z"/>
	<path class="nav-crown-16-st-2" d="M84.3,451.4c-0.6,3.4-1.5,6.8-2.7,10.1c-1.1,3-3.1,7.5-6.7,8c3.9-12.2,15.2-23.9,6.7-36.7
		c-0.4-0.5-1.2,0-0.9,0.5c8.4,12.7-3.5,24.5-7.1,36.6c-0.1,0.3,0.2,0.6,0.5,0.6c3.8,0.1,6-3.4,7.4-6.5c1.8-3.9,2.8-8.2,3.6-12.4
		C85.4,451,84.4,450.7,84.3,451.4z"/>
	<path class="nav-crown-16-st-2" d="M69.9,472.2c-1.1,1.4-2.4,2.6-3.9,3.7c-1.3,0.7-2.7,1.1-3.7,2.4c-0.3,0.4,0.3,0.9,0.7,0.7
		c1.3-0.7,2.5-1.4,3.6-2.3c0.1-0.1,0.3-0.1,0.4-0.2c0.1-0.1,0.1-0.1,0.2-0.2c1.2-1,2.4-2.1,3.4-3.4C71,472.4,70.3,471.7,69.9,472.2z
		"/>
	<path class="nav-crown-16-st-2" d="M42.3,489c-4.3,0.1-9.2,1.6-13.4,0c-0.6-0.2-0.9,0.7-0.3,1c4.3,1.6,9.2,0.1,13.6,0C42.9,490,42.9,489,42.3,489
		z"/>
	<path class="nav-crown-16-st-2" d="M55.6,485.5c-2.3,0.9-4.6,1.4-7,2c-0.6,0.2-0.4,1.1,0.3,1c2.4-0.6,4.7-1.1,7-2
		C56.5,486.3,56.2,485.3,55.6,485.5z"/>
	<path class="nav-crown-16-st-2" d="M47.1,490.5c-2,0.6-4,1.1-6,1.5c-0.6,0.1-0.4,1.1,0.3,1c2-0.4,4-0.9,6-1.5C48,491.3,47.7,490.3,47.1,490.5z"/>
	<path class="nav-crown-16-st-2" d="M32.8,494.5c0,0-1.8,0-2.6,0.6c-0.5,0.4,0.1,1.1,0.6,0.7c0.5-0.5,2-0.4,2-0.4
		C33.8,495.5,33.8,494.5,32.8,494.5z"/>
	<path class="nav-crown-16-st-2" d="M65.4,484.7c-1.3,1.3-2.9,2-4.4,2.9c-0.5,0.3,0,1.2,0.5,0.9c1.6-1,3.2-1.8,4.6-3.1
		C66.6,484.9,65.9,484.2,65.4,484.7z"/>
	<path class="nav-crown-16-st-2" d="M87.3,463.3c-3,4.9-7.9,7.5-11.4,11.9c-0.3,0.3,0,1,0.5,0.8c1.7-0.6,2.6-1.1,2.2,0.9c-0.2,1.1-0.8,2.1-1.4,3
		c-1.3,2-3.7,3.9-6.1,3.4c0.8-1.4,0.9-3,1.6-4.5c0.2-0.3,0-0.8-0.4-0.8c-2.4,0.1-4.1,1-5.9,2.6c-0.5,0.4,0.2,1.2,0.7,0.7
		c1.3-1.3,2.6-2,4.4-2.3c-0.5,1.4-0.6,2.9-1.6,4.1c-0.3,0.3-0.1,0.7,0.2,0.8c4.9,2,9.9-4.6,9.6-9c0-0.3-0.2-0.5-0.5-0.5
		c-0.6,0-1.1,0-1.5,0.1c3.4-3.7,7.8-6.4,10.5-10.9C88.5,463.2,87.7,462.7,87.3,463.3z"/>
	<path class="nav-crown-16-st-2" d="M87.9,430.7c-1.3-6.8-4.9-12.5-10.4-16.6c-0.5-0.4-1,0.5-0.5,0.9c11.9,8.8,10.8,23.3,11.3,36.6
		c0,0.6,1,0.6,1,0C89,444.6,89.3,437.5,87.9,430.7z"/>
	<path class="nav-crown-16-st-2" d="M57.5,490.1c-2.4,1.4-4.8,2.9-7.4,3.9c-0.6,0.2-0.3,1.2,0.3,1c2.7-1.1,5.1-2.6,7.6-4.1
		C58.6,490.6,58.1,489.7,57.5,490.1z"/>
	<path class="nav-crown-16-st-2" d="M62.7,491.8c-0.2-0.3-0.7-0.3-1-0.3c-0.3,0-0.4,0.2-0.5,0.4c-0.2,0-0.4,0.1-0.5,0.1c-0.6,0-0.6,1,0,1
		c0.6,0,1.2-0.2,1.7-0.4C62.8,492.5,62.9,492.1,62.7,491.8z"/>
	<path class="nav-crown-16-st-2" d="M70.9,487.2c-0.4,0.5-0.6,1.1-1,1.5c-0.4,0.5,0.3,1.2,0.7,0.7c0.4-0.5,0.6-1.1,1-1.5
		C72.1,487.4,71.3,486.7,70.9,487.2z"/>
	<path class="nav-crown-16-st-2" d="M84.9,473.2l-1.5,1.5c-0.5,0.5,0.3,1.2,0.7,0.7l1.5-1.5C86.1,473.4,85.4,472.7,84.9,473.2z"/>
	<path class="nav-crown-16-st-2" d="M91.8,465c-0.6,0-0.6,1,0,1C92.4,466,92.4,465,91.8,465z"/>
	<path class="nav-crown-16-st-2" d="M87.8,457.5c-0.6,0-0.6,1,0,1C88.4,458.5,88.4,457.5,87.8,457.5z"/>
	<path class="nav-crown-16-st-2" d="M93.8,457v1C94.8,458,94.8,457,93.8,457z"/>
	<path class="nav-crown-16-st-2" d="M94.8,444.5v1C95.8,445.5,95.8,444.5,94.8,444.5z"/>
	<path class="nav-crown-16-st-2" d="M93.8,426v1C94.8,427,94.8,426,93.8,426z"/>
	<path class="nav-crown-16-st-2" d="M276.8,432.7c2.2-7.1,9-11.5,15.3-14.7c9.4-4.8,19.6-7.9,29.3-12.1c10.3-4.4,20.8-10.1,26.9-19.8
		c5.4-8.6,3.2-21.2,2.3-30.7c-1.9-20.9-1.9-35.6-4.5-56.5c-0.2-1.3,1.5-2.1,2.4-1.1c5.7,6.7,8.3,8.1,12,16c4.1,8.7,8.5,17.3,12.5,26
		c6.4,14,10.4,27.9,10.6,43.3c0.3,23.8-8.5,48.3-25.6,65c-1.2,1.7-2.5,3.4-3.9,4.8c-0.1,0.1-0.1,0.2-0.2,0.2
		c-0.2,0.2-0.4,0.3-0.5,0.4c-0.3,0.2-0.5,0.4-0.8,0.6c-9.4,7.3-17.6,16.2-29.2,20c-8.1,2.6-16.7,2.3-24.6-0.8
		C284.2,467.6,271.9,448.3,276.8,432.7z"/>
	<path class="nav-crown-16-st-3" d="M349.7,345.6c3.6,0,7.4-1,10.9-1.5c2.2-0.4,4.2-1.2,6.4-1.7c2-0.4,4-0.8,5.9-1.3c0.2-0.1,0.3-0.2,0.3-0.4
		c0.3-0.7-0.4-1.6-0.7-2.2c-0.3-0.9-0.7-2.6-1.9-2.8c-1.1-0.1-2.2,0.3-3.3,0.5c-1.2,0.2-2.4,0.3-3.6,0.5c-0.3,0.1-0.6,0.2-0.9,0.2
		c-0.6,0.1-1.3,0.3-1.9,0.5c-3.8,1.2-7.6,2.1-11.5,2.8c-0.2,0-0.4,0.2-0.4,0.4c0.1,1.5,0.1,3,0.1,4.5
		C349.3,345.3,349.5,345.6,349.7,345.6z"/>
	<path class="nav-crown-16-st-3" d="M350.9,363.1c0.7,1.4,4.3,0.3,5.3,0.1c4.2-0.6,8.4-1,12.6-1.5c3.9-0.5,7.3-1.9,11.1-3.1
		c0.3-0.1,0.4-0.5,0.3-0.7c0.1-0.7-0.2-1.4-0.5-2.1c-0.3-2-0.9-4.3-2.4-5.1c-0.7-0.4-1.8,0-2.5,0.3c-1.7,0.7-3.3,1.2-5.1,1.6
		c-4.1,0.9-8.4,1.4-12.6,2c-1.7,0.3-3.4,0.4-5.1,0.6c-0.8,0.1-1.2,0.1-1.7,0.8c-0.5,0.7,0.2,2.3,0.2,3
		C350.7,360.3,350.4,362,350.9,363.1z"/>
	<path class="nav-crown-16-st-2" d="M291.6,474.7c3.7,4,8.1,5.9,13.4,6.5c4.7,0.5,9.5,0.2,14.3,0.9c0.6,0.1,0.6,1.1,0,1c-5.2-0.7-10.4-0.3-15.6-1
		c-5-0.7-9.3-2.9-12.7-6.6C290.4,474.9,291.2,474.2,291.6,474.7z"/>
	<path class="nav-crown-16-st-2" d="M277.1,459.2c2.5,2.5,5.4,4.8,6.6,8.2c0.2,0.6-0.7,0.9-1,0.3c-1.2-3.2-4-5.5-6.4-7.8
		C275.9,459.4,276.6,458.7,277.1,459.2z"/>
	<path class="nav-crown-16-st-2" d="M272.2,444c0,2.7,0.5,5.3,1,7.9c0.1,0.6-0.8,0.9-1,0.3c-0.5-2.7-1-5.4-1-8.1
		C271.2,443.4,272.2,443.4,272.2,444z"/>
	<path class="nav-crown-16-st-2" d="M269.8,436.3c2.8-6.2,5.4-14,11.9-17.3c-5.3-2.5-7,5.4-10.7,8c-0.3,0.2-0.6,0-0.7-0.3
		c-1.5-4.9,2.8-11.2,7.2-13.1c0.6-0.3,1.1,0.6,0.5,0.9c-3.8,1.6-7.7,6.8-6.9,11.2c3.9-3.3,5.5-11.2,11.9-7.1
		c0.4,0.3,0.3,0.7-0.1,0.9c-6.8,2.8-9.4,11.1-12.2,17.3C270.4,437.4,269.5,436.8,269.8,436.3z"/>
	<path class="nav-crown-16-st-2" d="M265.7,449.4c0.6,3.4,1.5,6.8,2.7,10.1c1.1,3,3.1,7.5,6.7,8c-3.9-12.2-15.2-23.9-6.7-36.7
		c0.4-0.5,1.2,0,0.9,0.5c-8.4,12.7,3.5,24.5,7.1,36.6c0.1,0.3-0.2,0.6-0.5,0.6c-3.8,0.1-6-3.4-7.4-6.5c-1.8-3.9-2.8-8.2-3.6-12.4
		C264.6,449,265.6,448.7,265.7,449.4z"/>
	<path class="nav-crown-16-st-2" d="M280.1,470.2c1.1,1.4,2.4,2.6,3.9,3.7c1.3,0.7,2.7,1.1,3.7,2.4c0.3,0.4-0.3,0.9-0.7,0.7
		c-1.3-0.7-2.5-1.4-3.6-2.3c-0.1-0.1-0.3-0.1-0.4-0.2c-0.1-0.1-0.1-0.1-0.2-0.2c-1.2-1-2.4-2.1-3.4-3.4
		C279,470.4,279.7,469.7,280.1,470.2z"/>
	<path class="nav-crown-16-st-2" d="M307.7,487c4.3,0.1,9.2,1.6,13.4,0c0.6-0.2,0.9,0.7,0.3,1c-4.3,1.6-9.2,0.1-13.6,0
		C307.1,488,307.1,487,307.7,487z"/>
	<path class="nav-crown-16-st-2" d="M294.4,483.5c2.3,0.9,4.6,1.4,7,2c0.6,0.2,0.4,1.1-0.3,1c-2.4-0.6-4.7-1.1-7-2
		C293.5,484.3,293.8,483.3,294.4,483.5z"/>
	<path class="nav-crown-16-st-2" d="M302.9,488.5c2,0.6,4,1.1,6,1.5c0.6,0.1,0.4,1.1-0.3,1c-2-0.4-4-0.9-6-1.5C302,489.3,302.3,488.3,302.9,488.5z
		"/>
	<path class="nav-crown-16-st-2" d="M316.8,492.5c0,0,2.1,0,2.8,0.6c0.5,0.4-0.2,1.1-0.7,0.7c-0.5-0.5-2.1-0.4-2.1-0.4
		C315.8,493.5,315.8,492.5,316.8,492.5z"/>
	<path class="nav-crown-16-st-2" d="M284.6,482.7c1.3,1.3,2.9,2,4.4,2.9c0.5,0.3,0,1.2-0.5,0.9c-1.6-1-3.2-1.8-4.6-3.1
		C283.4,482.9,284.1,482.2,284.6,482.7z"/>
	<path class="nav-crown-16-st-2" d="M262.7,461.3c3,4.9,7.9,7.5,11.4,11.9c0.3,0.3,0,1-0.5,0.8c-1.7-0.6-2.6-1.1-2.2,0.9c0.2,1.1,0.8,2.1,1.4,3
		c1.3,2,3.7,3.9,6.1,3.4c-0.8-1.4-0.9-3-1.6-4.5c-0.2-0.3,0-0.8,0.4-0.8c2.4,0.1,4.1,1,5.9,2.6c0.5,0.4-0.2,1.2-0.7,0.7
		c-1.3-1.3-2.6-2-4.4-2.3c0.5,1.4,0.6,2.9,1.6,4.1c0.3,0.3,0.1,0.7-0.2,0.8c-4.9,2-9.9-4.6-9.6-9c0-0.3,0.2-0.5,0.5-0.5
		c0.6,0,1.1,0,1.5,0.1c-3.4-3.7-7.8-6.4-10.5-10.9C261.5,461.2,262.3,460.7,262.7,461.3z"/>
	<path class="nav-crown-16-st-2" d="M262.1,428.7c1.3-6.8,4.9-12.5,10.4-16.6c0.5-0.4,1,0.5,0.5,0.9c-11.9,8.8-10.8,23.3-11.3,36.6
		c0,0.6-1,0.6-1,0C261,442.6,260.7,435.5,262.1,428.7z"/>
	<path class="nav-crown-16-st-2" d="M292.5,488.1c2.4,1.4,4.8,2.9,7.4,3.9c0.6,0.2,0.3,1.2-0.3,1c-2.7-1.1-5.1-2.6-7.6-4.1
		C291.4,488.6,291.9,487.7,292.5,488.1z"/>
	<path class="nav-crown-16-st-2" d="M287.5,490.6c0.5,0.2,1.1,0.4,1.7,0.4c0.6,0,0.6-1,0-1c-0.2,0-0.4,0-0.5-0.1c0-0.2-0.2-0.4-0.5-0.4
		c-0.3,0-0.8,0-1,0.3C287.1,490.1,287.2,490.5,287.5,490.6z"/>
	<path class="nav-crown-16-st-2" d="M279.1,485.2c0.4,0.5,0.6,1.1,1,1.5c0.4,0.5-0.3,1.2-0.7,0.7c-0.4-0.5-0.6-1.1-1-1.5
		C277.9,485.4,278.7,484.7,279.1,485.2z"/>
	<path class="nav-crown-16-st-2" d="M265.1,471.2l1.5,1.5c0.5,0.5-0.3,1.2-0.7,0.7l-1.5-1.5C263.9,471.4,264.6,470.7,265.1,471.2z"/>
	<path class="nav-crown-16-st-2" d="M257.8,463c1,0,1,1,0,1V463z"/>
	<path class="nav-crown-16-st-2" d="M261.8,455.5c1,0,1,1,0,1V455.5z"/>
	<path class="nav-crown-16-st-2" d="M255.8,455v1C254.8,456,254.8,455,255.8,455z"/>
	<path class="nav-crown-16-st-2" d="M254.8,442.5v1C253.8,443.5,253.8,442.5,254.8,442.5z"/>
	<path class="nav-crown-16-st-2" d="M255.8,424v1C254.8,425,254.8,424,255.8,424z"/>
	<path class="nav-crown-16-st-2" d="M105.5,411.1c-6-6.6-14.4-10.3-17.9-19c-2.6-6.5-3-13.5-6-19.9c-2.5-5.1-6.9-7.8-11.7-10.4
		c-3.8-2.1-7.5-4.4-9.7-8.3c-2-3.6-1.9-8.4-2.5-12.4c-0.2-1.3-2.2-1.3-2,0c0.8,6,1,11.9,5.1,16.8c4.8,5.7,13,6.7,17.6,12.8
		c5,6.8,4.5,15.9,7.9,23.4c3.8,8.2,11.9,11.9,17.8,18.3C104.9,413.5,106.3,412.1,105.5,411.1z"/>
	<path class="nav-crown-16-st-2" d="M112.6,396.7c-5.8-3.5-5.1-9.7-6.3-15.5c-1.2-5.8-3.7-11.1-6.7-16.1c-3.3-5.6-5.2-11.4-7.3-17.5
		c-1.8-5.2-6.8-9.9-6.2-15.7c0.1-1.3-1.9-1.3-2,0c-0.6,5.8,3.7,9.5,5.7,14.6c2.6,6.7,4.3,13.4,8.1,19.6c4.2,6.8,6.5,14,7.5,21.8
		c0.6,4.8,1.9,8,6.2,10.5C112.7,399,113.7,397.3,112.6,396.7z"/>
	<path class="nav-crown-16-st-2" d="M132.6,399.3c-2.8-3.9-6.1-7.6-6.1-12.7c0-3.7,1.8-7.3,0.8-11.1c-2.1-7.6-7.7-13.5-10-21
		c-0.4-1.2-2.3-0.7-1.9,0.5c2.5,8.2,10.2,15.1,10.2,23.9c0,3.5-2,7.5-0.8,11.1c1.3,3.9,3.7,6.9,6.1,10.2
		C131.6,401.4,133.4,400.4,132.6,399.3z"/>
	<path class="nav-crown-16-st-2" d="M144,386.7c-3-6.3-0.9-12.1-1-18.7c0-3.5-1.4-6.6-2.9-9.7c-2.8-5.5-4.5-10.5-5.6-16.5
		c-1.2-6.8-3.8-13.3-4.1-20.3c0-1.3-2-1.3-2,0c0.2,6.1,2.2,11.7,3.5,17.6c1.3,5.6,1.8,11,4.3,16.3c2.6,5.3,5,9.4,4.7,15.5
		c-0.3,6.1-1.4,11.1,1.3,16.8C142.8,388.9,144.5,387.8,144,386.7z"/>
	<path class="nav-crown-16-st-2" d="M163.6,356.8c-0.4-7.1-4.2-13.5-4.8-20.8c-0.5-7.1,0.7-14.4,1.3-21.5c0.1-1.3-1.9-1.3-2,0
		c-0.6,7.2-1.6,14.3-1.3,21.5c0.3,7.8,4.4,14.5,4.9,22.2c0.4,6.4-2,12.5-2.8,18.8c-0.8,6.1-0.1,11.6,2.7,17.1c0.6,1.1,2.3,0.1,1.7-1
		C157.1,380.9,164.4,369.3,163.6,356.8z"/>
	<path class="nav-crown-16-st-2" d="M182,355.3c-1-5.4-3.8-10.3-3.6-15.9c0.2-3.1,1.5-6.3,2-9.3c0.5-2.8,0.6-5.7,0.6-8.5c0-1.3-2-1.3-2,0
		c-0.1,6.2-1.9,11.8-2.6,17.8c-0.7,5.2,2,10.3,3.4,15.1c1.4,5.1-1.3,10.5-3,15.1c-1.6,4.4-1.9,8.7-0.4,13.2c0.4,1.2,2.3,0.7,1.9-0.5
		C175.1,372.5,183.8,364.8,182,355.3z"/>
	<path class="nav-crown-16-st-2" d="M196.8,365.5c-0.3-10.3,7.1-19.9,4-30.3c-0.4-1.2-2.3-0.7-1.9,0.5c3,10.1-4.3,20.7-4,31.1
		c0.1,4.9-2.6,9.7-4.2,14.2c-1.4,4.1-1.6,8.2-0.5,12.4c0.3,1.2,2.3,0.7,1.9-0.5C189.5,383,197,375.2,196.8,365.5z"/>
	<path class="nav-crown-16-st-2" d="M222.1,323.1c-3.3,3.1-3.6,7.1-4,11.4c-0.6,7-3.2,12.9-7,18.8c-3.6,5.6-3.1,10.5-3.4,16.9
		c-0.3,6.3-4.6,10.7-3.6,17.3c0.2,1.3,2.1,0.7,1.9-0.5c-0.9-5.9,2.9-9.7,3.5-15.2c0.3-2.5,0.2-5,0.2-7.5c-0.1-4.4,1.6-7.5,3.9-11.2
		c2.4-3.8,4.3-7.7,5.4-12.1c1.3-5.4,0.1-12.2,4.4-16.3C224.4,323.7,223,322.3,222.1,323.1z"/>
	<path class="nav-crown-16-st-2" d="M240.4,328.2c-0.9,6.6-2.9,12.7-6.3,18.4c-2.3,3.9-6.1,7-7.8,11.3c-1.9,4.7-1.3,9.9-2.7,14.7
		c-1.5,5.1-4.9,8.8-4.8,14.2c0,1.3,2,1.3,2,0c-0.1-5.4,3.7-9.9,5.1-15c1.5-5.3,0.6-10.6,3.5-15.6c2.7-4.5,6.4-8.1,8.8-12.8
		c2.4-4.8,3.6-10.1,4.3-15.3C242.6,326.9,240.6,326.9,240.4,328.2z"/>
	<path class="nav-crown-16-st-2" d="M259.8,332.9c-1.8,7.1-6.3,11.7-10.6,17.4c-3.7,5-5.3,10-6.3,16.1c-1.1,6.8-3.3,11.7-7.4,17.2
		c-3.5,4.6-6.5,9.1-7.4,14.9c-0.2,1.3,1.7,1.8,1.9,0.5c0.9-6.1,4.3-10.7,7.9-15.5c3.7-4.9,5.6-9.3,6.6-15.3
		c1.3-7.5,3.1-13.1,8.1-19.1c4-4.8,7.5-9.7,9.1-15.8C262.1,332.2,260.1,331.7,259.8,332.9z"/>
	<path class="nav-crown-16-st-2" d="M267.9,357c-2.5,4.7-6.4,8.2-9.8,12.1c-2.3,2.7-3.1,5.9-3.7,9.2c-1,4.9-3.4,7.7-6.9,11c-2.2,2-3.8,4.2-4.3,7.2
		c-0.2,1.3,1.7,1.8,1.9,0.5c0.7-3.9,3.7-6.1,6.4-8.7c2.4-2.3,3.6-5,4.5-8.1c1.4-5,2-8.2,5.7-12.2c3-3.2,5.9-6.1,7.9-10.1
		C270.2,356.9,268.5,355.9,267.9,357z"/>
	<path class="nav-crown-16-st-2" d="M277.9,373.3c-3.8,5.7-7.4,11.4-12.5,16.1c-4.1,3.7-8.4,6.1-9.9,11.8c-0.3,1.2,1.6,1.8,1.9,0.5
		c1.6-6.2,7.6-9,11.8-13.2c4.2-4.1,7.2-9.3,10.4-14.2C280.3,373.3,278.6,372.3,277.9,373.3z"/>
	<path class="nav-crown-16-st-2" d="M278.3,395.3c-3,1.4-5.7,3.6-8.2,5.7c-2,1.7-4.8,4.1-5.3,6.8c-0.2,1.3,1.7,1.8,1.9,0.5
		c0.4-2.6,3.4-4.8,5.2-6.4c2.2-1.9,4.7-3.7,7.3-5C280.4,396.5,279.4,394.8,278.3,395.3z"/>
	<path class="nav-crown-16-st-2" d="M88.3,411.3c-3-1.5-5.7-3.2-7.9-5.8c-2.1-2.4-3.3-5.3-5.3-7.7c-4.1-4.7-11.5-5.1-16.4-8.5
		c-1.1-0.7-2.1,1-1,1.7c5.7,4,13.4,4.2,17.6,10.3c3.6,5.1,6.2,8.8,12,11.7C88.4,413.6,89.4,411.9,88.3,411.3z"/>
	<path class="nav-crown-16-st-2" d="M101.7,392.9c-7.1-1.9-6.5-11.2-9.4-16.5c-0.6-1.1-2.3-0.1-1.7,1c3.3,6.1,2.5,15.3,10.6,17.5
		C102.4,395.1,102.9,393.2,101.7,392.9z"/>
	<path class="nav-crown-16-st-2" d="M119.1,385.1c-3.3-3-1.7-8-4.2-11.5c-0.7-1-2.5,0-1.7,1c2.6,3.6,0.9,8.6,4.5,11.9
		C118.7,387.4,120.1,386,119.1,385.1z"/>
	<path class="nav-crown-16-st-2" d="M137.7,378.9c-2.5-10.7-9.2-19.6-12.3-30c-0.4-1.2-2.3-0.7-1.9,0.5c3.2,10.4,9.9,19.3,12.3,30
		C136.1,380.7,138,380.2,137.7,378.9z"/>
	<path class="nav-crown-16-st-2" d="M151.4,352.2c-0.3-1.3-2.2-0.7-1.9,0.5c1.7,8.2,0.8,16.5,1.6,24.7c0.1,1.3,2.1,1.3,2,0
		C152.3,369.1,153.2,360.6,151.4,352.2z"/>
	<path class="nav-crown-16-st-2" d="M170.4,334.1c0.4-1.2-1.5-1.7-1.9-0.5c-2.8,8.2,1.6,15.7,1.6,23.9c0,7.6-6.5,12.9-4,20.9
		c0.4,1.2,2.3,0.7,1.9-0.5c-2.3-7.3,3.3-13.3,4-20.4C172.9,349.4,167.6,342.3,170.4,334.1z"/>
	<path class="nav-crown-16-st-2" d="M190.4,345.2c-0.1-1.3-2.1-1.3-2,0c1,10.7-2.2,20.9-4,31.4c-0.2,1.3,1.7,1.8,1.9,0.5
		C188.2,366.4,191.5,356.1,190.4,345.2z"/>
	<path class="nav-crown-16-st-2" d="M202.8,358.8c0-1.3-2-1.3-2,0c-0.2,5.9-3.9,13.8-1.2,19.5c0.6,1.2,2.3,0.1,1.7-1c-1.3-2.7-0.2-6.9,0.3-9.7
		C202,364.7,202.7,361.8,202.8,358.8z"/>
	<path class="nav-crown-16-st-2" d="M219.9,358.7c-2,3.5-2.3,6.9-2.8,10.8c-0.6,3.9-3.3,7-3,11c0.1,1.3,2.1,1.3,2,0c-0.3-3.3,1.8-6,2.6-9.1
		c1.1-4,0.7-8,2.9-11.8C222.3,358.6,220.5,357.6,219.9,358.7z"/>
	<path class="nav-crown-16-st-2" d="M240.6,348.7c-4,5.3-4.5,11.8-7.1,17.7c-2.7,6.2-5.5,12.4-7.7,18.8c-0.4,1.2,1.5,1.8,1.9,0.5
		c2.3-6.9,5.4-13.4,8.2-20.1c2.3-5.4,2.7-11.2,6.3-16C243.1,348.7,241.3,347.7,240.6,348.7z"/>
	<path class="nav-crown-16-st-2" d="M254.4,360.1c-4.3,5.1-4.4,11.2-6.3,17.3c-1.9,6.2-8.5,9.3-10.3,15.8c-0.4,1.2,1.6,1.8,1.9,0.5
		c1.6-5.8,6.9-8.9,9.6-14.1c3.1-6,1.9-12.6,6.5-18.1C256.6,360.6,255.2,359.2,254.4,360.1z"/>
	<path class="nav-crown-16-st-2" d="M261.5,377.9c-2.4,7.3-8.9,12.3-11.3,19.7c-0.4,1.2,1.5,1.8,1.9,0.5c2.4-7.3,8.9-12.3,11.3-19.7
		C263.8,377.2,261.9,376.7,261.5,377.9z"/>
	<path class="nav-crown-16-st-2" d="M282.9,381.3c-4.9,3.7-9.5,7.6-13.5,12.2c-3.1,3.5-7.6,5.1-9.3,9.8c-0.4,1.2,1.5,1.7,1.9,0.5
		c1.5-4.3,6.8-6.7,9.7-10c3.6-4.1,7.8-7.5,12.1-10.7C285,382.3,284,380.5,282.9,381.3z"/>
	<path class="nav-crown-16-st-2" d="M274.7,404.1c-1.5,1.2-2.8,2.9-3.3,4.8c-0.3,1.3,1.6,1.8,1.9,0.5c0.4-1.6,1.5-2.9,2.7-3.9
		C277.2,404.8,275.7,403.4,274.7,404.1z"/>
	<path class="nav-crown-16-st-2" d="M88.6,403c-6.2-4.4-7.7-12-13.1-16.9c-2.2-2-5.3-3-7.9-4.3c-3.4-1.8-5.6-5-8.1-7.7c-0.9-0.9-2.3,0.5-1.4,1.4
		c2,2.1,3.7,4.6,6,6.3c3.6,2.6,7.9,3.8,11.2,6.8c2.7,2.4,4.2,6.6,6.1,9.6c1.6,2.6,3.7,4.7,6.2,6.5C88.6,405.5,89.6,403.7,88.6,403z"
		/>
	<path class="nav-crown-16-st-2" d="M117.3,419c-3,0-5.5,2.5-5.5,5.5v0.5c0,3,2.5,5.5,5.5,5.5c3,0,5.5-2.5,5.5-5.5v-0.5
		C122.8,421.5,120.3,419,117.3,419z"/>
	<path class="nav-crown-16-st-2" d="M124.7,405.5l-0.5-0.5c-1.3-1.3-3.6-1.3-4.9,0c-1.3,1.3-1.3,3.6,0,4.9c0.2,0.2,0.3,0.3,0.5,0.5
		c1.3,1.3,3.6,1.3,4.9,0C126.1,409.1,126.1,406.9,124.7,405.5z"/>
	<path class="nav-crown-16-st-2" d="M127.8,418c-1,0-1,2,0,2C129.8,420,129.8,418,127.8,418z"/>
	<path class="nav-crown-16-st-2" d="M226.7,420.8c-2.6,2.2-5.2,4.3-7.8,6.4c-1.4-0.5-2.9-1.2-4.3-1.8c-0.4-0.2-0.8,0.1-0.7,0.6
		c0.2,1.6,0.4,3.2,0.4,4.8c-2.5,1.9-5.1,3.8-7.7,5.7c-2.7-0.4-5.5-0.8-8.2-0.5c-0.3,0-0.5,0.2-0.5,0.5c0,1.9,0.2,3.9,0.3,5.8
		c-1.9,1.2-3.7,2.5-5.6,3.7c-3.2-0.8-6.2-1.8-9.4-2.6c-0.3-0.1-0.5,0.2-0.5,0.5v8.4c-2,1.3-4.4,2.5-6.5,3.8c-0.6,0.3,0,1.2,0.5,0.9
		c2-1.1,4-2.3,6-3.5v4.1h1v-4.7c3-1.9,6.1-3.8,9.2-5.8c2,0.5,4,1,6.1,1.3c0.3,0,0.6-0.1,0.6-0.5c0-1.7-0.1-3.4-0.3-5
		c2.6-1.7,5.2-3.5,7.7-5.3c2.5,0.4,4.9,0.8,7.4,0.9c0.2,0,0.4-0.2,0.5-0.4c0.4-2.2,0.5-4.4,0.5-6.7c1.3-1,2.5-1.9,3.7-2.9
		c2.3,0.8,4.7,1.5,7.2,2c0.6,0.1,0.9-0.9,0.3-1c-2.2-0.4-4.4-1-6.5-1.7c2.5-2,5-4,7.4-6.1C227.9,421.1,227.2,420.4,226.7,420.8z
		 M183.8,451.7v-7.2c2,0.7,5.3,1.5,8,2.2C189.1,448.4,186.8,450.1,183.8,451.7z M198.6,447.3c-1.5-0.2-3.1-0.6-4.6-0.9
		c1.5-0.9,2.9-1.9,4.4-2.9C198.5,444.7,198.5,446,198.6,447.3z M199.2,441.7c0-0.1,0-0.1,0-0.2c-0.1-1.1-0.2-2.3-0.3-3.4
		c-0.1-1.4,0.5-1.2,1.8-1.2c1.6,0,3.3,0.2,4.9,0.4C203.5,438.8,201.4,440.2,199.2,441.7z M214.4,432.5c0,1.1-0.1,2.1-0.2,3.2
		c-0.2,2-0.7,1.6-2.4,1.5c-1.3-0.1-2.5-0.3-3.8-0.5c2.1-1.5,4.2-3.1,6.3-4.7C214.4,432.2,214.4,432.4,214.4,432.5z M215.4,430.1
		c-0.1-1.1-0.2-2.3-0.3-3.4c1,0.5,2,0.9,3,1.3C217.1,428.7,216.3,429.4,215.4,430.1z"/>
	<path class="nav-crown-16-st-2" d="M152.6,474.7c-1.4-0.2-2.7-0.4-4-0.6c0.2-1.2,0.4-2.4,0.4-3.6c0-0.6-1-0.6-1,0c0,1.1-0.2,2.3-0.4,3.4
		c-1.8-0.3-3.6-0.7-5.4-1.1c0.2-0.9,0.5-1.9,0.8-2.8c0.2-0.6-0.8-0.9-1-0.3c-0.3,1-0.6,1.9-0.8,2.9c-1.8-0.4-3.7-0.8-5.5-1.3
		c0.3-0.9,0.7-1.7,1.2-2.5c0.3-0.5-0.5-1-0.9-0.5c-0.6,0.9-1,1.8-1.3,2.8c-1.4-0.4-2.9-0.8-4.3-1.2c0.4-0.7,0.6-1.6,1.1-2.3
		c0.4-0.5-0.3-1.2-0.7-0.7c-0.8,0.8-1.3,1.7-1.8,2.6c-1.5-0.4-3-0.9-4.5-1.3c0.3-0.9,0.7-1.9,1.1-2.7c0.3-0.6-0.6-1.1-0.9-0.5
		c-0.5,1-0.8,2-1.2,3c-1.6-0.5-3.3-1-4.9-1.5c0.5-1,1-2,1.6-3c0.4-0.5-0.5-1-0.9-0.5c-0.7,1-1.2,2.1-1.7,3.2
		c-1.3-0.4-2.6-0.8-3.9-1.1c0.5-1.2,1-2.5,1.8-3.6c0.4-0.5-0.5-1-0.9-0.5c-0.8,1.2-1.5,2.5-1.9,3.8c-1.6-0.5-3.2-0.9-4.8-1.4
		c-0.6-0.2-0.9,0.8-0.3,1c1.6,0.4,3.2,0.9,4.8,1.4c-0.5,1.5-0.8,3.1-1.1,4.7c-0.1,0.6,0.8,0.9,1,0.3c0.3-1.6,0.6-3.2,1.1-4.7
		c1.3,0.4,2.5,0.7,3.8,1.1c-0.4,0.8-0.8,1.7-1.2,2.5c-0.3,0.6,0.6,1.1,0.9,0.5c0.4-0.9,0.9-1.8,1.3-2.7c1.7,0.5,3.4,1,5.1,1.5
		c-0.5,1.6-0.9,3.2-1.3,4.9c-0.2,0.6,0.8,0.9,1,0.3c0.4-1.6,0.8-3.3,1.2-4.9c1.5,0.4,2.9,0.8,4.4,1.3c-0.5,1.3-0.9,2.6-1.2,4
		c-0.2,0.6,0.8,0.9,1,0.3c0.3-1.4,0.7-2.7,1.2-4c1.6,0.5,3.2,0.9,4.8,1.3c-0.4,1.2-0.7,2.5-1,3.8c-0.2,0.6,0.8,0.9,1,0.3
		c0.3-1.3,0.6-2.5,1-3.8c1.9,0.5,3.8,0.9,5.6,1.4c-0.2,1-0.3,1.9-0.3,2.9c0,0.6,1,0.6,1,0c0-0.9,0.1-1.8,0.3-2.7
		c1.8,0.4,3.7,0.8,5.5,1.1c-0.1,0.5-0.1,1.1-0.1,1.6c0,0.6,1,0.6,1,0c0-0.5,0.1-1,0.1-1.5c1.3,0.2,2.6,0.4,3.9,0.6
		C152.9,475.7,153.2,474.8,152.6,474.7z"/>
	<path class="nav-crown-16-st-2" d="M166.9,406.4c-1.2-2.8-3.1-3.4-6.1-2.9c-2.8,0.5-6.9,1.4-7.9,4.5c-1.4,4.4,1,9.8,2.2,14c0,0.1,0,0.1,0.1,0.1
		c-0.2,0.3,0,0.8,0.4,0.7c1.2-0.1,2.2,0,3.3,0.2c0.2,0,0.5,0.7,0.6,0.9c0.4,0.6,0.2,2.1,1,2.4c1.6,0.7,1.8-0.8,1.8-2.2
		c0.5,0.9,1.2,1.7,2.3,1.5c0.8-0.1,0.7-1.5,0.5-2.8c0.8,1,1.9,2.1,2.6,1.5c0.7-0.5,1-1.3,0.9-2.1c0-0.6-1.3-2.3,0.5-2.4
		c0.7,0,1.4,0,2,0c0.4,0,0.5-0.3,0.5-0.6C171.1,414.9,168.7,410.4,166.9,406.4z M167.2,420c-0.3,0.6,0.1,1.4,0.3,1.9
		c-0.3,0.4-0.6,0.8-0.9,1.1c-0.2-0.2-0.4-0.5-0.7-0.8c-0.4-0.5-0.8-1-1.3-1.4c-0.3-0.3-0.8-0.1-0.9,0.4c-0.1,1,0.3,2.1,0.4,3.1
		c0.1,0.8-1.1-0.8-1.2-1c-0.3-0.5-0.5-1-0.8-1.6c-0.2-0.4-0.8-0.3-0.9,0.1c-0.2,1,0,2.1,0,3.2c0,0.4-0.7-0.8-0.7-0.9
		c-0.1-0.4-0.3-0.7-0.5-1.1c-0.9-1.4-2.5-1.2-4-1.1c0,0,0-0.1,0-0.1c-1.1-3.9-2.4-7.7-2.5-11.8c-0.1-4,4.5-5,7.5-5.6
		c4-0.8,4.7,1.9,5.9,5c1.2,3.2,3,6.1,3.6,9.5C169.3,419,167.9,418.7,167.2,420z"/>
	<path class="nav-crown-16-st-2" d="M161.4,418.4c-0.3-0.3-0.3-0.6-0.4-1c0-0.6-1-0.6-1,0c0,0.6,0.2,1.2,0.6,1.7
		C161.1,419.6,161.8,418.9,161.4,418.4z"/>
	<path class="nav-crown-16-st-2" d="M164.1,416.6c-0.3-0.1-0.4-0.5-0.5-0.8c-0.3-0.6-1.1-0.1-0.9,0.5c0.3,0.6,0.5,1,1.1,1.2
		C164.5,417.8,164.7,416.8,164.1,416.6z"/>
	<path class="nav-crown-16-st-2" d="M164.9,411.6c-0.4-0.2-0.9-0.4-1.3-0.6c0.1-0.5,0.2-0.9,0.4-1.4c0.2-0.6-0.8-0.9-1-0.3
		c-0.1,0.4-0.3,0.8-0.4,1.3c-0.6-0.2-1.1-0.4-1.7-0.5c-0.6-0.1-0.9,0.9-0.3,1c0.6,0.1,1.2,0.3,1.8,0.5c-0.1,0.4-0.1,0.8-0.1,1.2
		c0,0.6,1,0.6,1,0c0-0.3,0-0.6,0.1-0.8c0.3,0.1,0.7,0.3,1,0.4C165,412.7,165.5,411.9,164.9,411.6z"/>
	<path class="nav-crown-16-st-2" d="M160,413.4c-0.5-0.2-1.1-0.4-1.6-0.6c0.1-0.3,0.2-0.7,0.3-1c0.2-0.6-0.8-0.9-1-0.3c-0.1,0.3-0.2,0.6-0.3,0.9
		c-0.3-0.1-0.6-0.1-0.9-0.1c-0.6,0-0.6,1,0,1c0.2,0,0.5,0.1,0.7,0.1c-0.1,0.6-0.2,1.3-0.2,1.9c0,0.6,1,0.6,1,0
		c0-0.5,0.1-1.1,0.2-1.6c0.5,0.2,1,0.4,1.5,0.6C160.3,414.6,160.6,413.6,160,413.4z"/>
	<path class="nav-crown-16-st-2" d="M177.3,415.9c0.3-0.2,0.5-0.5,0.8-0.7c0.2,0,0.5-0.1,0.7-0.2c0.8,0.2,1.6,0,2.4-0.6c0.3-0.2,0.3-0.8-0.1-0.9
		c-0.4-0.1-0.7-0.1-1-0.1c-0.8-0.2-1.4-0.1-2.1,0.2c0.1-1.2,0-2.5-0.6-3.6c0-0.2,0-0.3,0-0.4c0-0.4-0.4-0.5-0.6-0.5
		c-0.2-0.1-0.5,0-0.6,0.2c0,0.1-0.1,0.2-0.1,0.3c-0.2,0-0.5,0.2-0.5,0.5c0,0.2,0,0.4,0.1,0.6c-0.3,1.4-0.1,2.9,0.5,4.4
		c0.1,0.2,0.2,0.3,0.3,0.3c-2.1,2-3.7,5.1-4.8,6.9c-0.7,1.1-1.3,2.2-1.8,3.3c-0.7,1-1.5,2-2.3,3c-1.3,0-2.7,0.1-4,0.1
		c-3.6,0.1-7.7,1.2-11.1-0.5c-0.3-0.6-0.7-1.1-1.1-1.5c-0.3-0.3-0.7-0.1-0.8,0.2c-0.3,0.7,0,1.3,0.3,1.9c0.1,0.1,0.2,0.3,0.2,0.4
		c-0.5,0.4-1,0.8-1.4,1.3c-0.2,0.3-0.2,0.7,0.2,0.8c0.4,0.1,0.8,0.1,1.1,0c0.1,0,0.2,0,0.3,0c0.1-0.1,0.3-0.1,0.4-0.2
		c0.6-0.3,1.1-0.8,1.5-1.4c0,0,0-0.1,0.1-0.1c4.1,1.3,9,0.1,13.1,0c0.1,0,0.3,0,0.4,0c-1.3,1.8-2.5,3.7-3.4,5.8c0,0,0,0,0,0
		c-0.1,0-0.2,0.1-0.3,0.2c-0.3,0.2-0.6,0.5-0.9,0.7c-0.8,0.6-1.5,1.2-1.9,2.1c-0.1,0.3,0.2,0.7,0.5,0.6c1.2-0.1,1.8-0.7,2.3-1.5
		c0,0,0,0,0.1,0c0.2,0.9,0.6,1.8,1.4,1.8c0.2,0.1,0.4,0,0.6-0.1c1.3-0.7,0.5-3,0-3.9c0,0-0.1-0.1-0.1-0.1c0.6-0.6,1-1.2,1.5-1.9
		c0.8-1.2,1.5-2.5,2.2-3.8c2.6-0.1,5.2-0.2,7.8-0.3c0.8,0,1.1,1,1.5,1.5c0.5,0.6,1.3,0.7,2.1,0.6c0.3,0,0.6-0.3,0.5-0.6
		c-0.5-1.2-1.1-2.1-2.2-2.5c0.8-0.8,1-1.7,0.5-2.9c-0.1-0.3-0.4-0.5-0.7-0.3c-1.4,1-1.8,2.1-1.5,3.1c-2.5,0.1-5,0.2-7.5,0.3
		c0.4-0.8,0.8-1.5,1.1-2.3C172.9,423,174.9,419.3,177.3,415.9z"/>
</g>
</svg>
