<?xml version="1.0" encoding="utf-8"?>
<!-- Generator: Adobe Illustrator 15.0.0, SVG Export Plug-In . SVG Version: 6.00 Build 0)  -->
<!DOCTYPE svg PUBLIC "-//W3C//DTD SVG 1.1//EN" "http://www.w3.org/Graphics/SVG/1.1/DTD/svg11.dtd">
<svg version="1.1" xmlns="http://www.w3.org/2000/svg" xmlns:xlink="http://www.w3.org/1999/xlink" x="0px" y="0px" width="480px"
	 height="210px" viewBox="0 0 480 210" enable-background="new 0 0 480 210" xml:space="preserve">
<g id="Layer_1" display="none">
	<path display="inline" fill="#0E5941" d="M393,457.365C393,541.663,324.663,610,240.364,610h-0.729
		C155.337,610,87,541.663,87,457.365v-223.73C87,149.337,155.337,81,239.636,81h0.729C324.663,81,393,149.337,393,233.635V457.365z"
		/>
</g>
<g id="Layer_2">
	<g>
		<g>
			<g>
				<path fill="#75A08A" d="M150,208.167H71.083c-14.969,0-33.858-1.617-47.171-14.23C9.65,180.425,8,159.88,8,145.603
					l16.874-68.535l16.875,68.535c0,12.438,1.808,20.331,5.375,23.709c3.489,3.306,11.55,4.855,23.96,4.855H150V208.167z"/>
			</g>
			<g>
				<path fill="#75A08A" d="M330,208.167h78.916c14.969,0,33.858-1.617,47.172-14.23C470.35,180.425,472,159.88,472,145.603
					l-16.874-68.535l-16.874,68.535c0,12.438-1.809,20.331-5.375,23.709c-3.488,3.306-11.551,4.855-23.961,4.855H330V208.167z"/>
			</g>
		</g>
		<polygon fill="#75A08A" points="249,176.167 230,176.167 230,156.167 239.5,140.167 249,156.167 		"/>
		<polygon fill="#75A08A" points="291,143.167 272,143.167 272,123.167 281.5,107.167 291,123.167 		"/>
		<polygon fill="#75A08A" points="200,143.167 181,143.167 181,123.167 190.5,107.167 200,123.167 		"/>
		<polygon fill="#75A08A" points="249,120.167 230,120.167 230,100.167 239.5,84.167 249,100.167 		"/>
	</g>
</g>
</svg>
