<?xml version="1.0" encoding="utf-8"?>
<!-- Generator: Adobe Illustrator 15.0.0, SVG Export Plug-In . SVG Version: 6.00 Build 0)  -->
<!DOCTYPE svg PUBLIC "-//W3C//DTD SVG 1.1//EN" "http://www.w3.org/Graphics/SVG/1.1/DTD/svg11.dtd">
<svg version="1.1" id="Layer_1" xmlns="http://www.w3.org/2000/svg" xmlns:xlink="http://www.w3.org/1999/xlink" x="0px" y="0px"
	 width="305.834px" height="112px" viewBox="0 0 305.834 112" enable-background="new 0 0 305.834 112" xml:space="preserve">
<g>
	<g>
		<path fill="#F0A733" d="M132.245,78c-26.579,0-19.847,0-44.328,0s-20.251,0-44.328,0c0-25,19.847-44.328,44.328-44.328
			S132.245,53,132.245,78z"/>
		<path fill="#F0A733" d="M262.245,78c-26.579,0-19.847,0-44.327,0c-24.482,0-20.252,0-44.328,0c0-25,19.846-44.328,44.328-44.328
			C242.398,33.672,262.245,53,262.245,78z"/>
	</g>
	<polygon fill="#F0A733" points="248.917,78 56.917,78 76.271,47 225.271,47 	"/>
	<g>
		<circle fill="#D72251" cx="82.417" cy="58.82" r="9.333"/>
		<circle fill="#D72251" cx="223.417" cy="58.82" r="9.333"/>
	</g>
</g>
</svg>
