<?xml version="1.0" encoding="utf-8"?>
<!-- Generator: Adobe Illustrator 19.1.0, SVG Export Plug-In . SVG Version: 6.00 Build 0)  -->
<svg version="1.1" id="Layer_1" xmlns="http://www.w3.org/2000/svg" xmlns:xlink="http://www.w3.org/1999/xlink" x="0px" y="0px" width="305.834px" height="112px"
	 viewBox="-152 341 305.8 112" style="enable-background:new -152 341 305.8 112;" xml:space="preserve">
<style type="text/css">
	.beast-nose-13-st-0{fill:#FCDCA4;}
	.beast-nose-13-st-1{fill:#F0A732;}
</style>
<g>
	<path class="beast-nose-13-st-0" d="M3.8,352c4.7-0.1,13.8,9.6,15.6,11.5c8,8.2,16.4,16.3,25.6,23.1c9.3,6.9,20.5,12.1,31.5,15.6
		c10.3,3.3,22.4,5.3,32.7,0.9c2.6-1.1,4.9-2.5,7.1-4.2c0.5-0.4-0.2-1.1-0.7-0.7c-10.1,8-23.5,7.3-35.3,4.1
		c-11.5-3.1-22.9-8.5-32.7-15.1c-10-6.7-18.9-15.5-27.2-24.1c-2.8-2.9-5.8-5.8-9-8.3c-1.7-1.3-3.9-3-6.1-3.5
		c7-2.7,17.2,6.8,21.9,10.7c5.6,4.6,11,8.9,17.1,12.6c5,3,10.1,5.9,15.4,8.4c8,3.7,16.7,6.1,25.3,7.6c7.9,1.4,17.4,2.2,24.7-1.8
		c1.9-1.1,3.6-2.6,4.8-4.5c0.4-0.5-0.5-1-0.9-0.5c-4.9,7.5-16,7.2-23.8,6.4c-9.4-1-18.7-3.6-27.4-7.2c-4.8-2-9.3-4.5-13.7-7.1
		c-6.6-3.8-13.1-8-18.8-13c-3.5-3-7-6-10.8-8.6c-2.8-1.9-6.1-3.8-9.5-4.3c0.6-0.1,1.1-0.1,1.4-0.2c4.6-0.5,8.8,0,13.3,1.3
		c11.9,3.6,22.2,11.4,33.4,16.6c17.2,8,41.6,14.6,57.3,0.1c0.5-0.4-0.2-1.1-0.7-0.7c-17.7,16.3-46.3,5.5-64.4-4.5
		c-6.2-3.4-12.2-7-18.7-9.9c-5-2.2-10.8-4.4-16.4-4.2c-1.6,0.1-9.5,0.5-12.5,2.5C2,351,1.7,351,1.6,351.2c-0.1,0.2-0.2,0.4-0.3,0.7
		c-0.1,0.2-0.2,0.3-0.2,0.5c-0.1,0.1-0.1,0.2-0.2,0.3c-0.1-0.1-0.1-0.2-0.2-0.3c0-0.2-0.1-0.3-0.2-0.5c-0.1-0.2-0.2-0.5-0.3-0.7
		c-0.1-0.3-0.4-0.3-0.6-0.2c-3-2-10.9-2.4-12.5-2.5c-5.6-0.2-11.4,1.9-16.4,4.2c-6.4,2.9-12.5,6.5-18.7,9.9
		c-18.1,10-46.7,20.8-64.4,4.5c-0.5-0.4-1.2,0.3-0.7,0.7c15.7,14.5,40.1,7.8,57.3-0.1c11.2-5.2,21.5-13,33.4-16.6
		c4.5-1.4,8.7-1.9,13.3-1.3c0.2,0,0.7,0.1,1.4,0.2c-3.4,0.6-6.7,2.4-9.5,4.3c-3.8,2.6-7.3,5.6-10.8,8.6c-5.8,5-12.2,9.2-18.8,13
		c-4.5,2.5-9,5.1-13.7,7.1c-8.7,3.6-18,6.2-27.4,7.2c-7.8,0.8-18.9,1.1-23.8-6.4c-0.3-0.5-1.2,0-0.9,0.5c1.2,1.9,2.8,3.4,4.8,4.5
		c7.4,4,16.8,3.1,24.7,1.8c8.6-1.5,17.3-4,25.3-7.6c5.3-2.4,10.4-5.4,15.4-8.4c6.2-3.8,11.6-8.1,17.1-12.6
		c4.7-3.9,14.9-13.3,21.9-10.7c-2.3,0.6-4.4,2.2-6.1,3.5c-3.2,2.5-6.2,5.4-9,8.3c-8.4,8.6-17.3,17.4-27.2,24.1
		c-9.8,6.6-21.3,12-32.7,15.1c-11.8,3.2-25.2,3.9-35.3-4.1c-0.5-0.4-1.2,0.3-0.7,0.7c2.2,1.7,4.5,3.1,7.1,4.2
		c10.3,4.4,22.4,2.5,32.7-0.9c11-3.6,22.2-8.8,31.5-15.6c9.2-6.8,17.6-14.9,25.6-23.1c1.8-1.8,10.9-11.6,15.6-11.5c0,0,0,0,0,0
		c0,0,0,0,0,0.1c0,0-0.1,0-0.1,0c-0.5-0.1-0.8,0.4-0.5,0.8c-1.1,0.7-2.2,2.1-2.7,2.7c-2.7,3.1-5,6.4-7.4,9.6
		c-7.2,9.8-15.3,18.7-24.8,26.4c-19.6,15.9-47.3,34.1-72.5,19.1c-0.6-0.3-1.1,0.5-0.5,0.9c22.9,13.7,48.2,0.2,67.1-14.1
		c10.2-7.7,19.7-16.3,27.5-26.5c1.4-1.8,10.8-15.4,13.9-17.3c0.2,0.3,0.3,0.6,0.5,0.9c-0.2,1.6-1,3.5-1.5,4.5
		c-1.6,3.6-3.7,7.1-5.9,10.4c-4.9,7.5-10.4,14.7-16.2,21.6c-4.2,5-8.5,9.7-13.5,13.8c-9.9,8.1-20.8,15.4-32.6,20.2
		c-11.5,4.7-24.4,7.2-36.4,2.6c-0.6-0.2-0.9,0.7-0.3,1c17.1,6.6,36-0.7,50.8-9.5c8.3-4.9,16.8-10.6,23.7-17.4
		c5.3-5.2,10-11,14.6-16.8c5.2-6.7,10.4-13.5,14.5-21c1-1.8,3.2-5.3,3.8-8.3c0.2-0.1,0.5-0.4,0.3-0.7c0-0.1,0.1-0.2,0.1-0.3
		c0,0,0,0,0,0c0,0.1,0.1,0.1,0.2,0c0.1,0.3,0.1,0.5,0.1,0.8c-0.1,1-0.1,2,0,3c-0.2,1.5-0.5,2.9-1,4.3c-3.2,9.7-9.7,17.6-14.8,26.2
		c-6.9,11.7-15.8,21.8-26.9,29.7c-9.7,6.9-20,13.1-31.2,17.3c-11.2,4.2-24.1,6.8-35.4,1.7c-0.6-0.3-1.1,0.6-0.5,0.9
		c7.9,3.5,16.6,3.6,25,1.8c11.7-2.6,22.7-8,32.9-14.3c10.2-6.3,19.9-13.5,27.5-22.9c3.8-4.7,7-9.7,10.2-14.7c2.6-4.1,5.3-8,7.8-12.2
		c2.4-4,5.6-9.3,7-14.6c1.3,5.3,4.6,10.6,7,14.6c2.5,4.1,5.2,8.1,7.8,12.2c3.2,5.1,6.4,10.1,10.2,14.7c7.6,9.4,17.3,16.6,27.5,22.9
		c10.1,6.3,21.2,11.7,32.9,14.3c8.3,1.8,17.1,1.8,25-1.8c0.6-0.3,0.1-1.1-0.5-0.9c-11.3,5.1-24.2,2.5-35.4-1.7
		c-11.1-4.2-21.5-10.4-31.2-17.3c-11.1-7.9-20-18-26.9-29.7c-5.1-8.6-11.6-16.6-14.8-26.2c-0.5-1.4-0.8-2.9-1-4.3c0.1-1,0.1-2,0-3
		c0-0.3,0.1-0.6,0.1-0.9c0.2,0.2,0.4,0.2,0.4,0.1c0,0,0,0,0,0c0,0.1,0,0.2,0,0.3c-0.1,0.3,0.1,0.6,0.3,0.7c0.6,3.1,2.8,6.5,3.8,8.3
		c4.1,7.4,9.3,14.3,14.5,21c4.6,5.8,9.3,11.6,14.5,16.8C42,408.3,50.5,414,58.8,419c14.8,8.8,33.8,16.1,50.8,9.5
		c0.6-0.2,0.3-1.2-0.3-1c-12,4.6-24.9,2.1-36.4-2.6c-11.9-4.8-22.8-12.1-32.6-20.2c-5-4.1-9.3-8.9-13.5-13.8
		c-5.8-6.9-11.3-14-16.2-21.6c-2.2-3.3-4.3-6.8-5.9-10.4c-0.5-1.1-1.3-2.9-1.5-4.5c0.1-0.3,0.3-0.6,0.5-0.9
		c3.2,1.9,12.5,15.5,13.9,17.3c7.8,10.2,17.3,18.8,27.5,26.5c18.9,14.3,44.2,27.8,67.1,14.1c0.6-0.3,0.1-1.2-0.5-0.9
		c-25.2,15.1-52.8-3.1-72.5-19.1c-9.5-7.7-17.6-16.6-24.8-26.4c-2.4-3.3-4.7-6.6-7.4-9.6c-0.5-0.6-1.6-2-2.7-2.7
		C4.7,352.4,4.4,352,3.8,352C3.9,352,3.8,352,3.8,352C3.8,352,3.8,352,3.8,352C3.8,352,3.8,352,3.8,352z"/>
	<path class="beast-nose-13-st-1" d="M26.2,407.4c-2-7.2-3-14.9-4.4-22.3c-1.6-8.1-3.2-16.2-5.2-24.2c-0.9-3.9-1.5-8.7-4.2-11.8
		c-3-3.4-9.3-3.7-13.2-3.2c-15.2,1.8-17.6,18.5-20,31.1c-3.4,18.2-7.7,36.1-11,54.3c-0.1,0.4,0,0.7,0.1,1c0.5,5.6,10.4,6.4,14.4,2.7
		c3-2.7,4.2-7.9,6-11.4c3.4-6.7,6.1,4.6,6.9,7.1c2.1,6.3,6.1,7.8,9.6,1.4c1.8-3.3,2.1-7.2,4-10.4c1.8-3,8.2,7.9,9,9
		c2.9,4,9.8,9.3,12.5,1.7C33.6,424.7,28.3,414.9,26.2,407.4z"/>
	<path class="beast-nose-13-st-1" d="M31.7,425.2c-0.1-2.6-0.7-5.1-1.6-7.6c-0.8-3.1-1.9-6.2-2.8-9.3c0-0.1,0-0.2,0-0.3c0-0.1-0.1-0.2-0.1-0.3
		c-0.2-0.7-0.4-1.4-0.6-2.1c-1.1-4.2-2.1-8.4-3.2-12.6c-0.8-3-1.2-6-1.8-9c0-0.3-0.1-0.6-0.1-0.9c-0.9-5.8-2.1-11.5-3.5-17.2
		c-0.4-3.2-0.8-6.7-2.1-9.7c-0.4-1-1-2-1.6-2.9c-0.2-0.3-0.3-0.6-0.5-0.9c0-0.1-0.1-0.1-0.1-0.2c0,0,0,0,0,0
		c-1.4-2.3-3.2-4.2-5.7-5.3c-2.1-1.4-4.9-1.2-7.7-0.3c-2.3,0.3-4.4,1.2-6.4,2.4c-2.2,1.1-4.1,2.6-5.8,4.4c-5.4,5.2-7.1,13-8.6,20.5
		c-2.7,13.5-6.7,26.6-8.6,40.3c-0.5,3.5-0.5,7.1-1.4,10.6c-0.5,2-1.5,4.5-1.1,6.7c0.1,1.1,0.3,2.1,0.7,3.2c0.6,1.4,1.7,2.2,2.9,2.7
		c0.4,0.2,0.9,0.3,1.4,0.3c0.6,0.1,1.2,0.1,1.7,0.2c0.1,0.1,0.2,0.2,0.4,0.2c3.4-0.1,6.9-1.2,9-4.1c1.3-1.8,2.3-3.9,3.4-5.9
		c0.2-0.4,0.5-1.1,0.9-1.9c0.1-0.2,0.2-0.4,0.3-0.6c0.7-1.4,1.5-2.9,2.5-3.1c1.8,1.2,3.3,6.1,3.8,7.3c0.8,2.1,1.8,5.8,4,6.9
		c6.2,2.9,9.3-9.4,10.6-13.7c0.6-0.6,1.3-0.7,1.9,0.2c2,2.6,3.8,5.4,5.9,7.9c2.5,2.9,7.3,7.4,10.7,5c0,0,0,0,0.1,0.1
		c0.2,0.2,0.5,0.4,0.7,0.1c0,0,0-0.1,0.1-0.1c0,0,0,0,0,0c0,0,0,0,0,0C31.7,432.9,32.1,429.1,31.7,425.2z M30.6,428.4
		c-0.2,1-0.4,2-0.7,2.9c-0.1,0.3-0.2,0.6-0.3,0.9c-0.2,0.6-0.5,1.2-1,1.7c-0.1,0.1-0.1,0.3-0.1,0.4c-4.3,5.9-13.2-7.8-15.4-10.9
		c-1.1-1.5-2-3-3.9-1.6c-0.2,0-0.3,0.1-0.4,0.3c0,0,0,0,0,0c-1.7,1.6-2.1,4.7-2.8,6.8c-0.1,0.2,0,0.3,0.1,0.4
		c-1,2.5-2.3,4.9-5.3,5.2c-0.1,0-0.2,0-0.2,0.1c-0.3,0-0.6,0.1-0.9,0.1c-4.8-3.4-2.6-13.1-8.9-14.9c0-0.3-0.4-0.6-0.7-0.4
		c-1.1,0.7-2,1.5-2.8,2.4c0,0,0,0,0,0c-0.2,0.2-0.4,0.4-0.6,0.6c0,0,0,0.1-0.1,0.1c-0.4,0.1-0.7,0.3-1,0.7c-0.7,0.9-1.3,1.8-1.9,2.8
		c-0.3,0.1-0.5,0.3-0.7,0.6c-0.2,0.3-2.1,2.7-4,4.6c-0.3,0.3-0.6,0.5-0.9,0.7c-0.2-0.1-0.4-0.1-0.6-0.1c-0.9-0.6-1.8-1.2-2.8-1.8
		c0,0-0.1-0.1-0.1-0.1c-0.1-2.6,1.4-5.9,2-7.7c1.5-4.8,2.3-9.8,3.2-14.7c1.4-7.8,3-15.5,5-23.2c3.4-13.4,8.7-28.9,23.6-32.7
		c0.2-0.1,0.4-0.2,0.6-0.3c0.7,0.1,1.4,0.4,2.1,0.7c0.8,0.6,1.6,1.3,2.3,2c0.9,1.9,1.5,4.1,2.1,6.3c0.6,2.3,1.1,4.7,1.7,7
		c0,0.1,0,0.2,0,0.3c0.8,6.2,2.4,12.1,3.7,18.1c1,6.4,2,12.8,3.7,19c0.1,0.5,0.3,1.1,0.5,1.6c0,0.1,0.1,0.2,0.1,0.3
		c1.3,4.2,3.4,8.5,4.7,12.8c0.3,1,0.5,2,0.7,3.1C30.8,424.6,30.9,426.5,30.6,428.4z"/>
	<g>
		<path class="beast-nose-13-st-1" d="M-24.7,354.6c-4.7,2.6-9,5.8-13.5,8.8c-4.5,2.9-9.2,5.5-14.1,7.8c-9.6,4.6-19.4,10.3-30.2,11.2
			c-10.7,0.9-20.8-2.6-30.5-6.7c-5.1-2.1-10.5-3.3-15.4-5.9c-3.9-2-6.7-5.8-10.9-7.2c-0.6-0.2-0.9,0.8-0.3,1
			c4.6,1.5,7.9,5.8,12.3,7.9c4.7,2.3,10,3.5,14.9,5.5c9.9,4.1,19.9,7.2,30.8,6.3c10.1-0.8,19.3-6.3,28.3-10.5c5.1-2.4,10.2-5,15-8.1
			c4.8-3.1,9.3-6.6,14.2-9.2C-23.6,355.1-24.1,354.3-24.7,354.6z"/>
		<path class="beast-nose-13-st-1" d="M-21,352.8v1C-20,353.8-20,352.8-21,352.8z"/>
		<path class="beast-nose-13-st-1" d="M-25.2,365.6c-4.2,3.1-8.3,6.5-12.2,9.9c-4.2,3.7-8.2,7.1-13.1,9.7c-4.2,2.2-8.7,4-12.9,6.1
			c-5.2,2.5-10.5,4.2-16.2,4.8c-23,2.4-44.9-8.5-65.2-17.7c-0.6-0.3-1.1,0.6-0.5,0.9c20.7,9.4,42.4,19.9,65.7,17.9
			c10-0.9,19.3-5.9,28.2-10.3c10.2-5,17.8-13.6,26.8-20.3C-24.2,366.1-24.7,365.2-25.2,365.6z"/>
		<path class="beast-nose-13-st-1" d="M-20,360c-0.6,0-0.6,1,0,1C-19.3,361-19.3,360-20,360z"/>
		<path class="beast-nose-13-st-1" d="M-112.8,405.5c5.5,1.6,10.7,3.7,16.4,4.5c5,0.7,10.2,0.8,15.2,0c10.3-1.5,19.8-5.8,28.6-11.3
			c5.1-3.2,9.4-7.1,14.2-10.7c2-1.5,3.9-2.9,5.8-4.6c2-1.9,4-3.8,6.4-5.2c0.6-0.3,0.1-1.2-0.5-0.9c-4.3,2.4-7.4,6.5-11.5,9.3
			c-4.7,3.2-8.7,7.2-13.5,10.3c-8.8,5.8-18.5,10.3-29,12c-5.7,0.9-11.5,0.8-17.2-0.2c-5.6-0.9-10.9-3.2-16.4-4.8
			c-2.8-0.8-5.5-1.3-8.4-1.8c-3.2-0.6-6-1.8-8.9-3.2c-4.5-2.2-8.9-4.5-14-4.8c-0.6,0-0.6,1,0,1c5.7,0.3,10.6,3.4,15.7,5.7
			C-124.4,403.4-118.4,403.8-112.8,405.5z"/>
		<path class="beast-nose-13-st-1" d="M-24,373.5v1C-23,374.5-23,373.5-24,373.5z"/>
		<path class="beast-nose-13-st-1" d="M-28.3,389.5c-1.8,0.6-3.3,1.8-4.7,3.1c-2,1.8-4,3.6-6,5.4c-4.1,3.6-8.3,7-12.7,10.1
			c-8.9,6.4-18.9,11.6-29.7,13.5c-6,1.1-12.2-0.2-18.2-1.2c-5.9-1-11.7-1.2-17.6-1.8c-8.9-1-18-7.2-27.1-4.8c-0.6,0.2-0.4,1.1,0.3,1
			c4.8-1.3,9.8,0.3,14.4,1.7c4.5,1.4,8.7,2.8,13.4,3.3c6.1,0.7,12.1,0.9,18.2,2c5.3,0.9,10.7,1.8,16,1c10.5-1.5,20.2-6.5,28.9-12.3
			c4.1-2.8,8-5.9,11.8-9c2.1-1.8,4.2-3.6,6.2-5.4c2.2-1.9,4.3-4.6,7.1-5.5C-27.5,390.3-27.7,389.3-28.3,389.5z"/>
		<path class="beast-nose-13-st-1" d="M-26,386.8c-0.6,0-0.6,1,0,1C-25.3,387.8-25.3,386.8-26,386.8z"/>
		<path class="beast-nose-13-st-1" d="M-30.8,403.9c-3.5,3.3-7.7,5.8-11.2,9c-3.9,3.5-8,6.7-12.4,9.5c-8.7,5.5-18.4,9.4-28.5,11.1
			c-5.8,0.9-11.5,0.5-17.3-0.2c-5.5-0.7-11-1.2-16.4-2.3c-9.3-1.9-18.9-4.9-28.4-3c-0.6,0.1-0.4,1.1,0.3,1c10.5-2.1,21,1.8,31.2,3.6
			c5,0.9,10.2,1.3,15.2,1.9c5.5,0.7,11,0.7,16.5-0.2c10-1.6,19.4-5.7,27.9-11.1c4-2.5,7.8-5.4,11.4-8.6c4-3.5,8.6-6.4,12.5-10.1
			C-29.6,404.2-30.3,403.5-30.8,403.9z"/>
		<path class="beast-nose-13-st-1" d="M-29,400.5v1C-28,401.5-28,400.5-29,400.5z"/>
		<path class="beast-nose-13-st-1" d="M-23.6,346.3c-4.4,1.3-8.8,2.2-13.2,3.3c-4.2,1.1-8.2,2.6-12.1,4.4c-8.6,3.9-16.7,8.8-26.1,10.8
			c-4.9,1.1-10.1,1.2-15.1,0.4c-4.2-0.7-8.4-2.4-12.5-3.8c-8.6-3-17.1-6.6-24.3-12.5c-0.5-0.4-1.2,0.3-0.7,0.7
			c6.6,5.4,14.3,9,22.3,11.9c8.7,3.2,17.4,6.2,26.9,4.9c9.4-1.3,17.6-5.5,26-9.6c4.5-2.3,9.2-4.3,14.1-5.7c5-1.4,10.1-2.2,15-3.8
			C-22.7,347-23,346.1-23.6,346.3z"/>
		<path class="beast-nose-13-st-1" d="M-18.7,345.8H-19c-0.6,0-0.6,1,0,1h0.2C-18.1,346.8-18.1,345.8-18.7,345.8z"/>
		<path class="beast-nose-13-st-1" d="M-36.1,419.4c-21.3,21.4-56.8,37.1-85.6,21.7c-0.6-0.3-1.1,0.6-0.5,0.9c29.3,15.7,65.3-0.1,86.9-21.8
			C-34.9,419.6-35.6,418.9-36.1,419.4z"/>
		<path class="beast-nose-13-st-1" d="M-32.2,416.8h-0.2c-0.6,0-0.6,1,0,1h0.2C-31.6,417.8-31.6,416.8-32.2,416.8z"/>
	</g>
	<g>
		<path class="beast-nose-13-st-1" d="M26.5,354.6c4.7,2.6,9,5.8,13.5,8.8c4.5,2.9,9.2,5.5,14.1,7.8c9.6,4.6,19.4,10.3,30.2,11.2
			c10.7,0.9,20.8-2.6,30.5-6.7c5.1-2.1,10.5-3.3,15.4-5.9c3.9-2,6.7-5.8,10.9-7.2c0.6-0.2,0.9,0.8,0.3,1c-4.6,1.5-7.9,5.8-12.3,7.9
			c-4.7,2.3-10,3.5-14.9,5.5c-9.9,4.1-19.9,7.2-30.8,6.3c-10.1-0.8-19.3-6.3-28.3-10.5c-5.1-2.4-10.2-5-15-8.1
			c-4.8-3.1-9.3-6.6-14.2-9.2C25.5,355.1,26,354.3,26.5,354.6z"/>
		<path class="beast-nose-13-st-1" d="M23,352.8v1C22,353.8,22,352.8,23,352.8z"/>
		<path class="beast-nose-13-st-1" d="M27,365.6c4.2,3.1,8.3,6.5,12.2,9.9c4.2,3.7,8.2,7.1,13.1,9.7c4.2,2.2,8.7,4,12.9,6.1
			c5.2,2.5,10.5,4.2,16.2,4.8c23,2.4,44.9-8.5,65.2-17.7c0.6-0.3,1.1,0.6,0.5,0.9c-20.7,9.4-42.4,19.9-65.7,17.9
			c-10-0.9-19.3-5.9-28.2-10.3c-10.2-5-17.8-13.6-26.8-20.3C26,366.1,26.5,365.2,27,365.6z"/>
		<path class="beast-nose-13-st-1" d="M22,360v1C21,361,21,360,22,360z"/>
		<path class="beast-nose-13-st-1" d="M114.6,405.5c-5.5,1.6-10.7,3.7-16.4,4.5c-5,0.7-10.2,0.8-15.2,0c-10.3-1.5-19.8-5.8-28.6-11.3
			c-5.1-3.2-9.4-7.1-14.2-10.7c-2-1.5-3.9-2.9-5.8-4.6c-2-1.9-4-3.8-6.4-5.2c-0.6-0.3-0.1-1.2,0.5-0.9c4.3,2.4,7.4,6.5,11.5,9.3
			c4.7,3.2,8.7,7.2,13.5,10.3c8.8,5.8,18.5,10.3,29,12c5.7,0.9,11.5,0.8,17.2-0.2c5.6-0.9,10.9-3.2,16.4-4.8
			c2.8-0.8,5.5-1.3,8.4-1.8c3.2-0.6,6-1.8,8.9-3.2c4.5-2.2,8.9-4.5,14-4.8c0.6,0,0.6,1,0,1c-5.7,0.3-10.6,3.4-15.7,5.7
			C126.2,403.4,120.2,403.8,114.6,405.5z"/>
		<path class="beast-nose-13-st-1" d="M26,373.5v1C25,374.5,25,373.5,26,373.5z"/>
		<path class="beast-nose-13-st-1" d="M30.2,389.5c1.8,0.6,3.3,1.8,4.7,3.1c2,1.8,4,3.6,6,5.4c4.1,3.6,8.3,7,12.7,10.1c8.9,6.4,18.9,11.6,29.7,13.5
			c6,1.1,12.2-0.2,18.2-1.2c5.9-1,11.7-1.2,17.6-1.8c8.9-1,18-7.2,27.1-4.8c0.6,0.2,0.4,1.1-0.3,1c-4.8-1.3-9.8,0.3-14.4,1.7
			c-4.5,1.4-8.7,2.8-13.4,3.3c-6.1,0.7-12.1,0.9-18.2,2c-5.3,0.9-10.7,1.8-16,1c-10.5-1.5-20.2-6.5-28.9-12.3c-4.1-2.8-8-5.9-11.8-9
			c-2.1-1.8-4.2-3.6-6.2-5.4c-2.2-1.9-4.3-4.6-7.1-5.5C29.3,390.3,29.6,389.3,30.2,389.5z"/>
		<path class="beast-nose-13-st-1" d="M28,386.8v1C27,387.8,27,386.8,28,386.8z"/>
		<path class="beast-nose-13-st-1" d="M32.6,403.9c3.5,3.3,7.7,5.8,11.2,9c3.9,3.5,8,6.7,12.4,9.5c8.7,5.5,18.4,9.4,28.5,11.1
			c5.8,0.9,11.5,0.5,17.3-0.2c5.5-0.7,11-1.2,16.4-2.3c9.3-1.9,18.9-4.9,28.4-3c0.6,0.1,0.4,1.1-0.3,1c-10.5-2.1-21,1.8-31.2,3.6
			c-5,0.9-10.2,1.3-15.2,1.9c-5.5,0.7-11,0.7-16.5-0.2c-10-1.6-19.4-5.7-27.9-11.1c-4-2.5-7.8-5.4-11.4-8.6
			c-4-3.5-8.6-6.4-12.5-10.1C31.5,404.2,32.2,403.5,32.6,403.9z"/>
		<path class="beast-nose-13-st-1" d="M31,400.5v1C30,401.5,30,400.5,31,400.5z"/>
		<path class="beast-nose-13-st-1" d="M25.4,346.3c4.4,1.3,8.8,2.2,13.2,3.3c4.2,1.1,8.2,2.6,12.1,4.4c8.6,3.9,16.7,8.8,26.1,10.8
			c4.9,1.1,10.1,1.2,15.1,0.4c4.2-0.7,8.4-2.4,12.5-3.8c8.6-3,17.1-6.6,24.3-12.5c0.5-0.4,1.2,0.3,0.7,0.7
			c-6.6,5.4-14.3,9-22.3,11.9c-8.7,3.2-17.4,6.2-26.9,4.9c-9.4-1.3-17.6-5.5-26-9.6c-4.5-2.3-9.2-4.3-14.1-5.7
			c-5-1.4-10.1-2.2-15-3.8C24.5,347,24.8,346.1,25.4,346.3z"/>
		<path class="beast-nose-13-st-1" d="M20.5,345.8h0.2c0.6,0,0.6,1,0,1h-0.2C19.9,346.8,19.9,345.8,20.5,345.8z"/>
		<path class="beast-nose-13-st-1" d="M37.9,419.4c21.3,21.4,56.8,37.1,85.6,21.7c0.6-0.3,1.1,0.6,0.5,0.9c-29.3,15.7-65.3-0.1-86.9-21.8
			C36.7,419.6,37.4,418.9,37.9,419.4z"/>
		<path class="beast-nose-13-st-1" d="M34,416.8h0.2c0.6,0,0.6,1,0,1H34C33.4,417.8,33.4,416.8,34,416.8z"/>
	</g>
</g>
</svg>
