<?xml version="1.0" encoding="utf-8"?>
<!-- Generator: Adobe Illustrator 19.1.0, SVG Export Plug-In . SVG Version: 6.00 Build 0)  -->
<svg version="1.1" id="Layer_1" xmlns="http://www.w3.org/2000/svg" xmlns:xlink="http://www.w3.org/1999/xlink" x="0px" y="0px"
	 viewBox="-152 341 305.8 112" style="enable-background:new -152 341 305.8 112;" xml:space="preserve">
<style type="text/css">
	.beast-nose-14-st-0{fill:#D72050;}
	.beast-nose-14-st-1{fill:#F0A732;}
</style>
<g>
	<path class="beast-nose-14-st-0" d="M34.3,426.6c-1.1-2.6-2.2-5.2-3-8c-0.9-3.4-1.2-6.9-1.5-10.4c-0.8-8.1-1.3-16.3-2.1-24.4c-0.3-4-0.9-8-1.2-12
		c-0.2-3.2-0.3-6.4-0.7-9.6c-0.6-4.5-1.7-8.7-4.6-12.3c-1.3-1.6-3.1-3.2-4.7-2.7l0,0.2c-5.8-1.9-13.2-1.4-18.9-1.4
		c-4.3,0-9.2-0.2-12.8,1.6l-0.1-0.4c-1.6-0.5-3.5,1.2-4.7,2.7c-2.9,3.6-4,7.8-4.6,12.3c-0.4,3.2-0.5,6.4-0.7,9.6
		c-0.3,4-0.8,8-1.2,12c-0.7,8.1-1.2,16.3-2.1,24.4c-0.4,3.5-0.6,7-1.5,10.4c-0.7,2.7-1.9,5.4-3,8c-1.9,4.6-3.9,9.5-3.2,14.6
		c0.6,4.2,4.4,8.1,8.7,7.9c4.5-0.2,8.3-4.3,12.1-6.2c3.4-1.7,6.2-0.8,8.9,1.5c1.5,1.3,2.9,2.5,4.6,3.4c0.5,0.8,1.3,1.1,2.2,1.1
		c0.1,0,0.2,0.1,0.3,0.1l0-0.2c0,0,0,0,0.1,0l0,0.2c2.8-1,4.9-2.7,7.1-4.6c2.7-2.3,5.6-3.2,8.9-1.5c3.8,1.9,7.6,6,12.1,6.2
		c4.3,0.2,8.2-3.8,8.7-7.9C38.3,436.1,36.2,431.2,34.3,426.6z"/>
	<g>
		<path class="beast-nose-14-st-1" d="M-26.7,346.9c-11,13.8-8.8,30.7-9.2,47.2c-0.2,10.2-2.9,20.2-5.9,29.9c-2.7,8.7-6.3,16.1-1.3,24.6
			c1.6,2.8,5.9,0.3,4.3-2.5c-4.9-8.3,1-17.7,3.4-25.9c2.3-8,4-16.2,4.5-24.5c0.8-15.3-2.6-32.2,7.8-45.2
			C-21.2,348-24.7,344.4-26.7,346.9z"/>
		<path class="beast-nose-14-st-1" d="M-39.8,398c1.8-16.7-3.4-33.9,7.7-48.4c2-2.6-2.4-5-4.3-2.5c-10.8,14.2-7.4,31.2-8.1,47.8
			c-0.3,9-4.1,17.8-6.7,26.4c-2.5,8.5-3.6,17.1-1.5,25.7c0.8,3.1,5.6,1.8,4.8-1.3C-51.9,429-41.5,414.2-39.8,398z"/>
		<path class="beast-nose-14-st-1" d="M-48.2,394.7c1.4-13.7-5.1-31.1,5.1-42.6c2.1-2.4-1.4-6-3.5-3.5c-10.2,11.5-6.4,26.8-6.3,40.7
			c0.1,8.8-3,17.3-5.5,25.6c-2.6,8.9-4.4,17.8-3.3,27.1c0.4,3.2,5.4,3.2,5,0C-58.7,425.3-49.9,411-48.2,394.7z"/>
		<path class="beast-nose-14-st-1" d="M-57.2,375c-0.7-7.2,1.3-12.9,3.3-19.6c0.9-3.1-3.9-4.4-4.8-1.3c-1.7,5.8-3.9,11.2-3.8,17.3
			c0.1,7.2,1.7,14.2,1.2,21.4c-0.9,13.9-8.2,26.5-8.2,40.6c0,3.2,5,3.2,5,0c0-13.5,6.7-25.6,8-38.9C-55.7,387.9-56.5,381.5-57.2,375
			z"/>
		<path class="beast-nose-14-st-1" d="M-63.5,362.7c1.1-3.1-3.8-4.4-4.8-1.3c-3.7,10.8,0.8,21.9-0.8,32.9c-1.5,11-6.2,21.3-7.3,32.4
			c-0.3,3.2,4.7,3.2,5,0c1.2-11.2,5.8-21.7,7.4-32.9C-62.6,383.4-67,372.9-63.5,362.7z"/>
		<path class="beast-nose-14-st-1" d="M-70.8,368.7c1.2-3-3.6-4.3-4.8-1.3c-3.1,7.4-1.8,15.5-1.7,23.3c0,9.2-4.7,17.8-5,27.1c-0.1,3.2,4.9,3.2,5,0
			c0.3-8.8,4.1-16.9,5-25.7C-71.6,384.1-74.1,376.4-70.8,368.7z"/>
		<path class="beast-nose-14-st-1" d="M-79.1,373.6c1.4-2.9-2.9-5.4-4.3-2.5c-3.1,6.2-1.6,12-1.3,18.6c0.2,7.5-4.3,14.4-4.3,22c0,3.2,5,3.2,5,0
			c0-6.3,2.9-12,4-18.1C-78.9,386.9-82.3,380-79.1,373.6z"/>
		<path class="beast-nose-14-st-1" d="M-87.3,391.5c1.1-4.9-0.6-9.9,0.8-14.8c0.9-3.1-3.9-4.4-4.8-1.3c-1.6,5.4,0,10.8-1.2,16.2
			c-1,4.7-3.5,8.5-2.9,13.5c0.3,3.2,5.3,3.2,5,0C-90.9,400.2-88.4,396.1-87.3,391.5z"/>
		<path class="beast-nose-14-st-1" d="M-94.8,388c1-3.1,1.2-6.1,0.7-9.3c-0.6-3.2-5.4-1.8-4.8,1.3c1.2,6.8-4,13-3,20c0.5,3.2,5.3,1.8,4.8-1.3
			C-97.7,395-95.9,391.4-94.8,388z"/>
		<path class="beast-nose-14-st-1" d="M-106.4,381.7c-0.4,4.3-1.9,8.3-2,12.7c-0.1,3.2,4.9,3.2,5,0c0.1-4.3,1.6-8.4,2-12.7
			C-101.1,378.5-106.1,378.5-106.4,381.7z"/>
		<path class="beast-nose-14-st-1" d="M-113.7,383.4c-0.8,2.8-1.7,5.4-1.8,8.3c-0.1,3.2,4.9,3.2,5,0c0.1-2.4,0.9-4.7,1.6-7
			C-107.9,381.6-112.8,380.3-113.7,383.4z"/>
		<path class="beast-nose-14-st-1" d="M-120.6,383.5c-3,0-3,5,0,5C-116.6,388.5-116.6,383.5-120.6,383.5z"/>
	</g>
	<g>
		<path class="beast-nose-14-st-1" d="M28.3,346.9c11,13.8,8.8,30.7,9.2,47.2c0.2,10.2,2.9,20.2,5.9,29.9c2.7,8.7,6.3,16.1,1.3,24.6
			c-1.6,2.8-5.9,0.3-4.3-2.5c4.9-8.3-1-17.7-3.4-25.9c-2.3-8-4-16.2-4.5-24.5c-0.8-15.3,2.6-32.2-7.8-45.2
			C22.8,348,26.3,344.4,28.3,346.9z"/>
		<path class="beast-nose-14-st-1" d="M41.4,398c-1.8-16.7,3.4-33.9-7.7-48.4c-2-2.6,2.4-5,4.3-2.5c10.8,14.2,7.4,31.2,8.1,47.8
			c0.3,9,4.1,17.8,6.7,26.4c2.5,8.5,3.6,17.1,1.5,25.7c-0.8,3.1-5.6,1.8-4.8-1.3C53.5,429,43.2,414.2,41.4,398z"/>
		<path class="beast-nose-14-st-1" d="M49.8,394.7c-1.4-13.7,5.1-31.1-5.1-42.6c-2.1-2.4,1.4-6,3.5-3.5c10.2,11.5,6.4,26.8,6.3,40.7
			c-0.1,8.8,3,17.3,5.5,25.6c2.6,8.9,4.4,17.8,3.3,27.1c-0.4,3.2-5.4,3.2-5,0C60.4,425.3,51.5,411,49.8,394.7z"/>
		<path class="beast-nose-14-st-1" d="M58.8,375c0.7-7.2-1.3-12.9-3.3-19.6c-0.9-3.1,3.9-4.4,4.8-1.3c1.7,5.8,3.9,11.2,3.8,17.3
			c-0.1,7.2-1.7,14.2-1.2,21.4c0.9,13.9,8.2,26.5,8.2,40.6c0,3.2-5,3.2-5,0c0-13.5-6.7-25.6-8-38.9C57.3,387.9,58.1,381.5,58.8,375z
			"/>
		<path class="beast-nose-14-st-1" d="M65.1,362.7c-1.1-3.1,3.8-4.4,4.8-1.3c3.7,10.8-0.8,21.9,0.8,32.9c1.5,11,6.2,21.3,7.3,32.4
			c0.3,3.2-4.7,3.2-5,0c-1.2-11.2-5.8-21.7-7.4-32.9C64.2,383.4,68.6,372.9,65.1,362.7z"/>
		<path class="beast-nose-14-st-1" d="M72.5,368.7c-1.2-3,3.6-4.3,4.8-1.3c3.1,7.4,1.8,15.5,1.7,23.3c0,9.2,4.7,17.8,5,27.1c0.1,3.2-4.9,3.2-5,0
			c-0.3-8.8-4.1-16.9-5-25.7C73.2,384.1,75.7,376.4,72.5,368.7z"/>
		<path class="beast-nose-14-st-1" d="M80.7,373.6c-1.4-2.9,2.9-5.4,4.3-2.5c3.1,6.2,1.6,12,1.3,18.6c-0.2,7.5,4.3,14.4,4.3,22c0,3.2-5,3.2-5,0
			c0-6.3-2.9-12-4-18.1C80.5,386.9,83.9,380,80.7,373.6z"/>
		<path class="beast-nose-14-st-1" d="M89,391.5c-1.1-4.9,0.6-9.9-0.8-14.8c-0.9-3.1,3.9-4.4,4.8-1.3c1.6,5.4,0,10.8,1.2,16.2
			c1,4.7,3.5,8.5,2.9,13.5c-0.3,3.2-5.3,3.2-5,0C92.5,400.2,90,396.1,89,391.5z"/>
		<path class="beast-nose-14-st-1" d="M96.4,388c-1-3.1-1.2-6.1-0.7-9.3c0.6-3.2,5.4-1.8,4.8,1.3c-1.2,6.8,4,13,3,20c-0.5,3.2-5.3,1.8-4.8-1.3
			C99.3,395,97.5,391.4,96.4,388z"/>
		<path class="beast-nose-14-st-1" d="M108,381.7c0.4,4.3,1.9,8.3,2,12.7c0.1,3.2-4.9,3.2-5,0c-0.1-4.3-1.6-8.4-2-12.7
			C102.7,378.5,107.7,378.5,108,381.7z"/>
		<path class="beast-nose-14-st-1" d="M115.3,383.4c0.8,2.8,1.7,5.4,1.8,8.3c0.1,3.2-4.9,3.2-5,0c-0.1-2.4-0.9-4.7-1.6-7
			C109.5,381.6,114.4,380.3,115.3,383.4z"/>
		<path class="beast-nose-14-st-1" d="M122.4,383.5c3,0,3,5,0,5C118.4,388.5,118.4,383.5,122.4,383.5z"/>
	</g>
</g>
</svg>
