<?xml version="1.0" encoding="utf-8"?>
<!-- Generator: Adobe Illustrator 19.1.0, SVG Export Plug-In . SVG Version: 6.00 Build 0)  -->
<svg version="1.1" id="Layer_1" xmlns="http://www.w3.org/2000/svg" xmlns:xlink="http://www.w3.org/1999/xlink" x="0px" y="0px"
	 viewBox="-152 341 305.8 112" style="enable-background:new -152 341 305.8 112;" xml:space="preserve">
<style type="text/css">
	.beast-nose-15-st-0{fill:#75A08A;}
	.beast-nose-15-st-1{fill:#0B3746;}
</style>
<g>
	<path class="beast-nose-15-st-0" d="M-53.4,364.8c-18.3,0-33.5,15.2-33.5,33.5s15.2,33.5,33.5,33.5c18.3,0,33.5-15.2,33.5-33.5
		S-35.2,364.8-53.4,364.8z"/>
	<path class="beast-nose-15-st-1" d="M-34.1,409.3c10.9,5.1,22.6-8.5,26.5-17c6-13.1,7.5-28.4,4.3-42.4c-0.4-1.7-2.6-1.2-2.9,0.2
		c-0.4,0.3-0.7,0.8-0.5,1.5c2.7,10.1,0.1,19.2-7.9,26c-5.9,5-13.5,7.4-19.2,12.4C-39.5,395.1-42.8,405.2-34.1,409.3z"/>
	<path class="beast-nose-15-st-0" d="M55.6,364.1c-18.3,0-33.5,15.2-33.5,33.5c0,18.3,15.2,33.5,33.5,33.5c18.3,0,33.5-15.2,33.5-33.5
		C89.1,379.3,73.8,364.1,55.6,364.1z"/>
	<path class="beast-nose-15-st-1" d="M32.5,390.4c-5.6-5.1-13.2-7.7-19-12.8c-7.9-7-10.3-16.2-7.3-26.2c0.2-0.7,0-1.2-0.4-1.5
		c-0.2-1.4-2.5-1.9-2.9-0.2c-3.4,14-2.3,29.3,3.4,42.5c3.7,8.6,15.1,22.4,26.1,17.6C41.2,405.8,38.1,395.6,32.5,390.4z"/>
	<path class="beast-nose-15-st-1" d="M-63.7,385.9c-3.5-4-7.8-6.5-13.2-6.9c-5.5-0.4-11.1,1.7-16.1,3.7c-6.4,2.6-12.2,4.9-19.3,4.4
		c-7.4-0.6-14.3-4.3-20.1-8.6c-0.5-0.4-1,0.5-0.5,0.9c10.3,7.6,22.7,11.5,35,6.5c5.2-2.1,10.3-4.4,15.9-5.5
		c6.9-1.3,13.1,0.9,17.7,6.3C-64,387.1-63.3,386.4-63.7,385.9z"/>
	<path class="beast-nose-15-st-1" d="M-70,399.1c-10.2-2.6-16.2,9.5-20.9,16.4c-4,5.8-9.4,9.9-16.6,10.8c-7.3,0.9-14.8-2.3-21.9-3.8
		c-0.6-0.1-0.9,0.8-0.3,1c6.6,1.4,13.2,3.9,20.1,4c6,0,12.2-2.8,16.3-7.3c6-6.6,11.6-22.9,23-20C-69.6,400.2-69.3,399.3-70,399.1z"
		/>
	<path class="beast-nose-15-st-1" d="M-52.9,370.2c-2.3-2.8-5.4-4.6-8.6-6.1c-7.2-3.3-14.8-5.5-18.2-13.4c-0.3-0.6-1.1-0.1-0.9,0.5
		c3,6.8,9.1,9.8,15.7,12.5c3.3,1.4,6.7,2.8,9.4,5.2c3.5,3.1,5.1,7.5,5.5,12c0.1,0.6,1.1,0.6,1,0C-49.3,377.1-50.4,373.2-52.9,370.2z
		"/>
	<path class="beast-nose-15-st-1" d="M-60.5,412c-5,8.4-10.7,16.3-19.7,20.7c-3.5,1.7-7.3,2.6-10.7,4.3c-3.5,1.7-6.2,4.4-8.3,7.7
		c-0.3,0.5,0.5,1.1,0.9,0.5c2.6-4.2,6.1-6.7,10.6-8.5c3.6-1.4,7.2-2.5,10.6-4.5c7.8-4.6,12.9-12.1,17.5-19.7
		C-59.3,412-60.2,411.5-60.5,412z"/>
	<path class="beast-nose-15-st-1" d="M-85.3,392.4c-8.3-1.8-15.3,3-21.7,7.6c-7.9,5.7-16.1,11.7-26.4,10.4c-0.6-0.1-0.6,0.9,0,1
		c9.2,1.1,16.9-3.5,24.1-8.6c6.9-4.9,14.6-11.5,23.8-9.4C-84.9,393.5-84.7,392.6-85.3,392.4z"/>
	<path class="beast-nose-15-st-1" d="M135,364.5c-6.2,3-12.7,6.1-19.7,6.3c-6.9,0.2-13.1-2.9-19.3-5.5c-11-4.5-23.9-4.3-32.5,4.6
		c-0.4,0.5,0.3,1.2,0.7,0.7c4.7-4.9,10.9-7.3,17.6-7.3c6.9,0,12.9,2.6,19.2,5.2c5.4,2.2,11,3.7,16.8,3.1c6.2-0.6,12.1-3.6,17.6-6.2
		C136.1,365.1,135.6,364.2,135,364.5z"/>
	<path class="beast-nose-15-st-1" d="M133.8,393.1c-6,2.4-12.3,5.1-18.8,5.5c-6.7,0.4-12.7-2.7-18-6.4c-10.2-7-23.2-14.7-34-4.3
		c-0.5,0.4,0.2,1.2,0.7,0.7c5.6-5.4,12.5-5.9,19.5-3.3c6.7,2.4,11.9,7.3,18.1,10.7c4.6,2.6,9.7,3.9,15,3.5
		c6.2-0.5,12.2-3.1,17.9-5.4C134.6,393.8,134.4,392.9,133.8,393.1z"/>
	<path class="beast-nose-15-st-1" d="M113.9,437.8c-6.9,0.9-7.2-5.9-11.3-9.5c-6.2-5.4-14.5,0.6-21.3,0.8c-3.2,0.1-6.4-2-8.9-3.7
		c-2.9-2-5.5-4.4-8.2-6.5c-3.6-2.8-8-5.6-12.5-3.1c-0.6,0.3-0.1,1.2,0.5,0.9c5.3-3.1,11.1,2.7,14.9,5.8c4.2,3.4,9.2,7.7,15,7.5
		c7.5-0.2,16.3-7.1,21.8,1.2c2.7,4.1,4.2,8.2,10,7.5C114.5,438.7,114.5,437.7,113.9,437.8z"/>
	<path class="beast-nose-15-st-1" d="M115.1,417.1c-4.2,1.5-8.4,1.9-12.6,0.2c-3.3-1.4-6-3.8-8.8-6c-6.3-4.9-12.7-7.1-20.6-4.9
		c-0.6,0.2-0.4,1.1,0.3,1c4.5-1.3,9.1-1.3,13.4,0.6c3.3,1.5,6.1,3.9,9,6.1c2.6,2,5.2,3.8,8.4,4.7c3.7,1.1,7.7,0.5,11.3-0.8
		C116,417.9,115.7,416.9,115.1,417.1z"/>
	<path class="beast-nose-15-st-1" d="M69.6,352.5c-8.8,6-27.4,9.7-25.6,23.8c0.1,0.6,1.1,0.6,1,0c-1.7-13.5,16.6-17.1,25.1-22.9
		C70.7,353,70.2,352.1,69.6,352.5z"/>
	<path class="beast-nose-15-st-1" d="M48.9,439.2c-4.6-4.5-14-10.9-8-18c0.4-0.5-0.3-1.2-0.7-0.7c-6.6,7.7,2.9,14.3,8,19.4
		C48.7,440.4,49.4,439.7,48.9,439.2z"/>
	<path class="beast-nose-15-st-1" d="M64.3,403.9c-3.5-4.1-8.5-6.6-12.7-2c-0.4,0.5,0.3,1.2,0.7,0.7c3.9-4.2,8.2-1.6,11.3,2
		C64,405.1,64.7,404.4,64.3,403.9z"/>
	<path class="beast-nose-15-st-1" d="M57.5,378.6c-2.4,3.1-4.5,7.7-9,7.9c-0.6,0-0.6,1,0,1c4.9-0.2,7-4.7,9.7-8.1C58.6,378.8,57.9,378.1,57.5,378.6
		z"/>
	<path class="beast-nose-15-st-1" d="M-48.5,412c0.5-0.4,0-1.2-0.5-0.9c-4.3,3.1-4.6,8-1.4,12.1c0.4,0.5,1.1-0.2,0.7-0.7
		C-52.5,419-52.3,414.7-48.5,412z"/>
	<path class="beast-nose-15-st-1" d="M-56.3,394c-0.3-0.6-1.1-0.1-0.9,0.5c1.2,2.5,1.2,5,0.6,7.6c-0.1,0.6,0.8,0.9,1,0.3
		C-54.9,399.5-55.1,396.7-56.3,394z"/>
	<path class="beast-nose-15-st-1" d="M-29.9,360.8c-1.4,8.2-11.8,10.1-12,18.8c0,0.6,1,0.6,1,0c0.1-4.6,3.1-7.1,6.3-9.8c2.9-2.4,5-5,5.6-8.7
		C-28.8,360.4-29.8,360.2-29.9,360.8z"/>
	<path class="beast-nose-15-st-1" d="M-71.1,373.2c-8.8-9-22.2-0.9-32.1-7.4c-0.5-0.4-1,0.5-0.5,0.9c4.5,3,9.6,3.3,14.9,3.1
		c6.2-0.3,12.3-0.6,17,4.2C-71.3,374.4-70.6,373.7-71.1,373.2z"/>
	<path class="beast-nose-15-st-1" d="M-60.6,429.5c-0.7,3.1-3,5.6-5.8,7c-0.6,0.3-0.1,1.2,0.5,0.9c3-1.6,5.5-4.3,6.2-7.6
		C-59.5,429.1-60.4,428.8-60.6,429.5z"/>
	<path class="beast-nose-15-st-1" d="M-34.4,430.6c-2.4-1.8-3.2-4-3.2-7c0-0.6-1-0.6-1,0c0,3.2,0.9,5.7,3.5,7.7C-34.6,431.7-33.9,431-34.4,430.6z"
		/>
	<path class="beast-nose-15-st-1" d="M32.2,417.2c-3.9,4.7-4.8,10.8-10.6,13.9c-0.6,0.3-0.1,1.2,0.5,0.9c2.6-1.4,4.5-3.3,6.1-5.9
		c1.6-2.7,2.7-5.7,4.7-8.2C33.3,417.5,32.6,416.7,32.2,417.2z"/>
	<path class="beast-nose-15-st-1" d="M32.3,375.9c-3.5-3-6.4-6.7-5.2-11.5c0.2-0.6-0.8-0.9-1-0.3c-1.3,5.2,1.7,9.3,5.5,12.5
		C32,377,32.7,376.3,32.3,375.9z"/>
	<path class="beast-nose-15-st-1" d="M94.7,402.4c-4.3-0.7-8-2.7-11.9-4.6c-0.6-0.3-1.1,0.6-0.5,0.9c3.9,2,7.7,4,12.1,4.7
		C95.1,403.5,95.3,402.5,94.7,402.4z"/>
	<path class="beast-nose-15-st-1" d="M88,373.1c-4.6-1.2-9.8-0.9-13.7,2.1c-0.5,0.4,0,1.2,0.5,0.9c3.8-2.8,8.5-3.1,12.9-1.9
		C88.4,374.2,88.7,373.3,88,373.1z"/>
</g>
</svg>
