<?xml version="1.0" encoding="utf-8"?>
<!-- Generator: Adobe Illustrator 19.1.0, SVG Export Plug-In . SVG Version: 6.00 Build 0)  -->
<svg version="1.1" id="Layer_1" xmlns="http://www.w3.org/2000/svg" xmlns:xlink="http://www.w3.org/1999/xlink" x="0px" y="0px"
	 viewBox="-152 341 305.8 112" style="enable-background:new -152 341 305.8 112;" xml:space="preserve">
<style type="text/css">
	.beast-nose-16-st-0{fill:#FCDCA4;}
	.beast-nose-16-st-1{fill:#D72050;}
</style>
<g>
	<path class="beast-nose-16-st-0" d="M145.6,431.6c-10.6-16.4-27.6-25.9-43.4-36.5c-9.2-6.1-16.7-14.5-25.4-21.3c-7-5.5-17.1-8.9-21.8-16.9
		c-1.7-3-6.2-3.7-8.6-1.1c-5.6,6.1-10.7,12.7-15.8,19.4c-4.1,5.5-8.8,10.7-12.5,16.5c-5.2,8-9.3,17.1-15.7,24.3
		c0.1-0.1-0.2,0.2-0.4,0.4c-1.7-1-3.1-2.6-4.4-4c-3.5-3.6-6.6-7.8-9.5-11.9c-9.7-13.6-20.5-26.6-31.2-39.4c-1.6-1.9-4.7-2-6.7-0.9
		c-33.4,19.4-57.9,51-92,69.3c-6.2,3.4-0.7,12.9,5.6,9.5c32.8-17.6,56.6-47.4,88-66.9c10,12.1,19.7,24.4,29,37
		C-14.6,415.6-4,432,6,427c3.9-2,6.6-6.2,9-9.6c3.5-5,6.5-10.3,9.6-15.5c3.3-5.4,7.1-10.3,11-15.3c4.7-6.2,9.3-12.4,14.4-18.3
		c4.5,4.5,10.1,7.6,15.6,11c9,5.6,16.2,13.8,24.4,20.4c15.4,12.5,34.9,20.2,46.1,37.5C139.9,443.1,149.5,437.6,145.6,431.6z"/>
	<path class="beast-nose-16-st-1" d="M-55.8,407.2c-11,0-11,17,0,17C-44.9,424.2-44.9,407.2-55.8,407.2z"/>
	<path class="beast-nose-16-st-1" d="M57.2,405.8c-11,0-11,17,0,17S68.2,405.8,57.2,405.8z"/>
	<path class="beast-nose-16-st-1" d="M1.2,365.2c-11,0-11,17,0,17S12.2,365.2,1.2,365.2z"/>
	<path class="beast-nose-16-st-1" d="M-120.8,365.8c-11,0-11,17,0,17S-109.8,365.8-120.8,365.8z"/>
	<path class="beast-nose-16-st-1" d="M120.2,363.2c-11,0-11,17,0,17C131.1,380.2,131.1,363.2,120.2,363.2z"/>
	<path class="beast-nose-16-st-1" d="M-134.3,436.3c-1.4-2.2-3.1-4.3-4.8-6.3c-0.4-0.5-1.1,0.2-0.7,0.7c1.7,1.9,3.3,4,4.7,6.1
		C-134.8,437.3-134,436.8-134.3,436.3z"/>
	<path class="beast-nose-16-st-1" d="M-130.9,433.8c-1.9-1.9-2.7-4.5-4.6-6.3c-0.5-0.4-1.2,0.3-0.7,0.7c1.9,1.8,2.7,4.4,4.6,6.3
		C-131.1,435-130.4,434.3-130.9,433.8z"/>
	<path class="beast-nose-16-st-1" d="M-127.4,431.5c-1.9-1.6-2.7-4.1-4-6.1c-0.3-0.5-1.2,0-0.9,0.5c1.3,2.1,2.1,4.7,4.1,6.3
		C-127.6,432.6-126.9,431.9-127.4,431.5z"/>
	<path class="beast-nose-16-st-1" d="M-123.9,429.7c-1.6-2.1-3-4.3-4.3-6.6c-0.3-0.6-1.2-0.1-0.9,0.5c1.3,2.4,2.8,4.6,4.5,6.8
		C-124.2,430.9-123.5,430.2-123.9,429.7z"/>
	<path class="beast-nose-16-st-1" d="M-120.4,426.9c-1.8-1.7-3-3.8-4.3-5.9c-0.3-0.5-1.2,0-0.9,0.5c1.3,2.1,2.6,4.3,4.5,6.1
		C-120.6,428.1-119.9,427.4-120.4,426.9z"/>
	<path class="beast-nose-16-st-1" d="M-117.2,424.4c-2.2-1.2-2.8-4.1-4.7-5.6c-0.5-0.4-1.2,0.3-0.7,0.7c2,1.6,2.6,4.5,4.9,5.8
		C-117.1,425.6-116.6,424.7-117.2,424.4z"/>
	<path class="beast-nose-16-st-1" d="M-114,422.1c-1.8-1.7-3.1-3.8-4.9-5.5c-0.5-0.4-1.2,0.3-0.7,0.7c1.8,1.7,3.1,3.8,4.9,5.5
		C-114.2,423.2-113.5,422.5-114,422.1z"/>
	<path class="beast-nose-16-st-1" d="M-110.2,419.1c-0.9-0.8-1.8-1.6-2.7-2.4c-0.9-0.8-1.9-1.8-2.1-3c-0.1-0.6-1.1-0.4-1,0.3
		c0.4,2.5,3.4,4.2,5.1,5.8C-110.4,420.3-109.7,419.6-110.2,419.1z"/>
	<path class="beast-nose-16-st-1" d="M-106.4,416.6c-1.9-1.6-3.8-3.5-5-5.7c-0.3-0.6-1.2-0.1-0.9,0.5c1.3,2.3,3.2,4.2,5.2,5.9
		C-106.6,417.7-105.9,417-106.4,416.6z"/>
	<path class="beast-nose-16-st-1" d="M-103.1,413.6c-1.8-1.5-3.5-3.2-4.9-5.1c-0.4-0.5-1.3,0-0.9,0.5c1.5,1.9,3.2,3.7,5.1,5.3
		C-103.3,414.7-102.6,414-103.1,413.6z"/>
	<path class="beast-nose-16-st-1" d="M-100.7,411.1c-1-0.6-1.9-1.3-2.7-2c-0.7-0.6-1.9-1.5-2.2-2.5c-0.1-0.6-1.1-0.4-1,0.3c0.2,1.1,1.3,1.9,2,2.6
		c1,0.9,2.1,1.8,3.3,2.5C-100.6,412.3-100.1,411.4-100.7,411.1z"/>
	<path class="beast-nose-16-st-1" d="M-98.4,408.9c-1.4-1.6-3.6-2.6-4.6-4.6c-0.3-0.6-1.1-0.1-0.9,0.5c1,2.1,3.3,3.1,4.7,4.8
		C-98.6,410.1-97.9,409.4-98.4,408.9z"/>
	<path class="beast-nose-16-st-1" d="M-94.9,406.6c-0.9-0.7-1.9-1.5-2.8-2.2c-1-0.8-2.2-1.7-2.7-2.9c-0.2-0.6-1.2-0.3-1,0.3c1,2.4,3.8,4,5.7,5.6
		C-95.1,407.7-94.4,407-94.9,406.6z"/>
	<path class="beast-nose-16-st-1" d="M-92.8,404.8c-1.7-1.6-3.1-3.3-4.7-5c-0.4-0.5-1.1,0.2-0.7,0.7c1.5,1.7,3,3.4,4.7,5
		C-93.1,405.9-92.4,405.2-92.8,404.8z"/>
	<path class="beast-nose-16-st-1" d="M-89.8,402.7c-0.8-0.8-1.6-1.6-2.4-2.5c-0.6-0.7-1.8-1.9-1.8-2.9c0-0.6-1-0.6-1,0c-0.1,1.1,0.9,2.1,1.5,2.9
		c0.9,1.1,1.9,2.1,3,3.1C-90,403.9-89.3,403.2-89.8,402.7z"/>
	<path class="beast-nose-16-st-1" d="M-86.9,399.7c-0.8-0.8-1.7-1.5-2.6-2.3c-0.8-0.7-2.1-1.7-2.2-2.8c-0.1-0.6-1.1-0.6-1,0
		c0.3,2.6,3.5,4.1,5.1,5.8C-87.1,400.9-86.4,400.2-86.9,399.7z"/>
	<path class="beast-nose-16-st-1" d="M-83.7,396.9c-0.8-0.7-1.6-1.4-2.4-2.2c-0.5-0.5-1-0.9-1.5-1.4c-0.2-0.2-0.4-0.4-0.5-0.6
		c-0.1-0.1-0.1-0.1-0.1-0.2c0,0,0-0.1-0.1-0.1c0.1-0.5-0.6-0.8-0.9-0.3c-0.5,0.8,1.1,2.1,1.5,2.5c1.1,1.1,2.2,2,3.3,3
		C-83.9,398.1-83.2,397.4-83.7,396.9z"/>
	<path class="beast-nose-16-st-1" d="M-80.5,394c-0.8-0.8-1.7-1.5-2.6-2.2c-0.8-0.7-1.9-1.5-2.1-2.6c-0.1-0.6-1.1-0.4-1,0.3
		c0.5,2.4,3.4,3.6,4.9,5.2C-80.8,395.2-80.1,394.5-80.5,394z"/>
	<path class="beast-nose-16-st-1" d="M-77.3,391.8c-1.6-1.7-3.6-3.1-4.8-5.3c-0.3-0.6-1.2-0.1-0.9,0.5c1.2,2.2,3.2,3.7,4.9,5.5
		C-77.6,393-76.9,392.3-77.3,391.8z"/>
	<path class="beast-nose-16-st-1" d="M-75.1,389.4c-1.7-1.5-3-3.3-4.5-5c-0.4-0.5-1.1,0.2-0.7,0.7c1.5,1.7,2.8,3.5,4.5,5
		C-75.3,390.6-74.6,389.8-75.1,389.4z"/>
	<path class="beast-nose-16-st-1" d="M-72.2,387.3c-0.9-0.7-1.5-1.7-2.2-2.5c-0.9-0.9-1.9-1.8-2.6-2.9c-0.3-0.6-1.2,0-0.9,0.5
		c0.7,1.1,1.6,2,2.5,2.8c1,0.9,1.7,2.1,2.7,2.9C-72.2,388.6-71.7,387.7-72.2,387.3z"/>
	<path class="beast-nose-16-st-1" d="M-69.6,385.3c-0.9-0.8-1.8-1.5-2.7-2.4c-0.8-0.8-1.8-1.7-2.1-2.9c-0.2-0.6-1.1-0.4-1,0.3
		c0.6,2.4,3.3,4.1,5.1,5.7C-69.8,386.4-69.1,385.7-69.6,385.3z"/>
	<path class="beast-nose-16-st-1" d="M-67.6,382.9c-0.8-0.6-1.5-1.3-2.2-2c-0.7-0.7-1.9-1.7-2-2.8c-0.1-0.6-1.1-0.6-1,0c0.1,1.1,0.9,1.9,1.6,2.7
		c0.9,1,1.9,1.9,2.9,2.7C-67.8,384-67.1,383.3-67.6,382.9z"/>
	<path class="beast-nose-16-st-1" d="M-65.2,381.4c-1.6-1.3-3.8-3.5-4.1-5.7c-0.1-0.6-1.1-0.4-1,0.3c0.4,2.3,2.6,4.7,4.4,6.1
		C-65.5,382.5-64.7,381.8-65.2,381.4z"/>
	<path class="beast-nose-16-st-1" d="M-62,379.2c-1.3-1.6-4.2-3.4-4.3-5.7c0-0.6-1-0.6-1,0c0.2,2.7,3.1,4.5,4.6,6.4
		C-62.3,380.4-61.6,379.7-62,379.2z"/>
	<path class="beast-nose-16-st-1" d="M-59.8,377.7c-1.5-1.8-3.4-3.4-4.3-5.7c-0.2-0.6-1.2-0.3-1,0.3c0.9,2.4,2.9,4.2,4.5,6.1
		C-60.1,378.9-59.4,378.1-59.8,377.7z"/>
	<path class="beast-nose-16-st-1" d="M-56.7,375.8c-1.8-1.9-3.8-3.6-5-5.9c-0.3-0.6-1.2-0.1-0.9,0.5c1.3,2.4,3.4,4.2,5.2,6.2
		C-57,377-56.3,376.3-56.7,375.8z"/>
	<path class="beast-nose-16-st-1" d="M-53.7,373.8c-1.6-2-3.7-3.5-5-5.7c-0.3-0.5-1.2,0-0.9,0.5c1.4,2.2,3.6,3.8,5.2,5.9
		C-54.1,375-53.4,374.3-53.7,373.8z"/>
	<path class="beast-nose-16-st-1" d="M-50.7,372.1c-1.2-2.4-3.2-4.2-4.8-6.2c-0.4-0.5-1.1,0.2-0.7,0.7c1.6,2,3.5,3.8,4.7,6
		C-51.3,373.1-50.4,372.6-50.7,372.1z"/>
	<path class="beast-nose-16-st-1" d="M-48,370.7c-0.9-1.1-1.7-2.4-2.5-3.6c-0.5-0.7-1.2-1.6-1.5-2.5c0.2-0.3,0.1-0.8-0.4-0.8c-0.1,0-0.1,0-0.2,0
		c-0.3,0-0.5,0.3-0.5,0.6c0.2,1,1.1,2.2,1.7,3.1c0.9,1.3,1.7,2.6,2.7,3.8C-48.3,371.9-47.6,371.2-48,370.7z"/>
	<path class="beast-nose-16-st-1" d="M-45,369c-1.7-2-3-4.3-4.5-6.5c-0.4-0.5-1.2,0-0.9,0.5c1.5,2.3,2.9,4.6,4.7,6.7C-45.3,370.2-44.6,369.5-45,369
		z"/>
	<path class="beast-nose-16-st-1" d="M-42.1,367.3c-1.6-2.2-3.2-4.3-4.6-6.7c-0.3-0.6-1.2-0.1-0.9,0.5c1.4,2.3,3,4.5,4.6,6.7
		C-42.6,368.3-41.7,367.8-42.1,367.3z"/>
	<path class="beast-nose-16-st-1" d="M-39.3,368.2c-2,1.5-4.1,3.1-6.3,4.3c-0.6,0.3-0.1,1.2,0.5,0.9c2.2-1.3,4.3-2.8,6.3-4.3
		C-38.3,368.6-38.8,367.8-39.3,368.2z"/>
	<path class="beast-nose-16-st-1" d="M-37.3,370.5c-2.5,1.3-4.8,3-6.8,4.9c-0.5,0.5,0.2,1.2,0.7,0.7c1.9-1.9,4.1-3.5,6.6-4.8
		C-36.2,371.1-36.8,370.2-37.3,370.5z"/>
	<path class="beast-nose-16-st-1" d="M-35.4,373.3c-2.3,1.1-5,2.7-6.2,5c-0.3,0.6,0.6,1.1,0.9,0.5c1.2-2.2,3.7-3.6,5.9-4.7
		C-34.3,373.9-34.8,373.1-35.4,373.3z"/>
	<path class="beast-nose-16-st-1" d="M-33.2,376c-2.3,1.6-4.9,3-6.5,5.4c-0.4,0.5,0.5,1,0.9,0.5c1.5-2.2,4-3.5,6.1-5
		C-32.1,376.5-32.6,375.7-33.2,376z"/>
	<path class="beast-nose-16-st-1" d="M-30.4,378.6c-2.3,1.5-5.5,2.9-6.7,5.5c-0.3,0.6,0.6,1.1,0.9,0.5c1.2-2.4,4.3-3.7,6.4-5.1
		C-29.4,379.1-29.9,378.3-30.4,378.6z"/>
	<path class="beast-nose-16-st-1" d="M-27.8,381.7c-1.9,2.2-4.3,4.1-6.9,5.4c-0.6,0.3-0.1,1.1,0.5,0.9c2.7-1.3,5.2-3.3,7.1-5.5
		C-26.7,381.9-27.4,381.2-27.8,381.7z"/>
	<path class="beast-nose-16-st-1" d="M-26,385.6c-0.9,0.9-1.9,1.6-2.9,2.4c-0.5,0.4-1.1,0.8-1.6,1.2c-0.2,0.2-0.8,0.7-1.1,0.7c-0.6,0-0.6,1,0,1
		c1,0,2.1-1.2,2.8-1.7c1.2-0.9,2.4-1.8,3.5-2.9C-24.8,385.9-25.6,385.2-26,385.6z"/>
	<path class="beast-nose-16-st-1" d="M-23.3,388.6c-2.2,1.3-4,3.3-6.3,4.3c-0.6,0.3-0.1,1.1,0.5,0.9c2.3-1.1,4.1-3,6.3-4.3
		C-22.3,389.1-22.8,388.2-23.3,388.6z"/>
	<path class="beast-nose-16-st-1" d="M-20.8,391.1c-2.3,1.6-4.4,3.5-6.3,5.6c-0.4,0.5,0.3,1.2,0.7,0.7c1.8-2.1,3.9-3.9,6.1-5.5
		C-19.8,391.6-20.3,390.8-20.8,391.1z"/>
	<path class="beast-nose-16-st-1" d="M-18.1,395c-1.3,0.7-2.4,1.8-3.7,2.6c-1.1,0.7-2.1,1.4-2.8,2.5c-0.3,0.5,0.5,1,0.9,0.5c0.7-1.2,2-1.8,3.1-2.5
		c1.1-0.7,1.9-1.6,3.1-2.2C-17,395.5-17.5,394.7-18.1,395z"/>
	<path class="beast-nose-16-st-1" d="M-16,398.1c-2.3,1.4-4.2,3.2-6.5,4.6c-0.5,0.3,0,1.2,0.5,0.9c2.2-1.4,4.2-3.2,6.5-4.6
		C-14.9,398.6-15.4,397.7-16,398.1z"/>
	<path class="beast-nose-16-st-1" d="M-13.7,401.2c-2,1.7-3.9,3.5-6.2,4.7c-0.6,0.3-0.1,1.2,0.5,0.9c2.4-1.2,4.4-3.1,6.4-4.8
		C-12.5,401.5-13.2,400.7-13.7,401.2z"/>
	<path class="beast-nose-16-st-1" d="M-11.2,403.9c-2.2,1.2-4.8,2.8-6.4,4.8c-0.4,0.5,0.3,1.2,0.7,0.7c1.6-1.9,4-3.5,6.2-4.7
		C-10.2,404.5-10.7,403.6-11.2,403.9z"/>
	<path class="beast-nose-16-st-1" d="M-8.6,407.2c-2.2,1.5-4.3,3.2-6.5,4.7c-0.5,0.4,0,1.2,0.5,0.9c0,0,0.1,0,0.1-0.1l0,0c2.2-1.5,4.2-3.2,6.4-4.7
		C-7.6,407.7-8.1,406.9-8.6,407.2z"/>
	<path class="beast-nose-16-st-1" d="M-6.9,410.4c-2,1.8-4.3,3.2-6.3,5c-0.5,0.4,0.2,1.1,0.7,0.7c2-1.8,4.3-3.2,6.3-5C-5.7,410.7-6.4,410-6.9,410.4
		z"/>
	<path class="beast-nose-16-st-1" d="M-4.1,413.3c-2.1,1.9-4.7,3.2-6.6,5.4c-0.4,0.5,0.3,1.2,0.7,0.7c1.9-2.2,4.5-3.5,6.6-5.4
		C-2.9,413.5-3.6,412.8-4.1,413.3z"/>
	<path class="beast-nose-16-st-1" d="M-2.3,415.4c-2,1.8-3.5,4-5.9,5.4c-0.6,0.3-0.1,1.2,0.5,0.9c2.4-1.4,4-3.7,6.1-5.5
		C-1.1,415.7-1.9,415-2.3,415.4z"/>
	<path class="beast-nose-16-st-1" d="M1.1,417.5c-2.4,1.5-4.1,3.7-6.1,5.8c-0.4,0.5,0.3,1.2,0.7,0.7c1.9-2,3.5-4.2,5.9-5.6
		C2.1,418,1.6,417.2,1.1,417.5z"/>
	<path class="beast-nose-16-st-1" d="M4,419.5c-2.4,1.3-4.2,3.7-6,5.8c-0.4,0.5,0.3,1.2,0.7,0.7c1.7-2,3.4-4.4,5.8-5.6C5.1,420.1,4.6,419.2,4,419.5
		z"/>
	<path class="beast-nose-16-st-1" d="M5.6,423c-1.4,1-3,2.2-3.9,3.8c-0.3,0.6,0.5,1.1,0.9,0.5c0.8-1.4,2.2-2.5,3.5-3.5C6.7,423.5,6.2,422.7,5.6,423
		z"/>
	<path class="beast-nose-16-st-1" d="M10.5,420.1c-2.1-1.4-4.2-2.7-6-4.4c-0.5-0.4-1.2,0.3-0.7,0.7c1.9,1.8,4.1,3.2,6.2,4.6
		C10.5,421.3,11,420.5,10.5,420.1z"/>
	<path class="beast-nose-16-st-1" d="M13.2,417.5c-0.9-0.7-1.9-1.2-2.9-1.8c-0.7-0.4-1.3-0.8-2-1.2c-0.3-0.2-0.6-0.4-0.9-0.6
		c-0.1-0.1-0.2-0.1-0.3-0.2c-0.1-0.1-0.1-0.1-0.1-0.1c0-0.4-0.6-0.7-0.9-0.3c-0.6,0.9,1.6,2,2.1,2.3c1.4,0.9,3,1.5,4.3,2.5
		C13,418.6,13.7,417.9,13.2,417.5z"/>
	<path class="beast-nose-16-st-1" d="M14.9,414.3c-1-0.4-2-1-3-1.6c-0.6-0.3-1.1-0.7-1.7-1c-0.2-0.2-0.4-0.3-0.6-0.5c-0.2-0.2-0.2-0.4-0.2-0.1
		c0.1-0.6-0.9-0.9-1-0.3c-0.2,1,1.5,1.8,2.1,2.2c1.3,0.8,2.7,1.6,4.1,2.2C15.3,415.5,15.5,414.5,14.9,414.3z"/>
	<path class="beast-nose-16-st-1" d="M17.1,411.6c-1.2-0.5-2.4-1.1-3.5-1.7c-0.9-0.5-2.8-1.4-2.9-2.5c-0.1-0.6-1.1-0.4-1,0.3c0.2,1.2,1.6,2,2.6,2.6
		c1.4,0.9,2.8,1.6,4.3,2.3C17.2,412.7,17.7,411.9,17.1,411.6z"/>
	<path class="beast-nose-16-st-1" d="M19,408.4c-2.3-1.5-5.1-2.3-6.8-4.5c-0.4-0.5-1.1,0.2-0.7,0.7c1.8,2.3,4.7,3.1,7,4.7
		C19.1,409.7,19.6,408.8,19,408.4z"/>
	<path class="beast-nose-16-st-1" d="M21,405.6c-2.3-1.8-5.3-2.5-7.3-4.6c-0.5-0.5-1.2,0.3-0.7,0.7c2.1,2.1,5.1,2.8,7.3,4.6
		C20.8,406.7,21.5,406,21,405.6z"/>
	<path class="beast-nose-16-st-1" d="M22.7,402.3c-2-1.3-5.1-1.9-6.6-3.8c-0.4-0.5-1.3,0-0.9,0.5c1.6,2.2,4.7,2.7,6.9,4.2
		C22.8,403.5,23.3,402.6,22.7,402.3z"/>
	<path class="beast-nose-16-st-1" d="M24.2,399.8c-2.1-1.5-4.4-2.6-6.5-4.1c-0.5-0.4-1,0.5-0.5,0.9c2.1,1.4,4.4,2.6,6.5,4.1
		C24.2,401,24.7,400.2,24.2,399.8z"/>
	<path class="beast-nose-16-st-1" d="M26,396.7c-2.1-1.1-4.1-3.5-6.6-3.7c-0.6,0-0.6,1,0,1c1,0.1,2.1,1,2.9,1.5c1,0.7,2,1.5,3.1,2
		C26.1,397.8,26.6,397,26,396.7z"/>
	<path class="beast-nose-16-st-1" d="M28.4,394.1c-2.4-1.4-4.5-3.3-6.9-4.7c-0.6-0.3-1.1,0.5-0.5,0.9c2.4,1.4,4.5,3.3,6.9,4.7
		C28.5,395.3,29,394.4,28.4,394.1z"/>
	<path class="beast-nose-16-st-1" d="M30.4,389.9c-1.4-0.6-2.9-1.1-4.2-1.9c-1-0.5-2-1.3-3.1-1.5c-0.6-0.1-0.9,0.8-0.3,1c1.1,0.2,2.2,1,3.2,1.5
		c1.2,0.7,2.6,1.1,3.9,1.7C30.5,391.1,31,390.2,30.4,389.9z"/>
	<path class="beast-nose-16-st-1" d="M33.2,386.5c-2.6-0.4-5.1-1.9-7.2-3.3c-0.5-0.4-1,0.5-0.5,0.9c2.2,1.5,4.8,3,7.5,3.4
		C33.5,387.6,33.8,386.6,33.2,386.5z"/>
	<path class="beast-nose-16-st-1" d="M35.8,384.1c-2.2-1.4-4.9-2.2-6.6-4.2c-0.4-0.5-1.1,0.2-0.7,0.7c1.8,2.1,4.6,2.9,6.8,4.4
		C35.8,385.4,36.3,384.5,35.8,384.1z"/>
	<path class="beast-nose-16-st-1" d="M38,380.7c-1.4-0.8-2.7-1.6-4-2.5c-0.9-0.5-2-1-2.7-1.8c-0.4-0.5-1.2,0.2-0.7,0.7c0.7,0.7,1.8,1.2,2.6,1.8
		c1.4,0.9,2.8,1.8,4.3,2.6C38.1,381.9,38.6,381,38,380.7z"/>
	<path class="beast-nose-16-st-1" d="M40.3,378.2c-1.1-0.6-2.3-1.1-3.4-1.7c-0.8-0.4-3-1.3-3.1-2.4c-0.1-0.6-1.1-0.6-1,0c0.1,1.2,1.5,2,2.5,2.6
		c1.4,0.9,3,1.5,4.5,2.3C40.3,379.4,40.8,378.5,40.3,378.2z"/>
	<path class="beast-nose-16-st-1" d="M42.6,375.1c-2.6-1.3-5.1-2.8-7.5-4.5c-0.5-0.4-1,0.5-0.5,0.9c2.4,1.7,4.9,3.2,7.5,4.5
		C42.7,376.2,43.2,375.4,42.6,375.1z"/>
	<path class="beast-nose-16-st-1" d="M44.8,372.3c-2.4-1.1-5-2.3-6.9-4.2c-0.5-0.5-1.2,0.2-0.7,0.7c2,2,4.6,3.2,7.1,4.4
		C44.9,373.4,45.4,372.6,44.8,372.3z"/>
	<path class="beast-nose-16-st-1" d="M46.8,369.9c-2.1-1.4-4.2-2.6-6.2-4.1c-0.5-0.3-1,0.4-0.6,0.8c0.2,0.2,0.3,0.3,0.5,0.4c0.1,0,0.1,0.1,0.2,0.1
		c1.8,1.3,3.8,2.4,5.6,3.6C46.8,371.1,47.3,370.2,46.8,369.9z"/>
	<path class="beast-nose-16-st-1" d="M48.8,368.4c-2.2-1.3-4.2-2.8-5.9-4.6c-0.5-0.5-1.2,0.3-0.7,0.7c1.9,1.8,3.9,3.5,6.2,4.7
		C48.9,369.6,49.4,368.7,48.8,368.4z"/>
	<path class="beast-nose-16-st-1" d="M50.2,365.9c-2-1.6-3.8-3.3-5.8-4.8c-0.5-0.4-1.2,0.3-0.7,0.7c2,1.6,3.8,3.3,5.8,4.8
		C50,367,50.7,366.3,50.2,365.9z"/>
	<path class="beast-nose-16-st-1" d="M52.5,363.1c-2.3-1.1-4.2-3-6.2-4.5c-0.5-0.4-1,0.5-0.5,0.9c2,1.5,3.9,3.4,6.2,4.5
		C52.5,364.2,53,363.3,52.5,363.1z"/>
	<path class="beast-nose-16-st-1" d="M54.4,360c-2-1.2-3.5-3.1-5.4-4.3c-0.5-0.3-1,0.5-0.5,0.9c2,1.3,3.4,3.2,5.4,4.3
		C54.4,361.2,54.9,360.3,54.4,360z"/>
	<path class="beast-nose-16-st-1" d="M57.1,362.8c-2,1.5-4.1,3.1-5.5,5.3c-0.4,0.5,0.5,1,0.9,0.5c1.3-2,3.2-3.6,5.1-4.9
		C58.1,363.3,57.6,362.4,57.1,362.8z"/>
	<path class="beast-nose-16-st-1" d="M59.4,364.9c-1.6,1.7-3.1,3.6-4.9,5.1c-0.5,0.4,0.2,1.1,0.7,0.7c1.8-1.5,3.3-3.4,4.9-5.1
		C60.5,365.2,59.8,364.5,59.4,364.9z"/>
	<path class="beast-nose-16-st-1" d="M62.4,366.8c-1.9,1.7-3.3,3.8-4.7,5.9c-0.4,0.5,0.5,1,0.9,0.5c1.4-2,2.7-4.1,4.6-5.7
		C63.6,367,62.9,366.3,62.4,366.8z"/>
	<path class="beast-nose-16-st-1" d="M66.2,368.6c-1.5,1.9-3.2,3.6-4.8,5.4c-0.4,0.5,0.3,1.2,0.7,0.7c1.7-1.7,3.3-3.5,4.8-5.4
		C67.3,368.8,66.6,368.1,66.2,368.6z"/>
	<path class="beast-nose-16-st-1" d="M69.7,370.5c-1.8,2-3.6,4.1-5.4,6c-0.5,0.5,0.3,1.2,0.7,0.7c1.9-1.9,3.6-4,5.4-6
		C70.8,370.7,70.1,370,69.7,370.5z"/>
	<path class="beast-nose-16-st-1" d="M72,373.3c-0.9,1.2-1.9,2.3-2.9,3.4c-0.5,0.6-0.9,1.3-1.6,1.8c-0.2,0-0.3,0.1-0.4,0.2c0,0-0.1,0.1-0.1,0.1
		c-0.4,0.4,0.1,1,0.6,0.8c1-0.4,1.5-1.4,2.2-2.2c1.1-1.1,2.1-2.3,3-3.6C73.3,373.2,72.4,372.7,72,373.3z"/>
	<path class="beast-nose-16-st-1" d="M75.3,375c-1.8,1.6-4.6,3.2-5.2,5.7c-0.2,0.6,0.8,0.9,1,0.3c0.3-1.2,1.4-2.1,2.2-2.9c0.9-0.8,1.8-1.5,2.7-2.3
		C76.5,375.3,75.8,374.6,75.3,375z"/>
	<path class="beast-nose-16-st-1" d="M78.5,377.6c-1.8,1.8-3.8,3.4-5.2,5.5c-0.3,0.6,0.5,1.1,0.9,0.5c1.3-2.1,3.3-3.6,5-5.3
		C79.6,377.8,78.9,377.1,78.5,377.6z"/>
	<path class="beast-nose-16-st-1" d="M82.1,380.1c-2.1,1.6-4.7,3.5-5.8,6.1c-0.3,0.6,0.6,1.1,0.9,0.5c1-2.4,3.4-4.2,5.4-5.7
		C83.1,380.6,82.6,379.7,82.1,380.1z"/>
	<path class="beast-nose-16-st-1" d="M84.9,383.1c-0.9,1.1-2.1,2-3.1,2.9c-0.8,0.8-1.9,1.8-2,3c0,0.6,1,0.6,1,0c0.1-1,1.4-2.1,2.1-2.7
		c0.9-0.8,1.9-1.6,2.7-2.6C86,383.3,85.3,382.6,84.9,383.1z"/>
	<path class="beast-nose-16-st-1" d="M87.9,385.5c-1.8,1.8-3.4,3.7-5.1,5.6c-0.4,0.5,0.3,1.2,0.7,0.7c1.7-1.9,3.3-3.8,5.1-5.6
		C89.1,385.8,88.4,385.1,87.9,385.5z"/>
	<path class="beast-nose-16-st-1" d="M90.9,388.6c-1.9,1.5-3.7,3.2-5.2,5.1c-0.4,0.5,0.3,1.2,0.7,0.7c1.4-1.9,3.1-3.5,5-4.9
		C91.9,389,91.4,388.2,90.9,388.6z"/>
	<path class="beast-nose-16-st-1" d="M93.9,391.1c-1.9,1.7-4.1,3.4-5.4,5.6c-0.3,0.6,0.5,1.1,0.9,0.5c1.3-2.2,3.4-3.8,5.3-5.4
		C95.1,391.4,94.4,390.7,93.9,391.1z"/>
	<path class="beast-nose-16-st-1" d="M97.4,393.8c-2,1.6-3.8,3.6-5.5,5.4c-0.4,0.5,0.3,1.2,0.7,0.7c1.8-1.9,3.5-3.8,5.5-5.4
		C98.6,394.1,97.9,393.4,97.4,393.8z"/>
	<path class="beast-nose-16-st-1" d="M100.7,396.2c-1.6,2-3.4,3.9-5.3,5.7c-0.5,0.5,0.3,1.2,0.7,0.7c1.8-1.8,3.7-3.7,5.3-5.7
		C101.8,396.4,101.1,395.6,100.7,396.2z"/>
	<path class="beast-nose-16-st-1" d="M104.4,398.7c-2.1,1.7-3.9,3.7-5.4,5.9c-0.4,0.5,0.5,1,0.9,0.5c1.5-2.2,3.2-4.1,5.3-5.7
		C105.6,399.1,104.9,398.3,104.4,398.7z"/>
	<path class="beast-nose-16-st-1" d="M107.9,400.5c-2,1.9-3.3,4.7-5.7,6.1c-0.6,0.3,0,1.2,0.5,0.9c2.5-1.5,3.9-4.3,5.9-6.3
		C109,400.7,108.3,400,107.9,400.5z"/>
	<path class="beast-nose-16-st-1" d="M110.7,402.6c-1.7,2-3.5,4-5.4,5.9c-0.4,0.5,0.3,1.2,0.7,0.7c1.8-1.9,3.7-3.8,5.4-5.9
		C111.8,402.9,111.1,402.1,110.7,402.6z"/>
	<path class="beast-nose-16-st-1" d="M113.9,404.7c-1.9,2-3.9,3.8-5.6,6c-0.4,0.5,0.3,1.2,0.7,0.7c1.7-2.2,3.8-4,5.6-6
		C115.1,404.9,114.4,404.2,113.9,404.7z"/>
	<path class="beast-nose-16-st-1" d="M116.7,407.1c-1.4,2.1-3.3,3.8-5.1,5.6c-0.5,0.5,0.2,1.2,0.7,0.7c1.9-1.8,3.8-3.6,5.3-5.8
		C117.9,407,117.1,406.5,116.7,407.1z"/>
	<path class="beast-nose-16-st-1" d="M119.5,408.8c-1.5,2-2.9,4-4.8,5.6c-0.5,0.4,0.2,1.1,0.7,0.7c1.9-1.7,3.4-3.8,4.9-5.8
		C120.7,408.8,119.9,408.3,119.5,408.8z"/>
	<path class="beast-nose-16-st-1" d="M122.7,410.8c-1.5,2-3.2,3.8-4.8,5.7c-0.4,0.5,0.3,1.2,0.7,0.7c1.7-1.9,3.3-3.7,4.8-5.7
		C123.8,411.1,123.1,410.3,122.7,410.8z"/>
	<path class="beast-nose-16-st-1" d="M125.9,413.5c-1,1.1-2.1,2-3.1,3.1c-0.6,0.6-2.1,1.7-2.1,2.7c0,0.6,1,0.6,1,0c0-0.1,0.5-0.7,0.7-0.9
		c0.5-0.5,1-1,1.5-1.5c0.9-0.9,1.9-1.8,2.8-2.7C127,413.8,126.3,413.1,125.9,413.5z"/>
	<path class="beast-nose-16-st-1" d="M129,416.1c-1.5,2-3.4,3.6-4.8,5.6c-0.4,0.5,0.5,1,0.9,0.5c1.4-2.1,3.3-3.6,4.8-5.6
		C130.2,416.1,129.4,415.6,129,416.1z"/>
	<path class="beast-nose-16-st-1" d="M132,418.9c-2,1.5-3.6,3.4-5.3,5.3c-0.4,0.5,0.3,1.2,0.7,0.7c1.6-1.7,3.2-3.6,5.1-5.1
		C133,419.4,132.5,418.5,132,418.9z"/>
	<path class="beast-nose-16-st-1" d="M135.1,420.8c-2.1,1.4-4,3-5.7,4.8c-0.4,0.5,0.3,1.2,0.7,0.7c1.7-1.7,3.5-3.3,5.5-4.7
		C136.2,421.3,135.7,420.4,135.1,420.8z"/>
	<path class="beast-nose-16-st-1" d="M138,423.6c-2.2,1.4-4.5,2.7-6.2,4.7c-0.4,0.5,0.3,1.2,0.7,0.7c1.6-1.9,3.9-3.3,6-4.6
		C139,424.2,138.5,423.3,138,423.6z"/>
	<path class="beast-nose-16-st-1" d="M140,426.4c-2,1.4-3.9,2.7-5.8,4.2c-0.5,0.4,0.2,1.1,0.7,0.7c1.8-1.4,3.7-2.8,5.6-4.1
		C141.1,426.9,140.6,426.1,140,426.4z"/>
	<path class="beast-nose-16-st-1" d="M142,430.2c-1.7,1.3-3.8,2.1-5.5,3.3c-0.5,0.4,0,1.2,0.5,0.9c1.8-1.2,3.8-2,5.5-3.3
		C143,430.7,142.5,429.8,142,430.2z"/>
	<path class="beast-nose-16-st-1" d="M144.3,433.6c-2,0.8-4,1.7-5.9,2.8c-0.6,0.3,0,1.2,0.5,0.9c1.8-1.1,3.7-1.9,5.7-2.7
		C145.2,434.3,144.9,433.4,144.3,433.6z"/>
	<path class="beast-nose-16-st-0" d="M-119.5,372.2c-0.9-0.9-2.6-1-3.5,0c-0.4,0.4-0.7,0.9-0.8,1.4c-0.3,1.3,0.4,2.7,1.7,3.1c1.2,0.3,2.7-0.4,3-1.6
		C-118.6,374.1-118.7,373-119.5,372.2z"/>
	<path class="beast-nose-16-st-0" d="M-54.8,413.7c-4,0-4,5,0,5C-51.8,418.7-51.8,413.7-54.8,413.7z"/>
	<path class="beast-nose-16-st-0" d="M0.2,370.9c-3,0-3,5,0,5C4.2,375.9,4.2,370.9,0.2,370.9z"/>
	<path class="beast-nose-16-st-0" d="M58.2,411.9c-4,0-4,5,0,5C61.2,416.9,61.2,411.9,58.2,411.9z"/>
	<path class="beast-nose-16-st-0" d="M121.2,368.5c-3,0-3,5,0,5S124.2,368.5,121.2,368.5z"/>
</g>
</svg>
