<?xml version="1.0" encoding="utf-8"?>
<!-- Generator: Adobe Illustrator 19.1.0, SVG Export Plug-In . SVG Version: 6.00 Build 0)  -->
<svg version="1.1" id="Layer_1" xmlns="http://www.w3.org/2000/svg" xmlns:xlink="http://www.w3.org/1999/xlink" x="0px" y="0px" width="305.834px" height="112px"
	 viewBox="-152 341 305.8 112" style="enable-background:new -152 341 305.8 112;" xml:space="preserve">
<style type="text/css">
	.beast-nose-17-st-0{fill:#0B3746;}
</style>
<g>
	<path class="beast-nose-17-st-0" d="M31.1,410c-0.2-1-0.5-2.1-0.7-3.2c-0.7-3.9-1.6-7.9-2.6-11.8c-0.6-2.7-1.2-5.4-1.8-8c-1-4.3-2.1-8.6-3.4-12.9
		c-1-3.8-2-7.7-3.1-11.5c-0.8-2.7-1.7-5.3-3.1-7.7c-1.1-2.5-2.6-5.5-4.9-7.1c-3.3-2.3-7-1.8-10.6-0.7c-2,0.5-4.1,1.4-6.1,2.4
		c-1.2,0.6-2.2,1.3-3.2,2.1c-2,1.5-3.7,3.3-5,5.8c-0.3,0.5-0.5,1-0.7,1.5c-3.5,7-4.4,15.9-6.3,23.3c-3,11.6-6.1,23.2-8.8,34.8
		c-1.8,7.2-3.8,14.4-4.9,21.8c0,0.2,0,0.3,0.2,0.4c0.5,7.2,10.3,5.2,13.8,0.4c1.8-2.4,3.2-5.2,4.4-8c0.3-0.8,0.7-1.9,1.3-3
		c0.7-1,1.6-1.9,2.5-2.5c0.3-0.1,0.7-0.1,1,0c0.1,0,0.3,0.1,0.4,0.2c0.4,0.4,0.9,0.7,1.3,1.1c0.7,0.9,1.2,2,1.6,2.9
		c0.9,2,1.6,4.2,2.4,6.2c0.9,2.5,2,5.2,5,5.5c2.9,0.3,4.5-3.7,5.4-5.8c1.2-3.1,1.5-7.5,3.9-10c0.3-0.2,0.7-0.4,1.1-0.6
		c2.4-0.2,5.5,6.2,6.2,7.5c1.4,2.6,2.9,6.6,6.4,6.7c5.5,0.3,9.2-4.7,10.1-9.6C34.1,423.8,32.5,416.5,31.1,410z"/>
	<path class="beast-nose-17-st-0" d="M-8.8,349.2c-3.1,0.7-5.5,3.8-7.4,6.1c-2.5,2.9-4.4,6.2-5.9,9.7c-3.2,7.8-3.8,16.5-6.3,24.5
		c-2.8,8.8-7.6,16.9-11.7,25.1c-3.1,6.1-7.8,13.5-5.9,20.7c0.2,0.6,1.1,0.4,1-0.3c-2-7.3,3.4-15.3,6.6-21.5
		c3.6-7,7.2-13.9,10.1-21.2c2.8-7.1,3.5-14.7,5.5-22c1.1-3.9,2.6-7.5,4.8-11c1.2-1.9,2.6-3.6,4.2-5.2c1.5-1.6,3.1-3.4,5.3-3.9
		C-7.9,350-8.2,349-8.8,349.2z"/>
	<path class="beast-nose-17-st-0" d="M-13.7,349.4c-3.9,0.8-6.7,4.3-8.9,7.4c-3.2,4.6-4.7,10.2-7.1,15.2c-2.6,5.3-6.3,10-9.3,15
		c-3.3,5.4-5.5,11.5-8.4,17.1c-0.3,0.6,0.6,1.1,0.9,0.5c2.6-5.1,4.7-10.5,7.5-15.6c2.7-4.9,6.1-9.4,8.9-14.2
		c2.6-4.5,4.1-9.6,6.4-14.3c2-4,5.6-9.3,10.3-10.2C-12.8,350.3-13.1,349.3-13.7,349.4z"/>
	<path class="beast-nose-17-st-0" d="M-20.1,349.6c-6.8,2.9-8.3,10.5-11.5,16.4c-4.1,7.5-11.7,12.3-15.1,20.3c-0.3,0.6,0.6,1.1,0.9,0.5
		c3.2-7.5,10.1-12.5,14.5-19.2c3.8-5.9,4.7-14,11.8-17.1C-19,350.2-19.5,349.3-20.1,349.6z"/>
	<path class="beast-nose-17-st-0" d="M46.7,412.3c-1.6-2.7-2.6-5.7-3.6-8.7c-0.9-2.6-2.1-5-3.2-7.5c-2.5-5.6-4.4-11.5-6.8-17.1
		c-2.3-5.4-4.8-10.9-7.8-16c-3.1-5.2-7.1-9.8-10.2-15c-0.3-0.6-1.2-0.1-0.9,0.5c3.1,5.2,7.1,9.8,10.2,15c3.1,5.1,5.4,10.6,7.8,16
		c2.5,5.6,4.4,11.5,6.8,17.1c1.3,3,2.6,5.9,3.6,8.9c0.8,2.5,1.8,5,3.2,7.3C46.2,413.3,47.1,412.8,46.7,412.3z"/>
	<path class="beast-nose-17-st-0" d="M49.5,390c-4.5-8-10.1-15.4-14.8-23.3c-2.2-3.7-5.3-6.9-7.8-10.3c-2.4-3.3-5.9-5.4-8.5-8.5
		c-0.4-0.5-1.1,0.2-0.7,0.7c2.5,3,5.9,5.1,8.3,8.3c2.6,3.4,5.5,6.7,7.8,10.3c5,7.7,10.3,15.3,14.8,23.3
		C48.9,391.1,49.8,390.6,49.5,390z"/>
	<path class="beast-nose-17-st-0" d="M59.1,383.1c-2.4-3.9-5.9-6.8-9.4-9.8c-4.3-3.7-7.8-8.2-11.3-12.6c-4.4-5.7-9-12.8-16.9-13.3c-0.6,0-0.6,1,0,1
		c8.3,0.5,13,8.8,17.6,14.7c2.9,3.7,5.9,7.2,9.3,10.4c3.5,3.2,7.3,6,9.8,10.1C58.6,384.2,59.4,383.7,59.1,383.1z"/>
	<path class="beast-nose-17-st-0" d="M-29.7,349.9c-6.3,5.3-12.4,10.7-18.7,16c-6.6,5.6-13.3,11.3-20.8,15.6c-6.9,4-14,7.2-20.6,11.8
		c-6.7,4.7-12.5,10.6-18.9,15.6c-0.5,0.4,0.2,1.1,0.7,0.7c6.6-5.1,12.5-11.1,19.4-15.9C-82,389.1-74.8,386-68,382
		c7-4.1,13.4-9.6,19.6-14.8c6.5-5.5,12.8-11.1,19.4-16.6C-28.5,350.2-29.2,349.5-29.7,349.9z"/>
	<path class="beast-nose-17-st-0" d="M-41.5,353.3c-2.8,0.7-5.1,2.3-7.3,4.1c-3.2,2.6-6.4,5.2-9.8,7.5c-6.9,4.5-14.3,8.2-21.8,11.7
		c-13.5,6.2-27.3,12.6-38.8,22.3c-0.5,0.4,0.2,1.1,0.7,0.7c11.4-9.6,25.1-16.1,38.6-22.2c7-3.2,13.8-6.6,20.3-10.7
		c3-1.9,5.8-3.8,8.5-6.1c3-2.5,6-5.4,9.9-6.4C-40.6,354.1-40.8,353.1-41.5,353.3z"/>
	<path class="beast-nose-17-st-0" d="M-58.5,357.3c-10,3-18.7,9-27.9,13.7c-5.5,2.8-11.1,4.5-17.3,5.1c-5.6,0.6-11.2,0.7-16.8,1.7
		c-0.6,0.1-0.4,1.1,0.3,1c5.7-1.1,11.6-1.2,17.4-1.8c5.2-0.5,10-1.9,14.7-4.1c10.1-4.7,19.1-11.4,29.9-14.6
		C-57.6,358.1-57.8,357.1-58.5,357.3z"/>
	<path class="beast-nose-17-st-0" d="M-74,353.3c-8.9,3.3-17.5,7.6-27,8.9c-8.5,1.1-17.3-1-25.5,1.6c-0.6,0.2-0.4,1.2,0.3,1
		c8.5-2.6,17.6-0.4,26.3-1.7c9.2-1.4,17.6-5.6,26.2-8.8C-73.1,354-73.4,353.1-74,353.3z"/>
	<path class="beast-nose-17-st-0" d="M93.8,393.3c-6.1-1.4-11.2-5-16.2-8.7c-5.1-3.7-10.3-7.1-15.4-10.7c-5.6-3.9-10.3-8.3-15.1-13.1
		c-4-4.1-8.6-7.4-13.7-10c-0.6-0.3-1.1,0.6-0.5,0.9c5.5,2.8,10.3,6.5,14.6,11c4.6,4.7,9.4,8.8,14.9,12.6c5.1,3.6,10.4,7,15.4,10.7
		c4.8,3.5,9.9,7,15.8,8.3C94.2,394.4,94.4,393.4,93.8,393.3z"/>
	<path class="beast-nose-17-st-0" d="M116.8,384.8c-7.4-2.8-14.5-6.3-21.6-9.9c-6.9-3.4-13.9-6.6-21-9.6c-10.8-4.7-24.1-6.7-31.1-17.3
		c-0.4-0.5-1.2,0-0.9,0.5c6.8,10.4,19.6,12.9,30.3,17.2c15,6,28.9,14.3,44,20C117.1,386,117.4,385,116.8,384.8z"/>
	<path class="beast-nose-17-st-0" d="M133.5,361.3c-6,1.8-12.5,1.6-18.7,1.1c-6.5-0.5-13.1-1-19.7-1.7c-14.1-1.6-27.8-5-40.9-10.4
		c-0.6-0.2-0.9,0.7-0.3,1c12.9,5.4,26.4,8.7,40.3,10.4c6.8,0.8,13.7,1.3,20.5,1.8c6.3,0.5,12.8,0.7,18.9-1.2
		C134.4,362.1,134.2,361.1,133.5,361.3z"/>
	<path class="beast-nose-17-st-0" d="M-61.9,399.4l-0.5-0.5c-0.8-0.8-2.1-0.8-2.8,0c-0.8,0.8-0.8,2.1,0,2.8c0.2,0.2,0.3,0.3,0.5,0.5
		c0.8,0.8,2.1,0.8,2.8,0C-61.1,401.4-61.1,400.1-61.9,399.4z"/>
	<path class="beast-nose-17-st-0" d="M-133.3,419.8c-2.6,0-2.6,4,0,4C-130.7,423.8-130.7,419.8-133.3,419.8z"/>
	<path class="beast-nose-17-st-0" d="M-133.3,387.3c-2,0-2,4,0,4C-130.3,391.3-130.3,387.3-133.3,387.3z"/>
	<path class="beast-nose-17-st-0" d="M-136.3,350.8c-2.6,0-2.6,4,0,4C-133.7,354.8-133.7,350.8-136.3,350.8z"/>
	<path class="beast-nose-17-st-0" d="M-77.3,425.3c-2,0-2,4,0,4C-74.3,429.3-74.3,425.3-77.3,425.3z"/>
	<path class="beast-nose-17-st-0" d="M-113.3,437.3c-2,0-2,4,0,4C-110.3,441.3-110.3,437.3-113.3,437.3z"/>
	<path class="beast-nose-17-st-0" d="M-94.3,415.3c-2.6,0-2.6,4,0,4C-91.7,419.3-91.7,415.3-94.3,415.3z"/>
	<path class="beast-nose-17-st-0" d="M-58.3,438.8c-2.6,0-2.6,4,0,4C-55.7,442.8-55.7,438.8-58.3,438.8z"/>
	<path class="beast-nose-17-st-0" d="M50.6,438.9c-0.8-0.8-2.1-0.8-2.8,0c-0.8,0.8-0.8,2,0,2.8c0.2,0.9,1,1.6,2,1.6c1.1,0,2-0.9,2-2
		C51.7,440.3,51.3,439.6,50.6,438.9z"/>
	<path class="beast-nose-17-st-0" d="M44.7,421.3c-2.6,0-2.6,4,0,4C47.3,425.3,47.3,421.3,44.7,421.3z"/>
	<path class="beast-nose-17-st-0" d="M88.7,431.3c-2.6,0-2.6,4,0,4C91.3,435.3,91.3,431.3,88.7,431.3z"/>
	<path class="beast-nose-17-st-0" d="M74.7,399.8c-2.6,0-2.6,4,0,4C77.3,403.8,77.3,399.8,74.7,399.8z"/>
	<path class="beast-nose-17-st-0" d="M66.7,428.3c-2,0-2,4,0,4C69.7,432.3,69.7,428.3,66.7,428.3z"/>
	<path class="beast-nose-17-st-0" d="M124.7,430.3c-2.6,0-2.6,4,0,4C127.3,434.3,127.3,430.3,124.7,430.3z"/>
	<path class="beast-nose-17-st-0" d="M115.7,396.3c-2.6,0-2.6,4,0,4C118.3,400.3,118.3,396.3,115.7,396.3z"/>
	<path class="beast-nose-17-st-0" d="M93.7,410.8c-2,0-2,4,0,4C96.7,414.8,96.7,410.8,93.7,410.8z"/>
	<path class="beast-nose-17-st-0" d="M93.7,381.8c-2.6,0-2.6,4,0,4C96.3,385.8,96.3,381.8,93.7,381.8z"/>
	<path class="beast-nose-17-st-0" d="M109.7,369.3c-2,0-2,4,0,4C112.7,373.3,112.7,369.3,109.7,369.3z"/>
	<path class="beast-nose-17-st-0" d="M108.7,351.3c-2,0-2,4,0,4C111.7,355.3,111.7,351.3,108.7,351.3z"/>
	<path class="beast-nose-17-st-0" d="M145.6,355.4l-0.5-0.5c-0.8-0.8-2.1-0.8-2.8,0c-0.8,0.8-0.8,2.1,0,2.8c0.2,0.2,0.3,0.3,0.5,0.5
		c0.8,0.8,2.1,0.8,2.8,0C146.4,357.4,146.4,356.1,145.6,355.4z"/>
	<path class="beast-nose-17-st-0" d="M136.7,386.3c-2,0-2,4,0,4C139.7,390.3,139.7,386.3,136.7,386.3z"/>
	<path class="beast-nose-17-st-0" d="M80,422.9c-7.2-7.4-18.6-9.3-22.9-19.4c-0.3-0.6-1.1-0.1-0.9,0.5c4.4,10.3,15.8,12.1,23.1,19.6
		C79.8,424.1,80.5,423.4,80,422.9z"/>
	<path class="beast-nose-17-st-0" d="M112.5,417.9c-3.2-3.3-5.5-7.4-9-10.5c-3.2-2.8-8.2-2-11-5.5c-0.4-0.5-1.1,0.2-0.7,0.7c2.5,3.1,6.6,3.3,10,4.9
		c2.1,1,3.6,3.3,5,5c1.6,2.1,3.2,4.2,5,6.1C112.3,419.1,113,418.4,112.5,417.9z"/>
	<path class="beast-nose-17-st-0" d="M133.9,414.8c-2.2-1.6-4.5-3-7.1-3.6c-0.6-0.1-0.9,0.8-0.3,1c2.6,0.6,4.8,1.9,6.9,3.4
		C133.9,416.1,134.4,415.2,133.9,414.8z"/>
	<path class="beast-nose-17-st-0" d="M141.4,439.3c-0.9-0.4-1.6-1.1-2.5-1.5c-0.6-0.3-1.1,0.6-0.5,0.9c0.9,0.4,1.6,1.1,2.5,1.5
		C141.5,440.5,142,439.6,141.4,439.3z"/>
	<path class="beast-nose-17-st-0" d="M114.4,441.8c-0.1-0.1-0.2-0.1-0.3-0.1c0,0,0,0,0,0c-0.4-0.3-0.8-0.5-1.1-0.8c-0.5-0.4-1.2,0.3-0.7,0.7
		c0.4,0.4,0.9,0.7,1.3,1c0.3,0.2,0.8,0.7,1.2,0.7c0.3,0,0.5-0.2,0.5-0.5C115.4,442.4,114.7,442,114.4,441.8z"/>
	<path class="beast-nose-17-st-0" d="M-87.5,435.3c-3.6,1.1-8.3,3.6-6.8,8.1c0.2,0.6,1.2,0.3,1-0.3c-1.3-3.9,3.1-6,6.2-6.9
		C-86.6,436.1-86.8,435.1-87.5,435.3z"/>
	<path class="beast-nose-17-st-0" d="M-113.6,424.3c-7.5,5.7-19.8,6.8-23.2,16.8c-0.2,0.6,0.8,0.9,1,0.3c3.3-9.6,15.6-10.7,22.8-16.2
		C-112.6,424.8-113.1,423.9-113.6,424.3z"/>
	<path class="beast-nose-17-st-0" d="M-133,407.3c-4,1.4-9,1.6-11.3,5.7c-0.3,0.6,0.5,1.1,0.9,0.5c2.1-3.8,7-3.9,10.7-5.3
		C-132.1,408-132.4,407.1-133,407.3z"/>
	<path class="beast-nose-17-st-0" d="M-135.3,379.3c-2.7,0-5.3-0.5-8-0.5c-0.6,0-0.6,1,0,1c2.7,0,5.3,0.5,8,0.5
		C-134.7,380.3-134.7,379.3-135.3,379.3z"/>
	<path class="beast-nose-17-st-0" d="M-87.5,351.3c-6.2,1.1-12.4,3-18.8,2.4c-5.6-0.6-10.9-2.8-16.6-2.9c-0.6,0-0.6,1,0,1c6,0.1,11.6,2.4,17.5,3
		c6.1,0.6,12.2-1.5,18.1-2.5C-86.6,352.1-86.8,351.2-87.5,351.3z"/>
	<path class="beast-nose-17-st-0" d="M-53.3,350.3c-3,0-6.3,0.1-9.4,1c-0.6,0.2-0.5,1.2,0.1,1c3-0.9,6.2-1,9.2-1C-52.3,351.3-52.3,350.3-53.3,350.3
		z"/>
	<path class="beast-nose-17-st-0" d="M93.2,353.3c-5.5-0.1-10.6-1.6-15.9-3c-0.6-0.2-0.9,0.8-0.3,1c5.3,1.5,10.6,2.9,16.1,3
		C93.8,354.3,93.8,353.3,93.2,353.3z"/>
	<path class="beast-nose-17-st-0" d="M129.8,351.3c-2.3-0.5-4.7,0-6.5,1.6c-0.5,0.4,0.2,1.1,0.7,0.7c1.5-1.4,3.6-1.8,5.5-1.4
		C130.2,352.4,130.4,351.4,129.8,351.3z"/>
	<path class="beast-nose-17-st-0" d="M132.3,378.8c-1.9-0.5-3.7-0.5-5.4,0.6c-0.5,0.3,0,1.2,0.5,0.9c1.5-0.9,3-0.8,4.6-0.4
		C132.7,379.9,132.9,378.9,132.3,378.8z"/>
	<path class="beast-nose-17-st-0" d="M140.7,379.8v1C141.7,380.8,141.7,379.8,140.7,379.8z"/>
	<path class="beast-nose-17-st-0" d="M36,441.4c-0.2-0.2-0.4-0.2-0.6-0.1c0,0,0,0,0,0c-0.6-0.3-1.1,0.6-0.5,0.9c0.3,0.1,0.6,0.3,0.9,0.3
		C36.4,442.5,36.4,441.8,36,441.4z"/>
	<path class="beast-nose-17-st-0" d="M11.1,441.5c-0.4-0.5-1.2,0-0.9,0.5c0.9,1.4,1.9,3,1.9,4.7c0,0.6,1,0.6,1,0C13.1,444.9,12.1,443.1,11.1,441.5z
		"/>
	<path class="beast-nose-17-st-0" d="M-11.8,440c-1.4,1.9-2.9,3.8-4.8,5.3c-0.5,0.4,0,1.3,0.5,0.9c2.1-1.6,3.6-3.6,5.2-5.7
		C-10.5,440-11.4,439.5-11.8,440z"/>
	<path class="beast-nose-17-st-0" d="M-44.1,444.8c-1.1,0.6-2.2,1.2-3.1,2.1c-0.5,0.5,0.2,1.2,0.7,0.7c0.9-0.8,1.8-1.4,2.9-1.9
		C-43,445.4-43.5,444.5-44.1,444.8z"/>
	<path class="beast-nose-17-st-0" d="M-57.3,413.5c-1.7,2.3-2.5,4.9-2.6,7.8c0,0.6,1,0.6,1,0c0.1-2.7,0.9-5.1,2.4-7.2
		C-56,413.5-56.9,413-57.3,413.5z"/>
	<path class="beast-nose-17-st-0" d="M-73.8,410.5c-0.5,1.1-1.1,2-1.9,2.9c-0.4,0.5,0.3,1.2,0.7,0.7c0.9-0.9,1.5-2,2.1-3.1
		C-72.6,410.4-73.5,409.9-73.8,410.5z"/>
	<path class="beast-nose-17-st-0" d="M-80.3,401.8c-0.6,0-0.6,1,0,1C-79.7,402.8-79.7,401.8-80.3,401.8z"/>
</g>
</svg>
