<?xml version="1.0" encoding="utf-8"?>
<!-- Generator: Adobe Illustrator 15.0.0, SVG Export Plug-In . SVG Version: 6.00 Build 0)  -->
<!DOCTYPE svg PUBLIC "-//W3C//DTD SVG 1.1//EN" "http://www.w3.org/Graphics/SVG/1.1/DTD/svg11.dtd">
<svg version="1.1" id="Layer_1" xmlns="http://www.w3.org/2000/svg" xmlns:xlink="http://www.w3.org/1999/xlink" x="0px" y="0px"
	 width="305.834px" height="112px" viewBox="0 0 305.834 112" enable-background="new 0 0 305.834 112" xml:space="preserve">
<path fill="#F0A732" d="M284.353,57.312c-0.086,29.32-17.905,53.037-39.799,52.973c-21.896-0.063-39.575-23.884-39.49-53.205
	c0.086-29.319,17.904-53.037,39.8-52.973C266.758,4.17,284.438,27.991,284.353,57.312"/>
<path fill="#0B3746" d="M255.709,7.826c-0.469,0-0.937,0.018-1.401,0.045c16.667,3.579,29.459,24.491,29.459,49.758
	c0,27.096-14.714,49.185-33.141,50.256c1.659,0.355,3.355,0.543,5.083,0.543c19.077,0,34.542-22.521,34.542-50.3
	C290.251,30.347,274.786,7.826,255.709,7.826"/>
<path fill="#D72050" d="M276.293,54.932c0,18.328-14.857,33.185-33.185,33.185c-18.328,0-33.186-14.856-33.186-33.185
	s14.857-33.186,33.186-33.186C261.436,21.746,276.293,36.604,276.293,54.932"/>
<path fill="#0B3746" d="M239.172,95.546c-21.462,0-38.86-14.861-38.86-33.195c0-5.264,1.44-10.237,3.992-14.658
	c-4.77,5.513-7.593,12.328-7.593,19.709c0,18.334,17.397,33.196,38.858,33.196c15.302,0,28.531-7.558,34.869-18.538
	C263.36,90.239,251.993,95.546,239.172,95.546"/>
<path fill="#F0A732" d="M22.367,57.312c0.086,29.32,17.905,53.037,39.799,52.973c21.896-0.063,39.575-23.884,39.489-53.205
	C101.57,27.76,83.751,4.042,61.856,4.106C39.961,4.17,22.281,27.991,22.367,57.312"/>
<path fill="#0B3746" d="M51.011,7.826c0.47,0,0.936,0.018,1.401,0.045C35.745,11.45,22.953,32.362,22.953,57.629
	c0,27.096,14.714,49.185,33.141,50.256c-1.659,0.355-3.356,0.543-5.083,0.543c-19.077,0-34.542-22.521-34.542-50.3
	C16.468,30.347,31.934,7.826,51.011,7.826"/>
<path fill="#D72050" d="M30.426,54.932c0,18.328,14.857,33.185,33.185,33.185c18.328,0,33.185-14.856,33.185-33.185
	S81.939,21.746,63.611,21.746C45.283,21.746,30.426,36.604,30.426,54.932"/>
<path fill="#0B3746" d="M67.548,95.546c21.462,0,38.86-14.861,38.86-33.195c0-5.264-1.44-10.237-3.992-14.658
	c4.77,5.513,7.593,12.328,7.593,19.709c0,18.334-17.398,33.196-38.859,33.196c-15.301,0-28.531-7.558-34.869-18.538
	C43.358,90.239,54.727,95.546,67.548,95.546"/>
<path fill="#F0A732" d="M204.997,41.63l-6.625-2.246c0,0-1.018-3.314-2.783-5.339c-1.765-2.023-11.101-7.898-11.101-7.898
	l-4.644-11.827l0.228-9.002c0,0,1.993,15.274-27.968,14.728c-26.966-0.491-28.064-15.086-28.064-15.086l0.292,9.241l-4.613,11.946
	c0,0-9.336,5.875-11.101,7.898c-1.765,2.024-2.783,5.339-2.783,5.339L99.21,41.63c0,0-17.876,6.25-17.676,20.861
	c0.2,14.611,14.556,22.613,20.931,24c6.376,1.388,5.216,1.743,12.675,1.756c7.458,0.014,18.945-2.869,18.945-2.869
	s3.473,5.083,5.709,6.109c2.733,1.255,7.46-0.893,8.221-1.517c0.423-0.348,2.328-2.479,4.089-4.777
	c1.76,2.298,3.665,4.43,4.088,4.777c0.761,0.624,5.488,2.771,8.221,1.517c2.236-1.026,5.709-6.109,5.709-6.109
	s11.486,2.883,18.945,2.869c7.459-0.013,6.299-0.368,12.675-1.756c6.375-1.387,20.731-9.389,20.931-24
	C222.873,47.88,204.997,41.63,204.997,41.63"/>
<path fill="#0B3746" d="M147.877,48.745c0,0-0.457-0.665-1.284-1.867c-0.833-1.187-2.055-2.883-3.67-4.83
	c-1.612-1.945-3.621-4.158-6.068-6.203c-2.444-2.038-5.329-3.913-8.608-4.938c-3.269-1.036-6.615-1.168-9.703-0.661
	c-3.005,0.397-5.563,1.613-7.512,3.027c-1.946,1.419-3.251,3.006-4.053,4.179c-0.389,0.595-0.688,1.075-0.86,1.415
	c-0.186,0.338-0.284,0.517-0.284,0.517s0.027-0.201,0.077-0.584c0.043-0.39,0.159-0.95,0.348-1.678
	c0.403-1.43,1.234-3.526,3.029-5.684c0.898-1.068,2.031-2.139,3.42-3.086c1.377-0.938,3.066-1.755,4.876-2.269
	c3.517-1.111,7.946-1.363,12.198,0c4.267,1.343,7.62,4.011,10.048,6.695c2.448,2.715,4.074,5.512,5.228,7.909
	c1.154,2.405,1.832,4.437,2.247,5.847C147.719,47.948,147.877,48.745,147.877,48.745"/>
<path fill="#0B3746" d="M123.361,2.959c0,0,0.235,0.316,0.624,0.929c0.366,0.619,0.874,1.549,1.307,2.793
	c0.867,2.447,1.38,6.321,0.032,10.276c-0.327,0.979-0.756,1.909-1.231,2.746c-0.475,0.831-0.973,1.554-1.429,2.22
	c-0.923,1.328-1.668,2.444-2.106,3.51c-0.457,1.056-0.62,2.005-0.639,2.687c-0.013,0.682,0.07,1.082,0.07,1.082
	s-0.273-0.294-0.586-0.974c-0.304-0.674-0.589-1.782-0.493-3.159c0.068-1.381,0.579-2.984,1.261-4.521
	c0.695-1.569,1.427-3.024,1.955-4.668c1.119-3.269,1.498-6.49,1.503-8.911c0.003-1.208-0.083-2.209-0.143-2.912
	C123.405,3.351,123.361,2.959,123.361,2.959"/>
<path fill="#0B3746" d="M175.73,14.554c0,0-0.489,0.486-1.436,1.344c-0.978,0.794-2.438,1.965-4.472,3.048
	c-2.021,1.104-4.588,2.173-7.554,2.923c-2.962,0.764-6.309,1.181-9.794,1.188c-3.5-0.01-6.733-0.335-9.782-1.021
	c-3.007-0.701-5.615-1.778-7.616-2.977c-2.019-1.172-3.421-2.443-4.304-3.357c-0.443-0.46-0.76-0.837-0.965-1.103
	c-0.205-0.261-0.314-0.397-0.314-0.397s0.156,0.079,0.453,0.229c0.289,0.156,0.723,0.373,1.286,0.626
	c1.125,0.504,2.756,1.163,4.821,1.667c2.052,0.532,4.531,0.905,7.284,1.089c2.717,0.163,5.903,0.178,9.126,0.182
	c6.479,0.036,12.257-0.468,16.462-1.415c2.11-0.435,3.787-0.998,4.978-1.367C175.08,14.788,175.73,14.554,175.73,14.554"/>
<path fill="#0B3746" d="M167.162,25.106c0,0-0.34,0.317-0.953,0.893c-0.649,0.528-1.618,1.306-2.969,2.026
	c-2.662,1.494-6.877,2.765-11.519,2.732c-2.325-0.006-4.471-0.223-6.497-0.68c-1.996-0.466-3.728-1.182-5.057-1.979
	c-1.34-0.778-2.271-1.625-2.857-2.231c-0.294-0.306-0.504-0.556-0.64-0.733c-0.136-0.173-0.208-0.264-0.208-0.264
	s0.103,0.053,0.3,0.152c0.193,0.104,0.481,0.246,0.855,0.414c0.747,0.336,1.831,0.771,3.201,1.105
	c1.363,0.352,3.009,0.599,4.837,0.721c1.803,0.107,3.918,0.116,6.058,0.119c4.3,0.023,8.138-0.309,10.929-0.936
	c1.402-0.288,2.516-0.661,3.306-0.906C166.729,25.261,167.162,25.106,167.162,25.106"/>
<path fill="#0B3746" d="M175.931,4.94c0,0-0.49,0.486-1.437,1.344c-0.978,0.794-2.437,1.965-4.472,3.048
	c-2.021,1.104-4.587,2.173-7.553,2.922c-2.963,0.765-6.31,1.182-9.795,1.188c-3.5-0.01-6.733-0.335-9.782-1.021
	c-3.007-0.701-5.615-1.778-7.616-2.977c-2.019-1.172-3.421-2.443-4.304-3.357c-0.443-0.46-0.76-0.837-0.964-1.103
	c-0.206-0.261-0.315-0.397-0.315-0.397s0.156,0.079,0.453,0.229c0.289,0.156,0.723,0.372,1.286,0.626
	c1.125,0.504,2.756,1.163,4.821,1.667c2.052,0.532,4.531,0.905,7.284,1.089c2.717,0.163,5.903,0.178,9.126,0.182
	c6.479,0.036,12.257-0.468,16.462-1.415c2.11-0.435,3.787-0.998,4.978-1.367C175.279,5.175,175.931,4.94,175.931,4.94"/>
<path fill="#D72050" d="M132.856,85.085c0,0-3.503,0.099-10.591-0.944c-7.422-1.094-16.055-11.409-14.878-14.346
	c1.177-2.935,5.122-5.648,8.632-2.958c3.511,2.692,17.036,17.376,17.036,17.376L132.856,85.085z"/>
<path fill="#0B3746" d="M155.424,79.781c0,0-0.12,0.306-0.348,0.888c-0.222,0.587-0.577,1.44-1.074,2.527
	c-0.507,1.083-1.152,2.403-2.083,3.866c-0.94,1.447-2.106,3.112-4.055,4.53c-0.971,0.7-2.232,1.277-3.669,1.455
	c-1.442,0.191-2.968-0.106-4.309-0.666c-2.708-1.141-4.875-3.061-6.94-5.09c-2.062-2.051-3.996-4.312-5.956-6.645
	c-1.964-2.353-3.875-4.712-6.019-6.89c-2.112-2.146-4.384-4.096-6.56-4.951c-0.535-0.197-1.051-0.342-1.531-0.386
	c-0.569-0.049-0.729-0.027-0.904,0.036c-0.167,0.062-0.362,0.212-0.552,0.523c-0.187,0.31-0.313,0.765-0.392,1.243
	c-0.129,0.987-0.025,2.114,0.294,3.175c0.311,1.065,0.787,2.085,1.373,3.01c1.184,1.852,2.759,3.328,4.39,4.436
	c1.631,1.12,3.317,1.882,4.848,2.429c0.759,0.304,1.505,0.472,2.178,0.69c0.688,0.157,1.317,0.322,1.891,0.438
	c1.151,0.218,2.058,0.366,2.677,0.431c0.62,0.083,0.946,0.126,0.946,0.126s-0.327,0.032-0.95,0.091
	c-0.625,0.075-1.548,0.124-2.751,0.14c-0.6,0.001-1.268-0.04-2.005-0.067c-0.729-0.09-1.538-0.124-2.388-0.299
	c-1.71-0.287-3.666-0.796-5.702-1.781c-2.03-0.974-4.15-2.437-5.927-4.589c-1.719-2.159-3.234-4.98-3.131-8.586
	c0.061-0.904,0.212-1.857,0.658-2.836c0.441-0.965,1.218-1.973,2.34-2.606c0.272-0.174,0.565-0.292,0.867-0.396
	c0.301-0.121,0.603-0.197,0.905-0.238c0.66-0.134,1.085-0.08,1.615-0.091c1.009,0.035,1.967,0.25,2.869,0.541
	c1.792,0.604,3.317,1.542,4.712,2.572c1.392,1.036,2.654,2.189,3.846,3.401c2.377,2.417,4.364,5.013,6.187,7.407
	c1.839,2.405,3.571,4.723,5.304,6.767c1.725,2.035,3.481,3.85,5.278,4.861c1.782,1.049,3.539,1.023,5.197,0.178
	c1.639-0.836,2.995-2.146,4.092-3.337c1.108-1.203,1.975-2.351,2.676-3.295c0.691-0.952,1.22-1.707,1.562-2.227
	C155.238,80.052,155.424,79.781,155.424,79.781"/>
<path fill="#D72050" d="M172.278,85.085c0,0,3.502,0.099,10.592-0.944c7.422-1.094,16.055-11.409,14.878-14.346
	c-1.177-2.935-5.122-5.648-8.632-2.958c-3.512,2.692-17.036,17.376-17.036,17.376L172.278,85.085z"/>
<path fill="#0B3746" d="M152.104,85.192c0,0,0.205,0.232,0.596,0.676c0.385,0.441,0.97,1.087,1.772,1.839
	c0.797,0.744,1.821,1.638,3.13,2.293c1.3,0.667,2.87,0.998,4.439,0.493c1.58-0.488,3.166-1.713,4.708-3.266
	c1.548-1.556,3.064-3.459,4.639-5.508c1.58-2.096,3.238-4.295,4.958-6.575c1.804-2.309,3.775-4.684,6.224-6.863
	c1.229-1.088,2.545-2.105,4.036-2.955c1.487-0.84,3.194-1.543,5.146-1.677c0.51,0.001,0.941-0.034,1.508,0.03
	c0.297,0.047,0.59,0.087,0.882,0.165c0.295,0.095,0.587,0.202,0.871,0.318c1.144,0.532,2.009,1.465,2.516,2.396
	c0.516,0.94,0.773,1.896,0.855,2.78c0.104,0.895,0.062,1.74-0.058,2.539c-0.507,3.2-2.115,5.693-3.899,7.588
	c-1.834,1.868-3.884,3.148-5.844,3.967c-3.942,1.651-7.335,1.782-9.583,1.771c-0.565-0.02-1.067-0.035-1.503-0.049
	c-0.433-0.041-0.798-0.076-1.095-0.105c-0.587-0.06-0.896-0.091-0.896-0.091s0.308-0.044,0.893-0.126
	c0.291-0.039,0.65-0.088,1.076-0.146c0.42-0.079,0.905-0.169,1.451-0.271c2.147-0.442,5.302-1.237,8.489-3.229
	c1.59-0.981,3.128-2.318,4.387-3.977c1.22-1.662,2.162-3.733,2.277-5.798c0.076-1.005-0.148-2.021-0.513-2.523
	c-0.179-0.257-0.339-0.357-0.485-0.408c-0.049,0.001-0.09-0.007-0.13-0.025c-0.051-0.006-0.113,0.005-0.165-0.008
	c-0.139-0.01-0.425,0.033-0.629,0.03c-1.87,0.206-4.162,1.744-6.223,3.586c-4.19,3.757-7.604,8.479-11.277,12.405
	c-1.823,1.973-3.648,3.819-5.623,5.357c-1.961,1.519-4.121,2.809-6.479,3.146c-1.165,0.165-2.328,0.045-3.315-0.283
	c-0.983-0.334-1.829-0.798-2.497-1.338c-1.368-1.052-2.218-2.196-2.87-3.129c-0.65-0.938-1.076-1.704-1.35-2.229
	C152.248,85.468,152.104,85.192,152.104,85.192"/>
<path fill="#0B3746" d="M132.139,85.808c0,0-1.822,0.604-5.21,1.394c-3.395,0.756-8.323,1.829-14.652,2.119
	c-1.586,0.058-3.261,0.062-5.056-0.147c-1.754-0.206-3.551-0.546-5.393-1.046c-3.672-1.002-7.504-2.675-11.047-5.287
	c-1.756-1.316-3.435-2.868-4.927-4.671c-1.477-1.808-2.755-3.848-3.763-6.074c-1.965-4.452-2.875-9.763-1.533-15.047
	c1.386-5.166,4.3-9.462,7.979-12.724c0.925-0.812,1.917-1.547,2.963-2.195c1.031-0.63,2.207-1.229,3.252-1.606
	c2.12-0.877,4.318-1.475,6.495-1.819c4.361-0.737,8.628-0.276,12.32,0.783c1.847,0.554,3.564,1.246,5.15,2.018
	c1.58,0.787,3.021,1.656,4.35,2.543c5.267,3.638,8.594,7.568,10.677,10.356c1.037,1.407,1.754,2.559,2.211,3.353
	c0.454,0.796,0.654,1.231,0.654,1.231s-0.269-0.397-0.834-1.109c-0.568-0.711-1.436-1.732-2.634-2.962
	c-2.397-2.437-6.121-5.82-11.392-8.708c-1.325-0.699-2.735-1.371-4.241-1.955c-1.511-0.567-3.109-1.054-4.782-1.409
	c-3.351-0.665-7.015-0.79-10.692,0.059c-1.838,0.401-3.684,1.004-5.482,1.849c-0.463,0.197-0.907,0.404-1.296,0.633
	c-0.414,0.202-0.804,0.478-1.205,0.728c-0.788,0.534-1.554,1.141-2.277,1.819c-2.891,2.7-5.268,6.405-6.312,10.374
	c-1.01,3.909-0.42,8.192,1.08,11.876c0.77,1.85,1.761,3.584,2.923,5.144c1.169,1.551,2.512,2.937,3.957,4.157
	c2.911,2.422,6.194,4.166,9.446,5.345c1.626,0.588,3.256,1.048,4.832,1.382c1.538,0.328,3.109,0.483,4.611,0.582
	c6.046,0.346,11.064-0.084,14.491-0.369C130.241,86.104,132.139,85.808,132.139,85.808"/>
<path fill="#0B3746" d="M156.434,48.745c0,0,0.158-0.797,0.571-2.21c0.415-1.41,1.093-3.441,2.247-5.847
	c1.154-2.397,2.78-5.194,5.228-7.909c2.429-2.685,5.781-5.353,10.049-6.695c4.251-1.363,8.681-1.111,12.197,0
	c1.811,0.514,3.499,1.33,4.876,2.269c1.39,0.947,2.522,2.018,3.42,3.086c1.796,2.157,2.626,4.254,3.029,5.684
	c0.188,0.728,0.305,1.288,0.348,1.678c0.051,0.383,0.077,0.584,0.077,0.584s-0.098-0.179-0.283-0.517
	c-0.173-0.34-0.472-0.82-0.86-1.415c-0.802-1.173-2.107-2.76-4.053-4.179c-1.949-1.414-4.508-2.63-7.513-3.027
	c-3.088-0.507-6.434-0.375-9.703,0.661c-3.278,1.024-6.164,2.899-8.607,4.938c-2.448,2.045-4.456,4.258-6.068,6.203
	c-1.615,1.947-2.837,3.644-3.67,4.83C156.891,48.08,156.434,48.745,156.434,48.745"/>
<path fill="#0B3746" d="M180.95,2.959c0,0-0.044,0.392-0.124,1.098c-0.061,0.703-0.146,1.704-0.144,2.912
	c0.005,2.421,0.385,5.643,1.503,8.911c0.527,1.644,1.26,3.099,1.956,4.668c0.681,1.537,1.192,3.141,1.26,4.521
	c0.096,1.377-0.189,2.485-0.493,3.159c-0.312,0.68-0.586,0.974-0.586,0.974s0.083-0.4,0.07-1.082
	c-0.02-0.682-0.183-1.631-0.639-2.687c-0.438-1.065-1.184-2.182-2.106-3.51c-0.456-0.666-0.954-1.389-1.43-2.22
	c-0.475-0.837-0.903-1.768-1.23-2.746c-1.348-3.955-0.834-7.829,0.032-10.276c0.433-1.244,0.94-2.175,1.307-2.793
	C180.715,3.275,180.95,2.959,180.95,2.959"/>
<path fill="#0B3746" d="M172.172,85.808c0,0,1.897,0.297,5.337,0.613c3.427,0.285,8.445,0.715,14.491,0.369
	c1.502-0.099,3.073-0.254,4.61-0.582c1.576-0.334,3.206-0.794,4.832-1.382c3.252-1.179,6.535-2.923,9.446-5.345
	c1.445-1.221,2.788-2.606,3.957-4.157c1.162-1.56,2.153-3.294,2.923-5.144c1.5-3.684,2.09-7.967,1.08-11.876
	c-1.044-3.969-3.421-7.674-6.312-10.374c-0.724-0.679-1.489-1.285-2.277-1.819c-0.401-0.25-0.791-0.525-1.205-0.728
	c-0.389-0.229-0.833-0.436-1.296-0.633c-1.798-0.845-3.644-1.447-5.482-1.849c-3.676-0.849-7.341-0.724-10.691-0.059
	c-1.673,0.355-3.271,0.842-4.782,1.409c-1.506,0.584-2.916,1.256-4.241,1.955c-5.271,2.888-8.995,6.271-11.392,8.708
	c-1.198,1.229-2.066,2.251-2.634,2.962c-0.565,0.712-0.834,1.109-0.834,1.109s0.199-0.436,0.653-1.231
	c0.457-0.794,1.175-1.945,2.211-3.353c2.083-2.788,5.41-6.719,10.678-10.356c1.329-0.887,2.77-1.756,4.35-2.543
	c1.586-0.771,3.303-1.464,5.15-2.018c3.69-1.06,7.959-1.521,12.32-0.783c2.178,0.345,4.374,0.942,6.493,1.819
	c1.046,0.378,2.223,0.977,3.253,1.606c1.046,0.648,2.038,1.383,2.963,2.195c3.68,3.262,6.594,7.558,7.979,12.724
	c1.342,5.284,0.432,10.595-1.533,15.047c-1.008,2.227-2.286,4.267-3.763,6.074c-1.492,1.803-3.171,3.354-4.928,4.671
	c-3.542,2.612-7.374,4.285-11.047,5.287c-1.842,0.5-3.639,0.84-5.393,1.046c-1.795,0.21-3.47,0.205-5.056,0.147
	c-6.329-0.29-11.258-1.363-14.652-2.119C173.994,86.411,172.172,85.808,172.172,85.808"/>
</svg>
