<?xml version="1.0" encoding="utf-8"?>
<!-- Generator: Adobe Illustrator 15.0.0, SVG Export Plug-In . SVG Version: 6.00 Build 0)  -->
<!DOCTYPE svg PUBLIC "-//W3C//DTD SVG 1.1//EN" "http://www.w3.org/Graphics/SVG/1.1/DTD/svg11.dtd">
<svg version="1.1" id="Layer_1" xmlns="http://www.w3.org/2000/svg" xmlns:xlink="http://www.w3.org/1999/xlink" x="0px" y="0px"
	 width="305.834px" height="112px" viewBox="0 0 305.834 112" enable-background="new 0 0 305.834 112" xml:space="preserve">
<g>
	<g>
		<defs>
			<rect id="beast-nose-9-id-1" x="17.917" y="4.521" width="270" height="102.958"/>
		</defs>
		<clipPath id="beast-nose-9-id-2">
			<use xlink:href="#beast-nose-9-id-1"  overflow="visible"/>
		</clipPath>
		<path clip-path="url(#beast-nose-9-id-2)" fill="#D72251" d="M57.042,52.771c-1.042,0.078-2.666-0.499-3.458-2.333
			s-1.375-2.001-0.084-3.459c1.292-1.458,2.959-2.5,4.459-2s3.333,1.958,3.208,3.875S59.833,52.563,57.042,52.771"/>
		<path clip-path="url(#beast-nose-9-id-2)" fill="#D72251" d="M65.375,54.188c0,0,0.75-2.501,2.667-2.459s2.625,1.709,2.625,2.667
			s-1.958,2.875-2.917,2.792C66.792,57.104,64.959,55.772,65.375,54.188"/>
		<path clip-path="url(#beast-nose-9-id-2)" fill="#D72251" d="M247.292,78.021c0,0-0.5-5.75,2.625-7.5s8.625-1,11.375,1.625
			s4.25,6.125,4.125,9s-3.875,5.625-6.125,5.375C259.292,86.521,252.417,78.521,247.292,78.021"/>
		<path clip-path="url(#beast-nose-9-id-2)" fill="#FCDCA4" d="M255.52,73.514c0.532-0.725,3.192-0.822,4.563,0.365
			c1.369,1.186,2.189,3.559,0.729,4.471s-3.103,0.092-4.197-1.004C255.52,76.25,254.516,74.881,255.52,73.514"/>
		<path clip-path="url(#beast-nose-9-id-2)" fill="#D72251" d="M93.292,61.021c-0.118-1.973,1.625-5.125,9-6.25s17.375,0.875,24.125,3.625
			c6.75,2.75,23.5,8.25,33.375,7.125s26.5-5,34.75-7.375c8.25-2.375,25.125-5.25,26.875,0.25c1.75,5.5-8.875,14.5-13.375,16.25
			s-6.875,2-6.875,0.875s5-4.5,3.5-6.375s-6.625-2.625-11.875-0.375s-17.25,7-15.5,11.125s6.875,1.5,8.5,1.375
			s3.125,1.875,1.625,2.75s-20.125,7.75-30,9.375c0,0-19.875-5.75-24.125-8.25s-6.125-5.5-4.5-5.625s3.75,0.125,4.375-1.125
			s-2.25-7-9-9.5s-13.5-4.625-14.5-2.75s0.875,3.75-0.125,4.75S93.667,67.271,93.292,61.021"/>
		<path clip-path="url(#beast-nose-9-id-2)" fill="#D72251" d="M178.667,76.646c0,0,4-3.75,10.125-6.125s10.375-2.875,10.375-2.875
			s-1.125,5.125-8.125,8S181.042,78.146,178.667,76.646"/>
		<path clip-path="url(#beast-nose-9-id-2)" fill="#D72251" d="M114.167,66.23c0,0,1.333,4,6.25,6.916c4.916,2.916,8.333,2.918,11.166,1.75
			c2.834-1.166,0,0,0,0S126.833,67.812,114.167,66.23"/>
		<path clip-path="url(#beast-nose-9-id-2)" fill="#FCDCA4" d="M180.167,81.771c0,0,2.812,0.25,4.312-0.062s3.125-0.246,3.312,0.438
			c0.375,1.375-2.438,3.188-2.438,3.188s1.326,4.061,1.75,4.562c0.319,0.377,1.871,2.268,3.438,2.25
			c1.803-0.021,4.298-3.162,4.625-4.439c0.625-2.436,2.072-2.598,3.562-3.123c2.125-0.75,2.847-2.887,2.16-4.762
			c-0.41-1.115,0.327-2.383,0.791-3.748c0.315-0.93,0.205-2.127,0.686-2.48c1.188-0.875,2.988-2.012,2.613-3.697
			c-0.375-1.689-4-2.814-5.375-2.564c0,0-0.875,4.25-6.875,7.502c-6,3.248-11.375,2.688-13.625,1.938c0,0-2.312,0.812-1.625,2.5
			S180.167,81.771,180.167,81.771"/>
		<path clip-path="url(#beast-nose-9-id-2)" fill="#0C3846" d="M240.917,16.146c0,0-0.516-0.023-1.415-0.063
			c-0.446-0.016-0.991-0.034-1.612-0.055c-0.623-0.004-1.322-0.115-2.082-0.178c-0.758-0.081-1.58-0.127-2.438-0.287
			c-0.856-0.157-1.772-0.229-2.692-0.472c-0.918-0.232-1.889-0.368-2.834-0.676c-0.953-0.277-1.931-0.515-2.877-0.86l-1.434-0.466
			c-0.471-0.174-0.938-0.347-1.402-0.519c-0.939-0.322-1.826-0.729-2.703-1.084c-0.871-0.374-1.693-0.778-2.481-1.147
			c-0.767-0.408-1.519-0.754-2.181-1.134c-1.34-0.729-2.416-1.416-3.178-1.893c-0.748-0.492-1.17-0.792-1.17-0.792
			s0.328,0.401,0.989,1.021c0.653,0.625,1.623,1.491,2.89,2.397c1.242,0.941,2.789,1.912,4.52,2.819
			c0.871,0.443,1.773,0.904,2.731,1.278c0.476,0.193,0.947,0.412,1.438,0.583l1.488,0.487c0.985,0.35,2.019,0.539,3.016,0.783
			c0.997,0.247,2.012,0.337,2.974,0.496c0.964,0.162,1.916,0.153,2.804,0.233c0.89,0.086,1.735,0.059,2.514,0.027
			c0.777-0.037,1.488-0.019,2.115-0.097c0.625-0.08,1.17-0.149,1.619-0.208C240.407,16.217,240.917,16.146,240.917,16.146
			 M241.384,18.735c1.266,0.41,3.111,0.907,5.373,1.261c1.129,0.196,2.362,0.328,3.674,0.438c1.308,0.111,2.695,0.13,4.131,0.148
			c0.718-0.024,1.447-0.05,2.186-0.075c0.37-0.013,0.742-0.026,1.116-0.039c0.372-0.035,0.747-0.07,1.123-0.105
			c0.751-0.08,1.508-0.162,2.269-0.243c0.76-0.091,1.512-0.255,2.27-0.38c0.756-0.14,1.519-0.248,2.258-0.446
			c0.738-0.201,1.477-0.402,2.206-0.6c1.477-0.343,2.856-0.927,4.207-1.423c1.364-0.461,2.603-1.115,3.793-1.679
			c0.47-0.238,0.931-0.457,1.375-0.688l0.019,0.008c0,0,0.018-0.017,0.047-0.042c0.09-0.047,0.185-0.092,0.272-0.141
			c0.524-0.331,1.03-0.651,1.519-0.96c0.963-0.624,1.855-1.176,2.586-1.756c0.715-0.601,1.334-1.127,1.83-1.571
			c0.998-0.886,1.531-1.421,1.531-1.421s-0.707,0.314-1.881,0.919c-0.589,0.299-1.289,0.677-2.086,1.11
			c-0.133,0.074-0.277,0.144-0.419,0.213c0.293-0.376,0.583-0.761,0.86-1.161c0.916-1.301,1.687-2.689,2.17-3.764
			c0.25-0.535,0.43-0.991,0.543-1.315c0.119-0.319,0.188-0.502,0.188-0.502s-0.097,0.169-0.266,0.467
			c-0.162,0.3-0.41,0.718-0.737,1.198c-0.642,0.97-1.599,2.186-2.669,3.28c-1.064,1.104-2.23,2.104-3.141,2.785
			c-0.914,0.694-2.756,1.645-2.756,1.645h0.002c-0.552,0-1.111,0.445-1.687,0.677c0.294-0.361,0.588-0.738,0.875-1.121
			c0.851-1.132,1.606-2.334,2.095-3.27c0.235-0.474,0.43-0.865,0.537-1.154c0.117-0.281,0.184-0.443,0.184-0.443
			s-0.094,0.146-0.26,0.402c-0.156,0.261-0.414,0.608-0.724,1.023c-0.638,0.819-1.567,1.835-2.577,2.768
			c-1.006,0.935-2.072,1.799-2.888,2.418c-0.274,0.208-0.503,0.375-0.707,0.521c-0.8,0.257-1.613,0.506-2.458,0.69
			c-0.658,0.165-1.322,0.33-1.988,0.496c0.348-0.346,0.702-0.707,1.049-1.081c0.861-0.922,1.658-1.897,2.217-2.65
			c0.283-0.375,0.506-0.696,0.658-0.923c0.152-0.226,0.24-0.354,0.24-0.354s-0.111,0.108-0.307,0.299
			c-0.193,0.19-0.473,0.459-0.822,0.767c-0.689,0.62-1.648,1.399-2.648,2.111c-0.996,0.717-2.031,1.369-2.82,1.824
			c-0.793,0.464-1.313,0.717-1.313,0.717l0.011,0.017c-0.242,0.045-0.484,0.094-0.728,0.126c-0.728,0.094-1.453,0.188-2.173,0.279
			l-0.523,0.074c0.2-0.136,0.404-0.265,0.598-0.408c0.672-0.495,1.293-1.045,1.847-1.583c0.271-0.274,0.519-0.555,0.759-0.811
			c0.246-0.25,0.434-0.528,0.631-0.762c0.394-0.467,0.664-0.9,0.865-1.191c0.199-0.292,0.312-0.459,0.312-0.459
			s-0.137,0.147-0.381,0.406c-0.242,0.256-0.57,0.637-1.026,1.032c-0.226,0.197-0.447,0.436-0.724,0.641
			c-0.271,0.211-0.547,0.441-0.848,0.662c-0.607,0.43-1.271,0.855-1.967,1.218c-1.391,0.726-2.872,1.4-3.992,1.604
			c-0.561,0.113-1.499,0.438-1.818,0.438h-0.002c-0.674,0-1.332-0.142-1.975-0.152c-0.637-0.013-1.258-0.09-1.859-0.09
			c-0.601,0.004-1.179-0.091-1.738-0.094c-1.119-0.003-2.137-0.122-3.053-0.148c-0.906-0.074-1.707-0.11-2.363-0.174
			c-1.309-0.115-2.066-0.21-2.066-0.21S240.108,18.346,241.384,18.735 M286.185,26.417c-0.549,0.244-1.203,0.559-1.947,0.925
			c-0.369,0.187-0.764,0.385-1.178,0.594c-0.426,0.184-0.875,0.376-1.342,0.578c-0.937,0.399-1.937,0.854-2.99,1.342
			c-1.082,0.414-2.222,0.851-3.401,1.303c-1.162,0.505-2.452,0.745-3.705,1.162c-1.253,0.434-2.587,0.614-3.892,0.914
			c-0.651,0.167-1.313,0.254-1.975,0.335c-0.66,0.087-1.318,0.175-1.972,0.263c-0.654,0.062-1.308,0.067-1.951,0.113
			c-0.644,0.03-1.28,0.096-1.907,0.053c-0.625-0.018-1.242-0.036-1.846-0.053c-0.604-0.019-1.186-0.125-1.76-0.169
			c-1.151-0.077-2.208-0.338-3.209-0.478c-0.971-0.248-1.891-0.405-2.67-0.666c-0.801-0.205-1.467-0.464-2.041-0.641
			c-1.108-0.42-1.732-0.721-1.732-0.721s0.127,0.115,0.387,0.309c0.254,0.207,0.659,0.45,1.17,0.781
			c0.526,0.299,1.168,0.673,1.947,1.004c0.768,0.369,1.676,0.669,2.667,1.009c1.011,0.255,2.103,0.593,3.293,0.744
			c0.593,0.089,1.201,0.21,1.829,0.259c0.628,0.044,1.27,0.088,1.924,0.134c0.654,0.069,1.318,0.03,1.992,0.025
			c0.674-0.015,1.357-0.008,2.043-0.061c0.684-0.076,1.371-0.152,2.062-0.229c0.693-0.071,1.387-0.147,2.065-0.31
			c1.356-0.317,2.745-0.521,4.039-0.977c0.653-0.206,1.302-0.409,1.94-0.61c0.318-0.105,0.639-0.2,0.949-0.312
			c0.306-0.127,0.608-0.253,0.908-0.378c1.196-0.512,2.371-0.961,3.447-1.469c1.053-0.556,2.041-1.089,2.941-1.6
			c0.453-0.251,0.888-0.491,1.287-0.739c0.389-0.27,0.756-0.525,1.104-0.765c0.686-0.487,1.279-0.917,1.757-1.285
			c0.968-0.718,1.497-1.155,1.497-1.155S287.272,25.909,286.185,26.417 M222.89,48.503c-0.07-0.744-0.147-1.513-0.299-2.296
			c-0.229-1.574-0.623-3.213-1.117-4.878c-0.509-1.661-1.115-3.358-1.896-5.006c-0.734-1.67-1.67-3.271-2.662-4.822
			c-1.011-1.541-2.109-3.011-3.234-4.411c-1.138-1.396-2.302-2.704-3.345-4.021c-1.073-1.299-2.112-2.553-3.098-3.743
			c-0.942-1.228-1.834-2.389-2.656-3.461c-0.821-1.073-1.594-2.045-2.237-2.936c-0.658-0.882-1.23-1.65-1.703-2.284
			c-0.938-1.271-1.475-1.998-1.475-1.998s0.453,0.781,1.28,2.129c0.853,1.328,2.001,3.28,3.526,5.522
			c0.756,1.127,1.576,2.347,2.442,3.638c0.917,1.26,1.886,2.588,2.886,3.962c0.998,1.382,2.103,2.738,3.147,4.145
			c1.039,1.417,2.039,2.887,2.942,4.405c0.875,1.536,1.713,3.087,2.383,4.683c0.705,1.579,1.24,3.198,1.686,4.78
			c0.434,1.587,0.749,3.147,0.982,4.64c0.145,0.741,0.217,1.474,0.283,2.184c0.064,0.709,0.17,1.388,0.176,2.051
			c0.053,1.322,0.117,2.534,0.082,3.612c-0.006,0.62-0.008,1.188-0.021,1.714c-0.1-0.09-0.193-0.19-0.298-0.267
			c-0.837-0.618-1.748-0.968-2.644-1.228c0.016-0.037,0.031-0.066,0.045-0.105c0.082-0.203,0.13-0.433,0.201-0.669
			c0.059-0.24,0.139-0.487,0.168-0.755c0.074-0.532,0.185-1.084,0.179-1.65c0.008-0.278,0.016-0.558,0.022-0.832
			c-0.006-0.272-0.05-0.543-0.072-0.8c-0.028-0.256-0.055-0.503-0.08-0.736c-0.01-0.234-0.092-0.449-0.139-0.648
			c-0.211-0.78-0.352-1.301-0.352-1.301s-0.031,0.533-0.079,1.33c-0.021,0.196-0.007,0.407-0.06,0.629
			c-0.039,0.221-0.08,0.452-0.123,0.692c-0.049,0.238-0.076,0.483-0.142,0.727c-0.073,0.24-0.146,0.484-0.219,0.729
			c-0.117,0.49-0.345,0.947-0.517,1.376c-0.078,0.218-0.209,0.405-0.299,0.595c-0.097,0.186-0.168,0.372-0.269,0.521
			c-0.104,0.181-0.188,0.335-0.263,0.47c-0.713-0.112-1.422-0.185-2.131-0.229c0.123-0.222,0.248-0.46,0.375-0.725
			c0.343-0.672,0.635-1.5,0.898-2.398c0.227-0.909,0.441-1.883,0.541-2.871c0.073-0.49,0.094-0.986,0.121-1.472
			c0.045-0.482-0.008-0.965-0.016-1.423c0-0.46-0.077-0.904-0.116-1.321c-0.037-0.417-0.103-0.807-0.188-1.164
			c-0.135-0.717-0.316-1.294-0.445-1.695c-0.131-0.399-0.205-0.627-0.205-0.627s0.009,0.24,0.023,0.66
			c0.026,0.416,0.063,1.007,0.021,1.715c-0.012,0.354-0.006,0.731-0.057,1.132c-0.043,0.4-0.053,0.819-0.14,1.249
			c-0.14,0.858-0.308,1.762-0.56,2.643c-0.228,0.885-0.566,1.736-0.891,2.52c-0.328,0.783-0.662,1.498-0.951,2.105
			c-0.287,0.611-0.562,1.097-0.73,1.444c-0.033,0.062-0.061,0.114-0.088,0.166c-0.785,0.008-1.567,0.038-2.346,0.095
			c0.424-0.91,0.895-2.025,1.297-3.182c0.238-0.681,0.426-1.382,0.58-2.039c0.154-0.659,0.254-1.285,0.293-1.825
			c0.033-0.268,0.018-0.521,0.026-0.737c0.011-0.217-0.007-0.407-0.024-0.563c-0.03-0.309-0.047-0.484-0.047-0.484
			s-0.028,0.174-0.08,0.479c-0.021,0.151-0.051,0.332-0.117,0.536c-0.063,0.204-0.108,0.436-0.205,0.678
			c-0.338,0.981-0.934,2.224-1.645,3.4c-0.69,1.188-1.475,2.319-2.088,3.145c-0.248,0.339-0.437,0.638-0.576,0.88
			c-0.154,0.021-0.311,0.039-0.466,0.063c-0.69,0.105-1.37,0.245-2.05,0.381c0.363-0.452,0.727-0.922,1.072-1.413
			c0.49-0.673,0.912-1.399,1.285-2.086c0.17-0.352,0.336-0.691,0.492-1.014c0.137-0.333,0.254-0.651,0.361-0.943
			c0.174-0.604,0.318-1.096,0.35-1.459c0.047-0.354,0.074-0.557,0.074-0.557s-0.082,0.187-0.228,0.512
			c-0.121,0.329-0.382,0.767-0.683,1.274c-0.166,0.245-0.349,0.511-0.541,0.791c-0.211,0.267-0.432,0.548-0.662,0.838
			c-0.483,0.562-1.024,1.134-1.582,1.688c-1.11,1.119-2.367,2.082-3.26,2.842c-0.168,0.141-0.307,0.265-0.447,0.389
			c-1.049,0.272-2.088,0.557-3.121,0.846c0.041-0.039,0.084-0.072,0.123-0.111c0.354-0.363,0.723-0.7,1.051-1.074
			c0.324-0.376,0.654-0.73,0.939-1.109c0.291-0.374,0.569-0.731,0.803-1.098c0.238-0.362,0.468-0.696,0.644-1.032
			c0.368-0.659,0.625-1.228,0.78-1.637c0.16-0.405,0.24-0.638,0.24-0.638s-0.176,0.18-0.467,0.495
			c-0.146,0.158-0.311,0.356-0.519,0.566c-0.214,0.207-0.462,0.433-0.711,0.691c-0.243,0.261-0.562,0.501-0.854,0.783
			c-0.289,0.286-0.642,0.546-0.977,0.836c-0.328,0.296-0.705,0.566-1.07,0.853c-0.357,0.297-0.752,0.562-1.127,0.847
			c-0.767,0.552-1.548,1.078-2.283,1.571c-0.74,0.482-1.432,0.932-2.024,1.318c-0.257,0.164-0.488,0.314-0.703,0.451
			c-0.579,0.162-1.159,0.322-1.737,0.482c0.266-0.207,0.535-0.404,0.791-0.627c0.881-0.779,1.801-1.502,2.536-2.329
			c0.739-0.819,1.488-1.508,2.011-2.219c1.057-1.408,1.715-2.349,1.715-2.349s-0.92,0.729-2.233,1.825
			c-0.625,0.58-1.49,1.112-2.337,1.751c-0.432,0.311-0.86,0.647-1.344,0.935c-0.467,0.304-0.94,0.612-1.414,0.92
			c-0.461,0.322-0.957,0.598-1.438,0.875c-0.476,0.287-0.943,0.566-1.395,0.838c-0.928,0.502-1.766,1.02-2.508,1.416
			c-0.578,0.324-1.076,0.605-1.473,0.828c-0.839,0.209-1.677,0.42-2.517,0.621c0.251-0.162,0.501-0.33,0.747-0.5
			c0.537-0.365,1.074-0.727,1.603-1.084c0.54-0.336,1.007-0.77,1.487-1.137c0.936-0.773,1.859-1.418,2.54-2.117
			c1.388-1.34,2.313-2.233,2.313-2.233s-1.062,0.717-2.654,1.791c-0.391,0.272-0.813,0.571-1.295,0.834
			c-0.471,0.279-0.965,0.572-1.479,0.875c-0.517,0.295-1.026,0.633-1.589,0.908c-0.553,0.289-1.112,0.584-1.673,0.877
			c-0.556,0.301-1.118,0.586-1.69,0.83c-0.564,0.26-1.119,0.514-1.656,0.758c-0.531,0.258-1.064,0.459-1.56,0.676
			c-0.496,0.209-0.966,0.408-1.399,0.592c-0.627,0.254-1.178,0.475-1.627,0.656c-0.774,0.15-1.551,0.293-2.328,0.43
			c0.043-0.018,0.086-0.031,0.129-0.049c0.791-0.316,1.576-0.646,2.332-1.016c0.764-0.346,1.504-0.709,2.201-1.102
			c0.709-0.371,1.383-0.742,1.996-1.15c0.619-0.389,1.207-0.746,1.723-1.125c0.525-0.363,1.002-0.699,1.412-1.012
			c0.398-0.33,0.744-0.619,1.031-0.857c0.567-0.477,0.879-0.762,0.879-0.762s-0.379,0.188-1.043,0.518
			c-0.326,0.168-0.722,0.371-1.176,0.605c-0.472,0.203-0.988,0.451-1.552,0.725c-0.556,0.281-1.187,0.535-1.845,0.812
			c-0.656,0.279-1.346,0.574-2.075,0.848c-1.437,0.586-3.001,1.133-4.566,1.658c-0.778,0.279-1.577,0.492-2.352,0.742
			c-0.776,0.24-1.55,0.449-2.294,0.66c-0.75,0.193-1.465,0.416-2.156,0.578c-0.688,0.176-1.339,0.334-1.943,0.465
			c-1.205,0.281-2.211,0.512-2.916,0.646c-0.343,0.068-0.609,0.121-0.795,0.16c-1.703-0.018-3.406-0.117-5.099-0.324
			c-3.651-0.43-7.257-1.246-10.782-2.365c-3.533-1.1-6.988-2.486-10.508-3.832c-0.877-0.334-1.791-0.678-2.676-0.99l-1.329-0.461
			l-1.39-0.436c-1.84-0.543-3.7-1.008-5.574-1.375c-3.747-0.734-7.538-1.267-11.368-1.299c-1.916,0.001-3.834,0.078-5.758,0.312
			c-0.474,0.05-0.978,0.132-1.471,0.207c-0.516,0.077-0.896,0.18-1.432,0.284c-0.424,0.108-0.845,0.239-1.263,0.382
			c0.077-0.26,0.161-0.539,0.249-0.836c0.088-0.305,0.173-0.629,0.289-0.958c0.112-0.33,0.223-0.674,0.328-1.027
			c0.098-0.358,0.263-0.695,0.392-1.049c0.134-0.354,0.268-0.709,0.399-1.058c0.157-0.34,0.311-0.674,0.459-0.997
			c0.148-0.328,0.291-0.646,0.427-0.946c0.124-0.311,0.307-0.562,0.437-0.82c0.549-1.021,0.907-1.733,0.907-1.733
			c0.001,0-0.572,0.527-1.419,1.366c-0.202,0.217-0.45,0.433-0.651,0.705c-0.214,0.266-0.439,0.547-0.672,0.837
			c-0.234,0.291-0.478,0.594-0.709,0.913c-0.211,0.333-0.425,0.67-0.64,1.008c-0.203,0.346-0.44,0.676-0.611,1.034
			c-0.184,0.351-0.358,0.703-0.522,1.044c-0.179,0.336-0.301,0.684-0.422,1.011c-0.123,0.327-0.232,0.638-0.32,0.932
			c-0.162,0.595-0.274,1.087-0.32,1.476c-0.017,0.095-0.029,0.178-0.038,0.248c-0.557,0.365-1.079,0.8-1.542,1.308
			c0.018-0.104,0.039-0.223,0.063-0.355c0.094-0.551,0.274-1.336,0.488-2.28c0.208-0.946,0.544-2.026,0.889-3.188
			c0.378-1.15,0.806-2.374,1.323-3.562c0.251-0.599,0.522-1.188,0.819-1.755c0.271-0.582,0.578-1.131,0.894-1.654
			c0.288-0.543,0.606-1.042,0.925-1.506c0.306-0.475,0.605-0.919,0.922-1.297c0.302-0.395,0.578-0.756,0.824-1.077
			c0.27-0.301,0.506-0.563,0.7-0.779c0.386-0.443,0.607-0.696,0.607-0.696s-0.274,0.193-0.754,0.532
			c-0.239,0.175-0.529,0.388-0.861,0.631c-0.314,0.265-0.667,0.569-1.042,0.914c-0.388,0.334-0.766,0.735-1.16,1.169
			c-0.405,0.425-0.822,0.885-1.207,1.397c-0.4,0.502-0.796,1.035-1.158,1.604c-0.389,0.555-0.73,1.149-1.064,1.75
			c-0.686,1.191-1.237,2.454-1.707,3.653c-0.199,0.585-0.423,1.141-0.571,1.69c0-0.02-0.002-0.038-0.002-0.058
			c-0.05-1.232,0.017-2.566,0.163-3.967c0.103-0.746,0.224-1.515,0.384-2.291c0.05-0.069,0.105-0.146,0.168-0.233
			c0.262-0.377,0.635-0.914,1.083-1.56c0.432-0.661,0.977-1.403,1.51-2.233c0.257-0.422,0.585-0.811,0.864-1.245
			c0.292-0.429,0.589-0.862,0.886-1.297c0.311-0.422,0.623-0.844,0.93-1.26c0.315-0.408,0.571-0.868,0.902-1.228
			c0.319-0.373,0.607-0.757,0.892-1.114c0.293-0.346,0.528-0.729,0.802-1.013c1.086-1.15,1.791-2.047,1.791-2.047
			s-1.003,0.422-2.478,1.249c-0.371,0.204-0.713,0.489-1.098,0.773c-0.378,0.291-0.789,0.59-1.193,0.924
			c-0.424,0.318-0.784,0.711-1.18,1.089c-0.192,0.194-0.387,0.392-0.58,0.588c0.399-0.792,0.795-1.577,1.195-2.371
			c0.834-1.479,1.668-2.957,2.489-4.412c0.864-1.437,1.714-2.851,2.536-4.22c1.691-2.714,3.255-5.264,4.636-7.428
			c1.361-2.182,2.495-3.999,3.289-5.271c0.81-1.264,1.242-2.011,1.242-2.011s-0.587,0.63-1.563,1.774
			c-0.976,1.144-2.374,2.777-3.96,4.81c-0.779,1.026-1.657,2.115-2.525,3.312c-0.859,1.201-1.791,2.453-2.71,3.779
			c-0.893,1.346-1.816,2.737-2.753,4.15c-0.879,1.457-1.772,2.938-2.665,4.417c-0.852,1.529-1.646,3.118-2.448,4.656
			c-0.323,0.778-0.644,1.551-0.961,2.315c-0.156,0.381-0.312,0.761-0.467,1.138l-0.114,0.283l-0.028,0.071l-0.037,0.101
			l-0.011,0.039l-0.044,0.152l-0.178,0.607c-0.504,1.605-0.764,3.215-0.962,4.736c-0.15,1.529-0.211,2.981-0.149,4.317
			c0.128,2.674,0.611,4.855,1.007,6.359c0.217,0.75,0.412,1.332,0.563,1.73c0.146,0.402,0.249,0.633,0.242,0.619l0.029-0.012
			c0.004,0.287,0.032,0.574,0.076,0.855c0.032,0.277,0.141,0.586,0.22,0.873c0.044,0.129,0.089,0.223,0.134,0.334l0.067,0.164
			l0.034,0.08l0.043,0.096l0.027,0.049c0.571,1.055,1.315,1.729,2.055,2.395c1.5,1.291,3.105,2.338,4.741,3.328
			c1.66,0.979,3.268,1.895,5.123,2.689l0.016,0.006c0.861,0.314,1.713,0.533,2.652,0.639c0.47,0.045,0.961,0.064,1.513-0.025
			c0.524-0.09,1.254-0.318,1.741-1.031c0.251-0.35,0.364-0.9,0.297-1.291c-0.054-0.396-0.178-0.662-0.281-0.893
			c-0.214-0.447-0.4-0.762-0.511-1.051c-0.113-0.287-0.149-0.514-0.13-0.729c0.008-0.102,0.044-0.23,0.078-0.322
			c0.002-0.021,0.047-0.119,0.094-0.215c0.006,0.006,0.016-0.031,0.035-0.047c0.111-0.193,0.814-0.426,1.512-0.438
			c0.498-0.023,1.026,0.016,1.559,0.074c0.048,0.096,0.094,0.193,0.152,0.293c0.046,0.092,0.107,0.195,0.163,0.295
			c-0.508,0.234-1.05,0.406-1.225,0.383c-0.409-0.08-0.799,0.191-0.876,0.598c-0.076,0.408,0.192,0.801,0.599,0.877
			c0.094,0.018,0.194,0.025,0.297,0.025c0.714,0,1.585-0.387,2.03-0.611c0.14,0.195,0.291,0.396,0.45,0.604
			c-0.594,0.617-1.203,1.389-1.474,2.191c-0.133,0.393,0.078,0.818,0.47,0.953c0.08,0.025,0.161,0.037,0.24,0.037
			c0.313,0,0.605-0.197,0.711-0.51c0.17-0.502,0.589-1.049,1.041-1.531c0.089,0.094,0.177,0.182,0.265,0.281
			c0.103,0.105,0.222,0.205,0.333,0.309c-0.007,0.014-0.014,0.027-0.021,0.041c-0.022,0.049-0.041,0.094-0.07,0.141
			c-0.219,0.354-0.109,0.816,0.243,1.033c0.123,0.076,0.259,0.111,0.394,0.111c0.228,0,0.443-0.115,0.589-0.309
			c0.217,0.164,0.452,0.328,0.678,0.488c-0.696,0.73-0.862,1.578-0.827,2.072c0.027,0.395,0.355,0.498,0.746,0.498h0.042
			c0.41,0,0.725-0.193,0.709-0.602c-0.002-0.031-0.013-0.57,0.638-1.061c0.208,0.127,0.416,0.252,0.626,0.377l0.858,0.473
			c-0.21,0.555-0.448,1.125-0.696,1.58c-0.199,0.363-0.064,0.82,0.299,1.016c0.115,0.062,0.237,0.092,0.359,0.092
			c0.266,0,0.523-0.141,0.659-0.391c0.266-0.488,0.516-1.076,0.737-1.648c0.76,0.334,1.527,0.623,2.288,0.863
			c-0.114,0.662-0.202,1.311-0.183,1.674l0.041,0.832c0.021,0.4,0.353,0.795,0.748,0.795h0.041c0.414,0,0.73-0.457,0.709-0.869
			l-0.041-0.875c-0.01-0.201,0.047-0.641,0.133-1.156c0.603,0.139,1.191,0.242,1.756,0.303c0.02,0.301,0.051,0.566,0.104,0.736
			c0.1,0.32,0.392,0.521,0.711,0.521c0.07,0,0.145-0.01,0.217-0.031c0.394-0.117,0.617-0.535,0.507-0.932
			c-0.015-0.047-0.024-0.133-0.033-0.234c0.345-0.006,0.677-0.02,0.981-0.062c0.475-0.059,0.897-0.15,1.242-0.271
			c0.031-0.01,0.053-0.02,0.084-0.029c0.152,0.23,0.307,0.459,0.433,0.699c0.309,0.568,0.516,1.26,0.504,1.682
			c-0.007,0.002-0.007,0.004-0.013,0.004c-0.242,0.057-0.611,0.072-0.979,0.062c-0.373-0.01-0.763-0.041-1.168-0.076
			c-0.416-0.021-0.79-0.109-1.428-0.049c-0.268,0.027-0.557,0.078-0.879,0.211c-0.312,0.125-0.703,0.365-0.961,0.797
			c-0.26,0.432-0.285,0.93-0.225,1.279c0.063,0.365,0.168,0.635,0.319,0.926c0.53,0.967,1.319,1.578,2.017,2.092
			c1.445,1.016,2.943,1.814,4.453,2.543c1.512,0.723,3.041,1.451,4.579,2.078c6.162,2.482,12.421,4.652,18.753,6.652h0.003
			c0,0,3.945-0.938,5.673-1.334c1.729-0.395,3.452-0.818,5.162-1.289c3.42-0.938,6.805-2.008,10.127-3.264
			c1.662-0.619,3.307-1.289,4.937-2.004c0.696-0.305,1.392-0.627,2.075-0.953c0.545,2.207,2.043,6.787,5.078,6.787
			c0.076,0,0.15-0.002,0.228-0.008c4.229-0.314,5.405-4.633,5.793-6.051c0.181-0.66,0.72-0.828,1.823-1.027
			c0.467-0.086,0.947-0.174,1.354-0.377c0.927-0.463,3.753-1.875,2.404-4.908c-0.548-1.232-0.302-2.15,0.101-3.047
			c0.092,0.021,0.182,0.037,0.26,0.049c0.207,0.02,0.383,0.012,0.543-0.002c0.316-0.031,0.58-0.094,0.843-0.158
			c0.514-0.137,0.983-0.305,1.444-0.484c0.916-0.365,1.789-0.779,2.643-1.217c1.706-0.881,3.343-1.854,4.941-2.889
			c3.188-2.076,6.313-4.49,8.508-7.881c0.66-1.061,1.232-2.295,1.449-3.629c0.01-0.072,0.318-2.314,0.469-3.887
			c0.094-0.797,0.111-1.776,0.146-2.897c0.07-1.12,0.002-2.389-0.058-3.771C223.067,49.964,222.958,49.248,222.89,48.503
			 M93.307,57.729c-0.006-0.033-0.013-0.064-0.02-0.098l0.089,0.01C93.353,57.67,93.33,57.697,93.307,57.729 M130.089,74.594
			c-0.208,0.053-0.445,0.096-0.695,0.131c0.006-0.219,0.013-0.439,0.022-0.646c0.019-0.414-0.3-0.766-0.714-0.785
			c-0.434-0.031-0.766,0.301-0.784,0.715c-0.009,0.193-0.021,0.465-0.026,0.766c-0.217-0.01-0.437-0.021-0.666-0.047
			c-0.264-0.025-0.537-0.062-0.812-0.107c0.059-0.283,0.118-0.561,0.173-0.801c0.093-0.404-0.161-0.801-0.565-0.893
			c-0.405-0.094-0.806,0.172-0.897,0.576c-0.03,0.133-0.095,0.426-0.17,0.787c-0.455-0.127-0.913-0.27-1.375-0.436
			c-0.246-0.094-0.491-0.199-0.735-0.305c0.209-0.623,0.346-1.09,0.358-1.133c0.112-0.398-0.117-0.812-0.515-0.928
			c-0.396-0.117-0.813,0.115-0.928,0.514c-0.002,0.01-0.11,0.379-0.281,0.9l-0.634-0.346c-0.291-0.182-0.581-0.361-0.87-0.541
			c-0.53-0.398-1.062-0.777-1.547-1.178c-0.038-0.039-0.077-0.074-0.116-0.113c0.173-0.209,0.403-0.467,0.731-0.809
			c0.287-0.297,0.278-0.771-0.021-1.059c-0.297-0.287-0.772-0.279-1.06,0.02c-0.293,0.305-0.521,0.557-0.708,0.775
			c-0.03-0.035-0.067-0.066-0.096-0.102c-0.08-0.107-0.163-0.205-0.245-0.309c0.117-0.096,0.225-0.182,0.306-0.242
			c0.333-0.246,0.404-0.715,0.157-1.049c-0.246-0.332-0.715-0.404-1.048-0.158c-0.042,0.031-0.155,0.119-0.292,0.229
			c-0.206-0.32-0.395-0.627-0.519-0.922c-0.016-0.031-0.027-0.059-0.042-0.092c1.037,0.24,2.073,0.545,3.095,0.891
			c0.883,0.301,1.754,0.641,2.62,0.996c-0.361,0.512-0.883,1.117-1.233,1.488c-0.284,0.301-0.271,0.775,0.031,1.061
			c0.145,0.137,0.33,0.203,0.514,0.203c0.2,0,0.398-0.078,0.546-0.234c0.122-0.129,0.991-1.064,1.542-1.916
			c0.155,0.07,0.313,0.131,0.468,0.201c1.473,0.676,2.916,1.387,4.24,2.234c1.162,0.746,2.25,1.592,3.184,2.549
			C130.356,74.521,130.231,74.561,130.089,74.594 M201.356,73.146l-0.545,0.41l0.219,0.658c0.091,0.275,0.141,0.623,0.143,0.951
			c0.002,0.064-0.002,0.131-0.005,0.195c-0.096,0.252-0.212,0.52-0.366,0.836c-0.595,1.225-1.334,2.75-0.388,4.881
			c0.642,1.441-0.14,2.176-1.707,2.959c-0.211,0.105-0.569,0.172-0.948,0.24c-1.018,0.186-2.554,0.465-3.003,2.109
			c-0.552,2.023-1.614,4.738-4.456,4.949c-1.932,0.148-3.291-3.789-3.803-5.92c0.454-0.199,0.93-0.418,1.443-0.742
			c0.23-0.162,0.484-0.326,0.744-0.711c0.065-0.119,0.119-0.211,0.172-0.371c0.029-0.098,0.049-0.201,0.058-0.305l0.007-0.152
			l-0.009-0.123l-0.024-0.17l-0.009-0.037l-0.032-0.156c-0.097-0.449-0.229-1.061-0.705-1.619c-0.232-0.281-0.572-0.496-0.908-0.625
			c-0.338-0.119-0.68-0.168-0.973-0.154c-0.637,0.01-1.147,0.178-1.517,0.273c-1.599,0.408-3.332,0.652-4.771,0.328
			c-1.424-0.312-2.168-1.477-1.476-2.615c0.058-0.1,0.126-0.197,0.192-0.293c0.146,0.037,0.311,0.078,0.496,0.121
			c0.703,0.162,1.697,0.293,2.871,0.314c0.023,0.447,0.026,0.922-0.013,1.393c-0.034,0.412,0.272,0.775,0.685,0.809
			c0.021,0.002,0.041,0.004,0.063,0.004c0.386,0,0.714-0.297,0.746-0.688c0.044-0.531,0.043-1.059,0.019-1.555
			c0.371-0.023,0.752-0.064,1.143-0.115c0.341,0.51,1.016,1.365,2.031,1.945c0.117,0.068,0.246,0.1,0.371,0.1
			c0.262,0,0.515-0.137,0.653-0.379c0.205-0.359,0.08-0.816-0.28-1.023c-0.457-0.26-0.822-0.607-1.102-0.924
			c0.739-0.148,1.488-0.35,2.24-0.584c0.43-0.148,0.861-0.299,1.293-0.461c0.318,0.828,0.759,1.756,1.283,2.299
			c0.147,0.152,0.343,0.229,0.539,0.229c0.188,0,0.375-0.07,0.521-0.211c0.299-0.289,0.305-0.764,0.018-1.061
			c-0.338-0.35-0.686-1.086-0.971-1.832c0.219-0.094,0.44-0.189,0.67-0.305c0.115-0.055,0.229-0.109,0.344-0.166
			c0.293,0.477,0.57,0.98,0.791,1.494c0.121,0.285,0.398,0.455,0.689,0.455c0.098,0,0.199-0.02,0.296-0.061
			c0.38-0.164,0.556-0.605,0.394-0.986c-0.236-0.553-0.527-1.086-0.834-1.59c0.486-0.27,0.964-0.543,1.396-0.844
			c0.168-0.105,0.317-0.227,0.475-0.342c0.531,0.643,1.062,1.299,1.354,1.701c0.146,0.201,0.375,0.309,0.606,0.309
			c0.154,0,0.308-0.047,0.441-0.145c0.335-0.242,0.409-0.713,0.165-1.047c-0.307-0.422-0.842-1.086-1.377-1.732
			c0.032-0.029,0.069-0.053,0.101-0.08c0.272-0.23,0.531-0.463,0.762-0.713c0.001-0.002,0.001-0.002,0.002-0.002
			c0.508,0.273,1.107,0.518,1.729,0.59c0.028,0.002,0.057,0.004,0.086,0.004c0.375,0,0.7-0.283,0.743-0.666
			c0.048-0.412-0.249-0.783-0.659-0.83c-0.301-0.033-0.611-0.143-0.908-0.279c0.248-0.346,0.472-0.691,0.658-1.016
			c0.256-0.473,0.435-0.92,0.549-1.307c0.041-0.146,0.072-0.273,0.102-0.4c0.441-0.027,0.883-0.037,1.314-0.018
			c0.791,0.039,1.567,0.182,2.138,0.494c0.274,0.141,0.528,0.371,0.649,0.539c0.023,0.012,0.084,0.125,0.138,0.221l0.034,0.059
			l0.006,0.02l0.045,0.098c0.047,0.129,0.074,0.248,0.084,0.359c0.056,0.412-0.289,0.951-0.874,1.467
			C202.831,72.123,202.116,72.572,201.356,73.146 M187.09,83.199c0-0.004,0.003-0.01,0.003-0.014v0.004l0.002,0.006l0.002,0.033
			l0.002,0.041C187.095,83.25,187.091,83.223,187.09,83.199 M187.927,74.713c0.053,0.012,0.105,0.018,0.158,0.018
			c0.346,0,0.657-0.242,0.732-0.594c0.17-0.791-0.039-1.775-0.262-2.514c0.871-0.377,1.748-0.74,2.629-1.078l0.82,0.994
			c0.148,0.182,0.363,0.273,0.579,0.273c0.168,0,0.337-0.055,0.476-0.17c0.321-0.264,0.367-0.736,0.104-1.057l-0.473-0.572
			c1.172-0.402,2.351-0.773,3.541-1.061c0.554-0.129,1.111-0.24,1.666-0.338c-0.107,0.441-0.326,0.996-0.699,1.592
			c-0.008-0.006-0.02-0.018-0.028-0.023c-0.308-0.277-0.782-0.252-1.059,0.055c-0.277,0.307-0.255,0.779,0.052,1.057
			c0.01,0.01,0.059,0.053,0.127,0.109c-0.148,0.168-0.3,0.338-0.473,0.502c-0.012,0.014-0.029,0.025-0.043,0.039
			c-0.379-0.449-0.662-0.781-0.693-0.818c-0.27-0.316-0.742-0.348-1.059-0.082c-0.314,0.27-0.351,0.742-0.082,1.057
			c0.008,0.01,0.291,0.344,0.685,0.809c-0.122,0.09-0.233,0.186-0.362,0.27c-0.426,0.312-0.884,0.584-1.353,0.857
			c-0.854-1.201-1.647-2.041-1.701-2.098c-0.287-0.301-0.762-0.309-1.062-0.023c-0.299,0.287-0.309,0.762-0.022,1.061
			c0.013,0.012,0.692,0.738,1.449,1.777c-0.063,0.031-0.125,0.062-0.188,0.096c-0.156,0.088-0.328,0.162-0.506,0.232
			c-0.025-0.086-0.051-0.176-0.072-0.252c-0.105-0.4-0.51-0.645-0.916-0.533c-0.4,0.105-0.64,0.516-0.535,0.916
			c0.016,0.057,0.062,0.219,0.121,0.42c-0.422,0.15-0.846,0.289-1.265,0.428c-0.168,0.049-0.334,0.088-0.501,0.135l-1.717-2.393
			c-0.241-0.336-0.709-0.412-1.047-0.172c-0.336,0.242-0.413,0.709-0.172,1.047l1.353,1.883c-0.014,0.004-0.028,0.1-0.041,0.102
			c-0.352,0.061-0.698,0.234-1.038,0.234h-0.016c-0.566,0-1.109-0.01-1.627-0.01c-0.079-0.541-0.157-0.951-0.165-0.984
			c-0.091-0.404-0.491-0.682-0.896-0.59c-0.406,0.092-0.66,0.48-0.567,0.885c0.001,0.006,0.046,0.209,0.099,0.529
			c-0.396-0.043-0.771-0.107-1.099-0.174c-0.236-0.049-0.448-0.104-0.644-0.156c0.584-0.494,1.234-0.957,1.883-1.383
			c1.424-0.924,2.955-1.732,4.515-2.479c0.211-0.1,0.429-0.189,0.642-0.289c0.151,0.545,0.266,1.16,0.176,1.576
			C187.265,74.229,187.521,74.627,187.927,74.713 M219.39,63.797c-0.92,1.473-2.16,2.801-3.511,4.004
			c-1.358,1.209-2.827,2.275-4.385,3.281c-1.548,1.006-3.14,1.955-4.767,2.799c-0.812,0.42-1.638,0.812-2.463,1.143
			c-0.396,0.156-0.793,0.295-1.17,0.398c0.004-0.092,0.006-0.182,0.008-0.271c-0.004-0.281-0.031-0.561-0.078-0.84
			c0.529-0.377,1.111-0.777,1.666-1.275c0.367-0.332,0.736-0.715,1.039-1.215c0.306-0.49,0.52-1.158,0.461-1.818
			c-0.023-0.328-0.103-0.639-0.211-0.922l-0.09-0.203l-0.022-0.051l-0.048-0.092l-0.041-0.072c-0.055-0.094-0.094-0.178-0.211-0.338
			c-0.391-0.549-0.836-0.887-1.334-1.162c-0.988-0.521-1.998-0.664-2.954-0.717c-1.921-0.076-3.726,0.252-5.49,0.666
			c-1.76,0.426-3.469,0.984-5.144,1.619c-1.674,0.639-3.303,1.342-4.92,2.111c-1.611,0.775-3.201,1.613-4.726,2.607
			c-0.762,0.5-1.511,1.031-2.219,1.654c-0.704,0.623-1.394,1.312-1.916,2.25c-0.253,0.471-0.461,1.029-0.481,1.658
			c-0.01,0.311,0.018,0.637,0.111,0.938l0.031,0.115c0.013,0.037-0.004,0,0.031,0.096l0.016,0.039l0.062,0.152
			c0.03,0.09,0.129,0.279,0.198,0.412c0.597,1.068,1.722,1.662,2.709,1.883c2.022,0.426,3.877,0.092,5.667-0.348
			c0.477-0.137,0.819-0.217,1.066-0.217c0.291,0,0.398,0.053,0.488,0.152c0.106,0.113,0.215,0.385,0.293,0.791l0.006,0.029
			c-0.039,0.033-0.084,0.07-0.139,0.105c-0.562,0.371-1.441,0.684-2.253,1.08c-0.797,0.379-1.579,0.734-2.382,1.082
			c-1.598,0.688-3.215,1.344-4.854,1.941c-3.269,1.215-6.606,2.262-9.977,3.164c-1.686,0.453-3.382,0.887-5.086,1.266
			c-1.703,0.379-3.417,0.756-5.133,1.072c0,0-12.049-3.986-18.104-6.434c-1.511-0.617-3.008-1.367-4.467-2.064
			c-1.451-0.699-2.896-1.447-4.146-2.332c-0.619-0.449-1.17-0.91-1.422-1.41c-0.021-0.039-0.041-0.092-0.059-0.143
			c0.061-0.02,0.137-0.041,0.242-0.043c0.182-0.033,0.63,0.023,1.034,0.055c0.415,0.037,0.846,0.072,1.296,0.084
			c0.455,0.008,0.916,0.012,1.48-0.109c0.277-0.066,0.61-0.154,0.992-0.459l0.141-0.133c0.039-0.049-0.043,0.057,0.099-0.117
			l0.056-0.078l0.062-0.102c0.042-0.074,0.079-0.152,0.112-0.23c0.076-0.207,0.11-0.389,0.131-0.553
			c0.08-1.246-0.314-2.102-0.724-2.947c-0.433-0.826-0.972-1.555-1.56-2.221c-1.184-1.328-2.564-2.398-4.006-3.326
			c-1.451-0.928-2.969-1.676-4.488-2.375c-1.525-0.695-3.079-1.334-4.677-1.879c-1.598-0.543-3.234-1.008-4.949-1.283
			c-0.858-0.135-1.739-0.219-2.671-0.178c-0.467,0.021-0.95,0.08-1.461,0.229c-0.5,0.148-1.081,0.406-1.549,0.963
			c-0.117,0.139-0.205,0.285-0.302,0.469c-0.042,0.088-0.087,0.174-0.153,0.348c-0.111,0.295-0.179,0.566-0.211,0.875
			c-0.063,0.607,0.071,1.211,0.262,1.688c0.187,0.479,0.424,0.875,0.562,1.172c0.037,0.078,0.063,0.145,0.08,0.195
			c-0.055,0.031-0.151,0.072-0.307,0.096c-0.261,0.043-0.602,0.041-0.949,0.006c-0.697-0.078-1.45-0.268-2.131-0.52
			c-1.603-0.656-3.283-1.562-4.862-2.465c-1.586-0.926-3.15-1.918-4.513-3.057c-0.663-0.564-1.316-1.201-1.645-1.805l-0.013-0.021
			l-0.101-0.232c-0.043-0.105-0.101-0.223-0.132-0.316c-0.031-0.166-0.099-0.301-0.122-0.49c-0.059-0.365-0.091-0.738-0.024-1.107
			c0.187-1.5,1.433-2.777,2.93-3.525c0.756-0.383,1.583-0.654,2.436-0.838c0.386-0.066,0.922-0.172,1.338-0.205
			c0.438-0.038,0.863-0.095,1.326-0.101c1.815-0.075,3.656-0.006,5.489,0.132c3.667,0.287,7.348,0.66,10.96,1.388
			c3.618,0.699,7.129,1.748,10.614,3.039c3.508,1.277,7.051,2.627,10.704,3.693c3.651,1.066,7.392,1.922,11.198,2.342
			c3.805,0.418,7.659,0.455,11.471,0.066c3.78-0.391,7.502-1.002,11.227-1.666c3.716-0.678,7.406-1.473,11.072-2.352
			c3.666-0.881,7.314-1.822,10.932-2.822c3.63-0.984,7.195-2.008,10.795-2.578c1.805-0.295,3.611-0.574,5.419-0.721
			c1.799-0.131,3.625-0.172,5.304,0.184c0.838,0.166,1.617,0.477,2.219,0.895c0.297,0.215,0.526,0.469,0.701,0.742
			c0.09,0.137,0.147,0.287,0.213,0.436l0.086,0.295c0.043,0.127,0.041,0.184,0.063,0.275
			C220.858,60.664,220.306,62.342,219.39,63.797 M91.985,16.911c-0.555,0.162-1.369,0.4-2.405,0.703
			c-1.043,0.271-2.308,0.602-3.759,0.979c-1.457,0.338-3.1,0.718-4.893,1.133c-1.812,0.32-3.748,0.771-5.819,1.117
			c-2.081,0.272-4.261,0.696-6.52,0.944c-0.547,0.044-1.095,0.096-1.647,0.148c-0.914,0.06-2.445-0.238-3.034-0.379
			c-1.181-0.274-2.759-0.771-4.304-1.412c-0.771-0.325-1.54-0.669-2.252-1.022c-0.701-0.369-1.359-0.72-1.917-1.04
			c-0.568-0.305-1.013-0.604-1.339-0.797c-0.326-0.195-0.512-0.307-0.512-0.307s0.143,0.162,0.395,0.446
			c0.255,0.281,0.616,0.689,1.086,1.144c0.237,0.225,0.477,0.491,0.763,0.734c0.284,0.247,0.584,0.508,0.894,0.776
			c0.638,0.52,1.333,1.066,2.065,1.568c0.402,0.263,0.808,0.521,1.213,0.768c-0.679,0.011-1.356,0.021-2.039,0.031l-0.932,0.022
			c-0.111-0.036-0.238-0.077-0.396-0.128c-0.46-0.145-1.132-0.392-1.943-0.7c-0.409-0.145-0.838-0.336-1.298-0.526
			c-0.457-0.197-0.948-0.389-1.442-0.617c-0.971-0.483-2.059-0.929-3.069-1.508c-0.513-0.279-1.027-0.558-1.533-0.832
			c-0.516-0.262-0.982-0.58-1.45-0.868c-0.467-0.292-0.917-0.574-1.344-0.843c-0.437-0.259-0.829-0.53-1.177-0.8
			C41.951,14.596,41,13.896,41,13.896s0.831,0.845,2.078,2.112c0.307,0.327,0.656,0.661,1.049,0.988
			c0.385,0.337,0.792,0.692,1.212,1.061c0.425,0.365,0.849,0.765,1.324,1.11c0.467,0.36,0.942,0.725,1.416,1.09
			c0.937,0.755,1.96,1.38,2.882,2.037c0.002,0.001,0.004,0.003,0.006,0.004c-0.069-0.005-0.139-0.008-0.207-0.014
			c-0.915-0.111-1.824-0.222-2.732-0.332c-0.023-0.011-0.04-0.021-0.065-0.032c-0.443-0.217-1.077-0.537-1.841-0.942
			c-1.53-0.793-3.534-1.928-5.508-3.125c-0.964-0.627-1.96-1.223-2.847-1.842c-0.442-0.312-0.871-0.613-1.277-0.898
			c-0.402-0.292-0.804-0.546-1.138-0.821c-1.361-1.087-2.268-1.812-2.268-1.812s0.783,0.865,1.956,2.163
			c0.291,0.331,0.645,0.644,1,1.001c0.36,0.353,0.74,0.724,1.133,1.107c0.789,0.767,1.683,1.521,2.555,2.312
			c0.656,0.56,1.312,1.104,1.959,1.633c-0.417-0.103-0.843-0.208-1.256-0.31c-0.516-0.154-1.013-0.303-1.52-0.454
			c-0.377-0.202-1.096-0.597-2.033-1.169c-1.385-0.846-3.202-2.05-4.908-3.406c-0.417-0.349-0.851-0.683-1.252-1.038
			c-0.396-0.36-0.811-0.695-1.171-1.059c-0.363-0.359-0.738-0.689-1.05-1.04c-0.316-0.347-0.637-0.661-0.898-0.978
			c-0.532-0.627-0.968-1.162-1.237-1.563c-0.283-0.392-0.445-0.617-0.445-0.617s0.124,0.248,0.341,0.682
			c0.204,0.443,0.55,1.045,0.985,1.764c0.212,0.363,0.48,0.729,0.745,1.132c0.261,0.408,0.582,0.799,0.893,1.226
			c0.309,0.43,0.67,0.834,1.017,1.268c0.351,0.431,0.734,0.84,1.105,1.267c0.33,0.362,0.668,0.714,1.006,1.061
			c-0.193-0.078-0.398-0.161-0.588-0.238c-0.542-0.24-1.05-0.466-1.57-0.695c-0.057-0.058-0.142-0.141-0.267-0.258
			c-0.239-0.21-0.57-0.53-1.01-0.871c-0.423-0.358-0.945-0.752-1.489-1.195s-1.108-0.937-1.658-1.448
			c-0.545-0.516-1.079-1.047-1.552-1.573c-0.233-0.264-0.47-0.514-0.669-0.77c-0.197-0.255-0.415-0.481-0.585-0.709
			c-0.355-0.447-0.643-0.832-0.823-1.115c-0.189-0.28-0.298-0.44-0.298-0.44s0.052,0.188,0.142,0.516
			c0.086,0.333,0.252,0.79,0.464,1.342c0.212,0.551,0.517,1.17,0.869,1.82c0.354,0.648,0.748,1.338,1.205,1.981
			c0.014,0.021,0.029,0.039,0.043,0.061c-0.624-0.32-1.212-0.622-1.756-0.901c-0.572-0.303-1.098-0.582-1.573-0.834
			c-1.894-1.025-2.977-1.651-2.977-1.651s0.213,0.229,0.613,0.657c0.411,0.417,1.029,1.015,1.856,1.73
			c0.826,0.716,1.866,1.543,3.104,2.434c0.626,0.435,1.295,0.896,2.011,1.364c0.733,0.444,1.503,0.909,2.307,1.396
			c0.832,0.439,1.699,0.897,2.595,1.371c0.91,0.449,1.874,0.867,2.856,1.316c1.004,0.401,2.036,0.813,3.09,1.234
			c0.399,0.136,0.815,0.277,1.22,0.415c0.09,0.067,0.143,0.108,0.143,0.108l0.031-0.05c0.632,0.215,1.255,0.427,1.901,0.646
			c1.136,0.33,2.303,0.627,3.481,0.938c1.198,0.239,2.409,0.48,3.63,0.724c0.11,0.015,0.223,0.027,0.333,0.043
			c0.043,0.03,0.073,0.052,0.073,0.052l0.022-0.04c1.096,0.149,2.197,0.3,3.308,0.424c1.259,0.081,2.529,0.116,3.795,0.174
			c0.185,0.003,0.257,0.022,0.534,0.011l1.386-0.056l0.066-0.003c0.002,0.001,0.012,0.006,0.012,0.006l0.002-0.006l1.764-0.07
			c1.227-0.059,2.449-0.117,3.661-0.176c2.444-0.211,4.881-0.593,7.214-0.877c2.318-0.386,4.516-0.893,6.612-1.33
			c2.08-0.507,4.019-1.095,5.809-1.609c1.78-0.558,3.38-1.166,4.805-1.667c1.413-0.545,2.616-1.093,3.617-1.505
			c1.982-0.888,3.066-1.488,3.066-1.488S92.539,16.738,91.985,16.911 M50.81,37.109c0.438-0.275,0.819-0.514,1.133-0.711
			c0.62-0.398,0.974-0.627,0.974-0.627s-0.399,0.14-1.095,0.384c-0.345,0.125-0.763,0.276-1.243,0.45
			c-0.473,0.186-1.029,0.335-1.625,0.519c-0.602,0.168-1.232,0.402-1.929,0.551c-0.698,0.146-1.417,0.34-2.165,0.515
			c-0.757,0.128-1.539,0.259-2.333,0.394c-0.797,0.081-1.606,0.164-2.415,0.247l-1.21,0.088c-0.401,0.037-0.799,0.092-1.197,0.1
			c-0.794,0.062-1.576,0.134-2.338,0.155c-0.764,0.058-1.5,0.029-2.205,0.042c-0.702-0.021-1.372-0.039-1.989-0.075
			c-1.237-0.076-2.264-0.236-2.993-0.336c-0.721-0.129-1.138-0.22-1.138-0.22s0.352,0.241,1.027,0.565
			c0.339,0.149,0.748,0.363,1.237,0.541c0.487,0.189,1.047,0.372,1.665,0.561c1.234,0.373,2.72,0.689,4.336,0.839
			c0.808,0.107,1.647,0.12,2.501,0.118c0.856,0.016,1.714-0.131,2.573-0.229c0.852-0.155,1.695-0.356,2.519-0.552
			c0.809-0.251,1.605-0.498,2.375-0.737c0.751-0.292,1.476-0.564,2.152-0.853c0.678-0.275,1.283-0.627,1.857-0.901
			C49.851,37.644,50.38,37.404,50.81,37.109 M28.652,37.132c0.526,0.097,0.971,0.099,1.281,0.091
			c0.308-0.009,0.484-0.015,0.484-0.015s-0.166-0.062-0.455-0.168c-0.143-0.048-0.317-0.105-0.517-0.172
			c-0.199-0.062-0.411-0.174-0.65-0.258c-0.239-0.085-0.49-0.196-0.75-0.323c-0.261-0.124-0.541-0.239-0.81-0.401
			c-0.553-0.29-1.124-0.631-1.663-1.016c-0.273-0.188-0.538-0.387-0.797-0.589c-0.264-0.193-0.496-0.42-0.748-0.607
			c-0.466-0.419-0.909-0.809-1.271-1.169c-0.733-0.711-1.214-1.234-1.214-1.234s0.172,0.705,0.747,1.608
			c0.275,0.459,0.661,0.952,1.118,1.444c0.466,0.48,1.005,0.964,1.61,1.354c0.59,0.413,1.24,0.736,1.867,0.981
			c0.306,0.14,0.629,0.208,0.922,0.298C28.098,37.053,28.387,37.093,28.652,37.132 M158.911,89.953
			c-0.16,0.229-0.357,0.467-0.585,0.621c-0.108,0.086-0.238,0.123-0.358,0.172c-0.057,0.018-0.104,0.02-0.154,0.041l-0.295,0.016
			c-0.069-0.02-0.273-0.037-0.405-0.045c-0.132-0.059-0.272-0.09-0.409-0.141c-0.113-0.094-0.257-0.145-0.371-0.236
			c-0.102-0.105-0.232-0.182-0.324-0.287c-0.394-0.396-0.654-0.76-0.654-0.76s-0.103,0.443,0.134,1.082
			c0.112,0.32,0.339,0.672,0.694,0.979c0.193,0.123,0.41,0.262,0.643,0.35c0.259,0.045,0.453,0.098,0.781,0.117l0.306-0.037
			c0.144-0.035,0.294-0.068,0.421-0.121c0.245-0.104,0.458-0.264,0.621-0.441c0.173-0.17,0.282-0.373,0.363-0.559
			c0.09-0.184,0.132-0.367,0.16-0.533c0.11-0.668-0.061-1.086-0.061-1.086S159.222,89.486,158.911,89.953 M164.451,88.586
			c-0.072,0.133-0.207,0.236-0.298,0.369c-0.098,0.131-0.258,0.203-0.368,0.326c-0.129,0.092-0.263,0.117-0.374,0.211
			c-0.182,0.062-0.414,0.105-0.619,0.16c-0.057,0.004-0.316,0.037-0.449,0.014c-0.16-0.018-0.31-0.047-0.453-0.1
			c-0.285-0.109-0.529-0.324-0.731-0.543c-0.394-0.453-0.616-0.877-0.616-0.877s-0.132,0.467,0.115,1.164
			c0.123,0.34,0.367,0.758,0.814,1.029c0.219,0.131,0.474,0.246,0.739,0.277c0.291,0.037,0.474,0.057,0.845-0.014
			c0.211-0.066,0.41-0.111,0.629-0.197c0.244-0.145,0.498-0.303,0.674-0.479c0.154-0.189,0.312-0.369,0.4-0.564
			c0.086-0.195,0.178-0.375,0.206-0.555c0.169-0.707,0.015-1.162,0.015-1.162S164.795,88.082,164.451,88.586 M176.24,85.809
			l-0.019,0.033l-0.004,0.021l-0.02-0.012c-0.18,0.057-0.355,0.02-0.528,0.031c-0.17,0.002-0.338,0.004-0.499-0.033
			c-0.156-0.045-0.318-0.082-0.464-0.156c-0.144-0.076-0.288-0.152-0.411-0.244c-0.501-0.363-0.816-0.74-0.816-0.74
			s-0.021,0.498,0.389,1.139c0.201,0.312,0.538,0.656,1.02,0.859c0.24,0.094,0.502,0.158,0.775,0.174c0.27,0,0.539-0.027,0.795-0.09
			l0.098-0.021l0.074-0.025l0.01-0.006l0.019-0.008l0.19-0.088l0.303-0.143l0.15-0.068l0.17-0.137l0.314-0.285
			c0.215-0.18,0.287-0.426,0.404-0.621c0.094-0.209,0.119-0.428,0.158-0.613c0.023-0.387-0.037-0.689-0.106-0.891
			c-0.073-0.201-0.138-0.301-0.138-0.301s-0.024,0.119-0.072,0.311c-0.028,0.094-0.062,0.205-0.102,0.334
			c-0.05,0.115-0.105,0.248-0.166,0.391c-0.095,0.123-0.16,0.266-0.259,0.389c-0.126,0.098-0.208,0.258-0.342,0.322
			c-0.063,0.039-0.124,0.078-0.183,0.121c-0.027,0.021-0.057,0.045-0.084,0.072l-0.152,0.061l-0.311,0.127l-0.155,0.07
			L176.24,85.809z M174.132,84c0.082-0.104,0.146-0.219,0.215-0.322c0.147-0.201,0.217-0.426,0.273-0.629
			c0.078-0.193,0.061-0.395,0.08-0.555c0.007-0.164-0.029-0.307-0.039-0.418c-0.042-0.227-0.104-0.342-0.104-0.342
			s-0.125,0.527-0.531,1.039c-0.104,0.125-0.205,0.26-0.352,0.361c-0.066,0.055-0.133,0.111-0.201,0.168l-0.224,0.113
			c-0.08,0.035-0.123,0.086-0.224,0.127l-0.338,0.119c-0.114,0.035-0.221,0.098-0.336,0.143l-0.012-0.02l-0.072,0.016
			c-0.047,0.01-0.094,0.023-0.142,0.039c-0.378,0.096-0.771,0.115-1.162,0.055c-0.391-0.061-0.752-0.221-1.067-0.367
			c-0.616-0.328-1.017-0.65-1.017-0.65s0.037,0.123,0.146,0.318c0.104,0.195,0.275,0.469,0.545,0.754
			c0.261,0.297,0.637,0.586,1.115,0.805c0.303,0.143,0.658,0.229,1.024,0.254c-0.009,0.055-0.021,0.121-0.04,0.211
			c-0.025,0.096-0.057,0.213-0.093,0.346c-0.038,0.131-0.116,0.266-0.163,0.412c-0.079,0.129-0.165,0.27-0.257,0.416
			c-0.125,0.117-0.235,0.256-0.364,0.359c-0.152,0.08-0.252,0.178-0.419,0.268c-0.214,0.082-0.431,0.166-0.647,0.248
			c-0.092,0.021-0.366,0.062-0.535,0.107c-0.198,0.068-0.375,0.027-0.559,0.051c-0.189,0.033-0.344-0.031-0.514-0.043
			c-0.178,0-0.305-0.098-0.459-0.131c-0.284-0.115-0.516-0.271-0.682-0.391c-0.153-0.123-0.25-0.215-0.25-0.215s0,0.119,0.065,0.34
			c0.07,0.207,0.214,0.508,0.505,0.787c0.151,0.125,0.314,0.297,0.536,0.375c0.214,0.1,0.452,0.211,0.705,0.221
			c0.251,0.031,0.526,0.08,0.774,0.018c0.277-0.053,0.474-0.045,0.818-0.178c0.211-0.096,0.422-0.191,0.631-0.287
			c0.219-0.145,0.453-0.361,0.649-0.539c0.172-0.203,0.274-0.438,0.394-0.637c0.074-0.221,0.119-0.438,0.152-0.627
			c0.025-0.396-0.029-0.705-0.097-0.912c-0.03-0.086-0.056-0.143-0.078-0.193c0.187,0.01,0.373,0.008,0.56-0.021
			c0.07-0.012,0.142-0.025,0.211-0.043l0.106-0.027l0.053-0.012l0.026-0.008l0.083-0.031c0.108-0.051,0.224-0.092,0.327-0.15
			l0.318-0.164c0.109-0.061,0.237-0.176,0.346-0.27C173.923,84.189,174.028,84.094,174.132,84 M172.394,83.896v-0.002l0.004,0.002
			H172.394z M167.5,85.205c0.231-0.701,0.167-1.184,0.167-1.184s-0.24,0.418-0.66,0.912c-0.217,0.242-0.484,0.494-0.787,0.691
			c-0.149,0.102-0.311,0.186-0.478,0.25c-0.173,0.082-0.317,0.105-0.464,0.172c-0.111,0.023-0.221,0.055-0.327,0.09
			c-0.026,0.014-0.169,0.039-0.248,0.064c-0.188,0.041-0.374,0.076-0.556,0.082c-0.363,0.016-0.705-0.053-0.99-0.172
			c-0.281-0.127-0.506-0.291-0.652-0.424s-0.213-0.229-0.213-0.229s0.016,0.115,0.092,0.311c0.074,0.195,0.217,0.473,0.489,0.742
			c0.265,0.279,0.677,0.516,1.153,0.645c0.238,0.066,0.492,0.105,0.748,0.119c0.143,0,0.225,0.014,0.421-0.008
			c0.112-0.012,0.225-0.029,0.335-0.053c0.285-0.068,0.562-0.211,0.775-0.352c0.219-0.158,0.412-0.336,0.574-0.521
			C167.201,85.963,167.39,85.557,167.5,85.205 M151.996,88.67l-0.218,0.041l-0.299-0.014l-0.303,0.004
			c0.004-0.006-0.134-0.029-0.193-0.039c-0.148-0.045-0.295-0.086-0.43-0.16c-0.131-0.078-0.259-0.168-0.382-0.268
			c-0.233-0.217-0.435-0.475-0.6-0.715c-0.32-0.486-0.53-0.873-0.53-0.873s-0.115,0.434,0.03,1.084
			c0.073,0.322,0.213,0.703,0.495,1.057c0.144,0.176,0.316,0.346,0.529,0.477c0.213,0.127,0.447,0.238,0.697,0.283
			c0.143,0.016,0.208,0.037,0.414,0.043l0.303-0.018l0.297-0.031c0.119-0.033,0.234-0.066,0.349-0.1
			c0.235-0.057,0.42-0.172,0.585-0.283c0.178-0.09,0.302-0.242,0.423-0.357c0.128-0.111,0.194-0.262,0.274-0.367
			c0.074-0.111,0.111-0.229,0.151-0.312c0.064-0.182,0.077-0.287,0.077-0.287s-0.312,0.314-0.816,0.568
			C152.604,88.52,152.287,88.652,151.996,88.67 M145.438,86.516c-0.168,0.021-0.317-0.006-0.475,0.002
			c-0.154-0.002-0.389-0.055-0.58-0.082c-0.123-0.01-0.304-0.082-0.424-0.133c-0.14-0.051-0.232-0.141-0.334-0.221
			c-0.102-0.082-0.163-0.197-0.24-0.311c-0.066-0.121-0.111-0.252-0.156-0.383c-0.152-0.533-0.188-0.992-0.188-0.992
			s-0.335,0.328-0.429,1.031c-0.043,0.342-0.005,0.82,0.312,1.24c0.146,0.213,0.366,0.385,0.594,0.5
			c0.235,0.129,0.453,0.201,0.735,0.229c0.216,0.01,0.384,0.068,0.632,0.041c0.243-0.031,0.496-0.043,0.704-0.105
			c0.415-0.129,0.765-0.312,1.032-0.51c0.537-0.398,0.732-0.801,0.732-0.801s-0.402,0.176-0.967,0.332
			C146.103,86.428,145.778,86.492,145.438,86.516 M156.07,87.629c0.153-0.076,0.286-0.174,0.409-0.25
			c0.254-0.148,0.4-0.354,0.52-0.469c0.111-0.125,0.168-0.201,0.168-0.201s-0.095,0.016-0.262,0.043
			c-0.165,0.021-0.374,0.109-0.637,0.131c-0.125,0.021-0.258,0.043-0.401,0.066c-0.14,0.008-0.283,0.008-0.427,0.021
			c-0.139-0.014-0.281-0.016-0.418-0.043c-0.129-0.045-0.271-0.045-0.391-0.119c-0.505-0.193-0.943-0.656-1.298-1.035
			c-0.362-0.412-0.604-0.689-0.604-0.689s-0.086,0.402,0.072,0.973c0.086,0.281,0.213,0.615,0.463,0.918
			c0.112,0.16,0.27,0.303,0.437,0.434c0.175,0.125,0.358,0.25,0.578,0.312c0.204,0.092,0.43,0.111,0.646,0.141
			c0.215,0.004,0.424-0.027,0.619-0.049C155.731,87.754,155.907,87.688,156.07,87.629 M161.442,85.816
			c0.181-0.619,0.1-1.045,0.1-1.045s-0.25,0.348-0.605,0.781c-0.184,0.213-0.398,0.443-0.639,0.615
			c-0.115,0.096-0.248,0.152-0.371,0.205c-0.066,0.037-0.106,0.029-0.156,0.053c-0.047,0.02-0.181,0.021-0.267,0.033
			c-0.071-0.014-0.272-0.018-0.403-0.029c-0.14-0.061-0.295-0.064-0.438-0.127c-0.134-0.078-0.29-0.109-0.419-0.191
			c-0.126-0.084-0.271-0.139-0.383-0.221c-0.474-0.303-0.819-0.557-0.819-0.557s0.051,0.434,0.412,0.965
			c0.177,0.27,0.441,0.553,0.801,0.789c0.18,0.111,0.399,0.203,0.617,0.283c0.249,0.039,0.443,0.078,0.762,0.08
			c0.106-0.021,0.172-0.02,0.312-0.059c0.135-0.041,0.291-0.084,0.391-0.146c0.228-0.107,0.411-0.273,0.56-0.434
			C161.195,86.482,161.353,86.123,161.442,85.816 M161.004,83.445l-0.127,0.008c-0.166-0.01-0.341,0.08-0.496,0.033
			c-0.151-0.049-0.325-0.01-0.469-0.084c-0.142-0.066-0.306-0.082-0.435-0.174c-0.131-0.082-0.276-0.141-0.389-0.232
			c-0.475-0.336-0.797-0.662-0.797-0.662s0.001,0.111,0.047,0.303c0.051,0.191,0.137,0.463,0.333,0.752
			c0.079,0.158,0.226,0.285,0.369,0.436c0.13,0.166,0.347,0.254,0.545,0.377c0.196,0.141,0.455,0.148,0.697,0.209
			c0.248,0.068,0.493-0.004,0.741-0.025l0.185-0.025c0.047-0.012,0.024,0.006,0.128-0.029l0.073-0.027l0.291-0.107l0.282-0.125
			l0.305-0.191c0.207-0.119,0.367-0.27,0.499-0.426c0.149-0.137,0.246-0.309,0.331-0.463c0.1-0.143,0.135-0.307,0.182-0.436
			c0.051-0.127,0.047-0.26,0.065-0.352c0.012-0.199-0.011-0.307-0.011-0.307s-0.053,0.1-0.159,0.248
			c-0.111,0.145-0.267,0.344-0.491,0.525c-0.105,0.098-0.229,0.186-0.368,0.266c-0.128,0.098-0.276,0.162-0.425,0.217l-0.214,0.104
			l-0.296,0.078l-0.297,0.092l-0.073,0.025C161.085,83.438,161.009,83.449,161.004,83.445 M168.241,81.318
			c-0.094,0.105-0.237,0.16-0.34,0.26c-0.111,0.1-0.239,0.096-0.338,0.182c-0.09,0.074-0.338,0.102-0.502,0.156l-0.127,0.043
			c-0.021,0.002-0.058,0.004-0.063,0.004l-0.228,0.021c-0.154,0.029-0.295,0.016-0.439,0.006c-0.148,0.004-0.277-0.041-0.415-0.064
			c-0.142-0.018-0.253-0.09-0.381-0.123c-0.476-0.201-0.804-0.469-0.804-0.469s0.004,0.1,0.061,0.279
			c0.059,0.17,0.17,0.414,0.389,0.658c0.118,0.105,0.231,0.262,0.405,0.346c0.167,0.092,0.343,0.223,0.554,0.256
			c0.207,0.051,0.426,0.129,0.646,0.104l0.335-0.012c0.082-0.01,0.057,0.018,0.227-0.027l0.137-0.035
			c0.191-0.076,0.338-0.082,0.562-0.215c0.209-0.125,0.437-0.264,0.573-0.422c0.138-0.162,0.283-0.311,0.359-0.484
			c0.084-0.17,0.172-0.322,0.205-0.48c0.178-0.617,0.049-1.029,0.049-1.029s-0.225,0.357-0.572,0.754
			C168.455,81.131,168.331,81.211,168.241,81.318 M168.979,78.271c0,0,0.125,0.416,0.604,0.83c0.236,0.209,0.565,0.406,0.972,0.52
			c0.201,0.059,0.426,0.07,0.649,0.082c0.224-0.012,0.453-0.051,0.676-0.105c0.272-0.086,0.373-0.154,0.565-0.23
			c0.167-0.086,0.361-0.229,0.527-0.336c0.168-0.115,0.287-0.262,0.418-0.381c0.127-0.121,0.215-0.27,0.31-0.389
			c0.353-0.508,0.403-0.928,0.403-0.928s-0.34,0.234-0.807,0.508c-0.238,0.133-0.512,0.283-0.795,0.41
			c-0.146,0.055-0.256,0.121-0.432,0.176c-0.155,0.051-0.395,0.154-0.484,0.164c-0.148,0.008-0.285,0.068-0.431,0.084
			c-0.144-0.014-0.289,0.014-0.435,0.01c-0.142-0.027-0.289-0.023-0.429-0.049c-0.137-0.037-0.278-0.051-0.405-0.086
			C169.376,78.416,168.979,78.271,168.979,78.271 M160.944,80.051c-0.273-0.029-0.514-0.062-0.688-0.096
			c-0.168-0.031-0.276-0.059-0.276-0.059s0.049,0.09,0.174,0.236c0.123,0.137,0.324,0.316,0.607,0.48
			c0.284,0.158,0.651,0.285,1.066,0.344c0.206,0.006,0.424,0.025,0.645,0.016c0.213-0.041,0.433-0.082,0.65-0.123
			c0.264-0.072,0.387-0.148,0.583-0.223c0.173-0.053,0.374-0.201,0.547-0.301c0.351-0.223,0.617-0.48,0.815-0.734
			c0.41-0.502,0.475-0.945,0.475-0.945s-0.361,0.229-0.863,0.477c-0.252,0.121-0.552,0.26-0.852,0.375
			c-0.16,0.055-0.28,0.117-0.479,0.18c-0.166,0.053-0.403,0.143-0.519,0.17c-0.164,0.041-0.329,0.084-0.491,0.125
			c-0.166,0.025-0.328,0.049-0.486,0.072c-0.164,0.008-0.321,0.016-0.471,0.023C161.226,80.061,161.08,80.055,160.944,80.051
			 M153.224,83.324l-0.117-0.02c-0.153-0.037-0.325-0.008-0.459-0.086c-0.137-0.064-0.297-0.07-0.416-0.17
			c-0.127-0.078-0.271-0.129-0.379-0.234c-0.119-0.088-0.244-0.168-0.34-0.27c-0.416-0.371-0.721-0.711-0.721-0.711
			s-0.025,0.109-0.016,0.305c-0.004,0.102,0.023,0.211,0.045,0.348c0.014,0.141,0.083,0.275,0.139,0.439
			c0.051,0.166,0.171,0.311,0.279,0.484c0.101,0.178,0.289,0.303,0.457,0.459c0.162,0.168,0.412,0.221,0.631,0.33
			c0.223,0.125,0.48,0.08,0.721,0.119l0.182,0.012c0.047,0,0.025,0.008,0.127,0l0.076-0.01c0.1-0.012,0.197-0.035,0.295-0.053
			c0.186-0.027,0.399-0.076,0.617-0.166c0.43-0.145,0.748-0.369,0.994-0.602c0.247-0.227,0.393-0.469,0.477-0.637
			c0.08-0.174,0.102-0.279,0.102-0.279s-0.084,0.068-0.238,0.158s-0.367,0.215-0.636,0.305c-0.129,0.057-0.271,0.105-0.428,0.131
			c-0.15,0.053-0.308,0.082-0.464,0.09c-0.079,0.006-0.155,0.025-0.233,0.039l-0.294,0.012c-0.1,0.002-0.199,0.002-0.301,0.01
			l-0.075,0.006C153.302,83.33,153.228,83.328,153.224,83.324 M149.958,84.852c0.227-0.266,0.342-0.531,0.4-0.715
			c0.055-0.191,0.059-0.303,0.059-0.303s-0.359,0.281-0.865,0.498c-0.139,0.037-0.261,0.111-0.408,0.143
			c-0.147,0.016-0.297,0.094-0.436,0.088c-0.16-0.004-0.229,0.051-0.457,0.033l-0.301,0.148l-0.152,0.152h-0.02l-0.055-0.17
			l-0.471-0.164c-0.134-0.068-0.283-0.146-0.425-0.205c-0.114-0.094-0.261-0.17-0.379-0.26c-0.101-0.104-0.231-0.191-0.327-0.293
			c-0.193-0.199-0.357-0.396-0.468-0.541c-0.109-0.143-0.175-0.24-0.175-0.24s-0.027,0.102-0.037,0.301
			c-0.002,0.193,0.021,0.473,0.134,0.801c0.112,0.328,0.34,0.684,0.687,1c0.186,0.131,0.394,0.26,0.61,0.379
			c0.229,0.07,0.47,0.127,0.708,0.184l0.09,0.021c0.145,0.006,0.084,0,0.135,0l0.152-0.006l0.303-0.01
			c0.174,0.018,0.48-0.1,0.693-0.156c0.244-0.053,0.404-0.203,0.584-0.303C149.713,85.131,149.837,84.973,149.958,84.852
			 M139.748,82.699c-0.153,0.033-0.315,0.047-0.481,0.047c-0.158,0-0.28,0.004-0.51-0.037c-0.336-0.045-0.683-0.145-0.971-0.264
			c-0.288-0.133-0.539-0.297-0.745-0.484c-0.407-0.373-0.624-0.783-0.624-0.783s-0.041,0.107-0.051,0.307
			c-0.01,0.197,0.011,0.494,0.156,0.822c0.135,0.33,0.404,0.695,0.787,0.953c0.188,0.131,0.399,0.246,0.625,0.318
			c0.228,0.074,0.44,0.152,0.696,0.166c0.179,0.025,0.474,0.029,0.72,0.006c0.242-0.035,0.474-0.104,0.687-0.189
			c0.427-0.188,0.75-0.477,0.956-0.756c0.42-0.566,0.424-1.033,0.424-1.033s-0.326,0.316-0.818,0.604
			C140.349,82.514,140.06,82.641,139.748,82.699 M143.631,82.367c0.162,0.031,0.233,0.088,0.472,0.092l0.356,0.004
			c0.21,0.025,0.521-0.043,0.798-0.131c0.293-0.061,0.482-0.219,0.688-0.342c0.198-0.127,0.342-0.301,0.481-0.441
			c0.254-0.307,0.395-0.602,0.467-0.812c0.071-0.215,0.086-0.34,0.086-0.34s-0.1,0.084-0.26,0.219
			c-0.168,0.133-0.406,0.305-0.69,0.475c-0.158,0.059-0.296,0.17-0.47,0.219c-0.172,0.035-0.345,0.145-0.506,0.137
			c-0.162,0.012-0.301,0.074-0.566,0.039l-0.355-0.021c-0.001,0.008-0.158-0.033-0.23-0.045c-0.358-0.096-0.694-0.295-0.977-0.562
			c-0.289-0.262-0.523-0.58-0.716-0.865c-0.376-0.58-0.604-1.031-0.604-1.031s-0.086,0.506,0.105,1.25
			c0.096,0.369,0.268,0.799,0.573,1.211c0.161,0.201,0.349,0.398,0.573,0.568C143.087,82.152,143.353,82.283,143.631,82.367
			 M150.167,77.709c0,0-0.009,0.115,0.047,0.311c0.055,0.193,0.182,0.467,0.426,0.729c0.479,0.549,1.447,0.908,2.357,0.863
			c0.184-0.002,0.484-0.037,0.691-0.08c0.224-0.055,0.437-0.125,0.637-0.205c0.396-0.17,0.729-0.393,0.979-0.617
			c0.508-0.447,0.676-0.875,0.676-0.875s-0.409,0.18-0.976,0.367c-0.284,0.09-0.61,0.184-0.954,0.246
			c-0.172,0.035-0.349,0.062-0.529,0.072c-0.193,0.021-0.308,0.037-0.537,0.031c-0.746,0.006-1.448-0.105-1.963-0.32
			C150.506,78.021,150.167,77.709,150.167,77.709 M143.056,77.051c-0.188-0.201-0.355-0.391-0.467-0.537
			c-0.105-0.145-0.172-0.242-0.172-0.242s-0.033,0.104-0.046,0.305c-0.009,0.197,0.015,0.48,0.131,0.814
			c0.125,0.326,0.361,0.697,0.738,0.982c0.194,0.119,0.401,0.273,0.635,0.338c0.252,0.059,0.427,0.131,0.759,0.158
			c0.203-0.004,0.407-0.01,0.609-0.016c0.227-0.035,0.477-0.107,0.695-0.164c0.42-0.162,0.754-0.385,1.004-0.617
			c0.242-0.24,0.397-0.473,0.486-0.645c0.086-0.176,0.113-0.281,0.113-0.281s-0.098,0.055-0.258,0.139
			c-0.165,0.082-0.396,0.184-0.664,0.285c-0.273,0.09-0.588,0.172-0.909,0.215c-0.157,0.006-0.294,0.029-0.467,0.035
			c-0.2-0.008-0.405-0.016-0.608-0.023c-0.07-0.035-0.293-0.066-0.435-0.09c-0.156-0.035-0.281-0.119-0.435-0.156
			c-0.136-0.062-0.244-0.162-0.383-0.223C143.272,77.234,143.167,77.137,143.056,77.051 M147.69,75.881
			c0.171,0.121,0.357,0.236,0.565,0.326c0.22,0.078,0.416,0.135,0.687,0.166c0.156,0.029,0.447,0.01,0.675-0.031
			c0.224-0.037,0.433-0.113,0.616-0.207c0.375-0.176,0.66-0.426,0.863-0.66c0.414-0.469,0.508-0.891,0.508-0.891
			s-0.354,0.15-0.885,0.375c-0.254,0.098-0.539,0.195-0.826,0.268c-0.146,0.035-0.293,0.053-0.437,0.074
			c-0.138,0.016-0.228,0.006-0.448,0c-0.104-0.004-0.279-0.035-0.41-0.074c-0.143-0.033-0.283-0.082-0.418-0.143
			c-0.274-0.117-0.529-0.275-0.752-0.426c-0.441-0.307-0.762-0.574-0.762-0.574s0.002,0.426,0.311,0.973
			C147.129,75.328,147.362,75.627,147.69,75.881 M157.479,75.916c0.094,0.113,0.211,0.219,0.359,0.301
			c0.139,0.105,0.305,0.17,0.484,0.219c0.177,0.07,0.363,0.086,0.554,0.086c0.113,0,0.153,0.018,0.327,0.002
			c0.082-0.012,0.164-0.025,0.244-0.045c0.156-0.029,0.322-0.064,0.518-0.15c0.184-0.08,0.361-0.162,0.496-0.264
			c0.29-0.191,0.512-0.42,0.676-0.633c0.33-0.424,0.404-0.785,0.404-0.785s-0.312,0.182-0.734,0.402
			c-0.215,0.107-0.455,0.23-0.715,0.322c-0.129,0.066-0.255,0.088-0.375,0.121c-0.103,0.051-0.26,0.08-0.431,0.1
			c-0.082,0.01-0.163,0.025-0.243,0.045c0.012-0.002-0.113,0-0.163,0.002c-0.134,0-0.269,0.021-0.39-0.002
			c-0.253-0.014-0.486-0.07-0.689-0.152c-0.207-0.078-0.377-0.182-0.502-0.262c-0.121-0.078-0.195-0.139-0.195-0.139
			s-0.004,0.088,0.039,0.248C157.19,75.48,157.28,75.709,157.479,75.916 M166.751,77.066c0.184,0.086,0.393,0.137,0.607,0.17
			c0.107,0.02,0.218,0.021,0.326,0.031c0.172,0.002,0.207-0.014,0.318-0.02c0.195-0.025,0.482-0.082,0.667-0.168
			c0.204-0.086,0.39-0.199,0.554-0.322c0.321-0.258,0.543-0.559,0.682-0.834c0.281-0.551,0.262-0.965,0.262-0.965
			s-0.277,0.297-0.688,0.629c-0.207,0.162-0.448,0.332-0.715,0.451c-0.131,0.066-0.269,0.119-0.412,0.15
			c-0.158,0.041-0.239,0.059-0.414,0.074L167.7,76.27c-0.075-0.002-0.15,0.004-0.225-0.006c-0.148-0.014-0.295-0.037-0.441-0.064
			c-0.289-0.061-0.568-0.15-0.816-0.244c-0.49-0.191-0.863-0.371-0.863-0.371s0.088,0.418,0.516,0.871
			C166.08,76.68,166.376,76.912,166.751,77.066 M177.024,72.084c-0.195,0.236-0.43,0.486-0.689,0.686
			c-0.131,0.102-0.273,0.18-0.415,0.252c-0.14,0.066-0.229,0.088-0.479,0.148c-0.112,0.029-0.295,0.035-0.45,0.02
			c-0.165-0.016-0.337-0.037-0.505-0.09c-0.34-0.09-0.668-0.23-0.956-0.355c-0.593-0.285-0.987-0.473-0.987-0.473
			s0.158,0.445,0.635,0.955c0.234,0.256,0.549,0.523,0.963,0.738c0.207,0.104,0.442,0.188,0.696,0.246
			c0.267,0.041,0.521,0.059,0.833,0.004c0.176-0.018,0.501-0.131,0.737-0.264c0.235-0.125,0.438-0.295,0.595-0.479
			c0.329-0.357,0.503-0.762,0.598-1.104c0.189-0.691,0.068-1.16,0.068-1.16S177.406,71.605,177.024,72.084 M137.526,77.529
			c0.134-0.002,0.215,0.016,0.386-0.01c0.097-0.016,0.192-0.033,0.287-0.061c0.19-0.049,0.364-0.078,0.581-0.172
			c0.197-0.092,0.396-0.16,0.551-0.277c0.16-0.111,0.307-0.211,0.419-0.342c0.239-0.234,0.371-0.488,0.427-0.67
			c0.059-0.182,0.053-0.289,0.053-0.289s-0.069,0.082-0.213,0.18c-0.136,0.104-0.336,0.225-0.59,0.316
			c-0.115,0.064-0.27,0.082-0.41,0.127c-0.138,0.059-0.297,0.055-0.445,0.084c-0.133,0.043-0.34,0.047-0.531,0.062
			c-0.098,0.006-0.193,0.018-0.291,0.031l-0.204-0.021c-0.146-0.033-0.321,0.018-0.44-0.053c-0.121-0.059-0.277-0.051-0.383-0.141
			c-0.113-0.072-0.244-0.119-0.342-0.223c-0.105-0.088-0.215-0.172-0.299-0.277c-0.359-0.393-0.602-0.773-0.602-0.773
			s-0.039,0.1-0.059,0.291c-0.018,0.191-0.021,0.467,0.079,0.791c0.026,0.174,0.134,0.33,0.231,0.51
			c0.08,0.195,0.273,0.326,0.44,0.49c0.159,0.188,0.417,0.227,0.64,0.332C137.045,77.561,137.287,77.508,137.526,77.529
			 M139.571,73.918c0.091,0.154,0.232,0.293,0.375,0.438c0.166,0.115,0.354,0.234,0.554,0.316c0.206,0.045,0.419,0.105,0.636,0.123
			c0.254-0.008,0.362-0.021,0.547-0.033c0.179-0.027,0.391-0.094,0.568-0.141c0.182-0.051,0.326-0.148,0.475-0.217
			c0.146-0.074,0.263-0.18,0.375-0.26c0.439-0.365,0.566-0.73,0.566-0.73s-0.361,0.137-0.835,0.236
			c-0.237,0.045-0.512,0.129-0.782,0.15c-0.137,0.004-0.246,0.096-0.402,0.096h-0.467c-0.119,0-0.24-0.117-0.363-0.131
			c-0.105-0.049-0.213-0.16-0.328-0.191c-0.09-0.072-0.2-0.119-0.301-0.184c-0.082-0.084-0.187-0.148-0.269-0.23
			c-0.33-0.322-0.565-0.639-0.565-0.639s-0.149,0.375,0.019,0.949C139.405,73.617,139.49,73.76,139.571,73.918 M262.343,71.824
			c-6.156-5.619-12.303-3.068-14.316-0.951c-0.151,0.16-0.287,0.344-0.416,0.537c-0.245-0.066-0.516-0.133-0.842-0.213
			c-0.49-0.102-1.058-0.227-1.67-0.312c-0.615-0.084-1.262-0.188-1.918-0.219c-0.652-0.057-1.302-0.096-1.914-0.084
			c-0.61-0.002-1.174-0.02-1.66,0.031c-0.963,0.07-1.605,0.115-1.605,0.115s0.637,0.08,1.592,0.197
			c0.475,0.041,1.023,0.17,1.606,0.285c0.586,0.104,1.198,0.262,1.806,0.439c0.611,0.15,1.203,0.371,1.758,0.559
			c0.551,0.193,1.051,0.412,1.479,0.59c0.219,0.104,0.416,0.193,0.588,0.275c-0.453,1.371-0.631,2.881-0.7,3.828
			c-0.274-0.061-0.548-0.121-0.808-0.168c-2.617-0.508-4.404-0.338-4.404-0.338s0.406,0.164,1.118,0.453
			c0.705,0.285,1.698,0.713,2.866,1.232c0.584,0.262,1.205,0.559,1.861,0.875c0.664,0.289,1.319,0.688,2.024,1.029
			c0.7,0.35,1.388,0.781,2.099,1.182c0.676,0.457,1.414,0.846,2.075,1.338c0.671,0.48,1.363,0.928,1.979,1.453
			c0.32,0.25,0.637,0.498,0.949,0.742c0.293,0.266,0.584,0.529,0.869,0.787c0.291,0.258,0.576,0.51,0.855,0.758
			c0.26,0.268,0.514,0.529,0.762,0.783c0.499,0.512,0.982,0.992,1.368,1.488c0.394,0.49,0.789,0.926,1.127,1.324
			c0.29,0.426,0.565,0.793,0.795,1.098c0.456,0.609,0.751,0.957,0.751,0.957s-0.081-0.432-0.283-1.182
			c-0.101-0.375-0.225-0.834-0.394-1.355c-0.194-0.508-0.462-1.059-0.759-1.666c-0.051-0.1-0.098-0.205-0.148-0.311
			c0.977-0.334,2.479-0.918,3.566-1.66c1.1-0.752,1.936-2.635,2.078-4.686C266.613,79.129,266.254,75.396,262.343,71.824
			 M264.483,80.898c-0.118,1.68-0.793,2.887-1.213,3.174c-1.067,0.729-2.737,1.312-3.521,1.562c-0.182-0.266-0.361-0.533-0.55-0.811
			c-0.269-0.307-0.542-0.621-0.821-0.939c-0.287-0.314-0.578-0.633-0.875-0.955c-0.326-0.289-0.656-0.584-0.99-0.879
			c-0.652-0.611-1.4-1.121-2.143-1.635c-0.73-0.533-1.544-0.926-2.307-1.373c-0.799-0.375-1.586-0.748-2.365-1.053
			c-0.543-0.209-1.073-0.387-1.596-0.551c0.08-1.67,0.488-4.258,1.373-5.188c1.018-1.07,5.953-4.031,11.519,1.049
			C264.283,76.305,264.593,79.35,264.483,80.898 M264.832,100.721c-0.076-0.539-0.254-1.057-0.42-1.58
			c-0.167-0.521-0.412-1.008-0.636-1.494c-0.264-0.463-0.514-0.926-0.811-1.332c-0.289-0.412-0.591-0.795-0.908-1.129
			c-0.291-0.354-0.615-0.648-0.912-0.914c-0.594-0.533-1.154-0.902-1.563-1.133c-0.405-0.236-0.664-0.326-0.664-0.326
			s0.463,0.918,1.157,2.297c0.324,0.676,0.721,1.43,1.084,2.252c0.202,0.4,0.355,0.836,0.561,1.252
			c0.146,0.439,0.362,0.861,0.5,1.305c0.144,0.443,0.319,0.875,0.424,1.318c0.057,0.221,0.129,0.438,0.193,0.652
			c0.047,0.221,0.094,0.436,0.137,0.648c0.045,0.213,0.097,0.424,0.15,0.631c0.03,0.211,0.059,0.416,0.088,0.615
			c0.055,0.404,0.137,0.793,0.143,1.154c0.013,0.359,0.072,0.705,0.088,1.01c-0.01,0.301,0.008,0.574,0.013,0.799
			c0.017,0.455,0.046,0.732,0.046,0.732s0.156-0.211,0.393-0.615c0.115-0.203,0.266-0.451,0.408-0.75
			c0.127-0.299,0.246-0.65,0.36-1.041c0.136-0.391,0.226-0.824,0.265-1.293c0.027-0.234,0.057-0.477,0.086-0.723
			c0.01-0.246,0-0.5-0.009-0.758C265.011,101.779,264.938,101.252,264.832,100.721 M57.013,43.901
			c-2.698,0.191-5.346,2.378-5.346,4.413c0,1.08,0.353,1.831,0.776,2.557c-0.114,0.049-0.229,0.099-0.35,0.148
			c-0.301,0.16-0.625,0.301-0.926,0.493c-0.299,0.195-0.605,0.358-0.857,0.577c-0.253,0.213-0.504,0.373-0.678,0.57
			c-0.354,0.368-0.59,0.611-0.59,0.611s0.304-0.14,0.76-0.349c0.215-0.113,0.51-0.171,0.794-0.268
			c0.282-0.104,0.612-0.141,0.921-0.206c0.31-0.063,0.636-0.071,0.924-0.107c0.297-0.003,0.568-0.021,0.8-0.008
			c0.048,0.001,0.084,0.004,0.127,0.006c0.896,1.047,2.544,1.594,3.868,1.594c0.563,0,1.082-0.092,1.544-0.271
			c1.775-0.691,3.538-2.62,3.213-5.222C61.698,46.077,60.041,43.68,57.013,43.901 M58.054,51.798
			c-0.226,0.088-0.509,0.135-0.818,0.135c-1.097,0-2.172-0.544-2.451-1.031c-0.132-0.231-0.26-0.444-0.382-0.645
			c-0.459-0.756-0.736-1.212-0.736-1.943c0-0.647,1.473-2.275,3.488-2.42c0.075-0.005,0.149-0.008,0.221-0.008
			c1.684,0,2.471,1.51,2.632,2.802C60.201,50.227,59.13,51.379,58.054,51.798 M67.695,50.649c-1.003,0.055-2.76,0.561-3.262,3.319
			c-0.182,1,0.102,2.011,0.799,2.846c0.679,0.814,1.65,1.32,2.534,1.32c0.268,0,0.524-0.047,0.759-0.137
			c2.266-0.871,3.406-2.277,3.127-3.858C71.343,52.393,69.841,50.506,67.695,50.649 M67.81,56.129c0,0.002-0.014,0.006-0.044,0.006
			c-0.241,0-0.673-0.211-0.999-0.602c-0.18-0.215-0.466-0.658-0.366-1.207c0.294-1.619,1.072-1.662,1.482-1.683
			c0.923,0,1.639,0.938,1.799,1.845C69.795,55.125,68.743,55.771,67.81,56.129"/>
	</g>
</g>
</svg>
