<?xml version="1.0" encoding="utf-8"?>
<!-- Generator: Adobe Illustrator 15.0.0, SVG Export Plug-In . SVG Version: 6.00 Build 0)  -->
<!DOCTYPE svg PUBLIC "-//W3C//DTD SVG 1.1//EN" "http://www.w3.org/Graphics/SVG/1.1/DTD/svg11.dtd">
<svg version="1.1" id="Layer_1" xmlns="http://www.w3.org/2000/svg" xmlns:xlink="http://www.w3.org/1999/xlink" x="0px" y="0px"
	 width="305.834px" height="176.833px" viewBox="0 0 305.834 176.833" enable-background="new 0 0 305.834 176.833"
	 xml:space="preserve">
<g>
	<defs>
		<rect id="nav-mouth-10-id-1" x="-0.083" y="-1" width="306" height="177"/>
	</defs>
	<clipPath id="nav-mouth-10-id-2">
		<use xlink:href="#nav-mouth-10-id-1"  overflow="visible"/>
	</clipPath>
	<path clip-path="url(#nav-mouth-10-id-2)" fill="#D72251" d="M114.414,66.748l42.503,4.13c0,0,8.689,10.278,12.096,18.888
		c3.404,8.609,12.779,22.141,32.779,24.375s29.875-5.766,29.875-5.766s-3.125-3.25-7.5-2.25s-9.75,2.82-13.5,2.473
		c0,0,5.312-1.723,8.344-5.348s5.656-5.313,7.906-5.156c2.25,0.156,6.25-1.469,6-3.594c0,0,1.355,0.47,0.262,3.818
		c-1.095,3.349,1.965,6.321,1.965,6.321s3.606-5.101,3.44-8.996c-0.166-3.894-6.269-9.102-12.634-9.394
		c0,0-1.532-11.362-11.366-20.89s-17.465-18.229-47.5-20.55C138.792,42.625,117.837,61.141,114.414,66.748"/>
	<path clip-path="url(#nav-mouth-10-id-2)" fill="#FCDCA4" d="M-0.083-1v24.365C-0.083,107.663,68.254,176,152.553,176h0.729
		c84.299,0,152.635-68.337,152.635-152.635V-1H-0.083z M118.972,60.152l-4.557,6.241l-27.623-3.817L118.972,60.152z M235.144,104.64
		c0,0-3.061-2.973-1.965-6.321c1.095-3.349-0.262-3.818-0.262-3.818c0.25,2.125-3.75,3.75-6,3.594s-4.875,1.531-7.906,5.156
		s-8.344,5.348-8.344,5.348c3.75,0.348,9.125-1.473,13.5-2.473s7.5,2.25,7.5,2.25s-9.875,8-29.875,5.766
		s-29.375-15.766-32.78-24.375s-12.095-18.888-12.095-18.888l-42.502-4.13c3.422-5.607,24.377-24.123,52.668-21.938
		c18.289,1.413,28.265,5.193,35.496,10.084l18.687-1.236c-0.608,3.298-4.464,12.283-4.976,13.463
		c8.308,9.11,9.66,19.129,9.66,19.129c6.365,0.292,12.467,5.5,12.633,9.395S235.144,104.64,235.144,104.64"/>
	<path clip-path="url(#nav-mouth-10-id-2)" fill="#0C3846" d="M305.917-0.999h-306v1h65.745L259.14,33.726
		c-0.143,0.195-0.285,0.392-0.422,0.579c-0.174,0.303-0.342,0.595-0.504,0.876c-1.291,2.244-1.963,3.82-1.963,3.82
		s1.297-1.178,2.963-3.061c0.409-0.478,0.879-0.971,1.396-1.477c0.133-0.132,0.271-0.285,0.406-0.42l3.82,0.646
		c-0.543,0.488-1.106,1.004-1.658,1.57c-0.601,0.591-1.219,1.206-1.806,1.871c-0.598,0.653-1.204,1.32-1.778,2.017
		c-0.58,0.688-1.125,1.411-1.68,2.105c-0.535,0.708-1.023,1.439-1.516,2.127c-0.482,0.699-0.889,1.418-1.305,2.073
		c-0.395,0.674-0.727,1.336-1.047,1.934c-0.312,0.605-0.543,1.193-0.768,1.695c-0.111,0.235-0.197,0.463-0.273,0.68
		c-14.041,0.864-30.762,1.902-50.094,3.111c-0.742-0.48-1.494-0.954-2.269-1.409c-7.025-4.175-15.372-7.257-24.029-8.476
		c-2.162-0.308-4.33-0.509-6.536-0.589c-1.113-0.078-2.156-0.05-3.217-0.052l-1.624,0.01l-1.599,0.097
		c-1.063,0.065-2.123,0.131-3.176,0.193c-1.054,0.071-2.105,0.1-3.141,0.265c-2.07,0.294-4.131,0.48-6.13,0.854
		c-0.997,0.201-1.987,0.402-2.967,0.6c-0.976,0.215-1.959,0.352-2.897,0.65c-0.944,0.268-1.877,0.532-2.799,0.794
		c-0.923,0.259-1.836,0.507-2.708,0.852c-1.749,0.666-3.495,1.186-5.083,1.96c-0.804,0.358-1.595,0.71-2.371,1.058
		c-0.781,0.333-1.496,0.773-2.224,1.144c-0.72,0.388-1.425,0.768-2.113,1.138c-0.664,0.417-1.313,0.821-1.945,1.217
		c-1.283,0.763-2.396,1.646-3.477,2.42c-1.074,0.785-1.997,1.631-2.893,2.354c-0.06,0.058-0.115,0.107-0.174,0.163
		C58.558,62.965,6.016,66.223,6.016,66.223l0.62,2.068c0,0,31.39-2.008,73.972-4.709c1.952,0.23,35.305,4.146,76.079,8.277
		c0.747,0.839,1.444,1.773,2.188,2.712c0.813,1.188,1.647,2.32,2.445,3.666c0.839,1.312,1.588,2.657,2.382,4.041
		c0.769,1.409,1.55,2.854,2.316,4.348c1.551,2.974,3.14,6.093,5.008,9.174c1.864,3.076,4.092,6.085,6.797,8.641
		c2.697,2.564,5.826,4.623,9.048,6.259l1.206,0.617c0.479,0.254,0.831,0.363,1.252,0.552c0.822,0.326,1.575,0.708,2.444,0.983
		c0.855,0.283,1.705,0.564,2.549,0.846c0.85,0.215,1.691,0.431,2.529,0.642c3.365,0.759,6.685,1.118,9.836,1.205
		c3.152,0.048,6.127-0.209,8.849-0.602c2.709-0.476,5.175-1.028,7.304-1.738c2.143-0.665,3.945-1.453,5.407-2.151
		c1.437-0.755,2.566-1.359,3.285-1.869c0.095-0.062,0.166-0.109,0.248-0.163c0.13,0.123,0.263,0.243,0.382,0.378l0.448,0.556
		l0.494,0.832l0.499,0.84l0.293,0.766c0.443,0.988,0.6,2.205,0.568,3.334c-0.031,1.168-0.388,2.282-0.914,3.505
		c-0.576,1.338-1.062,2.826-1.186,4.445c-0.008,0.083-0.009,0.171-0.014,0.256c-97.38-7.438-212.261-26.518-213.407-26.708
		l1.276,2.217c0.998,0.167,86.898,14.449,173.377,23.063c-40.625,13.533-125.078,27.578-125.947,27.724l2.543,1.669
		c0.476-0.079,25.431-4.247,54.589-10.23c2.824,0.679,69.571,16.704,92.62,20.253l3.156-1.509
		c-20.021-3.082-75.344-15.984-91.14-19.703c24.755-5.168,51.71-11.524,68.945-17.734c11.465,1.113,22.911,2.121,34.145,2.977
		c0.211,0.944,0.615,1.876,1.287,2.654c0.605,0.67,1.338,1.245,2.101,1.57l0.235,0.115c0.092,0.041,0.225,0.084,0.336,0.123
		l0.701,0.223c0.44,0.064,0.879,0.176,1.321,0.152c1.792,0.048,3.433-0.702,4.683-1.72c0.789-0.645,1.426-1.403,1.955-2.215
		c6.881,0.458,12.951,0.813,19.379,1.122l1.705-1.922c-6.158-0.296-13.342-0.699-20.082-1.14c0.502-1.271,0.785-2.594,0.861-3.843
		c0.229-3.045-0.926-5.826-2.47-7.881c-0.763-1.042-1.599-1.943-2.405-2.77c-0.796-0.826-1.607-1.617-2.467-2.316
		c-1.342-1.114-2.559-2.078-3.541-3.065c0.056-0.065,0.111-0.132,0.179-0.212c0.179-0.215,0.402-0.479,0.664-0.79
		c0.261-0.31,0.54-0.765,0.862-1.224c0.343-0.46,0.638-1.011,0.938-1.623c0.344-0.587,0.555-1.319,0.825-2.075
		c0.423-1.551,0.581-3.526-0.116-5.496c-0.675-1.965-2.117-3.75-3.925-5.05c-1.821-1.305-3.918-2.291-6.231-2.899
		c-0.783-0.201-1.584-0.326-2.387-0.399c-0.009-0.15-0.022-0.308-0.051-0.48c-0.092-1.087-0.439-2.604-1.091-4.438
		c-0.245-0.686-0.554-1.423-0.894-2.186c8.758,0.713,16.92,1.331,24.478,1.852c-0.06,0.157-0.116,0.313-0.175,0.461
		c-0.538,1.445-0.768,2.522-0.768,2.522s0.789-0.704,1.781-1.929c0.23-0.292,0.494-0.603,0.742-0.946
		c17.809,1.206,32.227,1.867,43.27,1.967l0.825-2.021c-10.81-0.098-25.237-0.728-42.808-1.886c0.357-0.626,0.713-1.272,1.035-1.943
		c0.451-0.933,0.904-1.864,1.217-2.788c0.316-0.921,0.58-1.793,0.763-2.556c0.388-1.515,0.425-2.604,0.425-2.604
		s-0.188,0.2-0.471,0.569c-0.283,0.368-0.676,0.901-1.102,1.551c-0.438,0.646-0.896,1.419-1.354,2.257
		c-0.441,0.847-0.943,1.733-1.369,2.655c-0.445,0.903-0.818,1.844-1.173,2.725c-8.133-0.547-16.924-1.206-26.327-1.976
		c-1.478-2.834-3.539-6.012-6.268-9.254c-0.016-0.02-0.034-0.039-0.051-0.058c0.945-2.12,3.263-7.518,4.479-12.082
		c12.15-0.757,23-1.43,32.561-2.02c-0.306,0.337-0.608,0.679-0.916,1.017c-0.506,0.606-1.004,1.22-1.475,1.841
		c-0.451,0.637-0.895,1.263-1.292,1.891c-0.797,1.257-1.429,2.502-1.896,3.597c-0.223,0.556-0.4,1.073-0.56,1.528
		c-0.173,0.448-0.231,0.879-0.321,1.211c-0.154,0.678-0.217,1.064-0.217,1.064s0.232-0.329,0.596-0.906
		c0.189-0.285,0.381-0.645,0.656-1.029c0.271-0.386,0.577-0.816,0.885-1.295c0.33-0.468,0.726-0.952,1.094-1.488
		c0.375-0.532,0.845-1.046,1.256-1.622c0.43-0.566,0.93-1.111,1.389-1.698c0.484-0.569,0.977-1.147,1.469-1.727
		c0.761-0.87,1.521-1.727,2.268-2.562c24.271-1.493,39.693-2.412,46.119-2.747l0.337-2.016c-6.265,0.327-21.229,1.215-44.563,2.646
		c0.51-0.569,0.998-1.115,1.438-1.611c0.779-0.856,1.412-1.601,1.859-2.118c0.445-0.527,0.699-0.829,0.699-0.829
		s-0.365,0.161-0.965,0.503c-0.604,0.338-1.445,0.853-2.404,1.54c-0.959,0.684-2.043,1.534-3.137,2.524
		c-0.057,0.049-0.113,0.104-0.169,0.156c-0.948,0.059-1.924,0.118-2.899,0.178c0.373-0.483,0.804-1.029,1.27-1.65
		c0.418-0.519,0.878-1.07,1.335-1.671c0.481-0.588,1.009-1.19,1.517-1.84c0.531-0.633,1.082-1.286,1.641-1.95
		c0.562-0.662,1.111-1.351,1.701-2.009c1.141-1.352,2.283-2.703,3.352-3.97c0.535-0.636,1.055-1.249,1.529-1.85
		c0.212-0.256,0.414-0.504,0.613-0.749l38.065,6.439l0.215-1.974l-36.874-6.24c1.276-1.636,2.045-2.746,2.045-2.746
		s-1.48,0.883-3.463,2.506l-4.115-0.696c0.377-0.406,0.762-0.814,1.176-1.211c0.58-0.582,1.188-1.154,1.76-1.761
		c0.562-0.618,1.166-1.192,1.773-1.747c0.584-0.578,1.162-1.147,1.719-1.698c0.572-0.539,1.123-1.062,1.647-1.556
		c0.528-0.49,0.999-0.993,1.472-1.41c0.925-0.864,1.68-1.61,2.225-2.118c0.539-0.523,0.848-0.823,0.848-0.823
		s-0.404,0.149-1.078,0.482c-0.685,0.32-1.627,0.835-2.722,1.511c-0.556,0.329-1.135,0.714-1.731,1.147
		c-0.59,0.436-1.25,0.857-1.873,1.365c-0.616,0.517-1.254,1.051-1.899,1.594c-0.64,0.552-1.278,1.125-1.875,1.743
		c-0.61,0.603-1.188,1.24-1.774,1.849c-0.607,0.589-1.1,1.267-1.595,1.903c-0.097,0.122-0.175,0.236-0.269,0.357L74.653,0.001
		h231.264V-0.999z M113.917,65.332c-8.883-0.975-16.418-1.822-22.047-2.463c8.201-0.52,16.724-1.059,25.445-1.609
		c-1.278,1.325-2.217,2.444-2.814,3.264C114.251,64.84,114.068,65.111,113.917,65.332 M223.72,81.119
		c0.638,1.668,1.01,3.018,1.109,3.925c0.012,0.059,0.012,0.1,0.02,0.155c-0.979,0.022-1.954,0.115-2.912,0.265
		c-2.439,0.372-4.817,1.06-7.119,1.868c-2.297,0.819-4.51,1.807-6.657,2.687c-1.021,0.397-2.245,0.905-3.276,1.422
		c-1.037,0.523-2.061,1.04-3.068,1.548c-3.96,2.042-7.704,3.779-11.053,4.457c-1.666,0.354-3.201,0.404-4.516,0.26
		c-1.318-0.124-2.439-0.443-3.338-0.835c-0.91-0.372-1.6-0.8-2.08-1.092c-0.464-0.314-0.742-0.474-0.742-0.474
		s0.129,0.277,0.428,0.784c0.309,0.497,0.839,1.193,1.72,1.904c0.879,0.701,2.155,1.362,3.724,1.655
		c1.568,0.307,3.361,0.209,5.209-0.138c3.719-0.695,7.657-2.475,11.68-4.461c1.002-0.485,2.021-0.978,3.051-1.477
		c1.042-0.496,1.982-0.867,3.158-1.308c2.218-0.872,4.395-1.785,6.607-2.554c2.202-0.781,4.436-1.43,6.648-1.774
		c2.215-0.355,4.402-0.361,6.35,0.125c2.018,0.517,3.908,1.408,5.424,2.49c1.543,1.07,2.657,2.438,3.176,3.859
		c0.539,1.42,0.467,2.868,0.164,4.117c-0.215,0.615-0.354,1.21-0.646,1.722c-0.247,0.524-0.472,1.008-0.746,1.397
		c-0.265,0.405-0.446,0.766-0.696,1.088c-0.223,0.285-0.41,0.527-0.572,0.734c-0.649-0.927-1.066-1.857-1.25-2.718
		c-0.256-1.137-0.2-2.104-0.121-2.749c0.097-0.654,0.148-1.003,0.148-1.003s-0.14,0.327-0.4,0.942
		c-0.229,0.628-0.508,1.609-0.45,2.92c0.049,1.308,0.582,2.902,1.63,4.394c1.032,1.499,2.525,2.888,4.068,4.281
		c0.746,0.673,1.475,1.456,2.24,2.288c0.758,0.824,1.5,1.68,2.137,2.611c0.64,0.931,1.173,1.938,1.503,3.018
		c0.335,1.058,0.452,2.274,0.354,3.355c-0.018,0.286-0.086,0.644-0.127,0.964c-0.026,0.229-0.129,0.563-0.188,0.842
		c-0.154,0.578-0.35,1.146-0.604,1.686c-0.504,1.076-1.218,2.07-2.133,2.768c-0.899,0.705-1.978,1.138-3.013,1.081
		c-0.26,0.021-0.508-0.072-0.762-0.097c-0.1-0.04-0.199-0.073-0.302-0.103c-0.055-0.018-0.095-0.018-0.164-0.048l-0.235-0.121
		c-0.535-0.23-0.904-0.584-1.254-0.936c-0.629-0.741-0.896-1.785-0.791-2.974c0.088-1.184,0.459-2.398,0.979-3.598
		c0.562-1.312,1.086-2.865,1.107-4.428c0.014-1.569-0.211-3.08-0.863-4.499c-0.152-0.354-0.305-0.716-0.465-1.054l-0.514-0.829
		l-0.512-0.822l-0.084-0.13l-0.045-0.054l-0.089-0.109l-0.179-0.215l-0.357-0.426c-1.007-1.095-2.277-1.879-3.564-2.345
		c-2.604-0.943-5.152-0.793-7.332-0.392c-1.108,0.209-2.105,0.514-3.088,0.885c-0.254,0.088-0.457,0.183-0.677,0.273
		c-0.216,0.089-0.428,0.177-0.637,0.264c-0.397,0.154-0.774,0.328-1.163,0.459c-1.568,0.498-3.014,0.838-4.21,1.08
		c-2.401,0.479-3.815,0.691-3.815,0.691s0.354,0.04,1.016,0.12c0.666,0.056,1.644,0.13,2.895,0.119
		c0.627-0.004,1.32-0.018,2.078-0.092c0.76-0.034,1.58-0.172,2.461-0.325c0.439-0.088,0.895-0.227,1.365-0.347l0.357-0.096
		c0.076-0.016,0.211-0.065,0.315-0.097c0.222-0.069,0.457-0.154,0.665-0.203c0.842-0.243,1.814-0.429,2.792-0.555
		c1.956-0.264,4.155-0.249,6.116,0.499c0.057,0.022,0.111,0.052,0.166,0.075c-0.625,0.409-1.463,0.882-2.475,1.422
		c-1.365,0.669-3.058,1.433-5.092,2.087c-2.014,0.715-4.388,1.213-6.982,1.665c-2.61,0.363-5.465,0.599-8.487,0.541
		c-3.019-0.094-6.192-0.452-9.396-1.188c-0.793-0.209-1.594-0.421-2.399-0.632c-0.776-0.266-1.558-0.532-2.345-0.801
		c-0.785-0.249-1.592-0.663-2.395-0.989c-0.377-0.173-0.861-0.349-1.152-0.521l-1.144-0.6c-3.06-1.588-5.968-3.554-8.466-5.962
		c-2.514-2.393-4.594-5.213-6.381-8.182c-1.799-2.967-3.334-6.073-4.924-9.052c-0.791-1.493-1.6-2.952-2.401-4.378
		c-0.834-1.417-1.647-2.831-2.488-4.11c-0.791-1.303-1.745-2.586-2.588-3.781c-0.938-1.157-1.8-2.31-2.774-3.299
		c-0.916-1.037-1.91-1.929-2.843-2.783c-0.993-0.791-1.929-1.546-2.897-2.143c-1.915-1.212-3.743-2.009-5.3-2.464
		c-1.556-0.47-2.836-0.591-3.695-0.616c-0.864-0.021-1.315,0.062-1.315,0.062s1.817,0.332,4.562,1.701
		c2.275,1.168,5.212,3.059,8.167,5.929c-14.043-1.43-27.13-2.825-38.275-4.042c0.598-0.738,1.498-1.713,2.694-2.888
		c0.641-0.641,1.422-1.284,2.232-2.021c0.876-0.664,1.772-1.445,2.819-2.166c1.055-0.71,2.134-1.524,3.384-2.219
		c0.611-0.367,1.237-0.744,1.879-1.131c0.665-0.343,1.347-0.694,2.043-1.054c0.704-0.342,1.391-0.755,2.148-1.062
		c0.75-0.319,1.514-0.645,2.292-0.976c1.53-0.719,3.227-1.189,4.914-1.803c0.841-0.318,1.726-0.544,2.62-0.777
		c0.892-0.236,1.796-0.481,2.708-0.724c1.829-0.474,3.746-0.777,5.669-1.182c1.933-0.35,3.935-0.538,5.939-0.813
		c1.002-0.156,2.025-0.216,3.049-0.279c1.025-0.057,2.055-0.193,3.088-0.251l1.553-0.245h1.544c1.055,0,2.133,0.146,3.144,0.228
		c2.041,0.082,4.125,0.462,6.189,0.734c8.27,1.122,16.25,4.019,22.998,7.979c3.375,1.979,6.484,4.16,9.238,6.468
		c2.759,2.303,5.174,4.707,7.227,7.074C219.769,73.217,222.44,77.776,223.72,81.119 M216.099,65.101
		c-1.752-1.938-3.719-3.882-5.905-5.766c-1.44-1.239-2.972-2.456-4.59-3.625c4.952-0.311,9.726-0.608,14.319-0.895
		C218.858,58.546,217.104,62.787,216.099,65.101 M181.868,53.089c0.305,0.14,0.602,0.277,0.896,0.414
		c1.174,0.554,2.322,0.981,3.257,1.441c1.87,0.917,3.208,1.432,3.208,1.432s-1.062-0.927-2.792-2.169
		c-0.425-0.327-0.916-0.619-1.442-0.923c-0.523-0.306-1.072-0.638-1.656-0.954c-0.578-0.329-1.18-0.656-1.818-0.93
		c-0.635-0.288-1.277-0.58-1.922-0.871c-0.641-0.295-1.313-0.516-1.963-0.765c-0.648-0.248-1.299-0.459-1.924-0.673
		c-1.271-0.372-2.453-0.729-3.494-0.935c-2.064-0.476-3.488-0.563-3.488-0.563s1.297,0.576,3.23,1.384
		c0.973,0.387,2.088,0.891,3.303,1.351c0.604,0.249,1.213,0.533,1.852,0.778c0.631,0.259,1.283,0.498,1.91,0.793
		c0.638,0.271,1.275,0.541,1.902,0.808C181.244,52.835,181.558,52.963,181.868,53.089 M188.163,59.233
		c0.448,0.19,0.889,0.376,1.299,0.585c0.832,0.399,1.629,0.739,2.33,1.007c1.391,0.551,2.406,0.801,2.406,0.801
		s-0.729-0.712-1.954-1.604c-0.608-0.453-1.338-0.955-2.141-1.456c-0.398-0.258-0.814-0.518-1.269-0.713
		c-0.447-0.213-0.9-0.429-1.354-0.646c-0.919-0.407-1.842-0.807-2.723-1.139c-0.899-0.296-1.748-0.546-2.481-0.73
		c-0.729-0.196-1.349-0.315-1.79-0.375c-0.439-0.064-0.695-0.087-0.695-0.087s0.213,0.145,0.592,0.378
		c0.383,0.224,0.926,0.554,1.578,0.921c0.653,0.37,1.424,0.768,2.258,1.165c0.816,0.446,1.703,0.877,2.596,1.3
		C187.267,58.838,187.718,59.037,188.163,59.233 M191.296,63.324c0.736,0.42,1.473,0.864,2.211,1.231
		c0.726,0.379,1.448,0.679,2.078,0.905c0.623,0.236,1.182,0.349,1.564,0.433c0.385,0.081,0.611,0.107,0.611,0.107
		s-0.164-0.166-0.461-0.422c-0.293-0.267-0.732-0.585-1.244-0.992c-0.512-0.403-1.118-0.843-1.781-1.316
		c-0.669-0.454-1.4-0.944-2.189-1.356c-0.395-0.207-0.779-0.426-1.188-0.595c-0.404-0.175-0.807-0.34-1.194-0.493
		c-0.396-0.145-0.796-0.244-1.161-0.357c-0.369-0.108-0.727-0.197-1.049-0.266c-1.296-0.232-2.201-0.266-2.201-0.266
		s0.745,0.514,1.924,1.101c0.281,0.158,0.586,0.329,0.908,0.511c0.322,0.174,0.662,0.343,1.008,0.542
		c0.344,0.203,0.701,0.404,1.066,0.602C190.568,62.88,190.923,63.123,191.296,63.324 M196.458,68.539
		c0.557,0.273,1.094,0.507,1.577,0.682c0.954,0.364,1.694,0.498,1.694,0.498s-0.42-0.575-1.204-1.277
		c-0.388-0.359-0.865-0.746-1.394-1.14c-0.547-0.351-1.16-0.666-1.779-0.97c-0.623-0.297-1.246-0.593-1.864-0.793
		c-0.62-0.195-1.201-0.365-1.711-0.479c-1.009-0.246-1.735-0.248-1.735-0.248s0.135,0.121,0.379,0.313
		c0.246,0.187,0.602,0.445,1.027,0.736c0.426,0.294,0.936,0.599,1.484,0.911c0.555,0.302,1.129,0.656,1.731,0.949
		C195.259,68.028,195.878,68.295,196.458,68.539 M201.634,73.825c0.9,0.271,1.564,0.331,1.564,0.331s-0.418-0.519-1.143-1.115
		c-0.719-0.604-1.734-1.305-2.819-1.877c-1.081-0.582-2.229-1.035-3.133-1.298c-0.898-0.272-1.562-0.335-1.562-0.335
		s0.42,0.516,1.143,1.11c0.721,0.604,1.736,1.307,2.82,1.882C199.583,73.107,200.731,73.563,201.634,73.825 M203.79,76.535
		c-0.507-0.216-1.051-0.424-1.605-0.604c-1.096-0.402-2.246-0.686-3.145-0.852c-0.896-0.166-1.561-0.174-1.561-0.174
		s0.406,0.529,1.164,1.077c0.367,0.292,0.83,0.567,1.337,0.846c0.506,0.276,1.081,0.496,1.655,0.708
		c0.588,0.189,1.19,0.334,1.761,0.438c0.586,0.064,1.132,0.11,1.602,0.105c0.966-0.068,1.575-0.268,1.575-0.268
		s-0.577-0.363-1.395-0.676C204.772,76.928,204.298,76.729,203.79,76.535 M39.041,45.635c-5.961-0.993-11.876-1.502-11.935-1.507
		c-0.411-0.04-0.776,0.271-0.81,0.684c-0.036,0.412,0.27,0.775,0.683,0.811c0.058,0.005,5.916,0.51,11.815,1.493
		c0.042,0.007,0.084,0.011,0.125,0.011c0.36,0,0.677-0.261,0.738-0.628C39.725,46.09,39.448,45.703,39.041,45.635 M40.003,52.505
		l-9.75-1.125c-0.41-0.044-0.784,0.248-0.831,0.659c-0.048,0.411,0.247,0.783,0.659,0.831l9.75,1.125
		c0.029,0.003,0.058,0.006,0.087,0.006c0.375,0,0.7-0.283,0.744-0.665C40.709,52.925,40.414,52.553,40.003,52.505 M31.23,57.378
		c-0.413-0.043-0.776,0.271-0.811,0.684c-0.035,0.413,0.272,0.776,0.685,0.811l8.875,0.75c0.021,0.001,0.042,0.004,0.064,0.004
		c0.385,0,0.713-0.297,0.746-0.688c0.035-0.413-0.271-0.776-0.684-0.811L31.23,57.378z M24.694,38.243l12.375,1.625
		c0.033,0.005,0.066,0.008,0.099,0.008c0.37,0,0.692-0.275,0.742-0.653c0.054-0.411-0.235-0.787-0.646-0.841l-12.375-1.625
		c-0.41-0.06-0.786,0.234-0.841,0.646C23.994,37.813,24.283,38.189,24.694,38.243 M23.667,32.854
		c-0.012,0.414,0.315,0.759,0.729,0.771c0.183,0.004,2.376,0.062,4.888,0.062c2.648,0,5.651-0.065,7.023-0.327
		c0.407-0.077,0.674-0.47,0.596-0.877c-0.077-0.407-0.474-0.679-0.876-0.596c-2.516,0.478-11.499,0.239-11.59,0.237
		C24.02,32.128,23.678,32.44,23.667,32.854 M35.621,26.939c0.097,0.041,0.197,0.062,0.295,0.062c0.291,0,0.568-0.233,0.69-0.518
		c0.163-0.381-0.013-0.885-0.394-1.048c-2.73-1.17-11.176-1.435-11.535-1.435h-0.01c-0.41,0-0.744,0.453-0.75,0.863
		c-0.006,0.414,0.324,0.88,0.739,0.887C27.014,25.784,33.581,26.064,35.621,26.939 M23.052,18.502
		c-0.068,0.408,0.208,0.795,0.616,0.863c0.209,0.034,4.365,0.72,7.803,0.72c0.673,0,1.318-0.026,1.901-0.089
		c0.411-0.045,0.71-0.414,0.665-0.826c-0.044-0.412-0.416-0.71-0.825-0.666c-3.356,0.363-9.239-0.608-9.297-0.619
		C23.507,17.815,23.12,18.093,23.052,18.502 M25.173,11.404c-0.053,0.411,0.237,0.787,0.648,0.84l9.75,1.25
		c0.033,0.004,0.065,0.007,0.097,0.007c0.371,0,0.694-0.277,0.743-0.655c0.052-0.411-0.238-0.787-0.649-0.84l-9.75-1.25
		C25.604,10.704,25.225,10.994,25.173,11.404 M37.378,6.88l-9.75-1.125c-0.409-0.042-0.784,0.248-0.831,0.659
		c-0.048,0.411,0.247,0.783,0.659,0.831l9.75,1.125c0.029,0.003,0.058,0.006,0.087,0.006c0.375,0,0.7-0.283,0.744-0.665
		C38.084,7.3,37.789,6.928,37.378,6.88 M40.636,70.753l-9.668-0.667c-0.41-0.019-0.771,0.283-0.799,0.696
		c-0.029,0.413,0.283,0.771,0.696,0.8l9.667,0.666c0.018,0.003,0.035,0.003,0.053,0.003c0.39,0,0.719-0.303,0.747-0.698
		C41.36,71.14,41.049,70.781,40.636,70.753 M28.506,75.905c-0.05,0.411,0.242,0.785,0.653,0.835l6.834,0.833
		c0.031,0.004,0.061,0.006,0.092,0.006c0.373,0,0.697-0.279,0.743-0.659c0.05-0.411-0.242-0.785-0.653-0.835l-6.834-0.832
		C28.933,75.202,28.556,75.495,28.506,75.905 M42.167,86.789c-0.022-0.413-0.373-0.748-0.789-0.709
		c-3.044,0.166-6.145-0.319-6.177-0.325c-0.407-0.059-0.793,0.215-0.857,0.624c-0.065,0.409,0.215,0.793,0.623,0.858
		c0.114,0.018,2.421,0.376,5.089,0.376c0.46,0,0.93-0.011,1.401-0.035C41.87,87.557,42.188,87.203,42.167,86.789 M42.38,93.718
		c0.205,0.058,3.915,1.085,8.201,1.085c1.412,0,2.888-0.111,4.321-0.406c0.405-0.083,0.666-0.48,0.583-0.886
		c-0.083-0.406-0.482-0.668-0.886-0.583c-5.416,1.113-11.749-0.637-11.812-0.653c-0.401-0.115-0.813,0.12-0.925,0.52
		C41.75,93.191,41.982,93.605,42.38,93.718 M56.965,110.689c0.093,0.039,0.19,0.057,0.285,0.057c0.295,0,0.574-0.175,0.694-0.465
		c0.157-0.383-0.025-0.821-0.408-0.979c-2.32-0.955-8.211-0.612-12.441-0.274c-0.36,0.028-0.6,0.049-0.682,0.051
		c-0.413,0.002-0.746,0.337-0.746,0.75c0,0.414,0.336,0.75,0.75,0.75c0.078,0,0.361-0.021,0.798-0.056
		C51.515,110.019,55.468,110.075,56.965,110.689 M60.818,115.743c0.413-0.038,0.717-0.402,0.679-0.815
		c-0.037-0.412-0.409-0.713-0.815-0.68c-1.769,0.164-8.181,0-8.246-0.002c-0.376,0.016-0.759,0.316-0.769,0.73
		c-0.011,0.414,0.317,0.759,0.731,0.77c0.175,0.005,2.945,0.074,5.354,0.074C59.015,115.82,60.18,115.801,60.818,115.743
		 M68.75,122.412c0.302,0,0.586-0.183,0.7-0.48c0.149-0.387-0.044-0.82-0.43-0.97c-2.219-0.854-10.025-1.181-10.908-1.215
		c-0.406-0.037-0.762,0.307-0.778,0.72c-0.016,0.414,0.306,0.763,0.72,0.778c2.33,0.092,8.745,0.47,10.427,1.117
		C68.569,122.396,68.66,122.412,68.75,122.412 M74.667,127.162c0-0.414-0.336-0.75-0.75-0.75c-5.814,0-7.037-0.281-7.12-0.302
		c-0.386-0.115-0.797,0.096-0.925,0.481c-0.131,0.394,0.081,0.818,0.474,0.949c0.186,0.062,1.427,0.371,7.571,0.371
		C74.331,127.912,74.667,127.576,74.667,127.162 M79.8,133.421c-3.055,0.483-7.313,0.327-7.354,0.326
		c-0.409-0.034-0.763,0.307-0.779,0.721c-0.015,0.413,0.307,0.762,0.721,0.777c0.07,0.003,0.761,0.028,1.768,0.028
		c1.575,0,3.924-0.062,5.878-0.37c0.409-0.065,0.688-0.449,0.623-0.858C80.593,133.636,80.212,133.357,79.8,133.421 M79.006,142.251
		c0.044,0.38,0.368,0.661,0.743,0.661c0.029,0,0.059-0.002,0.089-0.005c0.119-0.015,2.945-0.352,5.331-1.205
		c0.39-0.14,0.593-0.568,0.454-0.958c-0.14-0.391-0.57-0.597-0.959-0.455c-2.222,0.796-4.974,1.125-5.001,1.127
		C79.252,141.466,78.958,141.838,79.006,142.251 M44.431,80.595c-4.642,0.96-10.182,0.168-10.239,0.159
		c-0.402-0.056-0.79,0.224-0.851,0.633c-0.06,0.41,0.223,0.791,0.633,0.852c0.146,0.021,2.338,0.336,5.148,0.336
		c1.747,0,3.732-0.121,5.613-0.511c0.406-0.084,0.667-0.481,0.583-0.887C45.233,80.771,44.831,80.51,44.431,80.595 M254.361,60.939
		c-0.569,0.617-1.185,1.374-1.795,2.218c-0.623,0.836-1.204,1.785-1.759,2.749c-0.58,0.945-1.019,1.986-1.465,2.93
		c-0.23,0.467-0.379,0.965-0.547,1.418c-0.17,0.453-0.289,0.898-0.42,1.298c-0.146,0.391-0.189,0.797-0.254,1.137
		c-0.066,0.342-0.096,0.646-0.131,0.889c-0.059,0.493-0.074,0.771-0.074,0.771s0.172-0.238,0.443-0.65
		c0.285-0.409,0.59-1.008,1.051-1.69c0.223-0.347,0.486-0.709,0.721-1.11c0.241-0.399,0.496-0.815,0.777-1.242
		c0.271-0.432,0.551-0.878,0.835-1.331c0.265-0.463,0.552-0.924,0.835-1.39c0.285-0.464,0.553-0.938,0.816-1.404
		c0.26-0.471,0.516-0.934,0.763-1.381c0.24-0.453,0.463-0.896,0.663-1.327c0.212-0.423,0.41-0.824,0.572-1.208
		c0.341-0.759,0.599-1.408,0.764-1.878c0.17-0.466,0.248-0.746,0.248-0.746s-0.236,0.171-0.604,0.503
		C255.433,59.825,254.913,60.31,254.361,60.939"/>
</g>
</svg>
