<?xml version="1.0" encoding="utf-8"?>
<!-- Generator: Adobe Illustrator 15.0.0, SVG Export Plug-In . SVG Version: 6.00 Build 0)  -->
<!DOCTYPE svg PUBLIC "-//W3C//DTD SVG 1.1//EN" "http://www.w3.org/Graphics/SVG/1.1/DTD/svg11.dtd">
<svg version="1.1" id="Layer_1" xmlns="http://www.w3.org/2000/svg" xmlns:xlink="http://www.w3.org/1999/xlink" x="0px" y="0px"
	 width="305.834px" height="176.833px" viewBox="0 0 305.834 176.833" enable-background="new 0 0 305.834 176.833"
	 xml:space="preserve">
<g>
	<defs>
		<rect id="nav-mouth-11-id-1" y="-0.625" width="306.056" height="175.625"/>
	</defs>
	<clipPath id="nav-mouth-11-id-2">
		<use xlink:href="#nav-mouth-11-id-1"  overflow="visible"/>
	</clipPath>
	<path clip-path="url(#nav-mouth-11-id-2)" fill="#EE6372" d="M305.363,22.834c-2-3.5-10.166-6.833-10.166-6.833
		c-2.166,0.834-4.334,7.5-4.334,7.5l-5.833-0.667c-0.167-9.667-6.167-5.833-6.167-5.833s2-2.334-5.166-4.667
		s-7.834,8.667-7.834,8.667c-5.667-1.333-10.333,0.833-10.333,0.833c-3.5-7.834-12.833-7.5-12.833-7.5l-3.833,4
		c-7.333-17.833-22-9.5-22-9.5s-1.334-2.5-11.167-3.833s-17.5,10.5-17.5,10.5s-3.333-8.167-20-11.334
		c-14.836-2.819-20.167,6.5-20.167,6.5s-3.667-5.166-11-5.833c-7.334-0.667-8.5,8.167-8.5,8.167c-2.5-3.666-12-1.667-12-1.667
		c-4.667-6.333-14.667-6.167-14.667-6.167c-14-1-19.333,12.667-19.333,12.667s-2.834-5.833-4.5-7.666
		c-1.667-1.833-17.167-3.5-17.167-3.5c-3.166,0.834-9.833,13.957-9.833,13.957s-1.334-4.957-8.334-5.457S29.863,25,29.863,25
		s-1.167-4.332-4.667-8.417c-6.666-2.085-14.166,8.751-14.166,8.751C9.863,21.501,1.78,16.5,1.78,16.5l3.583-5.166L0.03,11.067
		v11.298C0.03,106.663,68.367,175,152.667,175h0.728c83.824,0,151.855-67.574,152.618-151.218
		C305.801,23.527,305.585,23.222,305.363,22.834"/>
	<path clip-path="url(#nav-mouth-11-id-2)" fill="#FCDCA4" d="M79.53,66.833c-1.878-2.167-1.334-9.416-0.834-12.583s3.584-9.917,11.5-7.583
		c0,0,1.667,4.166,3.667,4.75c0,0,2.333-10,14.667-8.584c0,0,1.083,6.5,5,7.334c0,0,3.916-12.584,12.583-10.5
		c0,0,0.083,6.75,7.083,8.416c0,0,0.834-11.25,7.5-10.916c6.667,0.333,10.75,1.916,11.667,3.583s1.917,4.5,1.917,4.5
		s3.083-9.917,10.083-9.917s10.917,3.167,10.75,12.417c0,0,5.667-0.917,4.667-8.333c0,0,6.167-1.334,7.333,0.916
		c1.167,2.25,2.5,4.917,3.167,5.334c0,0,3.5-3.084,4.75-5c0,0,11.583-2,15,6.916c0,0,4.417-1.916,4.083-4.25
		c0,0,7.5-1.833,10.25,3.834c0,0,2-0.667,2.5-2.75c0,0,6.084-1.417,7.5,3c1.417,4.416,2.834,16.5-8,14.5l0.084,2.333l-2.084,1
		c0,0-2,10.25-5.5,14.167c-3.5,3.916-9.416,4.583-9.416,4.583s-2,8.417-11.584,6.917c0,0-3.083,6.333-9.333,7.166
		c0,0-0.75-4.333-3.667-4.583c0,0-2,6.583-11.916,4.833c0,0-0.75-4.333-3.667-4.75c0,0-4.25,8.167-9.333,7.667
		c-5.084-0.5-3.667-6.5-3.667-6.5s-3.834,5.667-6.584,5.583c-2.75-0.083-8.083-2.25-9-3.666c-0.916-1.417-2.166-5.417-2.166-5.417
		s-5.084,3.583-5.167,4.833s0.667,3.75,0.667,3.75s-4.25,0.75-7.167-1.083s-4-4.75-3.833-7.417c0,0-4.75,1.167-4.084,5.667
		c0,0-6.083-0.583-9.25-4.917c0,0-7.666,1.834-10.916-5.666c0,0-2.417,1.083-5.75-2.584c-3.334-3.666-6.167-5.333-6.584-7.5
		c-0.416-2.166-0.416-7.25-0.416-7.25S80.613,68.083,79.53,66.833"/>
	<path clip-path="url(#nav-mouth-11-id-2)" fill="#F0A733" d="M175.113,47.75c0,0-0.083,5.083,1.084,6.5c1.166,1.417,6.25,9.583,2.083,15.333
		c0,0,2.417,2.584,9.583,1.834c7.167-0.75,9.167-2.334,9.167-2.334s1.083-11.916-1-14.416S189.447,44.5,188.447,42.5
		s-6-4.917-8-3.417C180.447,39.083,180.28,46.667,175.113,47.75"/>
	<path clip-path="url(#nav-mouth-11-id-2)" fill="#F0A733" d="M117.78,75.083c0,0,7.833,1,13.166-2.25l4.25,1.667l3,17.083
		c0,0-6.25,2.5-4.833,7.667c0,0-3.417,1.083-6.917-0.917s-3-4.5-2.916-7.916c0.083-3.417,0.166-6-2.5-8.25
		C118.363,79.917,117.196,78.583,117.78,75.083"/>
	<path clip-path="url(#nav-mouth-11-id-2)" fill="#F0A733" d="M197.03,67.583l7.417,6.917c0,0,8.25-9.167,8.25-10.833
		c0-1.667-0.917-13.917-3.084-17.25c-2.166-3.334-6.75-7.417-14.166-5.75c0,0-2.25,4.416-5.167,5c0,0,4.417,6.416,5.25,8
		C196.363,55.25,197.363,65.25,197.03,67.583"/>
	<path clip-path="url(#nav-mouth-11-id-2)" fill="#D72251" d="M17.03,19.5c0,0,10.333,2.083,11.333,2.583s1.5,2.917,1.5,2.917l1.667-1.333
		c0,0,15.5,6.333,23.25,17.083l22.917-17.417L68.53,7.25l-8.75-0.667c0,0-7.833,9.334-8.667,13.417c0,0-4-6.083-9.916-4.917
		c-5.917,1.167-11.084,9-11.084,9s-3.75-7.416-4.916-7.5C25.197,16.583,20.53,15.75,17.03,19.5"/>
	<path clip-path="url(#nav-mouth-11-id-2)" fill="#D72251" d="M246.197,14.667L240.863,25.5l21.667,16.417c0,0,13.667-12.334,15.917-13.834
		s7-4.5,7-4.5s-0.25-6.583-1.667-7c-1.417-0.416-4.917,0.584-4.917,0.584s-1.333-5.25-5.916-5.417
		c-4.584-0.167-6.917,5.25-7.417,8.667c0,0-6.833,0.25-9.583,1.75C255.947,22.167,253.697,15.917,246.197,14.667"/>
	<path clip-path="url(#nav-mouth-11-id-2)" fill="#D72251" d="M64.614,65.25c0,0,25.516,40.933,88.5,43.667
		c57.583,2.5,92.083-54.75,92.083-54.75s13,12.833,15.166,23.083c0,0-41.442,55.464-112.958,54.875
		c-60.75-0.5-94.967-39.743-94.75-40.875C54.781,80.125,64.614,65.25,64.614,65.25"/>
	<path clip-path="url(#nav-mouth-11-id-2)" fill="#D72251" d="M64.197,102.583c0,0-0.417,18.75,0.75,26.084
		c1.167,7.333,3.093,17.548,9.417,23.5l-3.167-7.417l5.146,7.938l-2.896-7.855c0,0,6.208,8.685,7.167,10l-2.083-7.416l5.687,9.646
		l-2.021-7.146c0,0,7.227,8.476,8.584,10.416l-2.834-7.416l6.584,8.958l-4-7.875c0,0,7.713,8.711,9.166,10.333l-3.083-7.833
		l7.917,9.125l-4.167-7.542c0,0,9.311,8.967,10.167,9.75l-4.417-7.083l8.729,7.25l-5.812-7.333c0,0,10.656,8.177,11,7.896
		c-22.875-19.75-19.5-44.896-19.5-44.896S88.364,116.583,64.197,102.583"/>
	<path clip-path="url(#nav-mouth-11-id-2)" fill="#D72251" d="M196.155,124c0,0,3.625,30.25-25.75,47.875l13.042-6.792l-8.623,6.444
		l11.331-7.027l-6.407,6.64l14.032-9.89l-8.91,8.781l12.618-10.156l-7.369,9.02l11.203-8.645l-6.564,7.233l9.564-8.358l-4.794,6.908
		l11.127-10.575l-6.704,8.929l9.996-9.887l-4.534,7.854l9.95-10.479l-4.23,8.047l7.439-8.755c0,0-2.459,6.375-2.542,6.583
		c0,0,19.625-14.5,19.25-58C239.28,99.75,213.28,117.125,196.155,124"/>
	<path clip-path="url(#nav-mouth-11-id-2)" fill="#D72251" d="M14.53,80.667l11.333-2.834l-8.916,7.5l9.75-5.916l-7.481,10.136l10.98-8.053
		l-8.637,11.535L31.613,83.5l-6.929,14.18l9.429-14.18l-6.954,17.859l8.621-13.192l-5.466,16.962l7.799-14.962l-4.578,18.81
		L39.78,93.5l-2.427,20.037l6.26-14.37l-2.949,17.693L45.613,101l-0.096,20.585l1.763-16.252c0,0,2.454,20.142,3.167,20.75
		c0,0-7.5-33.416,17.666-65.666C93.28,28.167,130.863,19,154.863,19s51.417,2.75,81.834,27.25
		c30.416,24.5,31.666,53.583,26.833,72.5l5.39-21.193l-0.287,14.403l2.772-19.155l2.058,12.729l-0.304-15.067l4.368,9.658
		l-2.469-16.968l5.296,12.006l-4.052-15.368l7.293,9.682l-6.197-12.312l9.02,7.359l-6.973-14.084l9.137,8.918l-8.625-12.207
		l10.629,7.425l-8.875-9.765l11.555,3.364l-8.557-6.872l10.188,1.471l-7.483-3.737c0,0,8.875-1.338,9.034-2.035
		c0,0-13,1.25-23.25-6.75s-40.417-35.833-75.75-43.5c0,0-7.584,5.5-9,8.75c0,0-5.917-10.667-21.667-11.833
		c-15.75-1.167-18.917,7.416-18.917,7.416s-3.667-7-11.5-6.666c-7.833,0.333-7.583,8.916-7.583,8.916s-6.5-4.666-11.917-1.833
		c0,0-1.416-3.583-5.333-4.083c0,0-23.583,6.833-44.5,23C46.113,46.583,39.197,58.5,35.28,63.75S22.613,79.167,14.53,80.667"/>
	<path clip-path="url(#nav-mouth-11-id-2)" fill="#0C3846" d="M297.001,15.464l0.571-0.331c0.27-0.157,0.572-0.246,0.855-0.375
		c0.29-0.12,0.571-0.249,0.884-0.314l0.913-0.235c0.3-0.102,0.628-0.074,0.94-0.133L302.114,14h0.002l1.818-0.337l-1.097-1.377
		c-0.133-0.16-0.308-0.399-0.451-0.621c-0.152-0.225-0.289-0.463-0.429-0.701c-0.271-0.482-0.512-0.985-0.725-1.503
		c-0.212-0.519-0.381-1.054-0.539-1.597c-0.127-0.548-0.258-1.102-0.32-1.667c-0.05-0.281-0.069-0.564-0.08-0.85
		c-0.009-0.284-0.05-0.573-0.032-0.858l0.032-0.863c0.004-0.29,0.066-0.572,0.098-0.861c0.043-0.284,0.061-0.58,0.14-0.859
		l0.2-0.854c0.055-0.29,0.172-0.56,0.262-0.839l0.287-0.838l-0.403,0.79c-0.129,0.267-0.286,0.524-0.381,0.805l-0.326,0.835
		c-0.122,0.276-0.182,0.569-0.269,0.857c-0.073,0.291-0.179,0.578-0.227,0.876l-0.16,0.895c-0.061,0.299-0.062,0.604-0.096,0.907
		c-0.032,0.305-0.053,0.61-0.043,0.916c-0.019,0.614,0.034,1.228,0.09,1.845c0.086,0.61,0.188,1.226,0.342,1.829
		c0.151,0.603,0.34,1.206,0.566,1.793c0.054,0.134,0.116,0.271,0.173,0.407c-0.258,0.018-0.517,0.015-0.769,0.096l-1.066,0.293
		c-0.359,0.081-0.7,0.238-1.042,0.381c-0.339,0.152-0.695,0.269-1.019,0.454l-0.97,0.563c-0.328,0.181-0.604,0.44-0.907,0.658
		c-0.306,0.219-0.587,0.464-0.847,0.735c-0.26,0.268-0.55,0.509-0.772,0.809c-0.231,0.292-0.483,0.57-0.695,0.875l-0.61,0.931
		l-0.526,0.976c-0.312,0.669-0.593,1.349-0.806,2.054c-0.108,0.351-0.205,0.706-0.285,1.068c-0.01,0.039-0.016,0.078-0.024,0.117
		l-4.249-0.531l-0.074-0.6l-0.213-1.379l-0.244-1.358c-0.023-0.187-0.137-0.556-0.228-0.837c-0.11-0.295-0.297-0.606-0.509-0.868
		c-0.236-0.262-0.495-0.496-0.799-0.649c-0.289-0.189-0.594-0.257-0.89-0.35c-0.59-0.133-1.145-0.138-1.671-0.098
		c-0.521,0.053-1.025,0.136-1.505,0.265c-0.078,0.02-0.153,0.046-0.231,0.067c-0.033-0.108-0.065-0.216-0.104-0.328
		c-0.195-0.521-0.48-0.996-0.809-1.426c-0.338-0.42-0.727-0.784-1.139-1.1l-0.637-0.432l-0.664-0.355
		c-0.456-0.202-0.893-0.408-1.378-0.545l-0.72-0.216l-0.653-0.145l-0.325-0.07l-0.162-0.035c-0.139-0.023-0.152-0.017-0.232-0.026
		l-0.785-0.06c-0.26-0.036-0.525-0.019-0.797,0.031l-0.805,0.124c-0.504,0.204-1.057,0.346-1.484,0.681
		c-0.477,0.275-0.848,0.646-1.217,1.02c-0.332,0.388-0.656,0.793-0.903,1.22c-0.261,0.426-0.489,0.858-0.674,1.303
		c-0.214,0.438-0.347,0.893-0.511,1.341c-0.133,0.453-0.272,0.906-0.371,1.363c-0.113,0.454-0.194,0.913-0.271,1.375
		c-0.018,0.101-0.027,0.201-0.043,0.301c-0.09-0.012-0.182-0.03-0.27-0.038c-0.463-0.053-0.918-0.072-1.367-0.073
		c-0.903-0.011-1.781,0.068-2.652,0.169c-0.871,0.103-1.729,0.251-2.579,0.424c-0.584,0.12-1.157,0.255-1.737,0.401l-0.119-0.235
		l-0.26-0.507l-0.326-0.469c-0.223-0.309-0.43-0.63-0.668-0.927l-0.778-0.835c-0.247-0.293-0.563-0.508-0.849-0.757
		c-0.291-0.244-0.58-0.489-0.903-0.681c-0.318-0.2-0.627-0.421-0.954-0.602l-0.997-0.511c-0.335-0.163-0.685-0.285-1.026-0.43
		c-0.342-0.149-0.697-0.248-1.047-0.361c-0.701-0.234-1.419-0.393-2.136-0.531c-0.521-0.101-1.043-0.172-1.565-0.23
		c0.395-0.333,0.789-0.67,1.207-0.978c1.191-0.877,2.465-1.652,3.825-2.296c0.679-0.324,1.386-0.587,2.104-0.842
		c0.718-0.266,1.462-0.441,2.216-0.64c-0.386-0.004-0.779-0.033-1.168-0.006c-0.39,0.015-0.782,0.037-1.172,0.082
		c-0.786,0.067-1.558,0.24-2.327,0.432c-1.541,0.386-3.032,1-4.434,1.78c-1.396,0.782-2.721,1.714-3.898,2.805
		c-0.592,0.543-1.15,1.121-1.666,1.738c-0.102,0.116-0.188,0.244-0.283,0.365c-0.264-0.629-0.561-1.231-0.888-1.838
		c-0.647-1.181-1.418-2.295-2.3-3.32c-0.877-1.038-1.877-1.938-2.992-2.757c-0.283-0.198-0.573-0.414-0.854-0.593l-0.824-0.49
		c-0.614-0.372-1.229-0.653-1.881-0.904c-2.599-1.004-5.492-1.076-8.135-0.432c-1.33,0.324-2.605,0.789-3.833,1.481
		c-0.141,0.081-0.28,0.167-0.425,0.263l-0.025-0.019c-0.582-0.374-1.178-0.698-1.785-0.991c-2.434-1.161-5.032-1.84-7.648-2.188
		c-1.314-0.175-2.616-0.275-3.961-0.279c-1.389,0.006-2.77,0.239-4.076,0.664c-2.617,0.863-4.9,2.404-6.857,4.196
		c-0.978,0.9-1.888,1.867-2.727,2.887c-0.492,0.602-0.954,1.215-1.4,1.849c-0.271-0.403-0.558-0.783-0.863-1.169
		c-0.649-0.8-1.366-1.532-2.127-2.211c-1.522-1.352-3.217-2.486-5.004-3.404c-1.783-0.936-3.659-1.655-5.567-2.233
		c-0.954-0.292-1.92-0.532-2.89-0.752c-0.983-0.214-1.967-0.392-2.914-0.54c-1.006-0.149-1.977-0.263-2.977-0.341
		c-0.996-0.072-1.996-0.105-3-0.092c-2.004,0.045-4.023,0.254-5.992,0.769c-1.97,0.492-3.882,1.288-5.624,2.389
		c-0.868,0.555-1.696,1.18-2.447,1.899c-0.424,0.41-0.816,0.822-1.187,1.278c-0.074-0.086-0.143-0.175-0.219-0.263
		c-0.389-0.429-0.793-0.843-1.224-1.227c-0.427-0.388-0.881-0.745-1.346-1.087c-0.469-0.337-0.955-0.649-1.46-0.933
		c-0.507-0.275-1.02-0.548-1.557-0.762c-0.532-0.231-1.078-0.423-1.635-0.583c-0.543-0.185-1.156-0.278-1.729-0.41l-0.804-0.105
		l-0.402-0.052c-0.216-0.032-0.321-0.022-0.486-0.035c-1.208-0.072-2.474,0.131-3.622,0.637c-1.144,0.516-2.134,1.313-2.903,2.238
		c-0.781,0.921-1.357,1.958-1.819,3.021c-0.229,0.533-0.425,1.075-0.593,1.627c-0.007,0.025-0.013,0.05-0.021,0.075
		c-0.506-0.334-1.047-0.609-1.604-0.817c-1.085-0.403-2.21-0.595-3.315-0.646c-1.106-0.056-2.196,0.028-3.266,0.185
		c-0.535,0.081-1.065,0.184-1.589,0.307l-0.787,0.2c-0.011,0.004-0.022,0.007-0.033,0.01c-0.421-0.607-0.873-1.096-1.383-1.587
		c-0.688-0.657-1.438-1.236-2.233-1.732c-0.791-0.502-1.625-0.927-2.479-1.284c-0.853-0.371-1.734-0.64-2.618-0.897
		c-0.893-0.195-1.784-0.442-2.69-0.536l-1.355-0.181l-1.378-0.08c-0.938-0.082-1.789-0.031-2.672-0.029l-0.693,0.014l-0.685,0.056
		c-0.458,0.024-0.913,0.092-1.368,0.155c-3.645,0.472-7.189,2.01-10.033,4.364c-1.418,1.18-2.685,2.572-3.757,4.062
		c-0.538,0.743-1.031,1.598-1.478,2.399c-0.063,0.116-0.118,0.247-0.179,0.366c-0.145-0.365-0.293-0.725-0.448-1.055
		c-0.5-1.054-1.058-2.249-1.735-3.247c-0.346-0.505-0.689-0.968-1.174-1.476c-0.241-0.275-0.427-0.402-0.643-0.611
		c-0.384-0.308-0.642-0.441-0.95-0.597c-1.17-0.553-2.284-0.837-3.413-1.127c-2.25-0.546-4.495-0.928-6.746-1.267
		c-1.35-0.2-2.701-0.377-4.053-0.542c0.434-0.299,0.878-0.577,1.334-0.828c0.65-0.306,1.303-0.619,1.989-0.784
		c0.328-0.112,0.713-0.144,1.011-0.213l1.196-0.123c0.805-0.091,1.522-0.129,2.305-0.144c0.773-0.014,1.545-0.004,2.317,0.051
		c0.767,0.078,1.538,0.16,2.294,0.327c0.758,0.163,1.508,0.372,2.237,0.661c0.721,0.301,1.426,0.67,2.045,1.188
		c-0.448-0.681-1.091-1.227-1.77-1.693c-0.688-0.457-1.42-0.875-2.2-1.169c-0.773-0.313-1.574-0.551-2.389-0.736
		c-0.815-0.163-1.638-0.315-2.467-0.378c-0.817-0.07-1.707-0.109-2.5-0.1L67.501,1.83c-0.491,0.057-0.914,0.071-1.359,0.178
		c-0.888,0.154-1.723,0.469-2.528,0.826c-0.784,0.388-1.551,0.811-2.246,1.313c-1.418,0.977-2.65,2.146-3.763,3.39
		c-1.121,1.238-2.119,2.558-3.035,3.927c-0.903,1.377-1.762,2.758-2.497,4.22c-0.454,0.907-0.746,1.785-1.137,2.694
		c-0.361-0.511-0.782-0.867-1.219-1.323c-0.464-0.448-0.956-0.87-1.492-1.238c-0.536-0.369-1.109-0.682-1.703-0.949l-0.912-0.351
		l-0.943-0.252c-0.631-0.12-1.381-0.246-1.924-0.24l-0.44-0.016l-0.22-0.008c-0.191,0.003-0.197,0.016-0.305,0.023l-1.007,0.116
		c-0.336,0.039-0.641,0.169-0.963,0.253c-0.319,0.091-0.637,0.185-0.922,0.335l-0.881,0.411c-0.277,0.157-0.542,0.331-0.814,0.496
		c-0.558,0.315-1.017,0.734-1.524,1.104c-0.461,0.411-0.94,0.81-1.365,1.249c-0.432,0.436-0.859,0.874-1.251,1.339
		c-0.806,0.912-1.538,1.876-2.227,2.866c-0.232,0.33-0.447,0.669-0.665,1.006c-0.032-0.107-0.059-0.216-0.098-0.321l-0.497-1.267
		c-0.154-0.428-0.356-0.835-0.58-1.233c-0.211-0.404-0.429-0.805-0.654-1.201l-0.771-1.134c-0.25-0.383-0.539-0.736-0.847-1.076
		c-0.307-0.34-0.583-0.704-0.914-1.02l-1.004-0.931c-0.348-0.294-0.712-0.57-1.074-0.844c-0.352-0.284-0.76-0.498-1.135-0.747
		c-0.373-0.256-0.787-0.444-1.188-0.65c-0.396-0.211-0.816-0.377-1.231-0.544c-0.412-0.173-0.848-0.291-1.268-0.432
		c-0.869-0.209-1.734-0.415-2.618-0.425c0.808,0.342,1.574,0.724,2.303,1.166c0.357,0.235,0.728,0.432,1.069,0.684
		c0.341,0.25,0.698,0.462,1.019,0.734c0.326,0.262,0.661,0.503,0.966,0.785s0.637,0.525,0.913,0.835
		c0.123,0.131,0.249,0.256,0.377,0.381c-0.719,0.025-1.439,0.093-2.137,0.262c-1.596,0.356-3.078,1.059-4.405,1.932
		c-1.321,0.886-2.502,1.937-3.554,3.088c-0.524,0.577-1.021,1.177-1.486,1.801c-0.095,0.128-0.184,0.262-0.278,0.392
		c-0.844-1.53-1.999-2.835-3.232-3.967c-0.848-0.77-1.744-1.473-2.678-2.111c-0.468-0.321-0.944-0.628-1.429-0.92
		c-0.098-0.059-0.196-0.113-0.294-0.17c0.223-0.248,0.455-0.489,0.653-0.76C4.561,14.896,5,14.249,5.362,13.555
		c0.369-0.688,0.68-1.414,0.907-2.167c0.122-0.373,0.222-0.753,0.301-1.138c0.071-0.387,0.148-0.77,0.184-1.161
		c0.099-0.774,0.109-1.56,0.047-2.331c-0.054-0.771-0.197-1.53-0.392-2.266C6.204,3.759,5.946,3.045,5.605,2.376
		C5.261,1.71,4.89,1.06,4.405,0.5C4.92,1.874,5.177,3.294,5.259,4.686C5.337,6.078,5.212,7.45,4.874,8.752
		c-0.122,0.471-0.277,0.929-0.446,1.38L0.06,10L0,12l3.521,0.106c-0.061,0.112-0.117,0.228-0.181,0.339
		c-0.167,0.29-0.33,0.583-0.518,0.863c-0.175,0.287-0.373,0.562-0.56,0.845l-0.589,0.836c-0.208,0.272-0.425,0.54-0.622,0.826
		L0.207,17.04l1.139,0.36c0.431,0.215,0.907,0.484,1.352,0.75c0.45,0.271,0.893,0.556,1.326,0.853
		c0.868,0.594,1.693,1.243,2.462,1.941c1.527,1.395,2.842,3.037,3.473,4.878l0.717,2.096l1.103-1.933
		c0.154-0.27,0.357-0.586,0.55-0.876c0.199-0.294,0.405-0.585,0.619-0.871c0.425-0.572,0.881-1.122,1.36-1.648
		c0.887-0.972,1.867-1.844,2.923-2.583c3.571,0.786,7.061,1.83,10.397,3.094l0.27,0.598c0.185,0.368,0.3,0.767,0.455,1.15
		c0.141,0.39,0.295,0.774,0.461,1.159l0.976,2.268l0.874-2.058v-0.001c0.257-0.472,0.559-0.975,0.858-1.455
		c0.01-0.016,0.021-0.03,0.031-0.048c12.829,5.755,20.019,13.634,22.056,16.102c-1.457,1.402-2.884,2.824-4.261,4.271
		c-1.364,1.362-2.631,2.792-3.901,4.188c-1.287,1.381-2.479,2.814-3.671,4.207c-2.375,2.793-4.559,5.586-6.586,8.261
		c-2.04,2.684-3.801,5.288-5.637,7.452c-1.828,2.194-3.689,4.044-5.441,5.574c-1.766,1.512-3.425,2.697-4.851,3.584
		c-2.857,1.776-4.731,2.396-4.731,2.396s0.486-0.058,1.379-0.283c0.889-0.232,2.182-0.646,3.752-1.368
		c1.566-0.724,3.418-1.742,5.368-3.172c1.955-1.418,3.998-3.248,5.991-5.455c1.013-1.084,1.962-2.33,2.937-3.571
		c0.944-1.251,1.919-2.544,2.922-3.874c2.033-2.629,4.218-5.365,6.591-8.101c1.191-1.362,2.381-2.767,3.665-4.116
		c1.267-1.365,2.531-2.764,3.889-4.093c2.646-2.726,5.468-5.36,8.344-7.929c1.462-1.256,2.925-2.512,4.382-3.763
		c1.504-1.193,3.001-2.382,4.487-3.562c1.472-1.198,3.052-2.227,4.547-3.331c0.755-0.542,1.506-1.081,2.252-1.615
		c0.759-0.514,1.535-0.99,2.293-1.481c1.522-0.972,3.019-1.928,4.484-2.864c1.514-0.853,2.995-1.688,4.437-2.5
		c0.721-0.406,1.432-0.807,2.133-1.202c0.703-0.389,1.425-0.715,2.12-1.067c1.396-0.69,2.745-1.356,4.04-1.997
		c0.652-0.311,1.273-0.653,1.911-0.92c0.638-0.266,1.261-0.526,1.869-0.779c1.215-0.507,2.368-0.988,3.452-1.44
		c2.145-0.963,4.105-1.563,5.696-2.123c2.331-0.808,3.921-1.358,4.613-1.599c0.234,0.13,0.471,0.255,0.695,0.397
		c0.456,0.284,0.881,0.606,1.29,0.945c-0.838,0.327-2.061,0.805-3.617,1.413c-1.584,0.57-3.423,1.458-5.559,2.417
		c-2.155,0.921-4.488,2.16-7.051,3.479c-1.294,0.635-2.589,1.394-3.935,2.169c-1.34,0.784-2.757,1.546-4.146,2.436
		c-1.393,0.886-2.825,1.795-4.287,2.724c-1.448,0.952-2.889,1.981-4.375,2.998c-1.5,0.997-2.934,2.137-4.43,3.229
		c-1.501,1.086-2.958,2.268-4.435,3.445c-1.493,1.159-2.943,2.396-4.398,3.636c-1.47,1.224-2.883,2.524-4.309,3.81
		c-2.842,2.58-5.591,5.263-8.222,7.975c-2.629,2.703-5.135,5.489-7.421,8.255c-2.267,2.782-4.533,5.391-6.702,7.861
		c-2.178,2.461-4.237,4.789-6.137,6.937c-3.814,4.289-6.992,7.864-9.217,10.366C23.623,85.559,22.364,87,22.364,87
		s1.377-1.331,3.737-3.709c1.189-1.181,2.591-2.654,4.217-4.328c1.627-1.673,3.43-3.59,5.38-5.699
		c1.951-2.106,4.068-4.388,6.247-6.855c2.184-2.461,4.481-5.078,6.761-7.848c2.301-2.752,4.772-5.471,7.41-8.155
		c2.628-2.682,5.374-5.333,8.211-7.882c1.424-1.271,2.834-2.556,4.301-3.764c1.446-1.232,2.884-2.462,4.366-3.615
		c1.467-1.171,2.913-2.346,4.403-3.426c1.485-1.086,2.909-2.219,4.397-3.211c1.475-1.01,2.905-2.033,4.341-2.979
		c1.451-0.923,2.871-1.827,4.254-2.707c1.377-0.888,2.786-1.635,4.107-2.429c1.33-0.779,2.609-1.543,3.888-2.183
		c2.532-1.328,4.837-2.577,6.968-3.506c2.111-0.968,3.93-1.864,5.496-2.44c1.878-0.752,3.258-1.304,4.061-1.625
		c0.494,0.493,0.955,1.073,1.224,1.552l0.435,0.775l0.797-0.273c0.193-0.066,0.442-0.141,0.669-0.204l0.706-0.18
		c0.474-0.111,0.953-0.202,1.433-0.275c0.959-0.142,1.926-0.215,2.871-0.165c0.623,0.029,1.226,0.133,1.813,0.274
		c-0.909,0.235-2.07,0.534-3.455,0.892c-1.831,0.501-4.014,1.25-6.54,2.033c-1.251,0.429-2.559,0.951-3.951,1.466
		c-0.694,0.262-1.406,0.531-2.135,0.805c-0.726,0.284-1.448,0.623-2.197,0.942c-1.483,0.669-3.065,1.291-4.637,2.073
		c-1.569,0.786-3.191,1.601-4.859,2.437c-1.626,0.915-3.296,1.854-5.004,2.816c-1.663,1.033-3.362,2.09-5.09,3.165
		c-1.68,1.148-3.387,2.316-5.115,3.5c-1.669,1.263-3.385,2.508-5.067,3.824c-3.336,2.667-6.657,5.468-9.797,8.461l-2.362,2.236
		L62.365,49.1c-1.54,1.516-2.978,3.117-4.435,4.678c-1.445,1.569-2.815,3.185-4.19,4.76c-1.318,1.624-2.678,3.182-3.91,4.798
		c-2.534,3.178-4.838,6.36-6.975,9.41c-2.122,3.061-4.025,6.026-5.701,8.809c-1.701,2.768-3.152,5.37-4.388,7.702
		c-1.217,2.342-2.272,4.386-3.053,6.111c-1.605,3.433-2.349,5.466-2.349,5.466s0.914-1.96,2.708-5.286
		c0.899-1.661,1.995-3.674,3.312-5.948c1.346-2.259,2.838-4.82,4.574-7.548c1.713-2.742,3.684-5.638,5.788-8.685
		c2.139-3.022,4.443-6.176,6.975-9.324c1.232-1.601,2.59-3.142,3.906-4.75c1.374-1.559,2.742-3.157,4.184-4.71
		c1.453-1.543,2.887-3.127,4.423-4.625l2.276-2.28l2.353-2.208c3.134-2.951,6.431-5.721,9.73-8.376
		c1.665-1.308,3.364-2.544,5.018-3.8c1.71-1.174,3.401-2.334,5.063-3.476c1.71-1.066,3.392-2.116,5.039-3.143
		c1.69-0.954,3.342-1.887,4.952-2.796c1.649-0.833,3.253-1.645,4.805-2.429c1.55-0.787,3.111-1.415,4.575-2.09
		c0.739-0.322,1.452-0.664,2.168-0.951c0.72-0.278,1.424-0.55,2.109-0.814c1.375-0.521,2.666-1.05,3.902-1.484
		c2.497-0.795,4.655-1.558,6.466-2.068c2.254-0.601,3.906-1.041,4.839-1.29c0.521,0.283,0.994,0.633,1.397,1.058l1.379,1.452
		l0.338-1.985c0.069-0.401,0.187-0.871,0.317-1.312c5.124-1.076,10.386-1.827,15.674-2.237c0.176,0.177,0.362,0.346,0.53,0.53
		c0.323,0.367,0.66,0.791,0.889,1.141l0.888,1.361l0.844-1.408c0.367-0.615,0.967-1.321,1.578-1.908
		c1.711-0.068,3.442-0.11,5.167-0.11c9.97,0,19.858,1.065,29.418,3.145c0.388,0.39,0.763,0.79,1.106,1.214
		c0.42,0.517,0.836,1.106,1.15,1.658c-1.595-0.363-3.197-0.706-4.816-1.003l-1.845-0.362l-1.866-0.257
		c-1.244-0.171-2.492-0.342-3.74-0.514c-1.246-0.201-2.506-0.288-3.766-0.381l-3.785-0.292c-1.261-0.13-2.535-0.12-3.806-0.146
		l-3.819-0.066c-1.278-0.054-2.537,0.027-3.801,0.076l-3.791,0.159c-10.165,0.66-20.238,2.281-29.869,5.05
		c-9.625,2.755-18.756,6.666-26.978,11.5c-8.233,4.823-15.547,10.546-21.806,16.642C67.252,51.853,62.016,58.299,57.73,64.6
		c-4.287,6.307-7.668,12.442-10.341,18.023c-2.651,5.595-4.591,10.641-5.974,14.86c-1.368,4.227-2.232,7.609-2.719,9.936
		C38.185,109.74,38.03,111,38.03,111s0.3-1.231,0.955-3.508c0.681-2.27,1.695-5.592,3.231-9.731
		c1.524-4.141,3.515-9.12,6.198-14.646c2.663-5.531,6.028-11.61,10.289-17.851c4.26-6.236,9.458-12.608,15.67-18.63
		c6.206-6.02,13.45-11.663,21.598-16.415c8.139-4.763,17.172-8.61,26.7-11.316c9.521-2.721,19.536-4.304,29.559-4.943l3.79-0.167
		c1.264-0.054,2.531-0.137,3.779-0.085l3.758,0.057c1.252,0.023,2.502,0.01,3.752,0.136l3.744,0.279
		c1.248,0.089,2.494,0.171,3.727,0.367c1.234,0.167,2.47,0.334,3.701,0.5l1.846,0.248l1.825,0.354
		c1.944,0.353,3.87,0.767,5.78,1.214l0.351,0.763l0.362-0.598c7.41,1.783,14.533,4.251,21.197,7.272
		c8.592,3.899,16.453,8.646,23.346,13.881c6.91,5.217,12.926,10.816,18.059,16.361c5.135,5.548,9.391,11.04,12.839,16.12
		c3.487,5.057,6.122,9.729,8.118,13.657c1.98,3.938,3.229,7.184,3.869,9.453c0.193,0.562,0.257,1.079,0.361,1.518
		c0.105,0.44,0.176,0.812,0.185,1.117c0.052,0.61,0.079,0.925,0.079,0.925s-0.001-0.316-0.003-0.93
		c0.016-0.311-0.019-0.69-0.095-1.14c-0.078-0.445-0.109-0.979-0.269-1.554c-0.476-2.339-1.584-5.677-3.44-9.72
		c-1.836-4.052-4.494-8.771-7.918-13.929c-3.461-5.13-7.738-10.676-12.9-16.28c-5.16-5.603-11.211-11.265-18.172-16.546
		c-6.941-5.299-14.867-10.112-23.54-14.074c-6.601-3.013-13.655-5.493-20.992-7.306c0.411-0.664,0.886-1.324,1.381-1.974
		c0.837,0.236,2.265,0.64,4.204,1.185c1.579,0.524,3.512,1.103,5.697,1.875c1.089,0.397,2.248,0.82,3.471,1.267
		c1.221,0.452,2.477,0.994,3.803,1.523c1.33,0.516,2.676,1.148,4.084,1.772c1.414,0.607,2.846,1.298,4.316,2.016
		c1.482,0.692,2.969,1.476,4.486,2.277c1.535,0.776,3.05,1.662,4.605,2.537c1.564,0.858,3.09,1.847,4.668,2.784
		c1.555,0.979,3.116,1.989,4.678,3.025c3.098,2.111,6.213,4.307,9.211,6.659c1.524,1.143,2.979,2.376,4.463,3.557
		c1.443,1.235,2.91,2.426,4.303,3.684c2.831,2.463,5.506,5.011,8.064,7.506c5.082,5.027,9.584,9.96,13.332,14.283
		c1.857,2.176,3.569,4.165,5.051,5.96c1.478,1.799,2.767,3.366,3.828,4.657c2.111,2.594,3.35,4.051,3.35,4.051
		s-1.128-1.543-3.104-4.242c-1.988-2.69-4.852-6.522-8.521-10.938c-1.835-2.207-3.874-4.557-6.07-7.008
		c-2.234-2.417-4.621-4.937-7.175-7.462c-2.563-2.515-5.244-5.084-8.082-7.568c-1.396-1.269-2.869-2.472-4.315-3.716
		c-1.49-1.193-2.949-2.438-4.479-3.593c-3.008-2.376-6.139-4.595-9.249-6.729c-1.567-1.048-3.14-2.069-4.7-3.06
		c-1.588-0.949-3.119-1.949-4.693-2.819c-1.564-0.886-3.088-1.782-4.629-2.569c-1.529-0.813-3.025-1.605-4.518-2.309
		c-1.48-0.726-2.919-1.433-4.348-2.04c-1.422-0.62-2.782-1.248-4.129-1.76c-1.34-0.524-2.609-1.062-3.842-1.51
		c-1.234-0.44-2.406-0.859-3.506-1.253c-2.211-0.764-4.175-1.337-5.773-1.855c-1.662-0.456-2.95-0.81-3.814-1.046
		c0.783-0.954,1.633-1.854,2.534-2.685c0.151-0.14,0.31-0.273,0.466-0.41c0.791,0.259,2.122,0.692,3.928,1.281
		c1.52,0.479,3.295,1.201,5.371,1.953c1.039,0.364,2.116,0.841,3.262,1.312c1.14,0.485,2.355,0.956,3.593,1.52
		c1.235,0.569,2.522,1.16,3.853,1.773c1.332,0.614,2.674,1.318,4.072,2.005c1.404,0.674,2.803,1.454,4.244,2.228
		c1.449,0.761,2.898,1.592,4.365,2.451c1.481,0.836,2.959,1.731,4.445,2.659c1.498,0.903,2.985,1.866,4.479,2.846
		c2.994,1.945,5.979,4.016,8.939,6.116c2.95,2.118,5.868,4.281,8.713,6.453c2.836,2.184,5.629,4.333,8.332,6.413
		c1.36,1.032,2.698,2.047,4.006,3.04c1.328,0.974,2.625,1.926,3.89,2.854c2.552,1.82,5.005,3.483,7.3,4.972
		c2.29,1.498,4.438,2.796,6.383,3.878c1.939,1.085,3.651,1.999,5.107,2.657c1.445,0.677,2.607,1.153,3.416,1.436
		c0.807,0.285,1.25,0.393,1.25,0.393s-1.725-0.607-4.507-2.143c-1.394-0.763-3.069-1.718-4.948-2.885
		c-0.938-0.586-1.936-1.21-2.967-1.9c-1.047-0.665-2.129-1.394-3.26-2.153c-2.26-1.518-4.648-3.25-7.181-5.073
		c-1.252-0.93-2.538-1.885-3.854-2.86c-1.301-0.999-2.631-2.019-3.981-3.057c-2.694-2.096-5.476-4.262-8.303-6.463
		c-2.838-2.191-5.754-4.379-8.705-6.521c-2.961-2.128-5.947-4.226-8.966-6.172c-1.504-0.984-2.999-1.951-4.51-2.859
		c-1.494-0.932-2.982-1.831-4.473-2.672c-1.479-0.863-2.939-1.699-4.398-2.464c-1.452-0.777-2.861-1.562-4.276-2.24
		c-1.411-0.688-2.76-1.403-4.106-2.01s-2.647-1.191-3.896-1.754c-1.251-0.558-2.48-1.022-3.633-1.501
		c-1.158-0.466-2.244-0.936-3.301-1.297c-2.101-0.742-3.916-1.461-5.437-1.927c-1.403-0.444-2.517-0.797-3.319-1.053
		c0.545-0.422,1.112-0.811,1.695-1.167l-0.004,0.017c0,0,1.7,0.468,4.677,1.288c0.739,0.213,1.579,0.407,2.458,0.684
		c0.877,0.279,1.825,0.581,2.838,0.903c1.012,0.327,2.092,0.653,3.223,1.037c1.123,0.413,2.303,0.848,3.533,1.3
		c0.617,0.227,1.246,0.458,1.885,0.693c0.631,0.261,1.273,0.525,1.927,0.796c1.303,0.547,2.667,1.074,4.039,1.685
		c1.362,0.632,2.762,1.28,4.192,1.943c1.416,0.694,2.836,1.454,4.293,2.198c1.453,0.759,2.879,1.618,4.351,2.44
		c1.454,0.85,2.887,1.777,4.353,2.675c2.871,1.893,5.773,3.84,8.549,5.974c2.801,2.103,5.511,4.319,8.188,6.539
		c1.338,1.106,2.693,2.206,4.066,3.255c1.359,1.025,2.699,2.039,4.018,3.035c2.637,2.003,5.225,3.919,7.789,5.599
		c2.551,1.698,5.096,3.131,7.536,4.271c2.466,1.092,4.815,1.893,6.948,2.379c1.076,0.209,2.078,0.413,3.016,0.52
		c0.943,0.065,1.801,0.185,2.583,0.185c0.778,0.001,1.474,0.003,2.078,0.003c0.603-0.025,1.114-0.087,1.526-0.125
		c0.826-0.081,1.266-0.123,1.266-0.123s-0.441-0.019-1.27-0.053c-0.412-0.017-0.918-0.037-1.517-0.061
		c-0.592-0.064-1.274-0.14-2.035-0.223c-0.761-0.082-1.587-0.291-2.489-0.451c-0.896-0.199-1.854-0.463-2.869-0.753
		c-2.01-0.657-4.225-1.539-6.527-2.746c-4.621-2.405-9.518-6.076-14.739-10.116c-0.233-0.18-0.476-0.366-0.709-0.548
		c3.058-3.098,14.067-13.91,23.007-18.437l3.691,0.462l0.994,0.124l0.126-1.024c0.03-0.251,0.089-0.586,0.157-0.884
		c0.068-0.308,0.151-0.613,0.246-0.916c0.183-0.607,0.428-1.192,0.692-1.767l0.448-0.832l0.518-0.785
		c0.176-0.258,0.389-0.486,0.581-0.731c0.136-0.19,0.308-0.349,0.476-0.509c1.973,0.672,7.316,2.721,9.855,6.639l0.991,1.652
		l0.063-3.37C303.82,18.503,299.515,16.44,297.001,15.464 M19.896,18.587c0.438-0.166,0.882-0.313,1.336-0.414
		c0.657-0.162,1.33-0.219,2.002-0.23c0.336-0.002,0.672,0.011,1.007,0.052c0.163,0.008,0.325,0.033,0.486,0.062
		c0.074,0.101,0.147,0.203,0.223,0.301c0.253,0.318,0.478,0.656,0.684,1.009l0.652,1.029c0.018,0.035,0.037,0.068,0.055,0.104
		C24.24,19.771,22.084,19.137,19.896,18.587 M50.03,20h0.071c-0.024,0.04-0.045,0.079-0.071,0.12V20z M57.733,36.957
		c-0.896,0.816-1.783,1.642-2.665,2.472c-2.248-2.731-9.431-10.521-22.38-16.397c0.588-0.827,1.203-1.634,1.869-2.389
		c0.366-0.434,0.758-0.835,1.153-1.234c0.14-0.146,0.29-0.28,0.438-0.416c9.294,4.788,19.08,14.9,21.778,17.796
		C57.862,36.844,57.798,36.9,57.733,36.957 M62.155,33.101c-1.168,0.993-2.321,2.012-3.477,3.027
		c-2.676-2.872-12.382-12.907-21.735-17.848c0.442-0.318,0.855-0.7,1.324-0.958l0.688-0.423l0.716-0.331
		c0.235-0.128,0.482-0.195,0.727-0.265c0.246-0.061,0.489-0.174,0.737-0.196l0.742-0.084c0.038-0.009,0.176-0.02,0.133-0.023
		l0.219,0.008l0.44,0.016c0.633,0,1.043,0.109,1.563,0.193l0.76,0.201l0.73,0.282c0.475,0.216,0.935,0.465,1.367,0.763
		c0.433,0.297,0.833,0.641,1.214,1.007c0.365,0.384,0.723,0.778,1.024,1.219c0.302,0.418,0.598,0.919,0.779,1.318l0.956,2.116
		l0.886-2.1c4.461,4.13,9.21,9.332,11.065,11.399C62.726,32.649,62.443,32.873,62.155,33.101 M66.724,29.491
		c-0.967,0.765-1.947,1.538-2.923,2.31c-1.866-2.087-6.765-7.471-11.379-11.709c0.201-0.387,0.406-0.775,0.608-1.161
		c0.369-0.693,0.755-1.379,1.153-2.055c0.329-0.559,0.666-1.11,1.006-1.659c3.977,3.261,10.292,10.773,12.538,13.499
		C67.39,28.969,67.053,29.225,66.724,29.491 M71.355,26.113c-0.923,0.679-1.876,1.332-2.818,2.01
		c-2.254-2.741-8.692-10.419-12.809-13.756c0.314-0.491,0.628-0.982,0.956-1.461c0.855-1.236,1.759-2.446,2.731-3.571
		c4.387,3.927,10.855,13.3,12.793,16.17C71.923,25.708,71.641,25.909,71.355,26.113 M75.985,22.975
		c-0.772,0.498-1.562,0.982-2.336,1.503c-0.207,0.147-0.418,0.298-0.625,0.446c-1.976-2.935-8.42-12.287-12.941-16.333
		c0.347-0.374,0.702-0.737,1.067-1.085c1.97,0.214,3.948,0.462,5.909,0.754c0.22,0.033,0.437,0.074,0.656,0.108l8.532,14.439
		C76.159,22.864,76.074,22.918,75.985,22.975 M80.553,20.072c-0.854,0.544-1.742,1.106-2.617,1.663L70.288,8.791
		c1.124,0.205,2.239,0.433,3.334,0.698c1.054,0.266,2.139,0.563,3.011,0.981c0.2,0.09,0.428,0.245,0.491,0.284
		c0.189,0.185,0.462,0.394,0.582,0.555c0.293,0.311,0.637,0.748,0.924,1.177c0.591,0.87,1.111,1.829,1.578,2.814
		c0.463,0.982,0.895,2.018,1.25,3.021l0.368,1.037C81.402,19.597,80.982,19.832,80.553,20.072 M106.785,8.126
		c-1.632,0.522-3.628,1.124-5.825,2.065c-1.109,0.444-2.288,0.918-3.532,1.416c-0.621,0.25-1.259,0.506-1.912,0.768
		c-0.653,0.263-1.29,0.601-1.957,0.908c-1.327,0.633-2.709,1.292-4.14,1.974c-0.71,0.352-1.455,0.666-2.17,1.063
		c-0.714,0.4-1.439,0.806-2.173,1.218c-0.595,0.333-1.201,0.673-1.808,1.014l0.084-0.229c0.26-0.707,0.643-1.499,1.04-2.219
		c0.408-0.73,0.858-1.438,1.349-2.116c0.978-1.359,2.13-2.586,3.408-3.65c2.568-2.119,5.721-3.476,9.035-3.907
		c0.824-0.114,1.671-0.19,2.496-0.188c0.871-0.003,1.776-0.052,2.588,0.029l1.248,0.072l1.253,0.169
		c0.842,0.084,1.649,0.314,2.468,0.489c0.352,0.104,0.703,0.212,1.051,0.325C108.579,7.554,107.752,7.817,106.785,8.126
		 M130.348,10.869c0.057-0.148,0.101-0.304,0.163-0.449c0.399-0.918,0.89-1.792,1.512-2.521c0.614-0.738,1.356-1.322,2.186-1.699
		c0.836-0.364,1.759-0.523,2.711-0.466c0.104,0.007,0.271,0.007,0.323,0.02l0.402,0.053l0.804,0.104
		c0.478,0.122,0.942,0.182,1.424,0.347c0.485,0.139,0.959,0.304,1.42,0.506c0.468,0.185,0.912,0.425,1.354,0.662
		c0.44,0.247,0.864,0.519,1.274,0.812c0.244,0.18,0.474,0.38,0.709,0.573C139.813,9.222,135.027,9.91,130.348,10.869 M155.53,8.333
		c-1.313,0-2.629,0.027-3.94,0.067c0.323-0.244,0.654-0.479,0.997-0.698c1.539-0.972,3.252-1.691,5.045-2.138
		c1.791-0.47,3.657-0.665,5.529-0.707c0.936-0.014,1.877,0.018,2.816,0.086c0.935,0.073,1.891,0.186,2.803,0.32
		c0.973,0.151,1.898,0.321,2.809,0.52c0.922,0.209,1.84,0.438,2.743,0.714c1.804,0.547,3.566,1.224,5.222,2.092
		c1.395,0.716,2.707,1.575,3.91,2.554C174.363,9.284,164.982,8.333,155.53,8.333 M267.503,17.393
		c0.144-0.383,0.259-0.786,0.437-1.146c0.156-0.377,0.343-0.727,0.548-1.061c0.194-0.341,0.438-0.632,0.675-0.916
		c0.262-0.255,0.514-0.521,0.816-0.684c0.271-0.234,0.617-0.28,0.922-0.434l0.512-0.069c0.168-0.038,0.342-0.054,0.525-0.02
		l0.543,0.039c0.029,0,0.128,0.011,0.1,0.003l0.137,0.028c-1.717,1.389-3.537,3.033-5.357,4.785
		C267.41,17.745,267.452,17.567,267.503,17.393 M217.947,8.354c0.009,0.021,0.02,0.05,0.039,0.103
		c0.056,0.178,0.05,0.399-0.006,0.562c-0.04,0.113-0.031,0.083-0.051,0.131c-0.024,0.046-0.035,0.06-0.047,0.078
		C217.958,8.747,217.965,8.483,217.947,8.354 M216.12,9.163C216.252,9.187,216.151,9.384,216.12,9.163 M240.135,23.588
		c-1.498-0.913-2.961-1.854-4.449-2.718c-1.502-0.834-2.959-1.707-4.441-2.477c-1.488-0.755-2.939-1.524-4.384-2.229
		c-1.46-0.672-2.888-1.329-4.277-1.969c-1.399-0.618-2.789-1.151-4.116-1.704c-0.668-0.268-1.326-0.529-1.971-0.787
		c-0.654-0.229-1.298-0.455-1.928-0.676c-1.26-0.44-2.465-0.862-3.612-1.265c-1.159-0.372-2.274-0.69-3.313-1.008
		c-1.041-0.312-2.014-0.605-2.916-0.876c-0.9-0.265-1.729-0.45-2.478-0.643c-0.932-0.229-1.722-0.423-2.394-0.589
		c0.074-0.025,0.146-0.056,0.219-0.08c1.127-0.366,2.296-0.561,3.466-0.565c1.212,0.004,2.466,0.098,3.687,0.262
		c2.449,0.324,4.858,0.963,7.045,2.008c0.545,0.262,1.074,0.552,1.57,0.869l0.358,0.244l0.173,0.126l0.055,0.04
		c-0.078-0.058,0.17,0.156,0.459,0.193c0.338-0.049,0.362,0.196,0.984-0.438c0.002-0.014,0.003-0.021,0.005-0.034
		c0.042-0.033,0.097-0.075,0.146-0.105c0.109-0.072,0.228-0.145,0.351-0.215c1-0.566,2.149-0.993,3.304-1.271
		c2.315-0.562,4.768-0.488,6.957,0.356c0.541,0.207,1.092,0.461,1.571,0.755l0.825,0.489c0.256,0.167,0.477,0.339,0.717,0.506
		c0.941,0.693,1.863,1.512,2.635,2.432c0.785,0.914,1.478,1.912,2.059,2.974c0.574,1.045,1.076,2.218,1.367,3.287l0.586,2.154
		l1.228-1.842l0.681-0.816l0.729-0.821c0.494-0.544,0.998-1.079,1.521-1.6c0.02-0.02,0.041-0.038,0.061-0.058
		c0.104,0.001,0.199-0.004,0.308-0.001c0.329,0.016,0.658,0.026,0.988,0.061c0.196,0.016,0.394,0.041,0.588,0.063l-3.991,8.216
		C240.381,23.755,240.258,23.67,240.135,23.588 M242.18,24.964l4.369-8.993c0.418,0.094,0.834,0.195,1.235,0.331
		c0.312,0.101,0.629,0.187,0.925,0.318c0.299,0.127,0.608,0.233,0.898,0.375l0.861,0.44c0.086,0.048,0.168,0.106,0.252,0.159
		c-2.293,2.549-4.949,6.956-6.149,9.029C243.777,26.062,242.979,25.509,242.18,24.964 M245.387,27.215
		c1.18-2.037,3.932-6.614,6.184-9.066c0.16,0.119,0.316,0.244,0.468,0.374c0.236,0.209,0.509,0.384,0.708,0.63l0.645,0.69
		c0.197,0.245,0.365,0.514,0.551,0.767l0.273,0.386l0.213,0.424l0.094,0.184c-1.961,2.188-4.737,6.433-5.805,8.102
		C247.624,28.85,246.51,28.024,245.387,27.215 M249.504,30.33c0.971-1.519,3.622-5.584,5.504-7.776l0.258,0.507l0.797-0.227
		c0.761-0.216,1.58-0.407,2.381-0.571c0.805-0.163,1.613-0.303,2.42-0.397c0.806-0.092,1.613-0.165,2.4-0.154
		c0.098,0,0.19,0.013,0.287,0.016c-4.746,4.901-8.916,9.755-10.406,11.513C251.95,32.256,250.732,31.287,249.504,30.33
		 M256.973,36.445c-1.004-0.853-2.032-1.709-3.062-2.564c1.543-1.821,5.979-6.981,10.931-12.05c0.229,0.038,0.452,0.083,0.672,0.133
		l1.17,0.262l0.095-1.162c0.03-0.381,0.084-0.817,0.151-1.228c0.008-0.044,0.02-0.087,0.026-0.13
		c2.376-2.341,4.79-4.554,6.995-6.279l0.318,0.099c0.371,0.1,0.742,0.279,1.096,0.433l0.511,0.272l0.466,0.314
		c0.291,0.227,0.553,0.473,0.772,0.744c0.209,0.276,0.386,0.568,0.503,0.88c0.111,0.283,0.176,0.7,0.168,0.859l-0.082,1.603
		l1.469-0.586c0.158-0.062,0.367-0.142,0.559-0.201c0.197-0.065,0.396-0.122,0.594-0.173c0.148-0.04,0.296-0.068,0.443-0.097
		c-8.237,5.901-19.832,17.192-22.57,19.892C257.79,37.127,257.385,36.792,256.973,36.445 M262.611,40.982
		c-0.561-0.434-1.113-0.859-1.682-1.299c-0.655-0.513-1.308-1.037-1.961-1.574c2.998-2.952,15.496-15.104,23.614-20.583
		c0.12,0.04,0.255,0.065,0.328,0.132c0.112,0.048,0.181,0.13,0.254,0.201c0.062,0.09,0.125,0.178,0.173,0.302
		c0.03,0.156,0.084,0.213,0.123,0.479l0.239,1.323l0.203,1.315l0.08,0.648c0.022,0.198,0.043,0.456,0.047,0.572l0.022,0.736
		C275.094,28.514,265.266,38.271,262.611,40.982 M256.659,67.579c-0.547-0.849-1.101-1.708-1.658-2.574
		c-0.558-0.868-1.114-1.751-1.737-2.573c-0.605-0.84-1.217-1.688-1.834-2.544c-0.311-0.428-0.621-0.857-0.932-1.289l-0.486-0.669
		l-0.521-0.627c-1.402-1.664-2.784-3.398-4.271-5.08c-1.586-1.592-3.175-3.232-4.826-4.849c-6.785-6.294-14.967-11.764-24.004-16.17
		c-9.039-4.415-18.918-7.801-29.194-10.148c-5.152-1.107-10.386-2.07-15.698-2.61c-2.643-0.34-5.334-0.48-8.02-0.666
		c-1.336-0.065-2.655-0.074-3.984-0.113c-0.678-0.008-1.294-0.052-2.023-0.029l-2.014,0.044c-2.687,0.002-5.36,0.264-8.034,0.44
		l-3.991,0.459c-1.332,0.133-2.652,0.341-3.968,0.566c-5.29,0.76-10.461,2.053-15.554,3.422
		c-10.125,2.976-19.733,7.139-28.345,12.334c-8.629,5.192-16.194,11.389-22.508,18.184l-1.206,1.243l-1.089,1.298
		c-0.724,0.861-1.441,1.718-2.153,2.567l-1.065,1.27l-0.528,0.631l-0.507,0.703c-0.641,0.897-1.278,1.789-1.909,2.672
		c-0.63,0.884-1.256,1.759-1.875,2.627c-0.568,0.903-1.098,1.819-1.64,2.715c-1.067,1.803-2.185,3.533-3.02,5.37
		c-3.69,7.159-6.12,14.204-7.485,20.601c-1.371,6.4-1.815,12.115-1.783,16.795c0.01,4.687,0.47,8.347,0.916,10.807
		c0.212,1.232,0.405,2.171,0.572,2.796c0.163,0.623,0.247,0.945,0.247,0.945s-0.042-0.33-0.124-0.969
		c-0.077-0.638-0.164-1.589-0.264-2.826c-0.189-2.474-0.286-6.119-0.059-10.724c0.259-4.603,0.843-10.18,2.271-16.426
		c0.156-0.706,0.329-1.423,0.512-2.145c1.691,1.876,5.156,5.481,10.359,9.795c-0.053,0.386-0.131,1.001-0.213,1.82
		c-0.142,1.442-0.328,3.503-0.398,5.983c-0.089,2.479-0.098,5.377,0.088,8.475c0.166,3.098,0.478,6.401,1.064,9.665
		c0.271,1.635,0.618,3.258,1,4.844c0.381,1.587,0.827,3.133,1.308,4.612c0.265,0.729,0.526,1.448,0.782,2.152
		c0.288,0.69,0.57,1.366,0.844,2.023c0.305,0.645,0.601,1.271,0.888,1.876c0.317,0.591,0.623,1.161,0.917,1.708
		c0.639,1.067,1.245,2.028,1.852,2.834c0.562,0.835,1.167,1.479,1.612,2.042c0.471,0.545,0.889,0.931,1.15,1.212
		c0.268,0.275,0.411,0.422,0.411,0.422s-0.127-0.161-0.365-0.464c-0.232-0.306-0.597-0.735-1.013-1.315
		c-0.392-0.6-0.928-1.28-1.409-2.151c-0.528-0.839-1.025-1.844-1.574-2.928c-0.25-0.554-0.51-1.132-0.78-1.729
		c-0.239-0.61-0.486-1.241-0.74-1.89c-0.222-0.659-0.452-1.336-0.686-2.028c-0.201-0.702-0.407-1.42-0.617-2.149
		c-0.382-1.47-0.755-2.992-1.048-4.56c-0.298-1.566-0.56-3.165-0.748-4.775c-0.213-1.606-0.329-3.225-0.473-4.812
		c-0.117-1.591-0.208-3.159-0.25-4.68c-0.057-1.52-0.048-2.99-0.057-4.385c-0.008-1.394,0.013-2.713,0.049-3.929
		c0.087-2.432,0.179-4.46,0.283-5.873c0.013-0.157,0.024-0.305,0.035-0.447c1.633,1.299,3.411,2.646,5.336,4.019
		c-0.064,0.304-0.136,0.665-0.212,1.093c-0.239,1.35-0.51,3.288-0.644,5.628c-0.059,1.17-0.081,2.438-0.068,3.779
		c0.02,0.67,0.041,1.357,0.062,2.062c0.045,0.702,0.091,1.419,0.138,2.148c0.136,1.456,0.298,2.957,0.537,4.473
		c0.246,1.514,0.506,3.052,0.875,4.565c0.33,1.526,0.744,3.022,1.149,4.488c0.439,1.471,0.895,2.907,1.374,4.282
		c0.952,2.753,2.004,5.265,3.027,7.357c1.007,2.101,2,3.773,2.747,4.905c0.744,1.137,1.239,1.733,1.239,1.733
		s-0.456-0.628-1.124-1.804c-0.335-0.586-0.717-1.312-1.136-2.154c-0.406-0.848-0.868-1.802-1.323-2.865
		c-0.911-2.126-1.856-4.653-2.737-7.403c-0.436-1.379-0.847-2.812-1.238-4.271c-0.382-1.475-0.787-2.964-1.093-4.466
		c-0.349-1.496-0.59-3.015-0.819-4.508c-0.22-1.496-0.365-2.976-0.485-4.41c-0.039-0.718-0.078-1.424-0.116-2.115
		c-0.014-0.691-0.027-1.369-0.041-2.027c0-1.318,0.034-2.563,0.103-3.71c0.119-2.296,0.358-4.197,0.579-5.514
		c0.039-0.229,0.076-0.435,0.112-0.628c1.654,1.158,3.406,2.33,5.264,3.501c-0.016,0.353-0.029,0.797-0.043,1.325
		c-0.013,0.709-0.018,1.569-0.002,2.556c0.022,0.986,0.049,2.1,0.149,3.309c0.065,1.212,0.216,2.518,0.355,3.9
		c0.166,1.379,0.365,2.831,0.605,4.327c0.28,1.489,0.512,3.039,0.891,4.585c0.175,0.776,0.351,1.559,0.527,2.344
		c0.216,0.775,0.432,1.554,0.649,2.332c0.412,1.563,0.954,3.087,1.47,4.59c0.477,1.517,1.124,2.946,1.676,4.354
		c0.531,1.417,1.216,2.714,1.797,3.972c0.302,0.623,0.576,1.239,0.877,1.816c0.317,0.571,0.623,1.12,0.917,1.648
		c0.593,1.053,1.113,2.031,1.643,2.857c0.543,0.817,1.015,1.53,1.404,2.117c0.778,1.173,1.222,1.843,1.222,1.843
		s-0.411-0.691-1.13-1.9c-0.359-0.604-0.795-1.337-1.295-2.178c-0.489-0.847-0.948-1.854-1.516-2.913
		c-0.276-0.534-0.564-1.09-0.863-1.665c-0.281-0.583-0.536-1.204-0.817-1.832c-0.541-1.268-1.182-2.571-1.667-3.995
		c-0.506-1.412-1.105-2.846-1.533-4.364c-0.466-1.504-0.958-3.026-1.32-4.586c-0.201-0.774-0.401-1.548-0.601-2.318
		c-0.168-0.778-0.335-1.554-0.502-2.322c-0.363-1.532-0.578-3.067-0.843-4.542c-0.226-1.48-0.41-2.919-0.563-4.282
		c-0.126-1.367-0.265-2.658-0.318-3.855c-0.15-2.391-0.193-4.386-0.183-5.78c0.003-0.266,0.007-0.502,0.011-0.723
		c2.074,1.282,4.271,2.559,6.589,3.812c-0.049,0.357-0.099,0.809-0.16,1.351c-0.053,0.713-0.15,1.579-0.173,2.574
		c-0.015,0.497-0.03,1.025-0.047,1.584c0.01,0.558,0.021,1.144,0.032,1.755c0.015,1.224,0.133,2.545,0.236,3.942
		c0.176,1.389,0.309,2.863,0.613,4.361c0.138,0.751,0.278,1.515,0.419,2.287c0.183,0.765,0.369,1.537,0.556,2.317
		c0.324,1.572,0.902,3.101,1.362,4.66c0.501,1.547,1.146,3.044,1.702,4.543c0.639,1.468,1.325,2.884,1.963,4.266
		c0.7,1.35,1.45,2.618,2.122,3.838c0.171,0.303,0.339,0.603,0.505,0.897c0.186,0.282,0.37,0.561,0.55,0.835
		c0.36,0.548,0.709,1.075,1.043,1.583c0.683,1.006,1.256,1.961,1.892,2.719c0.606,0.777,1.134,1.455,1.57,2.014
		c0.869,1.114,1.366,1.751,1.366,1.751s-0.464-0.661-1.276-1.819c-0.406-0.577-0.898-1.279-1.463-2.084
		c-0.596-0.781-1.111-1.771-1.75-2.796c-0.314-0.517-0.64-1.054-0.978-1.61c-0.169-0.278-0.34-0.562-0.515-0.849
		c-0.154-0.299-0.309-0.602-0.468-0.909c-0.621-1.236-1.318-2.518-1.961-3.879c-0.588-1.388-1.238-2.803-1.83-4.267
		c-0.512-1.495-1.111-2.986-1.566-4.524c-0.421-1.548-0.932-3.069-1.242-4.618c-0.174-0.769-0.348-1.531-0.52-2.285
		c-0.13-0.761-0.259-1.513-0.385-2.253c-0.288-1.475-0.384-2.925-0.564-4.288c-0.105-1.37-0.227-2.666-0.246-3.865
		c-0.013-0.6-0.026-1.174-0.038-1.72c0.008-0.545,0.016-1.064,0.022-1.551c0.002-0.975,0.078-1.819,0.114-2.516
		c0.031-0.346,0.059-0.655,0.085-0.924c2.168,1.149,4.438,2.276,6.812,3.365c-0.05,0.384-0.096,0.887-0.152,1.516
		c-0.04,0.726-0.114,1.608-0.112,2.619c0.003,0.506,0.006,1.044,0.009,1.612c0.029,0.564,0.06,1.16,0.093,1.78
		c0.046,1.243,0.236,2.579,0.384,3.994c0.248,1.4,0.411,2.896,0.792,4.403c0.172,0.757,0.347,1.525,0.525,2.304
		c0.231,0.765,0.464,1.538,0.7,2.317c0.421,1.576,1.089,3.094,1.652,4.646c0.596,1.54,1.36,3.01,2.021,4.492
		c0.749,1.44,1.557,2.821,2.3,4.175c0.811,1.314,1.669,2.539,2.442,3.724c0.197,0.294,0.391,0.584,0.582,0.869
		c0.212,0.271,0.421,0.536,0.627,0.798c0.412,0.523,0.81,1.028,1.192,1.513c0.78,0.956,1.435,1.88,2.151,2.586
		c0.684,0.732,1.28,1.369,1.772,1.895c0.981,1.049,1.541,1.648,1.541,1.648s-0.537-0.62-1.478-1.706
		c-0.47-0.543-1.04-1.201-1.695-1.956c-0.685-0.729-1.304-1.678-2.044-2.657c-0.366-0.492-0.747-1.007-1.141-1.538
		c-0.198-0.266-0.399-0.535-0.603-0.809c-0.183-0.289-0.368-0.582-0.557-0.879c-0.738-1.197-1.558-2.433-2.328-3.757
		c-0.702-1.362-1.467-2.749-2.172-4.191c-0.616-1.484-1.334-2.954-1.883-4.489c-0.516-1.548-1.136-3.059-1.511-4.62
		c-0.212-0.774-0.423-1.541-0.631-2.298c-0.165-0.768-0.329-1.526-0.49-2.271c-0.365-1.483-0.514-2.955-0.749-4.332
		c-0.135-1.39-0.313-2.702-0.349-3.921c-0.028-0.608-0.054-1.191-0.08-1.746c0.001-0.555,0.003-1.081,0.004-1.576
		c-0.014-0.989,0.042-1.849,0.07-2.557c0.033-0.45,0.061-0.831,0.09-1.148c2.012,0.903,4.096,1.778,6.251,2.617
		c-0.035,0.411-0.079,1.066-0.095,1.928c-0.025,1.521-0.027,3.697,0.258,6.285c0.129,1.295,0.318,2.692,0.566,4.163
		c0.238,1.474,0.596,3.008,0.999,4.586c0.411,1.575,0.915,3.184,1.507,4.789c0.566,1.614,1.272,3.207,2.029,4.771
		c0.371,0.785,0.799,1.544,1.195,2.311c0.434,0.748,0.859,1.498,1.306,2.225c0.912,1.445,1.863,2.831,2.861,4.112
		c1.008,1.274,2.058,2.441,3.086,3.51c0.527,0.521,1.04,1.028,1.536,1.518c0.521,0.463,1.024,0.91,1.508,1.338
		c0.98,0.839,1.931,1.545,2.774,2.159c0.87,0.583,1.6,1.123,2.244,1.507c1.287,0.76,2.022,1.193,2.022,1.193
		s-0.674-0.521-1.854-1.432c-0.595-0.445-1.262-1.058-2.054-1.718c-0.772-0.685-1.609-1.495-2.507-2.384
		c-0.438-0.456-0.894-0.93-1.367-1.42c-0.445-0.516-0.905-1.047-1.378-1.594c-0.916-1.115-1.84-2.325-2.717-3.628
		c-0.901-1.285-1.749-2.667-2.555-4.101c-0.396-0.72-0.767-1.462-1.148-2.2c-0.342-0.759-0.717-1.505-1.035-2.276
		c-0.645-1.539-1.245-3.096-1.757-4.655c-0.53-1.554-0.951-3.114-1.343-4.628c-0.381-1.517-0.676-3-0.944-4.409
		c-0.261-1.41-0.463-2.753-0.606-3.997c-0.281-2.489-0.434-4.573-0.466-6.03c-0.013-0.449-0.02-0.827-0.023-1.146
		c13.349,4.943,29.33,8.426,47.884,8.426c1.939,0,3.914-0.038,5.909-0.117c14.868-0.585,28.261-3.591,40.019-7.791
		c0.006,0.326,0.008,0.707,0.004,1.154c0.008,1.543-0.074,3.761-0.399,6.396c-0.15,1.318-0.343,2.743-0.632,4.235
		c-0.264,1.496-0.652,3.05-1.082,4.647c-0.481,1.582-0.973,3.22-1.61,4.833c-0.603,1.628-1.354,3.223-2.129,4.803
		c-0.813,1.561-1.673,3.102-2.644,4.539c-0.473,0.728-0.963,1.435-1.476,2.113c-0.252,0.344-0.501,0.686-0.749,1.025
		c-0.266,0.325-0.529,0.647-0.792,0.968c-0.262,0.321-0.522,0.639-0.78,0.954c-0.272,0.303-0.541,0.603-0.809,0.898
		c-0.525,0.602-1.049,1.185-1.6,1.712c-1.06,1.098-2.129,2.069-3.121,2.973c-1.035,0.843-1.945,1.685-2.832,2.325
		c-0.872,0.657-1.604,1.288-2.269,1.715c-0.653,0.443-1.161,0.803-1.506,1.056c-0.347,0.25-0.53,0.384-0.53,0.384
		s0.207-0.092,0.596-0.263c0.394-0.167,0.964-0.424,1.686-0.765c0.737-0.315,1.564-0.816,2.557-1.331
		c0.986-0.526,2.021-1.246,3.183-1.991c1.101-0.827,2.336-1.682,3.509-2.751c0.613-0.505,1.202-1.068,1.799-1.652
		c0.299-0.292,0.6-0.587,0.906-0.884c0.285-0.316,0.573-0.636,0.863-0.958c0.291-0.321,0.585-0.648,0.88-0.976
		c0.276-0.343,0.558-0.688,0.838-1.036c0.58-0.684,1.101-1.426,1.624-2.174c1.061-1.488,2.01-3.087,2.91-4.711
		c0.863-1.644,1.65-3.329,2.309-5.032c0.696-1.691,1.221-3.413,1.688-5.085c0.432-1.683,0.815-3.318,1.072-4.888
		c0.276-1.565,0.469-3.057,0.59-4.438c0.22-2.766,0.203-5.078,0.123-6.698c-0.043-0.778-0.101-1.399-0.148-1.838
		c2.668-1,5.247-2.06,7.736-3.165c-0.028,0.367-0.062,0.804-0.102,1.318c-0.062,0.811-0.139,1.795-0.226,2.925
		c-0.046,1.134-0.277,2.393-0.485,3.77c-0.105,0.688-0.216,1.405-0.33,2.147c-0.125,0.739-0.199,1.516-0.417,2.284
		c-0.368,1.552-0.757,3.188-1.159,4.882c-0.537,1.654-1.093,3.364-1.658,5.103c-0.707,1.681-1.396,3.407-2.153,5.1
		c-0.422,0.827-0.845,1.653-1.265,2.478l-0.629,1.233c-0.223,0.402-0.476,0.786-0.709,1.179c-0.479,0.78-0.951,1.555-1.418,2.319
		c-0.476,0.761-1.026,1.457-1.523,2.173c-0.973,1.45-2.083,2.721-3.087,3.968c-0.507,0.62-1.063,1.165-1.567,1.725
		c-0.513,0.553-1.001,1.094-1.52,1.564c-0.504,0.485-0.985,0.949-1.444,1.392c-0.481,0.42-0.937,0.817-1.364,1.191
		c-0.851,0.758-1.658,1.337-2.301,1.842c-1.318,0.968-2.131,1.438-2.131,1.438s0.832-0.432,2.199-1.339
		c0.668-0.473,1.509-1.018,2.397-1.737c0.448-0.355,0.927-0.733,1.429-1.133c0.48-0.426,0.985-0.874,1.512-1.342
		c0.537-0.457,1.049-0.985,1.585-1.524c0.526-0.547,1.11-1.08,1.642-1.688c1.053-1.224,2.229-2.468,3.254-3.91
		c0.52-0.713,1.094-1.407,1.592-2.168c0.492-0.765,0.99-1.539,1.492-2.319c0.246-0.393,0.512-0.777,0.745-1.181l0.669-1.237
		c0.444-0.827,0.893-1.657,1.34-2.488c0.817-1.698,1.537-3.446,2.269-5.153c0.593-1.761,1.175-3.494,1.737-5.172
		c0.418-1.719,0.822-3.381,1.205-4.957c0.217-0.783,0.291-1.57,0.416-2.323c0.112-0.754,0.223-1.482,0.328-2.182
		c0.209-1.398,0.435-2.678,0.453-3.829c0.066-1.146,0.124-2.146,0.172-2.968c0.045-0.789,0.08-1.409,0.105-1.849
		c2.4-1.089,4.718-2.218,6.945-3.375c-0.031,0.381-0.07,0.844-0.117,1.395c-0.067,0.809-0.15,1.791-0.245,2.917
		c-0.05,0.562-0.103,1.162-0.158,1.794c-0.092,0.627-0.188,1.285-0.287,1.973c-0.198,1.377-0.413,2.867-0.641,4.445
		c-0.336,1.556-0.691,3.197-1.058,4.895c-0.16,0.855-0.412,1.702-0.668,2.558c-0.25,0.858-0.504,1.727-0.761,2.602l-0.389,1.316
		l-0.481,1.295c-0.322,0.863-0.643,1.731-0.965,2.6c-0.287,0.884-0.699,1.714-1.066,2.561c-0.375,0.844-0.748,1.684-1.117,2.518
		c-0.426,0.806-0.848,1.605-1.266,2.396c-0.421,0.79-0.82,1.58-1.301,2.305c-0.46,0.737-0.912,1.463-1.355,2.173
		c-0.447,0.707-0.955,1.351-1.412,2.004c-0.896,1.323-1.914,2.439-2.783,3.529c-0.957,1.008-1.785,1.986-2.618,2.754
		c-0.797,0.809-1.556,1.442-2.167,1.979c-0.636,0.508-1.134,0.912-1.495,1.156c-0.353,0.258-0.552,0.38-0.552,0.38
		s0.204-0.113,0.566-0.355c0.375-0.229,0.89-0.61,1.551-1.092c0.637-0.511,1.427-1.114,2.262-1.892
		c0.874-0.734,1.751-1.677,2.736-2.677c0.904-1.072,1.961-2.174,2.9-3.483c0.478-0.646,1.008-1.284,1.479-1.985
		c0.466-0.706,0.941-1.427,1.426-2.159c0.506-0.721,0.93-1.508,1.375-2.293c0.443-0.79,0.893-1.588,1.346-2.393
		c0.396-0.834,0.795-1.674,1.196-2.517c0.394-0.848,0.833-1.68,1.146-2.564c0.334-0.877,0.668-1.754,1-2.627l0.498-1.308
		l0.404-1.329c0.264-0.884,0.528-1.761,0.788-2.628c0.267-0.865,0.526-1.721,0.695-2.584c0.384-1.716,0.755-3.374,1.106-4.946
		c0.241-1.592,0.469-3.098,0.68-4.487c0.104-0.695,0.203-1.361,0.3-1.995c0.05-0.639,0.097-1.244,0.141-1.813
		c0.084-1.138,0.156-2.131,0.218-2.948c0.065-0.905,0.114-1.586,0.146-2.021c2.587-1.369,5.057-2.772,7.396-4.188
		c-0.033,0.326-0.068,0.7-0.109,1.121c-0.08,0.83-0.18,1.84-0.291,2.996c-0.079,1.161-0.305,2.454-0.521,3.867
		c-0.234,1.41-0.422,2.95-0.738,4.556c-0.35,1.602-0.717,3.287-1.1,5.032c-0.43,1.733-0.97,3.499-1.466,5.308
		c-0.546,1.794-1.231,3.573-1.847,5.377c-0.719,1.762-1.42,3.536-2.193,5.244c-0.84,1.676-1.572,3.378-2.488,4.913
		c-0.438,0.78-0.869,1.547-1.289,2.298c-0.455,0.729-0.904,1.443-1.338,2.14c-0.421,0.704-0.875,1.359-1.324,1.987
		c-0.448,0.628-0.862,1.25-1.293,1.821c-0.886,1.126-1.668,2.184-2.439,3.058c-0.736,0.905-1.448,1.632-2.014,2.251
		c-1.172,1.197-1.904,1.817-1.904,1.817s0.766-0.58,2.003-1.718c0.599-0.59,1.353-1.282,2.14-2.15
		c0.822-0.837,1.666-1.856,2.592-2.964c0.457-0.56,0.896-1.17,1.371-1.787c0.477-0.616,0.959-1.262,1.41-1.955
		c0.465-0.686,0.942-1.391,1.43-2.11c0.459-0.738,0.898-1.511,1.363-2.286c0.963-1.533,1.742-3.234,2.631-4.912
		c0.823-1.71,1.58-3.487,2.342-5.259c0.64-1.819,1.352-3.616,1.922-5.428c0.521-1.824,1.084-3.61,1.535-5.36
		c0.388-1.767,0.763-3.475,1.117-5.094c0.314-1.627,0.498-3.185,0.729-4.612c0.223-1.429,0.421-2.739,0.477-3.915
		c0.09-1.17,0.17-2.19,0.234-3.031c0.062-0.794,0.109-1.422,0.145-1.869c2.914-1.797,5.633-3.606,8.142-5.385
		c-0.026,0.387-0.058,0.848-0.095,1.393c-0.058,0.844-0.127,1.867-0.207,3.042c-0.098,1.174-0.338,2.482-0.51,3.92
		c-0.097,0.718-0.197,1.466-0.301,2.239c-0.134,0.77-0.311,1.558-0.471,2.372c-0.342,1.624-0.633,3.353-1.141,5.094
		c-0.476,1.747-0.886,3.577-1.523,5.372c-0.294,0.905-0.592,1.817-0.891,2.732c-0.291,0.919-0.678,1.807-1.015,2.713
		c-0.35,0.901-0.698,1.804-1.048,2.701c-0.385,0.884-0.77,1.764-1.148,2.637c-0.727,1.765-1.617,3.417-2.399,5.057
		c-0.845,1.606-1.675,3.155-2.492,4.605c-0.841,1.439-1.623,2.807-2.42,4.024c-1.548,2.465-2.938,4.456-3.949,5.823
		c-1.009,1.369-1.639,2.111-1.639,2.111s0.668-0.708,1.75-2.023c0.542-0.657,1.187-1.468,1.907-2.41
		c0.713-0.949,1.52-2.021,2.328-3.238c0.846-1.194,1.682-2.54,2.58-3.956c0.883-1.424,1.758-2.963,2.642-4.564
		c0.825-1.632,1.763-3.28,2.534-5.042c0.406-0.872,0.812-1.752,1.222-2.635c0.388-0.893,0.731-1.808,1.099-2.714
		c0.348-0.912,0.75-1.806,1.053-2.731c0.312-0.923,0.621-1.842,0.929-2.754c0.662-1.811,1.099-3.657,1.596-5.423
		c0.531-1.758,0.808-3.515,1.155-5.159c0.161-0.825,0.338-1.625,0.473-2.404c0.103-0.784,0.202-1.542,0.299-2.27
		c0.181-1.457,0.385-2.789,0.47-3.978c0.062-1.191,0.114-2.229,0.159-3.085c0.054-1.016,0.092-1.765,0.115-2.212
		c0.76-0.55,1.508-1.097,2.229-1.638c1.566-1.176,3.066-2.35,4.504-3.516c0.002,0.22,0.004,0.45,0.004,0.702
		c0.009,1.731-0.021,4.213-0.209,7.184c-0.311,5.94-1.277,13.854-3.303,21.518c-0.529,1.907-1.092,3.808-1.748,5.641
		c-0.33,0.916-0.641,1.831-0.998,2.716c-0.333,0.896-0.688,1.769-1.069,2.614c-0.356,0.858-0.748,1.681-1.146,2.48
		c-0.377,0.811-0.791,1.579-1.204,2.323c-0.4,0.752-0.8,1.478-1.218,2.16c-0.403,0.693-0.795,1.363-1.219,1.975
		c-0.796,1.262-1.627,2.344-2.349,3.321c-0.729,0.969-1.429,1.769-1.976,2.452c-1.192,1.275-1.858,2.033-1.858,2.033
		s0.774-0.635,2.103-1.798c0.619-0.622,1.407-1.353,2.252-2.249c0.824-0.913,1.741-1.961,2.653-3.176
		c0.481-0.59,0.933-1.238,1.399-1.913c0.477-0.666,0.959-1.365,1.395-2.121c0.458-0.742,0.919-1.51,1.344-2.321
		c0.445-0.8,0.887-1.626,1.293-2.486c0.43-0.849,0.836-1.727,1.221-2.627c0.41-0.891,0.773-1.812,1.121-2.749
		c0.715-1.866,1.332-3.799,1.916-5.74c0.551-1.951,1.066-3.913,1.484-5.862c0.44-1.946,0.788-3.879,1.069-5.756
		c0.567-3.753,0.874-7.285,1.047-10.315c0.142-3.032,0.127-5.562,0.087-7.337c-0.031-1.048-0.076-1.831-0.109-2.301
		c10.695-8.954,17.496-17.069,19.978-20.218c1.412,3.173,2.515,6.286,3.258,9.285c1.558,6.15,1.813,11.736,1.5,16.32
		c-0.301,4.589-0.843,8.213-1.12,10.69c-0.164,1.235-0.24,2.192-0.3,2.834S263.53,119,263.53,119s0.296-1.296,0.853-3.727
		c0.536-2.43,1.465-5.976,2.071-10.641c0.597-4.646,0.644-10.513-0.915-16.946C264.065,81.23,260.901,74.417,256.659,67.579
		 M238.869,49.024c1.609,1.571,3.16,3.164,4.709,4.707c0.159,0.179,0.307,0.362,0.464,0.542
		c-3.012,4.984-21.278,33.292-54.59,46.567c-0.007-0.099-0.015-0.198-0.021-0.292c-0.026-0.429-0.063-0.952-0.14-1.55
		c1.56-0.409,6.892-2.095,8.896-6.456c0.103-0.22,0.197-0.43,0.293-0.643c0.591,0.189,1.412,0.371,2.419,0.371
		c1.077,0,2.364-0.206,3.796-0.827c2.324-1.008,4.066-3.481,5.27-6.31c1.996-0.073,7.441-0.829,10.641-6.677
		c3.511-6.416,4.671-10.321,4.97-12.602c0.646-0.466,1.209-0.946,1.662-1.399l0.442-0.447l-0.207-0.592
		c0-0.002-0.018-0.06-0.041-0.143c0.662,0.143,1.281,0.215,1.849,0.215c2.342,0,3.909-1.075,4.892-2.15
		c3.049-3.339,3.1-9.603,1.399-13.49c-1.92-4.39-5.358-5.067-7.763-4.693c-0.047-0.991-0.303-2.082-0.768-3.269
		C231.326,42.684,235.303,45.735,238.869,49.024 M170.811,106.181c-4.787,0.86-9.801,1.392-15.053,1.51
		c-6.998,0.155-13.6-0.339-19.81-1.318c0.489-1.829-0.212-4.038-0.849-6.047c-0.385-1.212-0.748-2.356-0.822-3.28
		c-0.127-1.593,2.153-3.31,3.713-4.238c0.804,2.535,1.651,4.386,2.713,5.136c3.513,2.479,6.342,3.726,8.447,3.726
		c0.687,0,1.296-0.133,1.827-0.398c1.535-0.768,3.272-2.441,4.498-3.759c0.201,1.053,0.576,2.087,1.264,2.921
		c0.85,1.031,2.021,1.601,3.48,1.691c0.062,0.004,0.125,0.006,0.189,0.006c2.671,0,6.243-3.403,9.05-7.216
		c0.915,0.53,2.437,1.645,2.351,3.155c-0.051,0.912-0.289,1.858-0.543,2.861C170.858,102.552,170.42,104.353,170.811,106.181
		 M120.279,97.724c-0.147-1.021-0.287-1.986-0.25-2.803c0.051-1.11,1.198-1.835,2.158-2.25c-0.063,3.814,1.566,5.024,3.75,6.634
		c1.611,1.188,4.135,1.437,5.971,1.437c0.456,0,0.867-0.016,1.214-0.036c0.024,0.076,0.046,0.15,0.07,0.226
		c0.603,1.898,1.208,3.842,0.741,5.104c-4.817-0.854-9.388-2.001-13.711-3.371C120.781,101.209,120.519,99.385,120.279,97.724
		 M118.06,95.988c-2.198-0.535-6.461-2.008-7.847-5.599c-2.074-5.367-1.958-12.027,0.215-16.614c1.4,0.731,3.803,1.656,6.433,2.21
		c-0.013,2.665,1.21,5.127,3.735,7.495c1.45,1.358,2.135,2.856,1.757,6.99c-1.365,0.437-4.199,1.66-4.322,4.359
		C118.014,95.204,118.032,95.594,118.06,95.988 M108.348,91.11c0.004,0.012,0.01,0.021,0.015,0.033
		c-1.656,0.232-4.759,0.263-6.661-2.246c-2.495-3.295-3.957-6.443-3.448-11.387c0.82,0.826,1.565,1.479,2.111,1.83l0.611,0.394
		l0.562-0.46c0.23-0.188,4.63-3.8,7.226-6.63C105.822,78.498,106.391,86.045,108.348,91.11 M87.034,69.787
		c1.606,0.187,3.5,0.338,5.73,0.436c0.867,1.716,2.294,3.682,3.738,5.375c-0.75,4.332-0.24,7.545,1.053,10.361
		c-1.03-0.25-2.325-0.835-3.353-2.189c-0.936-1.23-2.125-2.204-3.275-3.146c-1.79-1.466-3.334-2.731-3.272-4.462
		C87.733,73.975,87.354,71.467,87.034,69.787 M94.319,68.844c-0.811-1.825-3.117-8.576,1.256-18.826
		c2.915-6.832,9.343-6.558,11.883-6.149c-0.005,0.731,0.124,1.453,0.334,2.112c0.259,0.704,0.562,1.362,0.948,1.9
		c0.367,0.556,0.781,1.01,1.17,1.411c0.799,0.783,1.554,1.292,2.102,1.615c0.102,0.059,0.188,0.104,0.275,0.151
		c-0.673,2.319-1.007,4.498-1.007,6.566c0,3.274-1.549,6.242-2.473,7.72c-0.811,1.297-0.76,3.155-0.48,4.714
		c-1.405,1.941-5.381,5.434-7.453,7.169C99.067,75.715,95.606,71.74,94.319,68.844 M124.897,41.461l0.049,0.438l0.064,0.431
		l0.127,0.387c0.088,0.257,0.179,0.512,0.308,0.72c0.459,0.906,1.055,1.563,1.628,2.152c0.581,0.584,1.171,1.049,1.718,1.471
		c1.113,0.817,2.091,1.38,2.782,1.767c0.332,0.18,0.598,0.31,0.79,0.405c0.024,0.151,0.03,0.297,0.059,0.451
		c0.551,2.977-0.395,7.966-2.155,11.358c-0.277,0.535-0.548,1.038-0.807,1.519c-1.417,2.632-2.536,4.709-2.301,7.524l0.029,0.35
		l0.241,0.256c0.075,0.078,0.835,0.862,2.144,1.805c-7.978,4.715-17.557-0.135-18.757-0.792c-0.374-0.92-1.141-3.97-0.313-5.296
		c1.267-2.027,2.777-5.196,2.777-8.78c0-3.836,1.272-8.142,3.887-13.163c2.166-4.16,6.152-4.019,7.763-3.768l-0.021,0.358
		l-0.011,0.158l-0.005,0.08l-0.002,0.115L124.897,41.461z M134.389,49.318c-0.457-2.468-0.505-5.761,3.211-9.349
		c2.792-2.695,6.816-1.488,10.366-0.424c0.485,0.146,0.959,0.287,1.419,0.417c2.51,0.706,3.638,4.478,3.957,6.366
		c-0.622,4.312-0.331,9.178-0.184,11.002c0.317,3.9,0.272,10.139,0.253,11.832c-2.458,2.088-7.883,5.19-14.199,4.839
		c-5.275-0.299-9.093-3.527-10.081-4.447c-0.06-2.057,0.853-3.751,2.09-6.048c0.263-0.488,0.539-1.002,0.822-1.547
		C134.012,58.163,135.02,52.729,134.389,49.318 M155.357,46.275c0.252-1.604,0.629-3.019,1.171-4.066
		c1.595-3.083,3.75-5.936,8.794-5.936c0.537,0,1.076,0.031,1.662,0.096c6.908,0.754,7.046,9.285,7.046,10.256v0.373
		c0,2.892,0.05,6.489,2.772,9.991c2.342,3.009,3.117,9.671,0.678,11.897c-2.771,2.531-7.239,4.368-10.621,4.368l-0.297-0.004
		c-4.297-0.139-10.627-2.472-11.155-3.762c0.017-1.137,0.087-8.001-0.263-12.32c-0.272-3.349-0.303-7.328,0.168-10.585l0.087-0.01
		C155.395,46.544,155.381,46.43,155.357,46.275 M181.079,40.392l-0.004-0.18c-0.003-0.039,0.004,0.016-0.006-0.088
		c1.774-0.114,5.12-0.036,6.049,2.035c1.692,3.777,3.627,6.712,6.603,10.804c2.908,3.996,2.434,12.228,2.121,15.397
		c-1.895,0.936-9.478,4.227-16.172,0.937c2.247-3.497,1.381-10.105-1.287-13.536c-1.707-2.193-2.174-4.453-2.302-6.584
		c0.142-0.075,0.298-0.161,0.466-0.271c0.715-0.456,1.735-1.165,2.651-2.359c0.474-0.58,0.885-1.298,1.226-2.096
		c0.311-0.809,0.582-1.702,0.629-2.642C181.124,41.341,181.078,40.87,181.079,40.392 M213.411,47.341
		c0.394-0.338,0.769-0.786,1.114-1.346c0.287-0.444,0.484-1.021,0.557-1.649c1.364-0.352,4.526-0.814,7.016,1.511
		c3.317,3.096,3.064,9.509,2.943,12.592l-0.01,0.264c-0.088,2.279,0.18,3.881,0.374,4.714c-1.535,1.33-6.944,5.323-12.181,1.13
		c0.44-1.37,0.281-2.72-0.098-5.81c-0.135-1.099-0.299-2.438-0.478-4.103c-0.202-1.889-0.529-3.989-1.15-6.013
		C212.006,48.373,212.68,48.004,213.411,47.341 M213.027,43.684c0.001,0,0.003-0.005,0.003-0.004v0.004H213.027z M223.271,67.211
		c-0.529,2.101-1.736,5.382-4.42,10.286c-2.348,4.293-6.104,5.333-8.121,5.573c0.482-1.492,0.828-3.007,1.039-4.402
		c0.472-3.103,3.012-8.436,4.062-10.547c0.811,0.212,1.615,0.312,2.403,0.312C220.051,68.434,221.77,67.927,223.271,67.211
		 M212.283,66.377c0.551,0.414,1.105,0.76,1.664,1.039c-1.145,2.31-3.65,7.631-4.153,10.953c-0.679,4.478-2.813,9.904-5.894,11.239
		c-2.065,0.894-3.686,0.71-4.602,0.455c2.086-4.805,2.953-7.787,2.855-9.738c-0.073-1.46,0.031-4.369,0.127-6.465l2.34,2.224
		l0.641-1.069c0.256-0.427,1.465-1.849,2.635-3.225C209.85,69.492,211.4,67.647,212.283,66.377 M211.124,64.452
		c-0.471,1.008-2.944,3.918-4.75,6.042c-0.92,1.083-1.614,1.902-2.098,2.504L197.963,67c0.297-4.288,0.248-11.264-2.623-15.213
		c-1.535-2.108-2.777-3.897-3.853-5.651c0.432-0.245,0.972-0.585,1.565-1.062c0.701-0.561,1.477-1.304,2.142-2.289
		c0.106-0.166,0.207-0.346,0.308-0.523c0.803-0.553,2.53-1.161,6.137-0.646c5.34,0.763,8.123,4.847,9.022,13.241
		c0.181,1.678,0.345,3.026,0.479,4.133C211.577,62.534,211.65,63.324,211.124,64.452 M155.163,71.924
		c2.89,1.969,8.565,3.236,11.335,3.325c0.12,0.004,0.239,0.006,0.361,0.006c1.811,0,3.834-0.449,5.801-1.203
		c-0.01,2.853-0.109,8.699-0.736,12.014c-0.85,4.481-8.238,14.064-11.483,14.064c-0.032,0-0.065-0.001-0.097-0.003
		c-0.898-0.056-1.572-0.372-2.062-0.967c-1.251-1.519-1.035-4.374-0.885-5.531C157.721,91.139,155.896,77.292,155.163,71.924
		 M155.413,93.371c-0.048,0.376-0.089,0.829-0.112,1.314c-1.016,1.228-3.448,3.909-5.218,4.796c-0.657,0.33-2.774,0.676-8.226-3.174
		c-1.273-0.897-2.694-6.541-3.457-9.573c-0.348-1.382-0.649-2.575-0.917-3.414c-0.635-1.98-1.066-5.561-1.286-7.757
		c0.913,0.217,1.877,0.377,2.901,0.435c0.358,0.021,0.716,0.03,1.072,0.03c4.916,0,9.666-1.872,12.97-4.143
		C154.261,80.055,155.659,91.488,155.413,93.371 M132.283,97.205c0.04,0.488,0.141,0.999,0.269,1.521
		c-1.703,0.051-4.168-0.103-5.448-1.046c-2.309-1.7-3.265-2.405-2.83-6.32c0.533-4.797-0.071-7.241-2.31-9.339
		c-1.977-1.855-2.989-3.729-3.09-5.701c0.89,0.113,1.837,0.188,2.834,0.188c3.069,0,6.532-0.676,9.72-2.829
		c0.796,0.449,1.701,0.884,2.699,1.255c0.188,2.073,0.664,6.538,1.451,8.995c0.249,0.779,0.542,1.944,0.882,3.294
		c0.322,1.278,0.634,2.488,0.946,3.608C135.771,91.731,132.037,94.129,132.283,97.205 M170.607,93.267
		c1.703-2.578,2.963-5.151,3.279-6.831c0.744-3.921,0.783-10.892,0.774-13.259c1.306-0.662,2.517-1.469,3.586-2.359
		c2.636,1.432,5.365,1.95,7.911,1.949c0.393,0,0.777-0.014,1.16-0.035c-0.036,6.803-3.643,14.119-3.682,14.196l-0.191,0.382
		l0.145,0.401c0.01,0.031,1.09,3.164-0.719,7.123c-1.293,2.83-6.65,2.791-9.113,2.49C173.458,95.311,171.758,93.958,170.607,93.267
		 M173.206,101.418c0.173-0.685,0.343-1.385,0.462-2.095c0.559,0.062,1.42,0.132,2.43,0.132c2.949,0,7.135-0.6,8.592-3.789
		c0.119-0.26,0.201-0.508,0.3-0.762c0.151,0.016,0.317,0.05,0.501,0.15c0.473,0.259,1.128,0.955,1.566,2.802
		c0.275,1.153,0.332,2.076,0.379,2.817c0.021,0.329,0.043,0.634,0.082,0.916c-4.633,1.734-9.551,3.17-14.748,4.216
		C172.459,104.421,172.819,102.956,173.206,101.418 M186.379,93.262c-0.271-0.14-0.531-0.224-0.781-0.28
		c0.588-2.61,0.219-4.664,0-5.518c0.77-1.633,3.758-8.405,3.721-14.945c4.412-0.676,7.714-2.512,7.956-2.649l0.444-0.252
		l0.008-0.083l2.641,2.509c-0.094,1.78-0.312,6.331-0.211,8.382c0.123,2.462-2.102,7.618-3.784,11.282
		c-1.583,3.446-6.041,4.927-7.469,5.322C188.391,95.138,187.545,93.865,186.379,93.262 M227.463,45.562
		c0.038-0.098,0.057-0.204,0.09-0.305c1.265-0.341,4.397-0.698,6.187,3.394c1.456,3.331,1.385,8.681-1.044,11.341
		c-1.354,1.481-3.245,1.853-5.615,1.126c-0.055-0.651-0.086-1.419-0.051-2.329l0.011-0.262c0.099-2.534,0.28-7.123-1.317-10.828
		C226.321,47.303,227.034,46.641,227.463,45.562 M91.841,39.883c1.584-1.064,3.195-2.103,4.857-3.09
		c8.465-5.049,17.908-9.087,27.859-11.957c5.005-1.317,10.084-2.562,15.278-3.283c1.292-0.215,2.588-0.412,3.894-0.535l3.914-0.432
		c1.411-0.088,2.822-0.192,4.233-0.272c-0.05,0.481-0.114,1.059-0.163,1.716c-0.09,0.942-0.169,2.074-0.33,3.162
		c-0.105,0.618-0.192,1.282-0.217,1.97c-0.024,0.688-0.029,1.405,0.119,2.153c0.15,0.728,0.386,1.569,1.084,2.226
		c0.688,0.686,1.73,0.776,2.374,0.691c0.392-0.045,0.785-0.157,1.138-0.381c0.35-0.221,0.618-0.545,0.772-0.869
		c0.303-0.661,0.303-1.266,0.274-1.783c-0.1-1.04-0.375-1.817-0.559-2.362C156.164,26.297,156.03,26,156.03,26
		s0.03,0.324,0.085,0.893c0.05,0.558,0.119,1.38-0.012,2.284c-0.055,0.443-0.185,0.922-0.43,1.236
		c-0.238,0.314-0.549,0.422-0.991,0.4c-0.546-0.038-0.863-0.188-1.051-0.477c-0.191-0.279-0.325-0.752-0.347-1.291
		c-0.063-1.088,0.157-2.301,0.383-3.435c0.259-1.304,0.318-2.438,0.37-3.429c0.044-0.772,0.034-1.438,0.029-1.967
		c0.481-0.016,0.962-0.031,1.442-0.034l1.969-0.049c0.599-0.026,1.31,0.018,1.957,0.022c1.326,0.036,2.66,0.041,3.975,0.103
		c2.607,0.177,5.212,0.301,7.82,0.63c5.219,0.516,10.369,1.449,15.438,2.523c10.111,2.28,19.83,5.582,28.7,9.884
		c2.919,1.413,5.733,2.948,8.446,4.576c2.238,3.75,2.217,5.832,1.802,6.919c-0.211,0.552-0.548,0.91-0.851,1.141
		c-0.373-0.555-0.805-1.072-1.303-1.537c-2.996-2.796-6.625-2.495-8.519-2.072c-0.072-0.211-0.147-0.407-0.226-0.563
		c-0.277-0.615-0.588-1.154-0.918-1.679c-0.658-1.032-1.328-1.989-1.904-2.908c-0.284-0.462-0.553-0.905-0.791-1.34
		c-0.217-0.438-0.437-0.851-0.592-1.252c-0.176-0.396-0.285-0.773-0.408-1.11c-0.078-0.342-0.168-0.646-0.207-0.901
		c-0.066-0.51-0.118-0.817-0.118-0.817s-0.075,0.288-0.183,0.82c-0.041,0.266-0.051,0.591-0.082,0.974
		c0.017,0.374-0.004,0.817,0.08,1.277c0.111,0.938,0.424,2.002,0.853,3.078c0.425,1.079,0.981,2.169,1.487,3.216
		c0.24,0.522,0.502,1.033,0.66,1.507c0.106,0.261,0.125,0.43,0.181,0.58c0.03,0.072,0.044,0.266,0.065,0.391l0.023,0.105
		l0.023,0.043l-0.062,0.07c-0.022,0.621-0.487,1.284-1.011,1.812c-0.37,0.372-0.756,0.676-1.086,0.919
		c-1.5-3.4-4.111-6.237-8.809-6.908c-2.47-0.353-4.262-0.23-5.57,0.104c0.023-0.186,0.039-0.366,0.041-0.533
		c0.021-0.255,0.002-0.6-0.008-0.918c-0.015-0.318-0.056-0.605-0.088-0.903c-0.084-0.583-0.221-1.143-0.367-1.658
		c-0.295-1.04-0.643-1.923-0.867-2.691c-0.221-0.763-0.34-1.421-0.32-1.897c-0.002-0.476,0.038-0.762,0.038-0.762
		s-0.034,0.062-0.099,0.177c-0.058,0.118-0.176,0.286-0.248,0.527c-0.178,0.469-0.361,1.209-0.346,2.086
		c-0.009,0.876,0.123,1.869,0.209,2.864c0.051,0.5,0.051,1.003,0.066,1.502c-0.008,0.244-0.008,0.505-0.031,0.735
		c-0.025,0.232-0.039,0.44-0.09,0.733c-0.031,0.305-0.075,0.453-0.139,0.679c-0.038,0.21-0.144,0.41-0.219,0.61
		c-0.179,0.399-0.399,0.785-0.656,1.145c-0.271,0.352-0.536,0.697-0.832,1.003c-0.291,0.305-0.579,0.592-0.861,0.845
		c-0.441,0.395-0.822,0.702-1.148,0.958c-0.512-0.935-0.99-1.884-1.444-2.898c-1.492-3.333-6.121-3.369-8.245-3.2
		c-0.17-0.654-0.359-1.288-0.605-1.874c-0.347-0.868-0.763-1.67-1.16-2.453c-0.401-0.763-0.797-1.512-1.181-2.237
		c-0.356-0.72-0.707-1.412-0.963-2.089c-0.269-0.674-0.479-1.328-0.612-1.946c-0.151-0.618-0.207-1.197-0.267-1.721
		c-0.019-0.52-0.015-0.983,0-1.365c0.084-0.755,0.121-1.205,0.121-1.205s-0.161,0.407-0.423,1.152
		c-0.096,0.378-0.203,0.847-0.303,1.393c-0.057,0.55-0.137,1.182-0.084,1.872c0.027,0.689,0.127,1.441,0.315,2.206
		c0.174,0.773,0.424,1.563,0.718,2.357c0.297,0.791,0.613,1.593,0.94,2.386c0.317,0.793,0.647,1.589,0.885,2.383
		c0.272,0.797,0.44,1.581,0.562,2.292l0.056,0.645l0.179,0.32l0.155,0.072v0.022l-0.149,0.14c-0.016,0.369-0.052,0.741-0.119,1.09
		l-0.104,0.523c-0.04,0.168-0.1,0.335-0.139,0.498c-0.055,0.337-0.207,0.637-0.305,0.943c-0.258,0.587-0.545,1.132-0.89,1.589
		c-0.425,0.588-0.877,1.062-1.294,1.439c-0.016-4.195-1.838-11.43-8.829-12.192c-0.658-0.071-1.237-0.107-1.849-0.107
		c-6.129,0-8.791,3.547-10.586,7.018c-0.185,0.357-0.346,0.751-0.497,1.158c-0.802-1.867-2.138-3.792-4.344-4.412
		c-0.449-0.126-0.912-0.264-1.385-0.407c-3.874-1.162-8.695-2.608-12.331,0.9c-2.582,2.493-3.887,5.147-4.01,8.188
		c-0.567-0.372-1.267-0.857-2.017-1.469c-0.479-0.385-0.996-0.81-1.462-1.3c-0.468-0.479-0.946-1.015-1.222-1.575
		c-0.093-0.139-0.133-0.276-0.181-0.411l-0.087-0.203l-0.035-0.189l-0.055-0.189l-0.04-0.024c0.001-0.067-0.071,0.086-0.071,0.066
		v-0.03l0.072-0.078l0.075-0.16l0.019-0.641c-0.002-0.229,0.02-0.419,0.056-0.586l0.083-0.535c0.052-0.361,0.179-0.763,0.262-1.146
		c0.92-3.082,3.014-6.076,3.55-8.847c0.08-0.336,0.123-0.669,0.134-0.992c0.03-0.316,0.048-0.616-0.002-0.903
		c-0.027-0.569-0.191-1.038-0.309-1.416c-0.118-0.377-0.317-0.632-0.408-0.815C130.46,25.095,130.405,25,130.405,25
		s0.023,0.108,0.065,0.313c0.024,0.205,0.131,0.485,0.153,0.857c0.016,0.374,0.053,0.813-0.056,1.312
		c-0.023,0.248-0.092,0.505-0.176,0.774c-0.064,0.27-0.161,0.547-0.295,0.83c-0.111,0.286-0.239,0.581-0.405,0.879
		c-0.145,0.302-0.317,0.607-0.508,0.919c-0.35,0.634-0.777,1.287-1.209,1.982c-0.423,0.697-0.868,1.435-1.294,2.214
		c-0.207,0.392-0.396,0.809-0.597,1.217c-0.177,0.426-0.357,0.854-0.52,1.293c-0.107,0.375-0.23,0.733-0.327,1.116
		c-2.766-0.447-7.379,0.101-9.843,4.83c-0.975,1.873-1.764,3.653-2.39,5.362c-0.373-0.326-0.831-0.756-1.286-1.302
		c-0.28-0.333-0.576-0.7-0.81-1.116c-0.259-0.405-0.455-0.851-0.618-1.315c-0.123-0.473-0.238-0.958-0.225-1.467
		c0.006-0.275-0.004-0.46,0.054-0.822c0.039-0.346,0.085-0.63,0.128-0.909c0.184-1.181,0.593-2.375,0.951-3.564
		c0.194-0.593,0.342-1.197,0.485-1.776c0.139-0.581,0.209-1.153,0.274-1.674c0.035-0.529,0.051-1.01,0.027-1.437
		c-0.022-0.425-0.072-0.792-0.115-1.091c-0.114-0.598-0.213-0.927-0.213-0.927s-0.118,0.334-0.268,0.898
		c-0.106,0.278-0.184,0.618-0.329,0.992c-0.128,0.377-0.284,0.793-0.47,1.234c-0.359,0.891-0.87,1.869-1.41,2.994
		c-0.256,0.571-0.557,1.161-0.787,1.815c-0.244,0.649-0.458,1.32-0.629,2.042c-0.033,0.143-0.063,0.282-0.092,0.421
		c-3.092-0.438-10.557-0.581-13.935,7.335c-0.118,0.277-0.213,0.542-0.323,0.814c-0.023-0.039-0.043-0.069-0.066-0.108
		c-0.284-0.492-0.598-1.066-0.827-1.68c-0.12-0.303-0.227-0.619-0.275-0.93c-0.076-0.312-0.1-0.618-0.088-0.918
		c0.025-0.372,0.06-0.832,0.067-1.285c0.009-0.435,0.003-0.86-0.031-1.268c-0.046-0.814-0.151-1.555-0.24-2.178
		c-0.083-0.622-0.149-1.128-0.141-1.486C91.813,40.069,91.826,39.97,91.841,39.883 M91.415,40.168
		c-0.211,0.343-0.407,0.845-0.566,1.435c-0.176,0.64-0.328,1.374-0.476,2.138c-0.076,0.377-0.154,0.766-0.234,1.161
		c-0.057,0.278-0.129,0.568-0.194,0.884c-1.378-0.389-3.707-0.798-5.969-0.063C86.338,43.786,88.821,41.93,91.415,40.168
		 M84.213,47.757c2.147-0.875,4.609-0.248,5.654,0.099c0.067,0.45,0.182,0.873,0.316,1.265c0.32,0.871,0.747,1.585,1.16,2.147
		c0.412,0.563,0.81,0.979,1.104,1.257c0.018,0.017,0.031,0.028,0.048,0.044c-2.371,7.354-1.511,12.694-0.563,15.608
		c-6.053-0.352-11.496-1.369-12.037-2.303c-1.183-2.044-1.597-7.97,1.185-14.744C81.766,49.46,82.82,48.325,84.213,47.757
		 M66.225,64.627c0.621-0.86,1.248-1.729,1.879-2.604l0.452-0.628l0.532-0.629l1.071-1.264c0.716-0.846,1.438-1.698,2.165-2.558
		l1.095-1.291l1.178-1.197c1.599-1.703,3.294-3.373,5.068-5.004c-0.154,0.292-0.302,0.596-0.435,0.918
		c-2.894,7.046-2.726,13.637-1.065,16.506c0.351,0.606,1.695,1.806,6.771,2.623c0.315,1.523,0.801,4.302,0.72,6.59
		c-0.098,2.722,1.987,4.43,4.004,6.081c1.06,0.868,2.156,1.767,2.949,2.812c2.017,2.653,4.799,3.101,6.131,3.151
		c0.419,0.665,0.875,1.319,1.368,1.971c1.939,2.561,4.701,3.147,6.827,3.147c1.014,0,1.875-0.134,2.441-0.25
		c2.467,3.47,7.047,4.718,8.936,5.096c0.216,1.493,0.416,3.009-0.009,3.94C86.225,91.207,68.35,68.385,65.896,65.083
		C66.006,64.931,66.115,64.78,66.225,64.627 M62.761,69.835c0.535-0.874,1.056-1.768,1.615-2.646
		c0.098-0.136,0.198-0.274,0.295-0.409c4.916,6.416,35.257,42.938,88.524,42.938c0.86,0,1.735-0.009,2.607-0.027
		c31.266-0.696,54.188-15.668,67.914-28.104c12.082-10.947,19.357-21.923,21.693-25.713c0.785,0.938,1.561,1.873,2.336,2.787
		l0.51,0.607l0.416,0.571c-4.791,7.279-38.425,54.994-96.142,54.994c-57.662,0-86.481-37.863-90.566-43.684
		C62.229,70.714,62.497,70.276,62.761,69.835 M59.782,75.07c0.468-1.02,1.03-2.004,1.619-2.987
		c5.026,7.011,34.108,43.75,91.129,43.75c32.782,0,57.573-15.337,72.597-28.203c13.436-11.508,21.667-23.142,24.176-26.925
		c0.113,0.157,0.229,0.316,0.342,0.472c0.619,0.854,1.234,1.7,1.843,2.538c0.362,0.478,0.692,0.963,1.014,1.448
		c-4.86,7.263-39.138,55.004-99.471,55.004c-60.412,0-90.44-36.914-94.584-42.427C58.872,76.853,59.316,75.963,59.782,75.07
		 M57.973,78.768c5.325,6.903,35.619,42.399,95.057,42.399c34.243,0,59.858-15.335,75.319-28.199
		c13.787-11.47,22.164-23.068,24.746-26.891c0.033,0.054,0.069,0.108,0.104,0.162c0.544,0.841,1.084,1.673,1.617,2.496
		c0.534,0.851,1.048,1.7,1.543,2.548c-4.446,5.837-43.427,54.55-104.663,54.55c-59.595,0-91.425-34.71-96.408-40.618
		C56.067,83.096,56.966,80.94,57.973,78.768 M154.991,131.001c-63.457,2.478-98.14-36.325-101.499-40.28
		c0.415-1.447,0.889-2.92,1.412-4.411c2.708,3.158,10.405,11.431,23.084,19.61c14.788,9.541,39.58,20.913,73.709,20.913
		c60.615,0,99.566-47.322,105.195-54.602c0.881,1.55,1.695,3.095,2.438,4.629C255.197,82.26,217.961,128.525,154.991,131.001"/>
</g>
</svg>
