<?xml version="1.0" encoding="utf-8"?>
<!-- Generator: Adobe Illustrator 19.1.0, SVG Export Plug-In . SVG Version: 6.00 Build 0)  -->
<svg version="1.1" id="Layer_1" xmlns="http://www.w3.org/2000/svg" xmlns:xlink="http://www.w3.org/1999/xlink" x="0px" y="0px"
	 viewBox="-152 308.1 305.8 176.9" style="enable-background:new -152 308.1 305.8 176.9;" xml:space="preserve">
<style type="text/css">
	.nav-mouth-13-st-0{fill:#D72050;}
	.nav-mouth-13-st-1{fill:#FCDCA4;}
	.nav-mouth-13-st-2{fill:#F0A732;}
	.nav-mouth-13-st-3{fill:#75A08A;}
</style>
<g>
	<path class="nav-mouth-13-st-0" d="M77.7,361.5c-6.5-3.7-13.7-5.1-20.6-7.4c-19.2-15.6-43.3-22.8-67.9-21.4c-19.5,1.1-42.8,6.2-56.4,21.5
		c-2.9,0.4-5.9,0.7-8.9,0.8c-7.9,0.4-9.6,9.6-3.8,14c4.5,3.4,8.5,7.3,12.3,11.4c-0.4,3.7,2.1,6.5,5.5,7.9c2.4,0.8,4.7,3.7,6.7,5.2
		c0.2,0.2,0.5,0.3,0.7,0.5c4.9,4.8,10.3,9.2,16.8,12.5c2.6,1.3,5.1,1.1,7.2,0c3.4,1.5,6.7,2.9,10.1,4.3c2.1,0.9,4,0.5,5.6-0.5
		c9.1,1.5,18.4,0.8,27.5-2.2c13.5-4.5,26-11,38.9-16.7c11-4.9,21.9-9.3,29-19.5C82.7,368.4,81,363.3,77.7,361.5z"/>
	<path class="nav-mouth-13-st-1" d="M67,354.9c-1.8-4.5-8.8-7.3-12.6-9.5c-12.3-6.8-26-13.2-40-15.2c-14.6-2.1-29.4,1.4-43.2,6
		c-7,2.4-13.9,5.3-20.8,8.2c-6.9,2.9-14.2,5.3-20.8,8.7c-1.1,0.6-0.9,1.9-0.1,2.5c0,0,0,0.1,0,0.1c1.9,3.6,2.9,7.4,4.3,11.1
		c0.4,1,2.2,1.7,2.7,0.4c2-4.7,1.6-10,4-14.4c3.2,3.2,6,6.9,9.2,10.2c0.8,0.9,2.1,0.4,2.5-0.7c1.2-3.5,1.5-7,1.9-10.6
		c1.9,3.1,4.2,5.9,7.7,7.2c0.8,0.3,1.6-0.3,1.8-1c1.3-5.1,3.1-10,5.2-14.9c2,4,4.2,7.9,6.6,11.7c0.6,1,2,1,2.6,0
		c3.4-5.2,4.5-11.4,7.1-16.9c2.3,5.1,3.9,10.6,6.8,15.4c0.7,1.2,2.3,0.8,2.7-0.4c2-5.1,2.8-10.6,5.1-15.6c1.7,5.7,3.5,11.3,6.6,16.4
		c0.7,1.2,2.3,0.8,2.7-0.4c1.9-4.9,3.4-9.9,5.4-14.6c1.1,5.6,2.7,11.2,5.8,16c0.5,0.8,1.6,1,2.4,0.3c3.6-3.3,6.6-7.1,10-10.5
		c0.8,4.4,1.4,9.1,4.2,12.7c0.7,0.9,1.9,1,2.6,0c1.7-2.6,3.1-5.5,5.4-7.6c1.2,4.6,2.2,9.3,3.9,13.8c0.4,1.1,1.6,1.5,2.5,0.7
		c2.4-2.2,4.2-5.4,7.1-7c0.8,2.4,1.5,4.9,1.9,7.4c0.2,1.1,1.8,1.5,2.5,0.7C65.4,362.2,68.6,358.8,67,354.9z"/>
	<path class="nav-mouth-13-st-1" d="M-69,382.2c1.8,4.5,7.1,8.8,10.9,10.9c12.3,6.8,26,13.2,40,15.2c14.6,2.1,29.4-1.4,43.2-6
		c7-2.4,13.9-5.3,20.8-8.2c6.9-2.9,14.2-5.3,20.8-8.7c1.1-0.6,0.9-1.9,0.1-2.5c0,0,0-0.1,0-0.1c-1.9-3.6-2.9-7.4-4.3-11.1
		c-0.4-1-2.2-1.7-2.7-0.4c-2,4.7-1.6,10-4,14.4c-3.2-3.2-6-6.9-9.2-10.2c-0.8-0.9-2.1-0.4-2.5,0.7c-1.2,3.5-1.5,7-1.9,10.6
		c-1.9-3.1-4.2-5.9-7.7-7.2c-0.8-0.3-1.6,0.3-1.8,1c-1.3,5.1-3.1,10-5.2,14.9c-2-4-4.2-7.9-6.6-11.7c-0.6-1-2-1-2.6,0
		c-3.4,5.2-4.5,11.4-7.1,16.9c-2.3-5.1-3.9-10.6-6.8-15.4c-0.7-1.2-2.3-0.8-2.7,0.4c-2,5.1-2.8,10.6-5.1,15.6
		c-1.7-5.7-3.5-11.3-6.6-16.4c-0.7-1.2-2.3-0.8-2.7,0.4c-1.9,4.9-3.4,9.9-5.4,14.6c-1.1-5.6-2.7-11.2-5.8-16c-0.5-0.8-1.6-1-2.4-0.3
		c-3.6,3.3-6.6,7.1-10,10.5c-0.8-4.4-1.4-9.1-4.2-12.7c-0.7-0.9-1.9-1-2.6,0c-1.7,2.6-3.1,5.5-5.4,7.6c-1.2-4.6-2.2-9.3-3.9-13.8
		c-0.4-1.1-1.6-1.5-2.5-0.7c-2.4,2.2-4.2,5.4-7.1,7c-0.8-2.4-1.5-4.9-1.9-7.4c-0.2-1.1-1.8-1.5-2.5-0.7
		C-69.1,376.3-70.6,378.2-69,382.2z"/>
	<path class="nav-mouth-13-st-2" d="M103.7,357.1c-7.9-0.3-15.9,0.3-23.6-1.6c-8.5-2.1-16.3-8.1-23.6-12.6c-16.1-9.7-33.1-16-52-17.5
		c-39.5-3.1-69.6,27.7-107.9,30.4c-6,0.4-6,9.7,0,9.3c5-0.3,9.9-1.2,14.6-2.3c0.2,0.3,0.4,0.6,0.7,0.9c12,12.7,22.6,27,36.5,37.7
		c15.1,11.6,32.5,15.1,51.3,14c33.4-2,68-20.2,85.3-49.3c0-0.1,0.1-0.1,0.1-0.2c6.1,0.7,12.4,0.3,18.5,0.5
		C109.7,366.7,109.7,357.4,103.7,357.1z M-0.2,406.1c-17.5,1.4-33.6-2.3-47.3-13.3c-11.8-9.5-21.1-21.7-31.3-32.8
		c27-9,51.6-26.1,81.1-25.3c20.4,0.5,38,9.3,55.1,19.7c5.9,3.6,11.8,7.2,18.2,9.4C59.3,389,29.1,403.7-0.2,406.1z"/>
	<path class="nav-mouth-13-st-2" d="M-102.6,344.3c-2,0-2,3,0,3S-100.6,344.3-102.6,344.3z"/>
	<path class="nav-mouth-13-st-2" d="M-86.6,396.3c-2,0-2,3,0,3S-84.6,396.3-86.6,396.3z"/>
	<path class="nav-mouth-13-st-2" d="M-3.6,454.6c-2,0-2,3,0,3S-1.6,454.6-3.6,454.6z"/>
	<path class="nav-mouth-13-st-2" d="M-50.6,459.6c-2,0-2,3,0,3S-48.6,459.6-50.6,459.6z"/>
	<path class="nav-mouth-13-st-2" d="M-33.6,428.9c-1.9,0-1.9,3,0,3C-31.7,431.9-31.7,428.9-33.6,428.9z"/>
	<path class="nav-mouth-13-st-2" d="M-57.6,321.9c-2,0-2,3,0,3S-55.6,321.9-57.6,321.9z"/>
	<path class="nav-mouth-13-st-2" d="M-134.6,319.9c-1.9,0-1.9,3,0,3C-132.7,322.9-132.7,319.9-134.6,319.9z"/>
	<path class="nav-mouth-13-st-2" d="M-126.9,390.4c-0.6-0.6-1.5-0.6-2.1,0c-0.1,0.1-0.2,0.2-0.3,0.3c-0.6,0.6-0.6,1.5,0,2.1c0.6,0.6,1.5,0.6,2.1,0
		c0.1-0.1,0.2-0.2,0.3-0.3C-126.3,391.9-126.3,390.9-126.9,390.4z"/>
	<path class="nav-mouth-13-st-2" d="M90.4,434.3c-2,0-2,3,0,3S92.4,434.3,90.4,434.3z"/>
	<path class="nav-mouth-13-st-2" d="M53.4,428.6c-2,0-2,3,0,3S55.4,428.6,53.4,428.6z"/>
	<path class="nav-mouth-13-st-2" d="M99.4,388.3c-2,0-2,3,0,3S101.4,388.3,99.4,388.3z"/>
	<path class="nav-mouth-13-st-2" d="M67.1,320c-0.5-0.5-1-0.8-1.7-0.8c-1.8,0-1.9,2.7-0.3,3c0.6,0.5,1.5,0.5,2-0.1C67.7,321.6,67.7,320.6,67.1,320
		z"/>
	<path class="nav-mouth-13-st-2" d="M-7.6,312.9c-2,0-2,3,0,3S-5.6,312.9-7.6,312.9z"/>
	<path class="nav-mouth-13-st-2" d="M136.4,339.6c-1.9,0-1.9,3,0,3C138.3,342.6,138.3,339.6,136.4,339.6z"/>
	<path class="nav-mouth-13-st-2" d="M115.5,319c-0.1-0.1-0.2-0.2-0.3-0.3c-0.6-0.6-1.5-0.6-2.1,0c-0.6,0.6-0.6,1.5,0,2.1l0.3,0.3
		c0.6,0.6,1.5,0.6,2.1,0C116,320.6,116,319.6,115.5,319z"/>
	<path class="nav-mouth-13-st-3" d="M39.4,316.6c-2,0-2,3,0,3S41.4,316.6,39.4,316.6z"/>
	<path class="nav-mouth-13-st-3" d="M-65.6,427.9c-2,0-2,3,0,3C-63.6,430.9-63.6,427.9-65.6,427.9z"/>
	<path class="nav-mouth-13-st-3" d="M-127.6,360.6c-2,0-2,3,0,3C-125.6,363.6-125.6,360.6-127.6,360.6z"/>
	<path class="nav-mouth-13-st-3" d="M-96.6,320.9c-2,0-2,3,0,3S-94.6,320.9-96.6,320.9z"/>
	<path class="nav-mouth-13-st-3" d="M-97.6,426.3c-2,0-2,3,0,3S-95.6,426.3-97.6,426.3z"/>
	<path class="nav-mouth-13-st-3" d="M44.4,460.3c-2,0-2,3,0,3S46.4,460.3,44.4,460.3z"/>
	<path class="nav-mouth-13-st-3" d="M27.4,428.3c-2,0-2,3,0,3S29.4,428.3,27.4,428.3z"/>
	<path class="nav-mouth-13-st-3" d="M75.4,407.3c-2,0-2,3,0,3S77.4,407.3,75.4,407.3z"/>
	<path class="nav-mouth-13-st-3" d="M130.4,386.6c-1.9,0-1.9,3,0,3C132.3,389.6,132.3,386.6,130.4,386.6z"/>
	<path class="nav-mouth-13-st-3" d="M97.4,334.6c-2,0-2,3,0,3S99.4,334.6,97.4,334.6z"/>
	<path class="nav-mouth-13-st-3" d="M135.4,317.4h-1c-2,0-2,3,0,3h1C137.4,320.4,137.4,317.4,135.4,317.4z"/>
	<path class="nav-mouth-13-st-1" d="M-103.6,360.2v1C-102.6,361.2-102.6,360.2-103.6,360.2z"/>
	<path class="nav-mouth-13-st-1" d="M-98.4,360c-0.4,0.1-0.9,0.3-1.3,0.5c0.1-0.4,0.3-0.7,0.5-1.1c0.4-0.5-0.5-1-0.9-0.5c-0.5,0.8-0.8,1.6-0.9,2.5
		c0,0.1,0,0.1,0,0.2c0,0.2,0.2,0.3,0.4,0.4c0.1,0,0.3,0,0.5-0.1c0.5-0.5,1.2-0.7,1.9-0.9C-97.5,360.8-97.8,359.8-98.4,360z"/>
	<path class="nav-mouth-13-st-1" d="M-95,358.9c0,0.2,0,0.5-0.1,0.7c-0.4,0.5,0.3,1.2,0.7,0.7c0.4-0.4,0.4-0.9,0.4-1.4
		C-94,358.2-95,358.2-95,358.9z"/>
	<path class="nav-mouth-13-st-1" d="M-89.2,357.6c-0.2-0.4-0.7-0.7-1-0.9c-0.5-0.4-1.2,0.3-0.7,0.7c0.1,0.1,0.3,0.3,0.5,0.4
		c0.1,0.1,0.1,0.1,0.2,0.2c0,0.1,0.1,0.2,0.2,0.3c0.2,0.1,0.5,0.2,0.8,0C-89.1,358-89.1,357.8-89.2,357.6z"/>
	<path class="nav-mouth-13-st-1" d="M-83.7,358.4c-0.5-0.8-1.1-1.6-1.6-2.4c-0.4-0.5-1.2,0-0.9,0.5c0.5,0.8,1.1,1.6,1.6,2.4
		C-84.2,359.4-83.4,358.9-83.7,358.4z"/>
	<path class="nav-mouth-13-st-1" d="M-78.4,353.3c-0.3-0.5-1.2,0-0.9,0.5c0.5,0.8,0.7,1.7,0.7,2.7c0,0.6,1,0.6,1,0
		C-77.5,355.4-77.8,354.3-78.4,353.3z"/>
	<path class="nav-mouth-13-st-1" d="M-72.9,352c-0.5,1-0.8,2-1.3,2.9c-0.3,0.5,0.5,1,0.9,0.5c0.6-0.9,0.9-2,1.3-2.9
		C-71.7,351.9-72.6,351.4-72.9,352z"/>
	<path class="nav-mouth-13-st-1" d="M-67.6,350.6v1.9c0,0.6,1,0.6,1,0v-1.9C-66.6,350-67.6,350-67.6,350.6z"/>
	<path class="nav-mouth-13-st-1" d="M-60.8,349c-0.2-0.4-0.5-0.8-0.9-1.2c-0.5-0.5-1.2,0.2-0.7,0.7c0.3,0.3,0.5,0.6,0.7,1
		C-61.4,350.1-60.5,349.6-60.8,349z"/>
	<path class="nav-mouth-13-st-1" d="M-56.6,346.3l-1.6-1.6c-0.5-0.5-1.2,0.3-0.7,0.7c0.5,0.5,1.1,1.1,1.6,1.6C-56.9,347.4-56.2,346.7-56.6,346.3z"
		/>
	<path class="nav-mouth-13-st-1" d="M-51.6,341.4v4c0,1,1,1,1,0v-4H-51.6z"/>
	<path class="nav-mouth-13-st-1" d="M-45.8,339.8c-0.3,1.1-0.5,2.2-0.6,3.3c0,0.6,1,0.6,1,0c0-1,0.3-2.1,0.5-3.1
		C-44.6,339.5-45.6,339.2-45.8,339.8z"/>
	<path class="nav-mouth-13-st-1" d="M-38.5,340.5c-0.5-0.8-1-1.6-1.7-2.2c-0.4-0.5-1.2,0.2-0.7,0.7c0.6,0.6,1.1,1.3,1.5,2
		C-39,341.6-38.1,341.1-38.5,340.5z"/>
	<path class="nav-mouth-13-st-1" d="M-35.6,337.3v1C-34.6,338.3-34.6,337.3-35.6,337.3z"/>
	<path class="nav-mouth-13-st-1" d="M-38.6,336v1C-37.6,337-37.6,336-38.6,336z"/>
	<path class="nav-mouth-13-st-1" d="M-29.6,336.3c-1.1-0.8-2.1-1.6-3.1-2.6c-0.5-0.5-1.2,0.3-0.7,0.7c1,1,2.2,1.9,3.3,2.7
		C-29.6,337.6-29.1,336.7-29.6,336.3z"/>
	<path class="nav-mouth-13-st-1" d="M-24.6,331.5c-1,0-1,1,0,1S-23.6,331.5-24.6,331.5z"/>
	<path class="nav-mouth-13-st-1" d="M-47.6,342.7c-1,0-1,1,0,1V342.7z"/>
	<path class="nav-mouth-13-st-1" d="M-48.6,339.5c-1,0-1,1,0,1S-47.6,339.5-48.6,339.5z"/>
	<path class="nav-mouth-13-st-1" d="M-69.6,349.1c-1,0-1,1,0,1V349.1z"/>
	<path class="nav-mouth-13-st-1" d="M-81.6,360.8c-1,0-1,1,0,1S-80.6,360.8-81.6,360.8z"/>
	<path class="nav-mouth-13-st-1" d="M-86.6,361.6c-1,0-1,1,0,1V361.6z"/>
	<path class="nav-mouth-13-st-1" d="M-81.6,354.9c-1,0-1,1,0,1V354.9z"/>
	<path class="nav-mouth-13-st-1" d="M-25.6,335.7v1C-24.6,336.7-24.6,335.7-25.6,335.7z"/>
	<path class="nav-mouth-13-st-1" d="M-27.4,333.6c-0.4,0-0.7-0.1-1-0.4c-0.5-0.4-1.2,0.3-0.7,0.7c0.5,0.4,1,0.6,1.7,0.7
		C-26.8,334.7-26.8,333.7-27.4,333.6z"/>
	<path class="nav-mouth-13-st-1" d="M-20.1,330.4c-0.8,1.4-1.6,2.9-2.2,4.4c-0.2,0.6,0.7,0.9,1,0.3c0.6-1.4,1.3-2.8,2.1-4.1
		C-18.9,330.4-19.8,329.8-20.1,330.4z"/>
	<path class="nav-mouth-13-st-1" d="M-14.6,329.9c-1,0-1,1,0,1S-13.6,329.9-14.6,329.9z"/>
	<path class="nav-mouth-13-st-1" d="M-17.2,333c-0.5-0.4-1.2,0.3-0.7,0.7c0.1,0,0.4,0.3,0.4,0.3c0.1,0.6,1.1,0.4,1-0.3
		C-16.6,333.3-16.9,333.2-17.2,333z"/>
	<path class="nav-mouth-13-st-1" d="M-16.6,328.3c-1,0-1,1,0,1V328.3z"/>
	<path class="nav-mouth-13-st-1" d="M-11.6,331.8c-1,0-1,1,0,1S-10.6,331.8-11.6,331.8z"/>
	<path class="nav-mouth-13-st-1" d="M-9.4,328.8c-0.1-0.2-0.2-0.5-0.1-0.7c0.4-0.5-0.3-1.2-0.7-0.7c-0.5,0.6-0.4,1.3-0.1,1.9
		C-10,329.9-9.2,329.4-9.4,328.8z"/>
	<path class="nav-mouth-13-st-1" d="M-6.2,328.2c-1.1,0.9-1.7,2.1-2.3,3.4c-0.2,0.6,0.7,0.9,1,0.3c0.5-1.1,1-2.2,2-3C-5,328.5-5.7,327.8-6.2,328.2
		z"/>
	<path class="nav-mouth-13-st-1" d="M-3.3,330.4c-0.8,0.3-1.2,0.9-1.8,1.5c-0.4,0.5,0.3,1.2,0.7,0.7c0.4-0.4,0.8-1,1.4-1.2
		C-2.5,331.2-2.7,330.2-3.3,330.4z"/>
	<path class="nav-mouth-13-st-1" d="M-1.6,327.2v1C-0.6,328.2-0.6,327.2-1.6,327.2z"/>
	<path class="nav-mouth-13-st-1" d="M2.1,331.6c-0.9-0.5-1.4-1.1-1.6-2.1c-0.2-0.6-1.1-0.4-1,0.3c0.3,1.2,1,2.1,2.1,2.7
		C2.2,332.7,2.7,331.9,2.1,331.6z"/>
	<path class="nav-mouth-13-st-1" d="M4.4,328.6c-1,0-1,1,0,1S5.4,328.6,4.4,328.6z"/>
	<path class="nav-mouth-13-st-1" d="M7.7,329.2c-1.3,0.8-2.5,1.7-3.6,2.7c-0.5,0.5,0.2,1.2,0.7,0.7c1-1,2.1-1.8,3.4-2.6
		C8.8,329.7,8.3,328.8,7.7,329.2z"/>
	<path class="nav-mouth-13-st-1" d="M-81.6,364.5c-1,0-1.9,0-2.9-0.2c-0.6-0.1-1,0.8-0.4,1c1.1,0.3,2.2,0.3,3.2,0.3
		C-80.6,365.5-80.6,364.5-81.6,364.5z"/>
	<path class="nav-mouth-13-st-1" d="M-77.6,362.6c-1,0-1,1,0,1S-76.6,362.6-77.6,362.6z"/>
	<path class="nav-mouth-13-st-1" d="M-78,366.5c-0.3,1-0.5,2-0.6,3.1c0,0.6,1,0.6,1,0c0-0.9,0.3-1.9,0.5-2.8C-76.9,366.1-77.8,365.8-78,366.5z"/>
	<path class="nav-mouth-13-st-1" d="M-80.6,367.4v1C-79.6,368.4-79.6,367.4-80.6,367.4z"/>
	<path class="nav-mouth-13-st-1" d="M-74.3,372.8c-0.9-0.6-1.8-1.1-2.9-1.1c-0.6,0-0.6,1,0,1c0.9,0,1.7,0.5,2.4,1
		C-74.3,374.1-73.8,373.2-74.3,372.8z"/>
	<path class="nav-mouth-13-st-1" d="M-73.6,368.5v1C-72.6,369.5-72.6,368.5-73.6,368.5z"/>
	<path class="nav-mouth-13-st-1" d="M-71.2,373.2c-0.1-0.6-1.1-0.3-1,0.3c0.2,0.9,0.2,1.9,0.2,2.9h1C-70.9,375.4-70.9,374.3-71.2,373.2z"/>
	<path class="nav-mouth-13-st-1" d="M-72.5,377c-0.3-0.6-0.8-1-1.5-1c-0.6,0-0.6,1,0,1c0.3,0,0.5,0.3,0.6,0.6C-73.1,378.1-72.2,377.6-72.5,377z"/>
	<path class="nav-mouth-13-st-1" d="M-68.3,377.8c-1.1,0.3-2,0.6-2.7,1.6c-0.4,0.5,0.5,1,0.9,0.5c0.5-0.7,1.3-0.9,2.1-1.1
		C-67.4,378.6-67.7,377.7-68.3,377.8z"/>
	<path class="nav-mouth-13-st-1" d="M-68.6,374.6v1C-67.6,375.6-67.6,374.6-68.6,374.6z"/>
	<path class="nav-mouth-13-st-1" d="M-65,378.5c-0.2-0.6-1.2-0.3-1,0.3c0.3,0.8,0.4,1.6-0.3,2.2c-0.6,0.5-1.6,0.5-2.3,0.4c-0.6-0.1-0.9,0.8-0.3,1
		c1.2,0.3,2.3,0.1,3.3-0.6C-64.6,380.9-64.6,379.5-65,378.5z"/>
	<path class="nav-mouth-13-st-1" d="M-64.2,384.5h-1.3c-0.6,0-0.6,1,0,1h1.3C-63.5,385.5-63.5,384.5-64.2,384.5z"/>
	<path class="nav-mouth-13-st-1" d="M-63.6,381v1C-62.6,382-62.6,381-63.6,381z"/>
	<path class="nav-mouth-13-st-1" d="M-102,357.1h-0.6c-0.6,0-0.6,1,0,1h0.6C-101.3,358.1-101.3,357.1-102,357.1z"/>
	<path class="nav-mouth-13-st-1" d="M-104.6,360.8c-1,0-1,1,0,1V360.8z"/>
	<path class="nav-mouth-13-st-1" d="M13.3,328.9c-0.8-0.4-1.7-0.8-2.6-0.9c-0.6,0-0.6,1,0,1c0.6,0,1.2,0.3,1.8,0.5c-0.4,0.9-0.6,1.9-1.1,2.7
		c-0.3,0.6,0.5,1.1,0.9,0.5c0.6-1,0.8-2.2,1.3-3.2C13.6,329.3,13.6,329,13.3,328.9z"/>
	<path class="nav-mouth-13-st-1" d="M2.4,326.2c-1,0-1,1,0,1V326.2z"/>
	<path class="nav-mouth-13-st-1" d="M18.2,332.8c-0.8-0.3-1.6-0.5-2.4-0.8c-0.6-0.2-0.9,0.8-0.3,1c0.8,0.3,1.6,0.5,2.4,0.8
		C18.6,334,18.8,333,18.2,332.8z"/>
	<path class="nav-mouth-13-st-1" d="M21.3,330c-1.3,0.8-2.6,0.7-3.6-0.6c-0.4-0.5-1.2,0-0.9,0.5c1.2,1.8,3.1,2.1,4.9,1
		C22.4,330.5,21.9,329.6,21.3,330z"/>
	<path class="nav-mouth-13-st-1" d="M21.4,333.4c-1,0-1,1,0,1S22.4,333.4,21.4,333.4z"/>
	<path class="nav-mouth-13-st-1" d="M26.7,335.9c-1.6-1.5-0.8-3.8-2.4-5.3c-0.5-0.4-1.2,0.3-0.7,0.7c0.9,0.8,0.9,1.8,1,2.9c0.1,1,0.7,1.8,1.4,2.4
		C26.5,337,27.2,336.3,26.7,335.9z"/>
	<path class="nav-mouth-13-st-1" d="M-59.3,385.2c-0.4-0.5-1.1,0.2-0.7,0.7c0.1,0.2,0.1,0.5,0.1,0.7c0,0.6,1,0.6,1,0
		C-58.9,386.1-59,385.6-59.3,385.2z"/>
	<path class="nav-mouth-13-st-1" d="M-61.6,389.1c-0.1-0.6-1.1-0.4-1,0.3c0,0.2,0.2,0.4,0.3,0.5c0.1,0.6,1.1,0.4,1-0.3
		C-61.3,389.4-61.5,389.3-61.6,389.1z"/>
	<path class="nav-mouth-13-st-1" d="M-58.9,390.6h-0.3c-0.6,0-0.6,1,0,1h0.3C-58.2,391.6-58.2,390.6-58.9,390.6z"/>
	<path class="nav-mouth-13-st-1" d="M-54.9,390.7c-0.3-1.2-1-2.1-2.1-2.7c-0.6-0.3-1.1,0.6-0.5,0.9c0.9,0.5,1.4,1.1,1.6,2.1
		C-55.7,391.6-54.7,391.3-54.9,390.7z"/>
	<path class="nav-mouth-13-st-1" d="M-54.6,394.7c-0.4-0.2-0.9-0.4-1.2-0.9c-0.3-0.6-1.2-0.1-0.9,0.5c0.3,0.6,0.9,0.9,1.5,1.2
		C-54.5,395.8-54,395-54.6,394.7z"/>
	<path class="nav-mouth-13-st-1" d="M-51.3,393.9c-0.6-0.6-1.1-1.1-1.5-1.8c-0.4-0.5-1.2,0-0.9,0.5c0.5,0.7,1.1,1.4,1.7,2
		C-51.6,395.1-50.9,394.4-51.3,393.9z"/>
	<path class="nav-mouth-13-st-1" d="M-47.2,398.7c-0.4-0.9-1.3-1.5-1.3-2.5c0-0.4-0.4-0.6-0.8-0.4c-1,0.7-2.2,1.2-3.2,1.9c-0.5,0.3,0,1.2,0.5,0.9
		c0.8-0.5,1.7-1,2.6-1.5c0.1,0.3,0.2,0.5,0.3,0.7c0.3,0.4,0.7,0.8,0.9,1.3C-47.9,399.6-46.9,399.3-47.2,398.7z"/>
	<path class="nav-mouth-13-st-1" d="M-44.6,397c-1,0-1,1,0,1V397z"/>
	<path class="nav-mouth-13-st-1" d="M-49.6,399.9c-1,0-1,1,0,1V399.9z"/>
	<path class="nav-mouth-13-st-1" d="M-44.1,400.2c-0.3,0.8-1,1.6-2,1.2c-0.6-0.3-1.1,0.6-0.5,0.9c1.4,0.7,2.8-0.1,3.3-1.5
		C-43,400.1-43.9,399.6-44.1,400.2z"/>
	<path class="nav-mouth-13-st-1" d="M-40.2,404.5c-0.6,0-0.9-0.3-1.2-0.8c-0.3-0.6-1.2-0.1-0.9,0.5c0.4,0.8,1.1,1.3,2,1.3
		C-39.6,405.5-39.6,404.5-40.2,404.5z"/>
	<path class="nav-mouth-13-st-1" d="M-38.9,401.5c-0.1-0.1-0.1-0.2-0.2-0.3c0,0-0.1-0.3-0.1-0.2c-0.1-0.6-1.1-0.6-1,0c0,0.2,0.1,0.4,0.2,0.6
		c0,0,0,0.1,0.1,0.1c0,0.1,0,0.3,0.1,0.4c0.1,0.1,0.2,0.2,0.4,0.3c0.2,0.1,0.4-0.1,0.6-0.2C-38.7,401.9-38.8,401.7-38.9,401.5z"/>
	<path class="nav-mouth-13-st-1" d="M31.6,333.9c-0.9-1.2-2-1.8-3.5-1.6c-0.6,0.1-0.4,1.1,0.3,1c0.7-0.1,1.2,0.1,1.7,0.4c-0.4-0.2-0.9,0.2-0.7,0.7
		c0.6,1,0.3,2.6-0.5,3.4c-0.4,0.5,0.3,1.2,0.7,0.7c1.1-1.1,1.4-3.2,0.6-4.6c0,0,0,0-0.1-0.1c0.2,0.2,0.4,0.4,0.5,0.6
		C31.1,334.9,32,334.4,31.6,333.9z"/>
	<path class="nav-mouth-13-st-1" d="M33.4,337.9v1C34.4,338.9,34.4,337.9,33.4,337.9z"/>
	<path class="nav-mouth-13-st-1" d="M34.4,333.9c-1,0-1,1,0,1V333.9z"/>
	<path class="nav-mouth-13-st-1" d="M37.4,335.7c-1,0-1,1,0,1S38.4,335.7,37.4,335.7z"/>
	<path class="nav-mouth-13-st-1" d="M43.1,338.5c0-0.1-0.1-0.1-0.2-0.2c-0.1-0.1-0.3-0.2-0.5-0.1c0,0,0,0-0.1,0v0c0,0,0,0,0,0
		c-0.3,0.2-0.6,0.4-0.8,0.6c-0.6,0.2-1.1,0.5-1.7,0.9c-0.4-0.6-0.9-1.2-1.3-1.8c-0.1-0.2-0.4-0.3-0.7-0.2c-0.9,0.6-1.7,1.2-2.1,2.2
		c-0.2,0.6,0.7,0.9,1,0.3c0.2-0.6,0.7-1,1.3-1.3c0.4,0.5,0.7,1,1.1,1.5c0,0-0.1,0.1-0.1,0.1c-0.4,0.3-0.2,1.2,0.4,0.9
		c0,0,0.1,0,0.1-0.1c0,0,0,0,0,0c0,0,0,0,0,0c0.1,0,0.1,0,0.2-0.1c0.3,0.4,0.9,0,0.8-0.4c0.5-0.3,1-0.6,1.6-1c0.1,0,0.2-0.1,0.3-0.1
		c-0.2,1.1-0.2,2.3-0.4,3.4c-0.1,0.6,0.9,0.9,1,0.3c0.2-1.4,0.3-2.9,0.5-4.3C43.4,338.8,43.3,338.6,43.1,338.5z"/>
	<path class="nav-mouth-13-st-1" d="M46.4,342.9v1C47.4,343.9,47.4,342.9,46.4,342.9z"/>
	<path class="nav-mouth-13-st-1" d="M45,338.1c-0.6,0-0.6,0.7-0.2,0.9c0.2,0.6,1.1,0.3,0.9-0.3C45.7,338.4,45.4,338.2,45,338.1z"/>
	<path class="nav-mouth-13-st-1" d="M43.9,344h-0.3c-0.6,0-0.6,1,0,1h0.3C44.6,345,44.6,344,43.9,344z"/>
	<path class="nav-mouth-13-st-1" d="M51.3,341.4c-1.2-0.5-2.4-0.4-2.5,1.1c-0.1,1,0.6,3-0.7,3.4c-0.6,0.2-0.3,1.2,0.3,1c1.3-0.4,1.5-1.6,1.5-2.8
		c0-0.6-0.1-1.1,0-1.7c0.1-0.6,0.9-0.2,1.2,0C51.6,342.6,51.8,341.6,51.3,341.4z"/>
	<path class="nav-mouth-13-st-1" d="M53.2,344.1c-0.2-0.6-1.1-0.4-1,0.3c0.3,1,0.5,2,0.5,3.1c0,0.6,1,0.6,1,0C53.7,346.3,53.5,345.2,53.2,344.1z"
		/>
	<path class="nav-mouth-13-st-1" d="M51.4,346.7c-1,0-1,1,0,1V346.7z"/>
	<path class="nav-mouth-13-st-1" d="M58.1,347.5c-0.3,0.2-0.6,0.4-0.9,0.6c-0.2-1.1-0.2-1.7-0.2-3.7h-1c0,2,0,2.7,0.3,3.9c0,0.1,0.1,0.2,0.1,0.3
		c-0.7,0.5-1.5,1-2.3,1.3c-0.6,0.3-0.1,1.1,0.5,0.9c1.4-0.6,2.7-1.6,4-2.4C59.1,348.1,58.6,347.2,58.1,347.5z"/>
	<path class="nav-mouth-13-st-1" d="M58.8,351.3l-0.3,0.3c-0.5,0.5,0.3,1.2,0.7,0.7c0.1-0.1,0.2-0.2,0.3-0.3C59.9,351.6,59.2,350.9,58.8,351.3z"/>
	<path class="nav-mouth-13-st-1" d="M62.4,348c-1,0-1,1,0,1S63.4,348,62.4,348z"/>
	<path class="nav-mouth-13-st-1" d="M63.9,350.8c0.1-0.3-0.2-0.7-0.6-0.6c0,0,0,0,0,0c-0.2,0-0.3,0-0.4,0.1c-1,0.4-1.9,1.4-2.1,2.5
		c-0.2,1.2,0.9,2.3,2.1,2.4c1,0.1,1.5-1,1.6-1.9C64.5,352.4,64.3,351.5,63.9,350.8z M63,354.1c-0.6,0.4-1.4-0.7-1.3-1.2
		c0.1-0.7,0.7-1.3,1.3-1.6C63.5,352.1,63.8,353.6,63,354.1z"/>
	<path class="nav-mouth-13-st-1" d="M68.8,356c-1.1-0.2-2.1,0-3,0.6c-0.5,0.3,0,1.2,0.5,0.9c0.7-0.5,1.4-0.7,2.3-0.5
		C69.2,357.1,69.5,356.1,68.8,356z"/>
	<path class="nav-mouth-13-st-1" d="M71.8,354.7c-1.3-0.5-2.6-1.2-3.5-2.3c-0.4-0.5-1.1,0.2-0.7,0.7c1,1.2,2.5,1.9,3.9,2.5
		C72.1,355.9,72.4,354.9,71.8,354.7z"/>
	<path class="nav-mouth-13-st-1" d="M74,358.9c-0.8-0.3-1.6-0.3-2.6-0.3c0,0,0,1,0,1c1,0,1.6,0,2.3,0.2C74.3,360.1,74.7,359.1,74,358.9z"/>
	<path class="nav-mouth-13-st-1" d="M78.5,361.9c-0.3-1.2-0.3-2.5-0.5-3.7c-0.1-0.6-1.1-0.4-1,0.3c0.2,1.2,0.3,2.5,0.5,3.7
		C77.7,362.8,78.6,362.6,78.5,361.9z"/>
	<path class="nav-mouth-13-st-1" d="M85.6,362.1c-1-0.3-1.7-1.3-2.7-1.7c-1.1-0.4-1.7,0.6-1.9,1.5c-0.2,0.6,0.8,0.9,1,0.3c0.1-0.2,0.2-0.9,0.5-0.9
		c0.3,0,0.7,0.4,0.8,0.5c0.6,0.5,1.3,1,2,1.3C86,363.3,86.2,362.3,85.6,362.1z"/>
	<path class="nav-mouth-13-st-1" d="M89.4,360.6c-0.4-1.1-1.4-1.5-2.5-1.1c-0.6,0.2-0.4,1.1,0.3,1c0.5-0.1,1-0.1,1.2,0.4
		C88.7,361.5,89.7,361.2,89.4,360.6z"/>
	<path class="nav-mouth-13-st-1" d="M93.1,363.2c-0.7-0.2-1.4-0.4-1.9-0.9c-0.5-0.4-1.2,0.3-0.7,0.7c0.7,0.6,1.5,0.9,2.4,1.2
		C93.4,364.4,93.7,363.4,93.1,363.2z"/>
	<path class="nav-mouth-13-st-1" d="M95.3,360c-0.3,0-0.6,0-0.8,0.1c-0.3,0.2-0.3,0.6-0.1,0.9c0.3,0.3,0.7,0.2,0.9,0c0,0,0.1,0,0.1,0
		C96,361,96,360,95.3,360z"/>
	<path class="nav-mouth-13-st-1" d="M98.1,362.7c-0.3,0-0.5,0.2-0.8,0.3c-0.6,0.1-0.4,1.1,0.3,1c0.3,0,0.5-0.2,0.8-0.3
		C99,363.5,98.8,362.6,98.1,362.7z"/>
	<path class="nav-mouth-13-st-1" d="M101.4,360.2c-1,0-1,1,0,1S102.4,360.2,101.4,360.2z"/>
	<path class="nav-mouth-13-st-1" d="M105,360.7c-0.4-0.5-1.1,0.2-0.7,0.7c1,1.3-0.1,2.2-1.4,2.6c-0.6,0.2-0.4,1.2,0.3,1c0.9-0.3,1.8-0.7,2.3-1.6
		C106,362.4,105.6,361.4,105,360.7z"/>
	<path class="nav-mouth-13-st-1" d="M-35.9,403.8c-0.5-0.4-1.2,0.3-0.7,0.7c0.1,0.1,0.3,0.2,0.4,0.3c0,0.1,0.1,0.2,0.2,0.3c0.1,0,0.2,0.1,0.3,0.1
		c0.3,0.1,0.5-0.1,0.6-0.3C-34.9,404.4-35.6,404.1-35.9,403.8z"/>
	<path class="nav-mouth-13-st-1" d="M-35.8,407.1c-0.1,0-0.3-0.4-0.3-0.4c-0.4-0.5-1.1,0.2-0.7,0.7c0.2,0.3,0.4,0.6,0.8,0.7
		C-35.5,408.2-35.2,407.3-35.8,407.1z"/>
	<path class="nav-mouth-13-st-1" d="M-31.3,407.9c-0.1,0.1-0.1,0.1-0.2,0.2v0c-0.1,0.1-0.2,0.2-0.3,0.3c-0.5,0.5,0.3,1.2,0.7,0.7
		c0.1-0.1,0.2-0.2,0.3-0.3l0.2-0.2C-30.2,408.1-30.9,407.4-31.3,407.9z"/>
	<path class="nav-mouth-13-st-1" d="M-29.7,405.8c-0.3-0.5-0.7-1.1-1.3-1.2c-0.5-0.1-1,0.2-1.5,0.2c-0.6,0-0.6,1,0,1c0.3,0,0.6-0.1,0.9-0.1
		c-0.1,0.2-0.1,0.4,0.1,0.5c0.4,0.3,0.9,0.4,1.4,0.4C-29.7,406.5-29.5,406.1-29.7,405.8z"/>
	<path class="nav-mouth-13-st-1" d="M-26,410.5c-0.3-0.3-0.5-0.7-0.8-1.1c-0.4-0.5-1.1,0.2-0.7,0.7c0.3,0.3,0.5,0.7,0.8,1.1
		C-26.3,411.6-25.6,410.9-26,410.5z"/>
	<path class="nav-mouth-13-st-1" d="M-25.3,407.1c-0.3,0-0.5-0.2-0.7-0.4c-0.5-0.4-1.2,0.3-0.7,0.7c0.4,0.4,0.9,0.6,1.4,0.7
		C-24.7,408.2-24.7,407.2-25.3,407.1z"/>
	<path class="nav-mouth-13-st-1" d="M-20.5,409.1c-0.8-0.8-1.8,1.2-2,1.7c-0.3,0.6,0.6,1.1,0.9,0.5c0.1-0.2,0.2-0.4,0.3-0.6c0.2,0,0.4,0,0.5-0.2
		C-20.6,410.2-20.1,409.5-20.5,409.1z"/>
	<path class="nav-mouth-13-st-1" d="M-14.4,410.3c0.1,0,0.3,0,0.4-0.1c0.6-0.2,0.4-1.1-0.3-1c-0.8,0.2-1.3,0.2-1.7,1.1c0,0,0,0,0,0
		c-0.1-0.1-0.2-0.1-0.3-0.1c-0.7,0-1.2,0.1-1.9,0.3c-0.6,0.3-0.1,1.1,0.5,0.9c0.4-0.2,0.9-0.2,1.3-0.2c0.3,0,0.4-0.2,0.5-0.4
		c0.1,0.1,0.2,0.1,0.3,0.2c0.7,0.1,1.6,0.4,1.8,1.2c0.2,0.8-0.9,0.8-1.4,0.8c-0.6-0.1-0.9,0.9-0.3,1c1.2,0.2,2.6-0.1,2.7-1.5
		C-12.6,411.3-13.4,410.7-14.4,410.3z"/>
	<path class="nav-mouth-13-st-1" d="M-18.6,407.9h-0.3c-0.6,0-0.6,1,0,1h0.3C-18,408.9-18,407.9-18.6,407.9z"/>
	<path class="nav-mouth-13-st-1" d="M-8.2,412.9c-0.3-0.3-0.5-0.4-0.8-0.5c0.4-1.9-0.1-4-2.3-4.4c-0.6-0.1-0.9,0.9-0.3,1c1.9,0.3,1.9,2.1,1.5,3.6
		c-0.1,0.3,0.2,0.6,0.5,0.6c0.3,0,0.5,0.2,0.7,0.4C-8.4,414-7.7,413.3-8.2,412.9z"/>
	<path class="nav-mouth-13-st-1" d="M-2.8,411.4c-0.9-1.4-2.2-2.3-3.9-1.5c-0.6,0.3-0.1,1.1,0.5,0.9c1.1-0.5,1.9,0.3,2.5,1.2
		C-3.3,412.4-2.4,411.9-2.8,411.4z"/>
	<path class="nav-mouth-13-st-1" d="M-1.8,413c-1-0.3-1.8-0.3-2.8-0.3c-1,0-1,1,0,1c0,0,1.8,0,2.7,0.2C-1.3,414.1-1.2,413.2-1.8,413z"/>
	<path class="nav-mouth-13-st-1" d="M-0.2,409.1c-0.8-0.3-1.7,0.4-2.3,0.8c-0.5,0.4,0.2,1.1,0.7,0.7c0.4-0.3,0.8-0.6,1.2-0.6
		c0.4,0,0.5,0.9,0.6,1.1c0.1,0.6,1.1,0.4,1-0.3C0.9,410.2,0.6,409.4-0.2,409.1z"/>
	<path class="nav-mouth-13-st-1" d="M3.9,411.4c-0.9,0.4-1.5,0.5-2.5,0.5c-1,0-1,1,0,1c1,0,2.1-0.1,3.1-0.6C5.1,412,4.5,411.2,3.9,411.4z"/>
	<path class="nav-mouth-13-st-1" d="M4.8,407.5c-0.7-0.3-1.4-0.3-2.1,0c-0.6,0.3-0.1,1.1,0.5,0.9c0.4-0.2,0.7-0.2,1.1,0
		C4.9,408.6,5.4,407.7,4.8,407.5z"/>
	<path class="nav-mouth-13-st-1" d="M9.6,411.4c-1.3,0-2.5-0.4-3-1.8c-0.2-0.6-1.2-0.3-1,0.3c0.6,1.8,2.1,2.5,3.9,2.5
		C10.2,412.4,10.2,411.4,9.6,411.4z"/>
	<path class="nav-mouth-13-st-1" d="M11.7,408.2c-0.4,0-0.6,0.1-0.9,0.4c-0.5,0.5,0.2,1.2,0.7,0.7c0.2-0.2,0-0.1,0.2-0.1
		C12.4,409.2,12.4,408.2,11.7,408.2z"/>
	<path class="nav-mouth-13-st-1" d="M67.1,382.1c-0.6,0-1.1-0.2-1.5-0.7c-0.5-0.4-1.2,0.3-0.7,0.7c0.6,0.6,1.3,0.9,2.2,0.9
		C67.8,383.1,67.7,382.1,67.1,382.1z"/>
	<path class="nav-mouth-13-st-1" d="M69.1,376.2c-0.2-0.1-0.4,0-0.6,0.2c-0.1,0.2-0.1,0.4-0.1,0.6c0,0.2,0.1,0.3,0.2,0.4c0,0,0,0,0,0.1
		c0,0.2,0.1,0.4,0.1,0.6c0,0.6,1,0.6,1,0C69.7,377.6,69.7,376.3,69.1,376.2z"/>
	<path class="nav-mouth-13-st-1" d="M75.4,373.4h-3c-1,0-1,1,0,1h3C76.4,374.4,76.4,373.4,75.4,373.4z"/>
	<path class="nav-mouth-13-st-1" d="M75.4,369.3v1C76.4,370.3,76.4,369.3,75.4,369.3z"/>
	<path class="nav-mouth-13-st-1" d="M80.8,367.9c-0.4-0.4-0.8-0.4-1.2,0c-0.4,0.4,0.2,1.1,0.6,0.8C80.6,368.9,81.2,368.3,80.8,367.9z"/>
	<path class="nav-mouth-13-st-1" d="M61.4,386.6c-0.4-0.1-0.8-0.1-1.2-0.1c0,0,0-0.1,0-0.1c0-1-1-1-1,0c0,0,0,0.1,0,0.1c-0.7,0.1-1.3,0.2-2,0.3
		c-0.6,0.1-0.4,1.1,0.3,1c0.6-0.1,1.2-0.2,1.7-0.3c0,0.7-0.1,1.4-0.2,2.1c-0.1,0.6,0.8,0.9,1,0.3c0.2-0.8,0.2-1.7,0.3-2.5
		c0.3,0,0.7,0,1,0.1C61.7,387.7,62,386.7,61.4,386.6z"/>
	<path class="nav-mouth-13-st-1" d="M62,382.8l-0.3,0.3c-0.5,0.5,0.3,1.2,0.7,0.7c0.1-0.1,0.2-0.2,0.3-0.3C63.1,383,62.4,382.3,62,382.8z"/>
	<path class="nav-mouth-13-st-1" d="M64.2,386c0,0.2,0,0-0.1,0.2c-0.5,0.5,0.3,1.2,0.7,0.7c0.3-0.3,0.4-0.5,0.4-0.9
		C65.2,385.4,64.2,385.4,64.2,386z"/>
	<path class="nav-mouth-13-st-1" d="M55.3,388.8c-0.1-0.6-1.1-0.4-1,0.3c0.2,1.2,1,2.5,0.5,3.7c-0.2,0.6,0.8,0.9,1,0.3
		C56.4,391.6,55.6,390.3,55.3,388.8z"/>
	<path class="nav-mouth-13-st-1" d="M51.4,393.3c-3.5-2.2-3.9,3.9-6.8,4.5c-0.6,0.1-0.4,1.1,0.3,1c1.4-0.3,2.3-1.3,3-2.5c0.7-1.2,1.3-3.1,3-2.1
		C51.4,394.5,51.9,393.7,51.4,393.3z"/>
	<path class="nav-mouth-13-st-1" d="M42.4,395.7c-1,0-1,1,0,1V395.7z"/>
	<path class="nav-mouth-13-st-1" d="M49.4,396.5c-1,0-1,1,0,1S50.4,396.5,49.4,396.5z"/>
	<path class="nav-mouth-13-st-1" d="M52.4,390.1c-1,0-1,1,0,1V390.1z"/>
	<path class="nav-mouth-13-st-1" d="M13,409.1l-1.6,1.6c-0.5,0.5,0.3,1.2,0.7,0.7c0.5-0.5,1.1-1.1,1.6-1.6C14.1,409.4,13.4,408.7,13,409.1z"/>
	<path class="nav-mouth-13-st-1" d="M19.7,409.1c-1.2-0.9-2.4-1.9-3.7-2.7c-0.6-0.3-1.1,0.5-0.5,0.9c1.3,0.8,2.5,1.7,3.7,2.7
		C19.7,410.3,20.2,409.4,19.7,409.1z"/>
	<path class="nav-mouth-13-st-1" d="M25.5,406.9c-1.2-0.7-2.4-1.3-3.5-2.1c-0.5-0.4-1,0.5-0.5,0.9c1.1,0.8,2.3,1.4,3.5,2.1
		C25.6,408.1,26.1,407.2,25.5,406.9z"/>
	<path class="nav-mouth-13-st-1" d="M21.4,407.1c-1,0-1,1,0,1V407.1z"/>
	<path class="nav-mouth-13-st-1" d="M25.4,402.9c-1,0-1,1,0,1V402.9z"/>
	<path class="nav-mouth-13-st-1" d="M32.2,404c-0.9,0.6-2.2,1-3.2,0.5c-0.6-0.3-1.1,0.6-0.5,0.9c1.4,0.6,3,0.3,4.2-0.5
		C33.3,404.5,32.8,403.6,32.2,404z"/>
	<path class="nav-mouth-13-st-1" d="M30.4,401.3c-1,0-1,1,0,1V401.3z"/>
	<path class="nav-mouth-13-st-1" d="M37.4,403c-1.1-1.1-2.5-1.7-4.1-1.7c-0.6,0-0.6,1,0,1c1.3,0,2.4,0.6,3.4,1.5C37.1,404.2,37.8,403.5,37.4,403z"
		/>
	<path class="nav-mouth-13-st-1" d="M38.4,398.9c-1,0-1,1,0,1V398.9z"/>
	<path class="nav-mouth-13-st-1" d="M42.4,400.6c-0.3-0.3-0.7-0.1-1-0.1c-0.2,0-0.3,0.2-0.3,0.3c0,0,0,0,0,0c-0.3,0.1-0.6,0.2-0.8,0.4
		c-0.1,0.2-0.1,0.5,0.1,0.6c0.1,0.1,0.2,0.1,0.4,0.2c0.2,0,0.3,0,0.4-0.1c0.1,0,0.2-0.1,0.3-0.1c0.3-0.1,0.5-0.2,0.8-0.3
		C42.6,401.3,42.7,400.8,42.4,400.6z"/>
	<path class="nav-mouth-13-st-1" d="M-3.6,407.1v1C-2.6,408.1-2.6,407.1-3.6,407.1z"/>
	<path class="nav-mouth-13-st-1" d="M-29.6,410.3c-1,0-1,1,0,1V410.3z"/>
	<path class="nav-mouth-13-st-1" d="M-21.6,406.6c-1,0-1,1,0,1V406.6z"/>
	<path class="nav-mouth-13-st-1" d="M43.7,394v0.3c0,0.6,1,0.6,1,0V394C44.7,393.4,43.7,393.4,43.7,394z"/>
	<path class="nav-mouth-13-st-1" d="M58.4,391.7v1C59.4,392.7,59.4,391.7,58.4,391.7z"/>
	<path class="nav-mouth-13-st-1" d="M71.1,380.8h-0.5c-0.6,0-0.6,1,0,1h0.5C71.7,381.8,71.7,380.8,71.1,380.8z"/>
	<path class="nav-mouth-13-st-1" d="M72.9,377.2c-0.1,0.1-0.2,0.2-0.3,0.3c-0.5,0.5,0.3,1.2,0.7,0.7c0.1-0.1,0.2-0.2,0.3-0.3
		C74,377.4,73.3,376.7,72.9,377.2z"/>
	<path class="nav-mouth-13-st-1" d="M73.2,369.8L73.2,369.8c-0.7,0-0.7,1-0.1,1h0.1C73.9,370.8,73.9,369.8,73.2,369.8z"/>
	<path class="nav-mouth-13-st-1" d="M78.9,371.3l-0.3-0.3c-0.5-0.5-1.2,0.3-0.7,0.7c0.1,0.1,0.2,0.2,0.3,0.3C78.7,372.5,79.4,371.8,78.9,371.3z"/>
	<path class="nav-mouth-13-st-1" d="M81.4,364c-1,0-1,1,0,1S82.4,364,81.4,364z"/>
	<path class="nav-mouth-13-st-1" d="M80.3,356.7c-0.1,0.1-0.2,0.2-0.3,0.3c-0.5,0.5,0.3,1.2,0.7,0.7c0.1-0.1,0.2-0.2,0.3-0.3
		C81.5,356.9,80.8,356.2,80.3,356.7z"/>
	<path class="nav-mouth-13-st-1" d="M91.9,358.4h-0.3c-0.6,0-0.6,1,0,1h0.3C92.5,359.4,92.5,358.4,91.9,358.4z"/>
	<path class="nav-mouth-13-st-1" d="M98.5,358.4c-0.5,0-0.8,0.3-0.8,0.8c0,0.6,0.8,0.6,1,0.2C99.2,359.2,99.1,358.4,98.5,358.4z"/>
	<path class="nav-mouth-13-st-1" d="M-92.2,360.1c-0.2,0.2-0.3,0.6-0.5,0.8c-0.4,0.5,0.3,1.2,0.7,0.7c0.2-0.2,0.3-0.6,0.5-0.8
		C-91.1,360.3-91.8,359.6-92.2,360.1z"/>
	<path class="nav-mouth-13-st-1" d="M-97.6,357.1c-1,0-1,1,0,1S-96.6,357.1-97.6,357.1z"/>
	<path class="nav-mouth-13-st-1" d="M-87.1,354.1c-0.6,0-1.2,0-1.7,0.4c-0.5,0.4,0.2,1.1,0.7,0.7c0.2-0.2,0.7-0.1,1-0.1
		C-86.4,355.1-86.4,354.1-87.1,354.1z"/>
	<path class="nav-mouth-13-st-1" d="M-65,346.2c-0.1-0.6-1.1-0.4-1,0.3c0.3,1.3,0.5,2.7,0.8,4c0.1,0.6,1.1,0.4,1-0.3
		C-64.5,348.9-64.8,347.6-65,346.2z"/>
	<path class="nav-mouth-13-st-1" d="M-54.6,342.9c-1,0-1,1,0,1V342.9z"/>
	<path class="nav-mouth-13-st-1" d="M-55.7,348h-1.9c-0.6,0-0.6,1,0,1h1.9C-55,349-55,348-55.7,348z"/>
	<path class="nav-mouth-13-st-1" d="M-42.2,341.6c-0.2,0-0.3-0.2-0.5-0.3c-0.6-0.1-0.9,0.9-0.3,1c0.2,0,0.3,0.2,0.5,0.3
		C-41.8,342.7-41.6,341.7-42.2,341.6z"/>
	<path class="nav-mouth-13-st-1" d="M-42.1,336.5h-0.3c-0.6,0-0.6,1,0,1h0.3C-41.4,337.5-41.4,336.5-42.1,336.5z"/>
	<path class="nav-mouth-13-st-1" d="M-31.6,337.9v1C-30.6,338.9-30.6,337.9-31.6,337.9z"/>
	<path class="nav-mouth-13-st-1" d="M-35.6,334.4c-1,0-1,1,0,1V334.4z"/>
	<path class="nav-mouth-13-st-1" d="M-30.1,331.5h-0.5c-0.6,0-0.6,1,0,1h0.5C-29.5,332.5-29.5,331.5-30.1,331.5z"/>
	<path class="nav-mouth-13-st-1" d="M-21.6,329.1v1C-20.6,330.1-20.6,329.1-21.6,329.1z"/>
</g>
</svg>
