<?xml version="1.0" encoding="utf-8"?>
<!-- Generator: Adobe Illustrator 19.1.0, SVG Export Plug-In . SVG Version: 6.00 Build 0)  -->
<svg version="1.1" id="Layer_1" xmlns="http://www.w3.org/2000/svg" xmlns:xlink="http://www.w3.org/1999/xlink" x="0px" y="0px"
	 viewBox="-152 308.1 305.8 176.9" style="enable-background:new -152 308.1 305.8 176.9;" xml:space="preserve">
<style type="text/css">
	.nav-mouth-16-st-0{fill:#0B3746;}
	.nav-mouth-16-st-1{fill:#FCDCA4;}
</style>
<path class="nav-mouth-16-st-0" d="M129,322.7c-12.6,0.1-25.5,2-38,3.2c-32.6,3.2-65.5,5-98.2,4.1c-32.6-0.9-65.1-3.3-97.5-6.7
	c-6.7-0.7-12.9-2.2-19.7-1.2c-0.2,0-0.4,0.1-0.6,0.1c-0.6-0.1-1.3-0.1-1.9,0c-1.8,0.1-3.1,1.6-3.5,3.3c-1.1,3.3-1,6.8-0.3,10.4
	c0.6,12.3,4.6,24.7,7.9,36.3c4,14.3,9.6,27.6,18.6,39.5c9.3,12.2,20.5,23.1,33.6,31.2c6.1,3.8,12.7,6,19.4,8.1
	c2.5,1.5,5.2,2.9,8,4.1c24.8,11.1,52.9,6.4,77.4-3c25.4-9.8,49.1-23.8,66-45.5c8.7-11.2,14.6-23.9,21.4-36.3
	c5.5-9.9,10.9-20.1,14.5-30.9C138.5,331.9,139.1,322.6,129,322.7z M102.7,354.8c0.3-0.1,0.6-0.3,1-0.4 M7.4,377.1
	c0,0.1,0.1,0.1,0.1,0.2c-2.7,0.3-5.3,0.6-8,0.9C2.2,377.9,4.8,377.5,7.4,377.1z"/>
<path class="nav-mouth-16-st-1" d="M133.4,324.2c-0.1-0.3-0.3-0.5-0.7-0.7c-7-3.1-14.6-2.3-22-1.2c-10.5,1.5-21,3-31.6,3.6
	c-22.5,1.4-45.2,1.2-67.8,2.1c-22.6,0.8-45.1,1-67.6-1.1c-10.8-1-21.5-2.3-32.2-3.7c-5.4-0.7-10.7-0.2-16.1-0.4
	c-4.4-0.2-8.5-1.8-12.7-3c-0.2-0.3-0.5-0.6-0.9-0.8c-4.8-1.5-13.5,1.7-12.5,7.8c0.2,1,1.4,1.3,2.2,0.9c1.9-1,3.7-2,5.6-3
	c-1.1,7.8-0.9,16-0.3,23.7c0.2,3.3,0.5,8.3,1.8,12.6c0.6,3.5,1.7,6.4,4,6.8c0,0,0,0,0,0c0.5,0.4,1.1,0.8,1.7,1.1
	c0.8,0.3,1.6,0.2,2.1-0.5c3.5-5.7,3.9-12.6,4.1-19.1c0.1-3.7,0-7.4,0.1-11.1c0.1-3.4-0.3-7.6,1.2-10.8c3.3,5.1,5.1,10.3,5.5,16.6
	c0.2,3.4-0.1,6.9,0.1,10.3c0.2,3.7,1.4,14.4,7.7,10.9c7.1-3.9-0.4-33,6-35.5c0.7,1.3,1.2,2.7,1.7,4.1c1.2,6.1,0.9,12.3,0.8,18.5
	c-0.1,4.1-0.4,9.5,1.6,13.3c1,2,3.6,4.7,6.1,3.2c2.8-1.6,3.1-6.7,3.3-9.5c0.7-7.7,0.3-15.6,2.4-23.2c1.5-5.7,2.8,4.2,3,5.2
	c0.1,1.1,0,2.2,0,3.3c-0.1,7.2-0.4,14.6,1.1,21.7c0.7,3.4,4.3,9.8,8.5,5.7c4.8-4.6,3.3-15.3,3.5-21.2c0.1-4.4,0.1-9.1,0.7-13.5
	c0.1-0.6,1.5-5.3,2.3-4.1c0.8,1.3,1.1,3.2,1.3,4.7c1.1,6.1,1.1,12.4,1.2,18.6c0.1,5.2-0.7,13.1,3.1,17.3c3.9,4.3,7.9,2,9.4-2.8
	c1.6-5.1,1.6-10.9,2-16.1c0.3-3.6,0.4-14.3,4.1-17.3c1.9,5.2,1.6,10.9,1.5,16.4c-0.1,5.3,0.1,10.5,0.7,15.8c1,8.7,1.9,18.2,6.7,25.8
	c0.5,0.8,1.6,1,2.4,0.3c6.5-5.9,7.2-16.7,7.9-24.8c1-10-0.2-22,4.3-31.2c4.8-9.8,8.5,2.2,9.7,7c1.6,6.4,2.5,12.9,3.3,19.4
	c0.6,4.7,1.7,9.4,2.8,14c1,4.3,1.8,10,3.9,13.9c2.9,5.5,7.3-0.3,8.7-3.5c6-14.4,3.8-30.6,5.9-45.6c0.6-4.2,1.6-9.1,4.8-12.2
	c0.8,2.2,1.2,4.6,1.7,6.8c1.1,4.7,2.1,9.4,3.3,14.1c1.2,4.6,2.6,14.5,7.9,16.5c5.3,2,5.6-9.5,5.8-12c0.4-4.8,0.5-9.7,0.9-14.5
	c0.3-2.9,0.5-6.9,2-9.7c0.7,2,0.8,4.2,1.1,6.4c0.4,2.6,1.1,5,1.6,7.6c0.9,5.1,1.1,10.6,4.3,14.9c3.9,5.1,7.2-0.6,8.2-4.4
	c1.8-6.4,2-13.1,3.1-19.6c0.5-2.6,1.5-7,4.4-2.6c1.9,2.9,2.5,6.6,3.3,9.9c1.1,5,2.2,10,5.6,14c0.5,0.6,1.6,0.5,2.1,0
	c2.9-2.8,3.4-6.9,3.9-10.7c0.8-6.3,1.7-12.4,4-18.3c1.8,2.1,2.8,5.9,3.6,7.9c1.2,3.2,2.2,6.5,3.3,9.7c0.4,1.2,2,1.5,2.7,0.4
	c4-6,0.6-16.1,6.4-20.7c3.7,5.2,2.6,12.3,8.9,15.9c0.7,0.4,1.6,0.2,2.1-0.5c3-4.7,2.3-10.3,4.2-15.4c0,0,0,0,0,0
	c1,3,1.1,9.8,5.3,7.9c1.6-0.7,2-3.4,2.4-4.8c0.5-1.9,0.7-4.4,1.8-6.1C134.1,325.3,133.9,324.6,133.4,324.2z"/>
<path class="nav-mouth-16-st-0" d="M125.4,321.2c-2.6-0.3-5.3-0.4-7.9-0.2c-3.7,0.3-7.3,1.4-11,1.9c-1.6,0-3.1,0.1-4.7,0.2c-0.3,0-0.5,0.3-0.5,0.5
	c-2.8,0.2-5.7,0.3-8.4,0.8c-5.2,1-10.5,0.7-15.7,1c-5.1,0.3-10.1,0.5-15.2,0.7c-2.1,0.1-4.1,0.3-6.1,0.5c-0.1-0.1-0.2-0.1-0.3-0.1
	c-3.1,0-6.1-0.2-9.1,0.2c-0.2,0-0.3,0.2-0.3,0.4c-0.4,0-0.8,0-1.2,0c-3.8,0-7.6,0.3-11.4,0.2c-7.4-0.2-14.7-0.1-22.1,0.1
	c-7.8,0.2-15.6,0.7-23.4,0.6c-3.8,0-7.6-0.3-11.4-0.3c-2.9,0-7,1.2-9.7-0.2c-0.3-0.1-0.5,0-0.6,0.2c-10.2,0.7-20.4-1-30.6-2.1
	c-5-0.5-10.1-0.9-15.1-1.5c-5.4-0.6-10.6-1.5-16-1.6c-5.3-0.1-10.5-0.3-15.7-1.5c-2.2-0.5-4.2-1.1-6.3-2c-1.6-0.7-3.3-1.2-5.1-0.9
	c-2.7,0.5-6,2.1-7.6,4.4c-2.1,3-0.7,6.8-0.2,10.1c0.1,0.6,1.1,0.4,1-0.3c-0.3-2-0.8-3.9-0.9-5.9c-0.2-2.5,1.3-4.1,3.3-5.4
	c1.6-1.1,3.4-1.8,5.4-2c2-0.2,4.1,1,6,1.7c8.6,3.2,17.8,2.1,26.8,3c4.4,0.4,8.7,1.2,13,1.7c4.8,0.5,9.5,0.9,14.3,1.4
	c9.3,1,18.6,2.4,28,1.7c0.1,0,0.2,0,0.2-0.1c2,0.8,4.2,0.4,6.3,0.2c3.9-0.4,8,0,12,0.1c8.1,0.3,16.3-0.2,24.4-0.5
	c7.7-0.2,15.5-0.6,23.2-0.2c3.8,0.2,7.6-0.1,11.4-0.1c1.5,0,3.1-0.1,4.6-0.3c4.2,0.2,8.3-0.5,12.5-0.8c5.4-0.4,10.8-0.3,16.2-0.7
	c5-0.4,10.1-0.2,15.1-0.9c2.6-0.4,5.2-0.9,7.8-1c2.4-0.1,4.7-0.1,7-0.6c5.1-0.6,10.1-2.2,15.4-1.9c2,0.1,12.5,0.4,11.6,3.9
	c-0.2,0.6,0.8,0.9,1,0.3C136.1,322,127.9,321.5,125.4,321.2z"/>
<path class="nav-mouth-16-st-1" d="M90.9,416.7c-0.4-2.5-0.9-4.9-1.7-7.3c-0.6-2.7-1.6-5.3-3-7.5c-0.2-0.2-0.4-0.3-0.7-0.2
	c-2.4,1.3-3.2,4.3-3.7,6.8c-0.4,1.9-0.6,3.8-0.9,5.7c-0.5,2-1,3.9-1.6,5.9c-0.1,0.1-0.2,0.2-0.3,0.3c-1.8-0.1-3.1-1.1-4-2.4
	c-0.3-0.8-0.5-1.5-0.7-2.2c-0.6-1.9-1.1-4.5-2.5-6.2c0-0.1-0.1-0.1-0.1-0.2c-0.3-0.4-0.7-0.7-1.1-0.9c-0.2-0.1-0.4-0.1-0.6,0.1
	c-3.3,2.9-3.8,8.1-4.3,12.2c-0.5,4.1-0.3,8.4-1.5,12.4c-0.2,0.6-0.4,0.9-0.8,1.2c-0.2,0.1-0.4,0.2-0.6,0.3c-0.6,0.2-1.3,0-2-0.4
	c-0.7-0.9-1.5-1.8-2.3-2.7c-0.7-1.3-1.1-2.8-1.6-4.1c-0.7-2.2-1.1-4.9-2.1-7.1c0,0,0,0,0-0.1c0-0.5-0.4-1-0.8-1.2
	c-0.1-0.1-0.1-0.2-0.2-0.3c-0.2-0.2-0.5-0.2-0.7,0c0,0,0,0,0,0c-0.3,0-0.6,0.1-0.9,0.4c-1.3,1.5-1.2,3.4-1.2,5.3
	c0,0.3-0.1,0.6-0.1,0.8c-0.4,3.2-0.5,6.4-1.1,9.6c-0.7,1.9-2,3.3-3.5,4.5c-0.1,0-0.1,0-0.2,0c-1.3-1.3-2.4-2.8-3.5-4.6
	c-0.6-1-1.2-1.9-1.8-2.8c-0.5-1.3-1.2-2.5-2.3-3.5c-0.2-0.1-0.4-0.2-0.6-0.1c-4.1,3.1-4.8,8.2-5.7,13.1c-0.4,1.5-0.7,2.9-0.9,4.4
	c0,0,0,0,0,0c-0.7-1.4-1.4-2.9-2.1-4.2c-0.6-1.1-1.3-2.1-2-3.1c-0.9-1.7-2-3.2-3.5-4.4c-0.2-0.1-0.5-0.1-0.6,0.1
	c-0.4,0.5-0.7,0.9-1,1.5c0,0,0,0,0,0c0,0.1-0.1,0.2-0.1,0.3c-0.1,0.2-0.2,0.4-0.3,0.7c0,0,0,0.1-0.1,0.1c-1.5,3.3-1.9,7.2-3.3,10.4
	c-0.6,1.2-1.6,2.9-3.2,2.2c-1.2-0.6-1.9-2.6-2.3-3.8c-0.8-2.1-1.2-4.2-1.6-6.4c-0.4-2.2-1.3-7.8-4.5-4.9c-2.2,1.9-3,5.4-3.6,8.1
	c-0.6,2.9-0.8,5.9-1.6,8.7c-1.4-2.2-2.8-4.5-4.1-6.8c-0.7-1.9-1.5-3.7-2.9-5.1c-0.2-0.2-0.4-0.2-0.6-0.1c-0.1,0-0.1,0.1-0.1,0.1
	c-0.4,0-0.8,0.1-1.2,0.4c-1.6,1.4-2.2,3.3-2.7,5.3c-0.9,3-1.5,6-2.5,8.9c-2.7-4.1-2.2-11.3-7-13.8c-0.2-0.1-0.4-0.1-0.6,0.1
	c-2.2,1.9-3.5,4.4-4.6,7.1c-0.7,1.7-1.4,3.4-2.1,5c-0.3,0.6-0.6,1.1-0.8,1.4c-2-3-3.6-5.8-4.9-9c-0.3-1-0.6-2-1-2.9
	c-0.1-0.2-0.1-0.4-0.2-0.6c-0.1-0.4-0.4-0.7-0.7-0.9c-0.1-0.2-0.3-0.4-0.5-0.6c-0.2-0.2-0.5-0.2-0.7,0c-1.4,1.3-2.3,2.9-3,4.6
	c-1.2,2-2.3,4.1-3.4,6.2c-0.7-1.6-1.4-3.1-2.1-4.6c-0.1-0.3-0.2-0.6-0.4-0.9c-0.7-3.6-1.1-7.2-2.9-10.5c-0.1-0.2-0.4-0.3-0.7-0.2
	c-2.1,1.1-3.3,3-4.4,5c-0.6,1.1-1.2,2.3-1.8,3.5c-0.3,0.5-0.7,1.1-1,1.6c-0.6,0.8-0.9,0.8-1.1,0.4c-0.8-3.2-1.7-6.4-2.4-9.6
	c-0.1-0.3-0.1-0.7-0.2-1c-0.2-1.9-0.4-3.8-0.8-5.5c0,0,0,0,0,0c0.2-0.6,0-1.2-0.5-1.5c-0.1-0.4-0.3-0.7-0.5-1.1
	c-0.1-0.3-0.6-0.3-0.8-0.1c-3.1,2.9-4.2,7.1-7,10.2c-0.1,0.1-0.1,0.1-0.2,0.2c-0.6-1.1-1.1-2.2-1.7-3.4c-1.1-3.5-1-7.4-1.5-11
	c0-0.3,0.1-0.7,0.2-1c0.1-0.7-0.2-1.2-0.7-1.6c-0.1-0.3-0.1-0.6-0.2-0.9c-0.1-0.3-0.6-0.5-0.8-0.2c-1.7,1.9-2.9,4.2-4.1,6.5
	c-1,1.6-1.9,3.3-2.5,4.9c-0.3,0.6-0.6,1.1-1,1.6c-1.3-1.2-2.1-2.6-2.6-4.1c-0.2-4.8-1.3-9.9-3-14.3c-0.1-0.2-0.2-0.4-0.4-0.6
	c-0.1-0.3-0.2-0.5-0.4-0.6c-0.3-0.4-0.6-0.8-0.9-1.2c-0.2-0.2-0.5-0.2-0.7,0c-2.7,2.4-2.8,6.4-2.4,10.2c-0.5-1.1-0.8-2.4-1.1-3.5
	c-0.1-1.4-0.2-2.8-0.2-4.3c0.2-0.7,0.3-1.4,0.5-2.1c0.1-0.6-0.1-1.1-0.5-1.5c0-0.4,0-0.8,0-1.2c0-0.4-0.5-0.7-0.9-0.4
	c-0.8,0.7-1.4,1.6-2,2.5c-0.5,0.7-0.9,1.4-1.1,2.2c-1.4,3.5-1.2,7.4,1.8,10.2c0.6,2.2,2.5,3.6,4.3,4.9c0,0,0.1,0,0.1,0.1
	c1.1,1.3,2.4,2.4,3.8,3.2c0.7,0.8,1.4,1.6,2.3,2.3c0.1,0.1,0.2,0.1,0.3,0.2c1,1.1,2.2,1.9,3.5,2.6c1.4,2.3,5.2,5.4,8.3,5.9
	c1.4,1.1,2.9,2.1,4.8,3c3.2,1.6,6.5,3,9.8,4.3c0.2,0.2,0.3,0.3,0.6,0.4c4.5,1.4,8.6,4.7,13.2,5.8c0.2,0.1,0.4,0.2,0.6,0.3
	c2.1,0.9,4.3,1.7,6.5,2.4c0,0-0.1,0-0.1,0v0c0,0,0.1,0,0.1,0c1.1,0.5,2.2,0.9,3.4,1.1c0.2,0,0.3,0,0.5,0c0.5,0.1,1,0.3,1.4,0.4
	c1,0.4,2,0.7,3,0.7c2.8,0.7,5.6,1.2,8.4,1.3c0.2,0.2,0.5,0.3,0.9,0.3c0.8-0.1,1.5-0.1,2.3-0.2c2,0,4.4,0.4,6.1,0.3
	c2.1,0,4.1-0.3,6.2-0.3c2.6-0.1,5.2-0.3,7.7-0.9c4.3,0.1,8.7-0.9,12.8-2.4c1.9-0.4,3.7-0.9,5.5-1.5c2.5-0.6,5.1-1.2,7.4-2.2
	c0.3,0.1,0.6,0.1,0.9,0.1c4.5-1.1,8.7-3.7,13.1-5.1c2.4-0.8,4.8-1.3,6.8-2.8c2.8-1,5.5-2.3,8.2-3.9c1.6-1,3.2-1.8,4.7-2.8
	c8.9-4.5,15.7-11.8,23.5-17.7C88,420.7,91.4,419.8,90.9,416.7z"/>
<path class="nav-mouth-16-st-0" d="M96.7,408.3c-1.7,1-2.9,2.9-4.1,4.4c-1.6,2-2.2,4.6-3.8,6.7c-2.9,2.8-6.2,5.2-9.3,7.8c-0.1,0.1-0.1,0.2-0.1,0.2
	c-2.2,1.6-4.2,3.5-6.4,5.1c-2.5,1.9-5.1,3.6-7.6,5.4c-2.4,1.7-5.1,2.8-7.7,4.1c-2.7,1.4-5.9,2.5-8.5,4.2c-0.1,0-0.1,0.1-0.1,0.1
	c-9.9,4.1-20,7.7-30.2,10.8c-0.3,0-0.4,0.1-0.7,0.2c0,0,0,0-0.1,0c0,0-0.1,0-0.1,0c-1.7,0.1-3.4,1-4.9,1.7c-3.7,0.6-7.4,0.9-11,1.3
	c-2.4,0.3-4.8,0.7-7.3,0.9c-2.2,0.1-4.6,0.3-6.8,0.2v0.4h0c-0.2,0-0.5-0.2-0.7-0.2c-0.1,0-0.3-0.1-0.3,0c-0.7,0-1.3-0.1-2-0.2
	c-4.9-0.3-9.7-0.9-14.5-1.9c-4.5-0.9-8.9-2.5-13.2-4c-2.2-0.8-4.3-1.7-6.4-2.7c-1.5-0.8-3.2-1.7-4.9-2c0,0,0,0-0.1,0
	c-0.9-0.5-1.6-1.1-2.5-1.6c-1.1-0.7-2.5-1-3.7-1.5c0,0,0,0,0,0c-2.8-1.1-5.5-2.1-8.1-3.5c-1.5-0.8-2.9-2.6-4.7-2.8c0,0,0,0-0.1,0
	c-0.6-0.5-1.3-1-2-1.4c-1.5-0.8-2.9-1.6-4.1-2.6c-0.5-0.7-1.2-1.4-1.9-2c-0.1,0-0.1-0.1-0.2-0.1c-0.5-0.7-1-1.3-1.7-1.8
	c-1.3-1.1-2.8-1.8-4-2.9c-0.8-0.8-1.4-1.7-2.3-2.5c-1.2-1-2.6-1.8-3.8-2.8c0,0-0.1,0-0.1,0c-1.2-1.5-1.9-3.2-3-4.8
	c-0.9-1.3-1.8-2.5-2.8-3.7c-0.4-0.6-2.4-2.6-2.3-3.3c0.1-0.6-0.9-0.6-1,0c-0.1,0.7,0.9,1.7,1.2,2.2c0.9,1.4,1.9,2.7,2.9,4.1
	c1.5,2,2.5,4.3,4.1,6.2c1,1.2,2.2,2,3.3,3c0.8,0.7,1.6,1.4,2.4,2.2c0.1,0.1,0.3,0.2,0.4,0.1c0.2,0.2,0.4,0.4,0.6,0.6
	c0.1,0.1,0.2,0.1,0.3,0.1c0.9,0.7,1.8,1.3,2.7,1.9c2,1.3,2.8,3.5,4.7,4.9c0.1,0.1,0.3,0.1,0.4,0.1c0.7,0.5,1.4,1,2.2,1.5
	c2.2,1.3,4.2,3,6.5,4.1c0.1,0.1,0.2,0.1,0.3,0c0.9,0.6,1.9,1,2.9,1.5c2.1,1.2,4.5,1.8,6.7,2.7c1.4,0.6,2.9,1,4.1,1.8
	c1.1,0.7,2,1.5,3.3,1.8c0.2,0,0.3,0,0.4-0.1c1.3,0.5,2.7,1.3,3.9,1.8c1.9,0.9,3.9,1.7,5.9,2.5c4.3,1.6,8.7,3,13.2,4
	c4.2,0.9,8.5,1.4,12.8,1.7c2.5,0.2,5,0.3,7.5,0.4c2.3,0.1,4.5-0.4,6.8-0.5c0.1,0,0.2-0.1,0.3-0.1c1.8-0.2,3.5-0.5,5.3-0.7
	c5-0.6,10-0.9,14.9-2.2c0.1,0,0.2,0,0.3-0.1c0.1,0,0.1-0.1,0.2-0.1c0,0,0,0,0.1,0c0.5-0.3,0.6-0.3,0.9-0.8
	c10.3-3.1,20.4-6.7,30.3-10.8c0.1,0,0.2-0.1,0.2-0.2c2.3-1.5,5.1-2.5,7.5-3.7c2.9-1.5,5.9-2.6,8.5-4.5c2.3-1.6,4.7-3.2,6.9-4.9
	c2.5-1.9,4.8-4,7.3-5.8c0.1-0.1,0.2-0.2,0.2-0.3c2.9-2.4,5.9-4.7,8.7-7.3c0.1,0,0.2,0,0.3-0.2c0.1-0.2,0.3-0.4,0.4-0.5
	c0.3-0.3,0.7-0.6,1-0.9c1.3-1.3,2.2-2.9,3.2-4.4c1.2-1.8,2.9-3.5,3.6-5.6C97.6,408.5,97.1,408.1,96.7,408.3z M93.2,413.8
	c0.7-1.2,1.4-2.3,2.3-3.2C94.8,411.7,93.9,412.7,93.2,413.8z"/>
<path class="nav-mouth-16-st-0" d="M118.1,392.1c-12.1,22.6-31.4,38.6-51.8,53.3c-0.5,0.4,0,1.2,0.5,0.9c20.6-14.8,40-31,52.2-53.7
	C119.2,392,118.4,391.5,118.1,392.1z"/>
<path class="nav-mouth-16-st-0" d="M140.6,350.1l-1.5,3c-0.3,0.6,0.6,1.1,0.9,0.5l1.5-3C141.7,350,140.9,349.5,140.6,350.1z"/>
<path class="nav-mouth-16-st-0" d="M-83.1,445.5c-8.1-7.6-16.9-14.4-24.6-22.4c-4-4.1-7.5-8.6-10.5-13.5c-3.1-5.1-4.9-10.6-7-16.2
	c-4.1-11-8.4-21.9-11.4-33.3c-2.9-11-4.9-23-1.9-34.2c0.2-0.6-0.8-0.9-1-0.3c-2.8,10.6-1.2,21.8,1.4,32.4
	c2.9,11.9,7.4,23.4,11.8,34.9c1.9,5.1,3.6,10.3,6.2,15.1c2.7,5.1,6.3,9.7,10.2,14c8,8.8,17.4,16,26.1,24.1
	C-83.4,446.6-82.7,445.9-83.1,445.5z"/>
<path class="nav-mouth-16-st-0" d="M27.4,463.4c-11.2,3-22.9,2.5-34.4,3.5c-0.6,0.1-0.6,1.1,0,1c11.6-1,23.3-0.5,34.6-3.5
	C28.3,464.2,28,463.2,27.4,463.4z"/>
<path class="nav-mouth-16-st-0" d="M100.1,431.5c-22,25.8-54.4,39.8-87.6,43.4c-0.6,0.1-0.6,1.1,0,1c33.5-3.6,66.2-17.6,88.4-43.6
	C101.3,431.7,100.6,431,100.1,431.5z"/>
<path class="nav-mouth-16-st-0" d="M127.6,395.6c-1.4,3.1-3.3,5.8-5.4,8.4c-0.4,0.5,0.3,1.2,0.7,0.7c2.2-2.7,4.2-5.4,5.6-8.6
	C128.7,395.5,127.8,395,127.6,395.6z"/>
<path class="nav-mouth-16-st-0" d="M137.6,371.6c-0.9,2-1.5,4-2.1,6.1c-0.2,0.6,0.8,0.9,1,0.3c0.5-2,1-4,1.9-5.9
	C138.7,371.5,137.8,371,137.6,371.6z"/>
<path class="nav-mouth-16-st-0" d="M130.8,373.5c-0.6-0.2-1.1,0.7-1.2,1.1c-0.3,0.6,0.6,1.1,0.9,0.5c0-0.1,0.1-0.2,0.2-0.3c0.1,0,0.2-0.1,0.3-0.1
	C131.2,374.3,131.4,373.8,130.8,373.5z"/>
<path class="nav-mouth-16-st-0" d="M48.7,455.9c-1.7,1.1-3.6,2.1-5.1,3.6c-0.5,0.4,0.2,1.2,0.7,0.7c1.5-1.4,3.2-2.3,4.9-3.4
	C49.8,456.4,49.3,455.6,48.7,455.9z"/>
<path class="nav-mouth-16-st-0" d="M-14.6,473.4c-20.1,4.4-37-12.3-54.7-18.5c-0.6-0.2-0.9,0.8-0.3,1c18,6.3,34.8,22.9,55.3,18.5
	C-13.7,474.2-14,473.2-14.6,473.4z"/>
<path class="nav-mouth-16-st-0" d="M-120.5,313.4c-4.6,0-9.1,0.6-13.3,2.6c-0.6,0.3-0.1,1.1,0.5,0.9c4-1.9,8.4-2.4,12.7-2.4
	C-119.9,314.3-119.9,313.3-120.5,313.4z"/>
<path class="nav-mouth-16-st-0" d="M-70.4,316.9c-11.3-1.6-22.3-4.8-33.8-3c-0.6,0.1-0.4,1.1,0.3,1c11.2-1.8,22.2,1.4,33.2,3
	C-70,317.9-69.7,317-70.4,316.9z"/>
<path class="nav-mouth-16-st-0" d="M-39.4,320.9c-5.5-1-11-1.5-16.5-2.5c-0.6-0.1-0.9,0.9-0.3,1c5.5,1,11,1.5,16.5,2.5
	C-39,321.9-38.7,321-39.4,320.9z"/>
<path class="nav-mouth-16-st-0" d="M-34,314.4c-3.4,0.4-6.7-0.6-9.9-1.5c-0.6-0.2-0.9,0.8-0.3,1c3.3,0.9,6.7,2,10.1,1.5
	C-33.4,315.3-33.4,314.3-34,314.4z"/>
<path class="nav-mouth-16-st-0" d="M16.5,318.9c-13.1,1.4-26.3,0.5-39.5,1c-0.6,0-0.6,1,0,1c13.2-0.5,26.4,0.4,39.5-1
	C17.1,319.8,17.1,318.8,16.5,318.9z"/>
<path class="nav-mouth-16-st-0" d="M12,312.4c-5.3,0-10.7-0.5-16-0.5c-0.6,0-0.6,1,0,1c5.3,0,10.7,0.5,16,0.5C12.6,313.4,12.6,312.4,12,312.4z"/>
<path class="nav-mouth-16-st-0" d="M57.4,319.4c-8.1,2.5-16.7,0.6-25,2c-0.6,0.1-0.4,1.1,0.3,1c8.3-1.4,16.9,0.5,25-2
	C58.2,320.1,58,319.2,57.4,319.4z"/>
<path class="nav-mouth-16-st-0" d="M50.5,316.4c-6,0.5-12,0.5-17.9-1c-0.6-0.2-0.9,0.8-0.3,1c5.9,1.5,12.1,1.5,18.1,1
	C51.1,317.3,51.1,316.3,50.5,316.4z"/>
<path class="nav-mouth-16-st-0" d="M85.5,317.4c-6.8,0-13.5,0.5-20.1,2c-0.6,0.1-0.4,1.1,0.3,1c6.5-1.5,13.2-2,19.9-2
	C86.1,318.3,86.1,317.3,85.5,317.4z"/>
<path class="nav-mouth-16-st-0" d="M147.4,325.6c-2.6-5.4-6.7-9.5-12.2-11.9c-5.9-2.5-12.7-2.6-19-2.3c-13.7,0.7-27.9,5-41.5,2.4
	c-0.6-0.1-0.9,0.8-0.3,1c12.7,2.4,26.1-1.1,38.8-2.2c6.4-0.5,13.1-0.6,19.3,1.2c6.4,1.9,11.2,6.3,14,12.3
	C146.8,326.7,147.7,326.2,147.4,325.6z"/>
<path class="nav-mouth-16-st-0" d="M115,317.9c-3.4,0.1-6.6,0.9-10,1c-0.6,0-0.6,1,0,1c3.4-0.1,6.6-0.9,10-1C115.6,318.8,115.6,317.8,115,317.9z"
	/>
<path class="nav-mouth-16-st-0" d="M143.5,332.4c-0.1,3-1,5.9-1.5,8.9c-0.1,0.6,0.9,0.9,1,0.3c0.5-3,1.4-6,1.5-9.1
	C144.5,331.7,143.5,331.7,143.5,332.4z"/>
<path class="nav-mouth-16-st-0" d="M150,339.4c-0.5,0-0.5-0.1-0.5-0.5c0-0.6-1-0.6-1,0c0,1,0.5,1.5,1.5,1.5C150.6,340.4,150.6,339.4,150,339.4z"/>
<path class="nav-mouth-16-st-0" d="M148.4,314.1c0.1-0.2,0.1-0.4-0.1-0.6c-0.4-0.3-1-0.4-1.1,0.2c0,0.3,0.2,0.6,0.3,0.9
	C147.9,315.2,148.7,314.7,148.4,314.1C148.4,314.1,148.4,314.1,148.4,314.1z"/>
<path class="nav-mouth-16-st-0" d="M-144.1,367.1c-6.2-11.4-0.1-24.3-2.4-36.4c-0.1-0.6-1.1-0.4-1,0.3c2.3,12.2-3.7,25,2.6,36.6
	C-144.6,368.2-143.8,367.7-144.1,367.1z"/>
</svg>
