<?xml version="1.0" encoding="utf-8"?>
<!-- Generator: Adobe Illustrator 15.0.0, SVG Export Plug-In . SVG Version: 6.00 Build 0)  -->
<!DOCTYPE svg PUBLIC "-//W3C//DTD SVG 1.1//EN" "http://www.w3.org/Graphics/SVG/1.1/DTD/svg11.dtd">
<svg version="1.1" id="Layer_1" xmlns="http://www.w3.org/2000/svg" xmlns:xlink="http://www.w3.org/1999/xlink" x="0px" y="0px"
	 width="305.834px" height="176.833px" viewBox="0 0 305.834 176.833" enable-background="new 0 0 305.834 176.833"
	 xml:space="preserve">
<rect x="42" y="83" fill="#0C3846" width="222" height="15"/>
<polygon fill="#FCDCA4" points="64,83 42,47 42,98 64,98 "/>
<polygon fill="#FCDCA4" points="242,83 264,47 264,98 242,98 "/>
<path fill="#D72251" d="M188,98V78.5c0-19.606-15.895-35.5-35.5-35.5S117,58.894,117,78.5V98H188z"/>
<rect x="151" y="73" fill="#F0A733" width="2" height="25"/>
<circle fill="#F0A733" cx="129.25" cy="67.25" r="1.25"/>
<circle fill="#F0A733" cx="140.25" cy="80.25" r="1.25"/>
<circle fill="#F0A733" cx="129.25" cy="87.25" r="1.25"/>
<circle fill="#F0A733" cx="141.25" cy="93.25" r="1.25"/>
<circle fill="#F0A733" cx="123.25" cy="77.25" r="1.25"/>
<circle fill="#F0A733" cx="123.25" cy="94.25" r="1.25"/>
<circle fill="#F0A733" cx="143.25" cy="67.25" r="1.25"/>
<circle fill="#F0A733" cx="163.25" cy="80.25" r="1.25"/>
<circle fill="#F0A733" cx="178.25" cy="68.25" r="1.25"/>
<circle fill="#F0A733" cx="178.25" cy="88.25" r="1.25"/>
<circle fill="#F0A733" cx="163.25" cy="92.25" r="1.25"/>
<circle fill="#F0A733" cx="136.25" cy="55.25" r="1.25"/>
<circle fill="#F0A733" cx="154.25" cy="54.25" r="1.25"/>
<circle fill="#F0A733" cx="163.25" cy="67.25" r="1.25"/>
<circle fill="#F0A733" cx="168.25" cy="56.25" r="1.25"/>
</svg>
