<?xml version="1.0" encoding="utf-8"?>
<!-- Generator: Adobe Illustrator 15.0.0, SVG Export Plug-In . SVG Version: 6.00 Build 0)  -->
<!DOCTYPE svg PUBLIC "-//W3C//DTD SVG 1.1//EN" "http://www.w3.org/Graphics/SVG/1.1/DTD/svg11.dtd">
<svg version="1.1" id="Layer_1" xmlns="http://www.w3.org/2000/svg" xmlns:xlink="http://www.w3.org/1999/xlink" x="0px" y="0px"
	 width="305.834px" height="176.833px" viewBox="0 0 305.834 176.833" enable-background="new 0 0 305.834 176.833"
	 xml:space="preserve">
<g>
	<path fill-rule="evenodd" clip-rule="evenodd" fill="#0C3846" d="M246.291,55.969c0.812-0.748,0.939-2.183,1.332-3.344
		c0.832-0.73,0.818-2.304,1.676-3.007c-0.494-0.062-0.305-0.806-0.336-1.339c0.502-0.279,0.717-0.836,0.666-1.668
		c0.533-0.032,0.266-0.851,1.002-0.665c-0.088-0.763,0.082-1.257,0.672-1.339c0.189-1.027,0.088-2.366,1.332-2.341
		c0-0.666,0-1.333,0-2.005c1.484-0.412,0.762-3.02,2.342-3.338c-0.514-1.178,0.184-1.496-0.336-2.677
		c1.268-0.506,1.406-2.155,2.676-2.669c-0.59-1.124,0.223-1.714,0-3.338c0.42-0.139,0.686-0.432,0.666-1.002
		c0.4-0.944,1.428-1.243,2.004-2.004c-0.197-1.238-0.551-1.941,0.336-2.677c-0.266-0.07-0.393-0.279-0.336-0.666
		c-0.443-0.56-0.881-1.118-0.666-2.342c-1.078,0.298-0.697-0.863-1.338-1.002c0.26-1.154-0.373-1.409-0.666-2.005
		c-0.494-0.393-0.52-1.263-1.002-1.669c-0.736-1.154-1.764-2.022-2.34-3.342c-1.365-0.305-2.412-0.926-3.008-1.999
		c-1.021,0.241-1.217-0.343-2.004-0.336c-0.031-0.635-1.104-0.234-1.004-1.002c-0.664-0.006-0.424-0.914-1.336-0.666
		c-1.27-0.241-1.605-0.229-2.672,0.33c-0.857-0.972-1.592-0.33-3-0.33c-0.648-0.476-1.346-0.888-2.348-1.003
		c-2.824-0.07-4.77-1.015-8.018-0.672c-1.713-0.958-4.732-0.608-7.346-0.667c-0.635,1.116-1.428,2.816-0.672,4.346
		c-0.07,0.476-0.553,0.56-0.66,0.995c-0.229,0.896,0.012,1.105-0.342,1.677c-0.191,0.316-0.434,0.398-0.662,0.666
		c0.432,0.057,0.305,0.532,0.33,1.001c0.014,0.26,0.332,0.305,0.332,0.338c0.088,0.506-0.42,1.096,0,1.667
		c0.164,4.402-0.357,9.496,0.342,13.365c-0.279,0.388-0.443,0.896-0.342,1.669c-0.902-0.241,0.24,1.573-0.662,1.339
		c0.637,1.808,0.203,4.688,0.33,7.01c-0.553,2.474-1.484,4.041-0.33,6.013c-0.494,0.285-0.723,0.844-0.672,1.675
		c0.178,0.934,0.494,1.738,0.672,2.671c-0.443,0.787-0.146,2.31-0.672,3.007c0.824,0.285-0.102,2.328,0.672,2.67
		c-0.686,1.098-0.184,3.388-0.342,5.012c1.436,0.394,2.664-0.133,4.352-0.33c1.447,0,2.893,0,4.34,0
		c-0.051-0.443,0.838-0.031,1.332,0c0.945,0.051,1.533-0.045,2.346,0c1.016,0.242,0.979-0.576,2.006-0.336
		c1.891,0.652,5.455-0.652,7.676,0.336c0.824-0.633,2.398-0.508,3.344-1.002C246.451,57.61,245.975,57.356,246.291,55.969z"/>
	<path fill-rule="evenodd" clip-rule="evenodd" fill="#0C3846" d="M241.281,82.357c0.316-1.567,1.016-2.621,0.33-4.347
		c0.9-0.438,0.57-2.104,1.338-2.669c0-0.559,0-1.11,0-1.669c0.906,0.234-0.234-1.579,0.666-1.339
		c-0.273-0.945,0.469-0.863,0.336-1.668c0.463-0.21,0.051-1.288,0.666-1.339c0-0.336,0-0.666,0-1.003
		c-0.496-0.062-0.305-0.805-0.33-1.33c-0.646-0.477-1.346-0.89-2.34-1.003c-1.555,0.322-2.012-0.438-3-0.672
		c-0.965,0.152-1.055,1.179-2.35,1.001c-0.938-0.058-1.389-0.608-2.332-0.665c-0.742,0.26-1.309,0.697-2.336,0.665
		c-1.141,0.089-2.715-0.261-3.35,0.337c-0.658-0.007-0.418-0.914-1.332-0.666c-1.508,0.71-4.301,0.152-6.344,0.329
		c-0.254,1.973-0.254,2.702,0,4.676c-0.52,1.262-0.799,2.765-1.002,4.346c-0.057,1.059,0.889,1.115,0.66,2.341
		c0.164,1.052-0.598,1.179-0.33,2.333c0.457,3.18-0.248,5.544,0.672,8.354c-0.539,0.463-0.355,1.649-1.002,2.005
		c0.736,0.038,0.141,1.414,0.33,2.005c0.24,1.021-0.342,1.217-0.33,2.005c0.855,1.991-0.197,4.002,0.33,6.013
		c-0.279,0.838-0.912,1.312-1.002,2.335c-0.203,0.596,0.977,1.389,0,1.675c0.141,0.635,0.723,0.838,0.672,1.668
		c0,1.116,0,2.227,0,3.344c2.943,0.933,5.049,0.152,8.02,0.666c1.307-0.362,2.447-0.889,4.338-0.666
		c0.863-1.034,2.043-1.745,3.338-2.341c-0.254-1.378,0.52-1.714,0.342-3.008c0.996-0.223,0.215-2.232,1.332-2.341
		c-0.127-1.459,0.951-1.712,1.002-3.007c0.045-0.817,0.051-1.604-0.33-2.004c0.496-0.279,0.482-1.072,0.66-1.668
		c0.393-0.057,0.367-0.527,0.344-1.003c0.367-0.07,0.512-0.367,0.658-0.666c0.115-1.562,1.053-2.29,1.002-4.01
		c0.635-0.037,0.234-1.104,1.004-1.002c0.012-0.665,0.912-0.425,0.672-1.339c0.076-0.589-0.336-1.667,0.666-1.331
		C242.727,84.247,241.408,83.904,241.281,82.357z"/>
	<path fill-rule="evenodd" clip-rule="evenodd" fill="#0C3846" d="M211.885,55.633c0.666-0.445,0.742-1.485,1.002-2.342
		c-0.266-0.742-0.705-1.301-0.672-2.334c0.469-1.384-0.287-1.916,0.672-2.678c0.127-1.129-1.484-0.52-1.002-2.005
		c0.742-2.036-0.139-5.696,1.002-7.345c-0.451-0.223-0.621-0.718-0.672-1.339c0.734-0.037,0.139-1.415,0.336-2.005
		c0.24-1.021-0.342-1.218-0.336-2.004c0.754-0.248,0.133-1.871,0.336-2.671c0-1.002,0-2.005,0-3.007
		c0.576-1.427,0.145-3.863,0.666-5.347c-0.318-0.49-0.471-0.564-0.666-1.333c-0.16-0.621,0.195-1.604-0.336-2.005
		c1.707-1.699,0.176-3.312,1.002-6.014c-0.457-0.882-0.395-2.277-0.666-3.342c0.051-1.06,0.756-1.472,0.666-2.672
		c0-0.223,0-0.443,0-0.666c-1.104-0.006-0.344-1.89-1.002-2.341c-1.574-0.209-3.287-0.278-4.01-1.339
		c-1.484,0.496-2.066,0.107-3.338-0.328c-1.832,0.393-3.334,1.115-5.01,1.667c-3.211-0.685-6.863-0.773-10.359-0.336
		c-1.225-0.107-1.846-0.825-3.006-1.003c-0.705,0.591-0.984,0.756-2.006,0.338c-1.096,0.012-1.66,0.564-3,0.335
		c-0.984,0.083-1.027-0.761-2.004-0.673c-1.154,0.146-1.879-0.133-2.678-0.328c-0.92,0.189-1.395,0.83-2.334,1.001
		c-1.027,0.242-0.99-0.577-2.006-0.335c-0.811,0.64-1.914,0.983-3.35,1.001c-0.334,1.79,1.238,1.663,1.004,3.344
		c0.242,1.451-0.965,1.484-1.004,2.671c0.781,0.443,0.521,1.935,1.004,2.671c-0.496,0.062-0.305,0.805-0.33,1.339
		c0,0.664,0,1.331,0,2.003c-0.355,1.39-0.09,1.472,0,3.007c-0.395,0.058-0.361,0.526-0.33,1.003
		c-0.152,0.957-1.186,1.04-1.002,2.335c-0.26,1.591,1.186,1.483,1.002,3.006c-0.203,0.799-0.482,1.529-0.344,2.677
		c0.166,1.047-1.02,0.756-0.658,2.005c0.666,1.181,0.449,1.174,0.658,2.671c0.369,1.478-0.557,1.661-0.658,2.67
		c0.494,0.285,0.709,0.844,0.658,1.669c-0.379,0.938-0.379,1.738,0,2.677c-0.494,0.285-0.709,0.837-0.658,1.669
		c0.584,1.382-0.299,2.442,0.33,4.008c-0.279,0.389-0.445,0.895-0.33,1.669c0.127,1.428-0.33,3.444,0.33,4.346
		c-0.418,0.133-0.686,0.432-0.672,1.002c0.754,2.138,0.203,4.11,0.672,6.014c0.793,0.299,1.6,0.553,2.678,0.666
		c1.203,0.133,2.461-0.096,3.666,0c2.244,0.988,5.797,0.666,8.018,1.675c1.934,0.146,3.426-0.146,5.012-0.337
		c3.158,0.444,5.182-0.037,8.354,0.337c0.096,0.686,1.48,0.076,1.34,1.002c1.027-0.254,0.641,0.914,1.668,0.666
		c1.033-0.748,2.328-1.236,3.674-1.668c1.723,0.051,3.768-0.21,5.01,0.33c0.951-0.718,2.627-0.718,3.68-1.333
		C211.611,58.112,212.627,57.021,211.885,55.633z"/>
	<path fill-rule="evenodd" clip-rule="evenodd" fill="#0C3846" d="M176.475,115.096c1.93-0.754,3.92,0.424,5.672-0.666
		c0.025,0.502,0.57,0.209,1.002,0.33c0.99,0.273,1.301,0.234,2.34,0c0.434,0.463,1.453,0.33,2.342,0.336
		c0.635,0.139,0.602,0.958,1.668,0.666c2.354-0.107,2.938,0.532,4.346,0c0.648,1.028,2.803,0.532,4.01,1.003
		c1.332-0.229,2.27-0.845,4.01-0.667c1.002-2.112,2.23-4.002,4.338-5.012c1.363-0.271,1.154-0.051,2.676,0
		c0.807-0.748,1.828-1.287,2.672-2.005c0.068-0.26,0.006-0.658,0.336-0.665c-0.102-1.555,0-2.894,0.666-3.679
		c-0.59-0.076-0.762-0.571-0.666-1.333c0.152-3.381-0.584-4.865,0-7.352c-0.711-1.535-0.064-2.911,0-4.34
		c0.037-1.033-0.254-1.946-0.336-2.677c0.107-0.78,0.398-1.376,0.666-2.005c-0.723,0.059-0.152-1.187-0.33-1.667
		c0-0.78,0-1.562,0-2.341c0.24-1.022-0.584-0.983-0.336-2.005c0.559-1.687-0.248-3.07,0-5.341c-0.361-1.25,0.83-0.951,0.666-2.005
		c-0.75-0.248-0.127-1.878-0.33-2.677c-0.039-0.958,0.178-2.183-0.336-2.672c-0.266-0.734-1.566-0.43-1.668-1.33
		c-1.637-0.045-3.527,0.178-4.682-0.337c-0.471,0.532-1.148,0.849-2.004,1.001c-2.146-0.266-3.744,0.901-5.012-0.336
		c-0.33,0.451-0.889,0.666-1.334,1.002c-0.506-1.045-2.561-0.557-4.008-0.666c-2.055,0.654-4.213,0.033-6.014,0.338
		c-1.027,0.24-0.982-0.578-2.006-0.338c-1.078-0.074-1.414,0.59-2.676,0.338c-1.182,0.176-0.818-1.187-2.006-1.002
		c0.064,0.723-1.178,0.145-1.66,0.328c0,0.184-0.279,0.381-0.342,0c-0.42,0.02-0.459,0.432-1.004,0.336
		c-1.648-0.26-1.764,0.008-3.666,0c-1.916,0.152-2.537-0.475-4.01,0c-0.445,2.944-0.545,5.019-0.344,8.02
		c-0.57,2.441,0.039,4.027-0.328,6.68c0.234,1.098,0.531,2.137,0.672,3.343c0.189,1.085-0.229,1.554-0.344,2.335
		c0.877,0.443,0.648,1.483,0.344,2.34c1.148,1.521,0.395,4.941,1.334,6.681c-0.609,0.393-0.268,1.743-0.674,2.339
		c0.107,1.22-0.051,2.171-0.33,3.008c-0.268,1.154,0.496,1.281,0.33,2.335c-0.584,0.311-0.736,1.046-0.66,2.005
		c-0.965,0.051-0.615,1.395-0.672,2.339c0.076,0.592,0.57,0.762,1.332,0.667c0.775-0.102,0.375,0.971,1.002,1.002
		c0.096,1.136-0.254,2.708,0.344,3.344C172.492,115.07,174.967,114.594,176.475,115.096z"/>
	<path fill-rule="evenodd" clip-rule="evenodd" fill="#0C3846" d="M161.098,49.954c-0.051-0.945-0.607-1.396-0.658-2.341
		c0.602-2.194,0.393-3.609,0.328-6.013c0.445-1.226,0.787-2.551,1.004-4.01c0.215-1.325-0.889-1.345-0.674-2.67
		c-0.189-1.086,0.229-1.555,0.342-2.341c-1.166-1.377,0.104-3.604-0.672-5.679c0.305-0.977,0.305-1.027,0-2.005
		c0.496-0.285,0.723-0.836,0.672-1.667c0.23-1.027,0.23-0.648,0-1.675c-0.164-1.053,0.598-1.18,0.332-2.335
		c-0.42-1.141-0.584-2.536-1.004-3.679c0.279-0.388,0.445-0.896,0.33-1.669c0.584-0.203-0.025-1.585,0.674-1.667
		c-0.217-1.13-0.959-1.714-0.674-3.344c0.457-1.548,1.227-2.79,1.004-5.012c-0.42-0.02-0.457-0.425-1.004-0.33
		c-3.615,0.395-5.721-0.741-9.014-0.673c-0.994,0.006-1.135,0.87-2.003,1.003c-0.578,0.133-0.857-0.495-1.004,0
		c-0.652-0.101-0.665,0.451-1.001,0.674c-0.779-0.332-1.643-0.592-2.671-0.674c-1.257,0.641-3.756,0.031-5.011,0.674
		c-0.699-0.533-2.221-0.236-3.007-0.674c-0.698-0.196-2.194,0.412-2.341-0.33c-0.831-0.051-1.034,0.52-1.669,0.666
		c-0.045-0.741-1.421-0.139-2.005-0.336c-1.737-0.381-3.564-0.665-5.347-1.003c-0.787,0.66-2.239,0.66-3.343,1.003
		c0,0.781,0,1.561,0,2.341c-0.191,0.691,0.418,2.196-0.331,2.341c-0.164,1.047,1.028,0.755,0.673,1.997
		c0.127,1.245-1.358,0.876-1.003,2.343c-0.088,0.977,0.749,1.027,0.661,2.003c-0.679,1.245,0.119,2.101,0.342,3.344
		c-0.698,0.082-0.095,1.466-0.673,1.669c0.241,1.021-0.342,1.217-0.33,2.005c0.54,1.078,0.152,1.808,0,3.005
		c0.47,0.445,0.47,1.892,0,2.342c1.192,0.375-0.621,2.201,0.33,2.335c-0.477,1.878-0.5,3.99-0.33,5.677
		c-0.457,0.66-0.322,1.909-0.672,2.677c0.596,1.554-0.443,3.66,0.672,5.342c-0.887,0.69-0.266,1.719-0.342,2.678
		c-0.025,0.436-0.355,0.449-0.33,1.001c0.006,0.146,0.33,0.451,0.33,0.33c-0.082,1.408-0.564,2.448,0,3.68
		c-0.635,0.881-0.342,3.063,0,4.009c-0.102,1.015-1.243,1.998-0.33,3.006c1.18,0.673,3.261-0.184,4.676-0.336
		c2.543,0.521,5.55,0.615,8.018,0.336c0.597,0.186,1.39,0.172,1.669,0.667c1.06,0.057,1.116-0.888,2.34-0.667
		c0.051,0.832,1.137,0.096,1.338,0c0.705,0.293,0.99,1.017,2.005,1.003c0.457-0.989,2.417-0.481,3.338-1.003
		c0.785-0.012,0.988,0.572,2.005,0.33c1.051-0.336,2.004-0.043,3.343-0.666c0.628,0.66,1.579,0.16,2.34,0
		c0.66,0.787,2.321,0.572,3.337,1.003c2.201,0.197,3.869-0.14,5.01-1.003C161.219,54.991,160.496,52.752,161.098,49.954z"/>
	<path fill-rule="evenodd" clip-rule="evenodd" fill="#0C3846" d="M160.102,68.991c-0.043-0.958,0.186-2.182-0.334-2.671
		c-1.332,0-2.672,0-4.01,0c-5.024-1.319-12.674-0.019-17.369-1.668c-0.723,0.278-1.143,0.862-2.341,0.667
		c-2.239,0.018-4.029-0.42-6.015-0.667c-2.239,1.136-5.055,0.97-8.012,0.667c-0.488,2.079,0.09,6.614-1.002,9.02
		c0.471,0.413,0.629,1.147,0.66,2.005c-0.24,0.868-1.231,2.011-0.33,3.006c-0.634,0.146-0.837,0.717-1.675,0.666
		c-0.172,1.624,1.421,1.479,1.345,3.008c-0.521,0.088-0.241,0.736,0,1.002c-0.571,0.545-1.192,1.046-1.675,1.675
		c-0.469,0.837,0.508,1.028,0.672,1.331c0.293,0.553,0.318,1.016,0.66,1.676c-0.393,0.825-0.482,1.961-0.66,3.006
		c-0.113,2.684,0.471,4.021,0,6.344c0.299,1.592,0.756,3.026,0.66,5.012c-0.146,1.078-0.633,1.808-0.66,3.007
		c0.991,2.729-0.615,5.442,0.33,7.682c0.966,0.597,2.996,0.127,3.68,1.003c0.039-0.736,1.409-0.139,1.999-0.33c0.78,0,1.56,0,2.34,0
		c1.51,0.203,2.233,0.215,4.009,0.666c1.333,0,2.672,0,4.01,0c1.054-0.057,1.116,0.888,2.334,0.666c2.259-0.203,3.083,0.037,5.684,0
		c0.8-0.133,0.724,0.609,1.669,0.336c0.958-0.037,2.188,0.185,2.671-0.336c0.058,0.394,0.532,0.368,1.001,0.336
		c0.059,0.388,0.534,0.362,1.003,0.337c1.053,0.158,0.762-1.028,2.005-0.673c0.432,0.463,1.453,0.33,2.341,0.336
		c0.07-0.406,0.373-0.203,0.666,0c0.5,0.058,1.23-0.12,1.338,0.337c0.488-0.521,1.707-0.299,2.672-0.337
		c0.48-0.527,1.736-0.26,1.672-1.338c0.541,0.24,0.541-1.573,0-1.333c0.104-0.773-0.057-1.287-0.342-1.675
		c0.801-0.824,0.014-1.966,0-3.005c0.609-0.743-0.02-1.22,0-1.669c0.014-0.209,0.342-0.375,0.342-0.336
		c0.027-0.515-0.418-0.324,0-0.667c0.07-0.057,0-0.889,0-1.002c-0.012-0.158-0.328-0.438-0.342-0.336
		c0.025-0.577,0.66-0.978,0.342-1.669c-0.57-1.18,0-1.173,0-2.671c-0.52-0.489-0.297-1.712-0.342-2.676
		c-0.139-0.635-0.951-0.604-0.658-1.669c-0.273-2.271,0.348-3.654,0.658-5.342c-0.596-2.5,0.26-4.44-0.33-7.016
		c0.02-1.098,0.953-1.281,0.672-2.677c0.104-1.325-0.773-1.675-0.672-3.008c-0.266-1.153,0.496-1.28,0.33-2.333
		c0.09-0.977-0.748-1.027-0.658-2.005c0.926,0.146-0.268-1.821,0.658-1.675c0.342-0.438,0.33-1.23,0.674-1.669
		c0.203-0.019,0.393-0.051,0.33-0.336C161.586,69.511,160.807,69.296,160.102,68.991z"/>
	<path fill-rule="evenodd" clip-rule="evenodd" fill="#0C3846" d="M113.663,51.623c0.608-1.802-0.127-2.969,0.342-5.012
		c-0.443-1.003-0.342-2.557-0.342-4.009c0.051-0.621,0.227-1.117,0.672-1.339c-0.646-1.637-0.025-4.021,0.329-5.678
		c-0.379-0.057-0.354-0.526-0.329-1.003c-0.102-0.449-0.477-0.633-0.33-1.331c0.508-1.16,0.292-3.052,0.33-4.682
		c0.393-0.5,0.418-1.363,1.002-1.669c0.088-1.312-1.206-1.242-1.002-2.671c-0.266-1.159,0.495-1.287,0.329-2.339
		c-0.1-0.782-0.645-1.384,0-2.005c0.096-0.584-0.938-1.669,0-2.005c0.166-1.048-0.893-0.882-1-1.669
		c0.297-0.59,1.065-0.977,0.342-1.675c0-0.888,0-1.776,0-2.671c0.381-0.393,0.375-1.179,0.33-2.003
		c0.393-0.059,0.362-0.527,0.329-1.003c0.426-0.135,0.686-0.432,0.674-1.002c0-1.11,0-2.228,0-3.336
		c-1.333,0.102-1.674-0.774-3.007-0.674c-1.129,0.096-1.915,0.533-3.337,0.336c-1.028,0.242-0.989-0.577-2.003-0.336
		c-0.788,0-1.561,0-2.347,0c-0.801-0.133-0.723,0.609-1.663,0.336c-0.622-0.322-1.116,1.002-1.338,0
		c-1.37,0.527-1.757,0.514-3.007,0.666c-1.021,0.242-1.218-0.342-2.005-0.328c-1.794,0.537-3.812,0.867-5.677,1.331
		c-0.754,0.139,0.051,1.833-1.002,1.675c-0.006,0.438-0.584,0.305-0.672,0.666c-0.443,0-0.305,0.582-0.666,0.666
		c0.234,1.985-0.825,3.426,0,5.011c-0.641,0.812-0.875,2.019-1.339,3.007c0.495,0.927-0.184,1.7,0.336,3.008
		c-0.133,0.869-0.995,1.008-1.001,2.005c0.006,0.994,0.868,1.135,1.001,2.005c-0.792,0.785,0.057,1.642,0,2.669
		c0,1.339,0,2.677,0,4.01c-0.362,0.653-0.17,2.347-0.667,3.672c0.381,0.4,0.381,1.187,0.33,2.005
		c-0.342,0.882-0.393,2.056-0.33,3.344c1.104,2.378,0.127,5.086-0.334,7.682c0.107,0.787,0.526,1.256,0.334,2.341
		c-0.088,1.472-0.532,2.581-0.334,4.346c-1.231,0.919-0.514,3.223,0,4.338c1.388,0.388,1.3-0.703,2.339-0.666
		c2.493,0.724,3.845-0.304,7.015,0c0.915-0.246,0.674,0.666,1.333,0.666c0.039-0.404,0.102-0.785,0.672-0.666
		c1.136,0.711,1.751-0.127,3.007,0.336c1.002,0.388,1.815-0.037,3.337,0.33c1.599-0.742,4.148-0.525,5.683-1.331
		c1.46,0.285,1.485,0.069,2.666,0.329c0.584-1.085,1.674-1.667,2.003-3.006C114.461,53.272,113.959,52.555,113.663,51.623z"/>
	<path fill-rule="evenodd" clip-rule="evenodd" fill="#0C3846" d="M112.33,112.755c-0.178-1.288,0.596-1.63,0.331-3.007
		c-0.42-1.605,0.102-3.482,0.342-5.341c-0.279-2.754,0.152-6.122,0-9.692c0.387-1.384,0.413-3.141,0.661-4.676
		c0.215-1.326-0.875-1.339-0.661-2.67c0.672-2.843-0.457-4.841,0.661-7.354c-0.875-0.734,0.26-2.22-0.331-2.671
		c0-1.224,0-2.448,0-3.672c0.432-1.579,0.241-3.775,0.672-5.349c-0.545-0.791-0.749-1.927-1.002-3.005
		c-4.244-0.051-6.724,0.316-10.365,0c-0.635-0.141-0.838-0.718-1.663-0.667c-1.053,0.158-0.76-1.027-2.005-0.666
		c-0.33,0.031-0.672-0.045-1.002,0c-0.24,0.025-0.316,0.322-0.334,0.33c-0.21,0.043-0.426-0.318-0.337-0.33
		c-1.472,0.221-2.474,0.907-4.338,1.002c-1.243,0.02-2.119-0.342-3.007-0.672c0.051,0.723-1.192,0.152-1.675,0.336
		c-0.825-0.051-1.028,0.526-1.667,0.667c-0.262,0.74-0.705,1.3-0.667,2.339c0.203,0.02,0.393,0.051,0.329,0.338
		c-0.254,0.068-0.387,0.277-0.329,0.665c0,0.559,0,1.109,0,1.668c-0.388,0.394-0.381,1.181-0.337,2.005
		c-0.284,0.938-1.079,1.37-1.001,2.672c-0.107,2.802,0.526,3.9,0,6.013c0.881,2.075,0.145,3.959,0.667,6.013
		c-0.788,3.097-0.141,6.187-0.667,9.021c0.399,0.831,0.487,1.966,0.667,3.008c-0.521,2.062-0.699,3.805-0.332,6.013
		c-0.278,0.945-0.393,2.062-0.672,3.007c-0.012,0.741,0.318,1.288,0.337,2.005c0.018,0.716-0.324,1.021-0.337,1.667
		c-0.012,0.661,0.23,1.017,0.337,1.675c0.26,0.07,0.385,0.279,0.334,0.667c1.245,0.209,1.524,1.363,3.337,1.002
		c1.586-0.133,2.296,0.596,4.01,0.336c-0.051,0.724,1.186,0.152,1.675,0.33c1.014-0.242,0.977,0.577,2.003,0.336
		c1.188,0.196,2.019,0.032,3.674,0.337c1.301,0.076,1.731-0.724,2.671-1.003c0.051,0.952,1.396,0.609,2.335,0.666
		c1.933-0.963,5.188-0.609,7.688-1.002C112.787,114.037,112.406,113.979,112.33,112.755z"/>
	<path fill-rule="evenodd" clip-rule="evenodd" fill="#0C3846" d="M79.591,50.62c0.045-0.209-0.057-0.457,0-0.666
		c0.184-0.723,0.844-0.469,0.667-1.339c-0.875-0.463-0.946-1.725-1.333-2.669c0.838-2.754-0.85-6.04,0.33-9.022
		c-0.266-0.957-0.672-1.775-1.002-2.677c0.736,0.064,1.065-0.266,1.002-0.995c-0.178-1.852,0.457-2.894,1.002-4.01
		c-0.495-0.285-0.482-1.078-0.667-1.674c0.495-1.452-0.297-2.239,0.336-3.672c-0.444-0.56-1.89-0.115-2.341-0.667
		c0.235-1.244-0.57-1.434-0.336-2.677c-2.005,0.215-2.462,1.991-3.672,3.006c-0.502,0.502-1.403,0.604-1.669,1.338
		c-0.432,0.571-0.691,1.313-1.674,1.339c-0.496,0.502-0.596,1.403-1.333,1.669c-0.483,0.52-0.844,1.16-1.669,1.338
		c-0.5,1.505-1.243,2.766-1.338,4.677c-0.665,0.336-1.427,0.576-1.669,1.331c-0.538,0.463-1.058,0.951-1.667,1.338
		c0,0.896,0,1.784,0,2.672c-1.561,1.674-2.708,3.755-3.68,6.013c-0.223,0.691-0.856,1.555-1.002,1.675
		c-0.102,0.083,0.07,0.547,0,0.666c-0.102,0.191-0.539,0.457-0.666,0.666c-0.653,1.091-1.192,2.093-2.005,3.008
		c0.115,3.013-2.333,5.874-0.667,8.354c3.598,0.146,5.139-1.763,8.348-2.005c0.287,0.717,2.132-0.127,2.342,0.666
		c1.712-0.926,3.266-0.025,5.341-0.666c0.692,0.191,1.084,0.952,1.668,0.336c0.799,0.197,1.522,0.477,2.677,0.33
		c1.028,0.248,0.64-0.912,1.667-0.666c1.395,0.172,2.265-0.184,3.007-0.665C79.204,54.712,79.216,52.264,79.591,50.62z"/>
	<path fill-rule="evenodd" clip-rule="evenodd" fill="#0C3846" d="M76.248,65.319c-1.706-0.261-2.423,0.469-4.008,0.336
		c-2.64-0.477-5.336-0.896-8.013-1.339c-0.633,0.145-0.836,0.723-1.667,0.672c-1.118-0.564-1.142,0.21-2.341,0.331
		c-2.284-0.915-4.124-0.242-7.017-0.331c-0.976,0.083-1.026-0.762-2.003-0.672c-0.096,1.128-0.533,1.921-0.336,3.342
		c-0.096,0.471-0.527,0.572-0.667,1.003c-0.172,0.539,0.418,1.51-0.336,1.668c0.094,1.429-1.022,1.655-0.667,3.344
		c-0.501,0.501-1.903,0.096-1.668,1.333c-0.102,0.881,1.294,0.266,1.002,1.338c0.241,1.021-0.577,0.983-0.336,2.004
		c0.342,0.775,1.148,1.078,1.002,2.341c0.266,1.154-0.494,1.281-0.336,2.335c-0.063,1.293-0.013,2.46,0.336,3.343
		c-0.799,1.054-0.216,1.407-0.666,2.67c0.907-0.234-0.241,1.581,0.666,1.339c-0.14,0.807,0.608,0.723,0.336,1.668
		c0.393,1.009,0.812,1.992,0.33,3.008c0.533,0.469,0.856,1.154,1.002,2.005c-0.209,1.236-0.908,1.991-0.667,3.672
		c0.088,0.469,0.735,0.381,1.002,0.672c-0.109,0.774,0.051,1.282,0.336,1.669c0.59,0.305,1.034,0.748,1.333,1.339
		c1.141,0.082,1.604,0.844,3.005,0.666c1.136,1.205,3.281,1.401,4.01,3.007c1.288,0.044,1.548,1.13,3.006,1.001
		c-0.241,0.915,0.666,0.674,0.674,1.339c1.243-0.024,1.909,0.533,2.333,1.332c1.383-0.152,1.663,0.794,2.341,1.339
		c1.327,0.006,2.354,0.316,3.001,1.003c0.786,0.006,0.989-0.577,2.003-0.337c0.445,0.819,1.016-0.602,1.339,0.337
		c1.25,0.031,0.953,0.375,2.005,0c0.615-1.308,0.432-4.339,0-5.678c0.691-0.089,0.095-1.471,0.666-1.674
		c-0.266-1.155,0.502-1.282,0.336-2.335c-0.482-1.079-0.311-2.805-0.336-4.346c0.361-0.755,0.762-1.465,1.338-2.005
		c-0.234-1.097-0.539-2.137-0.666-3.342c0.076-0.254,0.006-0.661,0.33-0.667c0.076-0.254,0.014-0.66,0.336-0.666
		c-0.4-0.938-0.367-2.31-0.336-3.674c0.088-0.469,0.736-0.385,1.002-0.672c0.012-0.97-0.54-0.831-0.667-1.331
		c-0.229-0.914-0.336-0.773-0.666-1.339c-0.19-0.33-0.297-0.539-0.336-1.002c-0.057-1.618,0.438-2.677,0.667-4.01
		c-0.381-0.393-0.381-1.181-0.33-2.005c0.14-1.427,1.117-3.387,0.33-4.674c0.559-0.007,0.19-0.927,0.672-1.003
		c-0.279-0.945,0.471-0.869,0.33-1.675c-1.497-1.491-0.292-4.205,0-5.678C78.317,65.927,77.34,65.571,76.248,65.319z"/>
</g>
</svg>
