<svg xmlns="http://www.w3.org/2000/svg" width="305.834" height="112" viewBox="0 0 305.834 112"><defs><path id="a" d="M-.086.5H305.92v111H-.086z"/></defs><path clip-path="url(#b)" fill="#FCDCA4" d="M-.086 111.5h306V.5h-306v111zm204.043-36.14c-3.674 5.624-11.754 10.807-11.754 10.807.916-2.583-1.414-8.792-11.79-5.755s-3.65 9.704-3.65 9.704-9.474 8.415-23.85 8.415c-14.374 0-20.924-8.912-20.924-8.912s3.05-4.493-6.2-8.743-13.566 3.62-13.566 3.62c-6.064.493-10.538-8.87-10.538-8.87-11.73-1.875-35.94-15.535-35.94-15.535l87.043-5.487 92.75-4.334c-11.5 9.642-41.583 25.09-41.583 25.09"/><path clip-path="url(#nav-nose-10-id-2)" fill="#D72251" d="M114.35 81.688s3.814 4.625 7.75 5.625c3.94 1 10.19-1.188 10.19-1.188s-6.19-9.687-17.94-4.437M173.914 85.438s.518-1.943 3.312-3.625c3.383-2.037 10.938-3.437 13.375.375 0 0-.952 3.283-7.06 5-9.563 2.686-9.626-1.75-9.626-1.75"/><path clip-path="url(#nav-nose-10-id-2)" fill="#0C3846" d="M305.914.5h-306v1h306v-1zM128.666 102.864c-3.718-1.082-7.562-2.2-11.92-3.093C97.964 95.928.892 82.728-.085 82.596v1.993c.976.133 97.713 13.31 116.43 17.143 4.28.877 8.083 1.984 11.762 3.055 8.384 2.44 16.467 4.794 29.85 4.794 7.433 0 16.5-.727 28.16-2.566 40.966-6.465 99.798-24.865 119.798-32.322v-2.16c-20 7.438-79.287 26.064-120.11 32.507-32.215 5.08-44.32 1.556-57.138-2.176M100.82 76.996a17.29 17.29 0 0 0 2.41 3.6c1.12 1.29 2.423 2.44 3.92 3.32 1.492.863 3.182 1.584 4.996 1.584l.567.088.42-.678c.212-.34.56-.79.894-1.15.073-.076.153-.145.228-.22 1.1 1.226 3.71 3.735 7.345 4.68 1.144.295 2.343.408 3.51.408 2.54 0 4.92-.537 6.206-.888.004.057.016.113.018.17.006.23-.014.455-.047.666-.012.187-.125.464-.07.407l.02 1.294c.762.834 1.52 1.52 2.33 2.215.117.1.24.19.36.288.01.056.02.094.02.094l.063-.026a32.76 32.76 0 0 0 2.072 1.564c.31.213.625.414.942.617l.002.004.003-.002c.433.276.87.542 1.317.798-4.553-.666-8.807-1.662-12.754-2.485-2-.46-3.905-.964-5.723-1.41-1.825-.423-3.55-.852-5.16-1.29l-8.406-2.103c-2.34-.56-4.172-1.024-5.436-1.306l-1.938-.44s.62.306 1.81.818c1.188.51 2.94 1.258 5.207 2.082 1.13.43 2.39.873 3.763 1.352l4.487 1.433c3.207 1.015 6.895 1.92 10.907 2.944 4.048.888 8.41 1.962 13.12 2.688l3.562.62c1.204.2 2.447.28 3.69.43l3.782.4c.658.063 1.224.143 1.97.194.64.01 1.28.02 1.925.028 2.55.118 5.276-.133 7.973-.29 2.66-.302 5.37-.537 8.055-.98 5.407-.75 10.823-1.845 16.233-2.95a395.635 395.635 0 0 0 16.006-3.858c5.257-1.354 10.395-2.813 15.36-4.248 4.96-1.458 9.725-2.96 14.23-4.455 2.236-.748 4.47-1.534 6.53-2.314a210.52 210.52 0 0 1 6.034-2.116c3.89-1.298 7.492-2.39 10.7-3.228 1.603-.412 3.106-.81 4.49-1.092 1.362-.316 2.698-.546 3.675-.554.163-.006.337.03.4.032a.437.437 0 0 1 .032.037c.002-.03.016-.008.033-.003.068.092-.193.528-.488.79-.605.588-1.28 1.03-1.81 1.376-1.08.688-1.694 1.032-1.694 1.032l.504-.092c.336-.06.824-.176 1.46-.366.626-.21 1.405-.453 2.284-1.008.218-.15.446-.31.67-.544.218-.233.472-.54.56-1.047a1.51 1.51 0 0 0-.102-.8c-.03-.07-.064-.14-.102-.208l-.062-.105-.057-.09c.01.008-.104-.128-.074-.09l-.04-.042-.09-.08c-.5-.415-.884-.447-1.245-.528-1.43-.226-2.768-.023-4.256.154a55.69 55.69 0 0 0-4.674.965c-3.285.824-6.938 1.89-10.885 3.16-1.975.64-4.018 1.325-6.13 2.08-2.112.772-4.222 1.49-6.476 2.22-4.48 1.446-9.246 2.855-14.182 4.304-4.943 1.415-10.06 2.856-15.29 4.19-5.222 1.382-10.563 2.604-15.9 3.838-5.355 1.15-10.716 2.29-16.03 3.082-.258.046-.52.08-.78.123a33.52 33.52 0 0 0 1.17-.505 44.544 44.544 0 0 0 2.815-1.37 46.218 46.218 0 0 0 5.342-3.28h.002l.994-.626-.94-.952a9.986 9.986 0 0 1-.513-.57c.47.03 1 .052 1.602.052 1.555 0 3.514-.138 5.693-.602 3.387-.722 5.55-2.7 6.738-4.158.04.14.088.275.12.42.114.506.173 1.108.167 1.567l-.32 2.16 1.87-1.22a60.487 60.487 0 0 0 4.708-3.432 51.62 51.62 0 0 0 4.338-3.895 44.698 44.698 0 0 0 2.53-2.787c4.965-2.89 31.172-18.196 42.55-25.62 20.698-.704 40.694-1.172 59.036-1.296l-.014-2c-65.682.442-152.465 5.302-216.834 9.55a8.5 8.5 0 0 0-.16-.143l-.107.16C37.668 60.916.74 63.902-.085 63.97v2.003c.694-.057 26.89-2.175 65.587-4.854 11.096 7.124 30.936 14.325 35.32 15.876m21.282 9.286c-3.01-.78-5.266-2.896-6.262-3.978a7.845 7.845 0 0 1 2.004-.863 10.3 10.3 0 0 1 3.016-.345c1.035.034 2.083.206 3.12.48.458.116 1.115.298 1.56.45.493.163.995.365 1.473.576.948.44 1.817.992 2.538 1.64.51.46.926.99 1.228 1.57-1.693.46-5.52 1.292-8.676.472m61.666-.01c-3.895.83-7.064.52-8.14.372-.312-.916-.202-1.68.327-2.356a4.58 4.58 0 0 1 1.062-.983c.432-.3.918-.563 1.436-.795.514-.234 1.06-.438 1.615-.62l.824-.257.9-.256c.58-.143 1.117-.277 1.703-.374a13.268 13.268 0 0 1 1.71-.205c1.126-.07 2.22.04 3.157.376a4.05 4.05 0 0 1 1.486.99c-.79 1.14-2.73 3.395-6.08 4.107m42.082-24.403c-.36-2.21-.496-5.77 1.525-6.36 2.357-.686 5.23.48 6.85 1.31-2.707 1.647-5.547 3.36-8.375 5.05m-18.58-9.022a66.197 66.197 0 0 1 1.508 1.618l.844.99.842 1.135.375.61.194.313.127.316.288.633c.205.5.176.517.46.99.444.786.983 1.174 1.573 1.573.587.37 1.218.596 1.84.717.62.118 1.233.142 1.806.04.285-.05.557-.1.812-.203.26-.077.492-.198.705-.336.223-.112.406-.27.572-.422.176-.14.305-.31.418-.473.256-.3.348-.634.457-.873.084-.253.094-.467.123-.6.02-.135.035-.207.035-.207s-.17.257-.463.638c-.186.166-.355.396-.64.555a1.53 1.53 0 0 1-.43.236 1.78 1.78 0 0 1-.5.173 2.153 2.153 0 0 1-.563.083c-.19.03-.396.01-.602-.005a4.525 4.525 0 0 1-1.252-.312 4.815 4.815 0 0 1-1.14-.688c-.165-.14-.317-.3-.446-.46a3.967 3.967 0 0 0-.178-.247c-.062-.08-.064-.138-.107-.2-.055.006-.2-.554-.22-.577l-.317-.956-.176-.47-.225-.408-.45-.8c-.322-.493-.67-.933-.992-1.355a25.096 25.096 0 0 0-.994-1.085c-.03-.03-.06-.056-.088-.085 10.916-.483 21.795-.922 32.502-1.3-2 1.267-4.264 2.673-6.684 4.155-1.297-.784-5.7-3.176-9.498-2.063-4.236 1.235-3.268 7.553-2.855 9.52a2396.195 2396.195 0 0 1-16.866 9.964c.062-.108.13-.212.19-.32.47-.898.925-1.813 1.25-2.805.33-.985.605-2.01.687-3.087.06-.54.056-1.063.034-1.64l-.05-.714-.11-.817c-.35-2.1-1.22-4.096-2.48-5.77-1.246-1.687-2.857-3.02-4.57-4.087-.348-.216-.705-.41-1.062-.603 2.105-.097 4.212-.194 6.318-.288m-72.78 3.832a5345.066 5345.066 0 0 1 61.586-3.313c.752.277 1.564.632 2.312 1.016.8.422 1.576.877 2.318 1.376 1.475 1.008 2.768 2.228 3.78 3.61a10.52 10.52 0 0 1 1.247 2.22c.326.778.545 1.612.69 2.428l.093.596.055.71c.013.372.028.807-.02 1.212-.05.825-.265 1.656-.528 2.476-.262.822-.65 1.62-1.055 2.412a23.69 23.69 0 0 1-1.424 2.294c-1.03 1.497-2.225 2.91-3.492 4.264-1.274 1.348-2.638 2.62-4.038 3.86a62.22 62.22 0 0 1-2.848 2.342l-.004-.068a7.515 7.515 0 0 0-.62-2.097c-.624-1.372-1.862-2.522-3.253-3.103-1.395-.587-2.846-.72-4.207-.652-.684.025-1.355.102-2.012.212-.652.097-1.33.255-1.965.406l-.904.242c-.36.1-.642.207-.966.31-.625.217-1.25.462-1.867.754-.62.29-1.23.632-1.82 1.055a6.5 6.5 0 0 0-1.623 1.6 4.723 4.723 0 0 0-.85 2.34c-.074.855.125 1.663.41 2.364.293.707.7 1.308 1.14 1.855.17.21.347.396.524.586-.234.157-.47.315-.71.47l-.278-.107c-.26-.078-.605-.25-1.02-.478-.214-.105-.417-.27-.65-.42-.24-.143-.45-.353-.692-.542-.244-.188-.457-.432-.697-.655-.23-.233-.444-.492-.673-.744-.86-1.044-1.578-2.237-2.05-3.166-.474-.93-.714-1.59-.714-1.59s.12.69.422 1.706c.307 1.013.81 2.35 1.518 3.615.19.308.37.627.574.924.215.288.402.597.635.856.23.262.432.54.674.758.236.222.443.456.674.63.152.127.29.23.43.334-.564.324-1.125.65-1.703.952l-.064-.034c-.273-.12-.633-.378-1.074-.682l-.687-.558c-.23-.22-.475-.45-.73-.69-.483-.508-.99-1.072-1.458-1.676-.945-1.2-1.785-2.507-2.37-3.513s-.923-1.708-.923-1.708.906 2.99 2.46 5.77c.38.698.81 1.374 1.243 2 .23.304.455.598.668.877.234.267.46.52.666.75.136.134.265.258.388.376-.38.177-.758.35-1.143.518-.256-.136-.562-.356-.945-.634l-.672-.587c-.225-.232-.47-.47-.71-.73a19.785 19.785 0 0 1-1.403-1.77 30.62 30.62 0 0 1-2.213-3.698c-.535-1.057-.84-1.79-.84-1.79s.75 3.095 2.193 6c.354.728.764 1.435 1.178 2.09.213.322.44.625.646.92.233.28.454.544.66.788.067.068.128.132.194.196-.123.047-.24.103-.36.148-.257.098-.517.184-.774.275-.23-.19-.615-.5-1.13-.92-.218-.154-.39-.395-.608-.612-.213-.227-.438-.466-.668-.713-.246-.237-.44-.535-.662-.818l-.662-.874c-.213-.3-.4-.618-.6-.924-.19-.312-.404-.605-.566-.914-.332-.61-.668-1.176-.902-1.687-.508-1.003-.773-1.71-.773-1.71s.144.74.483 1.824c.148.55.387 1.166.62 1.842.11.34.274.67.415 1.02.152.344.29.703.457 1.048l.533 1.02c.182.334.334.68.55.976l.585.882c.197.275.344.564.553.78.14.16.262.297.387.437-.027.007-.055.018-.08.024-.58.16-1.16.32-1.742.47-.042-.03-.144-.108-.33-.25-.247-.17-.57-.454-.948-.817-.195-.173-.373-.4-.584-.622-.213-.218-.396-.486-.607-.75a16.712 16.712 0 0 1-1.17-1.782c-.73-1.276-1.298-2.66-1.665-3.72-.37-1.062-.54-1.797-.54-1.797s.046.753.235 1.874c.193 1.12.527 2.61 1.06 4.06.272.723.577 1.44.923 2.093.178.323.332.647.527.93.19.285.348.57.537.808.13.175.246.32.363.47-.598.114-1.197.22-1.797.317l-.377-.455c-.377-.447-.695-1.06-1.107-1.673-.425-.61-.713-1.355-1.093-2.06-.195-.35-.316-.732-.475-1.095-.146-.366-.3-.725-.433-1.078-.23-.717-.488-1.38-.633-1.97-.346-1.166-.482-1.97-.482-1.97s0 .203.03.558c.02.357.067.865.146 1.474.056.613.21 1.312.33 2.076.077.378.178.764.27 1.16.103.393.168.806.31 1.195.275.78.463 1.604.805 2.313.29.627.518 1.242.792 1.754-.02.003-.045.004-.066.006a30.37 30.37 0 0 1-1.732-.006.766.766 0 0 1-.033-.046c-.124-.187-.297-.375-.43-.63l-.43-.83c-.148-.298-.33-.6-.473-.94-.27-.685-.604-1.403-.86-2.156-.252-.756-.534-1.507-.73-2.232a39.57 39.57 0 0 1-.55-1.983c-.303-1.17-.458-1.962-.458-1.962s.03.806.15 2.015c.05.605.135 1.31.24 2.062.082.76.246 1.556.38 2.362.144.806.37 1.6.54 2.355.095.376.234.805.344 1.147.107.318.21.974.305.974h-.028c-.278 0-.554-.124-.83-.15-.04-.047-.113-.178-.248-.35-.195-.22-.425-.607-.708-1.052a17.44 17.44 0 0 1-.832-1.657 26.494 26.494 0 0 1-.767-2.03c-.464-1.413-.82-2.88-1.048-3.985-.228-1.106-.332-1.857-.332-1.857s-.072 3.03.41 6.07c.113.762.27 1.52.44 2.23.182.71.393 1.37.605 1.937l.17.403c-.61-.06-1.223-.117-1.826-.176l-.054-.1-.25-.462c-.09-.186-.23-.368-.312-.623-.092-.248-.19-.518-.294-.802-.1-.29-.234-.583-.317-.912-.164-.656-.39-1.35-.53-2.067-.143-.716-.308-1.435-.405-2.118a37.77 37.77 0 0 1-.272-1.872c-.144-1.102-.198-1.843-.198-1.843s-.07.738-.115 1.854a41.35 41.35 0 0 0-.045 1.91c-.02.702.023 1.45.045 2.202.02.753.127 1.505.184 2.217.027.354.118.697.17 1.025l.174.928.01.036c-.493-.17-.98-.35-1.464-.55a14.5 14.5 0 0 1-.123-.202c-.148-.21-.303-.565-.496-.993-.174-.44-.354-.978-.506-1.576-.145-.602-.28-1.255-.374-1.922-.406-2.67-.29-5.432-.29-5.432s-.616 2.682-.708 5.485c-.03.7-.017 1.408.02 2.076.037.534.105 1.03.183 1.49a30.4 30.4 0 0 1-1.844-1.04 2.386 2.386 0 0 0-.086-.206 2.872 2.872 0 0 1-.177-.524c-.122-.402-.21-.924-.274-1.49a20.96 20.96 0 0 1-.117-1.815c-.052-2.337.213-4.705.248-5.02.282.112.564.224.85.31.436.117.868.234 1.3.352.852.27 1.73.33 2.574.49l.317.05.08.01c.102.015.073.008.115.013l.152.01.613.037c.404.025.807.05 1.204.077.796.045 1.573.09 2.33.136l2.27-.085c.73-.03 1.436-.032 2.103-.15 1.337-.175 2.56-.31 3.614-.64 1.07-.228 1.95-.62 2.683-.876.71-.34 1.264-.596 1.604-.844.355-.22.52-.366.52-.366s-.187.12-.57.277c-.366.188-.954.353-1.67.6-.755.16-1.64.43-2.704.518-.532.047-1.08.172-1.676.19l-1.87.08c-.647.055-1.323-.006-2.02-.04l-2.147-.11-2.314-.296-1.198-.152-.606-.077-.153-.02c-.01-.002-.09-.01-.04-.007l-.072-.017-.29-.065c-1.557-.315-3.16-.703-4.645-1.416-.77-.298-1.467-.743-2.193-1.135-.67-.48-1.384-.91-1.98-1.483a14.702 14.702 0 0 1-3.145-3.75 15.968 15.968 0 0 1-1.777-4.37 8.167 8.167 0 0 1-.22-1.103c-.073-.378-.083-.703-.108-1.03-.047-.27.017-.83.01-1.064.068-.33.076-.642.18-.98.325-1.327.87-2.615 1.402-3.775 1.074-2.335 2.162-4.23 2.93-5.542.42-.737.748-1.28.96-1.62m-25.835 2.313c.627-.318 1.3-.616 1.93-.853 6.954-.438 14.088-.876 21.364-1.31l-.233.357c-.414.664-.92 1.47-1.465 2.418-.543.95-1.156 2.022-1.74 3.256-.574 1.24-1.172 2.6-1.578 4.217-.12.39-.16.853-.237 1.285-.014.543-.062.77-.026 1.294.024.47.05.948.13 1.37.06.44.138.88.254 1.31.414 1.735 1.16 3.426 2.135 5a16.82 16.82 0 0 0 3.683 4.2c.696.634 1.512 1.112 2.283 1.63.828.424 1.62.917 2.493 1.206.14.053.28.11.42.165-.095.296-.816 2.562-1.236 4.944a21.66 21.66 0 0 0-.254 1.908c-.025.3-.04.595-.048.88a32.98 32.98 0 0 1-.944-.718c-.04-.127-.062-.29-.09-.468a10.12 10.12 0 0 1-.104-1.362c-.013-.515.004-1.072.028-1.633.12-2.245.494-4.505.494-4.505s-.856 2.11-1.48 4.344a24.588 24.588 0 0 0-.403 1.668 21.1 21.1 0 0 0-.097.546c-.253-.233-.484-.467-.72-.704.046-.124.085-.246.13-.376.095-.353.156-.7.185-1.05.057-.697.008-1.4-.152-2.08-.334-1.357-1.094-2.576-2.03-3.53-.935-.973-2.064-1.648-3.193-2.212-.575-.27-1.142-.51-1.74-.72a17.53 17.53 0 0 0-1.765-.537 16.744 16.744 0 0 0-3.733-.496c-.638-.01-1.283.028-1.926.118-.643.074-1.28.248-1.9.45a10.21 10.21 0 0 0-3.404 1.928c-.49.434-.937.91-1.333 1.424-.266.35-.497.69-.712 1.08-1.13-.196-2.23-.85-3.223-1.534a14.403 14.403 0 0 1-3.18-2.977c-1.802-2.307-3.04-5.07-3.425-7.962a14.968 14.968 0 0 1-.143-2.186c.002-.695.03-1.387.18-2.054a8.642 8.642 0 0 1 1.726-3.693c.844-1.116 1.935-2.094 3.165-2.904.615-.4 1.248-.798 1.917-1.132m-11.318-.008c2.416-.156 4.86-.313 7.33-.47-1.18.767-2.292 1.684-3.233 2.806-.362.438-.68.914-.977 1.407-.834-.017-2.096-.21-2.757-.96-.522-.592-.64-1.53-.364-2.783m-18.722 1.24c3.215-.218 6.498-.437 9.84-.657.062.043.117.08.182.13.26.207.525.474.777.787.074.15.195.244.284.462l.113.366.057.185c-.005-.084.004.042.008.055.065.306-.138.66-.486.926-.336.27-.74.455-1.088.59-.71.27-1.224.353-1.224.353s.513.05 1.3-.033c.392-.048.855-.123 1.35-.34.247-.102.495-.266.728-.487.215-.238.415-.562.46-.918l.015-.133v-.068l-.02-.033v-.095l.012-.193.004-.382c-.03-.27-.148-.617-.24-.917-.06-.14-.13-.26-.193-.39 1.547-.103 3.106-.205 4.68-.308-.254 1.675.067 3.03.96 4.038.925 1.044 2.267 1.44 3.35 1.583a10.76 10.76 0 0 0-.405 1.388 11.665 11.665 0 0 0-.28 2.677 18.3 18.3 0 0 0 .207 2.56c.163 1.062.426 2.11.767 3.13a314.486 314.486 0 0 1-4.78-1.778c.004-.018.008-.03.013-.046.13-.53.316-1.284.46-2.22.135-.937.247-2.04.135-3.328-.102-.653-.167-1.338-.643-2.135-.11-.192-.298-.394-.46-.576l-.065-.067-.016-.017-.083-.07-.024-.015-.09-.064-.185-.128a4.486 4.486 0 0 0-.67-.34c-.22-.06-.443-.147-.668-.157-.915-.108-1.698.163-2.292.472-.606.313-1.115.653-1.562.974-.218.15-.437.304-.615.402l-.067.04c.037-.007-.043.022-.06.03l-.183.08c-.093.03-.166.076-.277.106-.415.14-.84.188-1.223.186-.773-.003-1.323-.393-1.558-.838a2.75 2.75 0 0 1-.22-.548l-.062-.212c.025 0-.108.295-.03.865.053.28.17.636.453.976.278.344.723.608 1.224.765.503.164 1.068.208 1.668.164.144-.005.32-.042.486-.067l.197-.045c.047-.014.033-.002.13-.037l.12-.04c.322-.106.585-.23.858-.352.53-.235 1.02-.497 1.498-.657.478-.17.905-.222 1.184-.147.078 0 .132.058.2.07.05.042.037.023.123.077l.172.145.085.072.022.018.004.005c-.03-.025.077.063-.067-.056v.006l.007.017c.017.055.05.06.08.127.14.23.213.738.25 1.19.067.96-.025 1.96-.115 2.805a36.288 36.288 0 0 1-.23 1.762c-4.384-1.71-9.755-3.92-14.91-6.346.604-1.12 1.357-3.12.628-5.346m-2.2.148c.835 1.778.147 3.464-.322 4.29-2.523-1.23-4.955-2.5-7.15-3.78 2.445-.168 4.937-.338 7.473-.51M37.626 95.744a.75.75 0 0 0-.094-1.497c-2.587.167-10.16-.327-10.237-.332a.76.76 0 0 0-.797.7.75.75 0 0 0 .698.796c.268.02 5.697.37 8.96.37.568 0 1.07-.01 1.47-.036m3.392 3.677c-2.386-.342-9.205.14-9.493.16a.75.75 0 0 0 .052 1.5l.053-.003c.07-.006 6.945-.49 9.175-.172a.745.745 0 0 0 .848-.636.75.75 0 0 0-.636-.85m-2.106 6.774c-2.317 0-8.623.114-8.686.115-.415.01-.742.252-.73.666.01.406.344.523.75.523h.02c.062 0 6.35.025 8.646.025.414 0 .75-.14.75-.556 0-.413-.336-.776-.75-.776m-8.938-22.288l10.667 1.5a.75.75 0 0 0 .21-1.487l-10.668-1.5a.75.75 0 0 0-.21 1.487m13.44-4.66a.75.75 0 0 0 .056-1.5c-2.117-.162-12.68-1.645-12.785-1.66a.753.753 0 0 0-.848.638c-.057.41.228.79.64.848.435.06 10.714 1.505 12.88 1.672h.058m-16.25-7.1c-.022.415.296.79.71.81l9.667.545h.04c.395 0 .727-.352.747-.752.02-.414-.297-.807-.71-.828l-9.668-.494c-.427-.04-.766.306-.787.72m6.506-4.573c1.873-.23 7.104-.762 8.796-.503a.75.75 0 0 0 .228-1.482c-2.242-.346-8.92.463-9.204.497a.75.75 0 1 0 .182 1.488m3.286-61.63c-2.973-.874-11.178.748-11.525.818a.75.75 0 0 0 .294 1.472c2.268-.453 8.63-1.49 10.81-.85a.753.753 0 0 0 .93-.508.752.752 0 0 0-.51-.93m-15.625 5.492a.75.75 0 0 0 .688.808c.216.02 4.59.37 7.146.37.447 0 .84-.01 1.143-.036a.75.75 0 0 0 .685-.81.76.76 0 0 0-.81-.686c-1.92.16-7.984-.33-8.044-.334a.76.76 0 0 0-.808.688m-.835 6.227c0 .414.336.75.75.75.176 0 .45-.053 1.38-.235 2.163-.43 7.23-1.433 9.28-.95a.75.75 0 1 0 .344-1.46c-2.365-.557-7.466.452-9.917.937-.563.11-.962.193-1.11.208a.75.75 0 0 0-.727.75m15.47 7.805c-1.268.507-6.25 1.614-8.707 2.128a.75.75 0 1 0 .307 1.47c.295-.063 7.25-1.522 8.96-2.206a.75.75 0 1 0-.56-1.392m-11.87 8.262c.638.13 4.993.995 8.147.995 1.098 0 2.05-.104 2.65-.38a.75.75 0 0 0-.628-1.363c-1.414.653-6.804-.097-9.87-.72a.75.75 0 1 0-.3 1.47m3.347 7.847c3.2-.127 8.808.005 10.244.89a.75.75 0 0 0 .786-1.278c-2.295-1.41-10.195-1.146-11.09-1.11a.75.75 0 0 0-.72.778c.018.413.387.772.78.72m13.85 5.178a.755.755 0 0 0-.95-.474c-3.81 1.27-10.973.803-11.045.798a.75.75 0 0 0-.102 1.496c.127.008 1.455.095 3.258.095 2.523 0 5.976-.17 8.363-.966a.752.752 0 0 0 .475-.95m-10.264 6.824a.75.75 0 0 0 .104 1.496l7.167-.5a.75.75 0 0 0 .695-.8.76.76 0 0 0-.8-.696l-7.167.5zm9.127-32.366a.753.753 0 0 0-.856-.627c-2.116.325-14.16 1.315-14.28 1.326a.75.75 0 1 0 .122 1.494c.497-.04 12.218-1.005 14.386-1.34a.75.75 0 0 0 .627-.854m150.382 24.572c-.41-.38-.842-.783-1.287-1.2-.88-.848-1.822-1.738-2.75-2.655-.932-.914-1.865-1.83-2.74-2.686a96.263 96.263 0 0 0-2.48-2.296 40.868 40.868 0 0 0-1.844-1.58c-.46-.373-.742-.577-.742-.577s.115.328.377.865c.253.543.657 1.29 1.198 2.146a28.614 28.614 0 0 0 2.027 2.797 29.71 29.71 0 0 0 2.71 2.888 30.8 30.8 0 0 0 3.067 2.536c.535.35 1.053.688 1.54 1.008.507.3 1.005.55 1.45.795.46.227.906.394 1.283.56.373.177.742.25 1.023.345.574.166.904.238.904.238s-.262-.23-.72-.597c-.468-.343-1.085-.91-1.84-1.528-.366-.328-.75-.7-1.175-1.057m4.766-3.907s-.234-.254-.656-.656c-.21-.198-.46-.446-.76-.704-.29-.272-.635-.537-.98-.883-.67-.716-1.5-1.466-2.362-2.303a49.43 49.43 0 0 0-1.316-1.313c-.454-.44-.933-.864-1.382-1.33-.908-.914-1.87-1.77-2.748-2.61a39.24 39.24 0 0 0-1.312-1.167c-.412-.376-.81-.728-1.19-1.04a42.643 42.643 0 0 0-1.866-1.495 21 21 0 0 0-.748-.543s.133.313.414.825.69 1.244 1.262 2.055c.543.835 1.25 1.75 2.043 2.7.777.964 1.717 1.897 2.654 2.827.94.928 1.998 1.75 2.963 2.527.486.387 1.027.687 1.502 1.007.477.318.95.59 1.377.844.423.264.884.41 1.255.58.375.163.713.283.984.388.546.2.863.293.863.293m.06-7.918a34.447 34.447 0 0 0-1.56-2.076c-.665-.84-1.48-1.777-2.372-2.765a70.46 70.46 0 0 0-2.9-2.98c-2.028-1.974-4.2-3.797-5.92-5.073-1.714-1.283-2.985-2.004-2.985-2.004s.764 1.246 2.105 2.912c1.334 1.674 3.234 3.782 5.277 5.74 1.02.98 2.07 1.933 3.08 2.796 1.018.857 1.982 1.64 2.846 2.274.855.645 1.602 1.146 2.13 1.488s.85.52.85.52-.188-.313-.55-.83m-8.978-14.816c.71.723 1.46 1.496 2.262 2.215.402.36.8.722 1.21 1.06.394.354.827.656 1.204.987.77.65 1.522 1.226 2.194 1.694 1.328.952 2.355 1.462 2.355 1.462s-.524-.998-1.52-2.312a29.962 29.962 0 0 0-1.78-2.173c-.686-.762-1.473-1.51-2.275-2.242-.807-.73-1.64-1.43-2.453-2.044a33.583 33.583 0 0 0-2.307-1.588c-1.383-.888-2.434-1.315-2.434-1.315s.15.24.437.637a32.398 32.398 0 0 0 3.108 3.622M115.27 27.01c.29-.44.65-.922.995-1.466l1.14-1.74c.415-.622.88-1.262 1.312-1.952.43-.68.913-1.407 1.336-2.103.436-.748.88-1.508 1.32-2.267.45-.756.846-1.54 1.264-2.297.398-.766.73-1.545 1.066-2.294.34-.746.65-1.477.928-2.175.297-.69.53-1.365.738-1.99.434-1.242.747-2.296.938-3.042.19-.748.275-1.186.275-1.186s-1.067 1.432-2.428 3.654l-1.086 1.798a45.58 45.58 0 0 0-1.182 2.018 68.63 68.63 0 0 0-1.203 2.183c-.42.732-.874 1.46-1.276 2.22-.41.753-.818 1.507-1.22 2.25l-1.174 2.243c-.384.718-.71 1.44-1.042 2.108-.334.67-.572 1.368-.825 1.976a24.032 24.032 0 0 0-1.027 3.033c-.112.366-.17.67-.21.873-.04.202-.063.31-.063.31l.173-.266c.105-.177.286-.42.5-.74.21-.32.477-.702.752-1.15m12.273-10.17c.51-1.42.856-2.634 1.1-3.476.218-.852.32-1.347.32-1.347s-.273.426-.72 1.183c-.468.747-1.1 1.82-1.83 3.115-.39.636-.804 1.326-1.22 2.066-.438.727-.832 1.535-1.336 2.303-.483.78-1.002 1.574-1.48 2.41-.243.41-.49.824-.734 1.24l-.827 1.24c-1.07 1.676-2.142 3.353-3.106 4.946a64.768 64.768 0 0 0-2.51 4.47c-.728 1.308-1.152 2.527-1.48 3.34-.31.823-.47 1.296-.47 1.296s.32-.4.844-1.103c.26-.353.58-.775.92-1.27.328-.5.776-1.026 1.222-1.623.453-.592.948-1.228 1.442-1.92.493-.688 1.07-1.396 1.603-2.16.542-.762 1.126-1.533 1.675-2.345.547-.812 1.1-1.64 1.657-2.464l.805-1.253.742-1.32c.494-.866.932-1.746 1.375-2.583.473-.825.764-1.693 1.11-2.485a63.95 63.95 0 0 0 .9-2.26m-2.128 11.66a28.525 28.525 0 0 0-1.77 1.862 40.82 40.82 0 0 0-2.278 2.795 64.74 64.74 0 0 0-2.343 3.396 73.89 73.89 0 0 0-1.056 1.85c-.34.633-.667 1.182-.964 1.86-.473 1.225-.895 2.377-1.21 3.388a16.81 16.81 0 0 0-.64 2.51c-.116.618-.156.974-.156.974s.224-.288.57-.8l1.397-2.125c.583-.884 1.206-1.94 1.852-3.083l1.063-1.63c.365-.565.72-1.148 1.072-1.733a67.42 67.42 0 0 0 2.11-3.495c.624-1.15 1.225-2.216 1.675-3.172.47-.944.815-1.764 1.054-2.34.238-.577.353-.923.353-.923s-.28.23-.73.665m-.89 10.487c-.893.952-1.902 2.335-2.728 3.83-.418.743-.78 1.525-1.084 2.27a13.6 13.6 0 0 0-.677 2.12c-.18.624-.212 1.213-.248 1.596-.026.392-.02.616-.02.616s.17-.168.425-.46c.265-.295.57-.714.977-1.22.414-.5.81-1.104 1.26-1.76.438-.657.855-1.38 1.27-2.11.804-1.474 1.5-3.016 1.894-4.253.42-1.22.552-2.133.552-2.133s-.75.535-1.618 1.503M-.086 110.5h306v1h-306z"/></svg>