<svg id="Layer_1" xmlns="http://www.w3.org/2000/svg" viewBox="-152 341 305.8 112"><style>.nav-nose-16-st-0{fill:#fcdca4}.nav-nose-16-st-1{fill:#d72050}</style><path class="nav-nose-16-st-0" d="M145.6 431.6c-10.6-16.4-27.6-25.9-43.4-36.5-9.2-6.1-16.7-14.5-25.4-21.3-7-5.5-17.1-8.9-21.8-16.9-1.7-3-6.2-3.7-8.6-1.1-5.6 6.1-10.7 12.7-15.8 19.4-4.1 5.5-8.8 10.7-12.5 16.5-5.2 8-9.3 17.1-15.7 24.3l-.4.4c-1.7-1-3.1-2.6-4.4-4-3.5-3.6-6.6-7.8-9.5-11.9-9.7-13.6-20.5-26.6-31.2-39.4-1.6-1.9-4.7-2-6.7-.9-33.4 19.4-57.9 51-92 69.3-6.2 3.4-.7 12.9 5.6 9.5 32.8-17.6 56.6-47.4 88-66.9 10 12.1 19.7 24.4 29 37C-14.6 415.6-4 432 6 427c3.9-2 6.6-6.2 9-9.6 3.5-5 6.5-10.3 9.6-15.5 3.3-5.4 7.1-10.3 11-15.3 4.7-6.2 9.3-12.4 14.4-18.3 4.5 4.5 10.1 7.6 15.6 11 9 5.6 16.2 13.8 24.4 20.4 15.4 12.5 34.9 20.2 46.1 37.5 3.8 5.9 13.4.4 9.5-5.6z"/><path class="nav-nose-16-st-1" d="M-55.8 407.2c-11 0-11 17 0 17 10.9 0 10.9-17 0-17zM57.2 405.8c-11 0-11 17 0 17s11-17 0-17zM1.2 365.2c-11 0-11 17 0 17s11-17 0-17zM-120.8 365.8c-11 0-11 17 0 17s11-17 0-17zM120.2 363.2c-11 0-11 17 0 17 10.9 0 10.9-17 0-17zM-134.3 436.3c-1.4-2.2-3.1-4.3-4.8-6.3-.4-.5-1.1.2-.7.7 1.7 1.9 3.3 4 4.7 6.1.3.5 1.1 0 .8-.5zM-130.9 433.8c-1.9-1.9-2.7-4.5-4.6-6.3-.5-.4-1.2.3-.7.7 1.9 1.8 2.7 4.4 4.6 6.3.5.5 1.2-.2.7-.7zM-127.4 431.5c-1.9-1.6-2.7-4.1-4-6.1-.3-.5-1.2 0-.9.5 1.3 2.1 2.1 4.7 4.1 6.3.6.4 1.3-.3.8-.7zM-123.9 429.7c-1.6-2.1-3-4.3-4.3-6.6-.3-.6-1.2-.1-.9.5 1.3 2.4 2.8 4.6 4.5 6.8.4.5 1.1-.2.7-.7zM-120.4 426.9c-1.8-1.7-3-3.8-4.3-5.9-.3-.5-1.2 0-.9.5 1.3 2.1 2.6 4.3 4.5 6.1.5.5 1.2-.2.7-.7zM-117.2 424.4c-2.2-1.2-2.8-4.1-4.7-5.6-.5-.4-1.2.3-.7.7 2 1.6 2.6 4.5 4.9 5.8.6.3 1.1-.6.5-.9zM-114 422.1c-1.8-1.7-3.1-3.8-4.9-5.5-.5-.4-1.2.3-.7.7 1.8 1.7 3.1 3.8 4.9 5.5.5.4 1.2-.3.7-.7zM-110.2 419.1l-2.7-2.4c-.9-.8-1.9-1.8-2.1-3-.1-.6-1.1-.4-1 .3.4 2.5 3.4 4.2 5.1 5.8.5.5 1.2-.2.7-.7zM-106.4 416.6c-1.9-1.6-3.8-3.5-5-5.7-.3-.6-1.2-.1-.9.5 1.3 2.3 3.2 4.2 5.2 5.9.5.4 1.2-.3.7-.7zM-103.1 413.6c-1.8-1.5-3.5-3.2-4.9-5.1-.4-.5-1.3 0-.9.5 1.5 1.9 3.2 3.7 5.1 5.3.5.4 1.2-.3.7-.7zM-100.7 411.1c-1-.6-1.9-1.3-2.7-2-.7-.6-1.9-1.5-2.2-2.5-.1-.6-1.1-.4-1 .3.2 1.1 1.3 1.9 2 2.6 1 .9 2.1 1.8 3.3 2.5.7.3 1.2-.6.6-.9zM-98.4 408.9c-1.4-1.6-3.6-2.6-4.6-4.6-.3-.6-1.1-.1-.9.5 1 2.1 3.3 3.1 4.7 4.8.6.5 1.3-.2.8-.7zM-94.9 406.6c-.9-.7-1.9-1.5-2.8-2.2-1-.8-2.2-1.7-2.7-2.9-.2-.6-1.2-.3-1 .3 1 2.4 3.8 4 5.7 5.6.6.3 1.3-.4.8-.8zM-92.8 404.8c-1.7-1.6-3.1-3.3-4.7-5-.4-.5-1.1.2-.7.7 1.5 1.7 3 3.4 4.7 5 .4.4 1.1-.3.7-.7zM-89.8 402.7c-.8-.8-1.6-1.6-2.4-2.5-.6-.7-1.8-1.9-1.8-2.9 0-.6-1-.6-1 0-.1 1.1.9 2.1 1.5 2.9.9 1.1 1.9 2.1 3 3.1.5.6 1.2-.1.7-.6zM-86.9 399.7c-.8-.8-1.7-1.5-2.6-2.3-.8-.7-2.1-1.7-2.2-2.8-.1-.6-1.1-.6-1 0 .3 2.6 3.5 4.1 5.1 5.8.5.5 1.2-.2.7-.7zM-83.7 396.9c-.8-.7-1.6-1.4-2.4-2.2-.5-.5-1-.9-1.5-1.4-.2-.2-.4-.4-.5-.6-.1-.1-.1-.1-.1-.2 0 0 0-.1-.1-.1.1-.5-.6-.8-.9-.3-.5.8 1.1 2.1 1.5 2.5 1.1 1.1 2.2 2 3.3 3 .5.5 1.2-.2.7-.7zM-80.5 394c-.8-.8-1.7-1.5-2.6-2.2-.8-.7-1.9-1.5-2.1-2.6-.1-.6-1.1-.4-1 .3.5 2.4 3.4 3.6 4.9 5.2.5.5 1.2-.2.8-.7zM-77.3 391.8c-1.6-1.7-3.6-3.1-4.8-5.3-.3-.6-1.2-.1-.9.5 1.2 2.2 3.2 3.7 4.9 5.5.5.5 1.2-.2.8-.7zM-75.1 389.4c-1.7-1.5-3-3.3-4.5-5-.4-.5-1.1.2-.7.7 1.5 1.7 2.8 3.5 4.5 5 .5.5 1.2-.3.7-.7zM-72.2 387.3c-.9-.7-1.5-1.7-2.2-2.5-.9-.9-1.9-1.8-2.6-2.9-.3-.6-1.2 0-.9.5.7 1.1 1.6 2 2.5 2.8 1 .9 1.7 2.1 2.7 2.9.5.5 1-.4.5-.8zM-69.6 385.3c-.9-.8-1.8-1.5-2.7-2.4-.8-.8-1.8-1.7-2.1-2.9-.2-.6-1.1-.4-1 .3.6 2.4 3.3 4.1 5.1 5.7.5.4 1.2-.3.7-.7zM-67.6 382.9c-.8-.6-1.5-1.3-2.2-2-.7-.7-1.9-1.7-2-2.8-.1-.6-1.1-.6-1 0 .1 1.1.9 1.9 1.6 2.7.9 1 1.9 1.9 2.9 2.7.5.5 1.2-.2.7-.6zM-65.2 381.4c-1.6-1.3-3.8-3.5-4.1-5.7-.1-.6-1.1-.4-1 .3.4 2.3 2.6 4.7 4.4 6.1.4.4 1.2-.3.7-.7zM-62 379.2c-1.3-1.6-4.2-3.4-4.3-5.7 0-.6-1-.6-1 0 .2 2.7 3.1 4.5 4.6 6.4.4.5 1.1-.2.7-.7zM-59.8 377.7c-1.5-1.8-3.4-3.4-4.3-5.7-.2-.6-1.2-.3-1 .3.9 2.4 2.9 4.2 4.5 6.1.5.5 1.2-.3.8-.7zM-56.7 375.8c-1.8-1.9-3.8-3.6-5-5.9-.3-.6-1.2-.1-.9.5 1.3 2.4 3.4 4.2 5.2 6.2.4.4 1.1-.3.7-.8zM-53.7 373.8c-1.6-2-3.7-3.5-5-5.7-.3-.5-1.2 0-.9.5 1.4 2.2 3.6 3.8 5.2 5.9.3.5 1-.2.7-.7zM-50.7 372.1c-1.2-2.4-3.2-4.2-4.8-6.2-.4-.5-1.1.2-.7.7 1.6 2 3.5 3.8 4.7 6 .2.5 1.1 0 .8-.5zM-48 370.7c-.9-1.1-1.7-2.4-2.5-3.6-.5-.7-1.2-1.6-1.5-2.5.2-.3.1-.8-.4-.8h-.2c-.3 0-.5.3-.5.6.2 1 1.1 2.2 1.7 3.1.9 1.3 1.7 2.6 2.7 3.8.4.6 1.1-.1.7-.6zM-45 369c-1.7-2-3-4.3-4.5-6.5-.4-.5-1.2 0-.9.5 1.5 2.3 2.9 4.6 4.7 6.7.4.5 1.1-.2.7-.7zM-42.1 367.3c-1.6-2.2-3.2-4.3-4.6-6.7-.3-.6-1.2-.1-.9.5 1.4 2.3 3 4.5 4.6 6.7.4.5 1.3 0 .9-.5zM-39.3 368.2c-2 1.5-4.1 3.1-6.3 4.3-.6.3-.1 1.2.5.9 2.2-1.3 4.3-2.8 6.3-4.3.5-.5 0-1.3-.5-.9zM-37.3 370.5c-2.5 1.3-4.8 3-6.8 4.9-.5.5.2 1.2.7.7 1.9-1.9 4.1-3.5 6.6-4.8.6-.2 0-1.1-.5-.8zM-35.4 373.3c-2.3 1.1-5 2.7-6.2 5-.3.6.6 1.1.9.5 1.2-2.2 3.7-3.6 5.9-4.7.5-.2 0-1-.6-.8zM-33.2 376c-2.3 1.6-4.9 3-6.5 5.4-.4.5.5 1 .9.5 1.5-2.2 4-3.5 6.1-5 .6-.4.1-1.2-.5-.9zM-30.4 378.6c-2.3 1.5-5.5 2.9-6.7 5.5-.3.6.6 1.1.9.5 1.2-2.4 4.3-3.7 6.4-5.1.4-.4-.1-1.2-.6-.9zM-27.8 381.7c-1.9 2.2-4.3 4.1-6.9 5.4-.6.3-.1 1.1.5.9 2.7-1.3 5.2-3.3 7.1-5.5.4-.6-.3-1.3-.7-.8zM-26 385.6c-.9.9-1.9 1.6-2.9 2.4-.5.4-1.1.8-1.6 1.2-.2.2-.8.7-1.1.7-.6 0-.6 1 0 1 1 0 2.1-1.2 2.8-1.7 1.2-.9 2.4-1.8 3.5-2.9.5-.4-.3-1.1-.7-.7zM-23.3 388.6c-2.2 1.3-4 3.3-6.3 4.3-.6.3-.1 1.1.5.9 2.3-1.1 4.1-3 6.3-4.3.5-.4 0-1.3-.5-.9zM-20.8 391.1c-2.3 1.6-4.4 3.5-6.3 5.6-.4.5.3 1.2.7.7 1.8-2.1 3.9-3.9 6.1-5.5.5-.3 0-1.1-.5-.8zM-18.1 395c-1.3.7-2.4 1.8-3.7 2.6-1.1.7-2.1 1.4-2.8 2.5-.3.5.5 1 .9.5.7-1.2 2-1.8 3.1-2.5s1.9-1.6 3.1-2.2c.5-.4 0-1.2-.6-.9zM-16 398.1c-2.3 1.4-4.2 3.2-6.5 4.6-.5.3 0 1.2.5.9 2.2-1.4 4.2-3.2 6.5-4.6.6-.4.1-1.3-.5-.9zM-13.7 401.2c-2 1.7-3.9 3.5-6.2 4.7-.6.3-.1 1.2.5.9 2.4-1.2 4.4-3.1 6.4-4.8.5-.5-.2-1.3-.7-.8zM-11.2 403.9c-2.2 1.2-4.8 2.8-6.4 4.8-.4.5.3 1.2.7.7 1.6-1.9 4-3.5 6.2-4.7.5-.2 0-1.1-.5-.8zM-8.6 407.2c-2.2 1.5-4.3 3.2-6.5 4.7-.5.4 0 1.2.5.9 0 0 .1 0 .1-.1 2.2-1.5 4.2-3.2 6.4-4.7.5-.3 0-1.1-.5-.8zM-6.9 410.4c-2 1.8-4.3 3.2-6.3 5-.5.4.2 1.1.7.7 2-1.8 4.3-3.2 6.3-5 .5-.4-.2-1.1-.7-.7zM-4.1 413.3c-2.1 1.9-4.7 3.2-6.6 5.4-.4.5.3 1.2.7.7 1.9-2.2 4.5-3.5 6.6-5.4.5-.5-.2-1.2-.7-.7zM-2.3 415.4c-2 1.8-3.5 4-5.9 5.4-.6.3-.1 1.2.5.9 2.4-1.4 4-3.7 6.1-5.5.5-.5-.3-1.2-.7-.8zM1.1 417.5c-2.4 1.5-4.1 3.7-6.1 5.8-.4.5.3 1.2.7.7 1.9-2 3.5-4.2 5.9-5.6.5-.4 0-1.2-.5-.9zM4 419.5c-2.4 1.3-4.2 3.7-6 5.8-.4.5.3 1.2.7.7 1.7-2 3.4-4.4 5.8-5.6.6-.3.1-1.2-.5-.9zM5.6 423c-1.4 1-3 2.2-3.9 3.8-.3.6.5 1.1.9.5.8-1.4 2.2-2.5 3.5-3.5.6-.3.1-1.1-.5-.8zM10.5 420.1c-2.1-1.4-4.2-2.7-6-4.4-.5-.4-1.2.3-.7.7 1.9 1.8 4.1 3.2 6.2 4.6.5.3 1-.5.5-.9zM13.2 417.5c-.9-.7-1.9-1.2-2.9-1.8-.7-.4-1.3-.8-2-1.2l-.9-.6c-.1-.1-.2-.1-.3-.2l-.1-.1c0-.4-.6-.7-.9-.3-.6.9 1.6 2 2.1 2.3 1.4.9 3 1.5 4.3 2.5.5.5 1.2-.2.7-.6zM14.9 414.3c-1-.4-2-1-3-1.6-.6-.3-1.1-.7-1.7-1-.2-.2-.4-.3-.6-.5-.2-.2-.2-.4-.2-.1.1-.6-.9-.9-1-.3-.2 1 1.5 1.8 2.1 2.2 1.3.8 2.7 1.6 4.1 2.2.7.3.9-.7.3-.9zM17.1 411.6c-1.2-.5-2.4-1.1-3.5-1.7-.9-.5-2.8-1.4-2.9-2.5-.1-.6-1.1-.4-1 .3.2 1.2 1.6 2 2.6 2.6 1.4.9 2.8 1.6 4.3 2.3.6.1 1.1-.7.5-1zM19 408.4c-2.3-1.5-5.1-2.3-6.8-4.5-.4-.5-1.1.2-.7.7 1.8 2.3 4.7 3.1 7 4.7.6.4 1.1-.5.5-.9zM21 405.6c-2.3-1.8-5.3-2.5-7.3-4.6-.5-.5-1.2.3-.7.7 2.1 2.1 5.1 2.8 7.3 4.6.5.4 1.2-.3.7-.7zM22.7 402.3c-2-1.3-5.1-1.9-6.6-3.8-.4-.5-1.3 0-.9.5 1.6 2.2 4.7 2.7 6.9 4.2.7.3 1.2-.6.6-.9zM24.2 399.8c-2.1-1.5-4.4-2.6-6.5-4.1-.5-.4-1 .5-.5.9 2.1 1.4 4.4 2.6 6.5 4.1.5.3 1-.5.5-.9zM26 396.7c-2.1-1.1-4.1-3.5-6.6-3.7-.6 0-.6 1 0 1 1 .1 2.1 1 2.9 1.5 1 .7 2 1.5 3.1 2 .7.3 1.2-.5.6-.8zM28.4 394.1c-2.4-1.4-4.5-3.3-6.9-4.7-.6-.3-1.1.5-.5.9 2.4 1.4 4.5 3.3 6.9 4.7.6.3 1.1-.6.5-.9zM30.4 389.9c-1.4-.6-2.9-1.1-4.2-1.9-1-.5-2-1.3-3.1-1.5-.6-.1-.9.8-.3 1 1.1.2 2.2 1 3.2 1.5 1.2.7 2.6 1.1 3.9 1.7.6.4 1.1-.5.5-.8zM33.2 386.5c-2.6-.4-5.1-1.9-7.2-3.3-.5-.4-1 .5-.5.9 2.2 1.5 4.8 3 7.5 3.4.5.1.8-.9.2-1zM35.8 384.1c-2.2-1.4-4.9-2.2-6.6-4.2-.4-.5-1.1.2-.7.7 1.8 2.1 4.6 2.9 6.8 4.4.5.4 1-.5.5-.9zM38 380.7c-1.4-.8-2.7-1.6-4-2.5-.9-.5-2-1-2.7-1.8-.4-.5-1.2.2-.7.7.7.7 1.8 1.2 2.6 1.8 1.4.9 2.8 1.8 4.3 2.6.6.4 1.1-.5.5-.8zM40.3 378.2c-1.1-.6-2.3-1.1-3.4-1.7-.8-.4-3-1.3-3.1-2.4-.1-.6-1.1-.6-1 0 .1 1.2 1.5 2 2.5 2.6 1.4.9 3 1.5 4.5 2.3.5.4 1-.5.5-.8zM42.6 375.1c-2.6-1.3-5.1-2.8-7.5-4.5-.5-.4-1 .5-.5.9 2.4 1.7 4.9 3.2 7.5 4.5.6.2 1.1-.6.5-.9zM44.8 372.3c-2.4-1.1-5-2.3-6.9-4.2-.5-.5-1.2.2-.7.7 2 2 4.6 3.2 7.1 4.4.6.2 1.1-.6.5-.9zM46.8 369.9c-2.1-1.4-4.2-2.6-6.2-4.1-.5-.3-1 .4-.6.8.2.2.3.3.5.4.1 0 .1.1.2.1 1.8 1.3 3.8 2.4 5.6 3.6.5.4 1-.5.5-.8zM48.8 368.4c-2.2-1.3-4.2-2.8-5.9-4.6-.5-.5-1.2.3-.7.7 1.9 1.8 3.9 3.5 6.2 4.7.5.4 1-.5.4-.8zM50.2 365.9c-2-1.6-3.8-3.3-5.8-4.8-.5-.4-1.2.3-.7.7 2 1.6 3.8 3.3 5.8 4.8.5.4 1.2-.3.7-.7zM52.5 363.1c-2.3-1.1-4.2-3-6.2-4.5-.5-.4-1 .5-.5.9 2 1.5 3.9 3.4 6.2 4.5.5.2 1-.7.5-.9zM54.4 360c-2-1.2-3.5-3.1-5.4-4.3-.5-.3-1 .5-.5.9 2 1.3 3.4 3.2 5.4 4.3.5.3 1-.6.5-.9zM57.1 362.8c-2 1.5-4.1 3.1-5.5 5.3-.4.5.5 1 .9.5 1.3-2 3.2-3.6 5.1-4.9.5-.4 0-1.3-.5-.9zM59.4 364.9c-1.6 1.7-3.1 3.6-4.9 5.1-.5.4.2 1.1.7.7 1.8-1.5 3.3-3.4 4.9-5.1.4-.4-.3-1.1-.7-.7zM62.4 366.8c-1.9 1.7-3.3 3.8-4.7 5.9-.4.5.5 1 .9.5 1.4-2 2.7-4.1 4.6-5.7.4-.5-.3-1.2-.8-.7zM66.2 368.6c-1.5 1.9-3.2 3.6-4.8 5.4-.4.5.3 1.2.7.7 1.7-1.7 3.3-3.5 4.8-5.4.4-.5-.3-1.2-.7-.7zM69.7 370.5c-1.8 2-3.6 4.1-5.4 6-.5.5.3 1.2.7.7 1.9-1.9 3.6-4 5.4-6 .4-.5-.3-1.2-.7-.7zM72 373.3c-.9 1.2-1.9 2.3-2.9 3.4-.5.6-.9 1.3-1.6 1.8-.2 0-.3.1-.4.2l-.1.1c-.4.4.1 1 .6.8 1-.4 1.5-1.4 2.2-2.2 1.1-1.1 2.1-2.3 3-3.6.5-.6-.4-1.1-.8-.5zM75.3 375c-1.8 1.6-4.6 3.2-5.2 5.7-.2.6.8.9 1 .3.3-1.2 1.4-2.1 2.2-2.9.9-.8 1.8-1.5 2.7-2.3.5-.5-.2-1.2-.7-.8zM78.5 377.6c-1.8 1.8-3.8 3.4-5.2 5.5-.3.6.5 1.1.9.5 1.3-2.1 3.3-3.6 5-5.3.4-.5-.3-1.2-.7-.7zM82.1 380.1c-2.1 1.6-4.7 3.5-5.8 6.1-.3.6.6 1.1.9.5 1-2.4 3.4-4.2 5.4-5.7.5-.4 0-1.3-.5-.9zM84.9 383.1c-.9 1.1-2.1 2-3.1 2.9-.8.8-1.9 1.8-2 3 0 .6 1 .6 1 0 .1-1 1.4-2.1 2.1-2.7.9-.8 1.9-1.6 2.7-2.6.4-.4-.3-1.1-.7-.6zM87.9 385.5c-1.8 1.8-3.4 3.7-5.1 5.6-.4.5.3 1.2.7.7 1.7-1.9 3.3-3.8 5.1-5.6.5-.4-.2-1.1-.7-.7zM90.9 388.6c-1.9 1.5-3.7 3.2-5.2 5.1-.4.5.3 1.2.7.7 1.4-1.9 3.1-3.5 5-4.9.5-.5 0-1.3-.5-.9zM93.9 391.1c-1.9 1.7-4.1 3.4-5.4 5.6-.3.6.5 1.1.9.5 1.3-2.2 3.4-3.8 5.3-5.4.4-.4-.3-1.1-.8-.7zM97.4 393.8c-2 1.6-3.8 3.6-5.5 5.4-.4.5.3 1.2.7.7 1.8-1.9 3.5-3.8 5.5-5.4.5-.4-.2-1.1-.7-.7zM100.7 396.2c-1.6 2-3.4 3.9-5.3 5.7-.5.5.3 1.2.7.7 1.8-1.8 3.7-3.7 5.3-5.7.4-.5-.3-1.3-.7-.7zM104.4 398.7c-2.1 1.7-3.9 3.7-5.4 5.9-.4.5.5 1 .9.5 1.5-2.2 3.2-4.1 5.3-5.7.4-.3-.3-1.1-.8-.7zM107.9 400.5c-2 1.9-3.3 4.7-5.7 6.1-.6.3 0 1.2.5.9 2.5-1.5 3.9-4.3 5.9-6.3.4-.5-.3-1.2-.7-.7zM110.7 402.6c-1.7 2-3.5 4-5.4 5.9-.4.5.3 1.2.7.7 1.8-1.9 3.7-3.8 5.4-5.9.4-.4-.3-1.2-.7-.7zM113.9 404.7c-1.9 2-3.9 3.8-5.6 6-.4.5.3 1.2.7.7 1.7-2.2 3.8-4 5.6-6 .5-.5-.2-1.2-.7-.7zM116.7 407.1c-1.4 2.1-3.3 3.8-5.1 5.6-.5.5.2 1.2.7.7 1.9-1.8 3.8-3.6 5.3-5.8.3-.6-.5-1.1-.9-.5zM119.5 408.8c-1.5 2-2.9 4-4.8 5.6-.5.4.2 1.1.7.7 1.9-1.7 3.4-3.8 4.9-5.8.4-.5-.4-1-.8-.5zM122.7 410.8c-1.5 2-3.2 3.8-4.8 5.7-.4.5.3 1.2.7.7 1.7-1.9 3.3-3.7 4.8-5.7.4-.4-.3-1.2-.7-.7zM125.9 413.5c-1 1.1-2.1 2-3.1 3.1-.6.6-2.1 1.7-2.1 2.7 0 .6 1 .6 1 0 0-.1.5-.7.7-.9l1.5-1.5c.9-.9 1.9-1.8 2.8-2.7.3-.4-.4-1.1-.8-.7zM129 416.1c-1.5 2-3.4 3.6-4.8 5.6-.4.5.5 1 .9.5 1.4-2.1 3.3-3.6 4.8-5.6.3-.5-.5-1-.9-.5zM132 418.9c-2 1.5-3.6 3.4-5.3 5.3-.4.5.3 1.2.7.7 1.6-1.7 3.2-3.6 5.1-5.1.5-.4 0-1.3-.5-.9zM135.1 420.8c-2.1 1.4-4 3-5.7 4.8-.4.5.3 1.2.7.7 1.7-1.7 3.5-3.3 5.5-4.7.6-.3.1-1.2-.5-.8zM138 423.6c-2.2 1.4-4.5 2.7-6.2 4.7-.4.5.3 1.2.7.7 1.6-1.9 3.9-3.3 6-4.6.5-.2 0-1.1-.5-.8zM140 426.4c-2 1.4-3.9 2.7-5.8 4.2-.5.4.2 1.1.7.7 1.8-1.4 3.7-2.8 5.6-4.1.6-.3.1-1.1-.5-.8zM142 430.2c-1.7 1.3-3.8 2.1-5.5 3.3-.5.4 0 1.2.5.9 1.8-1.2 3.8-2 5.5-3.3.5-.4 0-1.3-.5-.9zM144.3 433.6c-2 .8-4 1.7-5.9 2.8-.6.3 0 1.2.5.9 1.8-1.1 3.7-1.9 5.7-2.7.6-.3.3-1.2-.3-1z"/><path class="nav-nose-16-st-0" d="M-119.5 372.2c-.9-.9-2.6-1-3.5 0-.4.4-.7.9-.8 1.4-.3 1.3.4 2.7 1.7 3.1 1.2.3 2.7-.4 3-1.6.5-1 .4-2.1-.4-2.9zM-54.8 413.7c-4 0-4 5 0 5 3 0 3-5 0-5zM.2 370.9c-3 0-3 5 0 5 4 0 4-5 0-5zM58.2 411.9c-4 0-4 5 0 5 3 0 3-5 0-5zM121.2 368.5c-3 0-3 5 0 5s3-5 0-5z"/></svg>