<svg id="Layer_1" xmlns="http://www.w3.org/2000/svg" viewBox="-152 341 305.8 112"><style>.nav-nose-18-st-0{fill:#f0a732}.nav-nose-18-st-1{fill:#d72050}.nav-nose-18-st-2{fill:#75a08a}.nav-nose-18-st-3{fill:#0b3746}</style><path class="nav-nose-18-st-0" d="M-4.6 354.7s21.7 49.3 29.7 65c-11.3.3-14.4 7.6-30.4 27.8-13.5-18.5-18.9-28.2-30.6-27.8l31.3-65z"/><path class="nav-nose-18-st-0" d="M-27.6 402.6c-6.6 7.6-13.6.2-17.5 9.5-2.6 6.1 3.9 7.6 10.7 7.6l6.8-17.1zM16.6 402c7 7.7 14.1.3 18.2 9.9 2.6 6.3-4 7.8-11.1 7.8L16.6 402z"/><path class="nav-nose-18-st-1" d="M-38.4 419.6c.9-.7 4.5-1.9 8.7-1.1.7.7 5.3 5 5.3 5s-11.1-3-11.8-3.3c-.8-.2-2.2-.6-2.2-.6zM12.6 425.1c1-1.1 3.7-3.9 6.1-6.1 4.1-1.7 7.3.8 7.3.8l-13.4 5.3z"/><path class="nav-nose-18-st-2" d="M8.5 390.5c-3.1-4.3-4.7-6.5-7.4-10.3 3.2-2.3 7.7-2.1 9.8.8 2.1 2.9.9 7.2-2.4 9.5z"/><path class="nav-nose-18-st-0" d="M17.14 376.17l.584.812-8.366 6.007-.584-.813zM17.36 381.636l.35.937-9.647 3.607-.35-.937zM8.98 375.906l.806.592-3.79 5.158-.805-.592z"/><g><path class="nav-nose-18-st-2" d="M-101.6 418.4c-4.8 2.3-7.2 3.4-11.4 5.5-1.7-3.6-.7-8 2.5-9.5 3.2-1.6 7.2.4 8.9 4z"/><path class="nav-nose-18-st-0" d="M-114.194 407.428l.903-.43 4.43 9.298-.902.43zM-108.79 408.17l.985-.18 1.845 10.134-.984.18zM-115.85 415.313l.726-.69 4.407 4.642-.726.69z"/></g><g><path class="nav-nose-18-st-3" d="M89.3 391.8c-18.9 3.5-37-8.1-42.1-26.2.1 1.1.2 2.2.4 3.2 3.7 19.9 22.9 33.1 42.8 29.4 19.9-3.7 33.1-22.9 29.4-42.8-.2-1.1-.5-2.1-.7-3.2 1.9 18.8-10.9 36.1-29.8 39.6zM-90.5 391.8c18.9 3.5 37-8.1 42.1-26.2-.1 1.1-.2 2.2-.4 3.2-3.7 19.9-22.9 33.1-42.8 29.4-19.9-3.7-33.1-22.9-29.4-42.8.2-1.1.5-2.1.7-3.2-1.9 18.8 10.9 36.1 29.8 39.6z"/></g><g><path class="nav-nose-18-st-2" d="M82.4 385.4c-4.8 2.3-7.2 3.4-11.4 5.5-1.7-3.6-.7-8 2.5-9.5 3.2-1.6 7.2.4 8.9 4z"/><path class="nav-nose-18-st-0" d="M69.813 374.434l.903-.43 4.432 9.297-.903.432zM75.202 375.162l.984-.18 1.845 10.134-.983.18zM68.142 382.312l.725-.69 4.406 4.643-.725.688z"/></g></svg>