<svg xmlns="http://www.w3.org/2000/svg" width="305.834" height="112" viewBox="0 0 305.834 112"><path fill="#0C3846" d="M110.767 35l42.483 67-10.183-67z"/><path fill="#0C3846" d="M195.25 35l-42.482 67 10.182-67z"/><path fill="#D72251" d="M126.767 4l26.252 98 26.047-98zM0 31.482l95.756-13.015L0 5.553z"/><path fill="#F0A733" d="M0 69.982l95.756-13.015L0 44.053z"/><path fill="#D72251" d="M0 108.482l95.756-13.015L0 82.553z"/><path fill="#F0A733" d="M306 82.552l-95.756 13.015L306 108.48z"/><path fill="#D72251" d="M306 44.052l-95.756 13.015L306 69.98z"/><path fill="#F0A733" d="M306 5.552l-95.756 13.015L306 31.48zM146.102 17l6.815-6.816L159.732 17zM146.102 32l6.815-6.815L159.732 32zM146.102 46l6.815-6.815L159.732 46zM146.102 61l6.815-6.816L159.732 61z"/></svg>