<?xml version="1.0" encoding="utf-8"?><svg width="72" height="48" viewBox="0 0 72 48" xmlns="http://www.w3.org/2000/svg" xmlns:xlink="http://www.w3.org/1999/xlink"><svg width="24" height="24" viewBox="0 0 24 24" id="colour"><path d="M13 1C8.03 1 3 2.343 3 4v3.073c-1.077 1.035-2 2.33-2 3.82 0 2.165 1.93 3.377 4.156 3.377 1.922 0 4.297-.85 6.703-2.806a1.488 1.488 0 0 1-.36-.964A1.5 1.5 0 1 1 13 12l-.2-.02c-2.497 2.125-5.176 3.29-7.645 3.29-.78 0-1.502-.132-2.156-.365v4.348C3 21.247 7 23 13.03 23c5.94 0 9.97-1.745 9.97-3.747V4c0-1.657-5.03-3-10-3zM3 12.696c-1.498-.972-1.21-2.65 0-4.145v4.147zm17 6.992c-.493.322-1.412.595-2 .594V7.532a7.986 7.986 0 0 0 2-.407v12.563zM13.078 5.78c-2.053 0-7.49-.39-7.49-1.39 0-1.01 4.987-1.557 7.49-1.557 2.568 0 7.51.557 7.51 1.557 0 1.01-5.41 1.39-7.51 1.39z"/></svg><svg width="24" height="24" viewBox="0 0 24 24" id="crown"><path d="M22 19v3H2v-3h20zm0-15c-1.5 0-2.662 1.685-1.598 3.194.535.76.406 1.216.045 1.75C19.682 10.07 18.575 11 17 11c-2.52 0-3.854-2.083-4.13-3.848-.097-.614-.15-1.074.435-1.644.402-.39.695-.904.695-1.508a2 2 0 0 0-4 0c0 .604.293 1.118.695 1.508.586.57.53 1.03.436 1.644C10.856 8.917 9.52 11 7 11c-1.575 0-2.682-.93-3.447-2.058-.362-.532-.49-.99.045-1.748C4.662 5.684 3.5 4 2 4a2 2 0 0 0-2 2c0 .797.464 1.495 1.144 1.808.825.38.856 1.317.856 2.17V17h20V9.98c0-.855.03-1.793.856-2.172A1.987 1.987 0 0 0 24 6a2 2 0 0 0-2-2z"/></svg><svg width="24" height="24" viewBox="0 0 24 24" id="eyes"><path d="M12.015 7c4.75 0 8.063 3.012 9.504 4.636C20.116 13.473 16.804 17 12.013 17c-4.42 0-7.93-3.536-9.478-5.407C4.03 9.946 7.354 7 12.016 7zm0-2C4.445 5 0 11.55 0 11.55S4.835 19 12.015 19C19.748 19 24 11.55 24 11.55S19.71 5 12.015 5zM12 10c1.103 0 2 .897 2 2s-.897 2-2 2-2-.897-2-2 .897-2 2-2zm0-2a4 4 0 1 0 .002 8.002A4 4 0 0 0 12 8z"/></svg><svg width="24" height="24" viewBox="0 0 24 24" id="mouth"><path d="M12 2c5.514 0 10 4.486 10 10s-4.486 10-10 10S2 17.514 2 12 6.486 2 12 2zm0-2C5.373 0 0 5.373 0 12s5.373 12 12 12 12-5.373 12-12S18.627 0 12 0zm0 14c-2.33 0-4.144 1.636-5.092 2.797l.47.58c1.287-.82 2.733-1.308 4.623-1.308s3.338.487 4.624 1.306l.47-.58c-.947-1.16-2.76-2.797-5.092-2.797zM8.5 8a1.5 1.5 0 1 0 0 3 1.5 1.5 0 0 0 0-3zm7 0a1.5 1.5 0 1 0 0 3 1.5 1.5 0 0 0 0-3z"/></svg><svg width="24" height="24" viewBox="0 0 24 24" id="nose"><path d="M12 2c5.514 0 10 4.486 10 10s-4.486 10-10 10S2 17.514 2 12 6.486 2 12 2zm0-2C5.373 0 0 5.373 0 12s5.373 12 12 12 12-5.373 12-12S18.627 0 12 0zm0 14c-2.33 0-4.144 1.636-5.092 2.797l.47.58c1.287-.82 2.733-1.308 4.623-1.308s3.338.487 4.624 1.306l.47-.58c-.947-1.16-2.76-2.797-5.092-2.797zM8.5 8a1.5 1.5 0 1 0 0 3 1.5 1.5 0 0 0 0-3zm7 0a1.5 1.5 0 1 0 0 3 1.5 1.5 0 0 0 0-3z"/></svg><svg width="24" height="24" viewBox="0 0 24 24" id="share"><path d="M6 17C8.27 7.12 17 5.333 17 5.333V2l7 6.637-7 6.696V12s-6.17-.17-11 5zm12 .145V20H2V8h6.598a17 17 0 0 1 2.34-2H0v16h20v-6.77l-2 1.915z"/></svg></svg>