<svg xmlns="http://www.w3.org/2000/svg" xmlns:xlink="http://www.w3.org/1999/xlink" width="305.834" height="112" viewBox="0 0 305.834 112"><defs><path id="nav-eye-10-st-0" d="M12.354 8.662H293.48v94.676H12.353z"/></defs><clipPath id="nav-eye-10-st-2"><use xlink:href="#a" overflow="visible"/></clipPath><path clip-path="url(#nav-eye-10-st-2)" fill="#FCDCA4" d="M183.557 48.25c-.18-15.884 12.433-39.003 45.506-38.434 33.073.57 49.84 15.282 51.207 35.926 1.37 20.643-16.08 51.322-49.04 48.927-32.96-2.397-47.332-15.854-47.673-46.42M87.072 9.475c24.52.278 48.242 10.378 50.98 42.198 2.736 31.82-34.9 47.102-58.165 42.996-23.266-4.107-40.93-21.34-38.32-48.243C44.19 19.397 67 9.247 87.072 9.475"/><path clip-path="url(#nav-eye-10-st-2)" fill="#D72251" d="M75.21 16.432c14.94.233 28.17 10.607 28.97 25.66.798 15.055-9.923 28.97-28.4 29.31-18.475.345-27.6-18.475-26.686-30.336.912-11.86 11.518-24.862 26.117-24.634M242.57 23.274c12.89-.12 27.03 10.264 27.26 26.003.226 15.74-11.178 29.88-26.69 28.968-15.51-.912-29.88-11.747-28.054-29.65 1.824-17.907 15.282-25.206 27.485-25.32"/><path clip-path="url(#nav-eye-10-st-2)" fill="#EE6372" d="M218.17 50.458c-.51-5.46 5.173-10.648 11.332-10.763 6.158-.113 9.07 6.326 12.72 5.87 3.648-.456 7.08-5.87 13.125-5.3 6.045.57 11.887 3.252 11.09 11.007-.8 7.756-7.115 9.72-11.334 9.376-4.22-.342-7.945-5.396-12.393-5.055-4.447.343-7.132 6.294-13.86 5.952-6.73-.342-10.225-6.184-10.68-11.087M52.18 43.038c-.26-5.26 5.06-10.224 11.332-10.11 6.272.114 8.22 5.61 11.985 5.382 3.764-.23 5.876-6.033 12.72-6.033 6.842 0 12.782 6.07 12.554 11.66s-3.756 10.613-12.31 10.27c-8.554-.34-6.984-4.94-11.66-5.054-4.676-.114-7.196 5.315-13.126 4.973-5.93-.342-11.153-4.13-11.495-11.088"/><path clip-path="url(#nav-eye-10-st-2)" fill="#0C3846" d="M182.9 36.298c.134-.486.265-.958.388-1.41.295-.887.535-1.718.8-2.436.248-.726.5-1.343.694-1.864.22-.504.375-.918.502-1.185l.195-.416s-.44.47-1.088 1.39c-.31.467-.702 1.03-1.075 1.72-.414.67-.79 1.47-1.216 2.34-.38.886-.824 1.844-1.163 2.898-.18.525-.364 1.065-.554 1.616-.148.564-.303 1.14-.457 1.724-.352 1.163-.527 2.403-.77 3.653-.18 1.256-.352 2.538-.453 3.823-.043 1.29-.147 2.576-.14 3.844.054 1.268.064 2.516.15 3.715l.386 3.45c.145 1.09.392 2.107.563 3.05.326 1.89.86 3.41 1.16 4.482l.53 1.67-.14-1.75c-.055-.552-.105-1.225-.196-1.988-.11-.76-.135-1.632-.2-2.575l-.2-3.035c-.026-1.076-.055-2.21-.085-3.384-.02-1.17.04-2.378.055-3.603.02-1.226.14-2.466.206-3.707.143-1.235.253-2.473.407-3.687l.29-1.793c.073-.597.18-1.18.3-1.747l.336-1.685.38-1.6c.114-.525.247-1.03.395-1.51m60.038 65.583c-1.65-.01-3.508.084-5.53-.004a68.524 68.524 0 0 1-6.498-.443c-1.144-.14-2.32-.252-3.506-.48-.594-.106-1.2-.187-1.8-.316l-1.815-.412c-1.222-.263-2.43-.665-3.665-1.02-1.21-.436-2.452-.82-3.655-1.352-2.442-.955-4.843-2.144-7.206-3.4a123.828 123.828 0 0 1-6.915-4.078c-2.266-1.378-4.275-2.87-6.06-4.57-3.587-3.36-6.056-7.334-7.58-10.96-.13-.297-.243-.587-.36-.878 5.184 8.887 13.44 15.47 23.846 19l-.016.022.53.355c.344.222.845.554 1.504.932 1.317.755 3.214 1.817 5.626 2.816 2.414.98 5.318 1.99 8.587 2.515 1.614.23 3.407.354 5.05.34 1.678.01 3.383.018 5.087.026 3.413-.05 6.83-.178 10.027-.408 3.2-.222 6.176-.643 8.7-1.12 2.532-.47 4.585-1.14 5.973-1.703.692-.29 1.215-.562 1.563-.757l.53-.31-.563.24c-.367.153-.92.342-1.623.562-1.418.43-3.496.818-6.012 1.104-2.513.3-5.47.414-8.638.49-3.17.072-6.554.02-9.94-.09l-5.055-.145c-1.707-.03-3.2-.182-4.738-.428-1.504-.305-2.963-.61-4.316-1.046-1.255-.367-2.41-.81-3.49-1.234 1.996.32 4.054.54 6.16.66l.85.187a66.29 66.29 0 0 0 7.317 1.067c1.727.176 3.684.285 5.825.35 1.07.008 2.187.02 3.342-.01 1.155-.074 2.35-.078 3.576-.223.612-.058 1.235-.118 1.864-.18.627-.072 1.26-.18 1.902-.272 1.286-.158 2.58-.464 3.903-.736.664-.118 1.312-.346 1.978-.52.66-.198 1.336-.345 1.992-.59l1.983-.725.5-.183.124-.045.102-.043.058-.027.236-.106.94-.428c.634-.3 1.26-.54 1.897-.902.64-.35 1.277-.703 1.917-1.056.646-.35 1.225-.77 1.84-1.154l.91-.59.873-.646a38.672 38.672 0 0 0 6.373-5.8 40.998 40.998 0 0 0 4.867-6.77c1.35-2.348 2.42-4.75 3.153-7.142.32-1.166.634-2.3.937-3.398.305-1.072.635-2.112.963-3.103.64-1.99 1.3-3.792 1.893-5.388a85.848 85.848 0 0 1 1.66-4.083c.49-1.122.964-1.954 1.312-2.505.34-.564.642-.766.626-.784.02.017-.324.165-.77.667-.47.48-1.048 1.277-1.71 2.327-1.354 2.09-2.97 5.25-4.592 9.184a79.1 79.1 0 0 0-1.178 3.115c-.4 1.093-.715 2.256-1.074 3.34a38.71 38.71 0 0 1-3.12 6.662 38.975 38.975 0 0 1-4.684 6.33 36.316 36.316 0 0 1-6.077 5.384l-.827.6-.867.543c-.58.348-1.143.75-1.735 1.056l-1.762.944c-.576.32-1.252.58-1.866.878l-.94.433-.236.108-.057.025-.02.007-.117.044-.467.172-1.856.687c-.613.235-1.256.375-1.877.565-.628.166-1.236.386-1.87.5-1.256.263-2.482.56-3.714.718-.614.09-1.218.197-1.82.27-.603.062-1.2.12-1.788.18-1.92.185-3.758.252-5.496.282a45.01 45.01 0 0 0 4.37-.904l.007.032s1.79-.293 4.38-.978c.647-.174 1.346-.38 2.083-.6.732-.23 1.515-.446 2.306-.732a84.188 84.188 0 0 0 4.927-1.835 59.055 59.055 0 0 0 4.784-2.18c.737-.4 1.45-.79 2.125-1.158.65-.408 1.268-.792 1.837-1.147.557-.375 1.043-.756 1.482-1.072.447-.308.794-.636 1.09-.89l.918-.806-1.002.697c-.32.22-.694.502-1.17.756-.472.264-.985.583-1.57.89-.595.29-1.235.608-1.915.942-.693.3-1.426.613-2.185.938-.773.29-1.562.61-2.38.894-.822.275-1.642.59-2.486.84-.615.197-1.23.377-1.844.558a44.35 44.35 0 0 0 5.715-4.102c.15-.054.72-.263 1.593-.622a58.024 58.024 0 0 0 4.16-1.967c1.678-.92 3.616-2.053 5.495-3.728.465-.427.925-.892 1.35-1.432.112-.15.196-.255.324-.446l.243-.383c.162-.25.326-.513.488-.81.664-1.155 1.197-2.276 1.712-3.45 2.02-4.653 3.43-9.475 4.245-13.148.417-1.833.664-3.383.834-4.466.168-1.083.227-1.71.227-1.71s-.87 2.34-2.18 5.844l-1.06 2.812-1.21 3.116c-.862 2.15-1.79 4.438-2.853 6.64-.528 1.085-1.084 2.207-1.67 3.163-.637 1.07-1.195 1.825-2.018 2.56-1.56 1.416-3.355 2.49-4.904 3.37 3.204-3.622 5.94-7.823 8.102-12.536 6.072-13.24 6.325-27.965.628-36.64-2.32-3.533-4.914-6.623-7.77-9.31 1.127.82 2.22 1.66 3.244 2.51l1.506 1.346c.492.44.986.862 1.4 1.337.85.925 1.732 1.745 2.418 2.61.696.855 1.32 1.655 1.904 2.35.557.714.958 1.393 1.333 1.927.725 1.084 1.17 1.696 1.17 1.696s-.287-.688-.85-1.877c-.29-.59-.592-1.34-1.036-2.142-.465-.79-1.022-1.667-1.62-2.64-.603-.966-1.425-1.887-2.21-2.936-.388-.53-.862-1.004-1.34-1.5l-1.455-1.52c-.5-.515-1.08-.955-1.63-1.445-.563-.47-1.104-.99-1.71-1.435-1.225-.864-2.428-1.817-3.75-2.578-.653-.394-1.292-.815-1.955-1.186l-2.01-1.046c-.658-.364-1.344-.65-2.014-.955-.672-.294-1.323-.624-1.995-.862-1.334-.506-2.623-1-3.873-1.378-1.236-.425-2.436-.723-3.53-1.037-1.11-.256-2.124-.502-3.034-.667a55.12 55.12 0 0 0-2.36-.423c-.66-.11-1.042-.167-1.388-.213-.348-.044-.406-.068-.406-.068v.008c-4-.588-7.53-.894-11.57-.894-3.135 0-6.527.195-9.98.547a18 18 0 0 0-.406.02c-.27.018-.686.03-1.177.082-.99.09-2.407.23-4.088.482-.837.146-1.75.285-2.707.472-.954.192-1.97.36-3 .628a59.614 59.614 0 0 0-3.176.822c-1.08.29-2.153.668-3.233 1.016-1.082.345-2.13.806-3.176 1.195-1.03.44-2.03.908-2.992 1.364-.942.508-1.858.985-2.692 1.493-.817.538-1.588 1.047-2.302 1.516a70.064 70.064 0 0 0-1.812 1.463c-.55.415-.932.898-1.29 1.237l-1.064 1.122 1.26-.894c.408-.272.845-.67 1.452-.985a63.878 63.878 0 0 0 1.95-1.157l2.397-1.185 1.59-.672c-15.24 11.173-16.783 31.103-15.598 39.82.234 1.74.568 3.43.975 5.073l.017.715c.027.66.082 1.623.24 2.834.333 2.412.99 5.87 2.614 9.75 1.612 3.863 4.245 8.142 8.094 11.766 1.912 1.797 4.185 3.4 6.5 4.768a125.71 125.71 0 0 0 7.088 4.047c2.444 1.248 4.922 2.463 7.483 3.382 1.263.504 2.57.863 3.835 1.27 1.29.326 2.558.697 3.83.926l1.89.362c.623.11 1.25.174 1.862.262 1.23.187 2.44.28 3.617.356 2.354.137 4.58.14 6.627.062a45.874 45.874 0 0 0 2.933-.146c.93-.065 1.812-.11 2.637-.21 1.648-.194 3.086-.332 4.264-.504l3.694-.554-3.727.2c-1.184.076-2.625.093-4.272.153m-57.242-39.696c-.002-.038.02-.07.02-.07h-.014c-.412-2-.746-3.295-.98-5.022-1.368-10.055 1.062-35.76 25.836-43.35.46-.105.917-.205 1.368-.296 2.02-.455 3.924-.81 5.56-1.088 1.637-.26 3.207-.505 4.166-.623.95-.134 1.703-.21 1.703-.21 3-.345 6.443-.537 9.512-.537 3.95 0 7.543.286 11.024.84l-.055.02s.7.146 1.974.4c.627.12 1.374.287 2.246.493.874.19 1.838.476 2.902.748.272.08.564.163.85.243 9.94 3.23 17.72 9.363 23.838 18.68 5.334 8.123 5.02 22.07-.775 34.71-6.716 14.65-19.163 24.17-34.144 26.125a76.53 76.53 0 0 1-9.855.663c-1.17 0-2.343-.042-3.483-.104h-.03v-.007c-21.003-1.175-36.985-13.172-41.66-31.613m18.876 35.076c-.615-.346-1.26-.816-1.975-1.306-.712-.485-1.482-1.014-2.297-1.572-.783-.598-1.593-1.246-2.46-1.872-.84-.66-1.645-1.42-2.51-2.13-.844-.73-1.63-1.552-2.457-2.328-.76-.84-1.565-1.64-2.283-2.493-.68-.882-1.44-1.685-2.036-2.565-.642-.85-1.216-1.7-1.75-2.52-.283-.402-.51-.82-.742-1.218-.233-.396-.485-.77-.68-1.15-.397-.758-.783-1.45-1.076-2.087-.315-.63-.544-1.196-.756-1.66-.386-.937-.57-1.497-.57-1.497s.005.59.163 1.613c.1.504.192 1.133.398 1.822.167.706.43 1.478.733 2.316.322.828.678 1.733 1.153 2.637.235.456.48.923.728 1.4.262.47.574.922.87 1.397.572.965 1.287 1.873 2.005 2.805.74.908 1.548 1.79 2.36 2.662.88.8 1.727 1.643 2.626 2.392.925.717 1.83 1.43 2.74 2.07.926.61 1.85 1.162 2.71 1.7.877.51 1.758.903 2.545 1.303.788.4 1.52.74 2.2.976.67.262 1.26.465 1.742.64.97.34 1.525.517 1.525.517s-.49-.333-1.35-.884c-.43-.273-.95-.61-1.554-.97m88.76-32.174c-.086.23-.24.554-.434.964-.39.82-.993 1.963-1.75 3.312a273.65 273.65 0 0 1-2.672 4.565c-1.004 1.654-2.053 3.434-3.146 5.187-.523.87-1.065 1.792-1.603 2.612-.53.806-1.09 1.59-1.7 2.3-.612.713-1.232 1.386-1.85 2.004-.628.604-1.226 1.18-1.804 1.69a65.29 65.29 0 0 1-2.88 2.393c-.718.563-1.144.874-1.144.874s.504-.16 1.348-.532c.842-.374 2.03-.956 3.37-1.814a23.78 23.78 0 0 0 2.103-1.485c.717-.573 1.464-1.2 2.162-1.935.7-.73 1.412-1.515 2.01-2.42.604-.88 1.137-1.74 1.704-2.64.523-.906 1.05-1.812 1.566-2.704.516-.892.963-1.806 1.412-2.68.88-1.758 1.623-3.446 2.166-4.93.555-1.48.9-2.765 1.082-3.673.1-.45.137-.814.16-1.062.027-.243.04-.374.04-.374s-.047.122-.143.35M275.67 93.552c-.468.303-1.032.586-1.62.93-.605.322-1.225.725-1.92 1.078-.696.354-1.42.742-2.167 1.143-.767.365-1.56.737-2.35 1.14l-2.47 1.08c-.842.325-1.666.7-2.508.98-.837.3-1.652.62-2.465.86-1.607.542-3.14.94-4.46 1.278-1.325.324-2.444.542-3.233.69-.79.137-1.248.194-1.248.194s.457.063 1.267.094c.81.017 1.973.007 3.356-.146.69-.08 1.44-.17 2.226-.32.782-.155 1.614-.296 2.452-.535.848-.207 1.71-.47 2.58-.752.875-.275 1.73-.645 2.603-.966.858-.355 1.692-.77 2.524-1.147.815-.415 1.6-.86 2.36-1.278.748-.445 1.45-.91 2.118-1.344.677-.418 1.26-.904 1.815-1.317.55-.422 1.064-.794 1.476-1.184.417-.38.78-.71 1.08-.98l.92-.874s-.4.23-1.104.63l-1.236.746M142.888 55.868c-.126-.887-.217-1.66-.35-2.29a20.76 20.76 0 0 0-.307-1.456c-.08-.333-.126-.51-.126-.51s.04.732.04 2.005c.017.635-.014 1.41-.008 2.29-.05.884-.032 1.877-.115 2.96l-.096 1.684c-.053.58-.105 1.18-.16 1.797-.095 1.232-.28 2.522-.443 3.858-.222 1.326-.424 2.7-.7 4.082l-.47 2.076c-.13.702-.323 1.39-.528 2.075-.195.688-.392 1.376-.588 2.06-.205.683-.482 1.336-.705 2.004-.24.66-.46 1.326-.71 1.97-.283.628-.564 1.25-.842 1.86-.277.61-.516 1.23-.81 1.804l-.914 1.658c-.294.544-.58 1.073-.854 1.584-.29.502-.627.953-.922 1.406-.61.887-1.115 1.75-1.63 2.467l-1.435 1.778-1.234 1.584 1.47-1.365c.463-.444 1.023-.985 1.668-1.606.6-.66 1.242-1.44 1.94-2.296.343-.435.728-.868 1.073-1.354.325-.5.663-1.016 1.01-1.547.343-.535.692-1.085 1.054-1.647.34-.573.63-1.19.953-1.804l.946-1.89c.285-.655.54-1.33.813-2.006.265-.68.56-1.355.78-2.06l.636-2.122c.474-1.405.715-2.87 1.03-4.29.26-1.43.474-2.846.613-4.222.09-1.38.252-2.708.228-3.977.03-1.267.017-2.46-.056-3.562-.038-1.1-.162-2.106-.25-2.995m-5.347 10.814c.183-1.155.28-2.072.334-2.703l.052-.73c0-.024 0-.034.002-.055a40.047 40.047 0 0 0 .923-12.54c-.722-8.768-3.358-16.533-7.703-22.9a47.634 47.634 0 0 1 3.51 3.57c1.4 1.545 2.59 3.096 3.477 4.514.43.714.847 1.363 1.147 1.976.335.598.558 1.15.763 1.6.37.91.562 1.447.562 1.447l-.08-.4c-.06-.257-.11-.648-.246-1.128-.263-.96-.702-2.33-1.454-3.882-.758-1.546-1.8-3.278-3.086-5.01-1.305-1.717-2.828-3.442-4.445-5.073-.803-.82-1.647-1.6-2.5-2.34-.85-.74-1.698-1.458-2.54-2.125-1.668-1.36-3.33-2.486-4.767-3.43a41.237 41.237 0 0 0-3.6-2.126c-.448-.243-.83-.41-1.11-.53a2.873 2.873 0 0 0-.523-.168c-7.654-3.975-16.98-5.99-27.87-5.99-1.976 0-4.026.07-6.095.203-4.95.322-9.494 1.142-13.643 2.43-.07.015-.173.035-.333.07-.295.062-.687.16-1.194.297-.995.303-2.41.75-4.04 1.44-.806.362-1.683.75-2.582 1.213-.902.46-1.85.95-2.795 1.516-.96.547-1.896 1.192-2.86 1.828-.97.633-1.876 1.38-2.822 2.072a99.35 99.35 0 0 0-2.67 2.25c-.835.795-1.662 1.567-2.44 2.338-.738.808-1.46 1.578-2.123 2.33-.67.742-1.234 1.506-1.774 2.188-.53.692-1.04 1.304-1.413 1.91l-1.012 1.527c-.56.844-.858 1.34-.858 1.34s.423-.402 1.126-1.127l1.265-1.304c.48-.51 1.065-1.043 1.683-1.64.636-.58 1.26-1.264 2.005-1.904.71-.634 1.457-1.302 2.23-1.99-7.577 10.404-8.982 23.515-7.673 32.606.157 1.094.36 2.198.61 3.31-.286-.444-.573-.892-.857-1.343-1.283-2.078-2.5-4.21-3.27-5.892-.413-.83-.71-1.544-.92-2.046l-.323-.796s.088 1.253.53 3.096c.234.914.55 1.974.94 3.093.187.562.423 1.126.657 1.7.234.577.49 1.154.76 1.726a42.638 42.638 0 0 0 3.39 6.02c.524.777.995 1.4 1.302 1.825l.32.442s-.035.037-.048.01c-.02-.044-.1-.09-.1-.132v-.012c1 1.582 1.512 3.146 2.396 4.68a43.26 43.26 0 0 1-1.784-1.64c-.78-.733-1.548-1.544-2.335-2.393-.4-.422-.784-.862-1.156-1.324-.392-.45-.752-.925-1.104-1.415a20.85 20.85 0 0 1-1.902-3.08l-1.68-3.396-1.665-3.298a56.7 56.7 0 0 0-3.32-5.685 21.005 21.005 0 0 0-1.587-2.11 15.903 15.903 0 0 0-1.42-1.46c-.436-.363-.787-.633-1.052-.78-.255-.155-.39-.24-.39-.24l.346.3c.236.182.53.51.905.91.358.42.767.948 1.185 1.59.41.65.854 1.392 1.3 2.227.907 1.657 1.78 3.69 2.738 5.866l1.434 3.377c.492 1.157.943 2.328 1.48 3.516a22.916 22.916 0 0 0 1.967 3.44c.365.54.74 1.065 1.14 1.557.38.508.78.987 1.188 1.446.79.94 1.637 1.77 2.444 2.542a48.072 48.072 0 0 0 2.34 2.104c.736.638 1.443 1.18 2.076 1.653.63.476 1.192.874 1.658 1.2.463.328.842.563 1.102.733.027.016.037.022.06.038a41.974 41.974 0 0 0 3.21 3.497 75.118 75.118 0 0 1-2.667-1.72 51.234 51.234 0 0 1-3.15-2.314 92.06 92.06 0 0 1-3.05-2.525l-2.902-2.536-5.133-4.56a176.554 176.554 0 0 0-3.7-3.19 26.89 26.89 0 0 0-1.072-.865c-.25-.198-.398-.285-.398-.285s.116.122.303.38l.82 1.103a88.06 88.06 0 0 0 7.735 8.943c.89.904 1.828 1.823 2.813 2.73a94.712 94.712 0 0 0 3.033 2.7 52.292 52.292 0 0 0 6.593 4.65c1.1.66 2.174 1.278 3.22 1.813a58.74 58.74 0 0 0 2.967 1.465c1.87.844 3.462 1.47 4.62 1.866.287.1.55.18.793.243l.33.093a5.018 5.018 0 0 0 .654.118c3.513 1.635 7.44 2.912 11.806 3.73-.48.005-.953.012-1.45.008-.838-.007-1.695-.052-2.573-.077l-2.67-.203c-1.8-.21-3.66-.454-5.478-.926-.453-.12-.918-.215-1.37-.344l-1.338-.44-.634-.21-.684-.288-1.368-.58c-1.676-.825-3.386-1.738-5-2.778-1.627-1.006-3.172-2.112-4.667-3.187-1.482-1.108-2.916-2.18-4.276-3.194a105.648 105.648 0 0 0-3.916-2.815c-1.248-.83-2.406-1.585-3.492-2.163a17.67 17.67 0 0 0-1.53-.79c-.48-.225-.92-.436-1.34-.58l-1.106-.4c-.333-.08-.616-.15-.847-.204l-.698-.16s.223.11.642.32l.765.374.984.596c.374.204.763.483 1.186.78.427.29.887.602 1.357.976.95.718 2.013 1.55 3.142 2.503 1.152.92 2.356 1.986 3.68 3.058a148.67 148.67 0 0 0 4.193 3.372c1.494 1.134 3.045 2.306 4.71 3.395 1.637 1.126 3.418 2.107 5.288 3.05l1.36.6.68.298c.315.123.508.18.768.27l1.464.503c.49.148.984.26 1.475.384 1.964.5 3.923.75 5.814.964.946.082 1.877.144 2.788.2.91.025 1.8.068 2.667.073 1.73.01 3.365-.032 4.868-.136a90.49 90.49 0 0 0 7.234-.75l2.016-.335c.466-.09.715-.136.715-.136l-.003-.02c4.398-.102 8.615-.584 12.607-1.425a67.046 67.046 0 0 1-8.913 2.515c-2.45.514-5.01.906-7.627 1.152-1.308.126-2.63.225-3.96.284l-.997.043-.477.018-.51.005-2.036.013c-1.37.03-2.7-.018-4.028-.07-1.328-.024-2.655-.126-3.972-.236-2.635-.194-5.21-.553-7.682-.986-1.242-.198-2.438-.505-3.622-.743-1.17-.3-2.318-.577-3.427-.88-2.2-.66-4.28-1.306-6.145-2.056-3.76-1.43-6.744-3.005-8.812-4.16a81.413 81.413 0 0 1-2.36-1.423l-.835-.516.723.662c.464.447 1.2 1.027 2.134 1.78.48.36 1.012.76 1.59 1.192.605.397 1.246.853 1.96 1.29 1.426.878 3.075 1.823 4.956 2.683 1.867.895 3.966 1.694 6.22 2.434 1.13.352 2.302.69 3.506 1.005 1.215.264 2.446.596 3.718.818 2.537.483 5.18.89 7.876 1.128 1.347.133 2.707.257 4.086.303 1.378.074 2.76.14 4.11.13l2.037.017.51.005.54-.013 1.033-.027c1.374-.045 2.746-.115 4.098-.26a71.352 71.352 0 0 0 7.894-1.218c5.07-1.084 9.683-2.633 13.46-4.35 3.786-1.7 6.77-3.468 8.787-4.82a42.213 42.213 0 0 0 2.295-1.657l.592-.473.018-.016c3.634-2.19 6.88-4.808 9.648-7.837a38.802 38.802 0 0 0 4.103-5.378c-.037.094-.07.185-.108.28-1.42 3.528-3.55 7.49-6.647 11.09a37.43 37.43 0 0 1-11.65 9.07l-1.723.814-1.78.737c-1.17.453-2.37.89-3.575 1.268-2.407.77-4.83 1.37-7.19 1.897-4.73 1.03-9.232 1.616-13.102 2.04-3.874.396-7.125.566-9.403.678-2.278.084-3.585.102-3.585.102s1.296.18 3.582.305c2.284.15 5.557.243 9.488.1 3.93-.12 8.52-.528 13.38-1.434 2.432-.44 4.92-1.048 7.418-1.796a59.91 59.91 0 0 0 3.75-1.264l1.836-.73 1.827-.824a39.825 39.825 0 0 0 6.82-4.16 36.165 36.165 0 0 0 5.633-5.326c3.285-3.83 5.55-8.01 7.015-11.735a46.99 46.99 0 0 0 2.56-9.318m-10.125 12.23c-2.65 2.902-5.764 5.41-9.255 7.508l-.01-.012-.113.09c-8.032 4.79-18.082 7.4-29.315 7.49l-.56.002c-17.773 0-29.73-6.815-37.022-15.825l.01-.016-.057-.042a41.18 41.18 0 0 1-5.714-9.49c-.015-.037-.026-.073-.044-.112a2.187 2.187 0 0 1-.038-.08l-.007-.014a41.98 41.98 0 0 1-2.946-10.442c-1.313-9.127.208-22.488 8.417-32.61 3-3.698 6.65-6.697 10.918-9.003.815-.425 1.608-.79 2.336-1.126.774-.328 1.468-.667 2.105-.91.628-.267 1.187-.455 1.644-.627l.98-.33c.104-.035.21-.066.314-.1.08-.023.133-.04.133-.04 4.014-1.253 8.42-2.05 13.23-2.362a92.17 92.17 0 0 1 5.964-.198c12.623 0 21.975 2.697 28.91 6.775.19.11.39.234.604.37.468.284.93.574 1.374.874l.264.172c13.556 9.253 16.668 24.052 17.323 31.968.864 10.503-2.49 20.48-9.445 28.092M32.77 88.116c-.575-.545-1.163-1.226-1.842-1.92-.645-.73-1.356-1.507-2.063-2.368-.735-.836-1.443-1.772-2.192-2.727-.765-.94-1.462-1.985-2.22-3.005-.715-1.055-1.462-2.11-2.157-3.2-.656-1.115-1.405-2.174-2.033-3.283-.617-1.115-1.283-2.18-1.873-3.244a121.9 121.9 0 0 0-1.675-3.084l-1.428-2.81c-.448-.87-.868-1.666-1.2-2.39-.338-.722-.647-1.346-.904-1.86l-.828-1.612s.152.64.457 1.752c.152.556.34 1.23.57 2 .207.78.516 1.632.865 2.558.34.93.71 1.94 1.145 2.987.454 1.04.957 2.127 1.484 3.25.53 1.122 1.163 2.24 1.79 3.382.63 1.142 1.347 2.26 2.055 3.378.732 1.106 1.515 2.18 2.266 3.245.83 1.012 1.592 2.044 2.423 2.972a45.83 45.83 0 0 0 2.446 2.62c.78.83 1.617 1.52 2.344 2.19.762.64 1.46 1.222 2.118 1.694.637.494 1.233.872 1.713 1.192.982.617 1.575.904 1.575.904s-.515-.413-1.356-1.19a53.31 53.31 0 0 1-1.48-1.43M218.635 66.58c1.494 2.332 3.354 4.39 5.403 6.173 2.074 1.77 4.412 3.133 6.8 4.262 1.24.45 2.432 1.025 3.698 1.318.625.17 1.244.355 1.87.513l1.92.34.954.166c.312.045.606.055.91.084.6.05 1.197.1 1.79.146l.507.038.465-.01.926-.025c.613-.02 1.226-.024 1.832-.058 4.854-.422 9.312-2.104 12.835-4.492 3.555-2.372 6.138-5.408 7.938-8.326 1.803-2.94 2.817-5.78 3.48-8.142.294-1.192.568-2.25.68-3.226.148-.962.285-1.787.297-2.404l.143-1.938.003-.05s-.01-.706-.033-2.026c.02-.66-.095-1.47-.202-2.424-.067-.96-.325-2.034-.585-3.243-.613-2.386-1.618-5.26-3.47-8.188-1.835-2.924-4.54-5.872-8.132-8.172-3.598-2.315-7.937-3.942-12.87-4.518-4.67-.547-10.01-.005-14.92 2-2.41 1.103-4.8 2.43-6.84 4.253-2.04 1.804-3.917 3.86-5.35 6.233-1.424 2.366-2.603 4.906-3.36 7.59-.73 2.646-1.125 5.576-1.172 8.22.005 2.865.347 5.608 1.087 8.318.805 2.672 1.928 5.237 3.398 7.585m-1.417-23.576c.73-2.5 1.855-4.854 3.24-7 1.38-2.16 3.156-3.998 5.058-5.593 1.904-1.613 4.112-2.748 6.32-3.69 1.142-.387 2.245-.85 3.418-1.067.58-.124 1.144-.304 1.727-.382l1.74-.225c.29-.034.576-.083.865-.106l.867-.023c.578-.016 1.15-.03 1.72-.047l.215.12.054.123h.033l.07-.122.444-.036.883.02c.584.04 1.178.047 1.744.098 1.072.198 2.133.277 3.176.542 1.035.292 2.09.47 3.05.88.49.178.975.353 1.455.53.476.187.92.435 1.372.645.447.228.91.414 1.33.67.418.26.832.515 1.242.768 3.25 2.074 5.718 4.706 7.417 7.332 1.71 2.635 2.655 5.24 3.246 7.412.246 1.1.502 2.08.57 2.96.107.87.225 1.61.21 2.22.037 1.192.056 1.834.056 1.856l-.122 1.89c-.02.654-.158 1.37-.297 2.223-.102.855-.37 1.84-.653 2.94-.633 2.175-1.594 4.79-3.27 7.468-1.68 2.66-4.06 5.39-7.272 7.526-3.192 2.144-7.203 3.646-11.623 4.022-1.09.023-2.274.088-3.33.052l-1.795-.116c-.297-.023-.608-.03-.896-.067l-.845-.14a513.34 513.34 0 0 0-1.705-.272l-1.723-.442c-1.174-.244-2.267-.76-3.416-1.15-2.203-1.002-4.374-2.21-6.304-3.804-1.906-1.61-3.658-3.463-5.084-5.588-1.39-2.145-2.515-4.49-3.267-6.98-.705-2.485-1.04-5.142-1.067-7.682.02-2.77.454-5.217 1.15-7.762m5.474 11.84a7.506 7.506 0 0 1-1.293-2.17c-.23-.58-.296-.937-.296-.937s.002.36.12.987c.126.62.363 1.52.935 2.495a7.095 7.095 0 0 0 2.827 2.694 8.48 8.48 0 0 0 2.13.772c.765.147 1.516.305 2.333.223l1.064-.18 1.123-.255c.72-.203 1.415-.43 2.06-.72 1.302-.56 2.386-1.29 3.255-1.924.873-.637 1.594-1.135 2.17-1.37a4.05 4.05 0 0 1 .684-.226l.25-.064-.258.018c-.172 0-.417.036-.73.102-.63.132-1.486.503-2.447.986-.392.195-.818.392-1.26.58 2.437-1.416 4.876-3.14 6.897-3.403 3.57-.465 7.775 4.983 12.744 5.294 2.253.142 4.053-.646 5.368-1.74a.593.593 0 0 1-.025.036c-.436.57-.872 1.032-1.184 1.358l-.493.524s.26-.056.697-.204c.215-.08.486-.17.775-.32.29-.144.627-.308.956-.553a6.332 6.332 0 0 0 1.023-.87c.315-.362.66-.757.913-1.23.267-.466.48-.98.656-1.51.145-.51.274-1.156.308-1.657l.033-.38c.02-.19 0-.3.003-.456a4.948 4.948 0 0 0-.06-.855 6.182 6.182 0 0 0-.424-1.6 7.17 7.17 0 0 0-1.52-2.384 6.744 6.744 0 0 0-1.517-1.22c-.403-.238-.66-.325-.66-.325s.142.23.365.62c.146.257.328.592.52.973-.854-.828-2.027-1.47-3.593-1.732.66-.03 1.24-.028 1.674-.028l.86-.004s-.068-.04-.193-.118c-.127-.075-.312-.2-.562-.315a8.755 8.755 0 0 0-2.18-.77c-.474-.116-1.007-.16-1.575-.182-.57-.025-1.172.06-1.79.16a9.097 9.097 0 0 0-1.83.573c-.582.245-1.207.585-1.72.925l-.744.492c-.223.16-.473.292-.713.435-.485.277-1 .5-1.49.742-1 .443-1.98.816-2.83 1.115-.85.312-1.574.548-2.083.72-.513.175-.806.272-.806.272s.31.037.854.064c.544.02 1.32.012 2.254-.07.463-.05.965-.12 1.498-.206h.008a9.137 9.137 0 0 1-3.578.834c-2.698.076-4.414-1.155-6.188-2.422.063.03.132.062.194.093.477.24.94.44 1.355.613.414.176.802.283 1.115.356.635.145 1.008.102 1.002.122l-.233-.115a5.097 5.097 0 0 1-.627-.354c-.264-.156-.56-.383-.898-.64-.337-.27-.718-.575-1.13-.91-.428-.33-.893-.71-1.44-1.047-.552-.33-1.153-.684-1.83-.937-.667-.27-1.39-.456-2.13-.61-.373-.07-.768-.1-1.154-.146l-1.07-.055c-.825-.016-1.56.048-2.336.205a7.89 7.89 0 0 0-2.166.79c-1.342.728-2.285 1.882-2.766 2.938a6.54 6.54 0 0 0-.62 2.667c-.015.652.075 1.014.075 1.014s.104-.356.344-.926a9.574 9.574 0 0 1 1.157-2.002c-.532 1.116-.793 2.4-.767 3.75.042 2.138 1.217 4.276 3.625 5.5-.07-.02-.143-.028-.21-.05a6.097 6.097 0 0 1-2.81-1.853m-118.04-15.317c-.074-.952-.337-2.017-.602-3.215-.625-2.362-1.64-5.205-3.49-8.092a26.708 26.708 0 0 0-8.06-8.065c-3.555-2.293-7.862-3.89-12.726-4.507-4.65-.563-9.94-.15-14.88 1.78-2.43 1.047-4.854 2.32-6.944 4.108-2.084 1.77-4.018 3.805-5.516 6.17-1.496 2.357-2.722 4.918-3.525 7.63-.214.675-.345 1.37-.52 2.056-.078.347-.173.684-.236 1.038l-.157 1.074c-.084.703-.25 1.468-.26 2.124l-.11 2.024c.01 2.956.375 5.717 1.14 8.48.82 2.718 2.01 5.308 3.52 7.675 1.542 2.354 3.47 4.398 5.564 6.174 2.12 1.758 4.5 3.096 6.92 4.196 1.253.437 2.458.994 3.734 1.27.63.164 1.253.338 1.882.487l1.933.313.957.152c.313.04.607.046.91.07l1.795.12c.702.07 1.263-.013 1.896-.012.615-.022 1.225-.03 1.83-.067 4.85-.446 9.29-2.15 12.79-4.547 3.527-2.385 6.094-5.41 7.883-8.32 1.79-2.93 2.794-5.763 3.448-8.112.292-1.187.564-2.242.673-3.21.145-.955.28-1.773.29-2.393.08-1.266.12-1.94.12-1.94l.003-.043-.046-2.013c.015-.656-.102-1.458-.216-2.404m-1.88 6.262c-.022.65-.163 1.373-.305 2.233-.105.862-.377 1.85-.663 2.956-.64 2.184-1.61 4.81-3.303 7.495-1.69 2.67-4.09 5.41-7.33 7.532-3.214 2.135-7.243 3.618-11.667 3.97l-1.676.035c-.543-.008-1.17.062-1.654-.007l-1.793-.144c-.298-.028-.61-.04-.897-.08l-.84-.154-1.695-.3c-.567-.155-1.137-.31-1.71-.468-1.162-.262-2.243-.794-3.378-1.198-2.174-1.03-4.304-2.262-6.186-3.87-1.863-1.617-3.545-3.48-4.926-5.587a27.934 27.934 0 0 1-3.14-6.89c-.68-2.434-.993-5.07-1.015-7.52l.078-2.026c.004-.698.146-1.262.208-1.9l.118-.93c.05-.313.134-.626.2-.94.15-.622.253-1.257.437-1.87.687-2.47 1.762-4.804 3.076-6.96 1.315-2.165 3.034-4.024 4.888-5.654 1.857-1.65 4.028-2.84 6.218-3.84 4.497-1.832 9.247-2.342 13.816-1.88 4.375.45 8.515 1.964 11.772 4.06 3.292 2.097 5.792 4.768 7.488 7.438 1.713 2.677 2.647 5.315 3.226 7.51.243 1.11.49 2.1.555 2.986.104.88.216 1.625.198 2.238l.044 1.863c-.012.15-.06.803-.145 1.903m-7.09 1.56c-.106.09-.222.187-.338.28.754-1.238 1.12-2.747 1.09-4.345-.03-1.595-.695-3.19-2.03-4.406.073.046.157.084.226.134a6.153 6.153 0 0 1 1.846 1.954c.344.574.457.952.457.952s-.032-.39-.26-1.044a6.633 6.633 0 0 0-1.528-2.462c-.417-.458-.96-.863-1.57-1.243-.306-.19-.644-.334-.984-.51a28.39 28.39 0 0 0-1.088-.397c-.38-.095-.77-.19-1.16-.286-.396-.053-.8-.143-1.21-.152-.78.043-1.602.13-2.403.264-1.6.27-3.18.788-4.503 1.533-1.334.73-2.38 1.642-3.29 2.334-.898.71-1.735 1.16-2.38 1.352-.64.195-1.033.225-1.033.225l.28-.002c.182-.002.45-.017.79-.072.68-.097 1.634-.44 2.653-1.034 1.022-.584 2.147-1.318 3.446-1.815.436-.174.896-.31 1.365-.427-2.73 1.474-5.523 3.604-7.79 3.9-1.175.152-2.42-.338-3.733-1.07.513.104.955.156 1.285.183l.663.047s-.168-.187-.5-.45c-.327-.27-.808-.613-1.373-1.002-.56-.397-1.216-.828-1.904-1.292l-1.052-.713c-.35-.23-.707-.497-1.13-.76a7.086 7.086 0 0 0-1.37-.687 8.168 8.168 0 0 0-1.39-.406 10 10 0 0 0-2.486-.185c-1.448.063-2.357.434-2.357.434s.905.234 2.163.604a7.474 7.474 0 0 0-4.71 1.567c.013-.018.026-.04.04-.058.428-.555.843-1.007 1.126-1.337l.444-.527s-.24.075-.652.235c-.407.166-.984.42-1.632.85a7.2 7.2 0 0 0-1.933 1.91c-.267.434-.52.906-.705 1.41-.21.505-.318 1.024-.41 1.59-.054.295-.058.51-.083.758l-.015.182c-.01.13-.002.152-.004.233l.007.402c.015.534.088 1.063.23 1.557.14.49.302.96.524 1.37.23.404.45.78.72 1.08.513.617 1.044 1.017 1.442 1.24.394.23.65.296.65.296s-.315-.51-.666-1.31c.82.925 1.974 1.676 3.57 2.016-.093-.003-.192-.012-.28-.01-.39 0-.727-.122-1.006-.122h-.9s.07.16.203.24c.134.078.326.32.586.443a9.4 9.4 0 0 0 2.268.822 9.29 9.29 0 0 0 1.65.19 8.615 8.615 0 0 0 1.884-.194c.65-.137 1.293-.386 1.912-.688.606-.295 1.247-.73 1.715-1.098.527-.387.954-.724 1.47-1.027.5-.297 1.01-.562 1.52-.804 1.022-.46 2.042-.792 2.945-.997 1.806-.42 3.115-.452 3.115-.452s-.302-.12-.86-.258c-.555-.13-1.37-.255-2.364-.26-.31.002-.647.02-.992.05a8.898 8.898 0 0 1 2.43-.408c2.81-.08 4.553 1.258 6.41 2.578-.23-.112-.47-.224-.686-.335-.886-.445-1.693-.777-2.28-.896-.29-.07-.525-.082-.683-.093l-.24-.02s.075.04.216.108c.14.065.34.17.577.328.244.136.515.348.823.587.312.232.643.53 1.022.848.75.632 1.703 1.386 2.908 1.955.595.298 1.258.496 1.935.68.343.066.683.15 1.038.2.357.033.732.074 1.078.093l.98.02c.424-.022.728-.04 1.093-.074.7-.092 1.383-.25 2.024-.484a8.252 8.252 0 0 0 1.742-.904c.498-.38.946-.763 1.29-1.177.34-.42.63-.81.817-1.2a5.39 5.39 0 0 0 .422-1.016c.18-.578.18-.927.18-.927s-.204.28-.586.7c-.2.204-.428.456-.72.705"/></svg>