<svg id="Layer_1" xmlns="http://www.w3.org/2000/svg" width="305.834" height="112" viewBox="-152 341 305.8 112"><style>.beast-eye-12-st-0{fill:#fcdca4}.beast-eye-12-st-1{fill:#d72050}.beast-eye-12-st-2{fill:#6b8e7b}.beast-eye-12-st-3{fill:#f0a732}.beast-eye-12-st-4{fill:#0b3746}.beast-eye-12-st-5{fill:#d72051}.beast-eye-12-st-6{fill:none;stroke:#0b3746;stroke-miterlimit:10}</style><path class="beast-eye-12-st-0" d="M151.8 357h2v-16H-149l-2 22.6.5-4c-1.2 10.2-.9 27.9-.7 34.3-1 8.4-.1 15.7 0 22.5-1.7 15.5 1.8 36.3 1.8 27.6 0-11.9 5.1-8.5 8.4-23 2-8.6-.3-13.8-2.4-16.5 1.2-2 2.4-4.7 3.4-9 2.3-9.9-1.1-15.2-3.4-17.6 1.5-2.1 3.1-4.9 4.3-10.4 1-4.4.9-7.5.3-10.5h283.5c-2.1 3-4.2 7.8-2.3 16.3 1.5 6.4 3.4 9.3 5.2 11.6-2.2 1.8-6.7 7.1-4.2 18.4.7 3.1 1.5 5.3 2.4 7.1-2.1 2.8-4.3 7.9-2.4 16.5l7.8 23c0 8.5 1-13.4-.6-28.9.3 1.4.6 3 .6 5.2 0 8.8 3.2-15.4 1.4-30.9.3-7.8 2.1-30.3-.8-38.3z"/><path class="beast-eye-12-st-1" d="M-150.3 348.2h302v2.7h-302z"/><path class="beast-eye-12-st-2" d="M-35.3 393.2c-.4.3-.5 4.2-.7 5-2.1 7.6-8.5 13.7-15 17.7-5.6 3.4-12 5.8-18.3 7.6-15.5 4.6-40.5 4.8-47.9-12.9 0-.1 41.1 1.8 81.9-17.4z"/><path class="beast-eye-12-st-0" d="M-130.1 405l96.1-13.2s-43.6 41.3-96.1 13.2z"/><path class="beast-eye-12-st-3" d="M-54.9 394.9s-9.4 19.8-39.8 19.9c-30.4.1 0 0 0 0h3.5l6.2-.2s24.5-.3 51.1-22.7c-8.1 1.7-21 3-21 3"/><path class="beast-eye-12-st-4" d="M-127.1 404.6c.8.1 1.6-.1 2.3-.2 15.1-2.1 30.2-4.3 45.2-6.3 7.9-1.1 15.9-2.2 23.8-3.3 7.6-1.1 16.5-1.1 23.8-3.3-5.9 1.8-18.1-1.1-21.5-6.4-1-1.5-1.7-3.2-2.9-4.7-6.1-7.4-15.1-5.4-22.6-2.3-4.2 1.7-8.7-.8-12.9-1.3-11.2-1.4-18.2 9.5-29.3 8.4-6.7-.6-12 1.3-14.6 7.8-2.4 6.3 3 11.1 8.7 11.6z"/><circle class="beast-eye-12-st-4" cx="-61.6" cy="447" r="3"/><path class="beast-eye-12-st-4" d="M-54.7 394.6s-6.9 18.4-35.6 20c9.2-.5 21.3-4 25.1-13.5.2-.5.1-5 0-5l10.5-1.5z"/><circle class="beast-eye-12-st-4" cx="-83.5" cy="373.1" r="1.8"/><circle class="beast-eye-12-st-4" cx="-116.1" cy="378.6" r="1.8"/><circle class="beast-eye-12-st-4" cx="-78.9" cy="420.9" r="3"/><path class="beast-eye-12-st-4" d="M-59.4 395.4c0 4.8-3.9 7.9-8.8 8.6-4.8.7-9.3-2.3-10.7-6.9"/><circle class="beast-eye-12-st-4" cx="-81.6" cy="436" r=".6"/><circle class="beast-eye-12-st-0" cx="-73.9" cy="399.4" r="1.8"/><path class="beast-eye-12-st-3" d="M-42.8 393.7l-71.4 9.4-4-3.6c-1.1-1-.2-2.8 1.2-2.6l5.8 1-1.1-2.4 8.9 2.6s-1.3-.1-2.1-2.5 2.3 3.7 5.8 3.5c3.6-.3 56.9-5.4 56.9-5.4zM-126.7 406.2s10.9 6.2 19.9 7.2c0 0-11.6-.3-21.3 5.2 0 0 1.6-3.9 3.6-4.1 0 0-3.7-2.1-6.7.7 0 0 2.9-3.1 6.8-2.2 0 0-4-9.4-19.1-4.8 0 0 10.2-3.8 17.9.2l-1.1-2.2z"/><path class="beast-eye-12-st-4" d="M-117.3 411.2s2.1-2.1 5.5-.4c0 0 2.3 2.2 7.2 2.2s3.3-1.6 8.3.2c5 1.8 7.7 2.3 12.5 1.5 0 0-10.8 4-33.5-3.5z"/><path class="beast-eye-12-st-3" d="M-109.8 413s-16.2-5.8-17.6-34.7c0 0-2.1 23.3 8.8 32.9l14.6 3.5-5.8-1.7z"/><path class="beast-eye-12-st-4" d="M-68.1 342.7s-10 42-62.2 51c-.1 0 46.7-8.4 62.2-51zM-40.7 392.7s0 .2.1.6l-.1-.2s-13.6 20.9-54.9 22.2c0 0 9.4 6.4 54-13.6-.1.3-.1.5-.2.8-.3.7-.7 1.4-1.1 2.1-16.3 19.7-41.2 15.9-42.1 15.8 20.2 3.6 32.8-4.2 40.2-12.4-1.5 2.5-3.1 4.8-4.8 7-17.3 20.2-43.1 21.9-43.1 21.9 13.3-.8 23.5-4.6 31.2-9.7-18 14.9-38.4 18.8-39.3 19 26.4-4.6 42-17.6 51-29.3 2.1-2.5 3.8-5 5.3-7.3-3.9 7.6-11.5 17-26.2 26 0 0 30.6-17.6 37.1-43.7l-7.1.8zM-100.9 446.2zM-85 420.4zM146.6 399.5s-43.1-1.8-62-51.4c.1 0 17.3 44.3 62 51.4z"/><path class="beast-eye-12-st-2" d="M41.2 381.9c.4.3.1 4.2.3 5 1.5 7.7 7.3 14.4 13.5 18.9 5.3 3.9 11.5 6.8 17.6 9.1 15.1 5.9 39.9 8.2 48.8-8.9 0 0-41.2-1.6-80.2-24.1z"/><path class="beast-eye-12-st-0" d="M134.7 401.6L40 380.4s40 44.8 94.7 21.2z"/><path class="beast-eye-12-st-3" d="M60.6 385.2s7.7 20.5 38 23.2l-3.5-.3-6.2-.7s-24.4-2.4-49-26.9c7.9 2.3 20.7 4.7 20.7 4.7"/><path class="beast-eye-12-st-4" d="M131.7 400.8c-.8 0-1.6-.2-2.3-.3-14.9-3.3-29.7-6.7-44.6-10.1-7.8-1.8-15.6-3.5-23.5-5.3-7.5-1.7-16.4-2.5-23.4-5.3 5.7 2.3 18.1.4 22-4.6 1.1-1.5 2-3.1 3.3-4.4 6.7-6.9 15.5-4.1 22.7-.4 4 2.1 8.7-.1 12.9-.3 11.3-.5 17.3 11 28.5 10.8 6.7-.1 11.8 2.3 13.9 9 2.1 6.6-3.7 11-9.5 10.9z"/><circle class="beast-eye-12-st-4" cx="38.8" cy="421.9" r="3"/><circle class="beast-eye-12-st-4" cx="71.8" cy="351.2" r="2.3"/><circle class="beast-eye-12-st-4" cx="62.7" cy="429.1" r="2.3"/><circle class="beast-eye-12-st-4" cx="-121" cy="349.8" r="2.3"/><circle class="beast-eye-12-st-4" cx="-143" cy="432.8" r="2.3"/><path class="beast-eye-12-st-4" d="M60.4 385s5.3 18.9 33.8 22.8c-9.1-1.3-20.9-5.7-23.9-15.5-.1-.5.3-5 .4-5L60.4 385z"/><circle class="beast-eye-12-st-4" cx="90.9" cy="365.8" r="1.8"/><circle class="beast-eye-12-st-4" cx="122.9" cy="374" r="1.8"/><circle class="beast-eye-12-st-4" cx="82.4" cy="413.1" r="3"/><path class="beast-eye-12-st-4" d="M84.5 390.5c-.4 4.8 3.2 8.2 8 9.3 4.8 1.1 9.5-1.6 11.2-6"/><circle class="beast-eye-12-st-4" cx="98.8" cy="431.1" r=".6"/><circle class="beast-eye-12-st-0" cx="87.8" cy="392.9" r="1.8"/><path class="beast-eye-12-st-3" d="M48.7 382.9l70.4 15.3 4.3-3.3c1.2-.9.5-2.8-1-2.7l-5.9.5 1.3-2.3-9.1 1.8s1.3 0 2.3-2.3-2.6 3.5-6.1 3c-3.6-.4-56.2-10-56.2-10zM131.2 402.5s-11.4 5.2-20.4 5.6c0 0 11.6.7 20.8 7 0 0-1.3-4.1-3.2-4.4 0 0 3.9-1.8 6.6 1.3 0 0-2.7-3.3-6.6-2.8 0 0 4.8-9 19.4-3.2 0 0-9.8-4.7-17.8-1.3l1.2-2.2z"/><path class="beast-eye-12-st-4" d="M100.3 406.9c-5.1 1.4-7.9 1.7-12.6.4 0 0 10.4 4.9 33.6-.7 0 0-1.9-2.3-5.4-.9 0 0-2.5 2-7.4 1.6"/><path class="beast-eye-12-st-3" d="M113.8 407.8s16.6-4.5 20.5-33.1c0 0 .2 23.3-11.5 32l-14.9 2.3 5.9-1.2z"/><path class="beast-eye-12-st-4" d="M49 398.6c1.3 2.6 2.8 5.3 4.8 8.1 8 12.4 22.4 26.7 48.4 33.5-.9-.3-20.9-5.9-37.6-22.2 7.3 5.7 17.1 10.3 30.3 12.2-1-.2-25.9-4.3-41.1-25.4-1.5-2.3-2.9-4.8-4.2-7.4 6.7 8.8 18.5 17.6 38.8 15.8-2.6.2-26.4.9-40.4-19.3-.3-.7-.6-1.5-.9-2.2 0-.2-.1-.5-.1-.7 42.5 23.6 52.4 18 52.4 18-41-4.7-52.8-26.7-52.8-26.7l-.1.2c.1-.4.1-.6.1-.6l-6.8-1.5c4.3 26.6 33.4 46.7 33.4 46.7-14.2-10.4-21-20.5-24.2-28.5zM102.2 440.1c0 .1 0 .1 0 0 0 .1 0 0 0 0zM94.8 430.1zM88.2 413.1h.3-.3zM-35.5 391.8s26.6.5 25-31.5c0-.1-2.8 26.9-25 31.5z"/><path class="beast-eye-12-st-4" d="M15.3 355.5s-.5 26.6 31.5 25c0 0-27-2.8-31.5-25zM2 400.1c-.6 0-1-.4-1-1v-53.3c0-.6.4-1 1-1s1 .4 1 1v53.3c0 .5-.4 1-1 1zM138.5 422.1c-1.6-3.4-6.5-5.1-10-5.2-3.6-.1-4 4.1-4.3 7.2-1.9-1.8-4.2-3.2-6.7-4-2.8-.9-6.3-1.4-8.8.5-3.6 2.7-3 7.3-.1 9.7 0 .3.2.6.6.7 3.5 1.3 6.1 4 8.7 6.6 2.5 2.6 4.9 5.4 7.3 8.2.4.4 1 .2 1.3-.2 2.9-4.4 6.2-8.3 9.3-12.5 2-3 4.4-7.4 2.7-11zm-1.6 5.3c-1.1 3.3-3.5 6-5.7 8.7-2 2.5-3.8 5.1-5.6 7.7-2.5-2.9-5-5.8-7.7-8.5-1.6-1.6-3.2-3.1-5.1-4.3 0-.4-.3-.8-.8-.9-2.4-.3-4.3-2.4-4.1-4.9.2-2.7 2.6-4.2 5.2-4.2 4.3.1 8.4 2.4 11.2 5.5.4.4 1.3.2 1.4-.4.3-1.7.5-3.5.8-5.3.2-1.3.3-2.1 2-2.4.8-.1 1.7.2 2.5.4 1.7.4 3.6 1.2 4.9 2.5 1.7 1.7 1.7 3.9 1 6.1z"/><path class="beast-eye-12-st-4" d="M121.7 427.6c-.1-.3-.5-.1-.4.1.4 1.2.7 2.4.6 3.7-.5-.7-1.1-1.4-1.7-1.9-.2-.2-.5-.4-.8-.2-.3.2-.2.6-.2.8v2.5c-.8-1-1.6-2-2.4-3.1-.2-.2-.5.1-.3.3.9 1.2 1.9 2.3 2.8 3.5.1.1.4 0 .4-.1v-1.5c0-.4-.1-1.5.2-1.7.3-.2.3 0 .5.3.2.2.3.4.5.6.4.4.7.9 1.1 1.3.1.1.3.1.3-.1.2-1.7-.2-3.1-.6-4.5zM124 429h1v5h-1zM125 427.1c-1 0-1 .4 0 .4v-.4zM133.4 432.4c-1.4-.4-3.1-.9-4.5-.3-.6.2-.9.6-.9 1.1v-2.3s.6.1 1.1.2c.3.1 0-.3-.3-.4-.5-.2-.8-.2-1.8-.2v-1c0-.2.1-1.1.3-1.2.3-.3 1.2 0 1.5.1.7.2 1.5.4 2.2.7.2.1.4-.3.1-.4-1-.4-2-.8-3-1-.4-.1-.8-.1-1 .3-.1.2-.1.6-.1.9v1.7s-.4 0-.6.1c-.3 0-.1.4.1.4s.4-.1.6-.1v3.2h.1c-.1 0-.1.7-.1 1 0 .9.1 2.4 1.3 2.5 1.3 0 1.3-1.7 1.4-2.6 0-.3-.4-.3-.4 0 0 .4 0 1.2-.2 1.5-.4.2-.9.4-1.3.5-.3-.3-.4-.7-.4-1.2 0-.7 0-1.5.3-2.2.2-.4.5-.7.8-.9 0 .1 0 .3.2.3 1.5 0 3 0 4.5-.1.3-.2.4-.5.1-.6zm-1.6 0h-2.9c.9-.3 2-.2 2.9 0z"/><g><path class="beast-eye-12-st-4" d="M-109.7 445.8s-3.9-.2-5.5-4.6c0 0 1.5 4 5.5 4.6z"/><path class="beast-eye-12-st-4" d="M-109.1 446.5s-3.3-2-2.6-6.7c0 0-.6 4.2 2.6 6.7z"/><circle class="beast-eye-12-st-1" cx="-109.2" cy="446.6" r="1.7"/></g><g><path class="beast-eye-12-st-5" d="M-136 346.2v16.5c0 .7 1 .7 1 0v-16.5c0-.6-1-.6-1 0z"/></g><g><path class="beast-eye-12-st-5" d="M-132.5 346.2c0 6.4-.7 13.3 2.1 19.3.3.6 1.2.1.9-.5-2.7-5.7-2-12.6-1.9-18.7-.1-.7-1.1-.7-1.1-.1z"/></g><path class="beast-eye-12-st-6" d="M-113.5 419.8s-7 8-2.5 11 4-4.6 2.5-11zM-122 420.4s-8.9 5.8-5.4 9.9c3.5 4.1 5.1-3.3 5.4-9.9z"/></svg>