<svg id="Layer_1" xmlns="http://www.w3.org/2000/svg" width="305.834" height="112" viewBox="-152 341 305.8 112"><style>.beast-eye-13-st-0{fill:#fcdca4}.beast-eye-13-st-1{fill:#f0a732}</style><path class="beast-eye-13-st-0" d="M109 395.6c-.7-2.6-2.9-3.7-5.1-5-3-1.8-6.6-5.2-10.5-4.9-5.6.4-13.2 3.2-16.2 8.5-2 .7-2.4 3.1-.6 4.5 5.9 4.5 9.8 12.5 18.6 10.3 3.3-.8 6.1-3.5 8.5-5.8 1.6-1.6 6-5 5.3-7.6z"/><path class="beast-eye-13-st-1" d="M121.2 398.5c2.4-1 .3-4.5-2-3.5-4.9 2.1-10.3-2.9-14-5.6-3.6-2.7-7.2-5.3-11.8-5.8-10.1-1.1-14.9 12.3-24.5 11.8-2.6-.1-2.6 3.9 0 4 1.9.1 3.7-.3 5.3-1.1.2.2.4.3.6.5 6.8 3 9.3 10.3 17.3 11 8.9.7 11.7-6.9 17.7-11.3.3-.2.5-.5.6-.7 3.3 1.8 6.7 2.5 10.8.7zm-29 7.3c-5.6.1-9.3-6.8-14-9.8 5.4-3.9 10.1-9.7 16.8-8.1 4.6 1 8.3 4.7 12.3 7.6-5.2 4.2-7.5 10.2-15.1 10.3z"/><path class="beast-eye-13-st-1" d="M110.8 433.7c-10.2 1.7-22.6-.8-30.7-7.5-4.1-3.4-6.1-7.9-7.1-13-.4-2-.4-4.5-1-6.6 2 2.6 3.4 5.5 5.3 8.3 2.1 3.2 5 5.4 8.6 6.9 7.5 3.1 16.6 4.6 24.6 3 .6-.1.4-1.1-.3-1-8 1.6-17.2.1-24.5-3.2-4.1-1.8-6.7-4.8-9-8.6-1.7-2.8-3.3-5.7-5.5-8 5.9 2.5 9.1 9.2 15.2 11.6 7.9 3.2 18.5 1.5 26.2-1.5.6-.2.3-1.2-.3-1-4.1 1.6-8.4 2.6-12.8 2.9-4.5.4-9.8.2-13.9-1.9-5.9-3.1-9.1-9.9-15.7-11.7-.4-.1-.6.2-.6.5-.1.1-.1.3-.1.4.1.3.3.6.5.8.1.1.2.2.4.2 1 1.4 1.4 3.3 1.6 4.9.3 2.6.6 5.1 1.3 7.6 1.3 4.5 4.1 8.4 7.9 11.2 8.4 6.1 20.2 8.4 30.4 6.7.4-.2.1-1.1-.5-1zM99.5 366.4c-3 .1-6 .7-8.8 1.7-5.3 1.8-9.7 5.7-13.4 9.9-1.8 2-3.2 4.3-4.6 6.6-1.7 2.6-3.5 5.1-4.6 7.9-.1.1 0 .2 0 .3 0 .2.1.4.3.4 4.3 1.3 8.4-2.1 11.5-4.7 2.1-1.7 4-3.6 6.2-5.1 3.5-2.3 8.4-2.5 12.3-1.4 6.4 1.8 10.4 8.6 17.2 9.2 3.8.4 9 .1 9.4 5.3.3 4-5.1 5.8-8.1 5.6-.6-.1-.6.9 0 1 5 .4 11.2-3.8 8.3-9.2-1.4-2.7-4.1-3.5-6.9-3.5-2.4-.1-4.6-.3-6.8-1.4-1.8-.9-3.3-2.2-4.8-3.4-6.6-5-13.5-6.7-21.1-3-2.6 1.2-4.8 3.8-7 5.6-2.5 2-5.8 4.7-9.2 4.2 8.5-2.4 13.1-11.1 21.3-14.1 6-2.2 11.7-.2 17.1 2.5 3.9 1.9 8.6 4.2 12.9 2.5.6-.2.3-1.2-.3-1-5.3 2.1-10.8-1.9-15.5-4-4.4-2-9.1-2.4-13.8-1.1-8.2 2.2-12.6 10.7-20.2 13.8 6.1-5.9 11.5-13 19.1-17 4.6-2.4 10.4-2.8 15.5-2 4.3.6 8.8 2.8 13.1.9.6-.3.1-1.1-.5-.9-3 1.3-6 .3-9-.5-2.1-.5-4.2-.8-6.4-.9-4.4-.3-9.1.5-13.1 2.4-7.7 3.8-13.1 11-19.1 16.9 1-1.7 2.1-3.3 3.2-5 1.7-2.6 3.3-5.2 5.5-7.5 4.3-4.7 9.4-8.1 15.7-9.5 6.4-1.4 13.5.7 19.7-1.5 4.9-1.8 8.9-6 12.2-9.8.4-.5-.3-1.2-.7-.7-4.1 4.9-9.2 9.8-15.8 10.4-3.7.4-7.3-.1-10.8.1z"/><path class="beast-eye-13-st-1" d="M66.5 400.9c.2.2.5.3.8.4.6.2.9-.8.3-1-2.4-.8-2.5-4.5-.4-5.8.4-.2.3-.7 0-.9-.1-.2-.4-.3-.7-.2-.2.1-.3.2-.4.3 2.8-6.2 4.5-12.7 9-18.1 4.7-5.6 11.3-10.1 18.7-11.1.6-.1.6-1.1 0-1-7.2 1-13.4 5-18.3 10.2-2.7 2.8-4.8 6.1-6.4 9.6-1.4 3-2.4 6.2-3.6 9.3 0-5.8.1-11.5 3-16.7 2.7-4.8 7.6-8.1 11.7-11.5.5-.4-.2-1.1-.7-.7-4.3 3.6-8.9 6.9-11.9 11.7-3.1 5.1-3.2 11-3.1 16.8-.4-2.2-.8-4.3-1-6.5-.2-2.9-.6-5.7-1.4-8.5-.2-.6-1.1-.4-1 .3.9 2.9 1.2 6 1.4 9 .2 3 .9 5.8 1.4 8.7-.7.5-1.3 1.1-2 1.6-2.3 1.8-5.2 2.3-8 1.6-4.1-1-7.2-4.4-11.4-5.4-.6-.1-.9.8-.3 1 4.6 1 7.9 4.8 12.6 5.7 3.7.7 6.1-1.1 8.7-3-.6.6-1.2 1.1-1.8 1.7h-.1c-3.1 2.9-8 3.9-12 2.7-.6-.2-.9.8-.3 1 4 1.2 8.8.3 12.1-2.3-3.6 3.2-8.9 4.4-11.9 8.5-.4.5.5 1 .9.5 2.2-3 5.5-4.3 8.7-6 .9-.5 1.7-1 2.5-1.6l-.1.1c-1.2 1.7-2.8 2.9-4.4 4.2-2.6 2.2-4.6 4.9-5.9 8-.3.6.6 1.1.9.5 1.5-3.3 3.6-6 6.4-8.3 1.2-1 2.4-2 3.4-3.2.8-1 1.5-2.2 2.3-3.2-1.4 2.5-2.1 5.2-3.4 7.8-1.4 2.7-3 5.1-3.5 8.1-.1.6.8.9 1 .3.6-2.9 2-5.3 3.4-7.9 1.1-2 1.8-4.2 2.7-6.3-.5 2.5-.6 5-1 7.4-.5 2.9-1.2 5.6-.8 8.6.1.6 1.1.4 1-.3-.4-3 .4-5.9.9-8.9.4-2.4.5-4.8 1-7.2 1.3 6.8-.4 14.1 3.5 20.3.3.5 1.2 0 .9-.5-3.9-6-2.2-13.2-3.4-19.8zM127.2 411.2c-.1-.3-.4-.4-.6-.3-1.8.4-2.7-.6-4.2-1.2-1.3-.4-1 1.2-2.6-.4-1.1-1.1-1.2-3-3.2-2-.3.1-.6.4-.8.6-1.4 1.2-2.3-1.2-2.7-1.9-.3-.5-1-1-1.6-1-2.6-.3-3.8 2.7-5.6 4.1-.5.4 0 1.3.5.9 2-1.5 4.4-6.2 6.6-2 .8 1.5 2.3 1.7 3.6.7 1.4-1.1 2.8 2.4 4.4 2.6.2 0 .7-.3.7-.3.9-.4 1.9.4 2.6.8.7.4 1.5.3 2.2.2.1.2.1.5.2.7.2.6 1.2.4 1-.3-.3-.4-.4-.8-.5-1.2zM135.4 384.5c-.8-.3-1.3-.3-1.9.4-.8.8-3.3-.2-4.3.1-1.6.4-3.2 2.2-4.9 1.1-1.3-.8-3 .9-4.2 1-.6 0-.6 1 0 1 1.6 0 3.1-1.5 4.6-.5.8.6 2-.1 2.7-.6 1.6-1.1 2.9-1 4.7-.8.8.1 2.5-.8 3.1-.6.5.1.8-.9.2-1.1zM124.1 376.7c-1.6.6-3-1.1-4.7-.8-1.8.3-3.9 3.7-5.4.7-.3-.6-1.2-.1-.9.5 1 2 2.5 2.1 4.4 1 1.6-.9 2.5-1.7 4.3-.6.8.5 1.6.5 2.5.2.7-.3.4-1.3-.2-1zM117.4 419.5c-1.5 1.1-2.8.1-4.3-.3-1-.3-1.9.3-2.7.9-.5.4 0 1.3.5.9 2-1.5 3.4.3 5.6.1 1.8-.2 2.8-2.7 4.5-.8.4.5 1.1-.2.7-.7-1.6-1.8-2.7-1.3-4.3-.1zM88.9 438.2c-1.2-.4-2.9.1-3.6-1.4-.3-.6-.8-1.3-1.4-1.6-.6-.3-1.3-.4-1.9-.6-1.1-.4-2.2.2-2.2-2.2 0-.2 0-.7-.1-.9-1.2-2.2-4.9 0-5.2-3.1-.1-1.9.3-3.4-1.7-4.3-.6-.3-1.1.6-.5.9 2.5 1.1.1 4.1 2 5.6.6.5 1 .7 1.8.8.8.1 2.6-.5 2.7 1.1 0 .6-.1 1 .3 1.6 1.2 1.7 3 1 4.5 2.2.7.6.9 1.6 1.5 2.3.9 1 2.4.3 3.5.6.6.1.9-.8.3-1zM98.6 363.5c-.3-2.5 2.3-1 3.3-.5.8.4 1.5.4 2.3.2 1.1-.3 1.9-1.8 2.7-2.3 1-.7 2.3.7 3.3 1.1.9.3 1.8 0 2.5-.7s.5-3.5 2.2-2.6c2.7 1.5 2.4-2.6 3.4-3.6.4-.5-.3-1.2-.7-.7-.8.9-1.2 3.9-2.9 3.1-.6-.3-1.7-.1-2 .5-.7 1.4-.4 4.1-2.9 2.5-.4-.2-1.9-1.1-2.5-.9-1 .3-1.9 1.2-2.5 2-1.3 1.6-2.9.3-4.2-.3-2-.8-3.1.1-2.9 2.2-.1.6.9.6.9 0zM83.6 362.3c-.1-.4-.6-1.9.1-2.1.4-.1.9.1 1.3.1.8.2 1.7.3 2.5.1.7-.2 1.2-.9 1.2-1.6 0-.6-.5-3.2 1.4-2.2.6.3 1 .5 1.7.6.6.1.6-.9 0-1-1.2-.2-2.9-1.7-3.9 0-.4.6-.3 1.2-.3 1.9.1 1.2-.4 1.5-1.5 1.4-.9-.1-2.2-.7-3-.2-1.1.6-.7 2.2-.5 3.2.1.7 1.1.5 1-.2z"/><path class="beast-eye-13-st-1" d="M52.1 388.6c.4.2 1.1 0 1.5-.1.6-.1.5 2.7.5 3 .1.8.6 1.3 1.4 1.3 1.1.1 3.2-.3 2 1.4-.4.5.5 1 .9.5.5-.6 1.2-1.9.2-2.5-.9-.5-2.1-.3-3.1-.4-.7-.1-.1-3.6-1.3-4.3-.3-.2-1.6.2-1.7.1-.2-.7-.2-1.5-.4-2.2-.2-.6-1.2-.3-1 .3.3 1 .1 2.3 1 2.9z"/><g><path class="beast-eye-13-st-0" d="M64.7 376.6c2.1-7 9.9-9.8 13.3-16 .3-.6-.6-1.1-.9-.5-3.4 6.3-11.2 9.1-13.4 16.3-.2.5.8.8 1 .2zM60.6 389.8c-2.6-.5.7-3.9-1.1-5.2-.8-.5-2.3-.4-1.7-2 .4-.9.6-1.8.6-2.8 0-1.7-1.9-2.2-3.2-2.3-.6-.1-.9.9-.3 1 1.2.2 2.4.3 2.5 1.8 0 1.1-.7 2.2-1 3.3-.2.8.6 1.9 1.4 1.8 2.5-.2 0 3.3.6 4.5.2.4.5.8.9.9 1.9.5 1.7 1.9 1.6 3.3 0 .6 1 .6 1 0 .1-1.5.5-4-1.3-4.3zM53.8 395.2c-1.3-.3-1-1.5-1.5-2.3-.8-1.4-2.8-.4-3.6-1.6-.6-.8-.8-1.6-1.7-2.1-.4-.2-.9-.2-1.3-.2-.2 0-.5.1-.7.2-1.1.3-1.6-.4-2.2-1.3-.4-.5-1.2 0-.9.5.5.8 1 2.3 2.2 2 1.1-.2 2.5-.8 3.3.6.3.5.6 1 1 1.5 1 1.1 2.8 0 3.3 1.8.4 1.8 1.8 1.4 3 2.3.5.4 1-.5.5-.9-.5-.2-.8-.3-1.4-.5zM47.2 386.8c1 0 1-1 0-1s-1 1 0 1zM53.2 381.7c1 0 1-1 0-1s-1 1 0 1zM50.2 384.3v-.1c.2-.1.3-.2.3-.5v-.2c0-.6-1-.6-1 0v.1c-.1.3.1.7.7.7zM45.9 383.6c.2.3.6.4.8.1 0 0 0-.1.1-.1.3-.1.3-.4.2-.6-.1-.3-.5-.6-.8-.2 0 .1-.1.1-.1.2-.3.1-.4.3-.2.6zM50.1 381.6c.5.4 1.2-.3.7-.7l-.2-.2c-.5-.4-1.2.3-.7.7l.2.2zM46.7 380.7c.2.4.8.2.9-.1.4-.4-.2-1.1-.7-.7-.1 0-.1.1-.1.1-.2.2-.3.4-.1.7 0-.1 0-.1 0 0zM102 411.3c.6-.3.1-1.1-.5-.9-5.4 2.5-11.3 2.1-16.2-1.2-2.4-1.6-4.7-3.2-6.9-5.1-1.5-1.3-3.1-2.3-4.9-3-.6-.2-.9.7-.3 1 5.4 2.2 9.1 7.4 14.5 9.6 4.8 2 9.7 1.8 14.3-.4zM69.1 407c0-.6-1-.6-1 0 .1 4.1 1.1 8.1 2.3 12 .2.6 1.2.4 1-.3-1.2-3.8-2.2-7.6-2.3-11.7zM64.9 415.2c-.6-.2-.9.8-.3 1 .5.4 1.2-.3.7-.7-.1-.2-.2-.2-.4-.3zM64.5 413.1c-.3.3-.2.9.3.9h.2c.5 0 .6-.7.3-.9v-.3c-.4-.1-.7.1-.8.3zM60.5 414.8h-.2-.1c-.5.1-.5.9 0 1H60.5c.6-.3.6-.9 0-1zM61.2 411.7c-1 0-1 1 0 1s1-1 0-1zM55.2 414.7v-1c-1 0-1 1 0 1zM56.2 411c-1 0-1 1 0 1s1-1 0-1zM58.2 408.2c-1 0-1 1 0 1s1-1 0-1zM50.4 410.3c0 .4.2.6.6.6.5 0 .6-.6.3-.9-.3-.3-.9-.2-.9.3zM50.2 405.8c1 0 1-1 0-1v1zM51.2 399.7c-1 0-1 1 0 1v-1zM59.2 396.1c-1 0-1 1 0 1s1-1 0-1zM47.2 400.3v-1c-1 0-1 1 0 1zM86.4 362.5c.1-.1.1-.1 0 0 .6-.6-.2-1.3-.6-.8l-.1.1c-.4.4.3 1.1.7.7zM91.2 359.2c1 0 1-1 0-1s-1 1 0 1zM85.5 357.7c0-.7-1-.7-1-.1v.1c0 .6 1 .6 1 0zM100.2 364.9c1 0 1-1 0-1s-1 1 0 1zM108 363.4h.2c.1 0 .2 0 .3-.1.1-.2.3-.3.3-.5.2-.6-.7-.9-1-.3-.5.2-.4.8.2.9zM115 360.8h.2v-.1h.1c.5-.2.2-.9-.3-.9-.1 0-.2 0-.2.1-.1 0-.2.1-.2.2-.5.2-.1.9.4.7zM110.2 359.2c1 0 1-1 0-1s-1 1 0 1zM103 360.8c.1 0 .2-.1.2-.2.3-.3.2-.6-.1-.7-.2-.3-.6-.3-.8 0-.1.2-.2.4 0 .7.1.3.5.3.7.2zM115.1 375.7c0 .6.8.6 1 .1.4-.5-.3-1.1-.7-.7-.2.2-.3.4-.3.6zM120.2 378.7s.1 0 0 0c.5.2.7-.2.7-.5s-.2-.7-.6-.5h-.1c-.2.1-.4.2-.4.5.1.3.2.4.4.5zM125.2 385.1c.2.4.7.3.9-.1.3-.3.1-1-.5-.8-.5.1-.6.5-.4.9zM129 387.7c.6.4 1.1-.5.5-.8-.2-.1-.3-.2-.5-.2-.6 0-.6 1 0 1zM122.4 388.1c-.6.6.2 1.3.6.8l.1-.1c.5-.5-.2-1.2-.7-.7zM115.5 406.2v-.3c0-.6-1-.6-1 0v.3c0 .6 1 .6 1 0zM110.8 408.8c0-.7-1-.7-1-.1v.1c0 .7 1 .7 1 0zM116.5 410.1c-.6-.2-.9.8-.3 1-.3-.1.1.1.2.1.6.2.9-.8.3-1 .3.1-.1-.1-.2-.1zM123.2 413c1 0 1-1 0-1s-1 1 0 1zM121.4 406.9c0 .1-.1.2-.1.3-.2.6.8.9 1 .3 0-.1.1-.2.1-.3.1-.7-.9-.9-1-.3zM112.8 421.5s-.1 0 0 0c-.6.6.2 1.3.6.8l.1-.1c.5-.5-.2-1.2-.7-.7zM119 420.6c-.2.3-.2.5 0 .8.3.5 1.1.1.9-.4.1-.5-.6-.9-.9-.4zM127.2 426.1l-1.5-.6c-.2-.1-.5.1-.6.2-1.2 2-2.2.4-3.5.8-.9.2-1.4.7-2.1 1.3-.2.2-2.1-.8-2.4-.8-.6 0-.9.4-1.3.7-1.7 1.8-4.3.1-6.3 1.6-2.3 1.8-1.6-.6-2.9-.8-.8-.1-1.2 0-1.9.4-2.4 1.6-3.4-1.1-5.6-.6-.4.1-.8.4-1.1.5-1.6.6-1.7-.8-2.4-1.3-.7-.4-1.2-.5-2-.2-2.3.8-3.7.3-5.9-.6-1.5-.7-2.9-1.3-4.3-2.3-2-1.3-6.4-4.8-6.7-7.5-.1-.6-1.1-.6-1 0 .2 2.2 2.4 4.1 3.8 5.6 2.6 2.7 5.7 4.3 9.2 5.7 1 .4 2.8 1.1 4 .6.7-.3 1.9-.9 2.7-.1.3.3.7.8 1.1 1 .8.2 1.5.3 2.3-.1 2-1 2.4 1.3 4 1.3.9 0 3.5-1.5 3.9-1 .4.6.9 1.1 1.7 1.1 1.7 0 1.9-1.8 4.1-1.4 1.2.2 1.9.4 3-.2.4-.2.7-.6 1-.9.9-.9 1.7.1 2.6.3.5.1.7 0 1.1-.3 1.6-1.4 2.4-.6 3.9-.8 1.3-.2 1.3-1.3 2.8-.8.6.3.9-.6.3-.8z"/><path class="beast-eye-13-st-0" d="M116.8 414.9c-1.2.3-2.3.9-3.5 1.3-1.3.5-2.8.2-4.2.7-1.3.5-2.3 1.4-3.7 1.8-1.5.4-2.6 1.6-4.3 1.8-2.9.4-6.5-.7-9.3-1.4-3.4-.9-6.6-2.3-9.6-4.1-.6-.3-1.1.5-.5.9 5.7 3.5 12.2 5.2 18.8 5.7.9.1 1.8-.1 2.6-.5.9-.4 1.7-1 2.6-1.3.7-.3 1.7-.3 2.4-.8s1.7-1.3 2.5-1.4c.5-.1 1 0 1.5-.1 1.7-.3 3.2-1.2 4.9-1.7.7-.1.4-1-.2-.9zM102.4 438.9c-1.6-.4-3.1-1.1-4.8-1.2-1.4 0-3.1 1.3-4.2-.4-.3-.5-.5-1-.9-1.4-.3-.4-1-.5-1.5-.7-1.3-.4-2.3-.6-3.3-1.6-.8-.8-1.5-1-2.5-.8-.6.1-.4 1.1.3 1 1.2-.2 2.8 1.6 4 2 1.1.4 2.2.1 2.9 1.5.3.6.6 1 1.1 1.4.7.7 2 .4 2.8.2 2.4-.5 3.8.3 6 .8.5.3.8-.7.1-.8zM81.6 438.7v-.1c-.5.3 0 1.2.5.9.2-.1.4-.3.4-.5.2-.7-.7-1-.9-.3zM81.9 433c.5 0 .6-.7.3-.9-.1-.2-.4-.2-.6-.1-.2.1-.3.3-.3.5s.2.5.4.5h.2zM76.2 433.7h-.3c-.2 0-.4.2-.4.4-.2.5.4.7.7.5 1 .1 1-.9 0-.9zM76.7 427.9c-.7 0-.7 1-.1 1h.1c.6 0 .6-1 0-1zM71.4 427.8c0 .7 1 .7 1 .1v-.1c0-.7-1-.7-1 0zM116.3 370.2c3.8-.2 6.5-3 9-5.6.4-.5-.3-1.2-.7-.7-2.3 2.4-4.8 5.1-8.3 5.3-.7 0-.7 1 0 1zM95.5 374.8c3.9-2.5 10.2 0 13.6 2.4.5.4 1-.5.5-.9-3.8-2.5-10.4-5-14.7-2.4-.5.4 0 1.3.6.9zM109.5 385c1 .5 1.7 1.2 2.7 1.7 1 .4 2.2.4 3.2.6.6.2.9-.8.3-1-1.1-.3-2.3-.2-3.4-.7-.9-.4-1.5-1.1-2.4-1.5-.5-.3-1 .6-.4.9zM143.3 394.2c-.3-.1-.7-.3-1-.4-.2-.2-.6-.4-.8-.1-.4.7-1 .9-1.8.5-.2-.2-.6-.2-.8.1-.3.6-.9-.8-1-.9-.5-.5-.5-.5-1.1-.7-.2-.1-.4 0-.5.1-.5.4-.4.9-.5 1.5 0 .4.1.9.1 1.3.1.9-.6 4.2-.7 1.6-.1-1.8-.1-3.9-1.2-5.4-.6-.9-1.9-1.1-2.5-.2-.9 1.2.6 4.2.8 5.4.1.6 0 1.5-.1 2.1 0 .8-.5 1.3-1.5 1.4.1-.4.2-.9.4-1.3.4-1.3.4-2.6.2-3.9-.2-1.5-1.4-5-3.4-5-1.7 0-1.4 1.7-.8 2.7 2.4 4.6.4 8.3-3.2 11.5-.5.4.2 1.1.7.7 2.5-2.2 4.5-4.8 4.7-8.3.1-1.4-.4-2.9-1.1-4-1.2-2.1.8-.8 1.3.4.5 1.3.9 2.1 1 3.5 0 .6-1.9 5.5-.1 5.5 2.5.1 2.9-2.9 3-4.8.1-.9-.3-1.9-.6-2.7-.2-.8-.4-1.5-.5-2.3.8-.2 1.2 0 1.3.8.1.3.2.6.2.9.2 1.1-.2 4.9 1.1 5.4 2.4 1 1.9-3.8 1.8-4.8-.2-1.8.9.6 1.4.8.6.2.9-.1 1.2-.5 1 .7 1.5.4 2.4-.5.5.6 1.1.7 2 .2.7 0 .2-.9-.4-.6z"/></g><path class="beast-eye-13-st-0" d="M-107.1 395.6c.7-2.6 2.9-3.7 5.1-5 3-1.8 6.6-5.2 10.5-4.9 5.6.4 13.2 3.2 16.2 8.5 2 .7 2.4 3.1.6 4.5-5.9 4.5-9.8 12.5-18.6 10.3-3.3-.8-6.1-3.5-8.5-5.8-1.7-1.6-6-5-5.3-7.6z"/><g><path class="beast-eye-13-st-1" d="M-108.7 397.8c.1.3.3.5.6.7 6.1 4.4 8.8 12 17.7 11.3 8-.7 10.5-8 17.3-11 .3-.1.5-.3.6-.5 1.7.7 3.4 1.2 5.3 1.1 2.6-.1 2.6-4.1 0-4-9.6.5-14.4-12.9-24.5-11.8-4.6.5-8.2 3.1-11.8 5.8-3.7 2.7-9 7.8-14 5.6-2.3-1-4.4 2.4-2 3.5 4.2 1.8 7.6 1.1 10.8-.7zm3.3-2.2c3.9-2.9 7.7-6.6 12.3-7.6 6.7-1.5 11.4 4.2 16.8 8.1-4.7 3-8.4 9.9-14 9.8-7.6-.2-9.9-6.2-15.1-10.3z"/><path class="beast-eye-13-st-1" d="M-108.9 433.7c10.2 1.7 22.6-.8 30.7-7.5 4.1-3.4 6.1-7.9 7.1-13 .4-2 .4-4.5 1-6.6-2 2.6-3.4 5.5-5.3 8.3-2.1 3.2-5 5.4-8.6 6.9-7.5 3.1-16.6 4.6-24.6 3-.6-.1-.4-1.1.3-1 8 1.6 17.2.1 24.5-3.2 4.1-1.8 6.7-4.8 9-8.6 1.7-2.8 3.3-5.7 5.5-8-5.9 2.5-9.1 9.2-15.2 11.6-7.9 3.2-18.5 1.5-26.2-1.5-.6-.2-.3-1.2.3-1 4.1 1.6 8.4 2.6 12.8 2.9 4.5.4 9.8.2 13.9-1.9 5.9-3.1 9.1-9.9 15.7-11.7.4-.1.6.2.6.5.1.1.1.3.1.4-.1.3-.3.6-.5.8-.1.1-.2.2-.4.2-1 1.4-1.4 3.3-1.6 4.9-.3 2.6-.6 5.1-1.3 7.6-1.3 4.5-4.1 8.4-7.9 11.2-8.4 6.1-20.2 8.4-30.4 6.7-.4-.2-.2-1.1.5-1zM-97.7 366.4c3 .1 6 .7 8.8 1.7 5.3 1.8 9.7 5.7 13.4 9.9 1.8 2 3.2 4.3 4.6 6.6 1.7 2.6 3.5 5.1 4.6 7.9.1.1 0 .2 0 .3 0 .2-.1.4-.3.4-4.3 1.3-8.4-2.1-11.5-4.7-2.1-1.7-4-3.6-6.2-5.1-3.5-2.3-8.4-2.5-12.3-1.4-6.4 1.8-10.4 8.6-17.2 9.2-3.8.4-9 .1-9.4 5.3-.3 4 5.1 5.8 8.1 5.6.6-.1.6.9 0 1-5 .4-11.2-3.8-8.3-9.2 1.4-2.7 4.1-3.5 6.9-3.5 2.4-.1 4.6-.3 6.8-1.4 1.8-.9 3.3-2.2 4.8-3.4 6.6-5 13.5-6.7 21.1-3 2.6 1.2 4.8 3.8 7 5.6 2.5 2 5.8 4.7 9.2 4.2-8.5-2.4-13.1-11.1-21.3-14.1-6-2.2-11.7-.2-17.1 2.5-3.9 1.9-8.6 4.2-12.9 2.5-.6-.2-.3-1.2.3-1 5.3 2.1 10.8-1.9 15.5-4 4.4-2 9.1-2.4 13.8-1.1 8.2 2.2 12.6 10.7 20.2 13.8-6.1-5.9-11.5-12.9-19.1-17-4.6-2.4-10.4-2.8-15.5-2-4.3.6-8.8 2.8-13.1.9-.6-.3-.1-1.1.5-.9 3 1.3 6 .3 9-.5 2.1-.5 4.2-.8 6.4-.9 4.4-.3 9.1.5 13.1 2.4 7.7 3.8 13.1 11 19.1 16.9-1-1.7-2.1-3.3-3.2-5-1.7-2.6-3.3-5.2-5.5-7.5-4.3-4.7-9.4-8.1-15.7-9.5-6.4-1.4-13.5.7-19.7-1.5-4.9-1.8-8.9-6-12.2-9.8-.4-.5.3-1.2.7-.7 4.1 4.9 9.2 9.8 15.8 10.4 3.7.4 7.3-.1 10.8.1z"/><path class="beast-eye-13-st-1" d="M-64.6 400.9c-.2.2-.5.3-.8.4-.6.2-.9-.8-.3-1 2.4-.8 2.5-4.5.4-5.8-.4-.2-.3-.7 0-.9.1-.2.4-.3.7-.2.2.1.3.2.4.3-2.8-6.2-4.5-12.7-9-18.1-4.7-5.6-11.3-10.1-18.7-11.1-.6-.1-.6-1.1 0-1 7.2 1 13.4 5 18.3 10.2 2.7 2.8 4.8 6.1 6.4 9.6 1.4 3 2.4 6.2 3.6 9.3 0-5.8-.1-11.5-3-16.7-2.7-4.8-7.6-8.1-11.7-11.5-.5-.4.2-1.1.7-.7 4.3 3.6 8.9 6.9 11.9 11.7 3.1 5.1 3.2 11 3.1 16.8.4-2.2.8-4.3 1-6.5.2-2.9.6-5.7 1.4-8.5.2-.6 1.1-.4 1 .3-.9 2.9-1.2 6-1.4 9-.2 3-.9 5.8-1.4 8.7.7.5 1.3 1.1 2 1.6 2.3 1.8 5.2 2.3 8 1.6 4.1-1 7.2-4.4 11.4-5.4.6-.1.9.8.3 1-4.6 1-7.9 4.8-12.6 5.7-3.7.7-6.1-1.1-8.7-3 .6.6 1.2 1.1 1.8 1.7h.1c3.1 2.9 8 3.9 12 2.7.6-.2.9.8.3 1-4 1.2-8.8.3-12.1-2.3 3.6 3.2 8.9 4.4 11.9 8.5.4.5-.5 1-.9.5-2.2-3-5.5-4.3-8.7-6-.9-.5-1.7-1-2.5-1.6l.1.1c1.2 1.7 2.8 2.9 4.4 4.2 2.6 2.2 4.6 4.9 5.9 8 .3.6-.6 1.1-.9.5-1.5-3.3-3.6-6-6.4-8.3-1.2-1-2.4-2-3.4-3.2-.8-1-1.5-2.2-2.3-3.2 1.4 2.5 2.1 5.2 3.4 7.8 1.4 2.7 3 5.1 3.5 8.1.1.6-.8.9-1 .3-.6-2.9-2-5.3-3.4-7.9-1.1-2-1.8-4.2-2.7-6.3.5 2.5.6 5 1 7.4.5 2.9 1.2 5.6.8 8.6-.1.6-1.1.4-1-.3.4-3-.4-5.9-.9-8.9-.4-2.4-.5-4.8-1-7.2-1.3 6.8.4 14.1-3.5 20.3-.3.5-1.2 0-.9-.5 3.8-6 2.1-13.2 3.4-19.8zM-125.4 411.2c.1-.3.4-.4.6-.3 1.8.4 2.7-.6 4.2-1.2 1.3-.4 1 1.2 2.6-.4 1.1-1.1 1.2-3 3.2-2 .3.1.6.4.8.6 1.4 1.2 2.3-1.2 2.7-1.9.3-.5 1-1 1.6-1 2.6-.3 3.8 2.7 5.6 4.1.5.4 0 1.3-.5.9-2-1.5-4.4-6.2-6.6-2-.8 1.5-2.3 1.7-3.6.7-1.4-1.1-2.8 2.4-4.4 2.6-.2 0-.7-.3-.7-.3-.9-.4-1.9.4-2.6.8-.7.4-1.5.3-2.2.2-.1.2-.1.5-.2.7-.2.6-1.2.4-1-.3.3-.4.4-.8.5-1.2zM-133.5 384.5c.8-.3 1.3-.3 1.9.4.8.8 3.3-.2 4.3.1 1.6.4 3.2 2.2 4.9 1.1 1.3-.8 3 .9 4.2 1 .6 0 .6 1 0 1-1.6 0-3.1-1.5-4.6-.5-.8.6-2-.1-2.7-.6-1.6-1.1-2.9-1-4.7-.8-.8.1-2.5-.8-3.1-.6-.6.1-.8-.9-.2-1.1zM-122.3 376.7c1.6.6 3-1.1 4.7-.8 1.8.3 3.9 3.7 5.4.7.3-.6 1.2-.1.9.5-1 2-2.5 2.1-4.4 1-1.6-.9-2.5-1.7-4.3-.6-.8.5-1.6.5-2.5.2-.6-.3-.4-1.3.2-1zM-115.5 419.5c1.5 1.1 2.8.1 4.3-.3 1-.3 1.9.3 2.7.9.5.4 0 1.3-.5.9-2-1.5-3.4.3-5.6.1-1.8-.2-2.8-2.7-4.5-.8-.4.5-1.1-.2-.7-.7 1.6-1.8 2.6-1.3 4.3-.1zM-87 438.2c1.2-.4 2.9.1 3.6-1.4.3-.6.8-1.3 1.4-1.6.6-.3 1.3-.4 1.9-.6 1.1-.4 2.2.2 2.2-2.2 0-.2 0-.7.1-.9 1.2-2.2 4.9 0 5.2-3.1.1-1.9-.3-3.4 1.7-4.3.6-.3 1.1.6.5.9-2.5 1.1-.1 4.1-2 5.6-.6.5-1 .7-1.8.8-.8.1-2.6-.5-2.7 1.1 0 .6.1 1-.3 1.6-1.2 1.7-3 1-4.5 2.2-.7.6-.9 1.6-1.5 2.3-.9 1-2.4.3-3.5.6-.7.1-.9-.8-.3-1zM-96.7 363.5c.3-2.5-2.3-1-3.3-.5-.8.4-1.5.4-2.3.2-1.1-.3-1.9-1.8-2.7-2.3-1-.7-2.3.7-3.3 1.1-.9.3-1.8 0-2.5-.7s-.5-3.5-2.2-2.6c-2.7 1.5-2.4-2.6-3.4-3.6-.4-.5.3-1.2.7-.7.8.9 1.2 3.9 2.9 3.1.6-.3 1.7-.1 2 .5.7 1.4.4 4.1 2.9 2.5.4-.2 1.9-1.1 2.5-.9 1 .3 1.9 1.2 2.5 2 1.3 1.6 2.9.3 4.2-.3 2-.8 3.1.1 2.9 2.2 0 .6-1 .6-.9 0zM-81.7 362.3c.1-.4.6-1.9-.1-2.1-.4-.1-.9.1-1.3.1-.8.2-1.7.3-2.5.1-.7-.2-1.2-.9-1.2-1.6 0-.6.5-3.2-1.4-2.2-.6.3-1 .5-1.7.6-.6.1-.6-.9 0-1 1.2-.2 2.9-1.7 3.9 0 .4.6.3 1.2.3 1.9-.1 1.2.4 1.5 1.5 1.4.9-.1 2.2-.7 3-.2 1.1.6.7 2.2.5 3.2-.2.7-1.2.5-1-.2z"/><path class="beast-eye-13-st-1" d="M-50.3 388.6c-.4.2-1.1 0-1.5-.1-.6-.1-.5 2.7-.5 3-.1.8-.6 1.3-1.4 1.3-1.1.1-3.2-.3-2 1.4.4.5-.5 1-.9.5-.5-.6-1.2-1.9-.2-2.5.9-.5 2.1-.3 3.1-.4.7-.1.1-3.6 1.3-4.3.3-.2 1.6.2 1.7.1.2-.7.2-1.5.4-2.2.2-.6 1.2-.3 1 .3-.3 1 0 2.3-1 2.9z"/></g><g><path class="beast-eye-13-st-0" d="M-62.9 376.6c-2.1-7-9.9-9.8-13.3-16-.3-.6.6-1.1.9-.5 3.4 6.3 11.2 9.1 13.4 16.3.2.5-.8.8-1 .2zM-58.7 389.8c2.6-.5-.7-3.9 1.1-5.2.8-.5 2.3-.4 1.7-2-.3-.9-.6-1.8-.6-2.8 0-1.7 1.9-2.2 3.2-2.3.6-.1.9.9.3 1-1.2.2-2.4.3-2.5 1.8 0 1.1.7 2.2 1 3.3.2.8-.6 1.9-1.4 1.8-2.5-.2 0 3.3-.6 4.5-.2.4-.5.8-.9.9-1.9.5-1.7 1.9-1.6 3.3 0 .6-1 .6-1 0-.2-1.5-.5-4 1.3-4.3zM-51.9 395.2c1.3-.3 1-1.5 1.5-2.3.8-1.4 2.8-.4 3.6-1.6.6-.8.8-1.6 1.7-2.1.4-.2.9-.2 1.3-.2.2 0 .5.1.7.2 1.1.3 1.6-.4 2.2-1.3.4-.5 1.2 0 .9.5-.5.8-1 2.3-2.2 2-1.1-.2-2.5-.8-3.3.6-.3.5-.6 1-1 1.5-1 1.1-2.8 0-3.3 1.8-.4 1.8-1.8 1.4-3 2.3-.5.4-1-.5-.5-.9.4-.2.8-.3 1.4-.5zM-45.8 386.8c-1 0-1-1 0-1s1 1 0 1zM-51.8 381.7c-1 0-1-1 0-1s1 1 0 1zM-48.4 384.3v-.1c-.2-.1-.3-.2-.3-.5v-.2c0-.6 1-.6 1 0v.1c.2.3-.1.7-.7.7zM-44 383.6c-.2.3-.6.4-.8.1 0 0 0-.1-.1-.1-.3-.1-.3-.4-.2-.6.1-.3.5-.6.8-.2 0 .1.1.1.1.2.3.1.4.3.2.6zM-48.3 381.6c-.5.4-1.2-.3-.7-.7l.2-.2c.5-.4 1.2.3.7.7l-.2.2zM-44.9 380.7c-.2.4-.8.2-.9-.1-.4-.4.2-1.1.7-.7.1 0 .1.1.1.1.3.2.3.4.1.7.1-.1.1-.1 0 0zM-100.2 411.3c-.6-.3-.1-1.1.5-.9 5.4 2.5 11.3 2.1 16.2-1.2 2.4-1.6 4.7-3.2 6.9-5.1 1.5-1.3 3.1-2.3 4.9-3 .6-.2.9.7.3 1-5.4 2.2-9.1 7.4-14.5 9.6-4.7 2-9.7 1.8-14.3-.4zM-67.3 407c0-.6 1-.6 1 0-.1 4.1-1.1 8.1-2.3 12-.2.6-1.2.4-1-.3 1.2-3.8 2.2-7.6 2.3-11.7zM-63.1 415.2c.6-.2.9.8.3 1-.5.4-1.2-.3-.7-.7.2-.2.3-.2.4-.3zM-62.7 413.1c.3.3.2.9-.3.9h-.1c-.5 0-.6-.7-.3-.9v-.3c.4-.1.6.1.7.3zM-58.7 414.8H-58.4c.5.1.5.9 0 1H-58.7c-.6-.3-.6-.9 0-1zM-59.8 411.7c1 0 1 1 0 1s-1-1 0-1zM-53.8 414.7v-1c1 0 1 1 0 1zM-54.8 411c1 0 1 1 0 1s-1-1 0-1zM-56.8 408.2c1 0 1 1 0 1s-1-1 0-1zM-48.6 410.3c0 .4-.2.6-.6.6-.5 0-.6-.6-.3-.9.3-.3 1-.2.9.3zM-48.8 405.8c-1 0-1-1 0-1v1zM-49.8 399.7c1 0 1 1 0 1v-1zM-57.8 396.1c1 0 1 1 0 1s-1-1 0-1zM-45.8 400.3v-1c1 0 1 1 0 1zM-84.6 362.5c0-.1-.1-.1 0 0-.6-.6.2-1.3.6-.8l.1.1c.5.4-.3 1.1-.7.7zM-89.8 359.2c-1 0-1-1 0-1s1 1 0 1zM-83.7 357.7c0-.7 1-.7 1-.1v.1c0 .6-1 .6-1 0zM-98.8 364.9c-1 0-1-1 0-1s1 1 0 1zM-106.2 363.4h-.2c-.1 0-.2 0-.3-.1-.1-.2-.3-.3-.3-.5-.2-.6.7-.9 1-.3.5.2.5.8-.2.9zM-113.2 360.8h-.2v-.1h-.1c-.5-.2-.2-.9.3-.9.1 0 .2 0 .2.1.1 0 .2.1.2.2.5.2.1.9-.4.7zM-108.8 359.2c-1 0-1-1 0-1s1 1 0 1zM-101.2 360.8c-.1 0-.2-.1-.2-.2-.3-.3-.2-.6.1-.7.2-.3.6-.3.8 0 .1.2.2.4 0 .7-.1.3-.4.3-.7.2zM-113.3 375.7c0 .6-.8.6-1 .1-.4-.5.3-1.1.7-.7.2.2.3.4.3.6zM-118.4 378.7c-.5.2-.7-.2-.7-.5s.2-.7.6-.5h.1c.2.1.4.2.4.5s-.2.4-.4.5zM-123.3 385.1c-.2.4-.7.3-.9-.1-.3-.3-.1-1 .5-.8.4.1.5.5.4.9zM-127.2 387.7c-.6.4-1.1-.5-.5-.8.2-.1.3-.2.5-.2.7 0 .7 1 0 1zM-120.6 388.1s.1 0 0 0c.6.6-.2 1.3-.6.8l-.1-.1c-.5-.5.2-1.2.7-.7zM-113.6 406.2v-.3c0-.6 1-.6 1 0v.3c0 .6-1 .6-1 0zM-109 408.8c0-.7 1-.7 1-.1v.1c0 .7-1 .7-1 0zM-114.7 410.1c.6-.2.9.8.3 1 .3-.1-.1.1-.2.1-.6.2-.9-.8-.3-1l.2-.1zM-121.8 413c-1 0-1-1 0-1s1 1 0 1zM-119.5 406.9c0 .1.1.2.1.3.2.6-.8.9-1 .3 0-.1-.1-.2-.1-.3-.1-.7.8-.9 1-.3zM-111 421.5c.1 0 .1 0 0 0 .6.6-.2 1.3-.6.8l-.1-.1c-.4-.5.3-1.2.7-.7zM-117.1 420.6c.2.3.2.5 0 .8-.3.5-1.1.1-.9-.4-.2-.5.5-.9.9-.4zM-125.3 426.1l1.5-.6c.2-.1.5.1.6.2 1.2 2 2.2.4 3.5.8.9.2 1.4.7 2.1 1.3.2.2 2.1-.8 2.4-.8.6 0 .9.4 1.3.7 1.7 1.8 4.3.1 6.3 1.6 2.3 1.8 1.6-.6 2.9-.8.8-.1 1.2 0 1.9.4 2.4 1.6 3.4-1.1 5.6-.6.4.1.8.4 1.1.5 1.6.6 1.7-.8 2.4-1.3.7-.4 1.2-.5 2-.2 2.3.8 3.7.3 5.9-.6 1.5-.7 2.9-1.3 4.3-2.3 2-1.3 6.4-4.8 6.7-7.5.1-.6 1.1-.6 1 0-.2 2.2-2.4 4.1-3.8 5.6-2.6 2.7-5.7 4.3-9.2 5.7-1 .4-2.8 1.1-4 .6-.7-.3-1.9-.9-2.7-.1-.3.3-.7.8-1.1 1-.8.2-1.5.3-2.3-.1-2-1-2.4 1.3-4 1.3-.9 0-3.5-1.5-3.9-1-.4.6-.9 1.1-1.7 1.1-1.7 0-1.9-1.8-4.1-1.4-1.2.2-1.9.4-3-.2-.4-.2-.7-.6-1-.9-.9-.9-1.7.1-2.6.3-.5.1-.7 0-1.1-.3-1.6-1.4-2.4-.6-3.9-.8-1.3-.2-1.3-1.3-2.8-.8-.7.3-.9-.6-.3-.8z"/><path class="beast-eye-13-st-0" d="M-115 414.9c1.2.3 2.3.9 3.5 1.3 1.3.5 2.8.2 4.2.7 1.3.5 2.3 1.4 3.7 1.8 1.5.4 2.6 1.6 4.3 1.8 2.9.4 6.5-.7 9.3-1.4 3.4-.9 6.6-2.3 9.6-4.1.6-.3 1.1.5.5.9-5.7 3.5-12.2 5.2-18.8 5.7-.9.1-1.8-.1-2.6-.5-.9-.4-1.7-1-2.6-1.3-.7-.3-1.7-.3-2.4-.8s-1.7-1.3-2.5-1.4c-.5-.1-1 0-1.5-.1-1.7-.3-3.2-1.2-4.9-1.7-.7-.1-.4-1 .2-.9zM-100.6 438.9c1.6-.4 3.1-1.1 4.8-1.2 1.4 0 3.1 1.3 4.2-.4.3-.5.5-1 .9-1.4.3-.4 1-.5 1.5-.7 1.3-.4 2.3-.6 3.3-1.6.8-.8 1.5-1 2.5-.8.6.1.4 1.1-.3 1-1.2-.2-2.8 1.6-4 2-1.1.4-2.2.1-2.9 1.5-.3.6-.6 1-1.1 1.4-.7.7-2 .4-2.8.2-2.4-.5-3.8.3-6 .8-.5.3-.7-.7-.1-.8zM-79.8 438.7v-.1c.5.3 0 1.2-.5.9-.2-.1-.4-.3-.4-.5-.2-.7.8-1 .9-.3zM-80.1 433c-.5 0-.6-.7-.3-.9.1-.2.4-.2.6-.1.2.1.3.3.3.5s-.2.5-.4.5h-.2zM-74.4 433.7h.3c.2 0 .4.2.4.4.2.5-.4.7-.7.5-1 .1-1-.9 0-.9zM-74.8 427.9c.7 0 .7 1 .1 1h-.1c-.7 0-.7-1 0-1zM-69.6 427.8c0 .7-1 .7-1 .1v-.1c0-.7 1-.7 1 0zM-114.4 370.2c-3.8-.2-6.5-3-9-5.6-.4-.5.3-1.2.7-.7 2.3 2.4 4.8 5.1 8.3 5.3.6 0 .6 1 0 1zM-93.7 374.8c-3.9-2.5-10.2 0-13.6 2.4-.5.4-1-.5-.5-.9 3.8-2.5 10.4-5 14.7-2.4.5.4 0 1.3-.6.9zM-107.7 385c-1 .5-1.7 1.2-2.7 1.7-1 .4-2.2.4-3.2.6-.6.2-.9-.8-.3-1 1.1-.3 2.3-.2 3.4-.7.9-.4 1.5-1.1 2.4-1.5.5-.3 1 .6.4.9zM-141.4 394.2c.3-.1.7-.3 1-.4.2-.2.6-.4.8-.1.4.7 1 .9 1.8.5.2-.2.6-.2.8.1.3.6.9-.8 1-.9.5-.5.5-.5 1.1-.7.2-.1.4 0 .5.1.5.4.4.9.5 1.5 0 .4-.1.9-.1 1.3-.1.9.6 4.2.7 1.6.1-1.8.1-3.9 1.2-5.4.6-.9 1.9-1.1 2.5-.2.9 1.2-.6 4.2-.8 5.4-.1.6 0 1.5.1 2.1 0 .8.5 1.3 1.5 1.4-.1-.4-.2-.9-.4-1.3-.4-1.3-.4-2.6-.2-3.9.2-1.5 1.4-5 3.4-5 1.7 0 1.4 1.7.8 2.7-2.4 4.6-.4 8.3 3.2 11.5.5.4-.2 1.1-.7.7-2.5-2.2-4.5-4.8-4.7-8.3-.1-1.4.4-2.9 1.1-4 1.2-2.1-.8-.8-1.3.4-.5 1.3-.9 2.1-1 3.5 0 .6 1.9 5.5.1 5.5-2.5.1-2.9-2.9-3-4.8-.1-.9.3-1.9.6-2.7.2-.8.4-1.5.5-2.3-.8-.2-1.2 0-1.3.8-.1.3-.2.6-.2.9-.2 1.1.2 4.9-1.1 5.4-2.4 1-1.9-3.8-1.8-4.8.2-1.8-.9.6-1.4.8-.6.2-.9-.1-1.2-.5-1 .7-1.5.4-2.4-.5-.5.6-1.1.7-2 .2-.7 0-.2-.9.4-.6z"/></g></svg>