<svg xmlns="http://www.w3.org/2000/svg" width="305.834" height="112" viewBox="0 0 305.834 112"><path fill="#D72251" d="M174.732 91l72.84-40.244L267.1 71l-19.53 20.244z"/><path fill="#F0A733" d="M229 83.535l-40.29-.136L229 61.14z"/><path fill="#0C3846" d="M225 63.352l-29.512 16.304 29.512.1z"/><path fill="#D72251" d="M131.102 91l-72.84-40.244L38.733 71l19.53 20.244z"/><path fill="#F0A733" d="M77 83.535l40.29-.136L77 61.14z"/><path fill="#0C3846" d="M81 63.352l29.512 16.304-29.512.1z"/><path fill="#F0A733" d="M74.292 35.74l79.12 43.304 78.13-43.305-12.81-17.043-65.4 36.25-66.23-36.25z"/><path fill="#F0A733" d="M119.83 19l33.296 18.225L186.006 19z"/></svg>