<svg xmlns="http://www.w3.org/2000/svg" width="305.834" height="112" viewBox="0 0 305.834 112"><path fill="#D72050" d="M200.79 82.211c4.868 2.919 9.002 7.02 12.587 11.422.306.377.609.759.913 1.14a33.96 33.96 0 0 0 6.409.612c15.783 0 28.578-10.721 28.578-23.947 0-13.226-12.795-23.948-28.578-23.948s-28.578 10.722-28.578 23.948c0 2.675.531 5.244 1.497 7.646 2.518.709 4.918 1.776 7.172 3.127z"/><path fill="#0B3746" d="M255.649 33.181c-5.869-10.99-11.021-10.811-11.686-15.006-.665-4.194 4.634-5.637 3.969-9.831C247 2.461 241.305 1.4 241.305 1.4s3.345 1.183 3.001 7.629c-.251 4.73-9.479 5.353-8.814 9.547.665 4.195 1.963 8.374-4.842 9.663-5.351 1.014-16.147-6.363-4.103-12.19 8.154-3.945 2.774-10.23 2.774-10.23-.242 5.753-8.286 4.671-14.526 7.925-3.568 1.862-4.012 6.463-3.739 10.064-2.06-1.846-3.199-4.272-2.221-7.43.587-1.895 1.561-3.891.849-5.913-.651-1.852-2.871-2.869-4.527-1.507 5.531.619-1.426 8.396-2.275 10.06-2.875 5.629-.698 9.954 1.416 13.45 0 0-.346 1.156-4.424-1.677-4.08-2.833-3.854-5.218-3.854-5.218s-2.133 15.179 3.506 18.931c0 0-3.278.113-5.824-5.005-2.447-4.917-2.262-8.594-2.262-8.594s-3.864 7.553-4.217 17.601c-.084 2.394.152 4.34.481 5.848l-3.121-8.592s-5.831 17.568 4.881 29.621a23.11 23.11 0 0 1-.342-3.945c0-14.859 14.166-26.948 31.578-26.948 10.238 0 19.351 4.183 25.124 10.648 9.918.58 15.725-10.909 9.825-21.957z"/><path fill="#FCDCA4" d="M243.747 71.438c0 10.667-10.318 19.314-23.048 19.314s-23.048-8.647-23.048-19.314 10.318-19.314 23.048-19.314 23.048 8.647 23.048 19.314"/><path fill="#F0A732" d="M210.617 71.438c0 5.568 4.514 10.082 10.082 10.082 5.567 0 10.082-4.514 10.082-10.082s-4.515-10.082-10.082-10.082c-5.568-.001-10.082 4.513-10.082 10.082"/><path fill="#0B3746" d="M224.586 71.438a4.168 4.168 0 1 1-8.338 0 4.169 4.169 0 1 1 8.338 0"/><path fill="#FCDCA4" d="M225.358 71.102a2.06 2.06 0 1 1-4.118 0 2.06 2.06 0 0 1 4.118 0"/><path fill="#0B3746" d="M194.278 62.296l.206-.767c.124-.512.391-1.24.815-2.156a16.937 16.937 0 0 1 1.961-3.138 23.242 23.242 0 0 1 3.479-3.517c2.857-2.315 6.796-4.456 11.526-5.741 4.713-1.281 10.252-1.736 15.907-.592 2.818.584 5.507 1.548 7.923 2.833.604.319 1.198.646 1.76 1.02.572.353 1.126.72 1.646 1.126.534.385 1.048.784 1.525 1.218l.722.629.594.537c1.57 1.362 3.272 2.507 4.94 3.22 1.671.72 3.312 1.013 4.787.833 1.496-.145 2.717-.919 3.772-1.647.468-.445.937-.846 1.341-1.253.362-.451.694-.864.994-1.235.324-.362.524-.743.727-1.058a404.333 404.333 0 0 1 .931-1.48l-.226.758-.285.926c-.119.365-.225.804-.461 1.248l-.728 1.529c-.326.53-.734 1.085-1.162 1.701-1 1.087-2.342 2.384-4.324 2.976-1.942.623-4.254.582-6.475-.019-2.236-.601-4.393-1.687-6.479-3.147l-.762-.562-.66-.471a15.447 15.447 0 0 0-1.367-.91 15.96 15.96 0 0 0-1.449-.84 17.63 17.63 0 0 0-1.525-.763c-2.086-.965-4.367-1.709-6.775-2.209-4.83-.978-9.669-.901-13.971-.197-4.312.706-8.089 2.062-11.024 3.663-2.933 1.615-4.987 3.49-6.192 4.984-.601.747-1.038 1.372-1.285 1.821l-.406.68M268.824 73.953c-.336.574-.729 1.467-1.408 2.527-1.246 2.173-3.284 5.186-6.173 8.551-2.882 3.371-6.74 7.01-11.505 10.323-2.401 1.622-4.999 3.21-7.837 4.545-2.838 1.326-5.878 2.461-9.077 3.259a36.551 36.551 0 0 1-9.656 1.167c.573.425 1.167.825 1.788 1.188a19.1 19.1 0 0 0 4.085 1.779 35.49 35.49 0 0 0 4.59-.858c3.466-.862 6.715-2.138 9.697-3.638 2.983-1.51 5.661-3.305 8.091-5.144 4.821-3.749 8.52-7.845 11.15-11.579 2.64-3.732 4.341-7.016 5.317-9.354.542-1.144.818-2.095 1.069-2.708l.351-.95s-.165.308-.482.892z"/><g fill="#0B3746"><path d="M213.377 93.633c.761.936 1.513 1.891 2.27 2.844.715.076 1.435.14 2.162.172 2.455.082 4.848-.08 7.128-.414a40.91 40.91 0 0 0 6.435-1.588c3.982-1.41 7.352-3.291 9.777-5.373 2.455-2.053 3.964-4.203 4.738-5.775.187-.398.366-.743.49-1.055.105-.32.194-.592.268-.811l.212-.66-.346.604-.411.725c-.178.277-.416.576-.662.922-1.015 1.356-2.755 3.104-5.285 4.688-5.022 3.176-13.202 5.721-22.207 5.366a40.5 40.5 0 0 1-5.388-.621c.274.323.551.648.819.976zM193.267 78.979c.259.069.513.154.769.23-.128-.247-.249-.485-.362-.705l-1.023-2.471s.165.934.527 2.648c.027.094.059.2.089.298z"/></g><path fill="#0B3746" d="M259.588 98.838s-.937.806-2.711 2.17c-1.786 1.346-4.411 3.281-8.033 5.137-3.601 1.82-8.363 3.561-13.958 3.533-2.777-.029-5.75-.501-8.621-1.708-2.898-1.189-5.493-3.224-7.676-5.513-2.199-2.299-3.985-4.73-5.721-6.971-1.724-2.24-3.452-4.311-5.224-6.167-3.524-3.721-7.24-6.516-10.724-8.216-3.479-1.723-6.617-2.443-8.805-2.673a23.39 23.39 0 0 0-2.547-.15l-.896.013s.305-.055.885-.156a20.77 20.77 0 0 1 2.578-.233c2.25-.083 5.592.226 9.45 1.649 3.861 1.396 8.111 4.041 12.059 7.74 1.98 1.84 3.901 3.933 5.745 6.177 1.843 2.229 3.626 4.556 5.633 6.649 2.003 2.094 4.154 3.821 6.542 4.895 2.388 1.096 4.944 1.643 7.42 1.818 4.989.33 9.533-.85 13.176-2.23 3.651-1.404 6.48-2.96 8.426-4.034l3.002-1.73M284.371 41.79s-.208.571-.645 1.582a41.07 41.07 0 0 1-2.103 4.172c-1.95 3.426-5.241 7.939-9.936 11.842-2.335 1.949-4.845 3.575-7.347 4.636-2.494 1.078-4.959 1.557-6.997 1.596-2.049.049-3.671-.295-4.729-.64-1.063-.346-1.598-.638-1.598-.638s.608.092 1.686.117c1.073.027 2.62-.068 4.425-.514 1.81-.439 3.851-1.242 5.944-2.472 2.101-1.216 4.249-2.838 6.456-4.681 4.423-3.676 8.146-7.381 10.729-10.24a114.335 114.335 0 0 0 3.02-3.456l1.095-1.304M297.939 65.727l-1.821-.227-.963-.133c-.352-.037-.741-.051-1.153-.082-.825-.043-1.75-.161-2.784-.133-.514-.004-1.051-.01-1.609-.016-.559-.003-1.14.059-1.738.081-1.195.021-2.465.206-3.792.34-2.647.382-5.511.97-8.449 1.849a58.667 58.667 0 0 0-8.028 3.211c-1.174.636-2.328 1.193-3.329 1.849-.508.317-1.024.592-1.484.908l-1.323.916c-.873.557-1.57 1.173-2.229 1.674-.323.257-.638.485-.909.714l-.722.65-1.38 1.209.981-1.557.544-.832c.21-.298.462-.599.724-.934.536-.657 1.113-1.45 1.885-2.198l1.185-1.211c.418-.416.9-.793 1.38-1.212.947-.859 2.074-1.621 3.257-2.443 2.42-1.543 5.279-2.972 8.461-3.971 3.192-.958 6.36-1.382 9.229-1.462 1.44.017 2.801.015 4.067.194.632.076 1.243.119 1.822.229.577.117 1.132.229 1.66.338 1.058.186 1.981.518 2.793.76.404.131.782.24 1.122.367l.918.385 1.685.737M264.284 47.976l1.525-1.958a40.334 40.334 0 0 0 3.481-5.598c1.238-2.441 2.449-5.449 3.101-8.875.694-3.408.805-7.225.051-11.025-.725-3.818-2.408-7.166-4.463-9.885a27.732 27.732 0 0 0-6.895-6.199c-2.301-1.487-4.406-2.365-5.851-3.029L252.923.5s.881.029 2.503.14c1.595.215 3.964.497 6.766 1.52 2.797.988 6.036 2.759 8.978 5.637 2.873 2.902 5.341 7.004 6.234 11.723.936 4.701.409 9.326-.888 13.131-1.257 3.842-3.234 6.898-5.118 9.171a29.096 29.096 0 0 1-5.033 4.758c-.646.487-1.19.81-1.54 1.047-.353.229-.541.349-.541.349"/><path fill="#D72050" d="M118.177 79.08a20.41 20.41 0 0 0 1.496-7.643c0-13.226-12.795-23.948-28.578-23.948S62.517 58.211 62.517 71.437c0 13.227 12.795 23.947 28.578 23.947 2.203 0 4.345-.216 6.405-.611-.465.584-.938 1.167-1.406 1.753l.011-.001c.771-.969 1.534-1.941 2.309-2.893 3.585-4.402 7.714-8.503 12.584-11.422 2.774-1.663 5.768-2.901 8.935-3.553-.592.121-1.177.261-1.756.423z"/><g fill="#0B3746"><path d="M65.971 55.138c5.773-6.465 14.885-10.648 25.124-10.648 17.412 0 31.578 12.088 31.578 26.948 0 1.347-.13 2.666-.355 3.96 10.73-12.053 4.895-29.636 4.895-29.636l-3.122 8.594c.33-1.508.566-3.455.482-5.85-.352-10.048-4.217-17.601-4.217-17.601s.186 3.677-2.261 8.594c-2.546 5.118-5.825 5.005-5.825 5.005 5.64-3.752 3.506-18.931 3.506-18.931s.226 2.385-3.854 5.218c-4.078 2.833-4.423 1.677-4.423 1.677 2.113-3.496 4.29-7.821 1.415-13.45-.85-1.664-7.807-9.441-2.275-10.06-1.657-1.362-3.876-.345-4.528 1.507-.711 2.022.262 4.018.85 5.913.977 3.158-.162 5.584-2.222 7.43.273-3.601-.171-8.202-3.739-10.064-6.239-3.254-14.284-2.172-14.526-7.925 0 0-5.38 6.285 2.774 10.23 12.045 5.827 1.248 13.204-4.103 12.19-6.804-1.289-5.506-5.468-4.841-9.663.665-4.194-8.564-4.817-8.815-9.547-.344-6.446 3-7.629 3-7.629s-5.695 1.061-6.628 6.944c-.665 4.194 4.634 5.637 3.969 9.831-.665 4.195-5.816 4.016-11.685 15.006-5.9 11.048-.094 22.537 9.826 21.957z"/><path d="M77.485 50.375a29.592 29.592 0 0 0-4.371 2.453 189.242 189.242 0 0 1 4.371-2.453z"/></g><path fill="#FCDCA4" d="M68.046 71.438c0 10.667 10.319 19.314 23.048 19.314s23.048-8.647 23.048-19.314-10.319-19.314-23.048-19.314-23.048 8.647-23.048 19.314"/><path fill="#F0A732" d="M101.177 71.438c0 5.568-4.514 10.082-10.082 10.082-5.568 0-10.082-4.514-10.082-10.082s4.514-10.082 10.082-10.082c5.568-.001 10.082 4.513 10.082 10.082"/><path fill="#0B3746" d="M87.208 71.438a4.169 4.169 0 1 0 8.338 0 4.169 4.169 0 0 0-8.338 0"/><path fill="#FCDCA4" d="M86.435 71.102a2.06 2.06 0 1 0 4.118 0 2.06 2.06 0 0 0-4.118 0"/><g fill="#0B3746"><path d="M118.529 78.976l.089-.294c.362-1.715.528-2.648.528-2.648l-1.025 2.471-.361.701c.256-.077.51-.161.769-.23zM65.417 82.443c.124.312.304.656.491 1.055.773 1.572 2.283 3.723 4.738 5.775 2.426 2.082 5.795 3.963 9.778 5.373 2.002.67 4.158 1.22 6.434 1.588 2.28.334 4.673.496 7.128.414a33.99 33.99 0 0 0 2.158-.172c.757-.953 1.509-1.908 2.27-2.844.268-.328.544-.651.818-.977-1.732.316-3.53.535-5.383.621-9.005.354-17.185-2.19-22.207-5.366-2.53-1.585-4.271-3.332-5.285-4.688-.246-.346-.485-.645-.662-.922-.163-.285-.3-.529-.411-.725l-.346-.604.212.66.267.812z"/></g><path fill="#0B3746" d="M117.516 62.296s-.14-.233-.405-.68c-.248-.449-.686-1.074-1.286-1.821-1.206-1.494-3.26-3.369-6.193-4.984-2.935-1.601-6.713-2.957-11.024-3.663-4.302-.704-9.141-.781-13.971.197-2.408.5-4.689 1.244-6.775 2.209-.522.239-1.039.48-1.526.763a15.96 15.96 0 0 0-1.449.84c-.475.286-.936.582-1.367.91l-.66.471-.762.562c-2.086 1.461-4.242 2.547-6.478 3.147-2.221.601-4.533.642-6.475.019-1.983-.592-3.323-1.889-4.324-2.976-.429-.616-.836-1.171-1.162-1.701l-.728-1.529c-.236-.444-.342-.883-.461-1.248l-.285-.926-.226-.758a208.611 208.611 0 0 0 .931 1.48c.202.315.402.696.727 1.058l.994 1.235c.404.407.873.808 1.339 1.253 1.057.728 2.278 1.502 3.774 1.647 1.475.18 3.116-.113 4.787-.833 1.668-.713 3.37-1.858 4.94-3.22l.594-.537.722-.629c.477-.434.991-.833 1.525-1.218a18.305 18.305 0 0 1 1.647-1.126 19.817 19.817 0 0 1 1.76-1.02c2.416-1.285 5.104-2.249 7.922-2.833 5.656-1.144 11.195-.689 15.908.592 4.73 1.285 8.669 3.426 11.526 5.741a23.29 23.29 0 0 1 3.479 3.517 16.926 16.926 0 0 1 1.96 3.138c.425.916.692 1.645.816 2.156.134.503.206.767.206.767M60.375 97.653c2.43 1.839 5.108 3.634 8.091 5.144 2.983 1.5 6.232 2.775 9.697 3.638 1.525.397 3.059.669 4.588.858a19.15 19.15 0 0 0 4.085-1.779 20.011 20.011 0 0 0 1.788-1.188 36.582 36.582 0 0 1-9.655-1.168c-3.199-.798-6.239-1.933-9.077-3.259-2.838-1.335-5.436-2.923-7.838-4.545-4.764-3.313-8.622-6.952-11.504-10.323-2.889-3.365-4.927-6.378-6.173-8.551-.678-1.061-1.072-1.953-1.408-2.527l-.482-.892.349.95c.252.613.529 1.564 1.071 2.708.976 2.339 2.677 5.622 5.317 9.354 2.631 3.736 6.33 7.831 11.151 11.58z"/><path fill="#0B3746" d="M52.206 98.838l3.001 1.729c1.945 1.074 4.774 2.63 8.426 4.034 3.642 1.381 8.186 2.561 13.175 2.23 2.476-.176 5.033-.723 7.42-1.818 2.388-1.073 4.539-2.801 6.542-4.895 2.007-2.094 3.79-4.42 5.634-6.649 1.844-2.244 3.764-4.337 5.745-6.177 3.947-3.699 8.197-6.344 12.058-7.74 3.858-1.424 7.2-1.732 9.45-1.649 1.129.034 1.996.144 2.578.233l.885.156-.896-.013c-.585.003-1.449.026-2.545.15-2.189.229-5.327.95-8.805 2.673-3.485 1.7-7.2 4.495-10.725 8.216-1.771 1.856-3.5 3.927-5.222 6.167-1.737 2.24-3.522 4.672-5.722 6.971-2.183 2.289-4.777 4.323-7.676 5.513-2.871 1.207-5.844 1.679-8.62 1.708-5.596.027-10.358-1.713-13.958-3.533-3.623-1.855-6.248-3.791-8.034-5.137-1.775-1.363-2.711-2.169-2.711-2.169M27.423 41.79l1.093 1.305c.699.838 1.726 2.031 3.019 3.456 2.583 2.859 6.307 6.564 10.729 10.24 2.208 1.843 4.357 3.465 6.457 4.681 2.093 1.229 4.134 2.032 5.944 2.472 1.805.445 3.352.541 4.425.514 1.077-.025 1.685-.117 1.685-.117s-.534.292-1.597.638c-1.058.345-2.68.688-4.729.64-2.038-.039-4.503-.518-6.997-1.596-2.502-1.061-5.012-2.687-7.347-4.636-4.694-3.903-7.985-8.416-9.935-11.842a41.282 41.282 0 0 1-2.103-4.172c-.436-1.012-.644-1.583-.644-1.583M13.854 65.727l1.687-.736.918-.385c.34-.127.718-.236 1.122-.367.812-.242 1.736-.574 2.793-.76.529-.109 1.083-.221 1.66-.338.58-.109 1.191-.152 1.823-.229 1.266-.18 2.627-.178 4.066-.194 2.87.08 6.038.504 9.231 1.462 3.181.999 6.041 2.428 8.46 3.971 1.183.822 2.31 1.584 3.257 2.443.48.419.961.796 1.38 1.212l1.185 1.211c.771.748 1.349 1.541 1.885 2.198.261.335.513.636.723.934l.544.832.982 1.557-1.38-1.209-.722-.65c-.271-.229-.586-.457-.909-.714-.659-.501-1.357-1.117-2.23-1.674l-1.323-.916c-.46-.316-.976-.591-1.484-.908-1.002-.655-2.156-1.213-3.329-1.849a58.697 58.697 0 0 0-8.03-3.211 58.847 58.847 0 0 0-8.448-1.849c-1.327-.134-2.596-.319-3.792-.34-.598-.022-1.18-.084-1.738-.081-.559.006-1.096.012-1.609.016-1.035-.028-1.959.09-2.785.133-.412.031-.801.045-1.154.082l-.962.133-1.821.226M47.51 47.976l-.54-.338c-.348-.231-.889-.544-1.534-1.018a28.676 28.676 0 0 1-5.027-4.648c-1.887-2.229-3.873-5.235-5.137-9.036-1.299-3.762-1.829-8.356-.856-13.01.49-2.317 1.304-4.523 2.422-6.463a23.388 23.388 0 0 1 3.908-5.059 24.437 24.437 0 0 1 8.952-5.44c2.775-.987 5.121-1.237 6.697-1.44 1.604-.1 2.475-.125 2.475-.125l-2.286.893c-1.429.652-3.519 1.501-5.803 2.96a27.47 27.47 0 0 0-6.888 6.04c-2.082 2.644-3.774 5.927-4.523 9.675-.778 3.731-.669 7.491.024 10.848.652 3.374 1.868 6.335 3.109 8.736a39.725 39.725 0 0 0 3.485 5.502l1.522 1.923"/><ellipse fill="#D72050" cx="155.712" cy="32.119" rx="16.095" ry="19.207"/><path fill="#FCDCA4" d="M155.712 47.609c-7.169 0-12.98-6.935-12.98-15.49s5.811-15.49 12.98-15.49 12.98 6.935 12.98 15.49-5.811 15.49-12.98 15.49"/><path fill="#F0A732" d="M155.712 25.343a6.776 6.776 0 1 0 0 13.553 6.776 6.776 0 0 0 0-13.553"/><path fill="#0B3746" d="M155.712 34.731a2.802 2.802 0 1 1 0-5.604 2.802 2.802 0 0 1 0 5.604"/><path fill="#FCDCA4" d="M155.938 35.25a1.385 1.385 0 1 1 0-2.77 1.385 1.385 0 0 1 0 2.77"/><path fill="#0B3746" d="M148.358 58.516l.172-.013c.111-.017.279.005.486-.054.418-.09.999-.372 1.528-.95.526-.574.989-1.454 1.138-2.515.161-1.059-.11-2.278-.845-3.299-.411-.512-.857-.924-1.5-1.385a85.042 85.042 0 0 0-2.053-1.427l-2.251-1.549c-.772-.552-1.571-1.121-2.392-1.871-3.215-2.917-5.372-7.589-5.345-12.601.012-5.007 2.005-9.5 4.53-12.779 1.249-1.635 2.505-2.997 3.531-4.335 1.039-1.331 1.818-2.624 2.337-3.941 1.049-2.637 1.272-5.067 1.413-6.708.122-1.658.13-2.589.13-2.589s.203.904.397 2.579c.167 1.666.401 4.157-.333 7.232-.36 1.533-1.083 3.177-2.038 4.726-.942 1.564-2.087 3.083-3.105 4.67-2.015 3.109-3.477 7.01-3.487 11.149-.023 4.105 1.549 7.984 3.97 10.571.584.632 1.298 1.254 1.99 1.856l2.056 1.758c.67.575 1.318 1.145 1.926 1.716.297.262.619.632.913.954.293.333.516.726.744 1.082.808 1.538.863 3.195.453 4.428-.398 1.248-1.117 2.14-1.827 2.671-.719.533-1.412.698-1.863.7-.225.015-.396-.045-.507-.052a5.718 5.718 0 0 0-.168-.024M138.604 49.708l.031.589c-.008.37.069.904.164 1.524a7.016 7.016 0 0 0 2.298 3.915c1.357 1.167 2.961 1.887 4.18 2.315.61.211 1.127.371 1.489.455.365.1.569.154.569.154l-.581.109c-.378.073-.931.123-1.625.112-1.362-.028-3.402-.393-5.144-1.877a6.09 6.09 0 0 1-1.764-2.634c-.341-.931-.316-1.825-.266-2.524.115-.703.255-1.241.42-1.594l.229-.544M163.773 58.516l-.168.025c-.11.007-.282.066-.507.052-.451-.002-1.145-.167-1.863-.7-.71-.531-1.429-1.423-1.826-2.671-.41-1.233-.356-2.89.453-4.428.228-.356.451-.749.743-1.082.294-.322.616-.692.913-.954a57.972 57.972 0 0 1 1.926-1.716c.663-.567 1.35-1.153 2.056-1.758.692-.602 1.407-1.224 1.991-1.856 2.42-2.587 3.992-6.466 3.97-10.571-.01-4.139-1.472-8.04-3.487-11.149-1.018-1.587-2.163-3.106-3.104-4.67-.956-1.549-1.679-3.193-2.038-4.726-.734-3.075-.5-5.566-.333-7.232.193-1.675.396-2.579.396-2.579s.007.931.13 2.589c.142 1.641.364 4.071 1.413 6.708.52 1.317 1.298 2.61 2.337 3.941 1.026 1.338 2.282 2.7 3.531 4.335 2.525 3.279 4.519 7.772 4.53 12.779.027 5.012-2.13 9.684-5.345 12.601-.821.75-1.62 1.319-2.393 1.871l-2.251 1.549c-.722.489-1.408.961-2.053 1.427-.645.461-1.089.873-1.5 1.385-.735 1.021-1.007 2.24-.845 3.299.148 1.061.611 1.941 1.138 2.515.529.578 1.11.86 1.528.95.206.059.374.037.485.054l.173.012M173.528 49.708l.229.545c.165.353.305.891.42 1.594.05.699.075 1.593-.267 2.524a6.078 6.078 0 0 1-1.763 2.634c-1.743 1.484-3.783 1.849-5.145 1.877-.694.011-1.247-.039-1.625-.112l-.58-.109.567-.154c.363-.084.879-.244 1.49-.455 1.218-.428 2.822-1.148 4.18-2.315a7.021 7.021 0 0 0 2.298-3.915c.095-.62.172-1.154.164-1.524.022-.379.032-.59.032-.59"/><path fill="#0B3746" d="M140.984 13.15l-2.834 4.477c-1.672 2.765-4.015 6.683-4.774 11.407-.709 4.733.398 9.157 1.379 12.218.498 1.542.969 2.78 1.309 3.63l.532 1.322s-.285-.421-.768-1.205a34.83 34.83 0 0 1-1.858-3.438c-.706-1.498-1.442-3.351-1.935-5.524-.5-2.163-.714-4.67-.327-7.26.412-2.587 1.366-4.905 2.449-6.831 1.084-1.936 2.268-3.523 3.304-4.805a61.84 61.84 0 0 1 2.549-2.948l.974-1.043M171.116 13.15l.975 1.043a61.84 61.84 0 0 1 2.549 2.948c1.036 1.282 2.22 2.869 3.304 4.805 1.083 1.926 2.037 4.244 2.449 6.831.387 2.59.173 5.097-.327 7.26-.493 2.173-1.229 4.026-1.935 5.524a34.83 34.83 0 0 1-1.858 3.438c-.482.784-.768 1.205-.768 1.205l.531-1.322c.341-.85.812-2.088 1.31-3.63.979-3.061 2.088-7.485 1.379-12.218-.759-4.724-3.103-8.642-4.774-11.407l-2.835-4.477"/></svg>