<svg xmlns="http://www.w3.org/2000/svg" width="305.834" height="112" viewBox="0 0 305.834 112"><defs><path id="#nav-eye-9-id-1" d="M-.088 0h306.01v112H-.088z"/></defs><path id="nav-eye-9-id-2" clip-path="url(#nav-eye-9-id-1)" fill="#FCDCA4" d="M305.912 23.635c0-8.04-.627-15.932-1.824-23.635H1.735A153.843 153.843 0 0 0-.088 23.635V112h306v-6l-69.793-8.373s22.74-10.625 23.03-31.44c.28-19.937-9.93-26.802-9.93-26.802l56.69-5.43v-10.32zm-134.625 65.74L155.412 48.25l36.625-4c-.625 1.25-8.125 4.75-8.25 22.375S197.287 93 197.287 93l-26-3.625z"/><path clip-path="url(#beast-eye-9-id-2)" fill="#F0A733" d="M221.365 63.924l7.654-21.854-21.108 1.014s-10.545 6.88-10.26 20.47c.287 13.593 12.92 24.242 24.598 24.21 16.787-.05 24.162-11.14 24.596-24.21.44-13.275-1.35-13.32-1.35-13.32l-23.81 14.645-.32-.956z"/><path clip-path="url(#beast-eye-9-id-2)" fill="#0C3846" d="M305.488 38.832c-.215-.034-.48-.08-.785-.084s-.652.005-1.023.077a5.254 5.254 0 0 0-2.348 1.026 4.765 4.765 0 0 0-1.01 1.078c-.283.433-.506.862-.64 1.405-.087.29-.093.477-.116.684l-.062.556c-.074.324-.16.664-.316.978-.293.64-.723 1.2-1.123 1.65-.396.46-.775.812-1.047 1.05-.27.245-.438.373-.438.373s.807-.25 1.89-.953a7.252 7.252 0 0 0 1.67-1.52c.278-.33.51-.733.696-1.18.045-.11.074-.23.113-.35l.052-.178c.004-.01.025-.11.016-.04l.025-.075c.06-.196.123-.42.193-.513.113-.25.322-.54.53-.755.214-.227.472-.4.722-.56.262-.144.525-.264.79-.35.263-.087.52-.15.763-.187a4.19 4.19 0 0 1 .66-.063c.2-.016.372-.008.517 0 .28.026.695.037.695.037l.01-1.938s0-.09-.434-.168m-25.6 12.73c1.146-.39 1.876-1.162 2.394-1.835a10.68 10.68 0 0 0 1.162-1.99c.574-1.236.89-2.265 1.264-2.856.184-.29.38-.465.564-.534.182-.076.31-.053.31-.063-.005.013-.09-.08-.32-.137-.228-.06-.632-.003-1.013.24-.772.47-1.524 1.406-2.313 2.437-.406.508-.81 1.06-1.277 1.522-.45.478-.973.83-1.432.904-.443.067-1.1-.04-1.557-.31-.49-.28-.995-.847-1.68-1.5-.667-.66-1.563-1.346-2.563-1.747-.498-.215-1-.343-1.518-.446-.267-.033-.532-.084-.796-.116-.252-.02-1.375.043-1.375.043-.25.023-.493.05-.73.09-.474.12-.933.233-1.347.43a6.382 6.382 0 0 0-2.037 1.42c-1.045 1.083-1.518 2.197-1.78 2.965-.247.783-.274 1.25-.274 1.25s.31-.353.855-.898c.547-.537 1.342-1.29 2.36-1.88a5.892 5.892 0 0 1 1.66-.697c.595-.176 1.2-.19 1.888-.126.197.022.438.03.602.065.154.036.307.074.46.1.312.087.653.182.944.332.612.274 1.14.69 1.747 1.244.6.556 1.326 1.3 2.39 1.826 1.093.496 2.253.624 3.412.267m10.438 8.55s-.56-1.124-2.006-2.307a8.865 8.865 0 0 0-1.242-.865 9.262 9.262 0 0 0-1.557-.733c-.57-.194-1.186-.37-1.83-.437a5.488 5.488 0 0 0-1.006-.045c-.35.01-.723.038-.984.1l-.432.077-.106.02-.053.01-.013.004-.068.013-.01.002-.028.01-.242.08c-.316.118-.64.183-.94.35-.606.28-1.17.653-1.628 1.094-.242.21-.45.44-.623.69-.198.23-.34.487-.483.73-.275.49-.434.995-.562 1.446-.11.46-.186.88-.207 1.252-.02.375-.016.698 0 .962.027.527.11.818.11.818s.06-.295.198-.785c.072-.244.172-.536.305-.855.136-.32.29-.674.493-1.032.213-.353.467-.714.77-1.04a4.43 4.43 0 0 1 1.044-.878c.38-.26.83-.432 1.29-.568.218-.093.48-.098.718-.153l.18-.035.023-.01.006-.01.014.003.11.01.435-.04c.316-.048.53-.01.762-.016.22-.015.475.012.727.023.498.023 1.002.07 1.484.178.488.078.96.2 1.408.338.455.12.877.284 1.275.427a28.376 28.376 0 0 1 2.668 1.172m-8.94-2.11h.017-.016m22.965 1.758a8.943 8.943 0 0 0-1.7.39c-.31.14-.704.265-.937.438l-.38.254-.216.145-.146.11c-.424.277-1 .42-1.54.494-.548.073-1.08.08-1.536.062-.912-.035-1.52-.15-1.52-.15s.57.235 1.478.46c.455.11.994.217 1.596.26.6.035 1.27.03 1.96-.228l.253-.115c.02-.008.133-.07.08-.032l.105-.044.426-.17c.293-.132.5-.098.727-.162.242-.026.504-.036.732-.052l.674.026c.423.038.767.09 1.005.137.242.05.498.08.498.08v-1.978s-.05-.013-.34-.01c-.3.003-.72.025-1.218.083m-21.084 5.366c.126-.248.126-.18.183-.275.268-.277.607-.39 1.05-.35.437.028.882.215 1.237.432.35.223.643.452.834.627l.31.275s.01-.143 0-.425a2.992 2.992 0 0 0-.347-1.18 3.034 3.034 0 0 0-1.53-1.406c-.77-.375-2.11-.32-2.995.558-.21.198-.494.572-.555.697l-.082.132-.02.034-.062.113-.047.105c-.066.142-.12.29-.166.445-.178.617-.16 1.266-.05 1.83.23 1.137.71 2.074 1.175 2.978.47.894.95 1.775 1.22 2.58.118.328.177.797.226 1.272.046.468.06.94.032 1.404-.047.93-.275 1.808-.666 2.49a3.043 3.043 0 0 1-1.727 1.405 5.13 5.13 0 0 1-.577.15l-.273.047-.355.033c-.36.026-.756.028-1.1-.037a3.684 3.684 0 0 1-1.807-.934c-.516-.455-.898-1.02-1.223-1.543a12.734 12.734 0 0 1-.738-1.453c-.367-.85-.533-1.376-.533-1.376s-.104.544-.04 1.514c.036.483.11 1.075.304 1.743.186.67.498 1.422 1.05 2.166.554.725 1.41 1.45 2.513 1.757.548.156 1.1.232 1.698.223l.37-.012.454-.045c.29-.04.578-.094.873-.174 1.178-.292 2.375-1.11 3.088-2.223.73-1.107 1.016-2.364 1.12-3.557.054-.602.048-1.196.007-1.787a7.207 7.207 0 0 0-.346-1.84c-.406-1.19-.998-2.1-1.48-2.96-.484-.85-.955-1.637-1.125-2.298-.09-.327-.138-.597-.097-.814.012-.047-.03-.096-.025-.14l.133-.018.09-.168zm-.358.13v-.004c0-.002.004.004.006.007l-.006-.002zm13.176 1.826a6.957 6.957 0 0 0-1.215-.727c-.3-.13-.46-.185-.46-.185s.464.524 1.063 1.48a8.41 8.41 0 0 1 .83 1.76c.21.683.326 1.446.174 2.21-.057.365-.19.82-.363 1.078a3.46 3.46 0 0 1-.783.855c-.71.58-1.754 1.14-2.842 1.876-1.088.727-2.248 1.706-3.088 3.008-.846 1.297-1.3 2.824-1.453 4.29a14.453 14.453 0 0 0-.052 2.19c.02.34.016.637.06 1.01.048.37.085.745.147 1.11.248 1.42.793 2.882 1.764 4.06.976 1.18 2.33 1.895 3.522 2.274.607.193 1.188.318 1.73.424.544.09.854.16 1.216.327.71.308 1.293.816 1.71 1.344.42.533.68 1.094.79 1.59.113.5.088.933.037 1.232-.053.3-.113.465-.113.465l.05.037s.144-.1.368-.355c.213-.26.494-.71.61-1.377.118-.662.05-1.517-.33-2.392a5.366 5.366 0 0 0-2.108-2.41c-.508-.32-1.197-.557-1.7-.688-.5-.145-.997-.288-1.462-.48-.953-.342-1.78-.854-2.393-1.6-.615-.742-1.04-1.747-1.236-2.893l-.114-.836c-.04-.28-.037-.644-.057-.963-.038-.573.01-1.197.08-1.77.155-1.163.524-2.23 1.146-3.104.62-.88 1.47-1.578 2.426-2.247.953-.674 2.027-1.294 3.01-2.246.484-.48.945-1.04 1.225-1.757.28-.715.336-1.298.35-1.92a5.543 5.543 0 0 0-.957-3.03 6.646 6.646 0 0 0-1.582-1.64m1.14 14.323c.044-.118.13-.293.257-.42.236-.282.578-.486.922-.585.7-.208 1.412-.007 1.854.23.228.112.396.228.513.308l.184.122c-.018.015-.12-.286-.496-.69a3.095 3.095 0 0 0-.8-.64 2.89 2.89 0 0 0-1.373-.35 3.044 3.044 0 0 0-1.693.54 2.62 2.62 0 0 0-.744.78c-.06.105-.113.214-.162.325l-.08.212c-.072.274-.104.42-.105.66-.01.44.13.91.338 1.267.202.36.454.664.708.904.512.5 1.04.882 1.58 1.217a14.33 14.33 0 0 0 1.643.86c.26.124.565.23.786.327.205.076.38.18.553.287.687.414 1.132 1.148 1.395 1.91.248.762.355 1.5.398 2.018.05.522.057.838.057.838s.186-.256.406-.764c.205-.51.475-1.272.48-2.287a4.776 4.776 0 0 0-.285-1.67c-.208-.592-.6-1.187-1.118-1.686a5.203 5.203 0 0 0-.877-.63c-.29-.17-.514-.303-.78-.44-.497-.258-1.005-.52-1.51-.785-.497-.253-.987-.502-1.366-.767-.386-.282-.616-.49-.673-.702-.02-.038-.03-.174-.043-.164.01-.06.02-.157.03-.183.005-.01.006-.026.005-.044m5.71 22.613c.673-.766 1.077-1.667 1.31-2.34.23-.68.285-1.146.285-1.146s-.18.437-.566 1.008c-.386.568-.98 1.27-1.704 1.738-.352.24-.73.428-1.094.546-.36.122-.842.2-1.14.215-.587.064-1.12-.02-1.12.002v.006l-3.02-.38c-.055-.027-.03-.05-.105-.09a12.324 12.324 0 0 1-.916-.576c-.2-.122-.368-.282-.583-.44-.223-.152-.39-.35-.605-.54-.22-.188-.36-.423-.56-.643-.1-.112-.136-.24-.212-.36l-.104-.188-.053-.096-.014-.023-.007-.01c-.043-.118-.016-.042-.027-.072l-.027-.055c-.177-.3-.255-.58-.552-.9-.13-.147-.244-.312-.387-.426l-.43-.31a3.332 3.332 0 0 0-.905-.38c-.31-.04-.59-.113-.857-.062-.13.012-.256.022-.375.034-.113.025-.22.07-.32.103-.2.066-.37.124-.486.225l-.38.26.417-.183c.125-.073.3-.097.492-.122.098-.013.2-.036.305-.04.11.01.224.02.34.033.24-.004.476.115.722.193.23.117.475.255.674.446l.29.303c.09.103.134.23.206.338.15.173.217.565.322.865l.146.476c.064.176.105.375.195.532.178.31.33.66.537.924.102.133.2.273.3.406l-34.228-4.12a41.654 41.654 0 0 0 1.793-1.764c.48-.522 1.02-1.052 1.533-1.693.264-.312.533-.634.81-.963.26-.358.522-.723.79-1.094.277-.342.504-.848.754-1.28l.182-.34.006-.01-.018.042.006-.014.018-.038.037-.074.074-.15.286-.615c.197-.384.406-.668.604-1.02.26-.316.498-.66.773-.967.555-.606 1.17-1.164 1.86-1.567.685-.41 1.417-.723 2.17-.854.372-.036.767-.162 1.11-.137.455-.01.723.04 1.082.096.707.13 1.37.397 1.97.677a14.443 14.443 0 0 1 2.753 1.756c.625.504.965.824.965.824s-.238-.4-.754-1.036c-.532-.615-1.298-1.524-2.49-2.353-.59-.41-1.278-.832-2.106-1.1-.408-.136-.94-.267-1.316-.305-.486-.097-.936-.002-1.424-.003a7.63 7.63 0 0 0-2.852.79c-.916.442-1.736 1.067-2.482 1.763-.36.357-.676.756-1.012 1.135-.29.427-.62.884-.857 1.296l-.32.596-.18.355-.15.242c-.212.324-.33.64-.608.966-.242.324-.482.643-.717.955l-.756.903c-.48.592-.997 1.127-1.435 1.64-.918 1-1.678 1.85-2.23 2.423l-.555.596-4.197-.506c.455-.403.945-.88 1.482-1.384.557-.593 1.186-1.186 1.748-1.843.56-.66 1.156-1.28 1.63-1.94.478-.65.97-1.215 1.308-1.767l1.16-1.793s-.56.64-1.403 1.598c-.406.488-.977.976-1.533 1.537-.55.57-1.223 1.09-1.854 1.645-.633.552-1.328 1.036-1.943 1.522-.646.45-1.236.883-1.766 1.218-.526.344-.964.62-1.27.795l-.167.098-2.508-.302a39.98 39.98 0 0 0 6.37-5.328c.734-.732 1.416-1.566 2.148-2.37.664-.866 1.39-1.7 2.016-2.613.618-.92 1.286-1.8 1.806-2.76.56-.936 1.08-1.867 1.488-2.82.217-.47.43-.93.64-1.38.194-.458.337-.926.5-1.37.312-.892.65-1.717.798-2.534.184-.8.354-1.532.506-2.18.076-.662.143-1.238.2-1.713l.157-1.484s-.127.528-.352 1.45l-.387 1.657-.738 2.077c-.236.768-.63 1.55-1.01 2.385-.2.414-.375.85-.605 1.273-.242.417-.488.843-.74 1.275-.258.427-.484.88-.777 1.303l-.89 1.28c-.556.884-1.263 1.688-1.91 2.525-.657.833-1.415 1.587-2.103 2.368-.758.724-1.46 1.473-2.21 2.125-1.462 1.35-2.903 2.52-4.146 3.51-.62.497-1.21.924-1.727 1.31-.53.363-.97.72-1.352.973l-.95.65-3.563-.43a49.178 49.178 0 0 0 6.36-4.114c2.687-2.066 5.646-4.78 8.19-8.248 2.53-3.458 4.573-7.718 5.423-12.274.105-.573.184-1.163.273-1.744.09-.585.108-1.11.165-1.665.096-1.182.053-2.266.086-3.392.052-1.112-.083-2.22-.126-3.312a16.625 16.625 0 0 0-.127-1.568c.13-.078.275-.163.44-.258.714-.41 1.798-.96 3.095-1.234.643-.154 1.336-.198 1.99-.072.17.01.328.063.486.118.162.044.322.097.47.19l.228.116.057.028.027.014.12.085c.17.133.43.29.53.403.223.213.49.48.69.795.2.31.368.646.462 1.028.213.75.22 1.64.086 2.553-.13.918-.395 1.853-.686 2.78-.285.92-.64 1.89-.89 2.856-.247.97-.435 1.94-.47 2.887-.03.946.068 1.854.293 2.65a6.9 6.9 0 0 0 .95 2.02c.38.535.76.954 1.1 1.26.317.334.632.522.82.67l.302.217-.23-.292c-.14-.195-.383-.45-.615-.827a7.13 7.13 0 0 1-.746-1.374c-.213-.556-.422-1.184-.49-1.893-.16-1.415.14-3.064.8-4.78.313-.867.702-1.734 1.095-2.712.38-.967.716-1.994.933-3.096.22-1.094.297-2.3-.012-3.5-.308-1.216-.948-2.285-1.925-3.108-.242-.223-.4-.303-.602-.46l-.143-.103-.1-.067-.05-.026-.097-.053-.39-.203a3.545 3.545 0 0 0-.794-.32c-.27-.092-.538-.17-.81-.2a7.1 7.1 0 0 0-2.918.155c-1.467.39-2.533.977-3.32 1.463-.123-.834-.295-1.653-.453-2.455-.173-1.013-.495-1.972-.753-2.916-.557-1.88-1.258-3.602-1.973-5.158-.37-.772-.766-1.495-1.127-2.188-.408-.668-.78-1.31-1.172-1.888-.787-1.154-1.523-2.126-2.19-2.88-.23-.27-.442-.504-.647-.722l3.297-.312c.14.108.305.238.508.413.533.455 1.23 1.104 1.86 1.82.312.36.642.717.9 1.083.263.364.546.69.724 1.006l.65 1.035-.37-1.173c-.097-.363-.288-.75-.458-1.186-.165-.44-.4-.88-.622-1.33a19.86 19.86 0 0 0-1.084-1.868l3.05-.288c.237.285.575.65 1.026 1.045.234.208.498.423.795.626.28.22.625.396.955.6.363.155.707.365 1.107.476l.584.19.612.115c.398.1.818.076 1.215.104.4.006.79-.07 1.16-.1.367-.067.715-.176 1.04-.256.33-.08.614-.238.888-.34.55-.2.947-.488 1.244-.646l.454-.265-.494.188c-.316.108-.744.325-1.307.428-.277.054-.566.16-.887.184s-.652.07-.994.078c-.346-.03-.7-.018-1.05-.083-.345-.086-.7-.115-1.03-.263l-.496-.18-.465-.244c-.313-.14-.575-.373-.85-.543-.247-.22-.505-.4-.708-.627a6.776 6.776 0 0 1-.568-.624l-.053-.07 20.833-1.968c-.916.228-1.752.625-2.406 1.15a5.832 5.832 0 0 0-1.992 3.616c-.135.964-.002 1.506-.002 1.506s.244-.498.72-1.242c.483-.735 1.245-1.715 2.356-2.36.56-.316 1.214-.522 1.94-.64.377-.015.752-.07 1.162-.014.186.02.445.02.574.048l.71.124c.26.028.43.094.63.144.195.058.393.087.59.177.195.082.402.144.596.228l.56.283c.714.418 1.33.975 1.774 1.7.44.724.762 1.576.928 2.483.17.906.22 1.85.22 2.772.007.578-.015.922.063 1.523.068.566.2 1.063.398 1.55.38.968 1.09 1.77 1.896 2.206.806.452 1.65.522 2.327.468.69-.057 1.238-.285 1.67-.46.422-.214.736-.392.93-.55.2-.145.307-.22.307-.22l-.357.117c-.227.088-.572.175-1 .276-.436.064-.967.14-1.54.043a3.263 3.263 0 0 1-1.685-.678c-.504-.4-.87-1.002-1.057-1.717a4.192 4.192 0 0 1-.14-1.124c-.028-.327.038-.942.073-1.33.107-1.014.13-2.087-.002-3.197-.14-1.103-.42-2.273-1.037-3.335a7.085 7.085 0 0 0-2.562-2.604l-.8-.4c-.27-.116-.544-.205-.815-.3a10.396 10.396 0 0 0-1.648-.367l-.72-.07a3.358 3.358 0 0 0-.384-.017l20.677-1.953v-1.99L127.773 49.77C170.006 30.073 212.093 9.923 231.323 1h72.917l-.152-1H1.734l-.166 1h78.735C63.56 7.467 2.798 36.03-.087 37.35v2.214C.63 39.234 69.037 7.02 85 1h142.57c-20.31 9.43-63.785 29.768-105.707 49.328l-.046.005v.016A403493.836 403493.836 0 0 0-.087 107.26v2.18c.732-.344 29.61-13.826 67.167-31.353l169.395 20.395.03.068.116-.05 69.292 8.34v-1.984l-3.39-.408c.144-.14.29-.28.417-.432M169.866 47.803c.68.886.916 1.81.65 2.59-.377 1.105-1.72 1.91-3.785 2.265-3.477.597-5.555 3.086-6.664 4.98l-3.348-8.594 13.147-1.24zm-99.413 28.71c16.33-7.62 34.147-15.933 51.92-24.224l32.276-3.05 15.288 39.247-99.484-11.974zM172.19 88.76l-4.15-10.654c.405-.618 1.368-1.62 3.356-1.47 2.406.187 2.725 1.288 3.36 3.485.106.374.218.758.345 1.15l.085.26c.715 2.218 1.795 5.553 3.494 8.01l-6.49-.78zm16.46 1.98c-.02-.018-.037-.03-.06-.05-.1-.093-.304-.263-.53-.49-.238-.222-.506-.526-.814-.874-.293-.368-.65-.757-.98-1.245-.358-.46-.67-1.02-1.046-1.583-.34-.587-.705-1.205-1.043-1.872a31.75 31.75 0 0 1-.992-2.093l-.48-1.1-.42-1.14c-.296-.755-.53-1.534-.757-2.306-.244-.767-.45-1.53-.633-2.278-.18-.748-.408-1.462-.527-2.16l-.395-1.96c-.27-1.212-.393-2.242-.525-2.958l-.203-1.128-.018 1.145c.014.728-.033 1.774.033 3.027.043.626.09 1.304.137 2.022.03.722.164 1.47.25 2.256l.15 1.193.242 1.21c.157.815.325 1.646.56 2.462l.327 1.23.396 1.206c.24.81.584 1.567.9 2.31.31.746.71 1.43 1.06 2.086.388.64.77 1.235 1.177 1.76.236.336.482.632.725.912l-3.545-.426c-2.266-1.917-3.75-6.49-4.555-8.98l-.084-.263c-.12-.37-.226-.735-.327-1.088-.658-2.277-1.338-4.633-5.127-4.924-1.97-.147-3.387.532-4.322 1.373l-6.176-15.853c.447-1.13 2.205-4.88 6.02-5.534 3.805-.653 4.98-2.53 5.34-3.59.377-1.104.244-2.3-.33-3.444l11.463-1.083c-.23.346-.468.71-.675 1.13-.162.31-.342.62-.5.947-.14.334-.285.674-.428 1.013-.133.343-.307.666-.4 1.016-.105.342-.213.68-.314 1.005l-.293.933c-.064.305-.125.593-.184.857l-.373 1.756.67-1.66c.1-.246.21-.513.324-.796l.44-.852.47-.904c.145-.315.367-.595.547-.895l.566-.873c.2-.276.416-.533.613-.788.38-.524.818-.932 1.158-1.303.366-.33.687-.633.884-.76.04-.028.07-.05.1-.074l3.03-.286-.05.07a40.15 40.15 0 0 0-1.545 2.32 34.14 34.14 0 0 0-1.745 3.17 37 37 0 0 0-1.676 3.955c-.28.712-.47 1.48-.712 2.246-.203.778-.38 1.585-.56 2.403-.286 1.655-.513 3.388-.505 5.163l.012 1.337c.002.5.06.872.084 1.316.058.847.136 1.71.255 2.604.197 1.77.53 3.495.92 5.2.434 1.695.926 3.356 1.592 4.902.62 1.56 1.443 2.983 2.256 4.298.87 1.282 1.768 2.447 2.707 3.42.922.988 1.86 1.798 2.72 2.47.21.17.417.326.616.477l-4.896-.587zm47.762 5.645l-.176.083-38.064-4.582a94.06 94.06 0 0 0-.377-.23c-.324-.217-.836-.483-1.422-.91a25.018 25.018 0 0 1-2.08-1.572 23.184 23.184 0 0 1-2.414-2.33c-.84-.897-1.63-1.97-2.4-3.144-.712-1.21-1.438-2.51-1.98-3.957-.597-1.423-1.05-2.966-1.444-4.552-.355-1.593-.664-3.25-.836-4.9-.107-.812-.18-1.66-.232-2.52-.084-.877-.084-1.63-.094-2.452-.023-1.61.174-3.195.42-4.718.164-.755.318-1.5.502-2.222.22-.714.39-1.425.63-2.097.456-1.35.95-2.612 1.485-3.742.513-1.143 1.067-2.15 1.56-3.04.496-.892.97-1.646 1.367-2.257.402-.61.734-1.074.963-1.386.04-.05.07-.092.102-.134l12.182-1.15c-3.648 3.514-8.965 10.645-7.44 21.44 2.257 15.98 15.23 22.968 26.962 22.967.568 0 1.135-.017 1.695-.05 7.632-.44 14.165-4.1 18.397-10.298 5.205-7.62 6.137-17.83 2.64-28.77l4.474-3.61-6.776 4.084-.176.057c.006.016.008.03.014.043l-21.797 13.135 3.867-12.44s-1.828-.933-5.398-.656c-2.412.188-11.764 1.463-11.98 13.478-.217 12.014 11.2 13.824 14.55 14.033 3.35.21 10.94-3.52 12.782-10.48 1.5-5.667-.668-8.667-.668-8.667l8.988-7.258c2.908 9.817 2.002 18.882-2.604 25.628-3.78 5.537-9.625 8.804-16.457 9.2-11.04.64-23.865-5.58-26.01-20.747-2.018-14.292 8.94-21.21 9.41-21.497l-.016-.013 40.31-3.81c.07.067.15.143.24.235.34.345.845.86 1.42 1.59.59.713 1.247 1.637 1.942 2.732.348.546.666 1.163 1.04 1.787.323.653.68 1.333 1.013 2.06.64 1.47 1.268 3.092 1.756 4.865.493 1.77.925 3.67 1.177 5.667.113 1 .283 2.01.303 3.052.033 1.036.16 2.082.102 3.145-.033 1.048-.012 2.16-.09 3.174-.053.537-.072 1.12-.152 1.626l-.234 1.528c-.756 4.162-2.602 8.075-4.94 11.31-2.32 3.26-5.077 5.877-7.608 7.882a49.25 49.25 0 0 1-6.486 4.373c-.83.46-1.49.795-1.94 1.015m28.143-4.314l-.004.007c.01-.018-.013.03.005-.006m19.517-4.065s-.166.42-.426 1.13c-.27.702-.617 1.708-1.15 2.772-.54 1.048-1.273 2.18-2.38 2.72-.552.267-1.18.403-1.86.422-.674.018-1.44-.13-2.105-.314-.68-.19-1.317-.56-2.06-.968-.74-.406-1.597-.848-2.49-1.087-.448-.12-.888-.187-1.333-.223a9.153 9.153 0 0 0-1.217-.013c-.924.063-1.73.33-2.363.798a4.07 4.07 0 0 0-1.277 1.546c-.26.516-.365.997-.438 1.38-.123.782-.055 1.22-.055 1.22s.148-.42.518-1.054c.355-.623.994-1.495 1.955-1.905.467-.192 1.05-.28 1.596-.213.373.035.752.074 1.035.143.317.064.65.17.968.277.64.234 1.244.604 1.94 1.066.69.464 1.54.965 2.495 1.287.96.332 1.908.442 2.916.403.995-.035 2.017-.322 2.86-.85.85-.52 1.5-1.23 1.947-1.95.45-.725.72-1.454.883-2.13.182-.672.23-1.3.266-1.843.02-.548.006-1.02-.035-1.408a8.152 8.152 0 0 0-.122-.894l-.066-.313M170.91 61.98s-.223-.763-.998-1.62c-.39-.432-.91-.89-1.69-1.216a3.272 3.272 0 0 0-1.423-.22 2.586 2.586 0 0 0-1.52.648c-.5.428-.756.997-.85 1.52-.09.52-.04.978.05 1.374.194.79.532 1.383.876 1.845.676.93 1.375 1.316 1.375 1.316s-.06-.79-.177-1.798c-.04-.505-.105-1.076-.064-1.586.017-.25.07-.477.134-.626a.668.668 0 0 1 .18-.246c.203-.17.08-.072.168-.135.043-.038.096-.06.16-.092.135-.06.336-.087.574-.068.48.022 1.025.188 1.504.332l1.7.572m7.086-1.6c-.184-.02-.385-.053-.6-.066-.217.01-.447.02-.688.034-.48.07-1.01.226-1.518.514-.525.27-.965.706-1.385 1.173-.37.495-.72 1.04-.953 1.62-.254.58-.41 1.182-.523 1.798-.114.65-.11 1.238-.147 1.704.008.43-.104.844-.23 1.246a5.52 5.52 0 0 1-.55 1.14c-.204.37-.462.69-.7.997a15.06 15.06 0 0 1-1.336 1.433c-.354.342-.578.535-.578.535s.296-.006.798-.124a6.893 6.893 0 0 0 1.98-.83c.395-.23.785-.544 1.18-.917a6.31 6.31 0 0 0 1.047-1.388c.275-.553.53-1.17.623-1.832.104-.618.137-1.143.22-1.586.083-.476.18-.96.315-1.4.113-.458.307-.853.504-1.228.215-.352.438-.694.723-.94.262-.28.582-.46.89-.647.323-.15.645-.277.956-.356.305-.085.592-.124.832-.175.48-.05.78-.098.78-.098s-.247-.144-.726-.358c-.244-.072-.547-.198-.916-.25M36.44 104.76c-2.695.505-8.62 1.085-9.35 1.008a.75.75 0 0 0-.417 1.44c.108.036.327.052.63.052 2 0 7.66-.698 9.413-1.026a.75.75 0 1 0-.276-1.475m-7.278-4.85c.044-.006 4.447-.49 6.182-.333a.762.762 0 0 0 .815-.68.75.75 0 0 0-.68-.814c-1.885-.17-6.296.314-6.484.335a.75.75 0 0 0 .166 1.49M24.06 87.247c.054 0 .34.008.79.008 1.903 0 6.756-.116 9.663-1.224a.748.748 0 0 0 .433-.967.748.748 0 0 0-.968-.435c-3.32 1.265-9.813 1.12-9.88 1.117a.75.75 0 0 0-.038 1.5m-1.063-6.753c.02.402.35.508.748.508h.036c.293 0 7.173-.16 9.447-1.208.375-.174.54-.426.366-.803-.174-.376-.62-.567-.995-.394-1.668.77-6.98 1.123-8.888 1.214-.415.02-.733.27-.713.682m1.582-4.412c.083 0 .168-.015.25-.044.047-.017 4.536-1.61 6.696-1.458a.75.75 0 1 0 .106-1.496c-2.46-.17-7.11 1.47-7.305 1.54a.75.75 0 0 0 .252 1.458m8.355-8.933c-3.445 1.565-11.215.94-11.294.935a.768.768 0 0 0-.81.686.752.752 0 0 0 .687.81 48.85 48.85 0 0 0 3.71.136c2.67 0 6.165-.217 8.33-1.2a.75.75 0 0 0-.62-1.366m-.668-7.335c-3.545 1.61-11.093 3.1-11.168 3.113a.75.75 0 1 0 .288 1.472c.316-.062 7.795-1.537 11.5-3.22a.75.75 0 0 0-.62-1.365m-1.747-5.62a.75.75 0 0 0-.557-1.394c-3.226 1.29-9.3 2.447-9.36 2.458a.75.75 0 1 0 .278 1.474c.256-.047 6.278-1.194 9.64-2.54m-12.152-3.78a.75.75 0 0 0 .956.458c.056-.02 5.588-1.957 8.918-1.957a.75.75 0 0 0 0-1.5c-3.588 0-9.18 1.96-9.417 2.043a.747.747 0 0 0-.458.956m1.662-6.512a.753.753 0 0 0 .95.474c1.9-.634 7.252-2.23 9.162-1.968a.75.75 0 0 0 .2-1.488c-2.6-.346-9.105 1.79-9.84 2.033a.75.75 0 0 0-.473.95m2.18-5.54a.752.752 0 0 0 1.06 0c.03-.03 2.984-2.947 6.137-2.947a.75.75 0 0 0 0-1.5c-3.767 0-7.058 3.248-7.196 3.386a.75.75 0 0 0 0 1.06m9.773-10.734l-6.834 2.5a.75.75 0 0 0 .516 1.408l6.832-2.5a.75.75 0 1 0-.515-1.408M25.2 15.76a.748.748 0 0 0 .475.947c.092.03 1.652.54 4.01.54 1 0 2.144-.093 3.38-.35a.75.75 0 0 0 .58-.888.753.753 0 0 0-.886-.583c-3.733.78-6.583-.134-6.613-.144a.75.75 0 0 0-.946.478m.967-5.694a.75.75 0 0 0 .648.84c.155.02 2.807.357 5.138.357.93 0 1.812-.054 2.46-.203a.75.75 0 0 0 .563-.9.752.752 0 0 0-.9-.56c-1.668.384-5.67 0-7.07-.18a.75.75 0 0 0-.84.646m6.874-3.752a.75.75 0 0 0 1.023-.28.75.75 0 0 0-.28-1.023c-1.29-.736-4.452-.627-5.073-.596a.75.75 0 0 0-.713.784c.02.414.373.726.784.714 1.363-.063 3.587.018 4.26.402M-.088 111h306v1h-306z"/></svg>