<svg xmlns="http://www.w3.org/2000/svg" width="305.834" height="112" viewBox="0 0 305.834 112"><path fill="#D72251" d="M153.5 96.086L74.65 55.5l78.85-40.586L232.35 55.5z"/><path fill="#0C3846" d="M153.5 83.18c-11.73 0-21.274-9.544-21.274-21.274s9.543-21.274 21.274-21.274c11.73 0 21.274 9.543 21.274 21.274S165.23 83.18 153.5 83.18zm0-32.55c-6.217 0-11.274 5.06-11.274 11.275 0 6.217 5.058 11.274 11.274 11.274s11.274-5.06 11.274-11.275c0-6.216-5.057-11.274-11.274-11.274z"/><path fill="#75A08A" d="M74.65 56l78.85-40.586L232.35 56z"/></svg>