<svg id="Layer_1" xmlns="http://www.w3.org/2000/svg" viewBox="-152 341 305.8 112"><style>.beast-eye-15-st-0{fill:#fcdca4}.beast-eye-15-st-1{fill:#75a08a}.beast-eye-15-st-2{fill:#0b3746}</style><path class="beast-eye-15-st-0" d="M-105.3 378.8c-12.8 0-23.5 10.7-23.5 23.5s10.7 23.5 23.5 23.5 23.5-10.7 23.5-23.5-10.7-23.5-23.5-23.5zM-52.3 378.5c-12.8 0-23.5 10.7-23.5 23.5s10.7 23.5 23.5 23.5 23.5-10.7 23.5-23.5-10.7-23.5-23.5-23.5zM.7 378.5c-12.8 0-23.5 10.7-23.5 23.5s10.7 23.5 23.5 23.5 23.5-10.7 23.5-23.5S13.5 378.5.7 378.5zM53 377.8c-12.8 0-23.5 10.7-23.5 23.5s10.7 23.5 23.5 23.5 23.5-10.7 23.5-23.5-10.6-23.5-23.5-23.5zM104.7 376.2c-12.8 0-23.5 10.7-23.5 23.5s10.7 23.5 23.5 23.5 23.5-10.7 23.5-23.5-10.7-23.5-23.5-23.5z"/><path class="beast-eye-15-st-0" d="M-106 397.9c-7 0-7 11 0 11s7-11 0-11zM-52 396.7c-7 0-7 11 0 11s7-11 0-11zM0 397.4c-7.1 0-7.1 11 0 11s7.1-11 0-11zM58.2 398.5c-.4-.4-.9-.8-1.4-1-1.4-.7-2.8-1-4.3-.6-1.8.5-3.6 2.1-4 4-.3 1.5-.2 2.9.6 4.2.7 1.2 1.9 2.1 3.3 2.5.5.1 1 .2 1.5.2h.5c1.5 0 2.9-.6 3.9-1.6s1.6-2.4 1.6-3.9c-.1-1.2-.7-2.9-1.7-3.8zM105 394.4c-7.1 0-7.1 11 0 11s7.1-11 0-11z"/><path class="beast-eye-15-st-1" d="M-106 390.9c-14 0-14 23 0 23 15 0 15-23 0-23zM-51 389.9c-14.8 0-14.8 23 0 23s14.9-23 0-23zM0 391.4c-15 0-15 23 0 23s15-23 0-23zM52 390.2c-14 0-14 23 0 23 15 0 15-23 0-23zM103 388.9c-14 0-14 23 0 23 15 0 15-23 0-23z"/><path class="beast-eye-15-st-2" d="M-106 397.2c-7.1 0-7.1 11 0 11s7.1-11 0-11zM-50 395.7c-7 0-7 11 0 11 7.1 0 7.1-11 0-11zM-1 396.9c-7 0-7 11 0 11 8 0 8-11 0-11zM52 396.4c-7.1 0-7.1 11 0 11s7.1-11 0-11zM102 394.9c-7 0-7 11 0 11 8 0 8-11 0-11z"/><path class="beast-eye-15-st-0" d="M-103 395.9c-3 0-3 5 0 5s3-5 0-5zM-47 394.4c-3 0-3 5 0 5s3-5 0-5zM2 396.4c-3 0-3 5 0 5s3-5 0-5zM54 394.7c-3.2 0-3.2 5 0 5 3.3 0 3.3-5 0-5zM106 394.9c-3 0-3 5 0 5 4 0 4-5 0-5z"/><path class="beast-eye-15-st-2" d="M-79.6 417.2c-2.3 5-6.1 8.4-10.9 10.9-4.5 2.2-10.3 4.2-15.3 4.6-5.3.4-10.6-2-14.9-4.7-4.3-2.7-8.4-6.6-10.4-11.4-.2-.6-1.2-.3-1 .3 3.8 9.3 15.1 16.4 25 16.8 2.7.1 5.2-.7 7.8-1.4 2.7-.7 5.4-1.6 8.1-2.8 5.5-2.4 10-6.3 12.5-11.8.2-.6-.7-1.1-.9-.5zM-27.9 416.2c-1.7 3.9-5.5 6.5-9.1 8.7-4 2.4-8.4 4.2-13 5.1-4.4.8-9.2-.3-13.3-1.8-5.1-1.8-9.8-5.1-12.8-9.7-.3-.5-1.2 0-.9.5 2.8 4.5 7.1 7.5 11.9 9.6 4.3 1.8 9.6 3.2 14.2 2.5 4.8-.7 9.4-2.6 13.7-5 3.9-2.2 8.1-5.2 10-9.4.4-.6-.4-1.1-.7-.5zM23.4 417.2c-4.3 8-12.7 10.3-21.2 10.7-5 .2-9.1-.6-13.5-3.1-4.1-2.3-7.6-5.5-11.3-8.5-.5-.4-1.2.3-.7.7 3.9 3.2 7.8 6.5 12.2 9 4.2 2.4 8.5 3 13.3 2.8 8.8-.3 17.7-3 22.1-11.2.2-.5-.6-1-.9-.4zM75.2 420.1c-2.9 2.8-6 5.3-9.8 6.8-3.5 1.4-7.3 1.5-11.1 1.5-4.8 0-9.6-.3-14.2-2-2.6-1-4.8-2.4-6.9-4.2-1.5-1.3-2.9-2.6-4.7-3.5-.6-.3-1.1.6-.5.9 2.2 1 3.8 2.7 5.6 4.3 1.6 1.4 3.5 2.4 5.5 3.2 4.9 2 10 2.3 15.2 2.3 4 0 8.1-.3 11.8-1.8 3.7-1.5 6.8-4.2 9.7-6.9.6-.4-.1-1.1-.6-.6zM130.1 410.8c-7.3 21.9-40.8 22.4-50.1 1.9-.3-.6-1.1-.1-.9.5 9.6 21.4 44.3 20.5 51.9-2.1.2-.7-.7-.9-.9-.3zM-80.8 383.7c-5.3-9.7-15.1-15.8-26.3-13.9-11.7 2-17.2 11.8-24 20.3-.4.5.3 1.2.7.7 2.9-3.6 5.5-7.6 8.5-11.1 3.4-4 7.7-6.8 12.7-8.4 11.4-3.5 22.1 2.9 27.5 12.9.4.5 1.2 0 .9-.5zM-27.5 385.7c-3.5-4.7-7.1-9.4-12.3-12.4-4.7-2.8-10.2-2.7-15.4-1.4-9.4 2.3-21.4 9.5-23 20-.1.6.9.9 1 .3 1.6-10 12.8-16.5 21.7-19.1 5.2-1.5 10.4-1.4 15.2 1.2 5 2.7 8.6 7.6 11.9 12.1.4.3 1.3-.2.9-.7zM23 385.2c-3-3.9-5.9-8-10.2-10.5-4.2-2.5-9.3-2.7-14-2-9.1 1.3-19.6 6.8-22.4 16.2-.2.6.8.9 1 .3 2.6-8.7 12.2-13.6 20.5-15.3 4.7-.9 9.6-.7 13.9 1.4 4.5 2.2 7.5 6.6 10.4 10.5.3.4 1.2-.1.8-.6zM76.3 385.8c-3.4-9.7-15.2-12.8-24.4-12.2-9.6.7-19.1 5.7-23 14.8-.3.6.6 1.1.9.5 3.7-8.7 12.4-13.3 21.5-14.3 8.8-1 20.8 2 24.1 11.4.1.6 1.1.4.9-.2zM135.4 393.6c-3.9-4.4-6.7-9.6-10.6-14-4-4.5-9-6.7-14.9-7.2-6.1-.5-13-.3-18.6 2.3-5.5 2.5-9.8 7.3-11.9 12.9-.2.6.7.9 1 .3 2.2-5.9 6.9-10.4 12.7-12.8 5.2-2.1 12.1-2 17.6-1.5 12.5.9 16.7 12.7 24.1 20.8.3.3 1-.4.6-.8zM-79.1 424.7c-2.1.6-3.4 2-4.9 3.4-2.4 2.1-6.3 2.6-9.1 4.2-5.3 3.1-10 6-16.3 5.9-.6 0-.6 1 0 1 5.6.1 10.1-2 14.9-4.8 3-1.8 6-2.9 9.2-4.3 2.5-1.1 3.9-3.7 6.6-4.4.5-.2.2-1.2-.4-1zM-78.1 426.6c-3.9 4.8-8.9 8.3-14.8 10.4-.6.2-.3 1.2.3 1 6-2.1 11.2-5.7 15.2-10.6.4-.6-.3-1.3-.7-.8z"/><path class="beast-eye-15-st-2" d="M-28.2 423c-3.1 8.7-13.2 11-21.5 10.8-4-.1-8.2-1-12.1-1.9-4.1-1-9-2.5-11.3-6.3-.3-.5-1.2 0-.9.5 2.3 3.7 6.6 5.3 10.6 6.4 4.4 1.2 9.1 2.1 13.6 2.3 8.7.3 19.2-2.6 22.4-11.6.4-.5-.6-.8-.8-.2zM-60.6 437.7c-3.2-.7-10.8-.5-11.9-4.4-.2-.6-1.1-.4-1 .3 1.3 4.6 8.9 4.3 12.6 5.1.7.1 1-.9.3-1zM-127.1 432.2c-7.4-2.8-9.6-10.8-9.6-18 0-.6-1-.6-1 0 .1 7.7 2.5 16 10.4 19 .6.2.8-.8.2-1zM-132.5 405.7c0-.6-1-.6-1 0 0 1.7 0 3.3.2 5 .1.6 1.1.6 1 0-.1-1.7-.2-3.4-.2-5zM-137.1 401.9c-1 1.9-.8 3.9-.3 5.9.2.6 1.1.4 1-.3-.5-1.7-.7-3.5.2-5.1.2-.6-.6-1.1-.9-.5zM-132.3 397.1c-.8.9-1.4 1.9-1.4 3.1 0 .6 1 .6 1 0 0-.9.5-1.7 1.1-2.4.4-.5-.3-1.2-.7-.7zM-134.8 394.9c-2.4.8-5 2.1-5.3 4.8-.1.6.9.9 1 .3.3-2.4 2.6-3.5 4.7-4.2.4-.1.2-1.1-.4-.9zM-141.7 407.6c-.2-.6-1.2-.3-1 .3.5 1.5.5 2.7.5 4.7h1c0-1.9 0-3.4-.5-5zM-76.5 377.4c-7.1-9.5-20.1-19.2-32.3-13.9-5.8 2.5-11.3 6.1-16.2 10.2-4.4 3.8-9.1 8.8-9.9 14.8-.1.6.9.9 1 .3.8-5.5 4.7-9.8 8.6-13.4 4.4-4.1 9.6-7.4 15-10.1 2.6-1.3 5.2-2.3 8.2-2.5 3.4-.1 6.8 1 9.8 2.5 5.9 2.8 11.1 7.4 15 12.6.3.5 1.2 0 .8-.5z"/><path class="beast-eye-15-st-2" d="M-75.7 365.5c-2.9-1.5-5.2-3.6-7.7-5.6-2.9-2.2-5.8-3.3-9.3-4.2-7.1-1.8-14.2-.8-20.9 2-12 5-22.4 15.5-26.6 27.8-.2.6.8.9 1 .3 4.3-12.3 14.7-22.4 26.6-27.4 6.7-2.8 13.5-3.2 20.5-1.5 3.6.9 6.4 2.4 9.2 4.7 2.1 1.7 4.2 3.5 6.7 4.7.6.3 1.1-.5.5-.8zM-24.1 427.9c-2.6 4.3-5.7 8-9.9 10.7-5.4 3.6-11.4 1.6-17.4 1.5-.6 0-.6 1 0 1 5.9.1 11.8 1.9 17.2-1.2 4.7-2.8 8.2-6.9 11-11.5.3-.5-.6-1-.9-.5zM-26.2 377.3c-.9-4.5-4.4-8-8-10.6-4.8-3.4-10.2-4.1-15.9-3.3-4.8.6-9.7 2.1-14.3 3.7-3 1.1-7.2 2.7-8 6.2-.2.6.8.9 1 .3.8-3.4 5.5-4.9 8.4-5.9 3.9-1.3 8-2.4 12.1-3.2 5.3-.9 10.4-.5 15 2.3 3.9 2.3 7.8 6.2 8.7 10.8.1.6 1.1.3 1-.3z"/><path class="beast-eye-15-st-2" d="M-20.2 375.5c-5.4-17.8-31.4-23-45.5-12.5-.5.4 0 1.2.5.9 13.5-10 38.7-5.3 44 12 .2.5 1.2.2 1-.4z"/><path class="beast-eye-15-st-2" d="M-13.5 371c-2.2-9.7-12.8-14.5-21.3-17.3-5.7-1.9-11.8-3.5-17.8-2.4-6.3 1.2-12.5 5.1-17.8 8.5-.5.3 0 1.2.5.9 5.1-3.2 10.4-6.1 16.1-7.9 5.6-1.8 11.8-.1 17.3 1.5 8.6 2.7 19.9 7.3 22.1 17.1.1.5 1.1.3.9-.4zM27 380c-2-6.6-10.1-11-16.3-12.6-9.6-2.4-19.5 2.6-27.1 7.8-.5.4 0 1.2.5.9 7.6-5.1 16.1-9.3 25.5-7.9 6.1.9 14.6 5.9 16.5 12.1.1.6 1.1.3.9-.3z"/><path class="beast-eye-15-st-2" d="M30.8 377.3c-2.7-6.9-7.8-12.9-15.3-14.3-6.4-1.2-15.1-1.8-20.6 2.3-.5.4 0 1.2.5.9 5.1-3.8 12.8-3.2 18.7-2.4 7.7 1.1 13.1 6.8 15.8 13.8.1.5 1.1.3.9-.3zM24.9 423.3c-3 3.7-6.7 6.8-11 9-5 2.6-10.5 2.8-15.9 1.6-4.2-.9-8-2.8-11.5-5.4-1.4-1-2.9-2.1-4.3-3.2-.5-.4-.9-.7-1.3-1.1-.3-.3-.7-.9-.7-.4 0-.6-1-.6-1 0s.9 1 1.2 1.3l4.2 3.3c3.8 2.8 7.6 5 12.2 6.2 11.2 3 21.6-2 28.7-10.7.5-.4-.2-1.1-.6-.6z"/><path class="beast-eye-15-st-2" d="M14.7 437.2c-2.4.7-4.7 1.6-7 2.3-3.2 1-6.2.9-9.4 0-6.3-1.7-12.1-5.4-17.2-9.3-.5-.4-1 .5-.5.9 5.5 4.2 11.5 7.8 18.3 9.6 5.8 1.6 10.6-1 16.1-2.5.5-.2.3-1.2-.3-1zM80.4 425.4c-2.6 3.7-4.8 7.9-8.5 10.5-4.8 3.4-11 1.9-16.2.8-9.4-2-18.1-4.6-26.3-9.8-.5-.3-1 .5-.5.9 9.3 5.8 19.3 8.5 29.9 10.6 5 1 10 1 14.3-2 3.6-2.6 5.8-6.9 8.3-10.5.2-.5-.7-1-1-.5z"/><path class="beast-eye-15-st-2" d="M74.9 427.1c-3.8 4.2-11 9.6-16.6 5.7-.5-.4-1 .5-.5.9 6 4.2 13.8-1.3 17.9-5.8.4-.6-.3-1.3-.8-.8zM76.8 376.8c-7.5-18.1-34.9-13.9-44.4.1-.4.5.5 1 .9.5 8.9-13.3 35.4-17.6 42.6-.4.2.6 1.1.4.9-.2z"/><path class="beast-eye-15-st-2" d="M75 364.5c-3.4-3-8-4-12.4-4.2-2.5-.1-5.1.1-7.6.2-2.7.1-5.4.1-8 .5-2.4.4-4.6 1-6.7 2.1-2.4 1.3-3.9 3.6-6.2 5.2-.5.4 0 1.2.5.9 1.4-1 2.6-2.3 3.8-3.5 1.8-1.7 4.2-2.7 6.6-3.3 4.5-1.2 9.3-.8 13.9-1 4.3-.2 8.6.1 12.5 1.9 3.7 1.8 9.4 7.2 8 11.8-.2.6.8.9 1 .3 1.2-4.3-2.5-8.4-5.4-10.9zM35.9 359.7c-2.6.8-5.4 2.5-6.1 5.3-.1.6.8.9 1 .3.6-2.5 3.1-3.9 5.4-4.7.6-.2.3-1.1-.3-.9zM53 442.9c-5.7-.5-11.1-1.6-16.3-4.1-2.2-1.1-4.4-2.3-6.5-3.6-1.3-.8-4.1-2.2-4.5-4-.1-.6-1.1-.4-1 .3.3 1.4 1.8 2.3 2.8 3.1 2.4 1.8 5 3.2 7.6 4.5 5.6 2.9 11.5 4.2 17.8 4.7.8.2.8-.8.1-.9zM85.4 428.2c-2.4 3.9-4.6 8-7.8 11.3-3.6 3.7-8.4 4.2-13.2 4.7-.6.1-.6 1.1 0 1 4.6-.5 9.1-.9 12.8-3.8 4-3.3 6.5-8.3 9.2-12.7.2-.6-.7-1.1-1-.5zM102.9 431.4c-4.4-1.6-8.6-3.6-13-5-.6-.2-.9.8-.3 1 4.4 1.4 8.6 3.4 13 5 .7.2.9-.8.3-1zM128.5 437.5c-3.1 2.1-6.2 3.4-10 3.1-3.4-.2-6.8-1.6-10.1-2.5-5.8-1.5-13.7-.5-18.3-4.8-.5-.4-1.2.3-.7.7 4.8 4.5 12.8 3.6 18.8 5.1 3.5.9 6.8 2.1 10.4 2.5 3.9.4 7.4-1.1 10.5-3.3.5-.3 0-1.2-.6-.8zM136.9 416.7c-5.2 8.6-12.8 18.7-24.2 15.5-.6-.2-.9.8-.3 1 11.9 3.3 19.9-6.9 25.3-16 .4-.6-.5-1.1-.8-.5zM136.1 407.3c-.5 2.3-1.5 4.4-2.7 6.4-.3.6.5 1.1.9.5 1.3-2.1 2.2-4.3 2.8-6.6.1-.7-.9-1-1-.3zM133.9 400.7c-.6 1.2-.8 2.3-.2 3.5.3.6 1.1.1.9-.5-.4-.9-.1-1.7.2-2.5.2-.6-.7-1.1-.9-.5zM140.2 392c-1.5-2.8-4.3-4.7-6.3-7.1-4.7-5.5-8.3-11.4-15-14.9-9.7-5.1-24-6.2-32 2.6-.4.5.3 1.2.7.7 7.8-8.6 21.3-7.1 30.8-2.4 5.8 2.9 9.3 7.8 13.2 12.8 1.9 2.5 4.3 4.5 6.4 6.9 2.3 2.6 2.9 6.1 3.1 9.4 0 .6 1 .6 1 0-.2-2.9-.6-5.5-1.9-8z"/><path class="beast-eye-15-st-2" d="M143 385.5c-.9-2.9-2.9-5-5-7-2.7-2.7-5.2-5.5-7.9-8.2-4.5-4.6-10-7.2-16.3-8.5-10-2.2-23.5-1.5-29.5 8.1-.3.5.5 1 .9.5 5.9-9.4 19.3-9.7 29-7.5 5.9 1.3 10.9 3.9 15.2 8.2 2.2 2.1 4.1 4.5 6.3 6.7 2.4 2.4 5.3 4.7 6.3 8.1.2.5 1.2.2 1-.4z"/><path class="beast-eye-15-st-2" d="M146.3 381.3c-4.1-12-15.8-18-27-22.1-2.9-1.1-5.9-2.2-8.9-3.1-3.7-1-7.5-.7-11.2 0-3.9.7-7.6 2-11.5 2.6-2.7.4-5 1.2-6.3 3.8-.3.6.6 1.1.9.5 1.6-3 4.6-3.1 7.5-3.5 3.3-.5 6.4-1.6 9.7-2.3 3.9-.8 7.7-.8 11.6.3 2.7.8 5.4 1.8 8 2.8 10.8 4 22.3 9.8 26.3 21.4.1.4 1.1.2.9-.4zM55.4 354.9c-4.1.8-8.3.9-11.7 3.6-.5.4.2 1.1.7.7 3.2-2.5 7.4-2.6 11.3-3.4.6 0 .3-1-.3-.9zM4 356.7c-2.8 1.3-5.9 1.8-8.8 2.9-2.7 1-4.7 2.8-6.3 5-.4.5.5 1 .9.5 2-2.6 4.2-4.2 7.4-5.1 2.5-.8 5-1.3 7.5-2.5.4-.2-.1-1-.7-.8zM-76.3 358.7c-3.9-.7-7.1-3.1-10.4-5.2-.5-.3-1.1.5-.5.9 3.4 2.1 6.6 4.6 10.6 5.3.6 0 .9-.9.3-1zM-110.3 352.2c-3.7.8-7.1 2.8-10.3 4.7-3.1 1.8-6.2 3.7-9.1 5.7-5.2 3.6-11.1 8.4-12.6 14.9-.1.6.8.9 1 .3 1.5-6.5 7.6-11.1 12.7-14.7 2.5-1.8 5.2-3.3 7.9-4.9 3.4-2.1 6.9-4.2 10.8-5 .5-.2.2-1.2-.4-1z"/><path class="beast-eye-15-st-2" d="M-99.2 350.2c-9-6.9-23.6.5-30.9 6.8-.5.4.2 1.1.7.7 7-6.1 21-13.3 29.6-6.7.6.5 1.1-.4.6-.8zM-117.3 437.9c-2-.3-3.7-1.1-5-2.6-.4-.5-1.1.2-.7.7 1.4 1.6 3.4 2.6 5.5 2.9.5.1.8-.9.2-1zM-107.8 443.2c-4.5.9-8.9 2-13.5.6-3.7-1.2-6.9-3.9-10.4-5.5-.6-.3-1.1.6-.5.9 3.9 1.8 7.3 4.5 11.4 5.9 4.3 1.4 9 0 13.3-.8.6-.3.3-1.2-.3-1.1zM-95.5 442.5c-3.4 2.2-6.9 3.6-10.9 4.4-.6.1-.4 1.1.3 1 4-.9 7.6-2.3 11.1-4.6.6-.3.1-1.2-.5-.8zM-81.3 437.3c-2.3 2.8-5 5.2-7.5 7.8-.5.5.2 1.2.7.7 2.5-2.5 5.2-5 7.5-7.8.4-.5-.3-1.2-.7-.7zM-93.3 447.9c-.9.2-1.8.5-2.6 1.1-.5.3 0 1.2.5.9.7-.5 1.5-.7 2.4-.9.6-.3.3-1.2-.3-1.1zM-77.9 438.4c-1.8 3.4-4.1 6.5-7.2 8.9-.5.4.2 1.1.7.7 3.1-2.4 5.4-5.7 7.3-9.1.4-.6-.5-1.1-.8-.5zM-129 446c-3.3-1.5-6.8-2.8-8.3-6.5-.2-.6-1.2-.3-1 .3 1.6 3.9 5.1 5.4 8.7 7 .7.3 1.2-.6.6-.8zM-135.9 432.3c-1.9-1.7-2.6-4.1-3.1-6.5-.1-.6-1.1-.4-1 .3.5 2.6 1.4 5.1 3.4 7 .5.3 1.2-.4.7-.8zM-142 442.5c-1.7-1.1-2.3-3.1-2.5-5-.1-.6-1.1-.4-1 .3.3 2.1 1.1 4.4 3 5.5.6.4 1.1-.5.5-.8zM-143.4 423.8c-1.3-1.4-.6-3.4-.1-5 .2-.6-.8-.9-1-.3-.6 2-1.2 4.2.4 6 .5.5 1.2-.2.7-.7zM-144.7 400c-2 1.5-3.4 3.5-3 6.1.1.6 1.1.4 1-.3-.4-2.1.9-3.8 2.5-4.9.5-.4 0-1.3-.5-.9zM-144.7 394.1c-.4-1.2-.5-2.5-.5-3.5s-1-1-1 0 .1 2.6.5 3.8c.2.7 1.2.4 1-.3zM-142.5 363c-3.4 1.8-4.9 5.6-4.2 9.3.1.6 1.1.4 1-.3-.6-3.3.8-6.6 3.8-8.2.5-.3 0-1.1-.6-.8zM-138.2 351.7c-1.2.6-2.1 1.6-2.9 2.7-.4.5.5 1 .9.5.7-.9 1.5-1.8 2.6-2.3.5-.3 0-1.2-.6-.9zM140.2 440.1c-5.7 4.4-12 5.8-19.1 5-6.1-.7-12.1-2.4-18.3-2.7-.6 0-.6 1 0 1 6.9.3 13.5 2.3 20.4 2.9 6.6.5 12.5-1.5 17.7-5.5.5-.4-.2-1.1-.7-.7zM143.6 419.4c-2.8 5.9-7.2 10.4-12.3 14.3-.5.4 0 1.3.5.9 5.2-4 9.8-8.7 12.7-14.7.3-.6-.6-1.1-.9-.5zM143.5 403.7c0-.6-1-.6-1 0 .2 3.1-.2 6.1-.7 9.1-.1.6.9.9 1 .3.5-3.2 1-6.3.7-9.4zM147.5 410.9c-.1-.6-1.1-.6-1 0 .5 4.2 1.9 8.2 2 12.4.1 4.7-3.8 7.7-6.4 11.1-.4.5.5 1 .9.5 2.4-3.2 5.7-5.8 6.4-9.9.9-4.6-1.3-9.5-1.9-14.1zM146.4 437.9c-.8 1.4-1.4 2.9-2.2 4.2-.3.6.5 1.1.9.5.8-1.4 1.4-2.9 2.2-4.2.3-.5-.6-1.1-.9-.5zM146.3 391c-.2-.6-1.2-.3-1 .3.7 1.6 1.2 3.2.8 5-.2.6.8.9 1 .3.4-2-.1-3.8-.8-5.6zM147.5 372c-2.6-10.5-13.7-15.5-23.7-15.9-.6 0-.6 1 0 1 9.6.3 20.3 5 22.8 15.1.1.7 1.1.4.9-.2zM139.5 352.5c-4.8-2.6-12.9-5.8-17.9-1.9-.5.4.2 1.1.7.7 4.4-3.5 12.3-.3 16.6 2.1.7.2 1.2-.6.6-.9zM144.8 348c-.7-.3-1.5-.5-2.3-.6-.6 0-.6 1 0 1s1.2.2 1.7.4c.7.3 1.2-.5.6-.8zM90.7 351.4c-5.3 1-10.6 1.3-15.8 3-.6.2-.3 1.2.3 1 5.1-1.7 10.5-2 15.8-3 .6-.1.3-1.1-.3-1zM24.7 359.2c-2.6-.8-5.3-2-8-1.5-.6.1-.4 1.1.3 1 2.5-.4 5.1.8 7.5 1.5.5.1.8-.8.2-1zM35.7 350.2c-1.6.6-3 1.4-4.2 2.6-.5.5.2 1.2.7.7 1.1-1.1 2.3-1.9 3.8-2.4.5-.2.3-1.1-.3-.9zM-9.7 354c-2-1.2-4.1-2.3-6.4-2.8-.6-.1-.9.8-.3 1 2.2.5 4.2 1.5 6.1 2.7.6.3 1.1-.6.6-.9zM-71.6 349.2c-1.3.3-2.5 1-3.6 1.8-.5.4 0 1.2.5.9 1-.8 2.1-1.4 3.4-1.7.6-.2.3-1.2-.3-1zM-58.3 444.4c-3.7-1.5-7.3-3.2-10.9-4.9-.6-.3-1.1.6-.5.9 3.6 1.8 7.3 3.5 11.1 5.1.6.1.9-.8.3-1.1zM-39.7 447c-2.6 1.3-5.3.5-8 .4-.6 0-.6 1 0 1 3 .1 5.7.8 8.5-.6.6-.2.1-1.1-.5-.8zM-23.7 441c-1.1.8-2.3 1.5-3.1 2.6-.4.5.3 1.2.7.7.8-1 1.9-1.7 2.9-2.4.5-.4 0-1.3-.5-.9zM-16.1 442.1c-1.5 1.4-3.3 2.1-5.3 2.6-.6.2-.4 1.1.3 1 2.1-.5 4.1-1.3 5.7-2.9.5-.5-.2-1.2-.7-.7zM-17.3 437.2c-1-.2-2-.5-3-.2-.6.2-.4 1.1.3 1 .8-.2 1.7.1 2.5.2.5.1.8-.9.2-1zM-8.3 446.2c-1.5.5-3.2.5-4.8.8-.6.1-.4 1 .3 1 1.6-.2 3.2-.3 4.8-.8.5-.3.3-1.2-.3-1zM-28.5 446.7c-.6-.3-1.1-.3-1.8-.3-.6 0-.6 1 0 1 .4 0 .8 0 1.2.2.7.2 1.2-.6.6-.9zM-33.7 443.5c-.4.2-.8.3-1.2.5-.6.3-.1 1.1.5.9.4-.2.8-.3 1.2-.5.6-.3.1-1.2-.5-.9zM-1.1 443.2c-1.9-.5-3.6-1.4-5.5-2-.6-.2-.9.8-.3 1 1.9.6 3.6 1.5 5.5 2 .7.1.9-.9.3-1zM3 448.2c-2 0-4 0-5.9-.2-.6-.1-.6.9.1 1 1.9.3 3.8.2 5.8.2v-1zM9.9 441.9c-1.3-.2-2.5-.3-3.8 0-.6.1-.4 1.1.3 1 1.1-.2 2.2-.2 3.2 0 .7.1 1-.9.3-1zM18.7 446.7c-2.2.9-4.5 1.2-6.9 1-.6-.1-.6.9 0 1 2.5.2 4.9-.1 7.1-1 .6-.3.4-1.3-.2-1zM22.7 438.7c-2.3.9-4.6 2-6.2 3.9-.4.5.3 1.2.7.7 1.5-1.7 3.6-2.8 5.8-3.6.5-.3.3-1.3-.3-1zM32.5 444.7c-2.2 1.3-4.9.8-7.4 1.2-.6.1-.4 1.1.3 1 2.6-.4 5.2.1 7.6-1.3.6-.3.1-1.2-.5-.9zM45.5 446.4c-6.9-.4-12.7-4.4-18.2-8.2-.5-.4-1 .5-.5.9 5.7 3.9 11.7 7.9 18.8 8.3.6 0 .6-1-.1-1zM59.2 447.7c-3.9.6-7.7.2-11.5-.8-.6-.2-.9.8-.3 1 4 1 7.9 1.4 12 .8.7-.2.4-1.1-.2-1zM72 448.2c-3 0-5.6 0-8.2-.5-.6-.1-.8.8-.2 1 2.8.5 5.4.5 8.4.5v-1zM60 440.9c-1 0-1 1 0 1v-1zM85.2 443.8c-2.3 2.6-5.8 3.3-9.1 3.6-.6.1-.6 1.1 0 1 3.6-.3 7.4-1.1 9.9-3.9.3-.5-.4-1.2-.8-.7zM85.3 438c-1.4.9-2.4 2-3 3.5-.2.6.8.9 1 .3.5-1.3 1.4-2.2 2.5-3 .5-.3 0-1.2-.5-.8zM93.9 440.9c-1.3.5-2.4 1.5-3 2.7-.3.6.6 1.1.9.5.5-1 1.4-1.8 2.5-2.3.5-.2.2-1.1-.4-.9zM99.9 447.9c-4-1.4-8.8-.7-12.8.5-.6.2-.4 1.1.3 1 3.8-1.1 8.4-1.8 12.2-.5.7.2.9-.8.3-1zM104.8 447.5c-1.7-.7-4.2-1.5-4.8-3.5-.2-.6-1.1-.4-1 .3.7 2.3 3.2 3.2 5.2 4 .7.3 1.2-.6.6-.8zM117.4 448.2c-3.1-.8-6.4-1-9.5-.5-.6.1-.4 1.1.3 1 3-.5 6.1-.2 9 .5.6.1.9-.9.2-1zM139.2 447.7c-2.5.5-5.1.3-7.5 1.2-.6.2-.3 1.2.3 1 2.4-1 5-.8 7.5-1.2.6-.2.3-1.1-.3-1zM146.9 445.9c-.2-.1-.5 0-.7 0-.1 0-.2.1-.2.1-.1 0-.2 0-.2.1h-.2c-.6 0-.6 1 0 1 .4 0 1.1-.2 1.4-.5.2-.1.2-.5-.1-.7zM72.8 357.2c-3-1.4-5.6-3.7-9.1-3.1-.6.1-.4 1.1.3 1 3.1-.6 5.7 1.7 8.4 2.9.5.4 1-.5.4-.8zM74.3 350.2c-2.4-.3-4.6-.9-7-.8-.6 0-.6 1 0 1 2.4-.2 4.7.5 7 .8.6 0 .6-1 0-1zM54 348.4c-2.5-.3-6.2-.9-7.9 1.5-.4.5.5 1 .9.5 1.4-2 5-1.2 7.1-1 .6.1.6-.9-.1-1zM24 349.4c-3.8-.4-7.6-1.1-11.4-1.2-3.8-.1-7.3 1.1-10.6 3-.6.3-.1 1.2.5.9 3.4-2 6.9-2.9 10.8-2.9 3.6.1 7.1.8 10.7 1.2.7.1.7-.9 0-1zM-16.1 356.1c-4.4-3.7-10.3-6.7-16.1-7.4-.6-.1-.6.9 0 1 5.5.7 11.2 3.6 15.4 7.1.5.4 1.2-.3.7-.7zM-20.5 344.7c-1.4-.8-2.9-.8-4.4-.3-.6.2-.3 1.2.3 1 1.2-.5 2.5-.4 3.6.2.6.3 1.1-.6.5-.9zM-55.8 348.4c-3.3.5-7 .1-9 3.2-.4.5.5 1 .9.5 1.8-2.8 5.6-2.3 8.5-2.8.5 0 .2-1-.4-.9zM-85.1 348.6c.1 0 .1 0 0 0zM-84.9 348.6c-.1 0-.1 0-.2-.1-.2-.1-.3-.1-.5-.2h-.2-.1c-.4-.1-.7-.2-1.1-.2-.6 0-.6 1 0 1-.1 0 .2 0 .3.1.2.1.5.1.7.2.3.1.7.3 1 .2.4-.2.5-.8.1-1zM-3.3 349.8c-1.8 1.4-3.9 0-5.6-.8-.6-.3-1.1.6-.5.9 2.3 1.1 4.5 2.5 6.9.7.4-.5-.3-1.2-.8-.8z"/></svg>