<svg xmlns="http://www.w3.org/2000/svg" width="480" height="210" viewBox="0 0 480 210"><path fill="#F0A733" d="M240.254 196.083l45.2-108.143c-14.25-4.4-29.393-6.773-45.09-6.773h-.73c-15.717 0-30.88 2.378-45.147 6.79l45.767 108.126z"/><path fill="#D72251" d="M130.727 126.876l62.205 45.582-27.444-72.09a153.17 153.17 0 0 0-34.76 26.508zM317.013 101.787l-30.785 70.67 63.544-45.07a153.247 153.247 0 0 0-32.76-25.6zM248.477 124.167h-17.954l8.977-87z"/><path fill="#F0A733" d="M161.52 121.49l-8.936 7.656-32.637-47.13zM318.19 123.19l8.86 7.747 33.104-46.804z"/></svg>