<svg xmlns="http://www.w3.org/2000/svg" width="305.834" height="176.833" viewBox="0 0 305.834 176.833"><path fill="#0C3846" d="M206.917 106h-108l-20-99h148z"/><path fill="#D72251" d="M98.917 106h108l1.362-6.995c-5.537-25.49-28.214-44.713-55.363-44.713S103.09 73.575 97.554 99.066L98.917 106z"/><g fill="#FCDCA4"><path d="M149 27.5l-16.5-5.68L116 27.5V7h33zM189 27.5l-16.5-5.68L156 27.5V7h33z"/></g><g fill="#FCDCA4"><path d="M156 84.5l16.5 5.68L189 84.5V106h-33zM116 84.5l16.5 5.68L149 84.5V106h-33z"/></g><g fill="#FCDCA4"><path d="M97.917 72l-8.3-65h16.6zM205.917 72l-8.3-65h16.6z"/></g><circle fill="#75A08A" cx="125.417" cy="74.333" r="2.833"/><circle fill="#75A08A" cx="197.417" cy="98.333" r="2.833"/><circle fill="#75A08A" cx="152.417" cy="77.333" r="2.833"/><circle fill="#75A08A" cx="106.417" cy="98.333" r="2.833"/><circle fill="#75A08A" cx="162.417" cy="63.333" r="2.833"/><circle fill="#75A08A" cx="176.417" cy="77.333" r="2.833"/><circle fill="#75A08A" cx="139.417" cy="66.333" r="2.833"/></svg>