<svg id="Layer_1" xmlns="http://www.w3.org/2000/svg" width="305.834" height="176.833" viewBox="-152 308.1 305.8 176.9"><style>.beast-mouth-12-st-0{fill:#f0a732}.beast-mouth-12-st-1{fill:#0b3746}.beast-mouth-12-st-2{fill:#fcdca4}.beast-mouth-12-st-3{fill:#d72050}.beast-mouth-12-st-4{fill:#d72051}</style><path class="beast-mouth-12-st-0" d="M-14.9 363.3c.2.5 1.6 1.1 2.3 3.2 1.7 5 2.2 16.6 4.4 20 1.4-3.5-3-13.6-2.8-18.4.1-3.4.7-6.4 2.4-3.8 1.7 2.6 3.3 7.7 2.3.8s.6-8.1 3.7-9.5c3.1-1.4 1.6-9.1 1.6-9.1l-16.9 10c.1-.2 3 6.7 3 6.8z"/><path class="beast-mouth-12-st-1" d="M-36.1 424.9s-2.1-84 43.7-82.1c0 0 37.6-5.4 62.1 59.3 0 .1-79.2-141.8-105.8 22.8z"/><path class="beast-mouth-12-st-0" d="M13.6 447.6S-3 452.1-6.9 480.7c0 0-.2-23.3 11.5-32l14.9-2.3-5.9 1.2z"/><path class="beast-mouth-12-st-0" d="M4.5 457s-11.6 3.5-14.5 24.6c0 0 .1-17.2 8.3-23.7L8.6 456l-4.1 1z"/><path class="beast-mouth-12-st-0" d="M-2 452.6s-5.3 10.9 8.2 27.3c0 0-12.6-11.7-11.8-22.2l5.6-8.9-2 3.8z"/><circle class="beast-mouth-12-st-2" cx="105.8" cy="401" r="1.8"/><circle class="beast-mouth-12-st-2" cx="-95.2" cy="345" r="1.8"/><ellipse class="beast-mouth-12-st-2" cx="-81.2" cy="399" rx="1.8" ry="4"/><path class="beast-mouth-12-st-1" d="M-4.7 452.6s-.5 26.6 31.5 25c0 0-27-2.8-31.5-25z"/><path class="beast-mouth-12-st-1" d="M-3 450.9s0 26.6-32 24.4c.1 0 27.1-2.3 32-24.4zM-122.182 321.84l.21-.213 3.92 3.858-.21.214z"/><path class="beast-mouth-12-st-1" d="M-122.016 325.71l-.213-.21 3.86-3.92.213.21zM-112.998 321.8l.21-.214 3.92 3.86-.21.212z"/><path class="beast-mouth-12-st-1" d="M-112.842 325.74l-.214-.21 3.86-3.92.212.21zM-103.885 321.83l.21-.214 3.92 3.86-.21.213z"/><path class="beast-mouth-12-st-1" d="M-103.74 325.7l-.214-.212 3.86-3.92.212.21zM-94.702 321.79l.21-.214 3.92 3.858-.21.214z"/><path class="beast-mouth-12-st-1" d="M-94.567 325.728l-.214-.21 3.858-3.92.214.21zM-85.59 321.82l.212-.214 3.92 3.86-.212.213z"/><path class="beast-mouth-12-st-1" d="M-85.394 325.758l-.214-.21 3.86-3.92.213.21zM-76.476 321.85l.21-.213 3.92 3.858-.21.214z"/><path class="beast-mouth-12-st-1" d="M-76.292 325.717l-.214-.21 3.86-3.92.213.21zM-67.293 321.81l.21-.214 3.92 3.86-.21.212z"/><path class="beast-mouth-12-st-1" d="M-67.12 325.747l-.213-.21 3.86-3.92.213.21zM-58.18 321.84l.21-.214 3.92 3.86-.21.213z"/><path class="beast-mouth-12-st-1" d="M-58.017 325.706l-.214-.21 3.858-3.92.214.21zM-48.996 321.8l.21-.214 3.92 3.858-.21.214z"/><path class="beast-mouth-12-st-1" d="M-48.844 325.736l-.213-.21 3.858-3.92.215.21zM-39.883 321.83l.21-.214 3.92 3.86-.21.213z"/><path class="beast-mouth-12-st-1" d="M-39.742 325.695l-.213-.21 3.858-3.92.214.21zM-30.7 321.79l.21-.215 3.92 3.86-.21.213z"/><path class="beast-mouth-12-st-1" d="M-30.568 325.725l-.214-.21 3.86-3.92.212.21zM-21.587 321.82l.21-.214 3.92 3.86-.21.213z"/><path class="beast-mouth-12-st-1" d="M-21.395 325.755l-.214-.21 3.86-3.92.214.21zM-12.474 321.85l.21-.214 3.92 3.86-.21.213z"/><path class="beast-mouth-12-st-1" d="M-12.293 325.714l-.214-.21 3.86-3.92.213.21zM-3.29 321.81l.21-.214 3.92 3.86-.21.212z"/><path class="beast-mouth-12-st-1" d="M-3.12 325.744l-.214-.21 3.86-3.92.213.21zM5.823 321.84l.21-.214 3.92 3.86-.21.213z"/><path class="beast-mouth-12-st-1" d="M5.982 325.703l-.214-.21 3.86-3.92.213.21zM15.006 321.8l.21-.214 3.92 3.858-.21.214z"/><path class="beast-mouth-12-st-1" d="M15.155 325.733l-.214-.21 3.86-3.92.214.21zM24.12 321.83l.21-.214 3.92 3.86-.212.213z"/><path class="beast-mouth-12-st-1" d="M24.257 325.692l-.214-.21 3.86-3.92.213.21zM33.232 321.86l.21-.214 3.92 3.86-.21.213z"/><path class="beast-mouth-12-st-1" d="M33.43 325.722l-.213-.21 3.858-3.92.214.21zM42.415 321.82l.21-.214 3.92 3.86-.21.212z"/><path class="beast-mouth-12-st-1" d="M42.604 325.75l-.214-.21 3.86-3.918.212.21zM51.528 321.85l.21-.214 3.92 3.86-.21.213z"/><path class="beast-mouth-12-st-1" d="M51.706 325.71l-.214-.21 3.86-3.92.212.212zM60.712 321.81l.21-.215 3.92 3.86-.21.213z"/><path class="beast-mouth-12-st-1" d="M60.88 325.74l-.215-.21 3.86-3.92.213.21zM69.825 321.84l.21-.214 3.92 3.86-.21.213z"/><path class="beast-mouth-12-st-1" d="M69.98 325.7l-.213-.21 3.86-3.92.213.21zM79.008 321.8l.21-.215 3.92 3.86-.21.213z"/><path class="beast-mouth-12-st-1" d="M79.154 325.73l-.214-.21 3.86-3.92.213.21zM88.12 321.83l.212-.214 3.92 3.86-.212.212z"/><path class="beast-mouth-12-st-1" d="M88.256 325.69l-.214-.212 3.86-3.92.213.212zM97.234 321.86l.21-.214 3.92 3.86-.21.213z"/><path class="beast-mouth-12-st-1" d="M97.43 325.72l-.215-.212 3.86-3.92.213.21zM106.418 321.82l.21-.214 3.92 3.858-.21.214z"/><path class="beast-mouth-12-st-1" d="M106.602 325.748l-.213-.21 3.857-3.92.214.21zM115.53 321.85l.21-.214 3.92 3.86-.21.213z"/><path class="beast-mouth-12-st-1" d="M115.704 325.708l-.213-.21 3.86-3.92.213.21zM124.714 321.81l.21-.215 3.92 3.86-.21.213z"/><path class="beast-mouth-12-st-1" d="M124.878 325.737l-.214-.21 3.86-3.92.212.21zM-122.192 338.745l.21-.214 3.92 3.86-.21.214z"/><path class="beast-mouth-12-st-1" d="M-122.025 342.634l-.214-.21 3.86-3.92.214.21zM-113.01 338.704l.212-.213 3.92 3.86-.21.213z"/><path class="beast-mouth-12-st-1" d="M-112.85 342.663l-.215-.21 3.86-3.92.212.21zM-103.896 338.735l.21-.214 3.92 3.86-.21.214z"/><path class="beast-mouth-12-st-1" d="M-103.75 342.623l-.213-.21 3.858-3.92.214.21zM-94.712 338.694l.21-.214 3.92 3.86-.21.213z"/><path class="beast-mouth-12-st-1" d="M-94.576 342.652l-.214-.21 3.86-3.92.212.21zM-85.6 338.725l.21-.214 3.92 3.86-.21.213z"/><path class="beast-mouth-12-st-1" d="M-85.403 342.682l-.214-.21 3.86-3.92.213.21zM-76.486 338.755l.21-.214 3.92 3.86-.21.214z"/><path class="beast-mouth-12-st-1" d="M-76.3 342.64l-.215-.21 3.86-3.918.213.21zM-67.303 338.715l.21-.214 3.92 3.86-.21.213z"/><path class="beast-mouth-12-st-1" d="M-67.128 342.67l-.214-.21 3.86-3.92.213.212zM-58.19 338.745l.21-.214 3.92 3.86-.21.214z"/><path class="beast-mouth-12-st-1" d="M-58.026 342.63l-.214-.21 3.86-3.92.213.21zM-49.006 338.704l.21-.214 3.92 3.86-.21.213z"/><path class="beast-mouth-12-st-1" d="M-48.853 342.66l-.213-.21 3.858-3.92.214.21zM-39.893 338.735l.21-.214 3.92 3.86-.21.214z"/><path class="beast-mouth-12-st-1" d="M-39.75 342.62l-.215-.21 3.86-3.92.213.21zM-30.71 338.694l.21-.214 3.92 3.86-.21.213z"/><path class="beast-mouth-12-st-1" d="M-30.578 342.65l-.213-.21 3.857-3.92.214.21zM-21.597 338.725l.21-.214 3.92 3.86-.21.213z"/><path class="beast-mouth-12-st-1" d="M-21.404 342.68l-.214-.212 3.86-3.92.212.21zM-12.484 338.755l.21-.214 3.92 3.86-.21.214z"/><path class="beast-mouth-12-st-1" d="M-12.302 342.638l-.214-.21 3.86-3.92.212.21zM-3.3 338.714l.21-.213 3.92 3.86-.21.213z"/><path class="beast-mouth-12-st-1" d="M-3.13 342.668l-.213-.21 3.86-3.92.213.21zM5.813 338.745l.21-.214 3.92 3.86-.21.214z"/><path class="beast-mouth-12-st-1" d="M5.973 342.627l-.214-.21 3.858-3.92.214.21zM14.996 338.704l.21-.214 3.92 3.86-.21.213z"/><path class="beast-mouth-12-st-1" d="M15.146 342.657l-.214-.21 3.86-3.92.213.21zM24.11 338.735l.21-.214 3.92 3.86-.212.213z"/><path class="beast-mouth-12-st-1" d="M24.248 342.616l-.214-.21 3.86-3.92.213.21zM33.222 338.765l.21-.214 3.92 3.86-.21.214z"/><path class="beast-mouth-12-st-1" d="M33.42 342.646l-.213-.21 3.86-3.92.213.21zM42.405 338.724l.21-.213 3.92 3.86-.21.213z"/><path class="beast-mouth-12-st-1" d="M42.594 342.676l-.213-.21 3.86-3.92.213.21zM51.518 338.755l.21-.214 3.92 3.86-.21.214z"/><path class="beast-mouth-12-st-1" d="M51.696 342.635l-.213-.21 3.858-3.92.215.21zM60.702 338.714l.21-.214 3.92 3.86-.21.213z"/><path class="beast-mouth-12-st-1" d="M60.87 342.665l-.214-.21 3.86-3.92.212.21zM69.815 338.745l.21-.214 3.92 3.86-.21.213z"/><path class="beast-mouth-12-st-1" d="M69.972 342.624l-.214-.21 3.86-3.92.212.21zM78.998 338.704l.21-.214 3.92 3.86-.21.213z"/><path class="beast-mouth-12-st-1" d="M79.145 342.654l-.214-.21 3.86-3.92.214.21zM88.11 338.734l.212-.213 3.92 3.86-.212.213z"/><path class="beast-mouth-12-st-1" d="M88.247 342.613l-.214-.21 3.86-3.92.212.21zM97.224 338.765l.21-.214 3.92 3.86-.21.214z"/><path class="beast-mouth-12-st-1" d="M97.42 342.643l-.214-.21 3.86-3.92.213.21zM106.407 338.724l.21-.214 3.92 3.86-.21.213z"/><path class="beast-mouth-12-st-1" d="M106.593 342.672l-.214-.21 3.858-3.92.214.21zM115.52 338.755l.21-.214 3.92 3.86-.21.214z"/><path class="beast-mouth-12-st-1" d="M115.695 342.632l-.214-.21 3.86-3.92.214.21zM124.704 338.714l.21-.214 3.92 3.86-.21.213z"/><path class="beast-mouth-12-st-1" d="M124.868 342.66l-.213-.21 3.858-3.918.214.21zM-127.74 330.476l.212-.213 3.92 3.858-.21.215z"/><path class="beast-mouth-12-st-1" d="M-127.48 334.395l-.214-.21 3.858-3.92.214.21zM-118.555 330.436l.21-.214 3.92 3.86-.21.212z"/><path class="beast-mouth-12-st-1" d="M-118.307 334.425l-.214-.21 3.858-3.92.213.21zM-109.442 330.466l.21-.214 3.92 3.86-.21.213z"/><path class="beast-mouth-12-st-1" d="M-109.205 334.384l-.214-.21 3.86-3.92.213.21zM-100.26 330.425l.21-.213 3.92 3.86-.21.212z"/><path class="beast-mouth-12-st-1" d="M-100.032 334.414l-.214-.21 3.86-3.92.213.21zM-91.146 330.456l.21-.214 3.92 3.86-.21.213z"/><path class="beast-mouth-12-st-1" d="M-90.93 334.373l-.214-.21 3.86-3.92.213.21zM-81.963 330.415l.21-.214 3.92 3.86-.21.214z"/><path class="beast-mouth-12-st-1" d="M-81.757 334.403l-.214-.21 3.858-3.92.214.21zM-72.85 330.446l.21-.214 3.92 3.86-.21.213z"/><path class="beast-mouth-12-st-1" d="M-72.584 334.433l-.214-.21 3.86-3.92.213.21zM-63.736 330.476l.21-.214 3.92 3.86-.21.213z"/><path class="beast-mouth-12-st-1" d="M-63.482 334.392l-.214-.21 3.86-3.92.213.21zM-54.553 330.435l.21-.213 3.92 3.858-.21.214z"/><path class="beast-mouth-12-st-1" d="M-54.31 334.422l-.212-.21 3.86-3.92.212.21zM-45.44 330.466l.21-.214 3.92 3.86-.21.213z"/><path class="beast-mouth-12-st-1" d="M-45.207 334.38l-.213-.21 3.858-3.92.214.212zM-36.257 330.425l.21-.214 3.92 3.86-.21.214z"/><path class="beast-mouth-12-st-1" d="M-36.033 334.41l-.214-.21 3.86-3.92.212.21zM-27.144 330.456l.21-.214 3.92 3.86-.21.213z"/><path class="beast-mouth-12-st-1" d="M-26.93 334.37l-.215-.21 3.86-3.92.212.21zM-17.96 330.415l.21-.214 3.92 3.86-.21.214z"/><path class="beast-mouth-12-st-1" d="M-17.758 334.4l-.214-.21 3.86-3.92.213.21zM-8.847 330.446l.21-.214 3.92 3.86-.21.212z"/><path class="beast-mouth-12-st-1" d="M-8.585 334.43l-.214-.21 3.86-3.92.214.21zM.266 330.476l.21-.214 3.92 3.86-.21.213z"/><path class="beast-mouth-12-st-1" d="M.517 334.39l-.214-.212 3.86-3.92.213.212zM9.45 330.435l.21-.213 3.92 3.858-.212.214z"/><path class="beast-mouth-12-st-1" d="M9.69 334.418l-.214-.21 3.86-3.92.213.21zM18.562 330.466l.21-.214 3.92 3.86-.21.213z"/><path class="beast-mouth-12-st-1" d="M18.792 334.378l-.214-.21 3.86-3.92.213.21zM27.745 330.425l.21-.214 3.92 3.86-.21.214z"/><path class="beast-mouth-12-st-1" d="M27.965 334.408l-.213-.21 3.858-3.92.214.21zM36.858 330.456l.21-.214 3.92 3.86-.21.212z"/><path class="beast-mouth-12-st-1" d="M37.067 334.367l-.213-.21 3.858-3.92.214.21zM45.97 330.486l.212-.214 3.92 3.86-.21.213z"/><path class="beast-mouth-12-st-1" d="M46.24 334.397l-.213-.21 3.86-3.92.212.21zM55.155 330.445l.21-.213 3.92 3.858-.21.214z"/><path class="beast-mouth-12-st-1" d="M55.414 334.426l-.214-.21 3.86-3.92.213.21zM64.268 330.476l.21-.214 3.92 3.86-.21.213z"/><path class="beast-mouth-12-st-1" d="M64.516 334.386l-.214-.21 3.86-3.92.213.21zM73.45 330.435l.212-.214 3.92 3.86-.212.214z"/><path class="beast-mouth-12-st-1" d="M73.69 334.415l-.215-.21 3.86-3.92.213.21zM82.564 330.466l.21-.214 3.92 3.86-.21.212z"/><path class="beast-mouth-12-st-1" d="M82.79 334.375l-.213-.21 3.86-3.92.213.21zM91.747 330.425l.21-.214 3.92 3.86-.21.214z"/><path class="beast-mouth-12-st-1" d="M91.964 334.404l-.214-.21 3.86-3.92.213.21zM100.86 330.455l.21-.213 3.92 3.858-.21.214z"/><path class="beast-mouth-12-st-1" d="M101.066 334.364l-.214-.21 3.86-3.92.213.21zM109.974 330.486l.21-.214 3.92 3.86-.21.213z"/><path class="beast-mouth-12-st-1" d="M110.24 334.393l-.214-.21 3.858-3.92.214.21zM119.157 330.445l.21-.214 3.92 3.86-.21.214z"/><path class="beast-mouth-12-st-1" d="M119.413 334.423l-.214-.21 3.858-3.92.213.21zM-127.74 346.477l.212-.214 3.92 3.86-.21.213z"/><path class="beast-mouth-12-st-1" d="M-127.48 350.395l-.214-.21 3.86-3.92.213.21zM-118.555 346.436l.21-.214 3.92 3.86-.21.213z"/><path class="beast-mouth-12-st-1" d="M-118.307 350.425l-.213-.21 3.86-3.92.212.21zM-109.442 346.467l.21-.214 3.92 3.86-.21.212z"/><path class="beast-mouth-12-st-1" d="M-109.205 350.384l-.213-.21 3.858-3.92.214.21zM-100.26 346.426l.21-.214 3.92 3.86-.21.213z"/><path class="beast-mouth-12-st-1" d="M-100.03 350.414l-.215-.21 3.86-3.92.213.21zM-91.146 346.457l.21-.214 3.92 3.86-.21.212z"/><path class="beast-mouth-12-st-1" d="M-90.93 350.373l-.213-.21 3.86-3.92.212.21zM-81.963 346.416l.21-.214 3.92 3.86-.21.213z"/><path class="beast-mouth-12-st-1" d="M-81.756 350.403l-.214-.21 3.86-3.92.213.21zM-72.85 346.446l.21-.214 3.92 3.86-.21.213z"/><path class="beast-mouth-12-st-1" d="M-72.583 350.432l-.214-.21 3.86-3.92.213.21zM-63.736 346.477l.21-.214 3.92 3.86-.21.213z"/><path class="beast-mouth-12-st-1" d="M-63.48 350.392l-.215-.21 3.86-3.92.213.21zM-54.553 346.436l.21-.214 3.92 3.86-.21.213z"/><path class="beast-mouth-12-st-1" d="M-54.308 350.42l-.213-.21 3.857-3.918.214.21zM-45.44 346.467l.21-.214 3.92 3.86-.21.212z"/><path class="beast-mouth-12-st-1" d="M-45.206 350.38l-.214-.21 3.86-3.92.213.212zM-36.257 346.426l.21-.214 3.92 3.86-.21.213z"/><path class="beast-mouth-12-st-1" d="M-36.033 350.41l-.213-.21 3.858-3.92.214.21zM-27.144 346.456l.21-.213 3.92 3.858-.21.215z"/><path class="beast-mouth-12-st-1" d="M-26.93 350.37l-.214-.21 3.858-3.92.214.21zM-17.96 346.416l.21-.214 3.92 3.86-.21.212z"/><path class="beast-mouth-12-st-1" d="M-17.757 350.4l-.214-.21 3.858-3.92.213.21zM-8.847 346.446l.21-.214 3.92 3.86-.21.213z"/><path class="beast-mouth-12-st-1" d="M-8.584 350.43l-.214-.21 3.86-3.92.213.21z"/><g><path class="beast-mouth-12-st-1" d="M.266 346.477l.21-.214 3.92 3.86-.21.212z"/><path class="beast-mouth-12-st-1" d="M.518 350.39l-.214-.212 3.86-3.92.213.21z"/></g><g><path class="beast-mouth-12-st-1" d="M9.45 346.436l.21-.214 3.92 3.86-.212.213z"/><path class="beast-mouth-12-st-1" d="M9.69 350.418l-.213-.21 3.86-3.92.213.21z"/></g><g><path class="beast-mouth-12-st-1" d="M18.562 346.466l.21-.213 3.92 3.858-.21.215z"/><path class="beast-mouth-12-st-1" d="M18.793 350.378l-.214-.21 3.858-3.92.214.21z"/></g><g><path class="beast-mouth-12-st-1" d="M27.745 346.426l.21-.214 3.92 3.86-.21.212z"/><path class="beast-mouth-12-st-1" d="M27.966 350.407l-.214-.21 3.86-3.92.213.21z"/></g><g><path class="beast-mouth-12-st-1" d="M36.858 346.456l.21-.214 3.92 3.86-.21.213z"/><path class="beast-mouth-12-st-1" d="M37.068 350.367l-.214-.21 3.86-3.92.213.21z"/></g><g><path class="beast-mouth-12-st-1" d="M45.972 346.487l.21-.214 3.92 3.86-.21.212z"/><path class="beast-mouth-12-st-1" d="M46.24 350.396l-.212-.21 3.858-3.92.214.21z"/></g><g><path class="beast-mouth-12-st-1" d="M55.155 346.446l.21-.214 3.92 3.86-.21.213z"/><path class="beast-mouth-12-st-1" d="M55.415 350.426l-.214-.21 3.86-3.92.213.21z"/></g><g><path class="beast-mouth-12-st-1" d="M64.268 346.476l.21-.213 3.92 3.86-.21.212z"/><path class="beast-mouth-12-st-1" d="M64.517 350.385l-.214-.21 3.86-3.92.212.21z"/></g><g><path class="beast-mouth-12-st-1" d="M73.45 346.436l.212-.214 3.92 3.86-.212.213z"/><path class="beast-mouth-12-st-1" d="M73.69 350.415l-.214-.21 3.86-3.92.213.21z"/></g><g><path class="beast-mouth-12-st-1" d="M82.564 346.466l.21-.214 3.92 3.86-.21.213z"/><path class="beast-mouth-12-st-1" d="M82.792 350.374l-.214-.21 3.86-3.92.213.21z"/></g><g><path class="beast-mouth-12-st-1" d="M91.748 346.425l.21-.213 3.92 3.86-.21.212z"/><path class="beast-mouth-12-st-1" d="M91.965 350.404l-.214-.21 3.86-3.92.214.21z"/></g><g><path class="beast-mouth-12-st-1" d="M100.86 346.456l.21-.214 3.92 3.86-.21.213z"/><path class="beast-mouth-12-st-1" d="M101.067 350.363l-.214-.21 3.86-3.92.213.21z"/></g><g><path class="beast-mouth-12-st-1" d="M109.974 346.487l.21-.214 3.92 3.86-.21.212z"/><path class="beast-mouth-12-st-1" d="M110.24 350.393l-.214-.21 3.86-3.92.213.21z"/></g><g><path class="beast-mouth-12-st-1" d="M119.157 346.446l.21-.214 3.92 3.86-.21.213z"/><path class="beast-mouth-12-st-1" d="M119.413 350.423l-.213-.21 3.858-3.92.214.21z"/></g><g><path class="beast-mouth-12-st-1" d="M-122.226 353.86l.21-.214 3.92 3.86-.21.213z"/><path class="beast-mouth-12-st-1" d="M-121.988 357.745l-.214-.21 3.86-3.92.213.21zM-113.043 353.82l.21-.214 3.92 3.858-.21.214z"/><path class="beast-mouth-12-st-1" d="M-112.815 357.775l-.213-.21 3.858-3.92.214.21zM-103.93 353.85l.21-.214 3.92 3.86-.21.213z"/><path class="beast-mouth-12-st-1" d="M-103.713 357.734l-.213-.21 3.858-3.92.214.21zM-94.747 353.81l.21-.215 3.92 3.86-.21.213z"/><path class="beast-mouth-12-st-1" d="M-94.54 357.764l-.213-.21 3.86-3.92.212.21zM-85.634 353.84l.21-.214 3.92 3.86-.21.212z"/><path class="beast-mouth-12-st-1" d="M-85.366 357.793l-.214-.21 3.86-3.92.213.21zM-76.52 353.87l.21-.214 3.92 3.86-.21.213z"/><path class="beast-mouth-12-st-1" d="M-76.264 357.753l-.214-.21 3.86-3.92.213.21zM-67.337 353.83l.21-.214 3.92 3.86-.21.212z"/><path class="beast-mouth-12-st-1" d="M-67.09 357.783l-.215-.21 3.86-3.92.213.21zM-58.224 353.86l.21-.214 3.92 3.86-.21.213z"/><path class="beast-mouth-12-st-1" d="M-57.99 357.742l-.213-.21 3.86-3.92.213.21zM-49.04 353.82l.21-.214 3.92 3.858-.212.214z"/><path class="beast-mouth-12-st-1" d="M-48.816 357.772l-.214-.21 3.86-3.92.213.21zM-39.928 353.85l.21-.214 3.92 3.86-.21.213z"/><path class="beast-mouth-12-st-1" d="M-39.714 357.73l-.214-.21 3.86-3.92.213.212zM-30.745 353.81l.21-.215 3.92 3.86-.21.213z"/><path class="beast-mouth-12-st-1" d="M-30.54 357.76l-.214-.21 3.858-3.92.214.21zM-21.63 353.84l.21-.214 3.918 3.86-.21.212z"/><path class="beast-mouth-12-st-1" d="M-21.367 357.79l-.214-.21 3.858-3.92.213.21zM-12.518 353.87l.21-.214 3.92 3.86-.21.213z"/><path class="beast-mouth-12-st-1" d="M-12.266 357.75l-.213-.21 3.86-3.92.213.21zM-3.335 353.83l.21-.215 3.92 3.86-.21.213z"/><path class="beast-mouth-12-st-1" d="M-3.092 357.78l-.214-.21 3.86-3.92.213.21z"/><g><path class="beast-mouth-12-st-1" d="M5.778 353.86l.21-.214 3.92 3.86-.21.213z"/><path class="beast-mouth-12-st-1" d="M6.01 357.74l-.214-.212 3.86-3.92.212.21z"/></g><g><path class="beast-mouth-12-st-1" d="M14.96 353.82l.212-.215 3.92 3.86-.21.213z"/><path class="beast-mouth-12-st-1" d="M15.183 357.768l-.214-.21 3.858-3.92.214.21z"/></g><g><path class="beast-mouth-12-st-1" d="M24.074 353.85l.21-.214 3.92 3.86-.21.212z"/><path class="beast-mouth-12-st-1" d="M24.285 357.728l-.214-.21 3.86-3.92.214.21z"/></g><g><path class="beast-mouth-12-st-1" d="M33.187 353.88l.21-.214 3.92 3.86-.21.213z"/><path class="beast-mouth-12-st-1" d="M33.458 357.757l-.214-.21 3.86-3.92.213.21z"/></g><g><path class="beast-mouth-12-st-1" d="M42.37 353.84l.21-.214 3.92 3.858-.21.214z"/><path class="beast-mouth-12-st-1" d="M42.63 357.787l-.212-.21 3.858-3.92.214.21z"/></g><g><path class="beast-mouth-12-st-1" d="M51.484 353.87l.21-.214 3.92 3.86-.21.213z"/><path class="beast-mouth-12-st-1" d="M51.733 357.747l-.214-.21 3.858-3.92.214.21z"/></g><g><path class="beast-mouth-12-st-1" d="M60.667 353.83l.21-.215 3.92 3.86-.21.213z"/><path class="beast-mouth-12-st-1" d="M60.907 357.776l-.214-.21 3.86-3.92.212.21z"/></g><g><path class="beast-mouth-12-st-1" d="M69.78 353.86l.21-.214 3.92 3.86-.21.212z"/><path class="beast-mouth-12-st-1" d="M70.008 357.736l-.213-.21 3.86-3.92.212.21z"/></g><g><path class="beast-mouth-12-st-1" d="M78.963 353.82l.21-.215 3.92 3.86-.21.213z"/><path class="beast-mouth-12-st-1" d="M79.182 357.765l-.214-.21 3.86-3.92.213.21z"/></g><g><path class="beast-mouth-12-st-1" d="M88.077 353.85l.21-.214 3.92 3.858-.21.214z"/><path class="beast-mouth-12-st-1" d="M88.284 357.725l-.214-.21 3.86-3.92.212.21z"/></g><g><path class="beast-mouth-12-st-1" d="M97.19 353.88l.21-.214 3.92 3.86-.21.213z"/><path class="beast-mouth-12-st-1" d="M97.457 357.754l-.214-.21 3.86-3.92.213.21z"/></g><g><path class="beast-mouth-12-st-1" d="M106.373 353.84l.21-.215 3.92 3.86-.21.213z"/><path class="beast-mouth-12-st-1" d="M106.63 357.784l-.214-.21 3.86-3.92.213.21z"/></g><g><path class="beast-mouth-12-st-1" d="M115.486 353.87l.21-.214 3.92 3.86-.21.212z"/><path class="beast-mouth-12-st-1" d="M115.732 357.743l-.214-.21 3.86-3.92.213.21z"/></g><g><path class="beast-mouth-12-st-1" d="M124.67 353.83l.21-.215 3.92 3.86-.21.213z"/><path class="beast-mouth-12-st-1" d="M124.905 357.773l-.213-.21 3.858-3.92.214.21z"/></g></g><g><path class="beast-mouth-12-st-1" d="M-122.237 370.765l.21-.214 3.92 3.86-.21.214z"/><path class="beast-mouth-12-st-1" d="M-121.997 374.67l-.214-.21 3.858-3.92.214.21zM-113.053 370.724l.21-.214 3.92 3.86-.21.213z"/><path class="beast-mouth-12-st-1" d="M-112.824 374.7l-.214-.21 3.86-3.92.213.21zM-103.94 370.755l.21-.214 3.92 3.86-.21.214z"/><path class="beast-mouth-12-st-1" d="M-103.722 374.658l-.214-.21 3.86-3.92.213.21zM-94.757 370.714l.21-.214 3.92 3.86-.21.213z"/><path class="beast-mouth-12-st-1" d="M-94.55 374.688l-.212-.21 3.858-3.92.214.21zM-85.644 370.745l.21-.214 3.92 3.86-.21.213z"/><path class="beast-mouth-12-st-1" d="M-85.375 374.718l-.214-.21 3.86-3.92.213.21zM-76.53 370.775l.21-.214 3.92 3.86-.21.214z"/><path class="beast-mouth-12-st-1" d="M-76.273 374.677l-.214-.21 3.86-3.92.212.21zM-67.347 370.734l.21-.213 3.92 3.86-.21.213z"/><path class="beast-mouth-12-st-1" d="M-67.1 374.707l-.214-.21 3.86-3.92.213.21zM-58.234 370.765l.21-.214 3.92 3.86-.21.214z"/><path class="beast-mouth-12-st-1" d="M-57.998 374.666l-.214-.21 3.86-3.92.213.21zM-49.05 370.724l.21-.214 3.92 3.86-.212.213z"/><path class="beast-mouth-12-st-1" d="M-48.825 374.696l-.214-.21 3.86-3.92.214.21zM-39.938 370.755l.21-.214 3.92 3.86-.21.213z"/><path class="beast-mouth-12-st-1" d="M-39.723 374.655l-.214-.21 3.86-3.92.213.21zM-30.755 370.714l.21-.214 3.92 3.86-.21.213z"/><path class="beast-mouth-12-st-1" d="M-30.55 374.685l-.214-.21 3.86-3.92.213.21zM-21.642 370.744l.21-.213 3.92 3.86-.21.213z"/><path class="beast-mouth-12-st-1" d="M-21.377 374.714l-.213-.21 3.858-3.92.214.21zM-12.528 370.775l.21-.214 3.92 3.86-.21.214z"/><path class="beast-mouth-12-st-1" d="M-12.275 374.674l-.213-.21 3.858-3.92.214.21zM-3.345 370.734l.21-.214 3.92 3.86-.21.213z"/><path class="beast-mouth-12-st-1" d="M-3.1 374.703l-.215-.21 3.86-3.92.212.21z"/><g><path class="beast-mouth-12-st-1" d="M5.768 370.765l.21-.214 3.92 3.86-.21.213z"/><path class="beast-mouth-12-st-1" d="M6 374.663l-.213-.21 3.86-3.92.212.21z"/></g><g><path class="beast-mouth-12-st-1" d="M14.95 370.724l.212-.214 3.92 3.86-.212.213z"/><path class="beast-mouth-12-st-1" d="M15.174 374.693l-.214-.21 3.86-3.92.213.21z"/></g><g><path class="beast-mouth-12-st-1" d="M24.064 370.754l.21-.213 3.92 3.86-.21.213z"/><path class="beast-mouth-12-st-1" d="M24.276 374.652l-.214-.21 3.86-3.92.213.21z"/></g><g><path class="beast-mouth-12-st-1" d="M33.177 370.785l.21-.214 3.92 3.86-.21.214z"/><path class="beast-mouth-12-st-1" d="M33.45 374.682l-.215-.21 3.86-3.92.213.21z"/></g><g><path class="beast-mouth-12-st-1" d="M42.36 370.744l.21-.214 3.92 3.86-.21.213z"/><path class="beast-mouth-12-st-1" d="M42.622 374.71l-.214-.21 3.86-3.92.213.212z"/></g><g><path class="beast-mouth-12-st-1" d="M51.474 370.775l.21-.214 3.92 3.86-.21.214z"/><path class="beast-mouth-12-st-1" d="M51.724 374.67l-.214-.21 3.86-3.92.213.21z"/></g><g><path class="beast-mouth-12-st-1" d="M60.657 370.734l.21-.214 3.92 3.86-.21.213z"/><path class="beast-mouth-12-st-1" d="M60.897 374.7l-.213-.21 3.858-3.92.214.21z"/></g><g><path class="beast-mouth-12-st-1" d="M69.77 370.764l.21-.213 3.92 3.86-.21.213z"/><path class="beast-mouth-12-st-1" d="M70 374.66l-.214-.21 3.858-3.92.214.21z"/></g><g><path class="beast-mouth-12-st-1" d="M78.953 370.724l.21-.214 3.92 3.86-.21.213z"/><path class="beast-mouth-12-st-1" d="M79.173 374.69l-.214-.21 3.858-3.92.213.21z"/></g><g><path class="beast-mouth-12-st-1" d="M88.066 370.754l.21-.214 3.92 3.86-.21.213z"/><path class="beast-mouth-12-st-1" d="M88.274 374.65l-.213-.212 3.86-3.92.213.21z"/></g><g><path class="beast-mouth-12-st-1" d="M97.18 370.785l.21-.214 3.92 3.86-.21.214z"/><path class="beast-mouth-12-st-1" d="M97.448 374.678l-.214-.21 3.86-3.92.212.21z"/></g><g><path class="beast-mouth-12-st-1" d="M106.363 370.744l.21-.214 3.92 3.86-.21.213z"/><path class="beast-mouth-12-st-1" d="M106.62 374.708l-.213-.21 3.86-3.92.213.21z"/></g><g><path class="beast-mouth-12-st-1" d="M115.476 370.775l.21-.214 3.92 3.86-.21.213z"/><path class="beast-mouth-12-st-1" d="M115.723 374.667l-.214-.21 3.858-3.92.214.21z"/></g><g><path class="beast-mouth-12-st-1" d="M124.66 370.734l.21-.214 3.92 3.86-.212.213z"/><path class="beast-mouth-12-st-1" d="M124.896 374.697l-.214-.21 3.86-3.92.213.21z"/></g></g><g><path class="beast-mouth-12-st-1" d="M-127.712 362.566l.21-.213 3.92 3.858-.21.215z"/><path class="beast-mouth-12-st-1" d="M-127.453 366.43l-.214-.21 3.86-3.92.213.212zM-118.53 362.526l.212-.214 3.92 3.86-.21.212z"/><path class="beast-mouth-12-st-1" d="M-118.28 366.46l-.213-.21 3.858-3.92.214.21zM-109.416 362.556l.21-.214 3.92 3.86-.21.213z"/><path class="beast-mouth-12-st-1" d="M-109.178 366.42l-.213-.21 3.857-3.92.214.21zM-100.232 362.515l.21-.213 3.92 3.858-.21.214z"/><path class="beast-mouth-12-st-1" d="M-100.004 366.45l-.214-.21 3.86-3.92.212.21zM-91.12 362.546l.21-.214 3.92 3.86-.21.213z"/><path class="beast-mouth-12-st-1" d="M-90.902 366.41l-.214-.21 3.86-3.92.212.21zM-81.936 362.505l.21-.214 3.92 3.86-.21.214z"/><path class="beast-mouth-12-st-1" d="M-81.73 366.44l-.213-.212 3.86-3.92.213.21zM-72.823 362.536l.21-.214 3.92 3.86-.21.212z"/><path class="beast-mouth-12-st-1" d="M-72.556 366.468l-.214-.21 3.86-3.92.213.21zM-63.71 362.566l.21-.214 3.92 3.86-.21.213z"/><path class="beast-mouth-12-st-1" d="M-63.454 366.428l-.214-.21 3.86-3.92.213.21zM-54.527 362.526l.21-.214 3.92 3.86-.21.212z"/><path class="beast-mouth-12-st-1" d="M-54.28 366.457l-.215-.21 3.86-3.92.213.21zM-45.414 362.556l.21-.214 3.92 3.86-.21.213z"/><path class="beast-mouth-12-st-1" d="M-45.18 366.417l-.213-.21 3.86-3.92.213.21zM-36.23 362.515l.21-.214 3.92 3.86-.21.214z"/><path class="beast-mouth-12-st-1" d="M-36.006 366.446l-.213-.21 3.86-3.92.213.21zM-27.117 362.546l.21-.214 3.92 3.86-.21.213z"/><path class="beast-mouth-12-st-1" d="M-26.904 366.406l-.213-.21 3.858-3.92.215.21zM-17.934 362.505l.21-.214 3.92 3.86-.21.214z"/><path class="beast-mouth-12-st-1" d="M-17.73 366.435l-.214-.21 3.86-3.92.212.21zM-8.82 362.536l.21-.214 3.92 3.86-.21.212z"/><path class="beast-mouth-12-st-1" d="M-8.557 366.465l-.214-.21 3.858-3.92.214.21z"/><g><path class="beast-mouth-12-st-1" d="M.292 362.566l.21-.214 3.92 3.86-.21.213z"/><path class="beast-mouth-12-st-1" d="M.545 366.424l-.214-.21 3.86-3.92.214.21z"/></g><g><path class="beast-mouth-12-st-1" d="M9.476 362.525l.21-.213 3.92 3.858-.21.214z"/><path class="beast-mouth-12-st-1" d="M9.718 366.454l-.214-.21 3.86-3.92.213.21z"/></g><g><path class="beast-mouth-12-st-1" d="M18.59 362.556l.21-.214 3.918 3.86-.21.213z"/><path class="beast-mouth-12-st-1" d="M18.82 366.414l-.214-.21 3.86-3.92.213.21z"/></g><g><path class="beast-mouth-12-st-1" d="M27.772 362.515l.21-.214 3.92 3.86-.21.214z"/><path class="beast-mouth-12-st-1" d="M27.993 366.443l-.214-.21 3.858-3.92.214.21z"/></g><g><path class="beast-mouth-12-st-1" d="M36.885 362.546l.21-.214 3.92 3.86-.21.212z"/><path class="beast-mouth-12-st-1" d="M37.095 366.403l-.214-.21 3.86-3.92.214.21z"/></g><g><path class="beast-mouth-12-st-1" d="M45.998 362.576l.21-.214 3.92 3.86-.21.213z"/><path class="beast-mouth-12-st-1" d="M46.268 366.432l-.213-.21 3.858-3.92.214.21z"/></g><g><path class="beast-mouth-12-st-1" d="M55.18 362.535l.212-.213 3.92 3.858-.21.214z"/><path class="beast-mouth-12-st-1" d="M55.442 366.462l-.214-.21 3.86-3.92.212.21z"/></g><g><path class="beast-mouth-12-st-1" d="M64.294 362.566l.21-.214 3.92 3.86-.21.213z"/><path class="beast-mouth-12-st-1" d="M64.544 366.42l-.214-.21 3.86-3.92.212.212z"/></g><g><path class="beast-mouth-12-st-1" d="M73.478 362.525l.21-.214 3.92 3.86-.21.214z"/><path class="beast-mouth-12-st-1" d="M73.717 366.45l-.214-.21 3.86-3.92.213.21z"/></g><g><path class="beast-mouth-12-st-1" d="M82.59 362.556l.21-.214 3.92 3.86-.21.212z"/><path class="beast-mouth-12-st-1" d="M82.82 366.41l-.215-.21 3.86-3.92.213.21z"/></g><g><path class="beast-mouth-12-st-1" d="M91.774 362.515l.21-.214 3.92 3.86-.21.214z"/><path class="beast-mouth-12-st-1" d="M91.992 366.44l-.214-.21 3.86-3.92.213.21z"/></g><g><path class="beast-mouth-12-st-1" d="M100.887 362.545l.21-.213 3.92 3.86-.21.212z"/><path class="beast-mouth-12-st-1" d="M101.094 366.4l-.214-.21 3.86-3.92.213.21z"/></g><g><path class="beast-mouth-12-st-1" d="M110 362.576l.21-.214 3.92 3.86-.21.213z"/><path class="beast-mouth-12-st-1" d="M110.267 366.43l-.214-.212 3.86-3.92.213.212z"/></g><g><path class="beast-mouth-12-st-1" d="M119.184 362.535l.21-.214 3.92 3.86-.21.214z"/><path class="beast-mouth-12-st-1" d="M119.44 366.458l-.213-.21 3.858-3.92.214.21z"/></g></g><g><path class="beast-mouth-12-st-1" d="M-127.712 378.567l.21-.214 3.92 3.86-.21.213z"/><path class="beast-mouth-12-st-1" d="M-127.452 382.43l-.214-.21 3.86-3.92.213.21zM-118.53 378.526l.212-.214 3.92 3.86-.21.213z"/><path class="beast-mouth-12-st-1" d="M-118.28 382.46l-.213-.21 3.86-3.92.213.21zM-109.416 378.557l.21-.214 3.92 3.86-.21.212z"/><path class="beast-mouth-12-st-1" d="M-109.177 382.42l-.214-.21 3.858-3.92.214.21zM-100.232 378.516l.21-.214 3.92 3.86-.21.213z"/><path class="beast-mouth-12-st-1" d="M-100.004 382.45l-.213-.21 3.858-3.92.215.21zM-91.12 378.546l.21-.213 3.92 3.86-.21.212z"/><path class="beast-mouth-12-st-1" d="M-90.902 382.41l-.213-.212 3.858-3.92.214.21zM-81.936 378.506l.21-.214 3.92 3.86-.21.213z"/><path class="beast-mouth-12-st-1" d="M-81.728 382.438l-.214-.21 3.86-3.92.212.21zM-72.823 378.536l.21-.214 3.92 3.86-.21.213z"/><path class="beast-mouth-12-st-1" d="M-72.555 382.468l-.214-.21 3.86-3.92.214.21zM-63.71 378.567l.21-.214 3.92 3.86-.21.213z"/><path class="beast-mouth-12-st-1" d="M-63.453 382.427l-.214-.21 3.86-3.92.213.21zM-54.527 378.526l.21-.214 3.92 3.86-.21.213z"/><path class="beast-mouth-12-st-1" d="M-54.28 382.457l-.214-.21 3.86-3.92.213.21zM-45.413 378.557l.21-.214 3.92 3.86-.21.212z"/><path class="beast-mouth-12-st-1" d="M-45.178 382.416l-.214-.21 3.86-3.92.213.21zM-36.23 378.516l.21-.214 3.92 3.86-.21.213z"/><path class="beast-mouth-12-st-1" d="M-36.005 382.446l-.214-.21 3.86-3.92.214.21zM-27.117 378.546l.21-.213 3.92 3.858-.21.215z"/><path class="beast-mouth-12-st-1" d="M-26.903 382.405l-.214-.21 3.86-3.92.213.21zM-17.934 378.506l.21-.214 3.92 3.86-.21.212z"/><path class="beast-mouth-12-st-1" d="M-17.73 382.435l-.213-.21 3.858-3.92.214.21zM-8.82 378.536l.21-.214 3.92 3.86-.21.213z"/><path class="beast-mouth-12-st-1" d="M-8.556 382.465l-.214-.21 3.86-3.92.212.21z"/><g><path class="beast-mouth-12-st-1" d="M.292 378.567l.21-.214 3.92 3.86-.21.212z"/><path class="beast-mouth-12-st-1" d="M.546 382.424l-.214-.21 3.86-3.92.212.21z"/></g><g><path class="beast-mouth-12-st-1" d="M9.476 378.526l.21-.214 3.92 3.86-.21.213z"/><path class="beast-mouth-12-st-1" d="M9.72 382.454l-.215-.21 3.86-3.92.213.21z"/></g><g><path class="beast-mouth-12-st-1" d="M18.59 378.556l.21-.213 3.918 3.858-.21.215z"/><path class="beast-mouth-12-st-1" d="M18.82 382.413l-.213-.21 3.86-3.92.213.21z"/></g><g><path class="beast-mouth-12-st-1" d="M27.772 378.516l.21-.214 3.92 3.86-.21.212z"/><path class="beast-mouth-12-st-1" d="M27.994 382.443l-.214-.21 3.86-3.92.213.21z"/></g><g><path class="beast-mouth-12-st-1" d="M36.885 378.546l.21-.214 3.92 3.86-.21.213z"/><path class="beast-mouth-12-st-1" d="M37.096 382.402l-.214-.21 3.86-3.92.213.21z"/></g><g><path class="beast-mouth-12-st-1" d="M45.998 378.577l.21-.214 3.92 3.86-.21.212z"/><path class="beast-mouth-12-st-1" d="M46.27 382.432l-.215-.21 3.86-3.92.213.21z"/></g><g><path class="beast-mouth-12-st-1" d="M55.18 378.536l.212-.214 3.92 3.86-.21.213z"/><path class="beast-mouth-12-st-1" d="M55.442 382.46l-.213-.21 3.857-3.918.214.21z"/></g><g><path class="beast-mouth-12-st-1" d="M64.294 378.566l.21-.213 3.92 3.858-.21.215z"/><path class="beast-mouth-12-st-1" d="M64.544 382.42l-.213-.21 3.86-3.92.213.212z"/></g><g><path class="beast-mouth-12-st-1" d="M73.478 378.526l.21-.214 3.92 3.86-.21.213z"/><path class="beast-mouth-12-st-1" d="M73.718 382.45l-.214-.21 3.86-3.92.212.21z"/></g><g><path class="beast-mouth-12-st-1" d="M82.59 378.556l.21-.214 3.92 3.86-.21.213z"/><path class="beast-mouth-12-st-1" d="M82.82 382.41l-.214-.21 3.86-3.92.212.21z"/></g><g><path class="beast-mouth-12-st-1" d="M91.774 378.515l.21-.213 3.92 3.858-.21.214z"/><path class="beast-mouth-12-st-1" d="M91.993 382.44l-.214-.21 3.858-3.92.213.21z"/></g><g><path class="beast-mouth-12-st-1" d="M100.887 378.546l.21-.214 3.92 3.86-.21.213z"/><path class="beast-mouth-12-st-1" d="M101.095 382.4l-.214-.21 3.86-3.92.213.21z"/></g><g><path class="beast-mouth-12-st-1" d="M110 378.577l.21-.214 3.92 3.86-.21.212z"/><path class="beast-mouth-12-st-1" d="M110.268 382.43l-.214-.212 3.86-3.92.213.21z"/></g><g><path class="beast-mouth-12-st-1" d="M119.184 378.536l.21-.214 3.92 3.86-.21.213z"/><path class="beast-mouth-12-st-1" d="M119.44 382.458l-.213-.21 3.86-3.92.213.21z"/></g></g><g><path class="beast-mouth-12-st-1" d="M-122.2 385.95l.21-.214 3.92 3.86-.21.213z"/><path class="beast-mouth-12-st-1" d="M-122.03 389.852l-.214-.21 3.86-3.92.213.21zM-113.016 385.91l.21-.214 3.92 3.858-.21.214z"/><path class="beast-mouth-12-st-1" d="M-112.857 389.882l-.214-.21 3.858-3.92.214.21zM-103.903 385.94l.21-.214 3.92 3.86-.21.213z"/><path class="beast-mouth-12-st-1" d="M-103.755 389.84l-.214-.21 3.86-3.92.214.212zM-94.72 385.9l.21-.215 3.92 3.86-.21.213z"/><path class="beast-mouth-12-st-1" d="M-94.582 389.87l-.214-.21 3.86-3.92.213.212zM-85.607 385.93l.21-.214 3.92 3.86-.21.213z"/><path class="beast-mouth-12-st-1" d="M-85.41 389.9l-.212-.21 3.858-3.92.214.21zM-76.494 385.96l.21-.214 3.92 3.86-.21.213z"/><path class="beast-mouth-12-st-1" d="M-76.307 389.86l-.213-.21 3.858-3.92.214.21zM-67.31 385.92l.21-.214 3.92 3.858-.21.214z"/><path class="beast-mouth-12-st-1" d="M-67.133 389.89l-.214-.21 3.86-3.92.212.21zM-58.198 385.95l.21-.214 3.92 3.86-.21.213z"/><path class="beast-mouth-12-st-1" d="M-58.032 389.85l-.213-.212 3.858-3.92.214.212zM-49.014 385.91l.21-.215 3.92 3.86-.21.213z"/><path class="beast-mouth-12-st-1" d="M-48.858 389.88l-.214-.212 3.86-3.92.213.21zM-39.9 385.94l.21-.214 3.92 3.86-.212.212z"/><path class="beast-mouth-12-st-1" d="M-39.756 389.838l-.214-.21 3.86-3.92.212.21zM-30.718 385.9l.21-.215 3.92 3.86-.21.213z"/><path class="beast-mouth-12-st-1" d="M-30.583 389.868l-.214-.21 3.86-3.92.213.21zM-21.605 385.93l.21-.214 3.92 3.86-.21.212z"/><path class="beast-mouth-12-st-1" d="M-21.41 389.897l-.214-.21 3.86-3.92.213.21zM-12.492 385.96l.21-.214 3.92 3.86-.21.213z"/><path class="beast-mouth-12-st-1" d="M-12.308 389.857l-.214-.21 3.86-3.92.213.21zM-3.308 385.92l.21-.215 3.92 3.86-.21.213z"/><path class="beast-mouth-12-st-1" d="M-3.135 389.886l-.213-.21 3.858-3.92.214.21z"/><g><path class="beast-mouth-12-st-1" d="M5.805 385.95l.21-.214 3.92 3.86-.21.213z"/><path class="beast-mouth-12-st-1" d="M5.967 389.846l-.213-.21 3.858-3.92.214.21z"/></g><g><path class="beast-mouth-12-st-1" d="M14.988 385.91l.21-.215 3.92 3.86-.21.213z"/><path class="beast-mouth-12-st-1" d="M15.14 389.875l-.213-.21 3.86-3.92.212.21z"/></g><g><path class="beast-mouth-12-st-1" d="M24.1 385.94l.21-.214 3.92 3.86-.21.212z"/><path class="beast-mouth-12-st-1" d="M24.242 389.835l-.213-.21 3.858-3.92.213.21z"/></g><g><path class="beast-mouth-12-st-1" d="M33.214 385.97l.21-.214 3.92 3.86-.21.213z"/><path class="beast-mouth-12-st-1" d="M33.416 389.864l-.214-.21 3.86-3.92.212.21z"/></g><g><path class="beast-mouth-12-st-1" d="M42.397 385.93l.21-.214 3.92 3.858-.21.214z"/><path class="beast-mouth-12-st-1" d="M42.59 389.894l-.215-.21 3.86-3.92.213.21z"/></g><g><path class="beast-mouth-12-st-1" d="M51.51 385.96l.21-.214 3.92 3.86-.21.213z"/><path class="beast-mouth-12-st-1" d="M51.69 389.853l-.213-.21 3.86-3.92.213.21z"/></g><g><path class="beast-mouth-12-st-1" d="M60.694 385.92l.21-.215 3.92 3.86-.21.213z"/><path class="beast-mouth-12-st-1" d="M60.864 389.883l-.214-.21 3.86-3.92.213.21z"/></g><g><path class="beast-mouth-12-st-1" d="M69.807 385.95l.21-.214 3.92 3.86-.21.212z"/><path class="beast-mouth-12-st-1" d="M69.966 389.842l-.214-.21 3.86-3.92.213.21z"/></g><g><path class="beast-mouth-12-st-1" d="M78.99 385.91l.21-.215 3.92 3.86-.21.213z"/><path class="beast-mouth-12-st-1" d="M79.14 389.872l-.215-.21 3.86-3.92.213.21z"/></g><g><path class="beast-mouth-12-st-1" d="M88.103 385.94l.21-.214 3.92 3.858-.21.214z"/><path class="beast-mouth-12-st-1" d="M88.24 389.832l-.213-.21 3.86-3.92.213.21z"/></g><g><path class="beast-mouth-12-st-1" d="M97.216 385.97l.21-.214 3.92 3.86-.21.213z"/><path class="beast-mouth-12-st-1" d="M97.414 389.86l-.213-.21 3.86-3.92.213.212z"/></g><g><path class="beast-mouth-12-st-1" d="M106.4 385.93l.21-.215 3.92 3.86-.21.213z"/><path class="beast-mouth-12-st-1" d="M106.588 389.89l-.214-.21 3.86-3.92.212.21z"/></g><g><path class="beast-mouth-12-st-1" d="M115.513 385.96l.21-.214 3.92 3.86-.21.212z"/><path class="beast-mouth-12-st-1" d="M115.69 389.85l-.214-.21 3.86-3.92.212.21z"/></g><g><path class="beast-mouth-12-st-1" d="M124.696 385.92l.21-.215 3.92 3.86-.21.213z"/><path class="beast-mouth-12-st-1" d="M124.863 389.88l-.214-.21 3.858-3.92.214.21z"/></g></g><g><path class="beast-mouth-12-st-1" d="M-122.21 402.855l.21-.214 3.92 3.86-.21.214z"/><path class="beast-mouth-12-st-1" d="M-121.97 406.705l-.213-.21 3.86-3.92.212.21z"/></g><g><path class="beast-mouth-12-st-1" d="M-113.027 402.814l.21-.214 3.92 3.86-.21.213z"/><path class="beast-mouth-12-st-1" d="M-112.796 406.735l-.214-.21 3.86-3.92.213.21z"/></g><g><path class="beast-mouth-12-st-1" d="M-103.913 402.845l.21-.214 3.92 3.86-.21.214z"/><path class="beast-mouth-12-st-1" d="M-103.694 406.694l-.214-.21 3.86-3.92.213.21z"/></g><g><path class="beast-mouth-12-st-1" d="M-94.73 402.804l.21-.214 3.92 3.86-.21.213z"/><path class="beast-mouth-12-st-1" d="M-94.52 406.724l-.215-.21 3.86-3.92.213.21z"/></g><g><path class="beast-mouth-12-st-1" d="M-85.617 402.835l.21-.214 3.92 3.86-.21.213z"/><path class="beast-mouth-12-st-1" d="M-85.348 406.753l-.213-.21 3.857-3.92.214.21z"/></g><g><path class="beast-mouth-12-st-1" d="M-76.504 402.865l.21-.214 3.92 3.86-.21.214z"/><path class="beast-mouth-12-st-1" d="M-76.246 406.713l-.213-.21 3.86-3.92.213.21z"/></g><g><path class="beast-mouth-12-st-1" d="M-67.32 402.824l.21-.214 3.92 3.86-.212.213z"/><path class="beast-mouth-12-st-1" d="M-67.072 406.742l-.214-.21 3.86-3.92.212.21z"/></g><g><path class="beast-mouth-12-st-1" d="M-58.208 402.855l.21-.214 3.92 3.86-.21.214z"/><path class="beast-mouth-12-st-1" d="M-57.97 406.702l-.214-.21 3.858-3.92.214.21z"/></g><g><path class="beast-mouth-12-st-1" d="M-49.024 402.814l.21-.214 3.92 3.86-.21.213z"/><path class="beast-mouth-12-st-1" d="M-48.797 406.73l-.214-.21 3.858-3.918.214.21z"/></g><g><path class="beast-mouth-12-st-1" d="M-39.91 402.845l.21-.214 3.918 3.86-.21.213z"/><path class="beast-mouth-12-st-1" d="M-39.695 406.69l-.214-.21 3.86-3.92.214.21z"/></g><g><path class="beast-mouth-12-st-1" d="M-30.728 402.804l.21-.214 3.92 3.86-.21.213z"/><path class="beast-mouth-12-st-1" d="M-30.522 406.72l-.214-.21 3.86-3.92.213.21z"/></g><g><path class="beast-mouth-12-st-1" d="M-21.615 402.834l.21-.213 3.92 3.86-.21.213z"/><path class="beast-mouth-12-st-1" d="M-21.35 406.75l-.213-.21 3.86-3.92.213.21z"/></g><g><path class="beast-mouth-12-st-1" d="M-12.502 402.865l.21-.214 3.92 3.86-.21.214z"/><path class="beast-mouth-12-st-1" d="M-12.247 406.71l-.214-.21 3.858-3.92.214.21z"/></g><g><path class="beast-mouth-12-st-1" d="M-3.32 402.824l.212-.214 3.92 3.86-.21.213z"/><path class="beast-mouth-12-st-1" d="M-3.074 406.74l-.213-.21 3.858-3.92.215.21z"/></g><g><path class="beast-mouth-12-st-1" d="M5.794 402.855l.21-.214 3.92 3.86-.21.213z"/><path class="beast-mouth-12-st-1" d="M6.028 406.7l-.213-.212 3.858-3.92.214.21z"/></g><g><path class="beast-mouth-12-st-1" d="M14.978 402.814l.21-.214 3.92 3.86-.21.213z"/><path class="beast-mouth-12-st-1" d="M15.202 406.728l-.214-.21 3.86-3.92.212.21z"/></g><g><path class="beast-mouth-12-st-1" d="M24.09 402.844l.21-.213 3.92 3.86-.21.213z"/><path class="beast-mouth-12-st-1" d="M24.304 406.688l-.214-.21 3.86-3.92.212.21z"/></g><g><path class="beast-mouth-12-st-1" d="M33.204 402.875l.21-.214 3.92 3.86-.21.214z"/><path class="beast-mouth-12-st-1" d="M33.477 406.717l-.214-.21 3.86-3.92.212.21z"/></g><g><path class="beast-mouth-12-st-1" d="M42.387 402.834l.21-.214 3.92 3.86-.21.213z"/><path class="beast-mouth-12-st-1" d="M42.65 406.747l-.214-.21 3.86-3.92.213.21z"/></g><g><path class="beast-mouth-12-st-1" d="M51.5 402.865l.21-.214 3.92 3.86-.21.213z"/><path class="beast-mouth-12-st-1" d="M51.752 406.706l-.214-.21 3.86-3.92.213.21z"/></g><g><path class="beast-mouth-12-st-1" d="M60.683 402.824l.21-.214 3.92 3.86-.21.213z"/><path class="beast-mouth-12-st-1" d="M60.925 406.736l-.214-.21 3.86-3.92.214.21z"/></g><g><path class="beast-mouth-12-st-1" d="M69.797 402.855l.21-.214 3.92 3.86-.21.213z"/><path class="beast-mouth-12-st-1" d="M70.027 406.695l-.214-.21 3.86-3.92.213.21z"/></g><g><path class="beast-mouth-12-st-1" d="M78.98 402.814l.21-.214 3.92 3.86-.21.212z"/><path class="beast-mouth-12-st-1" d="M79.2 406.725l-.214-.21 3.86-3.92.213.21z"/></g><g><path class="beast-mouth-12-st-1" d="M88.093 402.844l.21-.214 3.92 3.86-.21.213z"/><path class="beast-mouth-12-st-1" d="M88.302 406.684l-.214-.21 3.86-3.92.213.21z"/></g><g><path class="beast-mouth-12-st-1" d="M97.206 402.875l.21-.214 3.92 3.86-.21.214z"/><path class="beast-mouth-12-st-1" d="M97.475 406.714l-.213-.21 3.858-3.92.214.21z"/></g><g><path class="beast-mouth-12-st-1" d="M106.39 402.834l.21-.214 3.92 3.86-.21.213z"/><path class="beast-mouth-12-st-1" d="M106.65 406.744l-.215-.21 3.86-3.92.212.21z"/></g><g><path class="beast-mouth-12-st-1" d="M115.502 402.864l.21-.213 3.92 3.86-.21.213z"/><path class="beast-mouth-12-st-1" d="M115.75 406.703l-.213-.21 3.86-3.92.212.21z"/></g><g><path class="beast-mouth-12-st-1" d="M-127.685 394.656l.21-.213 3.92 3.858-.21.215z"/><path class="beast-mouth-12-st-1" d="M-127.495 398.538l-.214-.21 3.86-3.92.214.21zM-118.502 394.616l.21-.214 3.92 3.86-.21.212z"/><path class="beast-mouth-12-st-1" d="M-118.322 398.567l-.214-.21 3.86-3.92.213.21zM-109.39 394.646l.21-.214 3.92 3.86-.21.213z"/><path class="beast-mouth-12-st-1" d="M-109.22 398.527l-.214-.21 3.86-3.92.213.21zM-100.206 394.605l.21-.213 3.92 3.858-.21.214z"/><path class="beast-mouth-12-st-1" d="M-100.047 398.556l-.214-.21 3.858-3.92.214.21zM-91.093 394.636l.21-.214 3.92 3.86-.21.213z"/><path class="beast-mouth-12-st-1" d="M-90.945 398.516l-.214-.21 3.86-3.92.214.21zM-81.91 394.595l.21-.214 3.92 3.86-.21.214z"/><path class="beast-mouth-12-st-1" d="M-81.772 398.546l-.213-.21 3.858-3.92.214.21zM-72.796 394.626l.21-.214 3.92 3.86-.21.212z"/><path class="beast-mouth-12-st-1" d="M-72.598 398.575l-.214-.21 3.86-3.92.212.21zM-63.683 394.656l.21-.214 3.92 3.86-.21.213z"/><path class="beast-mouth-12-st-1" d="M-63.496 398.535l-.214-.21 3.86-3.92.212.21zM-54.5 394.615l.21-.213 3.92 3.86-.21.212z"/><path class="beast-mouth-12-st-1" d="M-54.323 398.564l-.214-.21 3.86-3.92.213.21zM-45.387 394.646l.21-.214 3.92 3.86-.21.213z"/><path class="beast-mouth-12-st-1" d="M-45.22 398.524l-.215-.21 3.86-3.92.213.21zM-36.204 394.605l.21-.214 3.92 3.86-.21.214z"/><path class="beast-mouth-12-st-1" d="M-36.048 398.553l-.214-.21 3.86-3.92.213.21zM-27.09 394.636l.21-.214 3.92 3.86-.21.213z"/><path class="beast-mouth-12-st-1" d="M-26.946 398.513l-.214-.21 3.86-3.92.213.21zM-17.907 394.595l.21-.214 3.92 3.86-.21.214z"/><path class="beast-mouth-12-st-1" d="M-17.773 398.542l-.214-.21 3.86-3.92.213.21zM-8.794 394.626l.21-.214 3.92 3.86-.21.212z"/><path class="beast-mouth-12-st-1" d="M-8.6 398.572l-.213-.21 3.858-3.92.214.21z"/><g><path class="beast-mouth-12-st-1" d="M.32 394.656l.21-.214 3.92 3.86-.212.213z"/><path class="beast-mouth-12-st-1" d="M.502 398.53l-.213-.21 3.857-3.918.214.21z"/></g><g><path class="beast-mouth-12-st-1" d="M9.502 394.615l.21-.214 3.92 3.86-.21.214z"/><path class="beast-mouth-12-st-1" d="M9.676 398.56l-.214-.21 3.86-3.92.212.212z"/></g><g><path class="beast-mouth-12-st-1" d="M18.615 394.646l.21-.214 3.92 3.86-.21.213z"/><path class="beast-mouth-12-st-1" d="M18.778 398.52l-.214-.21 3.86-3.92.212.21z"/></g><g><path class="beast-mouth-12-st-1" d="M27.8 394.605l.21-.214 3.918 3.86-.21.214z"/><path class="beast-mouth-12-st-1" d="M27.95 398.55l-.213-.21 3.86-3.92.213.21z"/></g><g><path class="beast-mouth-12-st-1" d="M36.912 394.636l.21-.214 3.92 3.86-.21.212z"/><path class="beast-mouth-12-st-1" d="M37.053 398.51l-.214-.21 3.858-3.92.213.21z"/></g><g><path class="beast-mouth-12-st-1" d="M46.025 394.666l.21-.214 3.92 3.86-.21.213z"/><path class="beast-mouth-12-st-1" d="M46.226 398.54l-.214-.21 3.86-3.92.213.21z"/></g><g><path class="beast-mouth-12-st-1" d="M55.208 394.625l.21-.213 3.92 3.858-.21.214z"/><path class="beast-mouth-12-st-1" d="M55.4 398.57l-.215-.212 3.86-3.92.213.21z"/></g><g><path class="beast-mouth-12-st-1" d="M64.32 394.656l.212-.214 3.92 3.86-.212.213z"/><path class="beast-mouth-12-st-1" d="M64.5 398.528l-.213-.21 3.86-3.92.213.21z"/></g><g><path class="beast-mouth-12-st-1" d="M73.504 394.615l.21-.214 3.92 3.86-.21.214z"/><path class="beast-mouth-12-st-1" d="M73.674 398.558l-.213-.21 3.86-3.92.213.21z"/></g><g><path class="beast-mouth-12-st-1" d="M82.617 394.646l.21-.214 3.92 3.86-.21.212z"/><path class="beast-mouth-12-st-1" d="M82.776 398.517l-.214-.21 3.86-3.92.213.21z"/></g><g><path class="beast-mouth-12-st-1" d="M91.8 394.605l.21-.214 3.92 3.86-.21.214z"/><path class="beast-mouth-12-st-1" d="M91.95 398.547l-.214-.21 3.858-3.92.214.21z"/></g><g><path class="beast-mouth-12-st-1" d="M100.914 394.635l.21-.213 3.92 3.858-.21.214z"/><path class="beast-mouth-12-st-1" d="M101.05 398.506l-.212-.21 3.858-3.92.214.21z"/></g><g><path class="beast-mouth-12-st-1" d="M110.027 394.666l.21-.214 3.92 3.86-.21.213z"/><path class="beast-mouth-12-st-1" d="M110.225 398.536l-.214-.21 3.86-3.92.213.21z"/></g><g><path class="beast-mouth-12-st-1" d="M119.21 394.625l.21-.214 3.92 3.86-.21.214z"/><path class="beast-mouth-12-st-1" d="M119.398 398.565l-.214-.21 3.86-3.92.213.21z"/></g></g><g><path class="beast-mouth-12-st-1" d="M-118.502 410.616l.21-.214 3.92 3.86-.21.213z"/><path class="beast-mouth-12-st-1" d="M-118.32 414.567l-.215-.21 3.86-3.92.213.21z"/></g><g><path class="beast-mouth-12-st-1" d="M-109.39 410.647l.21-.214 3.92 3.86-.21.213z"/><path class="beast-mouth-12-st-1" d="M-109.22 414.527l-.213-.21 3.86-3.92.213.21z"/></g><g><path class="beast-mouth-12-st-1" d="M-100.206 410.606l.21-.214 3.92 3.86-.21.213z"/><path class="beast-mouth-12-st-1" d="M-100.046 414.556l-.214-.21 3.86-3.92.213.21z"/></g><g><path class="beast-mouth-12-st-1" d="M-91.093 410.636l.21-.213 3.92 3.858-.21.215z"/><path class="beast-mouth-12-st-1" d="M-90.944 414.516l-.214-.21 3.86-3.92.213.21z"/></g><g><path class="beast-mouth-12-st-1" d="M-81.91 410.596l.21-.214 3.92 3.86-.21.213z"/><path class="beast-mouth-12-st-1" d="M-81.77 414.545l-.215-.21 3.86-3.92.213.21z"/></g><g><path class="beast-mouth-12-st-1" d="M-72.796 410.626l.21-.214 3.92 3.86-.21.213z"/><path class="beast-mouth-12-st-1" d="M-72.598 414.575l-.213-.21 3.857-3.92.214.21z"/></g><g><path class="beast-mouth-12-st-1" d="M-63.683 410.657l.21-.214 3.92 3.86-.21.212z"/><path class="beast-mouth-12-st-1" d="M-63.496 414.534l-.213-.21 3.86-3.92.213.21z"/></g><g><path class="beast-mouth-12-st-1" d="M-54.5 410.616l.21-.214 3.92 3.86-.21.213z"/><path class="beast-mouth-12-st-1" d="M-54.322 414.564l-.214-.21 3.86-3.92.212.21z"/></g><g><path class="beast-mouth-12-st-1" d="M-45.387 410.647l.21-.214 3.92 3.86-.21.212z"/><path class="beast-mouth-12-st-1" d="M-45.22 414.523l-.214-.21 3.86-3.92.212.21z"/></g><g><path class="beast-mouth-12-st-1" d="M-36.204 410.606l.21-.214 3.92 3.86-.21.213z"/><path class="beast-mouth-12-st-1" d="M-36.047 414.553l-.214-.21 3.858-3.92.214.21z"/></g><g><path class="beast-mouth-12-st-1" d="M-27.09 410.636l.21-.214 3.92 3.86-.21.213z"/><path class="beast-mouth-12-st-1" d="M-26.945 414.512l-.214-.21 3.86-3.92.214.21z"/></g><g><path class="beast-mouth-12-st-1" d="M-17.907 410.596l.21-.214 3.92 3.86-.21.212z"/><path class="beast-mouth-12-st-1" d="M-17.772 414.542l-.214-.21 3.86-3.92.213.21z"/></g><g><path class="beast-mouth-12-st-1" d="M-8.794 410.626l.21-.214 3.92 3.86-.21.213z"/><path class="beast-mouth-12-st-1" d="M-8.6 414.572l-.213-.21 3.86-3.92.213.21z"/></g><g><path class="beast-mouth-12-st-1" d="M.32 410.657l.21-.214 3.92 3.86-.212.212z"/><path class="beast-mouth-12-st-1" d="M.503 414.53l-.214-.21 3.858-3.92.214.212z"/></g><g><path class="beast-mouth-12-st-1" d="M9.502 410.616l.21-.214 3.92 3.86-.21.213z"/><path class="beast-mouth-12-st-1" d="M9.676 414.56l-.213-.21 3.858-3.92.215.21z"/></g><g><path class="beast-mouth-12-st-1" d="M18.615 410.646l.21-.213 3.92 3.858-.21.215z"/><path class="beast-mouth-12-st-1" d="M18.778 414.52l-.213-.21 3.858-3.92.214.21z"/></g><g><path class="beast-mouth-12-st-1" d="M27.8 410.606l.21-.214 3.918 3.86-.21.212z"/><path class="beast-mouth-12-st-1" d="M27.952 414.55l-.214-.21 3.86-3.92.212.21z"/></g><g><path class="beast-mouth-12-st-1" d="M36.912 410.636l.21-.214 3.92 3.86-.21.213z"/><path class="beast-mouth-12-st-1" d="M37.054 414.51l-.214-.21 3.86-3.92.212.21z"/></g><g><path class="beast-mouth-12-st-1" d="M46.025 410.667l.21-.214 3.92 3.86-.21.212z"/><path class="beast-mouth-12-st-1" d="M46.227 414.54l-.214-.212 3.86-3.92.212.21z"/></g><g><path class="beast-mouth-12-st-1" d="M55.208 410.626l.21-.214 3.92 3.86-.21.213z"/><path class="beast-mouth-12-st-1" d="M55.4 414.568l-.214-.21 3.86-3.92.213.21z"/></g><g><path class="beast-mouth-12-st-1" d="M64.32 410.656l.212-.213 3.92 3.858-.212.215z"/><path class="beast-mouth-12-st-1" d="M64.502 414.528l-.214-.21 3.86-3.92.213.21z"/></g><g><path class="beast-mouth-12-st-1" d="M73.504 410.616l.21-.214 3.92 3.86-.21.212z"/><path class="beast-mouth-12-st-1" d="M73.675 414.557l-.214-.21 3.86-3.92.214.21z"/></g><g><path class="beast-mouth-12-st-1" d="M82.617 410.646l.21-.214 3.92 3.86-.21.213z"/><path class="beast-mouth-12-st-1" d="M82.777 414.517l-.214-.21 3.86-3.92.213.21z"/></g><g><path class="beast-mouth-12-st-1" d="M91.8 410.605l.21-.213 3.92 3.858-.21.214z"/><path class="beast-mouth-12-st-1" d="M91.95 414.547l-.214-.21 3.86-3.92.213.21z"/></g><g><path class="beast-mouth-12-st-1" d="M100.914 410.636l.21-.214 3.92 3.86-.21.213z"/><path class="beast-mouth-12-st-1" d="M101.052 414.506l-.214-.21 3.86-3.92.213.21z"/></g><g><path class="beast-mouth-12-st-1" d="M110.027 410.666l.21-.213 3.92 3.86-.21.212z"/><path class="beast-mouth-12-st-1" d="M110.225 414.536l-.213-.21 3.86-3.92.212.21z"/></g><g><path class="beast-mouth-12-st-1" d="M-113.06 417.93l.21-.215 3.92 3.86-.212.213z"/><path class="beast-mouth-12-st-1" d="M-112.83 421.917l-.213-.21 3.86-3.92.212.21z"/></g><g><path class="beast-mouth-12-st-1" d="M-103.948 417.96l.21-.214 3.92 3.86-.21.212z"/><path class="beast-mouth-12-st-1" d="M-103.727 421.877l-.214-.21 3.858-3.92.213.21z"/></g><g><path class="beast-mouth-12-st-1" d="M-94.765 417.92l.21-.215 3.92 3.86-.21.213z"/><path class="beast-mouth-12-st-1" d="M-94.554 421.906l-.214-.21 3.86-3.92.213.21z"/></g><g><path class="beast-mouth-12-st-1" d="M-85.652 417.95l.21-.214 3.92 3.86-.21.212z"/><path class="beast-mouth-12-st-1" d="M-85.38 421.936l-.215-.21 3.86-3.92.213.21z"/></g><g><path class="beast-mouth-12-st-1" d="M-76.54 417.98l.212-.214 3.92 3.86-.21.213z"/><path class="beast-mouth-12-st-1" d="M-76.28 421.896l-.213-.21 3.86-3.92.213.21z"/></g><g><path class="beast-mouth-12-st-1" d="M-67.355 417.94l.21-.215 3.92 3.86-.21.213z"/><path class="beast-mouth-12-st-1" d="M-67.106 421.925l-.214-.21 3.86-3.92.213.21z"/></g><g><path class="beast-mouth-12-st-1" d="M-58.242 417.97l.21-.214 3.92 3.86-.21.213z"/><path class="beast-mouth-12-st-1" d="M-58.004 421.885l-.214-.21 3.86-3.92.213.21z"/></g><g><path class="beast-mouth-12-st-1" d="M-49.06 417.93l.212-.215 3.92 3.86-.212.213z"/><path class="beast-mouth-12-st-1" d="M-48.83 421.914l-.214-.21 3.86-3.92.212.21z"/></g><g><path class="beast-mouth-12-st-1" d="M-39.946 417.96l.21-.214 3.92 3.86-.21.212z"/><path class="beast-mouth-12-st-1" d="M-39.73 421.874l-.212-.21 3.858-3.92.214.21z"/></g><g><path class="beast-mouth-12-st-1" d="M-30.763 417.92l.21-.215 3.92 3.86-.21.213z"/><path class="beast-mouth-12-st-1" d="M-30.555 421.903l-.214-.21 3.86-3.92.213.21z"/></g><g><path class="beast-mouth-12-st-1" d="M-21.65 417.95l.21-.214 3.92 3.858-.21.214z"/><path class="beast-mouth-12-st-1" d="M-21.382 421.933l-.214-.21 3.86-3.92.213.21z"/></g><g><path class="beast-mouth-12-st-1" d="M-12.536 417.98l.21-.214 3.92 3.86-.21.213z"/><path class="beast-mouth-12-st-1" d="M-12.28 421.892l-.214-.21 3.86-3.92.213.21z"/></g><g><path class="beast-mouth-12-st-1" d="M-3.353 417.94l.21-.215 3.92 3.86-.21.213z"/><path class="beast-mouth-12-st-1" d="M-3.107 421.922l-.214-.21 3.858-3.92.214.21z"/></g><g><path class="beast-mouth-12-st-1" d="M5.76 417.97l.21-.214 3.92 3.86-.21.212z"/><path class="beast-mouth-12-st-1" d="M5.995 421.88l-.214-.21 3.86-3.918.214.21z"/></g><g><path class="beast-mouth-12-st-1" d="M14.943 417.93l.21-.215 3.92 3.86-.21.213z"/><path class="beast-mouth-12-st-1" d="M15.168 421.91l-.214-.21 3.86-3.92.213.212z"/></g><g><path class="beast-mouth-12-st-1" d="M24.056 417.96l.21-.214 3.92 3.858-.21.214z"/><path class="beast-mouth-12-st-1" d="M24.27 421.87l-.214-.21 3.86-3.92.213.21z"/></g><g><path class="beast-mouth-12-st-1" d="M33.17 417.99l.21-.214 3.92 3.86-.21.213z"/><path class="beast-mouth-12-st-1" d="M33.443 421.9l-.213-.21 3.858-3.92.214.21z"/></g><g><path class="beast-mouth-12-st-1" d="M42.353 417.95l.21-.215 3.92 3.86-.21.213z"/><path class="beast-mouth-12-st-1" d="M42.617 421.93l-.214-.21 3.86-3.92.212.21z"/></g><g><path class="beast-mouth-12-st-1" d="M51.466 417.98l.21-.214 3.92 3.86-.21.212z"/><path class="beast-mouth-12-st-1" d="M51.72 421.89l-.215-.21 3.86-3.92.212.21z"/></g><g><path class="beast-mouth-12-st-1" d="M60.65 417.94l.21-.215 3.92 3.86-.212.213z"/><path class="beast-mouth-12-st-1" d="M60.892 421.92l-.214-.212 3.86-3.92.213.21z"/></g><g><path class="beast-mouth-12-st-1" d="M69.762 417.97l.21-.214 3.92 3.86-.21.212z"/><path class="beast-mouth-12-st-1" d="M69.994 421.878l-.214-.21 3.86-3.92.213.21z"/></g><g><path class="beast-mouth-12-st-1" d="M78.945 417.93l.21-.215 3.92 3.86-.21.212z"/><path class="beast-mouth-12-st-1" d="M79.167 421.908l-.214-.21 3.86-3.92.213.21z"/></g><g><path class="beast-mouth-12-st-1" d="M88.058 417.96l.21-.215 3.92 3.86-.21.213z"/><path class="beast-mouth-12-st-1" d="M88.27 421.867l-.215-.21 3.86-3.92.213.21z"/></g><g><path class="beast-mouth-12-st-1" d="M97.172 417.99l.21-.214 3.92 3.86-.21.213z"/><path class="beast-mouth-12-st-1" d="M97.442 421.897l-.214-.21 3.86-3.92.213.21z"/></g><g><path class="beast-mouth-12-st-1" d="M106.355 417.95l.21-.215 3.92 3.86-.21.213z"/><path class="beast-mouth-12-st-1" d="M106.615 421.926l-.213-.21 3.858-3.92.214.21z"/></g><g><path class="beast-mouth-12-st-1" d="M-94.704 434.894l.21-.214 3.92 3.86-.21.213z"/><path class="beast-mouth-12-st-1" d="M-94.563 438.83l-.214-.21 3.86-3.92.213.21z"/></g><g><path class="beast-mouth-12-st-1" d="M-85.59 434.925l.21-.214 3.92 3.86-.21.213z"/><path class="beast-mouth-12-st-1" d="M-85.39 438.86l-.214-.21 3.86-3.92.213.21z"/></g><g><path class="beast-mouth-12-st-1" d="M-76.477 434.955l.21-.214 3.92 3.86-.21.214z"/><path class="beast-mouth-12-st-1" d="M-76.288 438.82l-.214-.21 3.86-3.92.213.21z"/></g><g><path class="beast-mouth-12-st-1" d="M-67.294 434.914l.21-.214 3.92 3.86-.21.213z"/><path class="beast-mouth-12-st-1" d="M-67.115 438.85l-.214-.21 3.86-3.92.214.21z"/></g><g><path class="beast-mouth-12-st-1" d="M-58.18 434.945l.21-.214 3.92 3.86-.212.214z"/><path class="beast-mouth-12-st-1" d="M-58.013 438.81l-.214-.212 3.86-3.92.213.21z"/></g><g><path class="beast-mouth-12-st-1" d="M-48.998 434.904l.21-.214 3.92 3.86-.21.213z"/><path class="beast-mouth-12-st-1" d="M-48.84 438.838l-.213-.21 3.858-3.92.214.21z"/></g><g><path class="beast-mouth-12-st-1" d="M-39.885 434.935l.21-.214 3.92 3.86-.21.213z"/><path class="beast-mouth-12-st-1" d="M-39.738 438.798l-.213-.21 3.857-3.92.214.21z"/></g><g><path class="beast-mouth-12-st-1" d="M-30.7 434.894l.21-.214 3.918 3.86-.21.213z"/><path class="beast-mouth-12-st-1" d="M-30.564 438.827l-.214-.21 3.86-3.92.212.21z"/></g><g><path class="beast-mouth-12-st-1" d="M-21.588 434.924l.21-.213 3.92 3.86-.21.213z"/><path class="beast-mouth-12-st-1" d="M-21.39 438.857l-.215-.21 3.86-3.92.212.21z"/></g><g><path class="beast-mouth-12-st-1" d="M-12.475 434.955l.21-.214 3.92 3.86-.21.214z"/><path class="beast-mouth-12-st-1" d="M-12.29 438.816l-.213-.21 3.86-3.92.212.21z"/></g><g><path class="beast-mouth-12-st-1" d="M-3.292 434.914l.21-.214 3.92 3.86-.21.213z"/><path class="beast-mouth-12-st-1" d="M-3.116 438.846l-.214-.21 3.86-3.92.213.21z"/></g><g><path class="beast-mouth-12-st-1" d="M5.82 434.945l.212-.214 3.92 3.86-.212.213z"/><path class="beast-mouth-12-st-1" d="M5.986 438.805l-.214-.21 3.86-3.92.213.21z"/></g><g><path class="beast-mouth-12-st-1" d="M15.004 434.904l.21-.214 3.92 3.86-.21.213z"/><path class="beast-mouth-12-st-1" d="M15.16 438.835l-.215-.21 3.86-3.92.213.21z"/></g><g><path class="beast-mouth-12-st-1" d="M24.118 434.934l.21-.213 3.92 3.86-.21.213z"/><path class="beast-mouth-12-st-1" d="M24.26 438.794l-.213-.21 3.86-3.92.213.21z"/></g><g><path class="beast-mouth-12-st-1" d="M33.23 434.965l.21-.214 3.92 3.86-.21.214z"/><path class="beast-mouth-12-st-1" d="M33.434 438.824l-.214-.21 3.86-3.92.213.21z"/></g><g><path class="beast-mouth-12-st-1" d="M42.414 434.924l.21-.214 3.92 3.86-.21.213z"/><path class="beast-mouth-12-st-1" d="M42.607 438.854l-.213-.21 3.86-3.92.212.21z"/></g><g><path class="beast-mouth-12-st-1" d="M51.527 434.955l.21-.214 3.92 3.86-.21.213z"/><path class="beast-mouth-12-st-1" d="M51.71 438.813l-.214-.21 3.858-3.92.214.21z"/></g><g><path class="beast-mouth-12-st-1" d="M60.71 434.914l.21-.214 3.92 3.86-.21.213z"/><path class="beast-mouth-12-st-1" d="M60.883 438.843l-.214-.21 3.858-3.92.213.21z"/></g><g><path class="beast-mouth-12-st-1" d="M69.823 434.944l.21-.213 3.92 3.86-.21.213z"/><path class="beast-mouth-12-st-1" d="M69.985 438.802l-.214-.21 3.86-3.92.213.21z"/></g><g><path class="beast-mouth-12-st-1" d="M79.007 434.904l.21-.214 3.92 3.86-.21.213z"/><path class="beast-mouth-12-st-1" d="M79.158 438.832l-.214-.21 3.86-3.92.213.21z"/></g><g><path class="beast-mouth-12-st-1" d="M88.12 434.934l.21-.214 3.92 3.86-.21.213z"/><path class="beast-mouth-12-st-1" d="M88.26 438.79l-.214-.21 3.86-3.918.213.21z"/></g><g><path class="beast-mouth-12-st-1" d="M97.233 434.965l.21-.214 3.92 3.86-.21.214z"/><path class="beast-mouth-12-st-1" d="M97.433 438.82l-.214-.21 3.858-3.92.214.212z"/></g><g><path class="beast-mouth-12-st-1" d="M-100.25 426.625l.21-.214 3.92 3.86-.21.214z"/><path class="beast-mouth-12-st-1" d="M-100.02 430.592l-.213-.21 3.86-3.92.213.21z"/></g><g><path class="beast-mouth-12-st-1" d="M-91.137 426.656l.21-.214 3.92 3.86-.21.213z"/><path class="beast-mouth-12-st-1" d="M-90.917 430.552l-.214-.21 3.858-3.92.214.21z"/></g><g><path class="beast-mouth-12-st-1" d="M-81.954 426.615l.21-.214 3.92 3.86-.21.214z"/><path class="beast-mouth-12-st-1" d="M-81.744 430.58l-.214-.21 3.86-3.92.213.212z"/></g><g><path class="beast-mouth-12-st-1" d="M-72.84 426.645l.21-.213 3.92 3.858-.212.214z"/><path class="beast-mouth-12-st-1" d="M-72.57 430.61l-.214-.21 3.858-3.92.214.21z"/></g><g><path class="beast-mouth-12-st-1" d="M-63.728 426.676l.21-.214 3.92 3.86-.21.213z"/><path class="beast-mouth-12-st-1" d="M-63.47 430.57l-.213-.21 3.86-3.92.213.21z"/></g><g><path class="beast-mouth-12-st-1" d="M-54.545 426.635l.21-.214 3.92 3.86-.21.214z"/><path class="beast-mouth-12-st-1" d="M-54.296 430.6l-.213-.21 3.86-3.92.213.21z"/></g><g><path class="beast-mouth-12-st-1" d="M-45.432 426.666l.21-.214 3.92 3.86-.21.213z"/><path class="beast-mouth-12-st-1" d="M-45.194 430.56l-.213-.21 3.86-3.92.212.21z"/></g><g><path class="beast-mouth-12-st-1" d="M-36.248 426.625l.21-.214 3.92 3.86-.21.214z"/><path class="beast-mouth-12-st-1" d="M-36.02 430.59l-.214-.212 3.86-3.92.213.212z"/></g><g><path class="beast-mouth-12-st-1" d="M-27.135 426.656l.21-.214 3.92 3.86-.21.212z"/><path class="beast-mouth-12-st-1" d="M-26.918 430.548l-.214-.21 3.86-3.92.212.21z"/></g><g><path class="beast-mouth-12-st-1" d="M-17.952 426.615l.21-.214 3.92 3.86-.21.214z"/><path class="beast-mouth-12-st-1" d="M-17.745 430.578l-.214-.21 3.86-3.92.214.21z"/></g><g><path class="beast-mouth-12-st-1" d="M-8.84 426.645l.212-.213 3.92 3.858-.212.214z"/><path class="beast-mouth-12-st-1" d="M-8.572 430.608l-.214-.21 3.86-3.92.213.21z"/></g><g><path class="beast-mouth-12-st-1" d="M.274 426.676l.21-.214 3.92 3.86-.21.213z"/><path class="beast-mouth-12-st-1" d="M.53 430.567l-.214-.21 3.86-3.92.213.21z"/></g><g><path class="beast-mouth-12-st-1" d="M9.457 426.635l.21-.214 3.92 3.86-.21.214z"/><path class="beast-mouth-12-st-1" d="M9.703 430.597l-.213-.21 3.858-3.92.214.21z"/></g><g><path class="beast-mouth-12-st-1" d="M18.57 426.666l.21-.214 3.92 3.86-.21.212z"/><path class="beast-mouth-12-st-1" d="M18.805 430.556l-.213-.21 3.858-3.92.214.21z"/></g><g><path class="beast-mouth-12-st-1" d="M27.754 426.625l.21-.214 3.92 3.86-.21.214z"/><path class="beast-mouth-12-st-1" d="M27.978 430.586l-.213-.21 3.858-3.92.214.21z"/></g><g><path class="beast-mouth-12-st-1" d="M36.867 426.655l.21-.213 3.92 3.858-.21.214z"/><path class="beast-mouth-12-st-1" d="M37.08 430.545l-.213-.21 3.858-3.92.214.21z"/></g><g><path class="beast-mouth-12-st-1" d="M45.98 426.686l.21-.214 3.92 3.86-.21.213z"/><path class="beast-mouth-12-st-1" d="M46.254 430.575l-.214-.21 3.86-3.92.212.21z"/></g><g><path class="beast-mouth-12-st-1" d="M55.163 426.645l.21-.214 3.92 3.86-.21.214z"/><path class="beast-mouth-12-st-1" d="M55.427 430.604l-.214-.21 3.86-3.92.213.21z"/></g><g><path class="beast-mouth-12-st-1" d="M64.276 426.676l.21-.214 3.92 3.86-.21.212z"/><path class="beast-mouth-12-st-1" d="M64.53 430.564l-.215-.21 3.86-3.92.213.21z"/></g><g><path class="beast-mouth-12-st-1" d="M73.46 426.635l.21-.214 3.92 3.86-.21.214z"/><path class="beast-mouth-12-st-1" d="M73.702 430.593l-.214-.21 3.86-3.92.213.21z"/></g><g><path class="beast-mouth-12-st-1" d="M82.573 426.665l.21-.213 3.92 3.858-.21.214z"/><path class="beast-mouth-12-st-1" d="M82.804 430.553l-.214-.21 3.86-3.92.213.21z"/></g><g><path class="beast-mouth-12-st-1" d="M91.756 426.625l.21-.214 3.92 3.86-.21.213z"/><path class="beast-mouth-12-st-1" d="M91.977 430.582l-.214-.21 3.86-3.92.213.21z"/></g><g><path class="beast-mouth-12-st-1" d="M100.87 426.655l.21-.214 3.92 3.86-.212.214z"/><path class="beast-mouth-12-st-1" d="M101.08 430.542l-.215-.21 3.86-3.92.213.21z"/></g><g><path class="beast-mouth-12-st-1" d="M-81.954 442.616l.21-.214 3.92 3.86-.21.212z"/><path class="beast-mouth-12-st-1" d="M-81.743 446.58l-.214-.21 3.86-3.92.213.212z"/></g><g><path class="beast-mouth-12-st-1" d="M-72.84 442.646l.21-.214 3.92 3.86-.212.213z"/><path class="beast-mouth-12-st-1" d="M-72.57 446.61l-.214-.21 3.86-3.92.213.21z"/></g><g><path class="beast-mouth-12-st-1" d="M-63.728 442.677l.21-.214 3.92 3.86-.21.212z"/><path class="beast-mouth-12-st-1" d="M-63.468 446.57l-.214-.21 3.86-3.92.213.21z"/></g><g><path class="beast-mouth-12-st-1" d="M-54.545 442.636l.21-.214 3.92 3.86-.21.213z"/><path class="beast-mouth-12-st-1" d="M-54.295 446.6l-.213-.21 3.858-3.92.214.21z"/></g><g><path class="beast-mouth-12-st-1" d="M-45.432 442.666l.21-.213 3.92 3.858-.21.215z"/><path class="beast-mouth-12-st-1" d="M-45.193 446.56l-.213-.212 3.858-3.92.214.212z"/></g><g><path class="beast-mouth-12-st-1" d="M-36.248 442.626l.21-.214 3.92 3.86-.21.212z"/><path class="beast-mouth-12-st-1" d="M-36.02 446.59l-.213-.212 3.86-3.92.212.21z"/></g><g><path class="beast-mouth-12-st-1" d="M-27.135 442.656l.21-.214 3.92 3.86-.21.213z"/><path class="beast-mouth-12-st-1" d="M-26.918 446.548l-.213-.21 3.858-3.92.213.21z"/></g><g><path class="beast-mouth-12-st-1" d="M-17.952 442.615l.21-.213 3.92 3.858-.21.214z"/><path class="beast-mouth-12-st-1" d="M-17.744 446.578l-.214-.21 3.86-3.92.212.21z"/></g><g><path class="beast-mouth-12-st-1" d="M-8.84 442.646l.212-.214 3.92 3.86-.212.213z"/><path class="beast-mouth-12-st-1" d="M-8.57 446.607l-.215-.21 3.86-3.92.213.21z"/></g><g><path class="beast-mouth-12-st-1" d="M.274 442.676l.21-.213 3.92 3.858-.21.215z"/><path class="beast-mouth-12-st-1" d="M.53 446.567l-.213-.21 3.86-3.92.213.21z"/></g><g><path class="beast-mouth-12-st-1" d="M9.458 442.636l.21-.214 3.92 3.86-.21.212z"/><path class="beast-mouth-12-st-1" d="M9.704 446.596l-.214-.21 3.86-3.92.213.21z"/></g><g><path class="beast-mouth-12-st-1" d="M18.57 442.666l.21-.214 3.92 3.86-.21.213z"/><path class="beast-mouth-12-st-1" d="M18.806 446.556l-.214-.21 3.86-3.92.213.21z"/></g><g><path class="beast-mouth-12-st-1" d="M27.754 442.625l.21-.213 3.92 3.858-.21.214z"/><path class="beast-mouth-12-st-1" d="M27.98 446.585l-.215-.21 3.86-3.92.213.21z"/></g><g><path class="beast-mouth-12-st-1" d="M36.867 442.656l.21-.214 3.92 3.86-.21.213z"/><path class="beast-mouth-12-st-1" d="M37.08 446.545l-.213-.21 3.86-3.92.213.21z"/></g><g><path class="beast-mouth-12-st-1" d="M45.98 442.686l.21-.213 3.92 3.86-.21.212z"/><path class="beast-mouth-12-st-1" d="M46.254 446.574l-.213-.21 3.86-3.92.213.21z"/></g><g><path class="beast-mouth-12-st-1" d="M55.163 442.646l.21-.214 3.92 3.86-.21.212z"/><path class="beast-mouth-12-st-1" d="M55.428 446.604l-.214-.21 3.86-3.92.212.21z"/></g><g><path class="beast-mouth-12-st-1" d="M64.276 442.676l.21-.214 3.92 3.86-.21.213z"/><path class="beast-mouth-12-st-1" d="M64.53 446.563l-.214-.21 3.86-3.92.212.21z"/></g><g><path class="beast-mouth-12-st-1" d="M73.46 442.635l.21-.213 3.92 3.86-.21.212z"/><path class="beast-mouth-12-st-1" d="M73.703 446.593l-.214-.21 3.858-3.92.214.21z"/></g><g><path class="beast-mouth-12-st-1" d="M82.573 442.666l.21-.214 3.92 3.86-.21.213z"/><path class="beast-mouth-12-st-1" d="M82.805 446.553l-.214-.21 3.86-3.92.214.21z"/></g><g><path class="beast-mouth-12-st-1" d="M-67.33 450.03l.212-.214 3.92 3.858-.21.214z"/><path class="beast-mouth-12-st-1" d="M-67.078 453.96l-.214-.21 3.86-3.92.213.21z"/></g><g><path class="beast-mouth-12-st-1" d="M-58.216 450.06l.21-.214 3.92 3.86-.21.213z"/><path class="beast-mouth-12-st-1" d="M-57.976 453.92l-.214-.21 3.86-3.92.213.21z"/></g><g><path class="beast-mouth-12-st-1" d="M-49.032 450.02l.21-.215 3.92 3.86-.21.213z"/><path class="beast-mouth-12-st-1" d="M-48.803 453.95l-.214-.21 3.86-3.92.213.21z"/></g><g><path class="beast-mouth-12-st-1" d="M-39.92 450.05l.21-.214 3.92 3.86-.21.212z"/><path class="beast-mouth-12-st-1" d="M-39.7 453.91l-.215-.21 3.86-3.92.213.21z"/></g><g><path class="beast-mouth-12-st-1" d="M-30.736 450.01l.21-.215 3.92 3.86-.21.213z"/><path class="beast-mouth-12-st-1" d="M-30.528 453.94l-.213-.212 3.857-3.92.214.212z"/></g><g><path class="beast-mouth-12-st-1" d="M-21.623 450.04l.21-.214 3.92 3.858-.21.214z"/><path class="beast-mouth-12-st-1" d="M-21.354 453.968l-.214-.21 3.86-3.92.212.21z"/></g><g><path class="beast-mouth-12-st-1" d="M-12.51 450.07l.21-.214 3.92 3.86-.21.213z"/><path class="beast-mouth-12-st-1" d="M-12.252 453.928l-.214-.21 3.86-3.92.212.21z"/></g><g><path class="beast-mouth-12-st-1" d="M-3.326 450.03l.21-.215 3.92 3.86-.21.213z"/><path class="beast-mouth-12-st-1" d="M-3.08 453.957l-.213-.21 3.86-3.92.213.21z"/></g><g><path class="beast-mouth-12-st-1" d="M5.787 450.06l.21-.214 3.92 3.86-.21.212z"/><path class="beast-mouth-12-st-1" d="M6.023 453.917l-.214-.21 3.858-3.92.214.21z"/></g><g><path class="beast-mouth-12-st-1" d="M14.97 450.02l.21-.215 3.92 3.86-.21.213z"/><path class="beast-mouth-12-st-1" d="M15.196 453.947l-.214-.21 3.86-3.92.213.21z"/></g><g><path class="beast-mouth-12-st-1" d="M24.083 450.05l.21-.214 3.92 3.858-.21.214z"/><path class="beast-mouth-12-st-1" d="M24.298 453.906l-.214-.21 3.86-3.92.213.21z"/></g><g><path class="beast-mouth-12-st-1" d="M33.196 450.08l.21-.214 3.92 3.86-.21.213z"/><path class="beast-mouth-12-st-1" d="M33.47 453.936l-.213-.21 3.86-3.92.213.21z"/></g><g><path class="beast-mouth-12-st-1" d="M42.38 450.04l.21-.215 3.92 3.86-.21.213z"/><path class="beast-mouth-12-st-1" d="M42.644 453.965l-.213-.21 3.86-3.92.213.21z"/></g><g><path class="beast-mouth-12-st-1" d="M51.492 450.07l.21-.214 3.92 3.86-.21.213z"/><path class="beast-mouth-12-st-1" d="M51.746 453.925l-.213-.21 3.858-3.92.215.21z"/></g><g><path class="beast-mouth-12-st-1" d="M60.676 450.03l.21-.215 3.92 3.86-.21.213z"/><path class="beast-mouth-12-st-1" d="M60.92 453.954l-.214-.21 3.86-3.92.212.21z"/></g><g><path class="beast-mouth-12-st-1" d="M69.79 450.06l.21-.214 3.92 3.858-.212.214z"/><path class="beast-mouth-12-st-1" d="M70.022 453.914l-.214-.21 3.86-3.92.212.21z"/></g><g><path class="beast-mouth-12-st-1" d="M-21.633 466.944l.21-.214 3.92 3.86-.21.213z"/><path class="beast-mouth-12-st-1" d="M-21.364 470.893l-.213-.21 3.858-3.92.215.21z"/></g><g><path class="beast-mouth-12-st-1" d="M-12.52 466.975l.21-.214 3.92 3.86-.21.213z"/><path class="beast-mouth-12-st-1" d="M-12.262 470.852l-.213-.21 3.858-3.92.214.21z"/></g><g><path class="beast-mouth-12-st-1" d="M-3.337 466.934l.21-.214 3.92 3.86-.21.213z"/><path class="beast-mouth-12-st-1" d="M-3.088 470.882l-.214-.21 3.86-3.92.212.21z"/></g><g><path class="beast-mouth-12-st-1" d="M5.776 466.964l.21-.213 3.92 3.86-.21.213z"/><path class="beast-mouth-12-st-1" d="M6.014 470.84l-.214-.21 3.86-3.92.212.212z"/></g><g><path class="beast-mouth-12-st-1" d="M14.96 466.924l.21-.214 3.92 3.86-.21.212z"/><path class="beast-mouth-12-st-1" d="M15.187 470.87l-.214-.21 3.86-3.92.213.21z"/></g><g><path class="beast-mouth-12-st-1" d="M24.073 466.954l.21-.214 3.92 3.86-.21.213z"/><path class="beast-mouth-12-st-1" d="M24.29 470.83l-.215-.21 3.86-3.92.213.21z"/></g><g><path class="beast-mouth-12-st-1" d="M33.186 466.985l.21-.214 3.92 3.86-.21.214z"/><path class="beast-mouth-12-st-1" d="M33.462 470.86l-.214-.21 3.86-3.92.213.21z"/></g><g><path class="beast-mouth-12-st-1" d="M-54.518 458.725l.21-.214 3.92 3.86-.21.214z"/><path class="beast-mouth-12-st-1" d="M-54.338 462.707l-.214-.21 3.86-3.92.213.21z"/></g><g><path class="beast-mouth-12-st-1" d="M-45.405 458.756l.21-.214 3.92 3.86-.21.213z"/><path class="beast-mouth-12-st-1" d="M-45.236 462.666l-.214-.21 3.86-3.92.213.21z"/></g><g><path class="beast-mouth-12-st-1" d="M-36.222 458.715l.21-.214 3.92 3.86-.21.214z"/><path class="beast-mouth-12-st-1" d="M-36.063 462.696l-.213-.21 3.858-3.92.214.21z"/></g><g><path class="beast-mouth-12-st-1" d="M-27.11 458.745l.212-.213 3.92 3.86-.21.212z"/><path class="beast-mouth-12-st-1" d="M-26.96 462.655l-.214-.21 3.858-3.92.214.21z"/></g><g><path class="beast-mouth-12-st-1" d="M-17.925 458.705l.21-.214 3.92 3.86-.21.214z"/><path class="beast-mouth-12-st-1" d="M-17.788 462.685l-.213-.21 3.857-3.92.214.21z"/></g><g><path class="beast-mouth-12-st-1" d="M-8.812 458.735l.21-.213 3.92 3.858-.21.214z"/><path class="beast-mouth-12-st-1" d="M-8.614 462.714l-.214-.21 3.86-3.92.212.21z"/></g><g><path class="beast-mouth-12-st-1" d="M.3 458.766l.21-.214 3.92 3.86-.21.213z"/><path class="beast-mouth-12-st-1" d="M.488 462.674l-.214-.21 3.86-3.92.212.21z"/></g><g><path class="beast-mouth-12-st-1" d="M9.484 458.725l.21-.214 3.92 3.86-.21.214z"/><path class="beast-mouth-12-st-1" d="M9.66 462.703l-.213-.21 3.86-3.92.213.21z"/></g><g><path class="beast-mouth-12-st-1" d="M18.597 458.756l.21-.214 3.92 3.86-.21.212z"/><path class="beast-mouth-12-st-1" d="M18.763 462.663l-.214-.21 3.858-3.92.214.21z"/></g><g><path class="beast-mouth-12-st-1" d="M27.78 458.715l.21-.214 3.92 3.86-.21.214z"/><path class="beast-mouth-12-st-1" d="M27.936 462.692l-.214-.21 3.86-3.92.213.21z"/></g><g><path class="beast-mouth-12-st-1" d="M36.894 458.745l.21-.213 3.92 3.858-.21.214z"/><path class="beast-mouth-12-st-1" d="M37.038 462.652l-.214-.21 3.86-3.92.213.21z"/></g><g><path class="beast-mouth-12-st-1" d="M46.007 458.776l.21-.214 3.92 3.86-.21.213z"/><path class="beast-mouth-12-st-1" d="M46.21 462.682l-.213-.21 3.86-3.92.213.21z"/></g><g><path class="beast-mouth-12-st-1" d="M55.19 458.735l.21-.214 3.92 3.86-.21.214z"/><path class="beast-mouth-12-st-1" d="M55.384 462.71l-.213-.21 3.86-3.92.213.212z"/></g><path class="beast-mouth-12-st-1" d="M-149.7 350.1c0 9.9 2.4 19.6 6 29 1.9 4.8 3.7 9.6 6.1 14.3 1.8 3.5 4.6 10.5 8.7 12.3 2.4-3.6 1.6-8.4-.6-11.9-.9-1.4-7.5-8-6.5-9.2 0 0 6-7.4 4.7-19.5-1.3-12-9.3-20-9.3-20s6.7 0 6.7-16.6-17.3-20.3-17.3-20.3l1.5 41.9zM149.9 349.5c0 9.8-2.4 19.5-6 28.8-1.9 4.8-3.7 9.6-6.1 14.2-1.8 3.5-4.6 10.4-8.7 12.2-2.4-3.6-1.6-8.3.6-11.8.9-1.4 7.5-7.9 6.5-9.2 0 0-6-7.4-4.7-19.3 1.3-11.9 9.3-19.9 9.3-19.9s-6.7 0-6.7-16.5 18.3-20.2 18.3-20.2l-2.5 41.7z"/><g><path class="beast-mouth-12-st-1" d="M-121.1 350.8c-1.7 3.1-.8 7.4-.2 10.8 1 5.8 2.9 11.5 5 17 1.6 4.1 3.6 8.1 5.5 12 1 2 1.9 4.7 4.2 5.6.4.1.6-.2.7-.5 1.7-14.1 1.8-28.4.5-42.5-.5-5.8-1.5-11.8-2.9-17.5-.9-3.5-2.8-5.7-6.1-7.1-.2-.1-.5-.1-.6.1-4.1 4.4-4.9 11.5-5.3 17.3-.3 4.6-.8 13.4 3.6 16.6 8.7 6.5 13.3-15.9 14-20.2.1-.3-.1-.7-.5-.7-3.7-.1-3.9 2.8-5.1 5.8-2.1 5.4-4.4 10.9-5.2 16.8-.1.9.2 2.8-.2 3.4-.4.6-.2-3.5-.2-3.7 0-3.6.2-7.2 0-10.8-.1-3 .2-5.8-3.2-6-.2 0-.4.1-.4.3-1.1 1.7-2.1 3.4-2.8 5.3-.3.9-.5 1.9-.9 2.7-.1.5-.3 1-.4 1.4-1.8-1.2-2.4-2.6-1.8-4.2-.6-4.7-1.3-9.7-2-14.4-.9-5.8-2.2-11.7-2.8-17.5-.4-4 .3-6.9-3-9.7-.4-.3-.8-.1-.9.4-1.4 11.9-.9 23.8-.2 35.7.2 2.9.3 5.8.8 8.7.2 1.5 1.8 6.2.7 7.3-1.3 1.3-3.7-4.2-4.6-5.7-1-1.6-2.4-3-3.8-4.3-.2-.2-.7-.2-.8.1-2.2 5.1-2.2 10.4-2.8 15.8.3 0 .7-.1 1-.1-2.1-5.4-3.4-11.1-5.2-16.6-.2-.6-1.2-.4-1 .3 1.8 5.5 3.1 11.2 5.2 16.6.2.6 1 .5 1-.1.3-2.9.4-5.8.8-8.7.2-1.5.3-3.3 1.4-4.4.3-1.2.7-1.4 1.2-.6.8.8 1.5 1.7 2.1 2.6 1.9 3 2.2 5.5 5.6 7.2.4.2.7-.1.8-.4.6-4.7-.6-9-1-13.7-.4-5.1-.6-10.1-.8-15.2-.2-5-.3-10 0-15 .1-1.3-.3-6.6.5-7.5 1.9-1.8 1.7 3.7 1.8 4.9.5 9.3 2.7 18.7 4.3 27.9.5 2.9.3 5.5.4 8.4 0 .8-.1 1.6.2 2.4.6 1.4 1.5 1.9 3 2.1.3 0 .6-.1.6-.4.5-1.9 1.1-3.8 1.8-5.7.2-.5 1.2-3.6 1.9-3.8 2-.5 2.1 2.1 2.3 3 1.3 5.3.1 12.1.2 17.6 0 .6.7.7 1 .3 1.8-2.5 1.4-5.1 1.9-8 .7-3.7 2-7.6 3.3-11.1.6-1.5 1.2-3.3 2.1-4.7-.1-1.6.8-2.4 2.6-2.7-.1.8-.3 1.6-.5 2.3-.9 3.9-2.2 7.8-4.2 11.2-3.5 6-7.9 6.5-10-.5-1.1-3.7-.8-7.8-.5-11.6.3-3.4.8-10.5 3.2-13.5 4.4-5.4 6.6 4.6 7 7.2.8 4.9 2.2 9.5 2.6 14.4.3 3.8.5 7.6.6 11.4.4 8.7 1.1 18.6-.7 27.2-.4 2 .1 3.7-1.9 1.2-.6-.8-1-2-1.4-2.9-1.8-3.6-3.6-7.2-5-11-1.6-4-3-8.1-4.1-12.2-1.2-4.4-3.4-11.3-1.1-15.5-.1-.7-1-1.2-1.3-.6z"/></g><g><path class="beast-mouth-12-st-1" d="M146.2 369.7v-15.2c0-3.7.8-8.1-.3-11.8-1-3.6-5.5-4.7-8.4-2.4-2.7 2-3.9 6.6-3.6 9.8.6 5.5 7.9 10.1 12.7 11.4.6.2.9-.7.4-1-8.5-4.5-17.7-6.9-27.1-9.1-10.1-2.4-22.3-4.8-24.7-16.6-1-5.2-2.7-12.3.9-16.8 4.9-6.1 12.7-3.1 17.9.6 4.5 3.2 8.7 7.1 12.3 11.4 2.1 2.6 10.1 12 8.2 15.8-.3.6.6 1.1.9.5 2-4-3.5-10.5-5.7-13.6-3.6-5.1-8.1-9.7-13.1-13.5-4.2-3.2-9.6-6.9-15.2-5.6-4.2 1-7.3 4.1-8.2 8.3-1.1 4.9.1 12 1.9 16.7 1.7 4.7 5.5 7.6 9.9 9.6 5.6 2.5 11.8 3.7 17.8 5.1 8.2 1.9 16.2 4.3 23.7 8.2.1-.3.3-.6.4-1-4.7-1.3-11.7-5.8-12-11.2-.1-2.8 1.2-7 3.7-8.4 7.8-4.3 6.6 8.7 6.6 12.6v16c-.1.9 1 .9 1 .2z"/></g><g><path class="beast-mouth-12-st-1" d="M123.3 315.9s-3.9-.2-5.5-4.6c0 0 1.5 4 5.5 4.6z"/><path class="beast-mouth-12-st-1" d="M123.9 316.6s-3.3-2-2.6-6.7c0 0-.6 4.2 2.6 6.7z"/><circle class="beast-mouth-12-st-3" cx="123.8" cy="316.7" r="1.7"/></g><g><path class="beast-mouth-12-st-1" d="M-81.7 385.9s-3.9-.2-5.5-4.6c0 0 1.5 4 5.5 4.6z"/><path class="beast-mouth-12-st-1" d="M-81.1 386.6s-3.3-2-2.6-6.7c0 0-.6 4.2 2.6 6.7z"/><circle class="beast-mouth-12-st-3" cx="-81.2" cy="386.7" r="1.7"/></g><g><path class="beast-mouth-12-st-1" d="M32.3 469.9s-3.9-.2-5.5-4.6c0 0 1.5 4 5.5 4.6z"/><path class="beast-mouth-12-st-1" d="M32.9 470.6s-3.3-2-2.6-6.7c0 0-.6 4.2 2.6 6.7z"/><circle class="beast-mouth-12-st-3" cx="32.8" cy="470.7" r="1.7"/></g><g><path class="beast-mouth-12-st-4" d="M46 444.4c.1 1.3.1 2.5-.1 3.8.3 0 .7.1 1 .1.7-8.9 1.3-19.2 3.9-27.7-.3-.1-.7-.2-1-.3-1.4 5.9-2.7 11.8-3.5 17.8-.6 4.6-1.5 9-.5 13.6.1.4.5.5.8.3 2.1-1.1 3.5-2.5 4.8-4.4.5-.7 2.3-4 2.9-4.1 1.4-.2.9 3.7.8 4.7-.1 3.1-.7 6.1-.9 9.2-.1 1.6-.1 2.1.9 3.4.2.2.7.2.8-.1 1.9-4.2 3.3-8.5 4.4-13 .1-.5-.7-1-1-.4-1 2.3-2.1 4.8-2.5 7.3-.1.6.6.9 1 .4 1-1.6 2.5-4.5 4.7-4.4 1 .1 2.1 1.2 3.4 1.2 3.3.1 6.8-2.7 9.3-4.6 1.5-1.1 2.8-2.7 4.4-3.6 3.8-2.3 4.2-.3 7.3-.9 4.2-.7 6.9-5.5 9.8-8.1.5-.5-.2-1.2-.7-.7-3.8 3.5-5.7 7.7-12 7.5-1.4 0-1.9-.6-3.3.1-5 2.4-12.3 13.6-18.4 7.4-.2-.2-.4-.2-.6-.1-2.1 1.2-3.4 3.6-4.7 5.7.3.1.6.3 1 .4.3-2.3 1.5-4.9 2.4-7-.3-.1-.6-.3-1-.4-.6 2.4-1 6.1-2.4 8.1-1.4 2.2-1 1.2-1.1-.9-.2-4.2 1.1-8.4-.5-12.5-.1-.4-.6-.5-.9-.2-1.7 1.5-2.7 3.3-4 5.1-1.2 1.7-3.4 5.4-4.2 1.3-.4-1.8.3-5 .5-6.7.9-7.1 2.3-14.1 4-21.1.2-.7-.8-.9-1-.3-2.7 8.8-3.2 18.8-3.9 28 0 .6.9.7 1 .1.2-1.4.2-2.7.1-4.1 0-.6-1.1-.6-1 .1z"/></g></svg>