<svg id="Layer_1" xmlns="http://www.w3.org/2000/svg" viewBox="-152 308.1 305.8 176.9"><style>.beast-mouth-16-st-0{fill:#0b3746}.beast-mouth-16-st-1{fill:#fcdca4}</style><path class="beast-mouth-16-st-0" d="M129 322.7c-12.6.1-25.5 2-38 3.2-32.6 3.2-65.5 5-98.2 4.1-32.6-.9-65.1-3.3-97.5-6.7-6.7-.7-12.9-2.2-19.7-1.2-.2 0-.4.1-.6.1-.6-.1-1.3-.1-1.9 0-1.8.1-3.1 1.6-3.5 3.3-1.1 3.3-1 6.8-.3 10.4.6 12.3 4.6 24.7 7.9 36.3 4 14.3 9.6 27.6 18.6 39.5 9.3 12.2 20.5 23.1 33.6 31.2 6.1 3.8 12.7 6 19.4 8.1 2.5 1.5 5.2 2.9 8 4.1 24.8 11.1 52.9 6.4 77.4-3 25.4-9.8 49.1-23.8 66-45.5 8.7-11.2 14.6-23.9 21.4-36.3 5.5-9.9 10.9-20.1 14.5-30.9 2.4-7.5 3-16.8-7.1-16.7zm-26.3 32.1c.3-.1.6-.3 1-.4M7.4 377.1c0 .1.1.1.1.2-2.7.3-5.3.6-8 .9 2.7-.3 5.3-.7 7.9-1.1z"/><path class="beast-mouth-16-st-1" d="M133.4 324.2c-.1-.3-.3-.5-.7-.7-7-3.1-14.6-2.3-22-1.2-10.5 1.5-21 3-31.6 3.6-22.5 1.4-45.2 1.2-67.8 2.1-22.6.8-45.1 1-67.6-1.1-10.8-1-21.5-2.3-32.2-3.7-5.4-.7-10.7-.2-16.1-.4-4.4-.2-8.5-1.8-12.7-3-.2-.3-.5-.6-.9-.8-4.8-1.5-13.5 1.7-12.5 7.8.2 1 1.4 1.3 2.2.9 1.9-1 3.7-2 5.6-3-1.1 7.8-.9 16-.3 23.7.2 3.3.5 8.3 1.8 12.6.6 3.5 1.7 6.4 4 6.8.5.4 1.1.8 1.7 1.1.8.3 1.6.2 2.1-.5 3.5-5.7 3.9-12.6 4.1-19.1.1-3.7 0-7.4.1-11.1.1-3.4-.3-7.6 1.2-10.8 3.3 5.1 5.1 10.3 5.5 16.6.2 3.4-.1 6.9.1 10.3.2 3.7 1.4 14.4 7.7 10.9 7.1-3.9-.4-33 6-35.5.7 1.3 1.2 2.7 1.7 4.1 1.2 6.1.9 12.3.8 18.5-.1 4.1-.4 9.5 1.6 13.3 1 2 3.6 4.7 6.1 3.2 2.8-1.6 3.1-6.7 3.3-9.5.7-7.7.3-15.6 2.4-23.2 1.5-5.7 2.8 4.2 3 5.2.1 1.1 0 2.2 0 3.3-.1 7.2-.4 14.6 1.1 21.7.7 3.4 4.3 9.8 8.5 5.7 4.8-4.6 3.3-15.3 3.5-21.2.1-4.4.1-9.1.7-13.5.1-.6 1.5-5.3 2.3-4.1.8 1.3 1.1 3.2 1.3 4.7 1.1 6.1 1.1 12.4 1.2 18.6.1 5.2-.7 13.1 3.1 17.3 3.9 4.3 7.9 2 9.4-2.8 1.6-5.1 1.6-10.9 2-16.1.3-3.6.4-14.3 4.1-17.3 1.9 5.2 1.6 10.9 1.5 16.4-.1 5.3.1 10.5.7 15.8 1 8.7 1.9 18.2 6.7 25.8.5.8 1.6 1 2.4.3 6.5-5.9 7.2-16.7 7.9-24.8 1-10-.2-22 4.3-31.2 4.8-9.8 8.5 2.2 9.7 7 1.6 6.4 2.5 12.9 3.3 19.4.6 4.7 1.7 9.4 2.8 14 1 4.3 1.8 10 3.9 13.9 2.9 5.5 7.3-.3 8.7-3.5 6-14.4 3.8-30.6 5.9-45.6.6-4.2 1.6-9.1 4.8-12.2.8 2.2 1.2 4.6 1.7 6.8 1.1 4.7 2.1 9.4 3.3 14.1 1.2 4.6 2.6 14.5 7.9 16.5 5.3 2 5.6-9.5 5.8-12 .4-4.8.5-9.7.9-14.5.3-2.9.5-6.9 2-9.7.7 2 .8 4.2 1.1 6.4.4 2.6 1.1 5 1.6 7.6.9 5.1 1.1 10.6 4.3 14.9 3.9 5.1 7.2-.6 8.2-4.4 1.8-6.4 2-13.1 3.1-19.6.5-2.6 1.5-7 4.4-2.6 1.9 2.9 2.5 6.6 3.3 9.9 1.1 5 2.2 10 5.6 14 .5.6 1.6.5 2.1 0 2.9-2.8 3.4-6.9 3.9-10.7.8-6.3 1.7-12.4 4-18.3 1.8 2.1 2.8 5.9 3.6 7.9 1.2 3.2 2.2 6.5 3.3 9.7.4 1.2 2 1.5 2.7.4 4-6 .6-16.1 6.4-20.7 3.7 5.2 2.6 12.3 8.9 15.9.7.4 1.6.2 2.1-.5 3-4.7 2.3-10.3 4.2-15.4 1 3 1.1 9.8 5.3 7.9 1.6-.7 2-3.4 2.4-4.8.5-1.9.7-4.4 1.8-6.1.4-.3.2-1-.3-1.4z"/><path class="beast-mouth-16-st-0" d="M125.4 321.2c-2.6-.3-5.3-.4-7.9-.2-3.7.3-7.3 1.4-11 1.9-1.6 0-3.1.1-4.7.2-.3 0-.5.3-.5.5-2.8.2-5.7.3-8.4.8-5.2 1-10.5.7-15.7 1-5.1.3-10.1.5-15.2.7-2.1.1-4.1.3-6.1.5-.1-.1-.2-.1-.3-.1-3.1 0-6.1-.2-9.1.2-.2 0-.3.2-.3.4H45c-3.8 0-7.6.3-11.4.2-7.4-.2-14.7-.1-22.1.1-7.8.2-15.6.7-23.4.6-3.8 0-7.6-.3-11.4-.3-2.9 0-7 1.2-9.7-.2-.3-.1-.5 0-.6.2-10.2.7-20.4-1-30.6-2.1-5-.5-10.1-.9-15.1-1.5-5.4-.6-10.6-1.5-16-1.6-5.3-.1-10.5-.3-15.7-1.5-2.2-.5-4.2-1.1-6.3-2-1.6-.7-3.3-1.2-5.1-.9-2.7.5-6 2.1-7.6 4.4-2.1 3-.7 6.8-.2 10.1.1.6 1.1.4 1-.3-.3-2-.8-3.9-.9-5.9-.2-2.5 1.3-4.1 3.3-5.4 1.6-1.1 3.4-1.8 5.4-2 2-.2 4.1 1 6 1.7 8.6 3.2 17.8 2.1 26.8 3 4.4.4 8.7 1.2 13 1.7 4.8.5 9.5.9 14.3 1.4 9.3 1 18.6 2.4 28 1.7.1 0 .2 0 .2-.1 2 .8 4.2.4 6.3.2 3.9-.4 8 0 12 .1 8.1.3 16.3-.2 24.4-.5 7.7-.2 15.5-.6 23.2-.2 3.8.2 7.6-.1 11.4-.1 1.5 0 3.1-.1 4.6-.3 4.2.2 8.3-.5 12.5-.8 5.4-.4 10.8-.3 16.2-.7 5-.4 10.1-.2 15.1-.9 2.6-.4 5.2-.9 7.8-1 2.4-.1 4.7-.1 7-.6 5.1-.6 10.1-2.2 15.4-1.9 2 .1 12.5.4 11.6 3.9-.2.6.8.9 1 .3.7-3.9-7.5-4.4-10-4.7z"/><path class="beast-mouth-16-st-1" d="M90.9 416.7c-.4-2.5-.9-4.9-1.7-7.3-.6-2.7-1.6-5.3-3-7.5-.2-.2-.4-.3-.7-.2-2.4 1.3-3.2 4.3-3.7 6.8-.4 1.9-.6 3.8-.9 5.7-.5 2-1 3.9-1.6 5.9l-.3.3c-1.8-.1-3.1-1.1-4-2.4-.3-.8-.5-1.5-.7-2.2-.6-1.9-1.1-4.5-2.5-6.2 0-.1-.1-.1-.1-.2-.3-.4-.7-.7-1.1-.9-.2-.1-.4-.1-.6.1-3.3 2.9-3.8 8.1-4.3 12.2s-.3 8.4-1.5 12.4c-.2.6-.4.9-.8 1.2l-.6.3c-.6.2-1.3 0-2-.4-.7-.9-1.5-1.8-2.3-2.7-.7-1.3-1.1-2.8-1.6-4.1-.7-2.2-1.1-4.9-2.1-7.1v-.1c0-.5-.4-1-.8-1.2-.1-.1-.1-.2-.2-.3-.2-.2-.5-.2-.7 0-.3 0-.6.1-.9.4-1.3 1.5-1.2 3.4-1.2 5.3 0 .3-.1.6-.1.8-.4 3.2-.5 6.4-1.1 9.6-.7 1.9-2 3.3-3.5 4.5h-.2c-1.3-1.3-2.4-2.8-3.5-4.6-.6-1-1.2-1.9-1.8-2.8-.5-1.3-1.2-2.5-2.3-3.5-.2-.1-.4-.2-.6-.1-4.1 3.1-4.8 8.2-5.7 13.1-.4 1.5-.7 2.9-.9 4.4-.7-1.4-1.4-2.9-2.1-4.2-.6-1.1-1.3-2.1-2-3.1-.9-1.7-2-3.2-3.5-4.4-.2-.1-.5-.1-.6.1-.4.5-.7.9-1 1.5 0 .1-.1.2-.1.3-.1.2-.2.4-.3.7 0 0 0 .1-.1.1-1.5 3.3-1.9 7.2-3.3 10.4-.6 1.2-1.6 2.9-3.2 2.2-1.2-.6-1.9-2.6-2.3-3.8-.8-2.1-1.2-4.2-1.6-6.4-.4-2.2-1.3-7.8-4.5-4.9-2.2 1.9-3 5.4-3.6 8.1-.6 2.9-.8 5.9-1.6 8.7-1.4-2.2-2.8-4.5-4.1-6.8-.7-1.9-1.5-3.7-2.9-5.1-.2-.2-.4-.2-.6-.1-.1 0-.1.1-.1.1-.4 0-.8.1-1.2.4-1.6 1.4-2.2 3.3-2.7 5.3-.9 3-1.5 6-2.5 8.9-2.7-4.1-2.2-11.3-7-13.8-.2-.1-.4-.1-.6.1-2.2 1.9-3.5 4.4-4.6 7.1-.7 1.7-1.4 3.4-2.1 5-.3.6-.6 1.1-.8 1.4-2-3-3.6-5.8-4.9-9-.3-1-.6-2-1-2.9-.1-.2-.1-.4-.2-.6-.1-.4-.4-.7-.7-.9-.1-.2-.3-.4-.5-.6-.2-.2-.5-.2-.7 0-1.4 1.3-2.3 2.9-3 4.6-1.2 2-2.3 4.1-3.4 6.2-.7-1.6-1.4-3.1-2.1-4.6-.1-.3-.2-.6-.4-.9-.7-3.6-1.1-7.2-2.9-10.5-.1-.2-.4-.3-.7-.2-2.1 1.1-3.3 3-4.4 5-.6 1.1-1.2 2.3-1.8 3.5-.3.5-.7 1.1-1 1.6-.6.8-.9.8-1.1.4-.8-3.2-1.7-6.4-2.4-9.6-.1-.3-.1-.7-.2-1-.2-1.9-.4-3.8-.8-5.5.2-.6 0-1.2-.5-1.5-.1-.4-.3-.7-.5-1.1-.1-.3-.6-.3-.8-.1-3.1 2.9-4.2 7.1-7 10.2l-.2.2c-.6-1.1-1.1-2.2-1.7-3.4-1.1-3.5-1-7.4-1.5-11 0-.3.1-.7.2-1 .1-.7-.2-1.2-.7-1.6-.1-.3-.1-.6-.2-.9-.1-.3-.6-.5-.8-.2-1.7 1.9-2.9 4.2-4.1 6.5-1 1.6-1.9 3.3-2.5 4.9-.3.6-.6 1.1-1 1.6-1.3-1.2-2.1-2.6-2.6-4.1-.2-4.8-1.3-9.9-3-14.3-.1-.2-.2-.4-.4-.6-.1-.3-.2-.5-.4-.6l-.9-1.2c-.2-.2-.5-.2-.7 0-2.7 2.4-2.8 6.4-2.4 10.2-.5-1.1-.8-2.4-1.1-3.5-.1-1.4-.2-2.8-.2-4.3.2-.7.3-1.4.5-2.1.1-.6-.1-1.1-.5-1.5v-1.2c0-.4-.5-.7-.9-.4-.8.7-1.4 1.6-2 2.5-.5.7-.9 1.4-1.1 2.2-1.4 3.5-1.2 7.4 1.8 10.2.6 2.2 2.5 3.6 4.3 4.9 0 0 .1 0 .1.1 1.1 1.3 2.4 2.4 3.8 3.2.7.8 1.4 1.6 2.3 2.3.1.1.2.1.3.2 1 1.1 2.2 1.9 3.5 2.6 1.4 2.3 5.2 5.4 8.3 5.9 1.4 1.1 2.9 2.1 4.8 3 3.2 1.6 6.5 3 9.8 4.3.2.2.3.3.6.4 4.5 1.4 8.6 4.7 13.2 5.8l.6.3c2.1.9 4.3 1.7 6.5 2.4h-.1.1c1.1.5 2.2.9 3.4 1.1h.5c.5.1 1 .3 1.4.4 1 .4 2 .7 3 .7 2.8.7 5.6 1.2 8.4 1.3.2.2.5.3.9.3.8-.1 1.5-.1 2.3-.2 2 0 4.4.4 6.1.3 2.1 0 4.1-.3 6.2-.3 2.6-.1 5.2-.3 7.7-.9 4.3.1 8.7-.9 12.8-2.4 1.9-.4 3.7-.9 5.5-1.5 2.5-.6 5.1-1.2 7.4-2.2.3.1.6.1.9.1 4.5-1.1 8.7-3.7 13.1-5.1 2.4-.8 4.8-1.3 6.8-2.8 2.8-1 5.5-2.3 8.2-3.9 1.6-1 3.2-1.8 4.7-2.8 8.9-4.5 15.7-11.8 23.5-17.7 2.2-1.7 5.6-2.6 5.1-5.7z"/><path class="beast-mouth-16-st-0" d="M96.7 408.3c-1.7 1-2.9 2.9-4.1 4.4-1.6 2-2.2 4.6-3.8 6.7-2.9 2.8-6.2 5.2-9.3 7.8-.1.1-.1.2-.1.2-2.2 1.6-4.2 3.5-6.4 5.1-2.5 1.9-5.1 3.6-7.6 5.4-2.4 1.7-5.1 2.8-7.7 4.1-2.7 1.4-5.9 2.5-8.5 4.2-.1 0-.1.1-.1.1-9.9 4.1-20 7.7-30.2 10.8-.3 0-.4.1-.7.2h-.1-.1c-1.7.1-3.4 1-4.9 1.7-3.7.6-7.4.9-11 1.3-2.4.3-4.8.7-7.3.9-2.2.1-4.6.3-6.8.2v.4c-.2 0-.5-.2-.7-.2-.1 0-.3-.1-.3 0-.7 0-1.3-.1-2-.2-4.9-.3-9.7-.9-14.5-1.9-4.5-.9-8.9-2.5-13.2-4-2.2-.8-4.3-1.7-6.4-2.7-1.5-.8-3.2-1.7-4.9-2h-.1c-.9-.5-1.6-1.1-2.5-1.6-1.1-.7-2.5-1-3.7-1.5-2.8-1.1-5.5-2.1-8.1-3.5-1.5-.8-2.9-2.6-4.7-2.8h-.1c-.6-.5-1.3-1-2-1.4-1.5-.8-2.9-1.6-4.1-2.6-.5-.7-1.2-1.4-1.9-2-.1 0-.1-.1-.2-.1-.5-.7-1-1.3-1.7-1.8-1.3-1.1-2.8-1.8-4-2.9-.8-.8-1.4-1.7-2.3-2.5-1.2-1-2.6-1.8-3.8-2.8h-.1c-1.2-1.5-1.9-3.2-3-4.8-.9-1.3-1.8-2.5-2.8-3.7-.4-.6-2.4-2.6-2.3-3.3.1-.6-.9-.6-1 0-.1.7.9 1.7 1.2 2.2.9 1.4 1.9 2.7 2.9 4.1 1.5 2 2.5 4.3 4.1 6.2 1 1.2 2.2 2 3.3 3 .8.7 1.6 1.4 2.4 2.2.1.1.3.2.4.1l.6.6c.1.1.2.1.3.1.9.7 1.8 1.3 2.7 1.9 2 1.3 2.8 3.5 4.7 4.9.1.1.3.1.4.1.7.5 1.4 1 2.2 1.5 2.2 1.3 4.2 3 6.5 4.1.1.1.2.1.3 0 .9.6 1.9 1 2.9 1.5 2.1 1.2 4.5 1.8 6.7 2.7 1.4.6 2.9 1 4.1 1.8 1.1.7 2 1.5 3.3 1.8.2 0 .3 0 .4-.1 1.3.5 2.7 1.3 3.9 1.8 1.9.9 3.9 1.7 5.9 2.5 4.3 1.6 8.7 3 13.2 4 4.2.9 8.5 1.4 12.8 1.7 2.5.2 5 .3 7.5.4 2.3.1 4.5-.4 6.8-.5.1 0 .2-.1.3-.1 1.8-.2 3.5-.5 5.3-.7 5-.6 10-.9 14.9-2.2.1 0 .2 0 .3-.1.1 0 .1-.1.2-.1h.1c.5-.3.6-.3.9-.8 10.3-3.1 20.4-6.7 30.3-10.8.1 0 .2-.1.2-.2 2.3-1.5 5.1-2.5 7.5-3.7 2.9-1.5 5.9-2.6 8.5-4.5 2.3-1.6 4.7-3.2 6.9-4.9 2.5-1.9 4.8-4 7.3-5.8.1-.1.2-.2.2-.3 2.9-2.4 5.9-4.7 8.7-7.3.1 0 .2 0 .3-.2.1-.2.3-.4.4-.5.3-.3.7-.6 1-.9 1.3-1.3 2.2-2.9 3.2-4.4 1.2-1.8 2.9-3.5 3.6-5.6.4-.5-.1-.9-.5-.7zm-3.5 5.5c.7-1.2 1.4-2.3 2.3-3.2-.7 1.1-1.6 2.1-2.3 3.2zM118.1 392.1c-12.1 22.6-31.4 38.6-51.8 53.3-.5.4 0 1.2.5.9 20.6-14.8 40-31 52.2-53.7.2-.6-.6-1.1-.9-.5zM140.6 350.1l-1.5 3c-.3.6.6 1.1.9.5l1.5-3c.2-.6-.6-1.1-.9-.5z"/><path class="beast-mouth-16-st-0" d="M-83.1 445.5c-8.1-7.6-16.9-14.4-24.6-22.4-4-4.1-7.5-8.6-10.5-13.5-3.1-5.1-4.9-10.6-7-16.2-4.1-11-8.4-21.9-11.4-33.3-2.9-11-4.9-23-1.9-34.2.2-.6-.8-.9-1-.3-2.8 10.6-1.2 21.8 1.4 32.4 2.9 11.9 7.4 23.4 11.8 34.9 1.9 5.1 3.6 10.3 6.2 15.1 2.7 5.1 6.3 9.7 10.2 14 8 8.8 17.4 16 26.1 24.1.4.5 1.1-.2.7-.6zM27.4 463.4c-11.2 3-22.9 2.5-34.4 3.5-.6.1-.6 1.1 0 1 11.6-1 23.3-.5 34.6-3.5.7-.2.4-1.2-.2-1zM100.1 431.5c-22 25.8-54.4 39.8-87.6 43.4-.6.1-.6 1.1 0 1 33.5-3.6 66.2-17.6 88.4-43.6.4-.6-.3-1.3-.8-.8zM127.6 395.6c-1.4 3.1-3.3 5.8-5.4 8.4-.4.5.3 1.2.7.7 2.2-2.7 4.2-5.4 5.6-8.6.2-.6-.7-1.1-.9-.5zM137.6 371.6c-.9 2-1.5 4-2.1 6.1-.2.6.8.9 1 .3.5-2 1-4 1.9-5.9.3-.6-.6-1.1-.8-.5zM130.8 373.5c-.6-.2-1.1.7-1.2 1.1-.3.6.6 1.1.9.5 0-.1.1-.2.2-.3.1 0 .2-.1.3-.1.2-.4.4-.9-.2-1.2z"/><path class="beast-mouth-16-st-0" d="M48.7 455.9c-1.7 1.1-3.6 2.1-5.1 3.6-.5.4.2 1.2.7.7 1.5-1.4 3.2-2.3 4.9-3.4.6-.4.1-1.2-.5-.9zM-14.6 473.4c-20.1 4.4-37-12.3-54.7-18.5-.6-.2-.9.8-.3 1 18 6.3 34.8 22.9 55.3 18.5.6-.2.3-1.2-.3-1zM-120.5 313.4c-4.6 0-9.1.6-13.3 2.6-.6.3-.1 1.1.5.9 4-1.9 8.4-2.4 12.7-2.4.7-.2.7-1.2.1-1.1zM-70.4 316.9c-11.3-1.6-22.3-4.8-33.8-3-.6.1-.4 1.1.3 1 11.2-1.8 22.2 1.4 33.2 3 .7 0 1-.9.3-1zM-39.4 320.9c-5.5-1-11-1.5-16.5-2.5-.6-.1-.9.9-.3 1 5.5 1 11 1.5 16.5 2.5.7 0 1-.9.3-1zM-34 314.4c-3.4.4-6.7-.6-9.9-1.5-.6-.2-.9.8-.3 1 3.3.9 6.7 2 10.1 1.5.7-.1.7-1.1.1-1zM16.5 318.9c-13.1 1.4-26.3.5-39.5 1-.6 0-.6 1 0 1 13.2-.5 26.4.4 39.5-1 .6-.1.6-1.1 0-1zM12 312.4c-5.3 0-10.7-.5-16-.5-.6 0-.6 1 0 1 5.3 0 10.7.5 16 .5.6 0 .6-1 0-1zM57.4 319.4c-8.1 2.5-16.7.6-25 2-.6.1-.4 1.1.3 1 8.3-1.4 16.9.5 25-2 .5-.3.3-1.2-.3-1zM50.5 316.4c-6 .5-12 .5-17.9-1-.6-.2-.9.8-.3 1 5.9 1.5 12.1 1.5 18.1 1 .7-.1.7-1.1.1-1zM85.5 317.4c-6.8 0-13.5.5-20.1 2-.6.1-.4 1.1.3 1 6.5-1.5 13.2-2 19.9-2 .5-.1.5-1.1-.1-1zM147.4 325.6c-2.6-5.4-6.7-9.5-12.2-11.9-5.9-2.5-12.7-2.6-19-2.3-13.7.7-27.9 5-41.5 2.4-.6-.1-.9.8-.3 1 12.7 2.4 26.1-1.1 38.8-2.2 6.4-.5 13.1-.6 19.3 1.2 6.4 1.9 11.2 6.3 14 12.3.3.6 1.2.1.9-.5z"/><path class="beast-mouth-16-st-0" d="M115 317.9c-3.4.1-6.6.9-10 1-.6 0-.6 1 0 1 3.4-.1 6.6-.9 10-1 .6-.1.6-1.1 0-1zM143.5 332.4c-.1 3-1 5.9-1.5 8.9-.1.6.9.9 1 .3.5-3 1.4-6 1.5-9.1 0-.8-1-.8-1-.1zM150 339.4c-.5 0-.5-.1-.5-.5 0-.6-1-.6-1 0 0 1 .5 1.5 1.5 1.5.6 0 .6-1 0-1zM148.4 314.1c.1-.2.1-.4-.1-.6-.4-.3-1-.4-1.1.2 0 .3.2.6.3.9.4.6 1.2.1.9-.5zM-144.1 367.1c-6.2-11.4-.1-24.3-2.4-36.4-.1-.6-1.1-.4-1 .3 2.3 12.2-3.7 25 2.6 36.6.3.6 1.1.1.8-.5z"/></svg>