<svg id="Layer_1" xmlns="http://www.w3.org/2000/svg" width="305.834" height="176.833" viewBox="-152 308.1 305.8 176.9"><style>.beast-mouth-18-st-0{fill:#75a08a}.beast-mouth-18-st-1{fill:#0b3746}.beast-mouth-18-st-2{fill:#d72050}.beast-mouth-18-st-3{fill:#f0a732}.beast-mouth-18-st-4{fill:#fcdca4}</style><path class="beast-mouth-18-st-0" d="M.8 433.4c26.8 0 34-17.2 50.5-18 0 0-126.8-2.5-110.8-2.5s30.2 20.5 60.3 20.5zM-52.5 389.9c3.5-8.7 19.5-44.5 26.4-63.5 6.9-19 22.7 2.5 22.7 2.5s13.9-20.5 21.9-4c7 14.4 15.1 32.6 29.5 53.6C62.1 399-52.5 389.9-52.5 389.9z"/><path class="beast-mouth-18-st-1" d="M-1.7 332c48.8 0 63.7 87 63.7 87H-68s7.4-87 66.3-87z"/><path class="beast-mouth-18-st-2" d="M-54.5 419.6s2.5-47.5 53.5-52 59 18.5 91 11c27.4-6.4 29.5-16.5 29.5-16.5s3 27.5-30 36c-39 10-43-9.5-65.5 21l-78.5.5z"/><path class="beast-mouth-18-st-0" d="M-92 391.5c-4.8 2.3-7.2 3.4-11.4 5.5-1.7-3.6-.7-8 2.5-9.5 3.2-1.6 7.2.4 8.9 4z"/><path class="beast-mouth-18-st-3" d="M-104.593 380.528l.903-.43 4.432 9.297-.903.43zM-99.19 381.27l.983-.18 1.845 10.134-.984.18zM-106.25 388.414l.725-.69 4.407 4.643-.725.688z"/><path class="beast-mouth-18-st-0" d="M92.6 355.3c-3.8-3.7-5.8-5.6-9.1-8.8 2.8-2.9 7.2-3.4 9.8-1s2.1 6.9-.7 9.8z"/><path class="beast-mouth-18-st-3" d="M98.436 339.55l.72.694-7.15 7.413-.72-.694zM99.696 344.885l.512.86-8.84 5.28-.514-.857zM90.446 340.783l.9.438-2.8 5.756-.9-.438z"/><path class="beast-mouth-18-st-4" d="M-32 357.1l-.6-14.9c-5.3 4-9.9 8.9-13.8 14.3l-.1 4.7 9.3 4.5 5.2-8.6z"/><path class="beast-mouth-18-st-3" d="M-32.3 349l-.3-6.8c-4.3 3.2-8 6.9-11.3 11.1 3.7.1 8.6-1.6 11.6-4.3z"/><path class="beast-mouth-18-st-4" d="M13 335.2c-4-1.9-9-3-15-3.1v11.5l15 10.5v-18.9z"/><path class="beast-mouth-18-st-3" d="M-2 332.1v5.8c2 1.2 3.9 2.4 6 1.2 2.3-1.3 4.6-3.1 6.5-5-3.5-1.3-7.7-2-12.5-2z"/><path class="beast-mouth-18-st-4" d="M-23 394.7h14v24.4h-14zM20.5 419.1h-14l8.5-9.5 5.5-9z"/><path class="beast-mouth-18-st-3" d="M-9 419.1h-14v-4l14-3z"/><circle class="beast-mouth-18-st-0" cx="6" cy="387.1" r="2"/><circle class="beast-mouth-18-st-0" cx="-36" cy="401.1" r="2"/><circle class="beast-mouth-18-st-0" cx="-20" cy="386.1" r="2"/><circle class="beast-mouth-18-st-0" cx="12" cy="373.1" r="2"/><circle class="beast-mouth-18-st-0" cx="37" cy="380.1" r="2"/><circle class="beast-mouth-18-st-0" cx="106" cy="381.1" r="2"/><circle class="beast-mouth-18-st-0" cx="31" cy="393.1" r="2"/><circle class="beast-mouth-18-st-0" cx="-11" cy="378.1" r="2"/><circle class="beast-mouth-18-st-0" cx="60" cy="387.1" r="2"/><circle class="beast-mouth-18-st-0" cx="88" cy="386.1" r="2"/><path class="beast-mouth-18-st-1" d="M-3.7 462.5c11.1.4 20.5-7.7 21.9-18.5v1.9c-.5 11.7-10.4 20.9-22.1 20.4-11.7-.5-20.9-10.4-20.4-22.1 0-.6.1-1.3.2-1.9.5 10.9 9.3 19.7 20.4 20.2z"/></svg>