<svg xmlns="http://www.w3.org/2000/svg" width="305.834" height="176.833" viewBox="0 0 305.834 176.833"><g fill="#FCDCA4"><path d="M84 59v41l13-5V59zM125 59v34l13 7V59zM105 59v37l13-11V59zM146 59v28l13-7V59zM187 59v25l13 2V59zM167 59v41l13-3V59zM208 59v36l13 1V59z"/></g><path fill="#D72251" d="M132 14h42v49h-42z"/><path fill="#F0A733" d="M70 52h165v13H70z"/><g fill="#75A08A"><circle cx="47" cy="31" r="8"/><circle cx="77.5" cy="31" r="8"/><circle cx="108" cy="31" r="8"/><circle cx="198" cy="31" r="8"/><circle cx="228.5" cy="31" r="8"/><circle cx="259" cy="31" r="8"/></g></svg>