<svg xmlns="http://www.w3.org/2000/svg" width="305.834" height="176.833" viewBox="0 0 305.834 176.833"><path fill="#0C3846" d="M42 83h222v15H42z"/><path fill="#FCDCA4" d="M64 83L42 47v51h22zM242 83l22-36v51h-22z"/><path fill="#D72251" d="M188 98V78.5c0-19.606-15.895-35.5-35.5-35.5S117 58.894 117 78.5V98h71z"/><path fill="#F0A733" d="M151 73h2v25h-2z"/><circle fill="#F0A733" cx="129.25" cy="67.25" r="1.25"/><circle fill="#F0A733" cx="140.25" cy="80.25" r="1.25"/><circle fill="#F0A733" cx="129.25" cy="87.25" r="1.25"/><circle fill="#F0A733" cx="141.25" cy="93.25" r="1.25"/><circle fill="#F0A733" cx="123.25" cy="77.25" r="1.25"/><circle fill="#F0A733" cx="123.25" cy="94.25" r="1.25"/><circle fill="#F0A733" cx="143.25" cy="67.25" r="1.25"/><circle fill="#F0A733" cx="163.25" cy="80.25" r="1.25"/><circle fill="#F0A733" cx="178.25" cy="68.25" r="1.25"/><circle fill="#F0A733" cx="178.25" cy="88.25" r="1.25"/><circle fill="#F0A733" cx="163.25" cy="92.25" r="1.25"/><circle fill="#F0A733" cx="136.25" cy="55.25" r="1.25"/><circle fill="#F0A733" cx="154.25" cy="54.25" r="1.25"/><circle fill="#F0A733" cx="163.25" cy="67.25" r="1.25"/><circle fill="#F0A733" cx="168.25" cy="56.25" r="1.25"/></svg>