<svg xmlns="http://www.w3.org/2000/svg" width="305.834" height="176.833" viewBox="0 0 305.834 176.833"><path fill-rule="evenodd" clip-rule="evenodd" fill="#D72251" d="M132.017 107.574l-.535 14.496 61.28 3.633L194 117.92V104l-59.285 1.137z"/><path fill-rule="evenodd" clip-rule="evenodd" fill="#0C3846" d="M184.956 14.04c-.023-.13-.204-.103-.208 0-.195.013-.347.07-.414.208-.537-.287-1.246.04-1.66.21-.055.53-.103 1.067-.415 1.344-.056.368.37.258.31.624a3.2 3.2 0 0 1-.204 1.142c.053.15-.122.536.1.516-.057.22-.255.296-.206.622.012.27.405.15.416.418.275 0 .592-.04.727.103.28.06.822-.13.933.103.215-.09.46-.162.622-.312.542-.008.924-.177 1.345-.312.396.022.504.327.833.418.378.033.575-.116.83-.21.753.04 1.69-.098 2.28.105.43.026.406-.137.726 0 .18-.1.518-.038.622-.208.386.21.618-.07 1.142 0 .384-.068.65-.316 1.036-.104v.104c-.118-.02-.186.02-.205.1.066.18.236.068.205-.1.18.095.362.193.31.517.237.075.032.59.42.52-.237.245.223.38.1.83 0 .204.283.13.208.413-.108.006-.08.134.103.103-.004.31-.27.354-.31.622.04.35-.183.445-.312.622-.05.327.282.275.313.52.193.116.22.402.414.52-.182.296-.087.643-.104.93-.004.063-.104.122-.1.104-.01.155.088.368.102.52.03.402-.14.408-.002.52.016.015 0 .182 0 .207-.03.468-.04.487.002.83.103.792-.167 1.447-.104 2.073-.24.035-.1.45-.31.518-.02.297-.19.435-.207.728-.037.434.397.767.103 1.143-.03.304.236.32.208.623.09.335-.338.146-.413.31.44.688.887 2.425-.208 2.695-.09.332.268.216.31.417-.062.87.128 1.992-.103 2.695.03.38-.092.918.103 1.14-.26.016-.03.35-.002.414-.19.196-.01.262.003.52-.04.508-.248.69-.103 1.14.073.284-.21.21-.21.416.17.293.328.807 0 1.035.096.232.196.3.21.52.002.09.097.083.103.103.02.11-.104.18-.103.21-.008.103.097.12.1.206.007.18 0 .473.003.725.047.265.146.476.31.623-.003.1.005.207 0 .31-.003.05-.103.137-.103.104.006.158.18.356.206.416.03.076-.006.206.106.206-.066.237-.21.625-.002.83-.25.638-.018 1.482 0 2.178.018.256-.163.32-.21.518.066.317.224.542.313.83 0 .344 0 .692.002 1.037.095.18.035.516.21.622-.063.183-.057.43-.212.518-.023.196.12.227.104.415-.07.508-.016.486 0 1.038.043.246-.19.223-.103.516-.285-.073.075.49-.21.417.143.24.175.586.31.828-.017.428-.61.29-.41.932-.075.28.204.21.208.415.323-.12.252.164.41.207.102 1.062-.162 2.093.004 2.906.035.413-.186.575-.103 1.035-.062.186-.058.43-.21.52.103.348.332.565.412.932.016.258-.16.32-.202.518.185.3.194.77.31 1.143-.083.333-.143.688-.31.932.047.236.204.53 0 .727.138.204.196.492.31.727-.178.41-.003 1.173-.207 1.553a.477.477 0 0 0 .102.313c-.033.242-.124.427-.204.62-.02.26.16.322.202.52v1.347c-.004.317.22.405.312.622-.052.296-.25.44-.31.73-.06.334.07.48.106.722 0 .208-.002.417 0 .623-.16.323-.018.953-.31 1.143.022.146.168.173.203.31.06.148-.122.537.106.518-.122.582-.047 1.142.103 1.866.008.18-.023.322-.103.417.32.335.178 1.135.203 1.76-.077.267-.1.587-.31.726-.05.328.317.233.21.624.028.242-.017.4-.105.518v1.453c-.017.12.02.295-.103.31-.025.198.118.23.104.415 0 .277.003.555.003.83.06.215-.132.682.103.725-.057.154-.153.263-.21.416.153.785.233 1.51 0 2.28-.073.316.105.378.105.624-.154.086-.152.33-.208.518a.49.49 0 0 0 .104.31c.174.004.06.287.21.31-.04.805.18 1.34.31 1.974.255.012.5.014.623-.106.125.012.243.03.205.21.242-.032.428-.204.623-.003.324.055.423-.243.518.105.14-.03.194-.146.413-.104.156.02.385-.034.417.107.136-.033.196-.15.413-.104.157.018.382-.037.413.104.138-.108.385-.103.52-.207.56.13 1.075.308 1.658.414.194-.016.068-.353.208-.414.122-.018.295.016.312-.104 1.063.14 2.33-.16 3.63-.105.32-.076.198.286.515.21.238.03.39-.024.42-.207.29.107.427.107.725 0 .196-.024.23.117.41.102.775-.02 1.363-.105 2.078.106.563-.213.815-.2 1.658-.207.58-.215 1.056-.073 1.556-.207.4.116.72.314 1.14.415.496-.162.96-.357 1.66-.31-.012.256-.195.318 0 .518.268-.01.15-.407.413-.415.21-.002.417 0 .622 0 .103.29.28-.152.418.102.153-.016.382.04.413-.104.19.02.345.07.41.21.31-.16.57-.152.73-.103.313.093.61-.098.724.104.14-.172.59-.036.727-.207.355.094.673.23.93.415.485-.165 1.212.157 1.765-.104.2.21.45.207.727.104-.043.285.388.097.416.31.198-.044.187-.298.516-.207.23.12.673.022.73.313.134-.105.382-.104.516-.208.327-.05.275.28.52.31.2-.145.418-.272.725-.31.02.08.087.122.207.103.26-.02.325.16.415.312.26-.018.505-.02.52.207.33-.158.457-.035.83 0v.31c.12-.017.11-.162.104-.31.273.027.52.035.415-.312.44.176.77-.033 1.35.104-.003.102.083.12.103.206.01.116-.152.16 0 .21.15.112.252.108.31-.105.336.093.146-.338.312-.415h.723c.214.132.25.443.42.62.15-.016.38.04.413-.1.386.008.008.403.206.413.188.014.242-.104.207-.313.282.077.208-.202.416-.204.19-.005.217.08.1.207.026.148.173.176.206.312.25 0 .31-.178.622-.104.187.193.305-.126.52.103.155.314.027.538-.103.83.02.122.19.232.003.31-.002.204.284.13.203.415-.28.018-.1.465-.203.622-.106.153-.285.078-.417.208-.058.367.368.254.31.623-.308-.13-.35-.032-.62.1-.026.186.103.522-.205.414.044.236.552.006.623.21.016.122-.02.296.1.312.034.27-.142.34-.413.312-.033.242-.163.39-.104.722-.102.003-.204.003-.31.003-.005.18.082.267.206.312-.022.15-.168.175-.21.312-.047.324.282.275.313.518.015.258.02.506-.204.52 0 .172.288.058.312.205-.01.18.08.268.203.312.014.516-.097.51 0 .933.033.213.21.275.312.414-.22 1.035.04 1.91-.622 2.49.004.136.186.095.21.207-.143.342-.086.886-.414 1.037.188.41.098 1.033-.107 1.35.072.6.07.748.002 1.347-.405.215-.57.67-.93.934-.595.073-.93-.11-1.453-.102-.236-.283-.83-.213-1.035-.52-.236.077-.23.396-.52.414-.33.09-.323-.16-.52-.205-.26.017-.323-.16-.416-.31-.318-.08-.2.282-.517.204-.488.077-.715-.113-1.14-.102v-.312c-.184.195-.36-.18-.31.31-.335.09-.217-.266-.42-.31-.223-.02-.324.087-.31.31-.063.144-.4.018-.413.208-.303-.076-.518-.246-.727-.413-.616.03-1.134-.04-1.453-.31-.18-.062-.608.122-.622-.105-.214-.063-.68.126-.723-.103-.366.12-.944.457-1.35.204-.243-.025-.278.162-.52.21-.718.14-1.485-.237-1.863 0h-.52c-.34-.11-.457.066-.725-.208-.528.097-.772.475-1.453.416-.347-.002-.356-.34-.725-.313-.367-.056-.46.17-.625.314-.263-.047-.475-.146-.62-.313-.248.066-.475.15-.83.104-.336.025-.44-.18-.828-.1-.13-.013-.248-.034-.21-.21-.317-.015-.468.365-.724.103-.18.044.02.135 0 .313-.307.025-.318-.236-.622-.21-.164.012-.363-.013-.31.21-.35-.175-.853-.187-1.245-.313-.283-.074-.21.21-.42.21-.532.015-1.026.074-1.446.208-.334.087-.324-.165-.522-.21-.366.187-1.08.024-1.45.208-.654-.14-1.43-.16-2.072-.31-.523-.072-.762.21-1.142 0-.186.124-.603.02-.725.207-.245.002-.31-.18-.623-.104-.296-.086-.27.146-.522.103-.374-.04-.692-.135-1.035-.208-.104 0-.21 0-.31.002-.18-.008-.322.022-.417.103-.213.063-.682-.128-.725.104-.943-.19-1.895-.086-2.693-.208-.268.01-.15.404-.418.416.148.8-.192 1.563-.002 2.386.09.33-.16.317-.202.517-.063.25.128.755-.106.83-.075.318.285.198.206.522.02.122-.018.293.104.31-.086.117-.14.274-.104.517-.086.295.148.27.103.52.062.335-.068.482-.103.725.024.082.005.204.104.208.016.122-.016.294.106.312-.277.28-.144.965-.417 1.244.095.355.448.446.417.93.182.06.43.054.516.21.18-.097.56.003.518-.313.25-.04.227.193.52.106.586-.24 1.49-.172 2.07-.416.407.114.967.073 1.35.205.328.09.322-.16.52-.205.4-.033.704.048 1.035 0 .248-.033.413-.185.622-.206.157-.017.215.097.31.103.188.015.25-.144.417-.104.03.01.167.184.205.207.11.058.258.002.31.104.284.076.212-.208.418-.208.51.075.835.03 1.35-.104.342.334 1.153.328 1.45.413.145.01.227-.046.313-.102.304.132.618-.066 1.136.002.784.188 1.32.136 2.077.207.224-.018.332.085.31.31.164-.01.086-.265.313-.205l.623-.002c.234-.028.39.025.413.208.212-.258.422-.144.728-.002.106.35-.323.162-.52.207.09.258.72-.027.828.21.116.01.164-.148.207 0 .17-.247.71-.123.73-.52.167.213.42.34.826.312.07.205.274.275.52.312.44-.032.826-.416 1.138 0 .277.072.198-.213.31-.312.212.03.206.28.42.31.29-.1-.15-.274.1-.412.346.036.367.395.62.52.127-.023.066-.115 0-.208-.123-.023-.06-.114 0-.21.468.157 1.212.038 1.456.417.39-.054.484-.146.725.104.448-.14.69-.016 1.033-.104.366.05.68.153 1.144.104.008.164.264.08.207.312.23-.06.57-.153.622.207.14-.002.095-.182.205-.207.25.2.966-.063 1.042.31.244.004.304-.178.622-.104.28.55.61 1.05 1.137 1.35.31-.09-.237-.157-.102-.415.078-.022.206-.005.21-.105-.027-.27-.183.142-.417 0 .08-.32-.282-.2-.206-.52.065.063.492.243.52 0 .296.187.577.39.83.623.687-.06 1.023-.157 1.553.205.932-.01 1.308.138 2.077.002.142.273.434.394.516.725.43.083.195-.494.62-.413.152-.114.253-.11.312.104h.624c.01.128.032.247.21.205.105.38.304.664.52.936.04.15.12.176 0 .312.146.162.214.406.31.622v.623c.036.342.24.52.414.727-.025.147-.173.173-.21.31-.073.282.206.21.21.417.24-.033.114.298.312.312.027.236-.028.39-.21.413.302.424.334 1.117.726 1.453-.063.248.134.753-.103.83.08.25.083.5-.103.726.002.13.134.142.103.31a2.237 2.237 0 0 0-.103.935c-.06.18-.055.43-.208.515 0 .21 0 .418-.002.623-.28.138-.063.766-.414.83.018.362-.025.664-.207.83.045.198.226.26.21.516-.14.36-.368.785-.21 1.144-.054.327-.18.577-.31.83-.073.414.1.59.104.93-.138.108-.386.103-.518.21.012.3.438.18.413.52.09.332-.27.212-.313.413 0 .245.182.306.106.623.058.18-.128.608.103.622-.085.39-.364.006-.52.21.062.247.147.47.106.827-.036.242-.108.447-.312.52.048.323-.15.402-.21.62-.428-.088-.983-.05-1.346-.206-.204-.03-.208.14-.312.207h-1.038c-.458.05-.516-.142-.827 0-.002-.138 0-.276-.002-.414-.456.027-.496.472-.828.62-.453-.154-.804-.013-1.143-.103-.225-.018-.326.084-.312.31-.327-.158-.455-.038-.825 0-.91-.224-1.654-.327-2.697-.206-.266-.01-.362-.19-.52-.31-.078.022-.12.088-.102.208-.122.014-.298-.018-.312.104-.32-.074-.305.178-.622.1-.327.055-.407-.143-.624-.203-.315.135-.705.193-1.034.308-.448-.29-1.106.176-1.35-.205-.14.1-.387.1-.414.312-.155-.056-.26-.153-.413-.21-.185-.003-.272.08-.313.208-.153-.12-.264-.122-.417 0-.18.006-.265-.08-.312-.21-.147.03-.175.173-.312.21-.244.002-.302-.18-.617-.104-.188.062-.434-.304-.522 0-.15-.024-.175-.172-.31-.206-.417.07-.592-.1-.933-.104-.32.025-.47.227-.725.31-.736.046-1.364-.02-1.764-.31-.24-.034-.398.016-.52.104-.604-.192-1.263.296-1.867.1-.247.14-.718.045-.935.21-.76.018-1.17-.155-1.76.104-.153-.056-.535.12-.52-.104-.25.167-.668.167-.934.313-.444-.22-.84.153-1.243-.106-.217.062-.337.3-.52.107-.322-.052-.272.28-.516.31-.434-.11-.705.218-.934 0-.282-.075-.207.206-.416.208-.378-.033-.917.086-1.14-.106-.136.003-.093.182-.21.208 0 .136-.18.094-.206.208-.677-.068-1.053.186-1.448-.104-.32-.077-.203.283-.52.208-.032-.22-.335-.146-.517-.208-.186-.067-.29-.09-.418-.207-.335-.062-.48.07-.727.104-.152-.332-.84-.127-1.143-.313-.312.03-.37.32-.826.205-.08-.02-.203-.002-.21-.103.127-.022.065-.115.003-.208-.278 0-.592-.04-.726.104-.27.008-.498.06-.622.207-.128-.122-.366-.116-.622-.104-.148-.044-.23.096-.312.103-.095.006-.083.097-.108.104-.1.023-.078-.1-.1-.104-.13-.027-.147.146-.313.103-.03-.006-.142-.104-.1-.104-.147-.01-.23.108-.314.106-.155-.008-.348-.11-.415-.104-.264.02-.525.163-.827.207-.024-.078-.003-.204-.107-.208-.364.163-.06-.353-.31-.31-.022-.183-.18-.238-.415-.206-.157.023-.016.167.103.204.177.21-.005.134 0 .416-.39.088-.682.28-1.24.208-.198-.043-.446-.037-.414-.31-.252.166-.506.263-.83.103-.338-.13-.08.334-.417.206-.127-.147-.358-.196-.62-.206-.07.258-.278-.193-.52-.104-.284.008-.282.153-.416.207-.077.03-.207-.006-.207.104-.354-.1-.642-.324-1.037-.104-.085-.33.165-.32.208-.52-.136-.172-.585-.032-.727-.205-.028-.205.143-.21.21-.313-.08-.376-.33.01-.725-.104.027.215.457.025.413.312.017.36-.525.17-.52.52-.244.002-.303-.18-.624-.103-.01.104.45.21.108.31-.186.15-.238.094-.21-.21-.123.02-.11.166-.103.314-.347.07-.168-.214-.105-.312-.443.043-.51.46-.934.52-.017-.123-.16-.113-.31-.103-.08-.023-.2-.002-.205-.104.293-.194-.296-.72-.52-.413-.036.313.336.213.518.312 0 .032 0 .065.002.102-.186.192-.267-.083-.624 0 .003-.104-.18-.13-.208 0-.144-.024-.172-.172-.31-.21-.078.022-.118.09-.103.21-.125-.017-.117-.164-.103-.313-.34-.094-.146.34-.312.416-.42-.17-.74-.043-1.142 0-.315-.17-.788-.18-1.142-.31-.577.12-1.444-.055-2.073.102-.283.01-.21-.172-.415.002-.32.076-.197-.288-.517-.21-.33-.017-.627-.003-.73.21a.524.524 0 0 1-.31-.104c-.002-.172-.287-.058-.31-.207-.338.17-.644.036-.935-.107-.193.077-.072.31-.31.106-.018.19-.355.06-.415.204-.337.095-.147-.34-.312-.416-.172.002-.346 0-.52.002.01-.177-.078-.264-.203-.31-.244-.005-.308.178-.623.103-.123.018-.115.163-.105.31-.666.015-1.526.31-2.072.105-.137 0-.096.182-.21.207-.384-.03-.713-.116-.83-.416-.18.23-.623.202-.933.31.075-.32.073-.198 0-.517-.328.153-.725.238-1.037.415-.45-.167-.864.128-1.345-.104-.32-.074-.378.106-.622.104-.027-.22-.46-.03-.52-.21h-1.035c-.35.066-.463.37-.83.415-.183.008-.323-.02-.415-.104-.004-.168-.287-.057-.312-.208-.363.05-.598.232-1.032.21-.045-.133-.135-.214-.313-.208-.023-.194.116-.23.103-.415-.305.176-.843.125-1.033.414a3.17 3.17 0 0 0-1.245.207c-.628.06-.886-.146-1.35 0v-.31c.353-.116.247-.125.208-.52-.17-.028-.177.1-.31.103-.308.09.24.153.1.415a.384.384 0 0 0-.515-.002c-.236.06.126.164-.106.312-.126-.01-.246-.03-.205-.205-.183.008-.323-.023-.417-.106-.307.004-.353.272-.622.313-.248.043-.225-.19-.516-.103-.427-.08-.36.335-.83.205-.03-.144-.23-.116-.314-.205-.014-.195-.065-.35-.208-.415-.147-.002 0 .086.002.104a.496.496 0 0 1-.103.31c-.153.015-.382-.038-.413.104h-1.454c-.193-.023-.685-.268-.83 0-.133 0-.093-.18-.204-.207-.622-.134-.95.397-1.245 0-.28-.072-.2.213-.313.312-.273.006-.484-.273-.83-.313-.424-.05-.938.1-1.244.313-.53.08-.754-.146-1.244-.106-.126-.01-.246-.03-.205-.206-.396.284-.792-.333-1.04.104-.13-.043-.213-.134-.204-.312-.12-.01-.162.15-.208 0-.5.088-.882.297-1.455.312-.248.04-.225-.19-.514-.104-.09-.153-.265-.225-.52-.206-.395-.156-.02.462-.415.31-.197-.16.146-.404-.108-.623-.49.062-.955.15-1.553.103-.193.018-.347.07-.414.21-.276-.105-.528-.11-.727.1-.238-.106-.624-.063-.83-.203-.23.366-1.102-.006-1.244.415-.3-.1-.615-.486-.834-.104-.136-.106-.31-.17-.413-.31-.136.103-.38.1-.518.205-.18-.058-.43-.052-.518-.205-.234.05-.532.204-.727-.002-.238-.028-.39.027-.414.208-.118-.085-.276-.137-.52-.1-.118-.328.166-.253.207-.42-.075-.278.207-.208.208-.412-.46.09-.822.28-.728.933-.15-.02-.094-.25-.102-.414-.184-.014-.24.104-.207.312-.18.006-.264-.08-.31-.207.035-.237-.302-.113-.312-.312-.24.07-.275.35-.517.418-.36-.085-.396.153-.727.104-.2.03-.205-.145-.308-.21-.555-.06-.91.24-1.35 0-.188.06-.43.054-.517.208-.357-.178-.65.117-.935-.207-.28-.074-.207.208-.415.208-.246.004-.303-.178-.622-.104-.004-.063-.018-.122-.104-.103-.366.058-.254-.365-.622-.31-.124.01-.242.03-.207.206-.24.035-.43.124-.622.21-.563.105-.65-.318-1.038-.105-.086-.222-.534-.086-.62-.312a.385.385 0 0 1-.522 0c-.134.106-.38.104-.514.21-.247-.253-.196.154-.523.103-.002-.13-.134-.14-.1-.31-.13.043-.213.133-.21.31-.18.032-.556-.332-.52.105-.436-.1-.522-.274-.825-.104-.317.03-.408-.332-.622-.102-.134-.18-.622-.004-.622-.312-.56.315-1.123-.03-1.664.31-.462-.073-.514.03-.825-.104-.174.002-.348.002-.52 0-.15-.057-.538.122-.52-.104-.17.174-.61.085-.937.104-.18-.057-.43-.05-.514-.205-1.046.236-2.52.04-3.734.1-.26.017-.323-.16-.522-.203-.655.128-1.908.266-2.278-.21-.396.125-.902.14-1.245.313-.25.04-.225-.188-.52-.104-.763-.002-1.61.262-2.488 0-.236.05-.528.206-.725 0 .15-.606.152-1.573 0-2.178.128-.042.21-.134.21-.313.176.008.263-.08.31-.206-.043-.682-.323-1.13-.417-1.763-.32-.372-.353-1.027-.518-1.556-.297-.256-.356-.748-.73-.933.09-.292-.143-.27-.1-.52-.09-.15-.155-.327-.413-.308.042-.396-.206-.49-.312-.73-.516.032-.774-.194-1.142-.31.004-.375-.06-.82.21-.934.11-.302.213-.614.515-.725-.243-.455.186-1.06-.102-1.558-.06-.336.07-.48.103-.724.02-.33-.276-.347-.206-.727.248.04-.057-.476.31-.313-.01-.32.05-.578.208-.727.034-.365.286-.256.106-.622.144-.023.173-.17.31-.208-.135-.304.03-.654.102-1.036.212-.134.628-.066.624-.413-.09-.31-.156.24-.414.102-.043-.422.337-.416.203-.932.128-.012.25-.03.21-.207.375-.06.5.12.724.207.2-.012.075-.343.313-.312.372-.06.504.123.73.21.235.03.11-.3.31-.312.502.183.644-.22 1.347-.104.524-.376.504-1.296 1.14-1.558-.09-.432.2-.488.205-.827.276-.108.64-.128 1.042-.104.142.006.223-.05.31-.104.974-.053 1.734.097 2.49 0 .29-.086.268.145.516.103.293.085.268-.146.52-.104.045.298.784-.092.83.207.143.004.225-.05.312-.104.41.176 1.09.08 1.658.103a.484.484 0 0 1 .31.104c.413-.002.826 0 1.246 0 .205.174.13-.008.413-.002.33-.06.322.195.517.002.187.06.43.055.518.207.38-.21.623.242 1.04.002.016.19.35.06.412.206.32.074.378-.106.622-.104.245.033.39.165.726.104.457.167 1.134.11 1.453.415.37-.237.533-.07.932-.21.284-.075.21.207.414.21.32.076.307-.18.622-.103.62.195 1.483.215 2.073-.104h.937c.32.027.464.223.725.312.606-.002.707-.106 1.244-.002.484-.067.945-.16 1.453-.207.37.006.5.258.828.312.258.017.432-.055.518-.206.195-.023.23.116.414.1.185-.057.433-.05.52-.206.292.163.44-.118.725.106.232-.15.693-.073.83-.312h1.556c.105 0 .12-.084.21-.106.116-.016.11-.163.1-.31.18.01.325-.02.414-.105.02-.43-.175-.57.108-.828-.047-.198-.295-.187-.208-.518.207-1.07.077-2.48.52-3.32.008-.594.02-1.196-.106-1.657-.008-.322.13-.498.21-.725-.013-.3.052-.68-.104-.833.014-.12-.02-.296.1-.31-.08-.193-.172-.38-.206-.624-.025-.542.31-.924.106-1.345.016-.33.232-.456.203-.83-.023-.15-.167-.174-.203-.313-.31.144-.642.132-.833-.1-.35.185-.493-.017-.93 0-.18-.01-.323.02-.414.1-.157.02-.384-.035-.42.106-.375-.21-1.02-.15-1.344-.417-.374-.004-.82.06-.933-.205-.546.202-1.48-.017-1.972-.208-.44.217-1.35-.037-1.656.313-.97-.02-1.61-.242-2.49-.106-.342-.107-.85-.05-1.14-.208-.385.195-.576-.07-.934.104-.358-.165-.553.146-.83-.103-.123.154-.39.162-.517.312-.493-.122-.85.24-1.14 0-.147-.043-.226.1-.314.103-.09.004-.08.1-.1.104-.167.037-.357-.207-.52-.002-.332.09-.32-.162-.52-.205-.44.016-.525.496-.828.103-.306.09-.12.155-.106.415-.177.006-.325-.023-.414-.104-.152.123-.16.395-.31.52-.598.157-1.253.466-1.87.31-.292.057-.54.152-.83.208-.253.014-.498.014-.622-.104-.193-.1-.346.31-.413 0-.376.32-.928.457-1.66.413-.19.014-.344.07-.413.21-.656-.27-1.46.005-1.97.208-.02-.156-.25-.097-.414-.104-.144-.237-.182-.578-.625-.517-.107-.548-.3-1.013-.517-1.453-.124-.016-.295.018-.313-.103-.853.045-1.67.1-2.07.413-.11.085-.14.282-.31.312-.402.04-.37.112-.623-.103-.32-.076-.378.105-.622.102-.002-.103 0-.207-.002-.312-.18-.004-.268.077-.31.207-.123.052-.237.112-.31.207-.317-.23-.364-.122-.83-.104-.428.106-.647.033-1.143.21.016-.26-.162-.322-.205-.52-.122-.153-.132-.423-.31-.518.01-.634-.107-1.14-.21-1.66.137-.068.194-.22.21-.415-.062-.57-.287-1.027-.107-1.554.016-.26-.16-.322-.207-.52.14-.543-.123-1.186.003-1.66.04-.25-.19-.224-.108-.518-.014-.256.057-.43.21-.518-.1-.21-.214-.41-.31-.624-.028-.835-.076-1.65-.21-2.383.082-.023.123-.086.105-.208 0-.587.002-1.174 0-1.76.025-.198-.116-.23-.104-.418-.06-.335.07-.48.106-.725-.134-.425-.305-.805-.31-1.35-.052-.325.145-.406.202-.62-.055-.292-.15-.54-.205-.83.19-.017.064-.354.206-.415.043-.574-.11-.723 0-1.144.073-.316-.18-.303-.104-.62.016-.294.19-.433.21-.724.206-.002.13-.283.413-.21-.09-.333.344-.14.313-.412.943.08 1.585-.144 2.487-.104.403.062.84.4 1.142.416.09.004.085.096.104.102.237.05.505-.027.623-.002.286.073.217.025.518.002.243-.018.54.15.728-.002.488.136 1.17.075 1.656.21.386.074.447-.177.83-.105.26-.013.432.057.52.21.462-.138.826.047 1.45-.21.285-.007.208.174.417 0 .282-.076.21.21.414.21.526-.09.774.033 1.45 0 .186-.058.432-.054.52-.207.474.356 1.62.042 1.97.516.32-.062.543-.22.83-.31h1.97c.32.08.2-.286.52-.21.012.23.44.047.623.105.216.06.68-.128.722.104.328.05.237-.32.622-.21.4.126.766.277 1.144.417.378-.142.642-.397 1.033-.52.02.154.253.095.418.103.055.15.162.256.31.313.216-.062.294-.258.622-.207.226-.02.327.083.31.31.846-.137 1.324.033 2.074-.103.33-.09.323.163.52.206.203-.003.13-.284.414-.207.923-.08 1.914-.19 2.695.104.144.005.23-.05.313-.104 0-.14.18-.097.205-.207.493.075.718-.118 1.14-.106 1.07.26 2.39.337 3.323.21.04-.49-.038-.867-.106-1.247.103-.45.193-.912.31-1.345-.168-.354-.383-1.156 0-1.453-.107-.682-.02-1.19.208-1.763.018-.258-.16-.32-.207-.52-.09-.585.21-.94 0-1.347.372-.077.11-.79.31-1.038.04-.285-.294-.73 0-.933-.215-.3-.26-.774-.414-1.14-.116-.546.28-.968 0-1.352.05-.262.147-.475.313-.62.016-.258-.164-.318-.21-.516-.058-.184.127-.61-.103-.624.295-.96-.12-1.99 0-3.11-.07-.278.218-.2.313-.31-.264-.652-.634-1.642-.21-2.388.088-.29-.145-.266-.103-.518.224.02.05-.366.104-.518 0-.242 0-.484-.002-.725.002-.45.002-.902.002-1.35-.025-.37.31-.377.31-.726.072-.376-.066-.552-.204-.725.006-.18-.023-.32-.106-.416-.008-.28.17-.208 0-.415.095-.178.034-.515.21-.62-.237-.107.048-.74-.21-.832.06-.183.055-.43.207-.516-.043-.2-.293-.19-.21-.518-.005-.184.027-.323.11-.418.013-.153-.04-.38.102-.413-.2-.57-.042-.99-.313-1.35-.06-.212.13-.68-.1-.722.21-.413.3-1.256.1-1.764.006-.342.177-.516.102-.933.093-.33-.16-.323-.203-.52.098-.674.453-1.48.203-2.177.12-.572.234-1.153.31-1.762.054-.327-.145-.405-.202-.622-.043-1.09.118-1.46.103-2.387-.075-.237-.09-.527-.21-.724-.085-.33.167-.32.21-.52v-.724c-.016-.26.16-.326.31-.417.076-.28-.204-.208-.208-.415.107-.29.11-.433-.003-.725-.02-.196.12-.23.108-.417.053-.15-.122-.533.103-.516 0-.21-.284-.132-.21-.418-.085-.33.166-.32.21-.517.023-.198-.12-.23-.103-.415-.173-.002-.06-.288-.208-.312.32-.975.086-2.02-.103-3.008-.09-.33.162-.32.205-.52-.23-.286-.217-.817-.314-1.24.036-.35.112-.656.31-.832 0-.204-.278-.132-.202-.413.07-.52-.177-.723-.106-1.244a.464.464 0 0 0-.104-.313v-1.04c-.09-.332.27-.212.313-.41.02-.156-.038-.385.1-.418-.242-.204-.14-.753-.31-1.037-.022-.196.117-.23.107-.413-.246-.508.104-.973-.21-1.35-.085-.293.147-.27.104-.517-.17-.453-.142-1.1-.31-1.556.04-.374.16-.5-.003-.83-.018-.198.12-.23.108-.414.016-.156-.04-.383.1-.418.03-.3-.23-.314-.208-.62.23.018.047-.368.106-.518-.135-.732-.13-1.112-.206-1.765.09-.43.28-.76.31-1.244.288-.057.292-.4.414-.622.33.02.347-.275.73-.205.084.12.133.277.102.518 0 .208.284.134.208.417.362-.06.166-.603.1-.83.068-.54-.12-.938 0-1.245.503-.087.676-.504 1.037-.725.33-.05.408.146.622.205.577-.22 1.597.006 2.178-.207.41.03.32-.443.73-.413.34.04.457.303.725.413-.11.525.234.593.208 1.036.433.054.7-.06.932-.21.293-.083.27.15.518.108.7-.29 1.912.06 2.487-.108.342.112.85.053 1.142.21.134-.105.384-.102.52-.21.24 0 .48.002.724 0 .216.062.684-.124.728.108.15-.162.53-.095.83-.108.316-.075.38.108.623.108.147-.025.174-.174.312-.21.24-.032.098-.454.31-.52-.015-.543.02-1.025 0-1.553-.007-.155-.085-.21-.105-.312-.114-.646.118-1.142.104-1.555-.01-.356-.083-.296-.103-.622-.006-.085-.1-.09-.104-.104-.02-.114.09-.063.104-.104.043-.11-.094-.17-.102-.207-.032-.174.006-.325-.103-.414-.38.037-.618.21-.933.312.046-.29-.57.08-.523-.21-.347.175-.998.037-1.345.21-.193-.016-.347-.07-.414-.208-.2.192-.264.012-.52 0-.768-.028-.922.208-1.556-.002-.197-.022-.23.12-.414.104h-.624c-.15-.056-.538.122-.518-.103-.31.135-.795.105-1.245.102-.184.06-.428.055-.52.206-.304.027-.318-.232-.62-.204-.367-.058-.253.366-.626.31-.384.11-.293-.26-.622-.206-.333-.062-.48.07-.723.103-.22-.33-1.043-.067-1.245-.414-.205.138-.494.198-.725.312-.935-.053-1.308-.016-2.284 0-.386-.342-.58-1.246-.205-1.764-.056-.29-.25-.44-.31-.725-.018-.26.05-.433.205-.52.077-.32-.283-.202-.205-.522-.045-.352.31-.31.414-.516.02-.155-.038-.382.1-.415-.018-.36-.366-.394-.413-.727.034-.585-.027-1.08-.206-1.45-.027-.63.085-1.397-.102-1.867.205-.59.606-.984 1.142-1.245.313-.074.378.106.622.104.282.075.207-.206.414-.21.837.06 1.92-.124 2.59.104.25-.062.75.135.832-.104.914.293 2.353-.004 3.422.105.19.02.23.093.41.103.255.018.637-.232.73.104.147-.023.172-.17.31-.21.404.146 1.042-.046 1.558-.1.317-.01.492.125.725.207.46-.125.988-.038 1.45.104.427-.06.826-.57 1.244-.312.245-.032.43-.122.623-.205.477.167 1.144-.097 1.865 0 .6-.114 1.583-.207 2.075-.104.25-.13.628-.134.833-.313.142-.002.228.054.31.108.194.02.23-.118.414-.108.62.054.925-.104 1.345.002.16-.018.382.04.417-.102.138.03.2.147.416.1.126.015.242.034.208.21.327-.158.723-.24 1.036-.412.547.1 1 .025 1.553-.106.373-.085.502.236.725 0 .184.095.52.035.625.21.433-.092.57-.127 1.037 0 .246 0 .305-.18.624-.104.257-.016.498-.02.517.204.216-.23.758-.138.933-.415.122.054.236.112.312.21.213-.03.203-.283.413-.31.203-.032.207.137.313.204.133-.18.62 0 .62-.31.25.216.665-.024.935-.103 1.234.303 2.186.02 3.526.31.333.09.32-.164.52-.21.24.002.306.184.62.108.296.083.272-.147.52-.108.154.022.383-.033.414.108.073-.204.577.023.623-.208.284-.075.21.204.418.208.275.07.2-.217.31-.312.173-.03.262.157.518.204.38.075 1.074.015 1.35-.1.236-.028.39.023.414.208.128-.147.506-.047.518-.31.133.14.51.042.518.31.244-.033.19-.362.52-.31.024.123.113.06.21 0 .138-.003.275 0 .413-.003.317-.077.198.285.52.206.61-.078 1.165-.216 1.76-.31.316.073.2.073.52 0 .03.243.492.06.413.416.193-.016.062-.353.21-.417.66-.044 1.326-.12 2.277-.103.23-.02.33.083.312.312.343.004.516.175.934.102.192-.025-.062-.17.103-.204.08-.023.203-.004.205-.106.36-.083.44.194.625 0 .235-.03.39.027.413.21.197-.153.537-.155.62-.415.128.014.236.184.313 0 .356.08.77.118 1.453.103.282-.075.205.205.41.21.27-.15.734-.1.936-.313.196-.023.228.114.417.1.46-.146.725.062 1.347.003.008.283-.173.21-.002.41.306-.085.12-.15.104-.41 1.09.153 1.85.025 3.007 0 .284-.146.44-.325.623-.52.128-.14.206-.344.413-.415.397-.013.5.263.83.314v.31c.328.365.53.854.935 1.142-.016.256-.018.498.103.622.008.913-.262 1.32.21 1.97-.078.446-.135.905-.314 1.243.002.21.002.415.002.623.055.152-.122.536.1.52-.222.567-.04 1.544-.1 2.282-.1.695-.347 1.245-.725 1.658-.635-.012-1.343.29-1.765-.104-.358-.046-.585.04-.83.103-.276 0-.592.04-.726-.103-.314.142-.37-.053-.83-.002-.28-.062-.825.132-.934-.103-.136.144-.45.103-.727.104-.333.044-.563.196-.932.206v-.313c-.386.114-.295-.256-.622-.204-.06 0-.12.08 0 .1a.48.48 0 0 1-.103.312c-.353-.027-.84.08-1.037-.104-.162-.37.354-.06.31-.31.072-.413-.395-.297-.724-.312-.192.018-.064.35-.208.415-.193-.037-.226.103-.412.09zM96.508 123.846c.025.083.004.205.108.21-.024-.08-.004-.206-.108-.21zm1.352 3.733c-.032.03.047.155.1.104.03-.028-.05-.156-.1-.104zm13.06 12.65c-.025.027.05.16.108.102.028-.027-.053-.157-.108-.1zm.833.52c-.03.03.05.157.102.104.032-.03-.047-.16-.102-.104zm1.97-3.63c-.237-.03-.39.022-.417.208.185-.024.522.102.416-.207zm-.104-15.864c-.028.03.05.157.102.102.03-.028-.048-.156-.103-.102zm.83 10.785h.205c.162-.257-.352-.308-.31-.107.062.007.125.013.105.106zm.725 5.286c-.292.082-.268-.148-.52-.106-.048.43.366.273.52.106zm.41-.518c-.026.028.054.158.11.1.025-.025-.05-.157-.11-.1zm.314 3.11c-.058 0-.12.082 0 .103.057 0 .118-.082 0-.103zm.105.934c-.03.026.047.158.103.1.026-.025-.05-.155-.103-.1zm.934-.415c-.28-.03-.346.144-.312.415.37.083.512-.22.31-.415zm-.312-1.97c-.034.028.05.156.1.103.03-.03-.05-.16-.1-.104zm.205-3.215c-.055 0-.12.083-.002.1.062.002.12-.08.003-.1zm1.453-3.112c.09.15.15.33.412.313.26-.123.346-.414.73-.414.22.208.953.348 1.136 0-.136-.105-.203-.28-.31-.42-.798.396-1.57-.042-2.38.21-.332-.05-.438-.326-.832-.31-.043.196-.226.26-.208.52.45.032 1.145.25 1.452.1zm-1.142 8.608c-.027.03.05.157.106.102.027-.028-.05-.156-.106-.102zm.31-5.81c-.028.03.052.158.105.105.026-.026-.052-.156-.105-.104zm1.04 3.216c-.03.03.047.156.1.104.03-.03-.05-.156-.1-.104zm.31-.1c-.06 0-.117.08 0 .1.056-.002.12-.082 0-.1zm2.695.203c-.017-.43-.51-.388-.828-.518-.027.474.44.452.827.517zm-.415-1.035c.15-.302-.465-.302-.313 0h.313zm.207.104c.136.105.384.1.516.206v-.415c-.185.057-.427.053-.516.21-.153.062.01.122 0 0zm.936-5.287c-.197-.206-.382-.034-.623 0-.124.015-.295-.022-.31.102.29.17.826.348.933-.103zm.102 5.182c.075.283-.488-.075-.416.208.05.18.75-.04.416-.208zm0-15.45a3.64 3.64 0 0 1 0-.208c-.256-.16-.307.35-.102.312.003-.064.01-.122.102-.103zm.206 10.577c-.057-.003-.116.083 0 .103.058 0 .114-.085 0-.104zm.518-.31c-.124-.123-.366-.12-.622-.11.016.125-.016.3.104.314-.045-.29.566.08.518-.205zm.418 0c-.114-.007-.266.046-.108.1.112.006.265-.047.108-.1zm.622 5.804c-.292-.166-.288.447-.108.415.037-.143.15-.2.108-.416zm.413-5.493c.6-.187 1.522-.105 1.867 0 .358.107.63.15.933.205.26-.118.346-.413.723-.415.195.083.384.175.624.21.147-.163.53-.092.83-.105.237-.027.39.027.413.21.14-.107.317-.173.416-.314-.52-.247-.518-.137-1.138-.1-.02-.122-.167-.114-.31-.106.003-.144-.054-.227-.107-.31-.394.02-.39.436-.827.416-.342-.17-.397.02-.83-.002-.285-.06-.435-.258-.726-.31-.408.213-1.223.02-1.656.205-.33.052-.366-.185-.73-.103-.002.135-.132.145-.1.31.383-.11.293.257.62.21zm.52 3.627c.376.223.465-.527.103-.415-.144.033-.09.26-.103.415-.31.022.098.43 0 0zm1.24 2.386c-.03.027.052.155.105.103.027-.028-.05-.16-.104-.103zm0-3.526c.024.08.005.205.105.207-.024-.08-.004-.205-.104-.207zm1.245 4.873c-.08-.08-.56.03-.205.207-.05-.085.25-.163.205-.207zm0-2.802c-.086.333.166.325.21.52.18-.093.52-.034.62-.207-.137-.03-.198-.146-.413-.103.11-.262-.224-.59-.312-.31.11.005.08.134-.106.1zm0-3.935c.023.078.002.203.106.205-.025-.08-.004-.205-.106-.205zm1.244 4.144c-.18-.006-.264.08-.31.21.18.003.267-.082.31-.21zm1.973-4.562c.346.002.353-.334.724-.31.244.27.833.204 1.036.52.36-.02.392-.367.73-.414.164.17.43-.096.824 0a.712.712 0 0 1 .313.203c.432-.084.57-.124 1.038 0 .207 0 .132-.28.413-.204.215.24.656.31.936.203.02.186.177.238.41.21.322.078.204-.282.523-.21.01.232.44.048.622.108.09-.2-.167-.148-.21-.207-.082-.118-.035-.29-.102-.414-.51-.115-1.185-.06-1.66-.21-.07.14-.223.19-.417.21-.54-.137-1.805.163-2.488-.11-.736-.056-1.71.127-2.278-.1-.136.246-.673.087-.727.414.095.11.38.033.312.31zm.31 5.29h.205c-.002-.068 0-.14-.002-.208-.06-.006-.122-.016-.1-.104-.067 0-.138-.002-.21 0v.21c.064.002.125.012.107.1zm2.382-18.458c.045.195-.14.627.207.52-.015-.26.057-.433.21-.52-.012-1.252.004-1.853.31-2.8-.27-.014-.21-.346-.207-.622-.028-.303.234-.318.208-.622-.02-.29-.192-.43-.207-.725.153-.02.092-.252.1-.413.087-.122.138-.28.108-.52.054-.402-.186-.506-.107-.934.04-.31.167-.524.313-.724-.527-.502.063-1.5-.413-2.075.16-.212.16-.93-.002-1.14-.458-.045-.77.056-.724.517-.345.386.114.85.104 1.246.04.874-.292 1.364-.21 2.28.078.318-.285.2-.204.52.16.894-.19 2.067-.106 3.213-.012.193-.07.347-.207.414-.02.33.275.35.205.73-.17.168-.08.607-.1.93-.27-.062-.375.044-.314.313.38.105.767.202 1.038.414zm-.724-39.193c.063.006.12.016.1.103 0 .38 0 .762.003 1.142.552-.036.16-1.017.417-1.35-.215-.027-.032-.455-.21-.518-.37-.06-.313.305-.31.622zm0-1.557c.282-.072-.075.49.21.416.213-.252.145-.22.1-.623 0-.102.084-.122.103-.206-.207-.067-.028-.524-.413-.416v.83zm2.177 58.793c-.028.028.05.158.1.103.032-.03-.044-.158-.1-.103zm1.034-17.317v-.828c.143-.103.21-.276.31-.416.29.044.1-.387.313-.416-.06-.646.08-1.09.21-1.558 0-.275 0-.552-.003-.827.094-.182.037-.52.21-.625-.002-.242-.183-.303-.108-.618.2-.57.21-1.08.108-1.765.19-.222.067-.76.103-1.144.098-.43-.05-.508.102-.93-.25-.268-.295-.744-.413-1.14-.085-.025-.205-.004-.21-.104-.404-.06-.602.09-.826.207-.303.51.118 1.175-.106 1.66.197.152.012.68.207.83-.18.23-.05.78-.208 1.035.01.34.296.397.207.83.002.412-.207.623-.208 1.036.265.846-.048 2.262.21 3.112-.12.473-.166 1.012-.312 1.453.104.43.043.318 0 .826.553.026-.004-.457.41-.617zm.108.52c-.06 0-.118.083-.002.103.057.002.12-.085.002-.104zm.102 18.14c-.027.033.05.16.1.105.034-.026-.045-.154-.1-.104zm.622-.62c-.06 0-.118.086 0 .105.06 0 .118-.084 0-.106zm1.97-68.12c-.442-.01-.76-.207-1.14 0a8.06 8.06 0 0 1 0 .31c.383.278 1.105.288 1.14-.31zm-.828 69.262c-.06.002-.118.084 0 .104.055-.002.114-.086 0-.105zm1.345-6.944c-.26-.064-.643-.163-.832.203.144.242.978.402.83-.202zm-.102 7.36c-.032.03.045.157.1.104.03-.03-.048-.16-.1-.104zm.1-3.63c-.026.03.054.157.105.105.03-.03-.047-.157-.104-.104zm.834 1.142c-.106.002-.134.183 0 .208.12-.024.063-.114 0-.208zm1.035-4.563c0-.07 0-.14-.002-.207-.1 0-.207-.002-.31 0v.31c.143.005.23-.048.312-.104zm-.104-15.14l.002 1.04c-.185.195-.08.682-.106 1.036-.076.32.28.2.207.518-.236.176-.246.585-.313.932-.002.146.05.23.104.312.142.007.228-.05.31-.104-.015-.6.198-.934 0-1.45.07-.24.347-.278.416-.52-.227.017-.045-.368-.104-.52-.087-.118-.138-.277-.104-.52-.03-.27.404-.08.313-.413-.21-.273-.017-.95-.21-1.244-.472.012-.37.6-.517.935zm.516-4.56c-.033.24-.2.428 0 .623.438-.014.102-.8.21-1.143-.35-.106-.162.324-.21.52zm.31 21.15c0-.066 0-.14.002-.206h-.207v.204l.205.002zm.21-.622c.024.083.004.203.103.207-.024-.08-.004-.205-.103-.207zm1.036 2.178c-.11-.006-.266.05-.104.104.112.006.266-.05.104-.104zm.21-14.102c.398-.02.763-.006 1.035.104.312-.14.528-.106.724.104.1-.182.195-.364.52-.312.293.156.65.25 1.142.205.402-.457.382-1.343.624-1.97-.122-.854.187-1.48 0-2.18-.004-.24.177-.3.1-.62.048-.354-.037-.58-.1-.828.177-.303.242-.723.205-1.244.047-.197.3-.188.21-.518a2.663 2.663 0 0 1-.21-.833c.197-.998.142-1.648.21-2.69.062-.284.432-.26.413-.623-.232-.082-.042-.586-.103-.832.012-.266.404-.15.412-.414-.23-.11-.038-.653-.1-.933-.267-.08-.48.406-.623.102-.38-.067-.398.227-.725.208-.143-.033-.202-.147-.418-.103-.742.52-2.19-.057-3.004.207-.13.182.04.723.103 1.036-.19.856.028 1.403 0 2.384-.23.872.036 2.25-.312 3.01.138.588-.04 1.14.108 1.865.047.324-.28.272-.313.517.156.02.097.253.104.414v.625c-.018.193-.067.347-.21.415.163.546-.034.984.21 1.554-.142.136-.103.45-.103.725-.124.02-.116.166-.106.31-.13.044-.214.137-.205.313v.21c.32.12.25-.165.412-.21zm.826 13.79c-.195.1-.346-.31-.413-.002.184.09.32.35.412.002zm.518-12.958c.002-.104 0-.21 0-.313-.185-.012-.238.104-.21.313h.21zm.313 12.752c.01.116-.15.16 0 .204.104 0 .13-.178 0-.204zm1.142 3.733c-.213-.09-.465.27-.21.31.025-.145.174-.173.21-.31zm.413-16.796c-.282-.07-.2.213-.312.312.227.017.332-.09.312-.312zm.21 16.59c-.035.026.046.156.1.103.027-.03-.052-.158-.1-.102zm.62-2.488c-.06 0-.117.083 0 .1.054.002.12-.083 0-.1zm.934 2.384c-.063-.008-.122-.016-.108-.104-.126.01-.242.03-.203.21.123-.02.296.014.312-.106zm.203.206c-.026.03.053.158.106.104.03-.028-.048-.156-.105-.104zm1.455-30.068c-.004.34-.173.516-.104.933-.025.376.19.5.205.832-.223-.02-.044.366-.1.517.044.25-.19.225-.103.517.045.494-.152.75-.207 1.144-.045.98-.147 1.58-.102 2.8-.114.194-.134.49-.21.726.084.67-.152 1.02-.103 1.658.077.318-.286.2-.207.52-.075.316.106.378.103.622-.36.225-.066 1.106-.31 1.45.114.23.173.52.31.728.832.1 1.16-.49 1.868-.21.106-.203.18-.44.417-.517-.05-.475-.158-.88-.108-1.45-.016-.33.277-.348.21-.73-.043-.508-.138-.965-.21-1.45-.077-.807.214-1.346-.1-1.867.082-.193.172-.378.206-.622-.203-.142-.057-.632-.207-.83-.004-.243.177-.303.1-.623-.174-.647-.237-1.412-.202-2.278.21-.38.258-.913.414-1.347-.248-.2-.416-.488-.622-.727-.197-.012-.073-.347-.31-.313-.09-.153-.338-.15-.523-.204-.123.28-.227.43-.103.722zm-.724 32.662c-.065-.006-.122-.02-.108-.104-.124.01-.242.03-.203.207.122-.015.29.017.31-.103zm.31-6.222c-.15-.116-.255-.112-.31.104.12-.016.29.02.31-.104zm1.14.933c.085-.46-.183-.575-.517-.623.072-.23-.383-.425-.418-.205.497.09.397.78.933.83zm.414 1.142c-.122-.015-.234-.186-.31 0 .123.013.23.184.31 0zm.83.208c.64.048.777.6 1.14.932-.186.09-.302.33-.52.104-.015.547.62.215.935.21.207-.003.134.282.417.205.264-.37-.362-.558-.52-.83.057-.254.4-.22.31-.62-.422-.043-.318.44-.623.52-.24-.334-.05-.456-.31-.728-.552.134-.53-.3-1.036-.21.033-.172-.083-.192-.21-.204.066.276.043.646.21.83.024-.114.205-.07.205-.208zm-.003-1.557c.012.118-.147.163.002.208.103 0 .127-.18-.003-.207zm.624-.104c-.11-.003-.265.05-.103.105.112.002.266-.052.104-.106zm.31-26.647c.093.412.093.52 0 .934.22.023.034.455.21.518-.082.36.152.397.103.723-.19 1.376-.157 3.14 0 4.255-.212.34-.055 1.05-.104 1.554-.062.25-.15.475-.102.828-.063.008-.126.02-.106.106.136 0 .095.183.21.206.054 1.023-.23 1.744.206 2.387.662-.05.85.018 1.246-.207.108-.52.217-1.095.103-1.556.12-.155.13-.423.31-.518-.143-.457-.01-.533.102-.934-.198-.252-.062-.835-.102-1.244.042-.2.224-.262.208-.52.27.035-.098-.58.31-.414.112-.388-.388-.165-.31-.52.29-.57-.06-1.3-.108-1.866.18-.618.008-1.58.21-2.176-.153-.09-.15-.335-.208-.518.292-.498-.142-1.106.106-1.558-.035-.244-.362-.19-.31-.52.135-.172.27-.347.202-.723-.695.162-1.74-.013-2.176.412.183.382.09.948-.002 1.35zm1.453 30.69c.423.06.333-.427.104-.52.087.295-.145.27-.104.52-.31.023.1.433 0 0zm0-2.28c-.025.03.053.156.104.102.032-.028-.047-.156-.104-.103zm.935 2.488c-.027.03.05.158.103.105.032-.03-.046-.157-.102-.104zm.312.31c-.11-.004-.266.052-.104.106.112.002.26-.048.104-.106zm.207-3.73c-.058-.252-.09-.534-.416-.52.01.305.237.385.417.52zm-.416-21.88c-.028.03.052.156.107.107.026-.03-.052-.157-.106-.108zm.417 23.333c-.18-.01-.27.076-.312.206.16-.01.36.012.312-.207zm1.244-2.49c.1-.376-.41-.146-.62-.21-.152-.052-.266-.152-.417-.205-.033.342-.492-.313-.413.206.61-.058.836.27 1.45.21zm-.31 1.763c.057-.067.422-.313.104-.418-.087.246-.457-.087-.622-.1-.062.06-.246.49 0 .518.087-.304.333.06.52 0zm.104-17.42c-.06-.336.07-.48.103-.726-.06-.217.128-.684-.103-.727-.035.515-.41 1.078 0 1.454zm-.002-10.678c.153.087.15.333.21.518-.05.325.184.366.1.727-.21 1.015-.193 1.453-.1 2.49-.11.235-.066.62-.208.825.285.286-.095.434-.104.73.183.094.23.322.205.62.085.357-.15.397-.1.725.01.427.02.852-.105 1.142.3.146-.132 1.03.312 1.037-.002-.35.144-.547.312-.727-.15-.332-.098-.868-.107-1.35.04-.146.127-.172.002-.31.184-.023.235-.18.205-.414-.06-.38-.173-.9-.1-1.346.038-.26.2-.415.204-.622-.155-.02-.098-.254-.105-.417-.223.02-.046-.366-.1-.517.18-.448.302-1.04 0-1.454.222.018.046-.366.1-.517.215-.03.1-.388.313-.415.04-.252-.19-.225-.103-.52.287-.056.187-.498.312-.725 0-.242 0-.484.002-.725-.23-.256-.386-.59-.73-.727-.158.64-.22 1.374-.418 1.973zm.624 32.247c.11-.265-.353-.46-.415-.21.164.046.09.327.416.21zm.103-3.63c.026-.16.173-.02.208.103v.31c.275 0 .607.057.62-.205-.15-.232-.25.13-.31-.104-.018-.295.31-.245.31-.52-.32.077-.2-.285-.52-.208-.154.12-.25.3-.515.31-.006-.102-.186-.13-.21 0 .214.032.205.282.416.312zm-.207.208c.018.076 0 .202.103.204-.025-.08-.004-.204-.103-.204zm.514 2.695c-.26-.018-.32.16-.41.31.27.03.44-.037.41-.31zm1.246-.31c.075-.387-.16-.46-.516-.416-.002.104 0 .208 0 .31.29-.084.266.146.516.105zm.108-21.257c-.265.113-.265.617 0 .728.23-.323-.013-1.114.205-1.455-.423-.098-.36.564-.204.728zm.205-4.25c-.15.334-.1.87-.103 1.347-.082.403-.324.647-.31 1.142a.5.5 0 0 0 .1.31c.15.038.177.123.312 0 .236-1.133.15-2.187.31-3.523.014-.166.266-.085.21-.313-.144-.202-.1-.593-.21-.83-.058-.213.132-.68-.1-.724-.173.76-.227 1.637-.21 2.59zm-.204 3.006c-.03.03.046.158.1.104.03-.03-.05-.16-.1-.104zm.205-9.953c-.027.21-.128.555-.104.723.04.293.295.482.314.727-.213.03-.21.28-.312.417.08.02.12.087.1.207.003.343.003.69.003 1.035-.043.25.19.227.106.52.024.184-.105.517.204.416-.067-.69.175-1.077.312-1.558-.205-.372.047-.553-.002-1.037a6.36 6.36 0 0 0-.203-.727c.144-.13.064-.488.206-.622-.09-.376.186-.55 0-.723h-.516c-.152.16-.073.385-.105.623zm.31 30.692c-.042-.29.385-.1.418-.312-.33.05-.366-.188-.73-.106-.014.262.163.327.31.418zm.208-21.466c-.227-.02-.33.086-.31.31.225.02.33-.082.31-.31zm.31 22.293c.026.08.005.203.105.205-.024-.077-.002-.203-.104-.205zm.313-1.14c-.11-.004-.264.047-.102.103.005.11.13.083.102-.103zm1.97-31.21c-.063-.152-.126.01 0 0 .014.458-.253-.01-.52.103-.21.382-.158.386-.205.93-.206.005-.133.283-.412.21.043.215-.075.275-.107.414.265.113.364-.445.522-.104.1.59-.296 1.103 0 1.558-.21.102-.447.177-.522.415.317.028.195.434 0 .517-.053.366.37.256.313.62-.175.447-.08 1.135-.313 1.558.002.347 0 .69 0 1.036 0 .21-.283.135-.202.418.033.41.397 1 0 1.242-.052.327.315.232.204.622-.137.45-.047.66-.002 1.14-.32.562-.234.945-.204 1.765-.093.186-.29.262-.207.622.19.013.344.066.41.204.463-.15.536.075 1.036.106.198-.22.514-.323.83-.416.25-1.155.39-2.195.212-3.422-.08-.318.283-.198.204-.518-.002-.31-.002-.622 0-.934.136-.173.274-.346.21-.727.178-.027.235-.18.207-.417.087-.33-.168-.32-.21-.514.143-.034.088-.262.104-.418-.002-.204-.28-.13-.205-.413.253-.146.18-.357.102-.62.202-.074.275-.278.31-.52-.083-.533.145-.756.104-1.244.058-.23-.197-.15-.205-.31.325.046.29-.263.415-.417-.252-.06-.23-.395-.31-.623.034-.66-.105-1.14-.212-1.657-.403-.113-.967-.07-1.347-.208zm-1.038 33.8c-.175-.005-.266.08-.31.21.178.004.263-.083.31-.21zm.623-2.8c-.085-.357.195-.436 0-.62a.535.535 0 0 0 .313-.312c-.727 0-.732.722-.83 1.35.39.075.228-.396.518-.418zm.207.313c-.075.283.21.21.206.415-.15.088-.146.334-.206.52.012.386.116.295-.002.622.108.1.215.204.313.31-.058 0-.115.084 0 .104v.415c.314-.038.215.34.31.522.336.093.147-.34.42-.313.022.082 0 .206.1.208.024-.443-.34-.422-.1-.83-.136-.143-.51-.044-.523-.31.056-.154.155-.263.21-.418-.12-.014-.297.02-.312-.1.044-.133.135-.216.312-.21-.058-.405.09-.604.204-.828-.207-.17-.42-.337-.723-.418.007.18-.08.268-.21.312zm.312-2.59c-.06 0-.116.08 0 .1.057 0 .114-.08 0-.1zM163.907 5.02c-.027.028.048.155.102.104.027-.027-.05-.16-.102-.103zm.31 134.587c-.027.027.05.158.104.103.028-.027-.052-.157-.104-.103zm.827-28.824c-.053-.002-.112.08.002.1.058 0 .118-.08-.002-.1zm.833-3.422c-.083.19-.173.377-.21.623.022.585-.18.85 0 1.347-.172.014-.062.258-.102.413-.062.256-.094.242-.21.418.26.015.033.352 0 .414.392.13.088.95.42 1.14-.284-.074.07.49-.21.416.043.25-.19.223-.104.518v1.868c-.105.377-.328.64-.416 1.036.153.018.1.25.104.413-.042.252.19.227.103.52-.056.82-.02 1.07 0 1.97-.188.663.012 1.103-.1 1.764.52-.084 1.055-.166 1.555-.003 0-.343.586-.106.723-.31.136-.36.182-.665.21-1.037.033-.465.152-.715.204-1.142.077-.58.04-.804 0-1.14 0-.007.128-.005.108-.103-.008-.036-.1.002-.108-.104-.014-.293.018-.564 0-.828.09-.262.138-.558.106-.934.002-.204.285-.132.205-.413.076-.32-.178-.308-.104-.622.165-.15.22-.408.21-.73-.175-.04.02-.13.002-.31.03-.138.145-.196.103-.413-.224-1.567.09-3.333-.103-4.77-.382.032-.917-.09-1.142.1-.016-.19-.353-.06-.413-.203-.07-.14-.225-.193-.418-.21-.026.214-.276.208-.412.314zm-.624 30.792c-.027.032.053.158.104.106.03-.03-.047-.156-.104-.106zm.413 2.077c-.108-.005-.258.047-.1.1.007.112.134.085.1-.1zm.21-1.456v-.204h-.21c.002.066 0 .14 0 .206.073 0 .144 0 .21-.002zm0-3.212c-.005.134-.133.146-.103.313.255.16.302-.354.104-.313zm.623 3.524c.12.317.55-.11 0 0v-.207h-.312c-.048.224.15.2.312.206zm.414-1.033c-.03.027.05.157.104.102.027-.028-.05-.158-.104-.102zm.728 3.628c.09-.332-.163-.323-.312-.414.044.2.034.447.312.415zm.102-6.223c-.197.023-.23-.114-.414-.104v.313c.234.03.39-.023.414-.21zm.414 4.357c0-.07 0-.14-.002-.207h-.203c0 .07-.002.138 0 .205l.205.002zm0-1.66c-.028.027.05.158.104.103.03-.028-.05-.155-.104-.103zm0-2.59c-.028.026.05.154.104.102.03-.027-.05-.157-.104-.103zm.208.102c-.027.027.052.157.1.104.034-.03-.046-.16-.1-.104zm1.656-24.367c-.138.586-.215 1.23-.31 1.865.244.664.01 1.55-.102 2.178.03.142.143.2.102.416-.113.313.067.786 0 1.346-.043.196-.223.262-.205.52-.012.32.327.297.205.727.09.43-.203.488-.205.827.102.256.03.222.104.624.27.256.384-.223.726-.207.402.057.6-.09.83-.21.08-.87.033-2.07.31-3.005-.1-.77-.142-1.643.21-2.385-.373-.252-.096-1.15-.42-1.453.23-.012.05-.437.107-.624-.02-.194.116-.227.102-.41-.072-.415-.074-.42 0-.83-.14-.205-.096-.595-.208-.83-.01-.298.062-.68-.1-.832.167.002.056-.287.206-.31-.158-.6-.04-.896.002-1.555-.382.035-.92-.087-1.145.104-.14.132-.102.45-.098.727-.203.215-.337.494-.42.827-.055.37.37.255.31.623-.165.335-.046.562.002.935-.032.244-.36.193-.312.52.155.088.403.08.31.41zm1.453 27.27c-.15.016-.38-.038-.412.104.26.013.324.197.412-.104zm-.31 2.696c-.026.03.05.157.102.103.033-.032-.048-.158-.103-.104zm.415.102v-.207c-.067 0-.14.003-.207 0l.002.21.205-.002zm1.553-33.385a17.757 17.757 0 0 0-.514 1.866c.145.02.173.17.31.206-.008.142.048.227.102.31.018.417.143.413.208.93-.136.67-.218 1.87.104 2.388-.3.05.09.783-.21.832.16.313-.03.402.107.62-.005.317-.062.682.313.623.236-.214.033-.863.1-1.246.176 0 .348.002.522 0-.026-.427-.575-.322-.522-.828-.074-.317.18-.308.105-.625.004-.447.035-.932-.104-1.24.23-.046.042-.513.104-.728.19-.183-.083-.262 0-.62.004-.138.18-.095.208-.208-.335.092-.146-.34-.312-.414.032-.24-.016-.4-.102-.52.195-.25.062-.833.1-1.244-.04-.197-.224-.26-.208-.52.05-.197.3-.186.208-.517-.135-.15-.584-.15-.723 0-.1.474.26.5.203.933zm-.31 32.765c.35.314.316-.385 0 0zm.83-21.463c.31-.412-.054-.867-.103-1.245.082-.364.31-.59.415-.933-.09-.294.146-.268.103-.52-.23-.15-.205-.556-.516-.623-.162.19-.27.308-.312.622-.045.31.036.595.103.83-.244.206-.213.687-.21 1.14-.042.198-.294.188-.204.52.224.084.35.27.722.21zm-.31 19.18v.21c-.027.566.29-.23 0-.21zm.623 1.97c-.258-.014-.504-.02-.52.21.158.164.59.152.52-.21zm.1-3.005c-.027.028.053.158.108.1.026-.025-.05-.157-.108-.1zm.313.205c-.11-.004-.267.05-.105.106.006.11.134.082.104-.105zm.308 2.906c-.054 0-.118.084.002.104.06 0 .12-.085-.002-.103zm.21-2.177c.162-.256-.353-.305-.31-.104a.475.475 0 0 1 .31.103zm.724-27.48c-.106.658.033.98 0 1.767-.286.486-.01.896-.31 1.347-.126.02-.064.114 0 .21.027.21.46.022.418.31-.095.52.023.693 0 1.346-.044.27-.313.312-.312.62.205.14.23.464.312.728.043.358-.044.584-.108.832-.042.248.19.225.108.517.023.184-.106.52.205.416.303-.112.113-.72.417-.83.047-.33-.32-.235-.21-.625-.08-.974.135-1.658.102-2.588-.058-.22-.256-.296-.205-.624.056-.358.274-.552.312-.932-.182-.514-.13-1.252-.312-1.764.114-.195.13-.488.205-.727-.345-.24-.027-1.145-.624-1.14-.32.335-.024.634.002 1.14zm-.205 25.614c-.058 0-.118.082.002.103.055 0 .11-.083-.003-.103zm0-29.345c.083.36-.155.397-.104.727.146.024.118.226.21.31-.01.48.046 1.015-.105 1.35.315.074.38-.106.622-.106.073-.556-.08-.886-.207-1.243v-.827c-.012-.266-.02-.538-.31-.52-.238.057.124.16-.106.31zm.52 31.833c-.03.027.05.155.103.103.028-.027-.05-.16-.104-.103zm2.693-19.804c.104-.438.186-1.134 0-1.557.148-.132.046-.506.313-.518.012-.32-.33-.294-.21-.727.115-.268.375-.382.417-.725-.1-.312-.21-.616-.312-.936.124-.438.124-.903.002-1.345.06-.22.256-.295.205-.622.072-.317-.178-.305-.103-.622.122-.796-.147-1.918.103-2.8-.34-.91.136-1.76.207-2.59-.225-.177-.637.13-.932.203a.393.393 0 0 0-.52.003c-.294.51.1 1.113.206 1.556.046.842.046 1.088.104 1.863-.112.375-.126.84-.31 1.14.327.156.123.846.308 1.145-.03.138-.146.197-.1.413-.063.187.303.43-.003.522.044.194.227.258.21.514-.154.02-.098.254-.105.42-.138.066-.194.22-.205.41-.078.32.176.306.1.625-.135.172-.272.348-.205.726.053.293.252.44.31.725.063.38.053.42.107.936-.146.026-.12.23-.21.31-.228-.018-.33.087-.312.312.423.096.56.483.935.623zm-.622-76.832c-.025.026.052.158.104.103.028-.027-.05-.157-.104-.102zm.622 97.26c.015.113-.147.16.002.206.102-.002.128-.183-.002-.207zm.83.206c.034-.14.148-.2.104-.416-.388.12-.473-.1-.62.21.253-.016.32.162.517.206zM179.357 5.02c-.293-.015-.3.253-.312.517.322.048.333-.22.312-.516zm.31 130.75c.313-.02-.097-.43 0 0-.147.065.014.126 0 0zm.002 3.215c-.027.027.05.157.106.103.028-.027-.05-.157-.106-.103zm.106 2.074c-.03.028.047.154.103.102.027-.028-.052-.156-.103-.103zm.725-3.216c.098.192-.313.347-.003.413.033-.065.258-.398.002-.413zm.203-27.892c.32.023.178.516.21.83-.04.267-.31.31-.312.623.49.65.044 1.65-.102 2.28.146.023.173.17.31.208.003 1.067-.19 1.906 0 2.902.03.304-.235.32-.21.622.276-.033-.092.58.313.412.228-.013.042-.44.104-.622.016-.256.016-.498-.103-.622.228-.116.01-.685.313-.726-.142-.585-.254-1.2-.21-1.97.12-.194.133-.49.208-.727-.015-.67.18-.998.003-1.555.03-.21.277-.2.31-.414-.308-.177-.257-.713-.412-1.035.032-.247.357-.194.312-.522-.252-.06-.232-.392-.31-.624.184-.3.193-.766.31-1.138-.314-.128.15-.397-.105-.518-.32.074-.2-.286-.52-.21-.13 1.074.287 2.08-.104 2.804zm.207 27.58c.002-.066.002-.14.002-.206h-.21v.206c.072-.002.144 0 .208 0zm.416-.206c.252-.063.474-.148.83-.104.095-.335-.338-.147-.413-.312-.043.13-.134.21-.313.21v-.313c-.19.014-.344.067-.415.207.28-.07.2.215.31.312zm.417 3.94c.006.118-.15.16 0 .21.103-.005.128-.185 0-.21zm1.035-3.736c.013.118-.15.16 0 .21.107 0 .128-.18 0-.21zm.623-54.33c-.125-.147-.353-.194-.624-.206.002.138.002.273.002.413.255.083.6.178.623-.208zm-.103 57.13c.002-.1 0-.205.002-.31-.19-.01-.245.103-.212.31.07.002.138.002.21 0zm.31-4.25c-.15-.162-.463-.115-.415.208.235.03.39-.025.415-.207zm.624 3.734c-.003-.34-.296-.397-.62-.416-.003.104 0 .21 0 .312.214.138.307-.05.62.104zm-.52-3.528c-.027.03.054.157.104.106.03-.03-.046-.16-.104-.106zm.415 5.187c.034-.244.36-.19.31-.52-.246-.04-.223.19-.514.105-.032.237.024.388.205.415zm.21-1.143c-.017-.15.034-.38-.105-.41-.02.078-.086.12-.206.102-.002.07-.002.138 0 .208.13.003.145.13.31.1zm-.106-2.178c-.03.032.047.16.103.106.028-.03-.05-.156-.104-.106zm.518-28.72c-.148.82-.152 1.784-.312 2.596-.047.725-.035 1.327.106 2.07-.06.218-.262.3-.21.62-.052.33.318.24.21.625-.386.622-.353 1.21-.106 1.866-.043.198-.295.188-.205.518.08.025.204.004.204.104 0 .208 0 .413.002.622.457.144.642.03.934-.207.023-.08.002-.207.104-.21-.007-.37-.16-.596-.21-.932.206-.215.08-.69 0-.932.062-.217.257-.295.21-.622a2.767 2.767 0 0 1 .204-1.657c-.225-.016-.22-.264-.202-.52.082-.194.17-.38.204-.622.036-.243.362-.192.312-.52-.147-.198-.27-.417-.313-.724.053-1.024.082-1.585 0-2.594.084-.344.56-.688.31-1.035.022-.293-.635.085-.62-.207-.334.06-.48-.07-.726-.104-.024.683.005 1.31.104 1.867zm1.244-26.127c-.384-.074-.827-.218-.936.207.268.215.86.087.936-.207zm-.313 52.154c-.102 0-.13.183 0 .206.127-.02.066-.114 0-.207zm1.868.204c.043-.144.124-.174 0-.31.082-.02.204-.002.208-.103-.114-.024-.16-.112-.208-.207-.143-.004-.225.05-.312.104.095-.242-.707-.062-.312 0 .533.003.012.52.624.517zm-.414 5.81v-.312c-.185-.012-.246.104-.21.313a3.64 3.64 0 0 1 .21 0zm-.105-3.735c.007.117-.154.16 0 .208.104-.002.13-.183 0-.21zm.104 3.11c-.03.028.05.16.103.103.03-.028-.05-.156-.103-.103zm.102-1.865c-.103 0-.132.182-.002.207.128-.02.068-.116.002-.207zm.107-29.033c.305.142.144.75.31 1.036a18.357 18.357 0 0 0-.21 2.8c-.09.29-.245.514-.31.83.03.138.147.197.102.414-.01.124-.184.236.002.31-.002.348 0 .694 0 1.04.063.25.15.474.106.825 0 .33-.343.58-.106.833.02.08.087.12.207.103.027.162.23.073.312 0 .182.008.323-.023.414-.103.208 0 .134.284.417.205.205-.207.47-.354.934-.31a.943.943 0 0 1 .412-.622c-.02-.423-.312-.587-.31-1.04-.027-.402.375-.38.312-.828-.06-.215-.258-.293-.21-.62.11-.682-.038-1.128 0-1.97.18-.408.314-.86.522-1.245-.284.074.072-.488-.21-.414.044-.252-.19-.225-.102-.518-.03-.376.19-.5.21-.83-.39-.404-.05-1.082-.21-1.557-.185-.19-.638-.123-.725-.412-.567.077-1.13-.27-1.456-.104-.192.67-.05 1.678-.41 2.178zm0 27.892c.023.08 0 .203.103.21-.026-.082-.005-.206-.103-.21zm.1 3.213c-.028.03.05.157.104.106.03-.03-.047-.157-.104-.106zm.622-3.004c-.087-.33-.302-.528-.518-.727v1.035c.385.112.333-.215.518-.307zm-.207-1.765c-.006.134-.132.144-.103.312.255.16.305-.35.103-.312zm.312-.413c.386-.223.79.187.93-.312-.57.056-.63-.403-1.24-.312.007.183-.026.324-.104.413.06.147.398.02.414.212zm.106-16.488c.04.095.09.186.202.21.07.146.128-.015 0 0 .043-.178-.076-.2-.202-.21.108-.485-.49.114 0 0zm-.002 22.398c-.032.027.047.155.104.1.026-.025-.05-.156-.104-.1zm.724-1.556c-.06-.01-.12-.017-.102-.105-.124.01-.246.03-.21.205.126-.014.298.022.312-.1zm.416-1.973c-.027.03.05.157.106.106.028-.03-.05-.157-.106-.106zm.31-105.14c-.028.032.053.158.107.107.026-.03-.05-.158-.107-.106zm.107 103.793c-.03.03.047.157.104.104.027-.03-.05-.16-.103-.104zm.828 1.143c.03-.242.225-.447-.103-.522-.023.084-.086.125-.208.107-.018.26.162.323.31.416zm.83.723c-.265.015-.402.152-.415.416.325.05.463-.088.414-.416zm.412 1.66c.168-.29-.442-.284-.413-.103.144.032.197.148.413.104zm-.202-.83c-.108 0-.135.183 0 .208.122-.02.063-.116 0-.207zm.102-29.24c.063.25.15.474.103.83.028.302-.232.32-.206.62.246.26 0 .612 0 .936-.073.316.18.303.104.622-.298 1.354-.073 2.747 0 4.355.407.233.754-.113 1.144.102.15-.44.15-1.323 0-1.763.167-.003.055-.288.204-.312-.023-.197.118-.23.106-.416-.338-.347-.194-1.062.103-1.347-.244-.035-.448-.106-.52-.31.083-.535-.112-.79-.205-1.144a72.54 72.54 0 0 1 0-.932c.083-.195.174-.38.205-.62-.093-.507.142-.688.21-1.038-.033-.142-.15-.2-.104-.413.146-.327.397-.66.204-1.038-.342-.267-.826.013-1.244 0-.217.668.02 1.16-.103 1.865zm-.21-68.848c.03.354.266.5.208.93.108.063.257.105.312.212.053.1-.047.308.104.312.083-.193.173-.38.207-.623-.105-.14-.1-.385-.206-.52v-.416c-.244-.1-.09-.597-.313-.723-.09.288-.246.512-.31.828zm.417-1.037c.203-.255.14-.904-.207-.935-.018.4.002.76.207.936zm-.107-1.14c-.025.03.054.157.106.106.03-.03-.048-.158-.106-.106zm.73 95.186c-.03.03.047.157.104.104.027-.027-.053-.157-.103-.104zm.623 3.527c.018.308.428-.1 0 0-.033-.41-.456.02 0 0zm1.243 3.317c.025-.27.533-.498.102-.622-.045.63-.828-.09-.933.518.242.287.345.064.83.104zm-.726-4.667c-.028.028.05.158.104.104.03-.03-.052-.157-.104-.104zm1.244.207c-.056-.52-.74-.21-.934 0 .312-.002.62 0 .934 0zm-.518 1.765c-.004.167-.288.057-.31.206.23.17.572-.013.31-.205zm-.21-1.245c-.026.028.054.158.105.103.03-.028-.046-.16-.103-.103zm.728 3.733c-.11-.006-.266.047-.104.103.11.004.265-.047.104-.103zm.728-1.35c-.03.03.047.158.103.105.027-.03-.052-.156-.103-.106zm.93 1.244c.027-.147.173-.175.206-.31h-.203c-.008-.064-.016-.125-.105-.103.004.242-.178.307-.103.622.126-.012.244-.032.206-.21zm-.205-2.072c-.028.027.05.157.103.1.025-.024-.054-.156-.103-.1zm.724-18.456c-.11-.27.45-.363.105-.52-.14.286-.562.207-.83.103v.414c.242.002.484 0 .726.002zm-.62 18.246c-.03.028.05.158.103.103.03-.028-.05-.156-.104-.104zm.62 2.8c-.177-.004-.264.08-.31.21.163-.013.362.013.31-.21zm0-4.354c.024.082.003.204.107.208-.026-.08-.004-.204-.108-.208zm.31-1.245c.153-.3-.465-.3-.31 0h.31zm.108.83c-.06 0-.118.082 0 .104.054-.002.115-.082 0-.102zm0-.312c-.03.03.047.16.103.104.028-.03-.05-.16-.102-.105zm.204-.414c-.025.03.05.157.108.105.027-.03-.054-.157-.108-.104zm.108-14.516c-.06 0-.12.085 0 .104.053 0 .112-.086 0-.104zm0 18.975c-.032.028.047.158.102.103.028-.028-.05-.157-.102-.104zm1.345-2.487c-.145.008-.116-.304-.207-.104-.146.024-.173.17-.312.203-.043-.227-.566-.098-.52.104.43.012.847.02 1.04-.204zm-.416 1.866v-.21l-.205-.002c0 .073 0 .14-.002.21h.206zm1.14-3.943c-.064-.06-.493-.244-.52-.002.186-.06.434.307.52.002zm.52 1.142c-.06 0-.12.08 0 .102.053 0 .12-.085 0-.103zm.31.31c.01.114-.148.162 0 .207.104-.002.132-.183 0-.207zm.726 1.658c-.102.002-.132.182 0 .21.08-.433.252-.123.52-.313.044-.25-.188-.227-.105-.52-.14-.004-.224.05-.31.104 0-.31-.49-.133-.623-.313-.004.132-.13.144-.104.31.342.04.448.312.623.52zm-.102 1.242c-.002-.066 0-.136 0-.205h-.21v.205c.072.002.14.002.21 0zm.62-22.6c-.058 0-.118.082.002.102.055-.002.117-.085-.002-.103zm.518 21.358c-.063-.03-.4-.256-.414-.002.06.03.398.262.414.002zm1.244-.934c-.055 0-.118.085 0 .103.058 0 .118-.085 0-.103zm.52-1.14c-.212-.048-.22.14-.312.208-.07.055-.396.09-.312.31.025.084.006.204.104.208.1-.316.508-.324.52-.725zm-.21.934c-.012.124-.186.233 0 .31.017-.12.186-.234 0-.31zm.108 2.073c-.032.028.045.158.102.105.028-.03-.053-.157-.102-.104zm.31-1.244c-.032.03.048.156.104.103.025-.028-.053-.156-.103-.104zm.31-1.246c-.11-.004-.263.05-.104.106.11.007.263-.048.104-.106zm.518-20.112c-.29-.165-.283.447-.103.414.03-.14.145-.2.102-.414zm.308.414c-.025.03.052.157.108.104.028-.032-.05-.158-.108-.104zm.936 18.87c-.055 0-.118.086-.002.105.062 0 .118-.085.002-.104zm-.002.624c-.025.03.05.157.108.104.028-.032-.053-.158-.108-.104zm0-17.835c.025.082.004.206.108.208-.025-.08-.005-.205-.108-.207zm.312-27.58c-.026.03.053.154.107.105.026-.03-.05-.157-.107-.104zm.832 45.622c.08-.46-.342-.417-.52-.622-.014.394.205.56.52.622zm.414-15.136c.008-.18-.08-.268-.205-.312-.008.178.08.265.205.312zm.106-.832c-.032.027.045.158.103.103.026-.027-.05-.155-.102-.103zm.62-29.757c.152-.065-.01-.126 0 0-.153.063.01.126 0 0zm0 28.72c-.03.03.047.16.104.104.028-.026-.05-.156-.104-.103zm1.556.415c-.104.002-.135.18 0 .21-.01-.12.15-.162 0-.21zm.934 19.597c-.03.028.048.158.103.103.028-.028-.05-.157-.102-.104zm.103-18.976a3.64 3.64 0 0 0 0 .21c-.028.565.29-.23 0-.21zm.52-.624c-.385-.07-.26.366-.416.52.385.073.46-.163.417-.52zm.31 1.247c-.234-.027-.39.026-.416.21.193-.02.345-.073.416-.21zm.105-1.66c-.124-.014-.236-.184-.313 0 .123.018.237.187.313 0zm.828 2.178c-.266.014-.533.02-.518.312.264-.013.532-.02.518-.312zm1.245-.414c-.104 0-.126-.083-.207-.103 0 .104-.082.124-.102.21.12-.017.292.014.31-.106zm3.42 0c-.13-.143-.508-.16-.516.105.13.142.508.16.516-.104zm0 13.998c-.056 0-.116.085-.002.104.06.003.118-.084.002-.104zm4.666-13.063v-.21c-.138.003-.275 0-.413.003v.205c.138.002.276 0 .414.002zm2.594.517c.166-.287-.45-.287-.42-.103.198-.024.23.116.42.102zm.312.416c.126.01.244.03.203.206.4.052.65-.043.73-.31-.25-.237-.57-.4-1.04-.417-.04.25.19.227.107.52zm1.76-30.693v-.207c-.256-.16-.303.353-.103.313.005-.062.015-.123.103-.105zm.52 28.93h.206c.164-.255-.353-.305-.31-.103.064.005.122.015.104.104zm5.288-.933c-.027.028.05.158.1.103.03-.03-.05-.158-.1-.103zm.1-13.688c-.026.027.054.157.107.104.03-.028-.05-.158-.106-.104zm.42 28.2v-.203h-.208v.207c.066-.002.138 0 .208-.002zm.1-31.412c.002-.104.085-.126.104-.21-.16.01-.36-.015-.313.21h.208zm.314-7.778c-.03.027.05.157.102.103.026-.03-.05-.158-.102-.103zm0-1.866c-.028.027.05.157.1.102.028-.028-.05-.156-.1-.102zm.31 1.453c-.024-.196.117-.23.103-.417-.306-.03-.4.404-.104.418zm.312-1.04c.023.084.004.206.1.21-.022-.08-.003-.205-.1-.21z"/><g fill-rule="evenodd" clip-rule="evenodd" fill="#D72251"><path d="M187.02 31.316c.096.01.095-.076.11-.146.132.012.145.145.326.11.085.047.07.196.11.29.187.055.247.236.435.29.11 0 .124-.095.22-.108.087.022.165.053.29.036.064.06-.032.122 0 .254.104-.094.225.017.363 0 .03-.08.094-.123.072-.254.002-.07.1-.046.073-.146.13.01.25.01.218-.146.22.12.323-.086.546-.07.006-.13.128-.14.145-.257.064-.005.077.044.146.036-.002-.062.027-.094.072-.11-.028-.032-.04-.08-.036-.145-.033-.114.12-.048.108-.144.002-.062-.027-.094-.073-.11-.03-.027-.02-.098-.072-.107v-.22c-.053-.056-.092-.126-.182-.145v-.146c-.074-.022-.117-.077-.18-.11.01-.096-.143-.027-.11-.145-.154-.02-.24.025-.363.035-.198-.054-.358-.148-.58-.18a.18.18 0 0 1-.11-.11c-.004-.07-.12-.024-.108-.108a.375.375 0 0 1-.22-.11.233.233 0 0 1-.182.037c-.01.073-.073.096-.11.144-.233-.04-.252.134-.47.11-.096.11-.16.253-.292.326.006.09-.02.15-.073.182-.015.076.025.097.037.145-.008.057-.14.17-.037.22-.008.04-.07.024-.07.072.01.246-.186.534-.002.726zM172.3 30.043c.02-.018-.024-.045-.034-.035-.02.017.026.045.035.035zM172.447 30.117c.008.176-.15.19-.146.362.163.02.284.08.365.182.11-.026.134.037.218.035.072.1.242.098.29.22.1-.08.005-.27-.035-.328.06-.114.045.144.183.072.02-.18-.115-.2-.22-.256-.012-.17.064-.205-.035-.29-.115-.03-.11.058-.182.072-.136-.09-.237-.12-.436-.07zM177.86 35.64c-.06-.014-.065.03-.07.073-.097-.01-.157.013-.147.11h.218v-.183zM177.135 35.932c-.105.005-.176.232 0 .218v-.218zM177.026 36.44c.095-.06.218.054.327-.037.043-.15-.153-.065-.182-.146-.104.005-.172.047-.144.182zM183.75 39.02c-.008-.04-.038-.02-.036 0 .005.042.035.02.035 0zM183.932 39.165h-.074v.073h.074v-.073zM183.967 39.53c.015-.07-.166-.055-.11.034h.075c-.007-.03.012-.034.035-.035zM182.695 39.53c-.084.01-.17.022-.146.144.113.016.16-.03.145-.145zM183.168 39.747c-.133-.023-.194.023-.255.072.007.103-.03.248.072.254-.017.113.052.143.074.218.143.012.096-.168.217-.182-.058-.1-.052-.263-.11-.363zM184.04 40.11c-.14-.007-.21.058-.218.182.116.097.278.01.217-.182zM181.822 40.146c-.02-.055-.038 0-.037.038.067.008.076-.036.037-.038zM183.35 40.328c-.04.117-.105.21-.147.327-.21.03-.35.133-.508.218.01.06-.035.062-.036.11.012.083.043.15.07.217.015.087-.164-.02-.107.11.06.062.12-.033.254 0-.006-.044.052-.02.073-.037.062-.053.09-.154.218-.146.106.032-.022.117 0 .183.077.017.07-.053.072-.11.118-.02.17.026.254.037.037-.05.034-.136.11-.146.064.042.09.2.18.11.02-.114-.045-.148-.107-.182.055-.055.064-.153.146-.182-.005-.068-.12-.025-.108-.108-.007-.114.092-.126.18-.146v-.218c-.075-.016-.096.024-.145.037-.118-.08-.224-.14-.4-.072zM184.04 40.582c-.135-.033-.066.19-.037.218.1 0 .087-.17.036-.218zM178.48 40.8c-.004.065.043.077.035.146.114.017.163-.03.146-.146-.09-.004-.112-.068-.18 0zM177.463 41.09c-.117-.03-.05.12-.146.11v.327c.072.025.097.097.11.183.136-.04.103.09.217.07.052.044.07.095.11.147.03.04.103.07.107.145.113.026.07-.1.184-.073.117-.022.17.024.254.037.017-.033.032-.066.07-.073.032-.104-.048-.094-.032-.183-.005-.057.016-.137-.038-.144-.026-.112.1-.07.07-.183-.085-.102-.132-.036-.288-.036-.17-.01-.172-.26-.363-.145-.043-.007-.03-.066-.037-.11-.064-.032-.18-.01-.217-.07zM177.135 41.2c.02-.02-.025-.047-.036-.036-.02.02.025.046.035.036zM176.7 41.164c-.1.14-.265-.09-.4.072.007.127.128.138.145.255.017.076-.315-.103-.29.073.133.013.32-.03.4.037.02.154-.12.147-.11.29.208.047.48.097.69.037v-.364c-.096.01-.12-.05-.108-.146h-.218c-.103-.018-.07-.174-.11-.253zM183.168 41.527c-.096.037-.207.06-.218.183.088.114.237-.17.253.07.1-.055.004-.217-.035-.253zM184.257 47.232c-.104.007-.087.173.038.146.015-.076-.025-.096-.038-.146zM197.704 50.83a.934.934 0 0 1-.364.036c-.098.036-.187.08-.29.11.067.145-.014.3.036.4-.032.062-.088.105-.11.18-.082.087-.182.157-.217.29-.022.144.03.212.07.292-.02.142-.03.15.038.254.026.11-.038.133-.037.22.095.087.174.19.256.29.032-.03.08-.04.146-.037.057.017.03.114.146.073.03-.116-.057-.113-.072-.183-.013-.097.2.034.144-.11.114-.006.268.026.328-.034.113-.018.142.08.22 0 .122-.01.103-.16.216-.182.037.023.038.084.11.073-.015-.06.027-.068.07-.072-.005-.04.01-.064.038-.07-.035-.124-.092-.225-.22-.257v-.144c-.065-.006-.12-.023-.145-.073.007-.03.037-.036.037-.072.01-.093.062.05.146 0 .13-.42-.155-.676-.327-.908-.076-.02-.254.06-.22-.07zM198.25 51.158c.018-.02-.027-.047-.038-.038-.02.02.027.047.037.038zM192.762 51.848c-.017.076.024.097.036.146.105-.007.086-.174-.036-.146zM193.016 51.993a.185.185 0 0 0-.11.108c-.097.005-.072-.06-.144 0-.07.133.01.233.145.257a.49.49 0 0 0 .11-.364zM193.343 52.102c.044.12-.117.028-.072.146-.085 0-.106-.063-.217-.037-.027.1.07.074.07.147.036-.002.03-.046.04-.073h.217c-.003-.18.142-.072.254-.073-.026-.106-.145-.12-.29-.108zM221.07 52.938c-.007-.042-.037-.02-.037 0 .008.04.037.02.037 0zM228.63 53.41c-.115-.017-.117.08-.11.183h.11c.068-.07-.022-.067 0-.183zM229.283 53.447c-.062-.014-.068.027-.07.072-.026.05-.08.066-.147.072-.017.148.033.232.072.326h.255c-.025-.135.062-.155.035-.29-.052-.057-.12-.097-.145-.18zM229.574 54.282c-.017-.053-.033.004-.073 0 .01.046.074.037.074 0zM229.246 54.282c-.08.077-.084.23-.108.364.114-.02.203-.064.29-.108-.026-.112.038-.133.037-.22-.043-.042-.13-.04-.22-.036zM229.03 54.72c.11.134.122-.112 0 0zM224.087 55.154c.02-.018-.026-.045-.037-.035-.02.017.026.044.037.034zM225.576 55.48c-.01-.05-.09-.03-.145-.034.02.08-.07.05-.072.108-.016.044-.046.074-.11.072.002.158.014.327-.035.436.04.07.167.052.22.11.073-.01.07-.1.144-.11.134-.023.14.08.254.073.033-.03.023-.1.074-.11.078.032.06.16.11.22.11-.022.185-.08.18-.22.113.01.207.04.292.074.017.114-.052.142-.072.218-.195-.096-.396.012-.51.108.05.16.006.187-.037.327.087.012.068.126.183.11-.018-.134.23-.044.182-.257.217.012.28-.13.474-.145.09-.197.018-.453-.183-.47.006-.153.013-.305-.073-.365a.55.55 0 0 0-.218.327c-.096-.05-.157-.133-.146-.29-.19-.033-.138.178-.327.145-.143-.015-.1-.215-.292-.182-.01-.092.013-.154.108-.144zM224.014 55.664c.103-.03.094.05.183.036.02-.132-.195-.216-.183-.036z"/><path d="M225.467 56.21c-.055.052-.075.14-.072.253.075.02.118.104.182.036a.945.945 0 0 0-.11-.29zM190.8 56.39c-.006.09.057.113.072.183.04.054.137.057.183.108.267-.117-.066-.532-.256-.29zM185.13 59.442c0-.034-.045-.027-.072-.036 0 .036.044.03.072.036zM217.98 59.516c-.006-.04-.035-.02-.035 0 .007.042.036.02.036 0zM191.38 61.55c-.154.07-.038.37 0 .474h.256c.04-.15.245-.216.145-.4-.194-.04-.31.022-.4-.074zM190.545 62.023c-.022.13.042.175.072.254.006.08-.13.017-.182.036-.037.11.08.064.146.073-.01.157.05.24.147.29-.05.105.1.186 0 .22.01.072.098.07.11.144.003.065-.046.078-.038.146.07 0 .045.1.145.073-.007.08.03.114.11.107.076.007.113-.028.106-.108.086.01.14-.007.183-.037.17-.014.11.204.292.18.037-.124-.167-.192-.038-.29-.002-.093-.14-.05-.145-.145-.02-.08.07-.052.073-.11-.01-.14-.19-.3.07-.362-.022-.058-.22-.195 0-.182 0-.035-.043-.028-.07-.036-.13.02-.09-.128-.22-.11-.008.15-.15.164-.29.184-.063-.033-.06-.134-.145-.146.037-.157-.076-.167-.11-.254h-.145c-.014.03-.03.063-.07.07zM223.578 62.495c.178-.068.138.044.29.073-.02.053.044.188-.036.18.015.083.2.037.182-.034.025-.1-.074-.07-.108-.11.005-.066.122-.02.145-.072.01-.147.138-.18.11-.363-.13-.112-.422-.185-.363.145-.01.123-.237.03-.22.18zM225.213 62.422h-.145c.03.104-.052.096-.037.183.127.005.212-.033.183-.183zM225.358 62.568h-.11c.012.058-.032.062-.035.11.007.03-.014.033-.035.035.014.095.107.108.108.218.063-.032.105-.086.18-.108-.007-.11-.077-.163-.108-.254zM223.65 62.64c0-.034-.045-.027-.072-.035 0 .036.044.03.072.036zM192.435 62.678c.018.175.117.27.327.254.05-.047.036-.157.036-.254-.123-.04-.29-.11-.363 0zM225.104 63.113c-.227-.02-.347.065-.51.11-.003.172.08.257.11.397.153-.014.153-.185.326-.18.006-.153.166-.174.074-.327zM191.89 63.295c-.03.007-.037.037-.073.037.007.028.036.035.036.07.043-.005.03-.065.037-.107zM191.162 63.44c-.02.143.08.16.182.18.013-.07-.007-.11-.073-.107-.015-.044-.045-.075-.108-.073zM223.65 63.513c-.01-.05-.09-.03-.146-.036v.11c.1.025.074-.073.146-.074zM224.85 63.694h-.072v.073h.073v-.073zM224.668 63.73c.02-.018-.026-.046-.036-.036-.02.02.026.047.036.036zM191.27 63.694c-.103-.054-.103.163 0 .11v-.11zM224.16 63.768c-.008-.04-.038-.02-.037 0 .007.042.036.02.036 0zM229.72 64.204c.06.048.12.095.254.07 0-.157.145-.193.072-.326-.04-.03-.096-.047-.182-.035-.063.08-.17.12-.144.29zM224.196 63.948c-.007-.04-.037-.02-.037 0 .006.042.036.022.036 0zM223.25 64.494c-.015.068-.078.092-.072.182.053.054.238.054.29 0-.06-.073-.097-.168-.217-.182zM225.322 64.676h-.073c-.018.077.05.07.108.073-.006-.03-.036-.038-.036-.074zM227.54 64.75c-.054.08-.186.08-.147.253.13.057.022-.123.108-.11.095.01-.05.063 0 .147.078.02.12.104.184.037.005-.164-.133-.183-.145-.328zM227.248 65.147h-.072v.073h.072v-.073zM223.94 65.62c-.007-.04-.035-.02-.035 0 .007.04.036.02.035 0zM223.723 65.62c.01.064.063.084.146.073.035-.11-.082-.063-.147-.072zM175.21 75.47c-.078.03-.11.106-.11.217.05.037.135.034.146.11.098-.08.002-.268-.037-.328zM175.937 77.43c-.002-.033-.046-.026-.073-.035 0 .036.044.028.073.036zM174.446 77.94h-.11v.145c.096.01.12-.05.11-.145zM176.662 78.376c-.03.14.107.112.11.22.24-.05.233.15.435.144.03-.067.062-.133.073-.218-.088-.07-.292-.022-.437-.036.048-.144-.083-.108-.18-.11zM183.06 78.776c-.068-.11-.175.04-.292 0 .046.17.218.09.292 0zM175.28 78.74c-.028.006-.034.036-.07.036.005.03.035.036.035.072.03-.007.036-.036.073-.036-.006-.03-.037-.036-.037-.073zM176.3 78.776c-.14-.018-.233.01-.292.072-.005.09.058.112.073.182.217.042.304-.1.22-.254zM174.337 78.886h-.108v.108h.107v-.108zM182.877 79.32c.03.104-.052.095-.036.182.104.043.154.008.255-.035v-.11c-.044-.04-.128-.04-.218-.036zM176.264 79.502c-.012-.085-.136.005-.146.038-.11-.026-.133.035-.218.035.025.136-.062.156-.036.292a.25.25 0 0 1 .073.108c.042-.007.063.007.07.036.087-.012.15-.043.22-.072.04-.19-.108-.347.037-.436zM176.59 79.648v.29c.184.057.393-.095.51-.218.014-.076-.025-.096-.037-.146-.175-.12-.315.06-.472.074zM182.95 79.938c-.11-.036-.065.08-.073.146-.044.047-.014.057 0 .11.178.037.173-.213.073-.256zM176.626 80.993c.003.05.007.102-.035.108-.027.16.117.15.145.255.076.016.098-.024.146-.035.136.094.383.078.546.145.012-.05.09-.03.146-.036a.5.5 0 0 0 .107-.256.49.49 0 0 0 .108-.254c-.148-.058-.18-.067-.363-.036-.068.124-.22.17-.363.218-.21.03-.226-.138-.436-.11zM170.34 81.21c-.185.022-.4.012-.363.255.196.097.324-.086.363-.254zM175.572 81.283h-.072v.072c.03-.007.033.015.036.036h.073v-.07c-.032.007-.036-.013-.038-.037zM170.45 81.32c.01.084.042.15.07.218.2.077.324-.037.51-.073-.08-.21-.334-.188-.58-.145zM176.3 81.5c.073.074.07-.015.145-.035-.007-.105-.174-.087-.145.036zM176.88 81.574c-.03.104.052.094.037.182h.218c.08.02.052-.07.11-.073-.053-.106-.204-.112-.364-.11zM177.607 81.9c-.188-.005-.307.21-.22.363a.4.4 0 0 0 .256-.18c.03-.104-.05-.095-.036-.182zM169.977 82.01c-.085.152-.1.376.18.327.01-.18.015-.354-.18-.327zM169.795 82.23c-.14-.03-.047.17-.074.253.087.012.142-.006.184-.036.05-.16-.088-.132-.11-.218zM181.785 82.482c.01.127.13.138.146.255-.003.104-.153.062-.145.18-.06.048-.142.077-.145.184.043.006.03.067.037.11h.254c-.005-.092.058-.113.11-.146 0-.062-.026-.094-.072-.11.027-.032.038-.08.036-.145.028-.093.15-.094.218-.147-.006-.09.057-.11.073-.182-.013-.084-.044-.148-.073-.218-.247-.027-.384.053-.437.22zM170.157 82.773c-.112.017-.116-.077-.108-.183-.052.004-.105.007-.11-.035-.078.03-.128.09-.108.218-.114.024-.047.097-.036.182.083.01.137-.01.145-.073.083.01.138-.008.147-.072.122.092.024.188.072.326.148.045.268.12.363.22.154-.027.1-.264.108-.438-.073-.01-.033-.135-.107-.145.084-.09-.037-.177-.037-.29-.028-.03-.1-.022-.11-.073-.058-.01-.06.034-.107.036-.02.123-.204.21-.113.327zM171.757 82.59h-.108c.054.055-.063.308.035.4.085 0 .167-.19.072-.253.042-.053.042-.092 0-.146zM182.188 82.99c-.123-.036-.057.114-.074.184.146.004.096-.094.074-.183zM182.188 83.245c-.02-.055-.04 0-.037.037.065.01.075-.034.038-.037zM182.223 83.318c-.037.072-.09.127-.145.183-.167-.027-.358-.03-.51-.072-.09-.006-.113.055-.145.108-.037.05-.1.072-.11.146a.374.374 0 0 0 .29.29c.127.352-.01.583.074.91.027.11-.1.07-.073.18-.008.13.11.134.11.255.04.08.12.122.145.22h.47c.124-.023.19-.105.365-.073-.038-.093.123-.16.146-.073.045-.016.076-.046.073-.107.135-.035.277-.062.327-.183.006-.138-.148-.117-.22-.18.18-.15-.09-.235-.144-.365.086-.408-.117-.79-.218-1.126-.117-.066-.225-.14-.435-.112zM171.104 83.392c-.107 0-.135.083-.184.145-.096 0-.207-.014-.254.036-.026.1.072.073.073.146.014.13.046.242.072.362.125.028.152-.04.217-.073-.01-.126-.093-.175-.073-.328-.025-.097.075-.07.11-.11-.016-.087.066-.08.037-.18zM180.043 83.646c-.01.12.042.175.145.182.028-.032.04-.082.037-.146-.043-.03-.098-.047-.182-.036zM170.23 83.79c.004.093.007.188.11.183.008-.104.004-.2-.11-.183zM181.06 84.117c.02.164.104.26.29.256.004-.174-.13-.362-.29-.256zM179.824 84.264c-.023.13.075.143.182.145.023-.134-.075-.143-.182-.146zM180.15 84.518c.036.002.03.044.037.073.185.027.28-.036.327-.145-.012-.177-.43-.15-.363.073zM222.56 86.516c-.03.116.058.113.073.183-.037.108.08.063.146.07.042-.193-.074-.365-.22-.254zM218.672 87.025c0 .134.017.25.146.254-.007.127.123.12.146.217.116-.03.11.06.182.073.108 0 .123-.095.22-.108.01-.086.11-.082.143-.146.027-.137-.045-.173-.037-.29-.164-.05-.274-.16-.436-.037-.184.002-.252-.065-.365.035zM221.47 91.096c.108.063.41.062.473-.036-.027-.106-.087-.18-.146-.256-.05.005-.103.007-.108-.035-.13.05-.236.126-.22.326zM235.462 91.313c.11.134.12-.11 0 0zM232.444 92.04c-.095-.01-.093.076-.11.146.098.01.12-.05.11-.145zM234.262 92.44c-.022-.09-.183-.02-.146.072.1.027.073-.072.146-.073zM233.063 92.477c.018-.02-.027-.047-.037-.037-.018.02.026.046.037.037zM233.68 92.477c-.105-.054-.105.162 0 .11v-.11zM232.954 92.586c-.08-.007-.117.03-.11.108-.114-.018-.142.052-.218.072-.12 0-.124-.117-.254-.11-.015.07-.14.03-.11.147-.01.073-.097.07-.108.146.006.066.025.12.073.144-.09.09.026.157 0 .29.086.09.253.15.4.073.046-.087.133-.133.108-.29.15-.067.36-.077.363-.29.017-.163-.2-.09-.144-.29zM231.863 92.622c-.02.117.024.168.036.254h.217c.034-.03.078-.232 0-.254-.048-.053-.205-.053-.254 0zM240.258 101.162h-.146c-.008.12.17.144.146 0zM219.47 101.308c-.005-.042-.035-.02-.035 0 .006.04.036.02.036 0zM220.198 101.343c-.14.032-.278.062-.437.073 0 .065-.097.212 0 .254.033.065.09.106.11.183-.013.12-.11.157-.182.218-.013.087-.044.15-.073.22-.078-.03-.123-.095-.253-.073-.007.09.057.113.07.182.117.03.113-.058.183-.074.125.06.208.156.255.292.135-.026.155.062.29.035.05-.168.06-.378.327-.327.037-.07.063-.154.146-.18-.07-.125-.258-.13-.398-.183 0-.097-.015-.207.035-.254-.022-.125-.104-.19-.072-.367zM240.44 101.452c-.285-.017-.47.066-.51.29.124.064.214-.026.4 0 .046-.086.134-.133.11-.29zM239.75 102.434c-.022.118.024.17.036.255.13.008.218-.025.254-.11-.02-.147-.164-.207-.29-.146zM219.98 102.907c.072.06.046-.005.145 0a.078.078 0 0 0-.146 0zM240.04 103.27c.003.188.187.142.327.11.02-.258-.254-.312-.327-.11zM239.858 103.78c.003.092.053.14.146.144.076.02.104.09.218.073.06-.055.19-.134.108-.218-.137-.103-.29.03-.472 0z"/></g><g fill-rule="evenodd" clip-rule="evenodd" fill="#D72251"><path d="M78.5 51.203c.08-.053.023-.12-.01-.182.108-.076.203.018.32-.126.096-.018.18.106.27.152.18-.078.343.02.522-.057.082-.072.033-.153.097-.225.08-.04.16-.066.245-.16.088.005.054.114.163.194.02-.14.183-.132.278-.234-.027-.08-.007-.154-.108-.24-.044-.057.047-.1-.038-.16.106-.075.198-.153.073-.25.246-.05.192-.273.373-.405-.078-.102.01-.188-.054-.288.047-.045.088-.016.135-.065-.042-.047-.04-.09-.015-.13-.043-.008-.083-.038-.122-.09-.1-.067.06-.115-.01-.18-.038-.05-.08-.055-.125-.037-.042-.003-.08-.062-.125-.037-.047-.056-.094-.11-.14-.167-.077-.01-.152-.038-.232.006a9.24 9.24 0 0 0-.094-.11c-.07.03-.14.017-.21.03-.053-.078-.125.07-.176-.04-.132.084-.167.175-.255.262-.187.086-.37.116-.56.235a.18.18 0 0 1-.154-.015c-.05-.05-.11.06-.155-.014a.372.372 0 0 1-.238.058c-.013.05-.043.1-.116.145.04.064.007.12.01.182-.205.12-.107.265-.29.387 0 .147.04.296-.013.438.062.066.082.13.06.187.04.067.083.058.122.087.03.048 0 .22.11.19.02.036-.037.066-.006.103.166.18.202.527.466.556zM66.407 59.69c.003-.025-.048-.018-.05-.004-.003.027.05.018.05.005zM66.567 59.653c.12.13.007.24.12.372a.53.53 0 0 1 .397-.095c.068-.092.126-.058.19-.112.118.028.248-.08.363-.02.026-.124-.17-.208-.238-.228-.03-.125.126.08.186-.062-.1-.15-.217-.078-.333-.055-.12-.122-.083-.198-.213-.198-.11.05-.05.115-.094.17-.16.02-.258.063-.38.228zM74.265 60.402c-.056.03-.032.065-.01.104-.08.053-.11.11-.04.177.056-.047.11-.094.167-.14l-.117-.14zM73.896 61.094c-.078.07.015.29.14.167a42.58 42.58 0 0 1-.14-.166zM74.14 61.553c.033-.107.2-.1.226-.238-.064-.144-.16.048-.232.005-.078.07-.104.147.005.233zM80.947 59.206c-.03-.026-.042.01-.027.022.03.03.04-.006.027-.022zM81.18 59.2l-.056.048.047.057.058-.048a2.005 2.005 0 0 1-.047-.057zM81.44 59.457c-.033-.063-.16.065-.06.097l.057-.048c-.024-.02-.012-.034.004-.05zM80.468 60.274c-.057.062-.115.127-.02.204.098-.06.104-.127.02-.204zM80.97 60.137c-.117.068-.134.144-.15.22.073.075.137.21.22.148.06.098.13.076.197.12.118-.084-.034-.19.05-.28-.11-.038-.21-.168-.317-.208zM81.87 59.855c-.11.084-.122.178-.048.278.15 0 .217-.17.05-.278zM80.195 61.308c-.05-.03-.03.023-.004.053.058-.036.037-.075.005-.052zM81.48 60.466c.046.115.056.23.1.345-.142.16-.183.328-.25.494.047.038.014.07.043.106.064.057.13.087.195.12.066.06-.14.09-.013.154.087.01.072-.103.195-.163-.032-.028.027-.048.033-.074.014-.08-.03-.177.073-.252.102-.044.058.104.117.14.07-.037.02-.085-.015-.13.078-.092.146-.09.218-.136-.003-.062-.06-.126-.01-.182.077-.01.198.095.21-.033-.06-.1-.13-.084-.2-.07.006-.076-.05-.158-.006-.232-.047-.048-.11.06-.153-.012-.08-.083-.01-.155.044-.23l-.14-.166c-.067.037-.057.08-.086.122-.14.014-.26.036-.353.202zM82.174 60.217c-.124.06.073.188.112.19.076-.064-.043-.187-.112-.19zM78.055 63.958c.04.052.083.03.122.09.098-.062.105-.13.017-.207-.07.056-.13.022-.14.118zM77.464 64.834c-.11.052.038.125-.042.178l.21.25c.072-.025.136.013.2.07.08-.118.138.003.213-.085.067 0 .113.027.178.042.05.01.125-.014.176.04.102-.053-.01-.12.092-.174.077-.09.146-.09.22-.134-.01-.036-.02-.07.006-.103-.042-.1-.098-.04-.143-.12-.04-.04-.076-.114-.122-.085-.092-.07.03-.118-.062-.186-.13-.023-.124.057-.244.157-.137.1-.3-.09-.372.122-.037.02-.066-.03-.1-.06-.068.016-.143.108-.21.084zM77.283 65.13c.002-.028-.05-.02-.05-.005-.004.025.05.018.05.004zM76.926 65.38c.015.172-.26.102-.26.313.088.093.188.023.275.103.062.047-.308.123-.175.24.11-.074.227-.228.33-.227.116.103.004.187.103.29.19-.097.43-.233.553-.414l-.233-.28c-.066.07-.123.04-.176-.04l-.166.14c-.09.05-.166-.09-.248-.125zM82.114 61.5c-.05.09-.12.18-.05.28.142.03.074-.28.24-.107.04-.11-.137-.17-.19-.172zM86.616 65.17c-.076.073.044.19.123.088-.04-.07-.082-.058-.124-.087zM99.23 59.28a.952.952 0 0 1-.257.263c-.052.09-.09.18-.152.27.147.07.183.24.286.284.016.07 0 .138.032.208-.008.12-.04.238.02.363.076.123.16.142.243.177.075.123.074.134.193.17.09.068.056.127.112.19.128.01.256.037.383.06.006-.042.036-.082.087-.12.054-.024.097.067.16-.038-.053-.108-.117-.05-.174-.094-.07-.065.177-.104.04-.176.084-.08.222-.153.23-.238.075-.088.16-.032.167-.142.087-.088-.024-.19.05-.28.042-.005.082.04.13-.013-.05-.04-.023-.07.008-.103-.03-.028-.035-.056-.017-.08-.106-.07-.214-.11-.333-.055l-.093-.11c-.055.038-.108.06-.16.038-.013-.027.006-.052-.017-.08-.054-.077.08-.002.11-.093-.17-.407-.553-.42-.834-.486-.07.033-.153.208-.21.085zM99.857 59.182c0-.026-.05-.02-.053-.005 0 .026.05.018.053.005zM96.098 63.237c.036.07.08.06.12.09.078-.073-.045-.188-.12-.09zM96.386 63.186a.183.183 0 0 0-.014.153c-.073.065-.095 0-.11.093.03.146.156.17.274.103a.492.492 0 0 0-.15-.35zM96.706 63.06c.11.062-.07.096.04.157-.067.056-.124.02-.192.112.043.093.102.01.15.065.025-.024-.01-.054-.02-.08.056-.047.11-.093.168-.14-.118-.137.062-.147.147-.22-.09-.065-.19 0-.294.104zM118.48 45.873c-.03-.027-.04.008-.027.024.032.027.042-.008.028-.024zM124.574 41.375c-.098.062-.038.136.035.21l.082-.07c.008-.097-.06-.037-.118-.14zM125.1 40.983c-.057.03-.035.064-.008.1.012.056-.017.104-.065.15.083.126.175.158.265.204l.195-.163c-.106-.087-.053-.16-.16-.246-.077-.01-.155.003-.227-.045zM125.86 41.436c-.047-.03-.024.024-.057.047.037.03.08-.02.056-.047zM125.608 41.646c-.01.11.083.23.15.35a.982.982 0 0 0 .153-.27c-.09-.07-.055-.127-.11-.192-.06-.005-.126.052-.192.112zM125.722 42.12c.172.032.024-.163 0 0zM122.217 45.63c.003-.024-.05-.016-.05-.002-.004.025.048.018.05.003zM123.568 44.925c-.04-.03-.09.035-.133.065.065.048-.02.084.014.13.015.044.01.087-.04.126.104.12.22.242.253.357.075.028.16-.068.238-.058.052-.055-.008-.12.042-.177.087-.104.158-.03.24-.106.007-.044-.045-.09-.013-.13.08-.027.147.083.223.096.07-.088.09-.18 0-.284a.955.955 0 0 1 .27-.13c.086.076.05.142.084.213-.21.053-.296.264-.32.41.14.09.123.14.18.275.075-.047.134.053.21-.034-.098-.09.15-.18-.024-.312.173-.13.13-.28.27-.415-.06-.208-.278-.358-.443-.243-.093-.12-.186-.24-.29-.23a.552.552 0 0 0 .043.39c-.105.022-.206 0-.298-.13-.167.098.01.226-.158.322-.118.078-.213-.103-.34.047-.067-.066-.09-.13-.01-.182zM122.488 46.068c.06-.09.104-.02.163-.09-.068-.113-.286-.04-.162.09z"/><path d="M123.952 45.552c-.008.076.033.156.108.24.07-.03.157.004.162-.088a.94.94 0 0 0-.27-.152zM97.514 67.98c.055.072.117.05.173.092.066.015.14-.044.21-.034.13-.263-.392-.366-.383-.06zM95.135 73.96c-.022-.024-.052.01-.08.02.025.027.053-.006.08-.02zM120.344 52.897c-.032-.027-.04.007-.028.022.033.028.04-.007.028-.023zM101.276 71.558c-.073.153.208.307.305.362.066-.055.13-.11.197-.164-.067-.14.05-.323-.147-.4-.173.096-.222.217-.354.202zM100.94 72.457c.067.114.146.106.22.148.055.057-.088.095-.116.145.042.107.104-.003.158-.038.092.128.192.15.3.13.027.11.193.077.14.166.054.05.12-.01.175.04.045.048.016.09.065.136.056-.045.1.047.16-.038.045.066.096.07.152.013.063-.045.07-.096.013-.152.072-.047.103-.095.116-.145.122-.12.216.085.34-.05-.052-.12-.252-.04-.215-.197-.062-.07-.14.05-.205-.02-.067-.048.02-.084-.014-.13-.098-.103-.34-.107-.18-.324-.055-.03-.294-.008-.117-.14-.023-.026-.052.007-.078.02-.086.097-.15-.04-.238.056.09.12-.012.224-.105.327-.07.016-.13-.064-.205-.02-.072-.144-.166-.078-.247-.124l-.112.095c.01.036.02.07-.007.102zM126.546 51.58c.092-.166.134-.054.27-.13.018.054.153.116.088.162.064.054.176-.1.116-.144-.044-.092-.103-.007-.153-.015-.04-.055.08-.095.064-.148-.086-.12-.01-.226-.15-.35-.17 0-.44.132-.184.346.074.103-.16.178-.05.28zM127.75 50.474l-.11.093c.09.06.022.107.09.164.1-.076.14-.16.02-.256zM127.957 50.492l-.083.07c.045.038.015.07.042.107.025.018.012.034-.004.05.072.063.152.014.223.097.027-.066.025-.135.068-.2-.077-.08-.164-.074-.246-.125zM126.695 51.646c-.023-.026-.053.007-.08.02.025.026.054-.007.08-.02zM102.81 71.743c.126.123.264.132.414-.016.008-.068-.074-.144-.136-.218-.12.05-.293.102-.278.233zM128.113 51.073c-.187.13-.224.273-.32.41.11.136.228.147.34.236.11-.11 0-.24.134-.35-.095-.12.014-.24-.154-.297zM102.79 72.566c-.02.024-.006.053-.033.075.023.02.05.005.073.032.03-.03-.02-.07-.04-.106zM102.325 73.146c.076.122.165.07.255.02-.037-.062-.078-.08-.126-.035-.04-.023-.082-.026-.13.016zM127.256 52.314c-.04-.03-.09.035-.135.065.024.026.048.055.07.083.095-.043.01-.102.066-.15zM128.292 51.682a7.23 7.23 0 0 1-.056.047c.017.02.032.036.047.056.018-.016.037-.03.056-.048-.017-.02-.03-.037-.048-.056zM128.175 51.826c.004-.025-.05-.018-.05-.004-.002.028.05.02.05.004zM102.57 73.27c-.113.027.026.193.07.085a1.415 1.415 0 0 0-.07-.084zM127.81 52.182c-.032-.026-.042.01-.027.023.03.028.04-.008.027-.023zM132.35 48.94c.077 0 .153-.004.24-.107-.102-.12-.015-.242-.155-.297-.05.003-.104.025-.162.09.003.103-.052.202.077.315zM127.954 52.297c-.03-.027-.04.01-.028.023.032.03.042-.007.028-.023zM127.58 53.322c.033.062 0 .12.062.187.075.006.217-.113.223-.19-.094-.015-.183-.064-.284.002zM129.284 52.13l-.056.047c.037.07.083.02.13-.014-.024-.018-.05-.005-.074-.033zM131.03 50.76c.01.097-.09.182.05.29.136-.04-.06-.11.014-.154.078-.054.002.08.094.11.072-.033.158.005.164-.088-.102-.128-.22-.054-.323-.157zM131.062 51.253c-.02.016-.037.03-.055.047l.047.056.056-.046c-.016-.02-.03-.038-.048-.057zM128.833 53.742c-.03-.026-.04.007-.027.023.032.026.04-.008.027-.023zM128.667 53.883c.047.043.102.022.158-.038-.042-.11-.102.003-.158.038zM97.84 92.615c-.04.074-.016.153.056.236.06 0 .125-.06.182-.01.025-.12-.17-.203-.24-.225zM99.658 93.65c-.023-.025-.053.008-.08.02.025.025.053-.008.08-.02zM98.844 94.998l-.083.07.094.11c.08-.05.058-.113-.01-.18zM100.82 93.907c.067.125.155.018.226.098.154-.193.277-.034.426-.17-.02-.07-.038-.14-.084-.214-.112.005-.238.172-.357.255-.056-.14-.133-.03-.21.032zM105.98 90.102c-.125-.042-.108.144-.225.188.144.1.225-.073.224-.188zM99.997 95.073c-.018.024-.003.052-.03.075.022.02.05.004.073.032.02-.024.004-.05.033-.075-.024-.017-.052-.003-.076-.032zM100.8 94.447c-.118.076-.17.157-.176.243.055.072.116.05.173.092.192-.106.167-.27.004-.335zM99.368 95.793l-.083.07.07.082a5.05 5.05 0 0 0 .082-.07c-.023-.027-.046-.056-.07-.082zM106.19 90.636c.087.06.02.105.087.162.106-.033.123-.093.172-.19-.025-.028-.048-.056-.07-.084-.06-.003-.125.05-.19.112zM101.24 95.026c-.063-.058-.1.09-.087.123-.103.05-.08.11-.145.166.107.088.054.16.16.247a.255.255 0 0 1 .126.036c.028-.033.053-.037.078-.02.058-.065.087-.13.12-.196-.092-.172-.305-.196-.252-.358zM101.585 94.928l.186.223c.177-.073.24-.323.25-.492-.038-.068-.08-.058-.12-.09-.212.02-.204.248-.315.36zM106.642 91.062c-.108.044.002.104.038.16-.003.063.026.052.07.083.16-.086-.004-.275-.108-.243zM102.476 95.936c.035.037.07.073.043.105.08.142.184.04.272.104.068-.037.06-.082.09-.12.163-.017.343-.188.51-.24-.023-.047.05-.082.09-.123a.498.498 0 0 0-.083-.263.495.495 0 0 0-.08-.265c-.152.05-.182.063-.302.206.027.14-.06.27-.138.4-.143.158-.262.04-.404.198zM97.802 100.144c-.13.135-.3.266-.116.43.213-.053.193-.276.116-.43zM101.855 96.835c-.018.015-.037.03-.055.047l.046.055c.02-.025.035-.01.05.005.02-.016.038-.03.057-.047-.015-.02-.03-.037-.046-.055-.02.025-.035.012-.052-.005zM97.956 100.157c.062.057.13.087.195.12.204-.07.225-.236.343-.383-.195-.11-.376.07-.537.263zM102.553 96.534c.104.01.044-.058.087-.12-.072-.077-.188.044-.087.12zM103.045 96.217c.042.1.1.04.145.115l.167-.14c.074-.037-.006-.087.037-.126-.11-.047-.228.045-.35.15zM103.812 96c-.147.116-.1.356.065.418a.398.398 0 0 0 .08-.302c-.044-.098-.1-.04-.145-.116zM98.036 100.99c.033.17.165.352.35.133-.108-.144-.217-.28-.35-.134zM98.038 101.273c-.125.066.075.162.107.242.073-.046.104-.095.116-.146-.063-.153-.15-.044-.222-.097zM107.385 93.76c.088.09.188.02.276.1.065.083-.077.148.005.233-.016.075-.06.15.007.232.036-.023.067.03.098.06l.195-.163c-.063-.065-.03-.122-.01-.18-.04-.05-.08-.057-.125-.04 0-.042-.023-.086-.066-.134-.037-.088.055-.167.073-.25-.062-.066-.028-.123-.06-.188-.065-.057-.13-.086-.198-.12-.208.138-.262.288-.195.45zM98.666 101.458c-.076.085-.138.015-.2-.07-.037.036-.075.07-.106.043-.04.074-.04.15.057.238-.072.092.026.104.09.162.07-.046.098-.096.063-.15.07-.045.1-.093.064-.147.152-.01.14.128.265.203a.815.815 0 0 1 .418-.066c.102-.12-.092-.267-.197-.404-.062.04-.112-.08-.175-.04.007-.123-.142-.112-.215-.2-.04-.005-.09.048-.13.015-.052.03-.025.067-.06.1.066.102-.02.286.126.318zM99.774 100.29c-.028.022-.056.046-.083.07.077.005.15.273.286.282.064-.056.006-.253-.107-.24-.004-.068-.03-.098-.096-.113zM108.02 93.89c-.117.052.03.124.062.19.114-.094.013-.137-.06-.19zM108.184 94.085c-.05-.03-.03.024-.004.052.055-.033.034-.074.004-.052zM108.258 94.118c.018.08.012.155.007.232-.146.086-.295.207-.438.272-.074.054-.052.114-.04.176.002.06-.03.118.008.182.13.095.266.106.41.036.322.188.366.453.64.648.093.068-.03.118.06.187.08.105.17.032.248.125.083.035.17.016.252.074.12-.103.242-.204.36-.305.08-.096.078-.2.233-.29-.09-.046-.01-.202.064-.148.023-.04.027-.085-.014-.13.08-.113.172-.227.133-.35-.083-.11-.188.005-.283.002.04-.23-.22-.123-.345-.188-.197-.368-.597-.528-.89-.722-.13.03-.262.04-.404.198zM99.788 101.323c-.082.07-.05.15-.047.228-.072.063-.166.124-.17.192.043.094.102.01.15.065.095.09.192.156.29.23.114-.06.09-.128.12-.194-.088-.09-.183-.075-.267-.205-.08-.058.013-.102.014-.153-.07-.056 0-.103-.09-.162zM106.8 95.77c.068.098.144.107.226.047 0-.043-.022-.088-.065-.136a.242.242 0 0 0-.16.09zM99.376 102.188c.062.07.125.14.2.07-.06-.083-.124-.154-.2-.07zM107.88 95.478c.12.114.247.132.387.01-.11-.136-.33-.195-.387-.01zM107.028 96.385c.066.115.15.06.232-.007-.066-.116-.148-.06-.232.007zM107.442 96.368c.028-.02.05.016.075.033.158-.098.19-.207.156-.32-.123-.13-.425.16-.23.288zM141.21 70.634c.05.11.116.05.173.094.042.107.104-.003.158-.038-.09-.177-.29-.234-.33-.056zM138.56 73.524c.085.103.172.18.274.1.077.104.17.014.25.074.07-.098.124-.026.187-.06.084-.07.034-.152.1-.225-.048-.072.032-.135.015-.204-.066-.124-.145-.105-.214-.2-.157.067-.312.054-.356.25-.138.123-.233.114-.255.264zM143.32 74.843c.123-.02.353-.216.338-.33-.09-.065-.183-.084-.276-.104-.036.035-.074.07-.105.042-.066.122-.098.248.043.39zM154.176 66.015c.17.032.022-.163 0 0zM152.333 68.512c-.08.052-.023.117.01.18.08-.053.058-.116-.01-.18zM153.98 67.648c-.073-.053-.15.103-.063.15.093-.044.01-.103.064-.15zM153.087 68.447c0-.026-.05-.02-.052-.005-.002.028.05.02.052.005zM153.56 68.05c-.116.027.023.193.07.084l-.07-.083zM153.073 68.602c-.065.046-.07.098-.014.153-.1.06-.077.13-.122.195-.093.078-.17-.01-.265.08.034.063-.09.112.01.183.04.062-.03.116.01.182.048.048.097.076.15.063-.01.126.12.104.186.223.122.014.29-.047.352-.2-.02-.097.017-.188-.103-.293.07-.147.225-.29.09-.456-.09-.134-.21.06-.297-.128zM152.26 69.33c.06.104.127.113.192.17l.167-.14c.005-.044-.09-.228-.165-.193-.07-.01-.19.092-.194.163zM164.182 70.475c-.037.03-.074.062-.11.094.07.094.22-.002.11-.095zM148.353 83.95c-.03-.028-.04.008-.027.023.03.027.04-.007.027-.023zM148.933 83.51a2.575 2.575 0 0 1-.288.336c.042.05.062.226.164.194.066.03.135.024.2.07.067.1.017.19 0 .283.046.074.064.144.085.215-.08.026-.155.007-.24.106.053.074.115.05.17.093.11-.05.05-.115.093-.173a.476.476 0 0 1 .383.06c.087-.106.16-.052.247-.16-.07-.16-.2-.326.04-.46-.018-.078-.05-.158-.005-.23-.133-.052-.28.066-.422.116-.062-.074-.144-.15-.136-.218-.097-.08-.2-.075-.29-.232zM164.507 70.58c-.228.17-.315.352-.202.55.136-.03.146-.158.306-.257-.02-.096.017-.188-.103-.293zM164.61 71.775c.06.104.128.114.19.172.105-.076.152-.16.125-.247-.108-.1-.257-.053-.316.075zM149.77 84.848c.096 0 .034-.033.113-.094-.07-.125-.224.005-.112.094zM165.37 72.23c.123.142.233-.013.32-.127-.15-.21-.393-.076-.32.126zM165.56 72.736c.06.068.13.073.203.017.07-.033.137.002.214-.084.01-.08.06-.225-.057-.237-.17.01-.202.21-.36.303z"/></g></svg>