<svg xmlns="http://www.w3.org/2000/svg" width="305.834" height="112" viewBox="0 0 305.834 112"><defs><path id="a" d="M11.956 1.29H293.88v109.42H11.955z"/></defs><g clip-path="url(#b)"><defs><path id="c" d="M138.378 19.207c-.833 6.917-2.166 15.584-3.083 20.667s-3.5 10.25-6 15-9.5 10.167-12.417 17.167-1 17 1 21.5 12.25 1.833 16.333 4.25c4.085 2.417 16.584 12.25 22.834 12.25s16.834-9.917 21.75-14.167 11.584-3.082 15.166-3.416c3.584-.334 6.168-2.334 4.918-13.332-1.25-11.002-9.25-16.918-13.834-23.002-4.584-6.083-6.834-13.25-9.084-26.75-1.818-10.918-8.582-26.75-19.916-27.75-.447-.04-.885-.06-1.316-.06-10.446.002-15.59 11.345-16.35 17.644"/></defs><defs><filter id="d" filterUnits="userSpaceOnUse" x="113.961" y="1.565" width="86.167" height="108.476"><feColorMatrix values="1 0 0 0 0 0 1 0 0 0 0 0 1 0 0 0 0 0 1 0"/></filter></defs><mask maskUnits="userSpaceOnUse" x="113.961" y="1.565" width="86.167" height="108.476" id="g"><g filter="url(#d)"><linearGradient id="f" gradientUnits="userSpaceOnUse" x1="-139.632" y1="474.574" x2="-138.632" y2="474.574" gradientTransform="matrix(0 -108.4757 -108.4757 0 51636.78 -15036.684)"><stop offset="0" stop-color="gray"/><stop offset=".001" stop-color="gray"/><stop offset=".142" stop-color="#777"/><stop offset=".373" stop-color="#5e5e5e"/><stop offset=".663" stop-color="#373737"/><stop offset="1"/></linearGradient><path clip-path="url(#e)" fill="url(#f)" d="M113.96 1.565h86.168V110.04H113.96z"/></g></mask><linearGradient id="h" gradientUnits="userSpaceOnUse" x1="-139.632" y1="474.574" x2="-138.632" y2="474.574" gradientTransform="matrix(0 -108.4757 -108.4757 0 51636.78 -15036.684)"><stop offset="0" stop-color="#0c3846"/><stop offset=".001" stop-color="#0c3846"/><stop offset="1" stop-color="#0c3846"/></linearGradient><path clip-path="url(#beast-nose-11-id-4)" mask="url(#g)" fill="url(#h)" d="M113.96 1.565h86.168V110.04H113.96z"/></g><g clip-path="url(#beast-nose-11-id-2)"><defs><path id="i" d="M11.956 1.29H293.88v109.42H11.955z"/></defs><path clip-path="url(#j)" fill="#FCDCA4" d="M159.71 18.624c-.435 5.876-3.665 23.167-2.5 30s4.17 26.5 4.67 32.667c.5 6.167 3.165 10.833 1 14.667-2.17 3.834-3.335 6-5.67 6.166-2.332.168-9.665-2.832-9.5-8.666s7.5-6.5 6.667-11.5c-.832-5-5.5-30.333-4.332-37.167 1.166-6.834 1.91-21.006 2.166-26.5.5-10.667 2.388-12.504 4.168-12.334 2.05.2 4 3.668 3.333 12.668"/><path clip-path="url(#beast-nose-11-id-9)" fill="#0C3846" d="M200.594 80.56c-.205-1.82-.547-3.64-1.082-5.39-.527-1.754-1.26-3.416-2.096-4.963-1.678-3.105-3.73-5.775-5.766-8.254-1.02-1.21-2.025-2.396-3.012-3.562-.94-1.147-1.855-2.302-2.678-3.466-1.672-2.32-3.045-4.657-4.068-7.013-.117-.268-.215-.537-.322-.807.02-.35.053-.92.076-1.688.027-1.316.088-3.197-.002-5.452a103.29 103.29 0 0 0-.18-3.64 73.155 73.155 0 0 0-.357-4.06c-.176-1.403-.36-2.854-.63-4.32-.274-1.466-.563-2.954-.958-4.425a30.59 30.59 0 0 0-.636-2.19 22.96 22.96 0 0 0-.746-2.147c-.523-1.437-1.143-2.697-1.7-4-1.142-2.56-2.3-4.908-3.237-6.93-.944-2.018-1.663-3.714-1.987-4.974-.354-1.25-.5-1.985-.5-1.985s.012.187.04.536c.024.35.06.864.167 1.515.182 1.3.646 3.152 1.416 5.264l2.605 7.18c.462 1.3 1.007 2.687 1.413 4.032.232.674.44 1.36.605 2.07.184.7.367 1.402.5 2.124.316 1.424.56 2.87.773 4.298.204 1.43.382 2.842.528 4.214.227 2.373.408 4.602.512 6.595-.84-3.87-1.467-7.365-2.23-10.28a28.558 28.558 0 0 0-3.007-7.474c-.46-.802-.824-1.405-1.096-1.8l-.395-.605s.36.91 1.043 2.616a37.052 37.052 0 0 1 1.965 7.576c.523 3.35.934 7.476 1.85 12.23.48 2.37 1.094 4.922 2.12 7.51.505 1.297 1.126 2.584 1.813 3.87a43.673 43.673 0 0 0 2.363 3.76c.852 1.24 1.783 2.446 2.758 3.677.97 1.176 1.963 2.373 2.97 3.592 1.964 2.41 3.9 4.972 5.41 7.796 1.538 2.814 2.464 5.93 2.806 9.307.092.855.16 1.652.2 2.564.054.943.07 1.635-.028 2.406-.2 1.494-.852 2.783-2.012 3.693-1.145.928-2.723 1.488-4.393 1.787-.838.148-1.7.238-2.582.273-.44.02-.883.025-1.326.02l-1.44-.03c-2.213-.015-4.418.796-6.158 1.944a20.86 20.86 0 0 0-1.88 1.38 8.43 8.43 0 0 0 .152-1.253c.067-.847.06-1.73-.005-2.63-.134-1.803-.51-3.66-.974-5.463a60.14 60.14 0 0 0-.746-2.66l-.73-2.51c-.224-.777-.315-1.568-.386-2.322a16.527 16.527 0 0 1-.01-2.154c.06-1.348.254-2.475.422-3.254.16-.783.295-1.225.295-1.225s-.938 1.608-1.55 4.368a17.85 17.85 0 0 0-.297 2.268c-.033.816-.05 1.69.084 2.598.107.893.293 1.746.457 2.646l.484 2.666c.303 1.775.52 3.543.574 5.172.02.81.03 1.592-.043 2.314a8.39 8.39 0 0 1-.116 1.04c-.047.335-.09.66-.178.95-.08.295-.12.592-.217.85-.1.256-.19.5-.267.734-.13.336-.277.61-.408.865-2.61 2.147-5.566 4.134-8.555 5.917-1.64.967-3.318 1.875-5.02 2.617-.848.37-1.707.695-2.53.912-.22.06-.396.094-.563.13-.14.03-.547.085-.613.085-.38.04-.795.015-1.21-.017-1.694-.164-3.48-.727-5.195-1.416a37.332 37.332 0 0 1-5.014-2.506c-1.598-.95-3.17-2.02-4.502-3.173l-.873-.78-.65-1.25c-.26-.433-.433-.95-.655-1.454l-.324-.78c-.09-.272-.18-.552-.27-.833-.19-.562-.383-1.14-.522-1.756-.15-.61-.326-1.225-.432-1.87-.266-1.282-.49-2.622-.63-3.995-.077-.687-.142-1.38-.177-2.08-.06-.696-.08-1.395-.09-2.097-.03-.703.02-1.395.026-2.092.055-.68.092-1.39.18-1.98.02-.298.1-.646.184-.99l.25-1.042c.15-.736.262-1.44.325-2.135.274-2.762.276-5.297.248-7.48-.09-4.353-.413-7.24-.413-7.24l-.75 7.19c-.24 2.145-.49 4.662-.946 7.264-.12.648-.248 1.3-.415 1.92-.1.326-.198.656-.298.988-.1.334-.2.67-.266 1.08-.316 1.576-.38 3.002-.418 4.508a35.91 35.91 0 0 0 .16 4.424c.133 1.455.33 2.885.62 4.254.122.69.316 1.353.487 2.005.156.656.372 1.285.585 1.898.07.205.14.406.208.61-3.57-2.122-7.686-3.282-11.79-3.288l-1.42.008c-.428-.004-.854-.01-1.248-.047-.802-.06-1.49-.23-1.96-.49-.463-.266-.797-.63-1.105-1.238-.305-.592-.52-1.365-.688-2.166-.324-1.625-.458-3.395-.548-5.148-.078-1.74-.15-3.568-.1-5.197.103-3.324.837-6.51 2.14-9.36 1.307-2.854 3.147-5.358 5.204-7.626 1.027-1.147 2.115-2.202 3.197-3.413 1.095-1.238 1.995-2.53 2.794-3.836 3.137-5.246 4.924-10.526 5.71-15.425.358-2.403.48-4.644.69-6.684l.493-5.646c.313-3.41.515-6.098.642-7.93.143-1.833.186-2.815.186-2.815s-.242.952-.62 2.75c-.393 1.797-.95 4.436-1.566 7.808-.312 1.686-.682 3.55-1.012 5.59l-.523 3.185-.256 1.66c-.105.56-.185 1.167-.317 1.705-.96 4.458-2.832 9.5-5.932 14.21-.782 1.163-1.634 2.313-2.585 3.342-.976 1.04-2.147 2.13-3.262 3.31-2.247 2.353-4.425 5.12-5.933 8.388-1.53 3.25-2.403 6.92-2.552 10.65-.072 1.898-.014 3.64.048 5.498.08 1.842.19 3.713.56 5.693.202.99.452 2.017.974 3.08.49 1.058 1.42 2.167 2.595 2.802 1.17.635 2.36.84 3.42.928.54.05 1.054.055 1.565.06l1.407-.01c3.444.02 6.95.92 10.03 2.685a22.63 22.63 0 0 1 2.232 1.473c.353.273.712.547 1.052.842l1.097.947c1.627 1.357 3.307 2.443 5.07 3.46a40.56 40.56 0 0 0 5.496 2.632c1.92.726 3.908 1.347 6.12 1.53.56.035 1.124.053 1.722 0 .42-.04.5-.057.838-.113.31-.06.613-.125.867-.195 1.066-.283 2.037-.66 2.98-1.072 1.88-.824 3.637-1.785 5.354-2.8 3.422-2.06 6.656-4.222 9.734-6.856.784-.71 1.407-1.322 2.112-1.92a19.8 19.8 0 0 1 2.117-1.605c1.44-.942 2.958-1.476 4.536-1.478l1.385.025c.497.006.995-.002 1.493-.025.992-.043 1.99-.146 2.986-.324 1.974-.367 4.017-1.033 5.74-2.422 1.76-1.354 2.856-3.56 3.09-5.63.144-1.017.095-2.126.042-2.96a37.298 37.298 0 0 0-.218-2.747m29.574 13.182c-.336-1.658-.748-3.408-1.438-5.14-.28-.89-.715-1.73-1.127-2.597a10.91 10.91 0 0 0-.707-1.322c.068-.426.127-.97.133-1.637.013-.836-.073-1.844-.29-2.984-.254-1.127-.623-2.4-1.3-3.652-.284-.656-.724-1.25-1.11-1.91-.46-.6-.898-1.264-1.447-1.848-.543-.59-1.086-1.215-1.74-1.74-.314-.273-.635-.55-.955-.83-.344-.25-.69-.5-1.037-.754-.353-.25-.687-.516-1.065-.758l-1.064-.674c-.704-.453-1.46-.896-2.21-1.348a153.8 153.8 0 0 0-4.564-2.598c-1.518-.855-3.035-1.71-4.53-2.55-1.48-.853-2.923-1.706-4.265-2.606a37.06 37.06 0 0 1-1.972-1.33 29.57 29.57 0 0 1-1.826-1.36 23.945 23.945 0 0 1-1.656-1.38 20.51 20.51 0 0 1-1.477-1.373c-.94-.894-1.724-1.784-2.43-2.573a70.91 70.91 0 0 1-1.69-2.164c-.86-1.266-1.354-1.99-1.354-1.99l1.07 2.17c.387.664.867 1.47 1.447 2.38.63.87 1.297 1.9 2.19 2.893.42.52.89 1.03 1.395 1.54a25.297 25.297 0 0 0 1.586 1.567 30.333 30.333 0 0 0 1.76 1.56 33.76 33.76 0 0 0 1.914 1.54c1.326 1.012 2.748 1.973 4.2 2.932 1.45.957 2.954 1.867 4.444 2.787 1.482.914 2.963 1.828 4.42 2.73.715.452 1.424.89 2.127 1.368l1.05.693c.32.207.635.46.95.684l.933.684c.285.25.566.5.846.745.575.475 1.058 1.008 1.548 1.508.496.5.877 1.06 1.295 1.566.334.554.738 1.054.984 1.6.604 1.05.92 2.108 1.215 3.034.06.24.096.453.14.68a31.035 31.035 0 0 0-2.095-2.39c-1.424-1.358-2.893-2.67-4.477-3.76a42.992 42.992 0 0 0-4.77-2.94c-1.576-.85-3.037-1.645-4.43-2.482-1.39-.82-2.695-1.623-3.902-2.365-2.42-1.475-4.395-2.78-5.805-3.652-1.404-.893-2.205-1.4-2.205-1.4s.682.666 1.934 1.758c1.238 1.113 3.074 2.62 5.32 4.387a98.16 98.16 0 0 0 3.723 2.73 85.458 85.458 0 0 0 4.34 2.797 40.475 40.475 0 0 1 4.387 3.047c1.44 1.098 2.754 2.37 4.014 3.678.572.705 1.2 1.36 1.746 2.076.518.736 1.113 1.414 1.543 2.193.46.757.945 1.493 1.307 2.286.396.773.818 1.523 1.092 2.326.686 1.55 1.07 3.15 1.475 4.656.29 1.533.608 2.986.714 4.365.06.686.18 1.344.22 1.975l.07 1.803.095 1.6c-.01.497-.015.952-.02 1.362-.015 1.654.04 2.63.04 2.63s.31-.9.75-2.532c.105-.408.225-.86.354-1.355l.246-1.63.236-1.87c.08-.66.05-1.36.06-2.094 0-.366 0-.74.003-1.122.01-.383 0-.77-.063-1.166l-.3-2.45m22.157-23.982c2.988-.168 5.904-.447 8.66-1.19 1.375-.355 2.71-.855 3.938-1.544.63-.328 1.164-.74 1.754-1.193.45-.412.893-.81 1.346-1.285 1.754-1.79 2.967-3.703 3.863-5.46a28.357 28.357 0 0 0 1.87-4.704c.396-1.34.618-2.408.767-3.136l.19-1.124s-.17.357-.485 1.028c-.318.667-.77 1.65-1.393 2.86a41.18 41.18 0 0 1-2.445 4.203 26.243 26.243 0 0 1-3.94 4.695c-.375.36-.848.744-1.324 1.133-.398.266-.855.62-1.365.855-1 .525-2.153.928-3.4 1.205-2.476.6-5.265.78-8.145.875-2.89.1-5.908.05-8.982-.037-1.518-.056-3.13-.065-4.62-.142-.753-.027-1.5-.078-2.23-.18-.75-.06-1.454-.23-2.175-.36-1.406-.34-2.74-.83-3.953-1.542-1.223-.69-2.31-1.646-3.357-2.688-2.088-2.107-4.014-4.512-6.11-6.675-.528-.528-1.003-1.032-1.565-1.566-.56-.502-1.104-1.018-1.662-1.49-.57-.452-1.136-.9-1.696-1.34l-1.72-1.2a67.762 67.762 0 0 0-6.66-3.872 93.578 93.578 0 0 0-10.5-4.543c-2.585-.958-4.1-1.386-4.1-1.386s1.42.68 3.876 1.902c1.227.614 2.697 1.398 4.375 2.303 1.682.897 3.54 1.976 5.547 3.165 1.99 1.223 4.115 2.583 6.236 4.163l1.584 1.226 1.55 1.322c.505.46.98.953 1.48 1.434.47.477.978 1.055 1.47 1.584 1.945 2.115 3.77 4.514 5.973 6.855 1.11 1.157 2.354 2.315 3.836 3.208 1.476.896 3.112 1.504 4.75 1.914.82.162 1.644.36 2.46.434.822.12 1.637.184 2.447.22 1.63.105 3.133.116 4.705.147 3.096.048 6.162.067 9.152-.073m20.535-31.122a28.66 28.66 0 0 1-1.962 2.29c-.188.18-.434.437-.58.56-.2.16-.398.326-.604.492-.445.307-.873.65-1.375.947-1.96 1.23-4.335 2.308-6.896 3.276a55.394 55.394 0 0 1-8.316 2.322c-2.908.61-6.018.922-9.197 1.094-3.16.157-6.347.172-9.446-.367-1.55-.256-3.06-.682-4.537-1.182-1.457-.56-2.896-1.17-4.236-1.96-.698-.357-1.304-.805-1.956-1.2-.635-.427-1.316-.948-1.91-1.367l-1.975-1.415c-.67-.43-1.335-.856-1.993-1.28-2.672-1.615-5.31-3.037-7.83-4.34-2.525-1.286-4.926-2.474-7.18-3.486-4.488-2.063-8.273-3.673-10.945-4.744-2.664-1.09-4.21-1.654-4.21-1.654l4.032 2.043c2.555 1.32 6.22 3.175 10.55 5.505 4.315 2.347 9.396 5.048 14.464 8.42l1.88 1.3 1.825 1.394c.684.52 1.254.987 1.932 1.48.7.46 1.385.987 2.115 1.392 1.422.896 2.97 1.618 4.547 2.277 1.602.6 3.248 1.116 4.932 1.45 3.366.673 6.796.827 10.085.652 3.277-.155 6.52-.44 9.65-1.08a58.466 58.466 0 0 0 8.725-2.606c2.7-1.066 5.2-2.248 7.33-3.776 2.21-1.458 3.713-3.597 4.71-5.344 1.048-1.78 1.74-3.416 2.29-4.765.537-1.355.89-2.442 1.115-3.188l.318-1.152s-.88 1.418-2.432 3.824c-.778 1.194-1.737 2.642-2.92 4.188m-2.31 42.58a21.94 21.94 0 0 0 5.167-3.573c.39-.346.754-.713 1.104-1.09a16.44 16.44 0 0 0 1.022-1.145l.246-.29.123-.144.077-.1.023-.037.05-.075.4-.592c.132-.2.267-.383.396-.598l.377-.693c.986-1.834 1.598-3.55 2.105-5.252.502-1.688.86-3.3 1.115-4.797a47.86 47.86 0 0 0 .688-7.272c.034-1.762-.06-2.77-.06-2.77l-.696 2.67c-.22.842-.484 1.866-.787 3.04-.293 1.172-.658 2.482-1.05 3.902-.417 1.414-.843 2.95-1.413 4.514-.525 1.56-1.225 3.23-2.066 4.652l-.31.537c-.118.182-.272.377-.41.568l-.42.574-.046.06v.003l-.008.01-.027.035c-.008.012.018-.023.035-.045l-.014.016-.334.383c-.297.345-.594.69-.922 1.01-.316.33-.643.65-.992.952-1.37 1.232-2.926 2.285-4.582 3.168-1.664.875-3.46 1.51-5.273 2.018-1.828.504-3.64.832-5.473 1.055a9.267 9.267 0 0 1-1.29.102l-.614.033c-.205-.004-.414-.03-.62-.043-.82-.03-1.636-.203-2.427-.37-1.59-.35-3.056-.93-4.41-1.476-1.347-.567-2.552-1.183-3.622-1.733-1.055-.574-1.986-1.072-2.73-1.523-1.49-.896-2.332-1.445-2.332-1.445s.678.743 2.016 1.884a35.465 35.465 0 0 0 5.982 4.225c1.344.73 2.85 1.466 4.572 2 .87.24 1.77.49 2.746.59.24.028.48.07.73.09l.753.01c.506.013 1.037-.007 1.48-.058 1.883-.15 3.893-.426 5.867-.89a27.333 27.333 0 0 0 5.857-2.093m22.163-6.613c-.39.45-.86.996-1.404 1.623-.587.59-1.177 1.305-1.91 2.006-.356.36-.728.732-1.114 1.117l-1.23 1.156c-.85.788-1.758 1.603-2.72 2.42-.952.833-1.983 1.636-3.024 2.454-1.035.828-2.127 1.617-3.215 2.408a68.63 68.63 0 0 1-3.307 2.26c-1.1.717-2.236 1.39-3.3 1.932-1.155.584-2.153 1.03-3.228 1.19-1.06.17-2.105.126-3.068-.013-1.926-.33-3.486-1.034-4.537-1.575-1.045-.564-1.61-.963-1.61-.963s.442.533 1.395 1.29c.95.747 2.41 1.77 4.49 2.39 1.037.303 2.23.47 3.508.395 1.285-.055 2.617-.56 3.78-1.04 1.257-.55 2.435-1.173 3.632-1.86 1.195-.682 2.352-1.453 3.5-2.234a54.624 54.624 0 0 0 6.29-5.178c.962-.877 1.812-1.812 2.626-2.684.79-.894 1.516-1.76 2.137-2.597.645-.818 1.148-1.64 1.62-2.336.433-.732.786-1.38 1.07-1.912.522-1.098.784-1.732.784-1.732s-.45.535-1.167 1.484m-102.6-57.194c-2.895-1.274-4.568-1.956-4.568-1.956l15.867 8.61c4.734 2.615 10.344 5.527 16.137 8.954.728.423 1.448.862 2.173 1.305.732.435 1.45.89 2.148 1.362.347.235.73.462 1.026.712l.998.773c.36.282.64.556 1.064.843.412.277.826.596 1.256.812 1.693.98 3.62 1.58 5.53 1.823 1.92.252 3.82.215 5.677.072 3.728-.277 7.302-1.035 10.798-1.8 3.46-.768 6.922-1.506 10.225-2.604 3.295-1.08 6.443-2.497 9.082-4.41 2.652-1.895 4.734-4.212 6.314-6.535l1.046-1.773c.166-.29.338-.573.488-.862.133-.3.26-.594.39-.885.188-.438.378-.862.56-1.282.314-.182.63-.36.94-.556.92-.59 1.825-1.22 2.616-1.882.412-.31.77-.667 1.117-.988.357-.31.65-.664.93-.97.29-.295.506-.62.707-.89a4.53 4.53 0 0 0 .477-.737c.235-.43.353-.675.353-.675s-.225.176-.582.482c-.17.16-.4.334-.66.53-.267.194-.542.427-.876.65-.334.224-.67.486-1.055.735-.38.252-.78.52-1.194.794-.625.4-1.283.83-1.953 1.254.145-.463.285-.918.422-1.354.078-.25.152-.494.23-.733l.153-.723c.158-.795.305-1.523.44-2.205.304-.25.593-.506.872-.746.418-.342.756-.745 1.086-1.083.34-.328.586-.703.826-1.004.242-.298.42-.586.55-.835.27-.486.407-.764.407-.764s-.247.21-.644.574c-.188.19-.438.4-.736.625-.3.224-.602.504-.986.76-.352.23-.703.51-1.102.77.125-.96.19-1.76.26-2.352.082-.845.123-1.294.123-1.294L278.7 9.21c-.208.688-.41 1.678-.757 2.865-.244.162-.492.327-.756.486-.967.6-1.994 1.246-3.057 1.84-1.04.632-2.117 1.214-3.11 1.793l-2.733 1.568c-1.602.926-2.658 1.61-2.658 1.61s1.24-.224 3.01-.835a35.707 35.707 0 0 0 6.243-2.84c.543-.312 1.07-.65 1.588-.99.274-.167.534-.35.788-.538-.396 1.17-.848 2.466-1.492 3.837-.23.557-.498 1.12-.79 1.69-.392.252-.782.5-1.157.74a92.83 92.83 0 0 0-2.308 1.517c-1.344.902-2.217 1.586-2.217 1.586s1.086-.233 2.613-.83a28.582 28.582 0 0 0 1.79-.77 46.26 46.26 0 0 1-1.497 2.28c-1.616 2.035-3.587 4.05-6.056 5.68-2.455 1.647-5.355 2.92-8.51 3.867-3.152.95-6.547 1.646-10.02 2.422-1.723.372-3.46.744-5.203 1.044-1.74.317-3.485.605-5.222.76-3.46.336-6.932.18-9.742-1.367-.37-.172-.662-.4-.994-.6-.32-.193-.69-.52-1.03-.772l-1.105-.81c-.387-.3-.766-.508-1.145-.752a41.437 41.437 0 0 0-2.27-1.357 56.39 56.39 0 0 0-2.26-1.253c-2.995-1.62-5.927-3.083-8.71-4.474a288.932 288.932 0 0 0-7.887-3.796c-4.91-2.29-9.027-4.144-11.932-5.394M17.888 19.336c.926 1.513 2.082 3.34 3.578 5.317 1.462 2.004 3.26 4.165 5.39 6.378 2.125 2.218 4.633 4.457 7.575 6.47 2.925 2.025 6.304 3.825 10.112 4.958l2.998.704c.967.143 1.915.235 2.883.356l.182.02.09.012.177.014.367.02.735.038 1.477.077c.993.033 1.99.068 2.993.103 4.004.037 8.276-.113 12.342-1.406 1.026-.276 1.993-.69 2.978-1.058.94-.445 1.918-.836 2.818-1.332.92-.47 1.825-.95 2.698-1.468a64.46 64.46 0 0 0 2.603-1.55c3.41-2.106 6.66-4.315 9.764-6.455 3.11-2.112 6.132-4.078 9.127-5.77 2.957-1.746 5.86-3.207 8.538-4.56a159.224 159.224 0 0 1 7.452-3.42c2.248-.954 4.233-1.74 5.88-2.36 1.644-.63 2.958-1.06 3.853-1.36.896-.304 1.382-.442 1.382-.442s-2.008.272-5.436 1.17c-1.722.42-3.78 1.048-6.126 1.82-2.337.8-4.953 1.77-7.75 2.974a109.478 109.478 0 0 0-8.85 4.285c-3.083 1.63-6.24 3.563-9.435 5.61-3.178 2.055-6.438 4.155-9.81 6.165-3.376 1.975-6.86 3.88-10.53 4.954-3.645 1.156-7.55 1.296-11.45 1.25-.98-.022-1.955-.05-2.925-.075l-1.46-.062-.727-.044-.362-.047h-.046c-.033 0 .133.043.04.035l-.09.022-.18-.02c-.963-.105-1.94-.188-2.87-.312l-2.568-.576c-3.463-.978-6.625-2.606-9.454-4.406-2.817-1.83-5.35-3.817-7.52-5.852-1.116-.98-2.107-2.013-3.082-2.96-.925-.998-1.84-1.914-2.637-2.835l-1.176-1.32-1.054-1.266c-.695-.798-1.288-1.566-1.835-2.254a103.89 103.89 0 0 1-2.476-3.253l-.857-1.172s.23.45.658 1.294c.21.427.485.943.83 1.538.342.598.71 1.303 1.188 2.048m4.26 20.98c1.4 1.43 2.983 3.04 4.823 4.69a71.28 71.28 0 0 0 6.255 4.973c.587.402 1.182.812 1.785 1.228l1.9 1.162c.626.406 1.345.73 2.033 1.098l1.05.538c.35.167.7.3 1.054.453 2.882 1.24 5.988 2.206 9.29 2.73 3.293.5 6.783.454 10.137-.29 3.342-.79 6.48-2.216 9.305-3.89 2.88-1.662 5.373-3.583 7.936-5.174 2.557-1.634 5.096-3.132 7.49-4.578l6.774-4.047c4.193-2.52 7.69-4.628 10.1-6.173 2.428-1.51 3.798-2.412 3.798-2.412s-1.52.615-4.127 1.8c-1.31.578-2.887 1.308-4.684 2.17-1.794.868-3.818 1.85-5.996 2.976a221.734 221.734 0 0 0-6.995 3.722c-2.47 1.348-5.03 2.853-7.67 4.45-2.66 1.6-5.253 3.463-7.93 5.032-2.694 1.61-5.583 2.87-8.587 3.632-3.012.724-6.154.832-9.216.426-3.058-.4-6.072-1.232-8.834-2.337-.353-.14-.72-.27-1.057-.42l-.976-.47c-.647-.324-1.298-.595-1.923-.97-.63-.35-1.256-.693-1.873-1.035l-1.78-1.11a70.233 70.233 0 0 1-6.324-4.59c-1.924-1.483-3.603-2.957-5.09-4.268-1.456-1.343-2.736-2.508-3.76-3.5-1.034-.984-1.81-1.794-2.355-2.332l-.82-.842s.95 1.334 2.812 3.514c.92 1.097 2.077 2.4 3.46 3.845m74.922 6.89c.526-.488.806-.75.806-.75l-.948.56c-.61.374-1.507.922-2.648 1.618-2.275 1.4-5.483 3.452-9.306 5.938l-6.164 4.01c-2.198 1.403-4.52 2.876-6.968 4.3-2.432 1.44-4.977 2.904-7.61 4.105-2.573 1.188-5.412 1.95-8.243 2.08-2.833.156-5.602-.47-8.265-1.574-1.334-.543-2.648-1.174-3.953-1.824-.656-.328-1.308-.654-1.955-.98l-.486-.244-.19-.096-.237-.133-.936-.527c-2.285-1.355-4.48-3.096-6.505-4.684-2.046-1.598-3.92-3.2-5.674-4.654l-11.576-9.896s.97 1.183 2.773 3.153c.903.983 1.98 2.2 3.273 3.54a165.12 165.12 0 0 0 4.39 4.454c1.634 1.612 3.45 3.31 5.43 5.06 2.008 1.74 4.088 3.522 6.66 5.18l.924.55.233.137.288.155.478.252c.643.34 1.29.682 1.94 1.023 1.313.688 2.668 1.375 4.1 1.99 1.43.61 2.94 1.168 4.54 1.492 1.596.328 3.248.45 4.876.375 3.256-.15 6.42-.982 9.25-2.38 2.795-1.345 5.356-2.864 7.79-4.403 2.44-1.533 4.732-3.094 6.9-4.578a215.32 215.32 0 0 0 6.026-4.297c1.833-1.375 3.5-2.65 4.947-3.823 1.454-1.16 2.7-2.203 3.71-3.08 1.005-.882 1.794-1.576 2.332-2.05M72.047 70.51c-.536.354-1.094.807-1.723 1.287-.59.516-1.284 1.033-1.915 1.68-.326.316-.66.643-1 .975l-.99 1.07c-.692.713-1.31 1.527-1.972 2.334-.627.832-1.233 1.7-1.797 2.596-.145.258-.286.516-.43.775-.254.074-.804.232-1.604.465-1.128.334-2.76.752-4.714 1.234-.977.234-2.04.48-3.166.693-1.126.228-2.316.394-3.54.565-1.222.13-2.493.236-3.73.178-.512-.04-1.35-.107-1.885-.244a20.448 20.448 0 0 1-1.862-.452c-2.55-.695-5.08-1.703-7.472-2.58a127.97 127.97 0 0 0-6.618-2.316 33.85 33.85 0 0 0-2.72-.734c-.827-.156-1.54-.31-2.145-.355-.596-.09-1.073-.07-1.394-.064l-.492.005.486.074c.317.04.776.11 1.35.27.576.12 1.256.365 2.035.623.77.297 1.632.635 2.568 1.03 1.873.782 4.003 1.835 6.326 2.907 1.162.53 2.363 1.096 3.612 1.62 1.248.526 2.533 1.042 3.867 1.483.667.213 1.342.422 2.083.58.367.094.722.17 1.047.21l.5.073.25.04.06.01.124.01.134.007c1.443.127 2.812.012 4.13-.1 2.622-.283 4.99-.832 7-1.326 1.844-.457 3.35-.953 4.475-1.318-.326.753-.653 1.493-.938 2.226l-.934 2.682c-.26.863-.457 1.695-.663 2.45-.198.76-.398 1.446-.49 2.08-.11.628-.208 1.173-.29 1.622-.16.896-.232 1.412-.232 1.412l.544-1.326c.352-.838.77-2.06 1.422-3.46.32-.704.636-1.474 1.022-2.265l1.23-2.472c.438-.848.94-1.697 1.42-2.57.484-.873 1.052-1.713 1.53-2.604.523-.865 1.046-1.73 1.562-2.58.56-.82 1.044-1.686 1.62-2.44.278-.388.55-.77.82-1.142.285-.357.565-.71.838-1.05.538-.692 1.095-1.306 1.593-1.892a42.42 42.42 0 0 1 2.635-2.627c.682-.588 1.097-.906 1.097-.906s-.48.203-1.272.666c-.388.24-.87.522-1.393.887m44.596-13.108a14.58 14.58 0 0 0 1.998-4.227 15.65 15.65 0 0 0 .586-3.505c.09-1.962-.18-3.047-.18-3.047s.002 1.116-.395 2.97c-.223.92-.543 2.02-1.057 3.205-.496 1.194-1.26 2.438-2.236 3.65-1.002 1.187-2.216 2.374-3.74 3.308-1.547.984-3.268 1.96-5.053 2.975-1.795 1.013-3.664 2.11-5.466 3.45-1.805 1.322-3.54 2.936-4.86 4.898-1.343 1.943-2.22 4.188-2.66 6.424-.093.562-.23 1.12-.28 1.678-.048.557-.094 1.11-.14 1.664-.075 1.102-.086 2.11-.106 3.156-.077 4.14.017 7.986.1 11.262.066 3.275-.07 5.986-.3 7.887-.25 1.892-.474 2.974-.474 2.974l.264-.746c.182-.484.402-1.21.646-2.146.245-.936.497-2.088.706-3.426.187-1.336.34-2.854.47-4.502.27-3.3.38-7.135.65-11.21.075-1.01.127-2.09.225-3.097l.175-1.514c.062-.504.203-.992.3-1.492.473-1.974 1.254-3.874 2.417-5.536 1.165-1.66 2.67-3.09 4.31-4.355 1.65-1.26 3.426-2.364 5.164-3.452 1.744-1.094 3.46-2.12 5.03-3.256 1.64-1.134 2.932-2.566 3.907-3.99M79.708 29.544c1.688-.84 3.645-1.845 5.722-2.952l3.194-1.723a71.224 71.224 0 0 0 3.233-1.887c2.123-1.34 4.202-2.742 6.168-4.038a373.598 373.598 0 0 0 5.35-3.58 224.645 224.645 0 0 0 3.752-2.585l1.418-.99-1.55.768a217.94 217.94 0 0 0-4.07 2.05 368.413 368.413 0 0 0-5.708 2.974c-2.082 1.1-4.313 2.262-6.5 3.488-1.09.62-2.16 1.276-3.2 1.943-1.033.676-2.05 1.342-3.035 1.985a234.19 234.19 0 0 0-5.324 3.624c-1.555 1.062-2.828 1.99-3.72 2.637-.895.642-1.393 1.03-1.393 1.03s.58-.253 1.57-.734c.994-.473 2.416-1.15 4.093-2.012M134.64 8.898c-1.59.495-2.595 1.06-2.595 1.06s.285.043.773.084c.488.042 1.182.09 2.002.102.823.025 1.773.013 2.787-.02a70.555 70.555 0 0 0 3.158-.19 69.337 69.337 0 0 0 5.895-.732c.81-.135 1.486-.28 1.965-.383.477-.11.753-.195.753-.195s-1.073-.41-2.724-.654c-.824-.14-1.79-.227-2.826-.27a27.622 27.622 0 0 0-3.237.07c-2.197.158-4.363.618-5.95 1.128m-2.327 8.125c.22-.32.354-.593.434-.783l.132-.283-.22.224a6.797 6.797 0 0 1-.634.59c-.283.235-.64.504-1.065.78-.422.282-.926.562-1.473.858-1.107.58-2.46 1.15-3.92 1.746l-2.28.89c-.776.313-1.572.59-2.377.927-1.688.72-3.17 1.67-4.49 2.64-.668.475-1.27.986-1.846 1.46-.575.474-1.09.955-1.566 1.397-1.896 1.777-2.962 3.157-2.962 3.157s1.477-.92 3.617-2.323l1.733-1.116 1.94-1.21c.67-.414 1.374-.82 2.09-1.205.71-.407 1.45-.757 2.187-1.057 1.57-.637 3.193-1.28 4.644-2.024 1.462-.73 2.79-1.522 3.833-2.355.524-.41.98-.816 1.347-1.22.38-.386.662-.77.876-1.092m-2.707 7.573a5.75 5.75 0 0 0 .46-.714l.146-.26-.234.185c-.145.125-.384.28-.668.485-.584.397-1.438.895-2.516 1.4-1.078.506-2.362 1.042-3.757 1.63-.69.304-1.422.586-2.147.923l-1.1.505-.554.256-.595.315c-.784.438-1.468.98-2.12 1.522-.648.544-1.2 1.158-1.73 1.742-.522.59-.978 1.197-1.393 1.78-.416.58-.777 1.152-1.09 1.69-1.268 2.14-1.762 3.735-1.762 3.735l2.755-2.998c.414-.434.86-.904 1.335-1.4l1.522-1.494c.533-.505 1.117-.98 1.692-1.46.588-.463 1.203-.907 1.842-1.247l.47-.27.54-.27 1.077-.535c.716-.35 1.404-.738 2.082-1.1 1.346-.736 2.584-1.505 3.576-2.282 1.006-.757 1.73-1.55 2.168-2.137m-7.21 10.667c-.546.34-1.097.708-1.655 1.084-.565.392-1.098.737-1.69 1.202a13.5 13.5 0 0 0-1.606 1.445c-.498.505-.94 1.04-1.34 1.573a15.65 15.65 0 0 0-1.064 1.59c-.322.515-.587 1.022-.813 1.5-.467.943-.76 1.773-.94 2.36-.182.588-.242.938-.242.938l2.22-2.623 1.07-1.223c.383-.428.795-.866 1.223-1.31.424-.448.875-.894 1.343-1.325.47-.434.95-.86 1.456-1.244.478-.388 1.078-.808 1.593-1.218a54.115 54.115 0 0 0 1.542-1.235 56.653 56.653 0 0 0 2.64-2.326 35.524 35.524 0 0 0 1.774-1.773c.414-.446.64-.72.64-.72s-.33.127-.884.383-1.334.635-2.237 1.136c-.91.49-1.94 1.107-3.03 1.787m.77-27.592c.773-.128 1.566-.282 2.37-.448.803-.167 1.624-.31 2.436-.493.816-.17 1.63-.34 2.434-.506.797-.193 1.586-.346 2.35-.512l4.172-.904 4.12-.85s-.417-.073-1.16-.173c-.37-.046-.823-.107-1.34-.118-.517-.014-1.11-.075-1.744-.05-.636.02-1.334-.002-2.06.06-.725.063-1.498.088-2.285.19-.786.1-1.604.187-2.428.31-.818.146-1.65.294-2.482.44-.833.142-1.654.344-2.462.53-.812.177-1.602.39-2.36.61a48.55 48.55 0 0 0-4.117 1.332c-2.384.874-3.896 1.7-3.896 1.7s1.717-.08 4.213-.44a84.796 84.796 0 0 0 4.238-.68m63.323 3.344c.775.286 1.574.582 2.39.882l2.42.965c.8.332 1.593.687 2.33 1.077.386.173.73.385 1.08.585.34.188.743.45 1.083.658.737.443 1.507.823 2.214 1.155a19.56 19.56 0 0 0 2.068.81 16.35 16.35 0 0 0 3.225.743c.793.092 1.248.068 1.248.068s-1.73-.567-4.027-1.84c-.582-.303-1.178-.694-1.818-1.077a34.403 34.403 0 0 1-1.93-1.318c-.357-.256-.648-.482-1.043-.746-.38-.26-.762-.533-1.162-.75-.8-.463-1.635-.853-2.473-1.227-.834-.384-1.695-.683-2.537-.983a32.444 32.444 0 0 0-2.502-.768 42.895 42.895 0 0 0-4.514-.995c-2.67-.45-4.495-.465-4.495-.465s1.668.73 4.176 1.654c1.255.473 2.712 1.01 4.268 1.57m-1.273-5.663c.875.385 1.818.75 2.77 1.098 1.896.707 3.8 1.376 5.256 1.865.722.26 1.347.447 1.774.6.438.14.7.21.7.21s-.18-.194-.51-.523c-.17-.153-.362-.373-.616-.565-.25-.197-.527-.44-.848-.672a22.52 22.52 0 0 0-2.27-1.44c-.868-.457-1.804-.924-2.772-1.31-.965-.388-1.945-.735-2.895-.972a19.96 19.96 0 0 0-2.615-.54c-1.555-.23-2.643-.142-2.643-.142s.896.61 2.283 1.297a37.76 37.76 0 0 0 2.387 1.096m81.258 4.746c1.084-.407 2.2-.934 3.31-1.48.554-.28 1.09-.594 1.624-.885.53-.297 1.027-.64 1.52-.945.97-.648 1.83-1.32 2.528-1.94.686-.642 1.234-1.192 1.566-1.63.343-.426.524-.675.524-.675s-.27.16-.723.453c-.435.31-1.106.68-1.872 1.16-.398.22-.828.456-1.268.725-.46.245-.943.497-1.43.778-1.006.52-2.062 1.096-3.148 1.626l-3.17 1.606c-1.014.513-1.965.99-2.773 1.424-1.628.842-2.698 1.478-2.698 1.478s1.238-.158 3.018-.677c.89-.255 1.918-.59 2.993-1.017m8.412-1.215c-1.04.61-2.127 1.287-3.25 1.918-1.11.644-2.234 1.277-3.293 1.868l-2.89 1.635c-1.7.958-2.823 1.656-2.823 1.656s1.304-.244 3.167-.89c.463-.166.97-.334 1.492-.55.52-.216 1.08-.42 1.636-.686 1.13-.492 2.3-1.098 3.45-1.74.583-.31 1.128-.686 1.685-1.02.552-.344 1.067-.728 1.573-1.084a23.55 23.55 0 0 0 2.582-2.204c.693-.72 1.244-1.34 1.566-1.827.337-.474.515-.75.515-.75s-.277.19-.732.535c-.44.36-1.13.802-1.906 1.364-.412.258-.85.543-1.3.855-.476.286-.97.592-1.472.92M18.36 15.583c.512.58 1.002 1.178 1.546 1.71.533.546 1.042 1.094 1.585 1.577.536.49 1.047.967 1.566 1.385.523.412.994.826 1.473 1.155.475.33.91.635 1.296.904.394.256.758.452 1.046.626.587.33.923.517.923.517l-.767-.73c-.502-.44-1.187-1.104-1.992-1.91-.42-.38-.823-.852-1.276-1.316-.463-.453-.915-.97-1.387-1.497-.964-1.035-1.92-2.205-2.89-3.36-.49-.575-.93-1.19-1.41-1.757l-1.34-1.725-2.387-3.066c-1.404-1.8-2.39-2.996-2.39-2.996s.474 1.488 1.577 3.523a37.45 37.45 0 0 0 2.056 3.376 41.987 41.987 0 0 0 2.77 3.586m-2.373-8.314c.65 1.04 1.427 2.092 2.224 3.132.41.512.845 1.003 1.26 1.498.422.488.88.935 1.3 1.38.878.87 1.758 1.62 2.547 2.215.4.292.783.54 1.117.76.325.232.652.38.903.52.51.266.807.403.807.403s-.228-.244-.63-.645c-.42-.38-.952-.993-1.62-1.677a38.505 38.505 0 0 0-1.03-1.156c-.357-.418-.72-.87-1.12-1.31-.755-.932-1.578-1.904-2.358-2.918-.397-.502-.806-.994-1.182-1.5l-1.14-1.462c-.742-.95-1.427-1.843-2.037-2.6-1.194-1.525-2.053-2.522-2.053-2.522s.425 1.25 1.333 2.988a34.76 34.76 0 0 0 1.68 2.894"/></g></svg>