<svg id="Layer_1" xmlns="http://www.w3.org/2000/svg" viewBox="-152 341 305.8 112"><style>.beast-nose-12-st-0{fill:#0b3746}.beast-nose-12-st-1{fill:#fcdca4}.beast-nose-12-st-2{fill:#f0a732}.beast-nose-12-st-3{fill:#d72051}</style><path class="beast-nose-12-st-0" d="M25.9 354.4s2.2 1.7 6.4-.8c0 0-3.7 2.3-6.9 1.5l.5-.7zM23.9 353.4s2.2 1.7 6.4-.8c0 0-3.7 2.3-6.9 1.5l.5-.7z"/><path class="beast-nose-12-st-0" d="M27.9 354.4s2.2 1.7 6.4-.8c0 0-3.7 2.3-6.9 1.5l.5-.7zM-32.9 393.9s21.2-7.4 47.7 21.7c0 0-23-26.8-49.9-28.3l2.2 6.6zM-25 356.2s9.5-4 14 0c0 0-11.5 6-14 0z"/><path class="beast-nose-12-st-0" d="M17 357s9.5 4.3 14 0c0 0-11.5-6.4-14 0z"/><circle class="beast-nose-12-st-0" cx="-39.2" cy="440.9" r="1.8"/><circle class="beast-nose-12-st-1" cx="-103.2" cy="393.9" r="1.8"/><path class="beast-nose-12-st-2" d="M136.9 376.1s11.7-3.2 15.2-24.2c0 0-.6 17.2-8.9 23.5l-10.4 1.6 4.1-.9z"/><path class="beast-nose-12-st-2" d="M137.6 368.1s11.7-3.2 15.2-24.2c0 0-.6 17.2-8.9 23.5l-10.4 1.6 4.1-.9zM-140.4 379.1s-10.8-5.5-9.8-26.8c0 0-3 16.9 3.8 24.8l9.8 3.7-3.8-1.7z"/><path class="beast-nose-12-st-2" d="M-139.4 371.1s-10.8-5.5-9.8-26.8c0 0-3 16.9 3.8 24.8l9.8 3.7-3.8-1.7zM132.3 437.9s15.2-8 12.8-36.8c0 0 5.2 22.8-4.2 33.8l-14 5.5 5.4-2.5zM-132.3 411.7s7.4 15.6 36.2 14.3c0 0-22.9 4.3-33.5-5.6l-4.9-14.2 2.2 5.5z"/><path class="beast-nose-12-st-0" d="M142.8 378c-7.6-12.5-51.3-20.5-51.3 1.8 0 13.2 7 23.7 21 24.1 1.3 0 3.1.6 2.8 1.8-.1.4-.4.6-.6.9-11 9.9-30.1 3.7-35.7-8.8-3.7-8.1-7-14.8-10.6-20 1.8-.3 3.6-.7 5.3-1.1 5.8 3.4 12.3 8.5 19.1 15.9 0 0-7.3-8.4-18.4-16.1 15-3.8 26.5-11 26.5-11-10.8 6.3-20 9.2-27.5 10.3-2-1.4-4.2-2.7-6.4-3.9 12.2-3.9 20.9-9.4 20.9-9.4-8.1 4.7-15.2 7.5-21.5 9.1-2.9-1.6-5.9-3-9.1-4.1-3.8-2-8.2-3-13.6-3-.3 0-.6-.1-.9-.1v.1c-2.8 0-6 .3-9.4.9-13.5 2.3-22.4-3.5-35-6-13.2-2.5-26.9.4-39.5 4.3-3.6 1.1-7.3 2.2-10.8 3.5-8.4-.2-19.6-2.7-33.4-10.8 0 0 13.6 8.4 30.5 11.9l-3.3 1.5c-8.5 1.2-21.5.1-38.7-9.6.1-.1.2-.3.3-.4-.1.1-.3.2-.5.3-.4-.2-.8-.4-1.2-.7 0 0 .4.3 1.2.7-1.6.7-5.8 1.1-6.9 1.4-5.6 1.7-11.1 4-16 7.3-13 8.7-18 28.5-13 43.4.7 2 1.5 3.8 2.5 5.6 4.5 7.7 11 11 18.2 11.9-7.5.3-17-.8-28.6-4.8 0 0 33 12.5 57.4.9l-.3-.3c7.1-2.3 12.8-6.1 17.4-12.3 8.5-11.5 15.5-3.5 28-7.5s20.5-5 36.5-12.5 25.5-5.5 36 3c7.3 5.9 13.2 13.6 21.2 18.5 9.1 5.5 19 3.6 27.8 10.8 5.4 4.5 10 9.9 15.9 13.7 10 6.5 23.4 7.5 33.9 1.6 10-5.7 14.6-15.5 15.4-26.6.7-11 .2-26.7-5.6-36.2zm-213.5.7c-1.5 1.6-2.9 3.4-4.9 4.5-2.6 1.4-5.8 1.5-8.6.6-9.3-2.7-20.1-14-12.7-23.6 4.3 2.5 18.4 9.8 34.3 12-2.9 1.8-5.6 3.9-8.1 6.5zm143-2.9c-1.8.2-3.5.3-5.1.4-1-1.3-2-2.5-3-3.6.2-.1.4-.1.6-.2 2.4.9 4.9 2 7.5 3.4zm-8.5-3.7s-.1 0 0 0h-.1c0-.1 0 0 .1 0z"/><circle class="beast-nose-12-st-1" cx="-80.2" cy="402.9" r="1.8"/><circle class="beast-nose-12-st-1" cx="-104.2" cy="391.9" r="1.8"/><circle class="beast-nose-12-st-1" cx="-96.2" cy="415.9" r="1.8"/><circle class="beast-nose-12-st-1" cx="2.8" cy="366.9" r="1.8"/><circle class="beast-nose-12-st-2" cx="-133.2" cy="355.9" r="1.8"/><circle class="beast-nose-12-st-2" cx="-124.2" cy="355.9" r="1.8"/><circle class="beast-nose-12-st-2" cx="-129.2" cy="360.9" r="1.8"/><circle class="beast-nose-12-st-2" cx="117.8" cy="355.9" r="1.8"/><circle class="beast-nose-12-st-2" cx="126.8" cy="355.9" r="1.8"/><circle class="beast-nose-12-st-2" cx="121.8" cy="360.9" r="1.8"/><circle class="beast-nose-12-st-1" cx="122.8" cy="422.9" r="1.8"/><circle class="beast-nose-12-st-1" cx="128.8" cy="378.9" r="1.8"/><path class="beast-nose-12-st-0" d="M-30 360.8s.5-19.4 16-9.9c0-.1-13-3.1-16 9.9zM69.572 448l-.14.142-2.067-2.035.14-.142z"/><path class="beast-nose-12-st-0" d="M69.413 445.934l.143.14-2.035 2.067-.142-.14zM64.817 447.98l-.14.143-2.067-2.035.14-.142z"/><path class="beast-nose-12-st-0" d="M64.692 445.985l.142.14-2.034 2.067-.143-.14zM59.993 448.033l-.14.142-2.067-2.034.14-.142z"/><path class="beast-nose-12-st-0" d="M59.9 445.966l.142.14-2.034 2.067-.143-.14zM55.238 448.014l-.14.142-2.066-2.034.14-.143z"/><path class="beast-nose-12-st-0" d="M55.107 445.947l.143.14-2.035 2.067-.142-.14zM50.484 447.995l-.14.142-2.067-2.034.14-.143z"/><path class="beast-nose-12-st-0" d="M50.315 445.928l.143.14-2.035 2.067-.142-.14zM45.73 447.976l-.14.142-2.067-2.034.14-.143z"/><path class="beast-nose-12-st-0" d="M45.594 445.98l.143.14-2.035 2.066-.142-.14zM40.905 448.028l-.14.142-2.067-2.034.14-.143z"/><path class="beast-nose-12-st-0" d="M40.802 445.96l.142.14-2.034 2.068-.143-.14zM36.15 448.01l-.14.14-2.066-2.033.14-.143z"/><path class="beast-nose-12-st-0" d="M36.01 445.942l.142.14-2.034 2.067-.143-.142zM31.397 447.99l-.14.142-2.067-2.034.14-.143z"/><path class="beast-nose-12-st-0" d="M31.217 445.923l.143.14-2.035 2.067-.142-.14zM26.642 447.97l-.14.143-2.067-2.034.14-.144z"/><path class="beast-nose-12-st-0" d="M26.496 445.974l.143.14-2.036 2.067-.142-.14zM21.818 448.023l-.14.143-2.067-2.035.14-.14z"/><path class="beast-nose-12-st-0" d="M21.704 445.955l.143.14-2.035 2.067-.143-.14zM17.063 448.004l-.14.143-2.066-2.035.14-.142z"/><path class="beast-nose-12-st-0" d="M16.912 445.936l.142.14-2.034 2.067-.143-.14zM12.31 447.985l-.14.143-2.068-2.035.14-.142z"/><path class="beast-nose-12-st-0" d="M12.12 445.917l.142.14-2.035 2.067-.142-.14zM7.555 447.966l-.14.143-2.067-2.036.14-.142z"/><path class="beast-nose-12-st-0" d="M7.398 445.97l.143.14-2.034 2.065-.142-.14zM2.73 448.018l-.14.143-2.067-2.034.14-.142z"/><path class="beast-nose-12-st-0" d="M2.606 445.95l.143.14-2.036 2.066-.142-.14zM-2.024 448l-.14.142-2.067-2.035.14-.142z"/><path class="beast-nose-12-st-0" d="M-2.186 445.93l.142.14-2.034 2.067-.143-.14zM-6.778 447.98l-.14.143-2.067-2.035.14-.142z"/><path class="beast-nose-12-st-0" d="M-6.907 445.982l.142.14-2.034 2.067-.142-.142zM-11.603 448.033l-.14.142-2.067-2.034.14-.142z"/><path class="beast-nose-12-st-0" d="M-11.7 445.963l.143.14-2.035 2.067-.142-.14zM-16.357 448.014l-.14.142-2.067-2.034.14-.143z"/><path class="beast-nose-12-st-0" d="M-16.492 445.944l.143.14-2.034 2.067-.142-.14zM-21.112 447.995l-.14.142-2.066-2.034.14-.143z"/><path class="beast-nose-12-st-0" d="M-21.284 445.925l.143.14-2.036 2.067-.142-.14zM-25.866 447.976l-.14.142-2.067-2.034.14-.143z"/><path class="beast-nose-12-st-0" d="M-26.005 445.976l.143.14-2.035 2.067-.143-.14zM-30.69 448.028l-.14.142-2.067-2.034.14-.143z"/><path class="beast-nose-12-st-0" d="M-30.797 445.957l.142.14-2.034 2.067-.142-.14zM-35.445 448.01l-.14.142-2.067-2.035.14-.143z"/><path class="beast-nose-12-st-0" d="M-35.59 445.938l.143.14-2.035 2.067-.142-.14zM-40.2 447.99l-.14.143-2.066-2.035.14-.143z"/><path class="beast-nose-12-st-0" d="M-40.382 445.92l.143.14-2.034 2.066-.142-.14zM-44.953 447.97l-.14.144-2.067-2.035.14-.144z"/><path class="beast-nose-12-st-0" d="M-45.103 445.97l.143.14-2.035 2.067-.142-.14zM-49.778 448.023l-.14.143-2.067-2.035.14-.14z"/><path class="beast-nose-12-st-0" d="M-49.895 445.952l.143.14-2.035 2.067-.143-.142zM-54.532 448.004l-.14.143-2.067-2.035.14-.142z"/><path class="beast-nose-12-st-0" d="M-54.687 445.933l.142.14-2.034 2.067-.142-.14zM-59.287 447.985l-.14.143-2.066-2.035.14-.142z"/><path class="beast-nose-12-st-0" d="M-59.408 445.984l.142.14-2.034 2.067-.143-.14zM69.55 439.148l-.14.142-2.067-2.034.14-.143z"/><path class="beast-nose-12-st-0" d="M69.392 437.125l.142.14-2.034 2.067-.143-.14zM64.795 439.13l-.14.14-2.067-2.033.14-.143z"/><path class="beast-nose-12-st-0" d="M64.67 437.177l.143.14-2.034 2.066-.144-.14zM59.97 439.18l-.14.144-2.066-2.035.14-.144z"/><path class="beast-nose-12-st-0" d="M59.88 437.158l.14.14-2.033 2.066-.143-.14zM55.217 439.162l-.14.143-2.067-2.035.14-.143z"/><path class="beast-nose-12-st-0" d="M55.086 437.14l.143.14-2.036 2.066-.142-.14zM50.462 439.143l-.14.143-2.067-2.035.14-.142z"/><path class="beast-nose-12-st-0" d="M50.294 437.12l.143.14-2.035 2.067-.143-.14zM45.708 439.124l-.14.143-2.067-2.035.14-.143z"/><path class="beast-nose-12-st-0" d="M45.573 437.17l.143.14-2.035 2.068-.142-.14zM40.883 439.176l-.14.143-2.067-2.036.14-.142z"/><path class="beast-nose-12-st-0" d="M40.78 437.152l.143.14-2.034 2.067-.144-.14zM36.13 439.157l-.14.143-2.068-2.035.14-.142z"/><path class="beast-nose-12-st-0" d="M35.99 437.133l.14.14-2.034 2.067-.142-.14zM31.375 439.138l-.14.143-2.067-2.034.14-.142z"/><path class="beast-nose-12-st-0" d="M31.196 437.114l.143.14-2.036 2.067-.142-.14zM26.62 439.12l-.14.142-2.066-2.035.14-.142z"/><path class="beast-nose-12-st-0" d="M26.475 437.165l.143.14-2.035 2.067-.142-.14zM21.796 439.172l-.14.142-2.067-2.035.14-.143z"/><path class="beast-nose-12-st-0" d="M21.683 437.146l.142.14-2.034 2.067-.142-.14zM17.042 439.153l-.14.142-2.067-2.035.14-.142z"/><path class="beast-nose-12-st-0" d="M16.89 437.128l.143.14L15 439.334l-.144-.14zM12.287 439.134l-.14.142-2.067-2.035.14-.14z"/><path class="beast-nose-12-st-0" d="M12.098 437.11l.143.14-2.034 2.065-.142-.14zM7.533 439.115l-.14.142-2.067-2.035.14-.142z"/><path class="beast-nose-12-st-0" d="M7.377 437.16l.143.14-2.035 2.067-.142-.14zM2.708 439.167l-.14.142-2.066-2.035.14-.143z"/><path class="beast-nose-12-st-0" d="M2.585 437.14l.143.14-2.035 2.068-.142-.14zM-2.046 439.148l-.14.142-2.067-2.034.14-.143z"/><path class="beast-nose-12-st-0" d="M-2.207 437.122l.142.14-2.034 2.067-.142-.142zM-6.8 439.13l-.14.14-2.067-2.033.14-.143z"/><path class="beast-nose-12-st-0" d="M-6.928 437.173l.142.14-2.034 2.067-.143-.14zM-11.625 439.18l-.14.144-2.067-2.035.14-.144z"/><path class="beast-nose-12-st-0" d="M-11.72 437.154l.142.14-2.035 2.067-.142-.14zM-16.38 439.162l-.14.143-2.066-2.035.14-.143z"/><path class="beast-nose-12-st-0" d="M-16.513 437.135l.143.14-2.035 2.067-.142-.14zM-21.133 439.143l-.14.143-2.067-2.035.14-.142z"/><path class="beast-nose-12-st-0" d="M-21.305 437.116l.143.14-2.035 2.067-.143-.14zM-25.888 439.124l-.14.143-2.067-2.035.14-.143z"/><path class="beast-nose-12-st-0" d="M-26.026 437.167l.143.14-2.035 2.067-.143-.14zM-30.712 439.176l-.14.143-2.067-2.036.14-.142z"/><path class="beast-nose-12-st-0" d="M-30.818 437.15l.142.14-2.034 2.065-.143-.14zM-35.467 439.157l-.14.143-2.066-2.035.14-.142z"/><path class="beast-nose-12-st-0" d="M-35.61 437.13l.142.14-2.035 2.066-.142-.14zM-40.22 439.138l-.14.143-2.068-2.034.14-.142z"/><path class="beast-nose-12-st-0" d="M-40.403 437.11l.143.14-2.035 2.067-.142-.14zM-44.975 439.12l-.14.142-2.067-2.035.14-.142z"/><path class="beast-nose-12-st-0" d="M-45.124 437.162l.143.14-2.036 2.067-.142-.142zM-49.8 439.172l-.14.142-2.067-2.035.14-.143z"/><path class="beast-nose-12-st-0" d="M-49.916 437.143l.142.14-2.034 2.067-.143-.14zM-54.554 439.153l-.14.142-2.067-2.035.14-.142z"/><path class="beast-nose-12-st-0" d="M-54.708 437.124l.142.14-2.035 2.067-.143-.14zM-59.308 439.134l-.14.142-2.067-2.035.14-.14z"/><path class="beast-nose-12-st-0" d="M-59.43 437.175l.143.14-2.034 2.067-.144-.14zM72.385 443.466l-.14.143-2.066-2.036.14-.142z"/><path class="beast-nose-12-st-0" d="M72.28 441.45l.14.14-2.034 2.066-.142-.14zM67.63 443.447l-.14.143-2.066-2.035.14-.142z"/><path class="beast-nose-12-st-0" d="M67.486 441.43l.143.14-2.036 2.067-.142-.14zM62.877 443.428l-.14.143-2.067-2.034.14-.142z"/><path class="beast-nose-12-st-0" d="M62.694 441.412l.142.14-2.034 2.067-.143-.142zM58.122 443.41l-.14.142-2.066-2.035.14-.142z"/><path class="beast-nose-12-st-0" d="M57.973 441.463l.142.14-2.034 2.067-.142-.14zM53.298 443.462l-.14.142-2.067-2.034.14-.143z"/><path class="beast-nose-12-st-0" d="M53.18 441.444l.143.14-2.034 2.067-.144-.14zM48.544 443.443l-.14.142-2.067-2.034.14-.142z"/><path class="beast-nose-12-st-0" d="M48.388 441.425l.143.14-2.034 2.067-.142-.14zM43.79 443.424l-.14.142-2.068-2.034.14-.143z"/><path class="beast-nose-12-st-0" d="M43.667 441.476l.143.14-2.035 2.067-.142-.14zM38.965 443.476l-.14.142-2.067-2.034.14-.143z"/><path class="beast-nose-12-st-0" d="M38.875 441.457l.143.14-2.035 2.067-.142-.14zM34.21 443.457l-.14.142-2.066-2.035.14-.143z"/><path class="beast-nose-12-st-0" d="M34.083 441.438l.142.14-2.034 2.067-.142-.14zM29.456 443.438l-.14.142-2.067-2.034.14-.143z"/><path class="beast-nose-12-st-0" d="M29.29 441.42l.143.14-2.034 2.066-.144-.14zM24.702 443.42l-.14.14-2.067-2.033.14-.143z"/><path class="beast-nose-12-st-0" d="M24.57 441.47l.142.14-2.035 2.067-.142-.14zM19.877 443.47l-.14.144-2.067-2.035.14-.144z"/><path class="beast-nose-12-st-0" d="M19.777 441.452l.143.14-2.035 2.067-.142-.142zM15.123 443.452l-.14.143-2.067-2.035.14-.142z"/><path class="beast-nose-12-st-0" d="M14.985 441.433l.143.14-2.035 2.067-.143-.14zM10.37 443.433l-.142.143-2.066-2.035.14-.14z"/><path class="beast-nose-12-st-0" d="M10.193 441.414l.142.14L8.3 443.62l-.142-.14zM5.614 443.414l-.14.143-2.067-2.035.14-.142z"/><path class="beast-nose-12-st-0" d="M5.472 441.465l.142.14-2.034 2.067-.143-.14zM.79 443.466l-.14.143-2.067-2.036.14-.142z"/><path class="beast-nose-12-st-0" d="M.68 441.446l.142.14-2.035 2.067-.142-.14zM-3.965 443.447l-.14.143-2.066-2.035.14-.142z"/><path class="beast-nose-12-st-0" d="M-4.113 441.427l.143.14-2.035 2.067-.142-.14zM-8.72 443.428l-.14.143-2.066-2.034.14-.142z"/><path class="beast-nose-12-st-0" d="M-8.905 441.408l.142.14-2.034 2.067-.143-.14zM-13.473 443.41l-.14.142-2.067-2.035.14-.142z"/><path class="beast-nose-12-st-0" d="M-13.626 441.46l.142.14-2.034 2.066-.143-.14zM-18.298 443.462l-.14.142-2.067-2.035.14-.143z"/><path class="beast-nose-12-st-0" d="M-18.418 441.44l.142.14-2.035 2.067-.143-.14zM-23.052 443.443l-.14.142-2.067-2.034.14-.142z"/><path class="beast-nose-12-st-0" d="M-23.21 441.422l.142.14-2.035 2.066-.142-.14zM-27.806 443.424l-.14.142-2.067-2.034.14-.143z"/><path class="beast-nose-12-st-0" d="M-27.932 441.473l.143.14-2.034 2.067-.142-.14zM-32.63 443.476l-.14.142-2.068-2.034.14-.143z"/><path class="beast-nose-12-st-0" d="M-32.724 441.454l.143.14-2.036 2.067-.143-.14zM-37.385 443.457l-.14.142-2.067-2.035.14-.143z"/><path class="beast-nose-12-st-0" d="M-37.516 441.435l.142.14-2.034 2.067-.143-.14zM-42.14 443.438l-.14.142-2.066-2.034.14-.143z"/><path class="beast-nose-12-st-0" d="M-42.308 441.416l.142.14-2.035 2.067-.143-.14zM-46.894 443.42l-.14.14-2.067-2.033.14-.143z"/><path class="beast-nose-12-st-0" d="M-47.03 441.467l.143.14-2.035 2.067-.142-.14zM-51.718 443.47l-.14.144-2.067-2.035.14-.143z"/><path class="beast-nose-12-st-0" d="M-51.822 441.448l.143.14-2.034 2.067-.142-.14zM-56.473 443.452l-.14.143-2.067-2.035.14-.142z"/><path class="beast-nose-12-st-0" d="M-56.614 441.43l.143.14-2.036 2.066-.143-.14zM72.42 435.146l-.142.143-2.066-2.036.14-.142z"/><path class="beast-nose-12-st-0" d="M72.312 433.063l.142.14-2.034 2.067-.143-.14zM67.664 435.127l-.14.143-2.066-2.035.14-.142z"/><path class="beast-nose-12-st-0" d="M67.52 433.044l.142.14-2.035 2.067-.142-.14zM62.91 435.108l-.14.143-2.067-2.034.14-.142z"/><path class="beast-nose-12-st-0" d="M62.727 433.025l.143.14-2.035 2.067-.143-.14zM58.156 435.09l-.14.142-2.067-2.035.14-.142z"/><path class="beast-nose-12-st-0" d="M58.006 433.076l.143.14-2.036 2.067-.143-.14zM53.33 435.142l-.14.142-2.066-2.035.14-.143z"/><path class="beast-nose-12-st-0" d="M53.214 433.057l.142.14-2.034 2.067-.143-.14zM48.577 435.123l-.14.142-2.067-2.034.14-.142z"/><path class="beast-nose-12-st-0" d="M48.422 433.038l.142.14-2.034 2.067-.143-.14zM43.823 435.104l-.14.142-2.067-2.034.14-.143z"/><path class="beast-nose-12-st-0" d="M43.7 433.09l.143.14-2.035 2.067-.142-.14zM38.998 435.156l-.14.142-2.067-2.034.142-.143z"/><path class="beast-nose-12-st-0" d="M38.908 433.07l.143.14-2.034 2.068-.142-.14zM34.244 435.137l-.14.142-2.067-2.035.14-.143z"/><path class="beast-nose-12-st-0" d="M34.116 433.052l.143.14-2.036 2.067-.143-.142zM29.49 435.118l-.14.142-2.067-2.034.14-.143z"/><path class="beast-nose-12-st-0" d="M29.324 433.033l.142.14-2.034 2.067-.143-.14zM24.735 435.1l-.14.14-2.067-2.033.14-.143z"/><path class="beast-nose-12-st-0" d="M24.603 433.084l.142.14-2.034 2.067-.142-.14zM19.91 435.15l-.14.144-2.066-2.035.14-.144z"/><path class="beast-nose-12-st-0" d="M19.81 433.065l.143.14-2.035 2.067-.142-.14zM15.156 435.132l-.14.143-2.067-2.035.14-.143z"/><path class="beast-nose-12-st-0" d="M15.018 433.046l.143.14-2.034 2.067-.142-.14zM10.402 435.113l-.14.143-2.067-2.035.14-.142z"/><path class="beast-nose-12-st-0" d="M10.226 433.027l.142.14-2.034 2.067-.143-.14z"/><g><path class="beast-nose-12-st-0" d="M5.648 435.094l-.14.143-2.067-2.035.14-.143z"/><path class="beast-nose-12-st-0" d="M5.505 433.08l.142.14-2.034 2.065-.143-.14z"/></g><g><path class="beast-nose-12-st-0" d="M.823 435.146l-.14.143-2.067-2.036.14-.142z"/><path class="beast-nose-12-st-0" d="M.713 433.06l.142.14-2.035 2.066-.142-.14z"/></g><g><path class="beast-nose-12-st-0" d="M-3.93 435.127l-.142.143-2.066-2.035.14-.142z"/><path class="beast-nose-12-st-0" d="M-4.08 433.04l.143.14-2.035 2.068-.142-.14z"/></g><g><path class="beast-nose-12-st-0" d="M-8.686 435.108l-.14.143-2.066-2.034.14-.142z"/><path class="beast-nose-12-st-0" d="M-8.872 433.022l.143.14-2.034 2.067-.143-.142z"/></g><g><path class="beast-nose-12-st-0" d="M-13.44 435.09l-.14.142-2.067-2.035.14-.142z"/><path class="beast-nose-12-st-0" d="M-13.593 433.073l.143.14-2.035 2.067-.143-.14z"/></g><g><path class="beast-nose-12-st-0" d="M-18.264 435.142l-.14.142-2.067-2.035.14-.143z"/><path class="beast-nose-12-st-0" d="M-18.385 433.054l.142.14-2.034 2.067-.143-.14z"/></g><g><path class="beast-nose-12-st-0" d="M-23.02 435.123l-.14.142-2.066-2.035.14-.142z"/><path class="beast-nose-12-st-0" d="M-23.178 433.035l.143.14-2.035 2.067-.142-.14z"/></g><g><path class="beast-nose-12-st-0" d="M-27.773 435.104l-.14.142-2.067-2.035.14-.14z"/><path class="beast-nose-12-st-0" d="M-27.898 433.086l.142.14-2.035 2.067-.143-.14z"/></g><g><path class="beast-nose-12-st-0" d="M-32.598 435.156l-.14.142-2.066-2.034.14-.143z"/><path class="beast-nose-12-st-0" d="M-32.69 433.067l.142.14-2.035 2.067-.142-.14z"/></g><g><path class="beast-nose-12-st-0" d="M-37.352 435.137l-.14.142-2.067-2.035.142-.143z"/><path class="beast-nose-12-st-0" d="M-37.483 433.048l.143.14-2.035 2.067-.143-.14z"/></g><g><path class="beast-nose-12-st-0" d="M-42.106 435.118l-.14.142-2.067-2.034.14-.143z"/><path class="beast-nose-12-st-0" d="M-42.275 433.03l.142.14-2.034 2.066-.143-.14z"/></g><g><path class="beast-nose-12-st-0" d="M-46.86 435.1l-.14.14-2.067-2.033.14-.143z"/><path class="beast-nose-12-st-0" d="M-46.996 433.08l.142.14-2.034 2.068-.143-.14z"/></g><g><path class="beast-nose-12-st-0" d="M-51.685 435.15l-.14.144-2.067-2.035.14-.144z"/><path class="beast-nose-12-st-0" d="M-51.79 433.062l.144.14-2.035 2.067-.143-.142z"/></g><g><path class="beast-nose-12-st-0" d="M-56.44 435.132l-.14.143-2.066-2.035.14-.143z"/><path class="beast-nose-12-st-0" d="M-56.58 433.043l.142.14-2.035 2.067-.143-.14z"/></g><g><path class="beast-nose-12-st-0" d="M69.543 431.233l-.14.143-2.066-2.035.14-.14z"/><path class="beast-nose-12-st-0" d="M69.386 429.223l.143.14-2.036 2.067-.143-.14zM64.79 431.214l-.14.143-2.068-2.035.14-.142z"/><path class="beast-nose-12-st-0" d="M64.665 429.274l.143.14-2.035 2.067-.142-.14zM59.965 431.267l-.14.142-2.067-2.035.14-.143z"/><path class="beast-nose-12-st-0" d="M59.873 429.255l.142.14-2.034 2.067-.142-.14zM55.21 431.248l-.14.142-2.067-2.034.14-.143z"/><path class="beast-nose-12-st-0" d="M55.08 429.236l.143.14-2.034 2.067-.144-.14zM50.456 431.23l-.14.14-2.067-2.033.14-.143z"/><path class="beast-nose-12-st-0" d="M50.288 429.217l.143.14-2.034 2.067-.142-.14zM45.702 431.21l-.14.142-2.067-2.034.14-.143z"/><path class="beast-nose-12-st-0" d="M45.567 429.27l.143.14-2.035 2.065-.142-.14zM40.877 431.262l-.14.142-2.067-2.034.14-.143z"/><path class="beast-nose-12-st-0" d="M40.775 429.25l.143.14-2.035 2.066-.143-.14zM36.123 431.243l-.14.142-2.067-2.034.14-.142z"/><path class="beast-nose-12-st-0" d="M35.983 429.23l.142.14-2.034 2.067-.142-.14zM31.368 431.224l-.14.142-2.066-2.034.14-.143z"/><path class="beast-nose-12-st-0" d="M31.19 429.212l.143.14-2.035 2.067-.142-.142zM26.614 431.205l-.14.142-2.067-2.034.14-.143z"/><path class="beast-nose-12-st-0" d="M26.47 429.263l.142.14-2.035 2.067-.142-.14zM21.79 431.257l-.14.143-2.067-2.035.14-.143z"/><path class="beast-nose-12-st-0" d="M21.677 429.244l.143.14-2.035 2.067-.142-.14zM17.035 431.238l-.14.143-2.067-2.034.14-.143z"/><path class="beast-nose-12-st-0" d="M16.885 429.225l.142.14-2.034 2.067-.143-.14zM12.28 431.22l-.14.142-2.066-2.035.14-.143z"/><path class="beast-nose-12-st-0" d="M12.093 429.206l.142.14-2.034 2.067-.142-.14zM7.527 431.2l-.14.143-2.067-2.035.14-.142z"/><path class="beast-nose-12-st-0" d="M7.372 429.257l.142.14-2.035 2.067-.143-.14z"/><g><path class="beast-nose-12-st-0" d="M2.702 431.252l-.14.143-2.067-2.035.14-.142z"/><path class="beast-nose-12-st-0" d="M2.58 429.238l.142.14-2.035 2.067-.142-.14z"/></g><g><path class="beast-nose-12-st-0" d="M-2.052 431.233l-.14.143-2.067-2.035.14-.14z"/><path class="beast-nose-12-st-0" d="M-2.213 429.22l.143.14-2.035 2.066-.143-.14z"/></g><g><path class="beast-nose-12-st-0" d="M-6.807 431.214l-.14.143-2.066-2.035.14-.142z"/><path class="beast-nose-12-st-0" d="M-6.934 429.27l.143.14-2.036 2.068-.143-.14z"/></g><g><path class="beast-nose-12-st-0" d="M-11.63 431.267l-.14.142-2.068-2.035.14-.143z"/><path class="beast-nose-12-st-0" d="M-11.726 429.252l.142.14-2.034 2.067-.143-.142z"/></g><g><path class="beast-nose-12-st-0" d="M-16.385 431.248l-.14.142-2.067-2.034.14-.143z"/><path class="beast-nose-12-st-0" d="M-16.518 429.233l.142.14-2.035 2.067-.143-.14z"/></g><g><path class="beast-nose-12-st-0" d="M-21.14 431.23l-.14.14-2.067-2.033.14-.143z"/><path class="beast-nose-12-st-0" d="M-21.31 429.214l.142.14-2.035 2.067-.142-.14z"/></g><g><path class="beast-nose-12-st-0" d="M-25.894 431.21l-.14.142-2.067-2.035.14-.142z"/><path class="beast-nose-12-st-0" d="M-26.032 429.265l.143.14-2.034 2.067-.142-.14z"/></g><g><path class="beast-nose-12-st-0" d="M-30.718 431.262l-.14.142-2.067-2.034.14-.143z"/><path class="beast-nose-12-st-0" d="M-30.824 429.246l.143.14-2.036 2.067-.143-.14z"/></g><g><path class="beast-nose-12-st-0" d="M-35.473 431.243l-.14.142-2.067-2.034.14-.142z"/><path class="beast-nose-12-st-0" d="M-35.616 429.227l.142.14-2.034 2.067-.143-.14z"/></g><g><path class="beast-nose-12-st-0" d="M-40.227 431.224l-.14.142-2.067-2.034.14-.143z"/><path class="beast-nose-12-st-0" d="M-40.41 429.208l.144.14-2.035 2.067-.143-.14z"/></g><g><path class="beast-nose-12-st-0" d="M-44.98 431.205l-.142.142-2.066-2.034.14-.143z"/><path class="beast-nose-12-st-0" d="M-45.13 429.26l.143.14-2.035 2.066-.142-.14z"/></g><g><path class="beast-nose-12-st-0" d="M-49.806 431.257l-.14.143-2.067-2.035.14-.143z"/><path class="beast-nose-12-st-0" d="M-49.922 429.24l.143.14-2.034 2.067-.143-.14z"/></g><g><path class="beast-nose-12-st-0" d="M-54.56 431.238l-.14.143-2.067-2.034.14-.142z"/><path class="beast-nose-12-st-0" d="M-54.714 429.222l.142.14-2.034 2.066-.143-.14z"/></g><g><path class="beast-nose-12-st-0" d="M-59.315 431.22l-.14.142-2.066-2.035.14-.142z"/><path class="beast-nose-12-st-0" d="M-59.435 429.273l.142.14-2.034 2.067-.143-.14z"/></g></g><g><path class="beast-nose-12-st-0" d="M69.522 422.382l-.14.142-2.067-2.034.14-.143z"/><path class="beast-nose-12-st-0" d="M69.435 420.343l.143.14-2.035 2.067-.142-.14zM64.767 422.363l-.14.142-2.067-2.034.14-.142z"/><path class="beast-nose-12-st-0" d="M64.714 420.394l.143.14-2.035 2.067-.142-.14zM59.943 422.415l-.14.142-2.067-2.034.14-.143z"/><path class="beast-nose-12-st-0" d="M59.922 420.375l.142.14-2.034 2.067-.143-.14zM55.188 422.396l-.14.143-2.066-2.036.14-.143z"/><path class="beast-nose-12-st-0" d="M55.13 420.356l.142.14-2.034 2.067-.143-.14zM50.434 422.377l-.14.143-2.067-2.035.14-.143z"/><path class="beast-nose-12-st-0" d="M50.337 420.337l.143.14-2.035 2.067-.142-.14zM45.68 422.358l-.14.143-2.067-2.034.14-.143z"/><path class="beast-nose-12-st-0" d="M45.616 420.39l.143.14-2.036 2.065-.142-.14zM40.855 422.41l-.14.143-2.067-2.035.14-.142z"/><path class="beast-nose-12-st-0" d="M40.824 420.37l.143.14-2.035 2.067-.143-.14zM36.1 422.39l-.14.144-2.066-2.035.14-.143z"/><path class="beast-nose-12-st-0" d="M36.032 420.35l.142.14-2.034 2.068-.143-.14zM31.347 422.372l-.14.143-2.067-2.035.14-.142z"/><path class="beast-nose-12-st-0" d="M31.24 420.332l.142.14-2.035 2.067-.142-.142zM26.592 422.353l-.14.143-2.067-2.035.14-.14z"/><path class="beast-nose-12-st-0" d="M26.52 420.383l.14.14-2.034 2.067-.142-.14zM21.768 422.406l-.14.142-2.067-2.035.14-.142z"/><path class="beast-nose-12-st-0" d="M21.726 420.364l.143.14-2.036 2.067-.142-.14zM17.013 422.386l-.14.143-2.066-2.036.14-.142z"/><path class="beast-nose-12-st-0" d="M16.934 420.345l.143.14-2.035 2.067-.143-.14zM12.26 422.367l-.14.143-2.068-2.035.14-.142z"/><path class="beast-nose-12-st-0" d="M12.142 420.326l.142.14-2.034 2.067-.143-.14zM7.505 422.35l-.14.14-2.067-2.034.14-.142z"/><path class="beast-nose-12-st-0" d="M7.42 420.377l.143.14-2.034 2.067-.144-.14z"/><g><path class="beast-nose-12-st-0" d="M2.68 422.4l-.14.143-2.067-2.034.14-.144z"/><path class="beast-nose-12-st-0" d="M2.628 420.358l.143.14-2.034 2.067-.142-.14z"/></g><g><path class="beast-nose-12-st-0" d="M-2.074 422.382l-.14.142-2.067-2.034.14-.143z"/><path class="beast-nose-12-st-0" d="M-2.164 420.34l.143.14-2.036 2.066-.142-.14z"/></g><g><path class="beast-nose-12-st-0" d="M-6.828 422.363l-.14.142-2.067-2.034.14-.142z"/><path class="beast-nose-12-st-0" d="M-6.885 420.39l.143.14-2.035 2.068-.142-.14z"/></g><g><path class="beast-nose-12-st-0" d="M-11.653 422.415l-.14.143-2.067-2.035.14-.143z"/><path class="beast-nose-12-st-0" d="M-11.677 420.372l.142.14-2.034 2.067-.142-.142z"/></g><g><path class="beast-nose-12-st-0" d="M-16.407 422.396l-.14.142-2.067-2.034.14-.143z"/><path class="beast-nose-12-st-0" d="M-16.47 420.353l.143.14-2.035 2.067-.142-.14z"/></g><g><path class="beast-nose-12-st-0" d="M-21.16 422.377l-.142.142-2.066-2.035.14-.143z"/><path class="beast-nose-12-st-0" d="M-21.262 420.334l.143.14-2.034 2.067-.142-.14z"/></g><g><path class="beast-nose-12-st-0" d="M-25.916 422.358l-.14.142-2.067-2.034.14-.143z"/><path class="beast-nose-12-st-0" d="M-25.983 420.385l.143.14-2.035 2.067-.142-.14z"/></g><g><path class="beast-nose-12-st-0" d="M-30.74 422.41l-.14.143-2.067-2.035.14-.142z"/><path class="beast-nose-12-st-0" d="M-30.775 420.366l.143.14-2.035 2.067-.143-.14z"/></g><g><path class="beast-nose-12-st-0" d="M-35.495 422.39l-.14.144-2.067-2.035.14-.143z"/><path class="beast-nose-12-st-0" d="M-35.567 420.347l.142.14-2.034 2.067-.142-.14z"/></g><g><path class="beast-nose-12-st-0" d="M-40.25 422.372l-.14.143-2.066-2.035.14-.142z"/><path class="beast-nose-12-st-0" d="M-40.36 420.328l.143.14-2.035 2.067-.142-.14z"/></g><g><path class="beast-nose-12-st-0" d="M-45.003 422.353l-.14.143-2.067-2.035.14-.14z"/><path class="beast-nose-12-st-0" d="M-45.08 420.38l.142.14-2.035 2.066-.142-.14z"/></g><g><path class="beast-nose-12-st-0" d="M-49.828 422.405l-.14.143-2.067-2.035.14-.142z"/><path class="beast-nose-12-st-0" d="M-49.873 420.36l.143.14-2.035 2.067-.142-.14z"/></g><g><path class="beast-nose-12-st-0" d="M-54.582 422.387l-.14.142-2.067-2.036.14-.142z"/><path class="beast-nose-12-st-0" d="M-54.665 420.342l.142.14-2.034 2.067-.143-.142z"/></g><g><path class="beast-nose-12-st-0" d="M-59.336 422.368l-.14.142-2.067-2.035.14-.142z"/><path class="beast-nose-12-st-0" d="M-59.386 420.393l.142.14-2.034 2.067-.143-.14z"/></g></g><g><path class="beast-nose-12-st-0" d="M72.43 426.77l-.142.143-2.066-2.035.14-.142z"/><path class="beast-nose-12-st-0" d="M72.322 424.667l.142.14-2.034 2.067-.143-.14zM67.674 426.752l-.14.142-2.067-2.035.14-.143z"/><path class="beast-nose-12-st-0" d="M67.53 424.648l.142.14-2.035 2.067-.142-.14zM62.92 426.732l-.14.143-2.067-2.035.14-.142z"/><path class="beast-nose-12-st-0" d="M62.737 424.63l.143.14-2.035 2.066-.142-.14zM58.166 426.713l-.14.143-2.067-2.035.14-.14z"/><path class="beast-nose-12-st-0" d="M58.016 424.68l.143.14-2.036 2.067-.142-.14zM53.34 426.766l-.14.142-2.066-2.034.14-.143z"/><path class="beast-nose-12-st-0" d="M53.224 424.66l.142.142-2.034 2.066-.143-.14zM48.587 426.747l-.14.142-2.067-2.035.14-.143z"/><path class="beast-nose-12-st-0" d="M48.432 424.643l.142.14-2.034 2.066-.143-.14zM43.832 426.728l-.14.142-2.066-2.034.14-.143z"/><path class="beast-nose-12-st-0" d="M43.71 424.694l.143.14-2.034 2.067-.144-.14zM39.008 426.78l-.14.143-2.067-2.035.14-.143z"/><path class="beast-nose-12-st-0" d="M38.918 424.675l.143.14-2.034 2.067-.142-.14zM34.254 426.76l-.14.144-2.067-2.035.14-.144z"/><path class="beast-nose-12-st-0" d="M34.126 424.656l.143.14-2.036 2.067-.142-.14zM29.5 426.742l-.14.143-2.068-2.035.14-.143z"/><path class="beast-nose-12-st-0" d="M29.334 424.637l.142.14-2.034 2.067-.143-.14zM24.745 426.723l-.14.143-2.067-2.035.14-.142z"/><path class="beast-nose-12-st-0" d="M24.613 424.688l.142.14-2.034 2.067-.142-.14zM19.92 426.775l-.14.143-2.066-2.035.14-.142z"/><path class="beast-nose-12-st-0" d="M19.82 424.67l.143.14-2.035 2.066-.142-.14zM15.166 426.756l-.14.143-2.067-2.036.14-.142z"/><path class="beast-nose-12-st-0" d="M15.028 424.65l.143.14-2.034 2.067-.142-.14zM10.412 426.737l-.14.143-2.067-2.035.14-.142z"/><path class="beast-nose-12-st-0" d="M10.236 424.63l.143.142-2.036 2.066-.143-.14z"/><g><path class="beast-nose-12-st-0" d="M5.657 426.718l-.14.143-2.066-2.034.14-.142z"/><path class="beast-nose-12-st-0" d="M5.515 424.683l.143.14-2.035 2.067-.143-.14z"/></g><g><path class="beast-nose-12-st-0" d="M.833 426.77l-.14.143-2.067-2.035.14-.142z"/><path class="beast-nose-12-st-0" d="M.723 424.664l.142.14-2.034 2.067-.142-.14z"/></g><g><path class="beast-nose-12-st-0" d="M-3.92 426.75l-.142.144-2.066-2.035.14-.143z"/><path class="beast-nose-12-st-0" d="M-4.07 424.645l.143.14-2.035 2.067-.142-.14z"/></g><g><path class="beast-nose-12-st-0" d="M-8.676 426.732l-.14.143-2.067-2.035.14-.142z"/><path class="beast-nose-12-st-0" d="M-8.862 424.626l.143.14-2.034 2.067-.142-.14z"/></g><g><path class="beast-nose-12-st-0" d="M-13.43 426.714l-.14.142-2.067-2.035.14-.14z"/><path class="beast-nose-12-st-0" d="M-13.583 424.677l.143.14-2.035 2.067-.142-.14z"/></g><g><path class="beast-nose-12-st-0" d="M-18.255 426.766l-.14.142-2.066-2.034.14-.143z"/><path class="beast-nose-12-st-0" d="M-18.375 424.658l.142.14-2.034 2.067-.143-.14z"/></g><g><path class="beast-nose-12-st-0" d="M-23.01 426.747l-.14.142-2.066-2.035.14-.143z"/><path class="beast-nose-12-st-0" d="M-23.167 424.64l.142.14-2.035 2.066-.142-.14z"/></g><g><path class="beast-nose-12-st-0" d="M-27.763 426.728l-.14.142-2.067-2.034.14-.143z"/><path class="beast-nose-12-st-0" d="M-27.888 424.69l.142.14-2.034 2.067-.143-.14z"/></g><g><path class="beast-nose-12-st-0" d="M-32.588 426.78l-.14.143-2.067-2.035.14-.143z"/><path class="beast-nose-12-st-0" d="M-32.68 424.67l.142.142-2.035 2.066-.142-.14z"/></g><g><path class="beast-nose-12-st-0" d="M-37.342 426.76l-.14.143-2.067-2.034.14-.144z"/><path class="beast-nose-12-st-0" d="M-37.473 424.652l.143.14-2.035 2.067-.143-.14z"/></g><g><path class="beast-nose-12-st-0" d="M-42.096 426.742l-.14.142-2.067-2.034.14-.143z"/><path class="beast-nose-12-st-0" d="M-42.265 424.634l.142.14-2.034 2.066-.143-.14z"/></g><g><path class="beast-nose-12-st-0" d="M-46.85 426.723l-.14.142-2.068-2.034.14-.142z"/><path class="beast-nose-12-st-0" d="M-46.986 424.685l.142.14-2.034 2.067-.143-.14z"/></g><g><path class="beast-nose-12-st-0" d="M-51.675 426.775l-.14.143-2.067-2.035.14-.142z"/><path class="beast-nose-12-st-0" d="M-51.778 424.666l.142.14-2.035 2.067-.143-.14z"/></g><g><path class="beast-nose-12-st-0" d="M-56.43 426.756l-.14.143-2.066-2.036.14-.142z"/><path class="beast-nose-12-st-0" d="M-56.57 424.647l.142.14-2.035 2.067-.142-.14z"/></g></g><g><path class="beast-nose-12-st-0" d="M72.39 418.38l-.14.143-2.066-2.035.14-.142z"/><path class="beast-nose-12-st-0" d="M72.285 416.352l.142.14-2.034 2.067-.143-.142zM67.636 418.36l-.14.144-2.067-2.035.14-.143z"/><path class="beast-nose-12-st-0" d="M67.493 416.333l.142.14-2.035 2.067-.142-.14zM62.882 418.342l-.14.143-2.067-2.035.14-.142z"/><path class="beast-nose-12-st-0" d="M62.7 416.314l.143.14-2.035 2.067-.142-.14zM58.128 418.323l-.14.143-2.067-2.035.14-.14z"/><path class="beast-nose-12-st-0" d="M57.98 416.365l.142.14-2.035 2.067-.142-.14zM53.303 418.376l-.14.142-2.067-2.035.14-.142z"/><path class="beast-nose-12-st-0" d="M53.187 416.346l.143.14-2.035 2.067-.143-.14zM48.55 418.357l-.142.142-2.066-2.036.14-.142z"/><path class="beast-nose-12-st-0" d="M48.395 416.327l.142.14-2.034 2.067-.143-.14zM43.794 418.337l-.14.143-2.066-2.035.14-.142z"/><path class="beast-nose-12-st-0" d="M43.674 416.38l.142.14-2.034 2.065-.143-.14zM38.97 418.39l-.14.142-2.067-2.034.14-.143z"/><path class="beast-nose-12-st-0" d="M38.88 416.36l.144.14-2.035 2.066-.143-.14zM34.216 418.37l-.14.143-2.067-2.034.14-.144z"/><path class="beast-nose-12-st-0" d="M34.09 416.34l.142.14-2.035 2.068-.142-.14zM29.46 418.352l-.14.142-2.066-2.034.14-.143z"/><path class="beast-nose-12-st-0" d="M29.297 416.322l.142.14-2.035 2.067-.143-.142zM24.707 418.333l-.14.142-2.067-2.034.14-.142z"/><path class="beast-nose-12-st-0" d="M24.576 416.373l.142.14-2.034 2.067-.143-.14zM19.882 418.385l-.14.143-2.066-2.035.14-.143z"/><path class="beast-nose-12-st-0" d="M19.784 416.354l.142.14-2.035 2.067-.14-.14zM15.128 418.366l-.14.143-2.067-2.036.142-.143z"/><path class="beast-nose-12-st-0" d="M14.99 416.335l.144.14-2.035 2.067-.143-.14zM10.374 418.347l-.14.143-2.067-2.035.14-.143z"/><path class="beast-nose-12-st-0" d="M10.2 416.316l.142.14-2.035 2.067-.143-.14z"/><g><path class="beast-nose-12-st-0" d="M5.62 418.328l-.14.143-2.067-2.034.14-.143z"/><path class="beast-nose-12-st-0" d="M5.478 416.367l.143.14-2.034 2.067-.143-.14z"/></g><g><path class="beast-nose-12-st-0" d="M.795 418.38l-.14.143-2.067-2.035.14-.142z"/><path class="beast-nose-12-st-0" d="M.686 416.35l.142.14-2.034 2.065-.143-.14z"/></g><g><path class="beast-nose-12-st-0" d="M-3.96 418.36l-.14.144-2.066-2.035.14-.143z"/><path class="beast-nose-12-st-0" d="M-4.107 416.33l.143.14L-6 418.536l-.14-.14z"/></g><g><path class="beast-nose-12-st-0" d="M-8.714 418.342l-.14.143-2.067-2.035.14-.142z"/><path class="beast-nose-12-st-0" d="M-8.9 416.31l.144.14-2.035 2.067-.143-.14z"/></g><g><path class="beast-nose-12-st-0" d="M-13.468 418.323l-.14.143-2.067-2.035.14-.14z"/><path class="beast-nose-12-st-0" d="M-13.62 416.362l.143.14-2.035 2.067-.142-.142z"/></g><g><path class="beast-nose-12-st-0" d="M-18.293 418.376l-.14.142-2.066-2.035.14-.142z"/><path class="beast-nose-12-st-0" d="M-18.412 416.343l.142.14-2.034 2.067-.143-.14z"/></g><g><path class="beast-nose-12-st-0" d="M-23.047 418.356l-.14.143-2.067-2.036.14-.142z"/><path class="beast-nose-12-st-0" d="M-23.204 416.324l.142.14-2.034 2.067-.143-.14z"/></g><g><path class="beast-nose-12-st-0" d="M-27.8 418.338l-.142.142-2.066-2.035.14-.142z"/><path class="beast-nose-12-st-0" d="M-27.925 416.375l.142.14-2.034 2.067-.143-.14z"/></g><g><path class="beast-nose-12-st-0" d="M-32.626 418.39l-.14.142-2.067-2.034.14-.143z"/><path class="beast-nose-12-st-0" d="M-32.718 416.356l.143.14-2.035 2.067-.142-.14z"/></g><g><path class="beast-nose-12-st-0" d="M-37.38 418.37l-.14.143-2.067-2.034.14-.144z"/><path class="beast-nose-12-st-0" d="M-37.51 416.337l.143.14-2.035 2.067-.143-.14z"/></g><g><path class="beast-nose-12-st-0" d="M-42.134 418.352l-.14.142-2.067-2.034.14-.143z"/><path class="beast-nose-12-st-0" d="M-42.302 416.318l.142.14-2.034 2.067-.143-.14z"/></g><g><path class="beast-nose-12-st-0" d="M-46.89 418.333l-.14.142-2.065-2.034.14-.142z"/><path class="beast-nose-12-st-0" d="M-47.023 416.37l.142.14-2.035 2.066-.143-.14z"/></g><g><path class="beast-nose-12-st-0" d="M-51.713 418.385l-.14.143-2.067-2.035.14-.143z"/><path class="beast-nose-12-st-0" d="M-51.815 416.35l.142.14-2.035 2.067-.142-.14z"/></g><g><path class="beast-nose-12-st-0" d="M-56.468 418.366l-.14.142-2.066-2.034.14-.143z"/><path class="beast-nose-12-st-0" d="M-56.608 416.332l.143.14-2.035 2.067-.142-.142z"/></g></g><g><path class="beast-nose-12-st-0" d="M69.587 414.537l-.14.143-2.067-2.035.14-.142z"/><path class="beast-nose-12-st-0" d="M69.43 412.44l.142.14-2.035 2.067-.142-.14zM64.832 414.52l-.14.14-2.067-2.034.14-.142z"/><path class="beast-nose-12-st-0" d="M64.708 412.492l.143.14-2.034 2.067-.142-.142zM60.008 414.57l-.14.143-2.067-2.034.14-.144z"/><path class="beast-nose-12-st-0" d="M59.916 412.473l.143.14-2.036 2.067-.142-.14zM55.253 414.552l-.14.142-2.066-2.034.14-.143z"/><path class="beast-nose-12-st-0" d="M55.124 412.454l.142.14-2.034 2.067-.143-.14zM50.5 414.533l-.14.142-2.068-2.034.14-.142z"/><path class="beast-nose-12-st-0" d="M50.332 412.435l.142.14-2.035 2.067-.143-.14zM45.745 414.514l-.14.142-2.067-2.034.14-.143z"/><path class="beast-nose-12-st-0" d="M45.61 412.486l.143.14-2.035 2.067-.142-.14zM40.92 414.566l-.14.143-2.067-2.036.14-.143z"/><path class="beast-nose-12-st-0" d="M40.818 412.467l.143.14-2.034 2.067-.142-.14zM36.166 414.547l-.14.143-2.067-2.035.14-.143z"/><path class="beast-nose-12-st-0" d="M36.026 412.448l.143.14-2.036 2.067-.143-.14zM31.412 414.528l-.14.142-2.067-2.034.14-.143z"/><path class="beast-nose-12-st-0" d="M31.234 412.43l.142.14-2.034 2.066-.143-.14zM26.657 414.51l-.14.142-2.067-2.035.14-.143z"/><path class="beast-nose-12-st-0" d="M26.513 412.48l.142.14-2.034 2.067-.142-.14zM21.833 414.56l-.14.144-2.067-2.035.14-.143z"/><path class="beast-nose-12-st-0" d="M21.72 412.462l.143.14-2.035 2.066-.142-.14zM17.08 414.542l-.142.143-2.066-2.035.14-.142z"/><path class="beast-nose-12-st-0" d="M16.928 412.443l.143.14-2.034 2.067-.142-.14zM12.324 414.523l-.14.143-2.067-2.035.14-.14z"/><path class="beast-nose-12-st-0" d="M12.136 412.424l.142.14-2.034 2.067-.143-.14zM7.57 414.504l-.14.143-2.067-2.035.14-.142z"/><path class="beast-nose-12-st-0" d="M7.415 412.475l.142.14-2.034 2.067-.143-.14z"/><g><path class="beast-nose-12-st-0" d="M2.745 414.556l-.14.143-2.067-2.036.14-.142z"/><path class="beast-nose-12-st-0" d="M2.623 412.456l.142.14-2.035 2.067-.142-.14z"/></g><g><path class="beast-nose-12-st-0" d="M-2.01 414.537l-.14.143-2.066-2.035.14-.142z"/><path class="beast-nose-12-st-0" d="M-2.17 412.437l.143.14-2.035 2.067-.142-.14z"/></g><g><path class="beast-nose-12-st-0" d="M-6.763 414.518l-.14.143-2.067-2.034.14-.142z"/><path class="beast-nose-12-st-0" d="M-6.89 412.488l.142.14-2.035 2.067-.142-.14z"/></g><g><path class="beast-nose-12-st-0" d="M-11.588 414.57l-.14.143-2.067-2.034.14-.144z"/><path class="beast-nose-12-st-0" d="M-11.683 412.47l.143.14-2.035 2.066-.143-.14z"/></g><g><path class="beast-nose-12-st-0" d="M-16.342 414.552l-.14.142-2.067-2.034.14-.143z"/><path class="beast-nose-12-st-0" d="M-16.475 412.45l.142.14-2.034 2.067-.143-.14z"/></g><g><path class="beast-nose-12-st-0" d="M-21.096 414.533l-.14.142-2.067-2.034.14-.142z"/><path class="beast-nose-12-st-0" d="M-21.267 412.43l.142.142-2.035 2.066-.142-.14z"/></g><g><path class="beast-nose-12-st-0" d="M-25.85 414.514l-.14.142-2.068-2.034.14-.143z"/><path class="beast-nose-12-st-0" d="M-25.988 412.483l.142.14-2.035 2.067-.143-.14z"/></g><g><path class="beast-nose-12-st-0" d="M-30.675 414.566l-.14.142-2.067-2.034.14-.143z"/><path class="beast-nose-12-st-0" d="M-30.78 412.464l.142.14-2.035 2.067-.142-.14z"/></g><g><path class="beast-nose-12-st-0" d="M-35.43 414.547l-.14.142-2.067-2.035.14-.143z"/><path class="beast-nose-12-st-0" d="M-35.573 412.445l.142.14-2.035 2.067-.143-.14z"/></g><g><path class="beast-nose-12-st-0" d="M-40.184 414.528l-.14.143-2.067-2.034.14-.143z"/><path class="beast-nose-12-st-0" d="M-40.365 412.426l.142.14-2.034 2.067-.143-.14z"/></g><g><path class="beast-nose-12-st-0" d="M-44.938 414.51l-.14.14-2.067-2.033.14-.143z"/><path class="beast-nose-12-st-0" d="M-45.086 412.477l.142.14-2.034 2.067-.143-.14z"/></g><g><path class="beast-nose-12-st-0" d="M-49.763 414.56l-.14.144-2.067-2.035.14-.143z"/><path class="beast-nose-12-st-0" d="M-49.88 412.458l.144.14-2.035 2.067-.143-.14z"/></g><g><path class="beast-nose-12-st-0" d="M-54.517 414.542l-.14.143-2.067-2.035.14-.142z"/><path class="beast-nose-12-st-0" d="M-54.67 412.44l.142.14-2.035 2.066-.143-.14z"/></g><g><path class="beast-nose-12-st-0" d="M-59.27 414.523l-.142.143-2.066-2.035.14-.14z"/><path class="beast-nose-12-st-0" d="M-59.392 412.49l.143.14-2.034 2.067-.143-.14z"/></g></g><g><path class="beast-nose-12-st-0" d="M69.565 405.686l-.14.142-2.067-2.034.14-.143z"/><path class="beast-nose-12-st-0" d="M69.408 403.632l.143.14-2.034 2.067-.142-.142z"/></g><g><path class="beast-nose-12-st-0" d="M64.81 405.667l-.14.142-2.066-2.035.14-.143z"/><path class="beast-nose-12-st-0" d="M64.687 403.683l.143.14-2.035 2.067-.142-.14z"/></g><g><path class="beast-nose-12-st-0" d="M59.986 405.72l-.14.142-2.067-2.035.14-.143z"/><path class="beast-nose-12-st-0" d="M59.895 403.664l.143.14-2.035 2.067-.143-.14z"/></g><g><path class="beast-nose-12-st-0" d="M55.232 405.7l-.14.143-2.067-2.035.14-.143z"/><path class="beast-nose-12-st-0" d="M55.103 403.645l.142.14-2.034 2.067-.142-.14z"/></g><g><path class="beast-nose-12-st-0" d="M50.477 405.68l-.14.144-2.067-2.035.14-.144z"/><path class="beast-nose-12-st-0" d="M50.31 403.626l.143.14-2.035 2.067-.142-.14z"/></g><g><path class="beast-nose-12-st-0" d="M45.723 405.662l-.14.143-2.067-2.035.14-.143z"/><path class="beast-nose-12-st-0" d="M45.59 403.677l.142.14-2.035 2.067-.142-.14z"/></g><g><path class="beast-nose-12-st-0" d="M40.898 405.714l-.14.143-2.066-2.035.14-.142z"/><path class="beast-nose-12-st-0" d="M40.797 403.66l.143.14-2.035 2.065-.142-.14z"/></g><g><path class="beast-nose-12-st-0" d="M36.144 405.695l-.14.143-2.067-2.035.14-.142z"/><path class="beast-nose-12-st-0" d="M36.005 403.64l.143.14-2.035 2.066-.143-.14z"/></g><g><path class="beast-nose-12-st-0" d="M31.39 405.676l-.14.143-2.067-2.036.14-.142z"/><path class="beast-nose-12-st-0" d="M31.213 403.62l.142.14-2.034 2.067-.142-.14z"/></g><g><path class="beast-nose-12-st-0" d="M26.635 405.657l-.14.143-2.066-2.035.14-.142z"/><path class="beast-nose-12-st-0" d="M26.492 403.672l.142.14-2.034 2.067-.143-.142z"/></g><g><path class="beast-nose-12-st-0" d="M21.81 405.71l-.14.142-2.066-2.034.14-.143z"/><path class="beast-nose-12-st-0" d="M21.7 403.653l.142.14-2.035 2.067-.142-.14z"/></g><g><path class="beast-nose-12-st-0" d="M17.057 405.69l-.14.143-2.067-2.035.14-.142z"/><path class="beast-nose-12-st-0" d="M16.907 403.634l.143.14-2.035 2.067-.142-.14z"/></g><g><path class="beast-nose-12-st-0" d="M12.302 405.672l-.14.142-2.067-2.035.14-.143z"/><path class="beast-nose-12-st-0" d="M12.115 403.615l.142.14-2.034 2.067-.143-.14z"/></g><g><path class="beast-nose-12-st-0" d="M7.548 405.653l-.14.142-2.067-2.035.14-.142z"/><path class="beast-nose-12-st-0" d="M7.394 403.666l.142.14-2.034 2.067-.143-.14z"/></g><g><path class="beast-nose-12-st-0" d="M2.723 405.705l-.14.142-2.066-2.034.14-.143z"/><path class="beast-nose-12-st-0" d="M2.602 403.647l.142.14-2.035 2.067-.143-.14z"/></g><g><path class="beast-nose-12-st-0" d="M-2.03 405.686l-.14.142-2.068-2.034.14-.143z"/><path class="beast-nose-12-st-0" d="M-2.19 403.628l.142.14-2.035 2.067-.142-.14z"/></g><g><path class="beast-nose-12-st-0" d="M-6.785 405.667l-.14.142-2.067-2.035.14-.143z"/><path class="beast-nose-12-st-0" d="M-6.912 403.68l.143.14-2.034 2.066-.142-.14z"/></g><g><path class="beast-nose-12-st-0" d="M-11.61 405.72l-.14.142-2.067-2.035.14-.143z"/><path class="beast-nose-12-st-0" d="M-11.704 403.66l.143.14-2.036 2.068-.143-.14z"/></g><g><path class="beast-nose-12-st-0" d="M-16.364 405.7l-.14.143-2.067-2.035.14-.143z"/><path class="beast-nose-12-st-0" d="M-16.496 403.642l.142.14-2.034 2.067-.143-.142z"/></g><g><path class="beast-nose-12-st-0" d="M-21.118 405.68l-.14.144-2.067-2.035.14-.144z"/><path class="beast-nose-12-st-0" d="M-21.29 403.623l.144.14-2.035 2.067-.143-.14z"/></g><g><path class="beast-nose-12-st-0" d="M-25.873 405.662l-.14.143-2.067-2.035.14-.143z"/><path class="beast-nose-12-st-0" d="M-26.01 403.674l.143.14-2.035 2.067-.142-.14z"/></g><g><path class="beast-nose-12-st-0" d="M-30.697 405.714l-.14.143-2.067-2.035.14-.142z"/><path class="beast-nose-12-st-0" d="M-30.802 403.655l.143.14-2.034 2.067-.143-.14z"/></g><g><path class="beast-nose-12-st-0" d="M-35.452 405.695l-.14.143-2.066-2.035.14-.142z"/><path class="beast-nose-12-st-0" d="M-35.594 403.636l.142.14-2.034 2.067-.143-.14z"/></g><g><path class="beast-nose-12-st-0" d="M-40.206 405.676l-.14.143-2.067-2.036.14-.142z"/><path class="beast-nose-12-st-0" d="M-40.386 403.617l.142.14-2.034 2.067-.143-.14z"/></g><g><path class="beast-nose-12-st-0" d="M-44.96 405.657l-.14.143-2.067-2.035.14-.142z"/><path class="beast-nose-12-st-0" d="M-45.107 403.668l.142.14-2.034 2.067-.142-.14z"/></g><g><path class="beast-nose-12-st-0" d="M-49.785 405.71l-.14.142-2.067-2.035.14-.142z"/><path class="beast-nose-12-st-0" d="M-49.9 403.65l.143.14-2.035 2.066-.142-.14z"/></g><g><path class="beast-nose-12-st-0" d="M-54.54 405.69l-.14.143-2.066-2.035.14-.142z"/><path class="beast-nose-12-st-0" d="M-54.692 403.63l.143.14-2.034 2.067-.143-.14z"/></g><g><path class="beast-nose-12-st-0" d="M72.4 410.004l-.14.143-2.066-2.035.14-.142z"/><path class="beast-nose-12-st-0" d="M72.295 407.956l.142.14-2.034 2.067-.143-.14zM67.646 409.985l-.14.143-2.067-2.035.14-.142z"/><path class="beast-nose-12-st-0" d="M67.503 407.937l.142.14-2.034 2.067-.142-.14zM62.892 409.966l-.14.143-2.067-2.036.14-.142z"/><path class="beast-nose-12-st-0" d="M62.71 407.918l.143.14-2.035 2.067-.142-.14zM58.137 409.947l-.14.143-2.066-2.035.14-.142z"/><path class="beast-nose-12-st-0" d="M57.99 407.97l.142.14-2.035 2.066-.142-.14zM53.313 410l-.14.142-2.067-2.034.14-.143z"/><path class="beast-nose-12-st-0" d="M53.197 407.95l.143.14-2.035 2.067-.142-.14zM48.56 409.98l-.142.143-2.066-2.034.14-.144z"/><path class="beast-nose-12-st-0" d="M48.405 407.93l.142.142-2.034 2.066-.143-.14zM43.804 409.962l-.14.142-2.066-2.035.14-.143z"/><path class="beast-nose-12-st-0" d="M43.684 407.983l.142.14-2.034 2.067-.143-.14zM38.98 410.014l-.14.142-2.067-2.034.14-.143z"/><path class="beast-nose-12-st-0" d="M38.892 407.964l.142.14L37 410.17l-.143-.14zM34.225 409.995l-.14.142-2.066-2.034.14-.143z"/><path class="beast-nose-12-st-0" d="M34.1 407.945l.142.14-2.035 2.067-.142-.14zM29.47 409.976l-.14.142-2.066-2.034.14-.143z"/><path class="beast-nose-12-st-0" d="M29.307 407.926l.143.14-2.035 2.067-.143-.14zM24.717 409.957l-.14.142-2.067-2.035.14-.143z"/><path class="beast-nose-12-st-0" d="M24.586 407.977l.143.14-2.036 2.067-.143-.14zM19.892 410.01l-.14.142-2.066-2.035.14-.143z"/><path class="beast-nose-12-st-0" d="M19.794 407.958l.142.14-2.034 2.067-.143-.14zM15.138 409.99l-.14.143-2.067-2.035.142-.142z"/><path class="beast-nose-12-st-0" d="M15 407.94l.144.14-2.035 2.066-.143-.14zM10.384 409.97l-.14.144-2.067-2.035.14-.143z"/><path class="beast-nose-12-st-0" d="M10.21 407.92l.142.14-2.035 2.067-.142-.14z"/><g><path class="beast-nose-12-st-0" d="M5.63 409.952l-.14.143-2.068-2.035.14-.142z"/><path class="beast-nose-12-st-0" d="M5.488 407.972l.143.14-2.034 2.066-.142-.14z"/></g><g><path class="beast-nose-12-st-0" d="M.805 410.004l-.14.143-2.067-2.035.14-.142z"/><path class="beast-nose-12-st-0" d="M.696 407.953l.142.14-2.034 2.066-.143-.14z"/></g><g><path class="beast-nose-12-st-0" d="M-3.95 409.985l-.14.143-2.066-2.035.14-.142z"/><path class="beast-nose-12-st-0" d="M-4.096 407.934l.142.14-2.035 2.066-.14-.14z"/></g><g><path class="beast-nose-12-st-0" d="M-8.704 409.966l-.14.143-2.067-2.036.14-.142z"/><path class="beast-nose-12-st-0" d="M-8.89 407.915l.144.14-2.035 2.067-.143-.14z"/></g><g><path class="beast-nose-12-st-0" d="M-13.458 409.947l-.14.143-2.067-2.035.14-.142z"/><path class="beast-nose-12-st-0" d="M-13.61 407.966l.143.14-2.035 2.067-.142-.14z"/></g><g><path class="beast-nose-12-st-0" d="M-18.283 410l-.14.142-2.066-2.034.14-.143z"/><path class="beast-nose-12-st-0" d="M-18.402 407.947l.143.14-2.034 2.067-.143-.14z"/></g><g><path class="beast-nose-12-st-0" d="M-23.037 409.98l-.14.143-2.067-2.034.14-.144z"/><path class="beast-nose-12-st-0" d="M-23.194 407.928l.142.14-2.034 2.067-.143-.14z"/></g><g><path class="beast-nose-12-st-0" d="M-27.79 409.962l-.142.142-2.066-2.034.14-.143z"/><path class="beast-nose-12-st-0" d="M-27.915 407.98l.142.14-2.034 2.066-.143-.14z"/></g><g><path class="beast-nose-12-st-0" d="M-32.616 410.014l-.14.142-2.067-2.034.14-.143z"/><path class="beast-nose-12-st-0" d="M-32.707 407.96l.142.14-2.035 2.067-.142-.14z"/></g><g><path class="beast-nose-12-st-0" d="M-37.37 409.995l-.14.142-2.067-2.034.14-.143z"/><path class="beast-nose-12-st-0" d="M-37.5 407.94l.143.142-2.035 2.066-.142-.14z"/></g><g><path class="beast-nose-12-st-0" d="M-42.124 409.976l-.14.142-2.067-2.034.14-.143z"/><path class="beast-nose-12-st-0" d="M-42.292 407.922l.142.14-2.034 2.067-.143-.14z"/></g><g><path class="beast-nose-12-st-0" d="M-46.88 409.957l-.14.142-2.066-2.035.14-.143z"/><path class="beast-nose-12-st-0" d="M-47.013 407.974l.142.14-2.035 2.067-.143-.14z"/></g><g><path class="beast-nose-12-st-0" d="M-51.703 410.01l-.14.142-2.067-2.035.14-.142z"/><path class="beast-nose-12-st-0" d="M-51.805 407.955l.142.14-2.034 2.067-.143-.14z"/></g><g><path class="beast-nose-12-st-0" d="M-56.458 409.99l-.14.143-2.066-2.035.14-.142z"/><path class="beast-nose-12-st-0" d="M-56.598 407.936l.143.14-2.035 2.067-.142-.14z"/></g></g><g><path class="beast-nose-12-st-0" d="M67.608 401.595l-.14.143-2.067-2.035.142-.143z"/><path class="beast-nose-12-st-0" d="M67.536 399.55l.142.14-2.034 2.067-.143-.14z"/></g><g><path class="beast-nose-12-st-0" d="M62.854 401.576l-.14.143-2.067-2.036.14-.142z"/><path class="beast-nose-12-st-0" d="M62.744 399.532l.142.14-2.035 2.066-.14-.14z"/></g><g><path class="beast-nose-12-st-0" d="M58.1 401.557l-.14.143-2.067-2.035.14-.142z"/><path class="beast-nose-12-st-0" d="M58.023 399.583l.142.14-2.035 2.067-.142-.14z"/></g><g><path class="beast-nose-12-st-0" d="M53.275 401.61l-.14.142-2.067-2.035.14-.142z"/><path class="beast-nose-12-st-0" d="M53.23 399.564l.143.14-2.035 2.067-.142-.14z"/></g><g><path class="beast-nose-12-st-0" d="M48.52 401.59l-.14.143-2.066-2.035.14-.142z"/><path class="beast-nose-12-st-0" d="M48.438 399.545l.143.14-2.034 2.067-.143-.14z"/></g><g><path class="beast-nose-12-st-0" d="M43.766 401.57l-.14.144-2.067-2.035.14-.143z"/><path class="beast-nose-12-st-0" d="M43.717 399.596l.143.14-2.035 2.067-.143-.14z"/></g><g><path class="beast-nose-12-st-0" d="M38.942 401.624l-.14.142-2.067-2.034.14-.143z"/><path class="beast-nose-12-st-0" d="M38.925 399.577l.142.14-2.034 2.067-.143-.14z"/></g><g><path class="beast-nose-12-st-0" d="M34.187 401.605l-.14.142-2.066-2.034.14-.143z"/><path class="beast-nose-12-st-0" d="M34.132 399.558l.143.14-2.035 2.067-.142-.14z"/></g><g><path class="beast-nose-12-st-0" d="M29.433 401.586l-.14.142-2.067-2.034.14-.143z"/><path class="beast-nose-12-st-0" d="M29.34 399.54l.143.14-2.035 2.066-.142-.14z"/></g><g><path class="beast-nose-12-st-0" d="M24.68 401.567l-.14.142-2.068-2.036.14-.142z"/><path class="beast-nose-12-st-0" d="M24.62 399.59l.142.14-2.035 2.068-.142-.14z"/></g><g><path class="beast-nose-12-st-0" d="M19.854 401.62l-.14.14-2.067-2.033.14-.143z"/><path class="beast-nose-12-st-0" d="M19.827 399.572l.142.14-2.035 2.067-.143-.142z"/></g><g><path class="beast-nose-12-st-0" d="M15.1 401.6l-.14.142-2.067-2.034.14-.143z"/><path class="beast-nose-12-st-0" d="M15.035 399.553l.142.14-2.035 2.067-.142-.14z"/></g><g><path class="beast-nose-12-st-0" d="M10.346 401.58l-.14.143-2.067-2.034.14-.144z"/><path class="beast-nose-12-st-0" d="M10.242 399.534l.143.14-2.035 2.067-.142-.14z"/></g><g><path class="beast-nose-12-st-0" d="M5.59 401.562l-.14.142-2.065-2.034.14-.143z"/><path class="beast-nose-12-st-0" d="M5.52 399.585l.144.14-2.035 2.067-.143-.14z"/></g><g><path class="beast-nose-12-st-0" d="M.767 401.614l-.14.143-2.067-2.035.14-.142z"/><path class="beast-nose-12-st-0" d="M.73 399.566l.142.14-2.035 2.067-.143-.14z"/></g><g><path class="beast-nose-12-st-0" d="M-3.988 401.595l-.14.143-2.066-2.035.14-.142z"/><path class="beast-nose-12-st-0" d="M-4.063 399.547l.142.14-2.035 2.067-.143-.14z"/></g><g><path class="beast-nose-12-st-0" d="M-8.742 401.576l-.14.143-2.067-2.036.142-.142z"/><path class="beast-nose-12-st-0" d="M-8.855 399.528l.142.14-2.035 2.067-.142-.14z"/></g><g><path class="beast-nose-12-st-0" d="M-13.496 401.557l-.14.143-2.067-2.035.14-.142z"/><path class="beast-nose-12-st-0" d="M-13.576 399.58l.142.14-2.035 2.066-.14-.14z"/></g><g><path class="beast-nose-12-st-0" d="M-18.32 401.61l-.14.142-2.067-2.035.14-.142z"/><path class="beast-nose-12-st-0" d="M-18.37 399.56l.144.14-2.035 2.067-.143-.14z"/></g><g><path class="beast-nose-12-st-0" d="M-23.075 401.59l-.14.143-2.067-2.035.14-.142z"/><path class="beast-nose-12-st-0" d="M-23.16 399.542l.14.14-2.033 2.066-.143-.14z"/></g><g><path class="beast-nose-12-st-0" d="M-27.83 401.57l-.14.144-2.066-2.035.14-.143z"/><path class="beast-nose-12-st-0" d="M-27.882 399.593l.142.14-2.034 2.067-.143-.14z"/></g><g><path class="beast-nose-12-st-0" d="M-32.654 401.624l-.14.142-2.067-2.034.14-.143z"/><path class="beast-nose-12-st-0" d="M-32.674 399.574l.142.14-2.034 2.067-.143-.14z"/></g><g><path class="beast-nose-12-st-0" d="M-37.408 401.605l-.14.142-2.067-2.034.14-.143z"/><path class="beast-nose-12-st-0" d="M-37.467 399.555l.143.14-2.035 2.067-.14-.14z"/></g><g><path class="beast-nose-12-st-0" d="M-42.162 401.586l-.14.142-2.067-2.034.14-.143z"/><path class="beast-nose-12-st-0" d="M-42.26 399.536l.144.14-2.035 2.067-.144-.14z"/></g><g><path class="beast-nose-12-st-0" d="M-46.917 401.567l-.14.142-2.067-2.035.14-.143z"/><path class="beast-nose-12-st-0" d="M-46.98 399.587l.143.14-2.035 2.067-.143-.14z"/></g><g><path class="beast-nose-12-st-0" d="M-51.74 401.62l-.142.14-2.066-2.033.14-.143z"/><path class="beast-nose-12-st-0" d="M-51.772 399.568l.142.14-2.034 2.067-.143-.14z"/></g><g><path class="beast-nose-12-st-0" d="M64.804 397.752l-.14.143-2.067-2.035.14-.142z"/><path class="beast-nose-12-st-0" d="M64.682 395.78l.142.14-2.035 2.068-.143-.14z"/></g><g><path class="beast-nose-12-st-0" d="M59.98 397.805l-.14.142-2.067-2.035.14-.142z"/><path class="beast-nose-12-st-0" d="M59.89 395.762l.142.14-2.035 2.067-.142-.142z"/></g><g><path class="beast-nose-12-st-0" d="M55.225 397.786l-.14.142-2.066-2.034.14-.143z"/><path class="beast-nose-12-st-0" d="M55.097 395.743l.143.14-2.035 2.067-.143-.14z"/></g><g><path class="beast-nose-12-st-0" d="M50.47 397.767l-.14.142-2.066-2.035.14-.143z"/><path class="beast-nose-12-st-0" d="M50.305 395.724l.142.14-2.034 2.067-.143-.14z"/></g><g><path class="beast-nose-12-st-0" d="M45.717 397.748l-.14.142-2.067-2.034.14-.143z"/><path class="beast-nose-12-st-0" d="M45.584 395.775l.142.14-2.034 2.067-.143-.14z"/></g><g><path class="beast-nose-12-st-0" d="M40.892 397.8l-.14.142-2.067-2.034.14-.143z"/><path class="beast-nose-12-st-0" d="M40.79 395.756l.144.14-2.035 2.067-.143-.14z"/></g><g><path class="beast-nose-12-st-0" d="M36.138 397.78l-.14.143-2.067-2.034.14-.144z"/><path class="beast-nose-12-st-0" d="M36 395.737l.142.14-2.035 2.067-.142-.14z"/></g><g><path class="beast-nose-12-st-0" d="M31.384 397.762l-.14.142-2.067-2.034.14-.143z"/><path class="beast-nose-12-st-0" d="M31.207 395.718l.142.14-2.035 2.067-.143-.14z"/></g><g><path class="beast-nose-12-st-0" d="M26.63 397.743l-.14.142-2.068-2.034.14-.142z"/><path class="beast-nose-12-st-0" d="M26.486 395.77l.142.14-2.034 2.066-.143-.14z"/></g><g><path class="beast-nose-12-st-0" d="M21.805 397.795l-.14.143-2.067-2.035.14-.142z"/><path class="beast-nose-12-st-0" d="M21.694 395.75l.142.14-2.035 2.067-.14-.14z"/></g><g><path class="beast-nose-12-st-0" d="M17.05 397.776l-.14.143-2.066-2.036.14-.142z"/><path class="beast-nose-12-st-0" d="M16.9 395.732l.144.14-2.035 2.066-.143-.14z"/></g><g><path class="beast-nose-12-st-0" d="M12.296 397.757l-.14.143-2.067-2.035.14-.143z"/><path class="beast-nose-12-st-0" d="M12.11 395.713l.142.14-2.035 2.066-.143-.14z"/></g><g><path class="beast-nose-12-st-0" d="M7.542 397.738l-.14.143-2.067-2.034.14-.143z"/><path class="beast-nose-12-st-0" d="M7.388 395.764l.143.14-2.034 2.067-.143-.14z"/></g><g><path class="beast-nose-12-st-0" d="M2.717 397.79l-.14.143-2.067-2.035.14-.142z"/><path class="beast-nose-12-st-0" d="M2.596 395.745l.142.14-2.034 2.067-.143-.14z"/></g><g><path class="beast-nose-12-st-0" d="M-2.037 397.77l-.14.144-2.067-2.035.14-.143z"/><path class="beast-nose-12-st-0" d="M-2.196 395.726l.142.14-2.035 2.067-.14-.14z"/></g><g><path class="beast-nose-12-st-0" d="M-6.79 397.752l-.142.143-2.066-2.035.14-.142z"/><path class="beast-nose-12-st-0" d="M-6.917 395.777l.142.14-2.035 2.067-.142-.14z"/></g><g><path class="beast-nose-12-st-0" d="M-11.616 397.805l-.14.142-2.067-2.034.14-.143z"/><path class="beast-nose-12-st-0" d="M-11.71 395.758l.143.14-2.035 2.067-.142-.14z"/></g><g><path class="beast-nose-12-st-0" d="M-16.37 397.786l-.14.142-2.067-2.034.14-.143z"/><path class="beast-nose-12-st-0" d="M-16.502 395.74l.142.14-2.034 2.066-.143-.14z"/></g><g><path class="beast-nose-12-st-0" d="M-21.125 397.767l-.14.142-2.066-2.035.14-.143z"/><path class="beast-nose-12-st-0" d="M-21.294 395.72l.142.14-2.034 2.067-.143-.14z"/></g><g><path class="beast-nose-12-st-0" d="M-25.88 397.748l-.14.142-2.066-2.035.14-.142z"/><path class="beast-nose-12-st-0" d="M-26.015 395.772l.142.14-2.034 2.067-.143-.142z"/></g><g><path class="beast-nose-12-st-0" d="M-30.703 397.8l-.14.142-2.067-2.034.14-.143z"/><path class="beast-nose-12-st-0" d="M-30.808 395.753l.143.14-2.035 2.067-.142-.14z"/></g><g><path class="beast-nose-12-st-0" d="M-35.458 397.78l-.14.143-2.067-2.034.14-.144z"/><path class="beast-nose-12-st-0" d="M-35.6 395.734l.143.14-2.035 2.067-.143-.14z"/></g><g><path class="beast-nose-12-st-0" d="M-40.212 397.762l-.14.142-2.067-2.034.14-.143z"/><path class="beast-nose-12-st-0" d="M-40.392 395.715l.142.14-2.034 2.067-.143-.14z"/></g><g><path class="beast-nose-12-st-0" d="M-44.966 397.743l-.14.142-2.067-2.034.14-.142z"/><path class="beast-nose-12-st-0" d="M-45.113 395.766l.142.14-2.035 2.067-.143-.14z"/></g><g><path class="beast-nose-12-st-0" d="M-49.79 397.795l-.14.143-2.068-2.035.14-.143z"/><path class="beast-nose-12-st-0" d="M-49.905 395.747l.142.14-2.035 2.067-.142-.14z"/></g><g><path class="beast-nose-12-st-0" d="M55.203 388.934l-.14.143-2.066-2.035.14-.143z"/><path class="beast-nose-12-st-0" d="M55.146 386.863l.143.14-2.036 2.067-.143-.14z"/></g><g><path class="beast-nose-12-st-0" d="M50.45 388.915l-.14.143-2.068-2.035.14-.143z"/><path class="beast-nose-12-st-0" d="M50.354 386.844l.142.14-2.034 2.067-.143-.14z"/></g><g><path class="beast-nose-12-st-0" d="M45.695 388.896l-.14.142-2.067-2.034.14-.143z"/><path class="beast-nose-12-st-0" d="M45.633 386.895l.142.14-2.034 2.067-.142-.14z"/></g><g><path class="beast-nose-12-st-0" d="M40.87 388.948l-.14.143-2.067-2.034.14-.142z"/><path class="beast-nose-12-st-0" d="M40.84 386.876l.143.14-2.035 2.067-.142-.14z"/></g><g><path class="beast-nose-12-st-0" d="M36.116 388.93l-.14.142-2.067-2.035.14-.142z"/><path class="beast-nose-12-st-0" d="M36.048 386.857l.143.14-2.034 2.067-.142-.14z"/></g><g><path class="beast-nose-12-st-0" d="M31.362 388.91l-.14.143-2.067-2.035.14-.142z"/><path class="beast-nose-12-st-0" d="M31.256 386.838l.143.14-2.036 2.067-.143-.14z"/></g><g><path class="beast-nose-12-st-0" d="M26.607 388.89l-.14.144L24.4 387l.14-.143z"/><path class="beast-nose-12-st-0" d="M26.535 386.89l.143.14-2.035 2.066-.143-.14z"/></g><g><path class="beast-nose-12-st-0" d="M21.783 388.943l-.14.143-2.067-2.035.14-.14z"/><path class="beast-nose-12-st-0" d="M21.743 386.87l.142.14-2.034 2.067-.142-.14z"/></g><g><path class="beast-nose-12-st-0" d="M17.028 388.924l-.14.143-2.066-2.035.14-.142z"/><path class="beast-nose-12-st-0" d="M16.95 386.852l.143.14-2.035 2.066-.142-.14z"/></g><g><path class="beast-nose-12-st-0" d="M12.274 388.905l-.14.143-2.067-2.035.14-.142z"/><path class="beast-nose-12-st-0" d="M12.158 386.833l.143.14-2.034 2.067-.142-.14z"/></g><g><path class="beast-nose-12-st-0" d="M7.52 388.887l-.14.142-2.067-2.036.14-.142z"/><path class="beast-nose-12-st-0" d="M7.437 386.884l.143.14-2.035 2.067-.143-.14z"/></g><g><path class="beast-nose-12-st-0" d="M2.695 388.94l-.14.14-2.066-2.033.14-.143z"/><path class="beast-nose-12-st-0" d="M2.645 386.865l.142.14-2.034 2.067-.143-.14z"/></g><g><path class="beast-nose-12-st-0" d="M-2.06 388.92l-.14.142-2.066-2.034.14-.143z"/><path class="beast-nose-12-st-0" d="M-2.147 386.846l.142.14-2.035 2.067-.142-.14z"/></g><g><path class="beast-nose-12-st-0" d="M-6.813 388.9l-.14.143-2.067-2.034.14-.144z"/><path class="beast-nose-12-st-0" d="M-6.868 386.897l.142.14-2.035 2.067-.143-.14z"/></g><g><path class="beast-nose-12-st-0" d="M-11.638 388.953l-.14.143-2.067-2.035.14-.142z"/><path class="beast-nose-12-st-0" d="M-11.66 386.878l.142.14-2.035 2.067-.142-.14z"/></g><g><path class="beast-nose-12-st-0" d="M-16.392 388.934l-.14.143-2.067-2.035.14-.143z"/><path class="beast-nose-12-st-0" d="M-16.453 386.86l.143.14-2.035 2.066-.143-.14z"/></g><g><path class="beast-nose-12-st-0" d="M-21.146 388.915l-.14.143-2.067-2.035.14-.143z"/><path class="beast-nose-12-st-0" d="M-21.245 386.84l.142.14-2.034 2.067-.143-.14z"/></g><g><path class="beast-nose-12-st-0" d="M-25.9 388.896l-.14.142-2.068-2.034.14-.143z"/><path class="beast-nose-12-st-0" d="M-25.966 386.892l.142.14-2.034 2.066-.143-.14z"/></g><g><path class="beast-nose-12-st-0" d="M-30.725 388.948l-.14.143-2.067-2.034.14-.142z"/><path class="beast-nose-12-st-0" d="M-30.758 386.873l.142.14-2.035 2.067-.143-.14z"/></g><g><path class="beast-nose-12-st-0" d="M-35.48 388.93l-.14.142-2.066-2.035.14-.142z"/><path class="beast-nose-12-st-0" d="M-35.55 386.854l.142.14-2.035 2.067-.142-.14z"/></g><g><path class="beast-nose-12-st-0" d="M-40.234 388.91l-.14.143-2.067-2.035.14-.142z"/><path class="beast-nose-12-st-0" d="M-40.343 386.835l.142.14-2.035 2.067-.143-.14z"/></g><g><path class="beast-nose-12-st-0" d="M-44.988 388.89l-.14.144-2.067-2.035.14-.143z"/><path class="beast-nose-12-st-0" d="M-45.064 386.886l.142.14-2.034 2.067-.143-.14z"/></g><g><path class="beast-nose-12-st-0" d="M58.11 393.18l-.14.144-2.067-2.035.14-.143z"/><path class="beast-nose-12-st-0" d="M58.033 391.187l.142.14-2.034 2.067-.142-.14z"/></g><g><path class="beast-nose-12-st-0" d="M53.285 393.234l-.14.142-2.067-2.035.14-.14z"/><path class="beast-nose-12-st-0" d="M53.24 391.168l.143.14-2.035 2.067-.142-.14z"/></g><g><path class="beast-nose-12-st-0" d="M48.53 393.214l-.14.143-2.066-2.035.14-.142z"/><path class="beast-nose-12-st-0" d="M48.448 391.15l.143.14-2.034 2.066-.142-.14z"/></g><g><path class="beast-nose-12-st-0" d="M43.776 393.196l-.14.142-2.067-2.035.14-.142z"/><path class="beast-nose-12-st-0" d="M43.727 391.2l.143.14-2.035 2.067-.143-.14z"/></g><g><path class="beast-nose-12-st-0" d="M38.952 393.248l-.14.142-2.067-2.034.14-.143z"/><path class="beast-nose-12-st-0" d="M38.935 391.18l.142.142-2.034 2.066-.143-.14z"/></g><g><path class="beast-nose-12-st-0" d="M34.197 393.23l-.14.14-2.066-2.033.14-.143z"/><path class="beast-nose-12-st-0" d="M34.143 391.162l.142.14-2.035 2.067-.142-.14z"/></g><g><path class="beast-nose-12-st-0" d="M29.443 393.21l-.14.142-2.067-2.034.14-.143z"/><path class="beast-nose-12-st-0" d="M29.35 391.144l.143.14-2.035 2.066-.142-.14z"/></g><g><path class="beast-nose-12-st-0" d="M24.69 393.19l-.142.143-2.066-2.034.14-.144z"/><path class="beast-nose-12-st-0" d="M24.63 391.195l.142.14-2.035 2.067-.142-.14z"/></g><g><path class="beast-nose-12-st-0" d="M19.864 393.243l-.14.143-2.067-2.035.14-.142z"/><path class="beast-nose-12-st-0" d="M19.837 391.176l.143.14-2.035 2.067-.143-.14z"/></g><g><path class="beast-nose-12-st-0" d="M15.11 393.224l-.14.143-2.067-2.035.14-.143z"/><path class="beast-nose-12-st-0" d="M15.045 391.157l.142.14-2.034 2.067-.143-.14z"/></g><g><path class="beast-nose-12-st-0" d="M10.356 393.205l-.14.143-2.067-2.035.14-.143z"/><path class="beast-nose-12-st-0" d="M10.252 391.138l.143.14-2.035 2.067-.142-.14z"/></g><g><path class="beast-nose-12-st-0" d="M5.6 393.186l-.14.143-2.066-2.036.14-.143z"/><path class="beast-nose-12-st-0" d="M5.53 391.19l.144.14-2.035 2.066-.143-.14z"/></g><g><path class="beast-nose-12-st-0" d="M.777 393.238l-.14.143-2.067-2.034.14-.142z"/><path class="beast-nose-12-st-0" d="M.74 391.17l.142.14-2.035 2.067-.143-.14z"/></g><g><path class="beast-nose-12-st-0" d="M-3.978 393.22l-.14.142-2.066-2.035.14-.142z"/><path class="beast-nose-12-st-0" d="M-4.053 391.15l.142.142-2.035 2.066-.143-.14z"/></g><g><path class="beast-nose-12-st-0" d="M-8.732 393.2l-.14.143-2.067-2.035.142-.142z"/><path class="beast-nose-12-st-0" d="M-8.845 391.132l.142.14-2.034 2.067-.143-.14z"/></g><g><path class="beast-nose-12-st-0" d="M-13.486 393.18l-.14.144-2.067-2.035.14-.143z"/><path class="beast-nose-12-st-0" d="M-13.566 391.184l.142.14-2.034 2.066-.143-.14z"/></g><g><path class="beast-nose-12-st-0" d="M-18.31 393.234l-.14.142-2.068-2.034.14-.143z"/><path class="beast-nose-12-st-0" d="M-18.36 391.165l.144.14-2.035 2.066-.143-.14z"/></g><g><path class="beast-nose-12-st-0" d="M-23.065 393.215l-.14.142-2.067-2.035.14-.142z"/><path class="beast-nose-12-st-0" d="M-23.15 391.146l.142.14-2.035 2.067-.143-.14z"/></g><g><path class="beast-nose-12-st-0" d="M-27.82 393.196l-.14.142-2.066-2.035.14-.142z"/><path class="beast-nose-12-st-0" d="M-27.872 391.197l.143.14-2.034 2.067-.143-.14z"/></g><g><path class="beast-nose-12-st-0" d="M-32.644 393.248l-.14.142-2.067-2.034.14-.143z"/><path class="beast-nose-12-st-0" d="M-32.664 391.178l.142.14-2.034 2.067-.143-.14z"/></g><g><path class="beast-nose-12-st-0" d="M-37.398 393.23l-.14.14-2.067-2.033.14-.143z"/><path class="beast-nose-12-st-0" d="M-37.456 391.16l.142.14-2.035 2.066-.14-.14z"/></g><g><path class="beast-nose-12-st-0" d="M-42.153 393.21l-.14.142-2.066-2.034.14-.143z"/><path class="beast-nose-12-st-0" d="M-42.25 391.14l.144.14-2.035 2.067-.143-.14z"/></g><g><path class="beast-nose-12-st-0" d="M-46.907 393.19l-.14.143-2.067-2.034.14-.144z"/><path class="beast-nose-12-st-0" d="M-46.97 391.19l.143.142-2.035 2.066-.142-.14z"/></g><g><path class="beast-nose-12-st-0" d="M48.564 384.894l-.14.143-2.067-2.035.14-.142z"/><path class="beast-nose-12-st-0" d="M48.41 382.834l.144.14-2.035 2.067-.143-.14z"/></g><g><path class="beast-nose-12-st-0" d="M43.81 384.875l-.14.143-2.067-2.035.14-.142z"/><path class="beast-nose-12-st-0" d="M43.69 382.885l.143.14-2.035 2.067-.143-.14z"/></g><g><path class="beast-nose-12-st-0" d="M38.985 384.928l-.14.142-2.067-2.034.14-.143z"/><path class="beast-nose-12-st-0" d="M38.898 382.866l.142.14-2.034 2.067-.143-.14z"/></g><g><path class="beast-nose-12-st-0" d="M34.23 384.91l-.14.14-2.066-2.033.14-.143z"/><path class="beast-nose-12-st-0" d="M34.106 382.847l.142.14-2.035 2.067-.142-.14z"/></g><g><path class="beast-nose-12-st-0" d="M29.476 384.89l-.14.142-2.067-2.034.14-.143z"/><path class="beast-nose-12-st-0" d="M29.313 382.828l.143.14-2.035 2.067-.14-.14z"/></g><g><path class="beast-nose-12-st-0" d="M24.722 384.87l-.14.143-2.067-2.034.14-.144z"/><path class="beast-nose-12-st-0" d="M24.592 382.88l.143.14-2.035 2.066-.142-.14z"/></g><g><path class="beast-nose-12-st-0" d="M19.898 384.923l-.14.142-2.067-2.034.14-.142z"/><path class="beast-nose-12-st-0" d="M19.8 382.86l.143.14-2.035 2.067-.143-.14z"/></g><g><path class="beast-nose-12-st-0" d="M15.143 384.904l-.14.143-2.067-2.035.14-.143z"/><path class="beast-nose-12-st-0" d="M15.008 382.842l.142.14-2.034 2.066-.143-.14z"/></g><g><path class="beast-nose-12-st-0" d="M10.39 384.885l-.14.143-2.068-2.035.14-.143z"/><path class="beast-nose-12-st-0" d="M10.215 382.823l.143.14-2.035 2.067-.142-.14z"/></g><g><path class="beast-nose-12-st-0" d="M5.634 384.866l-.14.142-2.066-2.034.14-.143z"/><path class="beast-nose-12-st-0" d="M5.494 382.874l.143.14-2.035 2.067-.142-.14z"/></g><g><path class="beast-nose-12-st-0" d="M.81 384.918l-.14.143-2.067-2.034.14-.142z"/><path class="beast-nose-12-st-0" d="M.702 382.855l.143.14-2.035 2.067-.142-.14z"/></g><g><path class="beast-nose-12-st-0" d="M-3.944 384.9l-.14.142-2.067-2.035.14-.142z"/><path class="beast-nose-12-st-0" d="M-4.09 382.836l.142.14-2.034 2.067-.143-.14z"/></g><g><path class="beast-nose-12-st-0" d="M-8.7 384.88l-.14.143-2.066-2.035.14-.142z"/><path class="beast-nose-12-st-0" d="M-8.882 382.817l.142.14-2.034 2.067-.143-.14z"/></g><g><path class="beast-nose-12-st-0" d="M-13.453 384.86l-.14.144-2.067-2.035.14-.143z"/><path class="beast-nose-12-st-0" d="M-13.603 382.868l.142.14-2.035 2.067-.143-.14z"/></g><g><path class="beast-nose-12-st-0" d="M-18.277 384.913l-.14.143-2.067-2.035.14-.14z"/><path class="beast-nose-12-st-0" d="M-18.396 382.85l.143.14-2.035 2.066-.142-.14z"/></g><g><path class="beast-nose-12-st-0" d="M-23.032 384.894l-.14.143-2.067-2.035.142-.142z"/><path class="beast-nose-12-st-0" d="M-23.188 382.83l.143.14-2.035 2.067-.143-.14z"/></g><g><path class="beast-nose-12-st-0" d="M-27.786 384.876l-.14.142-2.067-2.035.14-.142z"/><path class="beast-nose-12-st-0" d="M-27.91 382.882l.144.14-2.035 2.067-.144-.142z"/></g><g><path class="beast-nose-12-st-0" d="M-32.61 384.928l-.14.142-2.068-2.034.14-.143z"/><path class="beast-nose-12-st-0" d="M-32.7 382.863l.14.14-2.033 2.067-.143-.14z"/></g><g><path class="beast-nose-12-st-0" d="M-37.365 384.91l-.14.14-2.067-2.033.14-.143z"/><path class="beast-nose-12-st-0" d="M-37.493 382.844l.142.14-2.036 2.067-.142-.14z"/></g><g><path class="beast-nose-12-st-0" d="M40.864 381.034l-.14.142-2.067-2.034.14-.143z"/><path class="beast-nose-12-st-0" d="M40.835 378.974l.142.14-2.034 2.067-.143-.14z"/></g><g><path class="beast-nose-12-st-0" d="M36.11 381.015l-.14.142-2.067-2.034.14-.143z"/><path class="beast-nose-12-st-0" d="M36.042 378.955l.143.14-2.035 2.067-.142-.14z"/></g><g><path class="beast-nose-12-st-0" d="M31.355 380.996l-.14.142-2.066-2.034.14-.143z"/><path class="beast-nose-12-st-0" d="M31.25 378.936l.143.14-2.035 2.067-.142-.14z"/></g><g><path class="beast-nose-12-st-0" d="M26.6 380.977l-.14.142-2.066-2.035.14-.143z"/><path class="beast-nose-12-st-0" d="M26.53 378.987l.142.14-2.035 2.067-.142-.14z"/></g><g><path class="beast-nose-12-st-0" d="M21.777 381.03l-.14.142-2.067-2.035.14-.143z"/><path class="beast-nose-12-st-0" d="M21.737 378.968l.142.14-2.035 2.067-.143-.14z"/></g><g><path class="beast-nose-12-st-0" d="M17.022 381.01l-.14.143-2.067-2.035.14-.143z"/><path class="beast-nose-12-st-0" d="M16.945 378.95l.142.14-2.034 2.066-.143-.14z"/></g><g><path class="beast-nose-12-st-0" d="M12.268 380.99l-.14.144-2.067-2.035.14-.144z"/><path class="beast-nose-12-st-0" d="M12.152 378.93l.143.14-2.035 2.067-.142-.14z"/></g><g><path class="beast-nose-12-st-0" d="M7.514 380.972l-.14.143-2.067-2.035.14-.143z"/><path class="beast-nose-12-st-0" d="M7.43 378.982l.144.14-2.035 2.066-.143-.14z"/></g><g><path class="beast-nose-12-st-0" d="M2.69 381.024l-.14.143-2.068-2.035.14-.142z"/><path class="beast-nose-12-st-0" d="M2.64 378.963l.142.14-2.035 2.066-.143-.14z"/></g><g><path class="beast-nose-12-st-0" d="M-2.065 381.005l-.14.143-2.067-2.035.14-.142z"/><path class="beast-nose-12-st-0" d="M-2.153 378.944l.142.14-2.035 2.066-.143-.14z"/></g><g><path class="beast-nose-12-st-0" d="M-6.82 380.986l-.14.143-2.066-2.036.14-.142z"/><path class="beast-nose-12-st-0" d="M-6.874 378.995l.142.14-2.034 2.067-.143-.14z"/></g><g><path class="beast-nose-12-st-0" d="M-11.644 381.04l-.14.14-2.067-2.034.14-.142z"/><path class="beast-nose-12-st-0" d="M-11.666 378.976l.142.14-2.035 2.067-.14-.14z"/></g><g><path class="beast-nose-12-st-0" d="M-16.398 381.02l-.14.142-2.067-2.035.14-.142z"/><path class="beast-nose-12-st-0" d="M-16.46 378.957l.144.14-2.035 2.067-.143-.14z"/></g><g><path class="beast-nose-12-st-0" d="M-21.153 381l-.14.143-2.067-2.035.14-.142z"/><path class="beast-nose-12-st-0" d="M-21.25 378.938l.14.14-2.033 2.067-.143-.14z"/></g><g><path class="beast-nose-12-st-0" d="M-25.907 380.982l-.14.142-2.067-2.034.14-.143z"/><path class="beast-nose-12-st-0" d="M-25.972 378.99l.142.14-2.034 2.066-.143-.14z"/></g><g><path class="beast-nose-12-st-0" d="M-30.732 381.034l-.14.142-2.066-2.034.14-.143z"/><path class="beast-nose-12-st-0" d="M-30.764 378.97l.142.14-2.034 2.067-.143-.14z"/></g><g><path class="beast-nose-12-st-0" d="M17.072 372.23l-.14.14-2.067-2.034.14-.142z"/><path class="beast-nose-12-st-0" d="M16.924 370.14l.142.14-2.035 2.067-.14-.14z"/></g><g><path class="beast-nose-12-st-0" d="M12.317 372.21l-.14.142-2.066-2.035.14-.142z"/><path class="beast-nose-12-st-0" d="M12.13 370.122l.144.14-2.035 2.066-.143-.14z"/></g><g><path class="beast-nose-12-st-0" d="M7.563 372.19l-.14.143-2.067-2.035.14-.142z"/><path class="beast-nose-12-st-0" d="M7.41 370.173l.143.14-2.035 2.067-.142-.14z"/></g><g><path class="beast-nose-12-st-0" d="M2.74 372.243l-.142.142-2.066-2.034.14-.142z"/><path class="beast-nose-12-st-0" d="M2.618 370.154l.142.14-2.034 2.067-.143-.14z"/></g><g><path class="beast-nose-12-st-0" d="M-2.016 372.224l-.14.142-2.067-2.034.14-.143z"/><path class="beast-nose-12-st-0" d="M-2.174 370.135l.142.14-2.034 2.067-.143-.14z"/></g><g><path class="beast-nose-12-st-0" d="M-6.77 372.205l-.14.142-2.067-2.034.14-.143z"/><path class="beast-nose-12-st-0" d="M-6.895 370.186l.142.14-2.034 2.067-.143-.14z"/></g><g><path class="beast-nose-12-st-0" d="M-11.595 372.257l-.14.143-2.067-2.035.14-.143z"/><path class="beast-nose-12-st-0" d="M-11.688 370.167l.143.14-2.035 2.067-.142-.14z"/></g><g><path class="beast-nose-12-st-0" d="M34.24 376.533l-.14.142-2.066-2.034.14-.142z"/><path class="beast-nose-12-st-0" d="M34.116 374.45l.142.142-2.034 2.066-.143-.14z"/></g><g><path class="beast-nose-12-st-0" d="M29.486 376.514l-.14.142-2.067-2.034.14-.143z"/><path class="beast-nose-12-st-0" d="M29.323 374.432l.143.14-2.035 2.067-.14-.14z"/></g><g><path class="beast-nose-12-st-0" d="M24.732 376.495l-.14.142-2.067-2.034.14-.143z"/><path class="beast-nose-12-st-0" d="M24.602 374.484l.143.14-2.035 2.066-.142-.14z"/></g><g><path class="beast-nose-12-st-0" d="M19.907 376.547l-.14.143-2.066-2.035.14-.143z"/><path class="beast-nose-12-st-0" d="M19.81 374.465l.143.14-2.035 2.066-.143-.14z"/></g><g><path class="beast-nose-12-st-0" d="M15.153 376.528l-.14.143-2.067-2.034.14-.142z"/><path class="beast-nose-12-st-0" d="M15.018 374.446l.142.14-2.034 2.067-.143-.14z"/></g><g><path class="beast-nose-12-st-0" d="M10.4 376.51l-.142.142-2.066-2.035.14-.142z"/><path class="beast-nose-12-st-0" d="M10.226 374.427l.142.14-2.035 2.067-.142-.14z"/></g><g><path class="beast-nose-12-st-0" d="M5.644 376.49l-.14.143-2.066-2.035.14-.143z"/><path class="beast-nose-12-st-0" d="M5.505 374.478l.142.14-2.034 2.067-.143-.14z"/></g><g><path class="beast-nose-12-st-0" d="M.82 376.542l-.14.143-2.067-2.035.14-.142z"/><path class="beast-nose-12-st-0" d="M.712 374.46l.143.14-2.035 2.066-.142-.14z"/></g><g><path class="beast-nose-12-st-0" d="M-3.934 376.523l-.14.143-2.067-2.035.14-.14z"/><path class="beast-nose-12-st-0" d="M-4.08 374.44l.143.14-2.035 2.067-.143-.14z"/></g><g><path class="beast-nose-12-st-0" d="M-8.69 376.504l-.14.143-2.066-2.035.14-.142z"/><path class="beast-nose-12-st-0" d="M-8.872 374.42l.142.142-2.034 2.066-.143-.14z"/></g><g><path class="beast-nose-12-st-0" d="M-13.443 376.485l-.14.143-2.067-2.035.14-.142z"/><path class="beast-nose-12-st-0" d="M-13.593 374.472l.142.14-2.035 2.067-.143-.14z"/></g><g><path class="beast-nose-12-st-0" d="M-18.268 376.538l-.14.142-2.066-2.035.14-.142z"/><path class="beast-nose-12-st-0" d="M-18.385 374.454l.142.14-2.035 2.066-.142-.14z"/></g><g><path class="beast-nose-12-st-0" d="M-23.022 376.52l-.14.14-2.067-2.034.142-.142z"/><path class="beast-nose-12-st-0" d="M-23.178 374.435l.143.14-2.035 2.066-.142-.14z"/></g><path class="beast-nose-12-st-1" d="M26 357.7s1.8-7.2 9-5.1c2.6.8 4.9-.6 6.5-.2 2.9.7 6.6.2 7.7-.8 1.8-1.5 1.6-4.1 9.6-2.9s9.1 5.8 12.1 1.3c0 0 1 4.7-4.9 3-5.9-1.7-11.9-7.1-12.2-1.8-.3 5.4-18.3-1.2-27.8 6.5z"/><g><path class="beast-nose-12-st-3" d="M-145.5 369.8v2c0 .7 1 .7 1 0v-2c0-.7-1-.7-1 0z"/></g><g><path class="beast-nose-12-st-3" d="M-143 370.2v15c0 .7 1 .7 1 0v-15c0-.6-1-.6-1 0z"/></g><g><path class="beast-nose-12-st-3" d="M-140 382.8v5c0 .7 1 .7 1 0v-5c0-.7-1-.7-1 0z"/></g><g><path class="beast-nose-12-st-3" d="M141.5 357.8v12.5c0 .7 1 .7 1 0v-12.5c0-.7-1-.7-1 0z"/></g><g><path class="beast-nose-12-st-3" d="M144 368.2v5c0 .7 1 .7 1 0v-5c0-.6-1-.6-1 0z"/></g><g><path class="beast-nose-12-st-3" d="M149 378.2v9c0 .7 1 .7 1 0v-9c0-.6-1-.6-1 0z"/></g></svg>