<svg id="Layer_1" xmlns="http://www.w3.org/2000/svg" width="305.834" height="112" viewBox="-152 341 305.8 112"><style>.beast-nose-15-st-0{fill:#75a08a}.beast-nose-15-st-1{fill:#0b3746}</style><path class="beast-nose-15-st-0" d="M-53.4 364.8c-18.3 0-33.5 15.2-33.5 33.5s15.2 33.5 33.5 33.5 33.5-15.2 33.5-33.5-15.3-33.5-33.5-33.5z"/><path class="beast-nose-15-st-1" d="M-34.1 409.3c10.9 5.1 22.6-8.5 26.5-17 6-13.1 7.5-28.4 4.3-42.4-.4-1.7-2.6-1.2-2.9.2-.4.3-.7.8-.5 1.5 2.7 10.1.1 19.2-7.9 26-5.9 5-13.5 7.4-19.2 12.4-5.7 5.1-9 15.2-.3 19.3z"/><path class="beast-nose-15-st-0" d="M55.6 364.1c-18.3 0-33.5 15.2-33.5 33.5s15.2 33.5 33.5 33.5 33.5-15.2 33.5-33.5-15.3-33.5-33.5-33.5z"/><path class="beast-nose-15-st-1" d="M32.5 390.4c-5.6-5.1-13.2-7.7-19-12.8-7.9-7-10.3-16.2-7.3-26.2.2-.7 0-1.2-.4-1.5-.2-1.4-2.5-1.9-2.9-.2-3.4 14-2.3 29.3 3.4 42.5 3.7 8.6 15.1 22.4 26.1 17.6 8.8-4 5.7-14.2.1-19.4zM-63.7 385.9c-3.5-4-7.8-6.5-13.2-6.9-5.5-.4-11.1 1.7-16.1 3.7-6.4 2.6-12.2 4.9-19.3 4.4-7.4-.6-14.3-4.3-20.1-8.6-.5-.4-1 .5-.5.9 10.3 7.6 22.7 11.5 35 6.5 5.2-2.1 10.3-4.4 15.9-5.5 6.9-1.3 13.1.9 17.7 6.3.3.4 1-.3.6-.8zM-70 399.1c-10.2-2.6-16.2 9.5-20.9 16.4-4 5.8-9.4 9.9-16.6 10.8-7.3.9-14.8-2.3-21.9-3.8-.6-.1-.9.8-.3 1 6.6 1.4 13.2 3.9 20.1 4 6 0 12.2-2.8 16.3-7.3 6-6.6 11.6-22.9 23-20 .7 0 1-.9.3-1.1zM-52.9 370.2c-2.3-2.8-5.4-4.6-8.6-6.1-7.2-3.3-14.8-5.5-18.2-13.4-.3-.6-1.1-.1-.9.5 3 6.8 9.1 9.8 15.7 12.5 3.3 1.4 6.7 2.8 9.4 5.2 3.5 3.1 5.1 7.5 5.5 12 .1.6 1.1.6 1 0-.3-3.8-1.4-7.7-3.9-10.7zM-60.5 412c-5 8.4-10.7 16.3-19.7 20.7-3.5 1.7-7.3 2.6-10.7 4.3-3.5 1.7-6.2 4.4-8.3 7.7-.3.5.5 1.1.9.5 2.6-4.2 6.1-6.7 10.6-8.5 3.6-1.4 7.2-2.5 10.6-4.5 7.8-4.6 12.9-12.1 17.5-19.7.3-.5-.6-1-.9-.5zM-85.3 392.4c-8.3-1.8-15.3 3-21.7 7.6-7.9 5.7-16.1 11.7-26.4 10.4-.6-.1-.6.9 0 1 9.2 1.1 16.9-3.5 24.1-8.6 6.9-4.9 14.6-11.5 23.8-9.4.6.1.8-.8.2-1zM135 364.5c-6.2 3-12.7 6.1-19.7 6.3-6.9.2-13.1-2.9-19.3-5.5-11-4.5-23.9-4.3-32.5 4.6-.4.5.3 1.2.7.7 4.7-4.9 10.9-7.3 17.6-7.3 6.9 0 12.9 2.6 19.2 5.2 5.4 2.2 11 3.7 16.8 3.1 6.2-.6 12.1-3.6 17.6-6.2.7-.3.2-1.2-.4-.9zM133.8 393.1c-6 2.4-12.3 5.1-18.8 5.5-6.7.4-12.7-2.7-18-6.4-10.2-7-23.2-14.7-34-4.3-.5.4.2 1.2.7.7 5.6-5.4 12.5-5.9 19.5-3.3 6.7 2.4 11.9 7.3 18.1 10.7 4.6 2.6 9.7 3.9 15 3.5 6.2-.5 12.2-3.1 17.9-5.4.4-.3.2-1.2-.4-1zM113.9 437.8c-6.9.9-7.2-5.9-11.3-9.5-6.2-5.4-14.5.6-21.3.8-3.2.1-6.4-2-8.9-3.7-2.9-2-5.5-4.4-8.2-6.5-3.6-2.8-8-5.6-12.5-3.1-.6.3-.1 1.2.5.9 5.3-3.1 11.1 2.7 14.9 5.8 4.2 3.4 9.2 7.7 15 7.5 7.5-.2 16.3-7.1 21.8 1.2 2.7 4.1 4.2 8.2 10 7.5.6 0 .6-1 0-.9zM115.1 417.1c-4.2 1.5-8.4 1.9-12.6.2-3.3-1.4-6-3.8-8.8-6-6.3-4.9-12.7-7.1-20.6-4.9-.6.2-.4 1.1.3 1 4.5-1.3 9.1-1.3 13.4.6 3.3 1.5 6.1 3.9 9 6.1 2.6 2 5.2 3.8 8.4 4.7 3.7 1.1 7.7.5 11.3-.8.5-.1.2-1.1-.4-.9zM69.6 352.5c-8.8 6-27.4 9.7-25.6 23.8.1.6 1.1.6 1 0-1.7-13.5 16.6-17.1 25.1-22.9.6-.4.1-1.3-.5-.9zM48.9 439.2c-4.6-4.5-14-10.9-8-18 .4-.5-.3-1.2-.7-.7-6.6 7.7 2.9 14.3 8 19.4.5.5 1.2-.2.7-.7zM64.3 403.9c-3.5-4.1-8.5-6.6-12.7-2-.4.5.3 1.2.7.7 3.9-4.2 8.2-1.6 11.3 2 .4.5 1.1-.2.7-.7zM57.5 378.6c-2.4 3.1-4.5 7.7-9 7.9-.6 0-.6 1 0 1 4.9-.2 7-4.7 9.7-8.1.4-.6-.3-1.3-.7-.8zM-48.5 412c.5-.4 0-1.2-.5-.9-4.3 3.1-4.6 8-1.4 12.1.4.5 1.1-.2.7-.7-2.8-3.5-2.6-7.8 1.2-10.5zM-56.3 394c-.3-.6-1.1-.1-.9.5 1.2 2.5 1.2 5 .6 7.6-.1.6.8.9 1 .3.7-2.9.5-5.7-.7-8.4zM-29.9 360.8c-1.4 8.2-11.8 10.1-12 18.8 0 .6 1 .6 1 0 .1-4.6 3.1-7.1 6.3-9.8 2.9-2.4 5-5 5.6-8.7.2-.7-.8-.9-.9-.3zM-71.1 373.2c-8.8-9-22.2-.9-32.1-7.4-.5-.4-1 .5-.5.9 4.5 3 9.6 3.3 14.9 3.1 6.2-.3 12.3-.6 17 4.2.5.4 1.2-.3.7-.8zM-60.6 429.5c-.7 3.1-3 5.6-5.8 7-.6.3-.1 1.2.5.9 3-1.6 5.5-4.3 6.2-7.6.2-.7-.7-1-.9-.3zM-34.4 430.6c-2.4-1.8-3.2-4-3.2-7 0-.6-1-.6-1 0 0 3.2.9 5.7 3.5 7.7.5.4 1.2-.3.7-.7zM32.2 417.2c-3.9 4.7-4.8 10.8-10.6 13.9-.6.3-.1 1.2.5.9 2.6-1.4 4.5-3.3 6.1-5.9 1.6-2.7 2.7-5.7 4.7-8.2.4-.4-.3-1.2-.7-.7zM32.3 375.9c-3.5-3-6.4-6.7-5.2-11.5.2-.6-.8-.9-1-.3-1.3 5.2 1.7 9.3 5.5 12.5.4.4 1.1-.3.7-.7zM94.7 402.4c-4.3-.7-8-2.7-11.9-4.6-.6-.3-1.1.6-.5.9 3.9 2 7.7 4 12.1 4.7.7.1.9-.9.3-1zM88 373.1c-4.6-1.2-9.8-.9-13.7 2.1-.5.4 0 1.2.5.9 3.8-2.8 8.5-3.1 12.9-1.9.7 0 1-.9.3-1.1z"/></svg>