<svg id="Layer_1" xmlns="http://www.w3.org/2000/svg" viewBox="-152 341 305.8 112"><style>.beast-nose-17-st-0{fill:#0b3746}</style><path class="beast-nose-17-st-0" d="M31.1 410c-.2-1-.5-2.1-.7-3.2-.7-3.9-1.6-7.9-2.6-11.8-.6-2.7-1.2-5.4-1.8-8-1-4.3-2.1-8.6-3.4-12.9-1-3.8-2-7.7-3.1-11.5-.8-2.7-1.7-5.3-3.1-7.7-1.1-2.5-2.6-5.5-4.9-7.1-3.3-2.3-7-1.8-10.6-.7-2 .5-4.1 1.4-6.1 2.4-1.2.6-2.2 1.3-3.2 2.1-2 1.5-3.7 3.3-5 5.8-.3.5-.5 1-.7 1.5-3.5 7-4.4 15.9-6.3 23.3-3 11.6-6.1 23.2-8.8 34.8-1.8 7.2-3.8 14.4-4.9 21.8 0 .2 0 .3.2.4.5 7.2 10.3 5.2 13.8.4 1.8-2.4 3.2-5.2 4.4-8 .3-.8.7-1.9 1.3-3 .7-1 1.6-1.9 2.5-2.5.3-.1.7-.1 1 0 .1 0 .3.1.4.2.4.4.9.7 1.3 1.1.7.9 1.2 2 1.6 2.9.9 2 1.6 4.2 2.4 6.2.9 2.5 2 5.2 5 5.5 2.9.3 4.5-3.7 5.4-5.8 1.2-3.1 1.5-7.5 3.9-10 .3-.2.7-.4 1.1-.6 2.4-.2 5.5 6.2 6.2 7.5 1.4 2.6 2.9 6.6 6.4 6.7 5.5.3 9.2-4.7 10.1-9.6 1.2-6.4-.4-13.7-1.8-20.2z"/><path class="beast-nose-17-st-0" d="M-8.8 349.2c-3.1.7-5.5 3.8-7.4 6.1-2.5 2.9-4.4 6.2-5.9 9.7-3.2 7.8-3.8 16.5-6.3 24.5-2.8 8.8-7.6 16.9-11.7 25.1-3.1 6.1-7.8 13.5-5.9 20.7.2.6 1.1.4 1-.3-2-7.3 3.4-15.3 6.6-21.5 3.6-7 7.2-13.9 10.1-21.2 2.8-7.1 3.5-14.7 5.5-22 1.1-3.9 2.6-7.5 4.8-11 1.2-1.9 2.6-3.6 4.2-5.2 1.5-1.6 3.1-3.4 5.3-3.9.6-.2.3-1.2-.3-1z"/><path class="beast-nose-17-st-0" d="M-13.7 349.4c-3.9.8-6.7 4.3-8.9 7.4-3.2 4.6-4.7 10.2-7.1 15.2-2.6 5.3-6.3 10-9.3 15-3.3 5.4-5.5 11.5-8.4 17.1-.3.6.6 1.1.9.5 2.6-5.1 4.7-10.5 7.5-15.6 2.7-4.9 6.1-9.4 8.9-14.2 2.6-4.5 4.1-9.6 6.4-14.3 2-4 5.6-9.3 10.3-10.2.6 0 .3-1-.3-.9zM-20.1 349.6c-6.8 2.9-8.3 10.5-11.5 16.4-4.1 7.5-11.7 12.3-15.1 20.3-.3.6.6 1.1.9.5 3.2-7.5 10.1-12.5 14.5-19.2 3.8-5.9 4.7-14 11.8-17.1.5-.3 0-1.2-.6-.9zM46.7 412.3c-1.6-2.7-2.6-5.7-3.6-8.7-.9-2.6-2.1-5-3.2-7.5-2.5-5.6-4.4-11.5-6.8-17.1-2.3-5.4-4.8-10.9-7.8-16-3.1-5.2-7.1-9.8-10.2-15-.3-.6-1.2-.1-.9.5 3.1 5.2 7.1 9.8 10.2 15 3.1 5.1 5.4 10.6 7.8 16 2.5 5.6 4.4 11.5 6.8 17.1 1.3 3 2.6 5.9 3.6 8.9.8 2.5 1.8 5 3.2 7.3.4.5 1.3 0 .9-.5zM49.5 390c-4.5-8-10.1-15.4-14.8-23.3-2.2-3.7-5.3-6.9-7.8-10.3-2.4-3.3-5.9-5.4-8.5-8.5-.4-.5-1.1.2-.7.7 2.5 3 5.9 5.1 8.3 8.3 2.6 3.4 5.5 6.7 7.8 10.3 5 7.7 10.3 15.3 14.8 23.3.3.6 1.2.1.9-.5zM59.1 383.1c-2.4-3.9-5.9-6.8-9.4-9.8-4.3-3.7-7.8-8.2-11.3-12.6-4.4-5.7-9-12.8-16.9-13.3-.6 0-.6 1 0 1 8.3.5 13 8.8 17.6 14.7 2.9 3.7 5.9 7.2 9.3 10.4 3.5 3.2 7.3 6 9.8 10.1.4.6 1.2.1.9-.5zM-29.7 349.9c-6.3 5.3-12.4 10.7-18.7 16-6.6 5.6-13.3 11.3-20.8 15.6-6.9 4-14 7.2-20.6 11.8-6.7 4.7-12.5 10.6-18.9 15.6-.5.4.2 1.1.7.7 6.6-5.1 12.5-11.1 19.4-15.9C-82 389.1-74.8 386-68 382c7-4.1 13.4-9.6 19.6-14.8 6.5-5.5 12.8-11.1 19.4-16.6.5-.4-.2-1.1-.7-.7zM-41.5 353.3c-2.8.7-5.1 2.3-7.3 4.1-3.2 2.6-6.4 5.2-9.8 7.5-6.9 4.5-14.3 8.2-21.8 11.7-13.5 6.2-27.3 12.6-38.8 22.3-.5.4.2 1.1.7.7 11.4-9.6 25.1-16.1 38.6-22.2 7-3.2 13.8-6.6 20.3-10.7 3-1.9 5.8-3.8 8.5-6.1 3-2.5 6-5.4 9.9-6.4.6-.1.4-1.1-.3-.9zM-58.5 357.3c-10 3-18.7 9-27.9 13.7-5.5 2.8-11.1 4.5-17.3 5.1-5.6.6-11.2.7-16.8 1.7-.6.1-.4 1.1.3 1 5.7-1.1 11.6-1.2 17.4-1.8 5.2-.5 10-1.9 14.7-4.1 10.1-4.7 19.1-11.4 29.9-14.6.6-.2.4-1.2-.3-1zM-74 353.3c-8.9 3.3-17.5 7.6-27 8.9-8.5 1.1-17.3-1-25.5 1.6-.6.2-.4 1.2.3 1 8.5-2.6 17.6-.4 26.3-1.7 9.2-1.4 17.6-5.6 26.2-8.8.6-.3.3-1.2-.3-1zM93.8 393.3c-6.1-1.4-11.2-5-16.2-8.7-5.1-3.7-10.3-7.1-15.4-10.7-5.6-3.9-10.3-8.3-15.1-13.1-4-4.1-8.6-7.4-13.7-10-.6-.3-1.1.6-.5.9 5.5 2.8 10.3 6.5 14.6 11 4.6 4.7 9.4 8.8 14.9 12.6 5.1 3.6 10.4 7 15.4 10.7 4.8 3.5 9.9 7 15.8 8.3.6.1.8-.9.2-1zM116.8 384.8c-7.4-2.8-14.5-6.3-21.6-9.9-6.9-3.4-13.9-6.6-21-9.6-10.8-4.7-24.1-6.7-31.1-17.3-.4-.5-1.2 0-.9.5 6.8 10.4 19.6 12.9 30.3 17.2 15 6 28.9 14.3 44 20 .6.3.9-.7.3-.9zM133.5 361.3c-6 1.8-12.5 1.6-18.7 1.1-6.5-.5-13.1-1-19.7-1.7-14.1-1.6-27.8-5-40.9-10.4-.6-.2-.9.7-.3 1 12.9 5.4 26.4 8.7 40.3 10.4 6.8.8 13.7 1.3 20.5 1.8 6.3.5 12.8.7 18.9-1.2.8-.2.6-1.2-.1-1zM-61.9 399.4l-.5-.5c-.8-.8-2.1-.8-2.8 0-.8.8-.8 2.1 0 2.8l.5.5c.8.8 2.1.8 2.8 0 .8-.8.8-2.1 0-2.8zM-133.3 419.8c-2.6 0-2.6 4 0 4s2.6-4 0-4zM-133.3 387.3c-2 0-2 4 0 4 3 0 3-4 0-4zM-136.3 350.8c-2.6 0-2.6 4 0 4s2.6-4 0-4zM-77.3 425.3c-2 0-2 4 0 4 3 0 3-4 0-4zM-113.3 437.3c-2 0-2 4 0 4 3 0 3-4 0-4zM-94.3 415.3c-2.6 0-2.6 4 0 4s2.6-4 0-4zM-58.3 438.8c-2.6 0-2.6 4 0 4s2.6-4 0-4zM50.6 438.9c-.8-.8-2.1-.8-2.8 0-.8.8-.8 2 0 2.8.2.9 1 1.6 2 1.6 1.1 0 2-.9 2-2-.1-1-.5-1.7-1.2-2.4zM44.7 421.3c-2.6 0-2.6 4 0 4s2.6-4 0-4zM88.7 431.3c-2.6 0-2.6 4 0 4s2.6-4 0-4zM74.7 399.8c-2.6 0-2.6 4 0 4s2.6-4 0-4zM66.7 428.3c-2 0-2 4 0 4 3 0 3-4 0-4zM124.7 430.3c-2.6 0-2.6 4 0 4s2.6-4 0-4zM115.7 396.3c-2.6 0-2.6 4 0 4s2.6-4 0-4zM93.7 410.8c-2 0-2 4 0 4 3 0 3-4 0-4zM93.7 381.8c-2.6 0-2.6 4 0 4s2.6-4 0-4zM109.7 369.3c-2 0-2 4 0 4 3 0 3-4 0-4zM108.7 351.3c-2 0-2 4 0 4 3 0 3-4 0-4zM145.6 355.4l-.5-.5c-.8-.8-2.1-.8-2.8 0-.8.8-.8 2.1 0 2.8l.5.5c.8.8 2.1.8 2.8 0 .8-.8.8-2.1 0-2.8zM136.7 386.3c-2 0-2 4 0 4 3 0 3-4 0-4zM80 422.9c-7.2-7.4-18.6-9.3-22.9-19.4-.3-.6-1.1-.1-.9.5 4.4 10.3 15.8 12.1 23.1 19.6.5.5 1.2-.2.7-.7zM112.5 417.9c-3.2-3.3-5.5-7.4-9-10.5-3.2-2.8-8.2-2-11-5.5-.4-.5-1.1.2-.7.7 2.5 3.1 6.6 3.3 10 4.9 2.1 1 3.6 3.3 5 5 1.6 2.1 3.2 4.2 5 6.1.5.5 1.2-.2.7-.7zM133.9 414.8c-2.2-1.6-4.5-3-7.1-3.6-.6-.1-.9.8-.3 1 2.6.6 4.8 1.9 6.9 3.4.5.5 1-.4.5-.8zM141.4 439.3c-.9-.4-1.6-1.1-2.5-1.5-.6-.3-1.1.6-.5.9.9.4 1.6 1.1 2.5 1.5.6.3 1.1-.6.5-.9zM114.4 441.8c-.1-.1-.2-.1-.3-.1-.4-.3-.8-.5-1.1-.8-.5-.4-1.2.3-.7.7.4.4.9.7 1.3 1 .3.2.8.7 1.2.7.3 0 .5-.2.5-.5.1-.4-.6-.8-.9-1zM-87.5 435.3c-3.6 1.1-8.3 3.6-6.8 8.1.2.6 1.2.3 1-.3-1.3-3.9 3.1-6 6.2-6.9.5-.1.3-1.1-.4-.9zM-113.6 424.3c-7.5 5.7-19.8 6.8-23.2 16.8-.2.6.8.9 1 .3 3.3-9.6 15.6-10.7 22.8-16.2.4-.4-.1-1.3-.6-.9zM-133 407.3c-4 1.4-9 1.6-11.3 5.7-.3.6.5 1.1.9.5 2.1-3.8 7-3.9 10.7-5.3.6-.2.3-1.1-.3-.9zM-135.3 379.3c-2.7 0-5.3-.5-8-.5-.6 0-.6 1 0 1 2.7 0 5.3.5 8 .5.6 0 .6-1 0-1zM-87.5 351.3c-6.2 1.1-12.4 3-18.8 2.4-5.6-.6-10.9-2.8-16.6-2.9-.6 0-.6 1 0 1 6 .1 11.6 2.4 17.5 3 6.1.6 12.2-1.5 18.1-2.5.7-.2.5-1.1-.2-1zM-53.3 350.3c-3 0-6.3.1-9.4 1-.6.2-.5 1.2.1 1 3-.9 6.2-1 9.2-1 1.1 0 1.1-1 .1-1zM93.2 353.3c-5.5-.1-10.6-1.6-15.9-3-.6-.2-.9.8-.3 1 5.3 1.5 10.6 2.9 16.1 3 .7 0 .7-1 .1-1zM129.8 351.3c-2.3-.5-4.7 0-6.5 1.6-.5.4.2 1.1.7.7 1.5-1.4 3.6-1.8 5.5-1.4.7.2.9-.8.3-.9zM132.3 378.8c-1.9-.5-3.7-.5-5.4.6-.5.3 0 1.2.5.9 1.5-.9 3-.8 4.6-.4.7 0 .9-1 .3-1.1zM140.7 379.8v1c1 0 1-1 0-1zM36 441.4c-.2-.2-.4-.2-.6-.1-.6-.3-1.1.6-.5.9.3.1.6.3.9.3.6 0 .6-.7.2-1.1zM11.1 441.5c-.4-.5-1.2 0-.9.5.9 1.4 1.9 3 1.9 4.7 0 .6 1 .6 1 0 0-1.8-1-3.6-2-5.2zM-11.8 440c-1.4 1.9-2.9 3.8-4.8 5.3-.5.4 0 1.3.5.9 2.1-1.6 3.6-3.6 5.2-5.7.4-.5-.5-1-.9-.5zM-44.1 444.8c-1.1.6-2.2 1.2-3.1 2.1-.5.5.2 1.2.7.7.9-.8 1.8-1.4 2.9-1.9.6-.3.1-1.2-.5-.9zM-57.3 413.5c-1.7 2.3-2.5 4.9-2.6 7.8 0 .6 1 .6 1 0 .1-2.7.9-5.1 2.4-7.2.5-.6-.4-1.1-.8-.6zM-73.8 410.5c-.5 1.1-1.1 2-1.9 2.9-.4.5.3 1.2.7.7.9-.9 1.5-2 2.1-3.1.3-.6-.6-1.1-.9-.5zM-80.3 401.8c-.6 0-.6 1 0 1s.6-1 0-1z"/></svg>