<svg xmlns="http://www.w3.org/2000/svg" width="305.834" height="112" viewBox="0 0 305.834 112"><path fill="#F0A732" d="M284.353 57.312c-.086 29.32-17.905 53.037-39.799 52.973-21.896-.063-39.575-23.884-39.49-53.205.086-29.319 17.904-53.037 39.8-52.973 21.894.063 39.574 23.884 39.489 53.205"/><path fill="#0B3746" d="M255.709 7.826c-.469 0-.937.018-1.401.045 16.667 3.579 29.459 24.491 29.459 49.758 0 27.096-14.714 49.185-33.141 50.256 1.659.355 3.355.543 5.083.543 19.077 0 34.542-22.521 34.542-50.3 0-27.781-15.465-50.302-34.542-50.302"/><path fill="#D72050" d="M276.293 54.932c0 18.328-14.857 33.185-33.185 33.185-18.328 0-33.186-14.856-33.186-33.185s14.857-33.186 33.186-33.186c18.328 0 33.185 14.858 33.185 33.186"/><path fill="#0B3746" d="M239.172 95.546c-21.462 0-38.86-14.861-38.86-33.195 0-5.264 1.44-10.237 3.992-14.658-4.77 5.513-7.593 12.328-7.593 19.709 0 18.334 17.397 33.196 38.858 33.196 15.302 0 28.531-7.558 34.869-18.538-7.078 8.179-18.445 13.486-31.266 13.486"/><path fill="#F0A732" d="M22.367 57.312c.086 29.32 17.905 53.037 39.799 52.973 21.896-.063 39.575-23.884 39.489-53.205-.085-29.32-17.904-53.038-39.799-52.974-21.895.064-39.575 23.885-39.489 53.206"/><path fill="#0B3746" d="M51.011 7.826c.47 0 .936.018 1.401.045-16.667 3.579-29.459 24.491-29.459 49.758 0 27.096 14.714 49.185 33.141 50.256a24.249 24.249 0 0 1-5.083.543c-19.077 0-34.542-22.521-34.542-50.3-.001-27.781 15.465-50.302 34.542-50.302"/><path fill="#D72050" d="M30.426 54.932c0 18.328 14.857 33.185 33.185 33.185 18.328 0 33.185-14.856 33.185-33.185S81.939 21.746 63.611 21.746c-18.328 0-33.185 14.858-33.185 33.186"/><path fill="#0B3746" d="M67.548 95.546c21.462 0 38.86-14.861 38.86-33.195 0-5.264-1.44-10.237-3.992-14.658 4.77 5.513 7.593 12.328 7.593 19.709 0 18.334-17.398 33.196-38.859 33.196-15.301 0-28.531-7.558-34.869-18.538 7.077 8.179 18.446 13.486 31.267 13.486"/><path fill="#F0A732" d="M204.997 41.63l-6.625-2.246s-1.018-3.314-2.783-5.339c-1.765-2.023-11.101-7.898-11.101-7.898l-4.644-11.827.228-9.002s1.993 15.274-27.968 14.728C125.138 19.555 124.04 4.96 124.04 4.96l.292 9.241-4.613 11.946s-9.336 5.875-11.101 7.898c-1.765 2.024-2.783 5.339-2.783 5.339L99.21 41.63s-17.876 6.25-17.676 20.861c.2 14.611 14.556 22.613 20.931 24 6.376 1.388 5.216 1.743 12.675 1.756 7.458.014 18.945-2.869 18.945-2.869s3.473 5.083 5.709 6.109c2.733 1.255 7.46-.893 8.221-1.517.423-.348 2.328-2.479 4.089-4.777 1.76 2.298 3.665 4.43 4.088 4.777.761.624 5.488 2.771 8.221 1.517 2.236-1.026 5.709-6.109 5.709-6.109s11.486 2.883 18.945 2.869c7.459-.013 6.299-.368 12.675-1.756 6.375-1.387 20.731-9.389 20.931-24 .2-14.611-17.676-20.861-17.676-20.861"/><path fill="#0B3746" d="M147.877 48.745l-1.284-1.867a74.014 74.014 0 0 0-3.67-4.83c-1.612-1.945-3.621-4.158-6.068-6.203-2.444-2.038-5.329-3.913-8.608-4.938-3.269-1.036-6.615-1.168-9.703-.661-3.005.397-5.563 1.613-7.512 3.027a17.234 17.234 0 0 0-4.053 4.179c-.389.595-.688 1.075-.86 1.415l-.284.517.077-.584c.043-.39.159-.95.348-1.678.403-1.43 1.234-3.526 3.029-5.684a16.934 16.934 0 0 1 3.42-3.086 17.092 17.092 0 0 1 4.876-2.269c3.517-1.111 7.946-1.363 12.198 0 4.267 1.343 7.62 4.011 10.048 6.695 2.448 2.715 4.074 5.512 5.228 7.909a38.551 38.551 0 0 1 2.247 5.847c.413 1.414.571 2.211.571 2.211"/><path fill="#0B3746" d="M123.361 2.959s.235.316.624.929c.366.619.874 1.549 1.307 2.793.867 2.447 1.38 6.321.032 10.276a15.661 15.661 0 0 1-1.231 2.746c-.475.831-.973 1.554-1.429 2.22-.923 1.328-1.668 2.444-2.106 3.51-.457 1.056-.62 2.005-.639 2.687-.013.682.07 1.082.07 1.082s-.273-.294-.586-.974c-.304-.674-.589-1.782-.493-3.159.068-1.381.579-2.984 1.261-4.521.695-1.569 1.427-3.024 1.955-4.668a28.41 28.41 0 0 0 1.503-8.911c.003-1.208-.083-2.209-.143-2.912l-.125-1.098M175.73 14.554s-.489.486-1.436 1.344c-.978.794-2.438 1.965-4.472 3.048-2.021 1.104-4.588 2.173-7.554 2.923-2.962.764-6.309 1.181-9.794 1.188-3.5-.01-6.733-.335-9.782-1.021-3.007-.701-5.615-1.778-7.616-2.977a19.73 19.73 0 0 1-4.304-3.357 13.61 13.61 0 0 1-.965-1.103c-.205-.261-.314-.397-.314-.397l.453.229c.289.156.723.373 1.286.626a27.814 27.814 0 0 0 4.821 1.667c2.052.532 4.531.905 7.284 1.089 2.717.163 5.903.178 9.126.182 6.479.036 12.257-.468 16.462-1.415 2.11-.435 3.787-.998 4.978-1.367l1.827-.659M167.162 25.106s-.34.317-.953.893c-.649.528-1.618 1.306-2.969 2.026-2.662 1.494-6.877 2.765-11.519 2.732-2.325-.006-4.471-.223-6.497-.68-1.996-.466-3.728-1.182-5.057-1.979a13.118 13.118 0 0 1-2.857-2.231 9.02 9.02 0 0 1-.64-.733l-.208-.264.3.152a18.353 18.353 0 0 0 4.056 1.519c1.363.352 3.009.599 4.837.721 1.803.107 3.918.116 6.058.119 4.3.023 8.138-.309 10.929-.936 1.402-.288 2.516-.661 3.306-.906l1.214-.433M175.931 4.94s-.49.486-1.437 1.344c-.978.794-2.437 1.965-4.472 3.048-2.021 1.104-4.587 2.173-7.553 2.922-2.963.765-6.31 1.182-9.795 1.188-3.5-.01-6.733-.335-9.782-1.021-3.007-.701-5.615-1.778-7.616-2.977a19.73 19.73 0 0 1-4.304-3.357 13.36 13.36 0 0 1-.964-1.103l-.315-.397.453.229c.289.156.723.372 1.286.626a27.814 27.814 0 0 0 4.821 1.667c2.052.532 4.531.905 7.284 1.089 2.717.163 5.903.178 9.126.182 6.479.036 12.257-.468 16.462-1.415 2.11-.435 3.787-.998 4.978-1.367l1.828-.658"/><path fill="#D72050" d="M132.856 85.085s-3.503.099-10.591-.944c-7.422-1.094-16.055-11.409-14.878-14.346 1.177-2.935 5.122-5.648 8.632-2.958 3.511 2.692 17.036 17.376 17.036 17.376l-.199.872z"/><path fill="#0B3746" d="M155.424 79.781l-.348.888c-.222.587-.577 1.44-1.074 2.527-.507 1.083-1.152 2.403-2.083 3.866-.94 1.447-2.106 3.112-4.055 4.53a8.01 8.01 0 0 1-3.669 1.455c-1.442.191-2.968-.106-4.309-.666-2.708-1.141-4.875-3.061-6.94-5.09-2.062-2.051-3.996-4.312-5.956-6.645-1.964-2.353-3.875-4.712-6.019-6.89-2.112-2.146-4.384-4.096-6.56-4.951-.535-.197-1.051-.342-1.531-.386-.569-.049-.729-.027-.904.036-.167.062-.362.212-.552.523-.187.31-.313.765-.392 1.243-.129.987-.025 2.114.294 3.175a11.892 11.892 0 0 0 1.373 3.01c1.184 1.852 2.759 3.328 4.39 4.436 1.631 1.12 3.317 1.882 4.848 2.429.759.304 1.505.472 2.178.69.688.157 1.317.322 1.891.438 1.151.218 2.058.366 2.677.431l.946.126-.95.091c-.625.075-1.548.124-2.751.14-.6.001-1.268-.04-2.005-.067-.729-.09-1.538-.124-2.388-.299-1.71-.287-3.666-.796-5.702-1.781-2.03-.974-4.15-2.437-5.927-4.589-1.719-2.159-3.234-4.98-3.131-8.586.061-.904.212-1.857.658-2.836.441-.965 1.218-1.973 2.34-2.606.272-.174.565-.292.867-.396.301-.121.603-.197.905-.238.66-.134 1.085-.08 1.615-.091 1.009.035 1.967.25 2.869.541 1.792.604 3.317 1.542 4.712 2.572 1.392 1.036 2.654 2.189 3.846 3.401 2.377 2.417 4.364 5.013 6.187 7.407 1.839 2.405 3.571 4.723 5.304 6.767 1.725 2.035 3.481 3.85 5.278 4.861 1.782 1.049 3.539 1.023 5.197.178 1.639-.836 2.995-2.146 4.092-3.337 1.108-1.203 1.975-2.351 2.676-3.295a63.973 63.973 0 0 0 1.562-2.227l.541-.785"/><path fill="#D72050" d="M172.278 85.085s3.502.099 10.592-.944c7.422-1.094 16.055-11.409 14.878-14.346-1.177-2.935-5.122-5.648-8.632-2.958-3.512 2.692-17.036 17.376-17.036 17.376l.198.872z"/><path fill="#0B3746" d="M152.104 85.192l.596.676c.385.441.97 1.087 1.772 1.839.797.744 1.821 1.638 3.13 2.293 1.3.667 2.87.998 4.439.493 1.58-.488 3.166-1.713 4.708-3.266 1.548-1.556 3.064-3.459 4.639-5.508l4.958-6.575c1.804-2.309 3.775-4.684 6.224-6.863 1.229-1.088 2.545-2.105 4.036-2.955 1.487-.84 3.194-1.543 5.146-1.677.51.001.941-.034 1.508.03.297.047.59.087.882.165.295.095.587.202.871.318 1.144.532 2.009 1.465 2.516 2.396.516.94.773 1.896.855 2.78.104.895.062 1.74-.058 2.539-.507 3.2-2.115 5.693-3.899 7.588a17.846 17.846 0 0 1-5.844 3.967c-3.942 1.651-7.335 1.782-9.583 1.771-.565-.02-1.067-.035-1.503-.049l-1.095-.105-.896-.091.893-.126 1.076-.146 1.451-.271c2.147-.442 5.302-1.237 8.489-3.229a16.253 16.253 0 0 0 4.387-3.977c1.22-1.662 2.162-3.733 2.277-5.798.076-1.005-.148-2.021-.513-2.523-.179-.257-.339-.357-.485-.408a.29.29 0 0 1-.13-.025c-.051-.006-.113.005-.165-.008-.139-.01-.425.033-.629.03-1.87.206-4.162 1.744-6.223 3.586-4.19 3.757-7.604 8.479-11.277 12.405-1.823 1.973-3.648 3.819-5.623 5.357-1.961 1.519-4.121 2.809-6.479 3.146a7.375 7.375 0 0 1-3.315-.283c-.983-.334-1.829-.798-2.497-1.338-1.368-1.052-2.218-2.196-2.87-3.129a20.524 20.524 0 0 1-1.35-2.229l-.419-.8M132.139 85.808s-1.822.604-5.21 1.394c-3.395.756-8.323 1.829-14.652 2.119-1.586.058-3.261.062-5.056-.147a37.039 37.039 0 0 1-5.393-1.046c-3.672-1.002-7.504-2.675-11.047-5.287a28.81 28.81 0 0 1-4.927-4.671 27.613 27.613 0 0 1-3.763-6.074c-1.965-4.452-2.875-9.763-1.533-15.047 1.386-5.166 4.3-9.462 7.979-12.724A22.277 22.277 0 0 1 91.5 42.13c1.031-.63 2.207-1.229 3.252-1.606a28.783 28.783 0 0 1 6.495-1.819c4.361-.737 8.628-.276 12.32.783a34.24 34.24 0 0 1 5.15 2.018 39.747 39.747 0 0 1 4.35 2.543c5.267 3.638 8.594 7.568 10.677 10.356a35.788 35.788 0 0 1 2.211 3.353c.454.796.654 1.231.654 1.231s-.269-.397-.834-1.109a40.656 40.656 0 0 0-2.634-2.962c-2.397-2.437-6.121-5.82-11.392-8.708a40.358 40.358 0 0 0-4.241-1.955 33.29 33.29 0 0 0-4.782-1.409c-3.351-.665-7.015-.79-10.692.059a25.814 25.814 0 0 0-5.482 1.849c-.463.197-.907.404-1.296.633-.414.202-.804.478-1.205.728a18.522 18.522 0 0 0-2.277 1.819c-2.891 2.7-5.268 6.405-6.312 10.374-1.01 3.909-.42 8.192 1.08 11.876a24.193 24.193 0 0 0 2.923 5.144 25.725 25.725 0 0 0 3.957 4.157c2.911 2.422 6.194 4.166 9.446 5.345a36.565 36.565 0 0 0 4.832 1.382c1.538.328 3.109.483 4.611.582 6.046.346 11.064-.084 14.491-.369 3.439-.321 5.337-.617 5.337-.617M156.434 48.745s.158-.797.571-2.21a38.591 38.591 0 0 1 2.247-5.847c1.154-2.397 2.78-5.194 5.228-7.909 2.429-2.685 5.781-5.353 10.049-6.695 4.251-1.363 8.681-1.111 12.197 0a17.053 17.053 0 0 1 4.876 2.269 16.907 16.907 0 0 1 3.42 3.086c1.796 2.157 2.626 4.254 3.029 5.684.188.728.305 1.288.348 1.678l.077.584-.283-.517c-.173-.34-.472-.82-.86-1.415a17.234 17.234 0 0 0-4.053-4.179c-1.949-1.414-4.508-2.63-7.513-3.027-3.088-.507-6.434-.375-9.703.661-3.278 1.024-6.164 2.899-8.607 4.938-2.448 2.045-4.456 4.258-6.068 6.203a74.288 74.288 0 0 0-3.67 4.83l-1.285 1.866"/><path fill="#0B3746" d="M180.95 2.959l-.124 1.098a31.729 31.729 0 0 0-.144 2.912 28.434 28.434 0 0 0 1.503 8.911c.527 1.644 1.26 3.099 1.956 4.668.681 1.537 1.192 3.141 1.26 4.521.096 1.377-.189 2.485-.493 3.159-.312.68-.586.974-.586.974s.083-.4.07-1.082c-.02-.682-.183-1.631-.639-2.687-.438-1.065-1.184-2.182-2.106-3.51-.456-.666-.954-1.389-1.43-2.22a15.692 15.692 0 0 1-1.23-2.746c-1.348-3.955-.834-7.829.032-10.276.433-1.244.94-2.175 1.307-2.793.389-.613.624-.929.624-.929M172.172 85.808s1.897.297 5.337.613c3.427.285 8.445.715 14.491.369 1.502-.099 3.073-.254 4.61-.582a36.565 36.565 0 0 0 4.832-1.382c3.252-1.179 6.535-2.923 9.446-5.345a25.766 25.766 0 0 0 3.957-4.157 24.193 24.193 0 0 0 2.923-5.144c1.5-3.684 2.09-7.967 1.08-11.876-1.044-3.969-3.421-7.674-6.312-10.374a18.503 18.503 0 0 0-2.277-1.819c-.401-.25-.791-.525-1.205-.728a11.328 11.328 0 0 0-1.296-.633 25.87 25.87 0 0 0-5.482-1.849c-3.676-.849-7.341-.724-10.691-.059a33.29 33.29 0 0 0-4.782 1.409 40.358 40.358 0 0 0-4.241 1.955c-5.271 2.888-8.995 6.271-11.392 8.708a40.444 40.444 0 0 0-2.634 2.962c-.565.712-.834 1.109-.834 1.109s.199-.436.653-1.231a36.127 36.127 0 0 1 2.211-3.353c2.083-2.788 5.41-6.719 10.678-10.356a39.747 39.747 0 0 1 4.35-2.543 34.346 34.346 0 0 1 5.15-2.018c3.69-1.06 7.959-1.521 12.32-.783a28.79 28.79 0 0 1 6.493 1.819c1.046.378 2.223.977 3.253 1.606a22.277 22.277 0 0 1 2.963 2.195c3.68 3.262 6.594 7.558 7.979 12.724 1.342 5.284.432 10.595-1.533 15.047a27.566 27.566 0 0 1-3.763 6.074 28.817 28.817 0 0 1-4.928 4.671c-3.542 2.612-7.374 4.285-11.047 5.287-1.842.5-3.639.84-5.393 1.046-1.795.21-3.47.205-5.056.147-6.329-.29-11.258-1.363-14.652-2.119-3.386-.787-5.208-1.39-5.208-1.39"/></svg>