<svg xmlns="http://www.w3.org/2000/svg" width="305.834" height="112" viewBox="0 0 305.834 112"><g fill-rule="evenodd" clip-rule="evenodd" fill="#0C3846"><path d="M191.21 92.418c.064.017.126.036.136.108-.062.037-.102-.07-.11 0-.036-.008-.022-.068-.026-.108zM174.33 94c-.016-.013.018-.033.025-.026.015.014-.02.035-.026.027zM190.577 77.533c-.006.025.012.027.028.03.018.042.036-.004 0 0 .006-.025-.01-.028-.028-.03-.018-.042-.036.003 0 0zM190.753 77.973c.08.073.16.103.292.06 0-.147-.14-.154-.204-.235h-.087v.175zM162.54 78.09c-.023.006-.058 0-.06.03.024-.008.058-.002.06-.03zM162.51 78.294c.022-.02.077-.175-.03-.146.017.042-.033.15.03.146zM162.54 78.47c.14.08.07-.096 0 0zM162.686 78.528c-.008-.008-.044.014-.03.03.01.008.045-.014.03-.03zM193.24 82.246c.057-.014.126-.012.116-.088-.076-.01-.126.01-.116.088zM181.768 82.567c-.035.006-.018.032 0 .06.044.004.107-.012.117.028h.176c.034.014.067.03.09.06.1-.05.207.058.262-.06-.174-.056-.437-.162-.644-.088z"/><path d="M173.544 94.39c.268.035.416.19.585.322.17-.084.243.107.408.118.07.106.167.185.206.32.25.15.415.386.556.646.034.024.078.038.146.03.07.133.232.176.322.29h.146c.025.064.072.105.176.09.04.046.1.073.175.087.028.06.06.116.09.176h.145c.06.104.177.155.293.203.078.245.396.248.498.47.14-.03.165.05.205.116a.493.493 0 0 1 .293.116c.14.005.15.14.293.146h.264c.09.046.132.142.205.204.136.03.267.064.35.146h.177c.047.05.122.073.233.06-.012.08.11.026.117.087h.176c.083.093.256.095.352.175.21-.03.298.04.41.06.028.003.02-.03.028-.03.034-.007.09.064.146.03.043.033.12.036.145.086.23-.068.445.093.73.06.002.05.082.017.09.06.082-.024.075.04.145.03.193-.016.298-.035.557-.03.072.004.09-.046.146-.06.104.053.31-.013.41-.06.055-.005.063.035.116.03.04-.084.16-.092.233-.145.11.002.084.033.176 0 .082-.025.12-.094.233-.087.052-.134.235-.136.322-.235.09.02.085-.05.175-.03.033-.043.084-.07.117-.115.08-.01.138-.038.176-.088.052-.056.085.034.146-.03a.95.95 0 0 1 .292-.263c.08-.018.122-.073.205-.088.033-.123.146-.166.175-.294.153-.05.198-.212.352-.264.02-.076.133-.062.146-.146.06-.047.12-.094.204-.116 0-.098.095-.1.088-.205.106-.06.158-.174.264-.233 0-.04.05-.027.058-.06.007-.032.033-.045.06-.058.095.007.062-.114.147-.117.115-.042.196-.117.352-.117.07-.114.17-.2.146-.41.168-.096.315-.21.38-.41.04.01.057.042.118.03-.023-.11.062-.114.116-.146.02-.066.09-.087.147-.117-.026-.123.056-.138.058-.234.097-.02.132-.102.146-.205.116-.02.102-.17.234-.175 0-.04.014-.065.03-.09.047 0 .016-.08.058-.087.124.008.148-.084.233-.116.04-.038.013-.144.088-.146.024-.2.073-.375.204-.468-.026-.167.127-.198.06-.322.06-.01.057-.08.116-.088-.046-.225.12-.455.234-.615-.096-.05-.008-.105-.03-.232a.87.87 0 0 0 .06-.35c.024-.074.08-.117.088-.207-.067-.16.02-.247.06-.38-.035-.004-.033-.046-.03-.087-.01-.04-.042-.056-.03-.117.066-.28-.06-.516 0-.79-.008-.04-.04-.056-.028-.117-.175-.14-.145-.48-.234-.703-.012-.07.054-.064.03-.146-.09-.077-.1-.232-.177-.32.01-.04.043-.056.03-.117-.078-.05-.05-.203-.117-.265.02-.09-.03-.106-.03-.175v-.293c-.033-.005-.03-.046-.028-.088-.068-.077-.116-.176-.175-.263v-.177c-.086-.053-.068-.206-.146-.264-.03-.107-.138-.137-.117-.294-.074-.052-.087-.167-.146-.233.023-.09-.05-.086-.03-.176-.063-.022-.07-.103-.115-.146-.014-.084-.103-.09-.088-.203-.072-.036-.114-.102-.146-.177a.375.375 0 0 1-.233-.204c-.137-.03-.186-.147-.323-.176-.142-.18-.3-.344-.584-.38-.02-.068-.098-.08-.117-.147-.127.01-.163-.07-.265-.088-.004-.054-.1-.018-.116-.06-.02-.038-.062-.053-.117-.058-.025-.05-.07-.085-.088-.146-.165-.02-.258-.112-.41-.145-.022-.064-.137-.038-.145-.117-.093-.004-.13-.067-.234-.06-.037-.05-.06-.114-.146-.116-.082-.024-.18-.033-.263-.06-.047-.04-.024-.15-.12-.145-.005-.043-.07-.027-.115-.03-.034-.024-.08-.038-.147-.028-.005-.045-.07-.028-.116-.03-.033-.025-.08-.04-.146-.03-.07-.01-.055-.1-.146-.088-.02-.006-.057 0-.06-.028h-.35c-.143-.043-.27-.1-.47-.09-.038-.075-.22-.012-.204-.145-.07.017-.134.042-.233.028a.553.553 0 0 1-.176-.117c-.17.025-.2-.092-.38-.058a.305.305 0 0 0-.176-.088c-.13.012-.226-.008-.29-.06-.05.06-.194.023-.208.118.052.005 0 .033 0 .06a.16.16 0 0 0 .03.087c0 .037.038.04.03.087a.2.2 0 0 0-.09.06c-.062-.024-.037-.14-.115-.147.004.072.005.142-.06.146-.012-.05-.037.006-.087 0-.056.006-.065-.033-.118-.03-.047.05-.122.073-.233.06-.056-.004-.1-.02-.118-.06-.042-.016-.15.035-.146-.028-.108-.016-.164-.084-.264-.03-.084-.082-.225-.106-.352-.145-.22.004-.382.067-.586.088-.053.046-.09.106-.204.09-.02.076-.138.057-.176.115-.18.026-.226.075-.38.03-.035.062-.032.164-.09.205-.155.01-.166.164-.35.146-.02.077-.09.106-.146.146-.013.037-.038.06-.09.06.004.05-.02.074-.057.087-.055.012-.073.062-.145.058-.062.144-.24.17-.322.293-.103-.005-.096.1-.176.117-.057-.008-.057.04-.087.06-.02.04-.062.054-.117.058-.018.062-.062.095-.088.146-.11-.02-.063.113-.146.118a1.05 1.05 0 0 1-.206.117c-.005.083-.053.122-.058.205-.055.004-.098.02-.117.06.044.007.02.062 0 .087-.105.023-.138.117-.265.117.02.098-.05.106-.117.116-.006.102-.104.11-.117.205-.063.043-.057.156-.145.176a.846.846 0 0 1-.116.353c-.092-.022-.108.03-.177.028.02.256-.17.3-.176.528-.068.06-.166.088-.146.234-.164.117-.268.297-.292.556-.08.038-.084.15-.175.176.022.1-.033.124-.06.175-.002.086-.066.108-.116.145.033.11-.037.158-.06.176-.036.032.003.127-.058.118-.022.108.05.126.028.234-.09-.02-.086.05-.176.03-.005.043.01.107-.03.116-.032.006-.045.032-.057.06-.002.037-.052.025-.06.058-.068.02-.078.098-.146.117.023.088.04.156.027.233-.005.04-.043.055-.06.088-.02.044-.013.074-.028.117-.102-.022-.125.034-.176.06-.026.102-.05.202-.118.263.024.18-.06.253-.087.382v.233c-.027.043-.045.093-.118.088-.03.04-.05.09-.088.117a.592.592 0 0 1-.205.205c.014.095-.04.11-.06.146a.504.504 0 0 1-.088.118c-.02.155-.078.27-.116.41.014.287.02.583.087.818.008.086-.065.09-.06.176a.652.652 0 0 1-.027.264c.012.056.082.053.058.146-.005.134-.024.115 0 .234.022.007.034.025.03.06-.01.066.084.032.087.087.01.177.12.25.147.41-.018.06-.062.095-.088.145.017.05.14 0 .145.06.07.01.055.102.147.088.11-.023.14.035.233.028-.025.08.04.072.03.143zM184.724 83.182c-.03.05-.125.032-.177.06 0-.03-.05-.037-.058 0 .037.04.126.028.203.028.006.043.072.027.118.03.02.016.14.067.147 0-.09-.027-.123-.112-.233-.118zM184.46 83.21c-.01-.007-.044.015-.03.03.008.008.046-.014.03-.03zM185.28 83.328a.193.193 0 0 0-.147-.03c-.045.09.15.078.147.03zM185.602 83.504c.066-.02.23.053.204-.06-.082.006-.2-.024-.204.06zM186.187 83.532c-.107.022-.163-.07-.233 0 .012.115.174.08.146.235.036-.004.07-.01.06-.06a.195.195 0 0 0 .086-.06c-.04-.016-.056-.06-.06-.115zM172.432 84.616c0-.03-.05-.037-.06 0 .033-.004.046.042.06 0zM169.036 87.22c.06.01.027.11.088.117.067-.098.18-.15.147-.35-.1.013-.102-.074-.146-.118-.086.12-.067.195-.088.35zM165.554 94.068c.002-.05-.023-.075-.058-.087.002.047-.005.103.058.088zM172.987 95.3c.12.017.172.1.322.086.037-.165-.117-.138-.118-.263-.147.02-.204-.05-.352-.03.004.114.144.092.147.206zM186.86 98.576c-.038.08-.15.085-.177.175.15.07.24-.09.293-.203-.04-.007-.05-.05-.088-.06 0 .038-.037.04-.03.09zM169.124 99.63c-.008-.01-.044.014-.03.028.01.01.046-.013.03-.028zM179.807 103.697c-.022.008-.06 0-.06.03.024-.007.06 0 .06-.03zM185.426 104.225c.017-.116-.152-.198-.234-.117.11.005.11.12.234.117zM186.01 104.692c.036.014.067.03.09.06-.01.085.065.09.058.175.054.034.1.076.147.117.048.048.13.063.174.117.09-.038.162.087.204 0-.038 0-.026-.05-.058-.058-.003-.047-.075-.023-.06-.088-.096-.01-.145-.068-.204-.117-.028-.06-.06-.116-.088-.176-.055-.022-.107-.048-.176-.058-.006-.032-.032-.045-.06-.06-.033-.003-.064-.05-.086 0 .04.01.034.067.06.09zM186.684 104.81c0-.016-.022-.033-.028 0-.002.016.023.033.028 0zM186.77 105.248c0 .1.087.11.148.146-.013-.083-.062-.132-.147-.146-.016-.043-.033.003 0 0z"/><g><path d="M141.21 92.418c.064.017.125.036.135.108-.062.037-.102-.07-.11 0-.035-.008-.02-.068-.025-.108zM124.33 94c-.017-.013.017-.033.024-.026.016.014-.02.035-.025.027zM140.577 77.533c-.006.025.012.027.027.03.018.042.037-.004 0 0 .006-.025-.01-.028-.027-.03-.02-.042-.037.003 0 0zM140.753 77.973c.08.073.16.103.29.06 0-.147-.138-.154-.202-.235h-.087v.175zM112.54 78.09c-.023.006-.058 0-.06.03.023-.008.058-.002.06-.03zM112.51 78.294c.02-.02.076-.175-.03-.146.017.042-.033.15.03.146zM112.54 78.47c.138.08.07-.096 0 0zM112.685 78.528c-.008-.008-.044.014-.03.03.01.008.046-.014.03-.03zM143.24 82.246c.056-.014.126-.012.116-.088-.076-.01-.127.01-.117.088zM131.767 82.567c-.035.006-.018.032 0 .06.045.004.107-.012.117.028h.176c.033.014.066.03.088.06.1-.05.21.058.264-.06-.175-.056-.438-.162-.645-.088z"/><path d="M123.544 94.39c.268.035.416.19.584.322.172-.084.244.107.41.118.07.106.166.185.205.32.252.15.416.386.557.646.033.024.078.038.146.03.07.133.232.176.322.29h.145c.025.064.072.105.176.09a.3.3 0 0 0 .175.087c.027.06.06.116.088.176h.146c.06.104.175.155.292.203.078.245.396.248.498.47.137-.03.164.05.203.116a.493.493 0 0 1 .293.116c.14.005.152.14.293.146h.263c.09.046.13.142.205.204.137.03.268.064.352.146h.176c.047.05.12.073.232.06-.012.08.11.026.117.087h.176c.085.093.257.095.353.175.21-.03.3.04.41.06.03.003.02-.03.03-.03.032-.007.09.064.145.03.043.033.12.036.146.086.23-.068.445.093.73.06.002.05.082.017.088.06.084-.024.076.04.146.03.193-.016.3-.035.557-.03.072.004.09-.046.146-.06.105.053.31-.013.41-.06.056-.005.063.035.116.03.04-.084.162-.092.234-.145.11.002.084.033.176 0 .084-.025.12-.094.234-.087.053-.134.236-.136.322-.235.09.02.086-.05.176-.03.033-.043.084-.07.117-.115a.244.244 0 0 0 .176-.088c.052-.056.085.034.147-.03a.94.94 0 0 1 .293-.263c.08-.018.12-.073.205-.088.033-.123.146-.166.174-.294.153-.05.198-.212.35-.264.022-.076.134-.062.147-.146.06-.047.12-.094.205-.116 0-.098.094-.1.088-.205.105-.06.158-.174.264-.233 0-.04.05-.027.057-.06.01-.032.034-.045.062-.058.094.007.06-.114.146-.117.113-.042.195-.117.35-.117.072-.114.17-.2.146-.41.168-.096.316-.21.38-.41.04.01.058.042.118.03-.023-.11.062-.114.117-.146.02-.066.087-.087.145-.117-.025-.123.057-.138.06-.234.097-.02.132-.102.145-.205.115-.02.102-.17.234-.175-.002-.04.014-.065.03-.09.046 0 .015-.08.058-.087.123.008.148-.084.232-.116.04-.038.014-.144.09-.146.023-.2.072-.375.203-.468-.025-.167.127-.198.06-.322.06-.01.058-.08.116-.088-.045-.225.12-.455.234-.615-.096-.05-.008-.105-.03-.232a.887.887 0 0 0 .06-.35c.025-.074.08-.117.088-.207-.066-.16.02-.247.06-.38-.034-.004-.032-.046-.03-.087-.008-.04-.04-.056-.03-.117.067-.28-.06-.516 0-.79-.007-.04-.04-.056-.028-.117-.174-.14-.145-.48-.234-.703-.012-.07.055-.064.03-.146-.09-.077-.1-.232-.177-.32.01-.04.043-.056.03-.117-.08-.05-.052-.203-.118-.265.02-.09-.03-.106-.03-.175v-.293c-.032-.005-.03-.046-.028-.088-.068-.077-.115-.176-.174-.263v-.177c-.086-.053-.068-.206-.146-.264-.03-.107-.14-.137-.117-.294-.074-.052-.088-.167-.146-.233.02-.09-.05-.086-.03-.176-.065-.022-.073-.103-.116-.146-.013-.084-.103-.09-.087-.203a.32.32 0 0 1-.146-.177.378.378 0 0 1-.234-.204c-.137-.03-.186-.147-.322-.176-.142-.18-.3-.344-.583-.38-.02-.068-.098-.08-.117-.147-.127.01-.164-.07-.266-.088-.004-.054-.098-.018-.115-.06-.02-.038-.063-.053-.118-.058-.025-.05-.07-.085-.088-.146-.166-.02-.258-.112-.41-.145-.023-.064-.137-.038-.146-.117-.092-.004-.13-.067-.234-.06-.037-.05-.06-.114-.146-.116-.082-.024-.18-.033-.262-.06-.047-.04-.023-.15-.12-.145-.005-.043-.07-.027-.114-.03a.196.196 0 0 0-.148-.028c-.004-.045-.07-.028-.115-.03-.034-.025-.08-.04-.147-.03-.07-.01-.055-.1-.146-.088-.02-.006-.057 0-.06-.028h-.35c-.144-.043-.272-.1-.47-.09-.04-.075-.22-.012-.205-.145-.068.017-.133.042-.232.028a.553.553 0 0 1-.176-.117c-.172.025-.2-.092-.38-.058a.3.3 0 0 0-.177-.088c-.13.012-.227-.008-.29-.06-.052.06-.194.023-.208.118.05.005 0 .033 0 .06a.15.15 0 0 0 .028.087c.002.037.04.04.03.087a.197.197 0 0 0-.09.06c-.06-.024-.036-.14-.114-.147.004.072.004.142-.06.146-.013-.05-.038.006-.087 0-.057.006-.066-.033-.12-.03-.046.05-.12.073-.23.06-.056-.004-.1-.02-.118-.06-.044-.016-.153.035-.147-.028-.107-.016-.164-.084-.264-.03-.085-.082-.226-.106-.353-.145-.22.004-.38.067-.586.088-.052.046-.09.106-.202.09-.02.076-.14.057-.176.115-.18.026-.227.075-.38.03-.036.062-.032.164-.09.205-.155.01-.167.164-.35.146-.02.077-.09.106-.147.146-.012.037-.037.06-.088.06.002.05-.023.074-.06.087-.054.012-.073.062-.145.058-.06.144-.24.17-.322.293-.102-.005-.096.1-.176.117-.057-.008-.057.04-.086.06-.02.04-.062.054-.117.058-.017.062-.06.095-.087.146-.11-.02-.064.113-.146.118a1.08 1.08 0 0 1-.205.117c-.006.083-.053.122-.06.205-.054.004-.097.02-.116.06.045.007.02.062 0 .087-.104.023-.137.117-.264.117.02.098-.05.106-.117.116-.006.102-.104.11-.117.205-.064.043-.057.156-.146.176a.846.846 0 0 1-.115.353c-.092-.022-.107.03-.176.028.02.256-.17.3-.175.528-.068.06-.166.088-.146.234-.167.117-.27.297-.294.556-.08.038-.084.15-.176.176.023.1-.033.124-.06.175 0 .086-.065.108-.116.145.033.11-.037.158-.06.176-.036.032.003.127-.058.118-.02.108.05.126.03.234-.09-.02-.087.05-.177.03-.005.043.01.107-.03.116-.033.006-.045.032-.057.06-.002.037-.053.025-.06.058-.07.02-.08.098-.146.117.023.088.04.156.027.233-.004.04-.043.055-.06.088-.02.044-.013.074-.028.117-.1-.022-.123.034-.174.06-.027.102-.05.202-.12.263.026.18-.058.253-.085.382v.233c-.027.043-.045.093-.117.088-.03.04-.05.09-.088.117a.6.6 0 0 1-.205.205c.014.095-.04.11-.06.146a.567.567 0 0 1-.087.118c-.02.155-.078.27-.117.41.014.287.02.583.088.818.01.086-.065.09-.058.176a.65.65 0 0 1-.03.264c.013.056.083.053.06.146-.006.134-.025.115 0 .234.02.007.033.025.03.06-.01.066.083.032.087.087.007.177.118.25.145.41-.018.06-.062.095-.088.145.018.05.14 0 .145.06.07.01.055.102.148.088.11-.023.14.035.232.028-.023.08.044.072.032.143zM134.724 83.182c-.03.05-.125.032-.178.06 0-.03-.05-.037-.057 0 .036.04.126.028.202.028.006.043.072.027.12.03.017.016.138.067.145 0-.09-.027-.124-.112-.233-.118zM134.46 83.21c-.01-.007-.045.015-.03.03.008.008.046-.014.03-.03zM135.28 83.328a.195.195 0 0 0-.148-.03c-.045.09.152.078.148.03zM135.6 83.504c.067-.02.23.053.206-.06-.082.006-.202-.024-.205.06zM136.187 83.532c-.107.022-.164-.07-.234 0 .012.115.174.08.146.235.034-.004.067-.01.058-.06a.197.197 0 0 0 .086-.06c-.038-.016-.054-.06-.057-.115zM122.43 84.616c0-.03-.05-.037-.058 0 .033-.004.045.042.06 0zM119.036 87.22c.06.01.027.11.088.117.067-.098.18-.15.147-.35-.1.013-.102-.074-.146-.118-.086.12-.068.195-.088.35zM115.553 94.068c.002-.05-.023-.075-.058-.087.003.047-.004.103.058.088zM122.987 95.3c.12.017.172.1.322.086.036-.165-.118-.138-.118-.263-.148.02-.205-.05-.352-.03.003.114.143.092.147.206zM136.858 98.576c-.037.08-.148.085-.176.175.15.07.24-.09.293-.203-.04-.007-.05-.05-.088-.06 0 .038-.036.04-.03.09zM119.124 99.63c-.008-.01-.044.014-.03.028.01.01.045-.013.03-.028zM129.806 103.697c-.02.008-.06 0-.06.03.025-.007.06 0 .06-.03zM135.425 104.225c.018-.116-.152-.198-.234-.117.112.005.112.12.235.117zM136.01 104.692c.036.014.067.03.09.06-.01.085.065.09.058.175.053.034.1.076.146.117.05.048.13.063.174.117.092-.038.164.087.205 0-.037 0-.025-.05-.057-.058-.004-.047-.076-.023-.06-.088-.097-.01-.145-.068-.204-.117-.03-.06-.06-.116-.088-.176-.055-.022-.107-.048-.176-.058-.006-.032-.033-.045-.06-.06-.034-.003-.065-.05-.087 0 .043.01.035.067.06.09zM136.683 104.81c.002-.016-.02-.033-.027 0-.003.016.023.033.027 0zM136.77 105.248c0 .1.087.11.15.146-.015-.083-.064-.132-.15-.146-.017-.043-.033.003 0 0z"/></g><path d="M141.806 6.61c.17-.03.154.126.35.068.018.1.21.026.21.14.21-.095.436-.086.563.07.632-.22 1.514-.105 2.103-.21.55.058 1.007.21 1.613.21.043.144.328.048.35.21.19-.066.36-.153.562-.21h.98c.104.133.385.082.352.352.117-.093.234-.187.49-.142.225-.058.218.112.35.142.06-.067.448-.148.492 0 .14-.093.332-.133.49-.21.538.117 1.29.02 1.683.28.362-.012.792.045 1.052-.07.498.003.594.037 1.053 0 .344.1.863.024 1.122.21.6.008 1.112.102 1.683.142.21 0 .238.18.42.21.67-.02.803.128 1.264-.07.74.122 1.603.124 2.243.35.495-.087.86.038 1.4.07.177-.01.22.108.282.21.164.003.206-.12.42-.07.22-.01.24.182.28.353.12.003.182-.054.21-.14.017-.078.14-.05.142-.143.21.197.377.032.77.07.2.058.182-.097.352-.07.112-.02.12.066.21.07.08-.012.125.016.14.07.138-.138.4-.044.562 0 .173.01.338.012.42-.07.176-.01.218.11.35.14.403-.133.918-.16 1.403-.21.222-.03.274.1.42.142.237-.016.442-.15.563.07.197-.056.527-.207.7-.07.163.062.302-.245.35-.07.176.01.218-.11.352-.14.6-.078 1.177.133 1.612 0 .003.068.086.053.142.068.174-.01.215.11.35.142.346.063.45-.043.772.07.28-.12.74-.056 1.123-.07.27.08.32.165.63.07.215.25.56.374.98.42.116.233.248.452.21.84-.26.044-.46.15-.63.284-.068.284.173.447 0 .63.204.054-.064.58.14.632-.01.13-.046.234-.14.28.107.1.06.358.07.56-.02.113.065.122.068.212.01 1.015.015 1.625.07 2.174 0 .186.028.398-.07.49.208.39.303.98.21 1.472-.037.155.136.102.143.21 0 .188.04.413-.14.422.062.125.168.204.21.35-.08.217-.013.59.07.843.022.256-.06.62.07.77-.008.18-.13.248-.21.352.062.125.17.205.21.352.018.612.05 1.212.14 1.752.01.172.014.34-.14.35.098.044.01.27.14.28.098.043.01.27.14.28.06.2-.098.18-.07.352.192.378.022.687.212 1.052-.01.34.037.737-.07.983.084.09.026.108 0 .21.106.218.234.42.28.7-.077.016-.047.14-.14.14-.082.012-.06.13-.07.212-.067.252.314.057.28.278-.003.187.037.413-.14.42.085.158.202.31 0 .422.028.133.15.176.14.35-.06.343-.168.832-.07 1.123-.036.22-.124.392-.21.56-.01.128.085.148.07.28.004.11-.034.27.07.28-.163.318-.057.47-.14.842.067.19.153.36.21.562-.1.535.02.857-.142 1.33-.052.218.192.138.14.353.092.174-.205.29 0 .35-.06.15-.18.24-.14.492-.06.224.11.216.14.35-.05.215.072.255.07.42-.092.07-.26.07-.35.142.028.25.373.19.28.562-.17.027.04-.32-.21-.21.006.188-.117.142 0 .28.11.004.266-.036.28.068.09.276-.23.145-.14.42.015.09.208.095.21 0 .23.17-.09.374-.14.493.117.014.18-.12.21 0 .057.197-.1.182-.07.35-.002.165.12.207.07.42.062.02.234.262.07.283.04.143.147.226.21.35.03.465-.112.67.07.98.008.126-.086.147-.07.28.064.568.227 1.252.14 1.753.003.23.118.352.07.63.01.25-.247.222-.35.352.038.102-.084.363.07.353a2.86 2.86 0 0 0-.353.42.512.512 0 0 0 .21.14c-.002.12.052.184.142.21-.065.188-.346.39-.142.63.09-.016.092-.207 0-.21.105-.23.172.147.352.072-.014.06.026.066.068.07-.01.082.017.124.07.14-.11.358-.028.78.07 1.122-.028.274-.31.298-.35.562.06.205.176-.093.35 0 .012.176-.107.218-.21.28.277.237.148.878.28 1.263.062.226-.23.096-.21.28.006.1.01.198-.07.21-.003.164.12.206.07.42.01.13.046.234.14.282.006.107-.034.265.07.28a1.095 1.095 0 0 0 0 .91c-.158.672-.02 1.25-.21 1.823.083.276-.08.594.07.91-.15-.01-.032.25-.07.352-.118.094-.11.312-.21.42.152.757-.133 1.63-.07 2.526-.19.006-.14-.117-.28 0 .02.043.174.27 0 .28-.04.247.247.173.21.42-.106.063.02.105-.07.28-.04.104.082.36-.07.35-.01.178.11.22.14.354-.098.322-.323.514-.49.77.077.322.354.44.28.914-.123.06-.09.283-.35.21-.024.082.117.034.14.07.068.105-.015.395.14.488-.005.102-.01.2.07.21-.253.528.08 1.332-.21 1.895.003.35.082.618.14.914-.157.1-.133.378-.28.49.037.264.1.328-.07.49-.01.176.036.29.14.35a.35.35 0 0 1-.21.212c.054.134.21.047.07.21-.06.198.1.182.07.35-.17.17-.206.208-.14.492-.01.178-.103.27-.28.28-.013.15.248.03.35.068.004.216-.062.36-.21.42.057.243-.08.3-.14.422-.062.226.23.096.21.28.05.26-.12.303-.07.56-.075-.015-.048-.137-.14-.137-.1.107.003.408.14.49.038.102-.082.363.07.353-.05.253-.254.354-.21.7-.163-.02-.08.202-.21.21-.043.146.086.46-.07.49-.053.215.19.136.14.352v.562h-.35c-.063.225.18.144.21.28.006.22-.222.2-.14.49-.06.06-.192.042-.21.14.045.33.046.688.35.912.06.163-.245.302-.07.35-.112.052.016.344-.212.28.047.188.2.266.28.42.04.158-.134.102-.14.21-.05.217.07.257.07.422-.18.008-.11.26-.21.352.012.083.127.06.21.068-.158.158.006.352.07.493.05.19-.14.142-.14.28.104.162-.023.3.07.35-.012.08-.13.06-.212.07-.012.277.11-.023.21.142.052.214-.07.253-.068.418-.052.19.14.144.14.283-.034.337.1.847-.14.98.104.177.174.388.35.492-.145.226.016.76-.14.98-.004.12.052.184.14.21-.054.063-.075.16-.07.282.025.162.086.29.143.42-.09.3-.028.38 0 .702.024.236-.124.298-.212.42.07.187.323.188.42.352.05.213-.12.205-.07.42-.02.112.066.12.07.21-.012.08.016.126.07.14-.1.378-.017.964-.21 1.403.096.09.043.33.14.42.03.146-.048.187-.07.28-.02.122.197.35 0 .42.002.142.192.092.14.283-.046.447-.06.498-.07.98.024.164.085.29.142.42.05.215-.122.208-.07.42.018.216.07.397.14.563-.006.47-.025.962.142 1.263-.01.13-.048.232-.14.277.056.132.116.26.14.422-.083.01-.06.126-.07.21-.082.01-.06.127-.07.21.017.452.202.73.28 1.12-.022.165-.138.29 0 .422.01.175-.11.218-.14.352.103.224.093.56.35.63v.353c.077.202.225.335.352.49v.42c.34.595.298 1.57.7 2.104.074.308-.236.23-.21.492-.054.264.267.153.28.35.056.132.117.257.14.422.07.07.14.142.21.21-.042.062-.084.125 0 .142-.037.194-.102.362-.14.56.09.35.425.77.21 1.193.024.16.084.29.14.42.012.173-.11.216-.14.35.01.124.064.147.07.28.012.216-.18.443 0 .7-.022.235-.202.312-.14.632-.01.13-.047.234-.14.28-.04.103.08.364-.07.35 0 .14.19.092.14.28.054.405-.167.67 0 .982-.093.268-.174.39-.07.7-.104.083-.177.083-.28 0 .036.272-.125.345-.07.632-.53.25-.945-.066-1.472.21-.215.007-.273-.146-.42-.21-.275-.094-.364.038-.563-.068-.275.17-.563.324-1.052.28-.175.01-.217-.11-.35-.14-.156-.072-.254.074-.352.07.01 0-.028-.068-.07-.07-.1-.005-.2.02-.21-.072-.222-.032-.16.217-.42.142-.015-.08-.07-.04-.07 0-.285-.042-.413-.242-.772-.21-.11-.217-.433-.222-.56-.42-.246.01-.45-.02-.562-.143-.132.14-.257.024-.42 0-.262.115-.69.06-1.053.072-.22.05-.137-.195-.353-.142-.225-.016-.297.125-.56.07a1.736 1.736 0 0 1-.562-.14c-.393.118-.93.07-1.333 0-.224-.06-.217.11-.35.14-.698.053-1.462.034-2.104.14-.293-.065-.415-.146-.7-.068-.02-.144-.263-.067-.28-.21a.59.59 0 0 1-.632-.072c-.28-.02-.19.325-.42.352-.242.03-.395-.026-.563-.07-.168.044-.51-.087-.56.07-.206.02-.217-.157-.422-.142-.212.07-.418.144-.63.21-.458.05-.706-.116-1.052 0-.34-.124-.954.022-1.192-.21-.246.035-.456.106-.77.072-.175.01-.218-.112-.353-.142-.27.072-.287-.037-.49.07-.22.034-.16-.214-.42-.14-.176.012-.218-.11-.352-.142-.163.025-.288.086-.42.143-1.003-.126-2.254.15-3.226-.21-.262-.075-.2.172-.42.138-.07-.197-.3.02-.422 0-.123-.04-.41.085-.42-.07-.134.03-.176.153-.35.143.03-.198-.383.053-.353-.143-.17-.028-.152.128-.352.07-.165.002-.206-.12-.42-.07-.617.112-1.502.112-2.033-.068-.328.066-.95.144-1.263 0-.597-.006-1.018.003-1.402-.072-.146.043-.46-.085-.49.072-.24-.108-.538-.165-.913-.142-.123.04-.29.038-.35.142-.166-.024-.264-.112-.492-.072-.38.14-.72-.02-1.052.072-.263-.02-.397-.163-.56-.282-.215-.05-.207.123-.422.072-.11-.123-.314-.152-.56-.143-.102-.13-.46-.007-.56-.14-.23.008-.435.247-.632.07.03-.318.224-.266.49-.21-.052-.276-.32-.334-.63-.35-.31-.076-.23.235-.49.21-.154.013-.226-.058-.212-.21-.35.062-.3-.223-.562-.07-.07-.093-.188-.14-.21-.282-.175.008-.217.134-.35 0-.05-.207-.21-.303-.14-.63-.124-.112-.153-.315-.142-.56-.057-.13-.118-.26-.14-.422v-.21c-.034-.22.1-.273.14-.42.008-.202-.038-.462.07-.562-.13-.314-.068-.82-.28-1.052v-.35c.005-.11-.034-.27.07-.28-.062-.058-.042-.192-.14-.212.127-.202.11-.22.068-.49.093-.213.05-.56.14-.77v-.422c-.155-.102.09-.17-.07-.21-.01-.152.058-.222.212-.21-.03-.134-.15-.176-.14-.35.15-.31.05-.447.21-.703.057-.197-.1-.18-.07-.35.075-.358-.03-.463.07-.77.053-.36-.14-.552.068-.7-.06-.058-.04-.192-.14-.212.118-.093.024-.396.14-.492-.035-.18-.092-.245.07-.35.02-.204-.158-.215-.14-.42.043-.26.167-.442.21-.703.043-.3-.228-.285-.21-.56.082.01.124-.016.14-.072.042-.144-.086-.46.07-.49-.116-.116-.055-.41-.07-.63-.002-.12.053-.182.14-.21-.005-.1-.01-.198.07-.21-.08-.084-.08-.25-.07-.422.046-.258.19-.418.142-.77-.05-.192.14-.142.14-.282.008-.287.015-.576-.07-.77-.04-.44.12-.646 0-.983.165-.856.056-1.554.07-2.523.038-.197.104-.365.14-.562-.117-.346.037-.654-.068-.91.045-.234.217-.344.28-.562-.058-.338-.04-.753-.21-.98.04-.167.1-.318.07-.56.058-.198-.1-.182-.07-.354 0-.36.102-.458 0-.77.145-.02.02-.31.14-.352.023-.626.07-.895.21-1.474.075-.26-.174-.198-.14-.42.156-.7.037-1.244.21-1.894-.008-.202.038-.457-.07-.56.12-.36.15-.367.07-.77-.058-.2.1-.183.07-.353-.076-.285.028-.385 0-.77-.02-.23.27-.15.28-.352-.036-.502.105-1.18-.14-1.473.037-.22.057-.46.14-.632-.063-.204-.063-.215 0-.42-.038-.102.082-.363-.07-.353.04-.14.21-.136.07-.28-.05-.187.146-.135.21-.21-.32-.846.068-1.818-.07-2.665.215-.05.256.072.422.072.02-.115-.066-.123-.07-.21-.076-.02-.047-.142-.14-.142.155-.192.044-.562-.07-.7.148-.227-.04-.79.21-.91-.03-.065-.062-.13-.14-.143-.015.08-.07.037-.07 0-.052-.192.14-.142.14-.28-.086-.03-.145-.09-.14-.21.22.032.053-.323.21-.353-.045-.258-.137-.47-.14-.77-.062-.272.17-.25.21-.422-.15-.352.04-.498.07-.91.045-.256-.152-.27-.14-.49-.065-.125-.025-.353-.142-.42.098-.047.012-.272.14-.283.04-.1-.08-.362.07-.35.053-.215-.192-.136-.14-.35v-.633c-.02-.206.16-.216.14-.422.073-.307-.236-.23-.21-.49-.05-.215.072-.255.07-.42-.068-.288.007-.286 0-.63-.037-.31-.02-.233-.07-.494-.052-.216.193-.133.14-.35-.02-.506-.098-.857-.07-1.544.038-.247-.247-.17-.21-.42-.033-.22.102-.272.14-.42.04-.156-.134-.1-.14-.212v-.77a1.494 1.494 0 0 1-.07-.63c-.153-.08-.004-.465-.21-.49.06-.06.042-.195.14-.212-.134-.17-.205-.402-.21-.703-.01-.266.177-.338.21-.56.022-.327 0-.606-.14-.77-.05-.217.122-.208.07-.42.035-.32-.122-.398 0-.633-.122-.157-.035-.525-.21-.632.05-.16.062-.36.14-.49.01-.46-.124-.53.07-.84-.046-.072-.16-.076-.14-.21.127-.084.055-.368.14-.494-.063-.123-.023-.35-.14-.42-.018-.205.158-.216.14-.42 0-.48-.04-.6-.21-.98 0-.166.12-.21.07-.422-.092-.213-.133-.477-.21-.703-.052-.19.14-.143.14-.28-.022-.162-.137-.29 0-.42-.037-.105-.104-.177-.14-.28-.103-.016-.024-.21-.142-.21-.018-.206.16-.217.14-.42-.114-.332-.192-.696-.278-1.054.035-.196.168-.298.21-.49.016-.293-.114-.333 0-.56-.063-.124-.024-.352-.142-.422.072-.093.07-.258.142-.35-.122-.16-.036-.526-.21-.633-.054-.215.19-.132.14-.348-.093-.2-.24-.604-.14-.772-.036-.196-.17-.3-.21-.49-.052-.215.12-.208.068-.42-.142-.387-.08-.54-.21-.914.13-.44-.062-.77.07-1.19.007-.218-.086-.335-.14-.492-.03-.168.128-.15.07-.35.037-.104-.083-.36.07-.35-.056-.063-.077-.158-.07-.28-.065-.123-.025-.353-.142-.42.037-.27.1-.332-.07-.494 0-.208.183-.237.21-.42.042-.123-.083-.412.07-.42 0-.14-.19-.09-.14-.28-.02-.37.074-.417 0-.7-.06-.2.1-.183.07-.353.03-.146-.05-.187-.07-.28.14-.18-.072-.322.07-.42-.19-.482-.313-1.183-.35-1.614-.03-.146.047-.187.07-.28.007-.124-.088-.148-.07-.28v-.84-.42c-.006-.113.032-.27-.072-.284.055-.063.076-.158.07-.28.013-.2.13-.293.14-.49-.052-.205-.11-.404-.278-.492.156-.245-.052-.42.068-.7-.147-.746-.127-1.34.07-2.104.05-.19-.14-.14-.14-.28.006-.11-.034-.27.07-.28-.163-.095-.108-.405-.21-.56.09-.402-.105-.898 0-1.335.06-.198-.1-.182-.07-.35.04-.588.148-1.158.07-1.894.012-.176-.11-.22-.14-.352-.08-.655.102-.902.07-1.61.104-.27.165-.585.278-.843-.02-.16.013-.27.07-.35-.086-.032-.143-.092-.14-.21.253-.124.062-.69.21-.912v-.63c.11-.385.092-.853.14-1.125-.05-.242-.214-.372-.07-.63.45-.067.957-.072 1.334-.21.198-.058.18.098.35.07.618-.1 1.315-.205 1.825.07.305 0 .63-.024.84.07.19.052.14-.14.28-.14.027-.104.22-.026.22-.144zm17.6 13.603c-.253-.12-.305-.442-.7-.42-.22-.033-.186.187-.35.21-.262.05-.3-.12-.563-.07-.02.144-.31.017-.28.21-.02.145-.187.142-.28.21-.332-.05-.482.08-.77.07-.224.014-.235-.187-.492-.14-.212.067-.42.143-.63.21-.175-.082-.414-.1-.633-.14-.193.157-.334.364-.77.28-.14.05.017.39-.142.42-.1-.106-.358-.062-.56-.068-.012.13-.238.04-.28.14-.105.035-.177.105-.28.14-.102.204-.436.176-.562.35.04.3-.05.465-.07.7.007.265.078.2 0 .422.138.222.173.392.21.562-.096.207.04.305 0 .63.058.15.05.362.14.63.036.4.036.605-.07.983.224.032.05.467.212.56-.035.314.034.525.068.772.067.415-.134.7 0 .98-.03.135-.2.128-.14.352.095.14.134.332.21.49-.186.156.1.35-.07.492.038.263.1.327-.068.49.115 0 .04.192.14.21-.017.132.08.153.07.278-.158.152.058.24 0 .493-.007.43-.074.678.07 1.053-.095.045-.132.148-.14.28.103.013.062.17.07.28v.42c-.03.17.127.153.068.35-.01.132-.045.235-.14.28-.02.206.158.217.14.42-.105.457-.1 1.024-.14 1.546.104.22.034.616.14.84-.104.06-.102.225-.14.35-.056.13-.117.26-.14.42 0 .188-.027.402.068.494-.195.068.022.295 0 .42-.128.008-.04.237-.138.28-.095.045-.13.148-.14.28.08.08.078.247.068.42.13.128.16.354.21.562-.02.165-.243.13-.21.35a.932.932 0 0 1 0 .703c0 .137.192.086.142.278-.153-.01-.032.25-.07.35-.152-.012-.033.25-.07.35-.117.003-.04.195-.14.21.015.135-.08.156-.07.284.058.175.19.274.21.49 0 .138-.19.09-.14.28.077.084.2.127.14.35.06.225-.11.216-.14.352.088.083.028.265-.07.35.058.2.08.434.14.63.053.217-.192.137-.14.353.03.133.15.176.14.352-.2-.014.058.43-.14.42-.003.164.12.205.07.42-.14.19-.042.612-.07.912.068.164.122.343.14.562-.1.594-.19 1.206 0 1.752-.113.098-.18.242-.21.42-.073.863-.208 1.662-.28 2.525.055.41.016.755 0 1.264-.05.213.07.255.07.42.05.216-.193.134-.142.35.224.24-.007.554.14.913-.008.34.04.737-.07.98-.027.17.13.154.07.35-.146.835-.227 1.524-.35 2.247.11.396.012 1.157-.07 1.75-.012.174.11.217.14.353-.114 0-.04.195-.14.21-.094.047-.13.15-.14.28.114 0 .04.194.14.21.188-.047.135.145.21.21.11.222-.037.307-.07.563.196-.032-.054.38.14.35-.05.216.073.256.07.42.036.573-.072 1.002-.14 1.473-.02.14.096.14.14.21-.006.113-.177.057-.14.21.294.263.065.627.21 1.053-.04.168-.1.32-.07.562-.027.134-.198.126-.14.35-.027.123.105.182 0 .21.038.268.22.39.21.704-.008.364-.13.615-.14.98.012.198.13.292.14.492-.12.48.025.81-.07 1.33.07.353.166.678.14 1.122-.05.216.194.136.143.352-.105.06-.15.177-.142.352.036.22-.213.157-.14.42-.006.208.118.414.14.632.058.538-.085 1.135-.14 1.61.105.06.102.228.14.353.018.133-.077.154-.068.28-.012.105.024.258-.07.28.136.595-.056 1.07.14 1.754-.084.468-.022 1.06.142 1.61-.153-.01-.032.25-.07.35-.013.223.187.235.14.49-.06.153-.182.24-.14.494-.07.28.21.21.14.49.032.34-.073.82.07 1.05-.104.015-.063.17-.07.28-.02.097-.1.137-.07.283.16.165.123.53.21.77-.055.13-.116.26-.14.42-.05.216.12.21.07.422-.1.093-.1.395 0 .49-.124.018-.16.12-.14.28v.563c-.044.19-.293.173-.28.42.137.13.02.257 0 .42.14.095.155.31.21.492.053.264-.085.335-.07.562.247.285-.115 1.124.21 1.47.136.14.282-.07.49-.07.02.147.31.02.352.142.06-.205.226.042.352 0 .273-.08.26-.017.56-.072.118.117.338.13.42.282.25-.122.173.046.423.07.134-.03.127-.2.35-.143.4.163.965.16 1.403.282.1-.02.118-.118.21-.142.013.104.17.064.28.07.14.115.09-.006.28 0 .03.12.092-.015.212 0h.42c.197-.057.182.1.35.07.132-.056.258-.117.422-.14h.42c.217.053.136-.192.352-.143.013-.48-.064-.48-.212-.84.194-.018.215-.206.28-.35-.166-.092-.136-.38-.21-.562-.02-.236.055-.567-.07-.7.26-.05-.03-.21.14-.353.085-.013.044-.076 0-.138-.015-.133.08-.156.07-.282-.02-.527.073-.512.07-.98-.152-.426.06-.798-.14-1.123.16-.074.255-.213.28-.42-.18-.313-.188-.795-.35-1.122.103-.014.063-.17.07-.28-.06-.2.1-.183.07-.35-.06-.084-.093-.19-.07-.354.13-.37.082-.547.14-.91.053-.202.33-.18.28-.49.002-.163-.12-.206-.07-.42-.02-.164-.243-.13-.21-.352.173-.098.123-.242.07-.42.064-.168.28-.187.21-.49 0-.352-.208-.492-.28-.772.053-.264-.086-.336-.07-.562.096-.184.082-.478.14-.7.052-.213-.07-.256-.07-.422.005-.09.09-.096.07-.21-.097-.09-.07-.303-.07-.49.124-.247-.046-.172-.07-.42.095-.07.14-.187.21-.28-.103-.106-.112-.31-.14-.493.035-.314-.035-.524-.07-.77.044-.405.002-.464 0-.914.18-.122.204-.404.28-.63-.08-.01-.074-.11-.07-.21-.035-.223-.205-.308-.21-.56.005-.254.175-.342.21-.563-.016-.102-.115-.117-.14-.21-.19.05.05-.33-.14-.28.098-.378-.268-.295-.21-.63.022-.097.1-.138.07-.284a.495.495 0 0 0 .21-.14c-.104 0 0-.058 0-.07a.348.348 0 0 0-.07-.212c.02-.14.19-.135.21-.28-.114 0-.04-.192-.14-.21.016-.132-.078-.153-.07-.278.016-.298-.108-.453-.14-.704v-1.54c.29-.443.098-1.333 0-1.826-.008-.215.085-.332.14-.49-.155-.007-.03-.297-.07-.42 0-.186.027-.398-.07-.49.11-.502.003-.66.07-1.262v-1.614c0-.164.12-.205.07-.42-.053-.296-.087-.612-.14-.912.065-.41.228-.942 0-1.262.153-.08.005-.464.21-.49-.063-.204-.063-.215 0-.42-.057-.133-.117-.26-.14-.422.152-.52-.08-.854.07-1.402-.18-.466.073-.933-.142-1.332.124-.02.16-.123.14-.282-.198-.435-.112-.743-.07-1.19.052-.215-.12-.208-.07-.42-.014-.65.1-1.02-.067-1.543.125-.24-.013-.338 0-.632-.03-.17.126-.154.067-.35-.088-.207.047-.42 0-.773v-.42c.04-.124-.084-.412.07-.423-.02-.164-.11-.264-.07-.49.035-.2.367-.1.28-.42.104-.267-.313-.013-.21-.28.023-.164.11-.263.07-.492.03-.18.21-.21.21-.42-.014-.268-.294-.268-.28-.56.062-.125.285-.09.21-.353-.03-.343-.094-.655-.14-.98.04-.193.175-.294.21-.49-.21-.212-.197-.647-.28-.984.068-.21.186-.375.21-.63.053-.217-.192-.134-.14-.35.152.01.03-.25.07-.352-.132-.1-.008-.457-.14-.56.12-.112.15-.314.14-.56.115-.003.04-.194.14-.21-.028-.17.13-.152.07-.352.017-.134-.08-.155-.07-.28.087-.226-.227-.053-.14-.28-.05-.275.05-.352.14-.42-.122-.02-.16-.123-.14-.282v-.77c0-.142.19-.09.14-.282.022-.735.105-1.25 0-1.894.133-.123 0-.515.28-.49a1.947 1.947 0 0 0-.28-.63c.16-.075.028-.443.07-.633.12-.113.175-.292.142-.562.02-.1.107-.12.138-.21.034-.097-.04-.264.07-.28 0-.21-.182-.236-.21-.42.156-.03.028-.346.07-.49.028-.17-.128-.15-.07-.352.134-.302-.01-.49.07-.772.112-.14.054-.456.21-.56-.043-.214-.15-.363-.21-.56.21-.103.427.246.42-.07-.047-.21-.15.067-.28 0-.065-.285-.124-.71 0-.982-.04-.146-.174-.2-.14-.42.134-.032.302.215.28-.07.157-.032.027-.346.07-.49-.16-.053-.21-.213-.28-.35.158-.076.026-.443.07-.633-.14-.164-.163-.447-.142-.772.124-.153.102-.46.35-.49a1.244 1.244 0 0 1 0-.7c-.128-.01-.04-.24-.14-.282-.028-.13-.198-.124-.14-.348.096-.338.188-.402.07-.772.04-.146.174-.2.14-.42-.128-.197.003-.656-.14-.842-.144-.117-.463-.053-.63-.145zm16.41 1.123h.14v-.142h-.14v.142zm.772 4.136c-.055.016-.14.003-.14.07.053-.015.138 0 .14-.07zm.21.492c.02-.162-.018-.264-.14-.282.016.125-.07.352.14.282zm-2.454 1.61c.01-.172-.036-.29-.142-.35-.088.083-.16.458.142.35zm-28.75.492c.16.02.263-.017.28-.14-.097.003-.154-.034-.21-.07a.316.316 0 0 1-.07.21zm30.082 2.735c.005-.098-.016-.266-.07-.138-.005.1.014.267.07.14zm-.56.914c0-.04-.06-.08-.072 0 0 .037.057.08.07 0zm.138 7.012c.002-.04-.055-.08-.07 0 0 .037.057.08.07 0zm0 .35c.004-.044.01-.084.07-.07-.007-.086-.02-.166-.14-.142.01.083-.01.2.07.21zm.983 1.05c.043.104.084-.006 0 0-.045-.102-.085.01 0 0zm-24.052 1.335c-.02-.02-.107.032-.07.07.02.018.105-.035.07-.07zm10.377 1.332c-.053.016-.14.003-.14.07.056-.014.14 0 .14-.07zm14.656.28c-.02-.02-.106.034-.07.07.02.02.107-.033.07-.07zm-14.865 5.68h.21c.02-.16-.017-.264-.14-.28-.023.093-.1.133-.07.28zm-12.552 6.17c-.086.01-.165.02-.14.142h.14c.197.013.008-.498-.07-.21.042.004.083.01.07.068zm9.958 1.824c0-.04-.057-.08-.07 0 0 .04.057.08.07 0zm16.48 1.894c-.022-.02-.107.034-.072.07.02.02.106-.032.07-.07zm.49 2.593c-.054.017-.14.002-.14.072.054-.016.138-.002.14-.072zm-1.894 2.455c-.02-.02-.107.034-.07.07.018.018.107-.035.07-.07zm-35.2 5.892c-.055.016-.14 0-.142.068.055-.015.14-.002.142-.068zm35.9 1.33c.023-.096.1-.132.07-.28-.24-.052-.273.267-.07.28zm-.77 1.614c-.052-.215.192-.136.14-.35-.175-.05-.297.298-.14.35zm-23 2.525c-.02-.022-.106.03-.07.068.02.02.107-.034.07-.07zm24.12.28c-.017-.02-.105.033-.067.067.018.02.105-.034.068-.068zm.072.7c-.02-.02-.106.033-.07.068.02.022.105-.03.07-.07zm-.21.14c-.02-.018-.107.035-.07.07.018.02.106-.035.07-.07zm-27.278 11.01c-.018-.02-.105.034-.07.07.02.018.106-.036.07-.07zm11.15.77c.043.103.084-.006 0 0-.044-.1-.085.007 0 0zm-6.942 4.348c.204.104.205-.314 0-.21v.21zm-16.128 4.208c-.02-.02-.105.034-.07.068.02.022.107-.03.07-.068zm20.125 5.187c.082.063.663.2.63-.07-.14-.172-.587-.206-.63.07zm.842-.07c.014.058.002.14.07.142 0-.093.123-.064.14-.14-.1-.027-.12-.087-.21 0zm1.822.07c-.17-.16-.34.07-.56.07.003.388.426.268.63.14.238.03.4-.02.35-.28-.164 0-.205.12-.42.07zm-5.61.14h.14c.11-.172-.237-.203-.21-.068.043.003.084.01.07.07zm1.543 0c.16-.05.548.13.49-.14h-.49v.14zm-2.244-.068c-.02-.02-.107.035-.07.07.02.018.106-.035.07-.07zm3.226 0c-.02-.02-.106.03-.07.07.02.018.106-.035.07-.07zm3.856.28c.092-.216-.2-.397-.28-.21.093.068.138.188.28.21zm18.582-.21c-.02-.02-.106.033-.07.068.02.022.107-.03.07-.07z"/><path d="M177.078 34.798c-.036-.035.05-.088.07-.07.036.04-.05.09-.07.07z"/><g><path d="M175.743 30.9h.31c.097-.006.034-.17.153-.154.112.01.164-.042.154-.154.262.08.414.272.566.463.252.085.412-.048.617.052.033.188-.11.197-.104.36.078.18.228-.026.358.103.04.113.108.2.104.36.094.23.484.166.565.41.222-.032.288.09.41.155v.31c-.103.048-.202.103-.308.153a1.33 1.33 0 0 1-.155.41c.03.092-.062.303.052.31-.046.108-.156.15-.154.308-.104.05-.203.105-.31.154-.062.39.024.63-.05 1.03-.15.073-.306.14-.41.257-.155-.002-.177-.135-.31-.154-.195.01-.25.16-.412.205-.128.043-.16.18-.257.258-.176-.05-.318-.162-.514-.053-.007-.097-.17-.035-.155-.154-.076-.026-.13-.077-.205-.103-.094-.313.06-.557-.052-.824-.185-.03-.25.06-.36.104-.244-.075-.395-.11-.668-.05-.07-.067-.05-.226-.052-.362a.36.36 0 0 0-.257-.256c.056-.24-.134-.407 0-.567-.026-.076-.075-.13-.103-.205.082-.21.097-.254.052-.515-.037-.138.105-.1.153-.154-.04-.195.062-.247.052-.412.217-.023.236-.244.41-.31a.194.194 0 0 1 0-.257c.073-.098.25-.092.36-.153.058-.01.08-.057.104-.103 0-.067.09-.047.102-.103.077-.077.217-.09.258-.205 0-.072.026-.113.053-.155zM174.663 30.85c.132-.003.062.038.052.103.06.094.272.035.206.257-.11.116-.175-.042-.36 0-.05-.206.154-.156.103-.36z"/><path d="M175.743 30.9c-.062.005-.03-.075 0 0zM174.304 34.757c0-.05.062-.04.103-.05-.002.05-.064.04-.103.05zM177.39 35.528c.01-.058.05-.027.05 0-.01.06-.05.03-.05 0z"/><g><path d="M178.205 16.484c.025.214.232.247.412.31-.003.168-.087.255-.052.462.073.2.123.426.257.565-.016.24 0 .445.104.566.003.377-.12.614-.052.926.073.115.165.212.257.31-.013.21-.208.27-.102.462-.145.096-.198.28-.257.463h-.205c-.106.1-.25.162-.36.258-.112.075-.276.1-.36.205-.082.015-.088-.05-.153-.05-.135.075-.166.45-.412.255-.118-.225.348-.254.36-.514-.155-.14-.23.113-.463.052-.108.064-.2.143-.31.207-.154.015-.183.157-.41.1-.1-.07-.094-.248-.154-.358-.046-.144-.207-.17-.36-.205-.022-.064-.065-.106-.154-.104-.07-.103-.12-.223-.258-.258.05-.307-.22-.293-.154-.617.002-.155-.26-.05-.258-.205-.19.106-.266-.075-.41-.154-.01-.163.136-.173.102-.36.3.008.283-.3.515-.36.01-.198.002-.38-.052-.515.168-.168.387-.348.258-.668.16-.03.573-.174.617 0 .147-.006.09-.22.257-.206-.02-.133-.153-.154-.154-.308.202-.038.245-.235.257-.463.126-.03.11-.2.31-.155.104-.083.21-.167.36-.206a.81.81 0 0 0 .462 0c.095-.01.03-.175.103-.206.215.012.243-.084.412 0 .052.068.048.19.154.205-.036.157.054.187.052.308-.064.014-.052.103 0 .104-.008.095-.173.033-.157.152zM178.617 16.072c-.027-.026.037-.065.05-.05.027.026-.036.065-.05.05zM178.926 16.998c.12 0 .15.09.31.052.104.247.02.6-.31.565v-.205c-.008-.096-.175-.03-.206-.104-.036-.206.217-.125.206-.308z"/></g><g><path d="M177.646 58.104c.19-.02.095.248.257.258-.03.186.06.25.103.36.092.007.11-.063.206-.052a.337.337 0 0 1-.052.258c.146.258.142.383.154.72.052.103.228.08.206.257-.074.08-.13.18-.257.205-.008.152.148.363-.052.412.025.146.25.06.258.258.108-.113.23-.012.31.05.19.056.145-.126.308-.103.066.14.264.148.31.31.09.007.107-.063.205-.052.05.27-.156.29-.256.412-.172-.018-.23-.15-.463-.104-.13.006-.102.172-.103.31-.13.005-.102.17-.103.308-.257.138-.15.64-.36.823a.41.41 0 0 1-.36 0c-.103.053-.08.23-.257.207-.02.133-.153.154-.154.31-.238.017-.398.114-.463.308-.06-.06-.182-.06-.31-.053-.016-.188-.262-.148-.256-.36-.17-.017-.224-.153-.31-.257-.168-.002-.195-.146-.41-.102.01-.2-.178-.2-.206-.36-.083.015-.09-.05-.154-.052-.293.033-.486.186-.617-.104-.02-.107.035-.135.052-.205.055-.014.034-.102.102-.104-.02-.183-.138-.187-.052-.358-.06-.076-.063-.21-.154-.258.053-.17.053-.393.154-.514-.006-.21-.22-.426 0-.566-.046-.227-.324-.223-.31-.514-.08-.184.177-.03.155-.154.068-.018.082-.09.154-.104-.037-.19.087-.22.05-.41.162.023.137-.14.258-.154-.037-.227.167-.21.206-.36.114.118.2-.017.36 0 .052.103.09.22.205.257.157-.03.268-.11.41-.154.163-.063.01-.147.155-.257.06.01.092-.01.103-.05.137 0 .294-.02.36.05.162.01.172-.137.36-.102.075-.044.162-.077.153-.206h.106zm-.72.462c-.04.012-.102.002-.103.053.04-.013.102-.003.103-.054zM174.766 58.824c.01-.06.052-.03.052 0-.01.06-.052.03-.052 0z"/></g><path d="M178.042 45.036c.19-.02.095.248.257.258-.03.186.06.25.102.36.092.007.11-.063.206-.052a.337.337 0 0 1-.052.258c.146.258.142.383.154.72.052.103.228.08.206.257-.074.08-.13.18-.257.205-.01.152.147.363-.053.412.024.146.25.06.257.258.108-.113.23-.012.31.05.19.056.145-.126.308-.103.066.14.264.147.31.308.09.008.107-.062.205-.05.048.27-.157.288-.257.41-.172-.017-.23-.15-.463-.103-.132.006-.103.172-.104.31-.13.005-.102.17-.103.308-.257.137-.15.64-.36.822a.41.41 0 0 1-.36 0c-.103.053-.08.23-.257.207-.02.133-.153.154-.154.31-.24.017-.4.114-.464.308-.06-.06-.182-.06-.31-.053-.016-.188-.262-.148-.256-.36-.17-.017-.224-.153-.31-.257-.168-.002-.195-.146-.41-.102.01-.2-.178-.2-.206-.36-.083.015-.09-.05-.154-.052-.293.033-.486.186-.617-.104-.02-.107.035-.135.052-.205.056-.014.035-.102.103-.104-.02-.184-.138-.188-.052-.36-.06-.075-.063-.21-.154-.257.053-.17.053-.393.154-.514-.006-.21-.22-.426 0-.566-.046-.227-.324-.223-.31-.514-.08-.184.177-.03.155-.154.07-.018.083-.09.155-.104-.036-.19.088-.22.052-.41.16.023.136-.14.257-.154-.037-.227.167-.21.206-.36.114.118.2-.017.36 0 .052.103.09.22.205.257.158-.03.27-.11.412-.154.162-.064.01-.148.154-.258.06.01.093-.01.104-.05.137 0 .294-.02.36.05.162.01.172-.137.36-.102.075-.045.162-.078.153-.207h.105zm-.72.463c-.04.01-.103 0-.104.052.04-.012.102-.002.103-.053zM175.16 45.757c.01-.06.053-.03.053 0-.01.058-.052.03-.052 0z"/></g><g><path d="M135.892 28.937c.104 0 .205-.003.31-.004.097-.007.032-.17.15-.156.113.008.165-.044.153-.156.263.08.417.27.572.458.252.082.41-.053.617.044.035.188-.11.2-.1.36.082.182.23-.027.36.1.043.113.11.2.108.358.096.23.486.16.57.405.22-.035.29.085.412.15l.004.308c-.104.05-.2.107-.307.158-.023.162-.085.29-.148.414.03.09-.058.302.056.307-.045.11-.154.155-.15.312-.104.05-.203.107-.308.158-.06.39.03.63-.04 1.03-.146.075-.303.144-.406.262-.154 0-.178-.133-.31-.15-.196.013-.25.164-.41.21-.13.044-.16.182-.256.26-.177-.046-.32-.158-.515-.046-.006-.097-.17-.033-.155-.152-.077-.024-.13-.075-.206-.1-.098-.312.052-.558-.062-.823-.185-.026-.25.064-.36.108-.244-.072-.395-.106-.668-.043-.07-.065-.053-.224-.056-.36a.358.358 0 0 0-.26-.253c.052-.24-.14-.405-.007-.566-.028-.076-.078-.128-.106-.204.08-.212.094-.255.046-.516-.038-.137.104-.1.152-.155-.042-.193.06-.246.047-.41.216-.027.232-.248.406-.314a.194.194 0 0 1-.002-.258c.07-.1.247-.096.357-.158.058-.012.08-.058.103-.104 0-.067.09-.048.102-.104.076-.078.216-.094.256-.21a.24.24 0 0 1 .052-.155zM134.81 28.897c.133-.004.064.038.055.103.06.093.272.032.21.255-.11.117-.178-.04-.362.004-.054-.206.15-.158.098-.363zM135.892 28.937c-.063.005-.033-.076 0 0zM134.497 32.81c0-.05.062-.04.102-.053 0 .05-.064.04-.103.053zM137.592 33.545c.01-.058.05-.028.05 0-.008.058-.05.03-.05 0z"/><g><path d="M138.185 14.493c.03.213.236.244.416.304 0 .17-.083.257-.045.463.075.2.128.425.263.562-.012.238.007.444.11.564.008.377-.114.615-.04.926.074.114.167.21.26.306-.012.21-.205.274-.098.464-.143.098-.194.284-.25.466-.07 0-.14.002-.207.003-.105.102-.247.166-.357.263-.11.077-.275.103-.357.21-.083.015-.09-.05-.155-.05-.134.078-.16.454-.41.26-.12-.222.346-.257.355-.517-.156-.138-.23.115-.463.056-.107.066-.197.146-.306.21-.154.02-.18.16-.408.107-.1-.072-.098-.25-.16-.358-.047-.144-.208-.168-.36-.2-.024-.065-.067-.106-.157-.103-.07-.103-.122-.223-.26-.256.048-.308-.224-.29-.16-.615 0-.156-.26-.047-.262-.203-.19.108-.266-.072-.412-.15-.01-.16.136-.173.1-.36.3.005.28-.304.51-.365.01-.198-.003-.38-.058-.515.166-.17.383-.352.25-.67.16-.032.57-.182.617-.008.146-.01.085-.222.253-.21-.02-.134-.154-.153-.157-.307.202-.04.242-.238.25-.466.127-.03.11-.2.308-.158.105-.085.21-.17.358-.21a.81.81 0 0 0 .463-.007c.095-.01.03-.174.1-.206.216.01.243-.087.413-.005.053.068.05.19.156.203-.035.16.055.188.055.31-.065.013-.052.102 0 .103-.007.096-.17.036-.155.155zM138.593 14.076c-.027-.026.036-.066.05-.052.026.027-.037.066-.05.052z"/><path d="M138.912 14.998c.12-.003.152.087.31.048.107.246.027.6-.303.57 0-.07-.003-.138-.003-.206-.01-.096-.176-.03-.207-.102-.04-.205.215-.127.202-.31z"/></g><g><path d="M138.11 56.115c.19-.02.098.247.26.255-.027.186.063.25.107.358.092.007.11-.063.205-.054a.33.33 0 0 1-.05.26c.15.255.147.38.164.716.054.104.23.08.21.256-.074.08-.13.18-.256.208-.006.152.153.36-.047.412.027.146.25.056.26.255.107-.113.23-.013.31.05.193.05.146-.13.308-.108.07.14.267.146.313.305.092.007.107-.063.205-.053.05.27-.154.29-.252.415-.172-.017-.23-.148-.465-.1-.13.008-.1.174-.1.31-.13.008-.1.174-.098.31-.255.14-.142.64-.35.827a.408.408 0 0 1-.36.004c-.104.055-.08.23-.256.21-.02.135-.15.157-.15.312-.238.02-.396.12-.46.314-.06-.06-.182-.057-.31-.05-.018-.187-.264-.146-.26-.356-.172-.016-.226-.15-.312-.254-.17 0-.198-.145-.413-.097.01-.2-.18-.2-.208-.36-.084.017-.09-.047-.155-.05-.293.038-.484.192-.618-.095-.024-.107.032-.136.048-.206.056-.016.034-.103.102-.105-.02-.184-.14-.187-.057-.36-.06-.074-.065-.21-.156-.255.05-.17.048-.393.148-.515-.01-.21-.227-.424-.008-.566-.048-.228-.326-.22-.314-.512-.082-.183.176-.033.153-.156.067-.018.08-.09.153-.104-.04-.19.084-.222.046-.41.16.02.134-.142.255-.158-.04-.227.165-.213.203-.363.115.117.2-.02.36-.005.052.104.09.22.208.256.158-.033.268-.112.41-.16.162-.065.01-.147.15-.26.062.01.093-.01.104-.05.137-.003.294-.024.36.046.162.008.17-.14.358-.106.075-.046.163-.08.152-.21l.107-.003zm-.714.472c-.04.012-.102.003-.102.054.04-.01.102-.002.102-.053zM135.24 56.87c.008-.06.05-.03.05 0-.01.058-.05.03-.05 0z"/></g><path d="M138.354 43.044c.19-.02.098.247.26.255-.028.186.062.25.107.357.093.007.108-.063.206-.053a.338.338 0 0 1-.05.258c.15.256.147.382.163.717.052.103.228.08.208.255-.072.08-.127.18-.254.208-.006.152.152.36-.047.413.025.146.25.056.26.254.107-.114.23-.014.31.048.192.052.145-.13.307-.107.068.14.266.147.312.306.092.007.107-.063.205-.053.053.27-.152.29-.25.415-.173-.016-.23-.147-.465-.098-.132.007-.1.173-.1.31-.13.007-.1.173-.1.31-.255.14-.142.64-.35.826a.408.408 0 0 1-.36.004c-.103.055-.08.23-.255.21-.02.134-.152.156-.15.31-.238.022-.398.12-.46.315-.062-.06-.183-.057-.31-.05-.02-.187-.264-.145-.26-.355-.172-.016-.227-.152-.313-.255-.17 0-.197-.144-.412-.097.006-.2-.18-.2-.21-.358-.083.017-.09-.048-.155-.05-.293.037-.484.19-.618-.096-.022-.107.033-.136.05-.206.055-.014.033-.102.1-.104-.02-.184-.14-.186-.055-.358-.06-.076-.066-.21-.157-.256.05-.17.048-.394.147-.516-.008-.21-.225-.424-.006-.566-.048-.227-.325-.22-.313-.51-.082-.184.176-.034.152-.156.067-.02.08-.09.152-.105-.038-.19.085-.222.047-.41.16.02.133-.14.254-.158-.04-.227.164-.214.2-.364.117.117.202-.02.362-.005.053.105.092.22.207.257.158-.033.268-.112.41-.16.162-.065.01-.147.152-.26.06.01.092-.01.102-.05.137-.003.294-.023.36.046.163.008.17-.14.358-.105.076-.046.162-.08.152-.21.04-.003.072-.003.107-.004zm-.714.472c-.04.012-.102.003-.103.054.04-.012.102-.004.103-.054zM135.482 43.8c.01-.06.052-.03.052-.002-.01.058-.052.03-.052 0z"/></g></g></svg>