<svg xmlns="http://www.w3.org/2000/svg" width="305.834" height="112" viewBox="0 0 305.834 112"><defs><path id="a" d="M17.917 4.52h270v102.96h-270z"/></defs><path clip-path="url(#b)" fill="#D72251" d="M57.042 52.77c-1.042.08-2.666-.498-3.458-2.332s-1.375-2-.084-3.46c1.292-1.457 2.96-2.5 4.46-2s3.332 1.96 3.207 3.876-1.334 3.71-4.125 3.917"/><path clip-path="url(#beast-nose-9-id-2)" fill="#D72251" d="M65.375 54.188s.75-2.5 2.667-2.46 2.625 1.71 2.625 2.668-1.958 2.875-2.917 2.792c-.958-.084-2.79-1.416-2.375-3M247.292 78.02s-.5-5.75 2.625-7.5 8.625-1 11.375 1.626 4.25 6.125 4.125 9-3.875 5.625-6.125 5.375c0 0-6.875-8-12-8.5"/><path clip-path="url(#beast-nose-9-id-2)" fill="#FCDCA4" d="M255.52 73.514c.532-.725 3.192-.822 4.563.365 1.37 1.185 2.19 3.558.73 4.47s-3.104.092-4.198-1.004c-1.095-1.096-2.1-2.465-1.095-3.832"/><path clip-path="url(#beast-nose-9-id-2)" fill="#D72251" d="M93.292 61.02c-.118-1.972 1.625-5.124 9-6.25s17.375.876 24.125 3.626 23.5 8.25 33.375 7.125 26.5-5 34.75-7.374c8.25-2.375 25.125-5.25 26.875.25s-8.875 14.5-13.375 16.25-6.875 2-6.875.875 5-4.5 3.5-6.374-6.625-2.625-11.875-.375-17.25 7-15.5 11.126 6.875 1.5 8.5 1.375 3.125 1.876 1.625 2.75-20.125 7.75-30 9.376c0 0-19.875-5.75-24.125-8.25s-6.125-5.5-4.5-5.625 3.75.126 4.375-1.124-2.25-7-9-9.5-13.5-4.625-14.5-2.75.875 3.75-.125 4.75-15.875-3.625-16.25-9.875"/><path clip-path="url(#beast-nose-9-id-2)" fill="#D72251" d="M178.667 76.646s4-3.75 10.125-6.125 10.375-2.874 10.375-2.874-1.125 5.125-8.125 8-10 2.5-12.375 1M114.167 66.23s1.333 4 6.25 6.916c4.916 2.916 8.333 2.918 11.166 1.75 2.834-1.166 0 0 0 0s-4.75-7.084-17.416-8.666"/><path clip-path="url(#beast-nose-9-id-2)" fill="#FCDCA4" d="M180.167 81.77s2.812.25 4.312-.06 3.124-.247 3.31.437c.376 1.375-2.437 3.188-2.437 3.188s1.326 4.06 1.75 4.562c.32.377 1.87 2.268 3.438 2.25 1.804-.02 4.3-3.162 4.626-4.44.625-2.435 2.072-2.597 3.562-3.122 2.125-.75 2.847-2.887 2.16-4.762-.41-1.115.327-2.383.79-3.748.316-.93.206-2.127.687-2.48 1.188-.875 2.988-2.012 2.613-3.697-.375-1.69-4-2.814-5.375-2.564 0 0-.875 4.25-6.875 7.502-6 3.248-11.375 2.688-13.625 1.938 0 0-2.312.812-1.625 2.5s2.69 2.497 2.69 2.497"/><path clip-path="url(#beast-nose-9-id-2)" fill="#0C3846" d="M240.917 16.146l-1.415-.063-1.612-.055c-.623-.004-1.322-.115-2.082-.178-.758-.08-1.58-.127-2.438-.287-.856-.157-1.772-.23-2.692-.472-.918-.23-1.89-.367-2.834-.675-.953-.277-1.93-.515-2.877-.86l-1.434-.466-1.402-.52c-.938-.322-1.825-.73-2.702-1.084-.87-.374-1.693-.778-2.48-1.147-.768-.41-1.52-.755-2.182-1.135-1.34-.73-2.416-1.416-3.178-1.893-.748-.492-1.17-.792-1.17-.792s.328.4.99 1.02c.652.626 1.622 1.492 2.89 2.398 1.24.94 2.788 1.912 4.52 2.82.87.442 1.772.903 2.73 1.277.476.193.947.412 1.438.583l1.488.487c.985.35 2.02.54 3.016.783.997.247 2.012.337 2.974.496.964.162 1.916.153 2.804.233.89.086 1.735.06 2.514.027.777-.037 1.488-.02 2.115-.097l1.62-.208 1.4-.194m.467 2.59c1.266.41 3.11.906 5.373 1.26 1.13.196 2.362.328 3.674.438 1.31.11 2.696.13 4.132.148l2.186-.075 1.116-.04 1.123-.104 2.27-.243c.76-.09 1.51-.255 2.27-.38.755-.14 1.518-.248 2.257-.446l2.206-.6c1.477-.343 2.856-.927 4.207-1.423 1.364-.46 2.603-1.114 3.793-1.678.47-.238.93-.457 1.375-.688l.02.008s.017-.017.046-.042c.09-.047.186-.092.273-.14.524-.332 1.03-.652 1.52-.96.962-.625 1.854-1.177 2.585-1.757a81.85 81.85 0 0 0 1.83-1.57c.998-.887 1.53-1.422 1.53-1.422s-.706.315-1.88.92c-.59.3-1.29.677-2.086 1.11a8.63 8.63 0 0 1-.42.213c.294-.376.584-.76.86-1.16.917-1.302 1.688-2.69 2.17-3.765.25-.535.43-.99.544-1.315l.188-.502-.266.468c-.162.3-.41.718-.737 1.198-.64.97-1.598 2.186-2.668 3.28a27.226 27.226 0 0 1-3.14 2.785c-.915.695-2.757 1.646-2.757 1.646h.002c-.552 0-1.11.445-1.687.677.294-.36.588-.738.875-1.12.85-1.133 1.606-2.335 2.095-3.27.235-.475.43-.866.537-1.155l.184-.443s-.093.146-.26.402c-.155.26-.413.608-.723 1.023-.638.82-1.567 1.835-2.577 2.768a39.14 39.14 0 0 1-3.595 2.94c-.8.256-1.613.505-2.458.69l-1.988.495a37.41 37.41 0 0 0 1.048-1.08 32.166 32.166 0 0 0 2.217-2.65c.283-.376.506-.697.658-.924.152-.227.24-.355.24-.355l-.307.3c-.193.19-.473.458-.822.766-.69.62-1.648 1.4-2.648 2.112-.996.717-2.03 1.37-2.82 1.824-.793.464-1.313.717-1.313.717l.01.017c-.24.045-.483.094-.727.126l-2.173.28-.523.073c.2-.137.404-.266.598-.41a18.037 18.037 0 0 0 1.847-1.582c.27-.274.52-.555.76-.81.245-.25.433-.53.63-.763.394-.467.664-.9.865-1.19.2-.293.312-.46.312-.46l-.38.406c-.243.257-.57.638-1.027 1.033-.226.197-.447.436-.724.64-.27.212-.546.442-.847.663-.607.43-1.27.855-1.967 1.218-1.39.726-2.872 1.4-3.992 1.604-.56.113-1.5.438-1.818.438h-.002c-.674 0-1.332-.142-1.975-.152-.638-.013-1.26-.09-1.86-.09-.6.004-1.18-.09-1.738-.094-1.12-.003-2.137-.122-3.053-.148-.907-.074-1.708-.11-2.364-.174-1.31-.115-2.066-.21-2.066-.21s.688.318 1.964.707m44.8 7.682c-.548.244-1.202.56-1.946.925l-1.178.594-1.342.578c-.937.4-1.937.854-2.99 1.342-1.082.414-2.222.85-3.4 1.303-1.163.504-2.453.744-3.706 1.16-1.253.435-2.587.615-3.892.915-.65.167-1.313.254-1.975.335-.66.087-1.318.175-1.972.263-.654.062-1.308.067-1.95.113-.645.03-1.28.096-1.908.053-.625-.02-1.242-.037-1.846-.054-.605-.02-1.187-.125-1.76-.17-1.152-.076-2.21-.337-3.21-.477-.97-.25-1.89-.406-2.67-.667-.8-.205-1.467-.464-2.04-.64-1.11-.42-1.733-.722-1.733-.722s.127.116.387.31c.254.207.66.45 1.17.78.526.3 1.168.674 1.947 1.005.77.37 1.677.67 2.668 1.01 1.01.254 2.103.592 3.293.743.594.09 1.202.21 1.83.26l1.924.133c.654.07 1.318.03 1.992.026.674-.015 1.357-.008 2.043-.06l2.06-.23c.694-.07 1.388-.147 2.066-.31 1.356-.317 2.745-.52 4.04-.977.652-.207 1.3-.41 1.94-.61.317-.106.638-.2.948-.313l.908-.378c1.196-.513 2.37-.962 3.447-1.47 1.052-.556 2.04-1.09 2.94-1.6.453-.25.888-.49 1.287-.74l1.104-.764c.687-.487 1.28-.917 1.758-1.285.968-.717 1.497-1.154 1.497-1.154s-.643.263-1.73.77M222.89 48.504c-.07-.744-.147-1.513-.3-2.296-.228-1.574-.622-3.213-1.116-4.878-.51-1.662-1.115-3.36-1.896-5.007-.734-1.67-1.67-3.27-2.662-4.822a56.913 56.913 0 0 0-3.234-4.41c-1.138-1.396-2.302-2.704-3.345-4.02-1.073-1.3-2.112-2.554-3.098-3.744l-2.657-3.46c-.82-1.074-1.594-2.046-2.237-2.937l-1.703-2.285-1.475-1.998s.453.78 1.28 2.13c.853 1.327 2 3.28 3.526 5.52l2.442 3.64c.917 1.26 1.886 2.587 2.886 3.96.998 1.383 2.103 2.74 3.147 4.146a55.313 55.313 0 0 1 2.94 4.405c.876 1.536 1.714 3.087 2.384 4.683.705 1.58 1.24 3.2 1.686 4.78.434 1.588.75 3.148.982 4.64.145.742.217 1.475.283 2.185.064.71.17 1.388.176 2.05.054 1.323.118 2.535.083 3.613-.006.62-.008 1.188-.02 1.714-.1-.09-.194-.19-.3-.267-.836-.618-1.747-.968-2.643-1.228.016-.037.03-.066.045-.105.082-.203.13-.433.2-.67.06-.24.14-.486.17-.754.073-.532.184-1.084.178-1.65.008-.278.016-.558.022-.832-.006-.272-.05-.543-.072-.8l-.08-.736c-.01-.234-.092-.45-.14-.648l-.35-1.3-.08 1.33c-.02.195-.007.406-.06.628l-.123.692c-.05.238-.076.483-.142.727l-.22.728c-.116.49-.344.947-.516 1.376-.078.218-.21.405-.3.595-.096.185-.167.37-.268.52-.104.18-.188.335-.263.47a22.804 22.804 0 0 0-2.13-.23c.123-.22.248-.46.375-.724.343-.672.635-1.5.898-2.398.227-.91.44-1.883.54-2.87.074-.49.095-.987.122-1.473.045-.482-.008-.965-.016-1.423 0-.46-.078-.904-.117-1.32a8.14 8.14 0 0 0-.188-1.165 13.53 13.53 0 0 0-.445-1.695l-.205-.627s.01.24.023.66c.026.416.063 1.007.02 1.715-.01.354-.005.73-.056 1.132-.043.4-.053.82-.14 1.25-.14.857-.308 1.76-.56 2.642-.228.885-.566 1.736-.89 2.52a48.02 48.02 0 0 1-.952 2.105c-.287.61-.562 1.096-.73 1.443l-.088.166c-.785.007-1.567.037-2.346.094.424-.91.895-2.025 1.297-3.182.238-.68.426-1.382.58-2.04.154-.658.254-1.284.293-1.824.033-.268.018-.52.026-.737a3.446 3.446 0 0 0-.024-.562l-.047-.484s-.027.174-.08.48c-.02.15-.05.33-.116.535-.063.203-.108.435-.205.677-.34.98-.935 2.224-1.646 3.4a34.77 34.77 0 0 1-2.088 3.145c-.248.34-.437.638-.576.88-.154.02-.31.04-.466.063-.69.105-1.37.245-2.05.38.363-.45.727-.92 1.072-1.412.49-.673.912-1.4 1.285-2.086.17-.352.337-.69.493-1.014.137-.333.254-.65.36-.943.175-.604.32-1.096.35-1.46l.075-.556s-.082.187-.228.512c-.12.33-.382.767-.683 1.274-.166.245-.35.51-.54.79l-.663.84a29.643 29.643 0 0 1-1.582 1.687c-1.11 1.12-2.367 2.082-3.26 2.842-.168.14-.307.264-.447.388-1.05.272-2.088.557-3.12.846.04-.04.083-.072.122-.11.354-.364.723-.7 1.05-1.075.325-.377.655-.73.94-1.11.29-.374.57-.73.803-1.098.238-.362.468-.696.644-1.032.368-.66.625-1.228.78-1.637.16-.405.24-.638.24-.638s-.176.18-.467.495c-.146.158-.31.356-.52.566-.213.207-.46.433-.71.69-.243.262-.562.502-.854.784-.29.286-.642.546-.977.836-.328.296-.705.566-1.07.853-.357.296-.752.56-1.127.846a84.02 84.02 0 0 1-2.284 1.57l-2.024 1.32c-.257.163-.488.313-.703.45-.58.162-1.16.322-1.738.482.266-.207.535-.404.79-.627.882-.778 1.802-1.5 2.537-2.328.738-.82 1.487-1.508 2.01-2.22 1.057-1.407 1.715-2.348 1.715-2.348s-.92.73-2.233 1.825c-.625.58-1.49 1.11-2.337 1.75-.432.31-.86.647-1.344.935l-1.413.92c-.46.322-.957.598-1.438.875l-1.396.838c-.928.502-1.766 1.02-2.508 1.416l-1.473.828c-.84.21-1.677.42-2.517.62.25-.16.5-.33.747-.5l1.603-1.083c.54-.337 1.007-.77 1.487-1.138.936-.773 1.86-1.418 2.54-2.117l2.313-2.233-2.654 1.79c-.39.273-.813.572-1.295.835-.47.28-.965.572-1.48.875-.516.295-1.025.633-1.588.908l-1.674.877c-.556.3-1.118.586-1.69.83-.564.26-1.12.514-1.656.758-.53.258-1.064.46-1.56.676l-1.4.593c-.626.254-1.177.475-1.626.656-.774.15-1.55.292-2.328.43.043-.02.086-.032.13-.05.79-.316 1.575-.646 2.33-1.016a28.05 28.05 0 0 0 2.202-1.102c.71-.37 1.383-.742 1.996-1.15.62-.39 1.207-.746 1.723-1.125a38.07 38.07 0 0 0 1.412-1.012c.397-.33.743-.62 1.03-.857.567-.477.88-.762.88-.762l-1.044.518c-.326.168-.722.37-1.176.605-.472.202-.988.45-1.552.724-.556.28-1.187.535-1.845.812-.656.28-1.346.574-2.075.848-1.437.586-3 1.133-4.566 1.658-.778.28-1.577.492-2.352.742-.776.24-1.55.45-2.294.66-.75.193-1.465.416-2.156.578-.688.176-1.34.334-1.943.465a82.63 82.63 0 0 1-2.916.646c-.342.068-.608.12-.794.16a46.014 46.014 0 0 1-5.1-.324c-3.65-.43-7.256-1.247-10.78-2.366-3.534-1.1-6.99-2.486-10.51-3.832a115.93 115.93 0 0 0-2.675-.99l-1.328-.46-1.39-.437a61.405 61.405 0 0 0-5.574-1.375c-3.747-.734-7.538-1.267-11.368-1.3-1.916.002-3.834.08-5.758.313-.474.05-.978.132-1.47.207-.517.077-.897.18-1.433.284-.425.108-.846.24-1.264.382.077-.26.16-.54.25-.836.087-.305.172-.63.288-.958.112-.33.223-.674.328-1.027.098-.358.263-.695.392-1.05l.4-1.057.458-.997c.148-.327.29-.645.427-.945.123-.31.306-.562.436-.82.55-1.02.907-1.733.907-1.733s-.572.527-1.42 1.366c-.2.217-.45.433-.65.705l-.672.837c-.233.29-.477.594-.708.913-.21.333-.425.67-.64 1.008-.203.347-.44.677-.61 1.035-.185.35-.36.703-.523 1.044-.18.335-.302.683-.423 1.01-.123.327-.232.638-.32.932-.162.595-.274 1.087-.32 1.476-.017.095-.03.178-.038.248-.558.365-1.08.8-1.543 1.308l.063-.355c.094-.552.274-1.337.488-2.28.208-.947.544-2.027.89-3.19.377-1.15.805-2.373 1.322-3.56.25-.6.522-1.19.82-1.756.27-.582.577-1.13.893-1.654a15.37 15.37 0 0 1 .925-1.506c.306-.475.605-.92.922-1.297l.824-1.077.7-.78.607-.695-.753.532-.86.63c-.315.266-.668.57-1.043.915-.388.334-.766.735-1.16 1.17-.405.424-.822.884-1.207 1.396a18.64 18.64 0 0 0-1.158 1.604c-.39.555-.73 1.15-1.065 1.75-.686 1.19-1.237 2.454-1.707 3.653-.2.585-.423 1.14-.57 1.69 0-.02-.003-.038-.003-.058-.05-1.232.017-2.566.163-3.967.103-.746.224-1.515.384-2.29l.168-.234 1.083-1.56c.432-.66.977-1.403 1.51-2.233.257-.422.585-.81.864-1.245.292-.43.59-.862.886-1.297l.93-1.26c.315-.407.57-.867.902-1.227.32-.373.607-.757.892-1.114.293-.347.528-.73.802-1.014 1.085-1.15 1.79-2.047 1.79-2.047s-1.003.42-2.478 1.248c-.37.204-.713.49-1.098.773-.378.292-.79.59-1.193.925-.423.318-.783.71-1.18 1.09l-.58.587 1.196-2.37 2.49-4.413 2.535-4.22c1.692-2.715 3.256-5.265 4.637-7.43l3.29-5.27c.81-1.264 1.24-2.01 1.24-2.01s-.586.63-1.562 1.773c-.976 1.144-2.374 2.777-3.96 4.81-.78 1.026-1.657 2.115-2.525 3.312-.86 1.2-1.79 2.453-2.71 3.78l-2.753 4.15c-.88 1.456-1.772 2.937-2.665 4.416-.852 1.53-1.646 3.12-2.448 4.657-.323.778-.644 1.55-.96 2.315l-.468 1.138-.114.283-.028.07-.037.102-.01.04-.045.15-.178.608c-.504 1.605-.764 3.215-.962 4.736-.15 1.528-.21 2.98-.15 4.316a30.43 30.43 0 0 0 1.008 6.36c.217.75.412 1.33.563 1.73.146.4.25.632.242.618l.03-.012c.003.287.03.574.075.855.032.277.14.586.22.873.044.13.09.223.134.334l.067.164.035.08.043.096.027.05c.57 1.054 1.315 1.728 2.055 2.394 1.5 1.29 3.105 2.338 4.74 3.328 1.66.98 3.27 1.895 5.124 2.69l.016.005c.86.315 1.713.534 2.652.64.47.045.96.064 1.513-.025.524-.09 1.254-.318 1.74-1.03.252-.35.365-.9.298-1.292-.054-.396-.178-.662-.28-.893-.215-.447-.4-.762-.512-1.05-.112-.288-.148-.515-.13-.73a1.33 1.33 0 0 1 .08-.322c0-.02.046-.12.093-.215.006.006.016-.03.035-.047.11-.193.814-.426 1.512-.438.498-.023 1.026.016 1.56.074.047.096.093.193.15.293.047.092.108.195.164.295-.508.234-1.05.406-1.225.383a.75.75 0 1 0-.277 1.475c.093.02.193.026.296.026.713 0 1.584-.387 2.03-.61.14.194.29.395.45.603-.595.617-1.204 1.39-1.475 2.19a.753.753 0 0 0 .47.954.75.75 0 0 0 .95-.473c.17-.502.59-1.05 1.042-1.53.09.093.177.18.265.28.103.105.222.205.333.31l-.02.04c-.023.05-.042.094-.07.14a.75.75 0 0 0 .636 1.145.742.742 0 0 0 .59-.31c.217.165.452.33.678.49-.696.73-.862 1.577-.827 2.07.028.396.356.5.747.5h.042c.41 0 .724-.194.708-.603-.002-.032-.013-.57.638-1.062.208.127.416.252.626.377l.858.473c-.21.555-.448 1.125-.696 1.58a.748.748 0 0 0 .658 1.108c.266 0 .523-.14.66-.39a14.42 14.42 0 0 0 .736-1.65c.76.335 1.527.624 2.288.864-.114.662-.202 1.31-.183 1.674l.04.832c.022.4.354.795.75.795h.04c.414 0 .73-.456.71-.868l-.042-.875c-.01-.2.048-.64.134-1.156.603.14 1.19.243 1.756.304.02.3.05.566.104.736a.74.74 0 0 0 .928.49.76.76 0 0 0 .507-.932 1.345 1.345 0 0 1-.034-.234c.345-.006.677-.02.98-.062a6.09 6.09 0 0 0 1.243-.27c.03-.01.052-.02.083-.03.152.23.307.46.433.7.31.567.516 1.26.504 1.68-.007.003-.007.005-.013.005-.242.057-.61.072-.98.062-.372-.01-.762-.042-1.167-.077-.416-.02-.79-.11-1.428-.05a3.016 3.016 0 0 0-.88.212 1.954 1.954 0 0 0-.96.797c-.26.432-.285.93-.225 1.28.063.364.168.634.32.925.53.967 1.318 1.578 2.016 2.092 1.445 1.015 2.943 1.813 4.453 2.542 1.512.723 3.04 1.45 4.58 2.078 6.16 2.482 12.42 4.652 18.752 6.652h.003s3.946-.938 5.674-1.334c1.73-.395 3.452-.818 5.162-1.29 3.42-.937 6.805-2.007 10.127-3.263A93.727 93.727 0 0 0 183.02 87a70.914 70.914 0 0 0 2.075-.952c.545 2.207 2.043 6.787 5.078 6.787.076 0 .15-.002.228-.008 4.23-.314 5.406-4.633 5.794-6.05.18-.66.72-.83 1.823-1.028.467-.087.947-.175 1.354-.378.928-.463 3.754-1.875 2.405-4.908-.548-1.232-.302-2.15.1-3.047.093.02.183.037.26.05.208.02.384.01.544-.003.315-.03.58-.094.842-.158a13.65 13.65 0 0 0 1.444-.484c.916-.365 1.79-.78 2.643-1.217a58.288 58.288 0 0 0 4.94-2.89c3.188-2.075 6.313-4.49 8.508-7.88.66-1.06 1.232-2.295 1.45-3.63.01-.07.317-2.313.468-3.886.094-.798.11-1.777.146-2.898.07-1.12.002-2.39-.058-3.77.003-.688-.106-1.404-.174-2.15M93.307 57.73l-.02-.1.09.01c-.024.03-.047.057-.07.09m36.782 16.864a6.54 6.54 0 0 1-.696.13c.006-.218.013-.438.022-.645a.75.75 0 0 0-.714-.786c-.434-.03-.766.3-.784.715-.01.192-.02.464-.026.765a12.16 12.16 0 0 1-1.478-.154c.06-.283.118-.56.173-.8a.744.744 0 0 0-.565-.893.754.754 0 0 0-.897.576c-.03.133-.095.426-.17.787-.455-.127-.913-.27-1.375-.436-.246-.094-.49-.2-.735-.305.21-.624.346-1.09.358-1.134a.754.754 0 0 0-.515-.928.75.75 0 0 0-.928.514c-.002.01-.11.38-.28.9l-.635-.346c-.29-.182-.58-.36-.87-.54-.53-.4-1.062-.778-1.547-1.18l-.116-.112c.173-.21.403-.467.73-.81a.75.75 0 1 0-1.08-1.04c-.293.307-.52.56-.708.777-.03-.034-.067-.065-.096-.1-.08-.108-.163-.206-.245-.31a8.51 8.51 0 0 1 .306-.242.75.75 0 0 0-.892-1.207c-.042.032-.155.12-.292.23-.206-.32-.395-.627-.52-.922-.015-.03-.026-.06-.04-.092 1.036.24 2.072.545 3.094.89.883.302 1.754.642 2.62.997a15.26 15.26 0 0 1-1.233 1.488.75.75 0 0 0 1.09 1.03c.123-.128.992-1.063 1.543-1.915.155.07.313.13.468.2 1.473.677 2.916 1.388 4.24 2.235 1.162.746 2.25 1.592 3.184 2.55-.126.04-.25.08-.393.114m71.266-1.448l-.545.41.22.658c.09.275.14.623.143.95.002.065-.002.132-.005.196-.096.252-.212.52-.366.836-.595 1.225-1.334 2.75-.388 4.88.642 1.442-.14 2.177-1.707 2.96-.21.105-.57.172-.948.24-1.02.186-2.555.465-3.004 2.11-.552 2.022-1.614 4.737-4.456 4.948-1.932.148-3.29-3.79-3.803-5.92.454-.2.93-.418 1.443-.742.23-.162.484-.326.744-.71.065-.12.12-.212.172-.372.03-.098.05-.2.058-.305l.007-.152-.008-.123-.024-.17-.01-.037-.03-.156c-.098-.45-.23-1.06-.706-1.62-.232-.28-.572-.495-.908-.624a2.62 2.62 0 0 0-.973-.154c-.636.01-1.146.177-1.516.272-1.6.408-3.332.652-4.77.328-1.425-.312-2.17-1.477-1.477-2.615.058-.1.126-.197.192-.293.145.037.31.078.495.12.703.163 1.697.294 2.87.315.024.447.027.922-.012 1.393a.75.75 0 0 0 .685.81c.02 0 .04.003.063.003a.75.75 0 0 0 .747-.688c.044-.53.043-1.06.02-1.555.37-.023.75-.064 1.142-.115.34.51 1.015 1.365 2.03 1.945a.75.75 0 1 0 .744-1.302 4.398 4.398 0 0 1-1.102-.924c.74-.148 1.488-.35 2.24-.584.43-.148.86-.3 1.293-.46.318.827.76 1.755 1.283 2.298a.748.748 0 0 0 1.06.018.75.75 0 0 0 .018-1.06c-.338-.35-.686-1.087-.97-1.833.218-.094.44-.19.67-.305l.343-.166c.292.477.57.98.79 1.494a.748.748 0 0 0 .985.394.753.753 0 0 0 .394-.986 12.564 12.564 0 0 0-.835-1.59c.486-.27.964-.543 1.396-.844.17-.105.318-.227.476-.342.53.643 1.062 1.3 1.354 1.7a.75.75 0 1 0 1.212-.882 41.296 41.296 0 0 0-1.377-1.732c.032-.03.07-.053.1-.08.273-.23.532-.463.763-.713h.002c.508.272 1.107.517 1.73.59.027 0 .056.003.085.003a.75.75 0 0 0 .084-1.496c-.302-.033-.612-.143-.91-.28.25-.345.473-.69.66-1.015.255-.473.434-.92.548-1.307a9.51 9.51 0 0 0 .102-.4c.44-.027.883-.037 1.314-.018.79.04 1.567.182 2.138.494.274.142.528.372.65.54.022.012.083.125.137.22l.033.06.006.02.044.098c.047.13.074.248.084.36.056.41-.29.95-.874 1.466-.573.52-1.288.968-2.048 1.542M187.09 83.2l.003-.015v.004l.002.005.002.033.002.04a.46.46 0 0 1-.01-.07m.837-8.485a.75.75 0 0 0 .89-.576c.17-.79-.04-1.774-.262-2.513.87-.377 1.748-.74 2.63-1.078l.82.994a.742.742 0 0 0 .578.272.75.75 0 0 0 .58-1.227l-.474-.572a39.846 39.846 0 0 1 3.54-1.06c.555-.13 1.112-.24 1.667-.34a5.53 5.53 0 0 1-.7 1.593l-.027-.023a.75.75 0 0 0-1.007 1.112c.01.01.06.053.127.11-.148.167-.3.337-.473.5-.012.015-.03.026-.043.04l-.693-.818a.75.75 0 0 0-1.14.975l.685.81c-.122.09-.233.185-.362.27a15.29 15.29 0 0 1-1.353.856 20.903 20.903 0 0 0-1.7-2.098.75.75 0 0 0-1.085 1.038c.013.012.692.738 1.45 1.777a5.56 5.56 0 0 0-.19.096 4.05 4.05 0 0 1-.505.233l-.072-.252a.742.742 0 0 0-.916-.532.75.75 0 0 0-.535.916l.12.42c-.42.15-.845.29-1.264.428-.168.05-.334.088-.5.135l-1.718-2.393a.75.75 0 0 0-1.22.875l1.354 1.883c-.015.004-.03.1-.042.102-.352.06-.698.234-1.038.234h-.016c-.566 0-1.11-.01-1.627-.01-.08-.54-.157-.95-.165-.984-.09-.404-.49-.682-.896-.59a.736.736 0 0 0-.567.885c0 .005.045.208.098.528-.396-.043-.77-.107-1.1-.174-.235-.05-.447-.104-.643-.156a19.522 19.522 0 0 1 1.883-1.383c1.424-.924 2.955-1.732 4.515-2.48.21-.1.43-.188.642-.288.15.545.266 1.16.176 1.576a.748.748 0 0 0 .577.89m31.463-10.916c-.92 1.473-2.16 2.8-3.51 4.004-1.36 1.21-2.828 2.276-4.386 3.282a56.718 56.718 0 0 1-4.767 2.8c-.812.42-1.638.81-2.463 1.142-.396.156-.793.295-1.17.398.004-.092.006-.182.008-.27-.004-.282-.03-.562-.078-.84.53-.378 1.11-.778 1.666-1.276.367-.332.736-.715 1.04-1.215.305-.49.52-1.157.46-1.817a3.226 3.226 0 0 0-.21-.922l-.09-.202-.023-.05-.048-.093-.042-.072c-.055-.094-.094-.178-.21-.338-.392-.55-.837-.887-1.335-1.162-.988-.52-1.998-.664-2.954-.717-1.922-.076-3.727.252-5.49.666-1.76.426-3.47.984-5.145 1.62a67.337 67.337 0 0 0-4.92 2.11c-1.61.775-3.2 1.613-4.726 2.607-.763.5-1.512 1.03-2.22 1.653-.704.623-1.394 1.312-1.916 2.25-.253.47-.46 1.03-.48 1.658-.01.312.017.638.11.94l.03.114c.014.037-.003 0 .032.096l.016.04.062.15c.03.09.13.28.198.413.597 1.068 1.722 1.662 2.71 1.883 2.02.426 3.876.092 5.666-.348.477-.137.82-.217 1.066-.217.29 0 .398.054.488.153.106.113.215.385.293.79l.006.03c-.038.033-.083.07-.138.105-.562.37-1.44.684-2.253 1.08-.798.38-1.58.734-2.383 1.082a91.372 91.372 0 0 1-4.854 1.94 110.992 110.992 0 0 1-9.977 3.165 120.25 120.25 0 0 1-5.086 1.266c-1.703.38-3.417.757-5.133 1.073 0 0-12.05-3.986-18.104-6.434-1.51-.618-3.008-1.368-4.467-2.065-1.45-.7-2.896-1.447-4.146-2.332-.62-.45-1.17-.91-1.422-1.41-.02-.04-.04-.092-.06-.143.062-.02.138-.04.243-.043.183-.033.63.023 1.035.055.415.037.846.072 1.296.084.456.008.917.012 1.48-.11.278-.065.61-.153.993-.458l.14-.133c.04-.05-.042.057.1-.117l.056-.078.06-.102c.043-.074.08-.152.113-.23.076-.207.11-.39.13-.553.08-1.246-.313-2.102-.723-2.947a11.262 11.262 0 0 0-1.56-2.22c-1.184-1.33-2.564-2.4-4.006-3.327-1.45-.927-2.97-1.675-4.488-2.374a50.922 50.922 0 0 0-4.677-1.88c-1.6-.542-3.235-1.007-4.95-1.282-.858-.135-1.74-.22-2.67-.178-.468.02-.95.08-1.462.23-.5.147-1.08.405-1.55.962-.116.14-.204.285-.3.47-.043.087-.088.173-.154.347-.11.295-.18.566-.21.875-.064.607.07 1.21.26 1.688.188.48.425.875.563 1.172.037.078.063.145.08.195a.9.9 0 0 1-.307.096 3.82 3.82 0 0 1-.95.007 9.31 9.31 0 0 1-2.13-.52c-1.603-.656-3.283-1.562-4.862-2.465-1.586-.926-3.15-1.918-4.513-3.057-.663-.564-1.316-1.2-1.645-1.805l-.013-.02-.1-.233c-.044-.105-.102-.223-.133-.316-.03-.165-.1-.3-.122-.49-.06-.364-.09-.737-.024-1.106.187-1.5 1.433-2.777 2.93-3.525a10.108 10.108 0 0 1 2.436-.84c.386-.065.922-.17 1.338-.204.438-.038.863-.095 1.326-.1 1.815-.076 3.656-.007 5.49.13 3.666.288 7.347.66 10.96 1.39 3.617.698 7.128 1.747 10.613 3.038 3.51 1.277 7.052 2.627 10.705 3.693 3.65 1.066 7.392 1.922 11.198 2.342 3.805.417 7.66.454 11.47.065 3.78-.39 7.503-1.002 11.228-1.666a206.35 206.35 0 0 0 11.073-2.353c3.666-.88 7.314-1.822 10.932-2.822 3.63-.984 7.195-2.008 10.795-2.578 1.805-.295 3.61-.574 5.42-.72 1.798-.132 3.624-.173 5.303.183.838.166 1.617.477 2.22.895.296.215.525.47.7.742.09.137.147.287.213.436l.086.295c.043.127.04.184.063.275.323 1.47-.23 3.15-1.145 4.604M91.985 16.91l-2.405.704c-1.043.27-2.308.602-3.76.98l-4.892 1.132c-1.812.32-3.748.77-5.82 1.117-2.08.272-4.26.696-6.52.944-.546.044-1.094.096-1.646.148-.914.06-2.445-.238-3.034-.38-1.18-.273-2.76-.77-4.304-1.41-.77-.326-1.54-.67-2.252-1.023-.7-.37-1.36-.72-1.917-1.04-.568-.305-1.013-.604-1.34-.797l-.51-.307.394.446c.254.28.615.69 1.085 1.144.237.225.477.49.763.734l.894.776c.638.52 1.333 1.066 2.065 1.568.402.263.808.52 1.213.768l-2.04.03-.93.023-.397-.128a40.547 40.547 0 0 1-1.943-.7c-.41-.146-.838-.337-1.298-.527-.457-.197-.948-.39-1.442-.617-.97-.483-2.06-.93-3.07-1.508-.512-.28-1.026-.558-1.532-.832-.516-.262-.982-.58-1.45-.868l-1.344-.843c-.437-.26-.83-.53-1.177-.8L41 13.895s.83.846 2.078 2.113c.307.327.656.66 1.05.988l1.21 1.06c.426.366.85.766 1.325 1.11l1.416 1.09c.936.756 1.96 1.38 2.88 2.038.003 0 .005.003.007.004-.07-.005-.14-.008-.207-.014-.915-.11-1.824-.222-2.732-.332-.023-.01-.04-.02-.065-.032a66.202 66.202 0 0 1-1.84-.942c-1.53-.793-3.535-1.928-5.51-3.125-.963-.627-1.96-1.223-2.846-1.842l-1.277-.897c-.402-.292-.804-.546-1.138-.82l-2.268-1.813 1.956 2.163c.29.33.645.644 1 1 .36.354.74.725 1.133 1.108.79.768 1.683 1.522 2.555 2.313.656.56 1.312 1.104 1.96 1.633l-1.257-.31-1.52-.454a42.048 42.048 0 0 1-2.032-1.17c-1.385-.845-3.202-2.05-4.908-3.405-.417-.35-.85-.683-1.252-1.038-.396-.36-.81-.696-1.17-1.06-.364-.36-.74-.69-1.05-1.04-.317-.347-.638-.66-.9-.978-.53-.627-.967-1.162-1.236-1.563l-.445-.618.34.682c.205.443.55 1.045.986 1.764.212.363.48.73.745 1.132.26.408.582.8.893 1.226.31.43.67.834 1.018 1.268.35.43.734.84 1.105 1.267.33.363.668.715 1.006 1.062-.194-.078-.4-.16-.59-.238-.54-.24-1.05-.466-1.57-.695a9.213 9.213 0 0 0-.266-.26c-.24-.21-.57-.53-1.01-.87-.423-.358-.945-.752-1.49-1.195s-1.107-.937-1.657-1.448a27.935 27.935 0 0 1-1.552-1.573c-.233-.264-.47-.514-.67-.77-.196-.255-.414-.48-.584-.71A14.517 14.517 0 0 1 21.8 8.59l-.298-.44.142.516c.086.333.252.79.464 1.342.212.55.517 1.17.87 1.82.353.648.747 1.338 1.204 1.98.014.022.03.04.043.062l-1.756-.9-1.573-.835c-1.894-1.025-2.977-1.65-2.977-1.65l.613.656a31.96 31.96 0 0 0 1.856 1.73 44.233 44.233 0 0 0 3.104 2.435c.626.435 1.295.896 2.01 1.364l2.308 1.395 2.595 1.37c.91.45 1.874.868 2.856 1.317l3.09 1.234 1.22.415c.09.068.142.11.142.11l.03-.05 1.902.645c1.136.33 2.303.627 3.48.938l3.63.724c.11.015.224.027.334.043l.073.052.023-.04c1.096.15 2.197.3 3.308.424 1.26.08 2.53.116 3.796.174.185.003.257.022.534.01l1.386-.055.066-.003.012.006.002-.006 1.764-.07 3.66-.176c2.445-.21 4.882-.593 7.215-.877 2.318-.387 4.516-.894 6.612-1.33 2.08-.508 4.02-1.096 5.81-1.61 1.78-.558 3.38-1.166 4.804-1.667 1.414-.545 2.617-1.093 3.618-1.505 1.982-.888 3.066-1.488 3.066-1.488s-.295.088-.85.26M50.81 37.11l1.133-.712.974-.627-1.095.385-1.243.45c-.474.186-1.03.335-1.626.52-.602.167-1.232.4-1.93.55-.697.146-1.416.34-2.164.515l-2.333.394c-.797.08-1.606.164-2.415.247l-1.21.09c-.4.036-.8.09-1.197.1-.794.06-1.576.133-2.338.154-.764.058-1.5.03-2.205.042-.702-.02-1.372-.04-1.99-.075-1.236-.075-2.263-.235-2.992-.335-.72-.13-1.138-.22-1.138-.22s.352.24 1.027.565c.338.15.747.363 1.236.54.487.19 1.047.373 1.665.562 1.235.373 2.72.69 4.337.84.808.106 1.647.12 2.5.117.857.015 1.715-.132 2.574-.23.853-.155 1.696-.356 2.52-.552.81-.25 1.605-.498 2.375-.737.75-.29 1.476-.563 2.152-.852.678-.275 1.283-.627 1.857-.9.567-.294 1.096-.534 1.526-.83m-22.158.024c.526.097.97.1 1.28.09l.485-.014-.455-.168-.517-.172c-.2-.062-.41-.174-.65-.258a7.34 7.34 0 0 1-.75-.323c-.26-.124-.54-.24-.81-.4a14.34 14.34 0 0 1-1.663-1.017 16.724 16.724 0 0 1-.797-.59c-.264-.192-.496-.42-.748-.606-.466-.42-.91-.81-1.27-1.17-.734-.71-1.215-1.233-1.215-1.233s.172.706.747 1.61c.274.458.66.95 1.117 1.443.466.48 1.005.964 1.61 1.354.59.413 1.24.736 1.867.98.306.14.63.21.922.3.292.096.58.136.846.175m130.26 52.82c-.16.23-.358.468-.586.622-.108.086-.238.123-.358.172-.057.018-.104.02-.154.04l-.295.017a2.897 2.897 0 0 0-.406-.045c-.132-.06-.272-.09-.41-.14-.112-.095-.256-.146-.37-.237-.102-.104-.232-.18-.324-.286-.394-.396-.654-.76-.654-.76s-.103.443.134 1.082c.112.32.34.672.694.98.193.122.41.26.643.35.26.044.453.097.78.116l.307-.037c.144-.035.294-.068.42-.12.246-.105.46-.265.622-.442.173-.17.282-.373.363-.56a1.91 1.91 0 0 0 .16-.532c.11-.667-.062-1.085-.062-1.085s-.196.4-.507.868m5.54-1.367c-.07.133-.206.236-.297.37-.098.13-.258.202-.368.325-.13.093-.263.118-.374.212-.18.062-.413.105-.618.16-.057.004-.316.037-.45.014a1.902 1.902 0 0 1-.452-.1c-.285-.11-.53-.324-.73-.543-.395-.453-.617-.877-.617-.877s-.132.467.115 1.164c.123.34.367.758.814 1.03.22.13.474.245.74.276.29.037.473.057.844-.014.21-.066.41-.11.63-.197.243-.145.497-.303.673-.48.153-.188.31-.368.4-.563.085-.195.177-.375.205-.555.17-.707.015-1.162.015-1.162s-.185.437-.53.94m11.79-2.776l-.02.032-.003.02-.02-.01c-.18.056-.355.02-.528.03-.17.002-.34.004-.5-.033-.156-.046-.318-.083-.464-.157a3.115 3.115 0 0 1-.41-.244c-.502-.364-.817-.74-.817-.74s-.022.497.388 1.138c.2.312.538.656 1.02.86.24.093.502.157.775.173.27 0 .54-.026.795-.09l.098-.02.074-.025.01-.006.02-.01.19-.087.302-.143.15-.068.17-.137.314-.285c.215-.18.287-.426.404-.62.094-.21.12-.43.158-.614a2.343 2.343 0 0 0-.106-.89c-.073-.202-.138-.302-.138-.302s-.024.12-.072.31a32.21 32.21 0 0 1-.102.335c-.05.114-.105.247-.166.39-.095.123-.16.266-.26.39-.125.097-.207.257-.34.32-.064.04-.125.08-.184.122a.896.896 0 0 0-.084.072l-.152.06-.31.128-.156.07-.038.027zM174.132 84c.082-.104.146-.22.215-.322.147-.2.217-.426.273-.63.078-.192.06-.394.08-.554.007-.164-.03-.307-.04-.418-.04-.227-.103-.342-.103-.342s-.125.527-.53 1.04c-.105.124-.206.26-.353.36-.066.055-.133.11-.2.168l-.225.113c-.08.035-.124.086-.225.127l-.338.12c-.114.034-.22.097-.336.142l-.01-.02-.073.016a1.31 1.31 0 0 0-.142.04c-.378.095-.77.114-1.162.054-.39-.06-.752-.22-1.067-.367-.616-.328-1.017-.65-1.017-.65s.036.123.145.318c.104.195.275.47.545.754.26.296.637.585 1.115.804.303.143.658.23 1.024.254l-.04.21-.094.347c-.038.13-.116.266-.163.412-.08.13-.165.27-.257.416-.125.117-.235.256-.364.36-.152.08-.252.177-.42.267l-.646.248c-.092.02-.366.062-.535.107-.197.068-.374.027-.558.05-.19.034-.344-.03-.514-.042-.178 0-.305-.098-.46-.13a3.25 3.25 0 0 1-.68-.392c-.154-.122-.25-.214-.25-.214s0 .12.064.34c.07.207.214.508.505.787.15.125.314.297.536.375.214.1.452.21.705.22.25.032.526.08.774.02.277-.054.474-.046.818-.18.21-.095.422-.19.63-.286.22-.145.454-.36.65-.54.172-.202.274-.437.394-.636.074-.22.12-.438.152-.627a2.462 2.462 0 0 0-.097-.913c-.03-.086-.057-.143-.08-.193.188.01.374.008.56-.02.07-.013.143-.026.212-.044l.106-.027.053-.012.027-.007.083-.03c.108-.052.224-.093.327-.15l.318-.165c.11-.06.237-.176.346-.27l.322-.288m-1.738-.104v-.002l.004.002h-.004zm-4.894 1.31c.23-.702.167-1.185.167-1.185s-.24.42-.66.913a4.052 4.052 0 0 1-.787.69c-.15.103-.31.187-.478.25-.173.083-.317.106-.464.173-.11.023-.22.055-.327.09-.025.014-.168.04-.247.064-.188.04-.374.076-.556.082a2.323 2.323 0 0 1-.99-.172c-.28-.127-.506-.29-.652-.424s-.213-.23-.213-.23.016.116.092.312c.074.195.217.473.49.742.264.28.676.516 1.152.645.238.066.492.105.748.12.143 0 .225.013.42-.01.113-.01.226-.028.336-.052.285-.068.562-.21.775-.352.22-.157.412-.335.574-.52.32-.377.51-.783.62-1.135m-15.504 3.465l-.218.04-.3-.013-.302.004c.004-.005-.134-.028-.193-.038-.148-.045-.295-.086-.43-.16a3.215 3.215 0 0 1-.382-.268 4.353 4.353 0 0 1-.6-.715c-.32-.487-.53-.874-.53-.874s-.114.434.03 1.084c.074.322.214.703.496 1.057a2.115 2.115 0 0 0 1.226.76c.143.016.208.037.414.043l.303-.018.296-.03.35-.1a1.79 1.79 0 0 0 .584-.284c.178-.09.302-.242.423-.357.128-.11.194-.26.274-.366.074-.11.11-.23.15-.312.065-.182.078-.287.078-.287s-.312.314-.816.568c-.246.117-.563.25-.854.267m-6.558-2.154c-.168.02-.317-.006-.475.002-.154-.002-.39-.055-.58-.082-.123-.01-.304-.082-.424-.133-.14-.05-.233-.14-.335-.22-.102-.083-.163-.198-.24-.312-.066-.12-.11-.25-.156-.382-.153-.533-.19-.992-.19-.992s-.334.328-.428 1.03a1.7 1.7 0 0 0 .312 1.24c.146.214.366.386.594.5.235.13.453.202.735.23.216.01.384.068.632.04.243-.03.496-.042.704-.104.414-.13.764-.312 1.03-.51.538-.398.733-.8.733-.8s-.402.175-.967.33a5.15 5.15 0 0 1-.948.164m10.632 1.113c.153-.077.286-.175.41-.25.253-.15.4-.355.52-.47.11-.125.167-.2.167-.2l-.262.042c-.165.02-.374.11-.637.13-.125.022-.258.044-.4.067-.14.007-.284.007-.428.02-.14-.014-.28-.016-.418-.043-.13-.045-.27-.045-.39-.12-.506-.192-.944-.655-1.3-1.034l-.603-.69s-.087.403.07.974c.087.28.214.615.464.918.112.16.27.303.437.434.176.124.36.25.58.31.203.093.43.112.645.142.215.004.424-.027.62-.05.186-.058.362-.124.525-.183m5.372-1.814c.18-.62.1-1.045.1-1.045s-.25.35-.605.782a3.81 3.81 0 0 1-.64.615c-.114.096-.247.152-.37.205-.066.037-.106.03-.156.053-.046.02-.18.02-.266.033-.07-.014-.272-.018-.403-.03-.14-.06-.294-.063-.437-.126-.134-.078-.29-.11-.42-.19-.125-.085-.27-.14-.382-.222-.473-.303-.818-.557-.818-.557s.05.434.412.965c.177.27.44.553.8.79.18.11.4.202.618.282.25.04.443.078.762.08.106-.02.172-.02.312-.06.135-.04.29-.083.39-.145.23-.107.412-.273.56-.434a2.5 2.5 0 0 0 .546-.994m-.438-2.37l-.127.007c-.166-.01-.34.08-.496.033-.15-.05-.324-.01-.468-.084-.142-.066-.306-.082-.435-.174-.13-.082-.276-.14-.39-.232-.474-.336-.796-.662-.796-.662s.002.11.048.303c.05.19.137.463.333.752.08.157.227.284.37.435.13.166.347.254.545.377.196.14.455.148.697.21.248.067.493-.005.74-.026l.186-.025c.047-.01.024.007.128-.028l.073-.027.29-.107.282-.125.305-.19c.207-.12.367-.27.5-.427.148-.137.245-.31.33-.463.1-.143.135-.307.182-.436.05-.127.046-.26.064-.352.012-.2-.01-.307-.01-.307s-.054.1-.16.248a2.95 2.95 0 0 1-.49.525c-.106.1-.23.187-.37.267a1.595 1.595 0 0 1-.424.217l-.214.104-.296.078-.297.092-.073.025c.055-.015-.02-.004-.026-.008m7.237-2.127c-.093.105-.236.16-.34.26-.11.1-.238.096-.337.182-.09.074-.338.102-.502.156l-.126.043-.063.003-.227.02c-.154.03-.295.017-.44.007-.147.004-.276-.04-.414-.064-.143-.018-.254-.09-.382-.123-.476-.2-.804-.47-.804-.47s.004.1.06.28c.06.17.17.414.39.658.118.106.23.263.405.347.166.092.342.223.553.256.207.05.426.13.646.104l.334-.012c.082-.01.057.018.227-.027l.138-.035c.19-.076.338-.082.562-.215.21-.125.437-.264.573-.422.138-.162.283-.31.36-.484.083-.17.17-.322.204-.48.178-.617.05-1.03.05-1.03s-.226.358-.573.755c-.08.104-.203.184-.293.29m.74-3.046s.124.417.603.83c.236.21.565.407.972.52.2.06.426.07.65.083.223-.012.452-.05.675-.105.272-.086.373-.154.565-.23.167-.086.36-.23.527-.336.168-.115.287-.262.418-.38.127-.122.215-.27.31-.39.353-.508.403-.928.403-.928s-.34.234-.807.508a10.27 10.27 0 0 1-.795.41c-.145.055-.255.12-.43.176-.156.05-.396.154-.485.164-.148.008-.285.068-.43.084-.145-.014-.29.014-.436.01-.143-.027-.29-.023-.43-.05-.137-.036-.278-.05-.405-.085-.51-.134-.906-.28-.906-.28m-8.036 1.78a8.54 8.54 0 0 1-.688-.095c-.168-.03-.276-.06-.276-.06s.05.09.174.237c.123.137.324.316.607.48.285.158.652.285 1.067.344.206.006.424.025.645.016l.65-.123c.264-.073.387-.15.583-.224.173-.053.374-.2.547-.3.35-.224.617-.48.815-.735.41-.5.475-.944.475-.944s-.36.23-.863.477c-.253.12-.553.26-.853.375-.16.055-.28.117-.48.18-.165.053-.402.143-.518.17-.165.04-.33.084-.492.125-.166.025-.328.05-.486.072l-.47.023a28.19 28.19 0 0 0-.438-.017m-7.72 3.274l-.117-.02c-.153-.037-.325-.008-.46-.086-.136-.064-.296-.07-.415-.17-.127-.078-.27-.13-.38-.234-.118-.088-.243-.168-.34-.27-.415-.37-.72-.71-.72-.71s-.025.108-.016.304c-.004.102.023.21.045.348.015.14.084.275.14.44.05.165.17.31.28.483.1.177.288.302.456.458.162.168.412.22.63.33.224.125.48.08.722.12l.182.01c.047 0 .025.01.127 0l.076-.01c.1-.01.197-.034.295-.052.186-.027.4-.076.617-.166.43-.145.748-.37.994-.602.246-.227.392-.47.476-.637.08-.173.102-.278.102-.278s-.084.068-.238.158-.367.215-.636.305a1.77 1.77 0 0 1-.428.13c-.15.054-.308.083-.464.09-.08.007-.155.026-.233.04l-.295.012c-.1.002-.2.002-.3.01l-.076.006c.052-.003-.022-.005-.026-.01m-3.266 1.53c.227-.267.342-.532.4-.716.055-.19.06-.303.06-.303s-.36.28-.866.498c-.14.037-.26.11-.408.143-.147.016-.297.094-.436.088-.16-.004-.23.05-.457.033l-.3.148-.152.152h-.02l-.055-.17-.47-.164c-.135-.068-.284-.146-.426-.205-.114-.094-.26-.17-.38-.26-.1-.104-.23-.19-.326-.293a6.334 6.334 0 0 1-.467-.54c-.11-.144-.175-.24-.175-.24s-.027.1-.037.3c0 .193.022.473.135.8.112.33.34.685.687 1 .186.132.394.26.61.38.23.07.47.127.708.184l.09.02c.145.007.084 0 .135 0l.152-.005.303-.01c.174.018.48-.1.693-.156.244-.053.404-.203.584-.303.176-.103.3-.26.42-.382m-10.21-2.153a2.29 2.29 0 0 1-.48.046c-.158 0-.28.004-.51-.037a4.032 4.032 0 0 1-.97-.265 2.938 2.938 0 0 1-.746-.484c-.406-.372-.623-.782-.623-.782s-.04.107-.05.307c-.01.197.01.494.155.822.135.33.404.695.787.953.187.13.398.246.624.318.228.074.44.152.696.166.18.025.474.03.72.006.242-.035.474-.104.687-.19.427-.187.75-.476.956-.755.42-.566.424-1.033.424-1.033s-.326.316-.818.604a2.87 2.87 0 0 1-.852.323m3.883-.333c.163.03.234.088.473.092l.356.003c.21.025.52-.043.797-.13.293-.062.482-.22.688-.343.198-.127.342-.3.48-.44.255-.308.396-.603.468-.813.07-.215.086-.34.086-.34l-.26.22a6.56 6.56 0 0 1-.69.474c-.16.06-.297.17-.47.22-.173.035-.346.145-.507.137-.162.012-.3.074-.566.04l-.355-.022c0 .008-.158-.033-.23-.045a2.316 2.316 0 0 1-.977-.562c-.29-.262-.523-.58-.716-.865-.377-.58-.605-1.03-.605-1.03s-.086.505.105 1.25c.096.368.268.798.573 1.21.16.2.35.398.573.568.23.162.497.293.775.377m6.537-4.658s-.01.114.047.31c.055.193.182.467.426.73.48.548 1.447.907 2.357.862a4.24 4.24 0 0 0 .69-.08c.225-.055.438-.125.638-.205.396-.17.73-.393.98-.617.507-.447.675-.875.675-.875s-.41.18-.976.367c-.284.09-.61.184-.954.246a3.68 3.68 0 0 1-.53.072c-.192.02-.307.037-.536.03-.746.007-1.448-.104-1.963-.32a3.127 3.127 0 0 1-.853-.52m-7.11-.66c-.19-.2-.356-.39-.468-.536-.106-.145-.173-.242-.173-.242s-.033.104-.046.305c-.008.197.016.48.132.814.125.327.36.698.738.983.194.12.4.273.635.338.252.06.427.132.76.16.202-.005.406-.01.608-.017.227-.035.477-.107.695-.164.42-.163.754-.386 1.004-.618a2.64 2.64 0 0 0 .486-.645c.086-.176.113-.28.113-.28s-.097.054-.257.138a7.433 7.433 0 0 1-.664.285c-.274.09-.59.172-.91.215-.157.006-.294.03-.467.035a110.9 110.9 0 0 0-.608-.023c-.07-.035-.293-.066-.435-.09-.156-.035-.28-.12-.435-.156-.136-.06-.244-.16-.383-.222-.11-.094-.215-.19-.326-.277m4.634-1.17c.17.122.357.237.565.327.22.078.416.135.687.166.156.03.447.01.675-.03a2.11 2.11 0 0 0 .616-.208 2.63 2.63 0 0 0 .863-.66c.414-.47.508-.89.508-.89l-.885.374c-.255.097-.54.194-.827.267-.146.035-.293.053-.437.074-.138.017-.228.007-.448 0a1.95 1.95 0 0 1-.41-.073 2.242 2.242 0 0 1-.418-.143 4.558 4.558 0 0 1-.752-.426c-.44-.307-.762-.574-.762-.574s.002.426.31.973c.153.27.386.57.714.824m9.79.036c.093.113.21.22.358.3.14.106.305.17.484.22.177.07.363.086.554.086.113 0 .153.018.327.002.082-.012.164-.025.244-.045.156-.03.322-.065.518-.15.184-.08.36-.163.496-.265.29-.19.513-.42.677-.633.33-.424.404-.785.404-.785s-.31.182-.733.402c-.215.106-.455.23-.715.32-.13.067-.255.09-.375.122-.103.05-.26.08-.43.1-.083.01-.164.025-.244.045.012-.002-.113 0-.163.002-.134 0-.27.02-.39-.003a2.162 2.162 0 0 1-.69-.152 2.675 2.675 0 0 1-.5-.262c-.122-.078-.196-.14-.196-.14s-.004.09.04.25c.046.147.136.376.335.583m9.27 1.15c.185.086.394.137.608.17.107.02.218.02.326.03.172.003.207-.013.318-.02.195-.024.482-.08.667-.167.203-.087.39-.2.553-.323.32-.258.543-.56.682-.834.28-.55.262-.965.262-.965s-.277.297-.688.63a3.494 3.494 0 0 1-.716.45c-.13.066-.27.12-.412.15-.158.04-.24.06-.414.074l-.238.008c-.075-.002-.15.004-.225-.006a5.035 5.035 0 0 1-.44-.064 5.58 5.58 0 0 1-.817-.244c-.49-.19-.863-.37-.863-.37s.088.417.516.87c.21.224.506.456.88.61m10.274-4.982a4.47 4.47 0 0 1-.69.686c-.13.102-.272.18-.414.252-.14.066-.23.088-.48.148-.11.03-.294.035-.45.02a2.45 2.45 0 0 1-.504-.09c-.34-.09-.668-.23-.956-.355l-.987-.473s.158.445.635.955c.234.256.55.523.963.738.208.104.443.188.697.246.267.042.52.06.833.005.176-.018.5-.13.737-.264.235-.124.438-.294.595-.478a2.67 2.67 0 0 0 .598-1.104c.19-.69.068-1.16.068-1.16s-.262.397-.644.876m-39.498 5.445c.134-.003.215.015.386-.01.097-.017.192-.034.287-.062.19-.05.363-.078.58-.172.197-.092.396-.16.55-.277.16-.112.308-.212.42-.343.24-.234.37-.488.427-.67.06-.182.053-.29.053-.29s-.07.083-.213.18a2.21 2.21 0 0 1-.59.317c-.115.064-.27.082-.41.127-.138.06-.297.056-.445.085-.133.043-.34.047-.53.062a4.103 4.103 0 0 0-.292.03l-.204-.02c-.146-.033-.32.018-.44-.053-.12-.06-.277-.05-.383-.14-.113-.073-.244-.12-.342-.224-.104-.088-.214-.172-.298-.277-.36-.393-.602-.773-.602-.773s-.04.1-.06.29c-.017.192-.02.468.08.792.026.174.134.33.23.51.08.195.274.326.44.49.16.188.418.227.64.332.235.127.477.074.716.095m2.045-3.612c.092.154.233.293.376.438.166.115.354.234.554.316.206.045.42.105.636.123.254-.008.362-.02.547-.033.18-.027.39-.094.568-.14.183-.052.327-.15.476-.218.146-.074.263-.18.375-.26.44-.365.567-.73.567-.73s-.36.137-.835.236c-.237.045-.512.13-.782.15-.137.004-.246.096-.402.096h-.467c-.118 0-.24-.117-.362-.13-.105-.05-.213-.16-.328-.192-.09-.072-.2-.12-.3-.184-.083-.084-.188-.148-.27-.23-.33-.322-.565-.64-.565-.64s-.15.376.02.95c.03.147.115.29.196.448m122.773-2.094c-6.156-5.62-12.303-3.068-14.316-.95-.15.16-.287.343-.416.536a39.762 39.762 0 0 0-.84-.213c-.49-.102-1.06-.227-1.67-.312-.616-.084-1.263-.188-1.92-.22a18.22 18.22 0 0 0-1.913-.083c-.61-.002-1.174-.02-1.66.03l-1.605.116s.637.08 1.592.197c.475.04 1.023.17 1.606.285.586.104 1.198.262 1.806.44.61.15 1.203.37 1.758.558.55.193 1.05.412 1.48.59.218.104.415.193.587.275-.452 1.37-.63 2.88-.7 3.828-.273-.06-.547-.12-.807-.167-2.617-.508-4.404-.338-4.404-.338l1.117.453c.705.285 1.698.713 2.866 1.232.584.262 1.205.56 1.86.875.665.29 1.32.688 2.025 1.03.7.35 1.388.78 2.1 1.18.675.458 1.413.847 2.074 1.34.67.48 1.363.927 1.98 1.452l.948.742.87.786.854.758c.26.268.514.53.762.783.5.512.982.992 1.368 1.488.394.49.79.926 1.127 1.324.29.425.566.792.796 1.097.456.61.75.957.75.957s-.08-.432-.282-1.182a26.87 26.87 0 0 0-.394-1.355c-.194-.508-.462-1.06-.76-1.666-.05-.1-.097-.204-.147-.31.977-.334 2.48-.918 3.566-1.66 1.1-.752 1.935-2.635 2.077-4.686.136-1.905-.223-5.638-4.134-9.21m2.14 9.074c-.118 1.68-.793 2.887-1.213 3.174-1.067.73-2.737 1.312-3.52 1.562-.183-.266-.362-.533-.55-.81l-.822-.94c-.287-.314-.578-.633-.875-.955-.326-.29-.656-.585-.99-.88-.652-.61-1.4-1.12-2.143-1.635-.73-.533-1.544-.926-2.307-1.373-.8-.375-1.586-.748-2.365-1.053a26.39 26.39 0 0 0-1.596-.552c.08-1.67.488-4.258 1.373-5.188 1.018-1.07 5.953-4.03 11.52 1.05 3.288 3.005 3.598 6.05 3.488 7.598m.35 19.823c-.077-.538-.255-1.056-.42-1.58-.168-.52-.413-1.007-.637-1.493-.264-.463-.514-.926-.81-1.332a9.905 9.905 0 0 0-.91-1.13 8.372 8.372 0 0 0-.91-.913 9.017 9.017 0 0 0-1.564-1.133c-.405-.237-.664-.327-.664-.327l1.157 2.297c.324.676.72 1.43 1.084 2.252.2.4.354.836.56 1.252.146.44.362.86.5 1.305.144.442.32.874.424 1.317.057.22.13.438.193.652.047.22.094.435.137.647.045.213.097.424.15.63l.088.616c.055.404.137.793.143 1.154.013.36.072.705.088 1.01-.01.3.008.574.013.8.017.454.046.73.046.73s.156-.21.393-.614c.115-.203.266-.45.408-.75.127-.3.246-.65.36-1.04.136-.392.226-.825.265-1.294l.086-.724c.01-.246 0-.5-.01-.758a7.645 7.645 0 0 0-.172-1.577M57.012 43.9c-2.697.192-5.345 2.38-5.345 4.414 0 1.08.353 1.83.776 2.557-.114.05-.23.1-.35.15-.3.16-.625.3-.926.492-.3.195-.605.358-.857.577-.253.212-.504.372-.678.57l-.59.61.76-.35c.215-.112.51-.17.794-.267.282-.104.612-.14.92-.206.31-.063.637-.07.925-.107.298-.003.57-.02.8-.008.05 0 .085.004.128.006.896 1.047 2.544 1.594 3.868 1.594a4.26 4.26 0 0 0 1.544-.27c1.775-.692 3.538-2.62 3.213-5.223-.295-2.363-1.952-4.76-4.98-4.54m1.04 7.898c-.225.088-.508.135-.817.135-1.097 0-2.172-.544-2.45-1.03-.133-.232-.26-.445-.383-.646-.46-.756-.736-1.212-.736-1.943 0-.647 1.473-2.275 3.488-2.42.075-.005.15-.008.22-.008 1.685 0 2.472 1.51 2.633 2.802.193 1.54-.878 2.69-1.954 3.11m9.64-1.15c-1.002.056-2.76.562-3.26 3.32-.183 1 .1 2.01.798 2.846.68.814 1.65 1.32 2.534 1.32.268 0 .524-.047.76-.137 2.265-.87 3.405-2.277 3.126-3.858-.31-1.747-1.81-3.634-3.957-3.49m.115 5.48s-.014.005-.044.005c-.24 0-.673-.21-1-.602-.18-.215-.465-.658-.365-1.207.295-1.62 1.073-1.662 1.483-1.683.923 0 1.64.938 1.8 1.845.112.637-.94 1.283-1.873 1.64"/></svg>