<svg id="Layer_1" xmlns="http://www.w3.org/2000/svg" viewBox="-152 341 305.8 112"><style>.st0{fill:#f0a732}.st1{fill:#0b3746}.st2{fill:#d72050}.st3{fill:#d72051}</style><path class="st0" d="M-110.3 377.7c-4.9 0-9 4.1-9 9v1c0 4.9 4.1 9 9 9s9-4.1 9-9v-1c0-4.9-4.1-9-9-9z"/><path class="st1" d="M-110.3 383.3c-5 0-5 8 0 8s5-8 0-8z"/><path class="st0" d="M-107.3 383.2c-2 0-2 3 0 3s2-3 0-3z"/><path class="st2" d="M-113.8 398.2c-.6-.1-.9.9-.3 1 2.6.4 5.5 1.3 8 .2 2.9-1.3 6.1-3.7 7.5-6.6.3-.6-.6-1.1-.9-.5-1.3 2.6-4 4.6-6.5 5.9-2.4 1.3-5.2.5-7.8 0zM-98.6 384.7c-.1-1.3-.8-2.4-1.3-3.6-1.1-2.2-2.3-4.1-4.7-4.9-.6-.2-.9.8-.3 1 2.6.8 3.6 3.4 4.7 5.6 1 2 .5 4.2.8 6.4.1.6 1.1.4 1-.3-.3-1.4-.1-2.8-.2-4.2zM-109 375.2c-5-.9-10.2 1.7-12.1 6.5-1.1 2.8-2.1 5.8-1.7 8.8.4 2.8 2.7 4.1 4.2 6.3.4.5 1.2 0 .9-.5-1-1.5-2.5-2.6-3.5-4.1-1.5-2.3-.5-5.7.3-8.1 1.7-5.1 6-8.8 11.6-7.9.7.1 1-.8.3-1z"/><path class="st2" d="M-113.7 408.7c5.3.5 10.8-.2 15.3-3.1 7.5-4.9 10.9-15.4 10.2-24-.6-8.2-8.1-11.7-15.3-13-7.6-1.4-17-.8-22.1 5.8-1.6 2.1-3.2 4.7-3.5 7.4-.2 2.2 1.8 3.9 3.9 3.4.6-.1.4-1.1-.3-1-3.9.8-2.4-4.2-1.5-5.9.8-1.7 2-3.5 3.4-4.8 5.4-5.2 13.6-5.2 20.5-3.9 5.8 1.1 11.8 3.7 13.6 9.8 2.1 7-1.2 16.4-5.7 21.9-4.5 5.4-10.7 6.4-17.3 6.3-3.1 0-5.5-.9-7.1-3.7-.5-.8-.8-1.9-1.1-2.8-.1-.4-1.1-3-.1-2.5 2.1 1.2 1.6 4.7 3.7 6.3 1.7 1.4 4 1.8 6.2 1.9 4.7.1 9.8-2.2 13.3-5.3 4.9-4.3 6.5-11.6 5.9-17.9-.2-2.6-.9-4.9-2.7-6.9-2-2.2-5.1-3.2-7.3-5.2-.8-.7-1.8-.8-2.8-.9-2-.1-4.1 0-6.1.1-2.6.2-5.2.8-7.6 1.9-2.6 1.3-9 4.8-6.5 8.5.1.2.4.3.7.2 2-1.2 3.1-3.3 4.7-5 2.5-2.7 7.1-3 10.5-2.8 6 .3 11.7 3.9 13 9.9 1.5 6.6-1.4 14.4-7.9 17.1-3.1 1.3-11.8 3-13.4-1.3-.2-.6-1.2-.3-1 .3 1.8 4.9 9.8 3.4 13.6 2.3 6.5-1.8 10.3-8.9 10.1-15.3-.2-6.8-3.9-11-10.2-13.1-3.8-1.3-8-1.1-11.8 0-3.7 1.1-4.7 4.8-7.6 6.8-1.4-3.6 7.1-7.3 9.6-7.8 3.3-.7 6.6-.7 9.9-.8 1.8-.1 2.9 1.4 4.2 2.3 1.2.7 2.5 1.4 3.6 2.3 5.3 3.7 4.6 11.7 3 17.1-1.9 6.4-7.2 10.3-13.4 12-3 .8-6.2.7-8.9-.8-2.5-1.5-1.6-4.8-3.8-6.4-3.2-2.3-2.3 2-1.7 3.7 1.4 4 3.4 6.4 7.8 6.9z"/><path class="st2" d="M-81.4 377.5c-1.3-8.4-6.3-11.3-14.2-12.6-4.2-.7-8.3-1.9-12.5-2.2-4.3-.4-9.1.8-13.2 2-7 2.2-13.4 7.9-14.7 15.3-.2 1.4 0 2.6.3 3.9.6 2.9.2 5.4-.1 8.3-.4 4.6 1.2 10.2 2.3 14.7.4 1.4 1.7 1.7 2.8 1.2.9.3 2 .2 3.2-.2h.1c.5.2.9.5.9 1.1 0 1.3.5 2.4 1.4 3.3.2.4.5.9.9 1.3 1.2 1.3 3.1 1.9 5.1 2.2 2.2.9 4.6 1.1 7.1 1 2.7.4 5.1 0 7.8-1.2l1.2-.3c3.3-.8 7.3-1.6 10.1-3.7.5-.3 1-.6 1.5-1 .2-.2.2-.4.2-.6 2.1-2.4 3.6-5.4 5.3-8.1 4.2-7.1 5.8-16.2 4.5-24.4zm-44.9-5.6c.9-.7 1.8-1.3 2.7-1.9 1.1-.6 2.2-1.1 3.4-1.5 7-2.6 13.8-1.9 20.9-.3 2.6.6 5.2.9 7.7 1.6 5.8 3.1 6.7 9.1 6.3 15.2-.3 6-2.3 12-5.8 16.9-1.8 2.5-4 4.3-6.4 5.7-2.1.9-4.3 1.5-6.4 2.4-3.6 1.4-6.8 2.1-10.5 1.8-2.2-.3-4.2-1.1-5.7-2.7-.3-1-.4-2.1-.9-3.2a5 5 0 0 0-1.1-1.6c-.4-2.2-.5-4.5-1.6-6.4-.2-.4-.8-.3-.9.1-.2.6-.9 2.4-1.5 1.2-.4-.8-.6-1.7-.8-2.6-.6-2.3-1.2-5-.8-7.4.1-.5 1.3-2.9 1.5-.7.1.7-.1 1.6-.2 2.3-.1 1.3 0 2.4.5 3.6.4 1 1.4 2.8 2.5 1.7.6-.6.6-2.1.4-2.9-.5-2.3-1.7-4-.2-6.4.3-.5-.5-1-.9-.5-1 1.6-1.2 3-.6 4.8.1.4.3.8.4 1.2.1.2.1.4.2.6.4.8.2 1.5-.5 2.1-.7-1.1-1-2.3-.9-3.6.1-1.7.5-3-.4-4.5-.4-.7-1.4-.7-1.9 0-2.3 3.4-.9 8.7.5 12.3 1 2.7 2.3 1.9 3.2.2.6 1.4.9 2.9 1.1 4.3-.3-.2-.7-.4-1.2-.6-.5-.2-2.2.2-3.5.6h-2.2c-.2-.3-.3-.6-.5-.9-.2-1-.4-2-.6-3.1-.1-1.2-.1-2.3-.1-3.1 0-1.4 0-2.9-.2-4.3-.1-.6-.2-1.1-.2-1.7.2-.9.4-1.9.5-2.8.1-.1.1-.2.2-.4.6-.8.5-1.5.2-2.4-.2-.5-.5-.9-.9-1.3-.5-3.4-.2-6 2.2-9.1 1-1 2-1.9 3-2.7z"/><path class="st2" d="M-101.4 384.2c-1.5-5.1-7.3-8.4-12.3-6.7-2.6.9-4.6 3.4-5.5 5.8-1.4 3.8-.3 6.2 1.1 9.6 0 .1 0 .3.1.5 6.6 8.3 19.5.6 16.6-9.2zm-5.3 10.7c-3.6 2.2-7.6 1.2-10.3-1.8-1.1-2.7-2.4-4.9-1.7-8 .6-2.7 2.4-5.1 4.8-6.4 4.8-2.6 10.4 1.8 11.7 6.4 1.2 3.8-1.3 7.8-4.5 9.8z"/><path class="st2" d="M-76.5 368.8c-.3-.7-1.1-.9-1.6-.5-.7-1.4-1.7-2.7-3.1-4.1-2.9-3-7.5-4.5-11.4-5.5-5-1.3-10.4-1-15.6-1-4.9 0-9.8 0-14.7.8-3.8.6-7.3 2.1-10.3 4.6-1.5 1.3-2.4 3.2-3.3 4.9-1.1 2.3-2.4 4.1-3.9 6.2-2.3 3.2-1.9 7.8-1.5 11.4.5 5.4.9 10.8 1.3 16.2.3 4.3 2 15.7 8.4 14.7 2.2-.3 2.6-.9 4.6.5 1.5 1 3.6 1.5 5.3 2.1 4.6 1.7 8.2 3.1 13.1 2.9 3.8-.2 7.3 2 10.6-.6 3.6-2.9 7.6-3.7 11.4-6.1 3.2-2 4.5-6.6 5.9-9.9.4-1 .8-2 1.1-3 2.2-4.4 3.8-8.9 4.4-13.9.2-.5.3-1.1.5-1.6.1-.4 0-.7-.2-.9.5-5.5 1-12.2-1-17.2zm-15.2 45.3c-4.3.9-7 4.2-11.2 5.6-2.2.7-5-.3-7.2-.5-2.7-.3-5.2.1-7.9-.6-2.5-.6-4.8-1.9-7.1-3.1-1.8-.9-3.1-3-5.1-3.5-.6-.2-1.3.1-1.9.4-2.6 1.2-4-4.9-4.4-6.1-1.7-5.2-.4-10.2-1.1-15.4-.7-4.8-1.9-10.9.1-15.5.8-1.8 2.5-3.5 3.6-5.1 1.6-2.5 2-4.6 5-6.2 8.8-4.8 20.8-3.6 30.4-3 6 .3 10.5 2.1 15 6.2s4.8 10.7 4.8 16.4c0 5.8-1.5 11.4-3.3 16.8-1.5 4.4-5.1 7.5-6.3 11.9v.1c-1 .6-2.1 1.3-3.4 1.6z"/><path class="st3" d="M-91.3 416.4c-.9.3-2.5.5-3.2 1.3-.3.3-.4.6-.5 1l-.3-.3c-1.1-.6-2.3.6-3 1.2-1.3 1.2-3.5.8-4.5 2.2-.5.1-.7.4-.9.7-.2-.7-.6-1.2-1.4-1.7-1.1-.6-2.6.1-3.7.4-1.2.3-2.1 0-3 .3-.2-.2-.7-.2-.8.2 0 .1-.1.2-.1.4-.1-.2-.2-.3-.4-.5-1.3-1.4-4.6-2.1-6.5-1.8h-.1c-.2 0-.3.2-.4.4-.1-.2-.2-.3-.4-.5-1.1-1.1-3.9-2.6-5.4-2-.2.1-.3.1-.4.2-.2-.5-.6-1-1.1-1.4-1.3-.9-2.6-.8-3.5 0v-.2c0-.5-.7-.6-.9-.3-.2.3-.3.4-.3.5-.3-.4-.6-.5-1.1-.2v-.6c0-.6-1-.6-1 0v2c-.6 1.8-.2 4.4-.1 6.5 0 .7 0 1.5-.1 2.2 0 .6.9.7 1 .1v-.1c.2-1.2.2-2.3.1-3.5 0-1.4.1-2.8.1-4.2v-.1c.3-2 .6-.4.8.5.1 1.1.2 2.3.2 3.5.2 2.9.3 5.8 0 8.7-.3 2.9-.7 5.7-.2 8.5.1.4.7.5.9.1 1.3-2.9.4-6.1.5-9.1 0-2.3.4-4.6.3-6.9-.1-1.7-.2-3.5-.2-5.2.1-.1.1-.1.2-.3 0-1.2.7-1.7 2-1.7 1.5.2 1.8 1.5 1.9 2.6v1.5c0 .8-.1 1.5 0 2.3.1.5.9.7 1 .1v-.1-1.7c0-.6.1-1.2 0-1.8.1-.7.3-1.1.7-1.2 2.6-.1 4.6 1.8 5.2 4.2v1.8c0 1 0 1.9.1 2.9-.3 2.4-.8 4.8-.8 7.2 0 .4.5.7.9.4.8-.8.9-3.3.8-5.9.4-2.5.7-5.1 0-7.2.1-.7.3-1.1.6-1.2.1 0 .1 0 .1-.1 2.2.1 5.2 1.4 5.3 3.4.1 1.6-.3 3 .4 4.5.2.4.7.3.9 0 1-1.4.9-4.2.5-6.1.7-.3 1.4.1 2.2-.1 1.5-.3 4.1-1.4 4.7.8.5 1.6 0 3.3.9 4.8.2.4.8.3.9-.1.2-.6.1-1.3.1-1.9-.1-.6 0-1.5-.1-2.2.1-.3.2-.5.3-.7.1 0 .1-.1.1-.1.2-.1.4-.3.4-.5.8-.7 1.9-.9 3-1.3.5-.2 1-.6 1.4-.9 1.7-1.4 2.1 0 2.4 1.3.1.5.8.4 1 0 .2-.6.3-.9.2-1.5-.3-2.3 1.4-2.3 2.9-2.7.3 0 0-1-.6-.8zM-85.9 440.8c-.3-1.4-.1-2.9 0-4.3.1-1.9-.1-3.8-.1-5.6-.1-3.1.2-6.3.1-9.4 0-1.5-.3-3.1-.4-4.6 0-1.3.7-2.2.4-3.5-.1-.4-.6-.4-.8-.2-.6.5-.9 1.2-1.1 1.9-.3-.4-1-.1-.9.5 1.5 5.4.8 10.7.3 16.2-.2 2.4.3 4.8.4 7.2.1 1.8.2 3.7.9 5.5.1.3.6.5.8.2 1-1.3.7-2.5.4-3.9z"/><path class="st0" d="M-109.3 377.7c-4.9 0-9 4.1-9 9v1c0 4.9 4.1 9 9 9s9-4.1 9-9v-1c0-4.9-4.1-9-9-9z"/><path class="st1" d="M-109.3 383.3c-5 0-5 8 0 8s5-8 0-8z"/><path class="st0" d="M-106.3 383.2c-2 0-2 3 0 3s2-3 0-3z"/><path class="st2" d="M-100.1 384.2c-1.5-5.1-7.3-8.4-12.3-6.7-.1 0-.2-.1-.3 0-3 1-4.6 3.1-6 5.8-1.8 3.5.3 6.8 1.4 10 .1.4.5.4.8.3 6.5 8 19.3.3 16.4-9.4zm-5.3 10.7c-3.6 2.2-7.6 1.2-10.3-1.8-1.1-2.7-2.4-4.9-1.7-8 .6-2.7 2.4-5.1 4.8-6.4 4.8-2.6 10.4 1.8 11.7 6.4 1.1 3.8-1.3 7.8-4.5 9.8z"/><path class="st2" d="M-75.5 368.8c-.3-.7-1.1-.9-1.6-.5-.7-1.4-1.7-2.7-3.1-4.1-2.9-3-7.5-4.5-11.4-5.5-5-1.3-10.4-1-15.6-1-4.9 0-9.8 0-14.7.8-3.8.6-7.3 2.1-10.3 4.6-1.5 1.3-2.4 3.2-3.3 4.9-1.1 2.3-2.4 4.1-3.9 6.2-2.3 3.2-1.9 7.8-1.5 11.4.5 5.4.9 10.8 1.3 16.2.3 4.3 2 15.7 8.4 14.7 2.2-.3 2.6-.9 4.6.5 1.5 1 3.6 1.5 5.3 2.1 4.6 1.7 8.2 3.1 13.1 2.9 3.8-.2 7.3 2 10.6-.6 3.6-2.9 7.6-3.7 11.4-6.1 3.2-2 4.5-6.6 5.9-9.9.4-1 .8-2 1.1-3 2.2-4.4 3.8-8.9 4.4-13.9.2-.5.3-1.1.5-1.6.1-.4 0-.7-.2-.9.5-5.5 1-12.2-1-17.2zm-15.2 45.3c-4.3.9-7 4.2-11.2 5.6-2.2.7-5-.3-7.2-.5-2.7-.3-5.2.1-7.9-.6-2.5-.6-4.8-1.9-7.1-3.1-1.8-.9-3.1-3-5.1-3.5-.6-.2-1.3.1-1.9.4-2.6 1.2-4-4.9-4.4-6.1-1.7-5.2-.4-10.2-1.1-15.4-.7-4.8-1.9-10.9.1-15.5.8-1.8 2.5-3.5 3.6-5.1 1.6-2.5 2-4.6 5-6.2 8.8-4.8 20.8-3.6 30.4-3 6 .3 10.5 2.1 15 6.2s4.8 10.7 4.8 16.4c0 5.8-1.5 11.4-3.3 16.8-1.5 4.4-5.1 7.5-6.3 11.9v.1c-1 .6-2.1 1.3-3.4 1.6z"/><path class="st3" d="M-90.3 416.4c-.9.3-2.5.5-3.2 1.3-.3.3-.4.6-.5 1l-.3-.3c-1.1-.6-2.3.6-3 1.2-1.3 1.2-3.5.8-4.5 2.2-.5.1-.7.4-.9.7-.2-.7-.6-1.2-1.4-1.7-1.1-.6-2.6.1-3.7.4-1.2.3-2.1 0-3 .3-.2-.2-.7-.2-.8.2 0 .1-.1.2-.1.4-.1-.2-.2-.3-.4-.5-1.3-1.4-4.6-2.1-6.5-1.8h-.1c-.2 0-.3.2-.4.4-.1-.2-.2-.3-.4-.5-1.1-1.1-3.9-2.6-5.4-2-.2.1-.3.1-.4.2-.2-.5-.6-1-1.1-1.4-1.3-.9-2.6-.8-3.5 0v-.2c0-.5-.7-.6-.9-.3-.2.3-.3.4-.3.5-.3-.4-.6-.5-1.1-.2v-.6c0-.6-1-.6-1 0v2c-.6 1.8-.2 4.4-.1 6.5 0 .7 0 1.5-.1 2.2 0 .6.9.7 1 .1v-.1c.2-1.2.2-2.3.1-3.5 0-1.4.1-2.8.1-4.2v-.1c.3-2 .6-.4.8.5.1 1.1.2 2.3.2 3.5.2 2.9.3 5.8 0 8.7-.3 2.9-.7 5.7-.2 8.5.1.4.7.5.9.1 1.3-2.9.4-6.1.5-9.1 0-2.3.4-4.6.3-6.9-.1-1.7-.2-3.5-.2-5.2.1-.1.1-.1.2-.3 0-1.2.7-1.7 2-1.7 1.5.2 1.8 1.5 1.9 2.6v1.5c0 .8-.1 1.5 0 2.3.1.5.9.7 1 .1v-.1-1.7c0-.6.1-1.2 0-1.8.1-.7.3-1.1.7-1.2 2.6-.1 4.6 1.8 5.2 4.2v1.8c0 1 0 1.9.1 2.9-.3 2.4-.8 4.8-.8 7.2 0 .4.5.7.9.4.8-.8.9-3.3.8-5.9.4-2.5.7-5.1 0-7.2.1-.7.3-1.1.6-1.2.1 0 .1 0 .1-.1 2.2.1 5.2 1.4 5.3 3.4.1 1.6-.3 3 .4 4.5.2.4.7.3.9 0 1-1.4.9-4.2.5-6.1.7-.3 1.4.1 2.2-.1 1.5-.3 4.1-1.4 4.7.8.5 1.6 0 3.3.9 4.8.2.4.8.3.9-.1.2-.6.1-1.3.1-1.9-.1-.6 0-1.5-.1-2.2.1-.3.2-.5.3-.7.1 0 .1-.1.1-.1.2-.1.4-.3.4-.5.8-.7 1.9-.9 3-1.3.5-.2 1-.6 1.4-.9 1.7-1.4 2.1 0 2.4 1.3.1.5.8.4 1 0 .2-.6.3-.9.2-1.5-.3-2.3 1.4-2.3 2.9-2.7.3 0 0-1-.6-.8zM-84.9 440.8c-.3-1.4-.1-2.9 0-4.3.1-1.9-.1-3.8-.1-5.6-.1-3.1.2-6.3.1-9.4 0-1.5-.3-3.1-.4-4.6 0-1.3.7-2.2.4-3.5-.1-.4-.6-.4-.8-.2-.6.5-.9 1.2-1.1 1.9-.3-.4-1-.1-.9.5 1.5 5.4.8 10.7.3 16.2-.2 2.4.3 4.8.4 7.2.1 1.8.2 3.7.9 5.5.1.3.6.5.8.2 1-1.3.7-2.5.4-3.9z"/><path class="st0" d="M111.7 377.7c4.9 0 9 4.1 9 9v1c0 4.9-4.1 9-9 9s-9-4.1-9-9v-1c0-4.9 4.1-9 9-9z"/><path class="st1" d="M111.7 383.3c5 0 5 8 0 8s-5-8 0-8z"/><path class="st0" d="M114.7 383.2s-2 0 0 0c0 0 2 3 0 3s-2-3 0-3z"/><path class="st2" d="M115.6 398.2c.6-.1.9.9.3 1-2.6.4-5.5 1.3-8 .2-2.9-1.3-6.1-3.7-7.5-6.6-.3-.6.6-1.1.9-.5 1.3 2.6 4 4.6 6.5 5.9 2.4 1.3 5.2.5 7.8 0zM100.4 384.7c.1-1.3.8-2.4 1.3-3.6 1.1-2.2 2.3-4.1 4.7-4.9.6-.2.9.8.3 1-2.6.8-3.6 3.4-4.7 5.6-1 2-.5 4.2-.8 6.4-.1.6-1.1.4-1-.3.3-1.4.1-2.8.2-4.2zM110.8 375.2c5-.9 10.2 1.7 12.1 6.5 1.1 2.8 2.1 5.8 1.7 8.8-.4 2.8-2.7 4.1-4.2 6.3-.4.5-1.2 0-.9-.5 1-1.5 2.5-2.6 3.5-4.1 1.5-2.3.5-5.7-.3-8.1-1.7-5.1-6-8.8-11.6-7.9-.7.1-.9-.8-.3-1z"/><path class="st2" d="M115.6 408.7c-5.3.5-10.8-.2-15.3-3.1-7.5-4.9-10.9-15.4-10.2-24 .6-8.2 8.1-11.7 15.3-13 7.6-1.4 17-.8 22.1 5.8 1.6 2.1 3.2 4.7 3.5 7.4.2 2.2-1.8 3.9-3.9 3.4-.6-.1-.4-1.1.3-1 3.9.8 2.4-4.2 1.5-5.9-.8-1.7-2-3.5-3.4-4.8-5.4-5.2-13.6-5.2-20.5-3.9-5.8 1.1-11.8 3.7-13.6 9.8-2.1 7 1.2 16.4 5.7 21.9 4.5 5.4 10.7 6.4 17.3 6.3 3.1 0 5.5-.9 7.1-3.7.5-.8.8-1.9 1.1-2.8.1-.4 1.1-3 .1-2.5-2.1 1.2-1.6 4.7-3.7 6.3-1.7 1.4-4 1.8-6.2 1.9-4.7.1-9.8-2.2-13.3-5.3-4.9-4.3-6.5-11.6-5.9-17.9.2-2.6.9-4.9 2.7-6.9 2-2.2 5.1-3.2 7.3-5.2.8-.7 1.8-.8 2.8-.9 2-.1 4.1 0 6.1.1 2.6.2 5.2.8 7.6 1.9 2.6 1.3 9 4.8 6.5 8.5-.1.2-.4.3-.7.2-2-1.2-3.1-3.3-4.7-5-2.5-2.7-7.1-3-10.5-2.8-6 .3-11.7 3.9-13 9.9-1.5 6.6 1.4 14.4 7.9 17.1 3.1 1.3 11.8 3 13.4-1.3.2-.6 1.2-.3 1 .3-1.8 4.9-9.8 3.4-13.6 2.3-6.5-1.8-10.3-8.9-10.1-15.3.2-6.8 3.9-11 10.2-13.1 3.8-1.3 8-1.1 11.8 0 3.7 1.1 4.7 4.8 7.6 6.8 1.4-3.6-7.1-7.3-9.6-7.8-3.3-.7-6.6-.7-9.9-.8-1.8-.1-2.9 1.4-4.2 2.3-1.2.7-2.5 1.4-3.6 2.3-5.3 3.7-4.6 11.7-3 17.1 1.9 6.4 7.2 10.3 13.4 12 3 .8 6.2.7 8.9-.8 2.5-1.5 1.6-4.8 3.8-6.4 3.2-2.3 2.3 2 1.7 3.7-1.4 4-3.5 6.4-7.8 6.9z"/><path class="st2" d="M87.9 402c1.6 2.7 3.1 5.7 5.3 8.1-.1.2 0 .4.2.6.5.4 1 .7 1.5 1 2.8 2.1 6.8 3 10.1 3.7l1.2.3c2.7 1.2 5 1.6 7.8 1.2 2.5.1 4.9-.1 7.1-1 2-.4 3.9-1 5.1-2.2.4-.4.7-.8.9-1.3.9-.9 1.4-2.1 1.4-3.3 0-.5.4-.9.9-1.1h.1c1.2.4 2.3.5 3.2.2 1 .5 2.4.2 2.8-1.2 1.1-4.4 2.7-10 2.3-14.7-.3-2.9-.7-5.4-.1-8.3.3-1.3.6-2.5.3-3.9-1.3-7.4-7.6-13.1-14.7-15.3-4.1-1.3-8.9-2.4-13.2-2-4.3.4-8.3 1.5-12.5 2.2-7.9 1.4-12.9 4.2-14.2 12.6-1.5 8.1.2 17.2 4.5 24.4zm43.2-27.4c2.4 3.1 2.7 5.7 2.2 9.1-.4.4-.7.8-.9 1.3-.3.9-.4 1.6.2 2.4.1.1.2.2.2.4.1.9.3 1.9.5 2.8-.1.5-.1 1.1-.2 1.7-.2 1.4-.1 2.9-.2 4.3 0 .8 0 1.9-.1 3.1-.2 1-.4 2.1-.6 3.1-.1.4-.3.7-.5.9-.7.1-1.5.1-2.2 0-1.3-.4-3-.8-3.5-.6l-1.2.6c.3-1.4.6-2.9 1.1-4.3.8 1.7 2.2 2.4 3.2-.2 1.4-3.6 2.8-8.9.5-12.3-.4-.7-1.4-.7-1.9 0-.8 1.5-.5 2.8-.4 4.5.1 1.3-.2 2.5-.9 3.6-.7-.6-.9-1.3-.5-2.1.1-.2.1-.4.2-.6.1-.4.3-.8.4-1.2.5-1.8.4-3.2-.6-4.8-.3-.5-1.2 0-.9.5 1.5 2.3.3 4-.2 6.4-.2.8-.2 2.3.4 2.9 1.2 1.2 2.2-.7 2.5-1.7.5-1.3.6-2.3.5-3.6-.1-.7-.2-1.5-.2-2.3.2-2.2 1.4.3 1.5.7.4 2.4-.2 5.1-.8 7.4-.2.9-.4 1.8-.8 2.6-.6 1.2-1.3-.7-1.5-1.2-.1-.4-.7-.5-.9-.1-1.1 2-1.2 4.3-1.6 6.4a5 5 0 0 0-1.1 1.6c-.5 1.1-.7 2.2-.9 3.2-1.5 1.7-3.5 2.4-5.7 2.7-3.7.3-6.8-.4-10.5-1.8-2.1-.8-4.4-1.4-6.4-2.4-2.4-1.4-4.6-3.2-6.4-5.7-3.5-4.9-5.5-10.8-5.8-16.9-.3-6.1.5-12.1 6.3-15.2 2.6-.7 5.2-1 7.7-1.6 7.1-1.5 13.9-2.3 20.9.3 1.1.4 2.3.9 3.4 1.5.9.6 1.8 1.2 2.7 1.9 1.1.8 2.1 1.7 3 2.7z"/><path class="st2" d="M119.2 393.5c.1-.1.1-.3.1-.5 1.4-3.4 2.5-5.9 1.1-9.6-.9-2.5-2.9-5-5.5-5.8-5-1.7-10.8 1.6-12.3 6.7-2.8 9.7 10.1 17.5 16.6 9.2zm-15.8-8.4c1.3-4.5 6.9-8.9 11.7-6.4 2.4 1.3 4.2 3.7 4.8 6.4.7 3.1-.6 5.2-1.7 8-2.6 3-6.7 4-10.3 1.8-3.2-1.9-5.6-5.9-4.5-9.8z"/><path class="st2" d="M77.4 386.1c-.2.2-.4.5-.2.9.2.5.4 1.1.5 1.6.6 5 2.2 9.5 4.4 13.9.4 1 .7 2 1.1 3 1.3 3.3 2.6 7.9 5.9 9.9 3.8 2.4 7.8 3.2 11.4 6.1 3.3 2.6 6.8.4 10.6.6 4.9.3 8.5-1.2 13.1-2.9 1.6-.6 3.8-1.1 5.3-2.1 2-1.4 2.4-.8 4.6-.5 6.4.9 8-10.4 8.4-14.7.4-5.4.8-10.8 1.3-16.2.4-3.6.8-8.2-1.5-11.4-1.5-2.1-2.8-3.9-3.9-6.2-.8-1.7-1.8-3.7-3.3-4.9-2.9-2.5-6.5-4-10.3-4.6-4.8-.8-9.8-.9-14.7-.8-5.1 0-10.6-.3-15.6 1-3.9 1-8.6 2.5-11.4 5.5-1.4 1.4-2.3 2.8-3.1 4.1-.5-.4-1.3-.2-1.6.5-2.1 4.9-1.6 11.6-1 17.2zm12.7 26.1c-1.2-4.4-4.8-7.6-6.3-12-1.8-5.5-3.4-11-3.3-16.8 0-5.7.3-12.3 4.8-16.4 4.5-4.1 9-5.9 15-6.2 9.6-.5 21.6-1.8 30.4 3 3 1.6 3.4 3.7 5 6.2 1.1 1.7 2.8 3.3 3.6 5.1 2 4.7.8 10.7.1 15.5-.8 5.2.6 10.2-1.1 15.4-.4 1.2-1.8 7.3-4.4 6.1-.5-.2-1.3-.5-1.9-.4-2 .6-3.3 2.6-5.1 3.5-2.3 1.2-4.6 2.4-7.1 3.1-2.7.7-5.2.3-7.9.6-2.2.3-5 1.3-7.2.5-4.1-1.4-6.8-4.6-11.2-5.6-1.3 0-2.4-.7-3.4-1.6z"/><path class="st3" d="M92.9 417.4c1.5.4 3.3.5 2.9 2.7-.1.6 0 .9.2 1.5.2.4.8.5 1 0 .3-1.3.7-2.7 2.4-1.3.4.4.8.7 1.4.9 1 .4 2.2.6 3 1.3 0 .2.1.5.4.5.1 0 .1.1.1.1.1.2.2.4.3.7 0 .8 0 1.6-.1 2.2-.1.6-.1 1.3.1 1.9.2.4.7.5.9.1.9-1.5.4-3.2.9-4.8.6-2.2 3.2-1.1 4.7-.8.8.2 1.5-.2 2.2.1-.4 1.9-.5 4.7.5 6.1.2.3.7.4.9 0 .7-1.5.3-2.9.4-4.5.1-2 3.1-3.3 5.3-3.4 0 0 .1 0 .1.1.3.1.5.5.6 1.2-.7 2.1-.4 4.7 0 7.2-.1 2.6 0 5.1.8 5.9.3.3.8.1.9-.4 0-2.4-.5-4.8-.8-7.2 0-1 .1-1.9.1-2.9 0-.4.1-1.1 0-1.8.5-2.4 2.6-4.3 5.2-4.2.4 0 .6.5.7 1.2v3.6c.1.6.9.4 1-.1.1-.8 0-1.5 0-2.3 0-.5.1-1 0-1.5.1-1.1.4-2.4 1.9-2.6 1.3 0 2 .5 2 1.7 0 .1.1.2.2.3 0 1.7-.2 3.5-.2 5.2-.1 2.3.2 4.6.3 6.9.1 3-.8 6.2.5 9.1.2.4.8.3.9-.1.5-2.9 0-5.7-.2-8.5-.3-2.9-.1-5.8 0-8.7.1-1.2.1-2.3.2-3.5.1-1 .4-2.5.8-.5v.1c0 1.4 0 2.8.1 4.2-.1 1.2-.1 2.3.1 3.5v.1c.1.6 1 .4 1-.1 0-.7 0-1.5-.1-2.2.1-2.1.5-4.7-.1-6.5v-2c0-.6-1-.6-1 0v.6c-.5-.3-.8-.1-1.1.2-.1-.1-.2-.3-.3-.5-.3-.4-.9-.3-.9.3v.2c-.9-.8-2.2-.9-3.5 0-.6.4-.9.8-1.1 1.4-.1-.1-.2-.2-.4-.2-1.6-.6-4.4.9-5.4 2-.1.1-.3.3-.4.5 0-.2-.1-.3-.4-.4h-.1c-1.8-.3-5.2.5-6.5 1.8-.1.2-.3.3-.4.5 0-.1-.1-.2-.1-.4-.1-.4-.6-.5-.8-.2-.9-.3-1.8.1-3-.3-1.1-.3-2.6-1-3.7-.4-.8.4-1.2 1-1.4 1.7-.2-.4-.4-.7-.9-.7-1.1-1.4-3.2-1.1-4.5-2.2-.7-.6-1.9-1.9-3-1.2l-.3.3c-.1-.3-.2-.6-.5-1-.7-.8-2.2-1-3.2-1.3-1-.4-1.2.6-.6.8zM88.1 444.5c.3.3.7.1.8-.2.7-1.7.8-3.6.9-5.5.2-2.4.6-4.8.4-7.2-.5-5.5-1.2-10.7.3-16.2.2-.5-.6-.8-.9-.5-.2-.8-.5-1.5-1.1-1.9-.3-.2-.7-.2-.8.2-.3 1.3.4 2.2.4 3.5 0 1.5-.3 3.1-.4 4.6-.1 3.1.2 6.3.1 9.4-.1 1.9-.3 3.8-.1 5.6.1 1.4.3 2.9 0 4.3-.3 1.6-.6 2.8.4 3.9z"/><g><path class="st0" d="M-62.7 356c10.8-1.1 21.5-.9 32.4.1 12 1.1 23.9-1.9 35.8-.2 4.5.6 8.5.7 13 .1 6.1-.9 11.7-2.6 17.9-1.5 4.7.8 8.9 2 13.6 1.3 5.8-.8 11.2-2.5 17.1-.8 2.9.9 4.2-3.7 1.3-4.6-4.6-1.3-8.9-1.1-13.6-.2-6.1 1.1-11.1 1-17.2-.3-4.7-1-9.2-.6-13.9.2-6.6 1.2-12.1 1.9-18.9.9-11.1-1.5-22.3 1.1-33.5.5-11.5-.7-22.6-1.5-34.2-.3-2.8.4-2.9 5.1.2 4.8zM-59.8 363.9l.3-.3c.9-.9.9-2.4 0-3.4-.9-.9-2.4-.9-3.4 0l-.3.3c-.9.9-.9 2.4 0 3.4 1 .9 2.5.9 3.4 0zM-51.3 359.8c-3 0-3 4.8 0 4.8s3-4.8 0-4.8zM-42.3 359.8c-4 0-4 4.8 0 4.8 3 0 3-4.8 0-4.8zM-34.3 360.1c-2 0-2 4.8 0 4.8 4 0 4-4.8 0-4.8zM-24.7 364.2c1.3 0 2.4-.7 2.4-2s-1.1-2-2.4-2h-.3c-1.3 0-2.4.7-2.4 2s1.1 2 2.4 2h.3zM-15.3 360.1c-3 0-3 4.8 0 4.8s3-4.8 0-4.8zM-6.3 359.5c-3 0-3 4.8 0 4.8s3-4.8 0-4.8zM2.2 364.2c1.3 0 2.4-.7 2.4-2s-1.1-2-2.4-2h-.3c-1.3 0-2.4.7-2.4 2s1.1 2 2.4 2h.3zM10.7 361.1c-3 0-3 4.8 0 4.8s3-4.8 0-4.8zM21.3 364.5l.3-.3c.9-.9.9-2.4 0-3.4-.9-.9-2.4-.9-3.4 0l-.3.3c-.9.9-.9 2.4 0 3.4 1 .9 2.5.9 3.4 0zM29.7 358.9c-3 0-3 4.8 0 4.8s3-4.8 0-4.8zM41.5 363.9c1.3 0 2.4-1.1 2.4-2.4 0-1-.7-1.9-1.6-2.2-.6-.4-1.4-.6-2-.4-.6.2-1.1.6-1.4 1.1-.4.6-.3 1.2-.2 1.8 0 1.5 1.5 2.1 2.8 2.1zM51.7 359.8c-3 0-3 4.8 0 4.8s3-4.8 0-4.8zM60.7 359.2c-3 0-3 4.8 0 4.8s3-4.8 0-4.8zM67.7 359.2c-3 0-3 4.8 0 4.8 4-.1 4-4.8 0-4.8zM68.4 368c-11.2.2-22.5.8-33.7 1.2-11.8.4-23.5-.3-35.3-.7-10.4-.3-20.6 2.3-31.1 1.3-10.3-1-20.7 1.5-31 .2-2.1-.3-2.7 1.9-1.9 3.4-.8 1.5-.2 3.7 1.9 3.5 10.8-1.1 21.5-.9 32.4.1 12 1.1 23.9-1.9 35.8-.2 4.5.6 8.5.7 13 .1 6.1-.9 11.7-2.6 17.9-1.5 4.7.8 8.9 2 13.6 1.3 5.8-.8 11.2-2.5 17.1-.8 2.3.7 3.5-1.9 2.6-3.5 1.7-1.2 1.2-4.4-1.3-4.4zM-62.8 381.1l-.3.3c-.9.9-.9 2.4 0 3.4.9.9 2.4.9 3.4 0l.3-.3c.9-.9.9-2.4 0-3.4-1-.9-2.5-.9-3.4 0zM-51.3 385.5c3 0 3-4.8 0-4.8s-3 4.8 0 4.8zM-42.3 385.5c3 0 3-4.8 0-4.8-4 0-4 4.8 0 4.8zM-34.3 385.8c4 0 4-4.8 0-4.8-2 0-2 4.8 0 4.8zM-25 381.2c-1.3 0-2.4.7-2.4 2s1.1 2 2.4 2h.3c1.3 0 2.4-.7 2.4-2s-1.1-2-2.4-2h-.3zM-15.3 385.8c3 0 3-4.8 0-4.8s-3 4.8 0 4.8zM-6.3 385.1c3 0 3-4.8 0-4.8s-3 4.8 0 4.8zM1.9 381.2c-1.3 0-2.4.7-2.4 2s1.1 2 2.4 2h.3c1.3 0 2.4-.7 2.4-2s-1.1-2-2.4-2h-.3zM10.7 386.7c3 0 3-4.8 0-4.8s-3 4.8 0 4.8zM18.3 381.7l-.3.3c-.9.9-.9 2.4 0 3.4.9.9 2.4.9 3.4 0l.3-.3c.9-.9.9-2.4 0-3.4-1-.9-2.5-.9-3.4 0zM29.7 379.8c-3 0-3 4.8 0 4.8s3-4.8 0-4.8zM40.2 379.8c-.6.2-1.1.6-1.4 1.1-.4.6-.3 1.2-.2 1.8.2 1.4 1.7 2.1 2.9 2.1 1.3 0 2.4-1.1 2.4-2.4 0-1-.7-1.9-1.6-2.2-.6-.4-1.4-.5-2.1-.4zM51.7 385.5c3 0 3-4.8 0-4.8s-3 4.8 0 4.8zM60.7 384.8c3 0 3-4.8 0-4.8s-3 4.8 0 4.8zM67.7 380.1c-3 0-3 4.8 0 4.8 4-.1 4-4.8 0-4.8zM-62.7 396.9c10.8-1.1 21.5-.9 32.4.1 12 1.1 23.9-1.9 35.8-.2 4.5.6 8.5.7 13 .1 6.1-.9 11.7-2.6 17.9-1.5 4.7.8 8.9 2 13.6 1.3 5.8-.8 11.2-2.5 17.1-.8 2 .6 3.2-1.3 2.9-2.8 1.3-1.3.7-4.1-1.6-4.1-11.2.2-22.5.8-33.7 1.2-11.8.4-23.5-.3-35.3-.7-10.4-.3-20.6 2.3-31.1 1.3-10.3-1-20.7 1.5-31 .2-1.9-.3-2.6 1.5-2.1 2.9-.5 1.3.2 3.2 2.1 3zM-62.8 401l-.3.3c-.9.9-.9 2.4 0 3.4.9.9 2.4.9 3.4 0l.3-.3c.9-.9.9-2.4 0-3.4-1-.9-2.5-.9-3.4 0zM-51.3 405.4c3 0 3-4.8 0-4.8s-3 4.8 0 4.8zM-42.3 405.4c3 0 3-4.8 0-4.8-4 .1-4 4.8 0 4.8zM-34.3 405.7c4 0 4-4.8 0-4.8-2 .1-2 4.8 0 4.8zM-25 401.2c-1.3 0-2.4.7-2.4 2s1.1 2 2.4 2h.3c1.3 0 2.4-.7 2.4-2s-1.1-2-2.4-2h-.3zM-15.3 405.7c3 0 3-4.8 0-4.8s-3 4.8 0 4.8zM-6.3 405.1c3 0 3-4.8 0-4.8s-3 4.8 0 4.8zM1.9 401.2c-1.3 0-2.4.7-2.4 2s1.1 2 2.4 2h.3c1.3 0 2.4-.7 2.4-2s-1.1-2-2.4-2h-.3zM10.7 406.7c3 0 3-4.8 0-4.8s-3 4.8 0 4.8zM18.3 401.7l-.3.3c-.9.9-.9 2.4 0 3.4.9.9 2.4.9 3.4 0l.3-.3c.9-.9.9-2.4 0-3.4-1-.9-2.5-.9-3.4 0zM29.7 399.7c-3 0-3 4.8 0 4.8s3-4.8 0-4.8zM40.2 399.8c-.6.2-1.1.6-1.4 1.1-.4.6-.3 1.2-.2 1.8.2 1.4 1.7 2.1 2.9 2.1 1.3 0 2.4-1.1 2.4-2.4 0-1-.7-1.9-1.6-2.2-.6-.4-1.4-.6-2.1-.4zM51.7 405.4c3 0 3-4.8 0-4.8s-3 4.8 0 4.8zM60.7 404.8c3 0 3-4.8 0-4.8s-3 4.8 0 4.8zM67.7 400c-3 0-3 4.8 0 4.8 4 0 4-4.8 0-4.8zM-62.7 417.8c10.8-1.1 21.5-.9 32.4.1 12 1.1 23.9-1.9 35.8-.2 4.5.6 8.5.7 13 .1 6.1-.9 11.7-2.6 17.9-1.5 4.7.8 8.9 2 13.6 1.3 5.8-.8 11.2-2.5 17.1-.8 2.3.7 3.5-1.9 2.6-3.5 1.6-1.2 1.1-4.4-1.4-4.3-11.2.2-22.5.8-33.7 1.2-11.8.4-23.5-.3-35.3-.7-10.4-.3-20.6 2.3-31.1 1.3-10.3-1-20.7 1.5-31 .2-2.1-.3-2.7 1.9-1.9 3.4-.8 1.3-.2 3.6 2 3.4zM-62.8 421.9l-.3.3c-.9.9-.9 2.4 0 3.4.9.9 2.4.9 3.4 0l.3-.3c.9-.9.9-2.4 0-3.4-1-.9-2.5-.9-3.4 0zM-51.3 426.3c3 0 3-4.8 0-4.8s-3 4.8 0 4.8zM-42.3 426.3c3 0 3-4.8 0-4.8-4 .1-4 4.8 0 4.8zM-34.3 426.6c4 0 4-4.8 0-4.8-2 .1-2 4.8 0 4.8zM-25 421.2c-1.3 0-2.4 1.2-2.4 2.5s1.1 2.5 2.4 2.5h.3c1.3 0 2.4-1.2 2.4-2.5s-1.1-2.5-2.4-2.5h-.3zM-15.3 426.6c3 0 3-4.8 0-4.8s-3 4.8 0 4.8zM-6.3 426c3 0 3-4.8 0-4.8s-3 4.8 0 4.8zM1.9 421.2c-1.3 0-2.4 1.2-2.4 2.5s1.1 2.5 2.4 2.5h.3c1.3 0 2.4-1.2 2.4-2.5s-1.1-2.5-2.4-2.5h-.3zM10.7 427.6c3 0 3-4.8 0-4.8s-3 4.8 0 4.8zM18.3 422.6l-.3.3c-.9.9-.9 2.4 0 3.4.9.9 2.4.9 3.4 0l.3-.3c.9-.9.9-2.4 0-3.4-1-.9-2.5-.9-3.4 0zM29.7 420.6c-3 0-3 4.8 0 4.8s3-4.8 0-4.8zM40.2 420.7c-.6.2-1.1.6-1.4 1.1-.4.6-.3 1.2-.2 1.8.2 1.4 1.7 2.1 2.9 2.1 1.3 0 2.4-1.1 2.4-2.4 0-1-.7-1.9-1.6-2.2-.6-.4-1.4-.6-2.1-.4zM51.7 426.3c3 0 3-4.8 0-4.8s-3 4.8 0 4.8zM60.7 425.7c3 0 3-4.8 0-4.8s-3 4.8 0 4.8zM67.7 420.9c-3 0-3 4.8 0 4.8 4 0 4-4.8 0-4.8zM68.4 429.8c-11.2.2-22.5.8-33.7 1.2-11.8.4-23.5-.3-35.3-.7-10.4-.3-20.6 2.3-31.1 1.3-10.3-1-20.7 1.5-31 .2-3-.4-3 4.3 0 4.8 9.8 1.3 19.6-.6 29.4-.3 5.2.2 10.2.5 15.4.1 5.8-.5 11.5-1.2 17.3-1.2 11.2 0 22.3 1.1 33.5.8 11.9-.3 23.7-1 35.6-1.2 3-.3 3-5.1-.1-5z"/></g></svg>