<svg id="Layer_1" xmlns="http://www.w3.org/2000/svg" viewBox="-152 341 305.8 112"><style>.st0{fill:url(#SVGID_1_)}.st1{opacity:.6;fill:url(#SVGID_2_)}.st2{fill:#d72050}.st3{fill:#fcdca4}.st4{fill:#75a08a}.st5{fill:#f0a732}.st6{opacity:.6;fill:url(#SVGID_3_)}.st7{fill:#0b3746}</style><linearGradient id="SVGID_1_" gradientUnits="userSpaceOnUse" x1="-41.581" y1="358.53" x2="-41.581" y2="358.53"><stop offset=".1" stop-color="#75a08a" stop-opacity="0"/><stop offset=".4" stop-color="#75a08a"/></linearGradient><linearGradient id="SVGID_2_" gradientUnits="userSpaceOnUse" x1="38.794" y1="368.372" x2="124.609" y2="399.606"><stop offset=".5" stop-color="#0b3746"/><stop offset="1" stop-color="#0b3746" stop-opacity=".2"/></linearGradient><path class="st1" d="M28.8 403.6s-1.4-14.2 10.3-27.7 33.8-26.2 48.5-25.1c3.4.2 29.9.5 42 21.3 7.4 12.7-10.8 32.4-26.1 23.4 0 0-29.1-5.7-39.9-3.3-13.2 2.9-34.8 11.4-34.8 11.4z"/><path class="st2" d="M24.3 410c-.7 1.8 4.1.3 4.5 2.9 0 0 2.1 7.4 8.8 12.3 0 0 7.7 8.6 31.4 8.6 26.3 0 35.6-16.8 36.9-27.8 1.3-11-.3-9.9-.3-9.9l-3.8.2s7 31.1-35.8 33.6c-38.8.5-33.8-27.9-33.8-27.9s-6.8 5.1-7.9 8z"/><path class="st3" d="M32.3 402.5s-5.7 27.1 33.6 27.5c36.6.3 37.8-28.3 35.6-34.2 0 0-22.3-3-37.3-2.8-15 .3-31.9 9.5-31.9 9.5z"/><path class="st4" d="M42 398.8s-5.5 28.4 21.6 30.7c27.2 2.4 30.7-27.8 24.9-34.5 0 0-13.8-1.6-25.7-.9-11.8.7-20.8 4.7-20.8 4.7z"/><circle class="st5" cx="66" cy="405.6" r="12"/><path class="st3" d="M73.3 396.5c4 0 5.7 3.1 5.7 5.1 0 2 .1 6.8-5.4 6.8s-6.4-3.4-6.4-7c0-3.5 3.1-4.9 6.1-4.9z"/><linearGradient id="SVGID_3_" gradientUnits="userSpaceOnUse" x1="173.349" y1="368.372" x2="259.164" y2="399.606" gradientTransform="matrix(-1 0 0 1 137.11 0)"><stop offset=".5" stop-color="#0b3746"/><stop offset="1" stop-color="#0b3746" stop-opacity=".2"/></linearGradient><path class="st6" d="M-26.3 403.6s1.4-14.2-10.3-27.7c-11.7-13.5-33.8-26.2-48.5-25.1-3.4.2-29.9.5-42 21.3-7.4 12.7 10.8 32.4 26.1 23.4 0 0 29.1-5.7 39.9-3.3 13.3 2.9 34.8 11.4 34.8 11.4z"/><path class="st2" d="M-21.7 410c.7 1.8-4.1.3-4.5 2.9 0 0-2.1 7.4-8.8 12.3 0 0-7.7 8.6-31.4 8.6-26.3 0-35.6-16.8-36.9-27.8-1.3-11 .3-9.9.3-9.9l3.8.2s-7 31.1 35.8 33.6c38.6.4 33.6-27.9 33.6-27.9s6.9 5.1 8.1 8z"/><path class="st3" d="M-29.7 402.5s5.7 27.1-33.6 27.5c-36.6.3-37.8-28.3-35.6-34.2 0 0 22.3-3 37.3-2.8s31.9 9.5 31.9 9.5z"/><path class="st4" d="M-39.5 398.8s5.5 28.4-21.6 30.7c-27.2 2.4-30.7-27.8-24.9-34.5 0 0 13.8-1.6 25.7-.9 11.9.7 20.8 4.7 20.8 4.7z"/><circle class="st5" cx="-63.5" cy="405.6" r="12"/><path class="st3" d="M-55.8 396.5c4 0 5.7 3.1 5.7 5.1 0 2 .1 6.8-5.4 6.8s-6.4-3.4-6.4-7c0-3.5 3-4.9 6.1-4.9z"/><path class="st7" d="M35.8 420.2c3.5 4.2 12 11.1 30.2 11.1h1.3c10.1-.4 23.5-4.8 30.6-14 4.4-5.8 6-12.7 4.6-20.6 1.5-.1 2.8-.3 4.1-.6 8.3-1.9 13.3-8.7 13.9-22.1 0 0-8.1 15.2-23.9 15.2 0 0 2.6-.7 1.9-7.4-2.2 3.3-9.4 6-19 7.4-9.6 1.4-43.2-3.1-57.7 23.3 0 0 2.9-3.6 9.1-7.5 0 3.4.5 9.9 4.9 15.2zm64.7-23.5c1.3 7.5-.1 13.9-4.2 19.3-3.8 4.9-9.5 8.4-15.5 10.6 6.6-4.7 10.9-12.3 10.9-21 0-3.2-.6-6.4-1.8-9.3 3.9.3 7.4.5 10.6.4zm-57.3 2.4c5.5-1.9 12.2-3.4 20-3.9 9-.5 17.3.2 24.5.9 1.3 3 2 6.2 2 9.5 0 12.7-10 23-22.5 23.7H66c-13.1 0-23.7-10.6-23.7-23.7 0-2.2.3-4.4.9-6.5zM33 403.7a65 65 0 0 1 7.9-3.8c-.4 1.8-.6 3.7-.6 5.6 0 9.5 5.2 17.9 12.9 22.3-8.8-2.1-13.6-6.2-15.9-9-4.6-5.5-4.5-12.8-4.3-15.1zm95.1-.5s-10.6.5-15.5 1.3c-5 .9-6.9 1.4-6.9 1.4-1.8 15.6-16.6 26.4-38.9 27.4-22.3 1.1-33.5-12.4-33.5-12.4 3 4.3 6.6 6.6 10.2 9.4.9.7 1.9 3.8 1.9 3.8s2-2.1 2.5-1.7c.7.5 1.1 4.4 1.1 4.4s2.5-3.2 3.2-2.7c1 .6 1.8 5.8 1.8 5.8s2.7-5.3 3.5-5c1 .4 1.8 7.4 1.8 7.4s2.7-7.1 3.7-6.8c1.1.3 2.7 8.7 2.7 8.7s2.5-9.4 3.8-9.2c1.4.2 4.2 10.3 4.2 10.3s.9-10.8 2-10.8c1.4 0 5.4 10.6 5.4 10.6s-1-11.5 0-11.7c1.4-.3 7.1 10.3 7.1 10.3s-2.5-10.6-1.7-10.9c.8-.4 7.6 9.3 7.6 9.3s-4-10.9-2.7-11.6c1.1-.6 8.6 8 8.6 8s-4.9-10.2-4.1-10.7c1.1-.8 9.7 6.7 9.7 6.7s-6.5-10-5.6-10.8c.9-.8 11.4 5.5 11.4 5.5s-7.8-8.4-7.1-9.8c.8-1.4 12.7 3.1 12.7 3.1s-10.2-7.3-9.7-8.1c.5-.8 15.7-1.1 15.7-1.1s-12.9-2.9-12.7-3.7c.4-.8 17.8-6.4 17.8-6.4zM24.3 383c2.5-.3 6.7-1.8 11.2-3.8-.4.6-.8 1.2-1.1 1.8-.6 1-1.1 1.9-1.5 2.9-.2.5-.4.9-.7 1.4-.2.5-.4.9-.5 1.4-.2.4-.3.9-.5 1.3-.1.4-.3.8-.4 1.3-.1.4-.2.8-.4 1.2-.1.4-.2.8-.3 1.1-.2.7-.3 1.4-.4 2-.1.6-.2 1.1-.3 1.6-.1.5-.1.9-.2 1.2-.1.6-.1 1-.1 1s.1-.3.2-1c.1-.3.2-.7.3-1.2.1-.5.3-1 .4-1.6.1-.6.4-1.2.6-1.9.1-.3.2-.7.3-1.1.1-.4.3-.7.4-1.1.1-.4.3-.8.5-1.2l.6-1.2c.2-.4.4-.9.6-1.3.2-.4.5-.9.7-1.3 1-1.8 2.2-3.6 3.7-5.4.3-.4.6-.7.9-1 6.5-3 13.2-6.8 15.9-9.3.2-.2.5-.4.7-.6.6-.2 1.3-.3 2-.5 1.3-.3 2.6-.7 4-.8 1.3-.1 2.7-.4 4-.4.7 0 1.4-.1 2-.1h1.9c1.3 0 2.6.1 3.8.1 2.5.2 4.9.5 7.2 1.1 2.2.6 4.3 1.3 6.1 2.2 1.8.9 3.4 1.9 4.8 2.9s2.4 1.9 3.3 2.8c.9.8 1.5 1.5 1.9 2 .4.5.6.8.6.8s-.2-.3-.6-.8c-.4-.5-1-1.3-1.7-2.2-.8-.9-1.8-2-3.1-3.1s-2.8-2.3-4.7-3.3c-1.8-1.1-3.9-2-6.2-2.8-2.3-.8-4.8-1.3-7.4-1.6-1.3-.1-2.7-.3-4-.3-1.4-.1-2.7.1-4.1.2l-1 .1-1 .2-2.1.3c-.7.1-1.4.1-2.1.3l-.6.1c5.5-5.1 14-12 28.4-12.4 18.1-.5 37.4 8.5 43.2 19.2-.2-.4-7.4-16.3-28.2-23.4 0 0-26.2 1.9-28.5 1 0 0-19 10.3-23.1 10.5 0 0-13.1 7.3-18.1 8.4-5 1.1-15.7 2.9-14.8 9.3.2 0 .9 5.8 7.5 5zM66 415.7c4.3 0 8-2.8 9.5-6.6 2.8-.9 4.8-3.5 4.8-6.6 0-3.8-3.1-6.9-6.9-6.9-1.2 0-2.3.3-3.3.8-1.2-.5-2.6-.8-4-.8-5.6 0-10.1 4.5-10.1 10.1-.1 5.5 4.5 10 10 10zm7.3-18.2c2.7 0 4.9 2.2 4.9 4.9s-2.2 4.9-4.9 4.9-4.9-2.2-4.9-4.9c0-2.6 2.2-4.9 4.9-4.9zM-77 389.1c-9.6-1.4-16.7-4.1-19-7.4-.7 6.6 1.9 7.4 1.9 7.4-15.8 0-23.9-15.2-23.9-15.2.6 13.4 5.6 20.1 13.9 22.1 1.3.3 2.7.5 4.1.6-1.4 7.9.2 14.9 4.6 20.6 7.1 9.2 20.5 13.6 30.6 14h1.3c18.2 0 26.7-7 30.2-11.1 4.4-5.3 4.9-11.8 4.9-15.2 6.2 3.9 9.1 7.5 9.1 7.5-14.6-26.4-48.2-21.9-57.7-23.3zm-16.8 27c-4.1-5.4-5.5-11.9-4.2-19.3 3.2.1 6.7-.1 10.6-.4-1.1 3-1.8 6.1-1.8 9.3 0 8.7 4.3 16.4 10.9 21-6-2.2-11.7-5.7-15.5-10.6zm29.1 13.2c-12.5-.6-22.5-11-22.5-23.7 0-3.3.7-6.5 2-9.5 7.3-.6 15.5-1.4 24.5-.9 1.3.1 2.5.2 3.7.3-.9.1-1.8.4-2.6.8-1.2-.5-2.6-.8-4-.8-5.6 0-10.1 4.5-10.1 10.1s4.5 10.1 10.1 10.1c4.3 0 8-2.8 9.5-6.6 2.8-.9 4.8-3.5 4.8-6.6 0-3-1.9-5.6-4.6-6.5 5 .7 9.4 1.8 13.2 3.2.6 2.1.9 4.3.9 6.5 0 13.1-10.6 23.7-23.7 23.7-.4-.1-.8-.1-1.2-.1zm8.5-31.8c2.7 0 4.9 2.2 4.9 4.9s-2.2 4.9-4.9 4.9-4.9-2.2-4.9-4.9c-.1-2.6 2.1-4.9 4.9-4.9zm21.4 21.4c-2.3 2.8-7.1 6.9-15.9 9 7.7-4.4 12.9-12.8 12.9-22.3 0-1.9-.2-3.8-.6-5.6 3 1.2 5.7 2.5 7.9 3.8.2 2.2.3 9.5-4.3 15.1zm-29.5 14.4c-22.3-1.1-37.1-11.8-38.9-27.4 0 0-1.9-.5-6.9-1.4-5-.9-15.5-1.3-15.5-1.3s17.4 5.6 17.6 6.4c.2.8-12.7 3.7-12.7 3.7s15.2.3 15.7 1.1-9.7 8.1-9.7 8.1 12-4.5 12.7-3.1c.8 1.4-7.1 9.8-7.1 9.8s10.5-6.3 11.4-5.5c.9.8-5.6 10.8-5.6 10.8s8.6-7.5 9.7-6.7c.7.5-4.1 10.7-4.1 10.7s7.5-8.7 8.6-8c1.2.7-2.7 11.6-2.7 11.6s6.9-9.7 7.6-9.3c.8.4-1.7 10.9-1.7 10.9s5.8-10.5 7.1-10.3c1 .2 0 11.7 0 11.7s4-10.6 5.4-10.6c1 0 2 10.8 2 10.8s2.8-10.1 4.2-10.3c1.3-.2 3.8 9.2 3.8 9.2s1.6-8.4 2.7-8.7c1-.3 3.7 6.8 3.7 6.8s.8-6.9 1.8-7.4c.8-.4 3.5 5 3.5 5s.9-5.2 1.8-5.8c.7-.4 3.2 2.7 3.2 2.7s.4-3.9 1.1-4.4c.5-.4 2.5 1.7 2.5 1.7s.9-3.1 1.9-3.8c3.6-2.8 7.2-5.2 10.2-9.4.3 0-11 13.5-33.3 12.4zm35.1-64.6c-5-1.1-18.1-8.4-18.1-8.4-4.1-.3-23.1-10.5-23.1-10.5-2.2.8-28.5-1-28.5-1-20.8 7.1-28 23-28.2 23.4 5.8-10.7 25.1-19.8 43.2-19.2 14.4.4 23 7.3 28.4 12.4l-.6-.1c-.7-.2-1.4-.2-2.1-.3l-2.1-.3-1-.2-1-.1c-1.3-.1-2.7-.2-4.1-.2-1.4 0-2.7.1-4 .3-2.6.4-5.1.8-7.4 1.6-2.3.8-4.4 1.7-6.2 2.8-1.8 1.1-3.4 2.2-4.7 3.3-1.3 1.1-2.3 2.2-3.1 3.1-.8.9-1.4 1.7-1.7 2.2-.4.5-.6.8-.6.8s.2-.3.6-.8c.4-.5 1.1-1.2 1.9-2 .9-.8 2-1.8 3.3-2.8 1.3-1 2.9-2 4.8-2.9 1.8-.9 3.9-1.6 6.1-2.2 2.2-.6 4.7-.9 7.2-1.1 1.3 0 2.5-.1 3.8-.1h1.9c.7 0 1.3.1 2 .1 1.3 0 2.7.3 4 .4 1.4.1 2.7.4 4 .8.7.2 1.3.3 2 .5.2.2.5.4.7.6 2.8 2.5 9.4 6.2 15.9 9.3.3.3.6.7.9 1 1.5 1.8 2.7 3.6 3.7 5.4.2.4.5.9.7 1.3.2.4.4.9.6 1.3l.6 1.2c.2.4.3.8.5 1.2.2.4.3.8.4 1.1.1.4.2.7.3 1.1.2.7.4 1.3.6 1.9.2.6.3 1.1.4 1.6.1.5.2.8.3 1.2.1.6.2 1 .2 1s0-.3-.1-1c0-.3-.1-.7-.2-1.2s-.2-1-.3-1.6c-.1-.6-.3-1.3-.4-2-.1-.4-.2-.7-.3-1.1-.1-.4-.2-.8-.4-1.2-.1-.4-.3-.8-.4-1.3-.2-.4-.3-.9-.5-1.3s-.3-.9-.5-1.4c-.2-.5-.4-.9-.7-1.4-.4-1-1-1.9-1.5-2.9-.3-.6-.7-1.2-1.1-1.8 4.5 2 8.7 3.5 11.2 3.8 6.5.8 7.3-5 7.3-5 1-6.4-9.7-8.1-14.6-9.3z"/></svg>