<svg xmlns="http://www.w3.org/2000/svg" viewBox="0 0 305.834 111.082"><path fill="#FCDCA4" d="M236.16 97.127s22.743-10.625 23.032-31.44c.28-19.937-9.93-26.802-9.93-26.802l56.57-5.417V18.683a153.13 153.13 0 0 0-1.727-18.766H1.728C1.312 2.602.968 5.31.695 8.04c-.004.042-.01.083-.013.125-.112 1.13-.204 2.266-.29 3.403a144.37 144.37 0 0 0-.2 3.05c-.042.75-.08 1.498-.11 2.25v94.214h305.75v-5.598l-69.672-8.358zm-64.83-8.252L155.453 47.75l36.625-4c-.626 1.25-8.126 4.75-8.25 22.375s13.5 26.375 13.5 26.375l-26-3.625z"/><path fill="#F0A733" d="M221.407 63.423l7.654-21.853-21.105 1.014s-10.545 6.88-10.26 20.47c.287 13.594 12.92 24.242 24.598 24.21 16.787-.05 24.162-11.14 24.596-24.21.44-13.274-1.35-13.32-1.35-13.32L221.73 64.38l-.32-.957z"/><g fill="#0C3846"><path d="M24.62 75.58c.085 0 .17-.015.253-.044.046-.018 4.535-1.61 6.695-1.458a.748.748 0 1 0 .106-1.495c-2.46-.17-7.11 1.47-7.305 1.54a.75.75 0 0 0 .25 1.457zm-.518 11.166c.054 0 .34.008.79.008 1.903 0 6.756-.116 9.663-1.224a.75.75 0 0 0 .433-.967.75.75 0 0 0-.968-.436c-3.32 1.265-9.813 1.12-9.88 1.117a.748.748 0 0 0-.768.73.75.75 0 0 0 .73.772zm8.875-20.1c-3.445 1.565-11.215.94-11.294.935-.398-.022-.775.276-.81.688a.752.752 0 0 0 .686.81c.142.013 1.69.137 3.71.137 2.67 0 6.163-.217 8.327-1.2a.75.75 0 0 0 .372-.994.748.748 0 0 0-.994-.372z"/><path d="M302.98 103.515c.675-.766 1.08-1.667 1.312-2.34.23-.68.285-1.146.285-1.146s-.18.435-.566 1.006c-.383.568-.977 1.27-1.7 1.738a4.37 4.37 0 0 1-1.095.546 4.7 4.7 0 0 1-1.14.216c-.587.063-1.12-.02-1.12.002v.007l-3.02-.38c-.057-.027-.03-.05-.105-.09a11.715 11.715 0 0 1-.917-.576c-.2-.124-.37-.284-.584-.44-.225-.153-.39-.353-.607-.54-.22-.19-.36-.425-.56-.645-.098-.112-.135-.24-.21-.36l-.105-.188-.056-.095-.014-.023-.006-.013c-.043-.117-.016-.04-.027-.07l-.025-.056c-.178-.3-.254-.58-.553-.9-.132-.145-.243-.31-.388-.425l-.433-.31a3.345 3.345 0 0 0-.904-.38c-.31-.042-.59-.113-.857-.062-.132.012-.257.02-.376.034-.11.025-.22.07-.318.104-.2.067-.37.125-.486.227l-.38.26.417-.184c.125-.072.3-.097.492-.12.097-.015.198-.037.304-.04l.34.03c.237-.003.474.116.72.194.23.118.475.256.674.447l.288.303c.09.104.135.233.207.34.15.172.216.564.32.864l.148.477c.062.178.103.376.195.533.177.313.33.66.536.925.1.133.196.273.3.406l-34.23-4.12a37.9 37.9 0 0 0 1.793-1.762c.48-.522 1.02-1.052 1.533-1.693.264-.312.533-.634.81-.963.26-.357.522-.722.79-1.093.277-.343.506-.85.756-1.28l.18-.34.007-.01-.01.02.015-.03.037-.075.074-.15.287-.615c.196-.383.405-.667.604-1.018.26-.317.498-.66.773-.968.555-.607 1.17-1.164 1.86-1.567.684-.41 1.415-.723 2.17-.853.37-.036.767-.162 1.108-.138.455-.01.725.04 1.082.097.707.13 1.37.396 1.97.677a14.4 14.4 0 0 1 2.753 1.756c.625.504.967.824.967.824s-.238-.4-.754-1.036c-.53-.615-1.3-1.524-2.488-2.353-.592-.41-1.28-.83-2.107-1.1a6.904 6.904 0 0 0-1.315-.304c-.486-.098-.936-.002-1.424-.003a7.61 7.61 0 0 0-2.85.79c-.917.44-1.737 1.066-2.484 1.763-.36.356-.676.756-1.012 1.135-.288.428-.62.885-.856 1.297l-.32.596-.182.355-.148.242c-.213.324-.33.64-.61.966-.24.324-.48.643-.716.955l-.756.904c-.478.592-.996 1.127-1.434 1.64-.918 1-1.678 1.85-2.23 2.423l-.555.596-4.197-.506c.455-.402.945-.88 1.482-1.384.557-.593 1.186-1.186 1.748-1.843.56-.66 1.156-1.28 1.63-1.94.478-.648.97-1.215 1.308-1.767l1.16-1.793-1.404 1.598c-.404.488-.977.976-1.533 1.537-.55.57-1.222 1.09-1.853 1.646-.633.553-1.328 1.036-1.943 1.52-.645.45-1.234.886-1.766 1.22a27.902 27.902 0 0 1-1.438.896l-2.508-.305a39.98 39.98 0 0 0 6.37-5.328c.734-.73 1.416-1.564 2.148-2.37.664-.864 1.39-1.7 2.016-2.61.62-.92 1.287-1.8 1.807-2.76.56-.938 1.08-1.868 1.487-2.82.217-.47.43-.93.64-1.38.194-.46.34-.927.503-1.37.31-.893.648-1.718.797-2.535.184-.8.354-1.53.506-2.18.076-.662.143-1.238.2-1.713.1-.943.155-1.483.155-1.483s-.126.53-.35 1.45l-.388 1.658c-.222.618-.468 1.314-.74 2.077-.235.768-.628 1.55-1.01 2.386-.198.415-.374.85-.604 1.273-.242.417-.488.844-.74 1.275-.258.427-.483.88-.775 1.303-.292.423-.59.85-.89 1.28-.557.885-1.264 1.69-1.91 2.526-.656.833-1.414 1.587-2.104 2.367-.76.725-1.46 1.474-2.21 2.125-1.463 1.352-2.904 2.52-4.147 3.51-.62.498-1.21.925-1.727 1.31-.53.363-.97.72-1.352.973l-.948.65-3.564-.43a49.11 49.11 0 0 0 6.36-4.113c2.687-2.065 5.646-4.78 8.188-8.247 2.53-3.458 4.574-7.718 5.424-12.274.105-.573.184-1.163.273-1.744.09-.585.107-1.11.164-1.665.097-1.183.054-2.267.087-3.393.05-1.11-.084-2.22-.127-3.312a16.625 16.625 0 0 0-.127-1.568c.128-.078.274-.163.44-.258.713-.412 1.797-.96 3.094-1.235.643-.152 1.336-.196 1.99-.07.17.01.328.06.484.117.163.045.323.1.47.19l.23.118.058.027.027.015.12.085c.17.133.43.29.53.402.223.214.49.48.69.796.2.31.367.646.46 1.027.216.75.224 1.64.087 2.552-.13.92-.396 1.853-.687 2.78-.285.92-.64 1.89-.89 2.855-.247.97-.435 1.94-.47 2.888-.03.946.068 1.855.293 2.65a6.89 6.89 0 0 0 .95 2.02c.38.535.76.954 1.1 1.26.317.334.632.522.82.67.196.143.302.218.302.218l-.23-.29c-.14-.196-.383-.45-.615-.828a7.13 7.13 0 0 1-.746-1.374c-.214-.557-.423-1.185-.49-1.894-.16-1.415.14-3.063.8-4.78.31-.866.7-1.733 1.095-2.71.38-.97.715-1.995.932-3.098.22-1.093.297-2.298-.012-3.5-.31-1.215-.95-2.284-1.926-3.106-.243-.224-.4-.304-.605-.46l-.143-.103-.1-.066-.048-.025-.098-.053-.39-.203a3.5 3.5 0 0 0-.794-.323c-.27-.09-.537-.17-.81-.2a7.117 7.117 0 0 0-2.918.156c-1.467.39-2.533.977-3.318 1.463-.123-.835-.297-1.654-.453-2.456-.17-1.013-.493-1.972-.75-2.916-.56-1.88-1.26-3.602-1.976-5.158-.37-.77-.766-1.493-1.127-2.187-.408-.67-.777-1.31-1.172-1.89-.787-1.153-1.52-2.125-2.19-2.88-.23-.27-.44-.504-.645-.722l3.297-.312c.14.107.305.237.508.413a19.355 19.355 0 0 1 1.86 1.817c.31.362.642.72.9 1.085.263.364.546.69.724 1.006.388.622.65 1.036.65 1.036l-.37-1.173c-.1-.362-.29-.75-.46-1.185-.163-.44-.397-.88-.62-1.33a19.975 19.975 0 0 0-1.084-1.868l3.05-.29c.237.286.575.65 1.026 1.046.232.208.498.423.795.626.28.22.624.395.954.6.36.154.707.364 1.105.476l.583.188.612.116c.398.102.818.076 1.215.104.4.007.79-.068 1.16-.1.367-.066.715-.176 1.04-.256.33-.08.614-.237.888-.34.55-.2.947-.488 1.244-.646l.454-.266-.494.188c-.316.106-.744.324-1.307.427-.277.055-.566.16-.887.185-.32.023-.652.07-.994.077-.346-.03-.7-.018-1.05-.083-.345-.087-.7-.115-1.03-.264l-.496-.18-.465-.243c-.313-.14-.575-.373-.85-.543-.247-.222-.505-.4-.708-.627a6.648 6.648 0 0 1-.568-.624c-.022-.026-.033-.046-.053-.07l20.833-1.97c-.916.23-1.752.626-2.406 1.15a5.84 5.84 0 0 0-1.99 3.616c-.136.964-.003 1.506-.003 1.506s.244-.498.72-1.24c.483-.736 1.245-1.717 2.356-2.36.56-.317 1.214-.524 1.94-.64.377-.017.752-.07 1.162-.016.186.02.445.02.574.048l.71.124c.26.028.43.095.63.145.194.058.392.087.59.177.194.082.4.145.595.23l.56.28c.714.42 1.33.977 1.774 1.7.44.725.76 1.577.927 2.484.17.904.22 1.848.22 2.77.007.58-.015.923.064 1.524.07.565.2 1.062.4 1.55.38.968 1.09 1.77 1.894 2.206.808.45 1.65.52 2.327.467.69-.056 1.24-.284 1.67-.46.423-.213.737-.39.93-.55.2-.145.31-.22.31-.22l-.357.117c-.228.09-.573.177-1 .277-.437.064-.968.138-1.542.042a3.266 3.266 0 0 1-1.683-.68c-.504-.4-.87-1-1.057-1.716a4.086 4.086 0 0 1-.14-1.124c-.028-.327.036-.942.07-1.33a14.234 14.234 0 0 0 0-3.197c-.14-1.105-.42-2.275-1.038-3.336a7.087 7.087 0 0 0-2.562-2.604l-.8-.4c-.27-.115-.544-.204-.815-.298a10.18 10.18 0 0 0-1.648-.368l-.72-.07a3.128 3.128 0 0 0-.384-.018l20.677-1.953v-1.99L127.814 49.268C170.047 29.572 212.134 9.42 231.364.5h72.918l-.09-.584H1.707L1.61.5h78.734C63.602 6.966 2.84 35.53-.046 36.848v2.216C.67 38.734 69.08 6.52 85.04.5h142.572c-20.31 9.43-63.785 29.768-105.708 49.328l-.046.005v.016A338682.56 338682.56 0 0 0-.045 106.76v2.18c.732-.345 29.61-13.826 67.167-31.354L236.52 97.982l.03.067s.045-.023.115-.053l69.29 8.34v-1.982l-3.39-.408c.145-.14.29-.28.418-.433zM169.91 47.302c.68.887.915 1.81.65 2.59-.378 1.106-1.724 1.91-3.786 2.266-3.48.597-5.555 3.086-6.664 4.98l-3.348-8.595 13.147-1.24zm-99.414 28.71c16.33-7.62 34.147-15.933 51.92-24.224l32.277-3.05 15.287 39.248-99.484-11.974zM172.23 88.258l-4.15-10.652c.407-.618 1.37-1.62 3.358-1.47 2.406.187 2.725 1.287 3.357 3.484.107.373.22.757.348 1.147l.084.263c.715 2.217 1.795 5.552 3.494 8.01l-6.49-.782zm16.462 1.982c-.02-.02-.037-.03-.06-.05-.1-.094-.306-.264-.53-.49-.238-.223-.506-.526-.814-.874-.293-.368-.65-.757-.98-1.245-.358-.46-.67-1.02-1.046-1.582-.342-.587-.705-1.205-1.043-1.872-.34-.67-.69-1.36-.994-2.093l-.48-1.1-.42-1.14c-.297-.756-.53-1.535-.758-2.307-.245-.768-.45-1.53-.634-2.278-.18-.748-.408-1.462-.527-2.16-.142-.695-.272-1.352-.396-1.96-.27-1.212-.392-2.242-.524-2.958l-.204-1.13-.018 1.147c.014.727-.033 1.773.033 3.026.044.626.09 1.304.138 2.022.03.722.164 1.47.25 2.256l.15 1.194.242 1.21c.158.815.326 1.646.562 2.463l.325 1.23c.133.404.266.808.395 1.205.24.81.584 1.568.9 2.313.31.744.71 1.43 1.06 2.085.388.642.77 1.235 1.177 1.76.236.337.482.633.726.913l-3.545-.425c-2.267-1.918-3.75-6.49-4.556-8.982l-.084-.262c-.12-.37-.227-.734-.328-1.087-.656-2.277-1.338-4.634-5.127-4.925-1.97-.147-3.387.53-4.32 1.372l-6.178-15.853c.447-1.13 2.205-4.88 6.02-5.533 3.806-.653 4.98-2.53 5.34-3.59.378-1.105.245-2.3-.33-3.444l11.464-1.084c-.23.347-.47.71-.676 1.13-.162.31-.342.62-.5.947-.14.334-.285.674-.428 1.013-.133.344-.31.666-.4 1.017-.105.342-.213.68-.314 1.005l-.293.93c-.065.307-.126.595-.185.858l-.373 1.756.67-1.66c.1-.246.21-.513.324-.796l.44-.852c.15-.294.312-.6.47-.904.145-.315.367-.595.547-.896l.566-.872c.196-.275.415-.532.61-.787.383-.524.82-.933 1.16-1.304.363-.33.686-.633.88-.76.04-.028.07-.05.1-.074l3.033-.286c-.02.024-.033.046-.053.07-.446.63-.98 1.403-1.544 2.32a34.72 34.72 0 0 0-1.744 3.17c-.596 1.187-1.152 2.518-1.676 3.955-.28.71-.47 1.48-.71 2.246-.204.777-.382 1.585-.562 2.402-.285 1.654-.512 3.388-.504 5.162l.012 1.336c.002.5.06.872.084 1.316.06.847.137 1.71.256 2.604.197 1.77.53 3.495.92 5.2.434 1.695.926 3.356 1.592 4.902.62 1.56 1.443 2.982 2.256 4.298.87 1.282 1.77 2.447 2.707 3.42a23.54 23.54 0 0 0 2.72 2.47c.212.17.42.326.616.478l-4.89-.584zm47.762 5.644c-.066.032-.12.058-.176.083l-38.064-4.582-.377-.23c-.324-.216-.836-.482-1.422-.908a24.798 24.798 0 0 1-2.08-1.573 23.184 23.184 0 0 1-2.414-2.33c-.836-.896-1.627-1.97-2.396-3.144-.713-1.21-1.44-2.51-1.982-3.957-.595-1.423-1.048-2.966-1.44-4.552-.355-1.593-.664-3.25-.836-4.9a34.91 34.91 0 0 1-.232-2.52c-.084-.876-.084-1.63-.094-2.45-.023-1.61.174-3.195.42-4.72.164-.754.318-1.5.502-2.22.22-.715.39-1.426.63-2.098.456-1.352.95-2.612 1.485-3.742.512-1.144 1.064-2.15 1.56-3.04.495-.892.968-1.647 1.366-2.257.403-.61.735-1.074.964-1.387.04-.05.07-.092.102-.134l12.18-1.15c-3.647 3.514-8.964 10.645-7.44 21.44 2.258 15.978 15.23 22.967 26.963 22.966.568 0 1.137-.017 1.695-.05 7.63-.44 14.164-4.1 18.396-10.298 5.206-7.62 6.138-17.83 2.642-28.768l4.473-3.61-6.776 4.083-.178.057c.008.016.01.028.016.042L222.14 63.068l3.866-12.44s-1.826-.933-5.396-.656c-2.412.188-11.764 1.463-11.98 13.48-.217 12.013 11.2 13.823 14.55 14.032 3.35.21 10.94-3.52 12.782-10.48 1.5-5.667-.668-8.667-.668-8.667l8.988-7.258c2.908 9.814 2.002 18.88-2.604 25.626-3.78 5.537-9.625 8.804-16.457 9.2-11.037.64-23.863-5.58-26.01-20.747-2.02-14.29 8.94-21.21 9.41-21.497l-.016-.013 40.312-3.81c.07.067.148.144.24.235.338.345.844.86 1.42 1.59.59.713 1.246 1.637 1.94 2.733.35.546.667 1.162 1.04 1.786.322.653.68 1.333 1.014 2.062.64 1.468 1.267 3.09 1.755 4.864.492 1.77.924 3.67 1.176 5.668.115 1 .285 2.01.305 3.052.033 1.037.16 2.083.102 3.146-.033 1.05-.012 2.16-.09 3.175-.053.54-.072 1.12-.152 1.63l-.232 1.526c-.758 4.162-2.604 8.075-4.94 11.31-2.32 3.26-5.077 5.878-7.608 7.883a49.15 49.15 0 0 1-6.486 4.372 44.48 44.48 0 0 1-1.945 1.014z"/><path d="M32.31 59.313c-3.543 1.61-11.09 3.1-11.166 3.112a.75.75 0 1 0 .288 1.473c.316-.062 7.795-1.537 11.5-3.222a.75.75 0 0 0 .372-.993.754.754 0 0 0-.993-.37zm-9.27 20.68c.018.4.35.507.747.507h.036c.292 0 7.172-.16 9.446-1.208.373-.174.54-.426.364-.803-.174-.377-.62-.568-.995-.396-1.67.77-6.98 1.123-8.89 1.214-.415.02-.732.27-.712.682zm147.912-18.515s-.223-.762-.998-1.62c-.39-.43-.91-.89-1.69-1.215a3.28 3.28 0 0 0-1.423-.22 2.584 2.584 0 0 0-1.517.648 2.6 2.6 0 0 0-.85 1.52c-.09.52-.04.98.05 1.375a5.05 5.05 0 0 0 .876 1.845c.675.928 1.374 1.314 1.374 1.314s-.062-.79-.178-1.798c-.04-.505-.105-1.076-.064-1.586.02-.25.07-.478.136-.626a.645.645 0 0 1 .182-.246c.203-.17.08-.072.168-.135.043-.038.096-.06.16-.093.135-.06.336-.087.572-.067.48.02 1.025.188 1.504.332 1.02.345 1.7.573 1.7.573zm93.645 30.092c.002-.005.006-.015.01-.02l-.004.005-.006.015zM29.204 99.41c.044-.006 4.447-.49 6.182-.333.404.03.777-.27.815-.68a.748.748 0 0 0-.677-.814c-1.885-.17-6.296.315-6.484.335a.75.75 0 0 0 .08 1.495c.027 0 .056 0 .085-.004zm7.276 4.848c-2.694.506-8.62 1.086-9.35 1.01a.747.747 0 0 0-.89.49.753.753 0 0 0 .474.95c.108.035.327.05.63.05 2 0 7.66-.697 9.413-1.024a.752.752 0 1 0-.276-1.477zM178.038 59.88c-.184-.02-.385-.054-.6-.066-.217.01-.447.02-.69.033-.478.07-1.01.227-1.517.515-.523.27-.963.706-1.383 1.173-.37.495-.72 1.04-.953 1.62-.254.58-.41 1.182-.523 1.798-.11.65-.106 1.238-.144 1.704.008.43-.105.844-.23 1.246a5.45 5.45 0 0 1-.55 1.14c-.204.37-.462.69-.7.997a14.94 14.94 0 0 1-1.336 1.433c-.355.343-.58.535-.58.535s.298-.006.8-.124a6.932 6.932 0 0 0 1.98-.83c.395-.23.785-.544 1.18-.917.38-.382.746-.846 1.047-1.388.275-.554.53-1.17.623-1.833.103-.618.137-1.143.22-1.586.083-.474.18-.96.315-1.4.113-.457.307-.852.504-1.227.213-.352.435-.694.72-.94.263-.28.583-.46.89-.646.324-.15.646-.277.957-.356.305-.085.592-.124.832-.175.48-.05.78-.098.78-.098s-.248-.144-.727-.358c-.244-.074-.547-.2-.916-.25zM22.255 37.86a.748.748 0 0 0 1.06 0c.03-.03 2.984-2.947 6.137-2.947a.75.75 0 0 0 0-1.5c-3.768 0-7.06 3.248-7.197 3.386a.75.75 0 0 0 0 1.06zm261.86 49.644s-.167.42-.427 1.13c-.27.702-.617 1.708-1.15 2.772-.54 1.048-1.273 2.18-2.38 2.72-.552.267-1.18.403-1.86.422-.674.02-1.44-.128-2.105-.312-.68-.19-1.318-.56-2.062-.97-.734-.404-1.594-.847-2.484-1.086-.45-.12-.89-.188-1.334-.224a9.137 9.137 0 0 0-1.216-.013c-.926.062-1.73.33-2.363.798a4.087 4.087 0 0 0-1.276 1.548c-.26.516-.365.997-.438 1.38-.124.782-.058 1.22-.058 1.22s.147-.42.52-1.054c.353-.623.993-1.495 1.954-1.905.467-.19 1.05-.28 1.596-.213.373.035.752.074 1.035.144.314.064.647.17.967.277.64.234 1.244.604 1.94 1.066.69.464 1.54.965 2.493 1.287.96.33 1.908.44 2.916.4.997-.033 2.02-.32 2.862-.85a5.948 5.948 0 0 0 1.947-1.95c.448-.724.72-1.453.882-2.13.182-.67.23-1.3.266-1.842.02-.548.008-1.02-.033-1.408a7.854 7.854 0 0 0-.123-.893l-.068-.313zM279.93 51.06c1.146-.39 1.876-1.16 2.394-1.834.52-.696.88-1.366 1.162-1.99.574-1.235.89-2.265 1.264-2.855.186-.29.38-.464.564-.533.182-.076.31-.053.31-.062-.005.013-.09-.08-.317-.137-.23-.06-.635-.004-1.016.238-.77.473-1.52 1.407-2.31 2.438-.404.508-.81 1.06-1.275 1.52-.45.48-.973.83-1.432.905-.443.067-1.1-.04-1.56-.31-.487-.28-.993-.85-1.68-1.5-.667-.66-1.56-1.347-2.56-1.747-.5-.216-1-.344-1.52-.446-.267-.033-.532-.084-.796-.116-.252-.02-1.375.043-1.375.043-.247.023-.49.05-.727.09-.475.12-.934.233-1.348.43a6.398 6.398 0 0 0-2.037 1.42 7.712 7.712 0 0 0-1.777 2.966c-.247.782-.274 1.25-.274 1.25s.31-.354.854-.9c.548-.536 1.343-1.29 2.36-1.88a5.892 5.892 0 0 1 1.658-.696c.596-.176 1.2-.19 1.89-.126.196.022.438.03.602.065.154.036.307.074.46.1.312.087.653.183.944.332.61.275 1.14.69 1.744 1.244.602.556 1.326 1.3 2.393 1.825 1.092.496 2.252.624 3.41.266zm10.44 8.55s-.56-1.124-2.006-2.308a8.78 8.78 0 0 0-1.242-.864 9.262 9.262 0 0 0-1.557-.733c-.57-.194-1.188-.37-1.83-.438a5.68 5.68 0 0 0-1.006-.045c-.354.012-.727.038-.986.1l-.432.078-.107.02-.053.01-.014.004-.07.014-.007.002-.03.01-.24.08c-.316.12-.64.184-.94.35-.607.28-1.17.653-1.63 1.095-.24.21-.45.44-.622.688-.197.232-.34.488-.482.732-.273.49-.434.994-.56 1.444-.112.46-.19.877-.208 1.25-.022.375-.018.7 0 .963.025.526.107.817.107.817s.062-.294.2-.784c.07-.244.17-.536.304-.854.137-.32.29-.674.492-1.032a6.23 6.23 0 0 1 .772-1.04 4.41 4.41 0 0 1 1.043-.878c.38-.26.83-.432 1.29-.568.218-.093.48-.098.718-.152l.18-.036.023-.01.005-.012.014.004.108.012.436-.04c.317-.05.53-.012.765-.018.22-.015.475.013.727.023.498.022 1.002.07 1.484.178.485.078.96.2 1.407.338.453.12.877.285 1.273.428a28.33 28.33 0 0 1 2.67 1.172zm-8.94-2.11h.017-.016zm1.883 7.124c.125-.248.125-.18.182-.275.268-.277.607-.39 1.05-.35.437.027.882.214 1.237.43.35.225.643.453.834.628l.31.275s.01-.143 0-.425a2.96 2.96 0 0 0-.347-1.18 3.03 3.03 0 0 0-1.53-1.406c-.77-.375-2.11-.32-2.997.558-.21.198-.494.572-.555.697l-.083.132-.022.033-.06.113-.047.104c-.066.142-.12.29-.166.445-.178.616-.16 1.265-.05 1.828.23 1.138.71 2.075 1.175 2.98.47.894.95 1.774 1.22 2.58.118.327.177.796.226 1.27.046.47.06.94.03 1.404-.045.93-.273 1.81-.664 2.49a3.042 3.042 0 0 1-1.727 1.405c-.186.062-.383.11-.576.15l-.273.048-.354.032c-.36.026-.756.028-1.1-.036a3.69 3.69 0 0 1-1.807-.934c-.517-.454-.9-1.02-1.224-1.542a12.652 12.652 0 0 1-.738-1.453c-.368-.848-.534-1.375-.534-1.375s-.104.544-.04 1.515c.036.482.11 1.074.304 1.742.188.67.498 1.42 1.05 2.165.556.725 1.41 1.45 2.515 1.756a5.8 5.8 0 0 0 1.695.225l.37-.012.454-.046c.29-.04.578-.094.873-.174 1.178-.29 2.375-1.108 3.088-2.222.73-1.106 1.018-2.363 1.12-3.556.054-.603.048-1.196.007-1.787a7.243 7.243 0 0 0-.346-1.84c-.406-1.19-.998-2.1-1.48-2.962-.483-.848-.955-1.636-1.125-2.297-.088-.325-.137-.596-.096-.812.012-.048-.03-.098-.025-.143l.134-.017.088-.164zm-.36.13v-.004c0-.002.005.004.007.007l-.006-.003zm13.177 1.826a6.912 6.912 0 0 0-1.215-.728c-.3-.13-.46-.185-.46-.185s.464.524 1.064 1.48c.29.48.603 1.075.83 1.76.21.683.324 1.445.172 2.21-.06.365-.19.818-.363 1.078a3.44 3.44 0 0 1-.784.854c-.71.58-1.754 1.137-2.842 1.873-1.088.728-2.248 1.706-3.088 3.008-.846 1.3-1.3 2.825-1.453 4.29-.072.74-.092 1.447-.053 2.19.02.34.017.638.062 1.01.047.37.084.746.146 1.11.248 1.42.793 2.883 1.764 4.06.977 1.183 2.33 1.897 3.523 2.275.605.192 1.188.317 1.73.424.544.09.854.16 1.216.326.71.31 1.295.816 1.713 1.345.42.534.678 1.095.79 1.59.112.5.087.935.036 1.233-.054.3-.114.465-.114.465l.05.035s.144-.1.368-.355c.213-.26.494-.71.61-1.377.118-.66.05-1.516-.33-2.39a5.36 5.36 0 0 0-2.108-2.41c-.508-.32-1.197-.557-1.7-.687-.5-.146-.997-.288-1.462-.48-.953-.342-1.78-.853-2.393-1.6-.614-.74-1.04-1.746-1.235-2.893l-.115-.835c-.04-.28-.038-.644-.058-.963-.037-.573.012-1.197.082-1.77.154-1.162.523-2.23 1.145-3.104.617-.878 1.467-1.577 2.424-2.246.953-.674 2.027-1.294 3.012-2.246.482-.48.943-1.04 1.225-1.757.278-.717.337-1.3.35-1.923a5.563 5.563 0 0 0-.956-3.03 6.71 6.71 0 0 0-1.585-1.638zm9.4-28.248c-.215-.034-.48-.08-.785-.084a4.884 4.884 0 0 0-1.023.077 5.262 5.262 0 0 0-2.348 1.025 4.787 4.787 0 0 0-1.01 1.077c-.283.434-.506.862-.643 1.405-.084.29-.09.477-.11.684l-.063.557c-.074.324-.16.664-.316.978-.292.643-.722 1.2-1.122 1.65-.396.46-.775.813-1.047 1.05-.27.246-.437.374-.437.374s.807-.25 1.89-.953a7.196 7.196 0 0 0 1.67-1.52c.278-.33.51-.732.696-1.18.044-.11.073-.23.112-.35l.054-.18c.004-.01.025-.107.016-.04l.025-.073c.06-.196.123-.42.193-.513.11-.25.322-.54.527-.756.217-.226.475-.397.725-.558.262-.145.523-.266.79-.352.263-.087.52-.15.763-.188.238-.038.463-.063.66-.062.2-.017.37-.01.516 0 .28.025.695.036.695.036l.01-1.938c0 .004 0-.087-.434-.164z"/><path d="M264.597 91.57l-.004.007c.01-.02-.014.03.004-.006zM30.564 53.692a.75.75 0 0 0-.557-1.394c-3.226 1.29-9.3 2.448-9.36 2.46a.75.75 0 1 0 .277 1.473c.257-.045 6.28-1.19 9.64-2.537zm273.833 5.565a8.977 8.977 0 0 0-1.7.392c-.31.136-.704.262-.938.435l-.383.254-.215.145-.145.108c-.426.278-1 .42-1.54.495-.55.073-1.08.08-1.536.062-.91-.035-1.52-.15-1.52-.15s.57.235 1.48.46c.453.11.992.217 1.594.26.6.035 1.27.03 1.96-.228l.253-.115c.022-.008.133-.07.08-.032l.105-.044.426-.17c.292-.13.5-.097.726-.16.242-.026.504-.037.732-.053.24.01.465.02.674.026.422.038.766.09 1.004.137.242.05.498.08.498.08v-1.98s-.05-.012-.34-.01c-.3.004-.72.027-1.217.084zm-7.127 21.646c.043-.118.13-.293.256-.42a1.91 1.91 0 0 1 .922-.585c.7-.208 1.412-.008 1.854.23.228.112.396.23.514.308l.184.122c-.018.016-.12-.285-.496-.688a3.085 3.085 0 0 0-.8-.643 2.907 2.907 0 0 0-1.374-.35 3.046 3.046 0 0 0-1.693.54c-.28.19-.52.436-.744.782-.06.102-.113.21-.162.322l-.08.212c-.07.273-.102.42-.103.658-.01.44.13.912.34 1.27.2.36.45.663.705.903.515.5 1.042.882 1.58 1.217.544.328 1.085.614 1.645.86.26.123.563.23.783.326.205.075.383.18.555.286.688.414 1.133 1.148 1.395 1.91.248.762.355 1.5.398 2.018.05.522.057.84.057.84s.187-.258.406-.766c.205-.508.475-1.27.48-2.286a4.792 4.792 0 0 0-.285-1.67c-.21-.592-.6-1.187-1.12-1.686a5.095 5.095 0 0 0-.876-.63c-.29-.17-.515-.304-.78-.44-.498-.258-1.006-.52-1.51-.785-.498-.253-.988-.5-1.367-.767-.385-.282-.615-.49-.672-.702-.02-.037-.03-.173-.042-.163.01-.058.02-.156.03-.182.003-.01.005-.026.003-.043zM18.414 49.913a.748.748 0 0 0 .957.457c.057-.02 5.59-1.957 8.92-1.957a.75.75 0 0 0 0-1.5c-3.59 0-9.18 1.96-9.418 2.043a.746.746 0 0 0-.456.956zM32.03 27.125l-6.835 2.5a.748.748 0 0 0 .258 1.454.756.756 0 0 0 .258-.046l6.835-2.5a.75.75 0 1 0-.513-1.408zM20.076 43.4a.754.754 0 0 0 .712.513.733.733 0 0 0 .237-.04c1.902-.633 7.253-2.228 9.163-1.967a.753.753 0 0 0 .843-.646.75.75 0 0 0-.642-.843c-2.598-.347-9.103 1.788-9.837 2.032a.75.75 0 0 0-.473.95zm6.132-33.834a.75.75 0 0 0 .648.84c.155.02 2.807.356 5.138.356.93 0 1.812-.054 2.46-.203a.752.752 0 0 0 .563-.9.75.75 0 0 0-.9-.56c-1.668.384-5.67 0-7.07-.18a.752.752 0 0 0-.84.645zm-.965 5.694a.748.748 0 0 0 .474.946c.092.03 1.652.54 4.01.54 1 0 2.144-.093 3.38-.35a.75.75 0 0 0 .58-.89.75.75 0 0 0-.886-.58c-3.73.778-6.58-.135-6.61-.145a.755.755 0 0 0-.946.48zm7.84-9.446a.746.746 0 0 0 1.022-.28.748.748 0 0 0-.28-1.023c-1.29-.734-4.452-.626-5.073-.595a.747.747 0 0 0-.713.784c.02.413.37.725.782.713 1.362-.064 3.586.017 4.26.402z"/></g></svg>