<svg xmlns="http://www.w3.org/2000/svg" xmlns:xlink="http://www.w3.org/1999/xlink" width="305.834" height="112" viewBox="0 0 305.834 112"><defs><path id="a" d="M10.396 12.712h285.042v86.576H10.396z"/></defs><clipPath id="b"><use xlink:href="#a" overflow="visible"/></clipPath><path clip-path="url(#b)" fill="#D72251" d="M125.188 47.897s-.75-9.667-2.25-12.085c-1.5-2.415-7.333-11.082-7.333-11.082l-5.25-.667s-15.83-9.14-27.762-9.733c-19.322-.96-28.268 4.643-28.268 4.643l-9.97 3.59s-6.334 6.668-6.917 16.085c-.748 12.07 3.552 19.287 4.823 21.415 3.334 5.584 11.006 20.167 36.59 21.917 38.692 2.646 45.106-24.208 45.106-24.208s3.647.333 4.063-4.25c.226-2.473-2.832-5.625-2.832-5.625"/><path clip-path="url(#b)" fill="#FCDCA4" d="M49.02 21.772s-9.25 7.75-8.374 20.625 9.375 33.125 38 35.375 43.87-14.71 43-29c-.31-5.11-.055-7.378-1.375-10.875-2.394-6.344-7.3-12.253-11.25-14.75-6.124-3.875-20.616-10.252-29.874-9.75-13.875.75-30.125 8.375-30.125 8.375"/><path clip-path="url(#b)" fill="#EE6372" d="M82.593 14.33c-.215.406-.462.964-.653 1.536-.407 1.146-.473 2.333-.473 2.333s.32-1.146.928-2.126a9.84 9.84 0 0 1 .903-1.28 6.14 6.14 0 0 1 .462-.508l-.772-.636s-.186.275-.395.68m4.762 5.365a4.76 4.76 0 0 0 .838-.623c.286-.256.57-.562.81-.902.497-.67.833-1.45 1.02-2.053.195-.593.246-1.05.246-1.05l-1-.057s.02.345-.067.913c-.082.558-.27 1.305-.627 1.983a4.97 4.97 0 0 1-.613.948 4.51 4.51 0 0 1-.7.712c-.22.197-.43.332-.577.423l-.23.148.25-.11c.163-.068.393-.17.65-.333m10.78 2.194c.475-.153.93-.35 1.363-.515.435-.16.827-.345 1.165-.495.677-.303 1.107-.55 1.107-.55l-.41-.913s-.476.148-1.16.44c-.34.145-.74.307-1.154.517-.415.206-.868.405-1.3.65-.878.46-1.742.947-2.38 1.337-.636.393-1.05.678-1.05.678s.493-.11 1.216-.31a43.88 43.88 0 0 0 2.603-.84m13.29 11.595c-.726.006-1.472.034-2.225.078-.753.048-1.514.12-2.28.29-.38.09-.766.196-1.15.397-.343.152-.68.48-.88.706a11.78 11.78 0 0 0-2.622-.866 9.094 9.094 0 0 0-2.166-.183c-.295.012-.538.04-.707.07-.168.023-.265.038-.265.038l.268.005c.17-.004.41.01.7.044a8.586 8.586 0 0 1 2.034.508c.713.263 1.383.62 1.864.913l.218.138c-.27.25-.546.494-.807.726-.475.4-.928.777-1.36 1.104-.43.33-.833.62-1.203.858-.367.242-.7.43-.983.574-.283.14-.52.23-.686.272l-.26.074.27.02c.18.02.443-.015.772-.072.665-.112 1.57-.464 2.55-1.035a13.81 13.81 0 0 0 1.524-1.02c.527-.393 1.03-.828 1.567-1.354.28-.297.394-.41.664-.538.253-.126.572-.21.898-.277.66-.128 1.376-.18 2.1-.207.722-.03 1.455-.018 2.183-.032.78-.024 1.32-.017 1.954.162 1.248.327 2.392.922 3.365 1.393.973.49 1.763.948 2.313 1.27l.86.513.554-.83s-1.206-.897-3.182-1.985c-.993-.542-2.172-1.135-3.602-1.537-.704-.218-1.61-.24-2.28-.213m-10.792-8.45c-.31.15-.625.297-.91.46-.3.172-.557.353-.785.535a4.244 4.244 0 0 0-.92 1.046c-.175.287-.228.47-.228.47s.417-.662 1.367-1.203a5.46 5.46 0 0 1 .78-.368l.95-.328c.663-.23 1.37-.53 1.947-.464.304.028.586.127.906.275.302.145.598.315.883.5.57.36 1.103.727 1.55 1.05.25.186.47.346.67.49-.047.012-.1.015-.146.028-.29.085-.566.158-.805.276l-.65.292c-.178.116-.333.22-.46.303-.254.164-.388.27-.388.27s.173-.038.456-.125c.28-.095.69-.19 1.177-.277.237-.065.51-.062.788-.098.276-.046.574-.035.877-.046.302-.024.617.02.934.026.317.002.638.072.96.104 1.278.216 2.52.64 3.42 1.02.454.188.827.355 1.083.485l.483.226.337-.94-.1-.057c-.05-.034-.09-.066-.242-.148a17.86 17.86 0 0 0-1.135-.562c-.487-.195-1.06-.42-1.695-.593-.63-.192-1.333-.297-2.032-.375-.354-.014-.704-.063-1.053-.044-.138.003-.272.01-.407.015a21.73 21.73 0 0 0-1.456-1.13c-.468-.325-1.01-.71-1.643-1.067a8.748 8.748 0 0 0-1.032-.502c-.354-.14-.795-.277-1.242-.284-.457-.007-.884.13-1.24.278-.36.15-.684.312-1 .464m14.04 13.515c-.752-.008-1.238.103-1.238.103s.497-.048 1.228.052c.73.093 1.684.332 2.616.636a33.776 33.776 0 0 1 3.636 1.443l.37-.93s-1.914-.63-3.882-.996c-.982-.188-1.98-.307-2.73-.308m-2.666 5.774c-.414-.015-.792.09-1.14.14-.342.08-.642.202-.907.292-.27.08-.472.237-.653.32-.354.19-.54.315-.54.315s.234-.014.618-.073c.195-.02.424-.074.692-.08.268-.01.563-.046.88-.053.32.036.662-.02 1.01.058l.537.073.54.142c.73.212 1.435.618 2.08 1.14.327.26.637.55.95.85.323.305.61.603 1.075.918.157.09.378.188.5.216l.152.028.037.007.02.007.01.007.13.02h.006l.098-.025a3.01 3.01 0 0 0 .703-.177 5.905 5.905 0 0 0 1.073-.498c.61-.36 1.074-.7 1.395-.945.156-.13.28-.23.36-.3l.175-.154-.718-.695s-.01.008-.03.02c-.016.01-.002-.007-.048.025l-.362.238c-.312.208-.77.5-1.33.78-.28.138-.583.282-.893.378-.3.11-.66.123-.648.018-.226-.152-.555-.466-.87-.756-.33-.3-.68-.61-1.06-.894a7.07 7.07 0 0 0-1.375-.812c-.042-.15-.098-.352-.18-.59-.198-.563-.56-1.34-1.214-1.852a2.658 2.658 0 0 0-.503-.333c-.167-.105-.36-.148-.53-.22-.174-.06-.352-.078-.514-.114-.162-.037-.322-.02-.463-.035-.286-.026-.522.022-.686.03-.163.017-.256.025-.256.025l.258.02c.163.017.398.008.666.08.134.036.285.045.43.106.144.06.302.102.45.18.14.092.302.153.43.27.133.11.268.216.374.353.465.51.654 1.194.744 1.7l.003.023c-.058-.015-.116-.038-.175-.05-.45-.09-.885-.142-1.3-.122m8.51 11.07a.242.242 0 0 1 .154-.123l-.372.045c-.326.038-.8.078-1.362.068-.56.004-1.217-.032-1.85-.213-.315-.093-.623-.21-.89-.386-.198-.118-.227-.173-.355-.287a2.58 2.58 0 0 1-.3-.377c-.388-.557-.54-1.34-.988-2.08-.217-.37-.58-.712-.982-.855-.236-.1-.333-.104-.526-.148a4.772 4.772 0 0 0-.503-.067 3.823 3.823 0 0 0-1.495.182c-.344.105-.514.222-.514.222s.828-.136 1.91.168c.135.04.273.085.402.14.112.053.34.13.405.19.225.13.387.33.525.61.082.17.15.366.22.573-.204.07-.477.167-.825.242a11.634 11.634 0 0 1-4.323.244c-.245-.025-.476-.08-.706-.095-.052-.004-.1-.014-.15-.02a3.66 3.66 0 0 0 .036-.26c.05-.444.027-1.06-.2-1.608a2.778 2.778 0 0 0-.948-1.224c-.16-.133-.314-.207-.415-.267-.104-.06-.163-.09-.163-.09l.137.125c.084.082.213.186.333.346.26.295.51.758.573 1.244.077.483-.023.965-.144 1.3-.045.13-.088.225-.127.305-.218-.03-.417-.058-.57-.07-.247-.035-.4-.034-.4-.034s.1.11.3.263c.196.16.476.4.865.586.375.22.852.39 1.373.544.53.126 1.104.227 1.688.264 1.168.07 2.348-.114 3.18-.412.345-.12.617-.245.84-.354.078.196.168.395.277.592.12.198.253.392.415.567.147.166.402.392.54.474.374.273.796.435 1.192.546.194.055.385.097.572.13-.07.264-.195.572-.423.837-.252.308-.626.526-.933.627-.152.063-.287.084-.38.106-.096.02-.15.033-.15.033l.15.01c.1.004.24.023.41.004a2.44 2.44 0 0 0 1.23-.402c.418-.27.736-.68.916-1.015.02-.034.032-.064.05-.098.255.016.502.023.73.018a11.51 11.51 0 0 0 1.5-.153c.183-.04.326-.07.423-.09a.914.914 0 0 0 .36-.17l.034-.012-.714-.7c0-.003-.013.002-.036.008m1.077-4.322a6.457 6.457 0 0 0-.667-.25 8.49 8.49 0 0 0-2.046-.35 10.303 10.303 0 0 0-2.023.103c-.54.08-.895.16-.895.16s.364-.02.905-.004a9.91 9.91 0 0 1 1.947.233c.69.15 1.344.405 1.797.637.225.12.403.227.52.307.118.083.15.116.16.123l.566-.825c.01.008-.107-.06-.263-.134m-7.2 11.934c-.8-.237-1.743-.55-2.578-1.043a3.408 3.408 0 0 1-.537-.414c-.152-.165-.22-.233-.368-.533-.193-.39-.318-.93-.43-1.487-.12-.564-.258-1.236-.674-1.81-.4-.576-.98-.95-1.524-1.167a7.902 7.902 0 0 0-1.575-.47c-.505-.098-.987-.148-1.43-.17a11.256 11.256 0 0 0-2.125.063c-.508.054-.792.128-.792.128s1.168.107 2.83.452c.414.09.852.222 1.308.355.45.145.913.325 1.366.547.436.22.814.503 1.053.87.25.362.35.855.447 1.413.063.35.127.717.23 1.094-.06.017-.115.03-.185.047a7.2 7.2 0 0 1-1.826.158 7.155 7.155 0 0 1-1.847-.314c-.252-.07-.453-.152-.594-.21l-.224-.088.204.127c.13.08.316.2.553.315a7.49 7.49 0 0 0 1.84.665 7.937 7.937 0 0 0 2.396.16c.113.225.306.532.507.717.248.246.51.42.765.586 1.038.593 2.033.906 2.89 1.14 1.72.44 2.896.55 2.896.55l.153-.99-.755-.168c-.48-.11-1.17-.273-1.975-.52m-2.46 4.32a4.343 4.343 0 0 0-1.406-.55c-.53-.122-1.12-.13-1.662-.095a8.72 8.72 0 0 1-1.515.004c-.467-.053-.88-.196-1.126-.47-.257-.265-.367-.596-.45-.81l-.122-.346.05.365c.046.23.08.577.317.95.236.385.73.647 1.236.784.504.144 1.084.192 1.606.224.525.032 1.004.124 1.442.257.435.135.803.333 1.094.522.288.197.496.395.628.536.14.158.165.204.173.216l.855-.52c.01.014-.102-.173-.273-.364a3.543 3.543 0 0 0-.845-.704m-6.654 3.127a6.954 6.954 0 0 1-.823-.59 4.68 4.68 0 0 1-.608-.648c-.146-.217-.274-.405-.326-.556l-.103-.23.028.252c.007.167.07.39.152.67.106.264.264.562.47.863.21.294.47.583.756.84a7.003 7.003 0 0 0 1.734 1.184c.51.246.903.334.903.334l.31-.95-.784-.336c-.474-.207-1.112-.477-1.707-.83m-5.043 1.323l.017-.2.04-.188c.018-.063.046-.227.06-.343.008-.113.018-.228.012-.343a2.547 2.547 0 0 0-.387-1.312c-.497-.81-1.35-1.208-2.065-1.354-.38-.083-.68-.11-1.015-.143a12.67 12.67 0 0 0-.894-.034c-.27 0-.517-.003-.67-.037-.145-.026-.232-.158-.277-.308-.086-.29-.118-.48-.118-.48l-.027.13c-.018.085-.046.21-.047.38-.01.152.026.443.292.62.244.162.5.206.766.286l.833.226c.273.087.62.17.887.285.575.202 1.08.562 1.318 1.018.12.227.174.483.172.737.003.063-.007.126-.01.188-.015.058-.007.07-.038.173l-.033.124-.042.194c-.01.103-.027.213-.03.308-.03.756.036 1.377.088 1.93l.168 1.297c.012.073.02.14.03.198l.01.076c.006.02.004.067.012-.01.01-.087.114-.18.11-.155a1.15 1.15 0 0 0-.007.033l.842.62s.06-.01.068-.03c.006-.017.217-.176.23-.35.002-.065.237-.147.237-.243v-.22c0-.316-.252-.768-.27-1.31-.017-.526-.29-1.168-.262-1.765M90.193 73.52c0-.002.002-.003.003-.004.204-.354.37-.844.4-1.332a4.266 4.266 0 0 0-.098-1.292c-.077-.34-.15-.54-.15-.54s.012.26-.006.597c-.01.336-.087.84-.234 1.24a3.81 3.81 0 0 1-.432.863l-.023-.02a1.455 1.455 0 0 1-.007-.083l-.03.05c-.01-.01-.02-.017-.03-.026-.498-.48-.985-.972-1.416-1.455-.435-.484-.81-.96-1.128-1.377-.15-.214-.28-.415-.412-.59-.132-.172-.21-.342-.294-.474l-.26-.424s.025.177.096.487c.056.316.193.75.396 1.266.103.255.25.514.387.8.14.284.335.554.513.85.385.57.842 1.147 1.34 1.684.984 1.084 2.13 1.992 3.017 2.626.893.616 1.556.954 1.556.954l.52-.854s-.56-.395-1.39-1.037a39.332 39.332 0 0 1-2.317-1.913m-5.903 4.194l.99-.14-1.09-4.156.1 4.296zm-3.74-6.383a9.02 9.02 0 0 0-.972 2.345c-.047.156-.076.314-.108.473l-.027-.008a8.528 8.528 0 0 1-1.287-.51c-.45-.223-.872-.508-1.125-.79-.257-.28-.343-.536-.343-.536l.038.176c.017.116.086.27.178.45.192.358.562.768.976 1.116.51.437 1.08.79 1.444.995-.055.428-.06.83-.052 1.175.01.696.134 1.183.134 1.183l.987-.16s-.024-.4-.038-1.046c-.01-.64 0-1.496.09-2.357.037-.43.105-.86.19-1.26.07-.403.15-.783.25-1.1.08-.324.164-.593.23-.778l.09-.3-.192.248c-.12.16-.293.388-.464.686m-8.278-2.675l-.02.11c-.003.07-.066.157-.15.24-.178.173-.536.297-.963.464-.432.167-.965.317-1.516.67-.28.163-.55.4-.785.76a3.287 3.287 0 0 0-.16.32l-.06.225c-.058.28-.05.413-.038.643a1.9 1.9 0 0 0 .537 1.137c.274.28.556.464.783.626.122.082.215.15.296.212.138.12.115.094.177.182.09.132.17.333.226.522.12.385.187.75.223 1l.058.39 1-.037s.007-.176-.005-.46c-.024-.29-.046-.7-.18-1.21a3.043 3.043 0 0 0-.37-.85c-.074-.143-.303-.357-.378-.415a5.676 5.676 0 0 0-.395-.293c-.253-.164-.482-.308-.64-.458-.157-.155-.246-.285-.286-.482a1.687 1.687 0 0 1-.017-.282l.04-.228a.376.376 0 0 0 .042-.092c.076-.16.236-.367.433-.532.387-.343.857-.632 1.244-.902.394-.26.72-.54.865-.812.068-.133.09-.262.06-.335-.015-.076-.025-.115-.025-.115m-7.522.433c-.294.53-.823 1.145-1.373 1.75a2.11 2.11 0 0 0-.363.6c-.09.21-.142.42-.187.624-.084.407-.11.787-.122 1.11a8.245 8.245 0 0 0 .034 1.085l.983-.17s-.1-.367-.175-.95c-.06-.565-.135-1.398.225-1.992.452-.686.9-1.4 1.118-1.99.234-.59.204-1.013.204-1.013s-.036.42-.344.946m-8.646-1.707c-.946.535-1.78 1.26-1.78 1.26l.738.676s.137-.2.383-.498c.24-.297.582-.68.955-1.033.372-.354.78-.67 1.12-.86.34-.187.595-.264.595-.264s-.265.013-.655.122c-.388.108-.886.33-1.356.6m-3.492-4.403a5.475 5.475 0 0 1-1.048.65c-.402.195-.82.353-1.136.458-.32.106-.52.154-.52.154l.378.925s.223-.124.518-.322a10.3 10.3 0 0 0 1.04-.802c.36-.313.678-.67.882-.958.203-.29.297-.502.297-.502s-.15.18-.41.396M44.894 49.52c.403.024.657.137.657.137s-.218-.177-.62-.31c-.394-.144-.94-.265-1.49-.354a15.81 15.81 0 0 0-1.52-.176c-.415-.024-.697.006-.697.006l.074.997s.258-.01.658-.067c.397-.053.93-.145 1.465-.194.534-.052 1.07-.075 1.472-.04m-.422 6.715c-.246.132-.36.29-.36.29l.566.825s.19-.047.404-.226c.216-.175.47-.456.74-.715.53-.532 1.02-1.124 1.02-1.124s-.734.235-1.43.53c-.34.155-.698.287-.94.42"/><path clip-path="url(#b)" fill="#F0A733" d="M68.77 34.105l2.46-11.25s-24.042-1.958-24.626 22.542c-.583 24.5 36.417 25.5 42.292 11.75s2.708-22.834-.792-25.584l-9.958 6.834-12.875 8.5 3.5-12.792z"/><path clip-path="url(#b)" fill="#D72251" d="M181.44 35.48c-1.5.833-5.085 13.417-5.085 13.417s-4.084 1.75-3.21 4.875 3.876 4.25 3.876 4.25 7.17 22.458 34.835 22.79c27.666.335 39-5.665 43.166-12.5 4.17-6.832 6.5-16.75.75-31.5l-13.33-1.165s-17.007-4.754-29.282-5.05-30.22 4.05-31.72 4.883"/><path clip-path="url(#b)" fill="#FCDCA4" d="M186.15 34.326s-7.21 6.796-6.488 17.66 8.29 25.075 36.402 25.384c28.11.308 40.982-12.306 39.594-26.568-1.39-14.262-4.428-14.674-4.428-14.674s-13.49-.875-21.574-2.935c-8.082-2.06-15.754-4.067-24.096-2.626s-19.41 3.76-19.41 3.76"/><path clip-path="url(#b)" fill="#EE6372" d="M196.887 55.93c-.475.02-.988.092-1.53.2a7.342 7.342 0 0 0-1.688.536c-.57.258-1.157.69-1.562 1.28-.414.59-.602 1.257-.78 1.853-.17.595-.345 1.143-.604 1.612-.06.12-.13.21-.193.318l-.263.357c-.13.138-.322.33-.527.464-.842.575-1.875.88-2.732 1.105-.87.23-1.62.36-2.143.438-.527.087-.818.117-.818.117l.08.997s1.275-.028 3.15-.448c.934-.23 2.033-.537 3.127-1.266.28-.19.52-.404.787-.713.09-.122.18-.23.274-.37.09-.15.195-.31.27-.465.043-.087.068-.178.107-.266.157-.01.34-.02.56-.04.582-.05 1.354-.138 2.113-.28.762-.142 1.508-.343 2.053-.533.543-.19.887-.358.887-.358s-.367.11-.928.206c-.56.098-1.31.172-2.062.187-.754.018-1.504-.02-2.062-.064l-.222-.022c.068-.234.137-.47.193-.694.155-.595.304-1.146.585-1.57.277-.432.678-.748 1.146-1 .487-.265.956-.43 1.46-.59.494-.15.97-.27 1.418-.373 1.795-.374 3.045-.528 3.045-.528s-.31-.057-.855-.092a14.45 14.45 0 0 0-2.28 0m-16.718-4.15c-.01.032-.1.087-.088.074a9.976 9.976 0 0 1 .743-.353c.543-.24 1.295-.518 2.068-.725.773-.213 1.57-.35 2.174-.408.305-.033.557-.046.734-.05l.282-.012-.28-.032a9.14 9.14 0 0 0-.737-.062 13.93 13.93 0 0 0-2.264.07c-.823.092-1.642.258-2.25.42-.306.078-.558.157-.735.216l-.12.04a.955.955 0 0 0-.25.146c-.147.148-.106.08-.126.103l.845.533c-.02.025.067-.07.005.04m4.697 6.733c.137.042.275.044.398.06.244.035.45.017.592.014l.225-.008s-.08-.014-.223-.036c-.138-.023-.34-.045-.565-.125-.113-.037-.238-.063-.36-.127-.12-.062-.257-.104-.376-.188a2.98 2.98 0 0 1-.696-.56c-.383-.4-.617-.9-.75-1.31.455.055.95.078 1.5.024.248-.038.508-.093.78-.208.222-.1.405-.193.624-.315.408-.23.824-.503 1.195-.847a4.4 4.4 0 0 0 .705-.867c.24.103.574.228.984.333a9.436 9.436 0 0 0 3.19.31 9.187 9.187 0 0 0 1.687-.25c.265-.054.513-.146.747-.222a5.02 5.02 0 0 0 .652-.246c.395-.166.706-.345.92-.472l.333-.2-.375.105c-.236.075-.57.173-.982.242-.2.05-.42.094-.656.117l-.188.024c-.008-.09-.018-.193-.023-.32-.013-.385.02-.916.206-1.403.18-.488.535-.907.88-1.138.335-.242.622-.312.614-.327.006.018-.287.02-.69.19-.405.155-.91.525-1.247 1.044-.342.512-.516 1.112-.604 1.563a4.137 4.137 0 0 0-.065.458c-.396.02-.805.027-1.213-.01-.54-.03-1.072-.12-1.568-.196a24.82 24.82 0 0 1-1.338-.312 21.63 21.63 0 0 1-.795-.236c.09-.25.157-.49.208-.686.068-.236.1-.305.19-.452.075-.136.183-.245.294-.346.23-.2.525-.325.82-.408.598-.153 1.164-.167 1.555-.17l.623.01s-.207-.103-.592-.222c-.38-.12-.947-.284-1.688-.234-.365.024-.787.12-1.188.373a1.89 1.89 0 0 0-.535.493c-.15.177-.3.49-.357.654-.158.444-.268.764-.477 1.113a3.535 3.535 0 0 1-.75.884c-.3.256-.646.47-1.012.66-.185.092-.372.182-.554.27a2.07 2.07 0 0 1-.457.117c-.712.078-1.478-.044-2.11-.154-.64-.11-1.172-.24-1.543-.336l-.576-.15-.315.947s.848.343 2.193.636c.05.115.105.24.18.382.244.47.662 1.06 1.236 1.466.277.212.594.36.893.47.145.067.302.084.44.123m-4.582-11.348c.037-.006-.066.063-.127.05.008.01.197.06.363.12.364.117.897.304 1.528.544.316.117.658.246 1.02.383l.547.216.59.253c.445.16.88 0 1.125-.168.25-.168.418-.332.586-.485.32-.31.627-.578.973-.808.37-.254.743-.507 1.11-.757a6.37 6.37 0 0 1 1.086-.572c.73-.308 1.47-.434 2.123-.494s1.216-.04 1.616-.034c.396.03.635.028.635.028s-.206-.104-.587-.256a6.168 6.168 0 0 0-1.658-.4 5.54 5.54 0 0 0-1.168-.004c-.32.035-.656.105-.994.2.01-.05.016-.095.027-.15.055-.29.127-.63.223-.987.05-.18.104-.36.162-.546.006-.01.08-.192.11-.207.028-.037.063-.087.136-.13.25-.188.67-.218 1.032-.233.37-.01.73.005 1.037 0 .308-.004.567-.033.74-.094.173-.05.247-.133.25-.123-.003-.01-.087.06-.26.082-.173.032-.423.02-.722-.022-.3-.04-.646-.11-1.033-.16-.383-.03-.822-.103-1.29.115a.968.968 0 0 0-.335.245c-.115.126-.113.14-.213.298a14.13 14.13 0 0 0-.9 2.304 8.46 8.46 0 0 0-.54.275c-.417.232-.79.482-1.17.72a7.943 7.943 0 0 0-1.15.886c-.165.147-.32.292-.438.366-.115.082-.14.035-.11.063-.015-.004-.134-.056-.097-.038l-.162-.077-.304-.13c-.195-.08-.387-.155-.572-.23a21 21 0 0 0-1.05-.382 33.026 33.026 0 0 0-1.606-.5c-.217-.053-.332-.083-.533-.116-.166-.026-.35.017-.365.02l-.04.007.362.93.043-.005m3.223-6.838a20.914 20.914 0 0 1 2.344-.804 15.75 15.75 0 0 1 2.445-.478 9.2 9.2 0 0 1 .824-.057l.315-.01-.312-.033a9.17 9.17 0 0 0-.832-.057c-.69-.023-1.618.02-2.538.144-.92.12-1.83.32-2.508.493-.676.17-1.133.328-1.133.328l.384.925s.387-.195 1.014-.45m11.625 26.662c.266-.1.514-.232.72-.377.208-.146.384-.3.503-.467.133-.152.2-.32.273-.437.106-.262.144-.412.144-.412l-.28.318c-.103.084-.204.206-.362.293-.146.098-.316.19-.514.267-.797.3-1.963.21-3.225.23a8.632 8.632 0 0 0-.955.063c-.367.052-.73.157-1.043.336-.63.36-1.03.884-1.287 1.334-.256.46-.377.868-.457 1.153a3.76 3.76 0 0 0-.087.47l.98.187c.002-.01.033-.112.12-.35.08-.227.22-.547.43-.886.198-.344.49-.695.872-.904.184-.12.396-.187.627-.235.316-.05.56-.093.87-.122.593-.06 1.218-.107 1.813-.226.297-.063.59-.12.858-.237m3.53 2.597c-.37.5-1.024 1.026-1.733 1.46a15.17 15.17 0 0 1-2.037 1.028c-.578.245-.96.373-.96.373l.396.918s1.56-.797 2.894-1.916c.666-.554 1.264-1.202 1.574-1.778.152-.284.254-.542.275-.73.03-.182.05-.287.05-.287l-.09.277c-.05.174-.183.41-.37.655m7.648-.912a.803.803 0 0 1-.534-.024c-.205-.072-.45-.192-.754-.315a2.685 2.685 0 0 0-.52-.145c-.104-.01-.234-.025-.322-.027-.104.008-.11-.013-.295.017-.465.045-.93.394-1.17.778-.11.166-.19.335-.252.504-.06-.032-.115-.062-.176-.104-.38-.24-.7-.72-.514-1.38l.66-2.803-1.137 2.647c-.068.15-.148.39-.166.584a1.6 1.6 0 0 0 .035.632c.102.415.346.735.568.957.186.186.357.308.5.4-.102.668-.098 1.302-.104 1.882.01.667.04 1.275.07 1.795l.083 1.234c.01.12.008.29.02.255.037-.038-.01.085.002.06l.938.35c.004-.026.008.02.06-.183a3.5 3.5 0 0 0 .067-.45c.025-.326.05-.768.06-1.294-.003-.52-.005-1.127-.01-1.776-.007-.648-.02-1.327.05-1.938.037-.305.11-.59.21-.795.104-.208.216-.31.4-.38-.026-.013.13-.028.185-.043l.156-.014c.118 0 .25.01.384.03.273.033.56.12.87.132.31.022.647-.068.84-.244.202-.166.298-.35.37-.493.14-.29.158-.47.168-.467 0 0-.117.142-.33.348-.105.1-.245.218-.41.27m9.315 1.07c-.115.156-.205.344-.354.526-.266.38-.584.812-.94 1.263a37.07 37.07 0 0 1-1.384 1.693 4.34 4.34 0 0 1-.856-.934 2.793 2.793 0 0 1-.303-.64 2.112 2.112 0 0 1-.106-.623c-.016-.38.088-.632.07-.635.018.006-.146.223-.227.62a2.44 2.44 0 0 0-.05.693c.015.26.08.53.165.797.184.527.484 1.006.736 1.34l.018.02c-.523.6-1.025 1.16-1.45 1.602-.31.343-.57.624-.757.805l-.062.065s.002.006.006.01a.15.15 0 0 1 .018.043c-.035.04-.088.065-.082.063l.277.962s.037-.02.11-.055c.06-.032.138-.074.226-.132.043-.03.088-.063.137-.1l.082-.066c.225-.186.527-.45.875-.782.682-.678 1.55-1.613 2.297-2.658.764-1.027 1.402-2.164 1.713-3.093.086-.227.137-.45.186-.642s.078-.362.092-.504c.04-.282.043-.44.043-.44s-.092.14-.22.38c-.064.122-.15.266-.26.42m2.92 7.658l.198-4.088-1.182 3.918.985.17zm7.632-5.477c-.018-.005-.012.292-.193.658-.094.18-.232.365-.408.54-.19.16-.397.316-.636.434a5.144 5.144 0 0 1-1.373.46c-.17.034-.302.054-.41.067-.02-.097-.038-.192-.063-.288-.207-.825-.535-1.613-.854-2.157a5.05 5.05 0 0 0-.424-.63l-.173-.23.137.25c.094.156.2.392.318.677.23.572.424 1.368.502 2.177.082.807.053 1.618 0 2.218-.055.607-.135.98-.135.98l.993.117s.023-.45-.018-1.087a13.337 13.337 0 0 0-.11-1.095c.128-.044.3-.11.497-.198a5.86 5.86 0 0 0 1.395-.85c.23-.19.43-.42.594-.646.155-.237.26-.477.315-.688.1-.43.025-.713.045-.71m7.482-1.402a2.557 2.557 0 0 0-.225-.232 2.713 2.713 0 0 0-.428-.28c-.565-.29-1.09-.424-1.528-.583-.44-.15-.8-.278-1-.442-.217-.155-.186-.347-.193-.34.013-.012-.085.178.108.42.184.228.523.46.936.69.404.23.904.48 1.338.798.11.075.207.165.287.243.022.038.046.05.08.098.02.046.103.18.073.156.084.257.076.417-.018.58-.22.363-.73.817-1.133 1.22-.22.22-.402.392-.6.626-.195.22-.367.457-.504.71-.133.26-.234.535-.236.834-.008.297.09.578.215.762.125.19.262.293.354.36.095.062.19.106.17.097l.446-.895c-.018-.01.006 0-.02-.02a.395.395 0 0 1-.075-.1c-.042-.07-.067-.208.095-.544.084-.157.205-.335.36-.515.173-.195.353-.4.538-.613l.6-.682c.203-.245.434-.5.592-.893.178-.413.082-.92-.082-1.217-.083-.167-.098-.155-.15-.24m6.298 2.39a5.14 5.14 0 0 0-.868-2.007c-.44-.62-.926-1.197-1.254-1.643a1.704 1.704 0 0 1-.297-.587c-.038-.158-.046-.252-.046-.252s-.01.093.004.26c.012.165.074.403.205.66.258.507.64 1.15.96 1.814.317.646.456 1.343.46 1.846.004.253-.02.457-.045.592-.027.15-.043.175-.045.187l.977.212c-.002.012.025-.146.023-.322 0-.19-.015-.454-.072-.76"/><path clip-path="url(#b)" fill="#F0A733" d="M228.71 37.147l.946-3.954s-12.01-3.233-13.76-2.483-9.812 5.688-10.375 12.75c-.56 7.062 1.5 20.52 17.25 22.603 15.75 2.085 21-4.915 23.44-7.604 2.437-2.688 5.56-10.438 5.124-13.813s-3-7.875-3.375-8.062-3.313.25-3.313.25l-12.5 9.062-7.812 4.688c.06-.188 4.374-13.438 4.374-13.438"/><path clip-path="url(#b)" fill="#0C3846" d="M183.578 35.785c.205-.027.422-.063.63-.093-.48.64-1.013 1.396-1.567 2.29-1.024 1.68-2.18 3.817-2.944 6.492-.193.642-.354 1.32-.482 2.02a20.44 20.44 0 0 0-1.828.837c-.615.32-1.22.67-1.805 1.067-.583.397-1.155.832-1.683 1.356-.527.52-1.02 1.126-1.373 1.88-.168.382-.312.79-.363 1.23-.054.43-.046.906.046 1.303l.096.492.184.6c.145.384.297.73.514 1.072.205.346.453.647.734.934.27.297.588.503.914.73.33.222.676.323 1.04.474.185.076.355.12.538.146a31.217 31.217 0 0 0 2.63 6.025c1.138 1.997 2.503 3.862 4.026 5.592a34.37 34.37 0 0 0 11.037 8.227 38.516 38.516 0 0 0 6.503 2.36c2.244.577 4.484.96 6.812 1.214 2.22.173 4.418.347 6.7.376 1.134.036 2.265.07 3.39.045 1.127-.016 2.254.035 3.383-.022 1.127-.048 2.256-.064 3.385-.14 1.127-.094 2.258-.163 3.385-.277 1.125-.147 2.252-.26 3.375-.437 1.117-.21 2.246-.355 3.355-.616 1.113-.256 2.23-.478 3.326-.817l1.646-.476 1.625-.562c2.156-.777 4.275-1.702 6.273-2.86 2.004-1.14 3.928-2.448 5.67-3.97a19.486 19.486 0 0 0 2.467-2.575 21.9 21.9 0 0 0 1.975-2.938c1.158-2.048 1.963-4.25 2.537-6.486.525-2.082.82-4.158.896-6.334l.19-.12a17.546 17.546 0 0 1 2.36-1.19c1.097-.444 2.253-.773 3.474-.862-1.2-.245-2.47-.25-3.717-.106a18.99 18.99 0 0 0-2.8.547c-.31.087-.603.173-.942.295l-.5.242-.04.636c-.132 2.07-.573 4.242-1.16 6.282a25.985 25.985 0 0 1-2.49 5.834c-1.08 1.82-2.374 3.402-3.985 4.746-1.617 1.396-3.398 2.59-5.264 3.636-1.858 1.06-3.84 1.91-5.87 2.627l-1.53.52-1.56.44c-1.033.312-2.1.52-3.156.76-1.053.248-2.137.384-3.205.582-1.075.166-2.16.272-3.24.412-1.087.106-2.18.172-3.27.26-1.09.07-2.185.083-3.278.128-2.188.04-4.393.03-6.568-.12-2.164-.086-4.398-.325-6.613-.472-2.097-.186-4.257-.5-6.335-.985a35.776 35.776 0 0 1-6.07-2.052 31.795 31.795 0 0 1-10.38-7.38c-1.444-1.582-2.774-3.282-3.905-5.11-1.13-1.81-2.133-3.8-2.78-5.74l-.2-.592-.62-.13a4.024 4.024 0 0 1-1.398-.603 3.552 3.552 0 0 1-.593-.503 3.183 3.183 0 0 1-.47-.613 3.836 3.836 0 0 1-.334-.7l-.11-.34-.095-.478a1.85 1.85 0 0 1-.024-.664c.02-.218.104-.44.197-.66.416-.905 1.355-1.737 2.36-2.417a15.95 15.95 0 0 1 1.606-.947c.194-.103.4-.2.603-.296l-.004.023c-.028.823-.07 1.513-.034 2.35.035.82.053 1.666.18 2.5.39 3.35 1.44 6.97 3.51 10.286 2.043 3.324 5.125 6.217 8.77 8.303.458.263.896.565 1.37.797l1.45.655c.978.417 1.93.937 2.97 1.217l3.078 1.013c1.047.276 2.117.482 3.18.728l1.605.354c.534.115 1.08.153 1.624.233 1.088.14 2.178.28 3.27.422 1.093.184 2.198.147 3.298.23l3.307.162c2.247.01 4.386-.067 6.577-.102l3.3-.297c1.097-.112 2.2-.156 3.27-.382 1.077-.188 2.15-.373 3.218-.56 1.07-.163 2.1-.53 3.143-.783l1.55-.42c.52-.132 1.007-.366 1.51-.543.987-.398 2-.72 2.948-1.18 3.84-1.727 7.225-4.265 9.69-7.315a22.782 22.782 0 0 0 4.644-9.906c.14-.84.334-1.658.383-2.473.04-.405.078-.807.115-1.202.012-.398.02-.79.033-1.18l.013-.578.002-.144-.006-.166-.01-.274c-.017-.362-.032-.722-.046-1.074-.055-.72-.12-1.462-.213-2.142A33.802 33.802 0 0 0 253.48 37.1a78.546 78.546 0 0 0 6.23-.577c2.964-.4 5.67-.902 8.02-1.53 1.177-.305 2.255-.677 3.255-.994.984-.377 1.893-.697 2.69-1.056.798-.35 1.51-.663 2.11-.986a20.64 20.64 0 0 0 1.514-.814c.812-.47 1.23-.745 1.23-.745s-.5.077-1.407.275l-1.465.316a36 36 0 0 0 1.828-1.438 29.88 29.88 0 0 0 1.943-1.773 25.128 25.128 0 0 0 1.564-1.672c.436-.508.78-.944 1.004-1.262l.365-.49-.42.443c-.26.287-.65.678-1.14 1.125a24.28 24.28 0 0 1-1.725 1.455 30.074 30.074 0 0 1-2.096 1.5 37.724 37.724 0 0 1-4.18 2.374c-.61.303-1.114.526-1.462.675-1.244.267-2.615.554-4.13.846-.39.078-.802.157-1.21.236a60.018 60.018 0 0 0 1.734-1.244c1.56-1.163 3.043-2.42 4.092-3.425.52-.507.95-.933 1.23-1.25.284-.31.448-.486.448-.486l-.508.424c-.318.278-.795.644-1.37 1.074-1.16.853-2.77 1.892-4.437 2.826a66.67 66.67 0 0 1-5.807 2.88 75.422 75.422 0 0 1-7.7.72c.76-.34 1.538-.695 2.315-1.076 1.99-.973 3.914-2.072 5.295-2.984.688-.465 1.254-.854 1.63-1.156l.603-.456-.648.385c-.408.256-1.014.577-1.74.957-1.465.743-3.473 1.605-5.527 2.334a75.744 75.744 0 0 1-6.914 2.07c-.393-.01-.787-.022-1.166-.028-.834-.057-1.676-.077-2.535-.185-1.066-.1-2.156-.26-3.252-.44 1.272-.393 2.65-.845 4.03-1.35a58.61 58.61 0 0 0 3.27-1.303 37.48 37.48 0 0 0 2.758-1.342c.4-.203.744-.434 1.06-.613.315-.18.577-.36.788-.514l.672-.47-.717.396a8.4 8.4 0 0 1-.83.425c-.33.145-.69.334-1.106.493-.822.34-1.79.694-2.848 1.03-1.06.33-2.19.656-3.34.94a86.543 86.543 0 0 1-7.78 1.557c-1.406-.286-2.83-.592-4.273-.91 1.3-.32 2.715-.698 4.13-1.132 2.28-.694 4.51-1.54 6.13-2.28.805-.385 1.473-.702 1.92-.965l.715-.39-.752.312c-.47.212-1.166.456-1.998.75-1.676.562-3.95 1.158-6.258 1.602a81.66 81.66 0 0 1-8.254 1.14c-.13-.026-.252-.056-.38-.083a166.68 166.68 0 0 0-3.073-.63l.084-.014a47.066 47.066 0 0 0 3.033-.66c.48-.123.943-.236 1.377-.372.434-.134.848-.238 1.22-.375.75-.25 1.366-.473 1.79-.653l.668-.267-.695.185c-.44.13-1.078.275-1.844.434-.38.09-.8.144-1.242.224-.44.083-.908.14-1.39.204a46.2 46.2 0 0 1-3.038.288 57.633 57.633 0 0 1-5.61.074 64.52 64.52 0 0 0-3.052-.327l-1.47-.09c-.546-.037-1.02-.028-1.532-.045-1.006-.037-2.01.003-3.014.013a73.79 73.79 0 0 0-5.94.48c-3.903.488-7.667 1.204-11.284 1.88a411.68 411.68 0 0 1-6.676 1.225c-.146-.004-.3-.01-.475-.02a9.234 9.234 0 0 1-1.447-.29c-.53-.154-1.096-.37-1.648-.626a18.214 18.214 0 0 1-2.916-1.75c-.758-.558-1.227-.982-1.227-.982s.375.508 1.018 1.215c.643.703 1.56 1.6 2.61 2.375.294.216.6.417.905.607a21.68 21.68 0 0 0-.25.04l-.516-.044c-.223-.02-.492-.04-.8-.066l-1.028-.212c-.38-.057-.773-.206-1.2-.34-.43-.12-.862-.303-1.31-.506-.46-.182-.902-.43-1.357-.684-.467-.23-.893-.55-1.344-.835a20.448 20.448 0 0 1-2.443-1.98c-.74-.69-1.38-1.394-1.906-2.014-1.057-1.244-1.63-2.182-1.63-2.182s.462.995 1.38 2.37c.46.684 1.02 1.47 1.697 2.26a21.35 21.35 0 0 0 2.288 2.335c.438.353.85.738 1.316 1.043.45.325.9.646 1.37.9.362.216.72.41 1.077.578-.323.038-.645.07-.962.1-.238-.05-.523-.082-.834-.19l-1.168-.405c-.428-.162-.86-.41-1.34-.634-.477-.228-.93-.567-1.432-.865-.49-.32-.955-.715-1.453-1.083-.46-.412-.942-.823-1.397-1.266-.438-.46-.908-.893-1.31-1.378-.42-.47-.823-.94-1.19-1.418-.753-.938-1.384-1.872-1.92-2.678-1.046-1.63-1.62-2.793-1.62-2.793s.46 1.212 1.352 2.948c.457.86 1.002 1.864 1.674 2.89.323.52.688 1.04 1.07 1.56.362.536.802 1.028 1.21 1.548.426.504.885.98 1.332 1.46.484.44.938.905 1.428 1.3.5.37.953.775 1.447 1.078-.066-.005-.125-.02-.188-.024l-.522-.18a14.062 14.062 0 0 1-1.727-.672 9.997 9.997 0 0 1-1.12-.543c-.39-.21-.812-.418-1.215-.69a20.42 20.42 0 0 1-2.488-1.78 24.568 24.568 0 0 1-4.01-4.187c-.97-1.27-1.48-2.217-1.48-2.217l-.03.016s.396 1 1.225 2.392a25.252 25.252 0 0 0 3.602 4.742 21.42 21.42 0 0 0 1.818 1.686c-.408-.166-.818-.332-1.197-.514a23.34 23.34 0 0 1-4.984-3.22 24.475 24.475 0 0 1-2.802-2.744c-.598-.694-.895-1.1-.895-1.1s.133.483.54 1.333c.395.855 1.104 2.055 2.253 3.415a17.997 17.997 0 0 0 4.99 4.062c2.2 1.21 4.96 2.124 8.04 2.408 3.086.308 6.425-.13 9.732-.58m32.79-3.635l.347.025c3.78.304 7.623 1.007 11.375 1.806 3.764.796 7.48 1.683 11.158 2.342 1.844.312 3.672.596 5.494.74.746.08 1.494.103 2.236.135l-.035.032c3.396 3.803 5.717 8.726-.283 18.91-5.818 9.87-16.348 9.822-23.77 8.93-4.152-.5-10.21-3.513-13.752-8.304-2.64-3.57-3.58-7.588-2.8-11.943 1.592-8.856 7.078-11.747 10.03-12.673m-29.542 3.42c.105-.118.19-.21.28-.308 2.288-.35 4.614-.724 7.01-1.134 3.634-.628 7.362-1.303 11.144-1.733a71.32 71.32 0 0 1 5.703-.398c.37 0 .744-.004 1.115-.007-2.826 1.808-6.443 5.435-7.707 12.48-.87 4.85.222 9.512 3.16 13.485 4.06 5.49 10.685 8.566 15.122 9.1 1.836.222 3.848.393 5.94.393 6.995 0 14.856-1.917 19.79-10.294 5.99-10.168 4.256-15.86 1.146-19.93.176 0 .346.002.525-.002.414-.005.814-.023 1.22-.034a31.822 31.822 0 0 1 1.76 3.967 31.912 31.912 0 0 1 1.61 6.478c.09.64.146 1.27.202 1.96.016.353.03.71.047 1.073l.012.274.004.11-.002.13-.012.536c-.008.358-.018.722-.025 1.09-.038.366-.073.737-.108 1.112-.04.755-.223 1.506-.35 2.282a20.777 20.777 0 0 1-4.238 9.083c-2.26 2.785-5.336 5.19-8.963 6.853-.888.44-1.854.753-2.792 1.142-.477.173-.934.402-1.432.53l-1.488.416-1.498.42c-.5.144-1 .287-1.52.362l-3.112.567c-1.037.23-2.1.28-3.158.397l-3.186.315c-2.162.045-4.395.136-6.516.136l-3.24-.142c-1.076-.075-2.166-.032-3.23-.207-1.065-.13-2.13-.262-3.19-.393-.53-.075-1.066-.108-1.586-.218l-1.557-.337c-4.182-.73-8.115-2.244-11.56-4.226-3.446-1.998-6.29-4.712-8.167-7.806-1.898-3.085-2.86-6.456-3.207-9.602-.114-.79-.122-1.553-.153-2.3-.035-.728.02-1.574.045-2.242.12-1.413.367-2.747.744-3.967.74-2.446 1.852-4.427 2.838-5.985a29.202 29.202 0 0 1 2.582-3.425m-17.18 27.09c.23.24.376.362.376.362s-.004-.2-.035-.52c-.02-.16-.04-.35-.066-.568a8.13 8.13 0 0 0-.07-.72c-.097-1.017-.224-2.372-.35-3.728-.124-1.352-.25-2.727-.41-3.787-.14-1.057-.317-1.802-.317-1.802s-.412.657-.705 1.726c-.312 1.063-.508 2.537-.393 4.017.105 1.48.555 2.947 1.148 3.92.286.49.58.864.822 1.1m81 27.612l-1.065.444c-.602.273-1.463.666-2.525 1.15.03-.022.06-.04.09-.064.264-.222.56-.43.816-.685.27-.245.538-.5.796-.765s.496-.548.732-.826c.244-.27.438-.574.646-.85.213-.274.375-.57.54-.84.175-.268.312-.535.43-.787.253-.492.413-.928.515-1.234.103-.306.15-.482.15-.482l-.325.388c-.197.25-.48.605-.822 1.02-.334.42-.746.89-1.18 1.393-.443.495-.906 1.026-1.408 1.525-.973 1.025-2.004 2-2.8 2.73-.23.21-.43.392-.608.557a66.39 66.39 0 0 1-2.473 1.004c.092-.096.188-.188.277-.288a25.5 25.5 0 0 0 2.544-3.296c.32-.463.545-.877.72-1.153.17-.28.265-.44.265-.44l-.337.39c-.217.244-.504.61-.895 1.012a24.742 24.742 0 0 1-2.98 2.756 18.052 18.052 0 0 1-3.35 2.102c-.313.145-.952.41-1.437.602-.34.09-.673.182-1.024.266-.62.15-1.268.287-1.924.41.45-.343.904-.704 1.352-1.085a29.726 29.726 0 0 0 2.97-2.88c.376-.42.673-.78.87-1.043l.316-.402s-.14.125-.38.344a16.77 16.77 0 0 1-1.02.873c-.865.7-2.072 1.548-3.338 2.294a36.024 36.024 0 0 1-3.57 1.854c-.69.313-1.21.52-1.47.62-.41.032-.817.07-1.23.094-.542.03-1.093.04-1.644.05.318-.228.635-.463.95-.71a24.078 24.078 0 0 0 2.694-2.43c.678-.716 1.07-1.237 1.07-1.237s-.486.44-1.275 1.003a23.767 23.767 0 0 1-3.027 1.824 27.976 27.976 0 0 1-3.21 1.39l-.358.12c-1.018-.04-2.05-.1-3.1-.175a18.726 18.726 0 0 0 2.076-1.547c.55-.47.895-.802.895-.802s-.42.232-1.064.54c-.642.313-1.52.674-2.407.95-.887.285-1.79.46-2.45.535-.14.016-.263.025-.38.033a112.3 112.3 0 0 1-2.96-.34c.642-.292 1.24-.606 1.694-.883.588-.362.94-.647.94-.647s-.42.178-1.065.36c-.65.18-1.525.355-2.408.46-.883.107-1.77.16-2.432.18-.12.004-.22.005-.324.007-.793-.124-1.588-.278-2.385-.423a9.882 9.882 0 0 0 1.04-.61c.26-.19.474-.345.608-.473.138-.12.218-.187.218-.187l-.264.116a6.59 6.59 0 0 1-.7.263c-.587.183-1.388.34-2.196.408-.352.03-.703.047-1.04.054a104.04 104.04 0 0 1-3.42-.768 13.49 13.49 0 0 0 1.526-.742c.3-.183.55-.334.71-.46l.26-.184s-.427.183-1.09.356a14.45 14.45 0 0 1-2.452.38c-.5.035-.998.048-1.46.048a77.044 77.044 0 0 1-7.308-2.24c-1.457-.503-2.844-1.116-4.223-1.708-1.33-.664-2.692-1.283-3.86-2.016a24.97 24.97 0 0 1-6.318-5.222c-1.703-2.003-3.045-4.13-4.184-6.156-.277-.513-.55-1.015-.816-1.504-.246-.503-.484-.993-.72-1.472-.49-.948-.89-1.883-1.28-2.755-.39-.874-.756-1.694-1.055-2.47-.336-.765-.607-1.48-.863-2.127-1.006-2.59-1.56-4.114-1.56-4.114s0 .403.044 1.162c.045.758.166 1.862.393 3.262a43.5 43.5 0 0 0 1.196 4.977c.617 1.882 1.375 4 2.514 6.184a38.693 38.693 0 0 0 4.37 6.68c1.827 2.194 4.19 4.25 6.81 5.835 2.71 1.69 5.584 2.945 8.613 4.03a80.546 80.546 0 0 0 9.28 2.734c3.147.74 6.33 1.305 9.472 1.737 3.145.448 6.254.766 9.28.91 3.017.15 5.974.204 8.743-.023a42.643 42.643 0 0 0 7.812-1.347c2.365-.65 4.46-1.48 6.236-2.358s3.242-1.78 4.414-2.562a67.615 67.615 0 0 0 2.654-1.898l.922-.7m16.416-4.68c-.314.625-.648 1.298-1.03 1.993-.39.688-.806 1.405-1.286 2.11-.48.692-1.006 1.42-1.59 2.032l-.428.464c-.154.16-.34.317-.51.476-.158.138-.375.367-.486.43l-.525.384c-.7.52-1.488.952-2.28 1.353-.802.39-1.614.735-2.423 1.034-.81.302-1.604.562-2.365.8-.765.235-1.495.43-2.17.625-2.712.718-4.573 1.106-4.573 1.106s.475.035 1.307.018c.832 0 2.016-.07 3.44-.23.71-.073 1.474-.206 2.284-.352.807-.16 1.654-.363 2.525-.605a28.36 28.36 0 0 0 2.646-.935c.878-.404 1.765-.85 2.59-1.435l.606-.46c.275-.206.37-.336.564-.507.17-.165.34-.313.51-.49l.5-.578c.652-.77 1.16-1.555 1.633-2.345.443-.8.84-1.585 1.154-2.353.314-.77.584-1.5.785-2.19.418-1.376.67-2.54.79-3.367.14-.82.163-1.297.163-1.297l-.47 1.212c-.32.76-.757 1.85-1.363 3.107m15.83-12.4l-.128-.564c-.086-.37-.168-.734-.248-1.088-.133-.713-.447-1.33-.676-1.91-.28-.56-.447-1.105-.758-1.517-.287-.422-.525-.788-.746-1.076a9.968 9.968 0 0 0-.506-.66l-.184-.23s.02.102.053.294c.03.195.083.474.16.818.06.3.153.65.25 1.035-.104-.134-.202-.27-.31-.4a15.087 15.087 0 0 0-1.344-1.46 12.97 12.97 0 0 0-1.307-1.116 9.916 9.916 0 0 0-.995-.68l-.385-.24.334.308c.215.19.51.476.834.844.332.355.69.8 1.037 1.297.354.492.693 1.04.994 1.605a17.627 17.627 0 0 1 1.343 3.224c.14.45.23.83.29 1.092.06.264.286 2.244.294 2.282.008.343.004.688-.043 1.036-.027.368-.057.74-.082 1.11-.006.085-.025.168-.04.252a18.64 18.64 0 0 0-.497-1.294 17.076 17.076 0 0 0-1.576-2.89c-.247-.37-.474-.663-.638-.863l-.252-.315s.064.132.18.362c.115.23.273.56.434.966.332.808.684 1.913.896 3.038.223 1.125.322 2.26.338 3.103.01.422 0 .77-.01 1.007-.016.23-.297 2.013-.297 2.013-.214.466-.415.922-.628 1.362a14.81 14.81 0 0 0-.766-3.992c-.12-.384-.252-.692-.338-.91-.088-.215-.137-.34-.137-.34l-.09.03.056.358c.037.23.094.552.125.944.085.78.112 1.823.01 2.842-.103 1.02-.315 2.013-.544 2.72-.107.357-.22.64-.297.833-.08.197-1.425 2.96-1.43 2.978 0 0 .35-.205.917-.638a17.26 17.26 0 0 0 2.172-2.014c.407-.46.84-.972 1.255-1.548.447-.557.797-1.223 1.215-1.883.363-.69.74-1.413 1.023-2.188.28-.776.594-1.564.732-2.402.082-.414.203-.823.248-1.242l.127-1.254c.127-.832.006-1.657-.027-2.45-.013-.198-.02-.393-.042-.588m-24.9 9.504c-.113.177-.2.382-.336.578-.123.2-.254.41-.39.628-.284.423-.577.874-.91 1.3-.327.43-.675.846-1.024 1.218-.342.38-.688.716-.992 1a20 20 0 0 1-1.066.936s.594-.077 1.38-.485c.792-.387 1.75-1.118 2.483-2.058.2-.22.346-.482.512-.72.162-.244.287-.505.412-.752.23-.504.403-.99.49-1.426.116-.425.136-.797.15-1.053.013-.254.01-.4.01-.4s-.087.125-.212.344c-.13.218-.29.534-.508.892m5.324-6.174l-.098.387c-.06.242-.104.59-.217.99-.085.407-.222.863-.358 1.346-.166.476-.344.974-.568 1.45a12.22 12.22 0 0 1-1.557 2.47c-.514.635-.934 1.044-.934 1.044s.596-.104 1.33-.607a5.23 5.23 0 0 0 1.125-1.016c.186-.21.36-.44.51-.693.166-.244.293-.515.426-.782.117-.273.213-.556.316-.83l.193-.834c.04-.273.055-.542.08-.79.023-.25-.006-.492-.008-.71-.006-.435-.1-.793-.146-1.04a6.925 6.925 0 0 0-.096-.386m7.567-34.714c.85-.263 1.68-.593 2.43-.975.75-.363 1.433-.763 1.976-1.167.547-.39.97-.767 1.22-1.07.26-.296.392-.47.392-.47l-.508.33c-.15.113-.36.217-.598.333-.23.125-.486.27-.79.387-.59.257-1.292.53-2.056.786-.758.266-1.588.506-2.404.78-.818.282-1.64.564-2.408.827-.775.253-1.504.49-2.125.69l-2.093.678s.89-.008 2.2-.177c.66-.07 1.423-.196 2.237-.35.812-.156 1.68-.336 2.527-.602m9.104-1.987c-.41.17-.834.348-1.266.526-.44.152-.877.337-1.32.506-.447.16-.88.358-1.324.512-.44.17-.87.336-1.297.477-.852.294-1.658.53-2.352.745l-1.69.466-.65.16s.978.014 2.435-.16a25.06 25.06 0 0 0 2.477-.41c.902-.184 1.86-.426 2.79-.76.93-.342 1.813-.804 2.606-1.286.39-.26.773-.49 1.117-.74.34-.262.652-.515.936-.752.266-.26.51-.495.725-.706.22-.205.362-.435.5-.596l.415-.527s-.19.152-.52.42c-.173.124-.353.307-.608.456l-.812.544c-.625.357-1.35.76-2.16 1.127m1.908 1.186c-1.145.628-1.893 1.1-1.893 1.1s.873-.16 2.12-.575a29.19 29.19 0 0 0 4.43-1.885c.774-.416 1.536-.86 2.22-1.327.688-.46 1.3-.938 1.79-1.387.257-.208.46-.443.647-.636.193-.19.342-.37.457-.53.23-.313.357-.49.357-.49l-.493.346a7.048 7.048 0 0 1-.566.384c-.224.14-.462.31-.743.47-1.1.67-2.607 1.488-4.133 2.287l-2.238 1.19a82.32 82.32 0 0 0-1.953 1.056m13.14-3.72c-.244.182-.605.415-1.04.68-.208.147-.462.262-.71.41-.244.153-.52.284-.803.426-.557.293-1.172.557-1.79.815-.62.256-1.253.48-1.85.696l-1.65.558c-.987.33-1.65.548-1.65.548s.71.133 1.77.045a10.94 10.94 0 0 0 1.786-.28c.324-.07.652-.17.986-.277.326-.12.668-.22.99-.377.652-.28 1.287-.61 1.84-.99a9.04 9.04 0 0 0 1.418-1.144 6.29 6.29 0 0 0 .834-.975c.174-.254.275-.397.275-.397l-.407.263m-18.982 11.11a20.65 20.65 0 0 0 2.603-.615c.818-.25 1.566-.527 2.19-.807l.833-.414c.248-.12.447-.27.615-.368l.524-.336-.588.2c-.188.06-.4.157-.668.22-.262.073-.555.157-.873.25-.652.145-1.402.32-2.22.456-.82.125-1.692.238-2.567.344-.875.13-1.75.26-2.57.38l-2.264.3-2.23.268s.89.18 2.246.26c.676.05 1.467.07 2.316.054.85-.003 1.758-.06 2.655-.192m1 2.318c.862-.054 1.798-.082 2.702-.288.906-.205 1.78-.532 2.586-.85a17.157 17.157 0 0 0 2.137-1.01c.61-.317 1.09-.637 1.422-.864.332-.22.52-.347.52-.347l-.578.245c-.362.162-.888.375-1.528.595a10.8 10.8 0 0 1-1.037.34c-.373.105-.756.238-1.168.327-.814.214-1.693.37-2.57.526-.87.19-1.738.402-2.566.55-.83.135-1.61.253-2.284.317-1.352.142-2.268.142-2.268.142s.896.203 2.275.286c.686.05 1.493.062 2.358.03m11.608-.99c.21-.153.377-.34.533-.483.16-.138.272-.29.366-.414.184-.245.277-.387.277-.387l-.41.238c-.123.08-.273.17-.46.26-.187.085-.38.202-.608.3a24.48 24.48 0 0 1-1.562.636c-.584.205-1.2.433-1.836.62-1.262.406-2.543.787-3.508 1.098-.968.305-1.616.557-1.616.557s.695.082 1.723.008c.514-.032 1.11-.102 1.744-.222a15.89 15.89 0 0 0 1.96-.49c1.316-.422 2.578-1.056 3.398-1.724m3.377 1.724c-.855.22-1.998.47-3.146.723-1.15.26-2.304.53-3.17.773-.868.236-1.448.454-1.448.454s.61.114 1.523.11c.912.008 2.12-.103 3.31-.364 1.187-.265 2.35-.692 3.15-1.164.4-.238.718-.458.915-.647.203-.182.31-.29.31-.29l-.405.116c-.247.086-.618.167-1.04.286m-25.88-6.79c-.21-.14-.53-.293-.937-.424a5.722 5.722 0 0 0-1.418-.252 7.396 7.396 0 0 0-1.63.086 7.73 7.73 0 0 0-2.817 1.063c-.707.435-1.082.892-1.082.892s.583.01 1.37-.074c.793-.075 1.8-.228 2.78-.405.495-.075.983-.178 1.444-.252.23-.02.457-.092.67-.11.213-.02.42-.077.61-.1.38-.05.714-.112.948-.136.24-.036.387-.068.387-.068s-.11-.087-.324-.22m-2.097 3.278a6.667 6.667 0 0 0-1.546-.124 7.603 7.603 0 0 0-2.78.612c-.726.307-1.15.663-1.15.663s.544.114 1.294.16c.377.03.81.044 1.264.053.45.005.932.014 1.402.006s.94-.016 1.38-.022c.218 0 .43-.005.638-.02.2.008.393.006.578-.01.355.018.68-.01.902.007.23 0 .375-.01.375-.01s-.082-.106-.254-.275c-.168-.18-.443-.38-.803-.58a5.34 5.34 0 0 0-1.3-.46M16.654 21.984c.722.605 1.85 1.446 3.454 2.22 1.597.778 3.66 1.507 6.116 1.942 1.227.226 2.546.342 3.943.42 1.392-.014 2.864.006 4.38-.182l1.153-.113 1.16-.198c.78-.147 1.586-.238 2.38-.44 1.587-.378 3.262-.784 4.872-1.285.913-.27 1.84-.555 2.778-.85-2.562 2.906-5.184 7.622-6.09 15.122-1.888 15.62 9.882 31.5 21.626 35.982 3.5 1.336 12.137 4.152 22.647 4.152 7.523 0 16.006-1.444 24.245-5.907 12.617-6.834 14.412-17.24 14.4-24.5a8.298 8.298 0 0 1 2.24 1.2c.93.71 1.626 1.634 1.916 2.705.07.26.133.558.153.805.018.113.028.268.03.446l.006.21-.01.188c-.036.5-.19.947-.48 1.336-.287.39-.708.724-1.2.986-.245.132-.51.243-.78.34-.262.092-.577.178-.796.217l-.81.724c-.69 2.037-1.736 4.115-2.904 6.013a32.647 32.647 0 0 1-4.1 5.32 30.604 30.604 0 0 1-5.076 4.34 30.664 30.664 0 0 1-2.86 1.716c-.49.272-.98.483-1.467.73-.515.22-1.096.484-1.568.668C101.8 78 97.415 79.27 92.94 79.98c-4.477.726-9.03.844-13.54.5-2.26-.172-4.5-.52-6.724-.958a56.278 56.278 0 0 1-6.584-1.72 57.05 57.05 0 0 1-6.344-2.498c-2.09-.97-4.01-2.026-5.758-3.445a29.882 29.882 0 0 1-4.81-4.758c-1.425-1.774-2.703-3.662-4.05-5.517-1.32-1.875-2.552-3.82-3.757-5.797a120.45 120.45 0 0 1-3.402-6.084c.607 2.263 1.43 4.46 2.35 6.62a57.847 57.847 0 0 0 3.152 6.32c1.172 2.052 2.578 3.974 4.15 5.76 1.55 1.797 3.178 3.552 5.03 5.1 1.817 1.584 3.975 2.832 6.058 3.902a58.975 58.975 0 0 0 6.522 2.873c4.47 1.627 9.15 2.73 13.91 3.15 4.753.46 9.565.218 14.27-.555a60.626 60.626 0 0 0 6.963-1.593c2.283-.674 4.54-1.445 6.72-2.392.604-.253 1.076-.486 1.624-.734.545-.285 1.117-.554 1.638-.857a33.514 33.514 0 0 0 3.078-1.94 33.25 33.25 0 0 0 5.405-4.833c1.615-1.797 3.017-3.784 4.21-5.87 1.098-1.927 2.012-3.92 2.684-6.095.178-.045.348-.104.526-.165.36-.128.716-.22 1.06-.406.688-.365 1.355-.87 1.867-1.56.52-.685.818-1.554.87-2.39l.013-.31-.008-.294a5.185 5.185 0 0 0-.037-.556 6.53 6.53 0 0 0-.22-1.167c-.41-1.53-1.43-2.85-2.626-3.753-.602-.457-1.245-.833-1.913-1.142a11.5 11.5 0 0 0-1.597-.595 102.4 102.4 0 0 0-.14-2.4 78.778 78.778 0 0 1-.09-1.473c-.213-4.77-5.003-12.315-9.917-17.36 1.514.398 3.016.682 4.492.802.387.03.77.063 1.15.096l1.11.023c.356.008.708.015 1.055.02.36-.03.723-.054 1.074-.097l1.043-.12c.335-.06.666-.116.992-.175a19.82 19.82 0 0 0 1.88-.396 25.203 25.203 0 0 0 5.976-2.26 19.282 19.282 0 0 0 3.384-2.275c.715-.606 1.04-.986 1.04-.986s-.378.33-1.165.818c-.783.492-1.984 1.128-3.58 1.738-1.6.605-3.604 1.148-5.938 1.45-.582.08-1.185.145-1.81.17-.312.018-.627.038-.946.058l-.96-.002c-.107 0-.222.003-.33.004.515-.197 1.03-.413 1.536-.647a22.777 22.777 0 0 0 1.492-.715c.487-.238.96-.488 1.405-.75.447-.26.892-.485 1.288-.742l1.13-.703c.698-.434 1.25-.84 1.65-1.105l.62-.423-.667.35c-.426.217-1.018.558-1.758.905-.37.176-.77.365-1.19.566-.418.207-.882.38-1.35.583a21.08 21.08 0 0 1-1.454.574c-.497.188-1.005.372-1.52.524-1.022.34-2.065.596-3.04.79-.977.19-1.892.306-2.667.333a9.934 9.934 0 0 1-1.824-.054c-.21-.02-.374-.06-.452-.075l-.14-.037-.01.04c-1.472-.343-2.983-.823-4.52-1.402.518-.05 1.047-.086 1.578-.176.63-.098 1.27-.18 1.897-.326.63-.13 1.26-.258 1.866-.433.608-.164 1.21-.31 1.776-.507 1.147-.35 2.19-.74 3.078-1.088.896-.326 1.606-.688 2.12-.897l.797-.35s-.3.1-.827.27c-.53.16-1.27.447-2.188.683-.912.258-1.978.54-3.136.77-.573.14-1.177.224-1.786.325-.606.112-1.23.176-1.85.24-.618.08-1.242.1-1.852.133-.61.044-1.21.01-1.787.018-.577-.038-1.135-.045-1.656-.113-.524-.05-1.013-.12-1.458-.204-.412-.076-.783-.16-1.115-.243-1.218-.545-2.456-1.108-3.726-1.68 1.517.073 3.12.07 4.72-.02.836-.02 1.667-.14 2.486-.205.818-.073 1.616-.223 2.39-.326.774-.104 1.51-.29 2.21-.422.705-.126 1.356-.314 1.96-.47.6-.167 1.158-.286 1.637-.45.48-.16.9-.296 1.243-.41l1.082-.355s-.402.1-1.105.272l-1.267.312c-.486.128-1.052.204-1.66.324-.608.11-1.263.247-1.97.318-.703.077-1.438.205-2.208.25-.77.044-1.562.133-2.37.145-.81.003-1.627.06-2.447.016a44.084 44.084 0 0 1-4.786-.344c-.76-.078-1.487-.223-2.178-.32-.686-.142-1.338-.245-1.928-.394a30.75 30.75 0 0 1-2.282-.588c-2.373-.866-4.84-1.627-7.416-2.134-3.984-.813-8.038-.896-12.065-.656-2.016.103-4.03.365-6.024.687-1.984.372-3.957.803-5.857 1.385-3.824 1.122-7.41 2.543-10.876 3.842a166.01 166.01 0 0 1-10.06 3.46c-1.64.527-3.182.914-4.71 1.3-.756.2-1.52.293-2.26.442l-1.1.202c-.367.04-.73.08-1.09.117-2.867.38-5.525.385-7.854.148-2.332-.22-4.34-.67-5.96-1.18a21.343 21.343 0 0 1-3.658-1.523c-.82-.43-1.224-.73-1.224-.73s.318.39 1.035 1.006m35.25-.157c.813-.285 1.63-.576 2.448-.876 3.514-1.246 7.057-2.714 10.728-3.784a49.246 49.246 0 0 1 11.364-2.018c.97-.075 1.942-.12 2.917-.128l1.416-.033 1.48.055 1.48.054 1.4.16 1.395.164 1.402.263c3.732.706 7.3 1.955 10.69 3.366 1.667.69 3.293 1.42 4.9 2.134l-.013.028.25.09c.034.013.076.024.112.037 1.55.687 3.08 1.358 4.605 1.96.087.036.175.067.263.103 5.468 4.04 12.466 13.737 12.702 19.037.02.448.056.957.093 1.52.42 6.263 1.296 19.297-13.165 27.13-19 10.293-39.422 3.86-45.228 1.645-11.054-4.22-22.13-19.168-20.354-33.873C44.12 27.852 49.294 23.4 51.905 21.83m81.806 32.64c-.232-.843-.39-1.28-.39-1.28s.253 1.852.286 5.058c.012 1.6-.05 3.544-.36 5.723-.06.552-.175 1.09-.267 1.655-.134.562-.25 1.228-.42 1.757-.296 1.18-.743 2.396-1.243 3.65-1.027 2.5-2.392 5.128-4.076 7.752-1.698 2.614-3.652 5.277-6.07 7.615-1.14 1.093-2.55 2.07-4.036 2.903a33.88 33.88 0 0 1-4.735 2.223c-1.295.5-2.63.936-3.98 1.336a53.707 53.707 0 0 1-5.503.082 40 40 0 0 1-2.275-.158 28.1 28.1 0 0 1-1.97-.283c-.57-.12-1.05-.22-1.376-.325-.33-.097-.518-.15-.518-.15l.488.23c.308.158.768.332 1.322.547.56.198 1.22.407 1.938.604.72.187 1.492.372 2.27.528.272.055.543.104.814.153-.326.07-.653.143-.98.208l.002-.016s-.88-.035-2.23-.163a62.855 62.855 0 0 1-4.922-.663c-1.78-.315-3.543-.745-4.843-1.15-.647-.212-1.188-.392-1.556-.544l-.584-.226.55.304c.345.202.857.456 1.477.757 1.246.586 2.96 1.264 4.714 1.83.825.268 1.655.512 2.446.73-.68.104-1.357.2-2.036.29-1.002-.103-2.43-.25-3.246-.327a62.855 62.855 0 0 1-4.92-.662c-1.78-.315-3.543-.745-4.843-1.15-.647-.212-1.188-.392-1.556-.544l-.584-.226.55.304c.345.2.857.455 1.477.756 1.246.586 2.96 1.264 4.714 1.83.766.25 1.533.475 2.273.68-1.213.116-2.418.242-3.643.284-.253.012-.505.04-.757.07-.32-.055-.682-.117-1.086-.195a54.31 54.31 0 0 1-5.386-1.3c-.97-.282-1.923-.612-2.806-.955-.447-.158-.857-.358-1.258-.526-.404-.164-.756-.372-1.098-.537-.347-.162-.628-.364-.897-.518a4.996 4.996 0 0 1-.665-.446l-.56-.42.505.487c.158.16.36.343.612.528.25.19.514.43.84.635.323.208.66.466 1.045.68.383.22.78.476 1.21.692.85.456 1.78.91 2.726 1.317.585.257 1.17.495 1.75.725-1.485-.054-2.943-.26-4.376-.32-.696-.03-1.377-.23-2.054-.342a35.408 35.408 0 0 1-3.866-2.13c-1.26-.8-2.452-1.706-3.294-2.456-.42-.376-.762-.7-.986-.943l-.363-.374.297.428c.184.278.47.657.827 1.104.716.89 1.77 2.01 2.914 3.036.306.276.617.544.928.804-1.236-.225-2.446-.437-3.6-.75-.114-.03-.227-.055-.34-.083a38.944 38.944 0 0 1-4.347-3.137c-1.195-1-2.294-2.112-3.037-3.024-.36-.462-.664-.852-.843-1.146l-.298-.453.224.495c.132.322.37.757.66 1.28.6 1.036 1.536 2.347 2.59 3.56.412.473.836.928 1.255 1.363-1.287-.38-2.485-.86-3.64-1.265-.266-.113-.52-.214-.782-.32a49.542 49.542 0 0 1-4.374-4.28c-1.17-1.298-2.24-2.687-2.966-3.786-.357-.554-.65-1.02-.828-1.362l-.297-.53.22.567c.13.366.354.87.633 1.48.57 1.204 1.45 2.76 2.448 4.245.476.714.976 1.408 1.462 2.056-1.5-.683-2.823-1.328-3.978-1.842l-.658-.312c-.06-.06-.145-.14-.254-.248a19.567 19.567 0 0 1-.927-1.013 26.355 26.355 0 0 1-3.606-5.41c-.322-.655-.61-1.28-.814-1.83a16.41 16.41 0 0 1-.478-1.34l-.167-.517s.02.195.06.54c.032.35.108.84.23 1.426.1.593.284 1.268.516 1.98.23.717.507 1.473.826 2.21a26.52 26.52 0 0 0 1.422 2.7l-.758-.36s.074.093.22.27c.143.18.37.44.68.753.616.64 1.58 1.513 2.908 2.492.672.474 1.416 1.01 2.277 1.5.84.533 1.793 1.026 2.827 1.52 1.022.522 2.164.954 3.34 1.475 1.207.442 2.457.964 3.806 1.38.673.212 1.36.426 2.06.647.702.213 1.432.37 2.167.57 1.466.417 3.02.665 4.605.988.792.175 1.612.21 2.433.337.825.098 1.653.2 2.502.248 1.697.108 3.428.135 5.197.135h2.688c.88 0 1.764.038 2.654-.003 1.77-.057 3.614-.117 5.448-.24 3.658-.348 7.372-.817 11.046-1.576 3.674-.75 7.317-1.747 10.785-3.132a35.576 35.576 0 0 0 5.02-2.422c1.6-.943 3.103-2.003 4.442-3.337 2.52-2.537 4.506-5.354 6.21-8.09 1.693-2.757 3.072-5.498 4.083-8.155.477-1.34.914-2.634 1.174-3.922.166-.69.22-1.247.324-1.858.062-.62.15-1.228.174-1.8a30.95 30.95 0 0 0-.98-9.644M56.04 98.1c-.547-.128-1.147-.352-1.807-.536-.2-.06-.416-.12-.627-.18l.008-.015s-.618-.287-1.553-.846c-.927-.55-2.138-1.35-3.265-2.268a21.91 21.91 0 0 1-1.603-1.416 18.49 18.49 0 0 1-1.288-1.363 13.24 13.24 0 0 1-.83-1.046l-.302-.408.23.454c.138.296.357.705.648 1.184.283.484.658 1.022 1.09 1.575.42.562.906 1.136 1.428 1.674.264.27.53.54.8.8-.51-.203-1.027-.41-1.524-.685a9.674 9.674 0 0 1-.145-.07 21.324 21.324 0 0 1-3.796-3.4c-.48-.548-.938-1.12-1.32-1.692-.396-.56-.72-1.12-.977-1.61a10.587 10.587 0 0 1-.57-1.215c-.126-.302-.2-.474-.2-.474l.118.5c.065.322.182.775.364 1.31.174.538.408 1.16.715 1.803.292.65.66 1.318 1.062 1.97.085.14.177.273.266.41-.07-.044-.145-.083-.215-.127-.772-.438-1.455-.987-2.17-1.44a58.3 58.3 0 0 1-1.108-.804 30.675 30.675 0 0 1-2.728-4.832 24.536 24.536 0 0 1-.885-2.22 20.604 20.604 0 0 1-.6-2.01 14.994 14.994 0 0 1-.304-1.458l-.098-.56.012.568c0 .362.02.88.083 1.502.056.62.145 1.348.296 2.115.134.775.33 1.592.555 2.4.198.72.428 1.424.667 2.094-.36-.287-.7-.566-1.02-.805-.436-.353-.84-.647-1.167-.895-.657-.495-1.067-.773-1.067-.773s.125.483.515 1.233c.19.377.443.823.77 1.308.326.484.72 1.012 1.19 1.553.703.82 1.59 1.648 2.575 2.494l.048.087.032-.02c.3.257.606.515.92.775.713.545 1.45 1.11 2.254 1.606.397.255.796.513 1.198.77l1.272.67c.84.465 1.722.844 2.596 1.2.86.39 1.765.623 2.61.92.84.317 1.71.432 2.502.634.8.185 1.57.274 2.283.33.713.055 1.357.147 1.94.123.58-.008 1.084-.043 1.497-.06.827-.055 1.293-.112 1.293-.112s-.458-.15-1.25-.367c-.395-.1-.873-.232-1.418-.354M34.4 48.94s-.31-.074-.88-.113c-.565-.062-1.37-.076-2.336-.085-1.933.005-4.512.23-7.043.77-1.265.27-2.51.643-3.658 1.037l-1.63.648c-.506.234-.982.46-1.414.685l-1.14.678c-.344.193-.604.43-.833.594l-.696.546.803-.37c.255-.116.55-.28.916-.41l1.2-.482c.455-.14.94-.308 1.448-.49l1.636-.475 1.768-.438c.61-.115 1.217-.288 1.84-.396 1.236-.254 2.475-.506 3.647-.703l3.21-.532c.946-.145 1.735-.267 2.287-.35.547-.084.875-.115.875-.115M23.41 43.17c.85.17 1.692.373 2.544.462.845.12 1.68.217 2.493.258.81.055 1.592.118 2.34.11.744 0 1.444.018 2.093-.046.646-.05 1.238-.093 1.762-.132.522-.07.974-.158 1.345-.216.742-.12 1.16-.21 1.16-.21s-.432-.042-1.177-.08c-.744-.022-1.802-.13-3.06-.272-.628-.042-1.303-.212-2.017-.3-.277-.034-.562-.086-.85-.138-.038-.024-.666-.415-1.642-.978-1.003-.577-2.368-1.318-3.66-2.183a44.77 44.77 0 0 1-1.862-1.318c-.585-.438-1.097-.887-1.544-1.27-.432-.393-.793-.728-1.022-.985l-.374-.393.297.454c.18.297.475.694.837 1.172.742.934 1.846 2.1 3.06 3.14.607.52 1.23 1.02 1.827 1.474-.69-.163-1.384-.35-2.083-.513-.707-.152-1.406-.334-2.107-.485l-.372-.25c-.854-.582-1.897-1.417-2.91-2.368a19.806 19.806 0 0 1-1.433-1.46c-.44-.484-.815-.97-1.124-1.394-.308-.427-.55-.795-.7-1.063l-.252-.415.182.45c.11.292.287.696.53 1.173s.54 1.028.91 1.59c.36.57.77 1.152 1.217 1.72.367.47.748.915 1.127 1.34-.734-.19-1.443-.385-2.114-.573-.004-.003-.004-.007-.01-.01-.23-.152-.56-.39-.95-.69-.77-.602-1.767-1.467-2.645-2.453a16.798 16.798 0 0 1-1.216-1.512c-.18-.253-.357-.498-.5-.745-.145-.244-.3-.468-.408-.693a9.694 9.694 0 0 1-.525-1.09l-.18-.424.125.443c.072.286.205.685.392 1.156.08.242.205.485.323.754.114.27.257.537.408.817a17.2 17.2 0 0 0 1.043 1.702 20.922 20.922 0 0 0 1.592 2.004c-2.084-.633-3.446-1.087-3.446-1.087s.35.255.996.637c.64.395 1.572.932 2.728 1.504 1.146.6 2.525 1.206 4.03 1.802 1.5.602 3.137 1.18 4.822 1.58M20.2 29.398c1.337.4 2.778.792 4.244 1.083.73.164 1.47.265 2.2.378.726.112 1.454.157 2.152.224.7.058 1.385.044 2.028.067.644.01 1.257-.037 1.817-.072.562-.028 1.075-.143 1.526-.197.453-.05.84-.165 1.154-.258l.983-.287-1.02.08c-.32.037-.707.063-1.158.053-.448-.008-.948.035-1.498-.014-.55-.054-1.14-.05-1.767-.116-.625-.078-1.285-.12-1.963-.236-.678-.11-1.382-.18-2.09-.326a68.625 68.625 0 0 1-2.153-.38c-1.446-.248-2.884-.56-4.236-.843-1.352-.288-2.6-.612-3.682-.864l-3.59-.917s1.34.656 3.435 1.42c1.043.4 2.282.798 3.62 1.205m113.845-2.663c-.57.188-1.15.356-1.735.525-.578.19-1.168.327-1.746.485-.576.17-1.155.263-1.713.394-1.12.187-2.178.357-3.093.404-.457.04-.876.03-1.25.044-.374 0-.7-.007-.968-.027a6.96 6.96 0 0 1-.844-.1s1.178.454 3.062.55c.47.033.978.04 1.517.033.54 0 1.104-.065 1.69-.105.58-.082 1.192-.126 1.798-.245a21.07 21.07 0 0 0 1.832-.382c1.22-.29 2.4-.728 3.477-1.187a34.315 34.315 0 0 0 2.867-1.406c.825-.436 1.472-.875 1.93-1.164l.714-.47-.803.294c-.515.173-1.214.498-2.09.793-.44.146-.902.328-1.396.515-.494.18-1.027.337-1.57.518-.535.203-1.11.346-1.68.532m7.393 1.424l-.88.485c-.335.156-.694.327-1.066.517l-1.215.517c-.86.322-1.772.673-2.713.962-.93.307-1.875.583-2.768.83l-2.45.665c-1.45.38-2.417.636-2.417.636s.254.02.693.013c.44-.013 1.07-.02 1.822-.092.75-.07 1.625-.186 2.553-.37a25.72 25.72 0 0 0 2.873-.732 21.913 21.913 0 0 0 2.767-1.104c.427-.217.828-.443 1.207-.66.37-.237.712-.472 1.024-.69.304-.233.564-.47.797-.675.238-.194.408-.41.562-.57.297-.33.45-.526.45-.526s-.22.133-.58.376c-.18.117-.383.282-.658.416M39.51 78.97c-.185-.368-.33-.745-.494-1.105-.29-.73-.57-1.42-.765-2.03-.09-.307-.224-.582-.288-.838-.07-.254-.147-.476-.207-.66-.124-.367-.21-.58-.21-.58s-.038.22-.082.61c-.042.39-.105.955-.047 1.628.022.337.024.71.11 1.09.077.38.115.796.247 1.2.133.403.227.84.403 1.25.177.413.334.845.56 1.24.417.812.934 1.568 1.482 2.22.554.647 1.127 1.2 1.67 1.608 1.068.845 1.947 1.135 1.947 1.135s-.57-.702-1.324-1.74c-.375-.522-.798-1.13-1.216-1.798-.42-.664-.85-1.38-1.23-2.12-.212-.358-.362-.75-.555-1.11M26.915 86.5c-.092-.262-.175-.553-.294-.842-.097-.3-.244-.598-.354-.923-.256-.64-.43-1.353-.625-2.063a25.25 25.25 0 0 1-.404-2.142l-.115-1.008c-.048-.323-.035-.63-.066-.916-.053-.572-.047-1.052-.06-1.394l-.03-.54-.18.508c-.054.164-.12.364-.192.593-.085.23-.118.497-.184.787-.057.29-.138.607-.16.948-.03.34-.083.698-.09 1.073.003.374-.005.764.008 1.16.04.392.067.794.13 1.19.073.397.118.8.236 1.18.095.387.206.763.333 1.12.223.727.554 1.364.92 1.856.36.494.764.84 1.064 1.05.308.212.522.285.522.285s-.03-.224-.104-.57c-.07-.347-.196-.812-.356-1.35M24.59 68.913l.23-.622-.452.483c-.138.16-.314.35-.502.582l-.544.835c-.207.307-.366.668-.55 1.048-.187.38-.336.8-.48 1.237-.163.434-.257.9-.364 1.372-.128.47-.162.96-.226 1.445a17.94 17.94 0 0 0-.09 1.456c.024.48.012.954.067 1.407.09.91.265 1.744.473 2.442.41 1.402.97 2.23.97 2.23s.01-.983-.012-2.38c-.007-.7-.025-1.505-.017-2.36l.008-1.318c.038-.446.015-.902.06-1.353.047-.45.066-.904.13-1.345.05-.442.11-.878.2-1.293.067-.422.14-.828.255-1.202.094-.38.16-.753.288-1.07l.283-.91c.106-.265.2-.495.275-.686m1.897-5.33c-.27.09-.537.265-.852.42-.3.177-.65.343-.966.593-.322.243-.682.482-1.002.79-.316.31-.673.61-.956.986-.29.37-.616.727-.85 1.146l-.377.61-.312.64c-.224.417-.35.865-.502 1.285-.11.434-.23.85-.272 1.257-.064.403-.08.79-.09 1.142-.004.708.07 1.292.16 1.693.04.21.08.336.112.452.022.112.025.176.025.176s.03-.047.076-.144a5.01 5.01 0 0 0 .164-.463c.13-.387.285-.93.492-1.556.086-.316.208-.65.33-1 .105-.354.268-.71.388-1.09.17-.36.284-.758.476-1.128.17-.382.357-.76.574-1.124.195-.377.437-.723.668-1.074.22-.36.517-.65.748-.982.24-.328.542-.58.784-.867.238-.294.52-.51.762-.736.245-.222.452-.46.676-.613.213-.173.4-.322.552-.447.305-.264.48-.413.48-.413l-.6.195c-.19.068-.422.153-.687.25m45.117 3.968c2.78 0 5.482-.372 8.028-1.106 13.21-3.81 16.165-19.927 14.107-27.878-1.785-6.895-9.992-16.603-22.652-16.603-2.21 0-4.503.298-6.813.885-15.886 4.032-17.89 15.88-17.67 22.585.498 15.197 13.308 22.118 25 22.118m-6.837-42.766c2.15-.545 4.276-.82 6.32-.82 12.7 0 19.44 10.175 20.716 15.102 1.544 5.966.075 21.764-12.726 25.456-2.365.682-4.88 1.028-7.473 1.028-15.433 0-22.67-10.138-23-20.184-.2-6.103 1.633-16.893 16.163-20.582m9.294 28.198c5.084-1.75 6.75-5.542 4.625-13l6.21-5.542S67.56 45.272 67.56 45.148s2.25-11.085 2.25-11.085-12.5 0-12.125 10.25S68.895 54.76 74.062 52.98m159.002 3c5.082-1.75 6.75-5.542 4.625-13l6.206-5.542s-17.332 10.834-17.332 10.71 2.25-11.085 2.25-11.085-12.5 0-12.125 10.25 11.205 10.447 16.374 8.667"/></svg>