<?xml version="1.0" encoding="utf-8"?>
<!-- Generator: Adobe Illustrator 15.0.0, SVG Export Plug-In . SVG Version: 6.00 Build 0)  -->
<!DOCTYPE svg PUBLIC "-//W3C//DTD SVG 1.1//EN" "http://www.w3.org/Graphics/SVG/1.1/DTD/svg11.dtd">
<svg version="1.1" id="Layer_1" xmlns="http://www.w3.org/2000/svg" xmlns:xlink="http://www.w3.org/1999/xlink" x="0px" y="0px"
	 width="305.834px" height="112px" viewBox="0 0 305.834 112" enable-background="new 0 0 305.834 112" xml:space="preserve">
<g>
	<polygon fill="#D72251" points="174.732,91 247.571,50.756 267.102,71 247.571,91.244 	"/>
	<polygon fill="#F0A733" points="229,83.535 188.71,83.399 229,61.14 	"/>
	<polygon fill="#0C3846" points="225,63.352 195.488,79.656 225,79.756 	"/>
	<polygon fill="#D72251" points="131.102,91 58.263,50.756 38.732,71 58.263,91.244 	"/>
	<polygon fill="#F0A733" points="77,83.535 117.29,83.399 77,61.14 	"/>
	<polygon fill="#0C3846" points="81,63.352 110.512,79.656 81,79.756 	"/>
</g>
<polygon fill="#F0A733" points="74.292,35.739 153.413,79.044 231.542,35.739 218.731,18.697 153.331,54.946 87.103,18.697 "/>
<polygon fill="#F0A733" points="119.829,19 153.126,37.225 186.005,19 "/>
</svg>
