<?xml version="1.0" encoding="utf-8"?>
<!-- Generator: Adobe Illustrator 15.0.0, SVG Export Plug-In . SVG Version: 6.00 Build 0)  -->
<!DOCTYPE svg PUBLIC "-//W3C//DTD SVG 1.1//EN" "http://www.w3.org/Graphics/SVG/1.1/DTD/svg11.dtd">
<svg version="1.1" id="Layer_1" xmlns="http://www.w3.org/2000/svg" xmlns:xlink="http://www.w3.org/1999/xlink" x="0px" y="0px"
	 width="305.834px" height="112px" viewBox="0 0 305.834 112" enable-background="new 0 0 305.834 112" xml:space="preserve">
<g>
	<circle fill="#D72251" cx="80.417" cy="56" r="42.672"/>
	<circle fill="#D72251" cx="225.417" cy="56" r="42.672"/>
	<circle fill="#F0A733" cx="80.417" cy="56" r="39.224"/>
	<path fill="#75A08A" d="M83,75.5c0,1.381-1.119,2.5-2.5,2.5l0,0c-1.381,0-2.5-1.119-2.5-2.5v-37c0-1.381,1.119-2.5,2.5-2.5l0,0
		c1.381,0,2.5,1.119,2.5,2.5V75.5z"/>
	<circle fill="#F0A733" cx="225.417" cy="56" r="39.224"/>
	<path fill="#75A08A" d="M228,75.5c0,1.381-1.119,2.5-2.5,2.5l0,0c-1.381,0-2.5-1.119-2.5-2.5v-37c0-1.381,1.119-2.5,2.5-2.5l0,0
		c1.381,0,2.5,1.119,2.5,2.5V75.5z"/>
</g>
</svg>
