<?xml version="1.0" encoding="utf-8"?>
<!-- Generator: Adobe Illustrator 15.0.0, SVG Export Plug-In . SVG Version: 6.00 Build 0)  -->
<!DOCTYPE svg PUBLIC "-//W3C//DTD SVG 1.1//EN" "http://www.w3.org/Graphics/SVG/1.1/DTD/svg11.dtd">
<svg version="1.1" id="Layer_1" xmlns="http://www.w3.org/2000/svg" xmlns:xlink="http://www.w3.org/1999/xlink" x="0px" y="0px"
	 width="305.834px" height="112px" viewBox="0 0 305.834 112" enable-background="new 0 0 305.834 112" xml:space="preserve">
<g>
	<defs>
		<rect id="nav-nose-10-id-1" x="-0.086" y="0.5" width="306.006" height="111"/>
	</defs>
	<clipPath id="nav-nose-10-id-2">
		<use xlink:href="#nav-nose-10-id-1"  overflow="visible"/>
	</clipPath>
	<path clip-path="url(#nav-nose-10-id-2)" fill="#FCDCA4" d="M-0.086,111.5h306V0.5h-306V111.5z M203.957,75.359
		c-3.674,5.625-11.754,10.808-11.754,10.808c0.916-2.583-1.414-8.792-11.789-5.755s-3.65,9.704-3.65,9.704s-9.475,8.415-23.85,8.415
		c-14.375,0-20.925-8.913-20.925-8.913s3.05-4.493-6.2-8.743s-13.565,3.619-13.565,3.619c-6.064,0.494-10.538-8.869-10.538-8.869
		C89.957,73.75,65.747,60.09,65.747,60.09l87.042-5.487l92.75-4.334C234.039,59.912,203.957,75.359,203.957,75.359"/>
	<path clip-path="url(#nav-nose-10-id-2)" fill="#D72251" d="M114.351,81.688c0,0,3.813,4.625,7.75,5.625c3.938,1,10.188-1.188,10.188-1.188
		S126.101,76.438,114.351,81.688"/>
	<path clip-path="url(#nav-nose-10-id-2)" fill="#D72251" d="M173.914,85.438c0,0,0.518-1.943,3.312-3.625
		c3.383-2.037,10.938-3.437,13.375,0.375c0,0-0.953,3.283-7.062,5C173.977,89.874,173.914,85.438,173.914,85.438"/>
	<path clip-path="url(#nav-nose-10-id-2)" fill="#0C3846" d="M305.914,0.5h-306v1h306V0.5z M128.666,102.864
		c-3.718-1.082-7.562-2.201-11.919-3.093C97.963,95.927,0.891,82.727-0.086,82.595v1.993c0.976,0.133,97.713,13.311,116.431,17.143
		c4.279,0.876,8.082,1.983,11.761,3.054c8.384,2.44,16.467,4.794,29.851,4.794c7.432,0,16.498-0.726,28.158-2.565
		c40.967-6.465,99.799-24.865,119.799-32.322v-2.159c-20,7.437-79.287,26.063-120.111,32.506
		C153.589,110.121,141.484,106.596,128.666,102.864 M100.819,76.996c0.655,1.292,1.455,2.509,2.412,3.599
		c1.12,1.291,2.422,2.442,3.918,3.321c1.493,0.863,3.183,1.584,4.997,1.584h0.001l0.566,0.088l0.42-0.678
		c0.212-0.34,0.561-0.791,0.894-1.149c0.073-0.077,0.153-0.146,0.228-0.221c1.1,1.226,3.71,3.735,7.345,4.679
		c1.144,0.296,2.343,0.409,3.51,0.409c2.541,0,4.921-0.537,6.206-0.888c0.004,0.057,0.016,0.113,0.018,0.17
		c0.006,0.229-0.014,0.455-0.047,0.666c-0.012,0.187-0.125,0.464-0.07,0.407v-0.001l0.02,1.295c0.762,0.834,1.52,1.521,2.33,2.215
		c0.117,0.099,0.24,0.19,0.359,0.288c0.012,0.056,0.02,0.094,0.02,0.094l0.064-0.026c0.672,0.547,1.359,1.072,2.072,1.564
		c0.309,0.213,0.625,0.414,0.942,0.617l0.002,0.005l0.003-0.002c0.434,0.276,0.872,0.542,1.318,0.798
		c-4.553-0.666-8.807-1.662-12.754-2.485c-2-0.46-3.905-0.964-5.723-1.409c-1.825-0.424-3.549-0.853-5.161-1.292
		c-3.246-0.812-6.075-1.519-8.405-2.102c-2.341-0.56-4.172-1.024-5.436-1.306c-1.264-0.288-1.938-0.441-1.938-0.441
		s0.621,0.307,1.809,0.819c1.189,0.509,2.94,1.258,5.208,2.082c1.129,0.429,2.39,0.873,3.763,1.352
		c1.387,0.443,2.885,0.922,4.487,1.433c3.207,1.014,6.895,1.92,10.907,2.943c4.048,0.888,8.409,1.962,13.119,2.688
		c1.172,0.203,2.36,0.41,3.563,0.619c1.204,0.202,2.447,0.281,3.691,0.43c1.247,0.133,2.508,0.267,3.781,0.4
		c0.658,0.064,1.224,0.144,1.97,0.195c0.64,0.01,1.28,0.019,1.925,0.028c2.549,0.118,5.276-0.133,7.973-0.29
		c2.66-0.302,5.369-0.537,8.055-0.98c5.406-0.75,10.822-1.845,16.232-2.951c5.393-1.18,10.758-2.477,16.006-3.857
		c5.258-1.354,10.396-2.813,15.361-4.248c4.959-1.458,9.725-2.959,14.23-4.455c2.236-0.748,4.471-1.534,6.529-2.314
		c2.066-0.761,4.09-1.465,6.035-2.115c3.889-1.298,7.492-2.389,10.699-3.228c1.604-0.412,3.107-0.809,4.492-1.092
		c1.361-0.316,2.697-0.546,3.674-0.554c0.164-0.006,0.338,0.029,0.4,0.032c0.02,0.022,0.049,0.057,0.047,0.058
		c-0.008-0.006-0.012-0.013-0.014-0.021c0.002-0.03,0.016-0.007,0.033-0.002c0.068,0.092-0.193,0.528-0.488,0.791
		c-0.605,0.587-1.279,1.03-1.809,1.375c-1.082,0.688-1.695,1.032-1.695,1.032s0.17-0.031,0.504-0.092
		c0.336-0.061,0.824-0.176,1.459-0.366c0.627-0.209,1.406-0.453,2.285-1.008c0.217-0.148,0.445-0.308,0.67-0.543
		c0.217-0.233,0.471-0.541,0.559-1.047c0.029-0.262,0.018-0.517-0.102-0.798c-0.031-0.07-0.064-0.141-0.102-0.209l-0.062-0.105
		l-0.057-0.09c0.01,0.008-0.104-0.128-0.074-0.091l-0.041-0.041l-0.088-0.08c-0.5-0.415-0.885-0.447-1.246-0.528
		c-1.43-0.226-2.768-0.023-4.256,0.154c-1.471,0.236-3.029,0.553-4.674,0.964c-3.285,0.824-6.938,1.89-10.885,3.16
		c-1.975,0.639-4.018,1.325-6.131,2.079c-2.111,0.773-4.221,1.49-6.475,2.221c-4.479,1.446-9.246,2.855-14.182,4.304
		c-4.943,1.416-10.061,2.857-15.291,4.192c-5.221,1.381-10.562,2.603-15.9,3.837c-5.354,1.151-10.715,2.291-16.029,3.082
		c-0.258,0.046-0.52,0.081-0.779,0.123c0.393-0.163,0.783-0.327,1.17-0.505c0.955-0.422,1.893-0.883,2.814-1.37
		c1.844-0.976,3.633-2.053,5.342-3.279h0.002l0.994-0.627l-0.939-0.952c-0.166-0.169-0.342-0.365-0.514-0.57
		c0.469,0.03,1,0.052,1.602,0.052c1.555,0,3.514-0.138,5.693-0.602c3.387-0.722,5.551-2.7,6.738-4.158
		c0.041,0.14,0.088,0.275,0.121,0.42c0.113,0.506,0.172,1.108,0.166,1.567l-0.32,2.162l1.869-1.221
		c1.654-1.079,3.189-2.219,4.709-3.432c1.518-1.206,2.955-2.515,4.338-3.895c0.875-0.892,1.725-1.816,2.529-2.787
		c4.965-2.891,31.172-18.196,42.549-25.62c20.699-0.704,40.695-1.172,59.037-1.296l-0.014-2
		c-65.682,0.442-152.465,5.302-216.834,9.551c-0.09-0.083-0.16-0.144-0.16-0.144l-0.107,0.161
		C37.667,60.915,0.74,63.901-0.086,63.97v2.003c0.694-0.057,26.891-2.175,65.587-4.854C76.596,68.244,96.436,75.445,100.819,76.996
		 M122.102,86.282c-3.009-0.781-5.266-2.896-6.262-3.978c0.625-0.377,1.297-0.672,2.004-0.863c0.968-0.252,1.98-0.388,3.016-0.346
		c1.035,0.034,2.083,0.206,3.119,0.479c0.459,0.117,1.116,0.299,1.56,0.452c0.494,0.162,0.996,0.364,1.474,0.575
		c0.948,0.438,1.817,0.991,2.538,1.639c0.51,0.46,0.925,0.991,1.227,1.571C129.085,86.27,125.257,87.102,122.102,86.282
		 M183.768,86.271c-3.895,0.83-7.064,0.522-8.141,0.373c-0.311-0.916-0.201-1.68,0.328-2.356c0.275-0.343,0.619-0.693,1.062-0.983
		c0.432-0.299,0.918-0.563,1.436-0.795c0.514-0.234,1.059-0.438,1.615-0.621l0.824-0.256l0.9-0.256
		c0.58-0.143,1.117-0.277,1.703-0.374c0.572-0.104,1.145-0.177,1.709-0.205c1.127-0.07,2.221,0.039,3.158,0.376
		c0.582,0.221,1.072,0.561,1.486,0.989C189.057,83.303,187.117,85.559,183.768,86.271 M225.85,61.867
		c-0.361-2.211-0.496-5.77,1.525-6.36c2.357-0.686,5.229,0.479,6.85,1.309C231.518,58.464,228.678,60.177,225.85,61.867
		 M207.27,52.845c0.053,0.054,0.105,0.107,0.166,0.172c0.328,0.343,0.799,0.843,1.342,1.446c0.262,0.307,0.545,0.639,0.844,0.99
		c0.268,0.36,0.549,0.741,0.842,1.135c0.123,0.201,0.248,0.404,0.375,0.611l0.195,0.312l0.127,0.315l0.287,0.633
		c0.205,0.502,0.176,0.518,0.459,0.992c0.445,0.785,0.984,1.173,1.574,1.572c0.586,0.369,1.217,0.596,1.838,0.717
		c0.621,0.118,1.234,0.142,1.807,0.04c0.285-0.051,0.557-0.099,0.812-0.203c0.26-0.077,0.492-0.198,0.705-0.336
		c0.223-0.113,0.406-0.271,0.572-0.423c0.176-0.14,0.305-0.309,0.418-0.473c0.256-0.299,0.348-0.634,0.457-0.873
		c0.084-0.253,0.094-0.467,0.123-0.6c0.021-0.135,0.035-0.207,0.035-0.207s-0.17,0.257-0.463,0.638
		c-0.186,0.166-0.355,0.396-0.639,0.555c-0.125,0.093-0.264,0.18-0.432,0.236c-0.154,0.072-0.312,0.145-0.5,0.173
		c-0.174,0.053-0.363,0.077-0.562,0.083c-0.189,0.031-0.396,0.01-0.602-0.005c-0.412-0.039-0.84-0.146-1.252-0.312
		c-0.408-0.179-0.803-0.407-1.141-0.688c-0.164-0.141-0.316-0.299-0.445-0.46c-0.057-0.084-0.115-0.168-0.178-0.247
		c-0.062-0.08-0.064-0.138-0.107-0.199c-0.055,0.005-0.201-0.555-0.219-0.578c-0.107-0.32-0.213-0.64-0.318-0.957l-0.176-0.469
		l-0.225-0.409c-0.152-0.271-0.301-0.538-0.449-0.801c-0.322-0.492-0.67-0.932-0.992-1.354c-0.342-0.395-0.678-0.762-0.994-1.086
		c-0.031-0.03-0.059-0.056-0.088-0.085c10.916-0.483,21.795-0.922,32.502-1.3c-2,1.267-4.264,2.673-6.684,4.155
		c-1.297-0.784-5.699-3.176-9.498-2.063c-4.236,1.235-3.268,7.553-2.855,9.521c-6.557,3.913-12.822,7.595-16.867,9.963
		c0.062-0.108,0.129-0.212,0.189-0.32c0.471-0.898,0.926-1.813,1.252-2.805c0.328-0.986,0.604-2.011,0.686-3.088
		c0.059-0.54,0.055-1.063,0.033-1.641l-0.049-0.713l-0.111-0.816c-0.35-2.101-1.219-4.096-2.48-5.769
		c-1.246-1.688-2.857-3.022-4.57-4.088c-0.348-0.216-0.705-0.411-1.062-0.603C203.057,53.036,205.164,52.939,207.27,52.845
		 M134.491,56.677c19.862-1.178,40.691-2.317,61.585-3.313c0.752,0.277,1.564,0.632,2.312,1.016
		c0.799,0.422,1.576,0.877,2.318,1.376c1.475,1.008,2.768,2.228,3.781,3.61c0.506,0.693,0.926,1.438,1.246,2.221
		c0.326,0.777,0.545,1.611,0.691,2.427l0.092,0.596l0.055,0.711c0.012,0.371,0.027,0.806-0.02,1.211
		c-0.051,0.825-0.266,1.656-0.529,2.476c-0.262,0.822-0.65,1.621-1.055,2.412c-0.43,0.781-0.898,1.553-1.424,2.294
		c-1.031,1.497-2.225,2.911-3.492,4.264c-1.275,1.348-2.639,2.621-4.039,3.861c-0.92,0.808-1.879,1.587-2.848,2.341
		c-0.002-0.023-0.002-0.045-0.004-0.068c-0.109-0.705-0.297-1.417-0.621-2.097c-0.623-1.372-1.861-2.522-3.252-3.103
		c-1.395-0.587-2.846-0.72-4.207-0.652c-0.684,0.025-1.355,0.102-2.012,0.212c-0.652,0.097-1.33,0.255-1.965,0.406l-0.904,0.242
		c-0.359,0.101-0.641,0.207-0.965,0.31c-0.625,0.217-1.25,0.462-1.867,0.754c-0.619,0.291-1.23,0.632-1.82,1.055
		c-0.588,0.412-1.164,0.94-1.623,1.602c-0.463,0.658-0.791,1.49-0.85,2.34c-0.074,0.854,0.125,1.662,0.41,2.363
		c0.293,0.707,0.699,1.308,1.139,1.855c0.17,0.21,0.348,0.397,0.525,0.587c-0.234,0.157-0.471,0.315-0.711,0.47
		c-0.064-0.025-0.158-0.062-0.277-0.107c-0.26-0.077-0.605-0.248-1.021-0.477c-0.213-0.105-0.416-0.271-0.648-0.419
		c-0.24-0.144-0.451-0.354-0.693-0.543c-0.244-0.188-0.457-0.432-0.697-0.655c-0.23-0.233-0.445-0.492-0.674-0.744
		c-0.861-1.045-1.578-2.238-2.051-3.167c-0.473-0.931-0.713-1.591-0.713-1.591s0.119,0.691,0.422,1.707
		c0.307,1.013,0.809,2.35,1.518,3.615c0.189,0.308,0.369,0.627,0.574,0.924c0.215,0.289,0.402,0.598,0.635,0.857
		c0.23,0.262,0.432,0.539,0.674,0.758c0.236,0.222,0.443,0.456,0.674,0.631c0.152,0.126,0.291,0.228,0.43,0.333
		c-0.564,0.324-1.125,0.651-1.703,0.952c-0.025-0.013-0.037-0.02-0.064-0.034c-0.273-0.12-0.633-0.378-1.074-0.682
		c-0.213-0.173-0.443-0.359-0.686-0.558c-0.23-0.22-0.475-0.451-0.729-0.691c-0.484-0.507-0.99-1.071-1.459-1.675
		c-0.945-1.201-1.785-2.507-2.369-3.513s-0.924-1.708-0.924-1.708s0.906,2.992,2.459,5.772c0.381,0.697,0.812,1.373,1.244,1.998
		c0.23,0.305,0.455,0.599,0.668,0.878c0.234,0.267,0.459,0.519,0.666,0.751c0.137,0.133,0.266,0.257,0.389,0.375
		c-0.379,0.177-0.758,0.351-1.143,0.518c-0.256-0.137-0.562-0.357-0.945-0.635c-0.207-0.182-0.434-0.379-0.672-0.587
		c-0.225-0.231-0.469-0.468-0.709-0.73c-0.473-0.534-0.959-1.132-1.404-1.769c-0.898-1.269-1.678-2.643-2.213-3.698
		c-0.535-1.057-0.84-1.79-0.84-1.79s0.75,3.095,2.193,5.999c0.354,0.729,0.764,1.436,1.178,2.09
		c0.213,0.323,0.439,0.626,0.646,0.922c0.234,0.278,0.455,0.543,0.66,0.787c0.068,0.068,0.129,0.132,0.195,0.196
		c-0.123,0.047-0.24,0.103-0.361,0.148c-0.256,0.098-0.516,0.184-0.773,0.275c-0.23-0.188-0.615-0.5-1.131-0.918
		c-0.217-0.155-0.389-0.396-0.607-0.613c-0.213-0.227-0.438-0.466-0.668-0.713c-0.246-0.237-0.439-0.535-0.662-0.818
		c-0.217-0.288-0.439-0.581-0.662-0.874c-0.213-0.3-0.4-0.618-0.6-0.924c-0.191-0.311-0.404-0.604-0.566-0.913
		c-0.332-0.611-0.668-1.176-0.902-1.687c-0.508-1.002-0.773-1.708-0.773-1.708s0.145,0.739,0.484,1.823
		c0.148,0.549,0.387,1.166,0.619,1.842c0.111,0.34,0.275,0.671,0.416,1.02c0.152,0.344,0.289,0.703,0.457,1.048
		c0.178,0.342,0.357,0.683,0.533,1.02c0.182,0.334,0.334,0.68,0.551,0.976c0.203,0.306,0.398,0.602,0.584,0.882
		c0.197,0.275,0.344,0.564,0.553,0.78c0.141,0.161,0.262,0.297,0.387,0.437c-0.027,0.008-0.055,0.019-0.08,0.025
		c-0.58,0.159-1.16,0.32-1.742,0.471c-0.043-0.032-0.145-0.109-0.332-0.252c-0.246-0.168-0.568-0.453-0.947-0.816
		c-0.195-0.173-0.373-0.401-0.584-0.622c-0.213-0.218-0.396-0.486-0.607-0.749c-0.412-0.534-0.803-1.149-1.172-1.783
		c-0.729-1.276-1.297-2.661-1.664-3.72c-0.369-1.062-0.539-1.797-0.539-1.797s0.045,0.753,0.234,1.874
		c0.193,1.119,0.527,2.609,1.061,4.061c0.271,0.722,0.576,1.44,0.922,2.092c0.178,0.323,0.332,0.647,0.527,0.93
		c0.189,0.285,0.348,0.571,0.537,0.808c0.129,0.174,0.246,0.319,0.363,0.468c-0.598,0.115-1.197,0.221-1.797,0.318
		c-0.119-0.144-0.238-0.288-0.377-0.455c-0.377-0.447-0.695-1.059-1.107-1.673c-0.424-0.61-0.712-1.354-1.092-2.058
		c-0.195-0.352-0.316-0.733-0.475-1.096c-0.146-0.366-0.301-0.725-0.433-1.078c-0.229-0.717-0.487-1.381-0.632-1.97
		c-0.346-1.166-0.482-1.971-0.482-1.971s0,0.204,0.03,0.559c0.019,0.357,0.067,0.865,0.146,1.474
		c0.055,0.614,0.209,1.313,0.328,2.077c0.078,0.378,0.179,0.764,0.27,1.16c0.104,0.393,0.169,0.806,0.311,1.195
		c0.275,0.779,0.463,1.603,0.805,2.312c0.289,0.627,0.518,1.242,0.792,1.754c-0.021,0.003-0.045,0.004-0.066,0.006
		c-0.573,0.014-1.151,0.013-1.733-0.006c-0.013-0.017-0.021-0.028-0.033-0.046c-0.124-0.188-0.297-0.376-0.43-0.632
		c-0.133-0.257-0.277-0.534-0.43-0.829c-0.148-0.298-0.329-0.601-0.473-0.939c-0.27-0.686-0.604-1.404-0.861-2.157
		c-0.251-0.756-0.533-1.507-0.729-2.232c-0.217-0.72-0.406-1.397-0.549-1.983c-0.304-1.168-0.459-1.961-0.459-1.961
		s0.03,0.806,0.15,2.015c0.051,0.605,0.135,1.309,0.239,2.062c0.083,0.759,0.247,1.556,0.382,2.362
		c0.143,0.806,0.368,1.599,0.539,2.355c0.095,0.376,0.234,0.805,0.344,1.147c0.107,0.319,0.209,0.975,0.305,0.975h-0.028
		c-0.278,0-0.554-0.124-0.83-0.15c-0.039-0.047-0.113-0.178-0.248-0.35c-0.195-0.219-0.425-0.607-0.708-1.052
		c-0.266-0.461-0.555-1.03-0.831-1.657c-0.267-0.632-0.535-1.323-0.767-2.03c-0.465-1.413-0.822-2.879-1.049-3.985
		c-0.228-1.106-0.332-1.857-0.332-1.857s-0.072,3.029,0.409,6.071c0.114,0.761,0.272,1.518,0.442,2.23
		c0.181,0.71,0.392,1.37,0.604,1.936c0.06,0.141,0.115,0.275,0.17,0.403c-0.61-0.059-1.223-0.117-1.826-0.176
		c-0.02-0.036-0.03-0.056-0.053-0.099c-0.07-0.129-0.154-0.284-0.25-0.463c-0.09-0.186-0.23-0.368-0.312-0.623
		c-0.092-0.248-0.19-0.518-0.294-0.802c-0.099-0.29-0.234-0.583-0.317-0.912c-0.164-0.656-0.389-1.349-0.529-2.067
		c-0.144-0.717-0.309-1.436-0.406-2.119c-0.114-0.682-0.209-1.322-0.272-1.872c-0.144-1.102-0.198-1.843-0.198-1.843
		s-0.07,0.738-0.115,1.854c-0.028,0.558-0.043,1.21-0.045,1.91c-0.019,0.701,0.023,1.448,0.045,2.201
		c0.02,0.753,0.127,1.505,0.184,2.217c0.027,0.355,0.118,0.698,0.17,1.026c0.062,0.329,0.119,0.64,0.174,0.928
		c0.002,0.012,0.006,0.023,0.01,0.036c-0.494-0.168-0.982-0.35-1.465-0.549c-0.035-0.056-0.07-0.114-0.123-0.202
		c-0.148-0.21-0.303-0.565-0.496-0.993c-0.174-0.441-0.354-0.978-0.506-1.576c-0.146-0.601-0.281-1.254-0.375-1.921
		c-0.406-2.669-0.289-5.432-0.289-5.432s-0.617,2.682-0.709,5.485c-0.029,0.7-0.017,1.407,0.021,2.075
		c0.036,0.534,0.104,1.029,0.182,1.491c-0.625-0.328-1.244-0.671-1.845-1.042c-0.024-0.063-0.052-0.136-0.086-0.205
		c-0.069-0.136-0.122-0.319-0.177-0.524c-0.122-0.402-0.209-0.924-0.274-1.49c-0.067-0.567-0.098-1.19-0.116-1.815
		c-0.052-2.338,0.213-4.706,0.248-5.021c0.281,0.112,0.563,0.224,0.85,0.309c0.435,0.118,0.867,0.235,1.299,0.353
		c0.852,0.271,1.73,0.331,2.574,0.49l0.317,0.049l0.079,0.012c0.102,0.014,0.073,0.007,0.115,0.012l0.152,0.009l0.613,0.038
		c0.404,0.025,0.807,0.051,1.204,0.077c0.796,0.046,1.573,0.092,2.331,0.137c0.779-0.029,1.536-0.058,2.27-0.085
		c0.73-0.031,1.435-0.033,2.102-0.15c1.337-0.176,2.561-0.312,3.614-0.64c1.068-0.229,1.949-0.621,2.682-0.877
		c0.709-0.339,1.264-0.596,1.604-0.844c0.355-0.219,0.521-0.366,0.521-0.366s-0.188,0.12-0.57,0.277
		c-0.367,0.187-0.955,0.352-1.672,0.599c-0.754,0.159-1.639,0.429-2.703,0.518c-0.532,0.047-1.079,0.172-1.676,0.19
		c-0.593,0.025-1.218,0.052-1.869,0.079c-0.648,0.056-1.324-0.005-2.021-0.039c-0.694-0.036-1.411-0.073-2.147-0.111
		c-0.753-0.096-1.525-0.194-2.314-0.295c-0.395-0.05-0.795-0.1-1.198-0.152l-0.606-0.077l-0.153-0.02
		c-0.009-0.002-0.089-0.009-0.038-0.007l-0.073-0.017l-0.291-0.064c-1.556-0.315-3.159-0.703-4.644-1.416
		c-0.77-0.297-1.467-0.742-2.193-1.134c-0.67-0.479-1.384-0.909-1.98-1.483c-1.252-1.072-2.33-2.348-3.145-3.75
		c-0.83-1.391-1.416-2.892-1.777-4.369c-0.103-0.369-0.17-0.736-0.22-1.104c-0.073-0.377-0.083-0.702-0.108-1.029
		c-0.047-0.27,0.017-0.83,0.01-1.064c0.068-0.33,0.076-0.642,0.179-0.979c0.326-1.328,0.871-2.616,1.403-3.776
		c1.074-2.336,2.162-4.232,2.931-5.543C133.953,57.561,134.28,57.019,134.491,56.677 M108.657,58.991
		c0.627-0.319,1.301-0.617,1.929-0.854c6.955-0.438,14.089-0.876,21.365-1.311c-0.076,0.116-0.152,0.232-0.234,0.358
		c-0.414,0.664-0.92,1.469-1.465,2.418c-0.543,0.95-1.156,2.022-1.74,3.256c-0.574,1.239-1.172,2.6-1.578,4.217
		c-0.119,0.39-0.159,0.853-0.237,1.285c-0.014,0.543-0.062,0.771-0.026,1.294c0.023,0.469,0.049,0.948,0.129,1.37
		c0.059,0.44,0.138,0.879,0.254,1.309c0.414,1.736,1.16,3.427,2.135,5c0.968,1.581,2.232,3.013,3.684,4.201
		c0.696,0.634,1.512,1.112,2.283,1.63c0.828,0.424,1.621,0.917,2.493,1.206c0.142,0.053,0.282,0.109,0.422,0.165
		c-0.096,0.296-0.817,2.562-1.237,4.944c-0.109,0.64-0.205,1.287-0.254,1.909c-0.025,0.301-0.041,0.595-0.048,0.879
		c-0.319-0.233-0.634-0.473-0.944-0.717c-0.039-0.127-0.062-0.29-0.09-0.468c-0.062-0.376-0.093-0.85-0.104-1.362
		c-0.013-0.515,0.004-1.072,0.028-1.633c0.119-2.245,0.494-4.505,0.494-4.505s-0.856,2.111-1.479,4.344
		c-0.152,0.558-0.296,1.122-0.404,1.668c-0.036,0.187-0.067,0.365-0.097,0.546c-0.253-0.233-0.484-0.467-0.719-0.704
		c0.045-0.124,0.084-0.246,0.129-0.376c0.095-0.353,0.156-0.701,0.185-1.05c0.056-0.697,0.007-1.4-0.153-2.079
		c-0.334-1.358-1.094-2.577-2.031-3.531c-0.934-0.973-2.063-1.648-3.192-2.212c-0.575-0.269-1.142-0.51-1.741-0.719
		c-0.65-0.227-1.102-0.375-1.764-0.538c-1.204-0.294-2.456-0.479-3.733-0.497c-0.638-0.009-1.283,0.028-1.926,0.118
		c-0.644,0.074-1.28,0.248-1.902,0.45c-1.243,0.417-2.413,1.075-3.403,1.928c-0.49,0.434-0.937,0.91-1.333,1.424
		c-0.266,0.351-0.497,0.691-0.712,1.08c-1.131-0.196-2.23-0.85-3.224-1.534c-1.188-0.818-2.276-1.821-3.179-2.977
		c-1.803-2.307-3.04-5.071-3.426-7.962c-0.054-0.357-0.083-0.729-0.11-1.08c-0.021-0.337-0.038-0.692-0.033-1.107
		c0.003-0.695,0.032-1.387,0.181-2.054c0.266-1.338,0.856-2.598,1.726-3.693c0.844-1.116,1.935-2.094,3.165-2.904
		C107.355,59.723,107.988,59.325,108.657,58.991 M97.339,58.982c2.417-0.156,4.861-0.313,7.33-0.471
		c-1.179,0.768-2.291,1.685-3.232,2.807c-0.362,0.438-0.68,0.914-0.977,1.407c-0.834-0.017-2.096-0.21-2.757-0.961
		C97.181,61.173,97.064,60.234,97.339,58.982 M78.618,60.222c3.215-0.218,6.498-0.437,9.841-0.657
		c0.061,0.043,0.116,0.08,0.181,0.131c0.26,0.206,0.525,0.473,0.777,0.786c0.074,0.149,0.195,0.244,0.284,0.462l0.112,0.366
		l0.057,0.185c-0.005-0.084,0.004,0.042,0.008,0.055c0.065,0.306-0.138,0.66-0.486,0.926c-0.336,0.269-0.739,0.455-1.088,0.59
		c-0.709,0.27-1.224,0.353-1.224,0.353s0.513,0.052,1.3-0.032c0.392-0.048,0.855-0.123,1.349-0.339
		c0.248-0.103,0.496-0.267,0.729-0.488c0.215-0.238,0.415-0.562,0.459-0.918l0.016-0.133l-0.001-0.067l-0.018-0.033v-0.094
		l0.011-0.193l0.004-0.382c-0.028-0.269-0.147-0.617-0.239-0.917c-0.059-0.14-0.129-0.261-0.193-0.391
		c1.547-0.102,3.106-0.204,4.679-0.307c-0.253,1.675,0.068,3.031,0.96,4.038c0.926,1.044,2.268,1.439,3.351,1.583
		c-0.164,0.453-0.303,0.916-0.405,1.388c-0.206,0.883-0.282,1.786-0.28,2.677c0.001,0.378,0.023,0.816,0.057,1.272
		c0.039,0.439,0.08,0.859,0.15,1.286c0.164,1.063,0.427,2.11,0.768,3.131c-1.242-0.45-2.876-1.053-4.779-1.778
		c0.003-0.018,0.007-0.029,0.012-0.046c0.129-0.53,0.316-1.284,0.461-2.219c0.134-0.938,0.246-2.042,0.134-3.329
		c-0.102-0.653-0.167-1.338-0.643-2.135c-0.109-0.192-0.298-0.394-0.46-0.576l-0.065-0.067l-0.016-0.017l-0.084-0.069l-0.024-0.016
		l-0.091-0.064l-0.184-0.128c-0.165-0.105-0.449-0.255-0.669-0.341c-0.222-0.059-0.444-0.146-0.669-0.156
		c-0.915-0.107-1.698,0.164-2.292,0.473c-0.606,0.313-1.115,0.653-1.562,0.974c-0.218,0.151-0.437,0.304-0.615,0.402l-0.068,0.04
		c0.037-0.007-0.043,0.022-0.059,0.03l-0.184,0.08c-0.093,0.031-0.166,0.076-0.277,0.106c-0.415,0.14-0.841,0.188-1.223,0.186
		c-0.773-0.003-1.323-0.393-1.558-0.838c-0.108-0.219-0.191-0.411-0.221-0.548c-0.04-0.139-0.061-0.212-0.061-0.212
		c0.025,0-0.108,0.295-0.03,0.865c0.053,0.279,0.171,0.636,0.453,0.976c0.278,0.344,0.723,0.608,1.224,0.765
		c0.503,0.164,1.068,0.208,1.668,0.164c0.144-0.005,0.321-0.042,0.486-0.067l0.196-0.045c0.047-0.014,0.033-0.002,0.131-0.037
		l0.118-0.039c0.323-0.107,0.586-0.232,0.859-0.353c0.53-0.236,1.02-0.498,1.498-0.658c0.478-0.169,0.905-0.222,1.184-0.147
		c0.078,0.001,0.132,0.058,0.2,0.069c0.049,0.043,0.037,0.024,0.123,0.078l0.172,0.145l0.085,0.072l0.022,0.018l0.005,0.005
		c-0.031-0.025,0.077,0.063-0.067-0.056l0.001,0.006l0.006,0.017c0.017,0.055,0.051,0.06,0.081,0.127
		c0.14,0.229,0.212,0.738,0.248,1.19c0.068,0.959-0.024,1.96-0.114,2.805c-0.074,0.694-0.154,1.292-0.228,1.762
		c-4.385-1.71-9.756-3.921-14.912-6.346C78.594,64.449,79.347,62.448,78.618,60.222 M76.419,60.37
		c0.834,1.778,0.146,3.464-0.323,4.289c-2.523-1.228-4.955-2.498-7.15-3.779C71.391,60.712,73.883,60.542,76.419,60.37
		 M37.627,95.744c0.414-0.024,0.727-0.382,0.702-0.795c-0.026-0.413-0.377-0.727-0.796-0.702c-2.587,0.167-10.16-0.327-10.237-0.332
		c-0.404-0.021-0.771,0.286-0.797,0.699c-0.027,0.413,0.286,0.771,0.699,0.797c0.268,0.018,5.697,0.369,8.96,0.369
		C36.726,95.78,37.229,95.77,37.627,95.744 M41.02,99.421c-2.386-0.343-9.205,0.139-9.493,0.16
		c-0.413,0.029-0.724,0.389-0.695,0.802c0.028,0.395,0.357,0.696,0.747,0.696c0.018,0,0.036-0.001,0.054-0.002
		c0.07-0.006,6.945-0.489,9.175-0.172c0.413,0.064,0.789-0.227,0.848-0.636C41.714,99.859,41.43,99.479,41.02,99.421
		 M38.914,106.194c-2.317,0-8.623,0.114-8.686,0.115c-0.415,0.011-0.742,0.253-0.73,0.667c0.01,0.406,0.344,0.523,0.749,0.523h0.02
		c0.063,0,6.35,0.026,8.647,0.026c0.414,0,0.75-0.141,0.75-0.556C39.664,106.557,39.328,106.194,38.914,106.194 M29.976,83.906
		l10.667,1.5c0.035,0.005,0.07,0.007,0.105,0.007c0.368,0,0.689-0.271,0.742-0.646c0.057-0.41-0.228-0.789-0.638-0.848l-10.667-1.5
		c-0.412-0.052-0.79,0.229-0.848,0.639C29.28,83.47,29.565,83.848,29.976,83.906 M43.415,79.246c0.387,0,0.716-0.299,0.746-0.692
		c0.032-0.413-0.277-0.773-0.69-0.806c-2.118-0.163-12.68-1.646-12.786-1.662c-0.414-0.053-0.79,0.229-0.848,0.639
		c-0.057,0.411,0.228,0.789,0.639,0.848c0.436,0.061,10.715,1.505,12.88,1.672C43.376,79.245,43.395,79.246,43.415,79.246
		 M27.165,72.146c-0.022,0.414,0.296,0.788,0.71,0.81l9.667,0.544h0.039c0.396,0,0.728-0.352,0.748-0.752
		c0.022-0.414-0.296-0.807-0.71-0.828l-9.667-0.494C27.525,71.386,27.186,71.732,27.165,72.146 M33.671,67.573
		c1.872-0.229,7.103-0.762,8.795-0.503c0.407,0.061,0.792-0.218,0.855-0.627s-0.218-0.792-0.627-0.855
		c-2.243-0.346-8.922,0.463-9.205,0.497c-0.411,0.051-0.703,0.425-0.654,0.835c0.047,0.381,0.371,0.659,0.744,0.659
		C33.609,67.579,33.64,67.577,33.671,67.573 M36.958,5.943C33.985,5.069,25.78,6.691,25.433,6.761
		c-0.406,0.082-0.669,0.477-0.588,0.883c0.071,0.355,0.384,0.603,0.734,0.603c0.049,0,0.098-0.005,0.148-0.015
		c2.268-0.453,8.631-1.49,10.809-0.849c0.394,0.114,0.814-0.11,0.931-0.509C37.583,6.478,37.356,6.061,36.958,5.943 M21.332,11.436
		c-0.033,0.413,0.274,0.774,0.688,0.808c0.216,0.019,4.591,0.37,7.146,0.37c0.447,0,0.839-0.011,1.143-0.036
		c0.413-0.035,0.72-0.396,0.686-0.81c-0.035-0.413-0.398-0.708-0.81-0.686c-1.919,0.159-7.984-0.329-8.044-0.334
		C21.736,10.72,21.366,11.022,21.332,11.436 M20.497,17.663c0,0.414,0.336,0.75,0.75,0.75c0.176,0,0.451-0.053,1.379-0.235
		c2.164-0.43,7.232-1.433,9.282-0.951c0.404,0.096,0.808-0.155,0.902-0.559c0.095-0.403-0.155-0.807-0.558-0.902
		c-2.366-0.555-7.467,0.454-9.918,0.939c-0.563,0.111-0.962,0.193-1.111,0.208C20.82,16.927,20.497,17.257,20.497,17.663
		 M35.968,25.468c-1.269,0.507-6.251,1.614-8.708,2.128c-0.406,0.085-0.665,0.482-0.58,0.888c0.073,0.354,0.385,0.597,0.733,0.597
		c0.051,0,0.103-0.005,0.154-0.016c0.295-0.062,7.251-1.521,8.959-2.205c0.384-0.154,0.571-0.591,0.417-0.974
		C36.79,25.499,36.353,25.315,35.968,25.468 M24.097,33.73c0.638,0.131,4.993,0.995,8.147,0.995c1.098,0,2.05-0.104,2.651-0.381
		c0.375-0.174,0.54-0.62,0.366-0.996c-0.175-0.376-0.619-0.54-0.995-0.366c-1.414,0.653-6.804-0.097-9.869-0.721
		c-0.401-0.085-0.801,0.179-0.885,0.584C23.429,33.252,23.691,33.648,24.097,33.73 M27.443,41.579
		c3.199-0.126,8.808,0.006,10.244,0.891c0.123,0.074,0.258,0.11,0.393,0.11c0.251,0,0.497-0.127,0.639-0.357
		c0.217-0.353,0.107-0.814-0.246-1.031c-2.295-1.411-10.195-1.146-11.089-1.11c-0.414,0.016-0.736,0.364-0.72,0.778
		C26.681,41.273,27.05,41.632,27.443,41.579 M41.292,46.758c-0.131-0.392-0.556-0.6-0.949-0.474
		c-3.811,1.271-10.973,0.803-11.045,0.798c-0.415-0.022-0.771,0.283-0.799,0.697c-0.028,0.413,0.284,0.771,0.697,0.799
		c0.127,0.009,1.455,0.096,3.258,0.096c2.523,0,5.976-0.171,8.363-0.966C41.21,47.577,41.422,47.152,41.292,46.758 M31.028,53.582
		c-0.413,0.028-0.725,0.388-0.696,0.8c0.027,0.396,0.357,0.698,0.747,0.698c0.018,0,0.036-0.001,0.053-0.002l7.167-0.5
		c0.413-0.027,0.725-0.387,0.696-0.8c-0.029-0.413-0.395-0.716-0.8-0.696L31.028,53.582z M40.155,21.216
		c-0.063-0.41-0.45-0.689-0.856-0.627c-2.115,0.326-14.159,1.316-14.28,1.327c-0.413,0.033-0.72,0.396-0.687,0.809
		c0.033,0.392,0.361,0.688,0.747,0.688c0.021,0,0.042-0.001,0.063-0.003c0.497-0.04,12.218-1.005,14.386-1.339
		C39.937,22.008,40.218,21.625,40.155,21.216 M190.537,45.788c-0.41-0.381-0.842-0.783-1.287-1.199
		c-0.879-0.849-1.822-1.739-2.75-2.656c-0.932-0.914-1.865-1.829-2.74-2.686c-0.893-0.846-1.732-1.638-2.48-2.296
		c-0.736-0.67-1.383-1.208-1.844-1.58c-0.461-0.374-0.742-0.578-0.742-0.578s0.115,0.328,0.377,0.865
		c0.252,0.543,0.656,1.289,1.197,2.146c0.545,0.854,1.223,1.822,2.027,2.797c0.795,0.981,1.727,1.962,2.711,2.887
		c0.984,0.927,2.033,1.791,3.066,2.536c0.535,0.35,1.053,0.688,1.541,1.008c0.506,0.301,1.004,0.549,1.449,0.795
		c0.461,0.227,0.906,0.394,1.283,0.559c0.373,0.178,0.742,0.251,1.023,0.346c0.574,0.166,0.904,0.238,0.904,0.238
		s-0.262-0.231-0.719-0.597c-0.469-0.343-1.086-0.91-1.84-1.528C191.346,46.517,190.963,46.145,190.537,45.788 M195.303,41.881
		c0,0-0.234-0.255-0.656-0.657c-0.211-0.198-0.461-0.446-0.76-0.704c-0.289-0.272-0.635-0.537-0.979-0.883
		c-0.672-0.716-1.502-1.466-2.363-2.303c-0.418-0.438-0.863-0.873-1.316-1.313c-0.453-0.441-0.932-0.865-1.381-1.331
		c-0.908-0.914-1.871-1.77-2.748-2.611c-0.443-0.415-0.887-0.802-1.312-1.166c-0.412-0.376-0.811-0.728-1.191-1.039
		c-0.752-0.635-1.398-1.146-1.865-1.496c-0.467-0.352-0.748-0.543-0.748-0.543s0.133,0.313,0.414,0.825s0.691,1.244,1.262,2.055
		c0.543,0.835,1.25,1.749,2.043,2.701c0.777,0.963,1.717,1.896,2.654,2.826c0.941,0.928,1.998,1.749,2.963,2.527
		c0.486,0.388,1.027,0.688,1.502,1.008c0.477,0.318,0.949,0.589,1.377,0.844c0.424,0.263,0.885,0.41,1.256,0.579
		c0.375,0.163,0.713,0.283,0.984,0.388C194.986,41.789,195.303,41.881,195.303,41.881 M195.363,33.962
		c-0.359-0.518-0.887-1.246-1.561-2.076c-0.664-0.84-1.48-1.777-2.371-2.765c-0.896-0.98-1.885-1.995-2.9-2.98
		c-2.029-1.975-4.201-3.798-5.922-5.074c-1.713-1.283-2.984-2.004-2.984-2.004s0.764,1.246,2.105,2.912
		c1.334,1.674,3.234,3.782,5.277,5.74c1.02,0.981,2.07,1.933,3.08,2.796c1.018,0.856,1.982,1.639,2.846,2.273
		c0.855,0.645,1.602,1.146,2.131,1.488s0.85,0.521,0.85,0.521S195.725,34.479,195.363,33.962 M186.385,19.146
		c0.709,0.723,1.461,1.496,2.262,2.215c0.402,0.359,0.801,0.721,1.209,1.06c0.395,0.353,0.828,0.655,1.205,0.986
		c0.77,0.651,1.521,1.226,2.193,1.694c1.328,0.951,2.355,1.461,2.355,1.461s-0.523-0.998-1.52-2.312
		c-0.49-0.664-1.094-1.409-1.779-2.173c-0.686-0.762-1.473-1.509-2.275-2.242c-0.807-0.729-1.639-1.429-2.453-2.044
		c-0.82-0.612-1.607-1.154-2.307-1.589c-1.383-0.888-2.434-1.315-2.434-1.315s0.15,0.24,0.436,0.637
		c0.287,0.392,0.707,0.944,1.234,1.569C185.037,17.726,185.674,18.428,186.385,19.146 M115.268,27.011
		c0.291-0.442,0.649-0.923,0.995-1.467c0.353-0.539,0.736-1.123,1.14-1.74c0.415-0.622,0.88-1.262,1.312-1.952
		c0.431-0.681,0.913-1.407,1.336-2.103c0.435-0.747,0.878-1.507,1.32-2.266c0.449-0.756,0.845-1.541,1.263-2.297
		c0.398-0.766,0.731-1.545,1.066-2.294c0.34-0.746,0.651-1.477,0.928-2.175c0.297-0.69,0.531-1.365,0.738-1.99
		c0.434-1.242,0.747-2.296,0.938-3.042c0.189-0.748,0.275-1.186,0.275-1.186s-1.066,1.433-2.427,3.655
		c-0.337,0.557-0.7,1.16-1.086,1.798c-0.394,0.634-0.791,1.31-1.182,2.018c-0.403,0.701-0.808,1.434-1.203,2.183
		c-0.42,0.732-0.875,1.461-1.277,2.219c-0.409,0.754-0.818,1.508-1.221,2.25c-0.399,0.764-0.792,1.517-1.173,2.244
		c-0.384,0.718-0.709,1.439-1.042,2.108c-0.334,0.67-0.572,1.368-0.825,1.976c-0.507,1.227-0.83,2.285-1.027,3.033
		c-0.112,0.366-0.169,0.669-0.21,0.873c-0.041,0.202-0.063,0.311-0.063,0.311s0.06-0.093,0.173-0.267
		c0.105-0.177,0.286-0.421,0.499-0.741C114.726,27.84,114.993,27.458,115.268,27.011 M127.541,16.84
		c0.51-1.421,0.855-2.634,1.099-3.476c0.218-0.852,0.321-1.347,0.321-1.347s-0.274,0.426-0.722,1.183
		c-0.467,0.747-1.1,1.821-1.829,3.115c-0.391,0.636-0.804,1.326-1.219,2.066c-0.439,0.726-0.833,1.534-1.337,2.302
		c-0.483,0.781-1.002,1.574-1.479,2.411c-0.244,0.409-0.49,0.823-0.735,1.238l-0.827,1.24c-1.071,1.677-2.142,3.354-3.106,4.947
		c-0.977,1.581-1.822,3.13-2.509,4.47c-0.729,1.309-1.153,2.528-1.48,3.34c-0.312,0.824-0.471,1.297-0.471,1.297
		s0.32-0.399,0.844-1.103c0.258-0.353,0.579-0.775,0.919-1.271c0.328-0.5,0.776-1.025,1.222-1.622
		c0.453-0.592,0.948-1.228,1.442-1.919c0.493-0.689,1.07-1.397,1.603-2.161c0.542-0.762,1.126-1.533,1.675-2.345
		c0.547-0.812,1.101-1.639,1.657-2.464l0.806-1.254c0.248-0.442,0.496-0.884,0.742-1.321c0.494-0.865,0.932-1.745,1.375-2.582
		c0.473-0.825,0.764-1.693,1.109-2.485C126.977,18.305,127.274,17.544,127.541,16.84 M125.414,28.5
		c-0.451,0.432-1.074,1.063-1.769,1.862c-0.704,0.792-1.494,1.736-2.279,2.795c-0.784,1.061-1.582,2.214-2.343,3.396
		c-0.36,0.616-0.719,1.233-1.056,1.85c-0.339,0.633-0.667,1.182-0.964,1.86c-0.473,1.225-0.895,2.377-1.209,3.388
		c-0.34,0.992-0.53,1.887-0.64,2.508c-0.117,0.619-0.157,0.975-0.157,0.975s0.224-0.288,0.57-0.801
		c0.337-0.513,0.819-1.245,1.397-2.124c0.583-0.883,1.206-1.939,1.852-3.082c0.345-0.528,0.701-1.073,1.063-1.63
		c0.366-0.565,0.72-1.148,1.073-1.733c0.75-1.167,1.473-2.354,2.111-3.495c0.623-1.149,1.224-2.215,1.674-3.171
		c0.47-0.944,0.815-1.764,1.054-2.34c0.237-0.577,0.352-0.923,0.352-0.923S125.863,28.066,125.414,28.5 M124.524,38.987
		c-0.894,0.952-1.903,2.335-2.729,3.831c-0.418,0.742-0.779,1.524-1.084,2.27c-0.313,0.738-0.525,1.484-0.678,2.12
		c-0.18,0.623-0.212,1.212-0.248,1.595c-0.026,0.392-0.019,0.616-0.019,0.616s0.169-0.167,0.424-0.46
		c0.265-0.294,0.571-0.713,0.977-1.218c0.414-0.5,0.81-1.105,1.26-1.761c0.438-0.657,0.855-1.379,1.271-2.11
		c0.803-1.474,1.5-3.016,1.893-4.253c0.42-1.221,0.551-2.133,0.551-2.133S125.392,38.019,124.524,38.987"/>
	<rect x="-0.086" y="110.5" clip-path="url(#nav-nose-10-id-2)" fill="#0C3846" width="306" height="1"/>
</g>
</svg>
