<?xml version="1.0" encoding="utf-8"?>
<!-- Generator: Adobe Illustrator 15.0.0, SVG Export Plug-In . SVG Version: 6.00 Build 0)  -->
<!DOCTYPE svg PUBLIC "-//W3C//DTD SVG 1.1//EN" "http://www.w3.org/Graphics/SVG/1.1/DTD/svg11.dtd">
<svg version="1.1" id="Layer_1" xmlns="http://www.w3.org/2000/svg" xmlns:xlink="http://www.w3.org/1999/xlink" x="0px" y="0px"
	 width="305.834px" height="112px" viewBox="0 0 305.834 112" enable-background="new 0 0 305.834 112" xml:space="preserve">
<g>
	<defs>
		<rect id="nav-nose-11-id-1" x="11.956" y="1.291" width="281.923" height="109.418"/>
	</defs>
	<clipPath id="nav-nose-11-id-2">
		<use xlink:href="#nav-nose-11-id-1"  overflow="visible"/>
	</clipPath>
	<g clip-path="url(#nav-nose-11-id-2)">
		<defs>
			<path id="nav-nose-11-id-3" d="M138.378,19.207c-0.833,6.917-2.166,15.584-3.083,20.667s-3.5,10.25-6,15
				c-2.5,4.75-9.5,10.167-12.417,17.167s-1,17,1,21.5s12.25,1.832,16.333,4.25c4.084,2.416,16.583,12.25,22.833,12.25
				c6.25,0,16.834-9.918,21.75-14.168s11.584-3.082,15.166-3.416c3.584-0.334,6.168-2.334,4.918-13.332
				c-1.25-11.002-9.25-16.918-13.834-23.002c-4.584-6.083-6.834-13.25-9.084-26.75c-1.818-10.918-8.582-26.75-19.916-27.75
				c-0.447-0.04-0.885-0.059-1.316-0.059C144.282,1.565,139.137,12.908,138.378,19.207"/>
		</defs>
		<clipPath id="nav-nose-11-id-4">
			<use xlink:href="#nav-nose-11-id-3"  overflow="visible"/>
		</clipPath>
		<defs>
			<filter id="Adobe_OpacityMaskFilter" filterUnits="userSpaceOnUse" x="113.961" y="1.565" width="86.167" height="108.476">
				<feColorMatrix  type="matrix" values="1 0 0 0 0  0 1 0 0 0  0 0 1 0 0  0 0 0 1 0"/>
			</filter>
		</defs>
		<mask maskUnits="userSpaceOnUse" x="113.961" y="1.565" width="86.167" height="108.476" id="nav-nose-11-id-10">
			<g filter="url(#Adobe_OpacityMaskFilter)">
				
					<linearGradient id="nav-nose-11-id-6" gradientUnits="userSpaceOnUse" x1="-139.6323" y1="474.5742" x2="-138.6323" y2="474.5742" gradientTransform="matrix(0 -108.4757 -108.4757 0 51636.7812 -15036.6836)">
					<stop  offset="0" style="stop-color:#808080"/>
					<stop  offset="0.0013" style="stop-color:#808080"/>
					<stop  offset="0.1424" style="stop-color:#777777"/>
					<stop  offset="0.3726" style="stop-color:#5E5E5E"/>
					<stop  offset="0.6632" style="stop-color:#373737"/>
					<stop  offset="1" style="stop-color:#000000"/>
				</linearGradient>
				<rect x="113.961" y="1.565" clip-path="url(#nav-nose-11-id-4)" fill="url(#nav-nose-11-id-6)" width="86.167" height="108.476"/>
			</g>
		</mask>
		
			<linearGradient id="nav-nose-11-id-7" gradientUnits="userSpaceOnUse" x1="-139.6323" y1="474.5742" x2="-138.6323" y2="474.5742" gradientTransform="matrix(0 -108.4757 -108.4757 0 51636.7812 -15036.6836)">
			<stop  offset="0" style="stop-color:#0C3846"/>
			<stop  offset="0.0013" style="stop-color:#0C3846"/>
			<stop  offset="1" style="stop-color:#0C3846"/>
		</linearGradient>
		
			<rect x="113.961" y="1.565" clip-path="url(#nav-nose-11-id-4)" mask="url(#nav-nose-11-id-10)" fill="url(#nav-nose-11-id-7)" width="86.167" height="108.476"/>
	</g>
	<g clip-path="url(#nav-nose-11-id-2)">
		<defs>
			<rect id="nav-nose-11-id-8" x="11.956" y="1.291" width="281.923" height="109.418"/>
		</defs>
		<clipPath id="nav-nose-11-id-9">
			<use xlink:href="#nav-nose-11-id-8"  overflow="visible"/>
		</clipPath>
		<path clip-path="url(#nav-nose-11-id-9)" fill="#FCDCA4" d="M159.711,18.624c-0.436,5.876-3.666,23.167-2.5,30s4.168,26.5,4.668,32.667
			c0.5,6.166,3.166,10.832,1,14.666c-2.168,3.834-3.334,6-5.668,6.166c-2.333,0.168-9.666-2.832-9.5-8.666s7.5-6.5,6.666-11.5
			c-0.832-5-5.5-30.333-4.332-37.167c1.166-6.834,1.91-21.006,2.166-26.5c0.5-10.667,2.387-12.504,4.167-12.334
			C158.428,6.155,160.379,9.624,159.711,18.624"/>
		<path clip-path="url(#nav-nose-11-id-9)" fill="#0C3846" d="M200.594,80.559c-0.205-1.82-0.547-3.639-1.082-5.389
			c-0.527-1.754-1.26-3.416-2.096-4.963c-1.678-3.105-3.729-5.775-5.766-8.254c-1.02-1.209-2.025-2.396-3.012-3.562
			c-0.939-1.148-1.855-2.303-2.678-3.467c-1.672-2.321-3.045-4.657-4.068-7.013c-0.117-0.269-0.215-0.538-0.322-0.808
			c0.021-0.349,0.053-0.921,0.076-1.688c0.027-1.316,0.088-3.197-0.002-5.452c-0.033-1.128-0.096-2.349-0.18-3.641
			c-0.074-1.291-0.197-2.652-0.357-4.058c-0.176-1.404-0.361-2.855-0.631-4.322c-0.273-1.465-0.562-2.953-0.957-4.424
			c-0.176-0.738-0.404-1.467-0.635-2.191c-0.211-0.729-0.465-1.444-0.746-2.146c-0.523-1.438-1.143-2.698-1.701-4
			c-1.141-2.562-2.299-4.909-3.236-6.932c-0.945-2.017-1.664-3.713-1.988-4.973c-0.354-1.25-0.5-1.985-0.5-1.985
			s0.012,0.186,0.039,0.535c0.025,0.35,0.062,0.864,0.168,1.515c0.182,1.3,0.646,3.151,1.416,5.263
			c0.762,2.103,1.652,4.554,2.605,7.181c0.461,1.299,1.006,2.686,1.412,4.031c0.232,0.674,0.439,1.361,0.605,2.069
			c0.184,0.701,0.367,1.403,0.5,2.125c0.316,1.424,0.559,2.87,0.773,4.298c0.203,1.43,0.381,2.842,0.527,4.214
			c0.227,2.373,0.408,4.602,0.512,6.595c-0.84-3.87-1.467-7.365-2.229-10.279c-0.834-3.393-2.096-5.881-3.008-7.475
			c-0.461-0.802-0.824-1.405-1.096-1.801c-0.26-0.398-0.395-0.604-0.395-0.604s0.361,0.91,1.043,2.616
			c0.641,1.718,1.463,4.24,1.965,7.576c0.523,3.349,0.934,7.476,1.85,12.229c0.479,2.37,1.094,4.923,2.121,7.512
			c0.504,1.296,1.125,2.583,1.812,3.868c0.715,1.265,1.494,2.533,2.363,3.76c0.852,1.242,1.783,2.447,2.758,3.678
			c0.971,1.176,1.963,2.373,2.969,3.592c1.965,2.41,3.902,4.973,5.41,7.797c1.539,2.814,2.465,5.93,2.807,9.307
			c0.092,0.855,0.16,1.652,0.199,2.564c0.055,0.943,0.072,1.635-0.027,2.406c-0.199,1.494-0.852,2.783-2.012,3.693
			c-1.145,0.928-2.723,1.488-4.393,1.787c-0.838,0.148-1.701,0.238-2.582,0.273c-0.439,0.02-0.883,0.025-1.326,0.02l-1.439-0.029
			c-2.213-0.016-4.418,0.795-6.158,1.943c-0.668,0.428-1.283,0.898-1.879,1.381c0.002-0.008,0.004-0.014,0.004-0.021
			c0.072-0.4,0.135-0.812,0.148-1.232c0.066-0.848,0.059-1.73-0.006-2.631c-0.133-1.803-0.508-3.66-0.973-5.463
			c-0.225-0.904-0.488-1.795-0.746-2.66c-0.248-0.854-0.492-1.695-0.729-2.51c-0.225-0.777-0.316-1.568-0.387-2.322
			c-0.055-0.758-0.049-1.484-0.01-2.154c0.061-1.348,0.254-2.475,0.422-3.254c0.16-0.783,0.295-1.225,0.295-1.225
			s-0.939,1.609-1.551,4.369c-0.135,0.691-0.244,1.451-0.297,2.268c-0.033,0.816-0.049,1.691,0.084,2.598
			c0.107,0.893,0.293,1.746,0.457,2.646c0.16,0.879,0.322,1.771,0.484,2.666c0.303,1.775,0.52,3.543,0.574,5.172
			c0.021,0.811,0.029,1.592-0.043,2.314c-0.016,0.365-0.059,0.711-0.115,1.041c-0.047,0.334-0.09,0.658-0.178,0.949
			c-0.08,0.295-0.121,0.592-0.217,0.85c-0.098,0.256-0.189,0.5-0.266,0.734c-0.129,0.336-0.277,0.609-0.408,0.865
			c-2.611,2.146-5.566,4.133-8.555,5.916c-1.639,0.967-3.318,1.875-5.02,2.617c-0.848,0.369-1.707,0.695-2.531,0.912
			c-0.219,0.061-0.395,0.094-0.562,0.129c-0.141,0.031-0.547,0.086-0.613,0.086c-0.379,0.039-0.795,0.014-1.211-0.018
			c-1.693-0.164-3.479-0.727-5.194-1.416c-1.722-0.697-3.403-1.551-5.013-2.506c-1.598-0.951-3.17-2.021-4.502-3.174l-0.873-0.779
			c-0.207-0.398-0.424-0.814-0.651-1.25c-0.261-0.434-0.433-0.951-0.655-1.455c-0.106-0.256-0.215-0.516-0.324-0.779
			c-0.09-0.273-0.181-0.553-0.272-0.834c-0.188-0.562-0.382-1.141-0.521-1.756c-0.15-0.609-0.326-1.225-0.432-1.871
			c-0.266-1.281-0.49-2.621-0.631-3.994c-0.076-0.686-0.141-1.379-0.176-2.078c-0.059-0.697-0.079-1.396-0.088-2.098
			c-0.032-0.703,0.019-1.395,0.025-2.092c0.055-0.68,0.092-1.391,0.18-1.982c0.021-0.297,0.101-0.645,0.184-0.99
			c0.084-0.35,0.167-0.697,0.25-1.041c0.15-0.736,0.262-1.441,0.325-2.135c0.274-2.762,0.276-5.297,0.248-7.479
			c-0.091-4.354-0.413-7.24-0.413-7.24s-0.301,2.877-0.751,7.189c-0.238,2.145-0.488,4.662-0.945,7.264
			c-0.121,0.648-0.248,1.299-0.415,1.92c-0.098,0.326-0.197,0.656-0.297,0.988c-0.1,0.334-0.199,0.67-0.266,1.08
			c-0.316,1.576-0.381,3.002-0.418,4.508c-0.035,1.486,0.014,2.971,0.16,4.424c0.133,1.455,0.33,2.885,0.619,4.254
			c0.123,0.688,0.317,1.352,0.488,2.004c0.156,0.656,0.372,1.285,0.585,1.898c0.07,0.205,0.14,0.406,0.208,0.609
			c-3.57-2.121-7.686-3.281-11.791-3.287l-1.418,0.008c-0.429-0.004-0.855-0.01-1.249-0.047c-0.802-0.061-1.489-0.229-1.961-0.49
			c-0.462-0.266-0.796-0.629-1.104-1.238c-0.305-0.592-0.521-1.365-0.688-2.166c-0.324-1.625-0.458-3.395-0.548-5.148
			c-0.077-1.74-0.148-3.568-0.099-5.197c0.103-3.324,0.837-6.51,2.14-9.359c1.307-2.855,3.147-5.359,5.204-7.627
			c1.027-1.148,2.115-2.203,3.197-3.414c1.094-1.238,1.994-2.531,2.793-3.836c3.137-5.247,4.924-10.527,5.709-15.426
			c0.359-2.403,0.482-4.644,0.69-6.684c0.181-2.055,0.345-3.942,0.494-5.647c0.313-3.41,0.515-6.098,0.642-7.931
			c0.144-1.832,0.187-2.814,0.187-2.814s-0.242,0.953-0.619,2.752c-0.394,1.796-0.95,4.435-1.567,7.807
			c-0.312,1.686-0.682,3.55-1.012,5.59c-0.168,1.021-0.342,2.083-0.523,3.185c-0.084,0.543-0.17,1.097-0.256,1.659
			c-0.104,0.56-0.184,1.168-0.316,1.706c-0.961,4.458-2.832,9.501-5.932,14.21c-0.783,1.163-1.635,2.313-2.586,3.342
			c-0.976,1.041-2.147,2.129-3.262,3.311c-2.247,2.352-4.425,5.119-5.933,8.387c-1.529,3.25-2.403,6.92-2.552,10.65
			c-0.072,1.898-0.014,3.641,0.048,5.498c0.08,1.842,0.19,3.713,0.561,5.693c0.201,0.99,0.451,2.018,0.973,3.082
			c0.49,1.057,1.419,2.166,2.595,2.801c1.17,0.635,2.361,0.84,3.42,0.928c0.54,0.049,1.054,0.055,1.565,0.059l1.407-0.01
			c3.444,0.021,6.95,0.92,10.03,2.686c0.768,0.447,1.516,0.934,2.232,1.473c0.354,0.273,0.713,0.547,1.053,0.842l1.097,0.947
			c1.628,1.357,3.308,2.443,5.071,3.461c1.76,1.004,3.584,1.893,5.496,2.631c1.92,0.727,3.908,1.348,6.121,1.531
			c0.559,0.035,1.123,0.053,1.721,0c0.42-0.039,0.5-0.057,0.838-0.113c0.311-0.059,0.613-0.125,0.867-0.195
			c1.066-0.283,2.037-0.66,2.98-1.072c1.879-0.824,3.637-1.785,5.354-2.799c3.422-2.061,6.656-4.223,9.734-6.857
			c0.783-0.711,1.406-1.322,2.111-1.92c0.693-0.592,1.396-1.141,2.117-1.605c1.441-0.941,2.959-1.475,4.537-1.477l1.385,0.025
			c0.496,0.006,0.994-0.002,1.492-0.025c0.992-0.043,1.99-0.146,2.986-0.324c1.975-0.367,4.018-1.033,5.742-2.422
			c1.758-1.354,2.855-3.559,3.088-5.631c0.145-1.016,0.096-2.125,0.043-2.959C200.779,82.432,200.697,81.457,200.594,80.559
			 M230.168,93.742c-0.336-1.658-0.748-3.408-1.438-5.139c-0.281-0.891-0.715-1.732-1.127-2.598
			c-0.199-0.457-0.445-0.893-0.707-1.322c0.068-0.426,0.127-0.971,0.133-1.637c0.014-0.836-0.072-1.844-0.289-2.984
			c-0.254-1.127-0.623-2.4-1.299-3.652c-0.285-0.656-0.725-1.25-1.111-1.91c-0.461-0.6-0.898-1.264-1.447-1.848
			c-0.543-0.59-1.086-1.215-1.74-1.74c-0.314-0.273-0.635-0.551-0.955-0.83c-0.344-0.25-0.689-0.5-1.037-0.754
			c-0.354-0.25-0.688-0.516-1.066-0.758c-0.354-0.225-0.707-0.447-1.064-0.674c-0.705-0.453-1.461-0.896-2.211-1.348
			c-1.502-0.898-3.029-1.75-4.564-2.598c-1.518-0.855-3.035-1.709-4.529-2.551c-1.48-0.852-2.924-1.705-4.266-2.605
			c-0.686-0.432-1.344-0.875-1.973-1.33c-0.645-0.438-1.248-0.9-1.826-1.361c-0.594-0.445-1.139-0.913-1.656-1.378
			c-0.529-0.453-1.029-0.906-1.477-1.374c-0.938-0.895-1.723-1.785-2.43-2.574c-0.666-0.818-1.23-1.554-1.689-2.164
			c-0.861-1.266-1.354-1.989-1.354-1.989s0.389,0.788,1.07,2.168c0.387,0.665,0.867,1.47,1.447,2.38
			c0.629,0.872,1.297,1.902,2.189,2.894c0.42,0.521,0.891,1.029,1.396,1.541c0.492,0.525,1.016,1.056,1.586,1.566
			c0.555,0.525,1.137,1.057,1.76,1.561c0.609,0.525,1.246,1.043,1.914,1.539c1.326,1.012,2.748,1.973,4.199,2.932
			c1.451,0.957,2.955,1.867,4.445,2.787c1.482,0.914,2.963,1.828,4.42,2.729c0.715,0.453,1.424,0.891,2.127,1.369
			c0.354,0.232,0.703,0.463,1.051,0.693c0.32,0.207,0.635,0.459,0.949,0.684c0.314,0.229,0.625,0.457,0.934,0.684
			c0.285,0.25,0.566,0.498,0.846,0.744c0.576,0.475,1.059,1.008,1.549,1.508c0.496,0.5,0.877,1.061,1.295,1.566
			c0.334,0.555,0.738,1.055,0.984,1.602c0.604,1.049,0.92,2.107,1.215,3.033c0.061,0.24,0.096,0.453,0.141,0.68
			c-0.656-0.83-1.357-1.629-2.096-2.389c-1.424-1.359-2.893-2.672-4.477-3.762c-1.547-1.109-3.205-2.105-4.77-2.939
			c-1.576-0.85-3.037-1.645-4.43-2.482c-1.391-0.82-2.695-1.623-3.902-2.365c-2.42-1.475-4.395-2.779-5.805-3.652
			c-1.404-0.893-2.205-1.4-2.205-1.4s0.682,0.666,1.934,1.758c1.238,1.113,3.074,2.621,5.32,4.387
			c1.129,0.875,2.379,1.787,3.723,2.73c1.342,0.928,2.834,1.887,4.34,2.797c1.521,0.922,2.963,1.906,4.387,3.047
			c1.439,1.098,2.754,2.371,4.014,3.678c0.572,0.705,1.201,1.361,1.746,2.076c0.518,0.736,1.113,1.414,1.543,2.193
			c0.461,0.756,0.945,1.492,1.307,2.285c0.396,0.773,0.818,1.523,1.092,2.326c0.686,1.551,1.07,3.15,1.475,4.656
			c0.291,1.533,0.609,2.986,0.715,4.365c0.061,0.686,0.18,1.344,0.219,1.975c0.025,0.635,0.049,1.236,0.072,1.803
			c0.033,0.57,0.064,1.105,0.094,1.6c-0.008,0.496-0.014,0.951-0.018,1.361c-0.016,1.654,0.039,2.629,0.039,2.629
			s0.311-0.9,0.75-2.531c0.105-0.408,0.225-0.861,0.354-1.355c0.076-0.504,0.158-1.047,0.246-1.629
			c0.074-0.588,0.152-1.213,0.236-1.871c0.08-0.66,0.049-1.361,0.059-2.094c0.002-0.367,0.002-0.742,0.004-1.123
			c0.01-0.383,0.002-0.771-0.062-1.166C230.369,95.398,230.27,94.582,230.168,93.742 M252.324,69.76
			c2.988-0.168,5.904-0.447,8.66-1.191c1.375-0.354,2.711-0.854,3.938-1.543c0.631-0.328,1.164-0.74,1.754-1.193
			c0.451-0.412,0.893-0.809,1.346-1.285c1.754-1.791,2.967-3.703,3.863-5.459c0.896-1.76,1.467-3.371,1.871-4.705
			c0.395-1.34,0.617-2.408,0.766-3.136c0.123-0.733,0.191-1.124,0.191-1.124s-0.17,0.357-0.486,1.028
			c-0.318,0.667-0.77,1.649-1.393,2.861c-0.619,1.212-1.412,2.657-2.445,4.202c-1.02,1.545-2.328,3.189-3.939,4.695
			c-0.375,0.361-0.848,0.744-1.324,1.133c-0.398,0.266-0.855,0.619-1.365,0.855c-1.002,0.525-2.154,0.928-3.4,1.205
			c-2.477,0.6-5.266,0.779-8.146,0.875c-2.891,0.1-5.908,0.049-8.982-0.037c-1.518-0.057-3.131-0.066-4.619-0.143
			c-0.754-0.027-1.5-0.078-2.232-0.18c-0.748-0.059-1.453-0.229-2.174-0.359c-1.406-0.342-2.74-0.832-3.953-1.543
			c-1.223-0.691-2.311-1.646-3.357-2.688c-2.088-2.107-4.014-4.512-6.111-6.675c-0.527-0.528-1.002-1.032-1.564-1.566
			c-0.561-0.502-1.104-1.018-1.662-1.491c-0.572-0.451-1.137-0.898-1.697-1.34c-0.582-0.404-1.154-0.804-1.721-1.198
			c-2.297-1.515-4.539-2.799-6.658-3.873c-4.236-2.155-7.912-3.6-10.502-4.543c-2.584-0.958-4.1-1.386-4.1-1.386
			s1.42,0.679,3.877,1.902c1.227,0.614,2.697,1.398,4.375,2.303c1.682,0.896,3.541,1.975,5.547,3.164
			c1.99,1.223,4.115,2.583,6.236,4.163c0.521,0.403,1.051,0.812,1.584,1.226c0.512,0.437,1.027,0.877,1.551,1.322
			c0.504,0.461,0.98,0.953,1.48,1.434c0.469,0.477,0.977,1.055,1.469,1.584c1.945,2.115,3.771,4.514,5.973,6.855
			c1.109,1.158,2.354,2.316,3.836,3.209c1.475,0.896,3.111,1.504,4.748,1.914c0.82,0.162,1.645,0.359,2.461,0.434
			c0.822,0.121,1.637,0.184,2.447,0.221c1.631,0.104,3.133,0.115,4.705,0.146C246.268,69.881,249.334,69.9,252.324,69.76
			 M272.859,38.638c-0.602,0.781-1.248,1.542-1.961,2.29c-0.188,0.18-0.434,0.437-0.58,0.559c-0.199,0.162-0.398,0.327-0.604,0.493
			c-0.445,0.307-0.873,0.651-1.375,0.947c-1.959,1.229-4.334,2.308-6.895,3.276c-2.576,0.951-5.381,1.737-8.316,2.322
			c-2.908,0.61-6.018,0.922-9.197,1.094c-3.162,0.158-6.348,0.173-9.447-0.366c-1.549-0.256-3.059-0.682-4.537-1.182
			c-1.457-0.56-2.896-1.171-4.236-1.962c-0.699-0.356-1.305-0.804-1.957-1.198c-0.635-0.428-1.316-0.949-1.91-1.368
			c-0.662-0.475-1.32-0.946-1.975-1.415c-0.67-0.43-1.334-0.856-1.992-1.28c-2.672-1.615-5.309-3.037-7.83-4.34
			c-2.525-1.286-4.926-2.474-7.18-3.486c-4.488-2.063-8.273-3.673-10.945-4.744c-2.664-1.09-4.209-1.654-4.209-1.654
			s1.465,0.742,4.031,2.043c2.555,1.32,6.219,3.175,10.551,5.505c4.314,2.347,9.395,5.048,14.463,8.419
			c0.623,0.431,1.25,0.865,1.881,1.302c0.604,0.461,1.213,0.926,1.824,1.393c0.684,0.521,1.254,0.987,1.932,1.479
			c0.699,0.461,1.385,0.988,2.115,1.393c1.422,0.896,2.969,1.618,4.547,2.277c1.602,0.601,3.248,1.116,4.932,1.45
			c3.367,0.673,6.797,0.827,10.086,0.652c3.277-0.155,6.521-0.44,9.65-1.081c3.092-0.674,6.021-1.553,8.725-2.605
			c2.699-1.067,5.199-2.249,7.33-3.777c2.211-1.458,3.713-3.597,4.709-5.344c1.049-1.78,1.74-3.416,2.291-4.765
			c0.537-1.355,0.891-2.442,1.115-3.188c0.207-0.752,0.318-1.152,0.318-1.152s-0.879,1.418-2.432,3.824
			C275.002,35.644,274.043,37.092,272.859,38.638 M270.549,81.219c1.891-0.932,3.643-2.162,5.168-3.574
			c0.391-0.346,0.754-0.713,1.104-1.09c0.365-0.363,0.695-0.754,1.021-1.145l0.246-0.289l0.123-0.145l0.076-0.1l0.023-0.037
			l0.051-0.074l0.4-0.592c0.131-0.201,0.266-0.383,0.395-0.598l0.377-0.693c0.986-1.834,1.598-3.551,2.105-5.252
			c0.502-1.688,0.861-3.299,1.115-4.797c0.518-2.992,0.654-5.512,0.688-7.272c0.033-1.763-0.062-2.771-0.062-2.771
			s-0.252,0.971-0.695,2.67c-0.219,0.842-0.484,1.866-0.787,3.04c-0.293,1.172-0.658,2.482-1.051,3.902
			c-0.416,1.414-0.842,2.949-1.412,4.514c-0.525,1.559-1.225,3.23-2.066,4.652l-0.309,0.537c-0.119,0.182-0.273,0.377-0.41,0.568
			l-0.422,0.574l-0.045,0.061v0.002l-0.008,0.01l-0.027,0.035c-0.008,0.012,0.018-0.023,0.035-0.045l-0.014,0.016l-0.334,0.383
			c-0.297,0.346-0.594,0.691-0.922,1.01c-0.316,0.33-0.643,0.652-0.992,0.953c-1.369,1.232-2.926,2.285-4.582,3.168
			c-1.664,0.875-3.459,1.51-5.273,2.018c-1.828,0.504-3.641,0.832-5.473,1.055c-0.484,0.072-0.877,0.096-1.291,0.102l-0.613,0.033
			c-0.205-0.004-0.414-0.029-0.619-0.043c-0.822-0.029-1.637-0.203-2.428-0.369c-1.59-0.35-3.057-0.93-4.41-1.477
			c-1.348-0.566-2.553-1.182-3.623-1.732c-1.055-0.574-1.986-1.072-2.73-1.523c-1.49-0.896-2.332-1.445-2.332-1.445
			s0.678,0.744,2.016,1.885c1.326,1.156,3.311,2.727,5.982,4.225c1.344,0.73,2.85,1.467,4.572,2.002
			c0.871,0.238,1.771,0.488,2.746,0.588c0.24,0.029,0.48,0.07,0.729,0.09l0.754,0.01c0.506,0.014,1.037-0.006,1.48-0.057
			c1.883-0.15,3.893-0.426,5.867-0.889C266.676,82.848,268.662,82.152,270.549,81.219 M292.713,74.607
			c-0.389,0.449-0.861,0.996-1.404,1.623c-0.586,0.59-1.176,1.305-1.91,2.006c-0.355,0.359-0.727,0.732-1.113,1.117
			c-0.398,0.375-0.809,0.76-1.23,1.156c-0.85,0.789-1.758,1.604-2.721,2.42c-0.951,0.834-1.982,1.637-3.023,2.455
			c-1.035,0.828-2.127,1.617-3.215,2.408c-1.084,0.793-2.199,1.545-3.307,2.26c-1.1,0.717-2.236,1.389-3.299,1.932
			c-1.156,0.584-2.154,1.029-3.229,1.189c-1.061,0.172-2.105,0.127-3.068-0.012c-1.926-0.332-3.486-1.035-4.537-1.576
			c-1.045-0.564-1.611-0.963-1.611-0.963s0.443,0.533,1.396,1.289c0.949,0.748,2.41,1.771,4.49,2.391
			c1.037,0.303,2.229,0.471,3.508,0.395c1.285-0.055,2.617-0.559,3.781-1.041c1.256-0.549,2.434-1.172,3.631-1.859
			c1.195-0.682,2.352-1.453,3.5-2.234c2.275-1.598,4.41-3.379,6.291-5.178c0.961-0.877,1.811-1.812,2.625-2.684
			c0.791-0.895,1.516-1.76,2.137-2.598c0.645-0.818,1.148-1.639,1.621-2.336c0.432-0.732,0.785-1.379,1.068-1.912
			c0.523-1.098,0.785-1.732,0.785-1.732S293.43,73.658,292.713,74.607 M190.113,17.413c-2.895-1.274-4.568-1.956-4.568-1.956
			s6.348,3.444,15.867,8.61c4.734,2.615,10.344,5.527,16.137,8.954c0.729,0.422,1.449,0.861,2.174,1.304
			c0.732,0.435,1.451,0.889,2.148,1.362c0.346,0.235,0.729,0.462,1.025,0.712l0.998,0.774c0.359,0.282,0.641,0.556,1.064,0.843
			c0.412,0.277,0.826,0.596,1.256,0.812c1.693,0.979,3.621,1.58,5.531,1.823c1.918,0.251,3.818,0.214,5.676,0.071
			c3.727-0.277,7.301-1.035,10.797-1.8c3.461-0.768,6.922-1.506,10.225-2.604c3.295-1.079,6.443-2.497,9.082-4.409
			c2.652-1.896,4.734-4.213,6.314-6.536c0.357-0.604,0.707-1.195,1.047-1.773c0.166-0.291,0.338-0.573,0.488-0.862
			c0.133-0.299,0.26-0.594,0.389-0.885c0.189-0.438,0.379-0.862,0.561-1.282c0.314-0.183,0.631-0.361,0.939-0.557
			c0.922-0.591,1.826-1.219,2.617-1.882c0.412-0.31,0.77-0.667,1.117-0.988c0.357-0.311,0.65-0.664,0.93-0.969
			c0.289-0.296,0.506-0.621,0.707-0.892c0.209-0.265,0.365-0.517,0.477-0.736c0.234-0.43,0.352-0.675,0.352-0.675
			s-0.225,0.176-0.582,0.482c-0.17,0.161-0.4,0.334-0.662,0.53c-0.266,0.194-0.541,0.427-0.875,0.651
			c-0.334,0.223-0.67,0.485-1.055,0.734c-0.379,0.253-0.779,0.52-1.193,0.795c-0.625,0.401-1.283,0.83-1.953,1.254
			c0.145-0.463,0.285-0.918,0.422-1.354c0.078-0.249,0.152-0.494,0.229-0.733c0.053-0.246,0.104-0.487,0.154-0.724
			c0.158-0.795,0.305-1.523,0.439-2.205c0.305-0.249,0.594-0.506,0.873-0.746c0.418-0.342,0.756-0.745,1.086-1.083
			c0.34-0.328,0.586-0.703,0.826-1.004c0.242-0.297,0.42-0.585,0.549-0.834c0.271-0.486,0.408-0.764,0.408-0.764
			s-0.246,0.209-0.643,0.573c-0.188,0.19-0.438,0.399-0.736,0.625c-0.301,0.225-0.602,0.505-0.986,0.76
			c-0.352,0.232-0.703,0.512-1.102,0.771c0.125-0.96,0.191-1.761,0.26-2.352c0.082-0.845,0.123-1.294,0.123-1.294
			s-0.119,0.437-0.344,1.257c-0.209,0.687-0.41,1.677-0.758,2.864c-0.244,0.162-0.492,0.327-0.756,0.486
			c-0.967,0.598-1.994,1.245-3.057,1.84c-1.041,0.631-2.117,1.213-3.109,1.792c-1,0.573-1.934,1.109-2.734,1.568
			c-1.602,0.925-2.658,1.608-2.658,1.608s1.242-0.223,3.012-0.834c1.773-0.597,4.074-1.583,6.242-2.841
			c0.543-0.311,1.07-0.65,1.588-0.99c0.273-0.166,0.533-0.35,0.787-0.537c-0.396,1.169-0.848,2.466-1.492,3.837
			c-0.229,0.557-0.498,1.121-0.789,1.691c-0.393,0.251-0.783,0.5-1.158,0.74c-0.848,0.541-1.635,1.058-2.307,1.516
			c-1.344,0.901-2.217,1.585-2.217,1.585s1.086-0.233,2.613-0.829c0.545-0.208,1.158-0.476,1.791-0.77
			c-0.467,0.754-0.959,1.512-1.498,2.278c-1.617,2.036-3.588,4.051-6.057,5.682c-2.455,1.646-5.355,2.92-8.51,3.866
			c-3.152,0.95-6.547,1.646-10.02,2.422c-1.723,0.372-3.459,0.744-5.203,1.044c-1.74,0.318-3.486,0.606-5.223,0.761
			c-3.461,0.336-6.932,0.181-9.742-1.367c-0.371-0.172-0.662-0.4-0.994-0.599c-0.32-0.194-0.689-0.521-1.031-0.773l-1.104-0.812
			c-0.387-0.3-0.766-0.507-1.145-0.751c-0.756-0.485-1.514-0.937-2.271-1.357c-0.752-0.438-1.504-0.86-2.258-1.254
			c-2.996-1.62-5.928-3.083-8.711-4.474c-2.783-1.382-5.424-2.666-7.887-3.796C197.135,20.517,193.018,18.663,190.113,17.413
			 M17.888,19.336c0.926,1.513,2.082,3.339,3.578,5.317c1.462,2.004,3.259,4.165,5.391,6.378c2.124,2.217,4.632,4.456,7.574,6.468
			c2.924,2.026,6.303,3.826,10.111,4.959c0.991,0.232,1.991,0.468,2.998,0.704c0.967,0.143,1.915,0.235,2.883,0.356l0.182,0.021
			l0.09,0.011l0.177,0.014l0.367,0.019l0.736,0.039l1.477,0.077c0.993,0.034,1.991,0.069,2.993,0.104
			c4.004,0.037,8.276-0.113,12.342-1.406c1.026-0.276,1.993-0.689,2.978-1.058c0.941-0.444,1.918-0.835,2.818-1.331
			c0.92-0.469,1.825-0.95,2.698-1.468c0.89-0.497,1.751-1.022,2.602-1.551c3.409-2.105,6.66-4.314,9.764-6.454
			c3.11-2.112,6.132-4.078,9.127-5.769c2.957-1.747,5.859-3.208,8.538-4.561c2.697-1.317,5.203-2.462,7.452-3.419
			c2.248-0.955,4.233-1.741,5.879-2.361c1.645-0.629,2.959-1.061,3.854-1.361c0.896-0.303,1.382-0.441,1.382-0.441
			s-2.007,0.272-5.435,1.17c-1.722,0.421-3.779,1.048-6.126,1.82c-2.337,0.799-4.953,1.771-7.749,2.974
			c-2.795,1.205-5.78,2.62-8.85,4.285c-3.084,1.63-6.242,3.563-9.436,5.61c-3.178,2.055-6.438,4.155-9.81,6.165
			c-3.376,1.975-6.861,3.881-10.529,4.954c-3.646,1.155-7.551,1.295-11.45,1.25c-0.98-0.023-1.956-0.052-2.926-0.076l-1.461-0.062
			l-0.726-0.044l-0.363-0.046h-0.046c-0.033,0,0.133,0.043,0.041,0.035l-0.091,0.022l-0.181-0.02
			c-0.962-0.105-1.94-0.188-2.87-0.312c-0.862-0.193-1.718-0.386-2.567-0.576c-3.463-0.978-6.625-2.606-9.454-4.406
			c-2.817-1.83-5.351-3.817-7.519-5.852c-1.117-0.979-2.108-2.013-3.083-2.96c-0.925-0.998-1.84-1.914-2.637-2.835
			c-0.406-0.454-0.798-0.895-1.177-1.319c-0.365-0.438-0.716-0.859-1.054-1.266c-0.695-0.798-1.288-1.566-1.835-2.254
			c-1.089-1.38-1.921-2.488-2.476-3.253c-0.559-0.765-0.856-1.172-0.856-1.172s0.229,0.45,0.658,1.294
			c0.209,0.428,0.484,0.944,0.828,1.539C17.042,17.886,17.409,18.591,17.888,19.336 M22.149,40.317
			c1.398,1.428,2.982,3.04,4.822,4.688c1.842,1.644,3.93,3.328,6.254,4.974c0.587,0.403,1.182,0.813,1.785,1.229
			c0.626,0.382,1.26,0.77,1.9,1.162c0.626,0.406,1.345,0.731,2.033,1.098l1.05,0.538c0.351,0.167,0.701,0.301,1.054,0.453
			c2.882,1.242,5.988,2.207,9.29,2.73c3.293,0.502,6.783,0.455,10.137-0.289c3.342-0.791,6.481-2.216,9.305-3.891
			c2.881-1.661,5.374-3.582,7.937-5.173c2.557-1.634,5.096-3.132,7.49-4.578c2.404-1.437,4.676-2.794,6.774-4.047
			c4.193-2.521,7.689-4.629,10.099-6.174c2.429-1.511,3.799-2.412,3.799-2.412s-1.52,0.615-4.127,1.8
			c-1.31,0.578-2.888,1.308-4.685,2.17c-1.794,0.868-3.818,1.849-5.996,2.976c-2.187,1.112-4.535,2.357-6.995,3.721
			c-2.471,1.348-5.03,2.853-7.669,4.45c-2.662,1.599-5.254,3.463-7.932,5.032c-2.693,1.609-5.582,2.869-8.586,3.632
			c-3.012,0.724-6.154,0.832-9.216,0.426c-3.058-0.399-6.072-1.232-8.834-2.337c-0.353-0.141-0.72-0.27-1.057-0.419l-0.977-0.472
			c-0.647-0.323-1.298-0.594-1.923-0.968c-0.632-0.35-1.257-0.694-1.874-1.036c-0.601-0.375-1.194-0.745-1.779-1.111
			c-2.324-1.495-4.442-3.055-6.325-4.588c-1.924-1.484-3.603-2.958-5.089-4.269c-1.457-1.343-2.737-2.508-3.761-3.501
			c-1.034-0.983-1.809-1.793-2.355-2.331c-0.535-0.549-0.82-0.842-0.82-0.842s0.951,1.334,2.812,3.514
			C19.61,37.569,20.767,38.873,22.149,40.317 M97.072,47.208c0.526-0.489,0.806-0.751,0.806-0.751s-0.33,0.195-0.948,0.56
			c-0.611,0.374-1.507,0.922-2.648,1.618c-2.275,1.399-5.483,3.452-9.306,5.938c-1.909,1.242-3.977,2.587-6.164,4.011
			c-2.198,1.402-4.521,2.875-6.968,4.299c-2.432,1.441-4.977,2.904-7.611,4.105c-2.572,1.188-5.411,1.949-8.242,2.08
			c-2.834,0.156-5.603-0.471-8.266-1.574c-1.334-0.543-2.648-1.174-3.953-1.824c-0.656-0.328-1.308-0.654-1.955-0.98l-0.486-0.244
			l-0.192-0.096l-0.236-0.133l-0.936-0.527c-2.285-1.355-4.479-3.096-6.505-4.684c-2.046-1.598-3.921-3.2-5.674-4.654
			c-6.946-5.938-11.576-9.896-11.576-9.896s0.971,1.183,2.773,3.153c0.903,0.984,1.981,2.2,3.273,3.54
			c1.282,1.35,2.75,2.853,4.391,4.455c1.633,1.612,3.449,3.311,5.429,5.059c2.008,1.74,4.088,3.523,6.659,5.182l0.925,0.549
			l0.233,0.137l0.288,0.154l0.478,0.252c0.642,0.34,1.289,0.682,1.94,1.023c1.312,0.688,2.667,1.375,4.098,1.99
			c1.431,0.611,2.942,1.168,4.541,1.492c1.596,0.328,3.248,0.449,4.876,0.375c3.256-0.15,6.421-0.982,9.25-2.379
			c2.795-1.346,5.356-2.865,7.791-4.404c2.439-1.533,4.731-3.094,6.899-4.578c2.168-1.486,4.182-2.938,6.026-4.297
			c1.833-1.374,3.5-2.65,4.947-3.822c1.455-1.159,2.7-2.203,3.711-3.079C95.745,48.375,96.534,47.681,97.072,47.208 M72.047,70.51
			c-0.536,0.354-1.094,0.807-1.723,1.287c-0.59,0.516-1.284,1.033-1.915,1.68c-0.325,0.316-0.658,0.643-0.999,0.975
			c-0.323,0.35-0.654,0.707-0.989,1.07c-0.693,0.713-1.31,1.527-1.973,2.334c-0.627,0.832-1.233,1.701-1.797,2.596
			c-0.146,0.258-0.287,0.516-0.43,0.775c-0.255,0.074-0.805,0.232-1.605,0.465c-1.128,0.334-2.76,0.752-4.714,1.234
			c-0.977,0.234-2.04,0.48-3.166,0.693c-1.126,0.229-2.316,0.395-3.541,0.566c-1.221,0.131-2.492,0.236-3.729,0.178
			c-0.512-0.041-1.349-0.107-1.885-0.244c-0.591-0.105-1.225-0.273-1.863-0.451c-2.55-0.695-5.08-1.703-7.472-2.58
			c-2.387-0.902-4.653-1.697-6.618-2.316c-0.98-0.318-1.903-0.541-2.719-0.734c-0.828-0.156-1.541-0.311-2.146-0.355
			c-0.596-0.09-1.073-0.07-1.394-0.064c-0.32,0.004-0.491,0.006-0.491,0.006s0.169,0.025,0.486,0.074
			c0.317,0.041,0.776,0.111,1.349,0.271c0.577,0.121,1.257,0.365,2.036,0.623c0.77,0.297,1.633,0.635,2.569,1.029
			c1.873,0.783,4.003,1.836,6.326,2.908c1.162,0.531,2.363,1.096,3.612,1.619c1.248,0.527,2.533,1.043,3.867,1.484
			c0.667,0.213,1.342,0.422,2.083,0.58c0.367,0.094,0.722,0.17,1.047,0.209l0.499,0.074l0.25,0.039l0.062,0.01l0.123,0.01
			l0.134,0.008c1.442,0.127,2.811,0.012,4.129-0.1c2.622-0.283,4.989-0.832,7.001-1.326c1.843-0.457,3.349-0.953,4.474-1.318
			c-0.326,0.754-0.653,1.494-0.938,2.227c-0.324,0.93-0.637,1.828-0.934,2.682c-0.261,0.863-0.457,1.695-0.663,2.451
			c-0.198,0.758-0.398,1.445-0.49,2.08c-0.111,0.627-0.208,1.172-0.289,1.621c-0.162,0.896-0.233,1.412-0.233,1.412
			s0.198-0.482,0.544-1.326c0.352-0.838,0.771-2.059,1.422-3.461c0.32-0.703,0.636-1.473,1.022-2.264
			c0.391-0.787,0.804-1.615,1.23-2.473c0.438-0.848,0.94-1.697,1.421-2.57c0.483-0.873,1.051-1.713,1.53-2.604
			c0.522-0.865,1.045-1.73,1.561-2.58c0.561-0.82,1.044-1.686,1.62-2.441c0.278-0.387,0.551-0.768,0.819-1.141
			c0.286-0.357,0.566-0.709,0.839-1.049c0.538-0.693,1.095-1.307,1.593-1.893c1.041-1.125,1.964-2.021,2.636-2.627
			c0.682-0.588,1.097-0.906,1.097-0.906s-0.481,0.203-1.272,0.666C73.052,69.863,72.57,70.145,72.047,70.51 M116.643,57.402
			c0.978-1.43,1.621-2.895,1.998-4.227c0.378-1.335,0.538-2.526,0.585-3.505c0.091-1.962-0.181-3.047-0.181-3.047
			s0.003,1.116-0.394,2.97c-0.224,0.92-0.544,2.019-1.058,3.205c-0.496,1.194-1.259,2.438-2.236,3.649
			c-1.002,1.188-2.216,2.375-3.739,3.309c-1.548,0.984-3.269,1.961-5.054,2.975c-1.795,1.012-3.664,2.109-5.466,3.449
			c-1.805,1.322-3.541,2.936-4.861,4.898c-1.342,1.943-2.22,4.188-2.659,6.424c-0.093,0.562-0.229,1.119-0.281,1.678
			c-0.047,0.557-0.093,1.111-0.14,1.664c-0.074,1.102-0.085,2.109-0.105,3.156c-0.077,4.141,0.017,7.986,0.099,11.262
			c0.067,3.275-0.068,5.986-0.3,7.887c-0.249,1.893-0.473,2.975-0.473,2.975s0.092-0.26,0.264-0.746
			c0.182-0.484,0.402-1.209,0.646-2.146c0.245-0.936,0.497-2.088,0.706-3.426c0.187-1.336,0.341-2.854,0.469-4.502
			c0.27-3.301,0.381-7.135,0.651-11.211c0.075-1.008,0.127-2.09,0.225-3.096c0.059-0.502,0.117-1.006,0.176-1.514
			c0.062-0.504,0.203-0.992,0.3-1.492c0.473-1.975,1.254-3.875,2.417-5.537c1.165-1.66,2.669-3.09,4.31-4.355
			c1.651-1.258,3.426-2.363,5.164-3.451c1.744-1.094,3.461-2.121,5.03-3.256C114.377,60.258,115.668,58.826,116.643,57.402
			 M79.708,29.544c1.688-0.841,3.645-1.845,5.722-2.952c1.036-0.559,2.106-1.136,3.194-1.723c1.082-0.596,2.168-1.224,3.233-1.886
			c2.123-1.341,4.202-2.742,6.168-4.038c1.965-1.296,3.795-2.514,5.35-3.58c1.563-1.052,2.852-1.953,3.752-2.585
			c0.902-0.631,1.418-0.99,1.418-0.99s-0.563,0.278-1.549,0.768c-0.988,0.486-2.397,1.184-4.07,2.05
			c-1.682,0.852-3.628,1.872-5.709,2.974c-2.082,1.099-4.313,2.262-6.5,3.488c-1.09,0.62-2.159,1.276-3.199,1.943
			c-1.034,0.676-2.052,1.342-3.036,1.985c-1.964,1.299-3.779,2.539-5.324,3.624c-1.555,1.062-2.828,1.989-3.72,2.637
			c-0.895,0.643-1.393,1.031-1.393,1.031s0.579-0.253,1.57-0.734C76.609,31.083,78.031,30.405,79.708,29.544 M134.641,8.898
			c-1.591,0.495-2.596,1.06-2.596,1.06s0.285,0.043,0.773,0.084c0.488,0.042,1.182,0.091,2.002,0.102
			c0.823,0.025,1.773,0.013,2.787-0.019c1.012-0.033,2.086-0.107,3.158-0.191c2.143-0.173,4.278-0.454,5.895-0.732
			c0.809-0.135,1.486-0.279,1.965-0.383c0.477-0.108,0.753-0.194,0.753-0.194s-1.073-0.409-2.724-0.654
			c-0.824-0.141-1.791-0.228-2.826-0.271c-1.035-0.039-2.139-0.018-3.237,0.071C138.393,7.928,136.227,8.388,134.641,8.898
			 M132.313,17.023c0.221-0.319,0.354-0.593,0.434-0.783c0.087-0.185,0.132-0.283,0.132-0.283s-0.076,0.078-0.218,0.224
			c-0.133,0.152-0.354,0.348-0.635,0.588c-0.283,0.236-0.64,0.505-1.065,0.782c-0.423,0.281-0.927,0.561-1.474,0.857
			c-1.107,0.58-2.459,1.149-3.92,1.746c-0.74,0.288-1.502,0.587-2.279,0.89c-0.777,0.313-1.573,0.589-2.378,0.927
			c-1.688,0.719-3.171,1.669-4.491,2.64c-0.667,0.474-1.269,0.985-1.845,1.459c-0.575,0.474-1.091,0.955-1.566,1.397
			c-1.896,1.777-2.962,3.157-2.962,3.157s1.477-0.92,3.617-2.323c0.537-0.347,1.118-0.72,1.733-1.117
			c0.616-0.385,1.266-0.791,1.939-1.21c0.67-0.414,1.375-0.819,2.092-1.205c0.709-0.406,1.449-0.756,2.186-1.056
			c1.571-0.637,3.193-1.28,4.644-2.024c1.462-0.729,2.791-1.521,3.833-2.354c0.524-0.409,0.981-0.816,1.347-1.22
			C131.817,17.729,132.099,17.344,132.313,17.023 M129.606,24.596c0.221-0.293,0.365-0.543,0.459-0.714
			c0.096-0.169,0.147-0.259,0.147-0.259s-0.082,0.063-0.234,0.184c-0.145,0.125-0.384,0.28-0.668,0.485
			c-0.584,0.397-1.438,0.895-2.516,1.4c-1.078,0.506-2.362,1.042-3.757,1.629c-0.689,0.305-1.422,0.587-2.147,0.924
			c-0.364,0.167-0.731,0.336-1.1,0.505l-0.554,0.256l-0.595,0.315c-0.785,0.437-1.469,0.979-2.12,1.521
			c-0.649,0.544-1.2,1.158-1.73,1.742c-0.523,0.59-0.979,1.197-1.394,1.78c-0.416,0.581-0.777,1.152-1.09,1.689
			c-1.268,2.14-1.762,3.736-1.762,3.736s1.102-1.199,2.755-2.997c0.414-0.434,0.861-0.904,1.335-1.401
			c0.484-0.475,0.994-0.976,1.522-1.493c0.533-0.505,1.117-0.979,1.692-1.461c0.589-0.462,1.204-0.906,1.843-1.246l0.471-0.271
			l0.54-0.27c0.361-0.18,0.72-0.357,1.076-0.535c0.717-0.349,1.405-0.738,2.083-1.1c1.346-0.736,2.584-1.505,3.576-2.282
			C128.444,25.976,129.169,25.184,129.606,24.596 M122.395,35.263c-0.545,0.341-1.096,0.708-1.654,1.084
			c-0.566,0.392-1.099,0.737-1.69,1.202c-0.58,0.445-1.122,0.931-1.607,1.446c-0.498,0.505-0.939,1.04-1.339,1.573
			c-0.408,0.528-0.755,1.069-1.065,1.591c-0.322,0.514-0.587,1.021-0.813,1.498c-0.467,0.944-0.76,1.774-0.94,2.361
			c-0.182,0.588-0.242,0.938-0.242,0.938s0.888-1.049,2.22-2.623c0.331-0.377,0.691-0.789,1.071-1.223
			c0.382-0.428,0.794-0.866,1.222-1.31c0.424-0.448,0.875-0.894,1.343-1.325c0.468-0.434,0.948-0.861,1.455-1.244
			c0.478-0.389,1.078-0.809,1.593-1.219c0.532-0.413,1.052-0.824,1.543-1.235c0.985-0.825,1.892-1.612,2.641-2.326
			c0.756-0.704,1.357-1.328,1.773-1.774c0.414-0.446,0.639-0.721,0.639-0.721s-0.33,0.128-0.883,0.384s-1.334,0.635-2.237,1.136
			C124.514,33.965,123.485,34.583,122.395,35.263 M123.165,7.671c0.773-0.129,1.566-0.283,2.369-0.449
			c0.804-0.167,1.625-0.31,2.437-0.493c0.815-0.17,1.63-0.338,2.433-0.505c0.797-0.193,1.586-0.346,2.35-0.512
			c1.525-0.331,2.951-0.64,4.172-0.904c2.473-0.511,4.121-0.851,4.121-0.851s-0.418-0.072-1.16-0.172
			c-0.371-0.046-0.824-0.107-1.341-0.118c-0.517-0.014-1.109-0.075-1.744-0.05c-0.636,0.021-1.334-0.002-2.06,0.061
			c-0.725,0.062-1.498,0.087-2.285,0.188c-0.786,0.102-1.604,0.188-2.428,0.312c-0.817,0.145-1.649,0.293-2.481,0.439
			c-0.833,0.142-1.654,0.344-2.462,0.531c-0.812,0.176-1.602,0.389-2.361,0.609c-1.525,0.418-2.927,0.888-4.116,1.332
			c-2.383,0.875-3.895,1.7-3.895,1.7s1.717-0.08,4.213-0.438C120.175,8.184,121.625,7.958,123.165,7.671 M186.488,11.014
			c0.775,0.286,1.574,0.582,2.389,0.882c0.797,0.318,1.609,0.642,2.42,0.965c0.801,0.331,1.594,0.686,2.33,1.076
			c0.387,0.173,0.73,0.385,1.08,0.585c0.34,0.188,0.744,0.451,1.084,0.658c0.736,0.443,1.506,0.823,2.213,1.155
			c0.713,0.334,1.418,0.592,2.068,0.811c1.305,0.439,2.434,0.647,3.225,0.742c0.793,0.092,1.248,0.068,1.248,0.068
			s-1.729-0.567-4.027-1.84c-0.582-0.303-1.178-0.694-1.818-1.077c-0.643-0.398-1.268-0.842-1.93-1.317
			c-0.357-0.256-0.648-0.482-1.043-0.746c-0.379-0.26-0.762-0.533-1.162-0.75c-0.801-0.463-1.635-0.853-2.473-1.227
			c-0.834-0.383-1.695-0.682-2.537-0.982c-0.844-0.292-1.682-0.557-2.502-0.768c-1.631-0.454-3.18-0.775-4.514-0.994
			c-2.668-0.451-4.494-0.465-4.494-0.465s1.668,0.729,4.176,1.654C183.475,9.917,184.932,10.454,186.488,11.014 M185.215,5.351
			c0.875,0.384,1.818,0.75,2.77,1.097c1.896,0.707,3.799,1.376,5.256,1.865c0.721,0.259,1.346,0.447,1.773,0.6
			c0.438,0.14,0.699,0.211,0.699,0.211s-0.18-0.195-0.508-0.524c-0.172-0.153-0.363-0.373-0.617-0.565
			c-0.25-0.197-0.527-0.44-0.848-0.672c-0.637-0.466-1.414-0.96-2.271-1.439c-0.867-0.458-1.803-0.925-2.771-1.311
			c-0.965-0.388-1.945-0.735-2.895-0.972c-0.939-0.264-1.838-0.433-2.615-0.542c-1.555-0.228-2.643-0.141-2.643-0.141
			s0.896,0.61,2.283,1.297C183.52,4.607,184.336,4.98,185.215,5.351 M266.473,10.096c1.084-0.407,2.201-0.934,3.311-1.479
			c0.553-0.28,1.088-0.595,1.623-0.886c0.531-0.298,1.027-0.641,1.521-0.946c0.969-0.648,1.83-1.319,2.527-1.941
			c0.686-0.641,1.234-1.191,1.566-1.63c0.342-0.425,0.523-0.674,0.523-0.674s-0.271,0.161-0.723,0.453
			c-0.436,0.309-1.107,0.681-1.873,1.159c-0.398,0.221-0.828,0.457-1.268,0.726c-0.459,0.245-0.943,0.497-1.43,0.778
			c-1.006,0.519-2.062,1.096-3.148,1.626c-1.078,0.546-2.158,1.094-3.17,1.606c-1.014,0.513-1.965,0.991-2.773,1.424
			c-1.627,0.842-2.697,1.478-2.697,1.478s1.238-0.158,3.018-0.677C264.369,10.858,265.398,10.523,266.473,10.096 M274.885,8.881
			c-1.039,0.609-2.127,1.286-3.25,1.917c-1.111,0.644-2.234,1.277-3.293,1.868c-1.057,0.598-2.045,1.156-2.891,1.635
			c-1.699,0.957-2.822,1.655-2.822,1.655s1.305-0.244,3.168-0.889c0.463-0.167,0.971-0.335,1.492-0.551
			c0.52-0.216,1.082-0.419,1.637-0.686c1.131-0.492,2.301-1.098,3.451-1.739c0.582-0.312,1.127-0.687,1.684-1.021
			c0.551-0.344,1.066-0.728,1.572-1.084c1-0.737,1.875-1.503,2.582-2.204c0.693-0.721,1.244-1.339,1.566-1.827
			c0.336-0.474,0.514-0.749,0.514-0.749s-0.277,0.19-0.732,0.534c-0.439,0.361-1.129,0.802-1.906,1.364
			c-0.412,0.258-0.85,0.543-1.301,0.855C275.881,8.246,275.387,8.552,274.885,8.881 M18.361,15.582
			c0.511,0.58,1.001,1.178,1.545,1.711c0.533,0.545,1.042,1.093,1.585,1.576c0.535,0.49,1.046,0.968,1.565,1.386
			c0.523,0.412,0.994,0.826,1.473,1.155c0.476,0.331,0.911,0.635,1.297,0.904c0.394,0.256,0.758,0.452,1.046,0.626
			c0.587,0.329,0.923,0.517,0.923,0.517s-0.279-0.265-0.767-0.729c-0.502-0.441-1.187-1.105-1.992-1.91
			c-0.42-0.38-0.823-0.853-1.276-1.317c-0.463-0.454-0.915-0.971-1.387-1.498c-0.964-1.035-1.92-2.205-2.89-3.359
			c-0.489-0.576-0.931-1.19-1.409-1.758c-0.457-0.588-0.906-1.165-1.342-1.725c-0.873-1.123-1.688-2.17-2.386-3.067
			c-1.404-1.799-2.391-2.996-2.391-2.996s0.475,1.488,1.578,3.523c0.543,1.022,1.244,2.178,2.056,3.375
			C16.412,13.184,17.348,14.415,18.361,15.582 M15.987,7.268c0.649,1.041,1.427,2.092,2.224,3.132
			c0.408,0.512,0.844,1.003,1.258,1.498c0.423,0.488,0.88,0.935,1.302,1.381c0.877,0.869,1.757,1.618,2.546,2.214
			c0.401,0.292,0.783,0.539,1.117,0.76c0.325,0.232,0.652,0.38,0.903,0.519c0.511,0.267,0.807,0.404,0.807,0.404
			s-0.228-0.244-0.631-0.645c-0.418-0.381-0.951-0.994-1.62-1.678c-0.315-0.365-0.656-0.757-1.029-1.156
			c-0.357-0.418-0.72-0.869-1.12-1.311c-0.755-0.931-1.578-1.903-2.358-2.917c-0.397-0.501-0.806-0.993-1.182-1.499
			c-0.388-0.498-0.771-0.988-1.14-1.462c-0.742-0.949-1.427-1.843-2.037-2.6c-1.194-1.525-2.053-2.522-2.053-2.522
			s0.425,1.25,1.333,2.988C14.759,5.244,15.32,6.241,15.987,7.268"/>
	</g>
</g>
</svg>
