<?xml version="1.0" encoding="utf-8"?>
<!-- Generator: Adobe Illustrator 19.1.0, SVG Export Plug-In . SVG Version: 6.00 Build 0)  -->
<svg version="1.1" id="Layer_1" xmlns="http://www.w3.org/2000/svg" xmlns:xlink="http://www.w3.org/1999/xlink" x="0px" y="0px"
	 viewBox="-152 341 305.8 112" style="enable-background:new -152 341 305.8 112;" xml:space="preserve">
<style type="text/css">
	.nav-nose-18-st-0{fill:#F0A732;}
	.nav-nose-18-st-1{fill:#D72050;}
	.nav-nose-18-st-2{fill:#75A08A;}
	.nav-nose-18-st-3{fill:#0B3746;}
</style>
<g>
	<path class="nav-nose-18-st-0" d="M-4.6,354.7c0,0,21.7,49.3,29.7,65c-11.3,0.3-14.4,7.6-30.4,27.8c-13.5-18.5-18.9-28.2-30.6-27.8L-4.6,354.7z"
		/>
	<path class="nav-nose-18-st-0" d="M-27.6,402.6c-6.6,7.6-13.6,0.2-17.5,9.5c-2.6,6.1,3.9,7.6,10.7,7.6L-27.6,402.6z"/>
	<path class="nav-nose-18-st-0" d="M16.6,402c7,7.7,14.1,0.3,18.2,9.9c2.6,6.3-4,7.8-11.1,7.8L16.6,402z"/>
	<path class="nav-nose-18-st-1" d="M-38.4,419.6c0.9-0.7,4.5-1.9,8.7-1.1c0.7,0.7,5.3,5,5.3,5s-11.1-3-11.8-3.3C-37,420-38.4,419.6-38.4,419.6z"
		/>
	<path class="nav-nose-18-st-1" d="M12.6,425.1c1-1.1,3.7-3.9,6.1-6.1c4.1-1.7,7.3,0.8,7.3,0.8L12.6,425.1z"/>
	<g>
		<path class="nav-nose-18-st-2" d="M8.5,390.5c-3.1-4.3-4.7-6.5-7.4-10.3c3.2-2.3,7.7-2.1,9.8,0.8C13,383.9,11.8,388.2,8.5,390.5z"/>
		
			<rect x="12.7" y="374.4" transform="matrix(0.5832 0.8123 -0.8123 0.5832 313.8595 147.5034)" class="nav-nose-18-st-0" width="1" height="10.3"/>
		
			<rect x="12.2" y="378.7" transform="matrix(0.3502 0.9367 -0.9367 0.3502 367.8165 237.5877)" class="nav-nose-18-st-0" width="1" height="10.3"/>
		<rect x="7" y="375.6" transform="matrix(0.8059 0.5921 -0.5921 0.8059 225.7316 69.0656)" class="nav-nose-18-st-0" width="1" height="6.4"/>
	</g>
	<g>
		<path class="nav-nose-18-st-2" d="M-101.6,418.4c-4.8,2.3-7.2,3.4-11.4,5.5c-1.7-3.6-0.7-8,2.5-9.5C-107.3,412.8-103.3,414.8-101.6,418.4z"/>
		
			<rect x="-112" y="406.7" transform="matrix(0.9027 -0.4303 0.4303 0.9027 -188.0947 -7.8934)" class="nav-nose-18-st-0" width="1" height="10.3"/>
		
			<rect x="-107.9" y="408" transform="matrix(0.9838 -0.1791 0.1791 0.9838 -75.7096 -12.5456)" class="nav-nose-18-st-0" width="1" height="10.3"/>
		
			<rect x="-113.8" y="414.1" transform="matrix(0.7252 -0.6885 0.6885 0.7252 -318.429 36.6561)" class="nav-nose-18-st-0" width="1" height="6.4"/>
	</g>
	<g>
		<path class="nav-nose-18-st-3" d="M89.3,391.8c-18.9,3.5-37-8.1-42.1-26.2c0.1,1.1,0.2,2.2,0.4,3.2c3.7,19.9,22.9,33.1,42.8,29.4
			c19.9-3.7,33.1-22.9,29.4-42.8c-0.2-1.1-0.5-2.1-0.7-3.2C121,371,108.2,388.3,89.3,391.8z"/>
		<path class="nav-nose-18-st-3" d="M-90.5,391.8c18.9,3.5,37-8.1,42.1-26.2c-0.1,1.1-0.2,2.2-0.4,3.2c-3.7,19.9-22.9,33.1-42.8,29.4
			c-19.9-3.7-33.1-22.9-29.4-42.8c0.2-1.1,0.5-2.1,0.7-3.2C-122.2,371-109.4,388.3-90.5,391.8z"/>
	</g>
	<g>
		<path class="nav-nose-18-st-2" d="M82.4,385.4c-4.8,2.3-7.2,3.4-11.4,5.5c-1.7-3.6-0.7-8,2.5-9.5C76.7,379.8,80.7,381.8,82.4,385.4z"/>
		
			<rect x="72" y="373.7" transform="matrix(0.9027 -0.4303 0.4303 0.9027 -155.9846 68.0765)" class="nav-nose-18-st-0" width="1" height="10.3"/>
		<rect x="76.1" y="375" transform="matrix(0.9838 -0.1791 0.1791 0.9838 -66.8275 19.8665)" class="nav-nose-18-st-0" width="1" height="10.3"/>
		
			<rect x="70.2" y="381.1" transform="matrix(0.7252 -0.6885 0.6885 0.7252 -245.1548 154.2709)" class="nav-nose-18-st-0" width="1" height="6.4"/>
	</g>
</g>
</svg>
