<?xml version="1.0" encoding="utf-8"?>
<!-- Generator: Adobe Illustrator 19.1.0, SVG Export Plug-In . SVG Version: 6.00 Build 0)  -->
<svg version="1.1" id="Layer_1" xmlns="http://www.w3.org/2000/svg" xmlns:xlink="http://www.w3.org/1999/xlink" x="0px" y="0px"
	 viewBox="-152 341 305.8 112" style="enable-background:new -152 341 305.8 112;" xml:space="preserve">
<style type="text/css">
	.nav-nose-19-st-0{opacity:0.5;fill:#D72050;}
	.nav-nose-19-st-1{fill:#D72050;}
	.nav-nose-19-st-2{fill:url(#nav-nose-19-id-1);}
	.nav-nose-19-st-3{fill:#0B3746;}
</style>
<g>
	<circle class="nav-nose-19-st-0" cx="79" cy="384.6" r="33.5"/>
	<circle class="nav-nose-19-st-0" cx="-76.7" cy="384.6" r="33.5"/>
	<path class="nav-nose-19-st-1" d="M-6.8,421.6c2.4-0.1,4,1.2,4,3.3c0,2-1.3,3.9-3.5,4c-2.2,0-3.6-1.7-3.5-3.5C-9.7,423.5-8.9,421.7-6.8,421.6z"
		/>
	<linearGradient id="nav-nose-19-id-1" gradientUnits="userSpaceOnUse" x1="-122.071" y1="405.89" x2="-116.5845" y2="402.4616">
		<stop  offset="0.469" style="stop-color:#D72050"/>
		<stop  offset="0.8719" style="stop-color:#D72050;stop-opacity:0"/>
	</linearGradient>
	<path class="nav-nose-19-st-2" d="M-120.8,401.1c0,0-2.6,2.5-1.3,4.7s4.7,1.4,5.3,0.9c0,0,1.9-1.7,0-4.6C-118.7,399.2-120.8,401.1-120.8,401.1z"
		/>
	<path class="nav-nose-19-st-3" d="M10,371.7c0.2,2.5,0.4,5.2,0.7,7.8c0.3,2.7,0.7,5.4,1.2,8c0.4,2.7,1,5.3,1.4,7.9c0.4,2.6,0.7,5.1,0.8,7.7
		c0.1,2.5,0.2,4.9,0.1,7.2c-0.1,2.3-0.3,4.5-0.5,6.5c-0.2,2-0.5,3.8-0.9,5.4c-0.3,1.6-0.6,3-0.9,4.1c-0.6,2.3-1.1,3.6-1.1,3.6
		s0.6-1.2,1.4-3.4c0.8-2.2,1.8-5.5,2.6-9.5c0.8-4,1.3-8.8,1.2-14c-0.1-2.5-0.3-5.2-0.6-7.9c-0.3-2.7-0.8-5.4-1.2-8
		c-0.4-2.7-0.8-5.3-1.2-7.9c-0.4-2.6-0.6-5.2-0.9-7.7c-0.3-2.5-0.5-4.9-0.7-7.3c-0.2-2.3-0.4-4.5-0.6-6.5c-0.4-4-0.6-7.4-0.9-9.8
		c-0.2-2.4-0.4-3.7-0.4-3.7s-0.1,1.4-0.1,3.7c0,1.2-0.1,2.6-0.1,4.3c0,1.7,0,3.5,0,5.5C9.5,361.9,9.7,366.6,10,371.7z M29.3,415.3
		c-0.5-1.4-1.1-2.4-1.5-3.1c-0.4-0.7-0.6-1-0.6-1s0.1,0.4,0.2,1.2c0.1,0.8,0.4,1.9,0.6,3.3c0.2,1.4,0.5,3.1,0.4,4.9
		c0,0.9-0.1,1.9-0.3,2.8c-0.1,0.5-0.3,0.9-0.5,1.3c-0.1,0.2-0.2,0.3-0.4,0.5l-0.3,0.3l-0.3,0.2c-1.7,1.5-4,2.7-6.5,4
		c-2.5,1.4-5.3,2.9-7.4,5.7c-1,1.4-1.7,2.7-2.5,4.1c-0.8,1.4-1.6,2.7-2.5,3.9c-0.9,1.2-1.9,2.4-3,3.2c-0.3,0.2-0.6,0.4-0.9,0.6
		c-0.3,0.2-0.6,0.3-0.9,0.4c-0.3,0.1-0.6,0.1-0.9,0.2C1.8,448,1.4,448,1,448c0,0,0,0,0,0l0,0l-0.1,0l-0.1,0l-0.2,0
		c-0.2,0-0.3,0-0.5,0c-0.3-0.1-0.6-0.1-1-0.3c-0.3-0.1-0.6-0.2-0.9-0.4c-0.3-0.2-0.6-0.3-0.9-0.6c-1.1-0.8-2.1-2-3-3.2
		c-1.8-2.5-3.2-5.3-5-8c-1-1.4-2.3-2.5-3.5-3.4c-1.3-0.9-2.6-1.6-3.8-2.3c-2.5-1.3-4.8-2.5-6.5-4c-1.6-1.2-1.8-3.4-1.8-5.2
		c0-1.9,0.3-3.6,0.5-4.9c0.2-1.4,0.5-2.5,0.6-3.2c0.1-0.8,0.2-1.2,0.2-1.2s-0.3,0.3-0.6,1c-0.4,0.7-0.9,1.7-1.4,3.1
		c-0.5,1.4-1,3.1-1.2,5.2c-0.1,1.1-0.1,2.2,0.3,3.4c0.1,0.6,0.4,1.2,0.7,1.9c0.2,0.3,0.4,0.6,0.6,0.9c0.2,0.3,0.5,0.6,0.8,0.7
		c1.9,1.7,4.4,3,6.8,4.4c2.4,1.4,4.9,2.8,6.4,5.1c1.6,2.4,3,5.3,4.9,8.1c1,1.4,2.1,2.7,3.6,3.8c0.4,0.3,0.8,0.5,1.2,0.8
		c0.4,0.3,0.9,0.4,1.3,0.6c0.4,0.2,0.9,0.3,1.4,0.4c0.2,0.1,0.5,0.1,0.7,0.1l0.4,0l0.2,0l0.1,0l0,0c0.1,0-0.1,0,0.2,0
		c0.4,0,0.8,0,1.2-0.1c0.5-0.1,1.1-0.2,1.5-0.4c0.4-0.2,0.9-0.3,1.3-0.6c0.4-0.2,0.8-0.5,1.2-0.8c1.5-1.1,2.6-2.5,3.6-3.8
		c1.9-2.7,3.3-5.7,4.9-8.1c1.5-2.2,4-3.7,6.4-5c2.4-1.4,4.9-2.6,6.8-4.4l0.2-0.2l0.1-0.1l0.1-0.1l0,0l0.3-0.3
		c0.2-0.3,0.5-0.6,0.7-0.9c0.4-0.6,0.6-1.3,0.8-1.9c0.3-1.3,0.3-2.4,0.2-3.5C30.4,418.4,29.8,416.7,29.3,415.3z M-11.8,428.4
		c0.1,0.2,0.2,0.4,0.3,0.6c0.1,0.2,0.3,0.3,0.4,0.4c0.1,0.1,0.3,0.2,0.4,0.3c0.2,0.2,0.5,0.3,0.7,0.3c0.2,0.1,0.3,0.1,0.3,0.1
		s-0.1-0.1-0.1-0.2c-0.1-0.1-0.3-0.3-0.4-0.6c-0.1-0.1-0.1-0.2-0.2-0.4c0-0.1-0.1-0.3-0.1-0.4c0-0.2-0.1-0.3,0-0.4
		c0-0.1,0-0.3,0.1-0.4c0-0.1,0.1-0.3,0.1-0.4c0.1-0.1,0.1-0.2,0.2-0.3c0,0,0,0,0,0c0.2,0.4,0.4,0.8,0.6,1.1c0.8,0.9,2,1.5,3.2,1.5
		l0.1,0c2.7-0.1,4.2-1.6,4.3-4.5c0-0.2,0-0.4,0-0.6c0.2,0.1,0.3,0.2,0.5,0.3c0.1,0.1,0.2,0.2,0.3,0.3c0.1,0.1,0.2,0.2,0.2,0.3
		c0.1,0.2,0.2,0.4,0.3,0.6c0.1,0.2,0.1,0.4,0.1,0.5c0,0.1,0,0.2,0,0.2s0-0.1,0.1-0.2c0-0.1,0.1-0.3,0.1-0.6c0-0.2,0-0.5,0-0.8
		c-0.1-0.3-0.2-0.7-0.4-1c-0.4-0.6-0.9-1.1-1.4-1.3c-0.2-0.1-0.4-0.2-0.6-0.2c0,0-0.1-0.1-0.1-0.1c-0.8-0.9-2.1-1.5-3.7-1.6
		c-0.1,0-0.2,0-0.3,0c-1.4,0-3.1,0.7-3.7,4c0,0,0,0,0,0c-0.2,0.1-0.4,0.3-0.6,0.5c-0.2,0.3-0.5,0.6-0.7,1c-0.2,0.4-0.3,0.9-0.3,1.4
		C-12,428-11.9,428.2-11.8,428.4z M-9,425.4c0.5-3.1,1.8-3.1,2.3-3.1l0.2,0c1.1,0.1,2.1,0.5,2.6,1c0.4,0.4,0.5,0.9,0.5,1.6
		c-0.1,2.1-1,3.1-2.9,3.1l-0.1,0c-0.8,0-1.6-0.3-2.1-0.9C-8.8,426.8-9.1,426.2-9,425.4z M129.8,369.6c-0.2-2.3-0.3-3.7-0.3-3.7
		s0,0.3-0.1,1c-0.1,0.6-0.1,1.5-0.2,2.7c-0.1,1.2-0.3,2.6-0.4,4.2c-0.2,1.6-0.4,3.4-0.6,5.4c-0.1,1-0.3,2-0.4,3.1
		c-0.2,1.1-0.3,2.1-0.5,3.3c-0.2,1.1-0.4,2.3-0.7,3.4c-0.3,1.2-0.5,2.3-0.8,3.5c-0.3,1.2-0.7,2.4-1,3.6c-0.4,1.2-0.8,2.4-1.3,3.6
		c-0.3,0.6-0.5,1.2-0.8,1.7c-0.3,0.6-0.5,1.2-0.8,1.7c-0.6,1.1-1.2,2.3-2,3.3c-0.4,0.5-0.7,1-1.1,1.6l-1.2,1.6
		c-0.8,1-1.6,2.2-2.3,3.3c-1.5,2.2-2.8,4.5-4,6.7c-1.2,2.2-2.2,4.5-3.1,6.6c-0.9,2.2-1.6,4.2-2.2,6.2c-0.6,1.9-1,3.7-1.4,5.3
		c-0.3,1.6-0.5,3-0.7,4.2c-0.1,1.2-0.2,2.1-0.2,2.7c0,0.6,0,1,0,1s0.1-0.3,0.2-0.9c0.1-0.6,0.3-1.5,0.6-2.6c0.3-1.1,0.7-2.5,1.2-4
		c0.5-1.5,1.1-3.2,1.8-5.1c0.7-1.8,1.6-3.8,2.6-5.8c1-2,2.1-4.2,3.3-6.3c1.2-2.1,2.6-4.3,4-6.4c0.8-1,1.5-2.1,2.3-3.1l1.2-1.6
		l1.2-1.7c1.7-2.3,2.8-4.8,3.8-7.3c0.5-1.3,0.9-2.5,1.3-3.8c0.3-1.3,0.7-2.5,1-3.8c0.2-1.2,0.5-2.5,0.7-3.7c0.2-1.2,0.4-2.4,0.5-3.5
		c0.1-1.2,0.2-2.3,0.4-3.4c0.1-1.1,0.1-2.1,0.2-3.1C130.1,375.3,130,372,129.8,369.6z M-103.7,434.3c-0.3-1.4-0.7-2.9-1.2-4.3
		c-0.4-1.4-1-2.8-1.5-4.2c-0.5-1.4-1.1-2.7-1.7-4.1c-0.6-1.3-1.2-2.7-1.9-4c-0.7-1.3-1.3-2.6-2-3.9c-1.4-2.6-2.9-5.1-4.4-7.6
		l-0.7-1.2l-1.3,0.6c-0.6,0.3-1.2,0.4-1.6,0.4c-0.2,0-0.3-0.1-0.5-0.2c-0.1,0-0.1-0.1-0.2-0.2c0,0,0,0-0.1-0.1l-0.2-0.3
		c0,0-0.1-0.2-0.1-0.3c-0.1-0.1-0.1-0.2-0.1-0.3c0-0.2,0-0.3,0-0.5c0.1-0.3,0.5-0.8,1.1-1.3l1-0.9l-0.7-1.2c-0.4-0.7-0.8-1.3-1.2-2
		c-0.4-0.7-0.7-1.4-1-2.1c-0.3-0.7-0.6-1.4-0.9-2.2c-0.3-0.7-0.5-1.5-0.7-2.3c-0.2-0.8-0.4-1.5-0.6-2.3c-0.2-0.8-0.4-1.6-0.5-2.3
		c-0.3-1.6-0.6-3.2-0.8-4.8c-0.4-3.2-0.6-6.5-0.8-9.7c-0.2-3.3-0.2-6.5-0.3-9.9c-0.9,3.2-1.3,6.5-1.5,9.8c-0.1,1.7-0.2,3.3-0.2,5
		c0,1.7,0.1,3.3,0.2,5c0.1,1.7,0.3,3.3,0.6,5c0.2,1.7,0.6,3.3,1,5c0.2,0.8,0.5,1.6,0.7,2.5c0.3,0.8,0.6,1.6,0.9,2.4
		c0.3,0.8,0.7,1.6,1.1,2.4c0.2,0.4,0.4,0.8,0.7,1.2c0,0-0.1,0.1-0.1,0.1c-0.3,0.4-0.7,0.9-0.9,1.6c-0.1,0.3-0.2,0.7-0.2,1
		c0,0.3,0,0.7,0.1,1c0.1,0.3,0.2,0.6,0.3,0.9c0.1,0.3,0.2,0.5,0.4,0.8l0.2,0.3c0.1,0.1,0.2,0.3,0.3,0.4c0.2,0.3,0.5,0.5,0.8,0.7
		c0.6,0.4,1.3,0.6,1.9,0.7c0.6,0.1,1.2,0,1.8-0.2c0.1,0,0.1,0,0.2-0.1c1.3,2.1,2.6,4.2,3.9,6.3c0.8,1.2,1.5,2.5,2.2,3.7
		c0.7,1.3,1.4,2.5,2.1,3.8c1.4,2.5,2.7,5.1,3.9,7.7c0.3,0.7,0.6,1.3,0.9,2c0.3,0.7,0.6,1.3,0.9,2c0.6,1.3,1,2.7,1.5,4.1
		c-0.1-0.7-0.2-1.5-0.3-2.2C-103.4,435.7-103.5,435-103.7,434.3z"/>
</g>
</svg>
