<?xml version="1.0" encoding="utf-8"?>
<!-- Generator: Adobe Illustrator 15.0.0, SVG Export Plug-In . SVG Version: 6.00 Build 0)  -->
<!DOCTYPE svg PUBLIC "-//W3C//DTD SVG 1.1//EN" "http://www.w3.org/Graphics/SVG/1.1/DTD/svg11.dtd">
<svg version="1.1" id="Layer_1" xmlns="http://www.w3.org/2000/svg" xmlns:xlink="http://www.w3.org/1999/xlink" x="0px" y="0px"
	 width="305.834px" height="112px" viewBox="0 0 305.834 112" enable-background="new 0 0 305.834 112" xml:space="preserve">
<g>
	<polygon fill="#0C3846" points="110.767,35 153.25,102 143.067,35 	"/>
	<polygon fill="#0C3846" points="195.251,35 152.768,102 162.95,35 	"/>
	<polygon fill="#D72251" points="126.767,4 153.019,102 179.067,4 	"/>
	<polygon fill="#D72251" points="0,31.482 95.756,18.467 0,5.553 	"/>
	<polygon fill="#F0A733" points="0,69.982 95.756,56.967 0,44.053 	"/>
	<polygon fill="#D72251" points="0,108.482 95.756,95.467 0,82.553 	"/>
	<polygon fill="#F0A733" points="306,82.552 210.244,95.567 306,108.481 	"/>
	<polygon fill="#D72251" points="306,44.052 210.244,57.067 306,69.981 	"/>
	<polygon fill="#F0A733" points="306,5.552 210.244,18.567 306,31.481 	"/>
	<polygon fill="#F0A733" points="146.102,17 152.917,10.184 159.732,17 	"/>
	<polygon fill="#F0A733" points="146.102,32 152.917,25.185 159.732,32 	"/>
	<polygon fill="#F0A733" points="146.102,46 152.917,39.185 159.732,46 	"/>
	<polygon fill="#F0A733" points="146.102,61 152.917,54.184 159.732,61 	"/>
</g>
</svg>
