<?xml version="1.0" encoding="utf-8"?>
<!-- Generator: Adobe Illustrator 15.0.0, SVG Export Plug-In . SVG Version: 6.00 Build 0)  -->
<!DOCTYPE svg PUBLIC "-//W3C//DTD SVG 1.1//EN" "http://www.w3.org/Graphics/SVG/1.1/DTD/svg11.dtd">
<svg version="1.1" id="Layer_1" xmlns="http://www.w3.org/2000/svg" xmlns:xlink="http://www.w3.org/1999/xlink" x="0px" y="0px"
	 width="305.834px" height="112px" viewBox="0 0 305.834 112" enable-background="new 0 0 305.834 112" xml:space="preserve">
<g>
	<g>
		<path fill-rule="evenodd" clip-rule="evenodd" fill="#0C3846" d="M191.21,92.418c0.064,0.017,0.126,0.036,0.136,0.108
			c-0.062,0.037-0.102-0.07-0.109,0C191.2,92.518,191.214,92.458,191.21,92.418z"/>
		<path fill-rule="evenodd" clip-rule="evenodd" fill="#0C3846" d="M174.329,94.001c-0.015-0.014,0.019-0.034,0.026-0.027
			C174.37,93.988,174.336,94.009,174.329,94.001z"/>
		<path fill-rule="evenodd" clip-rule="evenodd" fill="#0C3846" d="M190.577,77.533c-0.006,0.025,0.012,0.027,0.028,0.03
			c0.018,0.042,0.036-0.004,0,0C190.611,77.538,190.596,77.535,190.577,77.533C190.559,77.491,190.541,77.536,190.577,77.533z"/>
		<path fill-rule="evenodd" clip-rule="evenodd" fill="#0C3846" d="M190.753,77.973c0.08,0.073,0.161,0.103,0.292,0.059
			c-0.001-0.146-0.14-0.153-0.204-0.234c-0.03,0-0.06,0-0.088,0C190.753,77.855,190.753,77.914,190.753,77.973z"/>
		<path fill-rule="evenodd" clip-rule="evenodd" fill="#0C3846" d="M162.539,78.09c-0.022,0.006-0.057,0.001-0.059,0.029
			C162.504,78.112,162.538,78.118,162.539,78.09z"/>
		<path fill-rule="evenodd" clip-rule="evenodd" fill="#0C3846" d="M162.511,78.294c0.021-0.02,0.076-0.175-0.03-0.146
			C162.497,78.19,162.447,78.299,162.511,78.294z"/>
		<path fill-rule="evenodd" clip-rule="evenodd" fill="#0C3846" d="M162.539,78.47C162.679,78.551,162.61,78.374,162.539,78.47
			L162.539,78.47z"/>
		<path fill-rule="evenodd" clip-rule="evenodd" fill="#0C3846" d="M162.686,78.528c-0.008-0.008-0.044,0.014-0.029,0.029
			C162.665,78.566,162.701,78.544,162.686,78.528z"/>
		<path fill-rule="evenodd" clip-rule="evenodd" fill="#0C3846" d="M193.24,82.246c0.057-0.014,0.126-0.012,0.116-0.088
			C193.28,82.149,193.23,82.168,193.24,82.246z"/>
		<path fill-rule="evenodd" clip-rule="evenodd" fill="#0C3846" d="M181.768,82.567c-0.035,0.006-0.018,0.032,0,0.059
			c0.044,0.005,0.107-0.011,0.117,0.029c0.059,0,0.116,0,0.176,0c0.033,0.014,0.066,0.031,0.088,0.059
			c0.1-0.05,0.208,0.059,0.263-0.059C182.238,82.599,181.975,82.493,181.768,82.567z"/>
		<path fill-rule="evenodd" clip-rule="evenodd" fill="#0C3846" d="M173.544,94.391c0.268,0.034,0.416,0.189,0.585,0.321
			c0.172-0.084,0.244,0.107,0.409,0.118c0.07,0.106,0.167,0.185,0.206,0.321c0.251,0.149,0.415,0.385,0.556,0.645
			c0.034,0.024,0.078,0.038,0.146,0.029c0.07,0.134,0.232,0.177,0.322,0.292c0.048,0,0.098,0,0.146,0
			c0.025,0.063,0.072,0.104,0.176,0.088c0.04,0.047,0.101,0.074,0.175,0.088c0.028,0.06,0.061,0.116,0.089,0.176
			c0.048,0,0.097,0,0.146,0c0.061,0.105,0.177,0.156,0.293,0.204c0.078,0.245,0.396,0.248,0.498,0.47
			c0.138-0.031,0.164,0.05,0.204,0.116c0.125,0.013,0.223,0.052,0.293,0.117c0.141,0.005,0.151,0.141,0.293,0.146
			c0.087,0,0.175,0,0.263,0c0.091,0.046,0.132,0.142,0.205,0.204c0.137,0.03,0.268,0.064,0.352,0.146c0.058,0,0.117,0,0.176,0
			c0.047,0.051,0.122,0.073,0.233,0.059c-0.012,0.081,0.109,0.027,0.117,0.088c0.059,0,0.117,0,0.176,0
			c0.083,0.094,0.256,0.096,0.352,0.176c0.211-0.029,0.298,0.041,0.409,0.059c0.029,0.004,0.022-0.028,0.029-0.029
			c0.034-0.007,0.09,0.064,0.146,0.029c0.044,0.034,0.12,0.037,0.146,0.087c0.231-0.069,0.445,0.092,0.731,0.06
			c0.001,0.049,0.081,0.016,0.088,0.059c0.083-0.024,0.076,0.041,0.146,0.029c0.193-0.015,0.298-0.034,0.557-0.029
			c0.072,0.004,0.09-0.046,0.146-0.059c0.104,0.052,0.309-0.014,0.41-0.06c0.055-0.006,0.063,0.034,0.116,0.03
			c0.041-0.085,0.161-0.093,0.234-0.146c0.11,0.002,0.084,0.033,0.176,0c0.083-0.025,0.12-0.094,0.234-0.087
			c0.052-0.134,0.235-0.136,0.322-0.235c0.09,0.021,0.085-0.049,0.175-0.029c0.033-0.044,0.084-0.071,0.117-0.116
			c0.08-0.009,0.138-0.038,0.176-0.088c0.052-0.056,0.085,0.034,0.146-0.03c0.08-0.104,0.173-0.197,0.293-0.263
			c0.08-0.018,0.122-0.073,0.205-0.088c0.033-0.122,0.146-0.165,0.175-0.293c0.153-0.051,0.198-0.212,0.352-0.264
			c0.021-0.076,0.133-0.062,0.146-0.146c0.061-0.047,0.119-0.094,0.204-0.116c0-0.098,0.095-0.101,0.088-0.205
			c0.106-0.06,0.158-0.174,0.264-0.233c0.001-0.039,0.051-0.027,0.058-0.059c0.007-0.033,0.033-0.046,0.061-0.059
			c0.094,0.007,0.061-0.114,0.146-0.117c0.114-0.042,0.195-0.117,0.351-0.117c0.071-0.114,0.169-0.201,0.146-0.41
			c0.168-0.096,0.315-0.211,0.381-0.409c0.039,0.009,0.056,0.041,0.117,0.029c-0.023-0.111,0.062-0.114,0.116-0.146
			c0.021-0.066,0.089-0.087,0.147-0.117c-0.025-0.123,0.057-0.138,0.059-0.234c0.097-0.02,0.132-0.102,0.146-0.205
			c0.116-0.02,0.102-0.171,0.234-0.175c-0.001-0.041,0.014-0.065,0.029-0.089c0.048,0,0.017-0.081,0.059-0.088
			c0.124,0.008,0.148-0.084,0.233-0.116c0.041-0.038,0.014-0.144,0.089-0.146c0.024-0.199,0.073-0.375,0.204-0.468
			c-0.026-0.167,0.127-0.198,0.059-0.322c0.06-0.009,0.058-0.079,0.117-0.088c-0.046-0.225,0.121-0.455,0.234-0.615
			c-0.096-0.052-0.008-0.106-0.03-0.233c0.037-0.102,0.065-0.21,0.059-0.351c0.025-0.073,0.081-0.116,0.089-0.206
			c-0.067-0.161,0.021-0.248,0.059-0.38c-0.034-0.005-0.032-0.047-0.029-0.088c-0.009-0.039-0.042-0.056-0.029-0.117
			c0.065-0.279-0.062-0.516,0-0.79c-0.009-0.04-0.042-0.056-0.029-0.117c-0.175-0.139-0.145-0.479-0.234-0.702
			c-0.012-0.07,0.054-0.064,0.029-0.146c-0.088-0.078-0.099-0.233-0.176-0.321c0.01-0.04,0.042-0.056,0.029-0.117
			c-0.078-0.049-0.051-0.203-0.117-0.265c0.021-0.089-0.03-0.106-0.029-0.175c0-0.098,0-0.195,0-0.293
			c-0.034-0.005-0.032-0.046-0.029-0.088c-0.068-0.077-0.116-0.176-0.175-0.263c0-0.059,0-0.117,0-0.176
			c-0.086-0.053-0.068-0.206-0.146-0.264c-0.031-0.106-0.138-0.136-0.117-0.293c-0.074-0.052-0.087-0.167-0.146-0.233
			c0.022-0.09-0.05-0.086-0.03-0.176c-0.064-0.022-0.072-0.103-0.116-0.146c-0.014-0.085-0.103-0.092-0.088-0.204
			c-0.072-0.036-0.114-0.102-0.146-0.177c-0.11-0.037-0.188-0.104-0.234-0.204c-0.137-0.029-0.186-0.147-0.323-0.176
			c-0.142-0.18-0.3-0.344-0.584-0.381c-0.021-0.067-0.098-0.078-0.117-0.146c-0.127,0.01-0.163-0.07-0.265-0.088
			c-0.004-0.054-0.099-0.018-0.116-0.059c-0.02-0.039-0.062-0.054-0.117-0.059c-0.025-0.051-0.07-0.085-0.088-0.146
			c-0.165-0.021-0.258-0.113-0.409-0.146c-0.023-0.064-0.138-0.038-0.146-0.117c-0.093-0.004-0.129-0.067-0.234-0.059
			c-0.037-0.05-0.061-0.115-0.146-0.117c-0.082-0.024-0.18-0.033-0.263-0.059c-0.046-0.042-0.023-0.152-0.118-0.146
			c-0.006-0.043-0.07-0.027-0.116-0.03c-0.034-0.024-0.079-0.038-0.147-0.028c-0.005-0.044-0.07-0.027-0.116-0.029
			c-0.033-0.025-0.079-0.039-0.146-0.029c-0.069-0.01-0.055-0.102-0.146-0.089c-0.021-0.006-0.057,0-0.059-0.028
			c-0.116,0-0.233,0-0.351,0c-0.143-0.043-0.271-0.099-0.469-0.089c-0.039-0.076-0.22-0.013-0.205-0.146
			c-0.069,0.018-0.134,0.043-0.233,0.029c-0.066-0.031-0.129-0.066-0.176-0.117c-0.171,0.024-0.199-0.093-0.38-0.059
			c-0.042-0.047-0.103-0.074-0.176-0.088c-0.13,0.012-0.227-0.008-0.292-0.059c-0.05,0.06-0.193,0.022-0.207,0.117
			c0.052,0.005,0,0.033,0,0.059c0.003,0.04,0.013,0.064,0.03,0.088c0.001,0.038,0.038,0.041,0.03,0.088
			c-0.036,0.014-0.067,0.031-0.089,0.059c-0.063-0.023-0.038-0.138-0.116-0.146c0.004,0.072,0.005,0.142-0.06,0.146
			c-0.012-0.05-0.037,0.006-0.087,0c-0.056,0.006-0.065-0.033-0.118-0.029c-0.047,0.05-0.122,0.072-0.233,0.058
			c-0.055-0.003-0.098-0.019-0.117-0.058c-0.042-0.017-0.151,0.034-0.146-0.029c-0.108-0.016-0.164-0.084-0.264-0.029
			c-0.084-0.083-0.225-0.107-0.352-0.146c-0.221,0.004-0.382,0.067-0.586,0.088c-0.053,0.045-0.09,0.105-0.204,0.088
			c-0.021,0.077-0.138,0.058-0.176,0.116c-0.179,0.026-0.226,0.075-0.381,0.03c-0.034,0.062-0.031,0.164-0.088,0.205
			c-0.156,0.009-0.167,0.164-0.351,0.146c-0.021,0.077-0.089,0.106-0.146,0.146c-0.013,0.037-0.038,0.06-0.089,0.059
			c0.003,0.05-0.022,0.075-0.058,0.088c-0.056,0.013-0.074,0.063-0.146,0.059c-0.062,0.144-0.24,0.169-0.322,0.293
			c-0.103-0.006-0.096,0.099-0.176,0.116c-0.057-0.008-0.057,0.04-0.087,0.059c-0.02,0.04-0.062,0.055-0.117,0.059
			c-0.018,0.062-0.062,0.095-0.088,0.146c-0.109-0.021-0.063,0.112-0.146,0.117c-0.062,0.046-0.13,0.084-0.205,0.117
			c-0.005,0.083-0.053,0.122-0.058,0.205c-0.055,0.004-0.098,0.019-0.117,0.059c0.045,0.008,0.02,0.063,0,0.088
			c-0.104,0.023-0.137,0.117-0.264,0.117c0.02,0.098-0.05,0.106-0.117,0.116c-0.006,0.102-0.104,0.111-0.117,0.205
			c-0.064,0.043-0.058,0.156-0.146,0.176c-0.011,0.146-0.062,0.25-0.116,0.352c-0.091-0.022-0.107,0.029-0.176,0.028
			c0.02,0.255-0.171,0.298-0.176,0.527c-0.068,0.059-0.166,0.088-0.146,0.234c-0.165,0.117-0.269,0.297-0.293,0.556
			c-0.079,0.038-0.084,0.15-0.175,0.176c0.022,0.101-0.033,0.124-0.06,0.175c-0.002,0.087-0.066,0.109-0.116,0.146
			c0.033,0.111-0.037,0.158-0.059,0.176c-0.037,0.031,0.002,0.126-0.059,0.117c-0.021,0.108,0.05,0.126,0.029,0.234
			c-0.09-0.021-0.086,0.051-0.176,0.029c-0.005,0.044,0.011,0.108-0.029,0.117c-0.033,0.006-0.046,0.032-0.058,0.059
			c-0.002,0.038-0.052,0.026-0.06,0.059c-0.068,0.02-0.078,0.098-0.146,0.117c0.024,0.088,0.041,0.156,0.028,0.233
			c-0.005,0.039-0.043,0.055-0.059,0.088c-0.02,0.044-0.014,0.074-0.029,0.117c-0.101-0.023-0.124,0.033-0.175,0.059
			c-0.026,0.102-0.051,0.202-0.118,0.263c0.024,0.181-0.06,0.253-0.087,0.382c0,0.077,0,0.155,0,0.233
			c-0.026,0.043-0.044,0.093-0.117,0.088c-0.029,0.039-0.049,0.089-0.088,0.117c-0.046,0.091-0.125,0.148-0.205,0.205
			c0.015,0.095-0.038,0.111-0.059,0.146c-0.026,0.045-0.05,0.081-0.088,0.118c-0.019,0.155-0.078,0.271-0.116,0.409
			c0.014,0.288,0.02,0.584,0.087,0.819c0.008,0.086-0.065,0.09-0.059,0.176c0.01,0.106-0.005,0.19-0.028,0.264
			c0.012,0.056,0.082,0.053,0.058,0.146c-0.005,0.134-0.024,0.115,0,0.234c0.022,0.007,0.034,0.025,0.029,0.059
			c-0.009,0.067,0.085,0.033,0.088,0.088c0.008,0.177,0.12,0.25,0.146,0.409c-0.018,0.062-0.062,0.096-0.088,0.146
			c0.018,0.051,0.14-0.001,0.146,0.059c0.07,0.01,0.055,0.103,0.147,0.089c0.11-0.023,0.14,0.035,0.233,0.028
			C173.49,94.327,173.556,94.32,173.544,94.391z"/>
		<path fill-rule="evenodd" clip-rule="evenodd" fill="#0C3846" d="M184.724,83.182c-0.03,0.049-0.125,0.032-0.177,0.059
			c0-0.029-0.051-0.036-0.058,0c0.038,0.04,0.127,0.029,0.204,0.029c0.006,0.043,0.072,0.027,0.118,0.029
			c0.018,0.017,0.139,0.068,0.146,0C184.866,83.273,184.834,83.188,184.724,83.182z"/>
		<path fill-rule="evenodd" clip-rule="evenodd" fill="#0C3846" d="M184.46,83.211c-0.009-0.008-0.044,0.014-0.029,0.029
			C184.438,83.248,184.476,83.226,184.46,83.211z"/>
		<path fill-rule="evenodd" clip-rule="evenodd" fill="#0C3846" d="M185.28,83.328c-0.035-0.024-0.079-0.039-0.147-0.029
			C185.088,83.387,185.284,83.376,185.28,83.328z"/>
		<path fill-rule="evenodd" clip-rule="evenodd" fill="#0C3846" d="M185.602,83.504c0.066-0.021,0.229,0.053,0.204-0.059
			C185.724,83.45,185.605,83.42,185.602,83.504z"/>
		<path fill-rule="evenodd" clip-rule="evenodd" fill="#0C3846" d="M186.187,83.532c-0.107,0.022-0.163-0.071-0.233,0
			c0.012,0.115,0.174,0.081,0.146,0.235c0.036-0.004,0.069-0.01,0.059-0.059c0.034-0.015,0.067-0.031,0.087-0.06
			C186.207,83.631,186.19,83.588,186.187,83.532z"/>
		<path fill-rule="evenodd" clip-rule="evenodd" fill="#0C3846" d="M172.432,84.616c0-0.029-0.051-0.037-0.06,0
			C172.405,84.612,172.418,84.658,172.432,84.616z"/>
		<path fill-rule="evenodd" clip-rule="evenodd" fill="#0C3846" d="M169.036,87.221c0.061,0.008,0.027,0.109,0.088,0.116
			c0.067-0.098,0.181-0.15,0.147-0.351c-0.102,0.014-0.103-0.073-0.147-0.117C169.038,86.991,169.057,87.065,169.036,87.221z"/>
		<path fill-rule="evenodd" clip-rule="evenodd" fill="#0C3846" d="M165.554,94.068c0.002-0.05-0.023-0.075-0.058-0.087
			C165.498,94.027,165.491,94.083,165.554,94.068z"/>
		<path fill-rule="evenodd" clip-rule="evenodd" fill="#0C3846" d="M172.987,95.299c0.119,0.018,0.172,0.101,0.322,0.087
			c0.038-0.165-0.116-0.138-0.117-0.263c-0.147,0.02-0.204-0.051-0.352-0.029C172.844,95.207,172.984,95.185,172.987,95.299z"/>
		<path fill-rule="evenodd" clip-rule="evenodd" fill="#0C3846" d="M186.859,98.576c-0.037,0.079-0.148,0.085-0.176,0.175
			c0.15,0.07,0.239-0.09,0.293-0.204c-0.041-0.007-0.049-0.049-0.088-0.059C186.888,98.525,186.851,98.528,186.859,98.576z"/>
		<path fill-rule="evenodd" clip-rule="evenodd" fill="#0C3846" d="M169.124,99.63c-0.008-0.009-0.044,0.014-0.029,0.028
			C169.104,99.667,169.14,99.645,169.124,99.63z"/>
		<path fill-rule="evenodd" clip-rule="evenodd" fill="#0C3846" d="M179.807,103.697c-0.022,0.008-0.059,0.001-0.059,0.029
			C179.771,103.72,179.806,103.726,179.807,103.697z"/>
		<path fill-rule="evenodd" clip-rule="evenodd" fill="#0C3846" d="M185.426,104.225c0.017-0.116-0.152-0.198-0.234-0.117
			C185.303,104.113,185.302,104.229,185.426,104.225z"/>
		<path fill-rule="evenodd" clip-rule="evenodd" fill="#0C3846" d="M186.011,104.692c0.035,0.014,0.066,0.031,0.088,0.06
			c-0.008,0.085,0.066,0.089,0.059,0.175c0.054,0.034,0.1,0.076,0.147,0.117c0.048,0.048,0.131,0.063,0.174,0.117
			c0.092-0.039,0.163,0.086,0.205,0c-0.038-0.001-0.026-0.052-0.058-0.059c-0.003-0.047-0.075-0.023-0.059-0.088
			c-0.097-0.011-0.146-0.068-0.205-0.117c-0.028-0.06-0.06-0.116-0.088-0.176c-0.055-0.023-0.107-0.049-0.176-0.059
			c-0.006-0.032-0.032-0.045-0.059-0.059c-0.034-0.004-0.065-0.052-0.087,0C185.993,104.612,185.986,104.669,186.011,104.692z"/>
		<path fill-rule="evenodd" clip-rule="evenodd" fill="#0C3846" d="M186.684,104.81c0.001-0.016-0.022-0.033-0.028,0
			C186.654,104.826,186.679,104.843,186.684,104.81z"/>
		<path fill-rule="evenodd" clip-rule="evenodd" fill="#0C3846" d="M186.771,105.248c-0.001,0.101,0.086,0.11,0.147,0.146
			C186.905,105.311,186.856,105.262,186.771,105.248C186.754,105.205,186.737,105.251,186.771,105.248z"/>
	</g>
	<g>
		<path fill-rule="evenodd" clip-rule="evenodd" fill="#0C3846" d="M141.21,92.418c0.064,0.017,0.125,0.036,0.135,0.108
			c-0.062,0.037-0.102-0.07-0.109,0C141.2,92.518,141.214,92.458,141.21,92.418z"/>
		<path fill-rule="evenodd" clip-rule="evenodd" fill="#0C3846" d="M124.329,94.001c-0.016-0.014,0.018-0.034,0.025-0.027
			C124.37,93.988,124.335,94.009,124.329,94.001z"/>
		<path fill-rule="evenodd" clip-rule="evenodd" fill="#0C3846" d="M140.577,77.533c-0.006,0.025,0.012,0.027,0.027,0.03
			c0.018,0.042,0.037-0.004,0,0C140.61,77.538,140.595,77.535,140.577,77.533C140.558,77.491,140.54,77.536,140.577,77.533z"/>
		<path fill-rule="evenodd" clip-rule="evenodd" fill="#0C3846" d="M140.753,77.973c0.08,0.073,0.16,0.103,0.291,0.059
			c0-0.146-0.139-0.153-0.203-0.234c-0.031,0-0.061,0-0.088,0C140.753,77.855,140.753,77.914,140.753,77.973z"/>
		<path fill-rule="evenodd" clip-rule="evenodd" fill="#0C3846" d="M112.539,78.09c-0.022,0.006-0.057,0.001-0.059,0.029
			C112.503,78.112,112.538,78.118,112.539,78.09z"/>
		<path fill-rule="evenodd" clip-rule="evenodd" fill="#0C3846" d="M112.51,78.294c0.021-0.02,0.076-0.175-0.03-0.146
			C112.497,78.19,112.447,78.299,112.51,78.294z"/>
		<path fill-rule="evenodd" clip-rule="evenodd" fill="#0C3846" d="M112.539,78.47C112.678,78.551,112.61,78.374,112.539,78.47
			L112.539,78.47z"/>
		<path fill-rule="evenodd" clip-rule="evenodd" fill="#0C3846" d="M112.685,78.528c-0.008-0.008-0.044,0.014-0.029,0.029
			C112.665,78.566,112.701,78.544,112.685,78.528z"/>
		<path fill-rule="evenodd" clip-rule="evenodd" fill="#0C3846" d="M143.239,82.246c0.057-0.014,0.127-0.012,0.117-0.088
			C143.28,82.149,143.229,82.168,143.239,82.246z"/>
		<path fill-rule="evenodd" clip-rule="evenodd" fill="#0C3846" d="M131.767,82.567c-0.035,0.006-0.018,0.032,0,0.059
			c0.045,0.005,0.107-0.011,0.117,0.029c0.059,0,0.117,0,0.176,0c0.033,0.014,0.066,0.031,0.088,0.059
			c0.1-0.05,0.209,0.059,0.264-0.059C132.237,82.599,131.974,82.493,131.767,82.567z"/>
		<path fill-rule="evenodd" clip-rule="evenodd" fill="#0C3846" d="M123.544,94.391c0.268,0.034,0.416,0.189,0.584,0.321
			c0.172-0.084,0.244,0.107,0.41,0.118c0.07,0.106,0.166,0.185,0.205,0.321c0.252,0.149,0.416,0.385,0.557,0.645
			c0.033,0.024,0.078,0.038,0.146,0.029c0.07,0.134,0.232,0.177,0.322,0.292c0.047,0,0.098,0,0.145,0
			c0.025,0.063,0.072,0.104,0.176,0.088c0.041,0.047,0.102,0.074,0.176,0.088c0.027,0.06,0.061,0.116,0.088,0.176
			c0.049,0,0.098,0,0.146,0c0.061,0.105,0.176,0.156,0.293,0.204c0.078,0.245,0.396,0.248,0.498,0.47
			c0.137-0.031,0.164,0.05,0.203,0.116c0.125,0.013,0.223,0.052,0.293,0.117c0.141,0.005,0.152,0.141,0.293,0.146
			c0.088,0,0.176,0,0.264,0c0.09,0.046,0.131,0.142,0.205,0.204c0.137,0.03,0.268,0.064,0.352,0.146c0.057,0,0.117,0,0.176,0
			c0.047,0.051,0.121,0.073,0.232,0.059c-0.012,0.081,0.109,0.027,0.117,0.088c0.059,0,0.117,0,0.176,0
			c0.084,0.094,0.256,0.096,0.352,0.176c0.211-0.029,0.299,0.041,0.41,0.059c0.029,0.004,0.021-0.028,0.029-0.029
			c0.033-0.007,0.09,0.064,0.146,0.029c0.043,0.034,0.119,0.037,0.146,0.087c0.23-0.069,0.445,0.092,0.73,0.06
			c0.002,0.049,0.082,0.016,0.088,0.059c0.084-0.024,0.076,0.041,0.146,0.029c0.193-0.015,0.299-0.034,0.557-0.029
			c0.072,0.004,0.09-0.046,0.146-0.059c0.104,0.052,0.309-0.014,0.41-0.06c0.055-0.006,0.062,0.034,0.115,0.03
			c0.041-0.085,0.162-0.093,0.234-0.146c0.111,0.002,0.084,0.033,0.176,0c0.084-0.025,0.121-0.094,0.234-0.087
			c0.053-0.134,0.236-0.136,0.322-0.235c0.09,0.021,0.086-0.049,0.176-0.029c0.033-0.044,0.084-0.071,0.117-0.116
			c0.08-0.009,0.137-0.038,0.176-0.088c0.051-0.056,0.084,0.034,0.146-0.03c0.08-0.104,0.172-0.197,0.293-0.263
			c0.08-0.018,0.121-0.073,0.205-0.088c0.033-0.122,0.146-0.165,0.174-0.293c0.154-0.051,0.199-0.212,0.352-0.264
			c0.021-0.076,0.133-0.062,0.146-0.146c0.061-0.047,0.119-0.094,0.205-0.116c0-0.098,0.094-0.101,0.088-0.205
			c0.105-0.06,0.158-0.174,0.264-0.233c0-0.039,0.051-0.027,0.057-0.059c0.008-0.033,0.033-0.046,0.061-0.059
			c0.094,0.007,0.061-0.114,0.146-0.117c0.113-0.042,0.195-0.117,0.35-0.117c0.072-0.114,0.17-0.201,0.146-0.41
			c0.168-0.096,0.316-0.211,0.381-0.409c0.039,0.009,0.057,0.041,0.117,0.029c-0.023-0.111,0.062-0.114,0.117-0.146
			c0.021-0.066,0.088-0.087,0.146-0.117c-0.025-0.123,0.057-0.138,0.059-0.234c0.098-0.02,0.133-0.102,0.146-0.205
			c0.115-0.02,0.102-0.171,0.234-0.175c-0.002-0.041,0.014-0.065,0.029-0.089c0.047,0,0.016-0.081,0.059-0.088
			c0.123,0.008,0.148-0.084,0.232-0.116c0.041-0.038,0.014-0.144,0.09-0.146c0.023-0.199,0.072-0.375,0.203-0.468
			c-0.025-0.167,0.127-0.198,0.059-0.322c0.061-0.009,0.059-0.079,0.117-0.088c-0.045-0.225,0.121-0.455,0.234-0.615
			c-0.096-0.052-0.008-0.106-0.029-0.233c0.037-0.102,0.064-0.21,0.059-0.351c0.025-0.073,0.08-0.116,0.088-0.206
			c-0.066-0.161,0.021-0.248,0.059-0.38c-0.033-0.005-0.031-0.047-0.029-0.088c-0.008-0.039-0.041-0.056-0.029-0.117
			c0.066-0.279-0.061-0.516,0-0.79c-0.008-0.04-0.041-0.056-0.029-0.117c-0.174-0.139-0.145-0.479-0.234-0.702
			c-0.012-0.07,0.055-0.064,0.029-0.146c-0.088-0.078-0.098-0.233-0.176-0.321c0.01-0.04,0.043-0.056,0.029-0.117
			c-0.078-0.049-0.051-0.203-0.117-0.265c0.021-0.089-0.029-0.106-0.029-0.175c0-0.098,0-0.195,0-0.293
			c-0.033-0.005-0.031-0.046-0.029-0.088c-0.068-0.077-0.115-0.176-0.174-0.263c0-0.059,0-0.117,0-0.176
			c-0.086-0.053-0.068-0.206-0.146-0.264c-0.031-0.106-0.139-0.136-0.117-0.293c-0.074-0.052-0.088-0.167-0.146-0.233
			c0.021-0.09-0.051-0.086-0.031-0.176c-0.064-0.022-0.072-0.103-0.115-0.146c-0.014-0.085-0.104-0.092-0.088-0.204
			c-0.072-0.036-0.115-0.102-0.146-0.177c-0.109-0.037-0.188-0.104-0.234-0.204c-0.137-0.029-0.186-0.147-0.322-0.176
			c-0.143-0.18-0.301-0.344-0.584-0.381c-0.021-0.067-0.098-0.078-0.117-0.146c-0.127,0.01-0.164-0.07-0.266-0.088
			c-0.004-0.054-0.098-0.018-0.115-0.059c-0.02-0.039-0.062-0.054-0.117-0.059c-0.025-0.051-0.07-0.085-0.088-0.146
			c-0.166-0.021-0.258-0.113-0.41-0.146c-0.023-0.064-0.137-0.038-0.146-0.117c-0.092-0.004-0.129-0.067-0.234-0.059
			c-0.037-0.05-0.061-0.115-0.146-0.117c-0.082-0.024-0.18-0.033-0.262-0.059c-0.047-0.042-0.023-0.152-0.119-0.146
			c-0.006-0.043-0.07-0.027-0.115-0.03c-0.035-0.024-0.08-0.038-0.148-0.028c-0.004-0.044-0.07-0.027-0.115-0.029
			c-0.033-0.025-0.08-0.039-0.146-0.029c-0.07-0.01-0.055-0.102-0.146-0.089c-0.021-0.006-0.057,0-0.059-0.028
			c-0.117,0-0.234,0-0.352,0c-0.143-0.043-0.271-0.099-0.469-0.089c-0.039-0.076-0.219-0.013-0.205-0.146
			c-0.068,0.018-0.133,0.043-0.232,0.029c-0.066-0.031-0.129-0.066-0.176-0.117c-0.172,0.024-0.199-0.093-0.381-0.059
			c-0.041-0.047-0.102-0.074-0.176-0.088c-0.129,0.012-0.227-0.008-0.291-0.059c-0.051,0.06-0.193,0.022-0.207,0.117
			c0.051,0.005,0,0.033,0,0.059c0.002,0.04,0.012,0.064,0.029,0.088c0.002,0.038,0.039,0.041,0.031,0.088
			c-0.037,0.014-0.068,0.031-0.09,0.059c-0.062-0.023-0.037-0.138-0.115-0.146c0.004,0.072,0.004,0.142-0.061,0.146
			c-0.012-0.05-0.037,0.006-0.086,0c-0.057,0.006-0.066-0.033-0.119-0.029c-0.047,0.05-0.121,0.072-0.232,0.058
			c-0.055-0.003-0.098-0.019-0.117-0.058c-0.043-0.017-0.152,0.034-0.146-0.029c-0.107-0.016-0.164-0.084-0.264-0.029
			c-0.084-0.083-0.225-0.107-0.352-0.146c-0.221,0.004-0.381,0.067-0.586,0.088c-0.053,0.045-0.09,0.105-0.203,0.088
			c-0.021,0.077-0.139,0.058-0.176,0.116c-0.18,0.026-0.227,0.075-0.381,0.03c-0.035,0.062-0.031,0.164-0.088,0.205
			c-0.156,0.009-0.168,0.164-0.352,0.146c-0.02,0.077-0.088,0.106-0.146,0.146c-0.012,0.037-0.037,0.06-0.088,0.059
			c0.002,0.05-0.023,0.075-0.059,0.088c-0.055,0.013-0.074,0.063-0.146,0.059c-0.061,0.144-0.24,0.169-0.322,0.293
			c-0.102-0.006-0.096,0.099-0.176,0.116c-0.057-0.008-0.057,0.04-0.086,0.059c-0.02,0.04-0.062,0.055-0.117,0.059
			c-0.018,0.062-0.062,0.095-0.088,0.146c-0.109-0.021-0.064,0.112-0.146,0.117c-0.062,0.046-0.131,0.084-0.205,0.117
			c-0.006,0.083-0.053,0.122-0.059,0.205c-0.055,0.004-0.098,0.019-0.117,0.059c0.045,0.008,0.02,0.063,0,0.088
			c-0.104,0.023-0.137,0.117-0.264,0.117c0.02,0.098-0.049,0.106-0.117,0.116c-0.006,0.102-0.104,0.111-0.117,0.205
			c-0.064,0.043-0.057,0.156-0.146,0.176c-0.01,0.146-0.062,0.25-0.115,0.352c-0.092-0.022-0.107,0.029-0.176,0.028
			c0.02,0.255-0.172,0.298-0.176,0.527c-0.068,0.059-0.166,0.088-0.146,0.234c-0.166,0.117-0.27,0.297-0.293,0.556
			c-0.08,0.038-0.084,0.15-0.176,0.176c0.023,0.101-0.033,0.124-0.059,0.175c-0.002,0.087-0.066,0.109-0.117,0.146
			c0.033,0.111-0.037,0.158-0.059,0.176c-0.037,0.031,0.002,0.126-0.059,0.117c-0.02,0.108,0.051,0.126,0.029,0.234
			c-0.09-0.021-0.086,0.051-0.176,0.029c-0.004,0.044,0.012,0.108-0.029,0.117c-0.033,0.006-0.045,0.032-0.057,0.059
			c-0.002,0.038-0.053,0.026-0.061,0.059c-0.068,0.02-0.078,0.098-0.145,0.117c0.023,0.088,0.041,0.156,0.027,0.233
			c-0.004,0.039-0.043,0.055-0.059,0.088c-0.02,0.044-0.014,0.074-0.029,0.117c-0.1-0.023-0.123,0.033-0.174,0.059
			c-0.027,0.102-0.051,0.202-0.119,0.263c0.025,0.181-0.059,0.253-0.086,0.382c0,0.077,0,0.155,0,0.233
			c-0.027,0.043-0.045,0.093-0.117,0.088c-0.029,0.039-0.049,0.089-0.088,0.117c-0.047,0.091-0.125,0.148-0.205,0.205
			c0.014,0.095-0.039,0.111-0.059,0.146c-0.027,0.045-0.051,0.081-0.088,0.118c-0.02,0.155-0.078,0.271-0.117,0.409
			c0.014,0.288,0.02,0.584,0.088,0.819c0.008,0.086-0.066,0.09-0.059,0.176c0.01,0.106-0.006,0.19-0.029,0.264
			c0.012,0.056,0.082,0.053,0.059,0.146c-0.006,0.134-0.025,0.115,0,0.234c0.021,0.007,0.033,0.025,0.029,0.059
			c-0.01,0.067,0.084,0.033,0.088,0.088c0.008,0.177,0.119,0.25,0.146,0.409c-0.018,0.062-0.062,0.096-0.088,0.146
			c0.018,0.051,0.139-0.001,0.145,0.059c0.07,0.01,0.055,0.103,0.148,0.089c0.109-0.023,0.139,0.035,0.232,0.028
			C123.489,94.327,123.556,94.32,123.544,94.391z"/>
		<path fill-rule="evenodd" clip-rule="evenodd" fill="#0C3846" d="M134.724,83.182c-0.031,0.049-0.125,0.032-0.178,0.059
			c0-0.029-0.051-0.036-0.057,0c0.037,0.04,0.127,0.029,0.203,0.029c0.006,0.043,0.072,0.027,0.119,0.029
			c0.018,0.017,0.139,0.068,0.146,0C134.866,83.273,134.833,83.188,134.724,83.182z"/>
		<path fill-rule="evenodd" clip-rule="evenodd" fill="#0C3846" d="M134.46,83.211c-0.01-0.008-0.045,0.014-0.029,0.029
			C134.438,83.248,134.476,83.226,134.46,83.211z"/>
		<path fill-rule="evenodd" clip-rule="evenodd" fill="#0C3846" d="M135.28,83.328c-0.035-0.024-0.08-0.039-0.148-0.029
			C135.087,83.387,135.284,83.376,135.28,83.328z"/>
		<path fill-rule="evenodd" clip-rule="evenodd" fill="#0C3846" d="M135.601,83.504c0.066-0.021,0.229,0.053,0.205-0.059
			C135.724,83.45,135.604,83.42,135.601,83.504z"/>
		<path fill-rule="evenodd" clip-rule="evenodd" fill="#0C3846" d="M136.187,83.532c-0.107,0.022-0.164-0.071-0.234,0
			c0.012,0.115,0.174,0.081,0.146,0.235c0.035-0.004,0.068-0.01,0.059-0.059c0.033-0.015,0.066-0.031,0.086-0.06
			C136.206,83.631,136.19,83.588,136.187,83.532z"/>
		<path fill-rule="evenodd" clip-rule="evenodd" fill="#0C3846" d="M122.431,84.616c0-0.029-0.051-0.037-0.059,0
			C122.405,84.612,122.417,84.658,122.431,84.616z"/>
		<path fill-rule="evenodd" clip-rule="evenodd" fill="#0C3846" d="M119.036,87.221c0.061,0.008,0.027,0.109,0.088,0.116
			c0.067-0.098,0.181-0.15,0.147-0.351c-0.102,0.014-0.103-0.073-0.147-0.117C119.038,86.991,119.056,87.065,119.036,87.221z"/>
		<path fill-rule="evenodd" clip-rule="evenodd" fill="#0C3846" d="M115.553,94.068c0.002-0.05-0.023-0.075-0.058-0.087
			C115.498,94.027,115.491,94.083,115.553,94.068z"/>
		<path fill-rule="evenodd" clip-rule="evenodd" fill="#0C3846" d="M122.987,95.299c0.119,0.018,0.172,0.101,0.322,0.087
			c0.037-0.165-0.117-0.138-0.117-0.263c-0.148,0.02-0.205-0.051-0.352-0.029C122.843,95.207,122.983,95.185,122.987,95.299z"/>
		<path fill-rule="evenodd" clip-rule="evenodd" fill="#0C3846" d="M136.858,98.576c-0.037,0.079-0.148,0.085-0.176,0.175
			c0.15,0.07,0.24-0.09,0.293-0.204c-0.041-0.007-0.049-0.049-0.088-0.059C136.888,98.525,136.851,98.528,136.858,98.576z"/>
		<path fill-rule="evenodd" clip-rule="evenodd" fill="#0C3846" d="M119.124,99.63c-0.008-0.009-0.044,0.014-0.029,0.028
			C119.103,99.667,119.139,99.645,119.124,99.63z"/>
		<path fill-rule="evenodd" clip-rule="evenodd" fill="#0C3846" d="M129.806,103.697c-0.021,0.008-0.059,0.001-0.059,0.029
			C129.771,103.72,129.806,103.726,129.806,103.697z"/>
		<path fill-rule="evenodd" clip-rule="evenodd" fill="#0C3846" d="M135.425,104.225c0.018-0.116-0.152-0.198-0.234-0.117
			C135.302,104.113,135.302,104.229,135.425,104.225z"/>
		<path fill-rule="evenodd" clip-rule="evenodd" fill="#0C3846" d="M136.011,104.692c0.035,0.014,0.066,0.031,0.088,0.06
			c-0.008,0.085,0.066,0.089,0.059,0.175c0.053,0.034,0.1,0.076,0.146,0.117c0.049,0.048,0.131,0.063,0.174,0.117
			c0.092-0.039,0.164,0.086,0.205,0c-0.037-0.001-0.025-0.052-0.057-0.059c-0.004-0.047-0.076-0.023-0.059-0.088
			c-0.098-0.011-0.146-0.068-0.205-0.117c-0.029-0.06-0.061-0.116-0.088-0.176c-0.055-0.023-0.107-0.049-0.176-0.059
			c-0.006-0.032-0.033-0.045-0.059-0.059c-0.035-0.004-0.066-0.052-0.088,0C135.993,104.612,135.985,104.669,136.011,104.692z"/>
		<path fill-rule="evenodd" clip-rule="evenodd" fill="#0C3846" d="M136.683,104.81c0.002-0.016-0.021-0.033-0.027,0
			C136.653,104.826,136.679,104.843,136.683,104.81z"/>
		<path fill-rule="evenodd" clip-rule="evenodd" fill="#0C3846" d="M136.771,105.248c0,0.101,0.086,0.11,0.148,0.146
			C136.905,105.311,136.856,105.262,136.771,105.248C136.753,105.205,136.737,105.251,136.771,105.248z"/>
	</g>
	<path fill-rule="evenodd" clip-rule="evenodd" fill="#0C3846" d="M141.806,6.609c0.17-0.03,0.154,0.127,0.351,0.069
		c0.017,0.101,0.21,0.026,0.21,0.141c0.209-0.096,0.435-0.087,0.562,0.07c0.633-0.222,1.515-0.106,2.104-0.211
		c0.551,0.058,1.007,0.211,1.613,0.211c0.043,0.143,0.328,0.047,0.35,0.209c0.189-0.066,0.359-0.153,0.562-0.209
		c0.326,0,0.654,0,0.981,0c0.103,0.132,0.384,0.081,0.351,0.351c0.117-0.093,0.234-0.187,0.49-0.142
		c0.225-0.058,0.218,0.112,0.351,0.142c0.059-0.067,0.447-0.148,0.491,0c0.139-0.093,0.332-0.133,0.49-0.21
		c0.538,0.117,1.29,0.019,1.683,0.279c0.362-0.011,0.792,0.046,1.052-0.069c0.498,0.003,0.594,0.037,1.053,0
		c0.344,0.101,0.863,0.024,1.122,0.211c0.601,0.007,1.112,0.101,1.683,0.141c0.209,0,0.238,0.181,0.421,0.211
		c0.67-0.02,0.802,0.127,1.263-0.072c0.742,0.123,1.604,0.125,2.244,0.351c0.495-0.087,0.86,0.038,1.401,0.07
		c0.176-0.011,0.22,0.108,0.281,0.21c0.164,0.003,0.206-0.12,0.421-0.069c0.219-0.011,0.24,0.181,0.279,0.352
		c0.119,0.003,0.182-0.054,0.21-0.141c0.017-0.077,0.14-0.049,0.142-0.142c0.211,0.197,0.377,0.032,0.771,0.071
		c0.199,0.057,0.181-0.098,0.351-0.071c0.113-0.019,0.121,0.066,0.21,0.071c0.082-0.013,0.126,0.015,0.141,0.07
		c0.138-0.139,0.4-0.045,0.562,0c0.173,0.008,0.338,0.011,0.421-0.07c0.175-0.011,0.217,0.11,0.35,0.14
		c0.402-0.134,0.917-0.161,1.402-0.211c0.222-0.031,0.274,0.101,0.42,0.142c0.237-0.016,0.442-0.151,0.563,0.069
		c0.197-0.055,0.527-0.206,0.7-0.069c0.163,0.062,0.302-0.245,0.351-0.07c0.175,0.011,0.217-0.111,0.351-0.141
		c0.6-0.077,1.177,0.134,1.612,0c0.003,0.069,0.086,0.054,0.142,0.069c0.174-0.01,0.215,0.111,0.351,0.142
		c0.345,0.063,0.449-0.043,0.771,0.069c0.279-0.118,0.739-0.055,1.123-0.069c0.27,0.08,0.322,0.165,0.63,0.069
		c0.216,0.252,0.56,0.375,0.981,0.42c0.116,0.234,0.248,0.453,0.211,0.842c-0.262,0.043-0.46,0.149-0.632,0.283
		c-0.067,0.284,0.174,0.447,0,0.63c0.205,0.054-0.063,0.579,0.14,0.632c-0.009,0.13-0.045,0.234-0.14,0.279
		c0.108,0.102,0.062,0.359,0.071,0.562c-0.021,0.112,0.065,0.121,0.068,0.211c0.009,1.015,0.015,1.625,0.071,2.174
		c-0.001,0.186,0.027,0.398-0.071,0.489c0.208,0.39,0.303,0.98,0.211,1.473c-0.038,0.155,0.135,0.102,0.142,0.211
		c-0.001,0.187,0.038,0.412-0.142,0.421c0.063,0.125,0.169,0.204,0.21,0.351c-0.08,0.216-0.012,0.589,0.071,0.842
		c0.022,0.256-0.061,0.62,0.071,0.77c-0.009,0.181-0.13,0.248-0.211,0.352c0.062,0.125,0.169,0.205,0.211,0.352
		c0.017,0.612,0.048,1.212,0.14,1.752c0.01,0.173,0.013,0.341-0.14,0.352c0.097,0.043,0.01,0.27,0.14,0.28
		c0.097,0.042,0.01,0.269,0.139,0.279c0.06,0.199-0.098,0.181-0.069,0.352c0.191,0.378,0.021,0.687,0.211,1.052
		c-0.01,0.341,0.037,0.737-0.07,0.983c0.084,0.09,0.026,0.108,0,0.209c0.106,0.219,0.234,0.421,0.28,0.701
		c-0.077,0.016-0.047,0.139-0.141,0.141c-0.081,0.011-0.06,0.128-0.069,0.211c-0.067,0.253,0.314,0.058,0.279,0.279
		c-0.002,0.187,0.038,0.413-0.139,0.421c0.085,0.157,0.202,0.309,0,0.421c0.028,0.133,0.149,0.176,0.139,0.349
		c-0.06,0.344-0.167,0.833-0.069,1.124c-0.036,0.221-0.124,0.392-0.21,0.56c-0.01,0.128,0.085,0.148,0.069,0.281
		c0.005,0.11-0.033,0.268,0.071,0.28c-0.163,0.317-0.057,0.469-0.141,0.841c0.068,0.189,0.154,0.36,0.21,0.562
		c-0.1,0.535,0.02,0.857-0.141,1.331c-0.052,0.217,0.192,0.137,0.141,0.352c0.091,0.174-0.206,0.291,0,0.349
		c-0.061,0.152-0.182,0.24-0.141,0.493c-0.061,0.224,0.11,0.216,0.141,0.35c-0.052,0.215,0.071,0.255,0.069,0.421
		c-0.092,0.07-0.259,0.068-0.35,0.141c0.028,0.251,0.373,0.189,0.28,0.562c-0.169,0.027,0.039-0.319-0.21-0.21
		c0.006,0.188-0.117,0.142,0,0.28c0.11,0.004,0.266-0.036,0.279,0.068c0.091,0.276-0.23,0.145-0.139,0.421
		c0.015,0.09,0.208,0.094,0.209,0c0.232,0.17-0.089,0.373-0.14,0.492c0.118,0.014,0.181-0.119,0.211,0
		c0.057,0.197-0.1,0.182-0.071,0.349c-0.001,0.166,0.122,0.208,0.071,0.421c0.062,0.02,0.234,0.262,0.069,0.283
		c0.04,0.143,0.148,0.226,0.211,0.349c0.029,0.466-0.112,0.671,0.069,0.982c0.009,0.125-0.085,0.146-0.069,0.279
		c0.064,0.568,0.227,1.252,0.141,1.753c0.002,0.23,0.117,0.352,0.068,0.631c0.012,0.248-0.246,0.221-0.35,0.351
		c0.039,0.102-0.083,0.363,0.07,0.353c-0.126,0.13-0.25,0.264-0.352,0.42c0.053,0.065,0.128,0.106,0.211,0.14
		c-0.003,0.119,0.051,0.184,0.141,0.21c-0.064,0.188-0.345,0.391-0.141,0.631c0.089-0.017,0.092-0.208,0-0.21
		c0.105-0.232,0.172,0.146,0.352,0.071c-0.014,0.059,0.026,0.066,0.068,0.069c-0.011,0.083,0.017,0.125,0.071,0.142
		c-0.11,0.357-0.029,0.779,0.07,1.121c-0.029,0.274-0.31,0.298-0.351,0.562c0.059,0.205,0.176-0.093,0.351,0
		c0.011,0.176-0.108,0.218-0.21,0.279c0.276,0.238,0.147,0.879,0.279,1.264c0.062,0.226-0.23,0.096-0.211,0.279
		c0.007,0.102,0.012,0.199-0.068,0.21c-0.004,0.165,0.119,0.207,0.068,0.421c0.01,0.131,0.047,0.234,0.142,0.282
		c0.005,0.108-0.035,0.266,0.069,0.28c-0.132,0.306-0.132,0.604,0,0.91c-0.158,0.673-0.02,1.252-0.211,1.824
		c0.084,0.276-0.078,0.594,0.071,0.91c-0.151-0.011-0.032,0.251-0.071,0.352c-0.117,0.094-0.108,0.312-0.209,0.421
		c0.152,0.756-0.133,1.63-0.07,2.525c-0.191,0.005-0.141-0.118-0.281,0c0.021,0.042,0.175,0.269,0,0.279
		c-0.038,0.247,0.248,0.173,0.211,0.421c-0.106,0.062,0.019,0.104-0.07,0.279c-0.039,0.104,0.082,0.361-0.069,0.351
		c-0.012,0.177,0.108,0.219,0.14,0.353c-0.099,0.322-0.324,0.514-0.491,0.77c0.077,0.322,0.354,0.439,0.28,0.914
		c-0.123,0.061-0.089,0.283-0.35,0.209c-0.024,0.083,0.117,0.035,0.141,0.07c0.067,0.106-0.016,0.396,0.139,0.489
		c-0.005,0.102-0.01,0.2,0.07,0.211c-0.253,0.527,0.08,1.331-0.209,1.894c0.002,0.349,0.081,0.617,0.139,0.913
		c-0.157,0.099-0.133,0.378-0.279,0.49c0.036,0.264,0.099,0.328-0.07,0.49c-0.011,0.176,0.035,0.289,0.14,0.351
		c-0.039,0.102-0.108,0.171-0.211,0.211c0.054,0.134,0.211,0.047,0.071,0.21c-0.06,0.198,0.099,0.182,0.07,0.35
		c-0.172,0.17-0.207,0.208-0.142,0.492c-0.008,0.178-0.102,0.271-0.278,0.279c-0.014,0.152,0.247,0.032,0.35,0.069
		c0.003,0.216-0.063,0.359-0.21,0.421c0.056,0.242-0.08,0.298-0.14,0.421c-0.063,0.226,0.229,0.096,0.209,0.281
		c0.05,0.26-0.119,0.302-0.069,0.56c-0.076-0.016-0.049-0.138-0.14-0.138c-0.101,0.106,0.002,0.407,0.14,0.49
		c0.037,0.101-0.083,0.362,0.069,0.352c-0.051,0.253-0.254,0.354-0.209,0.7c-0.164-0.021-0.08,0.202-0.211,0.21
		c-0.043,0.146,0.086,0.461-0.071,0.49c-0.052,0.215,0.192,0.136,0.14,0.352c0,0.187,0,0.373,0,0.562c-0.117,0-0.232,0-0.35,0
		c-0.062,0.225,0.181,0.144,0.21,0.28c0.007,0.219-0.221,0.199-0.14,0.489c-0.058,0.062-0.191,0.043-0.21,0.141
		c0.046,0.331,0.047,0.688,0.35,0.912c0.061,0.164-0.244,0.303-0.07,0.352c-0.111,0.051,0.017,0.343-0.211,0.279
		c0.047,0.188,0.201,0.266,0.281,0.421c0.039,0.157-0.135,0.101-0.14,0.21c-0.051,0.216,0.07,0.256,0.069,0.421
		c-0.18,0.008-0.111,0.261-0.211,0.352c0.013,0.083,0.128,0.059,0.211,0.068c-0.158,0.158,0.006,0.352,0.07,0.493
		c0.051,0.189-0.14,0.142-0.14,0.279c0.104,0.163-0.023,0.302,0.069,0.352c-0.011,0.08-0.128,0.06-0.211,0.069
		c-0.012,0.277,0.109-0.023,0.211,0.142c0.051,0.214-0.071,0.253-0.069,0.418c-0.052,0.191,0.139,0.144,0.14,0.283
		c-0.034,0.337,0.099,0.847-0.14,0.979c0.104,0.178,0.174,0.389,0.351,0.493c-0.146,0.226,0.015,0.761-0.14,0.979
		c-0.005,0.121,0.051,0.185,0.14,0.211c-0.055,0.063-0.076,0.16-0.071,0.282c0.025,0.162,0.086,0.29,0.143,0.42
		c-0.088,0.3-0.027,0.379,0,0.702c0.025,0.236-0.123,0.298-0.211,0.42c0.07,0.187,0.323,0.188,0.42,0.352
		c0.051,0.213-0.121,0.205-0.069,0.42c-0.021,0.112,0.065,0.121,0.069,0.211c-0.012,0.08,0.016,0.125,0.069,0.139
		c-0.099,0.378-0.016,0.964-0.21,1.403c0.097,0.09,0.044,0.33,0.141,0.421c0.029,0.146-0.048,0.187-0.069,0.279
		c-0.021,0.123,0.196,0.352,0,0.421c0.001,0.142,0.191,0.092,0.139,0.283c-0.046,0.447-0.059,0.498-0.069,0.979
		c0.023,0.165,0.084,0.29,0.141,0.421c0.05,0.215-0.122,0.208-0.071,0.421c0.019,0.215,0.072,0.396,0.142,0.562
		c-0.007,0.471-0.026,0.962,0.141,1.263c-0.01,0.13-0.048,0.233-0.141,0.278c0.057,0.132,0.117,0.26,0.141,0.422
		c-0.083,0.01-0.061,0.127-0.071,0.21c-0.081,0.011-0.06,0.128-0.069,0.211c0.017,0.452,0.202,0.731,0.279,1.121
		c-0.021,0.164-0.137,0.29,0,0.421c0.011,0.175-0.109,0.218-0.139,0.352c0.103,0.224,0.093,0.559,0.35,0.63c0,0.117,0,0.235,0,0.353
		c0.077,0.202,0.225,0.335,0.352,0.489c0,0.142,0,0.279,0,0.422c0.341,0.594,0.298,1.57,0.7,2.103
		c0.074,0.307-0.236,0.229-0.211,0.491c-0.053,0.264,0.268,0.153,0.281,0.351c0.056,0.131,0.117,0.256,0.14,0.421
		c0.069,0.071,0.139,0.142,0.211,0.211c-0.043,0.061-0.085,0.124,0,0.141c-0.038,0.194-0.103,0.362-0.141,0.56
		c0.09,0.349,0.425,0.769,0.21,1.193c0.024,0.162,0.084,0.29,0.14,0.42c0.012,0.174-0.109,0.217-0.14,0.352
		c0.009,0.123,0.064,0.146,0.07,0.28c0.012,0.215-0.181,0.442,0,0.7c-0.022,0.234-0.202,0.311-0.14,0.631
		c-0.01,0.131-0.047,0.234-0.141,0.279c-0.038,0.104,0.081,0.365-0.07,0.352c0.002,0.139,0.192,0.091,0.14,0.28
		c0.055,0.404-0.166,0.668,0,0.981c-0.092,0.268-0.173,0.39-0.069,0.701c-0.104,0.082-0.177,0.082-0.28,0
		c0.036,0.271-0.125,0.344-0.071,0.631c-0.528,0.251-0.944-0.066-1.471,0.211c-0.215,0.006-0.273-0.147-0.42-0.211
		c-0.275-0.094-0.364,0.038-0.563-0.068c-0.274,0.17-0.562,0.324-1.051,0.279c-0.175,0.01-0.217-0.109-0.351-0.139
		c-0.155-0.072-0.253,0.074-0.351,0.069c0.01,0-0.028-0.067-0.07-0.069c-0.099-0.005-0.199,0.019-0.211-0.072
		c-0.221-0.032-0.158,0.217-0.42,0.142c-0.014-0.08-0.07-0.04-0.07,0c-0.284-0.042-0.412-0.242-0.771-0.21
		c-0.11-0.217-0.433-0.222-0.561-0.421c-0.245,0.01-0.448-0.02-0.561-0.142c-0.132,0.139-0.257,0.024-0.421,0
		c-0.261,0.115-0.689,0.059-1.052,0.072c-0.218,0.05-0.136-0.195-0.352-0.142c-0.225-0.016-0.297,0.125-0.561,0.069
		c-0.218-0.016-0.397-0.069-0.561-0.138c-0.393,0.117-0.931,0.07-1.333,0c-0.224-0.062-0.217,0.108-0.35,0.138
		c-0.698,0.054-1.462,0.035-2.104,0.142c-0.293-0.066-0.415-0.147-0.701-0.069c-0.019-0.144-0.262-0.067-0.28-0.21
		c-0.226,0.111-0.465,0.058-0.631-0.072c-0.28-0.021-0.19,0.325-0.421,0.352c-0.241,0.031-0.394-0.026-0.562-0.069
		c-0.168,0.043-0.509-0.088-0.561,0.069c-0.205,0.019-0.216-0.157-0.421-0.142c-0.213,0.069-0.419,0.144-0.632,0.211
		c-0.457,0.05-0.705-0.117-1.051,0c-0.34-0.125-0.954,0.021-1.192-0.211c-0.246,0.035-0.456,0.106-0.771,0.072
		c-0.174,0.01-0.217-0.112-0.352-0.142c-0.271,0.072-0.287-0.037-0.49,0.069c-0.221,0.035-0.16-0.213-0.421-0.138
		c-0.175,0.011-0.217-0.112-0.351-0.143c-0.164,0.025-0.289,0.086-0.422,0.143c-1.002-0.126-2.253,0.151-3.225-0.211
		c-0.262-0.074-0.199,0.173-0.421,0.139c-0.07-0.197-0.298,0.021-0.421,0c-0.123-0.04-0.411,0.085-0.42-0.07
		c-0.134,0.03-0.176,0.153-0.351,0.143c0.03-0.198-0.382,0.053-0.352-0.143c-0.169-0.028-0.151,0.128-0.351,0.07
		c-0.165,0.002-0.206-0.12-0.42-0.07c-0.617,0.112-1.502,0.112-2.033-0.068c-0.328,0.066-0.951,0.144-1.263,0
		c-0.597-0.006-1.018,0.003-1.402-0.072c-0.146,0.043-0.46-0.085-0.491,0.072c-0.24-0.108-0.537-0.165-0.912-0.142
		c-0.123,0.04-0.291,0.038-0.35,0.142c-0.166-0.024-0.264-0.112-0.492-0.072c-0.379,0.141-0.719-0.021-1.052,0.072
		c-0.263-0.019-0.397-0.163-0.561-0.282c-0.214-0.051-0.206,0.123-0.421,0.072c-0.111-0.123-0.315-0.152-0.561-0.143
		c-0.102-0.13-0.459-0.007-0.561-0.141c-0.229,0.009-0.434,0.248-0.631,0.072c0.029-0.319,0.224-0.267,0.49-0.211
		c-0.052-0.276-0.32-0.334-0.631-0.351c-0.309-0.075-0.23,0.236-0.49,0.21c-0.153,0.014-0.225-0.057-0.211-0.21
		c-0.349,0.063-0.299-0.222-0.562-0.07c-0.069-0.092-0.188-0.138-0.21-0.281c-0.175,0.007-0.217,0.133-0.351,0
		c-0.05-0.208-0.21-0.304-0.14-0.632c-0.123-0.111-0.152-0.314-0.141-0.56c-0.057-0.13-0.118-0.258-0.141-0.421
		c0-0.068,0-0.141,0-0.209c-0.033-0.222,0.1-0.274,0.141-0.421c0.008-0.202-0.038-0.462,0.07-0.562
		c-0.129-0.314-0.068-0.82-0.281-1.052c0-0.117,0-0.234,0-0.35c0.006-0.111-0.033-0.269,0.07-0.281
		c-0.061-0.057-0.041-0.191-0.14-0.211c0.128-0.202,0.112-0.219,0.069-0.489c0.093-0.214,0.049-0.56,0.141-0.772
		c0-0.139,0-0.28,0-0.421c-0.156-0.102,0.088-0.17-0.07-0.211c-0.012-0.151,0.057-0.221,0.211-0.21
		c-0.03-0.133-0.151-0.175-0.141-0.349c0.152-0.31,0.05-0.447,0.211-0.703c0.057-0.197-0.099-0.181-0.07-0.349
		c0.075-0.359-0.03-0.464,0.07-0.772c0.053-0.359-0.141-0.551,0.068-0.7c-0.06-0.057-0.041-0.191-0.139-0.211
		c0.117-0.093,0.023-0.396,0.139-0.492c-0.035-0.179-0.092-0.245,0.071-0.35c0.019-0.204-0.159-0.215-0.14-0.42
		c0.042-0.261,0.166-0.442,0.21-0.703c0.042-0.299-0.229-0.285-0.21-0.56c0.081,0.011,0.123-0.016,0.14-0.072
		c0.041-0.144-0.087-0.46,0.07-0.489c-0.117-0.117-0.056-0.411-0.07-0.631c-0.003-0.121,0.052-0.182,0.14-0.211
		c-0.006-0.099-0.011-0.197,0.07-0.21c-0.08-0.083-0.08-0.248-0.07-0.421c0.045-0.258,0.19-0.418,0.141-0.771
		c-0.051-0.191,0.139-0.141,0.141-0.281c0.007-0.287,0.014-0.576-0.07-0.77c-0.042-0.44,0.119-0.646,0-0.983
		c0.164-0.857,0.055-1.555,0.07-2.524c0.037-0.197,0.103-0.365,0.14-0.562c-0.118-0.346,0.036-0.654-0.069-0.91
		c0.045-0.234,0.217-0.344,0.279-0.562c-0.057-0.338-0.039-0.753-0.21-0.979c0.042-0.168,0.101-0.319,0.07-0.562
		c0.059-0.197-0.099-0.181-0.07-0.353c0-0.359,0.103-0.457,0-0.769c0.146-0.019,0.02-0.309,0.142-0.352
		c0.022-0.626,0.07-0.895,0.21-1.474c0.074-0.26-0.175-0.198-0.142-0.42c0.157-0.701,0.038-1.244,0.211-1.894
		c-0.008-0.202,0.038-0.457-0.069-0.56c0.118-0.361,0.15-0.367,0.069-0.771c-0.058-0.198,0.1-0.182,0.07-0.352
		c-0.076-0.285,0.028-0.385,0-0.771c-0.019-0.229,0.271-0.148,0.281-0.351c-0.037-0.502,0.104-1.181-0.142-1.473
		c0.038-0.219,0.058-0.459,0.142-0.632c-0.064-0.204-0.064-0.215,0-0.421c-0.039-0.101,0.081-0.362-0.07-0.352
		c0.038-0.141,0.21-0.136,0.07-0.279c-0.05-0.188,0.145-0.136,0.21-0.21c-0.321-0.847,0.067-1.819-0.07-2.666
		c0.214-0.051,0.255,0.072,0.421,0.072c0.02-0.115-0.066-0.123-0.07-0.211c-0.076-0.019-0.047-0.141-0.141-0.141
		c0.156-0.192,0.045-0.562-0.07-0.701c0.149-0.226-0.04-0.788,0.211-0.91c-0.031-0.064-0.062-0.128-0.141-0.142
		c-0.014,0.081-0.07,0.038-0.07,0c-0.051-0.191,0.141-0.141,0.141-0.279c-0.086-0.031-0.145-0.091-0.141-0.21
		c0.221,0.032,0.054-0.323,0.211-0.353c-0.045-0.258-0.137-0.471-0.141-0.771c-0.061-0.271,0.172-0.248,0.211-0.421
		c-0.15-0.352,0.039-0.498,0.07-0.91c0.045-0.256-0.152-0.27-0.141-0.491c-0.064-0.124-0.024-0.352-0.141-0.42
		c0.098-0.046,0.012-0.271,0.141-0.282c0.038-0.101-0.082-0.362,0.07-0.35c0.052-0.215-0.193-0.136-0.141-0.351
		c0-0.211,0-0.421,0-0.632c-0.019-0.205,0.159-0.215,0.141-0.421c0.072-0.307-0.237-0.229-0.211-0.49
		c-0.051-0.215,0.072-0.255,0.07-0.421c-0.068-0.287,0.007-0.285,0-0.63c-0.037-0.309-0.021-0.232-0.07-0.493
		c-0.052-0.216,0.193-0.133,0.141-0.35c-0.021-0.506-0.099-0.857-0.07-1.544c0.037-0.247-0.248-0.171-0.21-0.42
		c-0.034-0.219,0.101-0.272,0.14-0.421c0.039-0.155-0.135-0.099-0.14-0.211c0-0.256,0-0.515,0-0.77
		c-0.06-0.176-0.092-0.375-0.07-0.631c-0.154-0.08-0.005-0.464-0.21-0.49c0.06-0.059,0.041-0.194,0.14-0.211
		c-0.135-0.17-0.206-0.402-0.211-0.703c-0.011-0.266,0.177-0.338,0.211-0.559c0.021-0.328,0-0.607-0.14-0.772
		c-0.051-0.216,0.121-0.207,0.07-0.42c0.034-0.32-0.123-0.397,0-0.632c-0.123-0.157-0.036-0.525-0.211-0.632
		c0.051-0.159,0.062-0.359,0.141-0.489c0.009-0.461-0.125-0.532,0.07-0.842c-0.047-0.071-0.162-0.075-0.142-0.21
		c0.128-0.083,0.056-0.367,0.142-0.493c-0.064-0.123-0.024-0.349-0.142-0.421c-0.017-0.204,0.159-0.215,0.142-0.42
		c-0.002-0.478-0.041-0.6-0.211-0.98c-0.001-0.165,0.12-0.208,0.069-0.421c-0.091-0.213-0.132-0.477-0.21-0.703
		c-0.051-0.188,0.14-0.142,0.141-0.279c-0.022-0.162-0.137-0.29,0-0.421c-0.037-0.104-0.104-0.176-0.141-0.279
		c-0.102-0.016-0.023-0.211-0.141-0.211c-0.018-0.205,0.159-0.216,0.141-0.42c-0.115-0.331-0.193-0.695-0.279-1.053
		c0.035-0.196,0.168-0.298,0.21-0.489c0.016-0.294-0.114-0.334,0-0.562c-0.063-0.123-0.024-0.351-0.142-0.421
		c0.072-0.093,0.069-0.258,0.142-0.351c-0.122-0.158-0.036-0.525-0.21-0.632c-0.054-0.216,0.191-0.133,0.139-0.349
		c-0.092-0.2-0.24-0.604-0.139-0.772c-0.036-0.196-0.171-0.299-0.211-0.49c-0.051-0.215,0.121-0.208,0.069-0.421
		c-0.142-0.386-0.079-0.538-0.21-0.913c0.131-0.439-0.062-0.77,0.07-1.19c0.007-0.218-0.086-0.335-0.141-0.492
		c-0.029-0.168,0.129-0.151,0.07-0.35c0.038-0.104-0.082-0.361,0.07-0.351c-0.055-0.062-0.076-0.157-0.07-0.28
		c-0.064-0.122-0.024-0.352-0.141-0.42c0.037-0.268,0.099-0.331-0.07-0.493c0.001-0.208,0.183-0.237,0.211-0.421
		c0.041-0.122-0.084-0.411,0.07-0.42c-0.002-0.14-0.191-0.089-0.141-0.28c-0.02-0.368,0.074-0.416,0-0.7
		c-0.059-0.2,0.1-0.182,0.07-0.352c0.03-0.146-0.049-0.187-0.07-0.28c0.139-0.179-0.072-0.322,0.07-0.42
		c-0.191-0.482-0.313-1.183-0.351-1.614c-0.029-0.146,0.048-0.187,0.07-0.279c0.008-0.125-0.087-0.149-0.07-0.28
		c0-0.281,0-0.562,0-0.841c0-0.142,0-0.283,0-0.421c-0.005-0.112,0.033-0.269-0.071-0.283c0.055-0.062,0.076-0.157,0.071-0.279
		c0.012-0.199,0.129-0.293,0.14-0.489c-0.053-0.206-0.111-0.405-0.279-0.493c0.156-0.245-0.052-0.421,0.068-0.7
		c-0.147-0.746-0.127-1.34,0.071-2.104c0.05-0.191-0.14-0.141-0.14-0.279c0.005-0.111-0.035-0.27,0.068-0.282
		c-0.162-0.094-0.107-0.404-0.209-0.56c0.09-0.401-0.105-0.897,0-1.334c0.059-0.197-0.1-0.181-0.07-0.349
		c0.04-0.588,0.148-1.158,0.07-1.894c0.012-0.176-0.109-0.219-0.141-0.352c-0.078-0.655,0.103-0.902,0.07-1.61
		c0.105-0.27,0.166-0.585,0.279-0.843c-0.021-0.162,0.013-0.271,0.071-0.351c-0.087-0.032-0.144-0.092-0.14-0.211
		c0.252-0.123,0.061-0.688,0.21-0.911c0-0.21,0-0.421,0-0.631c0.109-0.384,0.091-0.852,0.14-1.124
		c-0.051-0.242-0.215-0.372-0.07-0.63c0.449-0.067,0.956-0.072,1.333-0.211c0.198-0.057,0.181,0.099,0.351,0.071
		c0.617-0.101,1.314-0.205,1.824,0.069c0.305,0,0.629-0.023,0.84,0.07c0.191,0.053,0.141-0.14,0.281-0.14
		C141.612,6.649,141.806,6.727,141.806,6.609z M159.407,20.213c-0.254-0.121-0.306-0.442-0.701-0.421
		c-0.22-0.032-0.186,0.188-0.351,0.21c-0.261,0.05-0.3-0.12-0.562-0.069c-0.019,0.144-0.311,0.017-0.279,0.21
		c-0.02,0.145-0.188,0.142-0.281,0.211c-0.332-0.051-0.482,0.079-0.771,0.068c-0.223,0.015-0.234-0.186-0.491-0.138
		c-0.213,0.066-0.42,0.142-0.631,0.21c-0.175-0.083-0.414-0.101-0.633-0.141c-0.193,0.157-0.334,0.364-0.77,0.279
		c-0.139,0.051,0.017,0.392-0.142,0.421c-0.101-0.106-0.358-0.062-0.561-0.068c-0.011,0.13-0.237,0.041-0.28,0.141
		c-0.104,0.034-0.176,0.104-0.28,0.138c-0.101,0.205-0.435,0.177-0.561,0.352c0.041,0.298-0.051,0.464-0.071,0.7
		c0.008,0.264,0.079,0.2,0,0.421c0.139,0.222,0.174,0.392,0.211,0.562c-0.096,0.208,0.041,0.306,0,0.631
		c0.058,0.151,0.049,0.362,0.14,0.631c0.036,0.399,0.036,0.604-0.069,0.982c0.223,0.032,0.049,0.467,0.211,0.56
		c-0.035,0.314,0.034,0.525,0.068,0.772c0.067,0.415-0.134,0.7,0,0.98c-0.029,0.135-0.199,0.128-0.139,0.352
		c0.094,0.141,0.133,0.332,0.21,0.489c-0.187,0.157,0.099,0.352-0.071,0.493c0.038,0.264,0.1,0.328-0.068,0.49
		c0.115,0,0.039,0.193,0.14,0.21c-0.017,0.133,0.079,0.154,0.071,0.279c-0.159,0.152,0.057,0.24,0,0.493
		c-0.008,0.429-0.075,0.677,0.068,1.052c-0.094,0.045-0.131,0.148-0.14,0.28c0.104,0.013,0.063,0.17,0.071,0.279
		c0,0.141,0,0.282,0,0.421c-0.03,0.17,0.127,0.153,0.068,0.351c-0.01,0.131-0.045,0.234-0.14,0.279
		c-0.019,0.206,0.158,0.217,0.14,0.421c-0.105,0.456-0.099,1.023-0.14,1.545c0.104,0.222,0.034,0.617,0.14,0.842
		c-0.104,0.059-0.102,0.224-0.14,0.35c-0.056,0.13-0.117,0.258-0.14,0.42c0,0.187-0.027,0.401,0.068,0.493
		c-0.196,0.068,0.021,0.295,0,0.421c-0.129,0.007-0.042,0.236-0.139,0.279c-0.095,0.045-0.131,0.148-0.141,0.279
		c0.08,0.082,0.079,0.248,0.069,0.421c0.131,0.128,0.161,0.354,0.21,0.562c-0.021,0.165-0.243,0.131-0.21,0.349
		c0.092,0.206,0.092,0.498,0,0.704c0.001,0.138,0.192,0.087,0.142,0.279c-0.153-0.011-0.032,0.25-0.07,0.351
		c-0.152-0.013-0.033,0.249-0.071,0.35c-0.116,0.002-0.038,0.194-0.14,0.21c0.016,0.134-0.08,0.155-0.07,0.283
		c0.059,0.175,0.191,0.274,0.21,0.489c0,0.139-0.19,0.091-0.14,0.28c0.078,0.085,0.2,0.128,0.14,0.352
		c0.061,0.224-0.11,0.215-0.14,0.351c0.089,0.083,0.029,0.265-0.07,0.35c0.059,0.199,0.081,0.434,0.141,0.63
		c0.053,0.217-0.192,0.137-0.141,0.353c0.03,0.133,0.151,0.176,0.141,0.352c-0.199-0.013,0.058,0.432-0.141,0.421
		c-0.002,0.164,0.121,0.205,0.07,0.42c-0.139,0.189-0.041,0.612-0.07,0.912c0.069,0.164,0.123,0.343,0.141,0.562
		c-0.1,0.594-0.189,1.206,0,1.752c-0.113,0.098-0.18,0.242-0.21,0.421c-0.073,0.862-0.208,1.661-0.281,2.524
		c0.056,0.41,0.017,0.754,0,1.263c-0.05,0.213,0.072,0.255,0.07,0.42c0.052,0.216-0.192,0.134-0.141,0.349
		c0.224,0.242-0.007,0.555,0.141,0.914c-0.009,0.341,0.038,0.737-0.07,0.979c-0.028,0.171,0.128,0.155,0.07,0.352
		c-0.147,0.834-0.228,1.523-0.351,2.246c0.109,0.396,0.012,1.157-0.07,1.751c-0.012,0.173,0.109,0.216,0.141,0.352
		c-0.115,0-0.04,0.195-0.141,0.211c-0.094,0.046-0.13,0.148-0.141,0.28c0.115,0,0.04,0.193,0.141,0.209
		c0.188-0.047,0.135,0.145,0.211,0.211c0.109,0.221-0.038,0.306-0.07,0.562c0.195-0.032-0.055,0.381,0.14,0.349
		c-0.051,0.217,0.072,0.257,0.07,0.421c0.035,0.573-0.073,1.002-0.14,1.473c-0.021,0.139,0.095,0.139,0.14,0.211
		c-0.007,0.112-0.178,0.056-0.14,0.21c0.293,0.262,0.064,0.626,0.21,1.052c-0.042,0.168-0.101,0.32-0.07,0.562
		c-0.028,0.134-0.199,0.126-0.14,0.35c-0.028,0.123,0.104,0.182,0,0.21c0.037,0.268,0.219,0.39,0.21,0.704
		c-0.009,0.364-0.132,0.615-0.141,0.979c0.012,0.199,0.129,0.293,0.141,0.493c-0.12,0.479,0.024,0.809-0.07,1.331
		c0.07,0.352,0.165,0.677,0.14,1.121c-0.051,0.216,0.193,0.136,0.142,0.352c-0.105,0.059-0.151,0.177-0.142,0.352
		c0.035,0.221-0.214,0.157-0.14,0.421c-0.007,0.207,0.117,0.413,0.14,0.631c0.057,0.538-0.086,1.135-0.14,1.611
		c0.104,0.059,0.101,0.227,0.14,0.352c0.017,0.133-0.078,0.154-0.069,0.279c-0.012,0.106,0.024,0.259-0.07,0.28
		c0.136,0.596-0.056,1.07,0.14,1.755c-0.084,0.469-0.022,1.06,0.142,1.611c-0.153-0.011-0.032,0.249-0.071,0.351
		c-0.012,0.222,0.188,0.234,0.141,0.49c-0.059,0.152-0.182,0.24-0.141,0.493c-0.068,0.279,0.21,0.21,0.141,0.489
		c0.032,0.341-0.073,0.821,0.07,1.052c-0.104,0.014-0.063,0.17-0.07,0.28c-0.021,0.096-0.1,0.136-0.069,0.282
		c0.16,0.165,0.122,0.53,0.21,0.77c-0.056,0.131-0.117,0.259-0.141,0.421c-0.051,0.215,0.121,0.208,0.07,0.421
		c-0.1,0.094-0.1,0.396,0,0.492c-0.124,0.017-0.16,0.12-0.14,0.28c0,0.186,0,0.372,0,0.562c-0.044,0.189-0.293,0.173-0.281,0.421
		c0.138,0.13,0.021,0.256,0,0.42c0.14,0.094,0.156,0.309,0.21,0.491c0.054,0.264-0.084,0.335-0.07,0.562
		c0.248,0.285-0.114,1.124,0.211,1.47c0.136,0.139,0.282-0.071,0.491-0.069c0.018,0.146,0.308,0.019,0.351,0.141
		c0.06-0.204,0.226,0.043,0.352,0c0.273-0.079,0.26-0.016,0.561-0.071c0.117,0.117,0.337,0.131,0.42,0.282
		c0.248-0.122,0.172,0.046,0.422,0.069c0.133-0.029,0.126-0.199,0.35-0.142c0.398,0.163,0.964,0.161,1.402,0.282
		c0.101-0.019,0.118-0.117,0.21-0.141c0.013,0.104,0.171,0.064,0.281,0.069c0.14,0.116,0.089-0.005,0.28,0
		c0.028,0.12,0.091-0.014,0.211,0c0.14,0,0.279,0,0.42,0c0.197-0.056,0.182,0.102,0.351,0.071c0.131-0.056,0.257-0.117,0.421-0.141
		c0.14,0,0.281,0,0.421,0c0.216,0.054,0.135-0.191,0.351-0.142c0.014-0.479-0.063-0.479-0.211-0.841
		c0.194-0.017,0.215-0.205,0.281-0.349c-0.167-0.092-0.137-0.381-0.211-0.562c-0.019-0.236,0.055-0.567-0.07-0.7
		c0.259-0.051-0.029-0.21,0.141-0.353c0.084-0.013,0.043-0.076,0-0.138c-0.016-0.133,0.079-0.156,0.07-0.282
		c-0.021-0.527,0.072-0.512,0.07-0.98c-0.153-0.426,0.06-0.798-0.141-1.123c0.159-0.074,0.255-0.213,0.28-0.421
		c-0.179-0.312-0.188-0.794-0.351-1.121c0.104-0.014,0.064-0.171,0.07-0.279c-0.059-0.2,0.1-0.184,0.07-0.352
		c-0.059-0.083-0.092-0.189-0.07-0.353c0.131-0.37,0.083-0.548,0.141-0.91c0.053-0.203,0.331-0.182,0.281-0.49
		c0.001-0.164-0.121-0.207-0.071-0.421c-0.021-0.164-0.243-0.13-0.21-0.352c0.173-0.098,0.123-0.242,0.07-0.421
		c0.064-0.167,0.281-0.186,0.211-0.489c-0.002-0.352-0.209-0.492-0.281-0.772c0.053-0.264-0.086-0.336-0.07-0.562
		c0.096-0.184,0.082-0.478,0.141-0.7c0.051-0.213-0.072-0.256-0.07-0.422c0.004-0.09,0.09-0.096,0.07-0.21
		c-0.098-0.09-0.07-0.303-0.07-0.49c0.123-0.247-0.047-0.172-0.07-0.421c0.094-0.068,0.14-0.186,0.21-0.279
		c-0.104-0.106-0.113-0.309-0.14-0.493c0.034-0.313-0.036-0.523-0.07-0.769c0.043-0.405,0.001-0.464,0-0.914
		c0.18-0.122,0.203-0.404,0.28-0.631c-0.081-0.01-0.075-0.109-0.07-0.21c-0.036-0.222-0.206-0.307-0.21-0.56
		c0.004-0.253,0.174-0.341,0.21-0.562c-0.017-0.102-0.116-0.117-0.14-0.211c-0.19,0.051,0.049-0.33-0.141-0.279
		c0.098-0.378-0.268-0.295-0.209-0.631c0.021-0.096,0.098-0.137,0.068-0.283c0.082-0.031,0.158-0.074,0.211-0.138
		c-0.104,0,0-0.059,0-0.072c-0.002-0.096-0.029-0.151-0.07-0.211c0.021-0.141,0.189-0.135,0.211-0.279
		c-0.115,0-0.04-0.193-0.141-0.21c0.016-0.133-0.078-0.154-0.07-0.279c0.016-0.298-0.108-0.453-0.141-0.704c0-0.513,0-1.027,0-1.541
		c0.29-0.442,0.099-1.332,0-1.825c-0.007-0.215,0.086-0.332,0.141-0.489c-0.155-0.008-0.03-0.298-0.07-0.421
		c-0.001-0.186,0.027-0.398-0.07-0.49c0.11-0.502,0.003-0.66,0.07-1.262c0-0.538,0-1.076,0-1.614
		c-0.001-0.164,0.121-0.205,0.07-0.42c-0.053-0.296-0.087-0.612-0.141-0.912c0.066-0.411,0.229-0.942,0-1.262
		c0.154-0.079,0.006-0.464,0.211-0.489c-0.063-0.205-0.063-0.216,0-0.422c-0.057-0.132-0.117-0.258-0.141-0.421
		c0.153-0.519-0.078-0.854,0.07-1.402c-0.18-0.466,0.074-0.933-0.141-1.332c0.124-0.019,0.16-0.123,0.141-0.282
		c-0.199-0.435-0.113-0.743-0.07-1.19c0.051-0.215-0.121-0.208-0.07-0.421c-0.015-0.649,0.098-1.02-0.068-1.542
		c0.126-0.239-0.012-0.337,0-0.631c-0.03-0.17,0.127-0.154,0.068-0.351c-0.088-0.206,0.047-0.419,0-0.772c0-0.139,0-0.28,0-0.421
		c0.04-0.123-0.084-0.411,0.07-0.422c-0.021-0.164-0.11-0.264-0.07-0.489c0.035-0.2,0.367-0.102,0.281-0.421
		c0.103-0.267-0.314-0.013-0.211-0.279c0.023-0.165,0.111-0.264,0.07-0.493c0.029-0.181,0.21-0.21,0.211-0.421
		c-0.015-0.267-0.295-0.267-0.281-0.559c0.062-0.125,0.285-0.091,0.211-0.353c-0.031-0.343-0.095-0.655-0.141-0.981
		c0.041-0.192,0.175-0.293,0.211-0.49c-0.211-0.211-0.198-0.646-0.281-0.983c0.068-0.209,0.186-0.375,0.211-0.631
		c0.052-0.216-0.193-0.133-0.141-0.349c0.152,0.011,0.031-0.25,0.07-0.352c-0.132-0.102-0.008-0.458-0.141-0.562
		c0.121-0.111,0.152-0.313,0.141-0.559c0.115-0.003,0.039-0.194,0.141-0.21c-0.029-0.171,0.128-0.152,0.069-0.352
		c0.017-0.134-0.079-0.155-0.069-0.28c0.086-0.226-0.228-0.053-0.141-0.279c-0.05-0.276,0.049-0.353,0.141-0.421
		c-0.123-0.019-0.16-0.123-0.141-0.282c0-0.256,0-0.514,0-0.77c0.001-0.142,0.191-0.091,0.141-0.282
		c0.021-0.735,0.104-1.251,0-1.894c0.132-0.123,0-0.515,0.279-0.489c-0.062-0.24-0.154-0.453-0.279-0.632
		c0.158-0.074,0.027-0.442,0.069-0.632c0.121-0.113,0.175-0.292,0.142-0.562c0.02-0.099,0.108-0.119,0.139-0.211
		c0.034-0.096-0.041-0.263,0.071-0.279c-0.001-0.21-0.183-0.236-0.21-0.421c0.155-0.028,0.027-0.345,0.068-0.489
		c0.029-0.171-0.127-0.151-0.068-0.352c0.133-0.302-0.01-0.489,0.068-0.772c0.113-0.141,0.055-0.457,0.211-0.56
		c-0.043-0.215-0.149-0.364-0.211-0.562c0.21-0.102,0.428,0.247,0.421-0.069c-0.047-0.211-0.149,0.067-0.279,0
		c-0.066-0.285-0.125-0.711,0-0.982c-0.041-0.146-0.175-0.199-0.142-0.421c0.135-0.031,0.303,0.216,0.281-0.069
		c0.157-0.032,0.027-0.346,0.069-0.49c-0.159-0.053-0.209-0.213-0.28-0.351c0.159-0.075,0.027-0.442,0.071-0.632
		c-0.14-0.164-0.163-0.447-0.142-0.772c0.124-0.153,0.102-0.46,0.351-0.489c-0.067-0.28-0.067-0.421,0-0.7
		c-0.129-0.011-0.042-0.24-0.14-0.283c-0.029-0.132-0.199-0.125-0.141-0.349c0.096-0.338,0.188-0.402,0.071-0.772
		c0.04-0.146,0.173-0.199,0.14-0.421c-0.129-0.196,0.002-0.655-0.14-0.841C159.892,20.241,159.573,20.305,159.407,20.213z
		 M175.816,21.336c0.046,0,0.094,0,0.14,0c0-0.048,0-0.093,0-0.142c-0.046,0-0.094,0-0.14,0
		C175.816,21.243,175.816,21.288,175.816,21.336z M176.588,25.472c-0.055,0.016-0.139,0.003-0.14,0.071
		C176.501,25.527,176.586,25.541,176.588,25.472z M176.798,25.964c0.02-0.162-0.018-0.264-0.141-0.282
		C176.674,25.807,176.588,26.034,176.798,25.964z M174.344,27.575c0.011-0.173-0.036-0.29-0.142-0.352
		C174.114,27.307,174.042,27.682,174.344,27.575z M145.593,28.066c0.16,0.02,0.264-0.017,0.281-0.14
		c-0.097,0.003-0.154-0.034-0.211-0.071C145.667,27.954,145.631,28.01,145.593,28.066z M175.676,30.801
		c0.005-0.099-0.016-0.267-0.07-0.139C175.601,30.761,175.62,30.929,175.676,30.801z M175.115,31.714c0-0.04-0.059-0.08-0.071,0
		C175.044,31.751,175.101,31.794,175.115,31.714z M175.254,38.726c0.002-0.04-0.055-0.08-0.069,0
		C175.184,38.763,175.241,38.806,175.254,38.726z M175.254,39.075c0.004-0.043,0.011-0.083,0.07-0.07
		c-0.007-0.085-0.021-0.165-0.14-0.141C175.195,38.947,175.173,39.064,175.254,39.075z M176.237,40.126
		C176.28,40.23,176.321,40.12,176.237,40.126C176.192,40.024,176.152,40.135,176.237,40.126z M152.185,41.461
		c-0.019-0.021-0.107,0.031-0.069,0.069C152.134,41.548,152.22,41.495,152.185,41.461z M162.562,42.792
		c-0.053,0.016-0.139,0.003-0.141,0.069C162.478,42.848,162.562,42.861,162.562,42.792z M177.218,43.071
		c-0.02-0.018-0.106,0.035-0.07,0.072C177.168,43.162,177.255,43.109,177.218,43.071z M162.353,48.752c0.069,0,0.141,0,0.21,0
		c0.021-0.159-0.017-0.264-0.141-0.28C162.4,48.565,162.322,48.605,162.353,48.752z M149.801,54.922
		c-0.087,0.009-0.166,0.021-0.142,0.142c0.047,0,0.096,0,0.142,0c0.196,0.013,0.007-0.498-0.07-0.211
		C149.772,54.858,149.813,54.863,149.801,54.922z M159.758,56.746c0-0.04-0.057-0.079-0.07,0
		C159.688,56.786,159.745,56.826,159.758,56.746z M176.237,58.64c-0.021-0.019-0.106,0.034-0.071,0.069
		C176.186,58.73,176.272,58.678,176.237,58.64z M176.727,61.233c-0.053,0.017-0.138,0.002-0.139,0.072
		C176.642,61.289,176.726,61.303,176.727,61.233z M174.834,63.688c-0.02-0.019-0.107,0.034-0.069,0.07
		C174.782,63.776,174.871,63.723,174.834,63.688z M139.634,69.58c-0.055,0.016-0.139,0-0.142,0.068
		C139.547,69.633,139.631,69.646,139.634,69.58z M175.535,70.91c0.022-0.096,0.1-0.132,0.07-0.279
		C175.365,70.578,175.331,70.897,175.535,70.91z M174.765,72.524c-0.053-0.215,0.191-0.136,0.14-0.351
		C174.729,72.123,174.607,72.472,174.765,72.524z M151.764,75.049c-0.019-0.021-0.106,0.032-0.069,0.069
		C151.713,75.138,151.801,75.084,151.764,75.049z M175.885,75.329c-0.018-0.019-0.106,0.034-0.068,0.068
		C175.835,75.417,175.922,75.363,175.885,75.329z M175.956,76.029c-0.021-0.019-0.106,0.034-0.071,0.069
		C175.905,76.12,175.991,76.067,175.956,76.029z M175.745,76.17c-0.02-0.018-0.106,0.035-0.069,0.07
		C175.694,76.259,175.782,76.205,175.745,76.17z M148.468,87.179c-0.018-0.018-0.105,0.035-0.07,0.07
		C148.417,87.268,148.504,87.214,148.468,87.179z M159.618,87.949C159.661,88.053,159.702,87.944,159.618,87.949
		C159.574,87.849,159.533,87.957,159.618,87.949z M152.676,92.298c0.204,0.104,0.205-0.314,0-0.211
		C152.676,92.157,152.676,92.229,152.676,92.298z M136.548,96.506c-0.02-0.019-0.105,0.034-0.07,0.068
		C136.497,96.596,136.585,96.543,136.548,96.506z M156.673,101.693c0.082,0.063,0.663,0.2,0.631-0.069
		C157.163,101.451,156.716,101.417,156.673,101.693z M157.515,101.624c0.014,0.057,0.002,0.138,0.069,0.141
		c0.001-0.093,0.124-0.064,0.141-0.141C157.624,101.598,157.606,101.538,157.515,101.624z M159.337,101.693
		c-0.17-0.16-0.341,0.071-0.561,0.071c0.004,0.387,0.427,0.267,0.631,0.139c0.238,0.029,0.4-0.021,0.351-0.279
		C159.593,101.624,159.552,101.743,159.337,101.693z M153.728,101.834c0.047,0,0.094,0,0.14,0c0.109-0.173-0.238-0.204-0.21-0.069
		C153.7,101.768,153.741,101.776,153.728,101.834z M155.27,101.834c0.16-0.051,0.548,0.128,0.491-0.141c-0.164,0-0.328,0-0.491,0
		C155.27,101.74,155.27,101.789,155.27,101.834z M153.026,101.765c-0.02-0.019-0.107,0.035-0.07,0.069
		C152.976,101.853,153.062,101.8,153.026,101.765z M156.252,101.765c-0.021-0.019-0.106,0.031-0.07,0.069
		C156.201,101.853,156.288,101.8,156.252,101.765z M160.108,102.045c0.092-0.216-0.199-0.397-0.279-0.211
		C159.921,101.903,159.966,102.023,160.108,102.045z M178.69,101.834c-0.02-0.019-0.106,0.034-0.07,0.069
		C178.641,101.925,178.727,101.872,178.69,101.834z"/>
	<path fill-rule="evenodd" clip-rule="evenodd" fill="#0C3846" d="M177.078,34.798c-0.036-0.035,0.051-0.088,0.069-0.069
		C177.184,34.767,177.098,34.819,177.078,34.798z"/>
	<g>
		<g>
			<path fill-rule="evenodd" clip-rule="evenodd" fill="#0C3846" d="M175.743,30.9c0.104,0,0.206,0,0.309,0
				c0.098-0.006,0.035-0.17,0.154-0.154c0.112,0.009,0.164-0.042,0.154-0.154c0.262,0.081,0.414,0.272,0.566,0.463
				c0.252,0.085,0.412-0.048,0.617,0.052c0.033,0.188-0.111,0.197-0.104,0.359c0.079,0.182,0.229-0.025,0.359,0.104
				c0.041,0.113,0.108,0.2,0.104,0.359c0.094,0.231,0.484,0.167,0.565,0.412c0.222-0.033,0.288,0.088,0.411,0.154
				c0,0.103,0,0.205,0,0.309c-0.104,0.049-0.203,0.104-0.309,0.154c-0.026,0.161-0.09,0.287-0.154,0.411
				c0.03,0.091-0.062,0.302,0.052,0.308c-0.046,0.109-0.156,0.152-0.154,0.309c-0.104,0.05-0.203,0.105-0.309,0.154
				c-0.063,0.389,0.023,0.631-0.052,1.029c-0.148,0.074-0.305,0.141-0.41,0.258c-0.154-0.002-0.176-0.135-0.309-0.154
				c-0.195,0.011-0.25,0.161-0.412,0.205c-0.129,0.043-0.162,0.18-0.258,0.258c-0.176-0.049-0.318-0.162-0.514-0.053
				c-0.006-0.097-0.17-0.035-0.154-0.154c-0.076-0.025-0.129-0.076-0.205-0.102c-0.094-0.313,0.059-0.557-0.052-0.824
				c-0.185-0.029-0.249,0.061-0.36,0.104c-0.244-0.075-0.395-0.111-0.668-0.051c-0.071-0.066-0.051-0.225-0.052-0.361
				c-0.039-0.131-0.125-0.217-0.257-0.256c0.055-0.24-0.135-0.406,0-0.566c-0.027-0.076-0.076-0.129-0.104-0.205
				c0.082-0.211,0.097-0.254,0.052-0.515c-0.036-0.138,0.106-0.1,0.154-0.154c-0.04-0.194,0.062-0.246,0.052-0.411
				c0.217-0.023,0.236-0.244,0.411-0.309c-0.066-0.068-0.065-0.189,0-0.258c0.072-0.099,0.249-0.093,0.36-0.154
				c0.057-0.011,0.08-0.057,0.103-0.103c0.001-0.067,0.09-0.047,0.103-0.103c0.077-0.078,0.217-0.092,0.258-0.206
				C175.689,30.983,175.716,30.942,175.743,30.9z"/>
			<path fill-rule="evenodd" clip-rule="evenodd" fill="#0C3846" d="M174.663,30.849c0.132-0.002,0.062,0.039,0.052,0.104
				c0.06,0.094,0.272,0.035,0.206,0.257c-0.111,0.116-0.176-0.042-0.36,0C174.51,31.004,174.714,31.054,174.663,30.849z"/>
			<path fill-rule="evenodd" clip-rule="evenodd" fill="#0C3846" d="M175.743,30.9C175.681,30.905,175.712,30.825,175.743,30.9
				L175.743,30.9z"/>
			<path fill-rule="evenodd" clip-rule="evenodd" fill="#0C3846" d="M174.304,34.757c0.001-0.049,0.062-0.039,0.103-0.051
				C174.405,34.757,174.343,34.746,174.304,34.757z"/>
			<path fill-rule="evenodd" clip-rule="evenodd" fill="#0C3846" d="M177.39,35.528c0.01-0.058,0.051-0.027,0.051,0
				C177.431,35.587,177.389,35.558,177.39,35.528z"/>
		</g>
		<g>
			<path fill-rule="evenodd" clip-rule="evenodd" fill="#0C3846" d="M178.205,16.484c0.025,0.214,0.232,0.247,0.412,0.309
				c-0.003,0.169-0.087,0.256-0.052,0.463c0.073,0.2,0.123,0.426,0.257,0.565c-0.016,0.238,0.001,0.444,0.104,0.565
				c0.003,0.377-0.121,0.614-0.052,0.926c0.073,0.115,0.165,0.212,0.257,0.309c-0.014,0.211-0.209,0.271-0.103,0.463
				c-0.145,0.096-0.198,0.281-0.257,0.463c-0.069,0-0.138,0-0.206,0c-0.106,0.1-0.249,0.162-0.36,0.258
				c-0.112,0.075-0.276,0.1-0.359,0.205c-0.083,0.015-0.089-0.049-0.154-0.051c-0.135,0.076-0.166,0.452-0.412,0.256
				c-0.118-0.225,0.348-0.254,0.36-0.514c-0.155-0.14-0.229,0.112-0.463,0.051c-0.108,0.064-0.2,0.143-0.309,0.207
				c-0.155,0.016-0.184,0.158-0.411,0.102c-0.099-0.072-0.094-0.249-0.154-0.359c-0.046-0.144-0.207-0.17-0.36-0.205
				c-0.022-0.064-0.065-0.106-0.154-0.104c-0.068-0.103-0.12-0.223-0.257-0.258c0.051-0.307-0.221-0.293-0.154-0.617
				c0.002-0.155-0.259-0.049-0.258-0.205c-0.191,0.106-0.266-0.075-0.411-0.154c-0.008-0.162,0.137-0.172,0.103-0.359
				c0.3,0.008,0.283-0.301,0.515-0.36c0.011-0.198,0.002-0.38-0.052-0.515c0.168-0.168,0.387-0.348,0.258-0.668
				c0.161-0.029,0.573-0.174,0.617,0c0.147-0.006,0.089-0.22,0.257-0.206c-0.021-0.134-0.153-0.155-0.154-0.309
				c0.202-0.038,0.245-0.235,0.257-0.463c0.126-0.028,0.11-0.198,0.309-0.154c0.105-0.083,0.211-0.167,0.36-0.206
				c0.204,0.045,0.259,0.045,0.463,0c0.095-0.008,0.031-0.174,0.103-0.205c0.215,0.012,0.243-0.084,0.412,0
				c0.052,0.068,0.048,0.191,0.154,0.205c-0.037,0.158,0.053,0.188,0.051,0.309c-0.064,0.014-0.052,0.103,0,0.104
				C178.354,16.427,178.189,16.365,178.205,16.484z"/>
			<path fill-rule="evenodd" clip-rule="evenodd" fill="#0C3846" d="M178.617,16.072c-0.027-0.026,0.037-0.065,0.051-0.051
				C178.694,16.048,178.631,16.087,178.617,16.072z"/>
			<path fill-rule="evenodd" clip-rule="evenodd" fill="#0C3846" d="M178.926,16.998c0.121-0.001,0.151,0.089,0.309,0.052
				c0.105,0.247,0.021,0.6-0.309,0.565c0-0.068,0-0.137,0-0.205c-0.008-0.096-0.175-0.031-0.206-0.104
				C178.684,17.1,178.937,17.181,178.926,16.998z"/>
		</g>
		<g>
			<path fill-rule="evenodd" clip-rule="evenodd" fill="#0C3846" d="M177.646,58.104c0.191-0.02,0.095,0.248,0.257,0.258
				c-0.03,0.186,0.06,0.25,0.103,0.359c0.092,0.008,0.109-0.062,0.206-0.051c0.017,0.119-0.009,0.197-0.052,0.258
				c0.146,0.258,0.142,0.383,0.154,0.719c0.052,0.104,0.228,0.082,0.206,0.258c-0.074,0.08-0.13,0.18-0.257,0.205
				c-0.008,0.152,0.148,0.363-0.052,0.412c0.024,0.146,0.25,0.059,0.257,0.258c0.108-0.113,0.229-0.012,0.309,0.051
				c0.192,0.055,0.146-0.127,0.309-0.104c0.066,0.141,0.264,0.148,0.309,0.309c0.092,0.008,0.108-0.062,0.206-0.051
				c0.048,0.271-0.157,0.289-0.257,0.412c-0.172-0.018-0.229-0.15-0.463-0.104c-0.132,0.006-0.103,0.172-0.104,0.309
				c-0.131,0.006-0.102,0.172-0.103,0.309c-0.257,0.137-0.149,0.639-0.36,0.822c-0.146,0.055-0.215,0.055-0.359,0
				c-0.104,0.053-0.082,0.229-0.258,0.207c-0.021,0.133-0.153,0.154-0.154,0.309c-0.238,0.018-0.398,0.115-0.463,0.309
				c-0.061-0.061-0.182-0.059-0.309-0.053c-0.017-0.188-0.263-0.148-0.257-0.359c-0.171-0.018-0.224-0.154-0.309-0.258
				c-0.169-0.002-0.196-0.146-0.411-0.102c0.009-0.199-0.178-0.201-0.206-0.361c-0.083,0.016-0.089-0.049-0.154-0.051
				c-0.293,0.033-0.486,0.186-0.617-0.104c-0.021-0.107,0.035-0.135,0.052-0.205c0.056-0.014,0.035-0.102,0.103-0.104
				c-0.019-0.184-0.138-0.188-0.052-0.359c-0.06-0.076-0.063-0.211-0.154-0.258c0.053-0.17,0.053-0.393,0.154-0.514
				c-0.006-0.209-0.221-0.426,0-0.566c-0.046-0.227-0.324-0.223-0.309-0.514c-0.08-0.184,0.176-0.031,0.154-0.154
				c0.068-0.018,0.082-0.09,0.154-0.104c-0.036-0.189,0.088-0.221,0.052-0.41c0.161,0.023,0.136-0.139,0.257-0.154
				c-0.037-0.227,0.167-0.211,0.206-0.361c0.114,0.119,0.2-0.016,0.36,0c0.052,0.104,0.089,0.221,0.205,0.258
				c0.158-0.031,0.269-0.109,0.412-0.154c0.162-0.064,0.01-0.148,0.154-0.258c0.06,0.01,0.092-0.01,0.103-0.051
				c0.137,0,0.294-0.02,0.36,0.051c0.162,0.01,0.172-0.137,0.359-0.102c0.076-0.045,0.163-0.078,0.154-0.207
				C177.578,58.104,177.611,58.104,177.646,58.104z M176.926,58.566c-0.039,0.012-0.102,0.002-0.103,0.053
				C176.863,58.607,176.925,58.617,176.926,58.566z"/>
			<path fill-rule="evenodd" clip-rule="evenodd" fill="#0C3846" d="M174.766,58.824c0.01-0.059,0.052-0.029,0.052,0
				C174.808,58.883,174.766,58.854,174.766,58.824z"/>
		</g>
		<path fill-rule="evenodd" clip-rule="evenodd" fill="#0C3846" d="M178.042,45.036c0.191-0.02,0.095,0.248,0.257,0.258
			c-0.03,0.186,0.06,0.25,0.103,0.359c0.092,0.008,0.109-0.062,0.206-0.051c0.017,0.119-0.009,0.197-0.052,0.258
			c0.146,0.258,0.142,0.383,0.154,0.719c0.052,0.104,0.228,0.082,0.206,0.258c-0.074,0.08-0.13,0.18-0.257,0.205
			c-0.008,0.152,0.148,0.363-0.052,0.412c0.024,0.146,0.25,0.059,0.257,0.258c0.108-0.113,0.229-0.012,0.309,0.051
			c0.192,0.055,0.146-0.127,0.309-0.104c0.066,0.141,0.264,0.148,0.309,0.309c0.092,0.008,0.108-0.062,0.206-0.051
			c0.048,0.271-0.157,0.289-0.257,0.412c-0.172-0.018-0.229-0.15-0.463-0.104c-0.132,0.006-0.103,0.172-0.104,0.309
			c-0.131,0.006-0.102,0.172-0.103,0.309c-0.257,0.137-0.149,0.639-0.36,0.822c-0.146,0.055-0.215,0.055-0.359,0
			c-0.104,0.053-0.082,0.229-0.258,0.207c-0.021,0.133-0.153,0.154-0.154,0.309c-0.238,0.018-0.398,0.115-0.463,0.309
			c-0.061-0.061-0.182-0.059-0.309-0.053c-0.017-0.188-0.263-0.148-0.257-0.359c-0.171-0.018-0.224-0.154-0.309-0.258
			c-0.169-0.002-0.196-0.146-0.411-0.102c0.009-0.199-0.178-0.201-0.206-0.361c-0.083,0.016-0.089-0.049-0.154-0.051
			c-0.293,0.033-0.486,0.186-0.617-0.104c-0.021-0.107,0.035-0.135,0.052-0.205c0.056-0.014,0.035-0.102,0.103-0.104
			c-0.019-0.184-0.138-0.188-0.052-0.359c-0.06-0.076-0.063-0.211-0.154-0.258c0.053-0.17,0.053-0.393,0.154-0.514
			c-0.006-0.209-0.221-0.426,0-0.566c-0.046-0.227-0.324-0.223-0.309-0.514c-0.08-0.184,0.176-0.031,0.154-0.154
			c0.068-0.018,0.082-0.09,0.154-0.104c-0.036-0.189,0.088-0.221,0.052-0.41c0.161,0.023,0.136-0.139,0.257-0.154
			c-0.037-0.227,0.167-0.211,0.206-0.361c0.114,0.119,0.2-0.016,0.36,0c0.052,0.104,0.089,0.221,0.205,0.258
			c0.158-0.031,0.269-0.109,0.412-0.154c0.162-0.064,0.01-0.148,0.154-0.258c0.06,0.01,0.092-0.01,0.103-0.051
			c0.137,0,0.294-0.02,0.36,0.051c0.162,0.01,0.172-0.137,0.359-0.102c0.076-0.045,0.163-0.078,0.154-0.207
			C177.974,45.036,178.007,45.036,178.042,45.036z M177.321,45.499c-0.039,0.012-0.102,0.002-0.103,0.053
			C177.259,45.54,177.32,45.55,177.321,45.499z"/>
		<path fill-rule="evenodd" clip-rule="evenodd" fill="#0C3846" d="M175.161,45.757c0.01-0.059,0.052-0.029,0.052,0
			C175.203,45.815,175.161,45.786,175.161,45.757z"/>
	</g>
	<g>
		<g>
			<path fill-rule="evenodd" clip-rule="evenodd" fill="#0C3846" d="M135.892,28.937c0.104-0.001,0.205-0.003,0.309-0.004
				c0.098-0.007,0.033-0.17,0.152-0.156c0.112,0.008,0.164-0.044,0.152-0.156c0.263,0.078,0.417,0.269,0.572,0.457
				c0.252,0.082,0.411-0.053,0.617,0.044c0.035,0.188-0.109,0.199-0.1,0.361c0.082,0.181,0.229-0.028,0.361,0.099
				c0.042,0.113,0.11,0.199,0.107,0.358c0.096,0.23,0.486,0.161,0.57,0.405c0.221-0.035,0.289,0.085,0.412,0.149
				c0.002,0.103,0.003,0.205,0.004,0.309c-0.104,0.051-0.201,0.107-0.307,0.158c-0.024,0.161-0.086,0.288-0.149,0.413
				c0.031,0.09-0.058,0.302,0.056,0.307c-0.045,0.11-0.154,0.154-0.15,0.311c-0.104,0.051-0.203,0.107-0.308,0.158
				c-0.059,0.389,0.03,0.63-0.04,1.029c-0.146,0.076-0.303,0.145-0.406,0.263c-0.154,0-0.178-0.133-0.311-0.15
				c-0.195,0.013-0.248,0.164-0.41,0.21c-0.129,0.044-0.16,0.182-0.255,0.261c-0.177-0.047-0.319-0.159-0.515-0.047
				c-0.006-0.097-0.17-0.033-0.155-0.152c-0.077-0.024-0.13-0.075-0.206-0.1c-0.098-0.312,0.052-0.558-0.062-0.823
				c-0.185-0.027-0.249,0.063-0.359,0.107c-0.245-0.072-0.396-0.106-0.669-0.043c-0.071-0.065-0.053-0.224-0.056-0.36
				c-0.04-0.131-0.128-0.216-0.26-0.253c0.052-0.241-0.14-0.405-0.007-0.566c-0.027-0.076-0.077-0.128-0.105-0.204
				c0.08-0.212,0.094-0.255,0.046-0.516c-0.038-0.137,0.104-0.101,0.152-0.155c-0.042-0.194,0.06-0.247,0.047-0.412
				c0.217-0.026,0.233-0.247,0.407-0.313c-0.066-0.067-0.067-0.188-0.002-0.258c0.07-0.1,0.247-0.096,0.357-0.158
				c0.057-0.012,0.08-0.058,0.102-0.104c0-0.067,0.09-0.048,0.102-0.104c0.076-0.078,0.216-0.094,0.256-0.209
				C135.839,29.02,135.864,28.979,135.892,28.937z"/>
			<path fill-rule="evenodd" clip-rule="evenodd" fill="#0C3846" d="M134.811,28.897c0.132-0.004,0.063,0.038,0.054,0.103
				c0.061,0.093,0.272,0.032,0.209,0.255c-0.11,0.117-0.177-0.04-0.361,0.004C134.659,29.054,134.864,29.102,134.811,28.897z"/>
			<path fill-rule="evenodd" clip-rule="evenodd" fill="#0C3846" d="M135.892,28.937C135.829,28.942,135.859,28.861,135.892,28.937
				L135.892,28.937z"/>
			<path fill-rule="evenodd" clip-rule="evenodd" fill="#0C3846" d="M134.497,32.81c0-0.049,0.062-0.04,0.102-0.053
				C134.599,32.808,134.536,32.798,134.497,32.81z"/>
			<path fill-rule="evenodd" clip-rule="evenodd" fill="#0C3846" d="M137.592,33.545c0.009-0.058,0.05-0.028,0.051-0.001
				C137.634,33.603,137.591,33.574,137.592,33.545z"/>
		</g>
		<g>
			<path fill-rule="evenodd" clip-rule="evenodd" fill="#0C3846" d="M138.185,14.493c0.029,0.213,0.236,0.244,0.416,0.304
				c0,0.169-0.084,0.257-0.046,0.463c0.075,0.199,0.128,0.425,0.263,0.562c-0.012,0.238,0.007,0.444,0.111,0.564
				c0.007,0.377-0.115,0.615-0.041,0.926c0.074,0.114,0.167,0.21,0.26,0.306c-0.012,0.211-0.205,0.274-0.098,0.464
				c-0.143,0.098-0.194,0.284-0.251,0.466c-0.069,0.001-0.138,0.002-0.206,0.003c-0.105,0.101-0.247,0.165-0.357,0.262
				c-0.111,0.077-0.275,0.103-0.357,0.209c-0.082,0.016-0.089-0.048-0.154-0.049c-0.134,0.078-0.16,0.454-0.409,0.261
				c-0.12-0.223,0.345-0.258,0.354-0.518c-0.156-0.138-0.229,0.115-0.463,0.056c-0.107,0.066-0.197,0.146-0.306,0.211
				c-0.155,0.018-0.182,0.16-0.409,0.106c-0.1-0.071-0.098-0.248-0.159-0.357c-0.048-0.144-0.209-0.168-0.362-0.201
				c-0.023-0.064-0.066-0.105-0.156-0.102c-0.069-0.102-0.122-0.222-0.26-0.255c0.048-0.308-0.224-0.29-0.161-0.615
				c0-0.155-0.259-0.046-0.261-0.202c-0.189,0.108-0.266-0.072-0.412-0.149c-0.01-0.162,0.135-0.174,0.098-0.36
				c0.301,0.004,0.28-0.305,0.511-0.366c0.009-0.198-0.003-0.38-0.058-0.515c0.166-0.17,0.383-0.352,0.25-0.671
				c0.161-0.031,0.571-0.181,0.617-0.007c0.147-0.008,0.086-0.221,0.254-0.209c-0.021-0.134-0.154-0.153-0.157-0.307
				c0.202-0.041,0.242-0.238,0.251-0.466c0.126-0.03,0.108-0.2,0.307-0.158c0.105-0.084,0.209-0.169,0.358-0.21
				c0.204,0.042,0.259,0.042,0.463-0.006c0.095-0.009,0.029-0.174,0.101-0.206c0.215,0.009,0.242-0.087,0.412-0.005
				c0.053,0.068,0.05,0.191,0.156,0.203c-0.035,0.159,0.055,0.188,0.055,0.309c-0.064,0.014-0.051,0.103,0.001,0.104
				C138.333,14.434,138.169,14.374,138.185,14.493z"/>
			<path fill-rule="evenodd" clip-rule="evenodd" fill="#0C3846" d="M138.593,14.076c-0.027-0.026,0.036-0.066,0.05-0.052
				C138.669,14.051,138.606,14.09,138.593,14.076z"/>
			<path fill-rule="evenodd" clip-rule="evenodd" fill="#0C3846" d="M138.912,14.998c0.121-0.003,0.152,0.087,0.31,0.048
				c0.107,0.246,0.027,0.6-0.303,0.569c0-0.068-0.002-0.137-0.002-0.205c-0.01-0.096-0.176-0.029-0.207-0.102
				C138.671,15.103,138.925,15.181,138.912,14.998z"/>
		</g>
		<g>
			<path fill-rule="evenodd" clip-rule="evenodd" fill="#0C3846" d="M138.111,56.115c0.19-0.021,0.097,0.247,0.26,0.255
				c-0.028,0.186,0.062,0.249,0.106,0.358c0.092,0.007,0.109-0.063,0.205-0.054c0.019,0.119-0.006,0.198-0.049,0.259
				c0.15,0.256,0.146,0.381,0.163,0.717c0.054,0.104,0.229,0.079,0.209,0.256c-0.073,0.081-0.128,0.181-0.255,0.208
				c-0.006,0.152,0.153,0.361-0.047,0.412c0.027,0.146,0.251,0.056,0.26,0.255c0.107-0.114,0.229-0.014,0.31,0.048
				c0.193,0.052,0.146-0.129,0.308-0.107c0.068,0.14,0.266,0.146,0.312,0.305c0.092,0.007,0.107-0.063,0.205-0.053
				c0.051,0.271-0.154,0.291-0.252,0.415c-0.172-0.016-0.23-0.147-0.465-0.099c-0.131,0.008-0.1,0.174-0.1,0.311
				c-0.131,0.007-0.1,0.173-0.099,0.31c-0.255,0.14-0.142,0.64-0.351,0.826c-0.145,0.057-0.215,0.058-0.359,0.004
				c-0.104,0.054-0.08,0.229-0.256,0.21c-0.019,0.134-0.151,0.156-0.15,0.311c-0.238,0.021-0.396,0.12-0.459,0.314
				c-0.062-0.061-0.183-0.057-0.31-0.05c-0.019-0.187-0.265-0.146-0.261-0.356c-0.172-0.016-0.226-0.151-0.312-0.254
				c-0.169,0-0.198-0.145-0.413-0.097c0.008-0.199-0.18-0.199-0.209-0.359c-0.084,0.017-0.09-0.047-0.155-0.049
				c-0.293,0.037-0.484,0.191-0.618-0.096c-0.023-0.107,0.033-0.136,0.049-0.206c0.056-0.015,0.034-0.102,0.102-0.104
				c-0.021-0.184-0.141-0.187-0.057-0.359c-0.06-0.075-0.065-0.21-0.156-0.256c0.051-0.17,0.048-0.393,0.148-0.515
				c-0.009-0.209-0.227-0.424-0.008-0.566c-0.048-0.227-0.326-0.22-0.314-0.511c-0.082-0.183,0.176-0.033,0.153-0.156
				c0.067-0.018,0.081-0.091,0.153-0.104c-0.039-0.189,0.085-0.222,0.047-0.411c0.161,0.021,0.134-0.141,0.255-0.157
				c-0.04-0.227,0.164-0.213,0.202-0.363c0.115,0.117,0.199-0.019,0.359-0.005c0.053,0.104,0.092,0.22,0.209,0.256
				c0.157-0.033,0.267-0.112,0.41-0.159c0.161-0.066,0.008-0.148,0.15-0.26c0.061,0.009,0.092-0.011,0.103-0.052
				c0.137-0.002,0.294-0.023,0.36,0.047c0.162,0.008,0.171-0.139,0.358-0.106c0.075-0.046,0.163-0.08,0.152-0.209
				C138.043,56.116,138.076,56.116,138.111,56.115z M137.396,56.587c-0.039,0.012-0.102,0.003-0.102,0.054
				C137.334,56.629,137.396,56.638,137.396,56.587z"/>
			<path fill-rule="evenodd" clip-rule="evenodd" fill="#0C3846" d="M135.239,56.87c0.009-0.06,0.051-0.03,0.051-0.001
				C135.281,56.928,135.239,56.899,135.239,56.87z"/>
		</g>
		<path fill-rule="evenodd" clip-rule="evenodd" fill="#0C3846" d="M138.354,43.044c0.191-0.021,0.098,0.247,0.26,0.255
			c-0.028,0.187,0.062,0.25,0.107,0.358c0.092,0.007,0.107-0.063,0.205-0.053c0.018,0.118-0.007,0.197-0.049,0.258
			c0.149,0.256,0.146,0.382,0.162,0.717c0.053,0.104,0.229,0.08,0.209,0.256c-0.072,0.081-0.127,0.181-0.254,0.208
			c-0.006,0.152,0.152,0.361-0.047,0.413c0.025,0.146,0.25,0.056,0.26,0.254c0.107-0.114,0.229-0.014,0.309,0.048
			c0.193,0.052,0.146-0.129,0.308-0.107c0.068,0.14,0.266,0.146,0.312,0.305c0.092,0.007,0.107-0.063,0.205-0.053
			c0.052,0.271-0.153,0.291-0.252,0.415c-0.172-0.016-0.229-0.147-0.464-0.098c-0.132,0.007-0.101,0.173-0.1,0.31
			c-0.131,0.007-0.1,0.173-0.1,0.31c-0.255,0.14-0.142,0.641-0.351,0.826c-0.145,0.057-0.214,0.058-0.359,0.004
			c-0.103,0.055-0.079,0.229-0.255,0.21c-0.02,0.134-0.152,0.156-0.15,0.311c-0.238,0.021-0.398,0.12-0.46,0.314
			c-0.062-0.06-0.183-0.057-0.31-0.05c-0.019-0.187-0.264-0.145-0.261-0.355c-0.171-0.016-0.226-0.152-0.312-0.255
			c-0.169,0-0.197-0.144-0.412-0.097c0.006-0.199-0.18-0.199-0.211-0.358c-0.082,0.017-0.089-0.048-0.154-0.05
			c-0.293,0.037-0.484,0.191-0.618-0.096c-0.022-0.107,0.033-0.136,0.05-0.206c0.055-0.014,0.033-0.102,0.101-0.104
			c-0.021-0.184-0.14-0.186-0.056-0.358c-0.061-0.076-0.066-0.211-0.157-0.256c0.051-0.171,0.048-0.394,0.147-0.516
			c-0.008-0.209-0.225-0.424-0.006-0.566c-0.049-0.227-0.326-0.219-0.314-0.511c-0.082-0.183,0.176-0.033,0.152-0.155
			c0.068-0.019,0.081-0.091,0.153-0.105c-0.038-0.189,0.085-0.222,0.047-0.411c0.161,0.021,0.134-0.14,0.255-0.157
			c-0.039-0.226,0.164-0.213,0.201-0.363c0.116,0.117,0.201-0.019,0.361-0.005c0.053,0.104,0.092,0.22,0.207,0.256
			c0.158-0.033,0.268-0.112,0.411-0.159c0.161-0.066,0.008-0.148,0.151-0.26c0.06,0.01,0.092-0.011,0.102-0.052
			c0.137-0.002,0.294-0.022,0.361,0.047c0.162,0.008,0.17-0.139,0.357-0.105c0.076-0.046,0.162-0.08,0.152-0.209
			C138.286,43.045,138.319,43.045,138.354,43.044z M137.64,43.516c-0.039,0.012-0.102,0.003-0.103,0.054
			C137.577,43.558,137.639,43.566,137.64,43.516z"/>
		<path fill-rule="evenodd" clip-rule="evenodd" fill="#0C3846" d="M135.482,43.799c0.009-0.059,0.052-0.03,0.052-0.001
			C135.524,43.856,135.482,43.828,135.482,43.799z"/>
	</g>
</g>
</svg>
