<svg xmlns="http://www.w3.org/2000/svg" width="305.834" height="176.833" viewBox="0 0 305.834 176.833"><defs><path id="a" d="M-.083-1h306v177h-306z"/></defs><path clip-path="url(#b)" fill="#D72251" d="M114.414 66.748l42.503 4.13s8.69 10.278 12.096 18.888c3.404 8.61 12.78 22.14 32.78 24.375s29.874-5.765 29.874-5.765-3.125-3.25-7.5-2.25-9.75 2.82-13.5 2.473c0 0 5.312-1.723 8.344-5.348s5.657-5.313 7.907-5.156c2.25.156 6.25-1.47 6-3.594 0 0 1.355.47.262 3.818-1.096 3.35 1.964 6.32 1.964 6.32s3.606-5.1 3.44-8.995c-.166-3.894-6.27-9.102-12.634-9.394 0 0-1.532-11.363-11.366-20.89s-17.465-18.23-47.5-20.55c-28.292-2.185-49.247 16.33-52.67 21.938"/><path clip-path="url(#nav-mouth-10-id-2)" fill="#FCDCA4" d="M-.083-1v24.365C-.083 107.663 68.254 176 152.553 176h.73c84.298 0 152.634-68.337 152.634-152.635V-1h-306zm119.055 61.152l-4.557 6.24-27.623-3.816 32.18-2.424zm116.172 44.488s-3.06-2.973-1.965-6.32c1.094-3.35-.263-3.82-.263-3.82.25 2.126-3.75 3.75-6 3.595s-4.875 1.53-7.906 5.156-8.343 5.35-8.343 5.35c3.75.347 9.125-1.474 13.5-2.474s7.5 2.25 7.5 2.25-9.875 8-29.875 5.766-29.375-15.766-32.78-24.375-12.095-18.888-12.095-18.888l-42.502-4.13c3.422-5.608 24.377-24.124 52.668-21.94 18.29 1.414 28.265 5.194 35.496 10.085l18.686-1.236c-.608 3.297-4.464 12.282-4.976 13.462 8.308 9.11 9.66 19.13 9.66 19.13 6.365.29 12.467 5.5 12.633 9.394s-3.44 8.994-3.44 8.994"/><path clip-path="url(#nav-mouth-10-id-2)" fill="#0C3846" d="M305.917-1h-306v1h65.745L259.14 33.727l-.422.58-.504.875c-1.29 2.245-1.963 3.82-1.963 3.82s1.298-1.177 2.964-3.06c.41-.478.88-.97 1.396-1.477.133-.132.27-.285.406-.42l3.82.646a34.446 34.446 0 0 0-1.658 1.57c-.6.59-1.22 1.205-1.806 1.87a51.173 51.173 0 0 0-1.778 2.017c-.58.688-1.125 1.41-1.68 2.105-.535.708-1.023 1.44-1.516 2.127-.482.698-.89 1.417-1.305 2.072-.395.674-.727 1.336-1.047 1.934-.312.605-.543 1.193-.768 1.695-.11.236-.197.464-.273.68-14.04.865-30.762 1.903-50.094 3.112a61.534 61.534 0 0 0-2.268-1.41c-7.025-4.174-15.372-7.256-24.03-8.475a62.18 62.18 0 0 0-6.535-.59c-1.113-.077-2.156-.05-3.217-.05l-1.624.01-1.6.096c-1.062.065-2.122.13-3.175.193-1.053.07-2.104.1-3.14.265-2.07.295-4.13.48-6.13.855-.997.2-1.987.402-2.967.6-.976.215-1.96.352-2.897.65l-2.8.794c-.922.258-1.835.506-2.707.85-1.75.667-3.496 1.187-5.084 1.96-.804.36-1.595.71-2.37 1.06-.782.332-1.497.772-2.225 1.143l-2.112 1.138c-.664.418-1.313.822-1.945 1.218-1.283.763-2.396 1.646-3.477 2.42-1.074.785-1.997 1.63-2.893 2.354-.06.058-.115.107-.174.163-60.982 3.85-113.524 7.108-113.524 7.108l.62 2.068s31.39-2.007 73.972-4.708c1.952.23 35.305 4.146 76.08 8.277.746.838 1.443 1.772 2.187 2.71.813 1.19 1.647 2.32 2.445 3.667.84 1.312 1.588 2.657 2.382 4.04.77 1.41 1.55 2.855 2.316 4.35 1.55 2.973 3.14 6.092 5.008 9.173 1.864 3.076 4.092 6.085 6.797 8.64 2.697 2.565 5.826 4.624 9.048 6.26l1.207.617c.48.254.83.363 1.252.552.82.325 1.574.707 2.443.982.855.283 1.705.564 2.55.846l2.528.642c3.366.76 6.686 1.118 9.837 1.205 3.152.048 6.127-.21 8.85-.602 2.708-.476 5.174-1.028 7.303-1.738 2.143-.665 3.945-1.453 5.407-2.15 1.437-.756 2.566-1.36 3.285-1.87l.248-.163c.13.123.263.243.382.378l.448.556.494.832.5.84.292.766c.443.988.6 2.205.568 3.334-.03 1.168-.388 2.282-.914 3.505-.576 1.338-1.062 2.826-1.186 4.445-.008.083-.01.17-.014.256-97.38-7.438-212.26-26.518-213.407-26.708l1.276 2.217c.997.167 86.897 14.45 173.376 23.063C152.97 136.04 68.518 150.084 67.65 150.23l2.542 1.67c.476-.08 25.43-4.248 54.59-10.23 2.823.678 69.57 16.703 92.62 20.252l3.155-1.51c-20.02-3.08-75.344-15.983-91.14-19.702 24.755-5.168 51.71-11.524 68.945-17.734 11.465 1.113 22.91 2.12 34.145 2.977.21.944.615 1.876 1.287 2.654.605.67 1.338 1.245 2.1 1.57l.236.115c.092.04.225.084.336.123l.7.223c.44.064.88.176 1.322.152 1.792.048 3.433-.702 4.683-1.72a9.58 9.58 0 0 0 1.956-2.215c6.88.458 12.95.813 19.38 1.122l1.704-1.922c-6.158-.296-13.342-.7-20.082-1.14.502-1.27.785-2.594.86-3.843.23-3.045-.925-5.826-2.47-7.88-.762-1.043-1.598-1.944-2.404-2.77-.796-.827-1.607-1.618-2.467-2.317-1.342-1.114-2.56-2.078-3.54-3.065l.178-.212c.18-.215.402-.48.664-.79.26-.31.54-.765.86-1.224.344-.46.64-1.01.94-1.623.343-.586.554-1.318.824-2.074.423-1.55.58-3.526-.116-5.496-.675-1.965-2.117-3.75-3.925-5.05-1.82-1.305-3.918-2.29-6.23-2.9-.784-.2-1.585-.325-2.388-.398a4.42 4.42 0 0 0-.05-.48c-.093-1.087-.44-2.604-1.092-4.438a31.604 31.604 0 0 0-.894-2.186c8.757.713 16.92 1.33 24.477 1.852-.06.157-.116.313-.175.46-.538 1.446-.768 2.523-.768 2.523s.79-.704 1.78-1.93c.23-.29.495-.602.743-.945 17.81 1.206 32.227 1.867 43.27 1.967l.825-2.02c-10.81-.1-25.237-.73-42.808-1.887.357-.626.713-1.272 1.035-1.943.45-.933.903-1.864 1.216-2.788.316-.92.58-1.793.763-2.556.387-1.514.424-2.603.424-2.603s-.188.2-.47.57c-.284.367-.677.9-1.103 1.55-.437.646-.895 1.42-1.353 2.257-.44.847-.943 1.733-1.37 2.655-.444.902-.817 1.843-1.172 2.724a1822.428 1822.428 0 0 1-26.327-1.976c-1.478-2.834-3.54-6.012-6.268-9.254l-.05-.058c.944-2.12 3.262-7.518 4.478-12.082 12.15-.757 23-1.43 32.56-2.02-.305.337-.607.68-.915 1.017a50.56 50.56 0 0 0-1.475 1.842c-.45.637-.895 1.263-1.292 1.89a25.433 25.433 0 0 0-1.896 3.598c-.223.556-.4 1.073-.56 1.528-.173.448-.23.88-.32 1.21-.155.68-.218 1.065-.218 1.065s.232-.33.596-.906c.19-.285.38-.645.656-1.03.27-.385.577-.815.885-1.294.33-.468.725-.952 1.093-1.488.375-.532.845-1.046 1.256-1.622.43-.566.93-1.11 1.388-1.698l1.47-1.727c.76-.87 1.52-1.727 2.267-2.562 24.27-1.493 39.693-2.412 46.12-2.747l.336-2.017c-6.264.327-21.228 1.215-44.562 2.646.51-.57.998-1.116 1.438-1.612.78-.856 1.412-1.6 1.86-2.118l.698-.83s-.365.162-.965.504c-.605.338-1.446.853-2.405 1.54a35.06 35.06 0 0 0-3.137 2.524c-.057.05-.113.104-.17.156-.947.06-1.923.118-2.898.178.373-.483.804-1.03 1.27-1.65.418-.52.878-1.07 1.335-1.67.48-.59 1.01-1.19 1.517-1.84.53-.634 1.082-1.287 1.64-1.95.563-.663 1.112-1.352 1.702-2.01 1.14-1.352 2.283-2.703 3.352-3.97.535-.636 1.055-1.25 1.53-1.85.21-.256.413-.504.612-.75l38.065 6.44.215-1.974-36.874-6.24c1.276-1.636 2.045-2.746 2.045-2.746s-1.48.883-3.464 2.506l-4.115-.696a28.95 28.95 0 0 1 1.177-1.21c.58-.583 1.188-1.155 1.76-1.762a27.024 27.024 0 0 1 1.773-1.747c.584-.578 1.162-1.147 1.72-1.698l1.646-1.556c.528-.49 1-.994 1.472-1.41.925-.865 1.68-1.61 2.225-2.12.54-.522.848-.822.848-.822s-.403.15-1.077.482c-.685.32-1.627.835-2.722 1.51-.555.33-1.134.715-1.73 1.148-.59.436-1.25.857-1.873 1.365-.616.517-1.254 1.05-1.9 1.594a28.16 28.16 0 0 0-1.874 1.743c-.61.603-1.188 1.24-1.774 1.85-.608.588-1.1 1.266-1.596 1.902-.097.122-.175.236-.27.357L74.655 0h231.263v-1zm-192 66.332A5522.644 5522.644 0 0 1 91.87 62.87c8.2-.52 16.724-1.06 25.445-1.61-1.278 1.325-2.217 2.444-2.814 3.264-.25.316-.432.587-.583.808M223.72 81.12c.638 1.667 1.01 3.017 1.11 3.924.01.06.01.1.02.155-.98.02-1.955.114-2.913.264-2.44.372-4.817 1.06-7.12 1.868-2.296.82-4.51 1.807-6.656 2.687-1.02.396-2.244.904-3.275 1.42l-3.068 1.55c-3.96 2.04-7.704 3.778-11.053 4.456-1.666.354-3.2.404-4.516.26a10.92 10.92 0 0 1-3.338-.835c-.91-.37-1.6-.8-2.08-1.09-.464-.315-.742-.475-.742-.475s.13.277.428.784c.31.496.84 1.192 1.72 1.903.88.7 2.155 1.362 3.724 1.655 1.568.307 3.36.21 5.21-.138 3.718-.695 7.656-2.475 11.68-4.46 1-.486 2.02-.98 3.05-1.478 1.042-.496 1.982-.867 3.158-1.308 2.218-.872 4.395-1.785 6.607-2.554 2.202-.78 4.436-1.43 6.648-1.774 2.215-.355 4.402-.36 6.35.125 2.018.518 3.908 1.41 5.424 2.49 1.543 1.07 2.657 2.44 3.176 3.86.54 1.42.467 2.868.164 4.117-.215.615-.354 1.21-.646 1.722-.246.523-.47 1.007-.745 1.396-.265.405-.446.766-.696 1.088-.224.285-.41.527-.573.734-.65-.927-1.066-1.857-1.25-2.718a7.97 7.97 0 0 1-.12-2.75l.147-1.002s-.14.327-.4.942a7.39 7.39 0 0 0-.45 2.92c.05 1.308.582 2.902 1.63 4.394 1.032 1.5 2.525 2.888 4.068 4.28.746.674 1.475 1.457 2.24 2.29.758.823 1.5 1.68 2.137 2.61.64.93 1.172 1.938 1.502 3.018a8.842 8.842 0 0 1 .354 3.355c-.018.286-.086.644-.127.964-.027.23-.13.564-.19.843-.153.578-.35 1.146-.603 1.686-.504 1.075-1.218 2.07-2.133 2.767-.9.705-1.978 1.138-3.013 1.08-.26.022-.507-.07-.76-.096-.1-.04-.2-.072-.303-.102-.055-.018-.095-.018-.164-.048l-.235-.12c-.535-.23-.904-.585-1.254-.937-.63-.74-.896-1.785-.79-2.974.087-1.185.458-2.4.978-3.6.562-1.31 1.086-2.864 1.107-4.427.013-1.57-.212-3.08-.864-4.5-.152-.353-.305-.715-.465-1.053l-.513-.83-.512-.82-.084-.13-.044-.055-.09-.11-.178-.214-.357-.425c-1.006-1.095-2.276-1.88-3.563-2.345-2.604-.943-5.152-.793-7.332-.392-1.108.21-2.105.514-3.088.885-.254.088-.457.183-.677.273l-.637.264c-.397.154-.774.328-1.163.46a40.298 40.298 0 0 1-4.21 1.08c-2.4.478-3.815.69-3.815.69s.354.04 1.016.12c.667.056 1.645.13 2.896.12.627-.005 1.32-.02 2.078-.093.76-.034 1.58-.172 2.46-.325.44-.088.896-.227 1.366-.347l.357-.096c.076-.017.21-.066.315-.098.222-.07.457-.154.665-.203a19.13 19.13 0 0 1 2.792-.556c1.955-.264 4.154-.25 6.115.5.057.02.11.05.166.074-.624.41-1.462.882-2.474 1.422-1.365.67-3.058 1.433-5.092 2.087-2.014.715-4.388 1.213-6.982 1.665-2.61.363-5.465.6-8.487.54-3.02-.093-6.192-.45-9.396-1.187l-2.4-.632c-.776-.266-1.558-.532-2.345-.8-.785-.25-1.592-.664-2.395-.99-.377-.173-.86-.35-1.152-.52l-1.144-.6c-3.06-1.59-5.968-3.555-8.466-5.963-2.514-2.393-4.594-5.213-6.38-8.182-1.8-2.967-3.335-6.073-4.925-9.052-.79-1.493-1.6-2.952-2.4-4.378-.835-1.417-1.648-2.83-2.49-4.11-.79-1.303-1.744-2.586-2.587-3.78-.938-1.158-1.8-2.31-2.774-3.3-.916-1.037-1.91-1.93-2.843-2.783-.994-.79-1.93-1.546-2.898-2.143-1.915-1.212-3.743-2.01-5.3-2.464a14.15 14.15 0 0 0-3.695-.616c-.864-.02-1.315.062-1.315.062s1.817.332 4.562 1.7c2.275 1.17 5.212 3.06 8.167 5.93a5319.467 5319.467 0 0 1-38.274-4.042c.598-.738 1.498-1.713 2.694-2.888.64-.64 1.422-1.284 2.232-2.02.876-.665 1.772-1.446 2.82-2.167 1.054-.71 2.133-1.524 3.383-2.22l1.88-1.13 2.042-1.054c.704-.342 1.39-.755 2.148-1.062l2.292-.975c1.53-.72 3.227-1.19 4.914-1.803.842-.318 1.727-.544 2.62-.777.893-.236 1.797-.48 2.71-.724 1.828-.473 3.745-.776 5.668-1.18 1.933-.35 3.935-.54 5.94-.814 1-.156 2.024-.216 3.048-.28 1.025-.056 2.055-.192 3.088-.25l1.553-.245h1.544c1.056 0 2.134.147 3.145.23 2.04.08 4.125.46 6.19.733 8.27 1.122 16.25 4.02 22.997 7.98 3.375 1.978 6.484 4.16 9.238 6.467a63.207 63.207 0 0 1 7.227 7.074c4.112 4.743 6.783 9.302 8.063 12.645M216.1 65.1a66.443 66.443 0 0 0-5.906-5.765 69.022 69.022 0 0 0-4.59-3.625l14.32-.895c-1.066 3.73-2.82 7.972-3.825 10.286m-34.232-12.01c.305.14.602.276.896.413 1.174.554 2.322.98 3.257 1.44 1.87.918 3.21 1.433 3.21 1.433s-1.063-.927-2.793-2.17c-.425-.326-.916-.618-1.442-.922-.523-.306-1.072-.638-1.656-.954-.58-.33-1.18-.656-1.82-.93-.634-.288-1.276-.58-1.92-.87-.642-.296-1.314-.517-1.964-.766-.648-.248-1.3-.46-1.924-.673-1.27-.37-2.453-.728-3.494-.934-2.064-.476-3.488-.563-3.488-.563s1.297.576 3.23 1.384c.973.387 2.088.89 3.303 1.35.604.25 1.213.534 1.852.78.63.258 1.283.497 1.91.792l1.902.807.94.382m6.296 6.143c.448.19.89.376 1.3.585.83.4 1.628.74 2.33 1.007 1.39.55 2.405.8 2.405.8s-.73-.71-1.954-1.603a31.857 31.857 0 0 0-2.14-1.456c-.4-.258-.815-.518-1.27-.713l-1.354-.646a53.254 53.254 0 0 0-2.723-1.14c-.9-.295-1.748-.545-2.48-.73-.73-.195-1.35-.314-1.79-.374-.44-.064-.696-.087-.696-.087s.214.145.593.378c.383.224.926.554 1.578.92.654.37 1.425.77 2.26 1.166.815.446 1.702.877 2.595 1.3l1.348.593m3.133 4.09c.736.42 1.473.865 2.21 1.232.727.38 1.45.68 2.08.905.622.236 1.18.35 1.563.433.384.08.61.107.61.107s-.164-.166-.46-.422c-.294-.267-.733-.585-1.245-.992a48.743 48.743 0 0 0-1.78-1.316c-.67-.454-1.4-.944-2.19-1.356-.395-.207-.78-.426-1.188-.595-.404-.176-.807-.34-1.194-.494-.396-.145-.796-.244-1.16-.357-.37-.11-.728-.198-1.05-.267-1.296-.232-2.2-.266-2.2-.266s.744.514 1.923 1.1c.28.16.586.33.908.512.322.173.662.342 1.008.54.344.204.7.405 1.066.603.37.187.725.43 1.098.63m5.162 5.216a16.22 16.22 0 0 0 1.577.68c.954.365 1.694.5 1.694.5s-.42-.576-1.205-1.278c-.388-.36-.865-.746-1.394-1.14-.546-.35-1.16-.666-1.778-.97-.623-.297-1.246-.593-1.864-.793-.62-.196-1.2-.366-1.71-.48-1.01-.246-1.736-.248-1.736-.248s.135.12.38.313a20.805 20.805 0 0 0 2.51 1.647c.555.303 1.13.657 1.73.95a25.59 25.59 0 0 0 1.796.82m5.176 5.285c.9.27 1.564.33 1.564.33s-.418-.518-1.143-1.114a16.637 16.637 0 0 0-2.82-1.876 16.866 16.866 0 0 0-3.132-1.298c-.898-.272-1.562-.335-1.562-.335s.42.517 1.144 1.11c.72.605 1.736 1.308 2.82 1.883 1.08.584 2.227 1.04 3.13 1.302m2.156 2.71a19.515 19.515 0 0 0-1.605-.604 20.042 20.042 0 0 0-3.145-.85c-.896-.167-1.56-.175-1.56-.175s.405.53 1.163 1.077c.367.292.83.567 1.337.846.506.276 1.08.496 1.655.708.588.19 1.19.334 1.76.438.587.064 1.133.11 1.603.105.966-.07 1.575-.27 1.575-.27s-.577-.362-1.395-.675c-.406-.207-.88-.406-1.388-.6m-164.75-30.9c-5.96-.993-11.875-1.502-11.934-1.507a.746.746 0 0 0-.81.684.75.75 0 0 0 .683.81c.057.006 5.915.51 11.814 1.494a.75.75 0 0 0 .247-1.48m.96 6.87l-9.75-1.126a.75.75 0 0 0-.172 1.49l9.75 1.125c.03.003.06.006.088.006a.75.75 0 0 0 .085-1.495m-8.773 4.873a.75.75 0 1 0-.126 1.495l8.875.75c.02 0 .04.004.063.004a.75.75 0 0 0 .062-1.5l-8.875-.75zm-6.536-19.135l12.375 1.625a.75.75 0 1 0 .195-1.486l-12.376-1.625a.745.745 0 0 0-.842.646.75.75 0 0 0 .646.84m-1.027-5.39a.75.75 0 0 0 .73.772c.182.004 2.375.062 4.887.062 2.648 0 5.65-.065 7.023-.327a.75.75 0 0 0 .596-.877.747.747 0 0 0-.876-.596c-2.516.478-11.5.24-11.59.237-.417.004-.76.316-.77.73M35.62 26.94c.098.04.198.06.296.06.29 0 .568-.232.69-.517.163-.38-.013-.885-.394-1.048C33.482 24.265 25.036 24 24.677 24h-.01c-.41 0-.744.453-.75.863-.006.414.324.88.74.887 2.357.034 8.924.314 10.964 1.19M23.053 18.5a.75.75 0 0 0 .616.863c.21.034 4.365.72 7.803.72.674 0 1.32-.026 1.902-.09a.75.75 0 1 0-.16-1.49c-3.356.362-9.24-.61-9.297-.62a.75.75 0 0 0-.863.617m2.12-7.098a.75.75 0 0 0 .65.84l9.75 1.25a.752.752 0 0 0 .19-1.488l-9.75-1.25a.752.752 0 0 0-.84.65M37.38 6.88l-9.75-1.125a.75.75 0 0 0-.172 1.49l9.75 1.125c.03.003.058.006.087.006a.75.75 0 0 0 .085-1.496m3.258 63.873l-9.668-.667a.757.757 0 0 0-.8.696.75.75 0 0 0 .697.8l9.667.666c.018.003.035.003.053.003a.75.75 0 0 0 .05-1.497m-12.13 5.152a.75.75 0 0 0 .654.835l6.833.833a.75.75 0 1 0 .182-1.488l-6.834-.833a.75.75 0 0 0-.834.652m13.66 10.884c-.02-.414-.372-.75-.788-.71-3.044.166-6.145-.32-6.177-.325a.75.75 0 0 0-.234 1.482c.115.017 2.422.375 5.09.375.46 0 .93-.01 1.4-.035a.75.75 0 0 0 .71-.79m.214 6.93c.205.058 3.915 1.085 8.2 1.085 1.413 0 2.89-.11 4.322-.406a.75.75 0 1 0-.303-1.47c-5.417 1.114-11.75-.636-11.813-.652a.75.75 0 1 0-.407 1.443m14.585 16.97a.75.75 0 1 0 .57-1.387c-2.32-.954-8.21-.61-12.44-.273-.36.028-.6.05-.682.05a.75.75 0 0 0 .004 1.5c.078 0 .36-.02.798-.055 6.3-.504 10.253-.448 11.75.166m3.853 5.053a.75.75 0 0 0-.136-1.495c-1.77.164-8.18 0-8.246-.002-.376.016-.76.316-.77.73a.75.75 0 0 0 .732.77c.175.005 2.945.074 5.354.074 1.263 0 2.428-.02 3.066-.077m7.932 6.67a.75.75 0 0 0 .27-1.45c-2.22-.855-10.025-1.182-10.908-1.216-.406-.037-.762.307-.778.72a.75.75 0 0 0 .72.778c2.33.092 8.745.47 10.427 1.117.09.034.18.05.27.05m5.917 4.75a.75.75 0 0 0-.75-.75c-5.814 0-7.037-.28-7.12-.302a.75.75 0 0 0-.45 1.43c.185.062 1.426.37 7.57.37a.75.75 0 0 0 .75-.748m5.133 6.26c-3.055.482-7.313.326-7.354.325-.41-.034-.763.307-.78.72a.75.75 0 0 0 .722.778c.07.003.76.028 1.768.028 1.575 0 3.924-.062 5.878-.37a.75.75 0 0 0-.234-1.482m-.794 8.83a.75.75 0 0 0 .832.657c.12-.015 2.945-.352 5.33-1.205a.75.75 0 1 0-.504-1.413c-2.222.795-4.974 1.124-5 1.126a.753.753 0 0 0-.658.835M44.43 80.596c-4.64.96-10.18.168-10.238.16a.758.758 0 0 0-.85.632.75.75 0 0 0 .632.852c.146.02 2.338.335 5.148.335 1.747 0 3.732-.12 5.613-.51a.75.75 0 1 0-.304-1.47M254.36 60.94a24.416 24.416 0 0 0-1.794 2.217c-.623.836-1.204 1.785-1.76 2.75-.58.944-1.018 1.985-1.464 2.93-.23.466-.38.964-.547 1.417-.17.453-.29.898-.42 1.298-.146.39-.19.797-.254 1.137-.065.34-.095.645-.13.888-.06.493-.074.77-.074.77s.172-.237.443-.65c.284-.408.59-1.007 1.05-1.69.223-.346.486-.708.72-1.11.242-.398.497-.814.778-1.24.27-.433.55-.88.835-1.332.265-.463.552-.924.835-1.39.285-.464.553-.938.816-1.404l.763-1.38c.24-.454.463-.897.663-1.328.212-.423.41-.824.572-1.208.34-.76.6-1.408.764-1.878.17-.466.248-.746.248-.746s-.236.17-.604.503c-.367.33-.887.815-1.44 1.444"/></svg>