<svg xmlns="http://www.w3.org/2000/svg" width="305.834" height="176.833" viewBox="0 0 305.834 176.833"><defs><path id="a" d="M0-.625h306.056V175H0z"/></defs><path clip-path="url(#b)" fill="#EE6372" d="M305.363 22.834c-2-3.5-10.166-6.833-10.166-6.833-2.166.835-4.334 7.5-4.334 7.5l-5.833-.666c-.167-9.667-6.167-5.833-6.167-5.833s2-2.333-5.166-4.666S265.863 21 265.863 21c-5.667-1.332-10.333.834-10.333.834-3.5-7.834-12.833-7.5-12.833-7.5l-3.833 4c-7.333-17.833-22-9.5-22-9.5S215.53 6.334 205.697 5s-17.5 10.5-17.5 10.5-3.333-8.166-20-11.333c-14.836-2.82-20.167 6.5-20.167 6.5s-3.667-5.166-11-5.833c-7.334-.667-8.5 8.167-8.5 8.167-2.5-3.665-12-1.666-12-1.666-4.667-6.333-14.667-6.167-14.667-6.167-14-1-19.333 12.667-19.333 12.667s-2.834-5.833-4.5-7.666c-1.667-1.833-17.167-3.5-17.167-3.5-3.166.834-9.833 13.957-9.833 13.957s-1.334-4.957-8.334-5.457S29.863 25 29.863 25s-1.167-4.332-4.667-8.417c-6.666-2.085-14.166 8.75-14.166 8.75C9.863 21.502 1.78 16.5 1.78 16.5l3.583-5.166-5.333-.267v11.298C.03 106.663 68.367 175 152.667 175h.728c83.824 0 151.855-67.574 152.618-151.218a6.552 6.552 0 0 1-.65-.948"/><path clip-path="url(#nav-mouth-11-id-2)" fill="#FCDCA4" d="M79.53 66.833c-1.878-2.167-1.334-9.416-.834-12.583s3.584-9.917 11.5-7.583c0 0 1.667 4.166 3.667 4.75 0 0 2.333-10 14.667-8.584 0 0 1.083 6.5 5 7.334 0 0 3.916-12.584 12.583-10.5 0 0 .083 6.75 7.083 8.416 0 0 .834-11.25 7.5-10.916 6.667.333 10.75 1.916 11.667 3.583s1.917 4.5 1.917 4.5 3.083-9.917 10.083-9.917 10.917 3.167 10.75 12.417c0 0 5.667-.917 4.667-8.333 0 0 6.167-1.334 7.333.916 1.167 2.25 2.5 4.917 3.167 5.334 0 0 3.5-3.084 4.75-5 0 0 11.583-2 15 6.916 0 0 4.417-1.916 4.083-4.25 0 0 7.5-1.833 10.25 3.834 0 0 2-.667 2.5-2.75 0 0 6.084-1.417 7.5 3 1.417 4.416 2.834 16.5-8 14.5l.084 2.333-2.084 1s-2 10.25-5.5 14.167c-3.5 3.916-9.416 4.583-9.416 4.583s-2 8.417-11.584 6.917c0 0-3.083 6.333-9.333 7.166 0 0-.75-4.333-3.667-4.583 0 0-2 6.583-11.916 4.833 0 0-.75-4.333-3.667-4.75 0 0-4.25 8.167-9.333 7.667-5.084-.5-3.667-6.5-3.667-6.5s-3.834 5.667-6.584 5.583c-2.75-.083-8.083-2.25-9-3.666-.916-1.417-2.166-5.417-2.166-5.417s-5.084 3.583-5.167 4.833.667 3.75.667 3.75-4.25.75-7.167-1.083-4-4.75-3.833-7.417c0 0-4.75 1.167-4.084 5.667 0 0-6.083-.583-9.25-4.917 0 0-7.666 1.834-10.916-5.666 0 0-2.417 1.083-5.75-2.584-3.334-3.666-6.167-5.333-6.584-7.5-.416-2.166-.416-7.25-.416-7.25s-5.417-1-6.5-2.25"/><path clip-path="url(#nav-mouth-11-id-2)" fill="#F0A733" d="M175.113 47.75s-.083 5.083 1.084 6.5c1.166 1.417 6.25 9.583 2.083 15.333 0 0 2.417 2.584 9.583 1.834 7.167-.75 9.167-2.334 9.167-2.334s1.083-11.916-1-14.416-6.583-10.167-7.583-12.167-6-4.917-8-3.417c0 0-.167 7.584-5.334 8.667M117.78 75.083s7.833 1 13.166-2.25l4.25 1.667 3 17.083s-6.25 2.5-4.833 7.667c0 0-3.417 1.083-6.917-.917s-3-4.5-2.916-7.916c.083-3.417.166-6-2.5-8.25-2.667-2.25-3.834-3.584-3.25-7.084"/><path clip-path="url(#nav-mouth-11-id-2)" fill="#F0A733" d="M197.03 67.583l7.417 6.917s8.25-9.167 8.25-10.833c0-1.667-.917-13.917-3.084-17.25-2.166-3.334-6.75-7.417-14.166-5.75 0 0-2.25 4.416-5.167 5 0 0 4.417 6.416 5.25 8 .833 1.583 1.833 11.583 1.5 13.916"/><path clip-path="url(#nav-mouth-11-id-2)" fill="#D72251" d="M17.03 19.5s10.333 2.083 11.333 2.583 1.5 2.917 1.5 2.917l1.667-1.333S47.03 30 54.78 40.75l22.917-17.417L68.53 7.25l-8.75-.667S51.947 15.917 51.113 20c0 0-4-6.083-9.916-4.917-5.917 1.167-11.084 9-11.084 9s-3.75-7.416-4.916-7.5c0 0-4.667-.833-8.167 2.917M246.197 14.667L240.863 25.5l21.667 16.417s13.667-12.334 15.917-13.834 7-4.5 7-4.5-.25-6.583-1.667-7c-1.417-.416-4.917.584-4.917.584s-1.333-5.25-5.916-5.417c-4.584-.167-6.917 5.25-7.417 8.667 0 0-6.833.25-9.583 1.75 0 0-2.25-6.25-9.75-7.5M64.614 65.25s25.516 40.933 88.5 43.667c57.583 2.5 92.083-54.75 92.083-54.75s13 12.833 15.166 23.083c0 0-41.442 55.464-112.958 54.875-60.75-.5-94.967-39.743-94.75-40.875 2.126-11.125 11.96-26 11.96-26"/><path clip-path="url(#nav-mouth-11-id-2)" fill="#D72251" d="M64.197 102.583s-.417 18.75.75 26.084c1.167 7.333 3.093 17.548 9.417 23.5l-3.167-7.417 5.146 7.938-2.896-7.855s6.208 8.685 7.167 10l-2.083-7.416 5.688 9.646-2.02-7.146s7.226 8.476 8.583 10.416l-2.833-7.416 6.584 8.958-4-7.875s7.714 8.71 9.167 10.333l-3.083-7.833 7.917 9.125-4.166-7.542s9.31 8.967 10.167 9.75l-4.416-7.083 8.73 7.25-5.813-7.333s10.657 8.177 11 7.896c-22.874-19.75-19.5-44.896-19.5-44.896s-12.166-7.084-36.333-21.084M196.155 124s3.625 30.25-25.75 47.875l13.042-6.792-8.623 6.444 11.33-7.027-6.406 6.64 14.032-9.89-8.91 8.78 12.618-10.155-7.37 9.02 11.204-8.645-6.564 7.233 9.564-8.358-4.794 6.908 11.127-10.575-6.704 8.93 9.997-9.888-4.534 7.854 9.95-10.48-4.23 8.048 7.44-8.755s-2.46 6.375-2.543 6.583c0 0 19.625-14.5 19.25-58 0 0-26 17.375-43.125 24.25"/><path clip-path="url(#nav-mouth-11-id-2)" fill="#D72251" d="M14.53 80.667l11.333-2.834-8.916 7.5 9.75-5.916-7.48 10.136 10.98-8.053-8.638 11.535L31.612 83.5l-6.93 14.18 9.43-14.18-6.954 17.86 8.62-13.193-5.466 16.962 7.8-14.963-4.58 18.81L39.78 93.5l-2.427 20.037 6.26-14.37-2.95 17.693 4.95-15.86-.096 20.585 1.763-16.252s2.454 20.142 3.167 20.75c0 0-7.5-33.416 17.666-65.666C93.28 28.167 130.863 19 154.863 19s51.417 2.75 81.834 27.25c30.416 24.5 31.666 53.583 26.833 72.5l5.39-21.193-.287 14.403 2.772-19.155 2.058 12.73-.304-15.068 4.367 9.658-2.47-16.968 5.297 12.006-4.052-15.368 7.293 9.682-6.197-12.312 9.02 7.36-6.973-14.085 9.137 8.918-8.625-12.207 10.63 7.426-8.876-9.765 11.556 3.365-8.557-6.872 10.187 1.47-7.483-3.736s8.875-1.338 9.034-2.035c0 0-13 1.25-23.25-6.75s-40.417-35.833-75.75-43.5c0 0-7.584 5.5-9 8.75 0 0-5.917-10.667-21.667-11.833-15.75-1.168-18.916 7.415-18.916 7.415s-3.667-7-11.5-6.666c-7.833.332-7.583 8.915-7.583 8.915s-6.5-4.666-11.916-1.833c0 0-1.416-3.583-5.333-4.083 0 0-23.582 6.832-44.5 23C46.114 46.582 39.198 58.5 35.28 63.75S22.613 79.167 14.53 80.667"/><path clip-path="url(#nav-mouth-11-id-2)" fill="#0C3846" d="M297 15.464l.572-.33c.27-.158.572-.247.855-.376.29-.12.57-.25.884-.314l.914-.235c.3-.103.628-.075.94-.134l.95-.076h.002l1.818-.337-1.097-1.377c-.133-.16-.308-.4-.45-.62-.153-.226-.29-.464-.43-.702-.27-.482-.512-.985-.725-1.503-.212-.518-.38-1.053-.54-1.596-.126-.548-.257-1.102-.32-1.667a6.19 6.19 0 0 1-.08-.85c-.008-.284-.05-.573-.03-.858l.03-.864c.005-.29.067-.572.1-.86.042-.285.06-.58.14-.86l.2-.854c.054-.29.17-.56.26-.84l.288-.837-.403.79c-.13.267-.286.524-.38.805l-.327.835c-.122.276-.182.57-.27.857-.072.29-.178.578-.226.876l-.16.895c-.06.3-.062.604-.096.907-.032.305-.053.61-.043.916-.02.614.034 1.228.09 1.845.086.61.188 1.227.342 1.83.15.603.34 1.206.566 1.793.054.134.116.27.173.407-.258.018-.517.015-.77.096l-1.065.293c-.358.08-.7.237-1.04.38-.34.152-.696.27-1.02.454l-.97.563c-.328.18-.604.44-.907.658-.306.22-.587.464-.847.735-.26.268-.55.51-.772.81-.23.29-.483.57-.695.874l-.61.93-.527.977a15.43 15.43 0 0 0-.806 2.055c-.108.35-.205.706-.285 1.068-.01.04-.016.078-.024.117l-4.25-.53-.073-.6-.213-1.38-.244-1.358c-.023-.187-.137-.556-.228-.837a3.243 3.243 0 0 0-.51-.868c-.235-.262-.494-.496-.798-.65-.29-.188-.594-.256-.89-.35a5.553 5.553 0 0 0-1.67-.097 9.51 9.51 0 0 0-1.506.265c-.078.02-.153.046-.23.067-.034-.108-.066-.216-.105-.328a5.58 5.58 0 0 0-.808-1.426 6.645 6.645 0 0 0-1.14-1.1l-.636-.432-.664-.355c-.456-.2-.893-.407-1.378-.544l-.72-.216-.653-.145-.324-.07-.162-.035c-.14-.023-.152-.017-.232-.026l-.785-.06a2.497 2.497 0 0 0-.797.03l-.805.125c-.504.203-1.057.345-1.484.68-.476.275-.847.646-1.216 1.02-.332.388-.656.793-.903 1.22-.26.426-.488.858-.673 1.303-.214.438-.347.893-.51 1.34-.134.454-.273.907-.372 1.364-.113.454-.194.913-.27 1.375-.02.1-.028.2-.044.3-.09-.01-.18-.03-.27-.037a12.214 12.214 0 0 0-1.366-.073c-.903-.01-1.78.068-2.652.17-.87.102-1.73.25-2.58.423-.583.12-1.156.255-1.736.4l-.12-.234-.26-.506-.325-.47c-.222-.308-.43-.63-.667-.926l-.778-.835c-.247-.293-.563-.508-.85-.757-.29-.244-.58-.49-.902-.68-.318-.2-.627-.422-.954-.603l-.998-.51c-.335-.164-.685-.286-1.026-.43-.342-.15-.697-.25-1.047-.362-.702-.233-1.42-.392-2.137-.53-.52-.1-1.043-.172-1.565-.23.395-.333.79-.67 1.207-.978a23.19 23.19 0 0 1 3.825-2.296c.68-.324 1.386-.587 2.104-.842.718-.266 1.462-.44 2.216-.64-.386-.004-.78-.033-1.168-.006-.39.015-.782.037-1.172.082-.786.067-1.558.24-2.327.432-1.54.386-3.032 1-4.434 1.78a20.37 20.37 0 0 0-3.9 2.805c-.59.543-1.15 1.12-1.665 1.738-.102.116-.188.244-.283.365-.264-.63-.56-1.23-.888-1.838a19.334 19.334 0 0 0-2.3-3.32c-.877-1.038-1.877-1.938-2.992-2.757-.283-.198-.573-.414-.854-.593l-.824-.49a11.59 11.59 0 0 0-1.88-.904c-2.6-1.004-5.493-1.076-8.136-.432-1.33.324-2.605.79-3.833 1.48-.14.082-.28.168-.425.264l-.025-.02a16.765 16.765 0 0 0-1.785-.99c-2.434-1.16-5.032-1.84-7.648-2.188a30.455 30.455 0 0 0-3.96-.28c-1.39.007-2.77.24-4.077.665-2.617.863-4.9 2.404-6.857 4.196a28.69 28.69 0 0 0-4.127 4.736 18.8 18.8 0 0 0-.862-1.17c-.65-.8-1.366-1.532-2.127-2.21a24.134 24.134 0 0 0-5.003-3.405c-1.783-.936-3.66-1.655-5.567-2.233a40.342 40.342 0 0 0-2.89-.752 50.19 50.19 0 0 0-2.914-.54 42.857 42.857 0 0 0-2.977-.34 35.258 35.258 0 0 0-3-.093c-2.005.045-4.024.254-5.993.77a19.278 19.278 0 0 0-5.624 2.388 15.925 15.925 0 0 0-2.447 1.9c-.424.41-.816.82-1.187 1.277-.075-.086-.144-.175-.22-.263-.39-.43-.793-.844-1.224-1.228a15.637 15.637 0 0 0-2.806-2.02c-.507-.275-1.02-.548-1.557-.762a13.357 13.357 0 0 0-1.635-.583c-.543-.185-1.156-.278-1.73-.41l-.803-.105-.402-.052c-.216-.032-.32-.022-.486-.035a7.886 7.886 0 0 0-3.622.637c-1.144.516-2.134 1.313-2.903 2.238-.78.92-1.357 1.958-1.82 3.02-.228.534-.424 1.076-.592 1.628l-.02.075a8 8 0 0 0-1.605-.817c-1.085-.403-2.21-.595-3.315-.646-1.106-.056-2.196.028-3.266.185a20.16 20.16 0 0 0-1.59.307l-.786.2a.414.414 0 0 1-.033.01c-.42-.607-.873-1.096-1.383-1.587a13.843 13.843 0 0 0-2.233-1.732 16.5 16.5 0 0 0-2.48-1.284c-.853-.372-1.734-.64-2.618-.898-.893-.195-1.784-.442-2.69-.536l-1.355-.18-1.378-.08c-.94-.083-1.79-.032-2.673-.03l-.693.014-.685.056c-.46.024-.914.092-1.37.155A19.892 19.892 0 0 0 87.88 8.836a22.057 22.057 0 0 0-3.757 4.062c-.537.743-1.03 1.598-1.477 2.4-.063.115-.118.246-.18.365a19.133 19.133 0 0 0-.447-1.055c-.5-1.054-1.058-2.25-1.735-3.247-.345-.505-.688-.968-1.173-1.476-.24-.275-.427-.402-.643-.61a4.727 4.727 0 0 0-.95-.598c-1.17-.553-2.284-.837-3.413-1.127-2.25-.547-4.494-.93-6.745-1.268-1.35-.2-2.7-.377-4.053-.542.434-.3.878-.577 1.334-.828.65-.306 1.303-.62 1.99-.784.327-.112.712-.144 1.01-.213l1.196-.123c.805-.09 1.522-.13 2.305-.144a25.958 25.958 0 0 1 2.317.05c.767.08 1.538.16 2.294.328.758.163 1.508.372 2.237.66.72.302 1.426.67 2.045 1.19-.448-.682-1.09-1.228-1.77-1.694-.688-.457-1.42-.875-2.2-1.17a15.49 15.49 0 0 0-2.39-.735c-.814-.163-1.637-.315-2.466-.378-.817-.07-1.707-.11-2.5-.1l-1.203.03c-.49.057-.913.07-1.358.178-.888.154-1.723.47-2.528.826-.784.388-1.55.81-2.246 1.313-1.418.977-2.65 2.146-3.763 3.39a33.93 33.93 0 0 0-3.035 3.927c-.903 1.377-1.762 2.758-2.497 4.22-.454.907-.746 1.785-1.137 2.694-.36-.51-.782-.867-1.22-1.323a11.67 11.67 0 0 0-1.49-1.238 10.82 10.82 0 0 0-1.704-.95l-.912-.35-.943-.252c-.63-.12-1.38-.246-1.924-.24l-.44-.016-.22-.01c-.19.004-.197.017-.305.024l-1.007.116c-.335.04-.64.17-.962.253-.32.09-.637.185-.922.335l-.88.41c-.278.158-.543.332-.815.497-.557.315-1.016.734-1.523 1.104-.46.41-.94.81-1.365 1.248-.432.436-.86.874-1.25 1.34a31.337 31.337 0 0 0-2.228 2.865c-.232.33-.447.67-.665 1.006-.033-.108-.06-.217-.1-.322l-.496-1.267a8.146 8.146 0 0 0-.58-1.232 38.67 38.67 0 0 0-.654-1.2l-.77-1.135a8.674 8.674 0 0 0-.848-1.076c-.307-.34-.583-.704-.914-1.02l-1.004-.93a25.52 25.52 0 0 0-1.074-.845c-.352-.284-.76-.498-1.135-.747-.373-.256-.787-.444-1.188-.65-.396-.21-.816-.377-1.23-.544-.413-.172-.85-.29-1.27-.43-.868-.21-1.733-.416-2.617-.426.808.342 1.574.724 2.303 1.166.357.235.728.432 1.07.684.34.25.697.462 1.018.734.327.262.662.503.967.785s.637.525.913.835c.123.13.25.256.377.38-.72.026-1.44.094-2.137.263-1.596.357-3.078 1.06-4.405 1.933a19.697 19.697 0 0 0-3.554 3.088 24.11 24.11 0 0 0-1.485 1.802c-.095.128-.184.262-.278.392-.844-1.53-2-2.835-3.232-3.967a24.732 24.732 0 0 0-2.678-2.11c-.468-.322-.944-.63-1.43-.92-.097-.06-.195-.114-.293-.17.223-.25.455-.49.653-.76.474-.61.913-1.258 1.275-1.952.37-.688.68-1.414.907-2.167.12-.373.22-.753.3-1.138.07-.387.148-.77.184-1.16.1-.775.11-1.56.047-2.332-.053-.77-.196-1.53-.39-2.266a11.425 11.425 0 0 0-.805-2.116C5.26 1.71 4.89 1.06 4.405.5c.515 1.374.772 2.794.854 4.186a13.234 13.234 0 0 1-.386 4.066c-.122.47-.277.93-.446 1.38L.06 10 0 12l3.52.106c-.06.112-.116.228-.18.34-.167.29-.33.582-.518.862-.175.287-.373.562-.56.845l-.59.836c-.207.27-.424.54-.62.825L.206 17.04l1.14.36c.43.215.906.484 1.35.75.45.27.894.556 1.327.853a22.944 22.944 0 0 1 2.462 1.94c1.527 1.396 2.842 3.038 3.473 4.88l.716 2.095 1.103-1.933c.153-.27.356-.586.55-.876a22.576 22.576 0 0 1 1.978-2.52 17.756 17.756 0 0 1 2.923-2.583c3.572.786 7.062 1.83 10.398 3.094l.27.6c.185.367.3.766.455 1.15.14.39.295.773.46 1.158l.977 2.268.874-2.058c.257-.473.56-.976.858-1.456.01-.016.02-.03.03-.048 12.83 5.755 20.02 13.634 22.057 16.102a137.234 137.234 0 0 0-4.262 4.27c-1.364 1.363-2.63 2.793-3.9 4.19-1.288 1.38-2.48 2.813-3.672 4.206-2.375 2.793-4.56 5.586-6.586 8.26-2.04 2.685-3.8 5.29-5.637 7.453a49.346 49.346 0 0 1-5.44 5.574 40.13 40.13 0 0 1-4.852 3.583c-2.856 1.776-4.73 2.396-4.73 2.396s.486-.06 1.38-.284c.888-.232 2.18-.646 3.75-1.368a31.28 31.28 0 0 0 5.37-3.172c1.954-1.418 3.997-3.248 5.99-5.455 1.013-1.083 1.962-2.33 2.937-3.57l2.922-3.874c2.032-2.63 4.217-5.365 6.59-8.1 1.19-1.363 2.38-2.768 3.665-4.117 1.267-1.366 2.53-2.765 3.89-4.094 2.645-2.726 5.467-5.36 8.343-7.93l4.382-3.762 4.487-3.562c1.472-1.198 3.052-2.227 4.547-3.33.755-.543 1.506-1.082 2.252-1.616.76-.514 1.535-.99 2.293-1.48 1.52-.973 3.018-1.93 4.483-2.865l4.437-2.5 2.133-1.2c.703-.39 1.425-.716 2.12-1.068l4.04-1.997c.652-.31 1.273-.653 1.91-.92l1.87-.78 3.452-1.44c2.145-.962 4.105-1.562 5.696-2.122 2.332-.808 3.922-1.358 4.614-1.6.234.13.47.256.695.398.455.285.88.607 1.29.946L110.45 11.3c-1.584.57-3.423 1.457-5.56 2.416-2.154.92-4.487 2.16-7.05 3.48-1.294.634-2.59 1.393-3.935 2.168-1.34.784-2.757 1.546-4.146 2.436-1.392.886-2.824 1.795-4.286 2.724-1.448.952-2.89 1.98-4.375 2.998-1.5.997-2.935 2.137-4.43 3.23-1.502 1.085-2.96 2.267-4.436 3.444-1.493 1.16-2.943 2.396-4.398 3.636-1.47 1.224-2.883 2.524-4.31 3.81a181.017 181.017 0 0 0-8.22 7.975 138.232 138.232 0 0 0-7.422 8.255c-2.267 2.782-4.533 5.39-6.702 7.86l-6.137 6.938-9.217 10.366L22.364 87s1.377-1.33 3.737-3.71c1.19-1.18 2.592-2.653 4.218-4.327 1.627-1.673 3.43-3.59 5.38-5.7 1.95-2.105 4.068-4.387 6.247-6.854 2.184-2.462 4.48-5.08 6.76-7.85 2.302-2.75 4.773-5.47 7.41-8.154a179.46 179.46 0 0 1 8.212-7.882c1.424-1.27 2.834-2.556 4.3-3.764 1.447-1.232 2.885-2.462 4.367-3.615 1.467-1.17 2.913-2.346 4.403-3.426 1.485-1.087 2.91-2.22 4.397-3.212 1.475-1.01 2.905-2.033 4.34-2.98 1.452-.922 2.872-1.826 4.255-2.706 1.376-.888 2.785-1.635 4.106-2.43 1.33-.778 2.61-1.542 3.888-2.182 2.532-1.328 4.837-2.577 6.968-3.506 2.11-.968 3.93-1.864 5.496-2.44l4.06-1.625c.495.492.956 1.072 1.225 1.55l.435.776.797-.273c.193-.066.442-.14.67-.204l.705-.18c.474-.112.953-.203 1.433-.276.96-.142 1.926-.215 2.87-.165.624.028 1.227.132 1.814.273l-3.455.892c-1.83.5-4.014 1.25-6.54 2.033-1.25.43-2.56.95-3.95 1.466l-2.136.805c-.726.283-1.448.622-2.197.94-1.484.67-3.066 1.292-4.638 2.074-1.57.786-3.19 1.6-4.86 2.437l-5.003 2.817c-1.664 1.033-3.363 2.09-5.09 3.165-1.68 1.148-3.388 2.316-5.116 3.5-1.67 1.263-3.385 2.508-5.067 3.824-3.336 2.667-6.657 5.468-9.797 8.46l-2.362 2.237-2.283 2.307c-1.54 1.516-2.978 3.117-4.435 4.678-1.445 1.57-2.815 3.185-4.19 4.76-1.318 1.624-2.678 3.182-3.91 4.798-2.534 3.178-4.838 6.36-6.975 9.41a164.143 164.143 0 0 0-5.7 8.81c-1.702 2.767-3.153 5.37-4.39 7.7-1.216 2.343-2.27 4.387-3.052 6.112-1.605 3.433-2.35 5.466-2.35 5.466s.915-1.96 2.71-5.286c.898-1.66 1.994-3.674 3.31-5.948 1.347-2.26 2.84-4.82 4.575-7.548 1.713-2.742 3.684-5.638 5.788-8.685 2.14-3.022 4.443-6.176 6.975-9.324 1.233-1.6 2.59-3.142 3.907-4.75 1.374-1.56 2.742-3.157 4.184-4.71 1.454-1.543 2.888-3.127 4.424-4.625l2.276-2.28 2.353-2.208c3.134-2.95 6.43-5.72 9.73-8.376 1.665-1.308 3.364-2.544 5.018-3.8l5.064-3.476 5.04-3.143 4.95-2.796 4.806-2.43c1.55-.787 3.11-1.415 4.575-2.09.74-.322 1.452-.664 2.168-.95.72-.28 1.424-.55 2.11-.815 1.374-.52 2.665-1.05 3.9-1.484 2.498-.794 4.656-1.557 6.467-2.067 2.254-.6 3.906-1.04 4.84-1.29.52.283.993.633 1.396 1.058l1.38 1.453.337-1.985c.07-.4.187-.87.317-1.312a122.56 122.56 0 0 1 15.674-2.237c.176.176.362.345.53.53.323.366.66.79.89 1.14l.887 1.36.845-1.407c.367-.615.967-1.32 1.578-1.908 1.71-.068 3.442-.11 5.167-.11 9.97 0 19.858 1.065 29.418 3.145.388.39.763.79 1.106 1.214.42.517.836 1.106 1.15 1.658a116.068 116.068 0 0 0-4.816-1.003l-1.845-.363-1.866-.257-3.74-.514c-1.246-.2-2.506-.288-3.766-.38l-3.784-.293c-1.26-.13-2.535-.12-3.806-.146l-3.82-.066c-1.277-.053-2.536.028-3.8.077l-3.79.16c-10.166.66-20.24 2.28-29.87 5.05-9.625 2.754-18.756 6.665-26.978 11.5-8.233 4.822-15.547 10.545-21.806 16.64A122.345 122.345 0 0 0 57.73 64.6a138.394 138.394 0 0 0-10.34 18.023c-2.652 5.595-4.592 10.64-5.975 14.86-1.368 4.227-2.232 7.61-2.72 9.936-.51 2.32-.665 3.58-.665 3.58s.3-1.23.955-3.508c.68-2.27 1.695-5.592 3.23-9.73 1.525-4.142 3.516-9.12 6.2-14.647a137.225 137.225 0 0 1 10.288-17.85 121.243 121.243 0 0 1 15.67-18.63c6.206-6.02 13.45-11.664 21.598-16.416 8.14-4.764 17.173-8.61 26.7-11.317 9.522-2.72 19.537-4.304 29.56-4.943l3.79-.167c1.264-.054 2.53-.137 3.78-.085l3.757.057c1.252.023 2.502.01 3.752.136l3.743.28c1.248.09 2.494.17 3.727.367l3.7.5 1.847.248 1.825.354c1.944.352 3.87.766 5.78 1.213l.35.763.363-.598a118.716 118.716 0 0 1 21.197 7.272c8.592 3.9 16.453 8.646 23.346 13.88a137.936 137.936 0 0 1 18.06 16.362 137.532 137.532 0 0 1 12.838 16.12 118.717 118.717 0 0 1 8.118 13.657c1.98 3.937 3.23 7.183 3.87 9.452.192.562.256 1.08.36 1.518.105.44.176.812.185 1.117.05.61.078.925.078.925l-.003-.93c.016-.31-.02-.69-.095-1.14-.078-.445-.11-.98-.27-1.554-.475-2.34-1.583-5.677-3.44-9.72-1.835-4.052-4.493-8.77-7.917-13.93a138.27 138.27 0 0 0-12.9-16.28A138.902 138.902 0 0 0 233.9 37.234c-6.94-5.3-14.866-10.112-23.54-14.074a119.992 119.992 0 0 0-20.99-7.307c.41-.664.885-1.324 1.38-1.974.837.235 2.265.64 4.204 1.184 1.58.524 3.512 1.103 5.697 1.875 1.09.396 2.25.82 3.472 1.266 1.22.452 2.477.994 3.803 1.523 1.33.515 2.676 1.147 4.084 1.77 1.413.608 2.845 1.3 4.315 2.017 1.482.692 2.97 1.476 4.486 2.277 1.536.776 3.05 1.662 4.606 2.537 1.564.86 3.09 1.848 4.668 2.785 1.555.98 3.116 1.99 4.678 3.025 3.098 2.11 6.213 4.307 9.21 6.66 1.525 1.142 2.98 2.375 4.464 3.556 1.443 1.235 2.91 2.426 4.303 3.684 2.83 2.463 5.505 5.01 8.063 7.506 5.082 5.027 9.584 9.96 13.332 14.283 1.857 2.175 3.57 4.164 5.05 5.96l3.83 4.656c2.11 2.594 3.35 4.05 3.35 4.05l-3.105-4.24c-1.988-2.69-4.852-6.523-8.52-10.94a253.01 253.01 0 0 0-6.07-7.007c-2.235-2.418-4.622-4.938-7.176-7.463-2.563-2.515-5.244-5.084-8.082-7.568-1.396-1.27-2.87-2.473-4.315-3.717-1.49-1.193-2.95-2.438-4.48-3.593-3.007-2.376-6.138-4.595-9.248-6.73a238.565 238.565 0 0 0-4.7-3.06c-1.59-.948-3.12-1.948-4.694-2.818-1.564-.886-3.088-1.782-4.63-2.57-1.528-.812-3.024-1.604-4.517-2.308-1.48-.726-2.92-1.433-4.35-2.04-1.42-.62-2.78-1.248-4.128-1.76-1.34-.524-2.61-1.062-3.842-1.51l-3.506-1.253c-2.21-.763-4.175-1.336-5.773-1.854l-3.813-1.046a26.72 26.72 0 0 1 2.534-2.685c.152-.14.31-.273.467-.41.79.26 2.122.692 3.928 1.28 1.52.48 3.295 1.202 5.37 1.954 1.04.363 2.117.84 3.263 1.31 1.14.486 2.355.957 3.593 1.52 1.236.57 2.523 1.16 3.854 1.774 1.332.614 2.674 1.318 4.072 2.005 1.404.673 2.803 1.453 4.244 2.227 1.45.76 2.898 1.592 4.365 2.45 1.48.837 2.96 1.732 4.445 2.66 1.498.903 2.985 1.866 4.48 2.846 2.993 1.945 5.978 4.016 8.938 6.116 2.95 2.117 5.868 4.28 8.713 6.452l8.333 6.413 4.006 3.04 3.89 2.854a201.527 201.527 0 0 0 7.3 4.97 105.168 105.168 0 0 0 6.382 3.88c1.94 1.084 3.65 1.998 5.107 2.656 1.444.677 2.606 1.153 3.415 1.436.807.285 1.25.393 1.25.393s-1.725-.607-4.507-2.143a103.756 103.756 0 0 1-4.948-2.885c-.938-.586-1.936-1.21-2.967-1.9-1.047-.665-2.13-1.394-3.26-2.153-2.26-1.518-4.648-3.25-7.18-5.073l-3.855-2.86c-1.3-.998-2.63-2.018-3.98-3.056-2.695-2.096-5.477-4.262-8.304-6.463a368.67 368.67 0 0 0-8.705-6.52c-2.962-2.128-5.948-4.226-8.967-6.172-1.504-.984-3-1.95-4.51-2.86a118.167 118.167 0 0 0-4.473-2.67c-1.48-.864-2.94-1.7-4.398-2.465-1.452-.777-2.86-1.562-4.276-2.24-1.41-.688-2.76-1.403-4.106-2.01l-3.896-1.754c-1.25-.56-2.48-1.023-3.633-1.502-1.157-.466-2.243-.936-3.3-1.297-2.1-.74-3.916-1.46-5.437-1.926-1.403-.444-2.517-.797-3.32-1.053a18.61 18.61 0 0 1 1.696-1.166l-.005.017s1.7.47 4.677 1.29c.74.212 1.58.406 2.458.683l2.838.903c1.012.327 2.092.653 3.223 1.037l3.534 1.3 1.885.693 1.926.796c1.303.547 2.667 1.074 4.04 1.685 1.36.632 2.76 1.28 4.19 1.943 1.417.694 2.837 1.454 4.294 2.198 1.453.76 2.88 1.618 4.35 2.44 1.455.85 2.888 1.777 4.354 2.675 2.87 1.893 5.773 3.84 8.55 5.974 2.8 2.103 5.51 4.32 8.187 6.54a136.253 136.253 0 0 0 4.067 3.254c1.36 1.026 2.7 2.04 4.018 3.036 2.637 2.003 5.225 3.92 7.79 5.6 2.55 1.697 5.095 3.13 7.535 4.27 2.466 1.092 4.815 1.893 6.948 2.38 1.076.208 2.078.412 3.016.52.943.064 1.8.184 2.583.184.778 0 1.474.003 2.078.003.603-.025 1.114-.087 1.526-.125l1.267-.123s-.44-.02-1.27-.053l-1.517-.06-2.035-.224c-.76-.082-1.587-.29-2.49-.45a50.68 50.68 0 0 1-2.868-.754 42.414 42.414 0 0 1-6.527-2.746c-4.62-2.405-9.518-6.076-14.74-10.116-.232-.18-.475-.366-.708-.548 3.058-3.098 14.067-13.91 23.007-18.437l3.69.462.994.123.126-1.024a10.96 10.96 0 0 1 .403-1.8 13.8 13.8 0 0 1 .692-1.768l.448-.832.518-.785c.177-.258.39-.486.582-.73.136-.19.308-.35.476-.51 1.973.672 7.316 2.72 9.855 6.64l.99 1.65.064-3.37c-2.237-3.332-6.542-5.395-9.056-6.37M19.897 18.586a9.77 9.77 0 0 1 1.336-.414c.657-.162 1.33-.22 2.002-.23a7.89 7.89 0 0 1 1.007.052 3.8 3.8 0 0 1 .487.062c.074.1.147.203.223.3.253.32.478.657.684 1.01l.652 1.03c.018.034.037.067.055.103a76.763 76.763 0 0 0-6.444-1.913M50.03 20h.07c-.023.04-.044.08-.07.12V20zm7.703 16.957c-.896.816-1.783 1.642-2.665 2.472-2.248-2.732-9.43-10.522-22.38-16.398a29.007 29.007 0 0 1 1.87-2.39c.365-.433.757-.834 1.152-1.233.14-.147.29-.28.438-.417 9.294 4.788 19.08 14.9 21.778 17.796-.064.054-.128.11-.193.167m4.422-3.856c-1.168.994-2.32 2.013-3.477 3.028-2.676-2.872-12.382-12.907-21.735-17.848.442-.318.855-.7 1.324-.958l.688-.423.716-.332c.236-.128.483-.195.728-.265.246-.06.49-.174.737-.196l.742-.084c.038-.01.176-.02.133-.023l.22.008.44.016c.632 0 1.042.11 1.562.193l.76.2.73.283c.475.216.935.465 1.367.763.432.297.832.64 1.213 1.007.365.384.723.778 1.024 1.22.302.417.598.918.78 1.317l.955 2.116.886-2.1c4.46 4.13 9.21 9.332 11.065 11.4l-.858.678m4.57-3.61L63.8 31.8c-1.865-2.086-6.764-7.47-11.378-11.708.2-.387.406-.775.608-1.16.37-.694.755-1.38 1.153-2.056a86 86 0 0 1 1.006-1.66c3.976 3.262 10.29 10.774 12.537 13.5-.337.253-.674.51-1.003.775m4.63-3.377c-.922.68-1.875 1.332-2.817 2.01-2.254-2.74-8.692-10.42-12.81-13.756.315-.49.63-.982.957-1.46.855-1.237 1.76-2.447 2.73-3.572 4.388 3.927 10.856 13.3 12.794 16.17l-.853.608m4.63-3.138c-.772.498-1.562.982-2.336 1.503-.208.147-.42.298-.626.446-1.976-2.935-8.42-12.287-12.94-16.333.346-.373.7-.736 1.066-1.084 1.97.214 3.948.462 5.91.754.22.033.436.074.655.108l8.532 14.44-.262.167m4.568-2.903c-.854.544-1.742 1.106-2.617 1.663L70.288 8.79c1.124.206 2.24.434 3.334.7 1.054.265 2.14.562 3.01.98.2.09.43.245.492.284.19.185.462.394.582.555.293.31.637.747.924 1.176.59.87 1.11 1.83 1.578 2.814.463.982.895 2.018 1.25 3.02l.368 1.038c-.424.24-.844.474-1.273.714m26.232-11.946c-1.632.522-3.628 1.124-5.825 2.065-1.11.445-2.288.92-3.532 1.417l-1.912.768c-.653.263-1.29.6-1.957.908l-4.14 1.974c-.71.352-1.456.666-2.17 1.063l-2.174 1.218-1.808 1.014.084-.23c.26-.706.643-1.498 1.04-2.218a21.45 21.45 0 0 1 1.35-2.116 19.842 19.842 0 0 1 3.407-3.65 17.848 17.848 0 0 1 9.034-3.907c.824-.113 1.67-.19 2.496-.187.87-.003 1.776-.052 2.588.03l1.248.07 1.253.17c.84.084 1.648.314 2.467.49.352.103.703.21 1.05.324l-2.502.8m23.563 2.742c.057-.15.1-.305.163-.45.4-.918.89-1.792 1.513-2.52a6.196 6.196 0 0 1 2.186-1.7 5.885 5.885 0 0 1 2.71-.466c.104.007.27.007.323.02l.402.053.804.104c.477.123.94.183 1.423.348.485.14.96.304 1.42.506.468.185.912.425 1.354.662.44.247.864.52 1.274.812.245.18.475.38.71.573-4.817.412-9.603 1.1-14.282 2.06m25.182-2.537c-1.313 0-2.63.027-3.94.067.323-.244.654-.48.997-.698a17.29 17.29 0 0 1 5.045-2.138c1.79-.47 3.657-.665 5.53-.707.935-.014 1.876.018 2.815.086.935.073 1.89.186 2.803.32.973.15 1.898.32 2.81.52.92.21 1.84.438 2.742.714 1.804.547 3.566 1.224 5.222 2.092a22.418 22.418 0 0 1 3.91 2.553c-9.1-1.86-18.482-2.81-27.934-2.81m111.973 9.06c.144-.383.26-.786.437-1.146.156-.377.343-.727.548-1.06.194-.342.438-.633.675-.917.262-.255.514-.52.816-.684.27-.234.616-.28.92-.434l.513-.07c.168-.037.342-.053.525-.02l.543.04c.03 0 .13.01.1.003l.138.028c-1.717 1.39-3.537 3.033-5.357 4.785.05-.173.092-.35.143-.525m-49.556-9.04c.01.022.02.05.04.104a.96.96 0 0 1-.007.562c-.04.112-.03.082-.05.13-.025.046-.036.06-.048.078.076-.48.083-.745.065-.874m-1.827.81c.132.023.03.22 0 0m24.015 14.424c-1.498-.913-2.96-1.854-4.45-2.718-1.5-.834-2.958-1.707-4.44-2.477-1.488-.755-2.94-1.524-4.384-2.23-1.46-.67-2.887-1.328-4.276-1.968-1.4-.618-2.79-1.15-4.116-1.704l-1.97-.786-1.93-.676c-1.26-.44-2.464-.862-3.61-1.265-1.16-.372-2.275-.69-3.314-1.008l-2.916-.876c-.9-.266-1.73-.45-2.478-.644-.932-.23-1.722-.423-2.394-.59.074-.024.146-.055.22-.08a11.355 11.355 0 0 1 3.465-.564 28.68 28.68 0 0 1 3.688.262c2.45.324 4.858.963 7.045 2.008.545.262 1.074.552 1.57.87l.358.243.174.126.055.04c-.08-.057.17.157.458.194.338-.05.362.196.984-.438l.005-.034c.042-.033.097-.075.146-.105.11-.072.228-.145.35-.215 1-.566 2.15-.993 3.305-1.27 2.315-.563 4.768-.49 6.957.355a9.64 9.64 0 0 1 1.57.755l.826.49c.257.166.478.338.718.505.94.693 1.863 1.512 2.635 2.432a17.356 17.356 0 0 1 2.06 2.973c.573 1.045 1.075 2.218 1.366 3.287l.585 2.154 1.228-1.842.68-.816.73-.82c.494-.545.998-1.08 1.52-1.6l.062-.06c.104.002.2-.003.308 0 .33.016.658.026.988.06.197.017.395.042.59.064l-3.992 8.216c-.127-.08-.25-.166-.373-.248m2.045 1.376l4.37-8.993c.417.095.833.196 1.234.332.312.1.63.187.925.318.298.127.607.233.897.375l.86.44c.087.048.17.106.253.16-2.293 2.548-4.95 6.955-6.15 9.028a176.49 176.49 0 0 0-2.39-1.66m3.207 2.252c1.18-2.037 3.932-6.614 6.184-9.066.16.118.317.243.47.373.235.21.508.384.707.63l.645.69c.197.245.365.514.55.767l.274.386.213.424.093.184c-1.96 2.188-4.737 6.433-5.805 8.102a104.85 104.85 0 0 0-3.33-2.49m4.116 3.114c.97-1.52 3.622-5.584 5.504-7.776l.258.507.797-.226c.76-.216 1.58-.407 2.38-.57a29.315 29.315 0 0 1 2.42-.398c.807-.092 1.614-.165 2.4-.154.1 0 .19.013.288.016-4.745 4.9-8.915 9.755-10.405 11.513a170.54 170.54 0 0 0-3.64-2.91m7.468 6.115a350.73 350.73 0 0 0-3.062-2.564c1.544-1.82 5.98-6.98 10.932-12.05.23.04.452.084.672.134l1.17.262.095-1.162c.03-.38.083-.817.15-1.228.008-.044.02-.087.026-.13 2.376-2.34 4.79-4.554 6.995-6.28l.32.1c.37.1.74.28 1.095.433l.51.27.467.315c.29.227.553.473.772.744.21.275.386.567.503.88.11.282.176.7.168.858l-.082 1.603 1.47-.585a9.3 9.3 0 0 1 1.153-.374c.148-.04.296-.068.443-.097-8.237 5.9-19.832 17.192-22.57 19.892-.408-.34-.813-.674-1.225-1.02m5.638 4.536l-1.68-1.3a105.55 105.55 0 0 1-1.962-1.573c2.998-2.953 15.496-15.105 23.614-20.584.12.04.255.065.328.132.112.048.18.13.254.2.062.09.125.18.173.303.03.157.084.214.123.48l.24 1.323.202 1.315.08.648c.022.198.043.456.047.572l.02.736c-8.956 5.28-18.784 15.037-21.44 17.748m-5.95 26.597L255 65.004c-.557-.868-1.113-1.75-1.736-2.573l-1.834-2.544-.932-1.29-.486-.668-.52-.627c-1.403-1.664-2.785-3.398-4.272-5.08-1.586-1.592-3.175-3.232-4.826-4.85-6.785-6.293-14.967-11.763-24.004-16.17-9.04-4.414-18.918-7.8-29.194-10.147-5.152-1.107-10.386-2.07-15.698-2.61-2.643-.34-5.334-.48-8.02-.666-1.336-.065-2.655-.074-3.984-.113-.678-.008-1.294-.052-2.023-.03l-2.013.045c-2.687.002-5.36.264-8.034.44l-3.99.46c-1.333.132-2.653.34-3.97.565-5.29.76-10.46 2.053-15.553 3.422-10.125 2.975-19.733 7.138-28.345 12.333-8.63 5.192-16.194 11.39-22.508 18.184L71.85 54.33l-1.088 1.298c-.724.86-1.44 1.718-2.153 2.567l-1.066 1.27-.528.63-.507.704-1.91 2.67c-.63.885-1.256 1.76-1.875 2.628-.568.903-1.098 1.82-1.64 2.715-1.067 1.803-2.185 3.533-3.02 5.37-3.69 7.16-6.12 14.204-7.485 20.6-1.37 6.4-1.815 12.116-1.783 16.796.01 4.686.47 8.346.916 10.806.212 1.232.405 2.17.572 2.796l.247.945-.124-.97a79.792 79.792 0 0 1-.264-2.825c-.19-2.474-.286-6.12-.06-10.724.26-4.603.844-10.18 2.272-16.426.156-.706.33-1.423.512-2.145 1.69 1.876 5.156 5.48 10.36 9.795-.054.386-.132 1-.214 1.82a83.768 83.768 0 0 0-.398 5.983 88.94 88.94 0 0 0 .088 8.475c.166 3.098.478 6.4 1.064 9.665.27 1.635.618 3.258 1 4.844a60.97 60.97 0 0 0 1.308 4.61l.782 2.153.844 2.023c.305.645.6 1.27.888 1.876l.917 1.708c.64 1.067 1.245 2.028 1.852 2.834.56.835 1.166 1.48 1.61 2.042.472.545.89.93 1.15 1.212.27.275.412.422.412.422l-.365-.464c-.232-.306-.597-.735-1.013-1.315-.392-.6-.928-1.28-1.41-2.15-.527-.84-1.024-1.844-1.573-2.928l-.78-1.73-.74-1.89c-.22-.658-.45-1.335-.685-2.027-.2-.702-.407-1.42-.617-2.15-.382-1.47-.755-2.99-1.048-4.56a67.447 67.447 0 0 1-.748-4.774c-.213-1.605-.33-3.224-.473-4.81a102.89 102.89 0 0 1-.25-4.68c-.058-1.52-.05-2.99-.058-4.386-.008-1.394.013-2.713.05-3.93.086-2.43.178-4.46.282-5.872l.035-.447a127.51 127.51 0 0 0 5.335 4.02c-.064.303-.136.664-.212 1.092-.24 1.35-.51 3.288-.644 5.628-.06 1.17-.082 2.438-.07 3.78l.063 2.06c.045.703.09 1.42.138 2.15.137 1.455.3 2.956.538 4.472.246 1.514.506 3.052.875 4.565.33 1.526.744 3.022 1.15 4.488.438 1.47.894 2.907 1.373 4.282.952 2.753 2.004 5.265 3.027 7.357 1.007 2.1 2 3.772 2.747 4.904.744 1.137 1.24 1.733 1.24 1.733s-.457-.628-1.125-1.804a43.525 43.525 0 0 1-1.136-2.154c-.407-.85-.87-1.803-1.324-2.866-.91-2.126-1.856-4.653-2.737-7.403-.437-1.378-.848-2.81-1.24-4.27-.38-1.475-.786-2.964-1.092-4.466-.35-1.496-.59-3.015-.82-4.508a70.843 70.843 0 0 1-.484-4.41l-.116-2.115-.04-2.026c0-1.318.033-2.563.102-3.71.12-2.296.358-4.197.58-5.514.038-.23.075-.435.11-.628a130.382 130.382 0 0 0 5.265 3.5c-.016.354-.03.798-.043 1.326-.013.71-.018 1.57-.002 2.556.022.986.05 2.1.15 3.31.064 1.21.215 2.517.354 3.9.166 1.378.365 2.83.605 4.326.28 1.49.51 3.04.89 4.585l.527 2.344c.216.774.432 1.553.65 2.33.41 1.564.953 3.088 1.47 4.59.476 1.518 1.123 2.947 1.675 4.355.53 1.417 1.216 2.714 1.797 3.972.3.623.575 1.24.876 1.816l.917 1.648c.593 1.054 1.113 2.032 1.643 2.858l1.404 2.117 1.222 1.843-1.13-1.9-1.295-2.178c-.49-.847-.948-1.854-1.516-2.913a754.73 754.73 0 0 0-.862-1.665c-.28-.583-.536-1.204-.817-1.832-.54-1.268-1.18-2.57-1.666-3.995-.506-1.412-1.105-2.846-1.533-4.364-.465-1.503-.957-3.025-1.32-4.585l-.6-2.318-.502-2.322c-.363-1.532-.578-3.067-.843-4.542a108.8 108.8 0 0 1-.563-4.282c-.126-1.366-.265-2.657-.318-3.854a85.397 85.397 0 0 1-.183-5.78l.012-.723c2.074 1.282 4.27 2.56 6.59 3.812-.05.357-.1.81-.16 1.35-.054.714-.15 1.58-.174 2.575l-.047 1.584.033 1.755c.015 1.223.133 2.544.236 3.94.175 1.39.308 2.864.612 4.362l.42 2.287c.182.764.368 1.536.555 2.316.324 1.572.902 3.1 1.362 4.66.5 1.547 1.145 3.044 1.7 4.543.64 1.467 1.326 2.883 1.964 4.265.7 1.35 1.45 2.618 2.122 3.838l.505.897c.187.282.37.56.55.835.36.548.71 1.075 1.044 1.583.683 1.006 1.256 1.96 1.892 2.72l1.57 2.013 1.366 1.752s-.464-.66-1.276-1.82c-.406-.576-.898-1.278-1.463-2.083-.596-.782-1.11-1.772-1.75-2.797l-.978-1.61c-.17-.278-.34-.562-.515-.85l-.468-.908c-.62-1.236-1.318-2.518-1.96-3.88-.59-1.387-1.24-2.802-1.83-4.266-.513-1.496-1.112-2.987-1.567-4.525-.42-1.548-.932-3.07-1.242-4.618-.174-.77-.348-1.53-.52-2.285-.13-.76-.26-1.513-.385-2.253-.288-1.476-.384-2.926-.564-4.29-.105-1.37-.227-2.665-.246-3.864l-.038-1.72.022-1.55c.002-.976.078-1.82.114-2.517.03-.347.06-.656.085-.925a132.672 132.672 0 0 0 6.813 3.365c-.05.384-.096.887-.152 1.516-.04.726-.113 1.608-.11 2.62l.008 1.61.093 1.78c.047 1.244.237 2.58.385 3.995.248 1.4.41 2.897.792 4.404l.525 2.304c.23.765.464 1.538.7 2.317.42 1.576 1.09 3.094 1.652 4.646.596 1.54 1.36 3.01 2.02 4.493.75 1.44 1.558 2.82 2.3 4.175.812 1.314 1.67 2.54 2.443 3.724l.582.87c.21.27.42.535.626.797l1.192 1.512c.78.956 1.435 1.88 2.15 2.586.685.732 1.28 1.37 1.773 1.895l1.542 1.648-1.478-1.705-1.695-1.956c-.686-.73-1.305-1.68-2.045-2.658-.366-.492-.747-1.007-1.14-1.538-.2-.266-.4-.535-.604-.81l-.556-.878c-.738-1.197-1.558-2.433-2.328-3.757-.702-1.363-1.467-2.75-2.172-4.192-.616-1.484-1.334-2.954-1.883-4.49-.515-1.547-1.135-3.058-1.51-4.62l-.63-2.297-.49-2.27c-.366-1.483-.515-2.955-.75-4.332-.135-1.39-.313-2.702-.35-3.92-.027-.61-.053-1.192-.08-1.747l.005-1.575c-.014-.99.042-1.85.07-2.557.033-.45.06-.83.09-1.148a133.98 133.98 0 0 0 6.25 2.617c-.034.41-.078 1.066-.094 1.928-.024 1.52-.026 3.697.26 6.285.128 1.295.317 2.692.565 4.163.238 1.474.596 3.008 1 4.586.41 1.574.914 3.183 1.506 4.788.567 1.614 1.273 3.207 2.03 4.77.37.786.8 1.545 1.195 2.312.434.748.86 1.498 1.306 2.225a50.946 50.946 0 0 0 2.862 4.112 48.422 48.422 0 0 0 3.086 3.51l1.536 1.518c.52.463 1.024.91 1.508 1.338.98.84 1.93 1.545 2.774 2.16.87.582 1.6 1.122 2.244 1.506 1.287.76 2.022 1.192 2.022 1.192l-1.854-1.432c-.595-.445-1.262-1.058-2.054-1.718a65.244 65.244 0 0 1-2.507-2.384l-1.367-1.42-1.378-1.594a47.592 47.592 0 0 1-2.717-3.628 48.838 48.838 0 0 1-2.555-4.1c-.396-.72-.767-1.463-1.148-2.2-.342-.76-.717-1.506-1.035-2.277a62.78 62.78 0 0 1-1.757-4.656c-.53-1.554-.95-3.114-1.343-4.628-.38-1.517-.676-3-.944-4.41a59.304 59.304 0 0 1-.606-3.996c-.28-2.49-.434-4.573-.466-6.03-.012-.45-.02-.827-.022-1.146 13.35 4.943 29.33 8.426 47.884 8.426 1.94 0 3.914-.038 5.91-.117 14.867-.585 28.26-3.59 40.018-7.79.006.325.008.706.004 1.153a50.96 50.96 0 0 1-.4 6.396 54.626 54.626 0 0 1-.63 4.235c-.265 1.496-.653 3.05-1.083 4.647-.48 1.582-.972 3.22-1.61 4.833-.602 1.628-1.353 3.223-2.128 4.803-.813 1.56-1.673 3.102-2.644 4.54a36.062 36.062 0 0 1-1.476 2.112c-.252.344-.5.686-.75 1.025l-.79.968c-.263.32-.523.64-.78.954-.273.302-.542.602-.81.897a26.08 26.08 0 0 1-1.6 1.712c-1.06 1.097-2.13 2.068-3.12 2.972-1.036.843-1.946 1.685-2.833 2.325-.873.657-1.605 1.288-2.27 1.715-.653.443-1.16.803-1.506 1.056-.347.25-.53.384-.53.384l.596-.263c.394-.168.964-.425 1.686-.766.737-.315 1.564-.816 2.557-1.33.986-.527 2.02-1.247 3.183-1.992 1.1-.827 2.336-1.682 3.51-2.75.612-.506 1.2-1.07 1.798-1.653.3-.293.6-.588.906-.885l.863-.958c.29-.32.585-.648.88-.976.276-.342.558-.687.838-1.035.58-.684 1.102-1.426 1.625-2.174 1.06-1.487 2.01-3.086 2.91-4.71a48.69 48.69 0 0 0 2.31-5.032c.695-1.69 1.22-3.413 1.687-5.085.432-1.683.815-3.318 1.072-4.888.276-1.565.47-3.057.59-4.438a52.8 52.8 0 0 0 .123-6.698c-.043-.78-.1-1.4-.148-1.84 2.667-1 5.246-2.06 7.735-3.164l-.102 1.318c-.062.81-.14 1.795-.226 2.925-.046 1.133-.277 2.392-.485 3.77l-.33 2.146c-.125.74-.2 1.516-.417 2.284l-1.16 4.882c-.536 1.654-1.092 3.364-1.657 5.103-.707 1.68-1.396 3.407-2.153 5.1-.422.827-.845 1.653-1.265 2.478l-.63 1.233c-.222.402-.475.786-.708 1.18-.48.78-.95 1.554-1.418 2.318-.476.76-1.026 1.457-1.523 2.173-.972 1.45-2.082 2.72-3.086 3.968-.507.62-1.063 1.165-1.567 1.725-.513.553-1 1.094-1.52 1.564l-1.444 1.392-1.364 1.19c-.852.76-1.66 1.338-2.302 1.843-1.318.967-2.13 1.437-2.13 1.437s.83-.432 2.198-1.34c.668-.472 1.51-1.017 2.397-1.736.448-.354.927-.732 1.43-1.132l1.51-1.342c.538-.457 1.05-.985 1.586-1.524.525-.547 1.11-1.08 1.64-1.688 1.054-1.224 2.23-2.468 3.255-3.91.52-.713 1.094-1.407 1.592-2.168l1.492-2.32c.245-.392.51-.776.744-1.18l.67-1.237c.443-.828.892-1.658 1.34-2.49.816-1.697 1.536-3.445 2.268-5.152.593-1.76 1.175-3.494 1.737-5.172l1.204-4.957c.217-.784.29-1.57.416-2.324.112-.754.223-1.482.328-2.182.21-1.398.435-2.678.453-3.83l.173-2.967.105-1.85a145.31 145.31 0 0 0 6.945-3.374c-.03.38-.07.844-.117 1.395-.067.81-.15 1.79-.245 2.917l-.157 1.794c-.092.626-.188 1.284-.287 1.972a6688.39 6688.39 0 0 1-.64 4.445l-1.06 4.895c-.16.855-.41 1.702-.667 2.558-.25.858-.505 1.727-.762 2.602l-.39 1.316-.48 1.295c-.322.863-.643 1.73-.965 2.6-.287.884-.7 1.714-1.066 2.56-.375.845-.748 1.685-1.117 2.52l-1.266 2.395c-.42.79-.82 1.58-1.3 2.305l-1.356 2.173c-.447.707-.955 1.35-1.412 2.004-.896 1.323-1.914 2.44-2.783 3.53-.957 1.007-1.785 1.985-2.618 2.753-.797.81-1.556 1.442-2.167 1.98-.636.507-1.134.91-1.495 1.155-.353.258-.552.38-.552.38s.205-.113.567-.355c.375-.23.89-.61 1.55-1.092.638-.51 1.428-1.113 2.263-1.89.874-.735 1.75-1.678 2.736-2.678.904-1.072 1.96-2.174 2.9-3.483.478-.647 1.008-1.285 1.48-1.986.465-.706.94-1.427 1.425-2.16.507-.72.93-1.507 1.376-2.292.443-.79.893-1.588 1.346-2.393l1.196-2.518c.394-.848.833-1.68 1.146-2.564l1-2.627.498-1.307.404-1.33.788-2.627c.267-.865.526-1.72.695-2.584l1.105-4.946c.24-1.592.47-3.098.68-4.487.104-.696.203-1.362.3-1.996l.14-1.813c.085-1.137.157-2.13.22-2.947l.145-2.02a147.63 147.63 0 0 0 7.396-4.19l-.11 1.122c-.08.83-.18 1.84-.29 2.996-.08 1.162-.305 2.455-.52 3.868-.235 1.41-.423 2.95-.74 4.556-.35 1.602-.716 3.287-1.1 5.032-.43 1.733-.97 3.5-1.465 5.308-.545 1.794-1.23 3.573-1.846 5.377-.72 1.763-1.42 3.537-2.193 5.245-.84 1.676-1.57 3.378-2.487 4.913-.438.78-.87 1.547-1.29 2.298-.454.73-.903 1.443-1.337 2.14-.42.704-.875 1.36-1.324 1.987-.448.628-.862 1.25-1.293 1.82-.887 1.127-1.67 2.185-2.44 3.06-.736.904-1.448 1.63-2.014 2.25-1.172 1.197-1.904 1.817-1.904 1.817s.766-.58 2.003-1.718c.6-.59 1.353-1.282 2.14-2.15.822-.837 1.666-1.856 2.592-2.964.457-.56.896-1.17 1.37-1.787.478-.615.96-1.26 1.41-1.954l1.43-2.11c.46-.738.9-1.51 1.364-2.286.964-1.533 1.743-3.234 2.632-4.912.823-1.71 1.58-3.487 2.342-5.26.64-1.818 1.352-3.615 1.922-5.427.52-1.823 1.084-3.61 1.535-5.36.39-1.766.764-3.474 1.118-5.093.314-1.627.498-3.185.73-4.612.222-1.43.42-2.74.476-3.915l.234-3.03.145-1.87a152.344 152.344 0 0 0 8.142-5.385l-.095 1.393-.207 3.042c-.098 1.174-.338 2.482-.51 3.92l-.3 2.24c-.135.77-.312 1.557-.472 2.37-.34 1.625-.632 3.354-1.14 5.095-.476 1.747-.886 3.577-1.523 5.372l-.89 2.732c-.292.918-.68 1.806-1.016 2.712-.35.9-.697 1.804-1.047 2.7-.385.885-.77 1.765-1.148 2.638-.727 1.765-1.617 3.417-2.4 5.057a184.097 184.097 0 0 1-2.49 4.605c-.842 1.44-1.624 2.807-2.42 4.024a94.457 94.457 0 0 1-3.95 5.823c-1.01 1.368-1.64 2.11-1.64 2.11s.67-.708 1.75-2.023a83.935 83.935 0 0 0 1.908-2.41c.713-.95 1.52-2.02 2.328-3.238.847-1.195 1.683-2.54 2.58-3.957a105.536 105.536 0 0 0 2.643-4.564c.825-1.633 1.763-3.28 2.534-5.043.406-.872.812-1.752 1.222-2.635.387-.893.73-1.808 1.098-2.714.348-.912.75-1.806 1.053-2.73.313-.924.622-1.843.93-2.755.662-1.81 1.1-3.657 1.596-5.423.53-1.758.808-3.515 1.155-5.16.162-.824.34-1.624.474-2.403.103-.784.202-1.542.3-2.27.18-1.457.384-2.79.47-3.978.06-1.192.113-2.23.158-3.086.054-1.016.092-1.765.115-2.212.76-.55 1.508-1.097 2.23-1.638a153.517 153.517 0 0 0 4.503-3.516 105.262 105.262 0 0 1-.205 7.886c-.31 5.94-1.277 13.854-3.303 21.518-.53 1.907-1.092 3.808-1.748 5.64-.33.917-.64 1.832-.998 2.717-.333.895-.688 1.768-1.07 2.613-.355.858-.747 1.68-1.145 2.48-.376.81-.79 1.58-1.203 2.323-.4.752-.8 1.478-1.218 2.16-.404.693-.796 1.363-1.22 1.975-.796 1.263-1.627 2.345-2.35 3.322-.728.97-1.428 1.77-1.975 2.452-1.192 1.275-1.858 2.033-1.858 2.033s.774-.635 2.103-1.798c.62-.623 1.407-1.354 2.252-2.25.824-.913 1.74-1.96 2.653-3.176.48-.59.933-1.238 1.4-1.913.476-.665.958-1.364 1.394-2.12.457-.742.918-1.51 1.343-2.32.445-.8.887-1.627 1.293-2.487.43-.85.836-1.727 1.22-2.627a39.3 39.3 0 0 0 1.122-2.75c.715-1.865 1.332-3.798 1.916-5.74.55-1.95 1.066-3.912 1.484-5.86.44-1.947.788-3.88 1.07-5.757.566-3.754.873-7.286 1.046-10.316.142-3.032.127-5.562.087-7.337a58.15 58.15 0 0 0-.108-2.3c10.695-8.955 17.496-17.07 19.978-20.22 1.412 3.174 2.515 6.287 3.258 9.286 1.558 6.15 1.813 11.736 1.5 16.32-.3 4.59-.843 8.213-1.12 10.69-.164 1.235-.24 2.192-.3 2.834s-.098.963-.098.963l.853-3.727c.536-2.43 1.465-5.976 2.07-10.64a46.743 46.743 0 0 0-.914-16.947c-1.475-6.456-4.64-13.27-8.88-20.107m-17.79-18.556c1.608 1.57 3.16 3.164 4.708 4.707.16.18.307.363.464.543-3.012 4.984-21.278 33.292-54.59 46.567-.007-.1-.015-.198-.02-.292-.027-.43-.064-.952-.14-1.55 1.56-.41 6.89-2.095 8.895-6.456.103-.22.197-.43.293-.643.59.188 1.412.37 2.42.37 1.076 0 2.363-.206 3.795-.827 2.324-1.008 4.066-3.48 5.27-6.31 1.996-.073 7.44-.83 10.64-6.677 3.512-6.416 4.672-10.32 4.97-12.602a13.74 13.74 0 0 0 1.663-1.4l.442-.446-.207-.592c0-.002-.018-.06-.04-.143.66.143 1.28.215 1.848.215 2.343 0 3.91-1.075 4.893-2.15 3.05-3.34 3.1-9.603 1.4-13.49-1.92-4.39-5.36-5.067-7.764-4.693-.048-.99-.304-2.082-.77-3.27 4.286 2.8 8.263 5.85 11.83 9.14m-68.06 57.156c-4.786.86-9.8 1.393-15.052 1.51-6.998.156-13.6-.338-19.81-1.317.49-1.83-.212-4.038-.85-6.047-.384-1.212-.747-2.356-.82-3.28-.128-1.593 2.152-3.31 3.712-4.238.804 2.535 1.65 4.386 2.713 5.136 3.513 2.48 6.342 3.726 8.447 3.726.687 0 1.296-.133 1.827-.398 1.535-.768 3.272-2.44 4.498-3.76.2 1.054.576 2.088 1.264 2.922.85 1.03 2.02 1.6 3.48 1.69.06.005.124.007.188.007 2.67 0 6.243-3.402 9.05-7.215.915.53 2.437 1.645 2.35 3.155-.05.912-.288 1.858-.542 2.86-.408 1.622-.846 3.423-.455 5.25m-50.53-8.456c-.148-1.02-.288-1.986-.25-2.803.05-1.11 1.197-1.834 2.157-2.25-.063 3.815 1.566 5.025 3.75 6.635 1.61 1.188 4.135 1.437 5.97 1.437.457 0 .868-.016 1.215-.036l.07.226c.603 1.898 1.208 3.842.74 5.104-4.816-.854-9.387-2-13.71-3.37.56-1.457.297-3.28.057-4.942m-2.22-1.736c-2.198-.535-6.46-2.008-7.847-5.6-2.074-5.366-1.958-12.026.215-16.613 1.4.73 3.803 1.656 6.433 2.21-.012 2.665 1.21 5.127 3.736 7.495 1.45 1.358 2.135 2.856 1.757 6.99-1.365.437-4.2 1.66-4.322 4.36-.016.374.002.764.03 1.158m-9.712-4.878c.004.012.01.02.015.033-1.656.232-4.76.263-6.66-2.246-2.496-3.295-3.958-6.443-3.45-11.387.82.826 1.566 1.48 2.112 1.83l.61.394.563-.46c.23-.188 4.63-3.8 7.226-6.63-2.942 5.854-2.373 13.4-.416 18.466M87.034 69.787c1.606.187 3.5.338 5.73.436.867 1.716 2.294 3.682 3.738 5.375-.75 4.332-.24 7.545 1.053 10.36a5.88 5.88 0 0 1-3.353-2.188c-.936-1.23-2.125-2.204-3.275-3.146-1.79-1.466-3.334-2.73-3.272-4.462.078-2.187-.3-4.695-.62-6.375m7.284-.943c-.812-1.825-3.118-8.576 1.255-18.826 2.915-6.832 9.343-6.558 11.883-6.15-.005.732.124 1.454.334 2.113.26.705.562 1.363.948 1.9.367.557.78 1.01 1.17 1.412.8.783 1.554 1.292 2.102 1.615.102.06.188.104.275.15-.673 2.32-1.007 4.5-1.007 6.567 0 3.274-1.55 6.242-2.473 7.72-.81 1.297-.76 3.155-.48 4.714-1.405 1.94-5.38 5.434-7.453 7.17-1.807-1.513-5.268-5.488-6.555-8.384m30.577-27.383l.05.44.063.43.127.387c.088.257.18.512.308.72.46.906 1.055 1.563 1.628 2.152.58.583 1.17 1.048 1.718 1.47 1.114.817 2.092 1.38 2.783 1.767.332.18.598.31.79.405.024.15.03.297.06.45.55 2.978-.396 7.967-2.156 11.36-.277.534-.548 1.037-.807 1.518-1.417 2.632-2.536 4.71-2.3 7.524l.028.35.24.256c.076.078.836.862 2.145 1.805-7.978 4.715-17.557-.135-18.757-.792-.374-.92-1.14-3.97-.313-5.296 1.267-2.027 2.777-5.196 2.777-8.78 0-3.836 1.272-8.142 3.887-13.163 2.166-4.16 6.152-4.02 7.763-3.768l-.02.358-.012.158-.005.08-.002.115.007.054zm9.492 7.858c-.458-2.468-.506-5.76 3.21-9.35 2.792-2.694 6.816-1.487 10.366-.423.485.146.96.287 1.42.417 2.51.706 3.637 4.478 3.956 6.366-.622 4.312-.33 9.178-.184 11.002.317 3.9.272 10.14.253 11.832-2.457 2.088-7.882 5.19-14.198 4.84-5.275-.3-9.093-3.528-10.08-4.448-.06-2.057.852-3.75 2.09-6.048.262-.488.538-1.002.82-1.547 1.97-3.797 2.978-9.23 2.347-12.642m20.967-3.043c.252-1.604.63-3.02 1.17-4.066 1.596-3.084 3.75-5.937 8.795-5.937.537 0 1.076.03 1.662.096 6.908.753 7.046 9.284 7.046 10.255v.373c0 2.892.05 6.49 2.772 9.99 2.342 3.01 3.117 9.672.678 11.898-2.77 2.53-7.24 4.368-10.62 4.368l-.298-.004c-4.297-.14-10.627-2.472-11.155-3.762.017-1.137.087-8-.263-12.32-.272-3.35-.303-7.328.168-10.585l.087-.01-.043-.298m25.722-5.883l-.005-.18c-.003-.04.004.016-.006-.088 1.773-.114 5.12-.036 6.048 2.035 1.692 3.776 3.627 6.71 6.603 10.803 2.91 3.996 2.435 12.228 2.122 15.397-1.895.936-9.478 4.227-16.172.937 2.247-3.497 1.38-10.105-1.287-13.536-1.707-2.192-2.174-4.452-2.302-6.583.143-.075.3-.16.467-.27.715-.457 1.735-1.166 2.65-2.36.475-.58.886-1.298 1.227-2.096.31-.808.582-1.7.63-2.64.07-.47.024-.94.025-1.418m32.33 6.95c.395-.34.77-.787 1.115-1.347.287-.444.484-1.02.557-1.65 1.364-.35 4.526-.813 7.016 1.512 3.317 3.096 3.064 9.51 2.943 12.592l-.01.263c-.087 2.28.18 3.88.375 4.714-1.535 1.33-6.944 5.323-12.18 1.13.44-1.37.28-2.72-.1-5.81-.134-1.1-.298-2.438-.477-4.103-.202-1.89-.53-3.99-1.15-6.013a8.297 8.297 0 0 0 1.913-1.29m-.383-3.656l.003-.004v.004h-.003zM223.27 67.21c-.528 2.102-1.735 5.383-4.42 10.287-2.347 4.293-6.103 5.333-8.12 5.573a28.266 28.266 0 0 0 1.04-4.402c.47-3.103 3.01-8.436 4.06-10.547a9.48 9.48 0 0 0 2.404.313c1.817 0 3.536-.506 5.037-1.222m-10.987-.833c.55.414 1.105.76 1.664 1.04-1.145 2.31-3.65 7.63-4.153 10.952-.68 4.477-2.813 9.903-5.894 11.238-2.065.894-3.686.71-4.602.455 2.086-4.805 2.953-7.787 2.855-9.738-.073-1.46.03-4.37.127-6.465l2.34 2.224.64-1.07c.257-.426 1.466-1.848 2.636-3.224 1.954-2.298 3.504-4.143 4.387-5.413m-1.16-1.925c-.47 1.008-2.943 3.918-4.75 6.042a137.558 137.558 0 0 0-2.097 2.504L197.963 67c.297-4.288.248-11.264-2.623-15.213-1.535-2.108-2.777-3.897-3.853-5.65a11.63 11.63 0 0 0 1.565-1.063 10.38 10.38 0 0 0 2.142-2.29c.106-.165.207-.345.308-.522.803-.553 2.53-1.16 6.137-.646 5.34.763 8.122 4.847 9.02 13.24.182 1.68.346 3.027.48 4.134.437 3.544.51 4.334-.016 5.462m-55.96 7.472c2.89 1.97 8.564 3.236 11.334 3.325.12.003.24.005.36.005 1.812 0 3.835-.45 5.802-1.203-.01 2.853-.11 8.7-.736 12.014-.85 4.48-8.238 14.064-11.483 14.064-.03 0-.064 0-.096-.003-.898-.056-1.572-.372-2.062-.967-1.25-1.52-1.035-4.374-.885-5.53.324-2.49-1.5-16.338-2.234-21.706m.25 21.447c-.048.377-.09.83-.112 1.315-1.015 1.228-3.447 3.91-5.217 4.796-.657.33-2.774.677-8.226-3.173-1.273-.897-2.694-6.54-3.457-9.573-.348-1.382-.65-2.575-.917-3.414-.635-1.98-1.066-5.56-1.286-7.757a16.538 16.538 0 0 0 3.973.465c4.916 0 9.666-1.872 12.97-4.143 1.12 8.17 2.52 19.603 2.273 21.486m-23.13 3.835c.04.488.14 1 .27 1.52-1.704.052-4.17-.102-5.45-1.045-2.308-1.7-3.264-2.405-2.83-6.32.534-4.797-.07-7.24-2.31-9.34-1.976-1.854-2.988-3.728-3.09-5.7.89.113 1.838.188 2.835.188 3.07 0 6.532-.676 9.72-2.83.796.45 1.7.885 2.7 1.256.187 2.073.663 6.538 1.45 8.995.25.778.542 1.943.882 3.293.322 1.278.634 2.488.946 3.608-1.635.9-5.37 3.3-5.123 6.375m38.324-3.938c1.703-2.578 2.963-5.15 3.28-6.83.743-3.922.782-10.893.773-13.26a19.205 19.205 0 0 0 3.586-2.36c2.636 1.433 5.365 1.95 7.91 1.95.394 0 .778-.014 1.16-.035-.035 6.803-3.642 14.12-3.68 14.196l-.192.382.145.4c.01.032 1.09 3.165-.72 7.124-1.293 2.83-6.65 2.79-9.113 2.49-.3-2.013-2-3.366-3.15-4.057m2.6 8.15c.172-.684.342-1.384.46-2.094.56.062 1.42.132 2.43.132 2.95 0 7.136-.6 8.593-3.79.12-.26.2-.507.3-.76.15.015.317.05.5.15.474.258 1.13.954 1.567 2.8.275 1.154.332 2.077.38 2.818.02.33.042.634.08.916a96.173 96.173 0 0 1-14.747 4.215c-.31-1.384.05-2.85.436-4.387m13.173-8.156c-.272-.14-.532-.224-.782-.28.588-2.61.22-4.664 0-5.518.77-1.633 3.758-8.405 3.72-14.945 4.413-.677 7.715-2.513 7.957-2.65l.444-.252.007-.083 2.64 2.51c-.093 1.78-.31 6.33-.21 8.38.123 2.463-2.102 7.62-3.784 11.283-1.583 3.446-6.04 4.927-7.47 5.322-.512-1.892-1.358-3.165-2.524-3.768m41.083-47.7c.038-.098.057-.204.09-.305 1.265-.34 4.397-.698 6.187 3.394 1.456 3.332 1.385 8.682-1.044 11.342-1.354 1.48-3.245 1.853-5.615 1.126a18.8 18.8 0 0 1-.05-2.33l.01-.26c.1-2.535.28-7.124-1.316-10.83a4.555 4.555 0 0 0 1.74-2.136M91.84 39.882a103.413 103.413 0 0 1 4.858-3.09c8.465-5.048 17.908-9.086 27.86-11.956 5.004-1.317 10.083-2.562 15.277-3.283 1.292-.215 2.588-.412 3.894-.535l3.913-.432c1.41-.088 2.822-.192 4.233-.272-.05.48-.114 1.06-.163 1.716-.09.942-.17 2.074-.33 3.162a15.027 15.027 0 0 0-.217 1.97c-.024.688-.03 1.405.12 2.153.15.728.385 1.57 1.083 2.226.687.687 1.73.777 2.373.692a2.67 2.67 0 0 0 1.138-.38c.35-.222.62-.546.773-.87.303-.66.303-1.266.274-1.783-.1-1.04-.375-1.818-.56-2.363-.203-.54-.337-.837-.337-.837l.085.893c.05.558.12 1.38-.012 2.284-.055.443-.185.922-.43 1.236-.238.314-.55.422-.99.4-.547-.038-.864-.188-1.052-.477-.19-.28-.324-.752-.346-1.29-.063-1.09.157-2.302.383-3.436.26-1.304.318-2.438.37-3.43.044-.77.034-1.437.03-1.966.48-.016.96-.03 1.44-.034l1.97-.05c.6-.025 1.31.02 1.957.023 1.326.036 2.66.04 3.975.103 2.606.177 5.21.3 7.82.63 5.218.516 10.368 1.45 15.437 2.523 10.11 2.28 19.83 5.58 28.7 9.883a107.158 107.158 0 0 1 8.446 4.576c2.238 3.75 2.217 5.83 1.802 6.918-.21.552-.548.91-.85 1.14a8.843 8.843 0 0 0-1.304-1.536c-2.995-2.796-6.624-2.495-8.518-2.072a4.535 4.535 0 0 0-.226-.563 13.622 13.622 0 0 0-.918-1.68c-.658-1.03-1.328-1.988-1.904-2.907a31.165 31.165 0 0 1-.79-1.34c-.218-.438-.438-.85-.593-1.252-.175-.396-.284-.773-.407-1.11-.078-.342-.168-.646-.207-.9-.066-.51-.118-.818-.118-.818s-.075.288-.183.82c-.04.266-.05.59-.082.974.017.374-.004.817.08 1.277.11.94.424 2.003.853 3.08.425 1.078.98 2.168 1.487 3.215.24.522.502 1.033.66 1.507.106.26.125.43.18.58.03.072.045.266.066.39l.022.106.023.043-.062.07c-.022.622-.487 1.285-1.01 1.813a9.27 9.27 0 0 1-1.087.92c-1.5-3.4-4.11-6.238-8.81-6.91-2.47-.352-4.26-.23-5.57.105a4.89 4.89 0 0 0 .042-.533c.02-.255.002-.6-.008-.918-.015-.318-.056-.605-.088-.903a12.784 12.784 0 0 0-.367-1.658c-.295-1.04-.643-1.923-.867-2.69-.22-.764-.34-1.422-.32-1.898-.002-.476.038-.762.038-.762l-.1.177c-.057.118-.175.286-.247.527-.18.47-.362 1.21-.347 2.086-.01.876.123 1.87.21 2.864.05.5.05 1.003.065 1.502-.008.244-.008.505-.03.735-.026.232-.04.44-.09.733-.032.305-.076.453-.14.68-.038.21-.144.41-.22.61-.178.398-.398.784-.655 1.144-.27.352-.536.697-.832 1.003-.29.305-.578.592-.86.845-.44.395-.822.702-1.148.958a40.112 40.112 0 0 1-1.444-2.898c-1.492-3.333-6.12-3.37-8.245-3.2-.17-.654-.36-1.288-.605-1.874-.347-.868-.763-1.67-1.16-2.453-.4-.763-.797-1.512-1.18-2.237-.357-.72-.708-1.412-.964-2.09a12.29 12.29 0 0 1-.612-1.945c-.15-.618-.207-1.197-.267-1.72-.02-.52-.015-.984 0-1.366.084-.755.12-1.205.12-1.205s-.16.407-.422 1.152a21.15 21.15 0 0 0-.303 1.393c-.057.55-.137 1.182-.084 1.872.027.688.127 1.44.315 2.205.175.773.425 1.563.72 2.357.296.79.612 1.593.94 2.386.316.793.646 1.59.884 2.383.272.798.44 1.582.562 2.293l.056.645.18.32.154.072v.022l-.15.14a7.59 7.59 0 0 1-.118 1.09l-.104.523c-.04.168-.1.335-.14.498-.054.337-.206.637-.304.943-.258.587-.545 1.132-.89 1.59a9.227 9.227 0 0 1-1.294 1.438c-.016-4.195-1.838-11.43-8.83-12.192a16.766 16.766 0 0 0-1.848-.107c-6.13 0-8.79 3.547-10.586 7.018-.185.357-.346.75-.497 1.158-.802-1.866-2.138-3.79-4.344-4.41a72.77 72.77 0 0 1-1.384-.408c-3.874-1.162-8.695-2.608-12.33.9-2.583 2.493-3.888 5.147-4.01 8.188a23.893 23.893 0 0 1-2.018-1.47c-.48-.384-.996-.81-1.462-1.3-.468-.478-.946-1.014-1.222-1.574-.093-.14-.133-.276-.18-.41l-.088-.204-.035-.19-.054-.188-.04-.024c0-.067-.07.086-.07.066v-.03l.07-.078.076-.16.02-.64c-.003-.23.02-.42.055-.587l.083-.534c.052-.36.18-.763.262-1.146.92-3.082 3.014-6.076 3.55-8.847.08-.336.123-.67.134-.992.03-.315.048-.615-.002-.902-.027-.57-.19-1.038-.31-1.416-.117-.377-.316-.632-.407-.815-.097-.182-.152-.277-.152-.277l.065.313c.024.205.13.485.153.857.016.374.053.813-.056 1.312a3.837 3.837 0 0 1-.176.774c-.063.27-.16.547-.294.83-.11.286-.24.58-.405.88-.144.3-.316.606-.507.918-.35.634-.777 1.287-1.21 1.982a56.498 56.498 0 0 0-1.293 2.214c-.207.392-.396.81-.597 1.217-.177.426-.357.854-.52 1.293-.107.375-.23.733-.327 1.116-2.766-.447-7.38.1-9.843 4.83a45.57 45.57 0 0 0-2.39 5.362c-.373-.326-.83-.756-1.286-1.302-.28-.333-.576-.7-.81-1.116a6.305 6.305 0 0 1-.618-1.315c-.124-.473-.24-.958-.226-1.467.006-.275-.004-.46.054-.822.04-.346.085-.63.128-.91.184-1.18.593-2.374.95-3.563.195-.593.343-1.197.486-1.776.14-.58.21-1.153.274-1.674.035-.53.05-1.01.027-1.437a11.69 11.69 0 0 0-.115-1.09c-.114-.6-.213-.928-.213-.928s-.118.334-.268.898c-.106.278-.184.618-.33.992-.127.377-.283.793-.47 1.234-.358.89-.87 1.87-1.41 2.994-.255.57-.556 1.16-.786 1.815a16.69 16.69 0 0 0-.628 2.043 20.27 20.27 0 0 0-.092.42c-3.092-.437-10.557-.58-13.935 7.336-.118.276-.213.54-.323.813-.023-.04-.043-.07-.066-.108-.284-.492-.598-1.066-.827-1.68a4.41 4.41 0 0 1-.276-.93 3.294 3.294 0 0 1-.088-.918c.025-.372.06-.832.067-1.285.01-.435.003-.86-.03-1.268a25.05 25.05 0 0 0-.24-2.178c-.084-.622-.15-1.128-.142-1.486.003-.12.016-.22.03-.307m-.425.285c-.21.343-.407.845-.566 1.435-.177.64-.33 1.374-.477 2.138l-.234 1.162c-.058.278-.13.568-.195.884-1.378-.39-3.707-.798-5.97-.063a103.02 103.02 0 0 1 7.44-5.555m-7.202 7.59c2.147-.876 4.61-.25 5.654.098.067.45.182.873.316 1.265a8.68 8.68 0 0 0 1.16 2.148c.412.563.81.98 1.104 1.257l.048.044c-2.37 7.353-1.51 12.693-.563 15.607-6.053-.352-11.496-1.37-12.037-2.303-1.183-2.044-1.597-7.97 1.185-14.744.686-1.67 1.74-2.805 3.133-3.373m-17.988 16.87l1.88-2.604.45-.628.533-.63 1.07-1.263c.717-.846 1.44-1.698 2.166-2.558l1.095-1.29 1.177-1.198a97.095 97.095 0 0 1 5.068-5.004c-.154.292-.302.596-.435.918-2.894 7.046-2.726 13.637-1.065 16.506.35.606 1.695 1.806 6.77 2.623.316 1.522.802 4.3.72 6.59-.097 2.72 1.988 4.43 4.005 6.08 1.06.868 2.156 1.767 2.95 2.812 2.016 2.653 4.798 3.1 6.13 3.15.42.666.875 1.32 1.368 1.972 1.94 2.56 4.7 3.147 6.827 3.147 1.014 0 1.875-.133 2.44-.25 2.468 3.47 7.048 4.72 8.937 5.097.216 1.493.416 3.01-.01 3.94-32.077-10.83-49.952-33.652-52.406-36.954l.33-.456m-3.465 5.208c.536-.874 1.057-1.768 1.616-2.646l.295-.41c4.917 6.416 35.258 42.938 88.525 42.938.86 0 1.735-.01 2.607-.027 31.266-.695 54.188-15.667 67.914-28.103 12.082-10.947 19.357-21.923 21.693-25.713.784.938 1.56 1.873 2.335 2.787l.51.608.416.57c-4.79 7.28-38.424 54.995-96.14 54.995-57.663 0-86.482-37.863-90.567-43.684.266-.436.534-.874.798-1.315m-2.978 5.235c.468-1.02 1.03-2.004 1.62-2.987 5.025 7.01 34.107 43.75 91.128 43.75 32.782 0 57.573-15.337 72.597-28.203 13.436-11.508 21.667-23.142 24.176-26.925l.342.472 1.843 2.538c.362.478.692.963 1.014 1.448-4.86 7.263-39.138 55.004-99.47 55.004-60.413 0-90.44-36.914-94.585-42.427.425-.887.87-1.777 1.335-2.67m-1.81 3.698c5.326 6.903 35.62 42.4 95.058 42.4 34.243 0 59.858-15.336 75.32-28.2 13.786-11.47 22.163-23.068 24.745-26.89.033.053.07.107.104.16.543.842 1.083 1.674 1.616 2.497.534.85 1.048 1.7 1.543 2.548-4.447 5.837-43.428 54.55-104.664 54.55-59.595 0-91.425-34.71-96.408-40.618a85.54 85.54 0 0 1 2.685-6.447M154.99 131c-63.456 2.48-98.14-36.324-101.498-40.28.415-1.446.89-2.92 1.412-4.41 2.708 3.158 10.405 11.43 23.084 19.61 14.788 9.54 39.58 20.913 73.71 20.913 60.614 0 99.565-47.322 105.194-54.602a79.595 79.595 0 0 1 2.438 4.63c-4.133 5.4-41.37 51.665-104.34 54.14"/></svg>