<svg id="Layer_1" xmlns="http://www.w3.org/2000/svg" viewBox="-152 308.1 305.8 176.9"><style>.nav-mouth-13-st-0{fill:#d72050}.nav-mouth-13-st-1{fill:#fcdca4}.nav-mouth-13-st-2{fill:#f0a732}.nav-mouth-13-st-3{fill:#75a08a}</style><path class="nav-mouth-13-st-0" d="M77.7 361.5c-6.5-3.7-13.7-5.1-20.6-7.4-19.2-15.6-43.3-22.8-67.9-21.4-19.5 1.1-42.8 6.2-56.4 21.5-2.9.4-5.9.7-8.9.8-7.9.4-9.6 9.6-3.8 14 4.5 3.4 8.5 7.3 12.3 11.4-.4 3.7 2.1 6.5 5.5 7.9 2.4.8 4.7 3.7 6.7 5.2.2.2.5.3.7.5 4.9 4.8 10.3 9.2 16.8 12.5 2.6 1.3 5.1 1.1 7.2 0 3.4 1.5 6.7 2.9 10.1 4.3 2.1.9 4 .5 5.6-.5 9.1 1.5 18.4.8 27.5-2.2 13.5-4.5 26-11 38.9-16.7 11-4.9 21.9-9.3 29-19.5 2.3-3.5.6-8.6-2.7-10.4z"/><path class="nav-mouth-13-st-1" d="M67 354.9c-1.8-4.5-8.8-7.3-12.6-9.5-12.3-6.8-26-13.2-40-15.2-14.6-2.1-29.4 1.4-43.2 6-7 2.4-13.9 5.3-20.8 8.2-6.9 2.9-14.2 5.3-20.8 8.7-1.1.6-.9 1.9-.1 2.5v.1c1.9 3.6 2.9 7.4 4.3 11.1.4 1 2.2 1.7 2.7.4 2-4.7 1.6-10 4-14.4 3.2 3.2 6 6.9 9.2 10.2.8.9 2.1.4 2.5-.7 1.2-3.5 1.5-7 1.9-10.6 1.9 3.1 4.2 5.9 7.7 7.2.8.3 1.6-.3 1.8-1 1.3-5.1 3.1-10 5.2-14.9 2 4 4.2 7.9 6.6 11.7.6 1 2 1 2.6 0 3.4-5.2 4.5-11.4 7.1-16.9 2.3 5.1 3.9 10.6 6.8 15.4.7 1.2 2.3.8 2.7-.4 2-5.1 2.8-10.6 5.1-15.6 1.7 5.7 3.5 11.3 6.6 16.4.7 1.2 2.3.8 2.7-.4 1.9-4.9 3.4-9.9 5.4-14.6 1.1 5.6 2.7 11.2 5.8 16 .5.8 1.6 1 2.4.3 3.6-3.3 6.6-7.1 10-10.5.8 4.4 1.4 9.1 4.2 12.7.7.9 1.9 1 2.6 0 1.7-2.6 3.1-5.5 5.4-7.6 1.2 4.6 2.2 9.3 3.9 13.8.4 1.1 1.6 1.5 2.5.7 2.4-2.2 4.2-5.4 7.1-7 .8 2.4 1.5 4.9 1.9 7.4.2 1.1 1.8 1.5 2.5.7 2.7-2.9 5.9-6.3 4.3-10.2zM-69 382.2c1.8 4.5 7.1 8.8 10.9 10.9 12.3 6.8 26 13.2 40 15.2 14.6 2.1 29.4-1.4 43.2-6 7-2.4 13.9-5.3 20.8-8.2 6.9-2.9 14.2-5.3 20.8-8.7 1.1-.6.9-1.9.1-2.5v-.1c-1.9-3.6-2.9-7.4-4.3-11.1-.4-1-2.2-1.7-2.7-.4-2 4.7-1.6 10-4 14.4-3.2-3.2-6-6.9-9.2-10.2-.8-.9-2.1-.4-2.5.7-1.2 3.5-1.5 7-1.9 10.6-1.9-3.1-4.2-5.9-7.7-7.2-.8-.3-1.6.3-1.8 1-1.3 5.1-3.1 10-5.2 14.9-2-4-4.2-7.9-6.6-11.7-.6-1-2-1-2.6 0-3.4 5.2-4.5 11.4-7.1 16.9-2.3-5.1-3.9-10.6-6.8-15.4-.7-1.2-2.3-.8-2.7.4-2 5.1-2.8 10.6-5.1 15.6-1.7-5.7-3.5-11.3-6.6-16.4-.7-1.2-2.3-.8-2.7.4-1.9 4.9-3.4 9.9-5.4 14.6-1.1-5.6-2.7-11.2-5.8-16-.5-.8-1.6-1-2.4-.3-3.6 3.3-6.6 7.1-10 10.5-.8-4.4-1.4-9.1-4.2-12.7-.7-.9-1.9-1-2.6 0-1.7 2.6-3.1 5.5-5.4 7.6-1.2-4.6-2.2-9.3-3.9-13.8-.4-1.1-1.6-1.5-2.5-.7-2.4 2.2-4.2 5.4-7.1 7-.8-2.4-1.5-4.9-1.9-7.4-.2-1.1-1.8-1.5-2.5-.7-2.7 2.9-4.2 4.8-2.6 8.8z"/><path class="nav-mouth-13-st-2" d="M103.7 357.1c-7.9-.3-15.9.3-23.6-1.6-8.5-2.1-16.3-8.1-23.6-12.6-16.1-9.7-33.1-16-52-17.5-39.5-3.1-69.6 27.7-107.9 30.4-6 .4-6 9.7 0 9.3 5-.3 9.9-1.2 14.6-2.3.2.3.4.6.7.9 12 12.7 22.6 27 36.5 37.7 15.1 11.6 32.5 15.1 51.3 14 33.4-2 68-20.2 85.3-49.3 0-.1.1-.1.1-.2 6.1.7 12.4.3 18.5.5 6.1.3 6.1-9 .1-9.3zm-103.9 49c-17.5 1.4-33.6-2.3-47.3-13.3-11.8-9.5-21.1-21.7-31.3-32.8 27-9 51.6-26.1 81.1-25.3 20.4.5 38 9.3 55.1 19.7 5.9 3.6 11.8 7.2 18.2 9.4C59.3 389 29.1 403.7-.2 406.1zM-102.6 344.3c-2 0-2 3 0 3s2-3 0-3zM-86.6 396.3c-2 0-2 3 0 3s2-3 0-3zM-3.6 454.6c-2 0-2 3 0 3s2-3 0-3zM-50.6 459.6c-2 0-2 3 0 3s2-3 0-3zM-33.6 428.9c-1.9 0-1.9 3 0 3s1.9-3 0-3zM-57.6 321.9c-2 0-2 3 0 3s2-3 0-3zM-134.6 319.9c-1.9 0-1.9 3 0 3s1.9-3 0-3zM-126.9 390.4c-.6-.6-1.5-.6-2.1 0l-.3.3c-.6.6-.6 1.5 0 2.1.6.6 1.5.6 2.1 0l.3-.3c.6-.6.6-1.6 0-2.1zM90.4 434.3c-2 0-2 3 0 3s2-3 0-3zM53.4 428.6c-2 0-2 3 0 3s2-3 0-3zM99.4 388.3c-2 0-2 3 0 3s2-3 0-3zM67.1 320c-.5-.5-1-.8-1.7-.8-1.8 0-1.9 2.7-.3 3 .6.5 1.5.5 2-.1.6-.5.6-1.5 0-2.1zM-7.6 312.9c-2 0-2 3 0 3s2-3 0-3zM136.4 339.6c-1.9 0-1.9 3 0 3s1.9-3 0-3zM115.5 319l-.3-.3c-.6-.6-1.5-.6-2.1 0-.6.6-.6 1.5 0 2.1l.3.3c.6.6 1.5.6 2.1 0 .5-.5.5-1.5 0-2.1z"/><path class="nav-mouth-13-st-3" d="M39.4 316.6c-2 0-2 3 0 3s2-3 0-3zM-65.6 427.9c-2 0-2 3 0 3s2-3 0-3zM-127.6 360.6c-2 0-2 3 0 3s2-3 0-3zM-96.6 320.9c-2 0-2 3 0 3s2-3 0-3zM-97.6 426.3c-2 0-2 3 0 3s2-3 0-3zM44.4 460.3c-2 0-2 3 0 3s2-3 0-3zM27.4 428.3c-2 0-2 3 0 3s2-3 0-3zM75.4 407.3c-2 0-2 3 0 3s2-3 0-3zM130.4 386.6c-1.9 0-1.9 3 0 3s1.9-3 0-3zM97.4 334.6c-2 0-2 3 0 3s2-3 0-3zM135.4 317.4h-1c-2 0-2 3 0 3h1c2 0 2-3 0-3z"/><path class="nav-mouth-13-st-1" d="M-103.6 360.2v1c1 0 1-1 0-1zM-98.4 360c-.4.1-.9.3-1.3.5.1-.4.3-.7.5-1.1.4-.5-.5-1-.9-.5-.5.8-.8 1.6-.9 2.5v.2c0 .2.2.3.4.4.1 0 .3 0 .5-.1.5-.5 1.2-.7 1.9-.9.7-.2.4-1.2-.2-1zM-95 358.9c0 .2 0 .5-.1.7-.4.5.3 1.2.7.7.4-.4.4-.9.4-1.4 0-.7-1-.7-1 0zM-89.2 357.6c-.2-.4-.7-.7-1-.9-.5-.4-1.2.3-.7.7.1.1.3.3.5.4l.2.2c0 .1.1.2.2.3.2.1.5.2.8 0 .1-.3.1-.5 0-.7zM-83.7 358.4c-.5-.8-1.1-1.6-1.6-2.4-.4-.5-1.2 0-.9.5.5.8 1.1 1.6 1.6 2.4.4.5 1.2 0 .9-.5zM-78.4 353.3c-.3-.5-1.2 0-.9.5.5.8.7 1.7.7 2.7 0 .6 1 .6 1 0 .1-1.1-.2-2.2-.8-3.2zM-72.9 352c-.5 1-.8 2-1.3 2.9-.3.5.5 1 .9.5.6-.9.9-2 1.3-2.9.3-.6-.6-1.1-.9-.5zM-67.6 350.6v1.9c0 .6 1 .6 1 0v-1.9c0-.6-1-.6-1 0zM-60.8 349c-.2-.4-.5-.8-.9-1.2-.5-.5-1.2.2-.7.7.3.3.5.6.7 1 .3.6 1.2.1.9-.5zM-56.6 346.3l-1.6-1.6c-.5-.5-1.2.3-.7.7l1.6 1.6c.4.4 1.1-.3.7-.7zM-51.6 341.4v4c0 1 1 1 1 0v-4h-1zM-45.8 339.8c-.3 1.1-.5 2.2-.6 3.3 0 .6 1 .6 1 0 0-1 .3-2.1.5-3.1.3-.5-.7-.8-.9-.2zM-38.5 340.5c-.5-.8-1-1.6-1.7-2.2-.4-.5-1.2.2-.7.7.6.6 1.1 1.3 1.5 2 .4.6 1.3.1.9-.5zM-35.6 337.3v1c1 0 1-1 0-1zM-38.6 336v1c1 0 1-1 0-1zM-29.6 336.3c-1.1-.8-2.1-1.6-3.1-2.6-.5-.5-1.2.3-.7.7 1 1 2.2 1.9 3.3 2.7.5.5 1-.4.5-.8zM-24.6 331.5c-1 0-1 1 0 1s1-1 0-1zM-47.6 342.7c-1 0-1 1 0 1v-1zM-48.6 339.5c-1 0-1 1 0 1s1-1 0-1zM-69.6 349.1c-1 0-1 1 0 1v-1zM-81.6 360.8c-1 0-1 1 0 1s1-1 0-1zM-86.6 361.6c-1 0-1 1 0 1v-1zM-81.6 354.9c-1 0-1 1 0 1v-1zM-25.6 335.7v1c1 0 1-1 0-1zM-27.4 333.6c-.4 0-.7-.1-1-.4-.5-.4-1.2.3-.7.7.5.4 1 .6 1.7.7.6.1.6-.9 0-1zM-20.1 330.4c-.8 1.4-1.6 2.9-2.2 4.4-.2.6.7.9 1 .3.6-1.4 1.3-2.8 2.1-4.1.3-.6-.6-1.2-.9-.6zM-14.6 329.9c-1 0-1 1 0 1s1-1 0-1zM-17.2 333c-.5-.4-1.2.3-.7.7.1 0 .4.3.4.3.1.6 1.1.4 1-.3-.1-.4-.4-.5-.7-.7zM-16.6 328.3c-1 0-1 1 0 1v-1zM-11.6 331.8c-1 0-1 1 0 1s1-1 0-1zM-9.4 328.8c-.1-.2-.2-.5-.1-.7.4-.5-.3-1.2-.7-.7-.5.6-.4 1.3-.1 1.9.3.6 1.1.1.9-.5zM-6.2 328.2c-1.1.9-1.7 2.1-2.3 3.4-.2.6.7.9 1 .3.5-1.1 1-2.2 2-3 .5-.4-.2-1.1-.7-.7zM-3.3 330.4c-.8.3-1.2.9-1.8 1.5-.4.5.3 1.2.7.7.4-.4.8-1 1.4-1.2.5-.2.3-1.2-.3-1zM-1.6 327.2v1c1 0 1-1 0-1zM2.1 331.6c-.9-.5-1.4-1.1-1.6-2.1-.2-.6-1.1-.4-1 .3.3 1.2 1 2.1 2.1 2.7.6.2 1.1-.6.5-.9zM4.4 328.6c-1 0-1 1 0 1s1-1 0-1zM7.7 329.2c-1.3.8-2.5 1.7-3.6 2.7-.5.5.2 1.2.7.7 1-1 2.1-1.8 3.4-2.6.6-.3.1-1.2-.5-.8zM-81.6 364.5c-1 0-1.9 0-2.9-.2-.6-.1-1 .8-.4 1 1.1.3 2.2.3 3.2.3 1.1-.1 1.1-1.1.1-1.1zM-77.6 362.6c-1 0-1 1 0 1s1-1 0-1zM-78 366.5c-.3 1-.5 2-.6 3.1 0 .6 1 .6 1 0 0-.9.3-1.9.5-2.8.2-.7-.7-1-.9-.3zM-80.6 367.4v1c1 0 1-1 0-1zM-74.3 372.8c-.9-.6-1.8-1.1-2.9-1.1-.6 0-.6 1 0 1 .9 0 1.7.5 2.4 1 .5.4 1-.5.5-.9zM-73.6 368.5v1c1 0 1-1 0-1zM-71.2 373.2c-.1-.6-1.1-.3-1 .3.2.9.2 1.9.2 2.9h1c.1-1 .1-2.1-.2-3.2zM-72.5 377c-.3-.6-.8-1-1.5-1-.6 0-.6 1 0 1 .3 0 .5.3.6.6.3.5 1.2 0 .9-.6zM-68.3 377.8c-1.1.3-2 .6-2.7 1.6-.4.5.5 1 .9.5.5-.7 1.3-.9 2.1-1.1.6-.2.3-1.1-.3-1zM-68.6 374.6v1c1 0 1-1 0-1zM-65 378.5c-.2-.6-1.2-.3-1 .3.3.8.4 1.6-.3 2.2-.6.5-1.6.5-2.3.4-.6-.1-.9.8-.3 1 1.2.3 2.3.1 3.3-.6 1-.9 1-2.3.6-3.3zM-64.2 384.5h-1.3c-.6 0-.6 1 0 1h1.3c.7 0 .7-1 0-1zM-63.6 381v1c1 0 1-1 0-1zM-102 357.1h-.6c-.6 0-.6 1 0 1h.6c.7 0 .7-1 0-1zM-104.6 360.8c-1 0-1 1 0 1v-1zM13.3 328.9c-.8-.4-1.7-.8-2.6-.9-.6 0-.6 1 0 1s1.2.3 1.8.5c-.4.9-.6 1.9-1.1 2.7-.3.6.5 1.1.9.5.6-1 .8-2.2 1.3-3.2 0-.2 0-.5-.3-.6zM2.4 326.2c-1 0-1 1 0 1v-1zM18.2 332.8c-.8-.3-1.6-.5-2.4-.8-.6-.2-.9.8-.3 1 .8.3 1.6.5 2.4.8.7.2.9-.8.3-1zM21.3 330c-1.3.8-2.6.7-3.6-.6-.4-.5-1.2 0-.9.5 1.2 1.8 3.1 2.1 4.9 1 .7-.4.2-1.3-.4-.9zM21.4 333.4c-1 0-1 1 0 1s1-1 0-1zM26.7 335.9c-1.6-1.5-.8-3.8-2.4-5.3-.5-.4-1.2.3-.7.7.9.8.9 1.8 1 2.9.1 1 .7 1.8 1.4 2.4.5.4 1.2-.3.7-.7zM-59.3 385.2c-.4-.5-1.1.2-.7.7.1.2.1.5.1.7 0 .6 1 .6 1 0 0-.5-.1-1-.4-1.4zM-61.6 389.1c-.1-.6-1.1-.4-1 .3 0 .2.2.4.3.5.1.6 1.1.4 1-.3 0-.2-.2-.3-.3-.5zM-58.9 390.6h-.3c-.6 0-.6 1 0 1h.3c.7 0 .7-1 0-1zM-54.9 390.7c-.3-1.2-1-2.1-2.1-2.7-.6-.3-1.1.6-.5.9.9.5 1.4 1.1 1.6 2.1.2.6 1.2.3 1-.3zM-54.6 394.7c-.4-.2-.9-.4-1.2-.9-.3-.6-1.2-.1-.9.5.3.6.9.9 1.5 1.2.7.3 1.2-.5.6-.8zM-51.3 393.9c-.6-.6-1.1-1.1-1.5-1.8-.4-.5-1.2 0-.9.5.5.7 1.1 1.4 1.7 2 .4.5 1.1-.2.7-.7zM-47.2 398.7c-.4-.9-1.3-1.5-1.3-2.5 0-.4-.4-.6-.8-.4-1 .7-2.2 1.2-3.2 1.9-.5.3 0 1.2.5.9.8-.5 1.7-1 2.6-1.5.1.3.2.5.3.7.3.4.7.8.9 1.3.3.5 1.3.2 1-.4zM-44.6 397c-1 0-1 1 0 1v-1zM-49.6 399.9c-1 0-1 1 0 1v-1zM-44.1 400.2c-.3.8-1 1.6-2 1.2-.6-.3-1.1.6-.5.9 1.4.7 2.8-.1 3.3-1.5.3-.7-.6-1.2-.8-.6zM-40.2 404.5c-.6 0-.9-.3-1.2-.8-.3-.6-1.2-.1-.9.5.4.8 1.1 1.3 2 1.3.7 0 .7-1 .1-1zM-38.9 401.5c-.1-.1-.1-.2-.2-.3 0 0-.1-.3-.1-.2-.1-.6-1.1-.6-1 0 0 .2.1.4.2.6 0 0 0 .1.1.1 0 .1 0 .3.1.4.1.1.2.2.4.3.2.1.4-.1.6-.2.1-.3 0-.5-.1-.7zM31.6 333.9c-.9-1.2-2-1.8-3.5-1.6-.6.1-.4 1.1.3 1 .7-.1 1.2.1 1.7.4-.4-.2-.9.2-.7.7.6 1 .3 2.6-.5 3.4-.4.5.3 1.2.7.7 1.1-1.1 1.4-3.2.6-4.6l-.1-.1c.2.2.4.4.5.6.5.5 1.4 0 1-.5zM33.4 337.9v1c1 0 1-1 0-1zM34.4 333.9c-1 0-1 1 0 1v-1zM37.4 335.7c-1 0-1 1 0 1s1-1 0-1zM43.1 338.5c0-.1-.1-.1-.2-.2s-.3-.2-.5-.1h-.1c-.3.2-.6.4-.8.6-.6.2-1.1.5-1.7.9-.4-.6-.9-1.2-1.3-1.8-.1-.2-.4-.3-.7-.2-.9.6-1.7 1.2-2.1 2.2-.2.6.7.9 1 .3.2-.6.7-1 1.3-1.3.4.5.7 1 1.1 1.5l-.1.1c-.4.3-.2 1.2.4.9 0 0 .1 0 .1-.1.1 0 .1 0 .2-.1.3.4.9 0 .8-.4.5-.3 1-.6 1.6-1 .1 0 .2-.1.3-.1-.2 1.1-.2 2.3-.4 3.4-.1.6.9.9 1 .3.2-1.4.3-2.9.5-4.3-.1-.3-.2-.5-.4-.6zM46.4 342.9v1c1 0 1-1 0-1zM45 338.1c-.6 0-.6.7-.2.9.2.6 1.1.3.9-.3 0-.3-.3-.5-.7-.6zM43.9 344h-.3c-.6 0-.6 1 0 1h.3c.7 0 .7-1 0-1zM51.3 341.4c-1.2-.5-2.4-.4-2.5 1.1-.1 1 .6 3-.7 3.4-.6.2-.3 1.2.3 1 1.3-.4 1.5-1.6 1.5-2.8 0-.6-.1-1.1 0-1.7.1-.6.9-.2 1.2 0 .5.2.7-.8.2-1zM53.2 344.1c-.2-.6-1.1-.4-1 .3.3 1 .5 2 .5 3.1 0 .6 1 .6 1 0 0-1.2-.2-2.3-.5-3.4zM51.4 346.7c-1 0-1 1 0 1v-1zM58.1 347.5l-.9.6c-.2-1.1-.2-1.7-.2-3.7h-1c0 2 0 2.7.3 3.9 0 .1.1.2.1.3-.7.5-1.5 1-2.3 1.3-.6.3-.1 1.1.5.9 1.4-.6 2.7-1.6 4-2.4.5-.3 0-1.2-.5-.9zM58.8 351.3l-.3.3c-.5.5.3 1.2.7.7l.3-.3c.4-.4-.3-1.1-.7-.7zM62.4 348c-1 0-1 1 0 1s1-1 0-1zM63.9 350.8c.1-.3-.2-.7-.6-.6-.2 0-.3 0-.4.1-1 .4-1.9 1.4-2.1 2.5-.2 1.2.9 2.3 2.1 2.4 1 .1 1.5-1 1.6-1.9 0-.9-.2-1.8-.6-2.5zm-.9 3.3c-.6.4-1.4-.7-1.3-1.2.1-.7.7-1.3 1.3-1.6.5.8.8 2.3 0 2.8zM68.8 356c-1.1-.2-2.1 0-3 .6-.5.3 0 1.2.5.9.7-.5 1.4-.7 2.3-.5.6.1.9-.9.2-1zM71.8 354.7c-1.3-.5-2.6-1.2-3.5-2.3-.4-.5-1.1.2-.7.7 1 1.2 2.5 1.9 3.9 2.5.6.3.9-.7.3-.9zM74 358.9c-.8-.3-1.6-.3-2.6-.3v1c1 0 1.6 0 2.3.2.6.3 1-.7.3-.9zM78.5 361.9c-.3-1.2-.3-2.5-.5-3.7-.1-.6-1.1-.4-1 .3.2 1.2.3 2.5.5 3.7.2.6 1.1.4 1-.3zM85.6 362.1c-1-.3-1.7-1.3-2.7-1.7-1.1-.4-1.7.6-1.9 1.5-.2.6.8.9 1 .3.1-.2.2-.9.5-.9s.7.4.8.5c.6.5 1.3 1 2 1.3.7.2.9-.8.3-1zM89.4 360.6c-.4-1.1-1.4-1.5-2.5-1.1-.6.2-.4 1.1.3 1 .5-.1 1-.1 1.2.4.3.6 1.3.3 1-.3zM93.1 363.2c-.7-.2-1.4-.4-1.9-.9-.5-.4-1.2.3-.7.7.7.6 1.5.9 2.4 1.2.5.2.8-.8.2-1zM95.3 360c-.3 0-.6 0-.8.1-.3.2-.3.6-.1.9.3.3.7.2.9 0h.1c.6 0 .6-1-.1-1zM98.1 362.7c-.3 0-.5.2-.8.3-.6.1-.4 1.1.3 1 .3 0 .5-.2.8-.3.6-.2.4-1.1-.3-1zM101.4 360.2c-1 0-1 1 0 1s1-1 0-1zM105 360.7c-.4-.5-1.1.2-.7.7 1 1.3-.1 2.2-1.4 2.6-.6.2-.4 1.2.3 1 .9-.3 1.8-.7 2.3-1.6.5-1 .1-2-.5-2.7zM-35.9 403.8c-.5-.4-1.2.3-.7.7.1.1.3.2.4.3 0 .1.1.2.2.3.1 0 .2.1.3.1.3.1.5-.1.6-.3.2-.5-.5-.8-.8-1.1zM-35.8 407.1c-.1 0-.3-.4-.3-.4-.4-.5-1.1.2-.7.7.2.3.4.6.8.7.5.1.8-.8.2-1zM-31.3 407.9l-.2.2-.3.3c-.5.5.3 1.2.7.7l.3-.3.2-.2c.4-.5-.3-1.2-.7-.7zM-29.7 405.8c-.3-.5-.7-1.1-1.3-1.2-.5-.1-1 .2-1.5.2-.6 0-.6 1 0 1 .3 0 .6-.1.9-.1-.1.2-.1.4.1.5.4.3.9.4 1.4.4.4-.1.6-.5.4-.8zM-26 410.5c-.3-.3-.5-.7-.8-1.1-.4-.5-1.1.2-.7.7.3.3.5.7.8 1.1.4.4 1.1-.3.7-.7zM-25.3 407.1c-.3 0-.5-.2-.7-.4-.5-.4-1.2.3-.7.7.4.4.9.6 1.4.7.6.1.6-.9 0-1zM-20.5 409.1c-.8-.8-1.8 1.2-2 1.7-.3.6.6 1.1.9.5l.3-.6c.2 0 .4 0 .5-.2.2-.3.7-1 .3-1.4zM-14.4 410.3c.1 0 .3 0 .4-.1.6-.2.4-1.1-.3-1-.8.2-1.3.2-1.7 1.1-.1-.1-.2-.1-.3-.1-.7 0-1.2.1-1.9.3-.6.3-.1 1.1.5.9.4-.2.9-.2 1.3-.2.3 0 .4-.2.5-.4.1.1.2.1.3.2.7.1 1.6.4 1.8 1.2.2.8-.9.8-1.4.8-.6-.1-.9.9-.3 1 1.2.2 2.6-.1 2.7-1.5.2-1.2-.6-1.8-1.6-2.2zM-18.6 407.9h-.3c-.6 0-.6 1 0 1h.3c.6 0 .6-1 0-1zM-8.2 412.9c-.3-.3-.5-.4-.8-.5.4-1.9-.1-4-2.3-4.4-.6-.1-.9.9-.3 1 1.9.3 1.9 2.1 1.5 3.6-.1.3.2.6.5.6s.5.2.7.4c.5.4 1.2-.3.7-.7zM-2.8 411.4c-.9-1.4-2.2-2.3-3.9-1.5-.6.3-.1 1.1.5.9 1.1-.5 1.9.3 2.5 1.2.4.4 1.3-.1.9-.6zM-1.8 413c-1-.3-1.8-.3-2.8-.3-1 0-1 1 0 1 0 0 1.8 0 2.7.2.6.2.7-.7.1-.9zM-.2 409.1c-.8-.3-1.7.4-2.3.8-.5.4.2 1.1.7.7.4-.3.8-.6 1.2-.6.4 0 .5.9.6 1.1.1.6 1.1.4 1-.3-.1-.6-.4-1.4-1.2-1.7zM3.9 411.4c-.9.4-1.5.5-2.5.5s-1 1 0 1 2.1-.1 3.1-.6c.6-.3 0-1.1-.6-.9zM4.8 407.5c-.7-.3-1.4-.3-2.1 0-.6.3-.1 1.1.5.9.4-.2.7-.2 1.1 0 .6.2 1.1-.7.5-.9zM9.6 411.4c-1.3 0-2.5-.4-3-1.8-.2-.6-1.2-.3-1 .3.6 1.8 2.1 2.5 3.9 2.5.7 0 .7-1 .1-1zM11.7 408.2c-.4 0-.6.1-.9.4-.5.5.2 1.2.7.7.2-.2 0-.1.2-.1.7 0 .7-1 0-1zM67.1 382.1c-.6 0-1.1-.2-1.5-.7-.5-.4-1.2.3-.7.7.6.6 1.3.9 2.2.9.7.1.6-.9 0-.9zM69.1 376.2c-.2-.1-.4 0-.6.2-.1.2-.1.4-.1.6 0 .2.1.3.2.4v.1c0 .2.1.4.1.6 0 .6 1 .6 1 0 0-.5 0-1.8-.6-1.9zM75.4 373.4h-3c-1 0-1 1 0 1h3c1 0 1-1 0-1zM75.4 369.3v1c1 0 1-1 0-1zM80.8 367.9c-.4-.4-.8-.4-1.2 0-.4.4.2 1.1.6.8.4.2 1-.4.6-.8zM61.4 386.6c-.4-.1-.8-.1-1.2-.1v-.1c0-1-1-1-1 0v.1c-.7.1-1.3.2-2 .3-.6.1-.4 1.1.3 1 .6-.1 1.2-.2 1.7-.3 0 .7-.1 1.4-.2 2.1-.1.6.8.9 1 .3.2-.8.2-1.7.3-2.5.3 0 .7 0 1 .1.4.2.7-.8.1-.9zM62 382.8l-.3.3c-.5.5.3 1.2.7.7l.3-.3c.4-.5-.3-1.2-.7-.7zM64.2 386c0 .2 0 0-.1.2-.5.5.3 1.2.7.7.3-.3.4-.5.4-.9 0-.6-1-.6-1 0zM55.3 388.8c-.1-.6-1.1-.4-1 .3.2 1.2 1 2.5.5 3.7-.2.6.8.9 1 .3.6-1.5-.2-2.8-.5-4.3zM51.4 393.3c-3.5-2.2-3.9 3.9-6.8 4.5-.6.1-.4 1.1.3 1 1.4-.3 2.3-1.3 3-2.5.7-1.2 1.3-3.1 3-2.1.5.3 1-.5.5-.9zM42.4 395.7c-1 0-1 1 0 1v-1zM49.4 396.5c-1 0-1 1 0 1s1-1 0-1zM52.4 390.1c-1 0-1 1 0 1v-1zM13 409.1l-1.6 1.6c-.5.5.3 1.2.7.7l1.6-1.6c.4-.4-.3-1.1-.7-.7zM19.7 409.1c-1.2-.9-2.4-1.9-3.7-2.7-.6-.3-1.1.5-.5.9 1.3.8 2.5 1.7 3.7 2.7.5.3 1-.6.5-.9zM25.5 406.9c-1.2-.7-2.4-1.3-3.5-2.1-.5-.4-1 .5-.5.9 1.1.8 2.3 1.4 3.5 2.1.6.3 1.1-.6.5-.9zM21.4 407.1c-1 0-1 1 0 1v-1zM25.4 402.9c-1 0-1 1 0 1v-1zM32.2 404c-.9.6-2.2 1-3.2.5-.6-.3-1.1.6-.5.9 1.4.6 3 .3 4.2-.5.6-.4.1-1.3-.5-.9zM30.4 401.3c-1 0-1 1 0 1v-1zM37.4 403c-1.1-1.1-2.5-1.7-4.1-1.7-.6 0-.6 1 0 1 1.3 0 2.4.6 3.4 1.5.4.4 1.1-.3.7-.8zM38.4 398.9c-1 0-1 1 0 1v-1zM42.4 400.6c-.3-.3-.7-.1-1-.1-.2 0-.3.2-.3.3-.3.1-.6.2-.8.4-.1.2-.1.5.1.6.1.1.2.1.4.2.2 0 .3 0 .4-.1.1 0 .2-.1.3-.1.3-.1.5-.2.8-.3.3-.2.4-.7.1-.9zM-3.6 407.1v1c1 0 1-1 0-1zM-29.6 410.3c-1 0-1 1 0 1v-1zM-21.6 406.6c-1 0-1 1 0 1v-1zM43.7 394v.3c0 .6 1 .6 1 0v-.3c0-.6-1-.6-1 0zM58.4 391.7v1c1 0 1-1 0-1zM71.1 380.8h-.5c-.6 0-.6 1 0 1h.5c.6 0 .6-1 0-1zM72.9 377.2l-.3.3c-.5.5.3 1.2.7.7l.3-.3c.4-.5-.3-1.2-.7-.7zM73.2 369.8c-.7 0-.7 1-.1 1h.1c.7 0 .7-1 0-1zM78.9 371.3l-.3-.3c-.5-.5-1.2.3-.7.7l.3.3c.5.5 1.2-.2.7-.7zM81.4 364c-1 0-1 1 0 1s1-1 0-1zM80.3 356.7l-.3.3c-.5.5.3 1.2.7.7l.3-.3c.5-.5-.2-1.2-.7-.7zM91.9 358.4h-.3c-.6 0-.6 1 0 1h.3c.6 0 .6-1 0-1zM98.5 358.4c-.5 0-.8.3-.8.8 0 .6.8.6 1 .2.5-.2.4-1-.2-1zM-92.2 360.1c-.2.2-.3.6-.5.8-.4.5.3 1.2.7.7.2-.2.3-.6.5-.8.4-.5-.3-1.2-.7-.7zM-97.6 357.1c-1 0-1 1 0 1s1-1 0-1zM-87.1 354.1c-.6 0-1.2 0-1.7.4s.2 1.1.7.7c.2-.2.7-.1 1-.1.7 0 .7-1 0-1zM-65 346.2c-.1-.6-1.1-.4-1 .3.3 1.3.5 2.7.8 4 .1.6 1.1.4 1-.3-.3-1.3-.6-2.6-.8-4zM-54.6 342.9c-1 0-1 1 0 1v-1zM-55.7 348h-1.9c-.6 0-.6 1 0 1h1.9c.7 0 .7-1 0-1zM-42.2 341.6c-.2 0-.3-.2-.5-.3-.6-.1-.9.9-.3 1 .2 0 .3.2.5.3.7.1.9-.9.3-1zM-42.1 336.5h-.3c-.6 0-.6 1 0 1h.3c.7 0 .7-1 0-1zM-31.6 337.9v1c1 0 1-1 0-1zM-35.6 334.4c-1 0-1 1 0 1v-1zM-30.1 331.5h-.5c-.6 0-.6 1 0 1h.5c.6 0 .6-1 0-1zM-21.6 329.1v1c1 0 1-1 0-1z"/></svg>