<svg id="Layer_1" xmlns="http://www.w3.org/2000/svg" viewBox="-152 308.1 305.8 176.9"><style>.nav-mouth-14-st-0{fill:#0b3746}.nav-mouth-14-st-1{fill:#75a08a}.nav-mouth-14-st-2{fill:#fcdca4}</style><path class="nav-mouth-14-st-0" d="M-69.1 420.9c-1.4-1.8-1.7-5.1-2.3-7.3-1-3.6-2-7.1-3.2-10.6-.3-1.4-.6-2.7-.9-4.1-.4-1.6-.7-3.3-1.1-4.9.1-.2 0-.4-.1-.6-1.3-6.1-2.4-12.1-4.1-18.1-.2-.9-.5-1.5-.7-2.3.1 0 .1.3.2.3h.2c1 0 1-1 0-1h-.2c-.2 0-.3-.2-.4 0-.8-3.2-1.6-6.4-2.1-9.6 0 0-.2-.1-.2-.2v-.2c0-.1.2-.2.2-.3-.8-5.4-1-10.7-1-16.2 0 .2.4.4.9.4v-1c-.5 0-.7.2-.7.4 0-5.4.3-10.9.9-16.6.5-4.5-6.9-5.4-7.9-1.1-1.5 6.8-2.8 13.5-3.5 20.2h-.9v1h.7c-.9 8.7-1 17.4 1.1 26.3-.3-.1-.7.1-.7.5v.2c0 .5.7.6 1 .4.2 1 .6 2 .9 3 .2.8.5 1.5.8 2.2-.6.2-.5.9.3.9 1.3 3.5 2.8 6.9 4.4 10.3h-.3v1c.3 0 .5-.1.7-.3 1.5 3.2 3.1 6.5 4.4 9.7.1.4.3.7.4 1.1.2 1.1.4 2.2.7 3.3-.2.2-.2.7.2.8.9 4.3 1.9 8.5 3.5 12.4.2.6.6 1.1 1 1.5.3.8.7 1.6 1.2 2.2 2.8 4.4 9.7.4 6.6-3.7z"/><path class="nav-mouth-14-st-0" d="M-55.9 387.7c-4.9-12.3-6.3-25.4-6.8-38.6-.2-5.9 2.4-18.2-7-18.2-2.6 0-4.5.7-5.9 1.9-.1-.1-.2-.2-.4-.2-.5 0-.6.6-.3.9-3.3 3.5-3.2 10.1-3 15.3.1 3.8.8 7.7 1.9 11.5-.3.1-.6.5-.3.8l.1.1c.1.1.3.2.5.1 2 7 4.8 13.9 6.8 20.5 3.6 11.9 7.6 23.7 13.6 34.7.1.2.2.3.3.4-.9 2.9-2.7 5.6-5.8 7.9-5.9 4.4-16 2.4-20.2-3.7-2.9-4.2-9.8-.2-6.9 4 4.6 6.7 14 11.1 22.2 10 9.6-1.3 17.9-9.6 19.4-19.2 1.5-9.9-4.7-19.4-8.2-28.2z"/><path class="nav-mouth-14-st-1" d="M-58 390.9c-2.3-6.7-4.3-13.5-6-20.4-1.7-7.1-1.9-14.5-2.5-21.7-.7-9 1.2-22.1-6.1-28.4-4.3-3.7-12.2.5-13.9 5.8-3.6 10.7-3.4 23.5-2.4 34.6 1 11.7 4.9 23 8.5 34.1 3.4 10.5 7 19 8.1 29.5-1-5.2-4-11-5-13.9-4.8-13.4-9.3-27-11.6-41.1-1.3-7.7-1.5-15.5-1.1-23.3.3-6.3 1.6-12.5 1.7-18.8.1-9.3-9.3-9.3-16.2-7.9-.9.2-.9 1.3-.3 1.7-2 3.4-2.1 7.5-2.3 11.4-.3 7-1.6 14-1.8 21-.5 14.5 2.4 28.6 6.1 42.5 2.6 9.7 6.3 19.3 12.1 27.5 2.4 3.5 8.1 10.3 18.2 9.9.2 0-.1.1 0 0 8.4.9 14.1-4.9 18-12.2 5.3-10.2-.2-20.5-3.5-30.3z"/><path class="nav-mouth-14-st-2" d="M148.2 317.2c-16.6.1-33.1-.7-49.6-1.1-.3-.2-.6-.2-1 0-7.5-.2-15.1-.3-22.6-.2-12.2.2-24.3 1.1-36.4 1.5-13 .5-25.9.2-38.9-.1-12.2-.3-24.5-.7-36.7-.6-11.9.1-23.7 1.7-35.5 1.8-5.7.1-11.3-.6-17-.9-6.3-.4-13 0-19.3.1-13 .2-26.1 0-39.1 0-1 0-1 2 0 2h1.9c-.1.1-.1.3-.1.5 0 4.5-.9 12.6 3 15.8 2 1.6 5.2.1 6.4-1.9 2.4-4.1.8-9 1.8-13.4.1-.4-.1-.8-.3-1h6.1c-.6 4.5-3.2 15.9 2.7 17.8 3.1 1 6.3-1 7.5-3.9 1.7-4.4.8-9.3 1.4-13.9h4.6c-.2.2-.3.4-.3.7 0 4.9-2 18.4 4.5 20.4 3.8 1.2 7.5-2 9-5.1 2.3-4.8 1.9-10.7 1.8-15.9 1.6 0 3.2.1 4.7.1-.7 6.5-2.5 18.4 3.4 22.9 3.1 2.4 7.8-1 9.4-3.6 3.3-5.3.4-13.1.2-18.8 2 .1 3.9.1 5.9.2h1c-.1.1-.1.2-.2.4-.8 5.8.3 16.9 6.3 19.9 3.4 1.7 7.2-1.5 9-4.1 3.1-4.6 1.1-11.6.7-16.7l4.2-.3c0 .1.1.2.1.3 1.8 2.8 1.5 7.5 2 10.7.4 2.9 1 7.4 3.7 9.3 3 2.1 6.7-.8 8.6-3.1 3.9-4.7 3.1-12.2 3.1-17.9v-.2h5.1c-3.1 6.1-3.5 21.8 4.1 24.8 4.7 1.9 8.9-1.4 10.7-5.6 2.5-5.7 2-13 .9-18.9 2.3.1 4.5.1 6.8.2 1 8.3-2.6 24.3 7.5 28.2 4.8 1.8 10.3-1.3 11.9-5.9 2.5-7 1.4-14.6 1.3-21.9H18c.1 4 .7 8 1 12.1.2 2.2.3 4.7 1.3 6.7 1.8 3.4 5.3 3.9 8.9 3.4 4.6-.7 7.5-2.4 8.5-7.1 1.1-5-.3-10.4-.5-15.4 1.9-.1 3.8-.1 5.8-.2-1.4 10.8 1.1 30.5 16.4 27 11.6-2.6 9-19 7.2-27.7 1.4 0 2.8-.1 4.2-.1.4 4.8.2 12.3 4.5 15.3 2.2 1.5 5.4-.5 6.4-2.5 2-3.7.5-8.8.7-12.9h4.1c.2 3 .4 6.1.8 9.1.4 2.6.9 7 3.4 8.6 2.7 1.7 5.3-1.3 6.6-3.4 2.4-3.8 2.6-9.5 2.1-14.1.8 0 1.6 0 2.4.1 0 .1-.1.2-.1.3-.7 5.6-.3 16.2 6.4 18.1 3.3 1 6.6-1.1 7.7-4.2 1.5-4.4-.2-9.3.1-13.8 1 0 2 .1 2.9.1-1.1 4.7-1.3 12.9 3.5 15.2 2.6 1.2 5.7-.3 7.1-2.6 2.1-3.4 1.5-8.4 1.5-12.3.9 0 1.9 0 2.8.1-.1.1-.1.2-.1.4-.1 6.2-1.1 14.8 7.3 15.1 8.8.3 8.1-9.3 6.2-15.3h1.2c1.2-.6 1.2-2.6-.1-2.6z"/><path class="nav-mouth-14-st-0" d="M-81.5 414.2h-.5c-.6 0-.6 1 0 1h.5c.6 0 .6-1 0-1zM-92 411.7v1c1 0 1-1 0-1zM-87 404.2v1c1 0 1-1 0-1zM-94 399.2v1c1 0 1-1 0-1zM-98 390.2v1c1 0 1-1 0-1zM-101 378.5h-.2c-.6 0-.6 1 0 1h.2c.6 0 .6-1 0-1zM-94 389.5c-1 0-1 1 0 1v-1zM-103.5 370c-.4 0-.6.1-.9.4-.5.5.2 1.2.7.7l.1-.1h.1c.6 0 .6-1 0-1zM-96 369.5v1c1 0 1-1 0-1zM-98.8 360v.2c0 .6 1 .6 1 0v-.2c0-.7-1-.7-1 0zM-99 366.7c-1 0-1 1 0 1v-1zM-103.8 362.5h-.2c-.6 0-.6 1 0 1h.2c.7 0 .7-1 0-1zM-101 352.5c-1 0-1 1 0 1v-1zM-97 339.5c-.6 0-.6 1 0 1s.6-1 0-1zM-104 345v1c1 0 1-1 0-1zM-106 353.5c-.6 0-.6 1 0 1s.6-1 0-1zM-97 355.7v.2c0 .6 1 .6 1 0v-.2c0-.6-1-.6-1 0zM-97 334.5h-.2c-.6 0-.6 1 0 1h.2c.6 0 .6-1 0-1zM-76 375v1c1 0 1-1 0-1zM-72 387.5c-.6 0-.6 1 0 1s.6-1 0-1zM-72 383.5v1c1 0 1-1 0-1zM-72 399v1c1 0 1-1 0-1zM-69.2 408.2c-.1-.2-.3-.2-.5-.2-.4 0-.5.3-.5.6-.2.4.4.9.8.5l.3-.3c.1-.2.1-.5-.1-.6zM-65 419.7v1c1 0 1-1 0-1zM-67 415v1c1 0 1-1 0-1zM-59 417.7c-1 0-1 1 0 1v-1zM-64 406.2c-.6 0-.6 1 0 1s.6-1 0-1zM-62 412.2v1c1 0 1-1 0-1zM-81 350.2v1c1 0 1-1 0-1zM-79 365.7v1c1 0 1-1 0-1zM-83.9 354.6l-.2.2c-.5.5.3 1.2.7.7l.2-.2c.5-.4-.2-1.1-.7-.7zM-77 327.2c-.6 0-.6 1 0 1s.6-1 0-1zM-100.2 340.5h-.2c-.6 0-.6 1 0 1h.2c.6 0 .6-1 0-1zM-95.9 344.6l-.1-.1c-.5-.5-1.2.3-.7.7l.1.1c.5.5 1.2-.2.7-.7zM-98.5 384h-.2c-.6 0-.6 1 0 1h.2c.6 0 .6-1 0-1zM-95.9 399.1l-.2.2c-.5.5.3 1.2.7.7l.2-.2c.5-.4-.2-1.1-.7-.7zM-97 406.5v1c1 0 1-1 0-1zM-86 410c-.6 0-.6 1 0 1s.6-1 0-1zM-85.4 399.4c-.4-.4-1.1-.3-1.1.4 0 .4.3.5.6.5.5 0 .9-.6.5-.9zM-89 416.2c-.6 0-.6 1 0 1s.6-1 0-1zM-81.5 419.2h-.2c-.6 0-.6 1 0 1h.2c.6 0 .6-1 0-1zM-68 396v1c1 0 1-1 0-1zM-69 403.2c-1 0-1 1 0 1v-1z"/></svg>