<svg id="Layer_1" xmlns="http://www.w3.org/2000/svg" viewBox="-152 308.1 305.8 176.9"><style>.nav-mouth-19-st-0{fill:#d72050}.nav-mouth-19-st-1{fill:#fcdca4}.nav-mouth-19-st-2{opacity:.7;fill:#0b3746}.nav-mouth-19-st-3{opacity:.7;fill:#75a08a}.nav-mouth-19-st-4{fill:#0b3746}</style><path class="nav-mouth-19-st-0" d="M52.4 430.4c-4.1-2.2-8-1-9.7 2.6-1.7 3.6-.9 8 3 9.8 3.9 1.8 7.7-.1 9-3.4 1.1-3.2 1.2-7.1-2.3-9z"/><path class="nav-mouth-19-st-1" d="M-67.8 352s5 11.2 5.1 11.3c.1.2 4.3-11.3 4.3-11.3l1.9.8 5.2 13.3L-46 353s-.9-4.6-1.2-4.5c-.2.1-6.1-2.6-8.8 2.5 0 0-2 2-2.7.2-.7-1.8-1.3-3.1-1.3-3.1s-7.9-1.8-7.8 3.9zM-33.5 349s-2-2.1-4.2-1.8c-2.2.3-5.8 1.5-5.5 5.2.3 3.8 5.6 15.8 5.6 15.8l5.3-14.5c0 .1-2.5-2-1.2-4.7zM-20 349s-9.8-.4-9.5 3.1 5.9 18.5 5.9 18.5 5.2-13.6 5.8-17.5c0 0-2.8-1.1-2.2-4.1zM-.2 351.8s-4.3-5.2-8.7-5c-4.3.2-6.5 3.2-6.3 5.6.2 2.3 7.8 19.4 7.8 19.4l7.2-20zM.3 351.9s10.3-7.9 14.3 1.1C13 363 6 371.1 6 371.1L.3 351.9zM16.7 354s2.9-1.7 2.3-3.4c0 0 9.3-2.2 9.2 4.2-.1 6.4-7.5 17.5-7.5 17.5l-4-18.3zM31.1 355.5s1.6-2.2.9-3.8c0 0 2.7-2.7 6.5-1.9 3.8.8 5.3 2.8 4.8 6-.6 3.2-7.6 14-7.6 14l-4.6-14.3zM46 355.1s2.8-2.8 2.6-4.3c0 0 8.3-1.4 8.8 4 .4 5.4-6.7 14.8-6.9 14.8S46 355.1 46 355.1zM58.7 353.8s2.7-1.5 2.8-2.5c0 0 7.6-.7 8.2 4.5l-6.9 12.6-4.1-14.6zM-71.5 367.7c.1-.2 2.9-7.1 2.9-7.1l4.4 10.8-7.3-3.7z"/><path class="nav-mouth-19-st-1" d="M-59.4 373.3s1.1-9.2 2.2-11l6.8 14.1-9-3.1zM-38.8 373.9s-1.7 2.6-4.1 2.6c-2.4 0-4.7-1.5-4.8-4.9-.1-3.4 2.7-12 2.7-12l6.2 14.3zM-35.9 374c0-2.2 4.5-13 4.5-13s6.5 14.2 6.5 14.5-3.1 4.3-5.7 3.7c-2.6-.7-5.3-3-5.3-5.2zM-9.4 376s-6.6-16.2-6.9-16c-.3.2-4.6 12.3-5.1 14-.5 1.7.3 7.2 5.7 6.8 5.4-.5 5.3-1.7 5.3-1.7l1-3.1zM-6.6 376.4s5.8-11.2 6.1-13.7c0 0 4.2 11.8 4.2 13.8s-1.2 5-5 5.2c-3.8.2-5.9-2.9-5.3-5.3zM6.7 376.9s8.2-11.3 8.1-12.9c0 0 5.1 10.2 2 14.8-3.1 4.6-11 4.2-10.1-1.9zM22.3 377.6l7.4-13.7s5 9.6 2.8 13.4-8.4 4.7-10.2.3zM37 376.1l7.3-13.7s4.8 9.6 3.8 12.1-7.7 8.4-11.1 1.6zM51.9 376.1l6.2-10.9s1.8 7.2.9 8.3c-.9 1.2-7.1 2.6-7.1 2.6zM67.7 370.1l3.9-8.7 1.8 6z"/><path class="nav-mouth-19-st-0" d="M-62.8 343.7l25.3-1.8 28.6.3 9.8 5.1 6-3.8 61.4 2.5s-25.1-5.2-30.9-6.8c-5.8-1.5-21.5-10.1-23.2-13.8L1 333.7s-.3-2.6-12.8-7.8c0 0-20.4 9.2-26.3 10.7-6 1.5-24.7 7.1-24.7 7.1zM-30.8 381.3s31.5 7.1 58.1 2.1c0 0-7.2 3.4-8.5 10.2-1.3 6.8-2.8 17.9-17.9 17.5-15.2-.4-16.5-8.9-17.7-12-1.2-3.1-1.5-10.9-14-17.8z"/><path class="nav-mouth-19-st-2" d="M-102.4 350.3l18.9-2.4s2.2 2.5 5 2.2 6.4.4 6.4.4.9 2.4 2.2 2.4h1.9l5.2 10.2 4.3-11.2 2.7.9 4.5 13.3L-46 353l2.5.7 5.6 15.3 5.5-15.2 2.8.3 5.9 16.6 5.8-17.5 2.5.2 8 18.5L.3 352l5.5 19.9 8.9-17 1.9-.7 4.1 18.1s7-13.1 7.8-17.1H31l4.7 14.7s7.6-11.3 8.2-13.9l2.2-.7 4.4 14.4s6.9-9.9 7.4-13.5l.9-1.7 1.5 2.4 2.5 11.6 6.8-11.8s3.5-.1 4.3-1.6 2-4.3 3.8-3.7c1.8.6 7.1-1 8.1-3.7l20.4 2.3s-21.3 13.5-32.7 17.5l-2-6.5-3.8 9.2s-8.2 4.2-8.4 4.1-.3-7.3-1.2-9l-6.2 10.9-5 2.1s2.4-3.4.4-8.5-3.1-8.7-3.1-8.7l-6.8 14H33s-1.8-8.6-3.2-10.6c0 0-6.8 13.3-7.4 13.1-.6-.2-4.6-1.7-4.6-1.7s-.6-8.4-3-11.9l-8.1 12.9-2.2-.9-4.6-14.1-5.8 14-3.4 1.1-7.1-17-5 15-3.9-.4-6.2-13.6s-4.8 11-4.5 13l-2.8.3-6.2-14.8s-4.2 8.9-3 13.5l-3.5.2-5.7-11.1s-2.3 5.5-2.3 7.1.4 4.4.4 4.4l-5-2.4s-4.8-11.2-4.8-10.8-2.5 7.1-2.5 7.1-21.9-8.1-31-17.2z"/><path class="nav-mouth-19-st-3" d="M-83.5 346.8s45.5-7.2 74.3-4.6L1 347.3s6.7-3.8 6.4-3.8c-.2.1 65.8 1.4 77.4 3.9 0 0 .4 2.4-1.8 3.1-2.2.7-6.4-.2-7.6 1.4-1.2 1.7-3.7 4.6-5.7 4.2 0 0-.9-5-5-5s-7.1 3.7-7.1 3.7-1.8-4.8-5.1-4.5c-3.3.2-4.4 1.2-4.4 1.2s-2.5 3.8-4.2 4c0 0-1.2-5.8-6.1-5.8-4.9 0-6 2-6 2s1.2 4-3.1 3.8c0 0-2.7-7.9-10-5.4 0 0-.8 4.2-3.6 4-.3-.2-1.2-6-6.8-6.1s-8.5 4.2-8.5 4.2-4-5.6-8.9-5.6-6.2 6-6.4 6-5.7.6-4.8-3.8c0 0-10.2-.6-9.7 4.4-.2-.1-4.6.9-3.5-4.1 0 0-2.8-2.8-5.9-1.7-3.2 1.1-4.2 4-4 5.8 0 0-1.7.7-2.7-1.4-1-2.1-1.9-3.9-1.9-3.9s-3.2-1.2-5 .3c-1.8 1.5-3.1 4.4-3.1 4.4s-3.3-.9-3.4-3.8c0 0-1.7-1.2-4.1-1.1-2.4.2-4.2 4.6-4.2 4.6s-2 1-3.5-.7-1.4-2.3-3.4-2c-1.7.7-8.1.6-8.8-2.8zM-51.2 375.8l-.2-2.4 2.9-.7s2.1 3.8 4.5 3.6c2.4-.2 4.5-.9 5.6-2.2 1.1-1.3 2.6-.2 3.2 1.5.6 1.7 2.8 4.5 5.2 3.8 2.4-.8 5.8-4.4 6.8-4.3 1 .1 1.4 2.3 2.3 3.5.9 1.2 5.9 4.1 9.6 2.1 0 0 2.6-5 4.8-4.1 0 0 .3 5.6 5.3 5.3s6.1-5.5 6.1-5.5 1.8.5 1.7 1.8c-.2 1.3 1.9 3.9 5.3 3.8 3.4-.1 5.2-2.5 5.9-5.1 0 0 3.8-.4 3.8.9.1 1.3 2.9 2.7 5.5 2.4 2.6-.2 5.1-1.4 5.7-4.2 0 0 2.9-.8 3.8.5.8 1.2 3.9 3.3 7 2.6 0 0-19 7.5-45.1 5.9-26.2-1.6-49.7-9.2-49.7-9.2z"/><path class="nav-mouth-19-st-4" d="M52.2 429.3c-1.3-.7-2.8-1-4.2-1-1.4 0-2.6.3-3.6 1-.2-.1-.6-.3-1-.4-.2-.1-.5-.1-.8-.1h-.9c-.3.1-.6.1-1 .2-.3.1-.6.2-.9.4-.3.1-.5.4-.8.5-.2.2-.4.4-.6.7-.2.2-.3.5-.5.7l-.3.6c-.2.4-.3.8-.3 1-.1.2-.1.4-.1.4s.1-.1.2-.3c.2-.2.3-.5.6-.8.1-.1.3-.3.4-.5.2-.1.4-.3.5-.4.2-.1.4-.2.6-.4.2-.1.4-.2.7-.2.2 0 .4-.1.7-.1h.6c.2.1.4.1.6.2.1 0 .1 0 .2.1-.5.6-.9 1.3-1.2 2.1-1.9 5-.5 8.8 3.8 10.9 1.1.5 2.3.8 3.5.8 2.1 0 3.9-.8 5.2-2.1v.4c0 .3 0 .6-.1.9-.1.3-.1.6-.2.9-.1.3-.2.6-.4.9-.1.3-.3.5-.5.8-.2.3-.4.5-.6.7l-.6.6c-.2.2-.4.4-.6.5-.2.1-.3.2-.5.3-.3.2-.4.3-.4.3s.2 0 .5-.1c.2 0 .4-.1.6-.1.2 0 .5-.1.7-.3.3-.1.6-.2.9-.4l.9-.6c.3-.3.6-.5.8-.8.3-.3.5-.7.7-1 .2-.4.4-.8.5-1.2l.3-1.2c.1-.8.1-1.5 0-2.1-.1-.6-.2-1.1-.3-1.4 0-.1-.1-.2-.1-.3 1.7-5 .6-8.3-3-10.1zm1.4 9.8c-.6 2.1-2.5 3.5-4.9 3.5-.9 0-1.8-.2-2.6-.6-3.5-1.7-4.4-4.4-2.9-8.4.8-2.1 2.5-3.3 4.8-3.3 1.1 0 2.2.3 3.3.8 2.7 1.4 3.4 3.8 2.3 8zm72.6-94.2c-1.7.4-3.7.9-6 1.4-2.3.5-5 1-7.8 1.4-.7.1-1.4.1-2.2.2-.7 0-1.5.1-2.3.1-1.5 0-3.1-.2-4.8-.3-3.4-.3-6.9-.6-10.6-.9-6.1-.5-12.4-1-18.9-1.5-7.5-1.2-22.2-4-33.6-6.6-13.3-3-24.8-14.1-24.9-14.2l-.7-.6-13 8.1c-3.2-2.9-11.7-6.7-12.7-7.2l-.4-.2-.4.2c-.8.3-20.3 7.8-26.2 10.7-4.2 2.1-20.6 5.7-28.8 7.4-1.4.2-2.8.4-4.2.5-2.6.3-5.2.8-7.7 1.2-2.6.4-5.1.9-7.7 1.3-2.6.5-5.1.9-7.7 1.4l-7.7 1.5c-2.6.5-5 1-7.6 1.5-2.3.4-4.7-.1-6.9-1-2.2-1-4.4-2.3-6.4-3.8-2.1-1.5-4.1-3.1-6.1-4.7 1.3 2.3 3 4.4 4.9 6.3 1.9 1.8 4.2 3.4 6.7 4.5.6.3 1.3.5 1.9.7.7.2 1.4.3 2 .5.7.1 1.4.2 2.1.2.7 0 1.5 0 2.2-.1 2.1-.3 4.3-.7 6.5-1.1 3 2.7 13.2 9.7 27.1 16.1 9.8 4.5 23.3 9.7 40 13.5 4.5 1 13.9 5.7 16.1 12.7l.6 2.1c.5 1.8 1.1 3.7 1.9 5.5-.4 0-.8-.1-1.2-.1-.7-.1-1.5-.2-2.4-.3-.9-.1-1.8-.3-2.8-.4-1-.2-2.1-.4-3.2-.5-2.2-.4-4.5-.9-6.8-1.4-4.6-1.1-9.2-2.4-12.6-3.5-3.4-1.1-5.6-2-5.6-2s2.1 1 5.5 2.4c3.3 1.3 7.9 2.9 12.4 4.3 2.3.7 4.6 1.3 6.8 1.8 1.1.3 2.2.5 3.2.7 1 .2 2 .4 2.8.6.9.2 1.7.4 2.4.5.7.1 1.3.2 1.9.3.3.1.6.1.9.2 2.6 4.4 7.1 7.9 17 8.2h.9c8 0 12.3-3.2 14.6-7.1.3 0 .7-.1 1.2-.1 1.1-.1 2.8-.3 4.7-.6 3.9-.6 9.1-1.5 14.2-2.9 5.1-1.3 10-3 13.7-4.4.9-.3 1.7-.7 2.5-1 .7-.3 1.4-.6 1.9-.8 1-.5 1.6-.7 1.6-.7s-.6.2-1.7.6c-.5.2-1.2.4-1.9.7-.8.3-1.6.6-2.5.9-3.7 1.2-8.7 2.6-13.8 3.6-5.1 1-10.2 1.7-14.1 2.1-1.8.2-3.4.3-4.5.3 1.1-2.6 1.5-5.2 1.9-7.2.1-.6.2-1.1.3-1.6 1-5.1 5.2-9 10.9-10.4 12.2-2.6 25.3-6.9 39.1-13 19.7-8.7 34.6-18.4 37.8-20.5h.2c1.7 0 3.2-.2 4.7-.4 3-.5 5.6-1.2 7.9-1.9 2.3-.7 4.3-1.5 5.9-2.1 1.6-.6 2.8-1.2 3.7-1.6.8-.4 1.3-.6 1.3-.6s-2.2.2-5.5 1.1zm-42.6 3.6c-1.2 1.5-4.1 1.7-5.9 1.6-3-.1-3.5 1.5-4.1 3-.1.3-.2.5-.3.8-.2.6-1.5.9-2.6 1-.2-1.4-1.1-2.6-2.6-3.5-1.5-.9-3.7-1.4-5.9-.9.1-.5.1-.9 0-1.3 0-.5-.1-.8-.2-1.1-.1-.2-.1-.4-.1-.4s-.1.1-.1.4c-.1.2-.2.6-.4.9l-.3.6c-.1.2-.2.4-.4.6-.2.4-.6.8-.9 1.1-.2.2-.4.3-.5.5l-.5.5c-.2.2-.5.4-.7.6-.5-1.2-1.5-2.2-2.8-2.8-2-.9-4.6-.8-6.3-.2v-.2c0-.3-.1-.6-.1-.9-.1-.5-.2-1-.2-1.3-.1-.3-.1-.5-.1-.5s0 .2-.1.5-.1.7-.2 1.2c-.1.2-.1.5-.2.8-.1.3-.2.6-.3.8 0 .1-.1.2-.1.3h-.1c-.2.5-.4.9-.6 1.3-.1.3-.3.5-.5.7l-.6.6c-.2.2-.4.4-.6.5-.1.1-.2.2-.3.2-.3-2.2-2.2-4.1-5.3-4.8-2.7-.6-5.6-.4-7.5 1 0-.1-.1-.2-.1-.3-.1-.3-.2-.6-.2-.9-.1-.3-.1-.6-.1-.8-.1-.5 0-.9 0-1.3.1-.3.1-.5.1-.5s-.2.1-.4.3c-.1.1-.3.3-.4.5-.1.2-.3.5-.4.8-.2.6-.4 1.3-.4 2.1s0 1.6.1 2.3c0 .4.1.7.1 1v.5c-.1 0-.2.1-.4.1s-.4.1-.6.1c-.3-2-1.6-3.7-3.6-4.7-2.1-1.1-4.7-1.3-6.7-.5-.1-.2-.1-.4-.2-.6-.4-1.2-.8-2.3-.7-3.3 2.3 0 4.9.1 7.8.2 5.9.2 12.7.5 20.1.9 7.4.4 15.2.9 23 1.4 4.9.4 9.7.8 14.4 1.1zm-15.2 7.1c-.1 1.8-2.8 6.5-5.1 10.1l-2.7-11.6c.2-.3.4-.5.6-.8 2-1.1 4.3-.8 5.7.1.5.2 1.6 1 1.5 2.2zm-12.1 0c-.1 3.9-3.5 8.9-5.5 11.5-1-3.9-2.9-10.5-3.4-12.2l.1-.1c.2-.3.4-.6.6-1 .1-.4.3-.7.4-1.1.1-.2.1-.5.2-.7l.3.3c.6-.6 3.2-1 5.2-.2 1.5.7 2.2 1.8 2.1 3.5zm-23.2-1.9c0-.2-.1-.4-.1-.6 0-.1 0-.2-.1-.3.6-1.4 3.5-2 6.2-1.3.9.2 4 1.2 3.5 3.6-.6 3.2-4.6 9.4-6.7 12.6L32.4 356c.4-.3.7-.9.7-1.4.1-.4 0-.8 0-.9zm-2.6.3c0 .1 0 .1 0 0 0 .1 0 0 0 0zm-10.7-2.7c1.4-.6 3.5-.5 5.1.3.9.5 2.4 1.5 2.4 3.6.1 3.1-3.6 10.2-6.1 14.5l-3.6-15.1c1.2-.5 2.2-1.4 2.2-2.9v-.4zm-57.2-13.7c5.3-2.7 22.5-9.3 25.5-10.4 3.2 1.4 10.5 5 12.1 7l.6.8 13.3-8.4c2.7 2.5 13.1 11.5 25.3 14.2 4.4 1 9.4 2 14.2 3-2.5-.1-5-.3-7.4-.4-3.7-.2-7.3-.4-10.6-.5-3.4-.2-6.6-.2-9.5-.3-3 0-5.7-.1-8.1-.1h-6.2c-1.2 0-2.2.1-3 .1.3-.3.5-.6.8-.9.4-.5.8-.9 1.1-1.4.3-.5.7-1 1-1.5-.5.4-.9.7-1.4 1.1-.5.3-.9.7-1.4 1-.9.8-1.9 1.4-2.9 2-1 .6-2 1.1-2.9 1.7l-1.5.9c-.3.2-.5.4-.8.6l-9.2-5-.2-.1h-.3l-7.8-.4c-2.6-.1-5.2-.1-7.8-.2-2.6-.1-5.2 0-7.8 0-2.6 0-5.2.1-7.8.3-2.6.1-5.2.3-7.8.5h-.4c4.7-1.4 9-2.6 10.9-3.6zm45.2 9.3c-3.3.2-6.2 2.4-7.6 3.6-1.5-1.6-4.9-4.6-8.6-4.6-2.9 0-5.7 1.2-7.1 3.1-.6.8-1 1.8-1 2.7-.5.1-1.2.1-1.6-.2-.2-.1-.4-.3-.5-1-.1-1.1.2-2.2.5-3.4.3-1.3.7-2.7.4-4.1h.9l7.5.2 9.6 5.2.5.3.5-.3c.6-.3 1.1-.5 1.6-.8.5-.3 1-.6 1.5-1 .7-.5 1.4-1.1 2-1.6v.1h9.5c-.1 1.5.4 2.9.9 4.1.3.9.6 1.8.6 2.5 0 .5-.7.8-1.5 1-.1-.9-.5-1.7-1.1-2.6-1.4-2.1-4.2-3.4-7-3.2zm5.8 7.4c-.3.9-4.5 10.1-7.4 14.9-2.8-10.5-4.1-14.9-4.8-16.7 1-1 3.6-3.1 6.5-3.3 1.9-.1 4 .8 5.1 2.3.5.7 1 1.7.6 2.8zm-14.8-2c-.6 1.3-1.5 3.9-3.3 9.1-.9 2.6-1.9 5.5-2.7 7.4-2-4.5-6.2-13.9-6.8-16.1-.3-1 .1-1.8.5-2.3 1-1.4 3-2.2 5.2-2.2 3 0 5.9 2.9 7.1 4.1zm-17.9 1.3c-.9 3.6-2.7 10.5-4.3 14.4-1.6-4.2-4.6-12.4-5-15.2-.1-1.1.8-1.8 1.6-2.2 2-1.1 4.8-1 5.8-.3v.5c.2 1.5.9 2.2 1.6 2.6.1.1.2.1.3.2zm-36.5-9l3.9-.4 3.9-.3c2.6-.2 5.2-.4 7.7-.5 2.6-.1 5.2-.3 7.8-.3 2.6-.1 5.2-.2 7.8-.2h4.5c.4.9.2 2-.2 3.6-.1.4-.2.9-.3 1.3-2.1-.8-5.1-.4-7.2.7-1.9 1-2.9 2.5-2.8 4.3-.1 0-.2 0-.3-.1-.5-.1-.9-.4-1.1-.7-.1-.1-.2-.3-.2-.6 0-.5 0-.7.1-1.1v-1.2c0-.4.1-.8.1-1.2.1-.8.1-1.6 0-2.3-.1-.7-.3-1.2-.4-1.6-.2-.3-.3-.5-.3-.5v.6c0 .4-.1.9-.2 1.5s-.4 1.2-.7 1.8c-1.6-1.3-4-1.7-6.3-.8-2.8 1-4.6 3.2-4.5 5.5h-.1c-.1 0-.2-.1-.3-.2-.1-.1-.2-.2-.2-.5 0-.1-.1-.2-.1-.3v-.5c0-.3-.1-.7-.1-1.1-.1-.4-.2-.7-.4-1-.1-.3-.3-.6-.4-.9-.3-.6-.6-1.1-.9-1.6l-1-1.5s0 .7.1 1.8v.7c-1.7-.8-3.6-.6-5.3 0-2 .8-3.4 2.3-3.8 3.9-.3-.1-.6-.4-.7-.8-.3-1.2-.8-3.6-1.2-5.3l3.1-.2zm21 6.9c0 .6.2 1.2.5 1.8l.3.3c-.7 1.8-3 7.6-4.3 11.8-1.8-4-3.8-10-4-13.2-.1-1.6 1.4-2.9 2.9-3.4s3.5-.5 4.7 1c0 .1 0 .1-.1.2v1.5zm-12.5.9c-.6 1.1-1.7 3.9-4.2 10.7-1.2-3.2-2.9-8.3-3.4-10.7-.3-1.2 1-2.5 2.4-3 1.4-.6 3.4-.6 4.6.9.1.3.2.6.3 1 0 .2.1.4.1.6 0 0 .1.2.2.5zm-12.8-1.7c.1.3.2.6.3.8-1.1 3.5-2.3 7.3-3.1 9.6-1.5-3-3.5-7.4-3.8-9.4-.2-1.2 1.1-2 1.5-2.2 1.4-.7 3.4-.8 4.9.5 0 .2.1.5.2.7zm-18.8-3.1c2.6-.4 5.1-.8 7.7-1.1 2.6-.4 5.1-.7 7.7-1l2.2-.3c.1.5.2 1.1.4 1.7-1.9-.6-3.9-.3-5.3.4-1.9 1-2.9 2.6-2.8 4.4-.5 0-1.2-.1-1.6-.8-1.1-2-2.1-2.3-3.5-2-.3.1-.5.1-.8.1-2.7 0-5-.4-6.5-1.1.8-.1 1.7-.2 2.5-.3zm8.4 20.3c.1-1.3.8-3.1 1.5-4.6.7 2 1.7 4.4 2.3 6.2-1.3-.5-2.5-1-3.8-1.6zm12 4.7c-.2-2.8.4-5.6 1-7.6 1.3 3.4 3.1 7.1 4.4 9.4-1.9-.6-3.7-1.2-5.4-1.8zm2.3-11.4l-.7-3.2-1.4 3c-.1.2-2.5 5.3-2.4 10.8-1-.4-1.9-.7-2.8-1.1-.7-1.8-3.3-8.5-4-10.6l-.8-2.5-1.3 2.3c-.3.5-2.3 4.1-2.9 7.1-14.4-6.5-23.8-12.9-27.5-15.7 4.5-.8 9.1-1.7 13.6-2.5.7-.1 1.3-.2 2-.3 2.1 2.4 6.8 2.9 9.6 2.9.6 0 1-.1 1.3-.2.1 0 .3-.1.3-.1s.2.1.7.9c.9 1.6 2.2 2 3.5 2 .2 0 .5 0 .7-.1 1.3 4 4.4 10 4.6 10.3l.8 1.6 1.1-1.4c.8-1.1 3-8 4.1-11.4.3.1.6.2.8.2 1 4.1 4.4 13.2 4.5 13.6l1.1 2.9 1.1-2.9c1.5-4 3.8-10.2 4.8-12.5.5.2 1 .3 1.3.3.9 4.7 3.6 11.7 5.4 14.7l1.7 2.7.5-3.1c.5-3 3.6-11.2 4.7-14h.1c.6.2 1.1.2 1.5.3 1.4 5.4 5.4 15.6 5.6 16.1l.8 2.1 1.2-1.9c2.1-3.2 4.9-14.1 5.7-17.4.3 0 .6 0 .8-.1 1.5 4.2 7.6 17.6 7.8 18.2l1 2.1 1.1-2c.5-1 1.8-4.6 3.8-10.1.8-2.3 1.7-4.9 2.4-6.8 1.2 4 3.3 11.7 4.7 16.9l.6 2.3 1.4-1.9c2.5-3.3 7.5-13.8 8.8-16.9l4.7 19.7c-.4-.1-.7-.1-1.1 0 .2-5.2-3.5-12.1-3.7-12.5l-1.3-2.4-.8 2.6c-1 3.2-5.5 9.9-7.3 12.5-.4-.2-.8-.4-1.1-.5-.9-3.5-3.9-13.4-4-13.9l-1.2-4-1 4.1c-.7 2.7-3.8 10.3-5.6 13.2-.4.1-1 .2-1.6.5l-7.8-18.1-1 2.7c-.2.5-4 10.8-5.1 14.4-.4-.1-.7-.2-1-.2-.4 0-.7.1-1 .2-2-4.1-5.5-11.6-6-13.6l-.7-3.6-1.5 3.4c-.2.4-3.4 8-4 12.4-.3-.1-.5-.1-.8-.1-.4 0-.8.1-1.2.2-1.8-3.5-5-10.4-5.3-12.9l-.5-3.9-1.7 3.5c-.2.3-3.5 7.2-3.1 12.4-.8 0-1.6.3-2.2.7-1.7-3.2-4.1-8-4.8-11.4zm72.7 15.1c-.4 2.1-1.5 3.7-3.1 4.3-1.7.7-3.8.2-5.9-1.3v-.6c0-.3 0-.6-.1-.9 1.1-1.6 5-7.2 7-11.3 1.1 2.5 2.7 6.8 2.1 9.8zM-1.4 383c2.2 0 4.1-.8 5.3-2.3.7-.8 1.1-1.8 1.3-2.8.1.2.1.4.1.7 0 2.4 1 4.2 2 5.4-2.1 0-4.3 0-6.4-.1-3.6-.2-7.2-.4-10.7-.8.3-.8.4-1.6.4-2.4 0-.6.1-1.2.2-2 .1-.7.6-1.1 1.2-1.4 0 .8.2 1.5.6 2.3 1.2 2.2 3.4 3.4 6 3.4zm-3.9-6.6c1.3-2 3.6-7 5.1-10.8 1.1 3.8 2.8 9.5 3.2 11 .2.9-.1 2-.7 2.8-.5.7-1.5 1.5-3.3 1.5-2 0-3.5-1.2-4-2.1-.5-.9-.7-1.8-.3-2.4zm-5.1.1c-.5.5-.8 1.2-.9 2v.3c-.9.7-2 1-5.1 1.2-1.2.1-2.3-.4-3.1-1.3-.8-1-1-2.3-.7-3.6.6-2.2 2.8-8.2 4.1-11.7l5.7 13.1zm-39.3-1.1c-.1-.1-.2-.4-.5-.9.6-.3 1.2-.6 1.7-.3.4.8.9 1.5 1.6 2-1-.2-1.9-.5-2.8-.8zm6.9 0c-1.7 0-3.5-1-3.9-3.1-.5-2.6.6-6.3 1.6-8.9 1.4 3.9 4 9.1 4.9 10.9-.6.8-1.7 1.1-2.6 1.1zm8.4 4c-.3-.1-.7-.2-1-.2-2.2-.5-4.3-1-6.4-1.5 1.7-.3 3.1-1.2 3.7-2.6.1-.1.4-.2.6-.2.3 0 .6.2.9.6.3 1.2.9 2.2 1.7 3.1.5.5 1.1.9 1.7 1.3-.3-.3-.8-.4-1.2-.5zm1.3-2.6c-.8-.8-1.3-1.9-1.2-3.1 0-2.2 1.6-6.6 2.8-9.7 1.6 4 4.5 9.9 5.5 12-.4.5-1.4 1.3-3.1 1.9-.4.1-.7.2-1.1.2-1.1 0-2.1-.5-2.9-1.3zm4.8 3.3c3.4-1.2 4.5-3.2 4.7-3.4l.1-.4c.1 0 .1-.2.2-.2.2 0 .5.3.7.4.1 1.3.5 2.5 1.3 3.5 1.1 1.4 2.8 2.2 4.6 2.2h.4c2.1-.1 3.5-.3 4.7-.7-.1.5-.2 1-.5 1.5-6.2-.7-12-1.6-17.6-2.6.4-.1.9-.2 1.4-.3zm45.9 13.5c-.1.5-.2 1.1-.3 1.7-1 5.9-2.6 14.7-15.4 14.7h-.8c-13.7-.4-15.8-7.2-17.9-14.5l-.6-2.1c-1.3-4.2-4.8-7.6-8.4-10 8.3 1.4 17.2 2.5 26.7 2.9 1.5.1 3.1.1 4.6.1 5.6 0 11.4-.5 17.4-1.4-2.7 2.3-4.6 5.2-5.3 8.6zm-7-9.6c-.2-.2-.9-.6-1.5-1.4 1 .4 2 .6 3 .6.8 0 1.6-.1 2.4-.4 2-.8 3.5-2.5 4.3-4.9.6-.1 1.5-.2 1.7.3.1.2.2.4.2.6.5 1.1 1.2 2.8 2.4 4-4.2.5-8.4 1-12.5 1.2zm11.4-7.6c-.4-.5-1-.7-1.6-.8l1.3-2.2c.7-1.2 6.7-10.9 7.8-16.6h.7l4.8 16.1 1.4-1.9c.2-.3 5-7 7.3-12.2l-.6 2.9c-.7 3.4-5 10.5-6.6 13-.7-.2-1.5-.4-2.3-.2-.1-4.5-3.1-10.5-3.5-11.2l-1.3-2.5-.8 2.7c-1.2 3.7-5.1 10.4-6.6 12.9zm1.7 1.6c1.4-2.3 4.3-7.2 6-11.2 1.2 2.9 2.7 7.1 2 9.3-.6 2.1-2.1 3.3-4.1 3.3-1.2 0-2.5-.4-3.8-1.2-.1-.1-.1-.1-.1-.2zm2.8 4.1c-.6-.1-1.1-.4-1.5-.8.9.3 1.8.4 2.6.4 2.9 0 5.2-1.7 6.2-4.5.9-.7 1.8-.4 2.3-.1.5 1 1.1 1.9 2 2.4-3.9 1-7.8 1.9-11.6 2.6zm20.2-7.4c-.3 1.5-3.1 3.4-5.5 3.4-1.4 0-2.4-.6-3-1.8 1.1-1.7 4.4-7 6.1-11.1 1.4 3.5 2.8 7.8 2.4 9.5zm11.4-1.7c-1.3.5-2.7 1-4 1.5 1.1-1.8 2.5-4.2 3.6-6.3.3 1.7.6 3.6.4 4.8zm11.8-4.9c.5-1.1 1.1-2.5 1.7-3.8.3.9.6 1.9.7 2.7-.9.4-1.7.7-2.4 1.1zm4.5-2.1c-.4-2.5-1.7-5-1.9-5.4l-1.3-2.6-.8 2.8c-.7 2.5-3 7.3-3.7 8.7-2 .9-4.1 1.7-6.2 2.5 0-3-1.1-7.1-1.3-7.6l-1-3.4-1.2 3.3c-.9 2.4-5.3 9.6-6.3 11.3-.7.2-1.4.5-2.1.7.2-.4.4-.8.5-1.2.8-3.7-3.3-12.6-3.8-13.6l-1.4-3c.3-.6.5-1.1.7-1.7h.2c.2-.1.5-.2.8-.4.9 3.2 3.2 11.4 3.6 13.3l.5 2.3 1.5-1.7c.3-.3 7.2-8.2 7.5-14.5l3.6 15.4 1.5-2.1c.6-.9 5.5-7.9 6.8-12 1.5 0 4.1-.4 4.9-2.4.1-.3.3-.6.4-.9.5-1.3.6-1.5 1.9-1.5 4.6.2 7.6-1.2 8.5-3.7 2.1.1 4.1.3 6.1.4 3.7.3 7.2.5 10.6.8.3 0 .6 0 .8.1-5.2 3.3-15.8 9.7-29.4 16.1z"/></svg>