<svg xmlns="http://www.w3.org/2000/svg" width="305.834" height="176.833" viewBox="0 0 305.834 176.833"><path fill="#0B3746" d="M200.729 83.311c-1.466-9.223-12.794-15.01-12.794-15.01s-3.574-9.233-10.117-10.806c-5.661-1.36-10.885 3.255-16.299 5.382-5.562 2.185-12.245 2.256-17.42 0-5.331-2.324-10.535-6.221-16.299-5.382-5.038.732-9.984 10.574-9.984 10.574s-11.093 6.019-12.559 15.241c-.95 5.979.793 9.896 5.438 13.602 11.921 9.51 26.303-.866 40.903-.866 14.6 0 31.598 10.807 43.694.866 4.589-3.772 6.387-7.621 5.437-13.601"/><path fill="#D72050" d="M181.315 102.546c6.253-7.015 3.002-13.835-6.332-15.984-3.831-.882-6.333-1.054-10.742-7.379-2.75-3.945-7.436-6.655-12.953-6.233-5.503.421-10.193 4.433-7.404 9.24 2.826-5.025 10.044-4.938 8.991 1.595-.77 4.769-12.368 1.724-21.736 3.457-7.882 1.459-14.954 6.687-7.425 17.275l26.255-5.91 32.217 4.443-.871-.504z"/><path fill="#FCDCA4" d="M121.865 85.641c-.436-.228-.896-.584-1.364-.714.864 4.147.17 9.989-2.104 14.989h9.016c1.337-4.999-.389-11.584-5.548-14.275M153.171 88.917h-6.331l-1.933 12.012 8.264-3.189zM145.861 88.917h-7.383l-1.689 11h7.383zM137.418 88.917h-7.383l-1.689 11h7.383zM186.076 85.641c.436-.228.895-.584 1.364-.714-.864 4.147-.171 9.989 2.104 14.989h-9.016c-1.337-4.999.389-11.584 5.548-14.275M154.171 88.917h6.93l1.634 12.012-8.564-3.189zM162.08 88.917h7.383l1.688 11h-7.382zM170.522 88.917h7.384l1.689 11h-7.383zM126.462 57.917c.451 2 1.188 9.006 1.409 11.559.634 7.311-.1 7.791-2.659 13.406.477.103.959.102 1.451.102 6.701 0 11.34-4.044 10.445-12.777-.13-1.262-1.762-11.289-1.877-12.289h-8.769zM153.171 68.917h-6.652L144.746 57.7l8.425 3.986zM145.54 68.917h-7.384l-1.689-11h7.384zM180.937 57.917c-.451 2-1.188 9.006-1.409 11.559-.634 7.311.101 7.791 2.659 13.406-.477.103-.959.102-1.451.102-6.7 0-11.34-4.044-10.444-12.777.13-1.262 1.762-11.289 1.877-12.289h8.768zM154.171 68.917h6.709l1.744-11.217-8.453 3.424zM161.859 68.917h7.383l1.69-11h-7.384z"/><path fill="#D72050" d="M130.135 58.528c4.937 0 9.484 3.305 14.13 5.354 2.47 1.09 5.298 1.622 8.173 1.622 2.923 0 5.896-.549 8.595-1.622 4.739-1.882 9.244-5.35 14.193-5.35.494 0 .992.035 1.496.109 4.849.714 9.739 6.412 9.739 10.522 0 2.766 10.903 5.635 12.314 14.615.915 5.822-.815 9.571-5.233 13.244-3.669 3.049-7.805 4.093-12.189 4.093-9.534 0-20.244-4.937-29.87-4.937-9.638 0-19.175 4.751-27.92 4.751-4.006 0-7.847-.998-11.452-3.907-4.471-3.607-6.376-7.462-5.234-13.244 2.138-10.829 12.381-11.521 12.088-14.841-.361-4.095 4.761-9.583 9.611-10.297a10.838 10.838 0 0 1 1.559-.112m0-5c-.767 0-1.537.057-2.288.166-6.752.994-13.129 7.582-13.833 13.772-.29.189-.616.395-.893.569-3.286 2.071-9.402 5.927-11.15 14.774-1.447 7.33.777 13.082 7 18.104 4.183 3.375 8.956 5.016 14.592 5.016 4.891 0 9.783-1.241 14.514-2.442 4.677-1.187 9.095-2.309 13.406-2.309 4.225 0 8.888 1.135 13.824 2.336 5.256 1.279 10.691 2.601 16.046 2.601 6.104 0 11.137-1.717 15.385-5.248 5.985-4.976 8.138-10.484 6.978-17.864-1.22-7.768-7.313-11.998-10.953-14.526a59.302 59.302 0 0 1-1.443-1.025c-1.02-6.289-7.389-12.804-13.869-13.758a15.516 15.516 0 0 0-2.224-.161c-4.591 0-8.543 2.019-12.03 3.8-1.404.717-2.731 1.395-4.009 1.902-2.089.829-4.422 1.269-6.749 1.269-2.252 0-4.381-.414-6.156-1.196-1.119-.494-2.271-1.09-3.491-1.721-3.677-1.903-7.843-4.059-12.657-4.059"/><path fill="#0B3746" d="M113.921 67.191l.188-.934c.103-.621.352-1.514.742-2.651.437-1.115 1.028-2.487 2.025-3.914a18.213 18.213 0 0 1 4.133-4.23c1.797-1.29 3.989-2.437 6.563-3.101a13.231 13.231 0 0 1 4.19-.415c1.455.086 2.909.4 4.322.844 2.831.892 5.506 2.283 8.213 3.509.682.312 1.357.596 1.997.836.667.225 1.347.433 2.051.588 1.404.315 2.875.479 4.37.496a22.49 22.49 0 0 0 8.552-1.593c2.652-1.036 5.23-2.624 8.131-3.516a19.493 19.493 0 0 1 4.298-.824 20.798 20.798 0 0 1 4.084.061c2.799.345 5.012 1.636 6.741 2.995a20.19 20.19 0 0 1 4.044 4.289c.992 1.415 1.664 2.753 2.054 3.899.231.559.313 1.101.439 1.542.068.46.114.851.145 1.161l-.031.958-.114-.94a25.668 25.668 0 0 0-.3-1.099c-.185-.413-.328-.908-.624-1.414-1.035-2.054-3.184-4.812-6.587-7.02-.845-.557-1.792-1.01-2.783-1.418-1.012-.321-2.075-.661-3.169-.654-2.323-.071-4.873.253-7.276 1.16-2.429.878-4.838 2.51-7.812 3.802a24.073 24.073 0 0 1-9.822 1.984 22.895 22.895 0 0 1-5.105-.622 21.302 21.302 0 0 1-2.431-.751 30.904 30.904 0 0 1-2.226-.998c-2.793-1.374-5.294-2.81-7.764-3.738-2.472-.949-4.833-1.303-7.101-.867-2.294.4-4.37 1.246-6.118 2.252a17.914 17.914 0 0 0-4.221 3.481c-1.089 1.222-1.817 2.451-2.385 3.471-.521 1.044-.894 1.885-1.085 2.478l-.328.893"/><path fill="#0B3746" d="M119.076 71.096c.07-.002-.535-1.152-.316-3.433.155-1.117.574-2.487 1.442-3.874.864-1.382 2.118-2.799 3.793-4.014a14.052 14.052 0 0 1 2.854-1.629c1.095-.466 2.351-.718 3.617-.771 2.569-.08 5.184.684 7.649 1.716 2.465 1.024 4.901 2.355 7.347 3.326 2.39.916 5.112 1.313 7.883 1.205a22.805 22.805 0 0 0 7.899-1.735c2.513-1.022 4.971-2.281 7.535-3.183 2.541-.908 5.289-1.439 7.827-1.017 2.634.396 4.641 1.797 6.126 3.228 3.006 2.946 3.946 6.407 3.934 8.625l.004.793-.077.691-.067.588-.114.478-.212.858.068-.88c.012-.142.023-.302.038-.478-.008-.178-.016-.37-.023-.58l-.026-.67-.114-.753c-.289-2.095-1.604-5.112-4.525-7.407-1.439-1.123-3.275-2.096-5.267-2.2-2.067-.164-4.279.415-6.547 1.381-2.28.957-4.62 2.3-7.295 3.498a24.09 24.09 0 0 1-9.03 2.136c-3.201.123-6.38-.387-9.226-1.584-2.762-1.21-5.047-2.626-7.311-3.727-2.24-1.104-4.416-1.887-6.483-2.003-1.039-.04-2.014.059-2.924.345a12.94 12.94 0 0 0-2.616 1.16c-1.615.923-2.904 2.069-3.844 3.218a9.565 9.565 0 0 0-1.797 3.361c-.106.518-.243.981-.242 1.397-.029.413-.069.77-.025 1.053l.065.881"/><path fill="#0B3746" d="M113.921 67.792l-1.428.951c-.931.629-2.334 1.525-3.959 2.884-1.59 1.371-3.472 3.219-4.741 5.882-.682 1.301-1.107 2.827-1.429 4.448-.116.824-.26 1.664-.269 2.548-.076.874-.027 1.781.008 2.706.093 3.628 1.882 7.395 4.723 10.574a20.055 20.055 0 0 0 11.513 6.462c4.687.784 9.817-.012 15.121-1.175 2.657-.568 5.391-1.227 8.225-1.765 2.829-.541 5.771-1.003 8.829-1.051 6.149-.13 11.844 1.294 17.182 2.473 2.671.597 5.275 1.164 7.822 1.576 2.544.369 5.04.647 7.445.562 4.828-.106 9.181-1.635 12.747-4.11 1.778-1.214 3.347-2.596 4.637-4.098 1.277-1.511 2.246-3.161 2.846-4.855 1.226-3.385.819-6.895.11-9.733-.749-2.861-2.114-5.097-3.404-6.763-1.298-1.673-2.474-2.85-3.26-3.649l-1.218-1.209 1.316 1.102c.852.736 2.12 1.817 3.567 3.42 1.437 1.597 3.029 3.816 4.021 6.791a21.686 21.686 0 0 1 1.017 4.883c.16 1.786.034 3.738-.543 5.678-.568 1.94-1.562 3.851-2.891 5.591-1.343 1.731-2.986 3.319-4.856 4.721-3.672 2.83-8.675 4.826-13.962 5.078-2.645.174-5.322-.051-8.013-.375-2.684-.367-5.364-.896-8.065-1.452-5.38-1.103-10.876-2.385-16.423-2.254-2.774.039-5.549.455-8.292.957-2.746.496-5.461 1.111-8.185 1.647-2.727.518-5.435 1.03-8.18 1.211-2.735.176-5.478.144-8.119-.402-5.292-1.088-9.808-4.099-12.738-7.758-2.971-3.617-4.775-7.97-4.659-12.031.016-.983.021-1.941.154-2.876.067-.935.272-1.833.451-2.704.448-1.721 1.011-3.323 1.829-4.668 1.544-2.751 3.643-4.523 5.36-5.798 1.756-1.257 3.227-2.039 4.207-2.591l1.504-.828"/><path fill="#0B3746" d="M119.784 73.792l-4.337 3.326c-1.352 1.093-3.073 2.443-4.338 4.469a9.899 9.899 0 0 0-1.323 3.514c-.244 1.366-.433 2.812-.333 4.27.057.727.184 1.451.405 2.156.237.699.573 1.371.998 2.007.43.635.978 1.213 1.573 1.766.606.549 1.337 1.002 2.065 1.474 1.437.975 3.117 1.595 4.868 2.071 1.792.344 3.674.549 5.649.373 3.941-.228 8.087-1.393 12.467-2.544 4.369-1.157 9.091-2.326 14.171-2.411 5.092-.016 9.795 1.121 14.203 2.17 4.407 1.071 8.58 2.164 12.567 2.577 3.975.451 7.762.09 10.925-1.323 1.56-.686 3.048-1.648 4.188-2.671a9.15 9.15 0 0 0 2.396-3.733c.917-2.767.441-5.599-.394-7.846l-.332-.83a3.363 3.363 0 0 0-.384-.698 11.934 11.934 0 0 0-1.014-1.254 33.15 33.15 0 0 0-2.059-2.039c-1.294-1.182-2.353-2.047-3.07-2.633l-1.101-.887 1.187.77a59.058 59.058 0 0 1 3.322 2.346 31.207 31.207 0 0 1 2.276 1.893c.399.375.809.774 1.199 1.255.191.228.396.529.538.815l.421.85c1.066 2.308 1.88 5.39 1.027 8.738a10.853 10.853 0 0 1-2.597 4.668c-1.337 1.349-2.84 2.428-4.612 3.34-3.53 1.817-7.874 2.408-12.158 2.078-4.316-.287-8.655-1.296-13.058-2.269-4.396-.961-8.913-1.965-13.45-1.941-9.143.113-17.745 4.2-26.543 4.425-2.183.107-4.363-.202-6.41-.707-2.019-.636-3.931-1.478-5.504-2.662-.796-.577-1.58-1.134-2.266-1.826-.675-.698-1.295-1.438-1.782-2.259a10.356 10.356 0 0 1-1.081-2.571 11.325 11.325 0 0 1-.318-2.606c.001-1.694.324-3.227.678-4.624a10.943 10.943 0 0 1 1.778-3.814c1.58-2.119 3.461-3.319 4.916-4.301l4.647-2.902"/><path fill="#0B3746" d="M156.489 85.425c-.048.017-.146-1.063-.893-2.413-.375-.67-.95-1.365-1.697-1.968a7.305 7.305 0 0 0-2.778-1.273c-.268-.035-.528-.126-.792-.129l-.782-.042c-.509.055-1.013.067-1.474.212-.485.071-.889.307-1.311.447-.389.203-.747.422-1.084.617l-.834.655c-.25.199-.417.418-.584.574l-.509.508.292-.657c.107-.207.204-.489.391-.768l.678-.938c.301-.305.644-.646 1.047-.975.441-.268.892-.632 1.464-.814.547-.259 1.172-.363 1.823-.474l1.005-.01c.342-.003.679.092 1.025.144a6.833 6.833 0 0 1 3.384 1.872c.818.883 1.301 1.858 1.518 2.703.207.848.25 1.541.185 2.011l-.074.718M181.702 89.622s-1.202-.729-3.291-1.456c-2.075-.724-5.029-1.587-8.264-1.791-.755-.028-1.724-.038-2.562-.192a8.356 8.356 0 0 1-2.394-.793c-1.451-.736-2.437-1.794-3.15-2.68a23.343 23.343 0 0 1-1.539-2.208l-.507-.84s.254.239.712.674c.456.432 1.108 1.07 1.941 1.788.833.711 1.863 1.494 3.127 1.967a8.28 8.28 0 0 0 2.05.495c.756.089 1.46.07 2.41.104 3.608.236 6.563 1.579 8.533 2.711a15.858 15.858 0 0 1 2.215 1.546c.244.204.422.375.539.495.119.117.18.18.18.18M208.315 80.822l-.257-.866c-.139-.547-.408-1.323-.752-2.223a25.221 25.221 0 0 0-1.396-2.986 31.255 31.255 0 0 0-2.096-3.248 28.636 28.636 0 0 0-2.525-2.892c-.862-.827-1.721-1.538-2.511-2.079-.381-.306-.77-.495-1.1-.716-.331-.225-.636-.378-.888-.508-.509-.277-.791-.433-.791-.433s.314-.043.904-.082a5.92 5.92 0 0 1 1.079-.002c.417.041.918.045 1.436.179 1.062.196 2.308.625 3.572 1.357a12.581 12.581 0 0 1 3.524 3.151c1.01 1.355 1.659 2.849 2.047 4.234a12.35 12.35 0 0 1 .412 3.767c-.058 1.069-.211 1.912-.389 2.479-.161.568-.269.868-.269.868M97.519 80.822s-.108-.3-.271-.867c-.177-.566-.331-1.409-.388-2.479a12.355 12.355 0 0 1 .412-3.767c.387-1.386 1.037-2.879 2.047-4.234a12.566 12.566 0 0 1 3.524-3.151c1.265-.732 2.51-1.161 3.572-1.357.518-.134 1.019-.138 1.436-.179a5.831 5.831 0 0 1 1.079.002c.59.039.904.082.904.082l-.791.433c-.252.13-.556.283-.887.508-.33.221-.719.41-1.1.716-.79.541-1.648 1.252-2.511 2.079a28.636 28.636 0 0 0-2.525 2.892 31.255 31.255 0 0 0-2.096 3.248 25.063 25.063 0 0 0-1.396 2.986c-.344.899-.614 1.676-.752 2.223-.166.555-.257.865-.257.865M185.437 124.913l-.6-.419c-.392-.274-.946-.694-1.707-1.166a41.084 41.084 0 0 0-6.524-3.479c-5.646-2.477-13.797-4.208-22.964-3.992-4.6.038-8.979.449-12.937 1.09-3.947.679-7.497 1.568-10.421 2.596-2.925 1.016-5.278 2.055-6.864 2.874-.817.378-1.406.746-1.837.959l-.648.34.463-.562c.316-.357.745-.937 1.391-1.581 1.242-1.352 3.218-3.165 5.977-5.043 2.75-1.887 6.342-3.71 10.567-5.11 4.231-1.36 9.089-2.267 14.226-2.312 2.573-.059 5.1.175 7.515.523 2.41.421 4.719.94 6.841 1.707a35.275 35.275 0 0 1 10.431 5.619c2.649 2.075 4.412 4.133 5.508 5.603.563.724.936 1.333 1.196 1.736l.387.617"/></svg>