<svg xmlns="http://www.w3.org/2000/svg" width="305.834" height="176.833" viewBox="0 0 305.834 176.833"><g fill-rule="evenodd" clip-rule="evenodd" fill="#0C3846"><path d="M246.29 55.97c.813-.75.94-2.184 1.333-3.345.832-.73.818-2.304 1.676-3.007-.495-.062-.306-.806-.337-1.34.502-.278.717-.835.666-1.667.532-.03.265-.85 1-.664-.087-.763.083-1.257.673-1.34.19-1.026.088-2.365 1.332-2.34V40.26c1.484-.41.762-3.02 2.342-3.337-.514-1.178.184-1.496-.336-2.677 1.27-.506 1.407-2.155 2.677-2.67-.59-1.123.223-1.713 0-3.337.42-.14.686-.433.666-1.003.4-.944 1.428-1.243 2.004-2.004-.197-1.238-.55-1.94.336-2.677-.266-.07-.393-.28-.336-.666-.443-.56-.88-1.118-.666-2.342-1.077.298-.696-.863-1.337-1.002.26-1.154-.373-1.41-.666-2.005-.494-.392-.52-1.262-1.002-1.668-.736-1.154-1.764-2.022-2.34-3.342-1.365-.305-2.412-.926-3.008-2-1.02.242-1.217-.342-2.004-.335-.03-.635-1.104-.234-1.004-1.002-.665-.006-.425-.914-1.337-.666-1.27-.24-1.605-.23-2.672.33-.856-.972-1.59-.33-3-.33-.647-.476-1.345-.888-2.347-1.003-2.824-.07-4.77-1.015-8.018-.672-1.713-.958-4.732-.608-7.346-.667-.636 1.116-1.43 2.816-.673 4.346-.07.477-.553.56-.66.996-.23.896.012 1.105-.342 1.677-.19.316-.434.398-.662.666.432.056.305.53.33 1 .014.26.332.305.332.338.088.506-.42 1.096 0 1.667.164 4.402-.357 9.496.342 13.365-.28.388-.443.896-.342 1.67-.902-.242.24 1.572-.662 1.338.637 1.808.203 4.688.33 7.01-.553 2.474-1.484 4.04-.33 6.013-.494.286-.723.845-.672 1.676.18.934.495 1.738.673 2.67-.443.788-.146 2.31-.672 3.008.825.285-.1 2.328.673 2.67-.686 1.098-.184 3.388-.342 5.012 1.437.394 2.665-.133 4.353-.33h4.34c-.05-.443.838-.03 1.332 0 .945.05 1.533-.045 2.346 0 1.017.242.98-.576 2.007-.336 1.89.652 5.455-.652 7.676.336.824-.633 2.398-.508 3.344-1.002.494-1.364.018-1.618.334-3.005zM241.28 82.357c.317-1.567 1.017-2.62.33-4.347.9-.438.57-2.104 1.34-2.67v-1.668c.905.234-.235-1.58.665-1.34-.273-.944.47-.862.336-1.667.464-.21.052-1.288.667-1.34v-1.002c-.496-.062-.305-.805-.33-1.33-.646-.477-1.346-.89-2.34-1.003-1.555.322-2.012-.438-3-.672-.965.152-1.055 1.18-2.35 1-.938-.057-1.39-.607-2.332-.664-.742.26-1.31.697-2.336.665-1.142.088-2.716-.262-3.35.336-.66-.007-.42-.914-1.333-.666-1.508.71-4.3.152-6.344.33-.254 1.972-.254 2.7 0 4.675-.52 1.262-.8 2.765-1.002 4.346-.056 1.06.89 1.116.66 2.342.165 1.052-.597 1.18-.33 2.333.458 3.18-.247 5.544.673 8.354-.54.462-.355 1.648-1.002 2.004.737.038.142 1.414.33 2.005.24 1.02-.34 1.216-.33 2.004.856 1.99-.196 4.002.33 6.013-.278.838-.91 1.312-1 2.335-.204.596.976 1.39 0 1.675.14.635.722.838.67 1.668v3.344c2.944.932 5.05.15 8.02.665 1.308-.362 2.448-.89 4.34-.666.862-1.035 2.042-1.746 3.337-2.342-.254-1.378.52-1.714.342-3.008.995-.223.214-2.232 1.33-2.34-.126-1.46.952-1.713 1.003-3.008.045-.817.05-1.604-.33-2.004.496-.28.482-1.072.66-1.668.393-.057.367-.527.344-1.003.367-.07.512-.367.658-.666.115-1.56 1.053-2.29 1.002-4.01.635-.036.234-1.103 1.004-1 .013-.666.913-.426.673-1.34.076-.59-.336-1.667.666-1.33-.223-1.453-1.542-1.796-1.67-3.343zM211.885 55.633c.666-.445.742-1.485 1.002-2.342-.266-.74-.705-1.3-.672-2.333.47-1.384-.287-1.916.672-2.678.127-1.13-1.484-.52-1.002-2.006.742-2.036-.14-5.696 1.002-7.345-.45-.224-.62-.72-.672-1.34.734-.037.14-1.415.336-2.005.24-1.02-.34-1.218-.335-2.004.754-.247.133-1.87.336-2.67v-3.007c.577-1.427.146-3.863.667-5.347-.318-.49-.47-.564-.666-1.333-.16-.62.196-1.604-.335-2.005 1.707-1.7.176-3.312 1.002-6.014-.457-.882-.395-2.277-.666-3.342.052-1.06.757-1.472.667-2.672v-.666c-1.104-.006-.344-1.89-1.002-2.34-1.574-.21-3.287-.28-4.01-1.34-1.484.496-2.066.107-3.338-.328-1.832.393-3.334 1.115-5.01 1.667-3.21-.685-6.863-.773-10.36-.336-1.224-.107-1.845-.825-3.005-1.003-.705.59-.984.756-2.006.338-1.096.012-1.66.564-3 .335-.984.083-1.027-.76-2.004-.673-1.154.146-1.88-.133-2.678-.328-.92.19-1.395.83-2.334 1-1.027.243-.99-.576-2.006-.334-.81.64-1.914.983-3.35 1-.334 1.79 1.238 1.664 1.004 3.345.242 1.45-.965 1.484-1.004 2.67.78.444.52 1.936 1.004 2.672-.496.06-.305.804-.33 1.338v2.003c-.355 1.39-.09 1.473 0 3.008-.395.058-.36.526-.33 1.003-.152.958-1.186 1.04-1.002 2.336-.26 1.59 1.186 1.483 1.002 3.006-.203.8-.482 1.53-.344 2.677.166 1.046-1.02.755-.658 2.004.666 1.18.45 1.174.658 2.67.37 1.48-.557 1.662-.658 2.67.494.286.71.845.658 1.67-.38.938-.38 1.738 0 2.677-.494.286-.71.838-.658 1.67.584 1.382-.3 2.442.33 4.008-.28.39-.445.895-.33 1.67.127 1.427-.33 3.443.33 4.345-.418.133-.686.432-.672 1.002.754 2.138.203 4.11.672 6.014.793.298 1.6.552 2.678.665 1.203.133 2.46-.096 3.666 0 2.244.988 5.797.666 8.018 1.675 1.934.146 3.426-.146 5.012-.337 3.158.444 5.182-.037 8.354.337.096.686 1.48.076 1.34 1.002 1.027-.254.64.914 1.668.666 1.033-.748 2.328-1.236 3.674-1.668 1.723.05 3.768-.21 5.01.33.95-.718 2.627-.718 3.68-1.333-.275-1.865.74-2.956 0-4.344zM176.475 115.096c1.93-.754 3.92.424 5.672-.666.025.502.57.21 1.002.33.99.273 1.3.234 2.34 0 .433.463 1.452.33 2.34.336.636.14.603.958 1.67.666 2.353-.107 2.937.532 4.345 0 .648 1.028 2.803.532 4.01 1.003 1.332-.23 2.27-.845 4.01-.667 1.002-2.112 2.23-4.002 4.338-5.012 1.363-.27 1.154-.05 2.676 0 .806-.748 1.827-1.287 2.67-2.005.07-.26.007-.657.337-.664-.102-1.555 0-2.894.666-3.68-.59-.075-.762-.57-.666-1.332.152-3.38-.584-4.865 0-7.352-.71-1.535-.064-2.91 0-4.34.037-1.033-.254-1.946-.336-2.677.108-.78.4-1.376.667-2.005-.723.06-.152-1.187-.33-1.667v-2.34c.24-1.023-.584-.984-.336-2.006.56-1.687-.247-3.07 0-5.34-.36-1.25.83-.952.667-2.006-.75-.247-.127-1.877-.33-2.676-.04-.958.178-2.183-.336-2.672-.265-.734-1.565-.43-1.667-1.33-1.637-.045-3.527.178-4.682-.337-.47.532-1.147.85-2.003 1-2.146-.265-3.744.902-5.012-.335-.33.45-.89.666-1.334 1.002-.505-1.045-2.56-.557-4.007-.666-2.055.654-4.213.033-6.014.338-1.028.24-.983-.578-2.007-.338-1.078-.074-1.414.59-2.676.338-1.182.176-.818-1.187-2.006-1.002.065.723-1.177.145-1.66.328 0 .184-.278.38-.34 0-.42.02-.46.432-1.005.336-1.648-.26-1.764.008-3.666 0-1.917.152-2.538-.475-4.01 0-.446 2.944-.546 5.02-.345 8.02-.57 2.44.04 4.027-.328 6.68.234 1.098.53 2.137.672 3.343.188 1.084-.23 1.553-.345 2.334.877.443.648 1.483.344 2.34 1.147 1.52.394 4.94 1.333 6.68-.61.394-.268 1.744-.674 2.34.106 1.22-.052 2.17-.33 3.008-.27 1.154.495 1.28.33 2.335-.585.31-.737 1.046-.66 2.005-.966.05-.616 1.395-.673 2.34.076.59.57.76 1.332.666.774-.102.374.97 1 1.002.097 1.136-.253 2.708.345 3.344 1.027.976 3.502.5 5.01 1.002zM161.098 49.954c-.05-.945-.607-1.396-.658-2.34.602-2.195.393-3.61.328-6.014a20.54 20.54 0 0 0 1.004-4.01c.215-1.325-.89-1.345-.674-2.67-.19-1.086.23-1.555.342-2.34-1.166-1.378.104-3.605-.672-5.68.305-.977.305-1.027 0-2.005.496-.285.723-.836.672-1.667.23-1.027.23-.648 0-1.675-.164-1.053.598-1.18.332-2.335-.42-1.14-.584-2.536-1.004-3.68.28-.387.445-.895.33-1.668.584-.203-.025-1.585.674-1.667-.217-1.13-.96-1.714-.674-3.344.457-1.55 1.227-2.79 1.004-5.013-.42-.02-.457-.425-1.004-.33-3.615.395-5.72-.74-9.014-.673-.994.006-1.135.87-2.003 1.003-.577.133-.856-.495-1.003 0-.652-.1-.665.45-1 .674a8.376 8.376 0 0 0-2.672-.673c-1.257.64-3.756.03-5.01.674-.7-.532-2.222-.235-3.008-.673-.698-.196-2.194.412-2.34-.33-.832-.05-1.035.52-1.67.666-.045-.74-1.42-.14-2.005-.336-1.737-.38-3.564-.665-5.347-1.003-.787.66-2.24.66-3.343 1.003v2.34c-.19.692.418 2.197-.33 2.342-.165 1.046 1.027.754.672 1.996.127 1.245-1.358.876-1.003 2.343-.087.976.75 1.026.662 2.002-.68 1.245.12 2.1.342 3.344-.698.082-.095 1.466-.673 1.67.242 1.02-.34 1.216-.33 2.004.54 1.078.153 1.808 0 3.005.47.445.47 1.892 0 2.342 1.193.375-.62 2.2.33 2.335-.476 1.878-.5 3.99-.33 5.677-.456.66-.32 1.908-.67 2.676.595 1.554-.444 3.66.67 5.342-.886.69-.265 1.72-.34 2.678-.026.436-.356.45-.33 1 .005.147.33.452.33.33-.083 1.41-.565 2.45 0 3.68-.636.882-.343 3.064 0 4.01-.103 1.015-1.244 1.998-.33 3.006 1.18.673 3.26-.184 4.675-.336 2.543.52 5.55.615 8.018.336.597.186 1.39.172 1.67.667 1.06.056 1.115-.89 2.34-.668.05.832 1.136.096 1.337 0 .705.293.99 1.017 2.005 1.003.457-.99 2.417-.48 3.338-1.003.785-.012.988.572 2.005.33 1.05-.336 2.004-.043 3.343-.666.63.66 1.58.16 2.34 0 .66.787 2.322.572 3.338 1.003 2.2.196 3.87-.14 5.01-1.004.45-2.645-.272-4.884.33-7.682zM160.102 68.99c-.043-.957.186-2.18-.334-2.67h-4.01c-5.024-1.32-12.674-.02-17.37-1.668-.722.278-1.142.862-2.34.667-2.24.017-4.03-.42-6.015-.668-2.24 1.136-5.055.97-8.012.667-.487 2.078.09 6.613-1 9.02.47.412.628 1.146.66 2.004-.24.868-1.232 2.01-.33 3.006-.635.146-.838.717-1.676.666-.172 1.624 1.42 1.48 1.345 3.008-.522.088-.242.736 0 1.002-.572.545-1.193 1.046-1.676 1.675-.47.838.508 1.03.672 1.332.293.553.318 1.016.66 1.676-.393.825-.482 1.96-.66 3.006-.113 2.684.47 4.02 0 6.344.3 1.592.756 3.026.66 5.012-.146 1.078-.633 1.808-.66 3.007.99 2.73-.615 5.442.33 7.682.966.596 2.996.126 3.68 1.002.04-.736 1.41-.14 2-.33h2.34c1.51.203 2.232.215 4.008.666h4.01c1.054-.057 1.116.888 2.334.666 2.26-.203 3.083.037 5.684 0 .8-.133.724.61 1.67.336.957-.037 2.187.185 2.67-.336.058.394.532.368 1 .336.06.388.535.362 1.004.337 1.053.158.762-1.028 2.005-.673.433.463 1.454.33 2.342.336.07-.406.373-.203.666 0 .5.058 1.23-.12 1.338.337.488-.52 1.707-.3 2.672-.337.48-.527 1.736-.26 1.672-1.338.54.24.54-1.573 0-1.333.104-.774-.057-1.288-.342-1.676.8-.824.014-1.966 0-3.005.61-.744-.02-1.22 0-1.67.014-.21.342-.375.342-.336.027-.515-.418-.324 0-.667.07-.057 0-.89 0-1.002-.012-.158-.328-.438-.342-.336.025-.578.66-.98.342-1.67-.57-1.18 0-1.173 0-2.67-.52-.49-.297-1.713-.342-2.677-.14-.635-.95-.604-.658-1.67-.273-2.27.348-3.653.658-5.34-.596-2.5.26-4.44-.33-7.017.02-1.098.953-1.28.672-2.677.104-1.326-.773-1.676-.672-3.01-.266-1.152.496-1.28.33-2.332.09-.977-.748-1.027-.658-2.005.926.146-.268-1.82.658-1.675.342-.438.33-1.23.674-1.67.203-.018.393-.05.33-.335-.516-.482-1.295-.697-2-1.002zM113.663 51.623c.608-1.802-.127-2.97.342-5.012-.443-1.002-.342-2.556-.342-4.008.05-.62.227-1.117.672-1.34-.646-1.636-.025-4.02.33-5.677-.38-.057-.355-.526-.33-1.003-.102-.45-.477-.633-.33-1.33.508-1.16.292-3.053.33-4.683.393-.5.418-1.364 1.002-1.67.088-1.312-1.206-1.242-1.002-2.67-.266-1.16.495-1.288.33-2.34-.1-.782-.646-1.384 0-2.005.095-.584-.94-1.67 0-2.005.165-1.048-.894-.882-1-1.67.296-.59 1.064-.976.34-1.674v-2.67c.382-.394.376-1.18.33-2.004.394-.06.363-.527.33-1.003.426-.136.686-.433.674-1.003V4.52c-1.334.103-1.675-.773-3.008-.673-1.13.096-1.915.533-3.337.336-1.028.242-.99-.577-2.003-.336h-2.347c-.8-.133-.723.61-1.663.336-.622-.322-1.116 1.002-1.338 0-1.37.527-1.757.514-3.007.666-1.02.24-1.218-.343-2.005-.33-1.794.538-3.812.868-5.677 1.332-.754.14.05 1.833-1.002 1.675-.006.438-.584.305-.672.666-.442 0-.304.582-.665.666.234 1.984-.825 3.425 0 5.01-.64.812-.875 2.02-1.34 3.007.496.927-.183 1.7.337 3.008-.133.87-.995 1.008-1 2.005.005.994.867 1.135 1 2.005-.792.785.057 1.642 0 2.67v4.01c-.362.652-.17 2.346-.667 3.67.38.4.38 1.188.33 2.006-.342.883-.393 2.057-.33 3.345 1.104 2.378.127 5.086-.334 7.682.108.787.527 1.256.335 2.34-.088 1.473-.532 2.582-.334 4.347-1.23.92-.513 3.223 0 4.338 1.39.388 1.3-.703 2.34-.666 2.493.724 3.845-.304 7.015 0 .915-.246.674.666 1.333.666.04-.404.102-.785.672-.666 1.136.71 1.75-.127 3.007.336 1.002.388 1.815-.037 3.337.33 1.6-.742 4.148-.525 5.683-1.33 1.46.284 1.485.068 2.666.328.584-1.085 1.674-1.667 2.003-3.006-.205-1.022-.707-1.74-1.003-2.67zM112.33 112.755c-.178-1.288.596-1.63.33-3.007-.42-1.605.103-3.482.343-5.34-.28-2.755.152-6.123 0-9.693.387-1.384.413-3.14.66-4.676.216-1.327-.874-1.34-.66-2.67.672-2.844-.457-4.842.66-7.355-.874-.734.26-2.22-.33-2.67V73.67c.432-1.58.24-3.775.672-5.35-.545-.79-.75-1.926-1.002-3.004-4.244-.05-6.724.316-10.365 0-.635-.14-.838-.718-1.663-.667-1.053.16-.76-1.026-2.005-.665-.33.03-.672-.045-1.002 0-.24.025-.316.322-.334.33-.21.043-.426-.318-.337-.33-1.472.22-2.474.907-4.338 1.002-1.244.02-2.12-.342-3.008-.672.05.723-1.192.152-1.675.336-.825-.05-1.028.527-1.667.668-.262.74-.705 1.3-.667 2.34.203.02.393.05.33.337-.255.068-.388.277-.33.665v1.668c-.388.394-.38 1.18-.337 2.005-.284.938-1.08 1.37-1 2.672-.108 2.802.525 3.9 0 6.013.88 2.075.144 3.96.666 6.013-.788 3.098-.14 6.188-.667 9.022.4.83.487 1.966.667 3.008-.52 2.062-.7 3.805-.332 6.013-.278.945-.393 2.062-.672 3.007-.012.74.318 1.288.337 2.005.018.716-.324 1.02-.337 1.667-.012.66.23 1.017.337 1.675.26.07.385.28.334.667 1.244.21 1.523 1.363 3.336 1.002 1.586-.133 2.296.596 4.01.336-.05.724 1.186.152 1.675.33 1.015-.242.978.577 2.004.336 1.188.196 2.02.032 3.674.337 1.3.076 1.73-.724 2.67-1.003.052.952 1.397.61 2.336.666 1.933-.963 5.188-.61 7.688-1.002.455-1.06.074-1.117-.002-2.34zM79.59 50.62c.046-.21-.056-.457 0-.666.185-.723.845-.47.668-1.34-.875-.462-.946-1.724-1.333-2.668.838-2.754-.85-6.04.33-9.022-.266-.957-.672-1.775-1.002-2.677.736.064 1.065-.266 1.002-.995-.178-1.852.457-2.894 1.002-4.01-.495-.285-.482-1.078-.667-1.674.495-1.452-.297-2.24.336-3.672-.444-.56-1.89-.115-2.34-.667.234-1.245-.57-1.435-.337-2.678-2.006.215-2.463 1.99-3.673 3.006-.502.502-1.403.604-1.67 1.338-.43.57-.69 1.313-1.673 1.34-.496.5-.596 1.402-1.333 1.668-.482.52-.843 1.16-1.668 1.338-.5 1.505-1.243 2.766-1.338 4.677-.665.335-1.427.575-1.67 1.33-.537.463-1.057.95-1.666 1.338v2.672c-1.56 1.674-2.708 3.755-3.68 6.013-.223.69-.856 1.555-1.002 1.675-.102.083.07.547 0 .666-.102.19-.54.457-.666.666-.653 1.09-1.192 2.093-2.005 3.008.115 3.013-2.333 5.874-.667 8.354 3.598.146 5.14-1.763 8.348-2.005.287.717 2.132-.127 2.342.666 1.712-.926 3.266-.025 5.34-.666.693.19 1.085.952 1.67.336.798.197 1.52.477 2.676.33 1.028.248.64-.912 1.667-.666 1.396.172 2.266-.184 3.008-.665-.384-2.26-.372-4.708.003-6.352zM76.248 65.32c-1.706-.262-2.423.468-4.008.335-2.64-.477-5.336-.896-8.013-1.34-.633.146-.836.724-1.667.673-1.118-.564-1.142.21-2.34.33-2.285-.914-4.125-.24-7.018-.33-.976.083-1.026-.762-2.003-.672-.097 1.128-.534 1.92-.337 3.342-.096.47-.527.572-.667 1.003-.172.54.418 1.51-.336 1.67.094 1.428-1.022 1.654-.667 3.343-.5.5-1.903.096-1.668 1.333-.102.88 1.294.266 1.002 1.338.24 1.02-.577.983-.336 2.004.343.775 1.15 1.078 1.003 2.34.266 1.155-.494 1.282-.336 2.336-.063 1.293-.013 2.46.336 3.343-.8 1.054-.216 1.407-.666 2.67.907-.234-.24 1.58.666 1.34-.14.806.608.722.336 1.667.392 1.01.81 1.992.33 3.008.532.47.855 1.154 1 2.005-.208 1.236-.907 1.99-.666 3.672.088.468.735.38 1.002.67-.11.775.05 1.283.336 1.67.59.305 1.034.748 1.333 1.34 1.14.08 1.604.843 3.005.665 1.136 1.205 3.28 1.4 4.01 3.007 1.288.044 1.548 1.13 3.006 1-.24.916.666.675.674 1.34 1.243-.024 1.91.533 2.333 1.332 1.383-.152 1.663.794 2.34 1.34 1.328.005 2.355.315 3.002 1.002.786.006.99-.577 2.003-.337.445.818 1.016-.603 1.34.336 1.25.03.952.375 2.004 0 .615-1.308.432-4.34 0-5.678.69-.09.095-1.47.666-1.674-.266-1.155.502-1.282.336-2.335-.482-1.08-.31-2.806-.336-4.347.36-.755.762-1.465 1.338-2.005-.234-1.097-.54-2.137-.666-3.342.076-.254.006-.66.33-.667.076-.255.014-.66.336-.667-.4-.938-.367-2.31-.336-3.674.088-.47.736-.386 1.002-.673.012-.97-.54-.83-.667-1.33-.23-.915-.336-.774-.666-1.34-.19-.33-.298-.54-.337-1.002-.057-1.618.438-2.677.667-4.01-.38-.393-.38-1.18-.33-2.005.14-1.427 1.117-3.387.33-4.674.56-.007.19-.927.672-1.003-.28-.945.47-.87.33-1.675-1.497-1.49-.292-4.205 0-5.678-.935-.393-1.912-.75-3.004-1z"/></g></svg>