<svg xmlns="http://www.w3.org/2000/svg" width="305.834" height="176.833" viewBox="0 0 305.834 176.833"><defs><path id="a" d="M8-.792h291.5V175H8z"/></defs><path clip-path="url(#b)" fill="#FCDCA4" d="M84.75 56.5s6.25 5.75 10.125 6.875c0 0 2.5 15.5 10.625 22.375l1.5-14.625s18.125 8.25 39.625 7.25 40-5 40-5-.125 8.875-1 12c0 0 8.75-7.625 10.625-13.875 0 0 13.363-5.193 17.37-8.347 0 0-8.73-8.563-14.987-10.42C192.375 50.874 174 48.124 168 44.25s-12.125-10.875-13.625-18.375c0 0-4.5 9.875-18.125 15.5s-27.125 5.625-34.5 6.75-15.5 6.125-17 8.375"/><path clip-path="url(#nav-mouth-9-id-2)" fill="#0C3846" d="M85.058 55.426l7.61-1.522 1.406 3.747 1.873-7.844s-10.89 1.874-12.177 3.396 1.288 2.224 1.288 2.224m89.103.468l-2.46-8.78s-4.448 3.16-8.194 4.33c0 0-2.46-5.853-.818-9.834 0 0-6.207 1.64-8.432.702l-1.64-11.825s-1.17 10.188-5.62 14.87l-7.024-5.27s-1.64 5.855-5.972 10.304c0 0-6.205-2.808-7.376-5.97 0 0-3.747 8.195-5.855 8.547-2.108.352-5.972-2.693-8.783-5.502 0 0-4.33 12.995-4.097 17.913l2.34-1.64 4.334 9.367 10.772-5.737 5.737 8.665 6.088-5.152 5.388 6.324 5.97-5.62 5.738 5.854 7.143-7.377 5.384 6.207 5.505-6.79 5.97 5.033 3.63-7.143 4.098 1.288s-.115-12.763-3.395-19.318l-8.432 6.557zm24.472-3.162c.702 3.98-.585 12.53-.585 12.53l3.98 2.575c.468-3.28 2.576-9.25 2.576-9.25 4.098.936 9.016 4.565 9.016 4.565 2.106-1.054 4.917-3.63 4.917-3.63-4.45-3.51-19.905-6.79-19.905-6.79"/><path clip-path="url(#nav-mouth-9-id-2)" fill="#0C3846" d="M63.2 76.115c.692-1.79 1.73-3.886 3.093-6.16 1.315-2.308 3.16-4.678 5.368-7.024 2.195-2.373 5.02-4.478 8.206-6.268.802-.398 1.567-.89 2.418-1.233.053.076.136.184.202.275.203.273.434.58.7.906.546.623 1.167 1.383 1.92 2.093a30.416 30.416 0 0 0 2.393 2.188c.427.35.845.71 1.273 1.043.44.317.873.63 1.292.93.837.605 1.634 1.144 2.358 1.544.882.51 1.59.893 2.004 1.112.93 6.856 3.714 14.753 10.628 21.448l1.59 1.538.105-2.21c.006-.136.302-6.12 1.056-13.467.5.2 1.123.452 1.865.753 1.005.44 2.35.846 3.83 1.374.167.062.345.118.517.178l.06.192.17-.113c1.303.44 2.746.83 4.3 1.28l1.42.404 1.493.342 3.137.718c1.076.25 2.202.397 3.342.607 1.143.18 2.303.436 3.5.564 2.393.246 4.855.65 7.38.745l3.532.22.076.186.112-.174.087.006c1.276.05 2.56.034 3.84.053 1.298-.005 2.53.055 3.877-.004l3.436-.16.147.44.328-.463c1.195-.056 2.382-.11 3.555-.166 1.224-.07 2.422-.074 3.624-.23l6.904-.724c2.207-.174 4.238-.618 6.138-.897 1.46-.252 2.833-.45 4.087-.675l.044.097.04-.113c.34-.063.674-.124.994-.19l3.946-.88c.812-.18 1.494-.333 2.03-.453-.04 3.256-.29 6.583-.852 9.833l-.41 2.368 1.97-1.38c.405-.283 6.81-4.896 10.703-14.7.658-.185 1.84-.524 3.338-1 .58-.19 1.21-.395 1.877-.615l.058-.022.114.128.028-.182a69.15 69.15 0 0 0 1.888-.736l2.224-.908c.757-.314 1.49-.69 2.237-1.048l2.212-1.093c.71-.402 1.406-.8 2.082-1.183 1.358-.747 2.543-1.607 3.588-2.277.518-.35.967-.71 1.373-1.015.406-.302.752-.584 1.037-.822.162-.134.3-.25.42-.356 4.71 2.18 8.852 4.74 11.983 7.584 1.902 1.693 3.4 3.496 4.593 5.194 1.146 1.73 1.96 3.37 2.482 4.78.312.69.434 1.355.632 1.91.198.558.283 1.052.374 1.448.176.797.268 1.223.268 1.223l-.11-1.248c-.05-.82-.24-2.015-.63-3.505-.393-1.49-1.057-3.262-2.073-5.183-1.042-1.904-2.51-3.897-4.357-5.832-1.852-1.94-4.115-3.773-6.652-5.476-2.546-1.694-5.386-3.22-8.395-4.608-6.043-2.746-12.787-4.87-19.6-6.538-3.404-.845-6.83-1.59-10.21-2.23l-5.03-.93-2.47-.43c-.817-.15-1.56-.34-2.336-.498-.764-.18-1.538-.302-2.273-.52-.728-.24-1.447-.48-2.16-.716l-1.066-.35a.6.6 0 0 0-.05-.023l-.02-.132-.072.088c-.29-.13-.576-.26-.86-.39-.666-.305-1.323-.605-1.972-.9-2.473-1.383-4.76-2.847-6.496-4.628l-.676-.625-.604-.668-1.162-1.298c-.655-.923-1.366-1.743-1.86-2.63-1.124-1.695-1.82-3.338-2.396-4.68-.514-1.366-.883-2.46-1.055-3.214-.105-.38-.153-.646-.197-.832.27-.713.516-1.424.724-2.125.988-3.298 1.222-6.43 1.33-9.164.03-1.37-.078-2.65-.104-3.828-.057-1.18-.25-2.25-.35-3.22-.21-1.94-.624-3.424-.802-4.446L155.5.54l.067 1.595c.034 1.037.22 2.546.166 4.476.057 1.923-.012 4.252-.24 6.89l-.246 2.03c-.045.347-.076.7-.136 1.055-.072.352-.15.708-.225 1.068-.16.718-.274 1.466-.463 2.21l-.676 2.258c-1.027 3.028-2.608 6.142-4.965 8.905-2.337 2.777-5.408 5.168-8.9 7.136l-.336.18-.13-.105-.078.212c-.7.37-1.39.745-2.14 1.1l-1.438.66-.723.334-.685.264c-.957.37-1.91.77-2.915 1.054l-1.494.47-1.532.393c-4.094 1.062-8.418 1.665-12.79 2.203-4.372.542-8.787 1.113-13.123 1.865-4.345.74-8.565 1.722-12.614 3-.506.154-1.01.31-1.513.462l-1.447.51-1.433.505-.71.25-.178.063c-.117.04-.135.056-.207.085l-.355.157-2.796 1.257c-.92.41-1.748.987-2.606 1.463-3.354 2.042-6.217 4.48-8.386 7.108-2.195 2.598-3.89 5.224-5.086 7.687-1.188 2.467-2.04 4.69-2.574 6.567-.57 1.865-.88 3.365-1.04 4.395-.176 1.025-.216 1.578-.216 1.578s.105-.545.398-1.537c.29-.993.747-2.44 1.467-4.223m28.575-15.497c-.77-.622-1.594-1.278-2.38-1.976l-1.206-1.006c-.38-.35-.77-.68-1.14-1.002-.153-.127-.283-.25-.427-.376 1.52-.502 3.765-.932 5.437-1.174.392 1.16.588 3.757.587 6.258l-.872-.724m18.903 10.455l-2.57-1.02c.132-1.156.275-2.33.43-3.507l1.47-1.204c.705 1.547 1.956 4.326 2.843 6.515-.798-.263-1.532-.507-2.172-.784m17.733 4.704c-1.11-.198-2.206-.334-3.254-.57-1.048-.23-2.067-.457-3.052-.676l-1.454-.32-1.38-.386c-.72-.204-1.41-.393-2.08-.58 2.245-1.482 5.834-3.8 7.843-4.846.983 1.463 3.225 4.92 4.317 7.536-.313-.053-.628-.11-.94-.157m10.608 1.204c-2.2-.064-4.34-.37-6.432-.595 1.208-1.265 3.17-3.267 4.64-4.496.917 1.133 2.647 3.35 3.74 5.2-.65-.036-1.303-.072-1.948-.11m11.178.214c-1.174.06-2.48.01-3.714.02-.678-.006-1.355-.002-2.032-.005 1.063-1.52 2.588-3.547 3.817-4.68 1.21.987 3.133 2.767 4.276 4.54-.78.043-1.562.083-2.347.124m11.056-.637c-1.153.16-2.375.173-3.592.25l-1.15.06c1.32-1.75 3.297-4.247 4.834-5.657 1.023.974 3.033 3.006 4.135 4.88-1.378.152-2.78.306-4.228.467m12.717-1.652c-1.63.247-3.375.613-5.222.822 1.02-1.404 2.582-3.49 3.74-4.774 1.31.63 3.478 1.9 4.615 3.424-.986.167-2.03.332-3.134.528m8.91-1.77l-2.95.675c.656-1.655 1.68-4.02 2.523-5.254.983.132 2.3.425 2.994.858.064 1.018.113 2.054.143 3.103l-2.71.618m26.786-9.33l-2.157 1.03c-.725.34-1.43.73-2.15 1.036l-2.104.94c-.096.043-.182.086-.277.13.32-1.668.962-4.572 1.878-6.83 1.42.265 4.596 1.016 6.672 2.723l-1.864.972m-9.71-9.683c5.79 1.46 11.46 3.19 16.603 5.324.21.086.412.18.62.267-.518.306-1.156.657-1.86 1.086l-1.692.936c-.068.04-.146.076-.215.115-3.113-3.078-8.787-3.81-9.04-3.842l-.723-.09-.307.66c-1.113 2.398-1.875 5.683-2.27 7.667a21.612 21.612 0 0 0-2.012-1.248c.665-3.232 1.018-6.85.895-10.875m-1.36 12.91c.555.327 1.174.72 1.69 1.12-.275.114-.543.228-.8.335-.544.23-1.04.444-1.483.64.21-.675.408-1.376.592-2.094M187.21 51.338c3.34.653 6.726 1.347 10.085 2.133.207.05.414.103.62.152.67 16.37-7.04 25.96-10.78 29.604 1.676-13.506-1.247-27.29-2.514-32.37.862.162 1.716.32 2.59.482m-12.37-2.496c.797.246 1.623.394 2.447.597.817.18 1.67.4 2.48.544l.367.064c-1.823 1.643-4.312 3.438-5.645 4.364-.546-1.415-1.128-4.012-1.524-6.216l1.875.646m-11.422-5.89c1.418 1.124 2.994 2.166 4.677 3.15l2.077.985c-1.625 1.2-4.545 2.35-6.29 2.945-.82-2.024-.697-5.114-.464-7.08m-6.873-8.05c.507.988 1.236 1.92 1.92 2.96.396.482.802.977 1.217 1.48l.637.764.724.71c.05.055.11.103.162.155-2.246.7-4.918.607-6.238.5l-.403-10.7c.488 1.25 1.095 2.663 1.98 4.132m-2.895-6.885c.015.056.03.114.047.17l-.125-.023.078-.147m-2.957 4.58c.317-.398.62-.803.91-1.21-.9 3.553-2.545 9.062-4.826 12.663l-4.855-3.832c3.423-2.103 6.45-4.69 8.77-7.622M129.198 45.73l1.615-.445 1.587-.54c1.062-.33 2.084-.78 3.105-1.204l.796-.333.717-.35.66-.32c-.957 2.1-2.373 4.858-3.96 6.77-1.07-.464-3.315-1.593-5.117-3.437.197-.05.4-.088.597-.14m-13.176 2.365c2.856-.372 5.733-.79 8.587-1.34-1.028 1.53-2.558 3.627-4.148 5.162-1.434-.757-3.84-2.188-5.476-3.693.347-.043.692-.085 1.037-.13m4.166 5.93l.6.292.5-.44c2.292-2.017 4.473-5.186 5.58-6.91 2.79 3.042 6.623 4.415 6.803 4.478l.617.218.446-.48c2.533-2.728 4.65-7.43 5.58-9.687l6.88 5.433.614-.835c2.166-2.953 3.81-7.44 4.91-11.173l.316 8.325.823.12c.19.03 4.087.578 7.545-.364-.248 2.27-.407 6.287 1.124 8.775l.405.66.738-.23c.568-.174 4.777-1.503 7.392-3.297.438 2.394 1.27 6.273 2.272 7.576l.57.74.777-.518c.222-.148 5.218-3.49 7.798-6.13.646 2.52 2.123 8.87 2.798 16.575-1.403-.482-2.956-.628-3.192-.648l-.51-.043-.332.39c-1.054 1.226-2.25 3.934-2.99 5.766-2.07-2.313-5.448-3.72-5.623-3.79l-.616-.254-.47.47c-1.32 1.32-3.36 4.055-4.548 5.692-1.744-2.756-4.807-5.475-4.96-5.61l-.614-.542-.652.497c-1.97 1.5-4.838 5.198-6.34 7.224-1.818-3.034-5.405-5.724-5.583-5.856l-.588-.438-.595.43c-1.63 1.177-3.722 3.994-4.922 5.72-1.626-2.773-4.46-6.136-4.604-6.305l-.6-.707-.75.542c-1.61 1.163-4.19 3.782-5.66 5.32-1.54-3.59-4.777-8.232-4.935-8.458l-.466-.666-.748.32c-2.125.91-7.528 4.453-9.845 5.997-1.224-3.217-3.734-8.613-3.855-8.875l-.543-1.167-1.793 1.467c.885-5.952 2.083-11.63 3.67-14.993 2.386 2.824 7.335 5.275 7.57 5.39m-23.32-3.03c2.012-.438 4.067-.83 6.143-1.164 2.42-.4 4.88-.724 7.362-1.033-3.605 8.97-5.08 28.406-5.492 35.116-11.152-12.31-9.01-28.1-8.014-32.92m-11.872 3.35l.334-.137.14-.057.18-.06.716-.23a1147.302 1147.302 0 0 0 2.905-.942l1.457-.4c1.307-.368 2.652-.707 4.012-1.03a44.4 44.4 0 0 0-.53 4.012c-.184-.893-.438-1.65-.792-2.11l-.35-.453-.566.07c-.572.072-5.16.674-7.56 1.763-.11-.103-.207-.188-.31-.283.12-.05.24-.096.362-.145m-25.84-40.687c2.484-1.258 5.425-2.623 8.652-3.833a58.235 58.235 0 0 1 5.04-1.62c.862-.258 1.75-.43 2.63-.65.882-.207 1.785-.312 2.675-.49l5.52-1.04 5.308-1.072c1.72-.413 3.373-.88 4.942-1.29 1.563-.443 3.044-.838 4.398-1.246 2.69-.864 4.902-1.666 6.446-2.236 1.54-.59 2.402-.97 2.402-.97s-.935.146-2.544.468c-.81.146-1.8.295-2.918.517-1.124.206-2.385.462-3.76.738-2.763.465-5.952 1.09-9.368 1.767l-5.348.852c-1.81.31-3.645.63-5.482.947-.948.182-1.904.337-2.834.57-.925.25-1.86.455-2.76.744a55.23 55.23 0 0 0-5.185 1.927 56.35 56.35 0 0 0-8.57 4.61 51.99 51.99 0 0 0-5.485 4.108C51.652 17.522 51 18.208 51 18.208l2.21-1.333a125.797 125.797 0 0 1 5.944-3.22m162.11-5.916c2.54 2.11 6.582 4.594 11.617 7.07 2.5 1.27 5.276 2.52 8.102 3.932.688.346 1.478.723 2.123 1.1l.99.596c.327.21.642.465.966.697 1.298.94 2.52 2.086 3.728 3.276 2.39 2.42 4.578 5.217 6.527 8.222 1.948 3.005 3.635 6.248 4.928 9.625.674 1.682 1.154 3.422 1.635 5.148l.562 2.62c.098.627.172 1.25.25 1.874a41.975 41.975 0 0 0-.865-2.232c-.32-.665-.592-1.35-.947-1.983-.34-.64-.67-1.27-1.05-1.85-.364-.588-.72-1.15-1.116-1.647-.39-.497-.715-.996-1.098-1.396-.36-.415-.707-.783-1.01-1.107-.318-.312-.617-.562-.852-.778L255 40.25l.594.803c.19.253.43.55.68.906.234.37.495.79.795 1.23.312.433.558.966.866 1.49.314.523.566 1.12.866 1.713.312.586.55 1.233.83 1.87.295.63.505 1.312.76 1.97.244.664.455 1.34.673 2 .182.676.408 1.322.564 1.968.344 1.282.646 2.485.854 3.527.102.513.198.98.28 1.4-.13 1.294-.38 2.575-.56 3.843a75.8 75.8 0 0 1-.537 2.424c-.05-.376-.104-.756-.182-1.14-.125-.618-.227-1.25-.402-1.867a23.473 23.473 0 0 0-.534-1.834c-.18-.603-.4-1.183-.62-1.74-.194-.565-.46-1.082-.7-1.575a14.607 14.607 0 0 0-.716-1.364 16.38 16.38 0 0 0-1.25-1.928l-.515-.696.343.797c.113.247.248.55.404.898.135.355.287.756.45 1.193.18.428.34.908.49 1.417.17.504.32 1.042.466 1.602.157.556.312 1.13.426 1.725.136.59.245 1.193.333 1.8.215 1.208.334 2.43.45 3.57.027.573.09 1.125.112 1.65.03.525.05 1.02.053 1.48l.012 1.013a77.902 77.902 0 0 1-.692 2.095 66.22 66.22 0 0 1-.896 2.473c-.006-.238-.015-.47-.02-.712-.08-.577-.158-1.165-.237-1.753-.093-.585-.13-1.176-.267-1.74-.132-.566-.257-1.124-.396-1.657-.137-.533-.268-1.05-.392-1.537-.15-.48-.324-.926-.47-1.34-.617-1.648-1.047-2.723-1.047-2.723s.193 1.158.51 2.86c.082.426.19.88.27 1.368.05.492.105 1.01.163 1.548.052.536.126 1.084.196 1.642.077.557.054 1.13.086 1.698.02.567.037 1.135.057 1.693-.023.555-.047 1.1-.068 1.63-.016.528-.018 1.04-.088 1.516-.042.48-.08.934-.115 1.352l-.163 1.053c-.132.31-.26.627-.396.926-.46 1.064-.904 2.083-1.354 3.06l.02-.204c.043-.588.002-1.188.008-1.785-.01-.597-.018-1.192-.025-1.78-.06-.583-.11-1.157-.182-1.71-.066-.553-.13-1.087-.192-1.593-.055-.505-.195-.972-.28-1.407-.403-1.732-.694-2.865-.694-2.865s.057 1.186.174 2.932c.023.438.1.903.086 1.406l-.025 1.573c-.013.544-.002 1.104-.003 1.673-.05.566-.098 1.142-.146 1.717-.06.573-.077 1.15-.173 1.707-.086.558-.168 1.106-.248 1.638-.066.534-.18 1.04-.296 1.516-.1.48-.192.933-.28 1.35-.234.815-.386 1.52-.542 1.96-.01.037-.02.064-.03.1l-1.35 2.952c-1.352 2.98-2.122 4.686-2.122 4.686l.857-1.045a62.832 62.832 0 0 0 2.254-3.078c.472-.686.982-1.455 1.522-2.306l.018.008s.032-.06.083-.17a84.778 84.778 0 0 0 5.104-9.35c.617-1.27 1.164-2.636 1.783-4.026.562-1.416 1.172-2.87 1.715-4.4a75.158 75.158 0 0 0 2.875-9.845c.29-1.774.648-3.565.72-5.443l.097-1.402.016-.22.002-.11-.004-.085-.01-.34-.02-.68-.04-1.366a9.722 9.722 0 0 0-.1-1.404c-.33-3.914-1.334-7.596-2.756-11.176-2.853-7.118-7.203-13.53-12.336-18.534-1.305-1.233-2.623-2.415-4.068-3.42-.365-.25-.71-.513-1.084-.744-.387-.22-.77-.44-1.15-.658-.784-.428-1.473-.734-2.22-1.09-2.957-1.346-5.722-2.532-8.284-3.634-2.55-1.117-4.875-2.153-6.883-3.172-2.017-1-3.722-1.97-5.09-2.83a27.29 27.29 0 0 1-3.016-2.237l-.983-.908.837 1.055c.57.663 1.49 1.577 2.757 2.637M93.824 81.323L91.9 80.177c-.697-.38-1.35-.918-2.066-1.397l-2.208-1.477c-.374-.254-.757-.5-1.144-.742l-1.078-.843a68.683 68.683 0 0 0-2.16-1.66c-.755-.503-1.35-1.15-2.01-1.695-.638-.562-1.275-1.096-1.853-1.622-.546-.554-1.05-1.092-1.555-1.564-.524-.46-.87-.975-1.26-1.384-.373-.423-.705-.79-.93-1.117-.234-.327-.455-.573-.574-.763l-.184-.286s.066.465.368 1.25c.122.412.348.864.62 1.377.27.513.55 1.13.983 1.694.4.593.874 1.21 1.362 1.878.505.648 1.148 1.226 1.76 1.882.62.645 1.266 1.318 2.022 1.868.728.587 1.49 1.157 2.25 1.726l1.142.85c.402.246.805.488 1.21.717l2.37 1.36c.787.408 1.508.873 2.26 1.182l2.113.863c2.624 1.052 4.414 1.604 4.414 1.604s-1.545-1.112-3.925-2.553m95.767 11.913c1.945-.843 3.033-1.362 3.033-1.362s-1.186.286-3.217.853c-1.016.286-2.256.6-3.654 1.017-1.42.344-3.047.646-4.8 1.02-.882.176-1.788.39-2.738.565l-2.962.432-3.114.48c-1.062.162-2.166.204-3.276.32-1.11.106-2.24.217-3.384.328-1.144.104-2.312.094-3.48.152l-3.533.167c-1.187-.01-2.378-.025-3.568-.01-2.385.073-4.765-.096-7.113-.158-1.176-.017-2.336-.13-3.485-.222l-3.403-.254c-2.223-.277-4.392-.444-6.42-.785-2.036-.307-3.965-.588-5.735-.916-1.78-.283-3.387-.66-4.826-.943-1.43-.317-2.687-.575-3.707-.837-2.048-.5-3.21-.834-3.21-.834l.794.35c.52.23 1.29.54 2.283.91.99.384 2.205.802 3.603 1.283 1.414.42 3 .948 4.762 1.4.88.234 1.796.48 2.745.732.96.21 1.95.43 2.97.653 2.035.474 4.217.78 6.46 1.202 2.26.293 4.596.658 6.99.832 2.39.187 4.823.392 7.265.374 1.22.025 2.44.02 3.656.018l3.626-.204c1.197-.096 2.39-.14 3.557-.286l3.457-.467c1.13-.177 2.25-.29 3.328-.52l3.152-.69c1.02-.23 2.014-.458 2.975-.676.953-.244 1.853-.57 2.724-.844 1.736-.572 3.334-1.055 4.725-1.556 1.368-.56 2.544-1.104 3.517-1.523M224.627 73.9c.385-.398.656-.812.898-1.13.473-.646.725-1.02.725-1.02s-.373.27-.998.753c-.6.507-1.54 1.137-2.608 1.928-.556.376-1.165.768-1.783 1.212-.64.418-1.33.837-2.017 1.304L216.66 78.3c-.75.45-1.496.934-2.27 1.374-1.535.908-3.068 1.816-4.507 2.67-1.444.847-2.79 1.65-3.937 2.36-2.31 1.393-3.822 2.422-3.822 2.422s1.795-.388 4.34-1.358a47.636 47.636 0 0 0 4.266-1.845c.77-.365 1.557-.76 2.333-1.2.784-.428 1.58-.87 2.35-1.35.78-.47 1.534-.983 2.288-1.466.737-.512 1.442-1.046 2.134-1.545.678-.523 1.304-1.07 1.91-1.564.588-.523 1.117-1.048 1.614-1.517.486-.486.894-.97 1.27-1.38m40.052 14.394c-.29.73-.59 1.452-.816 2.176a77.856 77.856 0 0 0-1.34 4.265 134.828 134.828 0 0 0-2.04 7.625 133.89 133.89 0 0 0-1.235 5.44c-.286 1.315-.415 2.075-.415 2.075l.7-1.997c.435-1.272 1.06-3.09 1.807-5.27l1.212-3.513c.41-1.252.865-2.564 1.352-3.913.46-1.362 1.016-2.73 1.528-4.136.245-.714.552-1.39.847-2.074.298-.687.57-1.374.92-2.067.67-1.382 1.31-2.78 1.92-4.167.6-1.4 1.208-2.767 1.72-4.128.56-1.34.973-2.688 1.387-3.954.22-.628.398-1.25.547-1.862.156-.607.307-1.194.45-1.758.294-1.124.4-2.196.578-3.12.194-.922.21-1.75.252-2.426l.114-2.115-.408 2.076c-.12.66-.262 1.457-.533 2.352-.268.893-.473 1.92-.87 2.995-.41 1.07-.714 2.267-1.24 3.47a77.35 77.35 0 0 1-1.608 3.787c-.56 1.312-1.222 2.638-1.87 3.99a170.46 170.46 0 0 0-2.023 4.107 22.442 22.442 0 0 0-.937 2.144m11.15-14.055c-.153.68-.352 1.32-.504 1.943-.175.615-.29 1.215-.46 1.747-.31 1.075-.544 1.984-.74 2.61l-.292 1s.222-.307.55-.883c.345-.57.776-1.414 1.252-2.448.256-.512.465-1.09.7-1.697.226-.61.51-1.243.7-1.93.198-.68.425-1.382.615-2.104a22.3 22.3 0 0 0 .518-2.206l.408-2.23c.164-.73.153-1.475.235-2.18.066-.71.104-1.397.145-2.047.066-.648.035-1.267.002-1.837-.1-2.278-.29-3.772-.29-3.772s-.286 1.507-.523 3.727c-.058.557-.12 1.156-.245 1.787-.11.63-.23 1.294-.33 1.982-.116.687-.185 1.4-.35 2.114-.147.715-.298 1.44-.446 2.167-.127.73-.263 1.46-.458 2.163-.185.706-.328 1.413-.486 2.09m6.145-8.834c.178-.63.295-1.324.436-2.06.12-.735.317-1.505.39-2.317l.265-2.502c.1-.854.12-1.724.128-2.595.023-.87.01-1.74.016-2.6.034-.856-.117-1.696-.177-2.51a67.08 67.08 0 0 0-.248-2.34c-.058-.744-.214-1.435-.37-2.072-.573-2.55-1.08-4.2-1.08-4.2s.032 1.754.27 4.308c.058.64.134 1.328.125 2.066.008.736.03 1.51.063 2.31.008.8.105 1.62.066 2.46-.015.84-.048 1.69-.044 2.545.008.853.002 1.705-.08 2.54l-.13 2.465c-.037.8-.136 1.568-.194 2.302-.084.73-.096 1.432-.197 2.065-.086.635-.137 1.225-.193 1.747-.05.523-.136.97-.186 1.345-.094.75-.168 1.18-.168 1.18s.183-.394.42-1.114c.248-.72.566-1.76.887-3.024m1.277-32.486c.108.796.215 1.634.355 2.494.125.864.292 1.75.395 2.66l.324 2.758c.127.92.264 1.843.324 2.756.07.913.186 1.808.274 2.677.104.868.14 1.71.217 2.51.054.798.158 1.555.195 2.253.197 2.81.33 4.683.33 4.683s.106-.462.22-1.28c.053-.41.146-.91.187-1.48.053-.574.11-1.222.156-1.93.064-.707.062-1.475.076-2.285 0-.81.056-1.67-.012-2.554-.047-.882-.073-1.798-.146-2.727-.045-.93-.162-1.868-.276-2.807-.13-.936-.258-1.872-.385-2.794-.11-.924-.365-1.81-.533-2.68-.18-.867-.384-1.7-.568-2.488-.16-.795-.412-1.524-.633-2.198-.874-2.7-1.585-4.443-1.585-4.443s.21 1.893.72 4.646c.127.687.273 1.43.367 2.228M52.162 81.793c-.18-.45-.37-.94-.59-1.443-.23-.5-.43-1.047-.643-1.608-.22-.56-.43-1.142-.677-1.72-.222-.59-.416-1.2-.628-1.803-.214-.604-.46-1.195-.654-1.795-.17-.606-.38-1.19-.562-1.765-.18-.575-.38-1.122-.568-1.645-.174-.525-.303-1.032-.454-1.493-.562-1.854-1.073-3.085-1.073-3.085s.01 1.312.228 3.27c.06.49.095 1.027.21 1.58.115.55.234 1.134.383 1.73.148.598.28 1.223.454 1.846.185.62.415 1.237.626 1.86.235.615.452 1.235.697 1.836.262.592.554 1.162.818 1.72.253.56.545 1.083.846 1.565.284.49.573.942.836 1.357.58.808 1.064 1.468 1.465 1.893.38.436.626.653.626.653s-.15-.297-.38-.82c-.254-.502-.548-1.267-.96-2.135m-10.435-18.71l.246 1.927.31 2.058.485 2.093c.31 1.407.74 2.785 1.208 4.054.213.64.45 1.25.717 1.812.252.567.483 1.104.728 1.587.508.96.946 1.746 1.315 2.27.346.53.58.807.58.807l-.265-.958c-.18-.596-.39-1.47-.7-2.48-.246-1.04-.63-2.207-.948-3.49a41.38 41.38 0 0 0-.538-1.96c-.19-.667-.32-1.36-.514-2.036-.18-.68-.357-1.36-.533-2.03l-.455-1.987c-.32-1.286-.637-2.485-.842-3.528a44.54 44.54 0 0 0-.892-3.468s-.082 1.436-.002 3.594c.035.533.01 1.125.1 1.735m-3.323-6.17c-.05.7-.136 1.425-.125 2.163-.006.738-.003 1.488.047 2.236.028.75.13 1.493.22 2.225.066.734.245 1.44.368 2.13.3 1.37.66 2.63 1.064 3.677.763 2.11 1.61 3.364 1.61 3.364s-.252-1.475-.57-3.632c-.076-.54-.16-1.123-.246-1.74l-.245-1.936c-.067-.67-.138-1.363-.21-2.067a43.712 43.712 0 0 1-.163-2.135c-.07-.715-.092-1.43-.107-2.136-.04-.706-.04-1.4-.042-2.073-.01-.676.004-1.326.023-1.946.01-.62.02-1.21.065-1.75.027-.547.05-1.048.073-1.492.05-.44.072-.832.098-1.153.043-.647.054-1.024.054-1.024s-.155.338-.4.94a16.438 16.438 0 0 0-.848 2.57 12.933 12.933 0 0 0-.385 1.77c-.1.635-.246 1.304-.28 2.007m-2.803 4.397c.402 2.14.987 3.48.987 3.48s-.085-1.445-.13-3.574l-.025-1.715c0-.605.004-1.244.006-1.905.022-.66.045-1.34.07-2.032.03-.69.074-1.39.132-2.09.04-.7.11-1.4.207-2.083.06-.69.163-1.36.272-2.01.092-.653.202-1.28.328-1.872.116-.595.213-1.162.355-1.672.12-.52.233-.995.33-1.417l.31-1.082.248-.963-.504.854-.554 1c-.19.4-.39.855-.6 1.36-.22.5-.43 1.052-.606 1.65-.19.597-.405 1.224-.54 1.893-.155.665-.316 1.354-.42 2.063-.116.708-.204 1.43-.263 2.156-.09.724-.082 1.453-.108 2.17-.03.714.02 1.42.04 2.1.09 1.36.243 2.62.465 3.688m-.4-16.94c.066-.304.124-.607.176-.91.066-.297.153-.585.227-.87.16-.57.287-1.133.412-1.665.136-.528.217-1.048.382-1.493.583-1.81.857-3.12.857-3.12s-.762 1.05-1.732 2.778c-.267.422-.455.917-.663 1.44-.21.522-.436 1.073-.64 1.654-.225.576-.424 1.18-.557 1.81-.152.628-.305 1.266-.46 1.902-.156.638-.204 1.293-.307 1.928a34.288 34.288 0 0 0-.213 1.877c-.043.61-.052 1.205-.068 1.766-.03.56-.015 1.09.017 1.58.032.978.122 1.794.213 2.36.077.568.16.886.16.886l.164-.886.398-2.303c.134-.95.382-2.047.544-3.227.097-.588.25-1.187.346-1.803.12-.61.182-1.246.353-1.856.132-.618.26-1.238.39-1.846m-2.533-2.005c.194-.43.482-1.033.79-1.766.3-.734.7-1.568 1.032-2.487.425-.887.75-1.877 1.174-2.826l.605-1.428c.172-.486.376-.945.592-1.382.21-.44.383-.882.564-1.295.18-.413.32-.82.512-1.163C38.63 28.615 39 27.562 39 27.562s-.813.71-1.888 1.948a7.342 7.342 0 0 0-.79 1.048c-.254.39-.54.793-.803 1.23-.274.43-.543.884-.77 1.364l-.685 1.465c-.25.482-.397 1.008-.58 1.507-.183.5-.34 1-.483 1.485-.127.49-.24.968-.328 1.425-.1.453-.184.884-.22 1.29-.236 1.61-.12 2.717-.12 2.717l.328-.677m-6.287 24.042c.086.57.177 1.172.298 1.79.152.61.3 1.248.487 1.885.21.628.433 1.266.667 1.898.286.612.54 1.238.85 1.827.31.59.63 1.158.98 1.687.325.544.704 1.027 1.056 1.487.348.464.724.866 1.066 1.236.693.735 1.35 1.27 1.82 1.617.48.343.776.5.776.5s-.833-1.05-1.86-2.69c-.252-.416-.52-.864-.796-1.343-.272-.48-.544-.992-.818-1.525-.295-.522-.524-1.1-.803-1.66-.277-.564-.5-1.165-.754-1.75l-.677-1.78c-.18-.604-.404-1.184-.593-1.756-.154-.582-.33-1.14-.495-1.67-.158-.532-.268-1.046-.407-1.516-.12-.473-.262-.903-.34-1.294-.087-.388-.178-.728-.25-1.01-.15-.56-.25-.883-.25-.883s-.04.33-.08.913c-.026.58-.107 1.423-.017 2.42.034.5.046 1.05.137 1.617m-4.055-4.15c.08.725.218 1.453.332 2.187.145.73.253 1.462.427 2.17.193.706.423 1.39.624 2.055.104.33.198.658.313.972l.39.903c.252.587.503 1.134.746 1.632.55.975 1.01 1.77 1.42 2.287.377.525.636.787.636.787s-.145-.344-.347-.95c-.234-.586-.465-1.475-.816-2.487-.14-.522-.276-1.092-.45-1.68l-.257-.908-.208-.966c-.15-.653-.284-1.33-.46-2.01-.148-.683-.23-1.395-.352-2.096-.118-.703-.28-1.4-.373-2.095-.053-.702-.154-1.388-.228-2.054-.073-.668-.172-1.312-.262-1.925-.075-.613-.08-1.197-.133-1.737-.154-2.158-.407-3.635-.407-3.635s-.32 1.43-.57 3.635c-.055.55-.16 1.148-.16 1.78.005.634.007 1.304.04 1.996.03.692.037 1.41.092 2.138m-1.91-15.77c.033-.495.053-.954.06-1.365.007-.41.058-.76.07-1.06.038-.59.044-.938.044-.938s-.148.307-.377.862c-.107.278-.273.614-.38 1.016a30.88 30.88 0 0 0-.387 1.353c-.233 1-.45 2.187-.557 3.467-.065.638-.092 1.3-.113 1.972 0 .673-.023 1.356.01 2.038a39.66 39.66 0 0 0 .35 3.982c.075.634.197 1.24.297 1.813.092.577.235 1.114.34 1.61.463 1.99.984 3.262.984 3.262s0-1.37-.076-3.383l-.258-7.335c.005-.663-.034-1.326-.04-1.98.015-.65-.014-1.293-.013-1.913.02-.62.004-1.224.013-1.793.022-.567.028-1.108.034-1.608m-3.83 1.813c.07.496.162.946.232 1.345.063.4.183.742.25 1.024.146.562.272.87.272.87s-.013-.335.004-.914c-.01-.572.036-1.393.06-2.367-.012-.484.082-1.015.098-1.57.045-.555.042-1.14.13-1.74l.207-1.854c.032-.633.156-1.267.268-1.9.12-.632.203-1.27.297-1.897.093-.626.283-1.224.392-1.818.13-.59.255-1.16.353-1.71.08-.557.26-1.05.383-1.522.533-1.87.767-3.207.767-3.207s-.717 1.11-1.61 2.91c-.228.446-.485.93-.644 1.48-.192.54-.373 1.118-.557 1.718-.176.602-.41 1.214-.513 1.864-.112.648-.238 1.306-.33 1.97-.098.66-.21 1.32-.226 1.98-.023.657-.046 1.305-.07 1.93-.04.625.058 1.232.077 1.804.042.57.07 1.11.16 1.605m180.082 91.672c.263-.656.512-1.293.674-1.925.175-.626.373-1.203.453-1.77.102-.558.204-1.064.267-1.518.02-.23.038-.448.052-.647.614.517 1.118 1.06 1.387 1.595a.747.747 0 0 0 1.006.338.752.752 0 0 0 .336-1.007c-1.443-2.884-7.144-5.258-7.386-5.357a.75.75 0 1 0-.57 1.387c1 .412 3.158 1.456 4.78 2.69-.093.247-.194.516-.306.823-.19.41-.38.875-.59 1.38a28.3 28.3 0 0 1-.713 1.606l-.39.87-.446.895c-.157.3-.3.613-.448.927-.163.31-.328.62-.495.934-.083.16-.175.32-.26.48-.974-.566-1.778-.765-1.85-.78-.395-.098-.804.157-.897.562s.158.807.562.9c.013.002.668.164 1.467.636-.02.032-.035.065-.054.098-.334.642-.754 1.234-1.1 1.86-.275.454-.557.888-.835 1.32-.422-.694-.568-1.265-.58-1.317a.75.75 0 1 0-1.46.34c.02.082.288 1.178 1.157 2.336-.53.797-1.038 1.54-1.507 2.193-1.266 1.8-2.17 2.99-2.17 2.99s.312-.207.828-.61a25 25 0 0 0 2.023-1.8 27.4 27.4 0 0 0 1.7-1.817 6.798 6.798 0 0 0 2.742 1.51.75.75 0 1 0 .414-1.442 5.37 5.37 0 0 1-2.197-1.218c.81-1.05 1.636-2.187 2.353-3.404.463.483.89 1.092 1.187 1.863a.75.75 0 0 0 1.402-.54 7.045 7.045 0 0 0-1.812-2.67c.13-.24.265-.478.376-.726.33-.662.66-1.315.896-1.985M75.167 23.125s.126-.02.325-.12c.197-.1.475-.284.713-.612.243-.32.432-.802.434-1.324a2.748 2.748 0 0 0-.108-.806c-.034-.13-.073-.226-.11-.34l-.028-.084c-.03-.08-.036-.078-.055-.12-.034-.065-.064-.13-.105-.192-.284-.522-.86-.9-1.386-.986a2.78 2.78 0 0 0-1.35.113c-.724.24-1.083.596-1.083.596s.498-.06 1.168-.05c.333.012.714.047 1.042.177.33.127.575.34.744.647.024.036.04.08.06.12l.017.04.033.08c.04.106.092.226.12.32.048.167.092.345.128.53.048.358.02.698-.062 1-.17.605-.5 1.01-.5 1.01m13.785-2.332c-.144-.06-.3-.086-.435-.098-.28-.03-.523.02-.718.093-.39.138-.588.38-.588.38s.267.15.582.29c.314.146.68.318.83.477.105.056.143.156.24.266.024.068.067.14.108.21.026.076.056.16.09.236.07.155.1.31.152.42.045.113.08.185.08.185s.06-.043.145-.133c.077-.093.217-.22.287-.42.098-.188.153-.446.132-.75-.042-.148-.047-.322-.144-.472a1.528 1.528 0 0 0-.325-.42c-.134-.125-.29-.19-.436-.263m-44.09 30.34c.03.065.082.13.13.195a2.7 2.7 0 0 0 .12.225c.09.146.136.297.2.4.06.105.102.172.102.172s.053-.05.128-.15c.065-.102.19-.243.234-.45.075-.2.098-.463.04-.76-.06-.145-.084-.316-.2-.452a1.493 1.493 0 0 0-.372-.38c-.147-.106-.312-.152-.464-.207-.15-.043-.31-.05-.445-.044-.28.004-.516.085-.7.18-.374.184-.54.447-.54.447s.284.116.614.218c.33.108.713.233.88.373.113.042.163.138.272.234M94.31 35.154c-.122-.123-.264-.207-.394-.29a1.878 1.878 0 0 0-.767-.208c-.453-.02-.734.135-.734.135l.533.435c.295.243.574.552.7.836l.09.23c.004.092.042.173.06.266.005.096.022.19.044.287.003.1.008.195.025.29.026.19.023.36.05.49.018.128.038.21.038.21s.068-.04.17-.123c.098-.088.258-.204.37-.4a1.7 1.7 0 0 0 .285-.738c.03-.148.017-.32.002-.486-.045-.165-.065-.35-.164-.502a1.746 1.746 0 0 0-.308-.43m-13.51 8.333c-.127.27-.26.513-.26.513s.272.067.634-.097c.182-.076.387-.23.538-.49.073-.13.13-.375.127-.54l-.017-.158-.01-.082-.004-.04-.023-.086-.01-.022-.015-.026c-.127-.287-.335-.528-.572-.657a1.36 1.36 0 0 0-.654-.185c-.386-.015-.62.133-.62.133l.438.38c.114.105.232.222.323.337.06.048.07.127.117.174.04.052.047.123.08.174l.062.017.064.017v.002l-.063.015.01.157c-.03.044-.016.016-.01.072-.028.052-.015.12-.05.188-.03.063-.05.14-.085.205m.198-.744v0m-8.856 6.42c-.06.15-.162.312-.247.454-.174.287-.313.508-.313.508s.26-.015.6-.188c.17-.09.36-.216.52-.435.078-.1.17-.22.205-.436.05-.226.023-.316.006-.43-.048-.262-.163-.324-.252-.48-.12-.1-.25-.197-.375-.248a1.438 1.438 0 0 0-.686-.095C71.218 47.86 71 48 71 48s.244.085.544.227c.078.026.148.078.227.113.085.027.136.1.21.134.066.045.097.11.15.153.007.045.09.15.058.122.02.112.05.25.008.242 0 .01-.01.09-.052.17M46.42 61.037c-.197-.177-.326-.156-.493-.225a1.507 1.507 0 0 0-.448.034c-.266.078-.462.21-.6.345-.276.274-.363.518-.363.518s.246-.082.57-.154c.077-.027.165-.03.247-.05.084-.03.17-.004.248-.022.08-.005.145.028.213.03.032.03.162.062.12.06.085.078.192.168.155.188a.48.48 0 0 1 .062.167c.046.157.066.347.085.51.04.334.064.594.064.594s.197-.17.36-.516a1.47 1.47 0 0 0 .145-.66c0-.128 0-.278-.106-.47-.097-.212-.176-.267-.26-.347m-3.882-21.65c.09-.002.16.05.24.06.08.02.13.07.194.094.02.04.132.113.094.098.055.102.128.222.087.227a.53.53 0 0 1 .005.18c-.007.163-.05.35-.084.51-.07.33-.13.582-.13.582s.24-.1.507-.374c.13-.14.27-.32.35-.58.04-.12.09-.262.05-.478-.023-.23-.08-.308-.133-.41-.13-.23-.26-.252-.396-.37a1.502 1.502 0 0 0-.434-.112 1.426 1.426 0 0 0-.678.135c-.35.17-.51.372-.51.372s.26.002.59.036c.08-.003.165.024.25.03m30.795 2.49s.294-.07.608-.37c.16-.146.33-.353.424-.652.06-.12.077-.363.054-.57-.027-.202-.08-.263-.118-.4l-.002-.008c-.077-.154-.022-.043-.04-.077v-.004l-.005-.004-.036-.04-.05-.056-.104-.105c-.075-.06-.135-.148-.224-.178-.166-.078-.348-.15-.5-.146-.318-.03-.574.05-.77.142-.397.18-.57.427-.57.427l.657.09c.178.024.378.06.528.128.094.01.122.092.188.105.04.005.037.05.06.068l.027.032.015.015.008.007c.044.098.103.21.09.25-.03.042.037.052.01.16 0 .17-.042.37-.084.545l-.167.64M48.186 30.05c.094.012.122.093.188.106.04.005.037.05.06.068l.027.032.016.015.008.008c.044.098.103.21.09.25-.03.042.037.052.01.16 0 .17-.042.37-.084.545l-.166.642s.294-.07.608-.368c.16-.147.328-.354.423-.653.06-.12.077-.363.054-.57-.028-.202-.08-.263-.12-.4v-.008c-.078-.154-.023-.043-.04-.077l-.002-.004-.004-.004-.036-.04-.05-.056-.104-.105c-.075-.06-.135-.148-.224-.178-.165-.078-.347-.15-.5-.146-.317-.03-.573.05-.77.142-.396.18-.57.427-.57.427l.658.09c.177.022.378.06.528.126m9.897 40.82c-.087-.13-.182-.277-.33-.395-.11-.115-.43-.253-.51-.27a1.347 1.347 0 0 0-1.11.23 1.83 1.83 0 0 0-.547.612c-.23.403-.24.727-.24.727l.62-.362c.177-.098.373-.204.562-.274.094-.04.19-.05.267-.066a.524.524 0 0 1 .192.006c.188.052.13.03.23.093.073.047.155.106.23.18.15.145.29.324.416.482l.44.57s.1-.305.04-.76a1.962 1.962 0 0 0-.26-.77m13.22-41.37c.025.066.085.133.105.203.12.277.134.587.134.587s.07-.024.17-.108a.96.96 0 0 0 .296-.455c.083-.216.086-.52-.027-.848l-.065-.162-.035-.082-.02-.04-.01-.02c-.063-.093-.03-.04-.05-.07a1.324 1.324 0 0 0-.432-.377 1.513 1.513 0 0 0-.95-.122c-.273.05-.495.15-.667.265-.348.217-.5.478-.5.478s.292.058.647.094c.35.034.808.092.99.205a.474.474 0 0 1 .12.076l.183.224c.023.06.07.09.114.152m-9.366-10.784c.023.183.037.382.042.568.004.367.02.672.02.672s.276-.136.525-.49c.13-.174.24-.408.31-.7.013-.16.02-.42-.004-.533l-.044-.184c-.065-.194-.122-.247-.202-.36a1.09 1.09 0 0 0-.545-.324 1.278 1.278 0 0 0-.482-.053c-.29.01-.53.092-.723.182-.388.176-.585.423-.585.423s.292.11.66.192l.575.137.238.082c.072.02.082.064.098.057-.006-.014.023.037-.005-.04l.062.18c.056.12.022.118.06.19m-2.218 11.97s.31-.15.593-.553c.14-.2.284-.464.334-.81.03-.17.033-.36-.02-.57a1.778 1.778 0 0 0-.114-.306l-.05-.098c-.08-.118-.084-.106-.13-.165-.307-.34-.69-.453-1.004-.494a2.42 2.42 0 0 0-.84.042c-.468.1-.74.3-.74.3s.313.11.725.234c.397.122.965.315 1.138.548 0-.002.043.065.01.004l.056.094c.054.082.026.07.047.098.018.07.048.167.058.27.017.207.01.44-.005.65l-.06.758m2.2 7.523c.097.02.186.05.25.105.033.025.074.034.11.052l.08.09.044.04.022.018.01.007.07.116c.052.07.038.09.04.11-.003.024.02.034.034.067.04.19.08.398.11.596.05.393.122.715.122.715s.277-.187.483-.6c.107-.206.19-.474.202-.798 0-.174-.07-.478-.13-.577l-.092-.183-.004-.01-.05-.072-.002-.002-.013-.012-.028-.023-.054-.047-.113-.094a1.082 1.082 0 0 0-.495-.276 1.31 1.31 0 0 0-.513-.07c-.327.008-.59.106-.794.217-.41.217-.582.486-.582.486s.317.014.705.043c.19.017.412.036.59.105m.523.317s.002 0 0 0zm-.046-.068l-.002-.003.002.002zm-9.132 25.628c-.076-.144-.155-.298-.303-.436a1.5 1.5 0 0 0-.285-.228l-.095-.053-.023-.012-.06-.026-.02-.005-.074-.02a1.498 1.498 0 0 0-1.142.126 1.76 1.76 0 0 0-.64.604c-.266.414-.28.754-.28.754l.664-.337a2.7 2.7 0 0 1 .59-.21.985.985 0 0 1 .516.023l.03.01.097.04c.01.023.006 0 .05.043.063.053.146.13.22.213.15.17.297.36.433.526.262.337.497.578.497.578s.105-.324.052-.795a2.202 2.202 0 0 0-.227-.795m-1.148.176l.01.005c-.04-.02.003 0-.01-.006m9.8-15.778c.056.022.068.082.115.105l.007.006v.003l.048.068.095.138c.005.06.05.087.08.153.06.15.124.31.176.466.11.345.185.574.185.574s.23-.167.374-.537c.074-.183.12-.42.1-.685a1.885 1.885 0 0 0-.12-.467l-.082-.147-.04-.073-.02-.037-.006-.01-.003-.005-.04-.054-.024-.02c-.133-.11-.264-.245-.415-.306-.15-.057-.312-.11-.45-.104a1.33 1.33 0 0 0-.692.15c-.356.177-.5.42-.5.42l.587.124a2.2 2.2 0 0 1 .457.14c.08.012.11.082.166.098m.09.066zM54.46 41.98c.167-.23.318-.574.307-1a1.286 1.286 0 0 0-.055-.326 2.032 2.032 0 0 0-.117-.31l-.05-.105c-.074-.12-.086-.117-.134-.18-.075-.1-.166-.18-.267-.253-.398-.304-.853-.333-1.2-.312-.357.037-.65.14-.888.252-.475.225-.712.504-.712.504l.825.08c.232.024.495.05.737.108.245.044.448.15.555.244.03.023.056.05.07.083.002 0 .04.062.013.008l.06.102c.056.085.046.095.063.122.016.022.02.08.045.116.058.173.077.39.074.604-.01.427-.066.815-.066.815s.397-.087.742-.553m-1.116 10.59l-.07-.088c-.024-.028.004 0-.063-.075l-.06-.054c-.31-.305-.72-.42-1.052-.442a2.176 2.176 0 0 0-.874.12c-.478.164-.723.428-.723.428s.342.092.773.178c.43.09.967.21 1.233.433l.03.02c-.043-.05.01.01.01.01l.076.085c.04.052.038.06.072.09.054.084.105.18.14.288.085.212.128.454.163.67.062.43.097.77.097.77s.25-.238.42-.712a2.23 2.23 0 0 0 .128-.88 2.005 2.005 0 0 0-.13-.545 1.684 1.684 0 0 0-.168-.294m7.5 4.946c-.125-.174-.164-.173-.258-.263-.166-.163-.344-.176-.514-.226-.174-.05-.31-.016-.458-.01-.274.034-.5.128-.677.233-.356.203-.52.457-.52.457s.292.076.646.122c.18.024.374.057.554.082.077.032.184.03.237.06.055.026.128.047.135.07-.004-.012.065.052.017-.03l.1.15c.1.12.06.12.11.18.07.14.126.33.172.495.082.337.153.62.153.62s.237-.178.396-.566c.08-.195.138-.434.118-.74-.027-.152-.084-.4-.13-.476l-.084-.158zm19.69-26.282l.02.032.036.064c.076.117.022.095.062.11.03.018.028.102.067.154.016.065.03.13.054.2l.133.548s.28-.07.506-.375c.06-.076.1-.17.15-.273.036-.118.068-.217.065-.384a1.196 1.196 0 0 0-.09-.44l-.027-.07-.013-.033-.01-.026-.002-.003-.043-.074a3.525 3.525 0 0 0-.183-.184 1.033 1.033 0 0 0-.394-.24c-.138-.06-.253-.055-.373-.08-.236-.01-.437.02-.602.08-.332.104-.514.29-.514.29s.23.147.496.285c.133.073.296.146.422.228.055.04.17.063.2.11.022.027.073.045.112.063l-.08.003.01.014zm.466-.03v.002h-.025c.01 0 .025.003.025-.002m-.053.003l-.15.002c.027-.022.1-.01.15-.003m-12.82 25.126l-.027-.025-.013-.014-.007-.005-.003-.005-.07-.05a3.9 3.9 0 0 0-.244-.088 1.052 1.052 0 0 0-.457-.05c-.152.003-.253.057-.373.085-.217.09-.386.203-.512.326-.255.236-.342.482-.342.482s.258.032.557.046c.15.01.315.006.465.026.066.013.153-.017.2.016.04.018.086 0 .108.006l.003.042.016.01.03.022.06.043c.12.074.06.077.104.075.034.003.068.08.125.11.044.053.083.106.135.16l.352.438s.225-.183.3-.554c.023-.095.02-.198.02-.312-.017-.123-.03-.226-.103-.377a1.183 1.183 0 0 0-.268-.36l-.055-.047zm-.73.55c0-.002.003-.008 0-.008v.007zM45.114 23.056c.066.017.154-.012.2.022.04.02.085.002.107.01l.002.043.015.012.03.022.058.046c.116.077.058.077.1.077.035.005.065.083.122.116.042.053.078.108.13.163l.334.452s.232-.174.32-.542c.027-.093.028-.196.033-.31-.013-.123-.02-.227-.088-.38a1.175 1.175 0 0 0-.254-.37l-.05-.054-.027-.026-.013-.014-.006-.007-.004-.004-.068-.052a3.888 3.888 0 0 0-.24-.098c-.17-.07-.31-.07-.455-.068-.15-.003-.255.048-.375.072-.22.08-.395.188-.525.305-.266.227-.36.47-.36.47s.254.042.553.067c.15.017.315.02.463.045m.298-.182l.002.007s0-.007-.003-.007zm203.93 10.343a2.78 2.78 0 0 0-1.328-.255 2.023 2.023 0 0 0-1.482.832c-.05.058-.084.12-.125.18-.023.04-.03.038-.068.114l-.035.078c-.05.11-.098.203-.145.327a2.69 2.69 0 0 0-.193.79c-.055.52.082 1.02.29 1.362.202.352.458.566.644.685.188.12.31.154.31.154s-.282-.438-.388-1.058c-.05-.31-.04-.65.047-1.003a5.43 5.43 0 0 1 .182-.514c.038-.09.103-.2.153-.302l.04-.078c-.01.023.018-.026.023-.037.024-.04.043-.08.07-.113.202-.288.468-.474.81-.564.338-.095.72-.09 1.053-.065.67.063 1.156.176 1.156.176s-.32-.392-1.015-.708m-36.32-4.26c.077.098.13.147.13.147s.043-.067.1-.174c.063-.103.108-.255.196-.4a2.19 2.19 0 0 0 .114-.228c.05-.066.1-.13.13-.197.107-.098.157-.193.268-.238.166-.142.547-.272.875-.386.328-.104.61-.224.61-.224s-.17-.263-.544-.44a1.584 1.584 0 0 0-.704-.17 1.458 1.458 0 0 0-.445.05c-.15.06-.314.106-.46.215a1.522 1.522 0 0 0-.37.387c-.11.137-.134.31-.19.453-.053.3-.025.562.05.76.048.207.175.346.24.447m40.673 31.71c-.13.124-.173.292-.246.428-.09.29-.094.554-.04.76.022.212.13.365.184.474.066.106.113.162.113.162s.05-.062.12-.16c.073-.096.138-.24.24-.376.052-.068.1-.142.142-.21.057-.062.115-.12.152-.182.12-.084.18-.173.295-.205.182-.12.576-.205.916-.277.34-.066.633-.15.633-.15s-.136-.28-.487-.504a1.574 1.574 0 0 0-.678-.253c-.135-.02-.29-.03-.447-.003-.157.037-.326.066-.483.157a1.49 1.49 0 0 0-.412.337m-47.896-15.7c.094.095.158.14.158.14s.03-.08.062-.204c.04-.126.056-.297.103-.48.026-.094.043-.19.055-.287a1.77 1.77 0 0 0 .076-.28c.027-.092.075-.168.087-.257l.115-.22c.155-.27.467-.547.787-.758l.574-.374s-.263-.185-.716-.212a1.865 1.865 0 0 0-.786.125c-.138.07-.288.14-.423.247-.136.11-.252.242-.353.394-.117.142-.154.323-.217.482a1.815 1.815 0 0 0-.05.483c.01.307.097.566.205.765.09.205.236.34.322.437m13.635 4.493l.002-.003.007-.01c.098-.212.326-.436.587-.62l.476-.328s-.217-.173-.602-.2a1.375 1.375 0 0 0-.67.114c-.25.103-.48.32-.64.592l-.016.024-.008.012-.004.007-.002.002-.03.083-.01.04-.053.237c-.02.16.01.41.067.548.123.277.31.45.484.546.344.2.62.163.62.163s-.106-.257-.204-.538c-.03-.07-.034-.147-.06-.214-.025-.07 0-.137-.02-.19.01-.056.032-.024.01-.072l.052-.153.016-.043zm-.004.005zm8.08 6.7c.058-.034.096-.098.166-.135.078-.027.136-.093.223-.112.08-.025.157-.07.237-.088.313-.107.565-.167.565-.167s-.202-.162-.58-.25a1.434 1.434 0 0 0-.69.022c-.13.037-.272.12-.4.206-.107.147-.227.2-.302.452-.028.11-.067.2-.04.43.012.218.092.345.158.454.135.233.312.38.47.486.32.21.577.252.577.252s-.115-.235-.257-.54c-.07-.148-.152-.32-.196-.478a.53.53 0 0 1-.035-.175c-.04.004.004-.13.034-.24-.034.024.058-.07.068-.114m23.027 12.61c.078.027.164.01.246.048.08.03.167.042.24.076.313.107.55.215.55.215s-.06-.25-.306-.552a1.44 1.44 0 0 0-.558-.407c-.125-.05-.29-.07-.442-.082-.175.05-.3.016-.517.172-.09.07-.174.116-.293.315a.862.862 0 0 0-.154.456c-.037.267.013.49.072.672.127.362.303.553.303.553s.053-.255.127-.582c.037-.16.076-.347.14-.498a.478.478 0 0 1 .08-.16c-.036-.022.08-.102.173-.17-.043 0 .092-.02.125-.048.07.007.137-.018.215-.005m5.137-18.612c.08 0 .158-.044.246-.034.086.004.172-.013.254-.004.33 0 .59.027.59.027s-.14-.22-.47-.425a1.41 1.41 0 0 0-.658-.206 1.578 1.578 0 0 0-.444.062c-.148.104-.277.113-.434.33-.063.095-.13.164-.176.392a.85.85 0 0 0 0 .48c.05.266.17.463.283.614.236.302.465.426.465.426s-.033-.26-.067-.593c-.016-.164-.04-.354-.028-.517-.004-.09.02-.166.022-.177-.04-.01.047-.123.113-.218-.04.014.078-.05.103-.085.067-.013.122-.06.202-.072m-28.637-2.45l.03-.013.038-.03c.023-.015.03-.06.068-.06.07-.008.106-.086.202-.086.156-.05.36-.066.54-.072l.663-.018s-.146-.265-.52-.485a1.446 1.446 0 0 0-.752-.222c-.15-.02-.34.03-.51.093-.093.02-.163.1-.243.153l-.114.095-.056.05-.027.024-.014.012-.007.007-.05.078c-.054.135-.112.19-.16.387-.046.203-.058.446-.01.573.063.31.208.532.35.694.28.332.565.433.565.433s-.04-.262-.1-.656c-.023-.18-.05-.38-.03-.548-.017-.11.038-.107.013-.153a.493.493 0 0 1 .07-.225c.01.017.02.04.02.062v-.01l.035-.082zm.014.16h-.003.002zm.003-.067l-.004.066c.044-.002.028-.032.003-.066m23.925-6.135a1.428 1.428 0 0 0-.75-.224c-.15-.022-.34.03-.513.092-.09.02-.16.1-.24.153l-.115.094-.057.05-.027.022-.014.01-.003.003h-.003l-.048.076-.003.01c-.055.135-.112.188-.16.388-.045.203-.055.445-.008.572.06.31.208.53.35.693.28.332.565.434.565.434s-.037-.264-.096-.657a2.387 2.387 0 0 1-.026-.55c-.016-.11.05-.114.025-.16-.01-.04.06-.146.116-.238l.008-.005.018-.014.03-.03c.024-.013.027-.06.066-.06.067-.008.104-.085.198-.085.156-.05.36-.065.54-.073l.663-.018s-.147-.264-.522-.484m-5.254 39.604s.198-.208.5-.52c.142-.144.3-.308.465-.436.08-.063.17-.115.245-.152.106-.05.046-.035.24-.067.015 0 .122-.01.19.015.076.026.17.044.258.095.18.09.365.218.528.333.35.256.58.427.58.427s.023-.323-.16-.748a1.826 1.826 0 0 0-.48-.67 1.342 1.342 0 0 0-1.08-.343c-.08.007-.41.11-.532.213-.16.102-.27.237-.372.358-.19.256-.285.514-.34.737-.11.448-.042.76-.042.76m-7.68-42.096c-.158-.13-.368-.255-.634-.333a1.514 1.514 0 0 0-.957.02 1.33 1.33 0 0 0-.47.332c-.022.024.015-.022-.057.062l-.013.02-.024.036-.045.077-.082.154c-.148.312-.178.614-.118.838.04.23.16.392.245.483.09.095.158.127.158.127s.048-.307.197-.568c.026-.07.094-.13.125-.192.05-.057.1-.082.13-.14l.206-.203a.504.504 0 0 1 .127-.064c.192-.092.654-.1 1.004-.098.36.002.654-.023.654-.023s-.12-.276-.445-.53m2.937-11.985c.016.01.03-.03.104-.046l.246-.058.586-.074c.375-.043.677-.12.677-.12s-.17-.267-.537-.484a1.83 1.83 0 0 0-.7-.257 1.284 1.284 0 0 0-.482 0 1.11 1.11 0 0 0-.576.266c-.092.104-.154.15-.24.337l-.064.178c-.035.11-.057.368-.06.53.037.298.122.543.23.73.212.378.472.542.472.542s.048-.3.092-.666c.023-.185.06-.382.102-.56.047-.07.013-.068.082-.187l.08-.17c-.037.072-.002.027-.012.038m-9.914 5.606c.195-.21.78-.344 1.188-.423.423-.08.745-.156.745-.156s-.247-.226-.704-.375a2.394 2.394 0 0 0-.828-.13c-.316.007-.71.08-1.05.385-.052.053-.056.042-.147.15l-.06.09a1.366 1.366 0 0 0-.226.857c.014.35.127.627.246.84.24.432.53.614.53.614l.02-.76c.01-.21.027-.442.066-.645.02-.1.062-.193.086-.262.024-.024-.006-.017.058-.092l.067-.086c-.038.055.01-.005.01-.003m8.48 13.542a1.75 1.75 0 0 0-.766-.3 1.312 1.312 0 0 0-.518.016c-.19.02-.36.104-.52.222l-.124.08-.06.043-.03.02-.016.012-.06.07-.003.003-.005.005-.11.172c-.07.093-.17.388-.19.56-.02.324.032.6.117.813.16.435.416.65.416.65s.105-.314.2-.698c.047-.193.112-.397.17-.58.018-.032.04-.04.042-.064.004-.02-.008-.042.05-.105l.083-.106.01-.006.023-.018.047-.033.09-.08c.038-.014.08-.018.116-.04a.53.53 0 0 1 .257-.077c.187-.05.407-.045.6-.042.39.012.706.032.706.032s-.14-.288-.526-.548m5.42 26.806c-.16.122-.256.268-.346.4-.175.27-.263.536-.31.77-.104.463-.034.796-.034.796s.26-.215.556-.522c.153-.15.32-.324.486-.48a2.96 2.96 0 0 1 .242-.187c.048-.038.042-.015.053-.035l.104-.03.025.002c-.004.002-.002.013.002.013h.002c.162 0 .322-.04.515.016.19.058.39.164.566.27.373.243.623.403.623.403s.02-.34-.2-.78a1.766 1.766 0 0 0-.57-.67 1.502 1.502 0 0 0-1.123-.245l-.076.01-.02.005-.06.02-.025.01-.1.042a1.48 1.48 0 0 0-.308.193m.777.713l-.028.015c.052 0 .036-.008.028-.014m-8.685-15.865c.067-.15.147-.302.226-.445.037-.063.084-.085.094-.145l.11-.126.054-.064.006-.006.005-.003c.05-.02.067-.075.124-.093.058-.01.094-.076.174-.078.138-.048.312-.07.47-.09l.596-.062s-.116-.257-.45-.47a1.327 1.327 0 0 0-.675-.225c-.135-.023-.3.014-.46.055-.155.043-.3.163-.443.26l-.026.02c-.084.093-.03.035-.053.06l-.023.035-.05.07-.097.138a1.86 1.86 0 0 0-.17.45c-.047.264-.027.503.03.692.1.383.312.573.312.573l.244-.548m8.768-8.195c-.035.047-.103.18-.15.294-.05.116-.07.212-.09.32-.057.42.057.777.2 1.024.294.5.677.63.677.63s-.012-.394.02-.818a1.95 1.95 0 0 1 .138-.592c.03-.034.04-.09.06-.11.02-.026.01-.037.073-.115l.072-.095c-.035.05.012-.007.013-.007a.227.227 0 0 1 .078-.073 1.22 1.22 0 0 1 .58-.185c.248-.033.51-.03.744-.028l.828.01s-.205-.304-.652-.578a2.688 2.688 0 0 0-.857-.345c-.34-.057-.797-.076-1.226.184-.107.06-.207.132-.293.222-.052.058-.065.055-.15.164l-.062.1zm-.445 13.09a2.25 2.25 0 0 0 .035.89c.12.49.34.752.34.752s.072-.332.18-.755a3.31 3.31 0 0 1 .232-.648 1.3 1.3 0 0 1 .17-.272c.037-.027.037-.033.08-.082l.086-.075s.06-.052.012-.01l.03-.016c.29-.193.836-.255 1.272-.3.438-.04.787-.094.787-.094s-.216-.288-.674-.502a2.2 2.2 0 0 0-.855-.212c-.332-.012-.752.058-1.095.328l-.065.047c-.075.068-.043.043-.07.068l-.08.08c-.06.062-.143.183-.197.273a1.97 1.97 0 0 0-.187.53m-6.805 3.93c.01-.02.084-.033.142-.052.056-.023.162-.012.24-.035.184-.007.38-.018.563-.023.356-.008.654-.053.654-.053s-.134-.27-.468-.51a1.753 1.753 0 0 0-.65-.306c-.145-.02-.276-.07-.455-.037-.175.03-.353.025-.536.17-.104.08-.144.074-.284.233l-.102.15c-.055.07-.137.31-.18.457-.053.304-.02.548.04.75.116.404.333.607.333.607l.22-.602c.063-.16.138-.343.222-.474.058-.055.017-.06.13-.167l.113-.14c-.056.08.02.024.015.034m-22.522-27.207c.192.327.463.427.463.427l.19-.53c.032-.066.05-.13.075-.193.045-.048.05-.132.082-.145.043-.014-.014.003.074-.105l.04-.055c.014-.005.022-.014.03-.023 0-.032.067-.043.106-.08.032-.046.12-.06.178-.094.136-.067.29-.124.43-.183.28-.11.51-.23.51-.23s-.162-.206-.482-.347a1.642 1.642 0 0 0-.588-.143c-.123.013-.236-.006-.38.04-.14.04-.273.08-.417.195a2.97 2.97 0 0 0-.2.163l-.052.07-.002.005-.006.008-.025.05-.035.065a1.21 1.21 0 0 0-.137.428c-.02.166.002.268.025.39.04.108.07.205.12.287m.967-.66l.005-.005c.002-.004-.002.002-.01.012l.005-.007zm18.03 22.157a2.99 2.99 0 0 0-.253.062l-.075.04-.012.01-.014.01-.032.023-.06.044c-.054.028-.22.187-.304.33-.088.14-.11.242-.14.362-.014.113-.028.215-.016.31.034.38.238.584.238.584l.397-.4c.058-.046.102-.096.15-.143.06-.024.104-.097.137-.096.043.005-.015-.003.11-.063l.062-.033a.07.07 0 0 0 .037-.01c.01-.027.075-.01.128-.025.05-.027.133-.003.2-.01.15-.004.315.01.466.018.3.018.56.005.56.005s-.06-.254-.29-.517a1.637 1.637 0 0 0-.473-.378c-.116-.04-.21-.104-.36-.124a1.04 1.04 0 0 0-.46.002m.26 1.004h0m-7.515-41.24c.025 0 .015-.01-.002-.02v.02h.002zm-.002-.02l-.002-.085-.007-.05-.017-.02-.005.002c-.01.027-.02.104-.032.104-.01.006.04.03.065.048m1.328-.235s-.068-.253-.31-.506a1.592 1.592 0 0 0-.486-.36c-.117-.035-.216-.097-.367-.11a1.036 1.036 0 0 0-.46.02 3.23 3.23 0 0 0-.247.07l-.074.045-.004.002-.006.006-.045.035-.056.047c-.054.03-.214.195-.292.342-.083.146-.103.247-.128.37-.008.112-.018.216 0 .31.048.376.26.574.26.574l.38-.415c.058-.048.1-.098.147-.146.06-.027.1-.1.133-.1.043.004-.016 0 .107-.064l.064-.03.027-.006c.003-.004.004-.016.006-.017.013-.03.077-.013.128-.032.048-.028.135-.008.2-.017.15-.01.317-.002.468-.002.3.006.56-.017.56-.017M43.825 116.7a.75.75 0 0 0-1 .35l-2.168 4.5a.75.75 0 0 0 1.352.65l2.166-4.5a.75.75 0 0 0-.35-1m7.146 3.758a.75.75 0 1 0-.943-1.166c-.192.154-4.675 3.827-3.933 7.724a.75.75 0 1 0 1.474-.282c-.573-3.012 3.363-6.244 3.402-6.276m-.602 6.012a.75.75 0 0 0-.608.868c.005.025.434 2.57-.892 4.632a.75.75 0 0 0 .63 1.155.748.748 0 0 0 .63-.345c1.64-2.55 1.132-5.575 1.11-5.702a.752.752 0 0 0-.87-.608m-10.143-15.676a.753.753 0 0 0-.807.69l-.5 6.332a.75.75 0 0 0 1.495.118l.5-6.333a.75.75 0 0 0-.688-.806m9.02 3.665a.748.748 0 0 0-.83-.662.75.75 0 0 0-.662.827c.004.04.4 3.943-2.86 5.22a.75.75 0 0 0 .546 1.396c3.456-1.352 4-5.027 3.806-6.78m218.25-5.803a.75.75 0 0 0 1.258-.814c-1.567-2.424-4.834-2.586-4.973-2.592-.413-.033-.76.304-.778.717a.75.75 0 0 0 .715.782c.027 0 2.637.143 3.78 1.907M244 118.875c0 .414.336.75.75.75.19 0 .466-.04.8-.097 1.907-.32 3.862-.396 5.007 2.382a.75.75 0 1 0 1.386-.57c-1.695-4.12-5.158-3.538-6.64-3.292-.23.04-.422.076-.554.076a.75.75 0 0 0-.75.75m25.853-.514a.75.75 0 1 0 .294-1.47c-2.017-.404-2.918-3.442-2.927-3.473a.746.746 0 0 0-.928-.513.75.75 0 0 0-.514.926c.048.162 1.16 3.947 4.075 4.53m-8.96-8.028a.75.75 0 0 0-1.036 1.086c.682.65 2.51 2.654 2.78 4.096a.75.75 0 1 0 1.476-.278c-.408-2.174-2.934-4.632-3.22-4.904m-18.772 15.78a.748.748 0 1 0 .258-1.476c-2.63-.463-3.206-1.413-3.145-1.854a.75.75 0 0 0-1.46-.338c-.022.08-.184.817.352 1.645.643.987 1.988 1.67 3.996 2.023m14.47-10.985c.062 0 .123 0 .184-.003a.75.75 0 1 0-.046-1.5c-.042.002-.085.002-.127.002-3.347 0-5.14-4.127-5.158-4.17a.75.75 0 1 0-1.38.584c.085.21 2.19 5.088 6.53 5.088m-22.854 22.535a.75.75 0 0 0-.95.475.752.752 0 0 0 .475.95c.147.048.364.087.63.128 1.114.173 2.98.46 3.893 3.383a.75.75 0 0 0 1.43-.448c-1.19-3.813-3.924-4.237-5.092-4.418-.163-.026-.296-.04-.386-.07m6.887-36.54a.75.75 0 0 0 .307-1.433l-3.625-1.624a.75.75 0 0 0-.613 1.37l3.625 1.624c.098.044.202.065.305.065m14.664 5.862a.75.75 0 0 0 1.42-.474c-.733-2.205-3.602-3.184-3.722-3.225a.75.75 0 0 0-.475 1.425c.022.006 2.282.796 2.776 2.274m12.857-4.93a.75.75 0 0 0 1.456-.363c-.71-2.84-3.457-3.968-3.573-4.015a.754.754 0 0 0-.976.417.75.75 0 0 0 .418.975c.022.008 2.15.88 2.675 2.985m24.74-21.566a.75.75 0 1 0 .23-1.482c-.804-.122-1.348-.405-1.62-.84-.394-.62-.16-1.425-.156-1.445a.75.75 0 0 0-.487-.938.754.754 0 0 0-.942.487c-.018.06-.45 1.46.306 2.68.513.827 1.41 1.346 2.67 1.54m-8.308-11.754a.746.746 0 0 0 .035 1.056.753.753 0 0 0 1.057-.03c.166-.172.742-.632 1.26-.636.095.006.384.02.73.46a.75.75 0 1 0 1.18-.926c-.64-.815-1.36-1.01-1.85-1.03-1.263-.075-2.302.987-2.412 1.106m-8.886-17.865l.06.002a.75.75 0 0 0 .056-1.498c-2.46-.188-2.556-2.493-2.558-2.756a.75.75 0 0 0-1.5.005c0 1.364.824 4.008 3.942 4.248m18.452-2.756c.03.005 2.983.462 3.62 3.655a.752.752 0 0 0 .883.588.75.75 0 0 0 .588-.883c-.676-3.378-3.487-4.646-4.88-4.845a.74.74 0 0 0-.848.636.75.75 0 0 0 .637.85m-9.492 32.398a.75.75 0 1 0-.305 1.47c.03.006 3.127.674 3.537 3.138a.75.75 0 1 0 1.48-.246c-.577-3.47-4.544-4.327-4.712-4.362m-6.113 3.19a.748.748 0 0 0-.335 1.004c.056.114 1.418 2.793 3.696 3.506a.752.752 0 0 0 .94-.492.75.75 0 0 0-.49-.94c-1.666-.52-2.793-2.723-2.805-2.745a.75.75 0 0 0-1.006-.335m-3.663 5.25a.75.75 0 0 0 1.488.168c.127-.76-.705-1.992-2.475-3.668a.75.75 0 1 0-1.032 1.09c.983.93 1.91 2.038 2.02 2.41m1.077 18.92h.047c.393 0 .723-.49.748-.89.023-.413-.29-.953-.705-.98-.678-.04-1.55-.194-1.846-.728-.316-.568.042-1.465.208-1.768a.725.725 0 0 0-.293-.995c-.363-.202-.82-.024-1.02.338-.104.184-.975 1.93-.214 3.32.502.91 1.536 1.702 3.075 1.702m-3.9-11.747a.752.752 0 0 0-.678.818 3.204 3.204 0 0 0 1.188 2.078c.663.525 1.52.79 2.56.79.31 0 .637-.024.98-.07a.753.753 0 0 0 .64-.847.748.748 0 0 0-.846-.64c-1.05.146-1.855.013-2.386-.396-.552-.424-.636-1.028-.642-1.064-.044-.408-.393-.694-.818-.668M35.948 110.732c-1.08.65-2.737 2.566-1.268 5.178a.752.752 0 0 0 1.022.285.75.75 0 0 0 .286-1.02c-1.073-1.908.422-2.965.735-3.16a.748.748 0 0 0 .254-1.025.748.748 0 0 0-1.03-.258m-24.3-69.993a.75.75 0 0 0-1.034.237l-2.5 4a.75.75 0 0 0 1.273.794l2.5-4a.75.75 0 0 0-.24-1.03m12.285 43.17a.75.75 0 0 0 .44-.966.752.752 0 0 0-.966-.438c-2.917 1.094-4.515 4.407-4.58 4.548a.75.75 0 0 0 1.354.642c.013-.03 1.398-2.903 3.753-3.786m-.608 5.398a.75.75 0 0 0-.888.58l-.667 3.166a.75.75 0 1 0 1.467.31l.667-3.167a.75.75 0 0 0-.578-.89m-7.165-30.532a.75.75 0 1 0-.98-1.135c-.78.67-4.61 4.142-3.62 6.522a.75.75 0 1 0 1.386-.575c-.425-1.02 1.666-3.474 3.214-4.812m2.79 13.36a.75.75 0 0 0-.854.626c-.26 1.687-2.16 2.402-2.18 2.41a.75.75 0 1 0 .506 1.41c.112-.04 2.76-1.012 3.155-3.59a.75.75 0 0 0-.627-.856m7.41 21.85a.748.748 0 0 0-.917.532c-.215.82-.985 3.13-1.934 3.96a.75.75 0 0 0 .987 1.13c1.464-1.28 2.307-4.36 2.4-4.707a.75.75 0 0 0-.535-.917m7.576 6.358a.75.75 0 0 0-.968.437c-.016.044-1.703 4.396-4.866 4.684a.75.75 0 0 0 .135 1.495c4.087-.37 6.052-5.43 6.134-5.646a.75.75 0 0 0-.436-.97m2.842 3.62c-.09.007-.887.09-1.508.904-.725.95-.895 2.458-.505 4.485a.75.75 0 1 0 1.473-.285c-.39-2.03-.046-2.908.194-3.25.21-.303.452-.356.484-.362a.75.75 0 0 0 .667-.804.756.756 0 0 0-.804-.69m-8.663-3.91c.192.5.092 1.192-.29 2.006a.75.75 0 1 0 1.356.638c.57-1.21.68-2.28.332-3.185a2.72 2.72 0 0 0-1.39-1.495.75.75 0 0 0-.578 1.384c.005.002.39.19.57.65m8.013-17.024a.752.752 0 0 0 1.024-.28l2-3.5a.75.75 0 0 0-1.302-.743l-2 3.5a.753.753 0 0 0 .28 1.023m10.583 24.92c.132-.395-.068-.85-.46-.98-.394-.134-.806.05-.936.443-.065.118-.24.343-.47.648-1.277 1.707-3.655 4.884-2.7 7.113a.75.75 0 0 0 1.378-.592c-.613-1.43 1.666-4.476 2.523-5.62.45-.6.596-.8.666-1.013M26.455 87.062a.75.75 0 1 0 .76 1.292c1.965-1.155 2.877-3.003 2.712-5.49-.004-.067-.008-.12-.008-.156a.75.75 0 0 0-1.5 0c0 .06.004.146.012.255.05.772.187 2.826-1.976 4.1m2.455-28.404a.75.75 0 1 0 .85-1.237c-2.05-1.41-1.043-3.633-.92-3.882a.75.75 0 0 0-1.344-.667c-.62 1.238-1.12 4.043 1.413 5.786m28.72 43.395c-1.517.857-4.062 3.37-2.836 6.742a.75.75 0 0 0 1.41-.512c-1.096-3.016 2.032-4.85 2.166-4.925a.75.75 0 0 0-.74-1.305M40 106.6a.75.75 0 0 0 1.06-.056c3.318-3.688.71-8.497.596-8.7a.75.75 0 1 0-1.31.73c.02.04 2.21 4.065-.403 6.967A.75.75 0 0 0 40 106.6m-9.882-12.31l.05.002a.75.75 0 0 0 .748-.7c.15-2.267 2.024-5.105 2.043-5.134a.75.75 0 0 0-1.25-.832c-.086.13-2.112 3.197-2.29 5.866a.75.75 0 0 0 .698.798m27.613 22.695a.75.75 0 0 0 1.046-.173c.915-1.28.21-2.843-.35-3.563a.75.75 0 0 0-1.186.918c.007.01.803 1.09.316 1.77a.75.75 0 0 0 .175 1.047M31.668 98.958a.75.75 0 0 0 .416-.126c2.808-1.872 2.593-4.28 2.087-5.293a.75.75 0 0 0-1.34.67c.007.018.84 1.76-1.58 3.374a.75.75 0 0 0 .417 1.374m208.698 36.512c-1.545-.858-2.052-3.643-2.117-4.643a.75.75 0 0 0-1.496.096c.01.18.305 4.425 2.884 5.857a.75.75 0 0 0 .73-1.31m-64.217 32.57a.755.755 0 0 0-.49.938c.043.137.36 1.354-1.164 2.25a.75.75 0 0 0 .38 1.397c.127 0 .26-.033.377-.104 2.096-1.23 2.115-3.16 1.832-4.008a.746.746 0 0 0-.936-.472m-1.65-.04a.75.75 0 0 0 .29-1.44c-1.818-.767-1.675-2.772-1.667-2.867a.752.752 0 0 0-.676-.814.757.757 0 0 0-.82.675c-.104 1.098.302 3.428 2.582 4.388a.78.78 0 0 0 .29.057m3.693-4.736a.752.752 0 0 0-.18 1.044c.01.015 1.027 1.5.518 3.23a.75.75 0 1 0 1.44.424c.72-2.447-.675-4.44-.734-4.522a.75.75 0 0 0-1.043-.176m-7.656 6.02c-.092.116-2.203 2.835-.778 4.893a.747.747 0 0 0 1.042.19.748.748 0 0 0 .19-1.044c-.78-1.13.707-3.09.723-3.108a.752.752 0 0 0-1.178-.93m-5.558-3.734a.75.75 0 1 0-1.46-.35c-.044.183-1.06 4.515 1.144 7.27a.75.75 0 0 0 1.172-.938c-1.742-2.178-.866-5.942-.857-5.98m18.02-8.927a.75.75 0 0 0 .424-1.368l-1.797-1.23c1.484-1.453 2.783-2.95 3.863-4.448a35.82 35.82 0 0 0 3.312-5.51c.85-1.708 1.41-3.272 1.84-4.56.232-.712.414-1.336.56-1.88.034-.008.07-.01.106-.017a.75.75 0 0 0 .596-.878.748.748 0 0 0-.384-.51c.106-.544.147-.85.147-.85s-.098.287-.293.786a.7.7 0 0 0-.35-.02c-3.83.732-6.347-1.967-6.467-2.1a.75.75 0 0 0-1.118 1.002c.11.125 2.486 2.726 6.263 2.726a8.43 8.43 0 0 0 1.02-.07c-.205.458-.443.975-.727 1.546-.592 1.196-1.403 2.6-2.392 4.152a42.357 42.357 0 0 1-3.71 4.906 43.476 43.476 0 0 1-2.424 2.51.712.712 0 0 0-.385-.18c-1.512-.18-1.827-1.19-1.86-1.31a.75.75 0 0 0-1.457.346c.018.078.44 1.735 2.424 2.297-.496.428-1.01.85-1.547 1.257a33.69 33.69 0 0 1-2.884 2.017c-.46-.588-.668-1.086-.687-1.137a.75.75 0 0 0-1.4.54c.022.06.262.65.793 1.367-.675.386-1.364.755-2.076 1.104-.935-1.746-2.056-2.844-2.126-2.91a.75.75 0 0 0-1.032 1.09c.016.014.98.957 1.797 2.454-1.005.446-2.032.86-3.098 1.223a.73.73 0 0 0-.325-.38c-.988-.538-2.307-2.348-2.73-3a.752.752 0 0 0-1.258.818c.15.234 1.36 2.056 2.65 3.077-.81.233-1.625.45-2.456.635-.65.125-1.297.277-1.953.393-.26-.952-.518-1.607-.54-1.667a.752.752 0 0 0-1.394.557c.005.013.218.553.442 1.352l-.877.136-2.167.22c-.076.008-.162.01-.24.016-.25-1.27-.096-2.37-.094-2.388a.75.75 0 1 0-1.484-.227 9.2 9.2 0 0 0 .065 2.702c-.175.008-.353.014-.526.023-1.038.028-2.084.03-3.128.017-.124-.97-.27-1.712-.31-1.902a.75.75 0 1 0-1.47.3c.076.363.17.924.258 1.565a36.43 36.43 0 0 1-4.114-.392c-.146-.023-.288-.057-.433-.082.228-.623.487-1.165.674-1.49a.75.75 0 0 0-1.296-.752c-.043.074-.497.872-.87 1.96-.438-.092-.867-.202-1.298-.312l.066-2.105a.737.737 0 0 0-.725-.758.8.8 0 0 0-.774.757l-.054 1.695a28.364 28.364 0 0 1-3.35-1.233 24.49 24.49 0 0 1-2.742-1.472c.2-.67.423-1.252.578-1.596a.75.75 0 0 0-1.367-.617c-.028.06-.264.594-.518 1.364a28.065 28.065 0 0 1-2.49-1.932c-.2-.18-.384-.366-.578-.55.477-.67.927-1.253 1.223-1.613a.768.768 0 0 0-.103-1.07c-.32-.264-.792-.25-1.056.07-.127.156-.597.73-1.163 1.52a29.403 29.403 0 0 1-2.98-3.683c-1.255-1.83-2.203-3.663-2.956-5.332-.036-.08-.065-.152-.098-.23.54-.413 1.023-.774 1.34-1a.75.75 0 0 0-.877-1.22c-.052.038-.472.34-1.06.786a44.104 44.104 0 0 1-.997-2.802 42.157 42.157 0 0 1-.816-2.972c1.716-.68 3.016-1.81 3.098-1.88a.75.75 0 1 0-.992-1.126c-.718.634-3 2.23-4.91 1.985a.75.75 0 0 0-.186 1.488c.196.025.393.037.59.037.743 0 1.475-.168 2.15-.412.01.726.066 1.757.235 3.062.134 1.02.342 2.207.67 3.52-1.165.93-2.47 2.05-3.07 2.85a.75.75 0 0 0 1.2.9c.42-.56 1.347-1.386 2.312-2.176.236.778.516 1.59.85 2.43l-1.32.932a.75.75 0 1 0 .865 1.224l1.06-.748c.285.62.59 1.248.942 1.883.066.12.146.24.214.36-.44.523-1.123 1.38-1.553 2.154a.75.75 0 0 0 1.31.73c.28-.504.704-1.07 1.068-1.523a27.13 27.13 0 0 0 2.39 3.157c-.593 1.092-1.063 2.24-1.11 3.216-.022.413.296.66.71.66h.038c.397 0 .73-.193.75-.595.028-.598.317-1.343.708-2.11.052.05.096.104.148.156.262.265.553.513.83.767-.367 1.016-.976 3.028-.67 4.557a.75.75 0 1 0 1.47-.295c-.183-.912.117-2.22.428-3.202.552.444 1.13.87 1.73 1.28-.034.735.037 1.46.282 2.09a.75.75 0 0 0 1.4-.542 2.658 2.658 0 0 1-.137-.56c.582.344 1.174.674 1.787.98.374.184.766.343 1.15.514-.13.744-.35 1.502-.655 1.808a.75.75 0 0 0 1.06 1.06c.544-.542.843-1.46 1.012-2.273a32.01 32.01 0 0 0 4.506 1.363c.083.544.26 1.07.58 1.547a.747.747 0 0 0 1.04.208.75.75 0 0 0 .207-1.04c-.077-.115-.118-.25-.17-.38.048.01.096.022.145.03a44.18 44.18 0 0 0 4.86.516c-.036.57-.12 1.083-.278 1.466a.75.75 0 1 0 1.387.57c.23-.554.347-1.25.393-1.993.76.013 1.52.007 2.28-.02.06.41.064.964-.097 1.69a.75.75 0 0 0 .732.914.747.747 0 0 0 .73-.587c.188-.837.197-1.518.133-2.078a36.62 36.62 0 0 0 1.36-.098c.123.082.26.138.402.138a.744.744 0 0 0 .496-.188c.015-.014.02-.03.035-.046l.406-.046c.08.764.054 1.644-.327 2.26a.75.75 0 1 0 1.278.788c.61-.99.65-2.237.54-3.225.285-.047.568-.1.854-.147a8.347 8.347 0 0 1-.027.657.75.75 0 0 0 1.494.142c.034-.35.042-.708.032-1.064a32.022 32.022 0 0 0 2.197-.497c.276-.07.546-.16.82-.236.153.422.29 1.062.33 2.007.014.403.346.72.747.72h.03c.415 0 .735-.365.72-.78-.04-1.023-.188-1.787-.38-2.363a40.674 40.674 0 0 0 5.243-2.087.753.753 0 0 0 .78.34.75.75 0 0 0 .594-.877c-.01-.044-.025-.083-.033-.127.366-.193.72-.398 1.075-.602.465.628.983 1.682.733 3.117a.75.75 0 0 0 1.48.26 5.44 5.44 0 0 0-.926-4.154c.317-.2.636-.4.943-.61a6.83 6.83 0 0 0 2.542.755.75.75 0 1 0 .148-1.49c-.47-.05-.89-.15-1.27-.284a37.938 37.938 0 0 0 2.15-1.723c.06-.055.118-.112.18-.17l2.067 1.416c.135.087.282.13.428.13m-25.145 12.682a.75.75 0 1 0-1.21.885l2.374 3.25a.748.748 0 0 0 1.046.163.75.75 0 0 0 .163-1.048l-2.375-3.25zm12.143-5.25a.752.752 0 1 0-1.496.136c.135 1.466.033 4.134-.805 5.05a.75.75 0 1 0 1.106 1.013c1.554-1.695 1.236-5.744 1.195-6.2m24.547 1.858a.748.748 0 0 0-1.004-.336.748.748 0 0 0-.335 1.005l1.375 2.75a.748.748 0 0 0 1.006.337.75.75 0 0 0 .334-1.007l-1.375-2.75zm5.71-1.495c-2.552-.93-3.535-1.63-3.558-1.647a.75.75 0 0 0-.898 1.202c.044.034 1.12.83 3.943 1.855a.75.75 0 0 0 .513-1.41m3.228-3.648a.75.75 0 0 0-.588-.883c-3.296-.66-4.418-2.978-4.467-3.08a.75.75 0 1 0-1.363.625c.058.126 1.456 3.11 5.535 3.925a.748.748 0 0 0 .883-.588m-20.737-1.582a.75.75 0 0 0-.674-.81c-.402-.053-.78.258-.82.67-.012.12-.25 2.963 3.56 5.685a.75.75 0 0 0 .87-1.22c-3.033-2.168-2.943-4.217-2.935-4.325m2.13 10.91c-1.94-1.12-1.757-4.52-1.755-4.552a.75.75 0 0 0-1.496-.096c-.012.178-.25 4.357 2.498 5.947a.75.75 0 0 0 .752-1.3m5.76-12.12c-.344-.203-.78-.095-1 .24s-.125.796.2 1.03c.012.008 1.028.77 1.678 4.022a.75.75 0 1 0 1.47-.295c-.774-3.878-2.092-4.84-2.35-4.996m-3.31 2.527a.748.748 0 0 0-.193 1.043c.702 1.02 2.323 4.135 1.426 6.287a.75.75 0 0 0 1.384.576c1.392-3.338-1.452-7.536-1.573-7.713a.752.752 0 0 0-1.044-.193m-69.64 3.466a.75.75 0 0 0-.587.883l.832 4.167a.75.75 0 1 0 1.47-.295l-.833-4.167a.75.75 0 0 0-.883-.587m4.25-8.22a.75.75 0 0 0-.685.81c.086 1.05.036 4.232-1.275 5.052a.75.75 0 1 0 .795 1.272c2.32-1.45 2.017-5.94 1.975-6.448a.754.754 0 0 0-.81-.687m4.806 6.424a.75.75 0 0 0-1.234-.854c-.258.372-2.485 3.7-1.285 5.8a.752.752 0 0 0 1.024.278.75.75 0 0 0 .28-1.022c-.557-.972.45-3.093 1.215-4.2m-7.577-13.15a.75.75 0 1 0-1.33.694c.018.035 1.785 3.48.362 5.756a.75.75 0 1 0 1.272.794c1.873-2.996-.216-7.072-.304-7.244m9.71 16.722a.75.75 0 0 0-.75.75c-.002 1.257-.29 4.746-1.595 5.79a.75.75 0 0 0 .938 1.17c2.096-1.676 2.157-6.424 2.157-6.96a.75.75 0 0 0-.75-.75m74.317-2.955a.75.75 0 0 0-.106 1.056c.014.018 1.304 1.646 1.166 3.297a.75.75 0 1 0 1.496.125c.188-2.276-1.432-4.286-1.5-4.37a.752.752 0 0 0-1.056-.107m-92.293-7.203l-3 4a.75.75 0 0 0 1.2.9l3-4a.75.75 0 0 0-1.2-.9m4.676.988c-.132.17-3.23 4.186-2.124 7.688a.748.748 0 0 0 .94.49.75.75 0 0 0 .49-.94c-.867-2.748 1.85-6.278 1.876-6.313a.75.75 0 1 0-1.182-.925m27.26 11.433a.75.75 0 0 0-1.423.474l1.375 4.125a.752.752 0 0 0 .95.475.75.75 0 0 0 .473-.95l-1.374-4.124zm5.495-2.988a.75.75 0 0 0-1.055-.105c-1.12.917-2.86 3.315-1.426 5.827a.752.752 0 0 0 1.023.28.75.75 0 0 0 .28-1.024c-1.162-2.03.977-3.843 1.074-3.924a.75.75 0 0 0 .104-1.055m1.636 4.16a.753.753 0 0 0-.41.977c.033.078.758 1.94-.945 3.543a.75.75 0 1 0 1.03 1.093 4.758 4.758 0 0 0 1.302-5.213.745.745 0 0 0-.976-.4m2.534-2.96a.75.75 0 0 0-.275 1.025c.434.752 1.546 3.155.98 4.29a.75.75 0 0 0 .67 1.085c.274 0 .54-.15.67-.415 1.027-2.05-.808-5.342-1.02-5.71a.75.75 0 0 0-1.025-.274m-14.194 1.67a.75.75 0 1 0 .89 1.208c2.742-2.02 2.184-4.544 2.16-4.65a.745.745 0 0 0-.892-.556.754.754 0 0 0-.57.89c.014.068.33 1.695-1.588 3.108m-3.17-1.155a.766.766 0 0 0-.283 1.013c.018.035.426.873-1.297 2.144a.75.75 0 1 0 .89 1.208c2.905-2.14 1.738-4.05 1.687-4.13a.734.734 0 0 0-.998-.234m-1.142-.6l-.625-4.25a.754.754 0 0 0-.85-.632.75.75 0 0 0-.635.852l.625 4.25a.752.752 0 0 0 .85.633.75.75 0 0 0 .635-.852m6.154 6.85c-.555-.348-1.41-1.846-1.838-2.798a.75.75 0 0 0-1.37.615c.204.452 1.276 2.744 2.412 3.453a.75.75 0 1 0 .795-1.27m142.598-73.786a.75.75 0 0 0-1.242.843l2.375 3.5a.753.753 0 0 0 1.04.2.75.75 0 0 0 .2-1.043l-2.374-3.5zm-10.744 21.834l-3.666-1.833a.75.75 0 0 0-.67 1.343l3.666 1.833a.753.753 0 0 0 1.006-.336.75.75 0 0 0-.336-1.006m.496-6.903a.75.75 0 0 0-.37 1.448c.09.065.606.5 1.296 2.31a.75.75 0 0 0 1.403-.535c-1.005-2.633-1.89-3.15-2.33-3.223m9.005-16.26c.125 0 .252-.063.37-.13a.79.79 0 0 0 .28-1.055c-1.69-2.952-3.615-2.95-3.835-2.938-.403.03-.696.25-.68.656.02.402.362.467.763.467h.012c.08 0 1.244.287 2.437 2.373.138.242.39.627.652.627m-3.654 13.766c-2.406.49-4.1-1.81-4.914-2.92-.355-.484-.518-.705-.82-.807a.75.75 0 0 0-.662 1.33c.067.078.157.207.273.365.827 1.125 2.648 3.606 5.43 3.606.32 0 .652-.034.998-.105a.75.75 0 0 0-.305-1.47M259.125 130a.75.75 0 0 0-.307 1.435c.168.22.492.863.735 1.47a.748.748 0 0 0 .975.417.75.75 0 0 0 .418-.975c-.938-2.347-1.49-2.347-1.82-2.347m1.876-5.125a.75.75 0 0 0 .17-1.48c-3.45-.812-3.217-3.604-3.178-3.924a.75.75 0 0 0-.646-.838.745.745 0 0 0-.842.645c-.204 1.53.437 4.665 4.32 5.58.06.012.117.018.176.018m2.59 3.518c-2.3.498-3.64-1.683-3.697-1.776a.75.75 0 0 0-1.29.765c.07.117 1.563 2.59 4.285 2.59.323 0 .663-.036 1.02-.114a.748.748 0 0 0 .573-.892.748.748 0 0 0-.892-.573m.285-9.393a.75.75 0 0 0-.192 1.475c.438.283 2.024 1.973 2.782 3.38a.75.75 0 1 0 1.32-.71c-.643-1.196-2.9-4.145-3.91-4.145m-56.655 39.835a.75.75 0 0 0-1.43-.447c-.054.16-.29 1.065.23 3.4a.75.75 0 0 0 1.463-.327c-.413-1.853-.274-2.57-.263-2.625m91.448-97.454c-1.316.128-2.43-2.17-2.707-2.993a.75.75 0 0 0-1.42.475c.056.17 1.372 4.025 3.99 4.025.1 0 .2-.006.304-.018a.75.75 0 0 0 .662-.83.743.743 0 0 0-.828-.66m-6.986 26.123c-1.064.104-1.984-.48-2.018-.504a.75.75 0 0 0-.83 1.25c.05.033 1.166.764 2.606.764.124 0 .25-.005.378-.017a.75.75 0 0 0-.136-1.494m-10.356 17.47a.75.75 0 0 0-.848-1.233c-.16.1-1.517 1.06-.16 4.068a.75.75 0 0 0 .99.376.75.75 0 0 0 .377-.99c-.64-1.423-.48-2.075-.36-2.22m-171.093 57.99a.75.75 0 0 0-.642.845c.134 1 .104 3.183-.846 3.527a.75.75 0 0 0 .51 1.41c2.336-.85 1.882-4.703 1.822-5.14a.752.752 0 0 0-.844-.642M289.484 91.14c-1.642.314-3.21-2.46-3.667-3.555a.75.75 0 0 0-1.384.578c.08.195 1.91 4.5 4.782 4.5.18 0 .363-.016.55-.052a.75.75 0 1 0-.28-1.47m-5.216.35a.75.75 0 0 0-1.288.77l3 5a.754.754 0 0 0 1.03.258.75.75 0 0 0 .258-1.03l-3-5zm8.752-8.743a.748.748 0 1 0-1.295.755l1.75 3a.75.75 0 1 0 1.295-.756l-1.75-3zm-67.63 69.392a.748.748 0 0 0-.875.59c-.08.404.183.798.587.88.075.017 1.855.4 2.908 2.298a.75.75 0 1 0 1.31-.73c-1.404-2.526-3.828-3.02-3.93-3.04m7.4-4.743a.753.753 0 0 0-.276 1.022c.01.018 1.008 1.823.416 4.638a.752.752 0 0 0 .736.905.75.75 0 0 0 .732-.596c.717-3.41-.533-5.606-.587-5.698a.747.747 0 0 0-1.02-.27m-4.957-1.692a.746.746 0 0 0-1.002.333.75.75 0 0 0 .328 1.007c.018.01 1.84.968 3.44 3.71a.75.75 0 1 0 1.295-.757c-1.84-3.156-3.972-4.248-4.06-4.293m-4.675-4.432a.752.752 0 0 0-1.325.705c.02.035 1.85 3.524 1.188 5.95a.752.752 0 0 0 .723.947.75.75 0 0 0 .724-.553c.82-3-1.222-6.884-1.31-7.048m-11.215 19.13c-2.26-.617-2.953-4.13-2.96-4.167a.75.75 0 0 0-1.476.278c.035.182.874 4.472 4.04 5.335a.752.752 0 0 0 .923-.527.748.748 0 0 0-.526-.92m.858-4.46a.75.75 0 1 0-.61 1.37c.022.01 2.105.952 3.97 3.283a.75.75 0 0 0 1.172-.938c-2.09-2.61-4.433-3.672-4.532-3.716m10.695.435c-2.6 0-4.508-5.013-5.025-6.943a.75.75 0 1 0-1.45.387c.222.824 2.27 8.057 6.476 8.057a.75.75 0 0 0 0-1.5m28.28-26.035a.752.752 0 0 0 .936.504.752.752 0 0 0 .503-.935c-.68-2.266-1.57-3.49-2.72-3.744-.946-.21-1.74.35-2.06.71a.75.75 0 0 0 1.12.998c.003-.004.31-.312.614-.24.2.04.906.366 1.607 2.707m2.49-7.79a.75.75 0 0 0-.096 1.056c3.4 4.08 1.162 9.418 1.138 9.472a.75.75 0 0 0 .69 1.047.75.75 0 0 0 .687-.45c.108-.252 2.638-6.23-1.362-11.03a.75.75 0 0 0-1.058-.096m-14.136 26.337c-1.94-.353-4.056-3.97-4.707-5.334a.748.748 0 1 0-1.353.645c.27.572 2.752 5.612 5.793 6.165a.75.75 0 0 0 .267-1.477m5.95-19.753c-1.795-.59-3.39.303-3.457.34a.75.75 0 0 0 .743 1.305c.01-.007 1.105-.603 2.263-.216.882.296 1.616 1.092 2.183 2.366a.75.75 0 0 0 1.372-.61c-.75-1.685-1.795-2.758-3.104-3.186m7.666 6.74c-2.334 0-2.492-1.46-2.5-1.756a.75.75 0 0 0-1.5.007c0 1.124.836 3.25 4 3.25a.75.75 0 0 0 0-1.5m-7.182 7.088c-2.666-.243-4.558-.648-4.576-.653a.758.758 0 0 0-.892.574.75.75 0 0 0 .573.893c.08.017 1.994.43 4.758.68a.752.752 0 0 0 .816-.68.75.75 0 0 0-.678-.814m-2.057-7.388a.75.75 0 0 0-1.02 1.1l3.5 3.25a.755.755 0 0 0 1.06-.04.752.752 0 0 0-.04-1.06l-3.5-3.25zM200.4 152.79c.01.004.895.507 2.227 2.5a.748.748 0 0 0 1.04.21.75.75 0 0 0 .208-1.04c-1.566-2.35-2.668-2.945-2.79-3.006a.74.74 0 0 0-.992.326.755.755 0 0 0 .308 1.01m-65.92-1.305a.748.748 0 0 0 .882-.588c.148-.745 1.102-1.924 1.67-2.492a.75.75 0 1 0-1.062-1.06c-.182.182-1.794 1.827-2.08 3.257a.75.75 0 0 0 .59.883m-24.564-24.4a.75.75 0 0 0-1.04.208c-.296.445-2.866 4.422-1.723 6.897a.75.75 0 0 0 .995.367.75.75 0 0 0 .367-.995c-.598-1.296.67-4.022 1.61-5.437a.75.75 0 0 0-.21-1.04m.92 25.707a.75.75 0 0 0 .32-.072c3.43-1.625 4.36-4.67 4.398-4.8a.752.752 0 0 0-.51-.932.754.754 0 0 0-.93.508c-.007.025-.77 2.527-3.6 3.868a.75.75 0 0 0 .32 1.428m23.03-18.446a.75.75 0 0 0-1.06 0l-4 4a.75.75 0 1 0 1.06 1.06l4-4a.75.75 0 0 0 0-1.06m-4.516-3.636a.75.75 0 0 0-1.01.32c-.543 1.037-2.143 3.926-3.033 4.815a.75.75 0 0 0 1.06 1.06c1.235-1.23 3.218-5.02 3.302-5.183a.753.753 0 0 0-.32-1.012m2.596 9.418a.75.75 0 0 0-.69.806c.007.092.178 2.267.696 3.99a.75.75 0 0 0 1.436-.43c-.47-1.568-.635-3.654-.637-3.676-.03-.413-.392-.702-.805-.69m-4.554 7.585a.75.75 0 0 0 .95-.476c.227-.685 1.3-1.857 1.923-2.438a.75.75 0 0 0-1.02-1.1c-.193.18-1.903 1.79-2.326 3.06-.13.396.08.82.474.953m-20.104-9.238c-1.704 1.262-2.73 1.8-3.052 1.598a.75.75 0 0 0-.795 1.27c.283.18.594.255.92.255 1.23 0 2.69-1.08 3.82-1.918.297-.22.66-.49.81-.57a.75.75 0 0 0-.153-1.484c-.403 0-.762.266-1.55.85m11.214-6.615a.75.75 0 0 0-1.01-.316c-.17.09-4.168 2.206-4.726 5.368a.75.75 0 1 0 1.477.26c.428-2.432 3.907-4.28 3.942-4.298a.753.753 0 0 0 .316-1.013m2.2-15.566a.75.75 0 0 0 .944-1.166c-.79-.646-2.903-1.413-5.252.31a.748.748 0 0 0-.16 1.048.748.748 0 0 0 1.048.16c1.933-1.417 3.266-.47 3.42-.352m-1.1 12.38a.748.748 0 0 0 1.035-.23c1.095-1.72 2.687-3.163 2.703-3.178a.75.75 0 1 0-1.003-1.116c-.072.063-1.758 1.59-2.965 3.488a.752.752 0 0 0 .23 1.037m-1.536 13.69a.754.754 0 0 0-.904-.553c-.18.044-4.474 1.105-6.778 4.472a.75.75 0 0 0 1.24.848c1.97-2.882 5.85-3.852 5.89-3.86a.75.75 0 0 0 .552-.906m-5.81-30.198a.75.75 0 0 0 .495 1.416c.99-.346 1.7-.977 2.11-1.874.95-2.068-.114-4.826-.16-4.942a.752.752 0 0 0-1.396.55c.248.626.763 2.526.195 3.767-.238.52-.644.874-1.243 1.083m3.165 16.75l-3 2a.75.75 0 0 0 .832 1.248l3-2a.75.75 0 1 0-.833-1.248m-4.31-3.898a.75.75 0 0 0 .537.915c.61.16 1.175.24 1.693.24.815 0 1.513-.197 2.086-.59a3.15 3.15 0 0 0 1.32-2.12.746.746 0 0 0-.648-.828.756.756 0 0 0-.84.644c-.003.028-.103.686-.693 1.078-.558.37-1.436.412-2.54.126a.748.748 0 0 0-.915.536m75.008 25.95a.75.75 0 0 0-1.02.29c-.06.104-.546 1.038-.13 2.208.385 1.084 1.397 1.96 3.006 2.604a.752.752 0 0 0 .975-.418.75.75 0 0 0-.417-.975c-1.16-.465-1.9-1.048-2.142-1.69a1.32 1.32 0 0 1 .024-1.01.75.75 0 0 0-.295-1.01m5 .664a.75.75 0 0 0-.23 1.482c.027.004 2.615.427 2.615 2.51a.75.75 0 0 0 1.5 0c0-2.686-2.54-3.785-3.885-3.992m25.988-8.494c-.405.08-.706.48-.625.887.082.406.438.673.847.594.01 0 .912.043 2.278 2.384a.75.75 0 1 0 1.295-.756c-1.923-3.297-3.502-3.17-3.795-3.108m-24.525-32.637c-.388.142-.586.566-.45.954s.563.59.956.46c.058-.02 1.48-.487 2.94.705a.746.746 0 0 0 1.056-.105.748.748 0 0 0-.105-1.054c-2.14-1.75-4.31-.992-4.397-.96m-85.276 35.852a.75.75 0 0 0-.988.385c-.204.463-1.95 4.595-.452 7.027a.75.75 0 1 0 1.277-.785c-.922-1.498.082-4.578.547-5.64a.75.75 0 0 0-.385-.987m-47.964-20.092a.75.75 0 0 0-1.01-1.11c-.16.146-3.948 3.63-3.573 6.81a.75.75 0 0 0 1.49-.176c-.236-2.003 2.152-4.667 3.093-5.524m80.76 26.744a.75.75 0 0 0-.84.647l-.5 3.875a.75.75 0 0 0 .744.845.75.75 0 0 0 .742-.654l.5-3.874a.75.75 0 0 0-.647-.84M58.122 133.73a.75.75 0 0 0-.27 1.023c.054.092 1.282 2.242-.1 3.164a.75.75 0 1 0 .832 1.248c2.048-1.366 1.264-3.98.563-5.17a.75.75 0 0 0-1.025-.266M222 133.124c.024 0 .05 0 .074-.004a.75.75 0 0 0 .672-.82c-.267-2.663-3.783-6.718-4.184-7.172a.75.75 0 1 0-1.125.994c1 1.132 3.63 4.478 3.816 6.328a.75.75 0 0 0 .747.675m-73.365 18.257l-.875 5.5a.75.75 0 1 0 1.48.236l.876-5.5a.75.75 0 0 0-.623-.858.744.744 0 0 0-.858.622m-3.673 2.975a.748.748 0 0 0 .894-.57c.572-2.57-.596-4.068-.646-4.13a.743.743 0 0 0-1.042-.12.753.753 0 0 0-.135 1.048c.03.043.767 1.043.36 2.878a.75.75 0 0 0 .57.894m29.412-8.607a.748.748 0 0 0 .226-1.464c-1.928-.61-2.473-2.628-2.498-2.72a.75.75 0 0 0-1.454.366c.03.12.76 2.917 3.502 3.783.075.024.15.035.225.035M153 150.85a.752.752 0 0 0-1.024.274c-.597 1.03-1.186 3.346.85 4.744a.75.75 0 0 0 .848-1.236c-1.372-.943-.502-2.576-.4-2.76a.75.75 0 0 0-.273-1.02m15.468-3.226a.748.748 0 0 0-.716.78c.018.416.408.74.78.718.026 0 2.38-.074 3.284 1.934a.75.75 0 0 0 .992.376.75.75 0 0 0 .376-.99c-1.32-2.93-4.578-2.827-4.716-2.818m-4.255.755a.756.756 0 0 0-.834.657c-.11.935.266 2.93 2.474 3.787a.75.75 0 0 0 .542-1.4c-1.628-.632-1.542-2.053-1.525-2.218a.75.75 0 0 0-.657-.825m-5.92 8.965a.753.753 0 0 0 1.052-.138c1.458-1.895.784-4.535.756-4.647a.75.75 0 0 0-1.45.38c.005.02.51 2.048-.493 3.353a.748.748 0 0 0 .136 1.052m19.71-14.878a.75.75 0 0 0 .714.782c.025 0 2.525.14 3.21 1.896a.75.75 0 1 0 1.397-.543c-1.04-2.677-4.4-2.847-4.543-2.853a.748.748 0 0 0-.778.717M82.345 136.9a.72.72 0 0 0 .322-.984c-.19-.368-.642-.463-1.01-.27-.568.293-5.55 3.06-5.738 6.227-.025.413.29 1.002.704 1.002h.044c.394 0 .725-.503.748-.9.116-1.97 3.597-4.385 4.93-5.075m-1.13 6.227a.754.754 0 0 0-.797.698c-.004.044-.36 4.46-2.59 4.985a.75.75 0 0 0 .342 1.46c3.334-.785 3.73-6.12 3.744-6.347a.75.75 0 0 0-.7-.796m-4.82 2.2a.75.75 0 0 0-.943.484l-1.5 4.668a.75.75 0 0 0 1.427.458l1.5-4.667a.746.746 0 0 0-.484-.943m-3.866-11.15a.75.75 0 0 0-1.06 0c-.368.37-3.588 3.676-3.212 6.305a.75.75 0 1 0 1.485-.213c-.204-1.426 1.602-3.843 2.788-5.03a.75.75 0 0 0 0-1.062m-7.118-6.256c-.187.127-4.583 3.17-3.64 7.127a.75.75 0 1 0 1.458-.35c-.702-2.948 2.99-5.514 3.027-5.54a.75.75 0 1 0-.845-1.238m21.184 23.543a.76.76 0 0 0-.84.647c-.002.018-.227 1.647-1.28 2.447-.503.38-1.113.51-1.87.405a.743.743 0 0 0-.848.636.75.75 0 0 0 .637.85c.24.034.472.052.698.052.87 0 1.64-.253 2.298-.755 1.556-1.188 1.843-3.354 1.855-3.446a.75.75 0 0 0-.65-.835m106.668-25.786a.75.75 0 0 0 .874.6l4.5-.834a.75.75 0 1 0-.273-1.475l-4.5.833a.752.752 0 0 0-.602.875m-91.418 18.98a.75.75 0 0 0-1.06.037l-4.5 4.834a.75.75 0 1 0 1.098 1.023l4.5-4.834a.75.75 0 0 0-.038-1.06m-15.903-1.62c-.333.37-3.24 3.693-2.676 6.325a.75.75 0 1 0 1.467-.315c-.343-1.602 1.56-4.158 2.324-5.01a.75.75 0 0 0-1.115-1m-20.616-4.225c-.4.096-.647.5-.554.9.02.09.47 2.18-1.996 3.686a.75.75 0 0 0-.25 1.032.754.754 0 0 0 1.033.248c3.43-2.097 2.7-5.19 2.668-5.32-.1-.4-.5-.643-.902-.545m39.24 18.61c-.113.15-2.754 3.726-1.413 6.6a.753.753 0 0 0 .997.364.75.75 0 0 0 .363-.998c-.96-2.06 1.23-5.036 1.254-5.066a.752.752 0 0 0-1.2-.9m-3.713-5.23a.753.753 0 0 0-.368.993c.107.234.97 2.346-1.424 4.076a.75.75 0 1 0 .878 1.217c2.77-2.003 2.458-4.753 1.906-5.928a.75.75 0 0 0-.992-.36m-12.87-27.548a.75.75 0 0 0-.545.91c.37 1.49.573 3.91-.137 4.62a.75.75 0 1 0 1.06 1.06c1.588-1.586.644-5.593.53-6.044a.747.747 0 0 0-.908-.546m3.882 22.838a.75.75 0 0 0-.923.523c-.143.52-1.375 5.165-.29 7.514a.75.75 0 1 0 1.36-.628c-.723-1.57.027-5.215.377-6.486a.752.752 0 0 0-.523-.923m2.903 8.73c-.11.125-2.667 3.1-1.087 5.865a.75.75 0 1 0 1.302-.744c-1.048-1.836.895-4.112.914-4.136a.75.75 0 0 0-1.13-.985M72 140.537a.75.75 0 0 0-.337 1.006c.008.016.76 1.58.302 2.662-.19.45-.58.762-1.19.955a.75.75 0 1 0 .452 1.43c1.04-.33 1.753-.935 2.12-1.8.733-1.73-.298-3.83-.342-3.918a.752.752 0 0 0-1.006-.335m134.94 12.52a.75.75 0 0 0 .622-1.365c-2.01-.912-3.82-5.22-4.35-6.804a.747.747 0 0 0-.95-.474.75.75 0 0 0-.473.948c.214.646 2.188 6.348 5.15 7.696m3.85-18.67a.752.752 0 0 0 .71.987.75.75 0 0 0 .71-.513c.634-1.897-2.663-3.884-4.11-4.65a.752.752 0 0 0-1.014.313.753.753 0 0 0 .313 1.014c1.95 1.03 3.52 2.452 3.39 2.848M55.19 125.162l2-4.834a.75.75 0 0 0-1.385-.575l-2 4.835a.75.75 0 0 0 1.385.574m130.425 5.763c.084.04.305.235.47.38.622.546 1.595 1.402 2.942 1.402.26 0 .53-.03.818-.104a.75.75 0 0 0-.363-1.455c-.946.233-1.62-.277-2.41-.972-.366-.322-.683-.6-1.06-.695-.398-.098-.827.14-.928.54-.1.403.128.804.53.905m7.58-13.246a.75.75 0 0 0-1.06 0c-2.117 2.114-6.183 2.612-6.224 2.618a.752.752 0 0 0-.66.83.753.753 0 0 0 .832.66c.188-.022 4.623-.56 7.11-3.05a.748.748 0 0 0 .002-1.06m19.43 27.437a.753.753 0 0 0 .863-.617.75.75 0 0 0-.617-.863c-2.41-.4-2.862-3.244-2.88-3.368a.746.746 0 0 0-.85-.634.75.75 0 0 0-.636.85c.024.163.618 4.048 4.12 4.632m-21.71-20.375c-1.573-1.967-4.863-1.628-5-1.608a.748.748 0 0 0 .164 1.49c.723-.078 2.79-.04 3.667 1.056a.745.745 0 0 0 1.054.116.75.75 0 0 0 .116-1.054m39.846 5.433c-1.257-.472-1.707-3-1.766-3.85a.76.76 0 0 0-.8-.696.75.75 0 0 0-.696.798c.03.434.35 4.26 2.734 5.152a.754.754 0 0 0 .967-.438.75.75 0 0 0-.44-.966M64.668 119.53l-2.5 4.833a.75.75 0 0 0 .666 1.095c.27 0 .533-.147.666-.405l2.5-4.833a.75.75 0 1 0-1.332-.69m30.968 21.072l-1.5 3.833a.75.75 0 1 0 1.396.547l1.5-3.833a.75.75 0 1 0-1.396-.548m-22.772-15.757a.75.75 0 0 0-1.06 0c-.693.692-1.59 2.46-.028 4.198a.752.752 0 0 0 1.06.056.75.75 0 0 0 .056-1.06c-.957-1.063-.19-1.967-.023-2.14a.75.75 0 0 0-.006-1.055m156.99-10.485a.75.75 0 1 0 .294-1.47c-2.28-.457-5.14-2.818-5.17-2.842a.747.747 0 0 0-1.055.097c-.264.32-.22.79.096 1.056.128.11 3.177 2.63 5.833 3.16m-19.785 35.512c.088-.008 2.184-.172 2.977 2.01a.75.75 0 0 0 1.41-.513c-.947-2.606-3.37-3.09-4.523-2.992a.752.752 0 0 0-.68.815c.04.41.39.71.816.68m20.285-7.513a.75.75 0 1 0 .294-1.47c-1.905-.382-2.142-2.26-2.15-2.344a.75.75 0 1 0-1.492.152c.104 1.058.94 3.18 3.348 3.662"/></svg>