<?xml version="1.0" encoding="utf-8"?>
<!-- Generator: Adobe Illustrator 15.0.0, SVG Export Plug-In . SVG Version: 6.00 Build 0)  -->
<!DOCTYPE svg PUBLIC "-//W3C//DTD SVG 1.1//EN" "http://www.w3.org/Graphics/SVG/1.1/DTD/svg11.dtd">
<svg version="1.1" id="Layer_1" xmlns="http://www.w3.org/2000/svg" xmlns:xlink="http://www.w3.org/1999/xlink" x="0px" y="0px"
	 width="480px" height="210px" viewBox="0 0 480 210" enable-background="new 0 0 480 210" xml:space="preserve">
<g>
	<g>
		<path fill="#F0A733" d="M245,96.167h-12V26.5C233,12.383,246.405,0,261.688,0C276.118,0,287,11.393,287,26.5v25.667h-12V26.5
			c0-8.402-5.599-14.5-13.312-14.5C253.109,12,245,19.047,245,26.5V96.167z"/>
	</g>
	<g>
		<path fill="#D72251" d="M303,45.701c0,3.571-2.895,6.466-6.466,6.466h-31.068c-3.571,0-6.466-2.895-6.466-6.466v-0.068
			c0-3.571,2.895-6.466,6.466-6.466h31.068c3.571,0,6.466,2.895,6.466,6.466V45.701z"/>
	</g>
	<g>
		<polygon fill="#D72251" points="160.657,156.167 319.343,156.167 327.277,162.667 319.343,169.167 160.657,169.167 
			152.723,162.667 		"/>
	</g>
	<g>
		<polygon fill="#D72251" points="160.657,187.167 319.343,187.167 327.277,193.667 319.343,200.167 160.657,200.167 
			152.723,193.667 		"/>
	</g>
	<g>
		<polygon fill="#F0A733" points="160.657,156.167 319.343,156.167 327.277,162.167 152.723,162.167 		"/>
	</g>
	<g>
		<polygon fill="#F0A733" points="160.657,187.167 319.343,187.167 327.277,193.167 152.723,193.167 		"/>
	</g>
</g>
</svg>
