<?xml version="1.0" encoding="utf-8"?>
<!-- Generator: Adobe Illustrator 15.0.0, SVG Export Plug-In . SVG Version: 6.00 Build 0)  -->
<!DOCTYPE svg PUBLIC "-//W3C//DTD SVG 1.1//EN" "http://www.w3.org/Graphics/SVG/1.1/DTD/svg11.dtd">
<svg version="1.1" xmlns="http://www.w3.org/2000/svg" xmlns:xlink="http://www.w3.org/1999/xlink" x="0px" y="0px" width="480px"
	 height="210px" viewBox="0 0 480 210" enable-background="new 0 0 480 210" xml:space="preserve">
<g id="Layer_1" display="none">
	<path display="inline" fill="#0E5941" d="M393,457.365C393,541.663,324.663,610,240.364,610h-0.729
		C155.337,610,87,541.663,87,457.365v-223.73C87,149.337,155.337,81,239.636,81h0.729C324.663,81,393,149.337,393,233.635V457.365z"
		/>
</g>
<g id="Layer_2">
	<g>
		<g>
			<defs>
				<rect id="beast-crown-11-id-1" x="116.312" y="89.381" width="247.375" height="120.619"/>
			</defs>
			<clipPath id="beast-crown-11-id-2">
				<use xlink:href="#beast-crown-11-id-1"  overflow="visible"/>
			</clipPath>
			<path clip-path="url(#beast-crown-11-id-2)" fill="#D72251" d="M224.837,162.353c0,0,15.345-1.566,16.739-2.349c0,0,0-25.169,0.466-28.524
				c0.465-3.356,2.79-16.108,2.79-16.108s0.814,18.568,0.93,23.38c0.116,4.81,0.233,18.232,0.233,18.232s20.46,1.79,30.225,0.447
				c0,0-5.929,4.587-29.179,6.488l-1.977,23.825l-3.139-21.141l-4.766-2.461L224.837,162.353z"/>
			<path clip-path="url(#beast-crown-11-id-2)" fill="#EE6372" d="M212.791,160.139c0,0,14.241,2.659,13.922,2.659
				c-0.319,0,14.877-2.454,14.877-2.454s0.638-22.292,0.531-24.747c-0.105-2.454,3.082-15.543,2.764-18.202
				c-0.319-2.658-2.231-16.872-2.231-16.872s-1.913,18.713-2.444,20.451c-0.531,1.739-2.551,18.918-2.125,21.781
				c0.424,2.863-0.744,15.134-0.744,15.134S216.723,160.445,212.791,160.139"/>
			<path clip-path="url(#beast-crown-11-id-2)" fill="#EE6372" d="M238.402,164.434l3.523,2.17l3.172,23.189c0,0-0.744,9.612-1.063,9.511
				C243.715,199.2,239.146,171.387,238.402,164.434"/>
			<path clip-path="url(#beast-crown-11-id-2)" fill="#0C3846" d="M277.465,156.193c-2.737,0.49-6.842,0.739-12.205,0.739
				c-7.584,0-15.562-0.509-18.166-0.689c-0.125-3.865-0.607-19.457-0.527-27.415c0.093-9.245-2.723-31.585-2.988-33.08l-1.129-6.367
				l-0.811,6.416c-0.043,0.349-0.082,1.21-0.158,2.972c-0.24,5.493-0.737,16.927-2.243,24.037
				c-1.785,8.42-2.478,29.943-2.603,34.301c-6.08,1.427-19.561,1.586-25.237,1.586c-1.497,0-2.402-0.012-2.406-0.012l-7.997-0.102
				l7.736,2.031c10.667,2.799,24.97,4.335,28.516,4.687c0.889,9.38,5.857,35.769,6.074,36.921l1.469,7.782l0.475-7.905
				c0.006-0.095,0.354-5.882,0.707-11.451l0.046-0.012c-0.013-0.049-0.024-0.102-0.035-0.151c0.22-3.476,0.44-6.842,0.582-8.662
				c0.313-4.078,1.024-14.025,1.239-17.02c20.49-1.095,29.938-6.561,30.336-6.797l4.674-2.768L277.465,156.193z M241.156,123.211
				c0.954-4.499,1.51-10.635,1.852-15.974c0.254,2.334,0.515,4.849,0.748,7.359c-0.03-0.083-0.049-0.16-0.051-0.211
				c0.023,0.633-0.674,5.511-1.234,9.431c-0.377,2.633-0.758,5.301-1.016,7.29c-0.635,4.873-0.734,21.934-0.75,27.464l-2.113-1.248
				C238.702,153.516,239.404,131.478,241.156,123.211 M217.777,160.589c6.628-0.136,15.213-0.539,19.666-1.666l1.655,0.978
				c-3.69,0.621-10.816,1.279-15.744,1.64C221.538,161.256,219.658,160.939,217.777,160.589 M243.797,193.961
				c-1.506-8.334-3.738-21.132-4.477-27.704l1.432,0.87c0.271,2.811,1.633,16.436,3.254,23.516
				C243.935,191.758,243.864,192.879,243.797,193.961 M246.84,162.883l-0.871,0.04l-0.062,0.87c0,0-0.928,13.048-1.3,17.874
				c-0.018,0.235-0.038,0.501-0.059,0.784c-1.092-7.512-1.877-15.879-1.89-15.997l-0.045-0.491l-3.522-2.14l-0.023-0.326
				l-0.828-0.075c-0.062-0.006-2.48-0.227-6.109-0.668c4.316-0.43,8.858-0.997,10.149-1.57l0.782-0.259v-0.638
				c0-0.232-0.191-23.335,0.536-28.928c0.258-1.983,0.438-4.643,0.813-7.267c0.016-0.111,0.031-0.217,0.047-0.325
				c0.104,1.904,0.159,3.631,0.146,5.041c-0.093,9.125,0.551,28.191,0.558,28.383l0.03,0.878l0.875,0.066
				c0.099,0.008,9.933,0.759,19.192,0.759c2.181,0,4.162-0.041,5.938-0.123C266.272,160.408,258.229,162.353,246.84,162.883
				 M360.996,189.276c-0.871-0.445-1.934-0.976-3.169-1.554c-1.241-0.562-2.653-1.174-4.209-1.809
				c-1.556-0.631-3.255-1.288-5.083-1.898c-1.824-0.616-3.767-1.22-5.791-1.8c-1.017-0.27-2.047-0.564-3.1-0.825
				c-1.059-0.241-2.128-0.485-3.207-0.73c-1.094-0.212-2.196-0.426-3.303-0.64c-1.098-0.166-2.199-0.333-3.301-0.499
				c-2.262-0.31-4.48-0.506-6.697-0.645c-2.207-0.148-4.387-0.178-6.491-0.178c-2.106-0.011-4.142,0.083-6.063,0.195
				c-1.926,0.123-3.742,0.288-5.41,0.497c-1.668,0.21-3.191,0.442-4.537,0.669c-1.348,0.213-2.51,0.476-3.467,0.686
				c-1.912,0.418-2.98,0.758-2.98,0.758s1.113-0.113,3.055-0.266c1.945-0.122,4.713-0.334,8.038-0.399
				c1.661-0.042,3.459-0.081,5.358-0.069c1.902-0.015,3.904,0.039,5.972,0.104c2.067,0.058,4.201,0.213,6.365,0.365
				c2.157,0.149,4.37,0.406,6.528,0.633c1.103,0.147,2.205,0.294,3.303,0.44c1.078,0.17,2.152,0.34,3.216,0.508
				c1.065,0.201,2.124,0.402,3.169,0.6c1.042,0.22,2.072,0.437,3.084,0.649c2.02,0.458,3.964,0.944,5.798,1.449
				c1.828,0.521,3.56,1.013,5.149,1.502c3.174,0.995,5.789,1.933,7.615,2.609c1.818,0.695,2.85,1.124,2.85,1.124
				S362.738,190.162,360.996,189.276 M305,164.575c1.942-0.051,3.916-0.136,5.889-0.114c0.988-0.01,1.975-0.021,2.957-0.031
				c0.984,0.016,1.962,0.031,2.934,0.047c0.971,0.016,1.934,0.03,2.887,0.046c0.951,0.038,1.891,0.077,2.814,0.114
				c0.925,0.037,1.835,0.075,2.725,0.111c0.889,0.061,1.758,0.118,2.604,0.175c1.694,0.115,3.299,0.202,4.772,0.37
				c1.479,0.139,2.834,0.265,4.035,0.376c1.198,0.154,2.242,0.288,3.102,0.399c1.73,0.198,2.719,0.311,2.719,0.311
				s-0.962-0.252-2.645-0.693c-0.848-0.209-1.875-0.463-3.056-0.754c-1.19-0.236-2.537-0.489-4.01-0.75
				c-1.47-0.296-3.076-0.506-4.778-0.707c-0.852-0.107-1.726-0.217-2.619-0.329c-0.896-0.093-1.814-0.145-2.746-0.221
				c-0.934-0.069-1.882-0.142-2.843-0.215c-0.961-0.058-1.935-0.078-2.917-0.108c-0.982-0.027-1.971-0.055-2.965-0.082
				c-0.993,0.002-1.991,0.005-2.988,0.007c-1.996,0-3.988,0.107-5.951,0.182c-1.961,0.073-3.885,0.277-5.75,0.404
				c-1.858,0.188-3.656,0.368-5.353,0.601c-1.699,0.214-3.301,0.453-4.774,0.707c-2.949,0.474-5.379,1.034-7.078,1.406
				c-1.698,0.392-2.652,0.678-2.652,0.678s0.986-0.112,2.715-0.31c1.725-0.208,4.195-0.429,7.154-0.681
				c1.48-0.115,3.082-0.24,4.779-0.372c1.692-0.143,3.486-0.194,5.332-0.335C301.145,164.732,303.057,164.629,305,164.575
				 M296.95,151.641c1.501,0.081,3.046,0.257,4.621,0.345c1.571,0.139,3.167,0.28,4.763,0.42c1.59,0.168,3.189,0.291,4.752,0.493
				c1.56,0.208,3.112,0.317,4.592,0.557c1.48,0.236,2.934,0.355,4.285,0.608c1.353,0.243,2.651,0.392,3.83,0.622
				c1.185,0.219,2.271,0.419,3.232,0.597c0.963,0.181,1.791,0.387,2.482,0.528c1.388,0.282,2.18,0.443,2.18,0.443
				s-0.744-0.312-2.062-0.831c-0.664-0.243-1.457-0.596-2.398-0.892c-0.944-0.293-2.01-0.624-3.17-0.985
				c-1.166-0.352-2.449-0.648-3.805-0.979c-1.353-0.348-2.797-0.609-4.291-0.896c-1.494-0.3-3.049-0.509-4.627-0.75
				c-1.582-0.228-3.195-0.376-4.805-0.569c-3.229-0.283-6.46-0.504-9.495-0.547c-1.517-0.043-2.983-0.048-4.374-0.018
				c-1.391,0.002-2.705,0.06-3.917,0.115c-4.85,0.213-8.056,0.727-8.056,0.727s3.22,0.192,8.049,0.479
				C291.141,151.264,293.945,151.445,296.95,151.641 M174.703,150.139c1.761,0.125,3.586,0.238,5.445,0.283
				c1.871,0.05,3.761,0.03,5.627,0.015c1.825,0.013,3.671,0.084,5.495,0.233c1.82,0.137,3.617,0.287,5.351,0.491
				c1.733,0.207,3.414,0.392,5.002,0.619c1.588,0.233,3.09,0.453,4.476,0.656c2.769,0.439,5.073,0.855,6.683,1.174
				c1.613,0.308,2.531,0.519,2.531,0.519s-0.219-0.086-0.629-0.249c-0.411-0.162-1.011-0.408-1.792-0.673
				c-1.556-0.547-3.805-1.264-6.549-1.957c-1.372-0.344-2.861-0.711-4.452-1.026c-1.589-0.324-3.269-0.659-5.022-0.917
				c-1.751-0.268-3.568-0.522-5.426-0.694c-1.855-0.177-3.76-0.278-5.686-0.314c-1.885,0.005-3.746,0.075-5.569,0.044
				c-1.836-0.035-3.643-0.072-5.392-0.107c-3.509-0.107-6.784-0.205-9.591-0.291c-5.623-0.178-9.392-0.189-9.392-0.189
				s3.697,0.744,9.296,1.437C167.906,149.546,171.179,149.894,174.703,150.139 M134.535,175.768
				c1.931-0.209,4.025-0.404,6.242-0.534c2.216-0.153,4.557-0.21,6.975-0.222c2.414,0.036,4.921,0.118,7.431,0.311
				c2.584,0.192,5.101,0.493,7.675,0.806c2.57,0.305,5.133,0.7,7.659,1.096c2.528,0.369,5.016,0.776,7.425,1.176
				c4.814,0.816,9.339,1.511,13.249,1.959c1.959,0.202,3.757,0.38,5.362,0.446c1.601,0.086,3.004,0.099,4.159,0.05
				c0.575-0.029,1.089-0.056,1.536-0.078c0.445-0.058,0.823-0.105,1.131-0.145c0.608-0.083,0.933-0.128,0.933-0.128
				s-0.327-0.024-0.941-0.07c-0.304-0.021-0.679-0.048-1.12-0.078c-0.439-0.057-0.943-0.12-1.509-0.192
				c-0.563-0.053-1.185-0.155-1.861-0.27c-0.675-0.116-1.405-0.208-2.183-0.367c-1.555-0.286-3.308-0.616-5.217-1.016
				c-1.912-0.392-3.982-0.816-6.173-1.266c-2.196-0.443-4.511-0.921-6.921-1.361c-2.408-0.45-4.9-0.912-7.445-1.34
				c-2.547-0.41-5.146-0.784-7.759-1.088c-2.602-0.337-5.284-0.516-7.825-0.651c-1.315-0.088-2.595-0.076-3.873-0.115
				c-1.274-0.007-2.532,0.039-3.769,0.055c-2.472,0.109-4.857,0.263-7.108,0.51c-2.249,0.258-4.37,0.541-6.307,0.923
				c-1.943,0.343-3.702,0.771-5.256,1.153c-1.547,0.415-2.888,0.8-3.976,1.173c-2.183,0.715-3.382,1.251-3.382,1.251
				s1.281-0.282,3.526-0.68C127.461,176.693,130.672,176.186,134.535,175.768 M204.568,196.178
				c-0.636,0.009-1.334,0.057-2.097,0.036c-0.762-0.018-1.586-0.037-2.465-0.057c-0.877-0.065-1.811-0.135-2.795-0.208
				c-0.981-0.092-2.011-0.247-3.084-0.367c-1.071-0.158-2.187-0.322-3.342-0.493c-1.153-0.202-2.345-0.412-3.569-0.627
				c-2.452-0.472-5.039-0.97-7.714-1.484c-2.676-0.546-5.474-1.006-8.323-1.469c-2.864-0.421-5.762-0.805-8.727-1.067
				c-1.484-0.168-2.918-0.207-4.374-0.316c-1.511-0.044-2.957-0.115-4.42-0.102c-1.453,0.039-2.901,0.019-4.318,0.14
				c-0.71,0.047-1.416,0.093-2.116,0.139c-0.697,0.076-1.389,0.151-2.075,0.226c-1.375,0.134-2.715,0.34-4.025,0.548
				c-1.313,0.187-2.585,0.434-3.827,0.654c-2.479,0.461-4.81,0.95-6.946,1.459c-2.136,0.514-4.082,1.023-5.802,1.494
				c-1.718,0.47-3.202,0.933-4.423,1.311c-2.44,0.767-3.814,1.261-3.814,1.261s1.415-0.36,3.911-0.893
				c1.249-0.251,2.767-0.557,4.508-0.908c1.743-0.334,3.711-0.689,5.865-1.035c2.155-0.334,4.486-0.703,6.961-0.997
				c2.474-0.303,5.089-0.556,7.791-0.737c2.701-0.201,5.49-0.339,8.32-0.37c1.406-0.014,2.853,0.054,4.245,0.097
				c1.438,0.133,2.922,0.202,4.333,0.39c2.842,0.291,5.715,0.771,8.521,1.246c2.817,0.465,5.578,1.012,8.281,1.443
				c2.694,0.463,5.318,0.881,7.822,1.193c1.25,0.167,2.477,0.291,3.658,0.412c1.189,0.087,2.337,0.17,3.44,0.249
				c1.109,0.026,2.168,0.065,3.177,0.061c1.009-0.029,1.966-0.055,2.865-0.08c0.896-0.075,1.735-0.145,2.511-0.21
				c0.772-0.087,1.476-0.234,2.111-0.33c1.274-0.18,2.249-0.473,2.914-0.638c0.663-0.174,1.016-0.268,1.016-0.268
				s-0.365,0.032-1.049,0.091C206.827,196.005,205.844,196.185,204.568,196.178"/>
		</g>
	</g>
</g>
</svg>
