<?xml version="1.0" encoding="utf-8"?>
<!-- Generator: Adobe Illustrator 19.1.0, SVG Export Plug-In . SVG Version: 6.00 Build 0)  -->
<svg version="1.1" id="Layer_1"  width="480" height="210" xmlns="http://www.w3.org/2000/svg" xmlns:xlink="http://www.w3.org/1999/xlink" x="0px" y="0px"
	 viewBox="-65 292 480 210" style="enable-background:new -65 292 480 210;" xml:space="preserve">
<style type="text/css">
	.beast-crown-12-st-0{display:none;}
	.beast-crown-12-st-1{display:inline;fill:#0E5941;}
	.beast-crown-12-st-2{fill:#FCDCA4;}
	.beast-crown-12-st-3{fill:#0B3746;}
	.beast-crown-12-st-4{fill:#F0A732;}
	.beast-crown-12-st-5{fill:none;}
	.beast-crown-12-st-6{fill-rule:evenodd;clip-rule:evenodd;fill:#0D565F;}
	.beast-crown-12-st-7{fill:#0D565F;}
	.beast-crown-12-st-8{fill:#D72050;}
	.beast-crown-12-st-9{fill:#D72051;}
</style>
<g id="Layer_1_1_" class="beast-crown-12-st-0">
	<path class="beast-crown-12-st-1" d="M328,749.4c0,84.3-68.3,152.6-152.6,152.6h-0.7C90.3,902,22,833.7,22,749.4V525.6C22,441.3,90.3,373,174.6,373
		h0.7c84.3,0,152.6,68.3,152.6,152.6V749.4z"/>
</g>
<g>
	<path class="beast-crown-12-st-2" d="M407.7,339.4c0,0-37.9,58.9-156.7,54c0,0-14.9,71.5,33.4,71.9C332.7,465.7,388.5,407.6,407.7,339.4z"/>
	<path class="beast-crown-12-st-2" d="M-57.7,358.9c0,0,34.6,52.1,146.4,45.7c0,0,12.7,63.8-32.7,65C10.6,470.8-40.9,419.7-57.7,358.9z"/>
	<g>
		<path class="beast-crown-12-st-3" d="M245,491.2c-0.2,0-0.4,0-0.7,0C244.3,491.2,244.5,491.3,245,491.2z"/>
		<path class="beast-crown-12-st-3" d="M253.6,486.9c0,0,4.2-1.2,5.5-5.2C258.1,483.9,256.4,485.8,253.6,486.9z"/>
		<path class="beast-crown-12-st-3" d="M105.5,463.8c-2,0.6-4.1,1.2-6.2,1.7C99.3,465.6,102.3,465.5,105.5,463.8z"/>
		<path class="beast-crown-12-st-3" d="M295.8,436.6c-3.3-3.9-13.8-4.8-18.4-7c-8.2-4-13.3-11.7-21.6-15.3c-15.1-6.6-33.2-2.7-48.6,1.2
			c33.8-14.7,41-44.7,41-44.7c-10.1,27.8-33.6,41-48.6,46.9c20.7-15.4,25.6-35.9,25.6-35.9c-6.6,18-18.7,29.9-30.6,37.7
			c-4.9,1.6-8.2,2.3-8.6,2.3c1.8-0.3,3.6-0.7,5.3-1.1c-4.8,1.8-9.6,3.6-14.6,4.5c-3.9,0.7-7.9,0.9-11.8,0.2c-1.8-0.5-3.6-1-5.3-1.5
			c-9.9-4.2-17.5-10.6-26.8-14.8c-10.8-8.6-16.7-17.2-17.1-17.7c4.4,6.5,9,11.9,13.8,16.3c-2.4-0.9-5-1.7-7.8-2.2
			c-13.7-2.6-28.2-1.6-41.8-0.2c-25.1,2.5-46.5,23.4-52.1,48.1c-1.7,7.8-0.9,15.9,1.6,23.4c0.9,2.8,3.6,6.1,4.1,8.9
			c-6.4-37,30-36,30-36c34.8-15.3,50.6-5.7,48.7,5c-0.9,5-3.8,7.8-6.7,9.3c39-11.3,49.2-20.9,49.2-20.9c-7.7,12.7,5.5,30.7,5.5,30.7
			c-10.3-18,3.5-30,3.5-17.7c0,12.3,2.6,16.7,2.6,16.7c-6.4-27.7,26.8-30.3,17.4-26.7c-9.3,3.7-9.3,8.3-9.3,8.3
			c3.2-6.7,57.4-28.3,43.5,19.3c-2.7,9.1-5.9,16.5-9.5,22.3c4.5-6.3,9.2-13.5,15.3-21c18.7-23,28.7-13.3,34.2-2
			c1.9,3.9,2,6.8,1.3,8.8c0.2-0.3,0.3-0.6,0.4-0.9c-2.9,9.3-12,10.3-14.6,10.4c30.7-0.5,18.8-32.7,40.6-36.7
			c21.9-4,27.7,44.7,27.7,44.7C317.4,459.2,298.1,439.2,295.8,436.6z"/>
		<path class="beast-crown-12-st-3" d="M186,421.7C186,421.7,186,421.7,186,421.7C186,421.7,186,421.7,186,421.7z"/>
		<path class="beast-crown-12-st-3" d="M115.6,391.3C115.6,391.3,115.6,391.3,115.6,391.3C115.6,391.3,115.6,391.3,115.6,391.3z"/>
	</g>
	<path class="beast-crown-12-st-4" d="M172,376.7c0,0-17.1,2.3-24.5,30.2c0,0,2.8-23.2,15.5-30.3l15-0.4L172,376.7z"/>
	<path class="beast-crown-12-st-4" d="M173,376.6c0,0-11.9,2.1-17.4,22.7c0,0,2.2-17.1,11.1-22.5l10.5-0.6L173,376.6z"/>
	<path class="beast-crown-12-st-4" d="M176.7,376.5c0,0-12,1.2-18.9,21.4c0,0,3.4-16.9,12.6-21.7l10.5,0.1L176.7,376.5z"/>
	<circle class="beast-crown-12-st-2" cx="73.1" cy="454.9" r="1.8"/>
	<path class="beast-crown-12-st-4" d="M233.5,470.6c3.2,1.4,6.3,1.4,6.3,1.4C237.6,471.5,235.5,471,233.5,470.6z"/>
	<path class="beast-crown-12-st-4" d="M309,453.6c-11.9-17.6-35.9-30.8-35.9-30.8s-69.2-5-85,9.6c-15.8,14.6-42.5-0.3-63-2.5
		c-20.4-2.2-43.8-5.2-55,5s-29,11-31.3,13.2c-2.3,2.2-22.1,18.7-17.8,51.7c0,0,5.9-40.2,28.3-36.9c22.2,3.3,10.1,29.9,41.5,30.3
		c-2.6-0.1-11.9-1-14.9-8.6c0.1,0.3,0.3,0.5,0.4,0.8c-0.7-1.7-0.6-4.1,1.3-7.3c5.6-9.4,15.8-17.3,34.9,1.7
		c6.2,6.2,11.1,12.1,15.7,17.3c-3.7-4.8-7-10.9-9.7-18.4c-14.2-39.4,41.2-21.5,44.5-16c0,0,0-3.9-9.6-6.9c-9.6-3,24.4-0.8,17.8,22
		c0,0,2.6-3.6,2.6-13.8s14.2-0.3,3.6,14.6c0,0,13.5-14.9,5.6-25.3c0,0,10.5,8,50.3,17.3c-2.9-1.2-5.9-3.5-6.8-7.6
		c-2-8.8,14.2-16.8,49.8-4.1c0,0,37.2-0.8,30.7,29.7C307.1,488.5,320.9,471.2,309,453.6z"/>
	<circle class="beast-crown-12-st-2" cx="120.1" cy="452.9" r="1.8"/>
	<circle class="beast-crown-12-st-2" cx="82.1" cy="460.9" r="1.8"/>
	<circle class="beast-crown-12-st-2" cx="214.1" cy="442.9" r="1.8"/>
	<circle class="beast-crown-12-st-2" cx="273.1" cy="446.9" r="1.8"/>
	<circle class="beast-crown-12-st-2" cx="207.1" cy="462.9" r="1.8"/>
	<circle class="beast-crown-12-st-2" cx="128.1" cy="384.9" r="1.8"/>
	<circle class="beast-crown-12-st-2" cx="134.1" cy="384.9" r="1.8"/>
	<circle class="beast-crown-12-st-2" cx="128.1" cy="389.9" r="1.8"/>
	<circle class="beast-crown-12-st-2" cx="134.1" cy="389.9" r="1.8"/>
	<circle class="beast-crown-12-st-2" cx="305.1" cy="468.9" r="1.8"/>
	<g>
		<g>
			<g>
				<g>
					<g>
						<polygon class="beast-crown-12-st-5" points="-49.9,406.2 -49.9,403.9 -52.2,403.9 -52.2,406.2 						"/>
						<path class="beast-crown-12-st-6" d="M-51.1,403.9c0.6,0,1.1,0.5,1.1,1.1c0,0.6-0.5,1.1-1.1,1.1c-0.6,0-1.1-0.5-1.2-1.1
							C-52.2,404.4-51.7,403.9-51.1,403.9z"/>
					</g>
				</g>
				<g>
					<g>
						<path class="beast-crown-12-st-5" d="M-49.9,400.9c0,0,0-0.6,0.1-1.1c0-0.6,0.1-1.1,0.1-1.1l-2.3-0.2c0,0-0.1,0.6-0.1,1.2
							c0,0.6-0.1,1.2-0.1,1.2L-49.9,400.9z"/>
						<path class="beast-crown-12-st-6" d="M-50.9,398.5c0.6,0.1,1.1,0.6,1,1.2c0,0.6-0.6,1.1-1.2,1.1c-0.6,0-1.1-0.6-1.1-1.2
							C-52.1,399-51.5,398.5-50.9,398.5z"/>
					</g>
				</g>
				<g>
					<g>
						<path class="beast-crown-12-st-5" d="M-49.5,396.7c0,0,0.1-0.5,0.2-1.1c0.1-0.5,0.2-1.1,0.2-1.1l-2.2-0.5c0,0-0.1,0.6-0.2,1.2
							c-0.1,0.6-0.2,1.2-0.2,1.2L-49.5,396.7z"/>
						<path class="beast-crown-12-st-6" d="M-50.2,394.3c0.6,0.1,1,0.7,0.9,1.3c-0.1,0.6-0.7,1-1.3,0.9c-0.6-0.1-1-0.7-0.9-1.3
							C-51.4,394.5-50.8,394.1-50.2,394.3z"/>
					</g>
				</g>
				<g>
					<g>
						<path class="beast-crown-12-st-5" d="M-48.6,392.6c0,0,0.1-0.5,0.3-1c0.2-0.5,0.4-1,0.4-1l-2.1-0.9c0,0-0.2,0.6-0.4,1.1
							c-0.2,0.6-0.4,1.1-0.4,1.1L-48.6,392.6z"/>
						<path class="beast-crown-12-st-6" d="M-48.9,390.1c0.6,0.2,0.9,0.9,0.7,1.4c-0.2,0.6-0.8,0.9-1.4,0.7c-0.6-0.2-0.9-0.8-0.7-1.5
							C-50.2,390.2-49.5,389.9-48.9,390.1z"/>
					</g>
				</g>
				<g>
					<g>
						<path class="beast-crown-12-st-5" d="M-47,388.8c0,0,0.2-0.5,0.5-1c0.3-0.5,0.6-0.9,0.6-0.9l-1.9-1.2c0,0-0.3,0.5-0.6,1c-0.3,0.5-0.6,1-0.6,1
							L-47,388.8z"/>
						<path class="beast-crown-12-st-6" d="M-46.9,386.3c0.5,0.3,0.7,1,0.4,1.5c-0.3,0.5-1,0.7-1.5,0.4c-0.6-0.3-0.8-1-0.4-1.6
							C-48.2,386.1-47.5,385.9-46.9,386.3z"/>
					</g>
				</g>
				<g>
					<g>
						<path class="beast-crown-12-st-5" d="M-44.8,385.3c0,0,0.3-0.4,0.7-0.9c0.4-0.4,0.7-0.8,0.7-0.8l-1.7-1.5c0,0-0.4,0.4-0.8,0.9
							c-0.4,0.5-0.7,0.9-0.7,0.9L-44.8,385.3z"/>
						<path class="beast-crown-12-st-6" d="M-44.3,382.8c0.5,0.4,0.5,1.1,0.1,1.6c-0.4,0.5-1.1,0.6-1.6,0.2c-0.5-0.4-0.6-1.1-0.2-1.6
							C-45.5,382.5-44.8,382.4-44.3,382.8z"/>
					</g>
				</g>
				<g>
					<g>
						<path class="beast-crown-12-st-5" d="M-42.1,382.1c0,0,0.4-0.4,0.8-0.7c0.4-0.4,0.8-0.7,0.8-0.7l-1.5-1.7c0,0-0.5,0.4-0.9,0.8
							c-0.4,0.4-0.9,0.8-0.9,0.8L-42.1,382.1z"/>
						<path class="beast-crown-12-st-6" d="M-41.2,379.8c0.4,0.5,0.3,1.2-0.1,1.6c-0.4,0.4-1.2,0.4-1.6-0.1c-0.4-0.4-0.4-1.2,0.1-1.6
							C-42.3,379.3-41.6,379.3-41.2,379.8z"/>
					</g>
				</g>
				<g>
					<g>
						<path class="beast-crown-12-st-5" d="M-38.9,379.5c0,0,0.1-0.1,0.3-0.2c0.2-0.1,0.4-0.3,0.6-0.4c0.5-0.3,0.9-0.6,0.9-0.6l-1.2-1.9
							c0,0-0.5,0.3-1,0.6c-0.2,0.2-0.5,0.3-0.7,0.5c-0.2,0.1-0.3,0.2-0.3,0.2L-38.9,379.5z"/>
						<path class="beast-crown-12-st-6" d="M-37.7,377.3c0.3,0.5,0.2,1.2-0.3,1.6c-0.5,0.3-1.2,0.2-1.6-0.3c-0.4-0.5-0.3-1.2,0.3-1.6
							C-38.7,376.6-38,376.7-37.7,377.3z"/>
					</g>
				</g>
				<g>
					<g>
						<path class="beast-crown-12-st-5" d="M-35.3,377.2c0,0,0.5-0.3,1-0.5c0.5-0.2,1-0.5,1-0.5l-1-2.1c0,0-0.5,0.3-1.1,0.5c-0.5,0.3-1,0.6-1,0.6
							L-35.3,377.2z"/>
						<path class="beast-crown-12-st-6" d="M-33.9,375.2c0.3,0.6,0,1.2-0.5,1.5c-0.5,0.3-1.2,0.1-1.5-0.5c-0.3-0.5-0.1-1.3,0.5-1.5
							C-34.8,374.4-34.1,374.6-33.9,375.2z"/>
					</g>
				</g>
				<g>
					<g>
						<path class="beast-crown-12-st-5" d="M-31.5,375.4c0,0,0.5-0.2,1-0.4c0.5-0.2,1-0.4,1-0.4l-0.7-2.1c0,0-0.6,0.2-1.1,0.4
							c-0.5,0.2-1.1,0.4-1.1,0.4L-31.5,375.4z"/>
						<path class="beast-crown-12-st-6" d="M-29.8,373.5c0.2,0.6-0.1,1.2-0.7,1.4c-0.6,0.2-1.2-0.1-1.5-0.6c-0.2-0.6,0.1-1.2,0.7-1.5
							C-30.7,372.6-30,373-29.8,373.5z"/>
					</g>
				</g>
				<g>
					<g>
						<path class="beast-crown-12-st-5" d="M-27.6,374c0,0,0.5-0.2,1.1-0.3c0.5-0.1,1.1-0.3,1.1-0.3l-0.5-2.2c0,0-0.6,0.1-1.1,0.3
							c-0.6,0.1-1.1,0.3-1.1,0.3L-27.6,374z"/>
						<path class="beast-crown-12-st-6" d="M-25.7,372.3c0.1,0.6-0.2,1.2-0.8,1.4c-0.6,0.2-1.2-0.2-1.4-0.8c-0.2-0.6,0.2-1.2,0.8-1.4
							C-26.4,371.3-25.8,371.7-25.7,372.3z"/>
					</g>
				</g>
				<g>
					<g>
						<path class="beast-crown-12-st-5" d="M-23.4,373c0,0,0.5-0.1,1.1-0.2c0.6-0.1,1.1-0.2,1.1-0.2l-0.4-2.2c0,0-0.6,0.1-1.1,0.2
							c-0.6,0.1-1.1,0.2-1.1,0.2L-23.4,373z"/>
						<path class="beast-crown-12-st-6" d="M-21.4,371.4c0.1,0.6-0.3,1.2-0.9,1.3c-0.6,0.1-1.2-0.3-1.3-0.9c-0.1-0.6,0.3-1.2,0.9-1.3
							C-22.1,370.4-21.5,370.8-21.4,371.4z"/>
					</g>
				</g>
				<g>
					<g>
						<polygon class="beast-crown-12-st-5" points="-19.2,372.2 -17,371.9 -17.3,369.7 -19.6,370 						"/>
						<path class="beast-crown-12-st-6" d="M-17.1,370.8c0.1,0.6-0.4,1.2-1,1.3c-0.6,0.1-1.2-0.3-1.3-1c-0.1-0.6,0.3-1.2,1-1.3
							C-17.8,369.7-17.2,370.2-17.1,370.8z"/>
					</g>
				</g>
				<g>
					<g>
						<path class="beast-crown-12-st-5" d="M-15,371.7c0,0,0.5,0,1.1-0.1c0.5,0,1,0,1,0l0.1-2.3c0,0-0.6,0-1.2,0c-0.6,0-1.2,0.1-1.2,0.1L-15,371.7z"
							/>
						<path class="beast-crown-12-st-6" d="M-12.8,370.5c0,0.6-0.5,1.1-1.1,1.1c-0.6,0-1.1-0.4-1.2-1.1c-0.1-0.6,0.4-1.2,1.1-1.2
							C-13.3,369.3-12.8,369.9-12.8,370.5z"/>
					</g>
				</g>
				<g>
					<g>
						<path class="beast-crown-12-st-5" d="M-11.1,371.9c0,0,0.5,0.1,0.9,0.3c0.4,0.2,0.8,0.5,0.8,0.5l1.3-1.9c0,0-0.5-0.4-1.2-0.6
							c-0.6-0.3-1.2-0.5-1.2-0.5L-11.1,371.9z"/>
						<path class="beast-crown-12-st-6" d="M-8.7,371.8c-0.4,0.5-1,0.7-1.5,0.5c-0.5-0.2-0.7-0.8-0.6-1.4c0.2-0.6,0.9-1,1.5-0.6
							C-8.6,370.5-8.4,371.3-8.7,371.8z"/>
					</g>
				</g>
				<g>
					<g>
						<path class="beast-crown-12-st-5" d="M-8,373.9c0,0,0.1,0.1,0.2,0.2c0.1,0.1,0.3,0.3,0.5,0.6c0.3,0.4,0.6,0.9,0.6,0.9l1.9-1.3
							c0,0-0.3-0.5-0.7-1c-0.2-0.2-0.4-0.5-0.5-0.6c-0.2-0.2-0.3-0.3-0.3-0.3L-8,373.9z"/>
						<path class="beast-crown-12-st-6" d="M-5.8,374.9c-0.5,0.3-1.2,0.2-1.6-0.2c-0.3-0.5-0.3-1.1,0.2-1.6c0.4-0.4,1.2-0.4,1.6,0.2
							C-5.1,373.8-5.2,374.6-5.8,374.9z"/>
					</g>
				</g>
				<g>
					<g>
						<path class="beast-crown-12-st-5" d="M-5.7,377.2c0,0,0.3,0.5,0.5,1c0.2,0.5,0.4,1,0.4,1l2.1-0.8c0,0-0.2-0.6-0.5-1.1
							c-0.2-0.6-0.5-1.1-0.5-1.1L-5.7,377.2z"/>
						<path class="beast-crown-12-st-6" d="M-3.8,378.8c-0.6,0.2-1.2-0.1-1.5-0.6c-0.2-0.5,0-1.2,0.5-1.5c0.6-0.3,1.3-0.1,1.5,0.6
							C-2.9,377.9-3.2,378.6-3.8,378.8z"/>
					</g>
				</g>
				<g>
					<g>
						<path class="beast-crown-12-st-5" d="M-4.2,381c0,0,0.1,0.5,0.3,1.1c0.1,0.5,0.2,1.1,0.2,1.1l2.2-0.4c0,0-0.1-0.6-0.3-1.2
							c-0.1-0.6-0.3-1.1-0.3-1.1L-4.2,381z"/>
						<path class="beast-crown-12-st-6" d="M-2.6,382.9c-0.6,0.1-1.2-0.3-1.3-0.8c-0.1-0.6,0.2-1.2,0.8-1.4c0.6-0.2,1.2,0.2,1.4,0.8
							C-1.6,382.2-2,382.8-2.6,382.9z"/>
					</g>
				</g>
				<g>
					<g>
						<path class="beast-crown-12-st-5" d="M-3.4,385.1c0,0,0.1,0.5,0.1,1.1c0,0.5,0.1,1.1,0.1,1.1l2.3-0.1c0,0,0-0.6-0.1-1.2
							c-0.1-0.6-0.1-1.2-0.1-1.2L-3.4,385.1z"/>
						<path class="beast-crown-12-st-6" d="M-2.1,387.2c-0.6,0-1.2-0.4-1.2-1c-0.1-0.6,0.4-1.2,1-1.2c0.6-0.1,1.2,0.4,1.3,1
							C-1,386.7-1.4,387.2-2.1,387.2z"/>
					</g>
				</g>
				<g>
					<g>
						<path class="beast-crown-12-st-5" d="M-3.2,389.3c0,0,0,0.6,0,1.1c0,0.6,0,1.1,0,1.1l2.3,0.1c0,0,0-0.6,0-1.2c0-0.6,0-1.2,0-1.2L-3.2,389.3z"
							/>
						<path class="beast-crown-12-st-6" d="M-2,391.6c-0.6,0-1.1-0.5-1.1-1.2c0-0.6,0.5-1.1,1.1-1.1c0.6,0,1.2,0.5,1.1,1.2
							C-0.9,391.1-1.4,391.6-2,391.6z"/>
					</g>
				</g>
				<g>
					<g>
						<path class="beast-crown-12-st-5" d="M-3.3,393.6c0,0-0.1,0.6-0.1,1.1c0,0.6-0.1,1.1-0.1,1.1l2.3,0.3c0,0,0.1-0.6,0.1-1.2
							c0.1-0.6,0.1-1.2,0.1-1.2L-3.3,393.6z"/>
						<path class="beast-crown-12-st-6" d="M-2.4,395.9c-0.6-0.1-1.1-0.6-1-1.2c0.1-0.6,0.6-1.1,1.2-1c0.6,0,1.1,0.6,1,1.2
							C-1.2,395.5-1.8,396-2.4,395.9z"/>
					</g>
				</g>
				<g>
					<g>
						<path class="beast-crown-12-st-5" d="M-3.8,397.8c0,0-0.1,0.6-0.2,1.1c-0.1,0.5-0.2,1.1-0.2,1.1l2.2,0.4c0,0,0.1-0.6,0.2-1.1
							c0.1-0.6,0.2-1.1,0.2-1.1L-3.8,397.8z"/>
						<path class="beast-crown-12-st-6" d="M-3.1,400.2c-0.6-0.1-1-0.7-0.9-1.3c0.1-0.6,0.7-1,1.3-0.9c0.6,0.1,1,0.7,0.9,1.3
							C-1.9,399.9-2.5,400.3-3.1,400.2z"/>
					</g>
				</g>
				<g>
					<g>
						<path class="beast-crown-12-st-5" d="M-4.6,401.9c0,0-0.1,0.5-0.3,1.1c-0.1,0.5-0.3,1.1-0.3,1.1l2.2,0.6c0,0,0.1-0.6,0.3-1.1
							c0.2-0.6,0.3-1.1,0.3-1.1L-4.6,401.9z"/>
						<path class="beast-crown-12-st-6" d="M-4.1,404.4c-0.6-0.2-1-0.8-0.8-1.4c0.2-0.6,0.8-1,1.4-0.8c0.6,0.1,1,0.8,0.8,1.4
							C-2.9,404.2-3.5,404.6-4.1,404.4z"/>
					</g>
				</g>
				<g>
					<g>
						<path class="beast-crown-12-st-5" d="M-5.8,406.1c0,0-0.2,0.5-0.3,1.1c-0.2,0.5-0.4,1.1-0.4,1.1l2.1,0.7c0,0,0.2-0.5,0.4-1.1
							c0.2-0.6,0.4-1.1,0.4-1.1L-5.8,406.1z"/>
						<path class="beast-crown-12-st-6" d="M-5.4,408.6c-0.6-0.2-0.9-0.8-0.7-1.4c0.2-0.6,0.8-0.9,1.4-0.7c0.6,0.2,0.9,0.8,0.7,1.4
							C-4.1,408.4-4.8,408.8-5.4,408.6z"/>
					</g>
				</g>
				<g>
					<g>
						<path class="beast-crown-12-st-5" d="M-7.1,410.1c0,0-0.2,0.5-0.4,1c-0.2,0.5-0.4,1-0.4,1l2.1,0.9c0,0,0.2-0.5,0.4-1.1
							c0.2-0.5,0.4-1.1,0.4-1.1L-7.1,410.1z"/>
						<path class="beast-crown-12-st-6" d="M-6.9,412.6c-0.6-0.2-0.9-0.9-0.6-1.5c0.2-0.6,0.9-0.9,1.5-0.6c0.6,0.2,0.9,0.9,0.6,1.5
							C-5.7,412.6-6.3,412.9-6.9,412.6z"/>
					</g>
				</g>
				<g>
					<g>
						<path class="beast-crown-12-st-5" d="M-8.8,414c0,0-0.2,0.5-0.5,1c-0.2,0.5-0.5,1-0.5,1l2,1c0,0,0.2-0.5,0.5-1c0.3-0.5,0.5-1.1,0.5-1.1
							L-8.8,414z"/>
						<path class="beast-crown-12-st-6" d="M-8.7,416.6c-0.6-0.3-0.8-1-0.5-1.5c0.3-0.6,0.9-0.8,1.5-0.5c0.6,0.3,0.8,0.9,0.5,1.5
							C-7.5,416.6-8.2,416.9-8.7,416.6z"/>
					</g>
				</g>
				<g>
					<g>
						
							<rect x="-11.3" y="418.3" transform="matrix(0.4463 -0.8949 0.8949 0.4463 -380.9749 223.1886)" class="beast-crown-12-st-5" width="2.3" height="2.3"/>
						<circle class="beast-crown-12-st-6" cx="-10.1" cy="419.4" r="1.1"/>
					</g>
				</g>
				<g>
					<g>
						<polygon class="beast-crown-12-st-5" points="-12.6,421.8 -13.6,423.8 -11.6,424.8 -10.5,422.8 						"/>
						<circle class="beast-crown-12-st-6" cx="-12.1" cy="423.3" r="1.1"/>
					</g>
				</g>
				<g>
					<g>
						<polygon class="beast-crown-12-st-5" points="-14.5,425.7 -15.5,427.8 -13.4,428.7 -12.4,426.7 						"/>
						<path class="beast-crown-12-st-6" d="M-14.4,428.3c-0.6-0.3-0.8-0.9-0.5-1.5c0.3-0.6,1-0.8,1.5-0.5c0.6,0.3,0.8,0.9,0.5,1.5
							C-13.2,428.3-13.9,428.5-14.4,428.3z"/>
					</g>
				</g>
				<g>
					<g>
						<polygon class="beast-crown-12-st-5" points="-16.3,429.7 -17.3,431.8 -15.2,432.7 -14.3,430.6 						"/>
						<path class="beast-crown-12-st-6" d="M-16.2,432.2c-0.6-0.2-0.8-0.9-0.6-1.5c0.3-0.6,0.9-0.8,1.5-0.6c0.6,0.3,0.8,0.9,0.6,1.5
							C-15,432.2-15.6,432.5-16.2,432.2z"/>
					</g>
				</g>
				<g>
					<g>
						<path class="beast-crown-12-st-5" d="M-18.1,433.7c0,0-0.2,0.5-0.4,1.1c-0.2,0.5-0.4,1.1-0.4,1.1l2.1,0.8l0.8-2.1L-18.1,433.7z"/>
						<path class="beast-crown-12-st-6" d="M-17.8,436.3c-0.6-0.2-0.9-0.9-0.7-1.5c0.2-0.6,0.9-0.9,1.5-0.6c0.6,0.2,0.9,0.9,0.6,1.5
							C-16.6,436.2-17.2,436.5-17.8,436.3z"/>
					</g>
				</g>
				<g>
					<g>
						<path class="beast-crown-12-st-5" d="M-19.6,437.9c0,0-0.2,0.6-0.3,1.1c-0.2,0.6-0.3,1.1-0.3,1.1l2.2,0.6c0,0,0.1-0.5,0.3-1.1
							c0.2-0.5,0.3-1.1,0.3-1.1L-19.6,437.9z"/>
						<path class="beast-crown-12-st-6" d="M-19.2,440.4c-0.6-0.2-1-0.8-0.8-1.4c0.2-0.6,0.8-1,1.4-0.8c0.6,0.2,0.9,0.8,0.8,1.4
							C-17.9,440.2-18.6,440.5-19.2,440.4z"/>
					</g>
				</g>
				<g>
					<g>
						<path class="beast-crown-12-st-5" d="M-20.8,442.1c0,0-0.1,0.6-0.2,1.1c-0.1,0.6-0.2,1.1-0.2,1.1l2.2,0.4c0,0,0.1-0.6,0.2-1.1
							c0.1-0.5,0.2-1.1,0.2-1.1L-20.8,442.1z"/>
						<path class="beast-crown-12-st-6" d="M-20.1,444.6c-0.6-0.1-1-0.7-0.9-1.3c0.1-0.6,0.7-1,1.4-0.9c0.6,0.1,1,0.7,0.9,1.3
							C-18.9,444.3-19.5,444.7-20.1,444.6z"/>
					</g>
				</g>
				<g>
					<g>
						<path class="beast-crown-12-st-5" d="M-21.7,446.4c0,0-0.1,0.6-0.3,1.2c-0.1,0.6-0.2,1.2-0.2,1.2l2.3,0.2c0,0,0-0.5,0.2-1
							c0.1-0.5,0.2-1.1,0.2-1.1L-21.7,446.4z"/>
						<path class="beast-crown-12-st-6" d="M-21,448.9c-0.6,0-1.1-0.7-0.9-1.3c0.1-0.7,0.8-1,1.4-0.9c0.6,0.1,1,0.8,0.9,1.3
							C-19.8,448.5-20.4,448.9-21,448.9z"/>
					</g>
				</g>
				<g>
					<g>
						<path class="beast-crown-12-st-5" d="M-21.9,451.2c0,0,0.1,0.2,0.2,0.5c0.1,0.3,0.3,0.6,0.6,0.9c0.2,0.3,0.6,0.5,0.8,0.7
							c0.2,0.2,0.4,0.2,0.4,0.2l1-2c0,0-0.1,0-0.2-0.1c-0.1-0.1-0.3-0.2-0.3-0.3c-0.2-0.2-0.3-0.6-0.3-0.6L-21.9,451.2z"/>
						<path class="beast-crown-12-st-6" d="M-19.4,452.6c-0.1,0.3-0.4,0.5-0.7,0.5c-0.3,0-0.8-0.1-1-0.5c-0.3-0.4-0.4-0.8-0.3-1.1
							c0.1-0.3,0.3-0.5,0.6-0.6c0.6-0.2,1.2,0,1.4,0.3c0.1,0.2,0.2,0.3,0.2,0.6C-19.3,452-19.3,452.3-19.4,452.6z"/>
					</g>
				</g>
				<g>
					<g>
						<path class="beast-crown-12-st-5" d="M-17.5,454.2c0,0,0.7,0,1.3,0c0.3,0,0.6-0.1,0.8-0.1c0.2,0,0.4-0.1,0.4-0.1l-0.4-2.2c0,0-0.1,0-0.3,0
							c-0.2,0-0.5,0.1-0.7,0.1c-0.5,0.1-1,0-1,0L-17.5,454.2z"/>
						<path class="beast-crown-12-st-6" d="M-15.2,452.9c0.1,0.6-0.3,1.2-1,1.3c-0.7,0.1-1.3-0.5-1.2-1.1c0-0.6,0.5-1.1,1-1.2
							C-15.9,451.8-15.3,452.2-15.2,452.9z"/>
					</g>
				</g>
				<g>
					<g>
						<path class="beast-crown-12-st-5" d="M-12.8,453.5c0,0,0.6-0.2,1.1-0.4c0.6-0.2,1.1-0.5,1.1-0.5l-0.9-2.1c0,0-0.5,0.2-1,0.4
							c-0.5,0.2-1,0.3-1,0.3L-12.8,453.5z"/>
						<path class="beast-crown-12-st-6" d="M-11,451.6c0.3,0.6,0,1.3-0.7,1.5c-0.6,0.2-1.3-0.1-1.5-0.7c-0.2-0.6,0.1-1.2,0.7-1.4
							C-11.9,450.7-11.3,451-11,451.6z"/>
					</g>
				</g>
				<g>
					<g>
						<path class="beast-crown-12-st-5" d="M-8.7,451.7c0,0,0.5-0.3,1-0.5c0.5-0.3,1-0.6,1-0.6l-1.1-2c0,0-0.5,0.3-1,0.5c-0.5,0.3-1,0.5-1,0.5
							L-8.7,451.7z"/>
						<path class="beast-crown-12-st-6" d="M-7.2,449.6c0.3,0.5,0.1,1.2-0.5,1.6c-0.6,0.3-1.3,0.1-1.5-0.5c-0.3-0.6-0.1-1.2,0.5-1.5
							C-8.2,448.8-7.5,449-7.2,449.6z"/>
					</g>
				</g>
				<g>
					<g>
						<path class="beast-crown-12-st-5" d="M-4.8,449.5c0,0,0.5-0.3,1-0.6c0.5-0.3,1-0.6,1-0.6l-1.3-1.9c0,0-0.5,0.3-0.9,0.6
							c-0.5,0.3-0.9,0.6-0.9,0.6L-4.8,449.5z"/>
						<path class="beast-crown-12-st-6" d="M-3.5,447.3c0.4,0.5,0.2,1.2-0.3,1.6c-0.5,0.3-1.2,0.2-1.6-0.3c-0.3-0.5-0.2-1.2,0.3-1.6
							C-4.5,446.6-3.8,446.8-3.5,447.3z"/>
					</g>
				</g>
				<g>
					<g>
						<path class="beast-crown-12-st-5" d="M-1.1,447.1c0,0,0.5-0.3,0.9-0.7c0.5-0.3,0.9-0.7,0.9-0.7l-1.4-1.8c0,0-0.4,0.3-0.9,0.7
							c-0.4,0.3-0.9,0.7-0.9,0.7L-1.1,447.1z"/>
						<path class="beast-crown-12-st-6" d="M0,444.8c0.4,0.5,0.3,1.2-0.2,1.6c-0.5,0.4-1.2,0.3-1.6-0.2c-0.4-0.5-0.2-1.2,0.2-1.6
							C-1,444.2-0.3,444.3,0,444.8z"/>
					</g>
				</g>
				<g>
					<g>
						<path class="beast-crown-12-st-5" d="M2.4,444.4c0,0,0.4-0.4,0.9-0.7c0.4-0.4,0.9-0.7,0.9-0.7l-1.5-1.7c0,0-0.4,0.4-0.9,0.7
							c-0.4,0.4-0.9,0.7-0.9,0.7L2.4,444.4z"/>
						<path class="beast-crown-12-st-6" d="M3.4,442.1c0.4,0.5,0.3,1.2-0.1,1.6c-0.5,0.4-1.2,0.3-1.6-0.2c-0.4-0.5-0.3-1.2,0.2-1.6
							C2.3,441.5,3,441.6,3.4,442.1z"/>
					</g>
				</g>
				<g>
					<g>
						<polygon class="beast-crown-12-st-5" points="5.7,441.5 7.4,440 5.9,438.3 4.2,439.8 						"/>
						<path class="beast-crown-12-st-6" d="M6.6,439.2c0.4,0.5,0.4,1.2-0.1,1.6c-0.5,0.4-1.2,0.4-1.6-0.1c-0.4-0.5-0.4-1.2,0.1-1.6
							C5.5,438.7,6.2,438.7,6.6,439.2z"/>
					</g>
				</g>
				<g>
					<g>
						<path class="beast-crown-12-st-5" d="M8.9,438.5c0,0,0.4-0.4,0.8-0.8c0.4-0.4,0.8-0.8,0.8-0.8l-1.7-1.6c0,0-0.4,0.4-0.8,0.8
							c-0.4,0.4-0.8,0.8-0.8,0.8L8.9,438.5z"/>
						<path class="beast-crown-12-st-6" d="M9.7,436.1c0.5,0.4,0.5,1.2,0,1.6c-0.4,0.5-1.2,0.5-1.6,0c-0.4-0.4-0.4-1.2,0-1.6
							C8.6,435.7,9.3,435.7,9.7,436.1z"/>
					</g>
				</g>
				<g>
					<g>
						<path class="beast-crown-12-st-5" d="M12,435.3c0,0,0.4-0.4,0.7-0.9c0.4-0.5,0.7-0.9,0.7-0.9l-1.8-1.4c0,0-0.3,0.5-0.7,0.9
							c-0.3,0.4-0.7,0.9-0.7,0.9L12,435.3z"/>
						<path class="beast-crown-12-st-6" d="M12.5,432.7c0.5,0.4,0.6,1.1,0.2,1.6c-0.4,0.5-1.1,0.6-1.6,0.2c-0.5-0.4-0.6-1.1-0.2-1.6
							C11.3,432.5,12,432.4,12.5,432.7z"/>
					</g>
				</g>
				<g>
					<g>
						<path class="beast-crown-12-st-5" d="M14.6,431.7c0,0,0.3-0.5,0.6-1c0.3-0.5,0.6-1,0.6-1l-1.9-1.2c0,0-0.3,0.5-0.6,0.9
							c-0.3,0.5-0.6,0.9-0.6,0.9L14.6,431.7z"/>
						<path class="beast-crown-12-st-6" d="M14.9,429.1c0.5,0.3,0.7,1,0.4,1.6c-0.4,0.5-1.1,0.7-1.6,0.3c-0.5-0.3-0.7-1.1-0.3-1.6
							C13.7,429,14.4,428.8,14.9,429.1z"/>
					</g>
				</g>
				<g>
					<g>
						<path class="beast-crown-12-st-5" d="M16.9,427.9c0,0,0.3-0.5,0.6-1c0.3-0.5,0.6-1,0.6-1l-2-1.1c0,0-0.3,0.5-0.5,1c-0.3,0.5-0.5,1-0.5,1
							L16.9,427.9z"/>
						<path class="beast-crown-12-st-6" d="M17.1,425.4c0.6,0.3,0.8,1,0.5,1.6c-0.3,0.6-1,0.8-1.6,0.4c-0.5-0.3-0.7-1-0.4-1.5
							C15.8,425.3,16.5,425.1,17.1,425.4z"/>
					</g>
				</g>
				<g>
					<g>
						<polygon class="beast-crown-12-st-5" points="19,424.1 20.1,422 18,421 17,423 						"/>
						<path class="beast-crown-12-st-6" d="M19,421.5c0.6,0.3,0.8,1,0.5,1.5c-0.3,0.6-1,0.8-1.5,0.5c-0.6-0.3-0.8-1-0.5-1.5
							C17.8,421.5,18.5,421.2,19,421.5z"/>
					</g>
				</g>
				<g>
					<g>
						<polygon class="beast-crown-12-st-5" points="21,420.1 21.9,418.1 19.9,417.1 18.9,419.2 						"/>
						<circle class="beast-crown-12-st-6" cx="20.4" cy="418.6" r="1.1"/>
					</g>
				</g>
				<g>
					<g>
						<path class="beast-crown-12-st-5" d="M22.8,416.1c0,0,0.2-0.5,0.4-1.1c0.2-0.5,0.4-1.1,0.4-1.1l-2.1-0.8c0,0-0.2,0.5-0.4,1
							c-0.2,0.5-0.4,1-0.4,1L22.8,416.1z"/>
						<path class="beast-crown-12-st-6" d="M22.6,413.6c0.6,0.2,0.9,0.9,0.7,1.5c-0.2,0.6-0.9,0.9-1.5,0.6c-0.6-0.2-0.9-0.9-0.6-1.5
							C21.3,413.7,22,413.4,22.6,413.6z"/>
					</g>
				</g>
				<g>
					<g>
						<polygon class="beast-crown-12-st-5" points="24.3,412 25,409.8 22.8,409.1 22.2,411.3 						"/>
						<path class="beast-crown-12-st-6" d="M23.9,409.5c0.6,0.2,0.9,0.8,0.7,1.4c-0.2,0.6-0.8,0.9-1.4,0.7c-0.6-0.2-0.9-0.8-0.7-1.4
							C22.7,409.6,23.3,409.3,23.9,409.5z"/>
					</g>
				</g>
				<g>
					<g>
						<polygon class="beast-crown-12-st-5" points="25.6,407.8 26.3,405.6 24.1,405 23.4,407.2 						"/>
						<path class="beast-crown-12-st-6" d="M25.2,405.3c0.6,0.2,0.9,0.8,0.8,1.4c-0.2,0.6-0.8,0.9-1.4,0.8c-0.6-0.2-0.9-0.8-0.8-1.4
							C23.9,405.5,24.6,405.1,25.2,405.3z"/>
					</g>
				</g>
				<g>
					<g>
						<path class="beast-crown-12-st-5" d="M26.9,403.7c0,0,0.2-0.5,0.4-1.1c0.2-0.5,0.4-1.1,0.4-1.1l-2.1-0.8c0,0-0.2,0.5-0.4,1.1
							c-0.2,0.5-0.4,1.1-0.4,1.1L26.9,403.7z"/>
						<path class="beast-crown-12-st-6" d="M26.5,401.2c0.6,0.2,0.9,0.9,0.7,1.4c-0.2,0.6-0.8,0.9-1.4,0.7c-0.6-0.2-0.9-0.8-0.7-1.5
							C25.3,401.3,26,401,26.5,401.2z"/>
					</g>
				</g>
				<g>
					<g>
						<polygon class="beast-crown-12-st-5" points="28.3,399.7 29.2,397.6 27.1,396.7 26.2,398.8 						"/>
						<path class="beast-crown-12-st-6" d="M28.1,397.1c0.6,0.2,0.9,0.9,0.6,1.5c-0.2,0.6-0.9,0.9-1.5,0.6c-0.6-0.2-0.9-0.9-0.6-1.5
							C26.9,397.2,27.6,396.9,28.1,397.1z"/>
					</g>
				</g>
				<g>
					<g>
						<path class="beast-crown-12-st-5" d="M30,395.7c0,0,0.2-0.5,0.5-1c0.2-0.5,0.5-1,0.5-1l-2-1c0,0-0.3,0.5-0.5,1.1c-0.2,0.5-0.5,1.1-0.5,1.1
							L30,395.7z"/>
						<path class="beast-crown-12-st-6" d="M29.9,393.2c0.6,0.3,0.8,1,0.5,1.5c-0.3,0.6-0.9,0.8-1.5,0.6c-0.6-0.2-0.8-0.9-0.6-1.5
							C28.6,393.1,29.3,392.9,29.9,393.2z"/>
					</g>
				</g>
				<g>
					<g>
						<path class="beast-crown-12-st-5" d="M31.9,392c0,0,0.3-0.5,0.6-0.9c0.3-0.4,0.6-0.9,0.6-0.9l-1.8-1.4c0,0-0.4,0.5-0.7,1c-0.4,0.5-0.7,1-0.7,1
							L31.9,392z"/>
						<path class="beast-crown-12-st-6" d="M32.2,389.5c0.5,0.4,0.6,1.1,0.3,1.6c-0.3,0.5-1,0.6-1.6,0.3c-0.5-0.3-0.7-1-0.3-1.6
							C31,389.2,31.7,389.1,32.2,389.5z"/>
					</g>
				</g>
				<g>
					<g>
						<path class="beast-crown-12-st-5" d="M34.4,388.8c0,0,0.4-0.4,0.8-0.7c0.4-0.3,0.8-0.6,0.8-0.6l-1.3-1.8c0,0-0.5,0.4-1,0.8
							c-0.5,0.4-0.9,0.8-0.9,0.8L34.4,388.8z"/>
						<path class="beast-crown-12-st-6" d="M35.3,386.5c0.4,0.5,0.3,1.2-0.2,1.6c-0.4,0.4-1.1,0.3-1.6-0.1c-0.4-0.4-0.4-1.2,0.1-1.6
							C34.2,385.9,35,386,35.3,386.5z"/>
					</g>
				</g>
				<g>
					<g>
						<path class="beast-crown-12-st-5" d="M37.6,386.5c0,0,0.4-0.2,0.9-0.3c0.5-0.1,0.9-0.2,0.9-0.2l-0.2-2.3c0,0-0.7,0.1-1.3,0.3
							c-0.6,0.2-1.2,0.5-1.2,0.5L37.6,386.5z"/>
						<path class="beast-crown-12-st-6" d="M39.3,384.9c0,0.6-0.3,1.2-0.8,1.3c-0.5,0.1-1.1-0.1-1.4-0.7c-0.3-0.6,0-1.3,0.8-1.5
							C38.6,383.8,39.3,384.2,39.3,384.9z"/>
					</g>
				</g>
				<g>
					<g>
						<path class="beast-crown-12-st-5" d="M40.9,386.2c0,0,0.1,0,0.3,0.1c0.2,0.1,0.4,0.2,0.6,0.3c0.4,0.3,0.8,0.6,0.8,0.6l1.5-1.7
							c0,0-0.1-0.1-0.3-0.3c-0.2-0.2-0.5-0.3-0.8-0.5c-0.3-0.2-0.6-0.3-0.8-0.4c-0.2-0.1-0.4-0.2-0.4-0.2L40.9,386.2z"/>
						<path class="beast-crown-12-st-6" d="M43.2,386.3c-0.4,0.5-1.1,0.6-1.5,0.3c-0.2-0.1-0.4-0.3-0.5-0.6c-0.1-0.2-0.1-0.6,0-0.8
							c0.1-0.3,0.3-0.5,0.6-0.6c0.3-0.1,0.6,0,1,0.1C43.6,385.1,43.7,385.8,43.2,386.3z"/>
					</g>
				</g>
				<g>
					<g>
						<path class="beast-crown-12-st-7" d="M48,385.4c0.4,0.6,0.3,1.3-0.1,1.5c-0.4,0.2-1,0-1.3-0.5c-0.3-0.5-0.4-1.2-0.1-1.5
							C46.8,384.6,47.6,384.8,48,385.4z"/>
					</g>
					<g>
						<path class="beast-crown-12-st-7" d="M46.1,386.6c0.4,0.5,0.2,1.1-0.2,1.3c-0.4,0.2-0.9,0.1-1.2-0.3c-0.3-0.4-0.3-0.9,0.1-1.3
							C45.1,386,45.8,386.1,46.1,386.6z"/>
					</g>
					<g>
						<path class="beast-crown-12-st-7" d="M44.3,387.9c0.3,0.4,0.1,0.9-0.3,1.1c-0.4,0.2-0.9,0.1-1.1-0.2c-0.2-0.3-0.1-0.7,0.3-1.1
							C43.4,387.5,44,387.5,44.3,387.9z"/>
					</g>
					<g>
						<path class="beast-crown-12-st-7" d="M42.4,389.1c0.2,0.3,0,0.7-0.4,0.9c-0.4,0.2-0.9,0.2-1,0c-0.1-0.2,0.1-0.5,0.4-0.8
							C41.7,388.9,42.2,388.8,42.4,389.1z"/>
					</g>
					<g>
						<path class="beast-crown-12-st-7" d="M48.3,388.3c0.2,0.5,0,1.1-0.4,1.3c-0.5,0.2-0.9-0.1-1.2-0.6c-0.2-0.5-0.1-1,0.4-1.3
							C47.5,387.5,48.1,387.8,48.3,388.3z"/>
					</g>
					<g>
						<path class="beast-crown-12-st-7" d="M46.2,389.2c0.2,0.5,0,1-0.5,1.2c-0.5,0.2-0.9-0.1-1.1-0.5c-0.2-0.4,0-0.9,0.4-1.1
							C45.5,388.5,46,388.7,46.2,389.2z"/>
					</g>
					<g>
						<path class="beast-crown-12-st-7" d="M44.2,390c0.2,0.4-0.1,0.9-0.5,1c-0.4,0.2-0.9,0-1.1-0.4c-0.1-0.4,0.1-0.8,0.5-1
							C43.5,389.5,44,389.6,44.2,390z"/>
					</g>
					<g>
						<path class="beast-crown-12-st-7" d="M48.1,390.8c0.2,0.5-0.1,0.9-0.5,1.1c-0.5,0.2-0.9-0.1-1.1-0.5c-0.2-0.5,0.1-1,0.5-1.1
							C47.4,390.1,47.9,390.4,48.1,390.8z"/>
					</g>
					<g>
						<path class="beast-crown-12-st-7" d="M45.9,391.5c0.2,0.5-0.1,0.9-0.5,1.1c-0.5,0.2-0.9-0.1-1.1-0.5c-0.1-0.4,0.1-0.9,0.5-1.1
							C45.3,390.8,45.8,391.1,45.9,391.5z"/>
					</g>
					<g>
						<path class="beast-crown-12-st-7" d="M47.6,393.1c0.2,0.4-0.1,0.9-0.5,1.1c-0.4,0.2-0.9,0-1.1-0.5c-0.2-0.5,0.1-1,0.5-1.1
							C47,392.4,47.5,392.7,47.6,393.1z"/>
					</g>
				</g>
			</g>
		</g>
	</g>
	<g>
		<g>
			<g>
				<g>
					<g>
						<path class="beast-crown-12-st-5" d="M311,460.1c0,0,0.6,0,1.1,0c0.6,0,1.2,0,1.2,0l-0.1-2.3c0,0-0.6,0-1.1,0c-0.6,0-1.1,0-1.1,0L311,460.1z"
							/>
						<path class="beast-crown-12-st-6" d="M313.3,458.9c0,0.6-0.5,1.2-1.1,1.2c-0.6,0-1.1-0.5-1.2-1.1c0-0.6,0.5-1.1,1.1-1.1
							C312.8,457.8,313.3,458.3,313.3,458.9z"/>
					</g>
				</g>
				<g>
					<g>
						<path class="beast-crown-12-st-5" d="M316.5,459.8c0,0,0.6-0.1,1.2-0.1c0.6-0.1,1.2-0.2,1.2-0.2l-0.4-2.2c0,0-0.5,0.1-1.1,0.2
							c-0.5,0.1-1.1,0.1-1.1,0.1L316.5,459.8z"/>
						<path class="beast-crown-12-st-6" d="M318.6,458.4c0.1,0.6-0.3,1.2-1,1.3c-0.6,0.1-1.2-0.4-1.3-1c-0.1-0.6,0.4-1.2,1-1.3
							C318,457.4,318.5,457.8,318.6,458.4z"/>
					</g>
				</g>
				<g>
					<g>
						<path class="beast-crown-12-st-5" d="M320.9,459.1c0,0,0.6-0.1,1.1-0.3c0.6-0.2,1.1-0.4,1.1-0.4l-0.8-2.1c0,0-0.5,0.2-1,0.3
							c-0.5,0.2-1,0.3-1,0.3L320.9,459.1z"/>
						<path class="beast-crown-12-st-6" d="M322.8,457.3c0.2,0.6-0.1,1.3-0.7,1.5c-0.6,0.2-1.3-0.2-1.4-0.8c-0.2-0.6,0.2-1.2,0.8-1.4
							C321.9,456.4,322.6,456.7,322.8,457.3z"/>
					</g>
				</g>
				<g>
					<g>
						<path class="beast-crown-12-st-5" d="M325.2,457.5c0,0,0.5-0.3,1.1-0.6c0.5-0.3,1-0.7,1-0.7l-1.3-1.8c0,0-0.4,0.3-0.9,0.6
							c-0.5,0.3-0.9,0.5-0.9,0.5L325.2,457.5z"/>
						<path class="beast-crown-12-st-6" d="M326.6,455.3c0.4,0.5,0.2,1.2-0.3,1.6c-0.6,0.3-1.3,0.1-1.6-0.4c-0.3-0.6-0.1-1.2,0.4-1.5
							C325.5,454.6,326.2,454.8,326.6,455.3z"/>
					</g>
				</g>
				<g>
					<g>
						<path class="beast-crown-12-st-5" d="M329,454.8c0,0,0.4-0.4,0.9-0.8c0.4-0.4,0.8-0.9,0.8-0.9l-1.7-1.5c0,0-0.4,0.4-0.7,0.8
							c-0.4,0.4-0.8,0.7-0.8,0.7L329,454.8z"/>
						<path class="beast-crown-12-st-6" d="M329.7,452.3c0.5,0.4,0.5,1.1,0.1,1.6c-0.5,0.5-1.2,0.5-1.6,0c-0.4-0.5-0.4-1.2,0-1.6
							C328.5,452,329.3,452,329.7,452.3z"/>
					</g>
				</g>
				<g>
					<g>
						<path class="beast-crown-12-st-5" d="M331.9,451.3c0,0,0.3-0.5,0.6-1c0.3-0.5,0.6-1.1,0.6-1.1l-2-1c0,0-0.3,0.5-0.5,0.9
							c-0.3,0.5-0.6,0.9-0.6,0.9L331.9,451.3z"/>
						<path class="beast-crown-12-st-6" d="M332.1,448.7c0.6,0.3,0.8,1,0.4,1.6c-0.4,0.6-1.1,0.7-1.6,0.4c-0.5-0.4-0.7-1-0.4-1.5
							C330.9,448.7,331.6,448.5,332.1,448.7z"/>
					</g>
				</g>
				<g>
					<g>
						<path class="beast-crown-12-st-5" d="M334,447.3c0,0,0.2-0.6,0.4-1.1c0.2-0.6,0.4-1.1,0.4-1.1l-2.2-0.6c0,0-0.2,0.5-0.3,1
							c-0.2,0.5-0.4,1-0.4,1L334,447.3z"/>
						<path class="beast-crown-12-st-6" d="M333.7,444.7c0.6,0.2,0.9,0.8,0.7,1.5c-0.2,0.6-0.9,0.9-1.5,0.7c-0.6-0.2-0.9-0.9-0.7-1.4
							C332.5,444.9,333.1,444.6,333.7,444.7z"/>
					</g>
				</g>
				<g>
					<g>
						<path class="beast-crown-12-st-5" d="M335.3,443c0,0,0.1-0.6,0.2-1.2c0.1-0.6,0.2-1.2,0.2-1.2l-2.3-0.3c0,0-0.1,0.5-0.2,1.1
							c-0.1,0.5-0.2,1.1-0.2,1.1L335.3,443z"/>
						<path class="beast-crown-12-st-6" d="M334.6,440.5c0.6,0.1,1.1,0.7,1,1.3c-0.1,0.6-0.7,1.1-1.3,0.9c-0.6-0.1-1-0.7-0.9-1.3
							C333.4,440.9,333.9,440.4,334.6,440.5z"/>
					</g>
				</g>
				<g>
					<g>
						<path class="beast-crown-12-st-5" d="M335.9,438.5c0,0,0-0.6,0-1.2c0-0.6,0-1.2,0-1.2l-2.3,0c0,0,0,0.5,0,1.1c0,0.5,0,1.1,0,1.1L335.9,438.5z"
							/>
						<path class="beast-crown-12-st-6" d="M334.8,436.2c0.6,0,1.2,0.5,1.1,1.2c0,0.7-0.5,1.2-1.2,1.1c-0.6,0-1.1-0.6-1.1-1.2
							C333.7,436.7,334.2,436.2,334.8,436.2z"/>
					</g>
				</g>
				<g>
					<g>
						<path class="beast-crown-12-st-5" d="M335.8,434.1c0,0,0-0.6-0.1-1.2c-0.1-0.6-0.2-1.2-0.2-1.2l-2.2,0.3c0,0,0.1,0.5,0.2,1.1
							c0.1,0.5,0.1,1.1,0.1,1.1L335.8,434.1z"/>
						<path class="beast-crown-12-st-6" d="M334.4,431.9c0.6-0.1,1.2,0.3,1.3,1c0.1,0.6-0.4,1.2-1,1.3c-0.6,0-1.2-0.4-1.2-1
							C333.4,432.6,333.8,432,334.4,431.9z"/>
					</g>
				</g>
				<g>
					<g>
						<path class="beast-crown-12-st-5" d="M335.2,429.6c0,0-0.1-0.6-0.3-1.1c-0.1-0.3-0.2-0.6-0.2-0.8c-0.1-0.2-0.1-0.3-0.1-0.3l-2.2,0.7
							c0,0,0.1,0.1,0.1,0.3c0.1,0.2,0.1,0.5,0.2,0.7c0.1,0.5,0.3,1.1,0.3,1.1L335.2,429.6z"/>
						<path class="beast-crown-12-st-6" d="M333.4,427.7c0.6-0.2,1.2,0.2,1.4,0.8c0.2,0.6-0.2,1.3-0.8,1.4c-0.6,0.1-1.2-0.2-1.4-0.8
							C332.5,428.5,332.9,427.9,333.4,427.7z"/>
					</g>
				</g>
				<g>
					<g>
						<path class="beast-crown-12-st-5" d="M333.8,425.4c0,0-0.2-0.5-0.5-1.1c-0.1-0.3-0.2-0.5-0.3-0.7c-0.1-0.2-0.2-0.3-0.2-0.3l-2.1,1
							c0,0,0.1,0.1,0.1,0.3c0.1,0.2,0.2,0.4,0.3,0.7c0.2,0.5,0.4,1,0.4,1L333.8,425.4z"/>
						<path class="beast-crown-12-st-6" d="M331.9,423.7c0.6-0.3,1.2,0,1.5,0.6c0.3,0.6,0,1.3-0.6,1.5c-0.6,0.2-1.3,0-1.5-0.6
							C331,424.6,331.3,424,331.9,423.7z"/>
					</g>
				</g>
				<g>
					<g>
						<polygon class="beast-crown-12-st-5" points="331.9,421.3 330.7,419.3 328.8,420.5 329.9,422.4 						"/>
						<path class="beast-crown-12-st-6" d="M329.8,419.9c0.5-0.3,1.2-0.2,1.6,0.4c0.3,0.6,0.2,1.3-0.4,1.6c-0.5,0.3-1.2,0.1-1.6-0.4
							C329.1,421,329.2,420.3,329.8,419.9z"/>
					</g>
				</g>
				<g>
					<g>
						<path class="beast-crown-12-st-5" d="M329.5,417.6c0,0-0.3-0.5-0.7-0.9c-0.4-0.5-0.7-0.9-0.7-0.9l-1.8,1.4c0,0,0.3,0.4,0.7,0.9
							c0.3,0.4,0.7,0.9,0.7,0.9L329.5,417.6z"/>
						<path class="beast-crown-12-st-6" d="M327.2,416.4c0.5-0.4,1.2-0.3,1.6,0.2c0.4,0.5,0.3,1.2-0.2,1.6c-0.5,0.4-1.2,0.3-1.6-0.2
							C326.7,417.5,326.8,416.8,327.2,416.4z"/>
					</g>
				</g>
				<g>
					<g>
						<path class="beast-crown-12-st-5" d="M326.8,414.1c0,0-0.4-0.4-0.8-0.9c-0.4-0.4-0.8-0.8-0.8-0.8l-1.6,1.6c0,0,0.4,0.4,0.8,0.8
							c0.4,0.4,0.7,0.8,0.7,0.8L326.8,414.1z"/>
						<path class="beast-crown-12-st-6" d="M324.4,413.2c0.5-0.4,1.2-0.4,1.6,0.1c0.4,0.5,0.4,1.2-0.1,1.6c-0.5,0.4-1.2,0.4-1.6-0.1
							C323.9,414.3,323.9,413.6,324.4,413.2z"/>
					</g>
				</g>
				<g>
					<g>
						<path class="beast-crown-12-st-5" d="M323.7,410.9c0,0-0.4-0.4-0.8-0.8c-0.4-0.4-0.8-0.8-0.8-0.8l-1.5,1.7c0,0,0.4,0.4,0.8,0.8
							c0.4,0.4,0.8,0.8,0.8,0.8L323.7,410.9z"/>
						<path class="beast-crown-12-st-6" d="M321.3,410.1c0.4-0.5,1.1-0.5,1.6-0.1c0.5,0.4,0.5,1.2,0,1.6c-0.4,0.4-1.1,0.5-1.6,0
							C320.9,411.3,320.9,410.6,321.3,410.1z"/>
					</g>
				</g>
				<g>
					<g>
						<path class="beast-crown-12-st-5" d="M320.5,407.9c0,0-0.4-0.4-0.9-0.7c-0.4-0.4-0.9-0.7-0.9-0.7l-1.4,1.8c0,0,0.4,0.4,0.9,0.7
							c0.4,0.4,0.8,0.7,0.8,0.7L320.5,407.9z"/>
						<path class="beast-crown-12-st-6" d="M318,407.3c0.4-0.5,1.1-0.6,1.6-0.2c0.5,0.4,0.5,1.1,0.1,1.6c-0.4,0.5-1.1,0.5-1.6,0.1
							C317.7,408.5,317.6,407.8,318,407.3z"/>
					</g>
				</g>
				<g>
					<g>
						<path class="beast-crown-12-st-5" d="M317.1,405.2c0,0-0.5-0.4-0.9-0.7c-0.5-0.3-0.9-0.7-0.9-0.7l-1.4,1.8c0,0,0.4,0.3,0.9,0.7
							c0.4,0.3,0.9,0.7,0.9,0.7L317.1,405.2z"/>
						<path class="beast-crown-12-st-6" d="M314.6,404.7c0.4-0.5,1.1-0.6,1.6-0.2c0.5,0.4,0.6,1.1,0.2,1.6c-0.4,0.5-1.1,0.6-1.6,0.2
							C314.3,405.9,314.2,405.2,314.6,404.7z"/>
					</g>
				</g>
				<g>
					<g>
						
							<rect x="310.9" y="401.7" transform="matrix(0.804 0.5946 -0.5946 0.804 300.6392 -106.6181)" class="beast-crown-12-st-5" width="2.3" height="2.3"/>
						<circle class="beast-crown-12-st-6" cx="312.1" cy="402.8" r="1.1"/>
					</g>
				</g>
				<g>
					<g>
						
							<rect x="307.5" y="399.1" transform="matrix(0.804 0.5946 -0.5946 0.804 298.43 -105.0562)" class="beast-crown-12-st-5" width="2.3" height="2.3"/>
						<circle class="beast-crown-12-st-6" cx="308.6" cy="400.2" r="1.1"/>
					</g>
				</g>
				<g>
					<g>
						<path class="beast-crown-12-st-5" d="M306.7,397.4c0,0-0.5-0.3-0.9-0.7c-0.5-0.3-0.9-0.7-0.9-0.7l-1.3,1.8c0,0,0.5,0.3,0.9,0.7
							c0.5,0.3,0.9,0.7,0.9,0.7L306.7,397.4z"/>
						<path class="beast-crown-12-st-6" d="M304.2,397c0.4-0.5,1.1-0.6,1.6-0.3c0.5,0.4,0.6,1.1,0.2,1.6c-0.4,0.5-1.1,0.6-1.6,0.2
							C303.9,398.2,303.8,397.5,304.2,397z"/>
					</g>
				</g>
				<g>
					<g>
						<path class="beast-crown-12-st-5" d="M303.2,394.9c0,0-0.4-0.3-0.9-0.7c-0.4-0.3-0.9-0.7-0.9-0.7l-1.4,1.8c0,0,0.5,0.4,0.9,0.7
							c0.5,0.3,0.9,0.7,0.9,0.7L303.2,394.9z"/>
						<path class="beast-crown-12-st-6" d="M300.7,394.4c0.4-0.5,1.1-0.6,1.6-0.2c0.5,0.4,0.6,1.1,0.2,1.6c-0.4,0.5-1.1,0.6-1.6,0.2
							C300.4,395.6,300.3,394.9,300.7,394.4z"/>
					</g>
				</g>
				<g>
					<g>
						<path class="beast-crown-12-st-5" d="M299.9,392.2c0,0-0.4-0.4-0.9-0.7c-0.4-0.4-0.8-0.7-0.8-0.7l-1.5,1.7c0,0,0.4,0.4,0.9,0.8
							c0.4,0.4,0.9,0.7,0.9,0.7L299.9,392.2z"/>
						<path class="beast-crown-12-st-6" d="M297.4,391.6c0.4-0.5,1.1-0.5,1.6-0.1c0.5,0.4,0.5,1.1,0.1,1.6c-0.4,0.5-1.1,0.5-1.6,0.1
							C297,392.8,297,392.1,297.4,391.6z"/>
					</g>
				</g>
				<g>
					<g>
						<path class="beast-crown-12-st-5" d="M296.7,389.4c0,0-0.1-0.1-0.3-0.2c-0.1-0.1-0.2-0.2-0.3-0.2l-0.1-0.1c0,0,0,0-0.1-0.1
							c-0.3-0.4-0.7-0.9-0.7-0.9l-1.8,1.4c0,0,0.4,0.5,0.7,0.9c0.1,0.1,0.1,0.2,0.2,0.2l0.2,0.1c0.1,0.1,0.2,0.2,0.3,0.3
							c0.2,0.1,0.3,0.2,0.3,0.2L296.7,389.4z"/>
						<path class="beast-crown-12-st-6" d="M294.4,388.6c0.5-0.4,1.2-0.3,1.6,0.2c0,0,0,0,0,0.1c0,0.1,0.1,0.1,0.1,0.2c0.1,0.1,0.1,0.3,0.1,0.4
							c0,0.3-0.1,0.6-0.3,0.8c-0.2,0.2-0.5,0.4-0.8,0.4c-0.1,0-0.3,0-0.4-0.1c-0.1,0-0.1-0.1-0.2-0.1c-0.1-0.1-0.2-0.2-0.3-0.2
							C293.8,389.7,293.9,389,294.4,388.6z"/>
					</g>
				</g>
				<g>
					<g>
						<path class="beast-crown-12-st-5" d="M294.1,386.3c0,0-0.3-0.4-0.6-0.9c-0.3-0.5-0.5-0.9-0.5-0.9l-2,1.1c0,0,0.3,0.5,0.6,1
							c0.3,0.5,0.6,1,0.6,1L294.1,386.3z"/>
						<path class="beast-crown-12-st-6" d="M292,385c0.6-0.3,1.2-0.1,1.5,0.4c0.3,0.5,0.2,1.2-0.4,1.5c-0.5,0.4-1.2,0.2-1.6-0.4
							C291.2,386,291.4,385.3,292,385z"/>
					</g>
				</g>
				<g>
					<g>
						<path class="beast-crown-12-st-5" d="M292.2,382.7c0,0,0-0.1-0.1-0.3c-0.1-0.2-0.1-0.4-0.2-0.7c-0.1-0.2-0.1-0.5-0.2-0.7
							c0-0.2-0.1-0.3-0.1-0.3l-2.2,0.4c0,0,0,0.2,0.1,0.4c0.1,0.2,0.1,0.5,0.2,0.8c0.1,0.3,0.2,0.6,0.3,0.8c0.1,0.2,0.1,0.4,0.1,0.4
							L292.2,382.7z"/>
						<path class="beast-crown-12-st-6" d="M290.6,380.9c0.6-0.1,1.2,0.3,1.3,0.8c0.2,0.5-0.2,1.1-0.7,1.4c-0.6,0.2-1.3-0.1-1.4-0.8
							C289.5,381.7,289.9,381,290.6,380.9z"/>
					</g>
				</g>
				<g>
					<g>
						<path class="beast-crown-12-st-5" d="M291.6,379c0,0,0-0.1,0-0.3c0-0.2,0.1-0.4,0.1-0.7c0.1-0.5,0.3-0.9,0.3-0.9l-2.1-0.8c0,0-0.1,0.2-0.1,0.4
							c-0.1,0.2-0.2,0.5-0.2,0.9c-0.1,0.3-0.1,0.6-0.1,0.9c0,0.2,0,0.4,0,0.4L291.6,379z"/>
						<path class="beast-crown-12-st-6" d="M290.9,376.7c0.6,0.2,0.9,0.8,0.8,1.3c-0.1,0.5-0.6,0.9-1.3,0.9c-0.6,0-1.1-0.6-1-1.4
							C289.6,376.8,290.4,376.4,290.9,376.7z"/>
					</g>
				</g>
				<g>
					<g>
						<path class="beast-crown-12-st-5" d="M292.8,375.5c0,0,0.1-0.1,0.2-0.3c0.1-0.2,0.2-0.4,0.4-0.6c0.3-0.4,0.7-0.8,0.7-0.8l-1.7-1.5
							c0,0-0.4,0.4-0.8,0.9c-0.2,0.2-0.4,0.5-0.5,0.7c-0.1,0.2-0.2,0.3-0.2,0.3L292.8,375.5z"/>
						<path class="beast-crown-12-st-6" d="M293.2,373.1c0.5,0.4,0.5,1.1,0.2,1.6c-0.4,0.4-1,0.6-1.6,0.2c-0.5-0.3-0.7-1.1-0.2-1.6
							C292,372.7,292.8,372.6,293.2,373.1z"/>
					</g>
				</g>
				<g>
					<g>
						<path class="beast-crown-12-st-5" d="M295.5,372.5c0,0,0.4-0.3,0.8-0.7c0.4-0.3,0.9-0.6,0.9-0.6l-1.3-1.9c0,0-0.5,0.3-1,0.7
							c-0.5,0.4-0.9,0.7-0.9,0.7L295.5,372.5z"/>
						<path class="beast-crown-12-st-6" d="M296.5,370.3c0.3,0.5,0.2,1.2-0.2,1.6c-0.5,0.4-1.2,0.3-1.6-0.2c-0.4-0.5-0.3-1.2,0.2-1.6
							C295.5,369.6,296.2,369.8,296.5,370.3z"/>
					</g>
				</g>
				<g>
					<g>
						<path class="beast-crown-12-st-5" d="M298.8,370.2c0,0,0.5-0.3,1-0.5c0.5-0.2,1-0.4,1-0.4l-0.9-2.1c0,0-0.6,0.2-1.1,0.5
							c-0.5,0.3-1.1,0.5-1.1,0.5L298.8,370.2z"/>
						<path class="beast-crown-12-st-6" d="M300.3,368.2c0.2,0.6,0,1.2-0.5,1.5c-0.5,0.3-1.2,0-1.5-0.5c-0.3-0.5-0.1-1.3,0.5-1.5
							C299.4,367.4,300.1,367.7,300.3,368.2z"/>
					</g>
				</g>
				<g>
					<g>
						<path class="beast-crown-12-st-5" d="M302.6,368.6c0,0,0.1,0,0.3-0.1c0.2-0.1,0.5-0.1,0.7-0.2c0.5-0.1,1-0.2,1-0.2l-0.4-2.2
							c0,0-0.6,0.1-1.2,0.3c-0.3,0.1-0.6,0.2-0.8,0.2c-0.2,0.1-0.4,0.1-0.4,0.1L302.6,368.6z"/>
						<path class="beast-crown-12-st-6" d="M304.5,367c0.1,0.6-0.3,1.2-0.8,1.4c-0.6,0.1-1.2-0.2-1.4-0.8c-0.2-0.6,0.2-1.2,0.8-1.4
							C303.7,366,304.3,366.4,304.5,367z"/>
					</g>
				</g>
				<g>
					<g>
						<path class="beast-crown-12-st-5" d="M306.6,367.8c0,0,0.5-0.1,1.1-0.1c0.5,0,1.1,0,1.1,0l0-2.3c0,0-0.6,0-1.2,0c-0.6,0-1.2,0.1-1.2,0.1
							L306.6,367.8z"/>
						<path class="beast-crown-12-st-6" d="M308.8,366.5c0,0.6-0.5,1.1-1.1,1.2c-0.6,0-1.1-0.4-1.2-1c-0.1-0.6,0.4-1.2,1.1-1.2
							C308.2,365.4,308.7,365.9,308.8,366.5z"/>
					</g>
				</g>
				<g>
					<g>
						<path class="beast-crown-12-st-5" d="M310.7,367.7c0,0,0.5,0,1.1,0.1c0.5,0.1,1.1,0.1,1.1,0.1l0.3-2.3c0,0-0.6-0.1-1.2-0.1
							c-0.6,0-1.2-0.1-1.2-0.1L310.7,367.7z"/>
						<path class="beast-crown-12-st-6" d="M313.1,366.8c-0.1,0.6-0.6,1.1-1.2,1c-0.6-0.1-1.1-0.6-1-1.2c0-0.6,0.6-1.1,1.2-1
							C312.7,365.6,313.1,366.2,313.1,366.8z"/>
					</g>
				</g>
				<g>
					<g>
						<path class="beast-crown-12-st-5" d="M314.9,368.2c0,0,0.5,0.1,1.1,0.2c0.5,0.1,1.1,0.2,1.1,0.2l0.5-2.2c0,0-0.6-0.1-1.1-0.3
							c-0.6-0.1-1.1-0.2-1.1-0.2L314.9,368.2z"/>
						<path class="beast-crown-12-st-6" d="M317.3,367.6c-0.1,0.6-0.7,1-1.3,0.9c-0.6-0.1-1-0.7-0.9-1.3c0.1-0.6,0.7-1,1.3-0.9
							C317.1,366.3,317.5,367,317.3,367.6z"/>
					</g>
				</g>
				<g>
					<g>
						<path class="beast-crown-12-st-5" d="M319,369.2c0,0,0.5,0.1,1,0.3c0.5,0.2,1,0.4,1,0.4l0.8-2.1c0,0-0.6-0.2-1.1-0.4c-0.6-0.2-1.1-0.3-1.1-0.3
							L319,369.2z"/>
						<path class="beast-crown-12-st-6" d="M321.4,368.8c-0.2,0.6-0.9,0.9-1.4,0.7c-0.6-0.2-0.9-0.8-0.7-1.4c0.2-0.6,0.8-1,1.4-0.7
							C321.4,367.6,321.7,368.2,321.4,368.8z"/>
					</g>
				</g>
				<g>
					<g>
						<path class="beast-crown-12-st-5" d="M322.9,370.6c0,0,0.5,0.2,1,0.5c0.5,0.2,1,0.5,1,0.5l1.1-2c0,0-0.5-0.3-1-0.6c-0.5-0.3-1.1-0.5-1.1-0.5
							L322.9,370.6z"/>
						<path class="beast-crown-12-st-6" d="M325.4,370.6c-0.3,0.6-1,0.7-1.5,0.5c-0.5-0.3-0.8-0.9-0.5-1.5c0.3-0.6,1-0.8,1.5-0.5
							C325.5,369.4,325.7,370.1,325.4,370.6z"/>
					</g>
				</g>
				<g>
					<g>
						<path class="beast-crown-12-st-5" d="M326.5,372.6c0,0,0.4,0.3,0.9,0.6c0.4,0.3,0.9,0.7,0.9,0.7l1.4-1.8c0,0-0.5-0.4-0.9-0.7
							c-0.5-0.3-1-0.7-1-0.7L326.5,372.6z"/>
						<path class="beast-crown-12-st-6" d="M328.9,373c-0.4,0.5-1.1,0.6-1.6,0.2c-0.5-0.3-0.6-1-0.3-1.6c0.3-0.5,1.1-0.6,1.6-0.3
							C329.2,371.8,329.3,372.6,328.9,373z"/>
					</g>
				</g>
				<g>
					<g>
						<path class="beast-crown-12-st-5" d="M329.7,375.2c0,0,0.4,0.4,0.8,0.8c0.4,0.4,0.8,0.8,0.8,0.8l1.7-1.6c0,0-0.4-0.4-0.8-0.8
							c-0.4-0.4-0.9-0.8-0.9-0.8L329.7,375.2z"/>
						<path class="beast-crown-12-st-6" d="M332.1,376c-0.5,0.4-1.2,0.4-1.6,0c-0.4-0.4-0.4-1.1,0-1.6c0.4-0.5,1.2-0.5,1.6,0
							C332.6,374.8,332.6,375.5,332.1,376z"/>
					</g>
				</g>
				<g>
					<g>
						<path class="beast-crown-12-st-5" d="M332.6,378.2c0,0,0.3,0.4,0.7,0.9c0.3,0.4,0.7,0.9,0.7,0.9l1.8-1.3c0,0-0.4-0.5-0.7-0.9
							c-0.4-0.5-0.7-0.9-0.7-0.9L332.6,378.2z"/>
						<path class="beast-crown-12-st-6" d="M334.8,379.3c-0.5,0.4-1.2,0.3-1.6-0.2c-0.4-0.5-0.3-1.2,0.2-1.6c0.5-0.4,1.2-0.3,1.6,0.2
							C335.5,378.2,335.4,378.9,334.8,379.3z"/>
					</g>
				</g>
				<g>
					<g>
						<path class="beast-crown-12-st-5" d="M335,381.6c0,0,0.3,0.5,0.6,0.9c0.3,0.5,0.5,1,0.5,1l2-1.1c0,0-0.3-0.5-0.6-1c-0.3-0.5-0.6-1-0.6-1
							L335,381.6z"/>
						<path class="beast-crown-12-st-6" d="M337.2,382.9c-0.6,0.3-1.2,0.1-1.5-0.4c-0.3-0.5-0.2-1.2,0.4-1.5c0.5-0.3,1.2-0.2,1.6,0.4
							C337.9,381.9,337.7,382.6,337.2,382.9z"/>
					</g>
				</g>
				<g>
					<g>
						<path class="beast-crown-12-st-5" d="M337.1,385.3c0,0,0.3,0.5,0.5,1c0.2,0.5,0.4,1,0.4,1l2.1-0.9c0,0-0.2-0.5-0.5-1.1
							c-0.2-0.5-0.5-1.1-0.5-1.1L337.1,385.3z"/>
						<path class="beast-crown-12-st-6" d="M339.1,386.8c-0.6,0.2-1.2,0-1.5-0.6c-0.2-0.6,0-1.2,0.5-1.5c0.6-0.3,1.3,0,1.5,0.6
							C339.9,385.9,339.6,386.6,339.1,386.8z"/>
					</g>
				</g>
				<g>
					<g>
						<path class="beast-crown-12-st-5" d="M338.8,389.1c0,0,0.2,0.5,0.4,1c0.2,0.5,0.4,1.1,0.4,1.1l2.2-0.7c0,0-0.2-0.5-0.4-1.1
							c-0.2-0.5-0.4-1.1-0.4-1.1L338.8,389.1z"/>
						<path class="beast-crown-12-st-6" d="M340.6,390.9c-0.6,0.2-1.2-0.1-1.4-0.7c-0.2-0.6,0.1-1.2,0.7-1.4c0.6-0.2,1.3,0.1,1.5,0.7
							C341.5,390,341.2,390.7,340.6,390.9z"/>
					</g>
				</g>
				<g>
					<g>
						<path class="beast-crown-12-st-5" d="M340.1,393.2c0,0,0.2,0.5,0.3,1.1c0.2,0.5,0.3,1.1,0.3,1.1l2.2-0.6c0,0-0.2-0.6-0.3-1.1
							c-0.2-0.6-0.3-1.1-0.3-1.1L340.1,393.2z"/>
						<path class="beast-crown-12-st-6" d="M341.8,395c-0.6,0.2-1.2-0.2-1.4-0.8c-0.2-0.6,0.2-1.2,0.8-1.4c0.6-0.2,1.2,0.2,1.4,0.8
							C342.8,394.2,342.4,394.8,341.8,395z"/>
					</g>
				</g>
				<g>
					<g>
						<polygon class="beast-crown-12-st-5" points="341.2,397.3 341.8,399.5 344,398.9 343.4,396.7 						"/>
						<path class="beast-crown-12-st-6" d="M342.9,399.2c-0.6,0.1-1.2-0.2-1.4-0.8c-0.2-0.6,0.2-1.2,0.8-1.4c0.6-0.2,1.2,0.2,1.4,0.8
							C343.9,398.4,343.5,399,342.9,399.2z"/>
					</g>
				</g>
				<g>
					<g>
						<polygon class="beast-crown-12-st-5" points="342.3,401.4 342.8,403.6 345,403.2 344.5,400.9 						"/>
						<path class="beast-crown-12-st-6" d="M343.9,403.4c-0.6,0.1-1.2-0.2-1.4-0.9c-0.1-0.6,0.2-1.2,0.9-1.4c0.6-0.1,1.2,0.2,1.4,0.9
							C344.9,402.7,344.5,403.3,343.9,403.4z"/>
					</g>
				</g>
				<g>
					<g>
						<polygon class="beast-crown-12-st-5" points="343.2,405.6 343.6,407.8 345.9,407.4 345.4,405.2 						"/>
						<path class="beast-crown-12-st-6" d="M344.8,407.6c-0.6,0.1-1.2-0.3-1.3-0.9c-0.1-0.6,0.3-1.2,0.9-1.3c0.6-0.1,1.2,0.3,1.3,0.9
							C345.8,406.9,345.4,407.5,344.8,407.6z"/>
					</g>
				</g>
				<g>
					<g>
						<polygon class="beast-crown-12-st-5" points="344,409.9 344.5,412.1 346.7,411.6 346.3,409.4 						"/>
						<circle class="beast-crown-12-st-6" cx="345.4" cy="410.7" r="1.1"/>
					</g>
				</g>
				<g>
					<g>
						
							<rect x="345.1" y="413.9" transform="matrix(-0.1882 -0.9821 0.9821 -0.1882 3.7743 833.1011)" class="beast-crown-12-st-5" width="2.3" height="2.3"/>
						<circle class="beast-crown-12-st-6" cx="346.2" cy="415" r="1.1"/>
					</g>
				</g>
				<g>
					<g>
						<polygon class="beast-crown-12-st-5" points="345.7,418.3 346.1,420.6 348.4,420.1 347.9,417.9 						"/>
						
							<ellipse transform="matrix(0.1927 0.9813 -0.9813 0.1927 691.5073 -2.0814)" class="beast-crown-12-st-6" cx="347" cy="419.2" rx="1.1" ry="1.1"/>
					</g>
				</g>
				<g>
					<g>
						<polygon class="beast-crown-12-st-5" points="346.5,422.6 347,424.8 349.2,424.3 348.8,422.1 						"/>
						<path class="beast-crown-12-st-6" d="M348.1,424.6c-0.6,0.1-1.2-0.3-1.3-0.9c-0.1-0.6,0.3-1.2,0.9-1.3c0.6-0.1,1.2,0.3,1.3,0.9
							C349.1,423.8,348.7,424.4,348.1,424.6z"/>
					</g>
				</g>
				<g>
					<g>
						<polygon class="beast-crown-12-st-5" points="347.4,426.8 348,429.1 350.2,428.5 349.7,426.3 						"/>
						<path class="beast-crown-12-st-6" d="M349.1,428.8c-0.6,0.1-1.2-0.2-1.4-0.8c-0.1-0.6,0.2-1.2,0.9-1.4c0.6-0.1,1.2,0.2,1.4,0.8
							C350,428,349.7,428.6,349.1,428.8z"/>
					</g>
				</g>
				<g>
					<g>
						<polygon class="beast-crown-12-st-5" points="348.4,431.1 349,433.3 351.2,432.7 350.7,430.5 						"/>
						<path class="beast-crown-12-st-6" d="M350.1,433c-0.6,0.2-1.2-0.2-1.4-0.8c-0.2-0.6,0.2-1.2,0.8-1.4c0.6-0.2,1.2,0.2,1.4,0.8
							C351.1,432.2,350.7,432.8,350.1,433z"/>
					</g>
				</g>
				<g>
					<g>
						<path class="beast-crown-12-st-5" d="M349.6,435.3c0,0,0.2,0.6,0.3,1.1c0.2,0.6,0.4,1.1,0.4,1.1l2.1-0.8c0,0-0.2-0.5-0.4-1
							c-0.2-0.5-0.3-1.1-0.3-1.1L349.6,435.3z"/>
						<path class="beast-crown-12-st-6" d="M351.4,437.1c-0.6,0.2-1.3-0.1-1.5-0.7c-0.2-0.6,0.1-1.3,0.7-1.4c0.6-0.2,1.2,0.2,1.4,0.7
							C352.3,436.2,352,436.9,351.4,437.1z"/>
					</g>
				</g>
				<g>
					<g>
						<path class="beast-crown-12-st-5" d="M351.2,439.5c0,0,0.3,0.6,0.7,1.1c0.2,0.3,0.4,0.5,0.6,0.7c0.2,0.2,0.3,0.3,0.3,0.3l1.6-1.6
							c0,0-0.1-0.1-0.2-0.2c-0.1-0.1-0.3-0.3-0.4-0.5c-0.3-0.4-0.5-0.8-0.5-0.8L351.2,439.5z"/>
						<path class="beast-crown-12-st-6" d="M353.6,440.8c-0.4,0.5-1.2,0.4-1.7-0.2c-0.4-0.6-0.2-1.3,0.3-1.6c0.6-0.3,1.2-0.1,1.5,0.3
							C354.1,439.7,354,440.3,353.6,440.8z"/>
					</g>
				</g>
				<g>
					<g>
						<path class="beast-crown-12-st-5" d="M354.8,443c0,0,0.2,0.1,0.4,0.2c0.2,0.1,0.6,0.2,0.9,0.2c0.3,0.1,0.7,0.1,0.9,0.1c0.2,0,0.4,0,0.4,0
							l0.1-2.3c0,0-0.1,0-0.3,0c-0.2,0-0.4-0.1-0.6-0.1c-0.2,0-0.4-0.1-0.6-0.2c-0.2,0-0.3-0.1-0.3-0.1L354.8,443z"/>
						<path class="beast-crown-12-st-6" d="M357.5,442.4c0,0.3-0.2,0.6-0.4,0.8c-0.2,0.2-0.6,0.3-1,0.2c-0.8-0.2-1.1-0.9-0.8-1.5
							c0.3-0.6,0.8-0.9,1.3-0.8c0.3,0,0.5,0.2,0.6,0.4C357.4,441.8,357.5,442.1,357.5,442.4z"/>
					</g>
				</g>
				<g>
					<g>
						<path class="beast-crown-12-st-5" d="M359.8,443.3c0,0,0.7-0.1,1.3-0.4c0.7-0.3,1.2-0.8,1.2-0.8l-1.5-1.7c0,0-0.3,0.3-0.7,0.4
							c-0.4,0.2-0.8,0.3-0.8,0.3L359.8,443.3z"/>
						<path class="beast-crown-12-st-6" d="M361.6,441.3c0.4,0.5,0.3,1.3-0.5,1.6c-0.8,0.3-1.4-0.1-1.5-0.7c-0.1-0.6,0.2-1.2,0.6-1.4
							C360.5,440.7,361.1,440.8,361.6,441.3z"/>
					</g>
				</g>
				<g>
					<g>
						<path class="beast-crown-12-st-5" d="M363.8,440.2c0,0,0.3-0.5,0.6-1c0.3-0.5,0.5-1.1,0.5-1.1l-2.1-0.9c0,0-0.2,0.5-0.5,1
							c-0.3,0.5-0.5,0.9-0.5,0.9L363.8,440.2z"/>
						<path class="beast-crown-12-st-6" d="M363.8,437.6c0.6,0.3,0.8,0.9,0.5,1.5c-0.3,0.6-1,0.8-1.5,0.5c-0.5-0.3-0.7-1-0.5-1.5
							C362.6,437.6,363.3,437.4,363.8,437.6z"/>
					</g>
				</g>
				<g>
					<g>
						<path class="beast-crown-12-st-5" d="M365.7,436.1c0,0,0.2-0.6,0.4-1.1c0.2-0.6,0.3-1.1,0.3-1.1l-2.2-0.6c0,0-0.1,0.5-0.3,1.1
							c-0.2,0.5-0.3,1-0.3,1L365.7,436.1z"/>
						<path class="beast-crown-12-st-6" d="M365.2,433.6c0.6,0.2,1,0.8,0.8,1.4c-0.2,0.6-0.8,1-1.4,0.8c-0.6-0.2-0.9-0.8-0.7-1.4
							C364,433.8,364.6,433.4,365.2,433.6z"/>
					</g>
				</g>
				<g>
					<g>
						<path class="beast-crown-12-st-5" d="M366.8,431.8c0,0,0.1-0.6,0.2-1.1c0.1-0.6,0.2-1.1,0.2-1.1l-2.2-0.3c0,0-0.1,0.6-0.2,1.1
							c-0.1,0.5-0.2,1.1-0.2,1.1L366.8,431.8z"/>
						<path class="beast-crown-12-st-6" d="M366.1,429.3c0.6,0.1,1.1,0.7,0.9,1.3c-0.1,0.6-0.7,1-1.3,0.9c-0.6-0.1-1-0.7-0.9-1.3
							C364.9,429.7,365.5,429.2,366.1,429.3z"/>
					</g>
				</g>
				<g>
					<g>
						<path class="beast-crown-12-st-5" d="M367.5,427.4c0,0,0.1-0.6,0.1-1.1c0.1-0.6,0.1-1.1,0.1-1.1l-2.3-0.2c0,0-0.1,0.6-0.1,1.1
							c-0.1,0.6-0.1,1.1-0.1,1.1L367.5,427.4z"/>
						<path class="beast-crown-12-st-6" d="M366.6,425c0.6,0.1,1.1,0.6,1,1.2c-0.1,0.6-0.6,1.1-1.3,1c-0.6-0.1-1.1-0.6-1-1.2
							C365.4,425.4,366,425,366.6,425z"/>
					</g>
				</g>
				<g>
					<g>
						<polygon class="beast-crown-12-st-5" points="367.9,423.1 368.1,420.8 365.8,420.7 365.6,422.9 						"/>
						<path class="beast-crown-12-st-6" d="M366.9,420.7c0.6,0,1.1,0.6,1.1,1.2c0,0.6-0.6,1.1-1.2,1.1c-0.6,0-1.1-0.6-1.1-1.2
							C365.8,421.2,366.3,420.7,366.9,420.7z"/>
					</g>
				</g>
				<g>
					<g>
						
							<rect x="366" y="416.4" transform="matrix(-7.051297e-02 0.9975 -0.9975 -7.051297e-02 809.5482 80.7671)" class="beast-crown-12-st-5" width="2.3" height="2.3"/>
						<circle class="beast-crown-12-st-6" cx="367.1" cy="417.6" r="1.1"/>
					</g>
				</g>
				<g>
					<g>
						<polygon class="beast-crown-12-st-5" points="368.5,414.4 368.6,412.2 366.4,412.1 366.2,414.3 						"/>
						<path class="beast-crown-12-st-6" d="M367.5,412.1c0.6,0,1.1,0.6,1.1,1.2c0,0.6-0.6,1.1-1.2,1.1c-0.6,0-1.1-0.6-1.1-1.2
							C366.3,412.6,366.9,412.1,367.5,412.1z"/>
					</g>
				</g>
				<g>
					<g>
						<polygon class="beast-crown-12-st-5" points="368.7,410.1 368.8,407.8 366.5,407.8 366.5,410 						"/>
						<path class="beast-crown-12-st-6" d="M367.6,407.8c0.6,0,1.1,0.5,1.1,1.2c0,0.6-0.5,1.1-1.2,1.1c-0.6,0-1.1-0.5-1.1-1.2
							C366.5,408.3,367,407.8,367.6,407.8z"/>
					</g>
				</g>
				<g>
					<g>
						<path class="beast-crown-12-st-5" d="M368.8,405.7c0,0,0-0.6,0-1.2c0-0.6,0-1.2,0-1.2l-2.3,0.1c0,0,0,0.6,0,1.1c0,0.6,0,1.1,0,1.1L368.8,405.7
							z"/>
						<path class="beast-crown-12-st-6" d="M367.6,403.5c0.6,0,1.2,0.5,1.2,1.1c0,0.6-0.5,1.2-1.1,1.2c-0.6,0-1.1-0.5-1.2-1.1
							C366.5,404,367,403.5,367.6,403.5z"/>
					</g>
				</g>
				<g>
					<g>
						<path class="beast-crown-12-st-5" d="M368.6,401.3c0,0,0-0.6-0.1-1.1c-0.1-0.6-0.1-1.1-0.1-1.1l-2.3,0.2c0,0,0.1,0.6,0.1,1.1
							c0,0.6,0.1,1.1,0.1,1.1L368.6,401.3z"/>
						<path class="beast-crown-12-st-6" d="M367.3,399.2c0.6-0.1,1.2,0.4,1.2,1c0.1,0.6-0.4,1.2-1,1.2c-0.6,0-1.2-0.4-1.2-1
							C366.2,399.8,366.7,399.2,367.3,399.2z"/>
					</g>
				</g>
				<g>
					<g>
						<polygon class="beast-crown-12-st-5" points="368.2,397 367.8,394.7 365.6,395.1 365.9,397.3 						"/>
						<path class="beast-crown-12-st-6" d="M366.7,394.9c0.6-0.1,1.2,0.3,1.3,1c0.1,0.6-0.3,1.2-1,1.3c-0.6,0.1-1.2-0.3-1.3-1
							C365.7,395.6,366.1,395,366.7,394.9z"/>
					</g>
				</g>
				<g>
					<g>
						<polygon class="beast-crown-12-st-5" points="367.5,392.7 367.1,390.4 364.9,390.8 365.3,393.1 						"/>
						<path class="beast-crown-12-st-6" d="M366,390.6c0.6-0.1,1.2,0.3,1.3,0.9c0.1,0.6-0.3,1.2-0.9,1.3c-0.6,0.1-1.2-0.3-1.3-0.9
							C365,391.3,365.4,390.7,366,390.6z"/>
					</g>
				</g>
				<g>
					<g>
						<polygon class="beast-crown-12-st-5" points="366.7,388.4 366.2,386.2 364,386.6 364.5,388.8 						"/>
						<path class="beast-crown-12-st-6" d="M365.1,386.4c0.6-0.1,1.2,0.3,1.3,0.9c0.1,0.6-0.3,1.2-0.9,1.3c-0.6,0.1-1.2-0.3-1.3-0.9
							C364.1,387.1,364.5,386.5,365.1,386.4z"/>
					</g>
				</g>
				<g>
					<g>
						<polygon class="beast-crown-12-st-5" points="365.8,384.2 365.4,382 363.2,382.4 363.6,384.6 						"/>
						<path class="beast-crown-12-st-6" d="M364.3,382.2c0.6-0.1,1.2,0.3,1.3,0.9c0.1,0.6-0.3,1.2-0.9,1.3c-0.6,0.1-1.2-0.3-1.3-0.9
							C363.3,382.9,363.7,382.3,364.3,382.2z"/>
					</g>
				</g>
				<g>
					<g>
						<polygon class="beast-crown-12-st-5" points="365,379.9 364.5,377.7 362.3,378.1 362.8,380.3 						"/>
						<path class="beast-crown-12-st-6" d="M363.4,377.9c0.6-0.1,1.2,0.3,1.3,0.9c0.1,0.6-0.3,1.2-0.9,1.3c-0.6,0.1-1.2-0.3-1.3-0.9
							C362.4,378.6,362.8,378,363.4,377.9z"/>
					</g>
				</g>
				<g>
					<g>
						<path class="beast-crown-12-st-5" d="M364.1,375.7c0,0-0.1-0.6-0.2-1.1c-0.1-0.6-0.2-1.1-0.2-1.1l-2.2,0.4c0,0,0.1,0.6,0.2,1.1
							c0.1,0.5,0.2,1.1,0.2,1.1L364.1,375.7z"/>
						<path class="beast-crown-12-st-6" d="M362.6,373.7c0.6-0.1,1.2,0.3,1.3,0.9c0.1,0.6-0.3,1.2-0.9,1.3c-0.6,0.1-1.2-0.3-1.3-0.9
							C361.6,374.4,362,373.8,362.6,373.7z"/>
					</g>
				</g>
				<g>
					<g>
						<path class="beast-crown-12-st-5" d="M363.4,371.5c0,0-0.1-0.5-0.2-1.1c-0.1-0.5-0.2-1.1-0.2-1.1l-2.3,0.3c0,0,0.1,0.6,0.2,1.2
							c0.1,0.6,0.2,1.1,0.2,1.1L363.4,371.5z"/>
						<path class="beast-crown-12-st-6" d="M361.9,369.4c0.6-0.1,1.2,0.3,1.3,0.9c0.1,0.6-0.3,1.2-0.9,1.3c-0.6,0.1-1.2-0.3-1.3-0.9
							C360.8,370.1,361.3,369.5,361.9,369.4z"/>
					</g>
				</g>
				<g>
					<g>
						<path class="beast-crown-12-st-5" d="M362.8,367.3c0,0,0-0.5,0-1.1c0-0.3,0-0.5,0-0.7c0-0.2,0-0.3,0-0.3l-2.3-0.2c0,0,0,0.2,0,0.4
							c0,0.2,0,0.5,0,0.8c0,0.6,0,1.2,0,1.2L362.8,367.3z"/>
						<path class="beast-crown-12-st-6" d="M361.7,365.1c0.6,0.1,1.1,0.6,1.1,1.1c0,0.6-0.5,1.1-1.1,1.1c-0.6,0-1.2-0.5-1.2-1.1
							C360.5,365.6,361.1,365.1,361.7,365.1z"/>
					</g>
				</g>
				<g>
					<g>
						<path class="beast-crown-12-st-5" d="M363.2,363.6c0,0,0-0.1,0.1-0.3c0.1-0.2,0.2-0.4,0.3-0.5c0.2-0.4,0.6-0.6,0.6-0.7l-1.5-1.7
							c0,0-0.1,0.1-0.3,0.3c-0.2,0.2-0.4,0.4-0.6,0.7c-0.2,0.3-0.4,0.6-0.5,0.8c-0.1,0.2-0.2,0.4-0.2,0.4L363.2,363.6z"/>
						<path class="beast-crown-12-st-6" d="M363.5,361.3c0.2,0.2,0.3,0.5,0.3,0.8c0,0.1,0,0.3,0,0.4c0,0.1-0.1,0.2-0.1,0.3c-0.2,0.2-0.4,0.3-0.6,0.4
							c-0.3,0.1-0.6,0.1-0.9-0.1c-0.3-0.1-0.5-0.3-0.6-0.7c-0.1-0.3,0-0.7,0.2-1c0.1-0.2,0.2-0.3,0.4-0.4c0.2-0.1,0.3-0.1,0.5-0.1
							C363,360.9,363.3,361,363.5,361.3z"/>
					</g>
				</g>
				<g>
					<g>
						<path class="beast-crown-12-st-5" d="M365.6,361.4c0,0,0.4-0.2,0.9-0.2c0.2-0.1,0.5,0,0.6,0c0.2,0,0.3,0,0.3,0l0.1-2.3c0,0-0.2,0-0.4,0
							c-0.3,0-0.6,0-0.9,0c-0.7,0.1-1.3,0.3-1.3,0.3L365.6,361.4z"/>
						<path class="beast-crown-12-st-6" d="M367.5,360c-0.1,0.6-0.5,1.1-1,1.2c-0.5,0-1-0.3-1.2-0.9c-0.2-0.6,0.2-1.3,1-1.4
							C367,358.8,367.5,359.4,367.5,360z"/>
					</g>
				</g>
				<g>
					<g>
						<path class="beast-crown-12-st-5" d="M369.1,361.5c0,0,0.5,0.2,0.9,0.4c0.2,0.1,0.4,0.3,0.6,0.4c0.1,0.1,0.2,0.2,0.2,0.2l1.4-1.8
							c0,0-0.1-0.1-0.3-0.2c-0.2-0.1-0.5-0.3-0.8-0.5c-0.6-0.3-1.2-0.6-1.2-0.6L369.1,361.5z"/>
						<path class="beast-crown-12-st-6" d="M371.4,361.5c-0.4,0.5-1.1,0.6-1.5,0.4c-0.4-0.3-0.7-0.9-0.5-1.5c0.2-0.6,0.9-0.9,1.6-0.5
							C371.7,360.3,371.8,361.1,371.4,361.5z"/>
					</g>
				</g>
				<g>
					<g>
						<path class="beast-crown-12-st-5" d="M372,363.7c0,0,0.1,0.1,0.2,0.2c0.1,0.2,0.3,0.4,0.4,0.6c0.3,0.4,0.6,0.9,0.6,0.9l2-1.2
							c0,0-0.3-0.5-0.7-1c-0.2-0.2-0.4-0.5-0.5-0.7c-0.1-0.2-0.2-0.3-0.2-0.3L372,363.7z"/>
						<path class="beast-crown-12-st-6" d="M374.2,364.8c-0.6,0.3-1.2,0.2-1.5-0.3c-0.3-0.5-0.2-1.2,0.2-1.6c0.5-0.4,1.2-0.3,1.6,0.3
							C374.9,363.8,374.7,364.5,374.2,364.8z"/>
					</g>
				</g>
				<g>
					<g>
						<path class="beast-crown-12-st-5" d="M374.1,367.1c0,0,0.2,0.5,0.4,1c0.2,0.5,0.4,1,0.4,1l2.1-0.8c0,0-0.2-0.5-0.4-1.1
							c-0.2-0.5-0.5-1.1-0.5-1.1L374.1,367.1z"/>
						<path class="beast-crown-12-st-6" d="M376,368.8c-0.6,0.2-1.2-0.1-1.5-0.6c-0.2-0.6,0-1.2,0.6-1.5c0.6-0.3,1.3,0,1.5,0.6
							C376.9,367.9,376.5,368.6,376,368.8z"/>
					</g>
				</g>
				<g>
					<g>
						<polygon class="beast-crown-12-st-5" points="375.5,371.1 376.3,373.2 378.4,372.5 377.7,370.3 						"/>
						<path class="beast-crown-12-st-6" d="M377.3,372.9c-0.6,0.2-1.2-0.1-1.4-0.7c-0.2-0.6,0.1-1.2,0.7-1.4c0.6-0.2,1.2,0.1,1.4,0.7
							C378.3,372,377.9,372.7,377.3,372.9z"/>
					</g>
				</g>
				<g>
					<g>
						<path class="beast-crown-12-st-5" d="M377,375.2c0,0,0.2,0.5,0.4,1.1c0.3,0.5,0.5,1.1,0.5,1.1l2-1c0,0-0.2-0.5-0.5-1c-0.2-0.5-0.4-1-0.4-1
							L377,375.2z"/>
						<path class="beast-crown-12-st-6" d="M378.9,376.9c-0.6,0.3-1.2,0-1.5-0.6c-0.2-0.6,0-1.3,0.6-1.5c0.6-0.2,1.2,0,1.5,0.6
							C379.8,375.9,379.5,376.6,378.9,376.9z"/>
					</g>
				</g>
				<g>
					<g>
						<path class="beast-crown-12-st-5" d="M379,379.3c0,0,0.1,0.1,0.2,0.3c0.1,0.2,0.3,0.5,0.5,0.7c0.4,0.5,0.9,0.9,0.9,0.9l1.5-1.7
							c0,0-0.4-0.3-0.7-0.7c-0.1-0.2-0.3-0.4-0.4-0.5c-0.1-0.2-0.2-0.3-0.2-0.3L379,379.3z"/>
						<path class="beast-crown-12-st-6" d="M381.4,380.4c-0.4,0.5-1.2,0.5-1.7-0.1c-0.2-0.3-0.3-0.6-0.3-0.9c0.1-0.3,0.2-0.6,0.5-0.7
							c0.3-0.2,0.6-0.2,0.8-0.2c0.3,0,0.5,0.1,0.7,0.4C381.8,379.2,381.8,379.9,381.4,380.4z"/>
					</g>
				</g>
				<g>
					<g>
						<path class="beast-crown-12-st-5" d="M382.4,382.6c0,0,0.5,0.3,1,0.6c0.5,0.3,1.1,0.6,1.1,0.6l1-2.1c0,0-0.5-0.2-0.9-0.5
							c-0.5-0.3-0.9-0.5-0.9-0.5L382.4,382.6z"/>
						<path class="beast-crown-12-st-6" d="M385,382.7c-0.3,0.6-1,0.8-1.6,0.5c-0.6-0.3-0.8-1.1-0.4-1.6c0.4-0.5,1-0.7,1.5-0.4
							C385.1,381.5,385.3,382.2,385,382.7z"/>
					</g>
				</g>
				<g>
					<g>
						<path class="beast-crown-12-st-5" d="M386.5,384.6c0,0,0.6,0.2,1.1,0.4c0.6,0.2,1.1,0.4,1.1,0.4l0.7-2.2c0,0-0.5-0.2-1-0.3
							c-0.5-0.2-1-0.4-1-0.4L386.5,384.6z"/>
						<path class="beast-crown-12-st-6" d="M389.1,384.3c-0.2,0.6-0.8,0.9-1.4,0.7c-0.6-0.2-0.9-0.9-0.7-1.5c0.2-0.6,0.9-0.9,1.4-0.7
							C388.9,383,389.2,383.7,389.1,384.3z"/>
					</g>
				</g>
				<g>
					<g>
						<path class="beast-crown-12-st-5" d="M390.7,385.9c0,0,0.1,0,0.3,0.1c0.2,0.1,0.5,0.2,0.7,0.3c0.5,0.2,1.3,0.4,1.3,0.4l0.4-2.2
							c0,0-0.4-0.1-0.9-0.3c-0.3-0.1-0.5-0.2-0.7-0.3c-0.2-0.1-0.4-0.1-0.4-0.1L390.7,385.9z"/>
						<path class="beast-crown-12-st-6" d="M393.2,385.5c-0.1,0.6-0.8,1-1.5,0.7c-0.6-0.2-0.8-0.8-0.7-1.4c0.2-0.6,0.9-0.9,1.5-0.7
							C393,384.3,393.3,384.9,393.2,385.5z"/>
					</g>
				</g>
				<g>
					<g>
						<path class="beast-crown-12-st-5" d="M395.9,385.8c0,0,0.1-0.2,0.3-0.4c0.1-0.2,0.4-0.6,0.5-0.9c0.3-0.7,0.4-1.3,0.4-1.3l-2.2-0.4
							c0,0-0.1,0.5-0.2,0.9c-0.1,0.2-0.2,0.3-0.2,0.5c-0.1,0.1-0.1,0.1-0.1,0.1L395.9,385.8z"/>
						<path class="beast-crown-12-st-6" d="M395.9,382.9c0.6,0.1,1,0.8,0.7,1.5c-0.1,0.4-0.5,0.6-0.8,0.7c-0.3,0.1-0.6,0-0.9-0.2
							c-0.2-0.2-0.4-0.5-0.4-0.7c-0.1-0.3-0.1-0.4,0-0.7C394.8,383.2,395.3,382.8,395.9,382.9z"/>
					</g>
				</g>
				<g>
					<g>
						<path class="beast-crown-12-st-5" d="M397.3,380.9c0,0,0-0.6,0-1.2c0-0.6-0.1-1.2-0.1-1.2l-2.3,0.2c0,0,0.1,0.5,0.1,1.1c0,0.5,0,1.1,0,1.1
							L397.3,380.9z"/>
						<path class="beast-crown-12-st-6" d="M396,378.6c0.6-0.1,1.2,0.4,1.2,1.1c0,0.7-0.5,1.2-1.1,1.2c-0.6,0-1.1-0.5-1.2-1.1
							C394.9,379.2,395.4,378.7,396,378.6z"/>
					</g>
				</g>
				<g>
					<g>
						<path class="beast-crown-12-st-5" d="M396.8,376.4c0,0-0.1-0.6-0.2-1.1c-0.1-0.6-0.3-1.1-0.3-1.1l-2.2,0.6c0,0,0.1,0.5,0.3,1.1
							c0.1,0.5,0.2,1.1,0.2,1.1L396.8,376.4z"/>
						<path class="beast-crown-12-st-6" d="M395.2,374.4c0.6-0.2,1.2,0.2,1.4,0.8c0.1,0.6-0.3,1.2-0.9,1.4c-0.6,0.1-1.2-0.3-1.3-0.9
							C394.2,375.2,394.6,374.6,395.2,374.4z"/>
					</g>
				</g>
				<g>
					<g>
						<path class="beast-crown-12-st-5" d="M395.7,372.1c0,0-0.2-0.6-0.4-1.1c-0.2-0.5-0.4-1.1-0.4-1.1l-2.1,0.8c0,0,0.2,0.5,0.4,1
							c0.2,0.5,0.3,1.1,0.3,1.1L395.7,372.1z"/>
						<path class="beast-crown-12-st-6" d="M393.9,370.3c0.6-0.2,1.2,0.1,1.5,0.7c0.2,0.6-0.1,1.3-0.7,1.4c-0.6,0.2-1.2-0.1-1.4-0.7
							C393,371.1,393.3,370.5,393.9,370.3z"/>
					</g>
				</g>
				<g>
					<g>
						<polygon class="beast-crown-12-st-5" points="394.2,367.9 393.3,365.8 391.2,366.7 392.1,368.8 						"/>
						<path class="beast-crown-12-st-6" d="M392.3,366.3c0.6-0.2,1.2,0,1.5,0.6c0.2,0.6,0,1.3-0.6,1.5c-0.6,0.2-1.2,0-1.5-0.6
							C391.4,367.2,391.7,366.5,392.3,366.3z"/>
					</g>
				</g>
				<g>
					<g>
						<polygon class="beast-crown-12-st-5" points="392.5,363.9 391.6,361.9 389.5,362.8 390.4,364.8 						"/>
						<path class="beast-crown-12-st-6" d="M390.5,362.3c0.6-0.3,1.2,0,1.5,0.6c0.3,0.6,0,1.2-0.6,1.5c-0.6,0.3-1.2,0-1.5-0.6
							C389.7,363.3,390,362.6,390.5,362.3z"/>
					</g>
				</g>
				<g>
					<g>
						<polygon class="beast-crown-12-st-5" points="390.7,360 389.8,357.9 387.7,358.8 388.7,360.9 						"/>
						<path class="beast-crown-12-st-6" d="M388.8,358.4c0.6-0.2,1.2,0,1.5,0.6c0.2,0.6,0,1.2-0.6,1.5c-0.6,0.3-1.2,0-1.5-0.6
							C387.9,359.3,388.2,358.6,388.8,358.4z"/>
					</g>
				</g>
				<g>
					<g>
						<polygon class="beast-crown-12-st-5" points="389.1,356.1 388.3,353.9 386.1,354.8 387,356.9 						"/>
						<path class="beast-crown-12-st-6" d="M387.2,354.4c0.6-0.2,1.2,0.1,1.5,0.7c0.2,0.6-0.1,1.2-0.7,1.5c-0.6,0.2-1.2-0.1-1.5-0.7
							C386.3,355.2,386.6,354.6,387.2,354.4z"/>
					</g>
				</g>
				<g>
					<g>
						<path class="beast-crown-12-st-7" d="M382.6,354.1c-0.2-0.4,0-0.9,0.5-1.1c0.4-0.2,0.9,0,1.1,0.4c0.2,0.4,0,0.9-0.5,1.1
							C383.3,354.8,382.8,354.6,382.6,354.1z"/>
					</g>
					<g>
						<path class="beast-crown-12-st-7" d="M384.7,353.3c-0.2-0.4,0-0.9,0.5-1.1c0.4-0.2,0.9,0,1.1,0.5c0.2,0.4,0,0.9-0.5,1.1
							C385.4,354,384.9,353.8,384.7,353.3z"/>
					</g>
					<g>
						<path class="beast-crown-12-st-7" d="M386.8,352.5c-0.2-0.4,0-0.9,0.5-1.1c0.4-0.2,0.9,0,1.1,0.5c0.2,0.4,0,1-0.5,1.1
							C387.5,353.2,386.9,353,386.8,352.5z"/>
					</g>
					<g>
						<path class="beast-crown-12-st-7" d="M388.8,351.7c-0.2-0.4,0-1,0.5-1.2c0.4-0.2,0.9,0,1.1,0.5c0.2,0.5,0,1-0.5,1.1
							C389.5,352.4,389,352.2,388.8,351.7z"/>
					</g>
					<g>
						<path class="beast-crown-12-st-7" d="M382.9,351.9c-0.2-0.4,0-0.9,0.4-1.1c0.4-0.2,0.9,0,1.1,0.4c0.2,0.4,0,0.9-0.5,1.1
							C383.6,352.6,383.1,352.4,382.9,351.9z"/>
					</g>
					<g>
						<path class="beast-crown-12-st-7" d="M385,351.1c-0.2-0.4,0-0.9,0.4-1.1c0.4-0.2,0.9,0,1.1,0.4c0.2,0.4,0,1-0.4,1.1
							C385.7,351.7,385.1,351.5,385,351.1z"/>
					</g>
					<g>
						<path class="beast-crown-12-st-7" d="M387,350.2c-0.2-0.4,0-1,0.4-1.2c0.4-0.2,1,0,1.2,0.5c0.2,0.5,0,1-0.4,1.2
							C387.7,350.9,387.2,350.7,387,350.2z"/>
					</g>
					<g>
						<path class="beast-crown-12-st-7" d="M383.1,349.7c-0.2-0.4,0-0.9,0.4-1.1c0.4-0.2,0.9-0.1,1.2,0.4c0.2,0.4,0,0.9-0.4,1.1
							C383.8,350.3,383.3,350.1,383.1,349.7z"/>
					</g>
					<g>
						<path class="beast-crown-12-st-7" d="M385.1,348.8c-0.2-0.4-0.1-0.9,0.4-1.2c0.4-0.2,1,0,1.2,0.4c0.2,0.4,0,1-0.4,1.2
							C385.8,349.4,385.3,349.2,385.1,348.8z"/>
					</g>
					<g>
						<path class="beast-crown-12-st-7" d="M383.2,347.5c-0.2-0.4-0.1-0.9,0.3-1.2c0.4-0.2,0.9-0.1,1.2,0.3c0.2,0.4,0.1,1-0.3,1.2
							C383.9,348.1,383.4,347.9,383.2,347.5z"/>
					</g>
				</g>
			</g>
		</g>
	</g>
	<g>
		<g>
			<path class="beast-crown-12-st-3" d="M58.8,463.6c-0.4-6.8,2.3-13.3,4.7-19.6c2.5-6.6,5.4-13.1,8.6-19.5c0.3-0.6-0.6-1.1-0.9-0.5
				c-3.2,6.4-6.2,13-8.7,19.7c-2.4,6.4-5.1,12.9-4.7,19.9C57.8,464.2,58.9,464.3,58.8,463.6L58.8,463.6z"/>
		</g>
	</g>
	<g>
		<g>
			<path class="beast-crown-12-st-3" d="M89.7,436.1c0.7,0,0.7-1,0-1C89,435.1,89,436.1,89.7,436.1L89.7,436.1z"/>
		</g>
	</g>
	<g>
		<g>
			<path class="beast-crown-12-st-3" d="M99,454.1c0.7,0,0.7-1,0-1C98.3,453.1,98.3,454.1,99,454.1L99,454.1z"/>
		</g>
	</g>
	<g>
		<g>
			<path class="beast-crown-12-st-3" d="M79.7,463.4c4,0,8,0,12,0c0.7,0,0.7-1,0-1c-4,0-8,0-12,0C79,462.4,79,463.4,79.7,463.4L79.7,463.4z"/>
		</g>
	</g>
	<g>
		<g>
			<path class="beast-crown-12-st-3" d="M164.2,444.2c0-0.2,0-0.4,0-0.7c0-0.7-1-0.7-1,0c0,0.2,0,0.4,0,0.7C163.1,444.9,164.2,444.9,164.2,444.2
				L164.2,444.2z"/>
		</g>
	</g>
	<g>
		<g>
			<path class="beast-crown-12-st-3" d="M219,438.1c1.3,0,2.7,0,4,0c0.7,0,0.7-1,0-1c-1.3,0-2.7,0-4,0C218.3,437.1,218.3,438.1,219,438.1L219,438.1z
				"/>
		</g>
	</g>
	<g>
		<g>
			<path class="beast-crown-12-st-3" d="M256.3,444.1c0.7,0,0.7-1,0-1C255.6,443.1,255.6,444.1,256.3,444.1L256.3,444.1z"/>
		</g>
	</g>
	<g>
		<path class="beast-crown-12-st-3" d="M172,394.7c0,0-7.6-0.3-10.9-9.1C161.1,385.6,164.1,393.4,172,394.7z"/>
		<path class="beast-crown-12-st-3" d="M173.2,396c0,0-6.5-4-5.1-13.2C168.1,382.8,167,391.1,173.2,396z"/>
		<circle class="beast-crown-12-st-8" cx="173" cy="396.2" r="3.3"/>
	</g>
	<g>
		<path class="beast-crown-12-st-3" d="M189.6,483.8c0,0-3.9-0.2-5.5-4.6C184.1,479.2,185.6,483.2,189.6,483.8z"/>
		<path class="beast-crown-12-st-3" d="M190.2,484.5c0,0-3.3-2-2.6-6.7C187.7,477.8,187.1,482,190.2,484.5z"/>
		<circle class="beast-crown-12-st-8" cx="190.1" cy="484.6" r="1.7"/>
	</g>
	<g>
		<path class="beast-crown-12-st-3" d="M310.9,406.9c-0.3,0.1-0.4,0.1-0.4,0.1c-0.1,0-0.1-0.1-0.1-0.1c0-0.1,0-0.2,0.2-0.2l2-0.5
			c0.1,0,0.2,0,0.3,0.1c0,0.1,0,0.2-0.2,0.2l-0.9,0.2l1,3.7l2.1-0.6l-0.2-1.3c0-0.1,0-0.2,0.1-0.2c0.1,0,0.2,0,0.2,0.1l0.3,1.4
			c0,0.2,0,0.3-0.1,0.3l-3.5,0.9c-0.1,0-0.2,0-0.3-0.1c0-0.1,0-0.2,0.2-0.2l0.7-0.2l-1-3.6L310.9,406.9z"/>
		<path class="beast-crown-12-st-3" d="M318.3,405c0.5,0.3,0.9,0.9,1.1,1.6c0.4,1.3-0.2,2.5-1.4,2.8c-1.1,0.3-2.2-0.4-2.6-1.8
			c-0.2-0.8-0.1-1.6,0.4-2.2c0.2-0.3,0.6-0.5,0.9-0.6C317.3,404.7,317.8,404.7,318.3,405z M315.8,407.5c0.3,1.2,1.2,1.8,2.1,1.5
			c0.9-0.2,1.3-1.2,1-2.3c-0.2-0.8-0.7-1.4-1.4-1.5c-0.2,0-0.5,0-0.7,0C316,405.4,315.5,406.3,315.8,407.5z"/>
		<path class="beast-crown-12-st-3" d="M319.6,404.5c-0.1,0-0.2,0-0.3-0.1c0-0.1,0-0.2,0.2-0.2l1.2-0.3c0.1,0,0.2,0,0.3,0.1c0,0.1,0,0.2-0.2,0.2
			l-0.7,0.2l2.4,3.4l0.4-4.1l-0.7,0.2c-0.1,0-0.2,0-0.3-0.1s0-0.2,0.2-0.2l1.2-0.3c0.1,0,0.2,0,0.3,0.1s0,0.2-0.2,0.2l-0.1,0
			l-0.5,4.3c0,0.1,0,0.1-0.1,0.2l0,0l0,0l-0.1,0l-0.1,0l0,0l0,0l0,0l0,0l0,0l0,0c0,0,0,0,0,0l0,0l0,0c0,0,0,0,0,0c0,0,0,0,0,0
			c-0.1,0-0.1,0-0.2-0.1l-2.6-3.5L319.6,404.5z"/>
		<path class="beast-crown-12-st-3" d="M324.4,403.3c-0.1,0-0.2,0-0.3-0.1c0-0.1,0-0.2,0.2-0.2l2.8-0.8c0.2,0,0.2,0,0.3,0.1l0.4,1l0,0
			c0,0.1,0,0.2-0.1,0.2c-0.1,0-0.1,0-0.2-0.1l-0.4-0.8l-1.8,0.5l0.4,1.6l1-0.3l-0.1-0.4c0-0.1,0-0.2,0.1-0.2c0.1,0,0.2,0,0.2,0.2
			l0.3,1.1c0,0.1,0,0.2-0.1,0.2s-0.2,0-0.2-0.2l-0.1-0.4l-1,0.3l0.5,1.8l1.9-0.5l0-0.7c0-0.1,0-0.2,0.1-0.2c0.1,0,0.2,0,0.2,0.1l0,0
			l0.1,0.8c0,0.1,0,0.2-0.1,0.2l-3,0.8c-0.1,0-0.2,0-0.3-0.1c0-0.1,0-0.2,0.2-0.2l0.5-0.1l-1-3.6L324.4,403.3z"/>
		<path class="beast-crown-12-st-3" d="M337.1,403.8c-0.3,0.4-0.6,0.6-1,0.7c-0.7,0.2-1.4-0.1-1.6-0.8c-0.1-0.3,0-0.7,0.2-1.1
			c0.1-0.1,0.1-0.2,0.3-0.4c-0.4-0.3-0.6-0.5-0.7-0.8c-0.1-0.5,0.2-1,0.8-1.2c0.2-0.1,0.5-0.1,0.7,0c0.1,0,0.2,0,0.3,0.1l0.1-0.1
			c0,0,0,0,0.1,0c0.1,0,0.2,0,0.2,0.1c0,0,0,0.1,0,0.1l-0.1,0.3c0,0,0,0-0.1,0c0,0-0.1,0-0.1,0l0,0c-0.2-0.1-0.5-0.2-0.8-0.1
			c-0.4,0.1-0.7,0.4-0.6,0.7c0,0.1,0.1,0.3,0.3,0.4l1.9,1.4c0.1-0.3,0.1-0.5,0.1-1c0-0.1,0-0.2,0.1-0.2l0.2-0.1c0.1,0,0.2,0,0.2,0.1
			c0,0.1,0,0.2-0.1,0.2l0,0c0,0.5,0,0.7-0.1,1.1l0.3,0.3l0.2,0c0.1,0,0.2,0,0.2,0.1c0,0.1,0,0.2-0.1,0.2l-0.3,0.1
			c-0.1,0-0.2,0-0.4-0.2l0,0C337.2,403.8,337.2,403.8,337.1,403.8L337.1,403.8z M335.4,402.5c-0.2,0.2-0.2,0.2-0.3,0.4
			c-0.1,0.2-0.2,0.5-0.1,0.7c0.1,0.4,0.6,0.7,1.1,0.5c0.3-0.1,0.5-0.2,0.7-0.6L335.4,402.5z"/>
		<path class="beast-crown-12-st-3" d="M345.2,397.7c-0.1,0-0.2,0-0.3-0.1c0-0.1,0-0.2,0.2-0.2l1.1-0.3c0.1,0,0.2,0,0.3,0.1c0,0.1,0,0.2-0.2,0.2
			l-0.3,0.1l1,3.7l0.3-0.1c0.1,0,0.2,0,0.3,0.1c0,0.1,0,0.2-0.2,0.2l-1.1,0.3c-0.1,0-0.2,0-0.3-0.1c0-0.1,0-0.2,0.2-0.2l0.4-0.1
			l-0.5-1.8l-2.1,0.5l0.5,1.8l0.4-0.1c0.1,0,0.2,0,0.3,0.1c0,0.1,0,0.2-0.2,0.2l-1.1,0.3c-0.1,0-0.2,0-0.3-0.1c0-0.1,0-0.2,0.2-0.2
			l0.3-0.1l-1-3.7l-0.3,0.1c-0.1,0-0.2,0-0.3-0.1c0-0.1,0-0.2,0.2-0.2l1.1-0.3c0.1,0,0.2,0,0.3,0.1c0,0.1,0,0.2-0.2,0.2l-0.4,0.1
			l0.4,1.6l2.1-0.5l-0.4-1.6L345.2,397.7z"/>
		<path class="beast-crown-12-st-3" d="M347.9,397c-0.1,0-0.2,0-0.3-0.1c0-0.1,0-0.2,0.2-0.2l1.5-0.4c0,0,0.1,0,0.1,0l2.5,3.5l0.1,0
			c0.1,0,0.2,0,0.3,0.1c0,0.1,0,0.2-0.2,0.2l-1.1,0.3c-0.1,0-0.2,0-0.3-0.1s0-0.2,0.2-0.2l0.6-0.2l-0.7-1l-2,0.5l-0.1,1.2l0.6-0.2
			c0.1,0,0.2,0,0.3,0.1c0,0.1,0,0.2-0.2,0.2l-1.1,0.3c-0.1,0-0.2,0-0.3-0.1c0-0.1,0-0.2,0.2-0.2l0.2,0l0.4-4L347.9,397z
			 M348.9,399.1l1.8-0.5l-1.5-2l-0.1,0L348.9,399.1z"/>
		<path class="beast-crown-12-st-3" d="M352.5,395.7c-0.1,0-0.2,0-0.3-0.1s0-0.2,0.2-0.2l1.5-0.4c0,0,0.1,0,0.1,0l2.5,3.5l0.1,0c0.1,0,0.2,0,0.3,0.1
			c0,0.1,0,0.2-0.2,0.2l-1.1,0.3c-0.1,0-0.2,0-0.3-0.1c0-0.1,0-0.2,0.2-0.2l0.6-0.2l-0.7-1l-2,0.5l-0.1,1.2l0.6-0.2
			c0.1,0,0.2,0,0.3,0.1c0,0.1,0,0.2-0.2,0.2l-1.1,0.3c-0.1,0-0.2,0-0.3-0.1c0-0.1,0-0.2,0.2-0.2l0.2,0l0.4-4L352.5,395.7z
			 M353.5,397.9l1.8-0.5l-1.5-2l-0.1,0L353.5,397.9z"/>
		<path class="beast-crown-12-st-3" d="M357.1,394.5c-0.1,0-0.2,0-0.3-0.1c0-0.1,0-0.2,0.2-0.2l1.5-0.4c0,0,0.1,0,0.1,0l2.5,3.5l0.1,0
			c0.1,0,0.2,0,0.3,0.1c0,0.1,0,0.2-0.2,0.2l-1.1,0.3c-0.1,0-0.2,0-0.3-0.1c0-0.1,0-0.2,0.2-0.2l0.6-0.2l-0.7-1l-2,0.5l-0.1,1.2
			l0.6-0.2c0.1,0,0.2,0,0.3,0.1c0,0.1,0,0.2-0.2,0.2l-1.1,0.3c-0.1,0-0.2,0-0.3-0.1c0-0.1,0-0.2,0.2-0.2l0.2,0l0.4-4L357.1,394.5z
			 M358.1,396.7l1.8-0.5l-1.5-2l-0.1,0L358.1,396.7z"/>
		<path class="beast-crown-12-st-3" d="M361.8,393.3c-0.1,0-0.2,0-0.3-0.1c0-0.1,0-0.2,0.2-0.2l1.5-0.4c0,0,0.1,0,0.1,0l2.5,3.5l0.1,0
			c0.1,0,0.2,0,0.3,0.1c0,0.1,0,0.2-0.2,0.2l-1.1,0.3c-0.1,0-0.2,0-0.3-0.1c0-0.1,0-0.2,0.2-0.2l0.6-0.2l-0.7-1l-2,0.5l-0.1,1.2
			l0.6-0.2c0.1,0,0.2,0,0.3,0.1c0,0.1,0,0.2-0.2,0.2l-1.1,0.3c-0.1,0-0.2,0-0.3-0.1c0-0.1,0-0.2,0.2-0.2l0.2,0l0.4-4L361.8,393.3z
			 M362.8,395.4l1.8-0.5l-1.5-2l-0.1,0L362.8,395.4z"/>
		<path class="beast-crown-12-st-3" d="M366.4,393.3c0,0.2,0,0.3-0.1,0.3c-0.1,0-0.2,0-0.3-0.2l-0.3-1.4c0-0.1,0-0.2,0.2-0.2l3.4-0.9
			c0.1,0,0.2,0,0.2,0.2l0.4,1.3c0,0.1,0,0.3-0.1,0.3c-0.1,0-0.2,0-0.2-0.2l-0.4-1.2l-1.3,0.3l1,3.7l0.8-0.2c0.1,0,0.2,0,0.3,0.1
			c0,0.1,0,0.2-0.2,0.2l-2.1,0.6c-0.1,0-0.2,0-0.3-0.1c0-0.1,0-0.2,0.2-0.2l0.8-0.2l-1-3.7l-1.3,0.3L366.4,393.3z"/>
		<path class="beast-crown-12-st-3" d="M370.5,390.9c-0.1,0-0.2,0-0.3-0.1c0-0.1,0-0.2,0.2-0.2l2.8-0.8c0.2,0,0.2,0,0.3,0.1l0.4,1l0,0
			c0,0.1,0,0.2-0.1,0.2c-0.1,0-0.1,0-0.2-0.1l-0.4-0.8l-1.8,0.5l0.4,1.6l1-0.3l-0.1-0.4c0-0.1,0-0.2,0.1-0.2c0.1,0,0.2,0,0.2,0.2
			l0.3,1.1c0,0.1,0,0.2-0.1,0.2c-0.1,0-0.2,0-0.2-0.2l-0.1-0.4l-1,0.3l0.5,1.8l1.9-0.5l0-0.7c0-0.1,0-0.2,0.1-0.2
			c0.1,0,0.2,0,0.2,0.1l0,0l0.1,0.8c0,0.1,0,0.2-0.1,0.2l-3,0.8c-0.1,0-0.2,0-0.3-0.1c0-0.1,0-0.2,0.2-0.2l0.5-0.1l-1-3.6
			L370.5,390.9z"/>
	</g>
	<g>
		<g>
			<path class="beast-crown-12-st-9" d="M268.8,454.7c-3-0.3-2.9-8.8-3.6-11.6c-0.6-2.3-1.6-4.9-3.7-6.3c-2.8-2-6.8-2.3-10.1-2.6
				c-1.7-0.1-3.4-0.2-5.1-0.1c-2.3,0.2-3.3,1.2-4.5-1.4c-1.7-3.8-1.3-9.1-1.4-13.2c-0.1-2.7,0.1-5.9-1.8-8.1
				c-1.6-1.9-3.6-1.8-5.8-2.2c-1.7-0.3,0,2.3-2.6-0.9c-0.3-0.4-0.6-1.3-0.8-1.8c-0.9-2.1-1.5-4.4-2.6-6.4c-0.3-0.6-1.2-0.1-0.9,0.5
				c1.4,2.6,1.8,8,4.2,9.7c2.8,1.9,5.4-1.2,7.8,2.8c2.6,4.2,1.4,11.3,2.2,16.2c0.3,1.7,0.5,5.4,2,6.6c1.6,1.2,3.7-0.5,5.5-0.6
				c4.8-0.5,12.9,0.6,15.4,5.1c2.2,4,1.8,8.7,2.4,13c0.4,2.6,0.9,2.4,3.4,2.6C269.5,455.8,269.5,454.8,268.8,454.7L268.8,454.7z"/>
		</g>
	</g>
</g>
</svg>
