<?xml version="1.0" encoding="utf-8"?>
<!-- Generator: Adobe Illustrator 19.1.0, SVG Export Plug-In . SVG Version: 6.00 Build 0)  -->
<svg version="1.1" id="Layer_1" xmlns="http://www.w3.org/2000/svg" xmlns:xlink="http://www.w3.org/1999/xlink" x="0px" y="0px"
	 viewBox="-65 292 480 210"  width="480" height="210" style="enable-background:new -65 292 480 210;" xml:space="preserve">
<style type="text/css">
	.beast-crown-15-st-0{display:none;}
	.beast-crown-15-st-1{display:inline;fill:#0E5941;}
	.beast-crown-15-st-2{fill:#FCDCA4;}
	.beast-crown-15-st-3{fill:#0B3746;}
	.beast-crown-15-st-4{fill:#75A08A;}
</style>
<g id="Layer_1_1_" class="beast-crown-15-st-0">
	<path class="beast-crown-15-st-1" d="M263,1041.4c0,84.3-68.3,152.6-152.6,152.6h-0.7C25.3,1194-43,1125.7-43,1041.4V817.6
		C-43,733.3,25.3,665,109.6,665h0.7c84.3,0,152.6,68.3,152.6,152.6L263,1041.4L263,1041.4z"/>
</g>
<g>
	<path class="beast-crown-15-st-2" d="M74.3,405.2c-3.4-2.5-6.4-4.5-8.5-8.3c-2.3-4.3-1.9-10.6-2.2-15.3c-0.7-11-0.7-22.1-1.3-33.2
		c-0.1-1.6-2.5-2.1-2.9-0.4c-2.1,8.4-4,16.8-5.6,25.3c-1.2,6.7-3.2,13.3-4,20.1c-1.7,13.1,7.6,20.7,17.3,27.7
		c0.1,0.5,0.4,0.9,1.1,1.1c3.9,0.8,9.1-3,11-6.2C81.9,411.4,78,407.9,74.3,405.2z"/>
	<path class="beast-crown-15-st-3" d="M79.2,407.1c-0.6-0.3-1.1,0.5-0.5,0.9c2,1.2,2.6,3.9,2.7,6.1c0,2.6-2.1,4.6-3.9,6.2c-2.8,2.5-8.5,5.8-11.5,2
		c-0.4-0.5-1.1,0.2-0.7,0.7c3.5,4.3,9.7,0.8,13-2c2.4-2.1,4.2-4.4,4.2-7.7C82.3,411.1,81.2,408.3,79.2,407.1z"/>
	<path class="beast-crown-15-st-3" d="M79.7,405.6c-0.6-0.2-0.9,0.7-0.3,1c2.9,1.1,4.1,4.8,4,7.6c-0.1,3.3-2.8,6.5-5.1,8.6c-2,1.9-4.9,3.1-7.6,3.7
		c-1.5,0.3-2.9,0.3-4.3-0.3c-0.8-0.3-1.4-0.9-2-1.5c-0.4-0.4-1.8-2.8-0.1-2.9c0.6,0,0.6-1,0-1c-3.4,0.1-1.1,4.5,0.5,5.5
		c3.7,2.4,7.9,1,11.5-1c3.7-2,7.4-6.2,7.9-10.4C84.8,411.5,83.3,407,79.7,405.6z"/>
	<path class="beast-crown-15-st-3" d="M86.8,408.6c-0.9-1.6-4-6.3-6-3.3c-0.1,0.2-0.1,0.6,0.2,0.7c6.9,3.7,4.3,14.4-1.1,18.3
		c-2.9,2.2-6.9,3.4-10.5,3.5c-2.5,0.1-7.7-1.1-7-4.5c0.1-0.6-0.8-0.9-1-0.3c-0.7,3.2,2.5,4.8,5.2,5.5c4.4,1.2,9.5-0.7,13.3-3
		c6.4-3.9,9.2-15.6,2.2-20c1.6-0.7,4.7,5.1,4.9,6.2c1.2,5.4-0.2,10.9-4.8,14.3c-3.1,2.3-7.3,3.2-11.1,4.1c-2.4,0.6-4,0.1-6.1-0.8
		c-1.4-0.5-2.9-1-3.8-2.3c-0.4-0.6-0.6-1.1-1.1-1.7c-0.4-0.5-1.1,0.2-0.7,0.7c0.8,0.9,1,2,2,2.7c1,0.7,2.1,1.2,3.3,1.6
		c2.9,1.1,4.5,1.3,7.5,0.5c5.5-1.4,10.8-2.9,14.1-7.8C89.1,419,89.2,412.7,86.8,408.6z"/>
	<path class="beast-crown-15-st-3" d="M61.5,429.6c-0.8-0.6-1.6-1.2-2-2.1c-0.3-0.6-1.1-0.1-0.9,0.5c0.5,1,1.4,1.6,2.2,2.3
		C61.3,430.8,62,430.1,61.5,429.6z"/>
	<path class="beast-crown-15-st-3" d="M75.4,431.4c-1.6,0.5-3,0.3-4.6,0.2c-1.8-0.1-3.5,0.3-5.3-0.3c-0.6-0.2-0.9,0.7-0.3,1c1.8,0.7,3.7,0.3,5.6,0.4
		c1.7,0,3.1,0.3,4.8-0.2C76.3,432.2,76.1,431.2,75.4,431.4z"/>
	<path class="beast-crown-15-st-3" d="M82.1,428.8c-1.2,0.6-2.6,1-3.7,2c-0.5,0.4,0.2,1.1,0.7,0.7c0.9-0.9,2.3-1.3,3.5-1.8
		C83.2,429.4,82.7,428.5,82.1,428.8z"/>
	<path class="beast-crown-15-st-3" d="M85.9,424.7c-0.8,0.8-1.7,1.5-2.3,2.3c-0.4,0.5,0.3,1.2,0.7,0.7c0.7-0.9,1.6-1.6,2.3-2.3
		C87.1,425,86.4,424.3,85.9,424.7z"/>
	<path class="beast-crown-15-st-3" d="M89.7,412.9c-0.5,3-0.6,6-2,8.8c-0.3,0.6,0.6,1.1,0.9,0.5c1.4-2.9,1.6-5.9,2.1-9
		C90.8,412.5,89.8,412.3,89.7,412.9z"/>
	<path class="beast-crown-15-st-3" d="M85.6,404c-0.4-0.5-1.1,0.2-0.7,0.7c1.3,1.4,3.2,2.8,3.3,4.9c0,0.6,1,0.6,1,0C89.1,407.1,87.2,405.6,85.6,404z
		"/>
	<path class="beast-crown-15-st-3" d="M87.8,403.4c-0.2-0.3-0.5-0.7-0.7-1c-0.4-0.5-1.1,0.2-0.7,0.7c0.2,0.2,0.4,0.5,0.6,0.8
		C87.3,404.5,88.2,404,87.8,403.4z"/>
	<path class="beast-crown-15-st-3" d="M75.8,415.1c-1.2-0.4-2.4-0.5-3.6-0.4c0.1-1.4,0-2.8-0.1-4.2c0-0.3-0.3-0.6-0.6-0.5c-1.5,0.3-3,0.5-4.5,0.5
		c0.1-1.9,0.2-4.3-1.3-5.4c-0.4-0.3-1.5-0.7-2.9-1c0.3-1.2,0.7-2.7,0.3-3.9c-0.3-0.9-1.7-1.2-2.4-1.4c-0.9-0.3-1.7-0.6-2.5-0.9
		c1.2-1.6,2.4-3.3,2.1-5.1c-0.2-1-0.7-1.7-1.4-2.3c1-1.4,2-2.9,1.7-4.7c-0.2-1.2-1.1-2.4-1.9-3.5c1.5-1.7,3.4-3.8,2.7-5.7
		c-0.4-1.2-1.1-2-1.9-2.8c0.7-1.1,1.3-2.3,1.3-3.7c0-1.1-0.6-1.9-1.2-2.7c1.8-1.9,2-3.8,1.3-5.8c0.5-0.8,0.8-1.6,0.7-2.6
		c0-0.8-0.5-1.6-0.8-2.3c-0.8-1.7-0.2-2.9,0.3-4.6c0.2-0.6-0.8-0.9-1-0.3c-0.5,1.8-1.2,2.6-0.5,4.5c0.5,1.5,1.2,2.6,0.8,4
		c-0.3-0.7-0.8-1.3-1.2-1.9c-0.4-0.5-1.3,0-0.9,0.5c0.6,0.8,1.2,1.6,1.6,2.5c-0.5,0.8-1.3,1.5-1.8,2.4c-0.7,1.1-0.5,2.1,0,3.2
		c0.1,0.1,0.1,0.2,0.2,0.4c-0.2,0.2-0.5,0.5-0.7,0.7c-1,1-1.4,2.3-0.9,3.7c0.3,0.9,0.9,1.6,1.6,2.2c-0.2,0.3-0.4,0.6-0.6,0.9
		c-0.7,1.1-2.2,2.3-2.2,3.7c0,1.3,1.2,2.6,2,3.7c-0.2,0.2-0.4,0.4-0.5,0.6c-0.9,1.1-1.9,2.4-2.1,3.8c-0.1,1.5,1.8,3,2.8,3.9
		c-1.3,1.9-2.8,3.8-3.8,5.9c-0.1,0.3,0,0.6,0.3,0.7c0.9,0.3,1.7,0.7,2.5,1.1c-0.8,1.3-1.6,2.7-1.8,4.2c0,0.2,0.2,0.4,0.4,0.5
		c2.1,0.4,4.4,0.9,6.6,1.5c0,0.1,0,0.2-0.1,0.3c-0.4,1.9-0.8,3.9-1.1,5.8c0,0.3,0.1,0.6,0.5,0.6c1.6,0.1,3.3,0.2,4.9,0.2
		c0,0.4,0,0.7,0,1c0,0.8,0.1,2.9,1.2,3c1.3,0.2,2.6,0.2,4,0.1c-0.1,1-0.3,2.1-0.5,3.1c-0.2,0.6,0.8,0.9,1,0.3
		c0.3-1.1,0.5-2.2,0.6-3.3c1.2,0,2.3,0.1,3.4,0.5C76.2,416.3,76.4,415.3,75.8,415.1z M59.7,363.4c0.2-0.3,0.4-0.6,0.7-0.8
		c0.1,0.5,0.1,1,0,1.6c-0.1,0.9-0.6,1.6-1.2,2.3C58.7,365.7,58.6,364.8,59.7,363.4z M57.6,370c0.1-0.6,0.7-1.3,1.3-1.8
		c0.6,0.9,1.2,1.7,0.9,3c-0.1,0.6-0.5,1.3-0.8,1.9C58.1,372.3,57.4,371.4,57.6,370z M57.9,381.1c-0.7-0.9-1.7-2-1.1-3.2
		c0.4-0.9,1.3-1.6,1.8-2.5c0.1-0.2,0.3-0.5,0.5-0.7c0.4,0.4,0.8,0.8,1.2,1.3c1.2,1.7-0.6,3.9-2,5.5C58.1,381.3,58,381.2,57.9,381.1z
		 M56.2,387.4c-0.7-1.1,0.8-2.7,1.3-3.5c0.2-0.2,0.4-0.5,0.6-0.8c0.3,0.5,0.7,1.1,1,1.6c1.1,1.7,0.4,3.1-0.5,4.6
		c-0.1,0.2-0.2,0.3-0.3,0.4C57.5,389,56.8,388.3,56.2,387.4z M58.4,391.3c1,1,1.3,2,0.4,3.8c-0.4,0.8-1,1.6-1.5,2.4
		c-0.8-0.3-1.5-0.6-2.3-0.9C55.9,394.7,57.2,393,58.4,391.3z M56.1,401.6c0.2-0.9,0.9-1.9,1.6-2.8c0.3,0.1,0.6,0.3,0.9,0.4
		c0.9,0.4,3.8,0.6,3.9,1.8c0.1,0.9-0.1,1.9-0.4,2.8C59.2,403,55.9,402.2,56.1,401.6z M61.8,410.3c0.3-1.8,0.6-3.7,1-5.5
		c0.7,0.2,1.4,0.5,2.1,0.8c1.3,0.6,1.3,2.9,1.2,4.8C64.7,410.5,63.2,410.4,61.8,410.3z M70.4,414.8c-2.7,0.2-3.4-0.4-3.4-3
		c0-0.1,0-0.2,0-0.3c1.4,0,2.8-0.1,4.2-0.4c0.1,1.2,0.1,2.5,0,3.7C71,414.8,70.7,414.8,70.4,414.8z"/>
	<path class="beast-crown-15-st-2" d="M270.9,416.1c1.9,3.2,7.1,7,11,6.2c0.7-0.1,1-0.6,1.1-1.1c9.7-7,19-14.6,17.3-27.7c-0.9-6.8-2.8-13.4-4-20.1
		c-1.5-8.5-3.5-16.9-5.6-25.3c-0.4-1.7-2.9-1.2-2.9,0.4c-0.5,11-0.6,22.1-1.3,33.2c-0.3,4.7,0.1,11-2.2,15.3
		c-2.1,3.8-5.1,5.8-8.5,8.3C272,407.9,268.1,411.4,270.9,416.1z"/>
	<path class="beast-crown-15-st-3" d="M270.8,407.1c0.6-0.3,1.1,0.5,0.5,0.9c-2,1.2-2.6,3.9-2.7,6.1c0,2.6,2.1,4.6,3.9,6.2c2.8,2.5,8.5,5.8,11.5,2
		c0.4-0.5,1.1,0.2,0.7,0.7c-3.5,4.3-9.7,0.8-13-2c-2.4-2.1-4.2-4.4-4.2-7.7C267.7,411.1,268.8,408.3,270.8,407.1z"/>
	<path class="beast-crown-15-st-3" d="M270.3,405.6c0.6-0.2,0.9,0.7,0.3,1c-2.9,1.1-4.1,4.8-4,7.6c0.1,3.3,2.8,6.5,5.1,8.6c2,1.9,4.9,3.1,7.6,3.7
		c1.5,0.3,2.9,0.3,4.3-0.3c0.8-0.3,1.4-0.9,2-1.5c0.4-0.4,1.8-2.8,0.1-2.9c-0.6,0-0.6-1,0-1c3.4,0.1,1.1,4.5-0.5,5.5
		c-3.7,2.4-7.9,1-11.5-1c-3.7-2-7.4-6.2-7.9-10.4C265.2,411.5,266.7,407,270.3,405.6z"/>
	<path class="beast-crown-15-st-3" d="M263.2,408.6c0.9-1.6,4-6.3,6-3.3c0.1,0.2,0.1,0.6-0.2,0.7c-6.9,3.7-4.3,14.4,1.1,18.3
		c2.9,2.2,6.9,3.4,10.5,3.5c2.5,0.1,7.7-1.1,7-4.5c-0.1-0.6,0.8-0.9,1-0.3c0.7,3.2-2.5,4.8-5.2,5.5c-4.4,1.2-9.5-0.7-13.3-3
		c-6.4-3.9-9.2-15.6-2.2-20c-1.6-0.7-4.7,5.1-4.9,6.2c-1.2,5.4,0.2,10.9,4.8,14.3c3.1,2.3,7.3,3.2,11.1,4.1c2.4,0.6,4,0.1,6.1-0.8
		c1.4-0.5,2.9-1,3.8-2.3c0.4-0.6,0.6-1.1,1.1-1.7c0.4-0.5,1.1,0.2,0.7,0.7c-0.8,0.9-1,2-2,2.7c-1,0.7-2.1,1.2-3.3,1.6
		c-2.9,1.1-4.5,1.3-7.5,0.5c-5.5-1.4-10.8-2.9-14.1-7.8C260.9,419,260.8,412.7,263.2,408.6z"/>
	<path class="beast-crown-15-st-3" d="M288.5,429.6c0.8-0.6,1.6-1.2,2-2.1c0.3-0.6,1.1-0.1,0.9,0.5c-0.5,1-1.4,1.6-2.2,2.3
		C288.7,430.8,288,430.1,288.5,429.6z"/>
	<path class="beast-crown-15-st-3" d="M274.6,431.4c1.6,0.5,3,0.3,4.6,0.2c1.8-0.1,3.5,0.3,5.3-0.3c0.6-0.2,0.9,0.7,0.3,1c-1.8,0.7-3.7,0.3-5.6,0.4
		c-1.7,0-3.1,0.3-4.8-0.2C273.7,432.2,273.9,431.2,274.6,431.4z"/>
	<path class="beast-crown-15-st-3" d="M267.9,428.8c1.2,0.6,2.6,1,3.7,2c0.5,0.4-0.2,1.1-0.7,0.7c-0.9-0.9-2.3-1.3-3.5-1.8
		C266.8,429.4,267.3,428.5,267.9,428.8z"/>
	<path class="beast-crown-15-st-3" d="M264.1,424.7c0.8,0.8,1.7,1.5,2.3,2.3c0.4,0.5-0.3,1.2-0.7,0.7c-0.7-0.9-1.6-1.6-2.3-2.3
		C262.9,425,263.6,424.3,264.1,424.7z"/>
	<path class="beast-crown-15-st-3" d="M260.3,412.9c0.5,3,0.6,6,2,8.8c0.3,0.6-0.6,1.1-0.9,0.5c-1.4-2.9-1.6-5.9-2.1-9
		C259.2,412.5,260.2,412.3,260.3,412.9z"/>
	<path class="beast-crown-15-st-3" d="M264.4,404c0.4-0.5,1.1,0.2,0.7,0.7c-1.3,1.4-3.2,2.8-3.3,4.9c0,0.6-1,0.6-1,0
		C260.9,407.1,262.8,405.6,264.4,404z"/>
	<path class="beast-crown-15-st-3" d="M262.2,403.4c0.2-0.3,0.5-0.7,0.7-1c0.4-0.5,1.1,0.2,0.7,0.7c-0.2,0.2-0.4,0.5-0.6,0.8
		C262.7,404.5,261.8,404,262.2,403.4z"/>
	<path class="beast-crown-15-st-3" d="M274.4,416.1c1.1-0.4,2.2-0.4,3.4-0.5c0.1,1.1,0.3,2.2,0.6,3.3c0.2,0.6,1.1,0.4,1-0.3c-0.3-1-0.4-2-0.5-3.1
		c1.3,0,2.7,0.1,4-0.1c1.1-0.2,1.2-2.2,1.2-3c0-0.3,0-0.6,0-1c1.6,0,3.3-0.1,4.9-0.2c0.4,0,0.5-0.3,0.5-0.6
		c-0.3-1.9-0.7-3.9-1.1-5.8c0-0.1,0-0.2-0.1-0.3c2.2-0.7,4.5-1.1,6.6-1.5c0.2,0,0.4-0.3,0.4-0.5c-0.2-1.6-0.9-2.9-1.8-4.2
		c0.8-0.4,1.6-0.8,2.5-1.1c0.3-0.1,0.4-0.4,0.3-0.7c-1-2.1-2.5-4-3.8-5.9c1-0.9,2.9-2.4,2.8-3.9c-0.1-1.5-1.2-2.7-2.1-3.8
		c-0.1-0.2-0.3-0.4-0.5-0.6c0.8-1,2-2.3,2-3.7c0-1.4-1.5-2.6-2.2-3.7c-0.2-0.3-0.4-0.6-0.6-0.9c0.7-0.7,1.3-1.4,1.6-2.2
		c0.4-1.4,0.1-2.6-0.9-3.7c-0.2-0.2-0.5-0.5-0.7-0.7c0.1-0.1,0.1-0.2,0.2-0.4c0.5-1.1,0.7-2.1,0-3.2c-0.6-0.8-1.3-1.5-1.8-2.4
		c0.4-0.9,1-1.7,1.6-2.5c0.4-0.5-0.5-1-0.9-0.5c-0.5,0.6-0.9,1.3-1.2,1.9c-0.4-1.4,0.2-2.5,0.8-4c0.7-1.9,0-2.7-0.5-4.5
		c-0.2-0.6-1.1-0.4-1,0.3c0.5,1.7,1.1,2.8,0.3,4.6c-0.3,0.7-0.8,1.5-0.8,2.3c0,1,0.3,1.9,0.7,2.6c-0.7,1.9-0.5,3.9,1.3,5.8
		c-0.6,0.8-1.2,1.6-1.2,2.7c0,1.4,0.6,2.5,1.3,3.7c-0.8,0.8-1.6,1.6-1.9,2.8c-0.6,1.9,1.2,4,2.7,5.7c-0.8,1.1-1.7,2.3-1.9,3.5
		c-0.3,1.8,0.7,3.3,1.7,4.7c-0.7,0.7-1.2,1.3-1.4,2.3c-0.3,1.7,0.9,3.4,2.1,5.1c-0.8,0.3-1.6,0.6-2.5,0.9c-0.7,0.2-2.1,0.6-2.4,1.4
		c-0.4,1.2,0,2.7,0.3,3.9c-1.4,0.4-2.5,0.7-2.9,1c-1.4,1.1-1.3,3.5-1.3,5.4c-1.5,0-3-0.2-4.5-0.5c-0.3-0.1-0.6,0.2-0.6,0.5
		c-0.1,1.4-0.1,2.8-0.1,4.2c-1.2,0-2.4,0-3.6,0.4C273.6,415.3,273.8,416.3,274.4,416.1z M290.8,366.5c-0.6-0.7-1.1-1.4-1.2-2.3
		c-0.1-0.6-0.1-1.1,0-1.6c0.2,0.3,0.4,0.5,0.7,0.8C291.4,364.8,291.3,365.7,290.8,366.5z M291,373.1c-0.4-0.6-0.7-1.2-0.8-1.9
		c-0.3-1.3,0.3-2.1,0.9-3c0.6,0.6,1.2,1.2,1.3,1.8C292.6,371.4,291.9,372.3,291,373.1z M291.8,381.5c-1.5-1.7-3.2-3.9-2-5.5
		c0.3-0.4,0.7-0.9,1.2-1.3c0.2,0.2,0.3,0.5,0.5,0.7c0.5,0.9,1.3,1.6,1.8,2.5c0.6,1.2-0.5,2.3-1.1,3.2
		C292,381.2,291.9,381.3,291.8,381.5z M291.8,389.8c-0.1-0.1-0.2-0.3-0.3-0.4c-0.9-1.6-1.6-3-0.5-4.6c0.3-0.5,0.7-1.1,1-1.6
		c0.2,0.3,0.4,0.5,0.6,0.8c0.6,0.8,2.1,2.4,1.3,3.5C293.2,388.3,292.5,389,291.8,389.8z M295,396.5c-0.8,0.3-1.5,0.6-2.3,0.9
		c-0.5-0.8-1.1-1.5-1.5-2.4c-0.9-1.7-0.6-2.7,0.4-3.8C292.8,393,294.1,394.7,295,396.5z M288,403.8c-0.2-0.9-0.5-1.9-0.4-2.8
		c0.1-1.3,2.9-1.5,3.9-1.8c0.3-0.1,0.6-0.2,0.9-0.4c0.7,1,1.3,1.9,1.6,2.8C294.1,402.2,290.8,403,288,403.8z M283.9,410.5
		c-0.1-1.9-0.1-4.2,1.2-4.8c0.7-0.3,1.4-0.6,2.1-0.8c0.4,1.8,0.7,3.6,1,5.5C286.8,410.4,285.3,410.5,283.9,410.5z M278.8,414.8
		c-0.1-1.2,0-2.5,0-3.7c1.4,0.3,2.8,0.4,4.2,0.4c0,0.1,0,0.2,0,0.3c0,2.6-0.7,3.2-3.4,3C279.3,414.8,279,414.8,278.8,414.8z"/>
	<g>
		<path class="beast-crown-15-st-4" d="M82.9,488.4c-5,0-5,7,0,7C86.9,495.4,86.9,488.4,82.9,488.4z"/>
		<path class="beast-crown-15-st-4" d="M162.7,480.4c-0.8-0.2-1.5-0.3-2.2-0.4c1.8-0.6,3.6-1.3,5.1-2.7c3.4-3-1.6-7.9-4.9-4.9
			c-1.3,1.2-3.8,1.4-5.5,2.1c-2.5,1.1-4.5,3-4,5.9c0.5,2.7,3.7,5.2,6.2,6c0.7,0.2,1.4,0.4,2.1,0.5c-0.3,0-0.5,0.1-0.6,0.1
			c-4.5,0.3-4.5,7.3,0,7c3.1-0.2,8.1-1.9,8.6-5.6C168,484.6,166.7,481.4,162.7,480.4z"/>
		<path class="beast-crown-15-st-4" d="M165,461.6c1.4-3.4-1.3-6.9-3.8-8.8c-3.1-2.3-7.2-2-10.1,0.3c-1.5,1.2-1.2,3.7,0,4.9c1.5,1.5,3.4,1.2,4.9,0
			c-0.5,0.4-0.3,0.1,0.1,0.1c0.4,0,0.8,0.2,1.1,0.4c0.3,0.1,0.6,0.4,0.8,0.7c-0.8,0.3-1.6,0.5-2.4,0.8c-2.2,0.8-4.2,1.9-5,4.2
			c-1,2.9,1.9,5.2,4.1,6.4c3.3,1.7,6.2-2,5-4.6C162.3,465.1,163.9,464.3,165,461.6z"/>
		<path class="beast-crown-15-st-4" d="M140.9,475.4c1.2-1.1,1.7-2.7,1.9-4.4c0.9,3.6,7,3.4,6.9-0.8c-0.1-3.3-0.9-7-2.6-9.8c-1.2-1.8-2.7-2.8-4.8-3
			c-2.5-0.3-4.4,2-5.7,3.7c-1,1.4-0.6,4.2-0.5,6.1c-2.7-0.5-5.7,2.2-3.8,5.1C134,475.1,137.6,478.6,140.9,475.4z"/>
		<path class="beast-crown-15-st-4" d="M150.9,484.7c-0.8,0-1.6,0-2.4,0c0,0,0,0,0,0c-0.1-0.1-0.2-0.2-0.4-0.4c-1.2-1.8-2.1-3.8-3.5-5.6
			c-3.1-4-7.6-1.4-10.8,0.8c-3.7,2.5-0.2,8.6,3.5,6c0.8-0.6,1.7-1.1,2.6-1.6c0.8,1.2,1.5,2.8,2.2,3.9c1,1.5,2.2,3.1,4,3.7
			c1.6,0.5,3.2,0.1,4.8,0.2C155.4,492,155.3,485,150.9,484.7z"/>
		<path class="beast-crown-15-st-4" d="M133.1,459.9c2.3-1.8,3.4-5.5,4.4-8.1c0.2-0.4,0.3-0.8,0.5-1.2c0.5,1.7,2,3,4.1,2.3c5.2-1.7,9.2-6.2,5.2-11.3
			c-3.2-4-9.6-3-12.9,0.2c-2.1,2.1-2.7,5.8-3.8,8.5c-0.2,0.4-0.3,0.8-0.5,1.3c-0.7-0.3-1.5-0.3-2.2-0.1c-2,0.5-2.7,2.4-2.4,4.3
			C126.1,459.7,129.4,462.9,133.1,459.9z"/>
		<path class="beast-crown-15-st-4" d="M149.8,443.8c0.7,3.2,3.5,4.8,6.6,4.2c2.3-0.5,4.2-2.4,5.5-4.2c1.5-2.1,2-4.9,0.7-7.1c-1.7-3-5.7-3.3-8.8-2.9
			c-1.9,0.2-3.5,1.4-3.5,3.5c0,0.9,0.5,1.9,1.2,2.6C150.1,440.6,149.5,442.2,149.8,443.8z"/>
		<path class="beast-crown-15-st-4" d="M155,424c1.2-2.6,1.2-6.1-1-8.2c-2.4-2.4-5.4-2.2-8.3-0.9c-3.9,1.7-0.9,7.2,2.9,6.2c-0.1,0.3-0.4,0.6-0.7,0.8
			c-1.7,1.2-4.1,1.4-6,2.2c-2,0.9-4.2,2.6-4.1,5c0.1,3.1,2.4,4.9,4.8,6.4c3.7,2.4,7-3.2,3.9-5.7c0.5-0.2,1.1-0.3,1.6-0.4
			C151.1,428.4,153.7,426.8,155,424z"/>
		<path class="beast-crown-15-st-4" d="M153.2,431c1,1.7,3.1,2.1,4.8,1.3c1.3-0.6,2.5-1.3,3.3-2.6c0.9-1.7,0.4-3.8-1.3-4.8c-1.5-0.9-3.4-0.5-4.5,0.8
			c-0.4,0.2-0.7,0.4-1.1,0.5C152.7,427,152.3,429.4,153.2,431z"/>
		<path class="beast-crown-15-st-4" d="M120.5,457.2c1.7-0.7,2.6-2.6,3-4.3c0.2-0.9,0.3-1.9,0.4-2.8c0-0.3,0.1-0.6,0.1-1c0-0.2,0.1-0.3,0.1-0.5
			c3.2,0,4.7-4.3,2.6-6.1c2-0.2,3.7-2,3.5-3.8c3,0.6,6-1.8,6.6-4.6c0.6-2.7-0.2-5.5-0.6-8.2c-0.5-3.1-0.1-3.6,3.1-3.1
			c4.4,0.7,6.3-6,1.9-6.7c-4.5-0.7-9.9-0.6-11.6,4.5c-1,2.8-0.4,5.6,0.1,8.4c-1.3-0.7-2.9-0.9-4.4-0.3c-5.4,1.9-4.8,9.7-1.1,12.9
			c-1.8-0.2-3.5,0.2-5,1.6c-1.5,1.4-1.8,3.5-2.1,5.4c-0.1,0.5-0.1,1-0.2,1.5c-3.9-2-7.3,3.9-3.4,6.1
			C115.7,457.5,118,458.2,120.5,457.2z"/>
		<path class="beast-crown-15-st-4" d="M119.4,474.4c0.6,0.6,1,1.6,1.7,2.1c0.4,0.3,0.7,0.6,1.1,0.9c0.1,0.1,0.3,0.1,0.4,0.2c0,0,0,0,0.1,0
			c1.6,3.7,7.7,1.8,6.6-2.4c-0.5-1.8-1.5-3-3.2-3.7c-0.1-0.1-0.2-0.2-0.3-0.4c-0.1-0.1-0.2-0.2-0.2-0.3c0-0.2,0.1-0.4,0.1-0.6
			c0-0.1,0-0.2,0-0.3c0,0,0-0.1,0-0.1c0.3-1.4,0.8-2.7,1.1-4.1c0.3-1.7,0.2-4.2-1.7-5c-2.3-1-4-0.2-5.7,1.4
			c-1.6,1.5-1.2,3.4-0.1,4.6c0,0.1,0,0.1-0.1,0.2c-0.1,0.5-0.3,1-0.4,1.5c0,0.2-0.6,2.4-0.1,1.3C117.9,471.4,118.1,473,119.4,474.4z
			"/>
		<path class="beast-crown-15-st-4" d="M105.1,463.8c0.5,1.7,1.8,2.5,3.4,2.5c0,0.1,0.1,0.2,0.1,0.2c0.1,0.2,0.2,1.2,0.2,1.1c0.3,2.1,0.3,4.2,1,6.2
			c1.4,4.3,8.2,2.4,6.7-1.9c-0.8-2.4-0.6-5-1.3-7.7c-1-3.7-4-5.4-7.7-4.8C105.7,459.8,104.7,462.1,105.1,463.8z"/>
		<path class="beast-crown-15-st-4" d="M107.5,442.4c-4.5,0.2-4.5,7.2,0,7c3.6-0.2,6.5-2,7.6-5.5c0.6-1.9,0.2-3.9-0.6-5.7c0.5-0.3,1-0.6,1.5-0.9
			c3.9-2.3,0.3-8.4-3.5-6c-1.9,1.1-3.7,2.4-5.4,3.9c-1.3,1.2-1.5,3.8,0,4.9c0.8,0.6,1.3,1.1,1.3,2
			C108.3,442.3,108.2,442.3,107.5,442.4z"/>
		<path class="beast-crown-15-st-4" d="M115.1,424.9c2,1.3,4.5,2.3,6.8,1c1.8-1.1,2.4-3.3,2.2-5.3c-0.1-0.9-0.2-1.8-0.4-2.7c0-0.1,0-0.2,0-0.3
			c0,0,0,0.1,0,0.1c0,0,0-0.1,0-0.1c0-0.2-0.1-0.4-0.1-0.5c0,0.3,0.1,0.4,0.1,0.4c0.1-0.2,0.1-0.5,0.2-0.7c0.4,0,0.7,0,1.1,0.1
			c1.9,0.3,3.8-0.4,4.3-2.4c0.5-1.7-0.6-4-2.4-4.3c-2.3-0.3-5-0.7-7,0.8c-2,1.5-2.9,3.9-3.1,6.4c0,0.3,0,0.7,0.1,1
			C113.8,418.4,112,422.9,115.1,424.9z"/>
		<path class="beast-crown-15-st-4" d="M123.7,417.6c0-0.1,0-0.1,0-0.1c0,0,0,0,0,0C123.7,417.6,123.7,417.6,123.7,417.6
			C123.7,417.6,123.7,417.6,123.7,417.6z"/>
		<path class="beast-crown-15-st-4" d="M135.3,409.6c0.3,0.3,0.6,0.7,0.9,1c1.4,1.5,2.4,2.3,4.5,2.5c2.1,0.2,4.1-1.2,5.5-2.5c0,0,0.1-0.1,0.1-0.1
			c0.2,0.4,0.4,0.8,0.5,1.2c1.9,4.1,7.9,0.5,6-3.5c-1.4-3-3.7-7-7.7-5.8c-1.4,0.4-2.4,1.5-3.3,2.6c-0.2,0.3-0.4,0.6-0.7,0.8
			c-1.6-1.7-3.2-3.7-5.5-4.5c-4.2-1.5-6.2,2.5-6.3,6C129.2,410.7,133.4,411.5,135.3,409.6z"/>
		<path class="beast-crown-15-st-4" d="M168.4,394.5c-2.6,1.6-3.1,4.3-2.7,7.2c0.3,2,1.7,5,0.4,6.8c-0.4,0.6-0.6,1.2-0.6,1.7c0,0,0-0.1-0.1-0.1
			c-1-1.3-2.3-2.1-3.7-2.8c1.1-2.4,1.8-4.9,0.2-7.7c-2.1-3.8-6.2-4.6-9.8-2.4c-3.9,2.3-0.4,8.3,3.5,6c0.8-0.5,0.3,0.4-0.1,1.2
			c-0.5,1-1.2,2-1.7,3c-1,2.1-0.1,4.3,2.1,5.1c0.8,0.3,1.6,0.6,2.4,0.9c-2.7,2.9,2,7.3,5.3,4.6c1.7-1.4,3-3.6,2.8-5.7
			c1.4,1.4,4.2,1.8,5.8-0.4c1.5-2.1,1.6-4.7,1.2-7.2c-0.2-1.1-0.4-2.2-0.7-3.4c-0.1-0.4-0.2-0.7-0.2-1.1c0-0.1,0-0.1,0-0.2
			C175.4,397.5,172,392.3,168.4,394.5z"/>
		<path class="beast-crown-15-st-4" d="M134,397.2c-0.3,4,5.1,4.4,6.6,1.4c1.2,0.7,2.8,1.5,4.2,1c1.9-0.7,3-1.7,4.2-3.4c0.3-0.4,0.5-0.8,0.7-1.2
			c3.9,1.6,7.2-4.1,3.3-6.2c-2.7-1.4-5.4-1.6-7.8,0.5c-0.7,0.6-1.3,1.7-1.8,2.5c0,0.1-0.1,0.1-0.1,0.2c-1.6-1-3.1-1.8-5.1-1.4
			C135.1,391.2,134.3,394.5,134,397.2z"/>
		<path class="beast-crown-15-st-4" d="M147.7,386.3c0.4-0.4,1.9-2.2,2.5-1.4c1.5,2,3.8,2.2,5.5,0.6c0.1,0.3,0.2,0.6,0.3,0.9c1,2.5,2.5,4.6,5.3,5.5
			c1.6,0.5,2.8-0.1,3.5-1.1c1.2,2.1,4.5,2.9,6.1,0.2c1.3-2.4,1.5-4.9,0.5-7.4c-0.5-1.2-1.1-2.3-1.7-3.5c0,0.1-0.1-0.3-0.3-0.6
			c1-1.1,1.3-2.6,0.5-4c-0.9-1.5-3.3-2.4-4.8-1.3c-2.4,1.9-3.5,4.4-2.4,7.3c0.5,1.2,2.2,3.4,2.3,5c-0.4-0.6-1-1.1-1.9-1.4
			c-0.4-0.1-1-2.1-1.1-2.6c-0.6-1.6-1.2-3-2.2-4.3c-2.1-2.6-4.8-1.5-6.9,0.2c-3.3-1.5-7.1-0.3-10.1,2.8
			C139.6,384.6,144.5,389.6,147.7,386.3z"/>
		<path class="beast-crown-15-st-4" d="M108.5,400.5c-1.5,1.3-2,3.4-0.5,5c0,0,0,0.1,0,0.1c0.1,0.5,0.1,1,0.2,1.5c0.8,4.4,7.5,2.6,6.7-1.9
			c-0.1-0.5-0.2-0.9-0.2-1.3c1.1-1.4,1.7-3,1-4.9c-0.4-1.1-1.1-1.9-1.7-2.9c-0.2-0.4,0.4-0.3,0.4-0.3c2,1.3,3.9,0.3,4.7-1.4
			c1.4,2.3,5.6,2.7,6.4-0.7c0.1-0.3,0.2-0.6,0.3-0.9c1.6,0.4,3.3,0.3,4.9-0.3c1.4-0.6,2.4-1.6,2.5-3c2.2,0.5,5.1-1.3,4.6-4.3
			c-0.6-3.7-4.1-6.4-7.7-4.5c-2,1-3.2,2.8-3.7,4.8c-1.6-1.3-4.3-1.2-5.3,0.8c-0.8,1.5-1.5,3-2.1,4.6c-0.3-0.4-0.6-0.9-1.1-1.2
			c-3.7-2.5-8.4-0.5-10.2,3.3c-1,2-1,4.2,0,6.1C107.9,399.7,108.2,400.1,108.5,400.5z"/>
		<path class="beast-crown-15-st-4" d="M127.9,394.7c-3-0.1-5,2-5.8,4.7c0,0.1-0.1,0.2-0.1,0.4c-1.7-0.3-3.4,1-3.8,2.5c-0.5,1.9,0.6,3.7,2.4,4.3
			c3.3,1.2,6.3-0.1,7.6-3.3c0.2-0.5,0.4-1.1,0.5-1.6c1.5-0.4,2.6-1.9,2.6-3.4C131.4,396.2,129.8,394.8,127.9,394.7z"/>
		<path class="beast-crown-15-st-4" d="M98.4,411.1c-0.2,1.7,0.4,3.4,1.7,5c1.2,1.3,3,2.1,4.8,2.5c1.2,1.5,3.5,2.3,5.4,0.7c0.6-0.5,1.1-1.1,1.5-1.7
			c1.3-1.8,0-4.7-2.1-5.1c-1.2-0.2-2.4-0.5-3.6-0.9c-0.2-0.1-0.5-0.2-0.7-0.3c0.1-0.1,0.2-0.4,0.4-0.7c1.1-1.8,0.1-4.8-2.1-5.1
			c-0.2,0-0.7-0.1-1.1-0.1c0.4-0.8,0.9-1.5,1.2-2.4c1.5-3.6-1.5-6-4.7-6.3c-3.2-0.3-4.1,3.2-2.7,5.4c-0.7,1.2-1.2,2.5-1.3,3.9
			C95.1,408.5,96.5,410.1,98.4,411.1z"/>
		<path class="beast-crown-15-st-4" d="M91.3,437.3c0,0,0.1,0.1,0.1,0.1c0.3,0.4,0.7,0.8,1.1,1.1c1.3,1.2,2.8,1.6,4.5,1.8c1.7,0.2,3.4-0.7,4.7-1.7
			c0.9-0.7,1.8-2,2.8-2.4c3.5-1.3,2.8-6.3-0.1-6.9c0.3,0,0.7-0.1,1-0.2c0.7-0.1,1.3-0.4,1.9-0.7c2.7,3.3,8.5-0.1,5.9-3.7
			c-1.8-2.5-4.2-4.3-7.4-3.2c-1.1,0.4-1.6,0.8-2.6,0.9c0.3,0-0.4-0.2-0.6-0.5c0,0,0-0.1-0.1-0.1c1.7-3.2-2.7-7.1-5.6-4.1
			c-3.4,3.5-0.9,8,2.3,10.5c1,0.8,2.3,1.1,3.6,1.2c-0.1,0-0.2,0-0.4,0.1c-1.7,0.6-3,1.5-4.3,2.8c-0.4,0.4-0.8,0.8-1.2,1.1
			c0,0-0.1,0-0.1,0c-0.4-0.2-1-1.3-1.6-1.8c-1.1-1-2.7-1.5-4.2-1C87.6,431.6,88.4,436.6,91.3,437.3z"/>
		<path class="beast-crown-15-st-4" d="M97,449.5c0,0.2,0.1,0.4,0.1,0.6c0.1,0.7,0.5,1.3,1,1.7c-0.7,0.3-1.4,0.6-2.1,1.2c-0.8,0.6-1.4,1.4-2.1,2.1
			c-0.5,0.5-0.6,0.6-0.9,0.8c-0.2,0.1-0.2,0.1-0.3,0.1c-0.1,0-0.1,0-0.3,0c-4.5-0.1-4.5,6.9,0,7c2.5,0.1,4.6-1.2,6.4-3
			c0.4-0.4,0.9-0.9,1.3-1.4c1.4,0.9,3.2,0.9,4.5-0.4c1.3-1.3,1.5-3.7,0-4.9c-0.7-0.6-1.4-1-2.1-1.4c1.1-0.8,1.6-2.3,1.3-3.8
			c-0.4-1.8-0.7-3.6-1.3-5.3c-0.9-2.3-3.9-3.7-5.8-1.5c-0.7,0.8-1.1,1.1-2,1.6c-2-3-7.6-1.1-6.3,2.8C89.9,450.2,93.6,450.8,97,449.5
			z"/>
		<path class="beast-crown-15-st-4" d="M105.5,477.6c1.9-0.4,2.9-2.6,2.4-4.3c-0.4-1.5-1.6-2.3-3-2.5c-0.2-0.1-0.4-0.2-0.5-0.2
			c-0.2-0.1-0.5-0.3-0.7-0.5c-0.7-0.5-0.1,0-0.5-0.4c-1.4-1.1-2.7-2.2-4.4-2.8c-1.9-0.7-3.8-0.2-5.3,1.1c-1.7,1.5-1.9,4.2-1.9,6.2
			c-0.1,4.3,6.2,4.5,6.9,0.6c0.4,0.3,0.8,0.6,1.2,0.9c0.4,0.3,0.9,0.7,1.4,1C102.5,477.6,103.9,477.9,105.5,477.6z"/>
		<path class="beast-crown-15-st-4" d="M119.9,487.7c3.9,0.5,5.3-5.6,1.2-6.9c-1.4-0.4-2.7-0.5-4,0.1c-0.4,0.2-1.4,1.1-1.7,1.3
			c-0.5-0.3-1.1-0.6-1.7-0.8c-1-0.4-1.9-0.8-2.8-1.2c-5.4-2.5-7.9,1.3-9.7,6c-1.6,4.2,5.2,6,6.7,1.9c0.2-0.5,0.4-0.9,0.6-1.3
			c1.2,0.5,2.5,1,3.5,1.6c1.3,0.8,2.7,0.9,4.2,0.9c1,0,2.1-0.5,2.9-1C119.4,488.2,119.6,487.9,119.9,487.7z"/>
		<path class="beast-crown-15-st-4" d="M129,484.7c-1.6-1.6-4.4-1.2-5.5,0.7c-0.5,0.9-2,4.5-2.4,4.4c-4.4-1-6.3,5.7-1.9,6.8c4.5,1.1,6.6-1.2,8.4-4.2
			c0.7,0.4,1.5,0.7,2.4,1c2.1,0.7,4.1,0.5,5.7,2.3c3,3.4,7.9-1.6,4.9-4.9C137.4,487,132.2,488.1,129,484.7z"/>
		<path class="beast-crown-15-st-4" d="M96.5,490.5c-0.6-0.1-1.2-0.2-1.8-0.3c0.3-0.4,0.7-0.8,1-1.1c1.7-2,1.1-5.1-1.5-5.8c-2.2-0.6-4.5-1.3-6.7-2
			c-4.3-1.4-6.1,5.3-1.9,6.7c0.5,0.2,1.1,0.3,1.6,0.5c-0.7,1.3-1.1,2.7-0.8,4.1c0.9,3.5,5.1,4.1,8.1,4.7c1.9,0.3,3.8-0.5,4.3-2.4
			C99.4,493.1,98.3,490.8,96.5,490.5z"/>
		<path class="beast-crown-15-st-4" d="M87.5,475.3c1.9-3.6,2.1-7.9-2.3-9.6c-0.5-0.2-1-0.3-1.6-0.5c-0.2,0-0.4-0.1-0.5-0.1
			c-0.7-1.6-0.4-3.9,1.1-4.9c3.7-2.6,0.2-8.6-3.5-6c-4.4,3.1-6.1,8.8-3.9,13.8c0.8,1.8,1.9,3.1,3.8,3.7c0.3,0.1,0.5,0.2,0.8,0.2
			C79.6,475.9,85.5,479.3,87.5,475.3z"/>
		<path class="beast-crown-15-st-4" d="M78.2,444.9C78.2,444.9,78.2,444.9,78.2,444.9c-0.5,1.7,0.6,4,2.4,4.3c2.5,0.4,4.1,0.1,6.1-1.6
			c1.5-1.3,1.2-3.6,0-4.9c-1.2-1.4-2.8-2.4-4.3-3.5c0.2-0.1,0.4-0.3,0.5-0.4c3.7-2.6,0.2-8.6-3.5-6c-3.2,2.2-5.8,5-4.1,9.1
			C75.9,443.2,77,444.1,78.2,444.9z"/>
		<path class="beast-crown-15-st-4" d="M65.2,450.3c1.6,2.4,2.1,2.8,0.7,5.5c-2.1,4,3.9,7.5,6,3.5c1.6-3,2.9-6.1,1.2-9.4c-0.6-1.1-5-7.6-4.8-7.7
			c3.8-2.4,0.3-8.4-3.5-6c-3.4,2.1-4.7,5.6-2.8,9.3C62.9,447.2,64.1,448.7,65.2,450.3z"/>
		<path class="beast-crown-15-st-4" d="M72.6,466.8c-1.2,0.2-2.3,0.7-3.5,1.2c-0.2,0.1-0.4,0.2-0.6,0.3c-1.2-1.7-1.2-4.2-2.1-5.9
			c-3.6-7.2-14,1.8-9,6.6c1.3,1.2,2.8,1.2,4,0.6c0.7,1.7,1.7,3.3,3,4.6c3.4,3.5,6.6,0.1,10.1-0.6C78.9,472.8,77,466,72.6,466.8z"/>
		<path class="beast-crown-15-st-4" d="M79.6,479.8c-2.3-1.5-7.7-4.7-10.2-1.6c-0.3,0.4-0.6,0.8-0.9,1.2c0.4-0.8-1,0.1-1.6,0.3c-0.1,0-0.2,0-0.2,0.1
			c-0.1-0.4-0.2-0.8-0.2-1.2c-0.4-2.4-3.3-2.9-5.1-2.1c-1.1,0.5-1.9,1-2.7,1.9c-2.3,2.5,0,6,2.5,6c1.3,2,3.5,2.9,6.5,2.4
			c1.7-0.3,3.7-0.9,5.1-1.9c0.3-0.2,0.5-0.4,0.7-0.6c0.9,0.3,1.8,1,2.5,1.5C79.8,488.4,83.3,482.4,79.6,479.8z"/>
		<path class="beast-crown-15-st-4" d="M61.6,486.9c-0.4-1.5-2-2.7-3.6-2.6c-0.4-0.9-0.8-1.9-1.3-2.7c-0.9-1.7-2.5-2.8-4.4-2.9
			c1.8-0.2,2.8-1.7,3-3.5c0.2-1.6-0.2-3.1-1.1-4.4c-0.4-0.6-2.4-2.2-2.3-2.9c0.3-1.5,1.2-2.6,1-4.2c-0.2-2.2-1.6-3.6-3.4-4.8
			c-0.2-0.1-0.4-0.2-0.6-0.3c0.2-0.3,0.4-0.7,0.5-1.1c0.2-0.5,0.3-1,0.3-1.5c0-0.3-0.1-0.6-0.1-0.9c0.1-0.1,0.2-0.2,0.2-0.3
			c0,0,0-0.1,0.1-0.1c0.6,2.6,4.7,4,6.5,1.1c0.8-1.3,2.3-1.8,3.2-3c0.9-1.3,1.6-3,1.4-4.6c-0.3-2.7-4.7-7.3-2.5-9.9
			c2.9-3.4-2.1-8.4-4.9-4.9c-3.2,3.9-2.8,7.5-1.2,12.1c0.4,1.2,0.8,2.3,1.4,3.4c-0.1,0.1-0.3,0.4-1,1c-0.8,0.6-1.4,1.2-1.9,2
			c-0.1-0.6-0.4-1.2-0.9-1.7c-1.3-1.3-3.6-1.3-4.9,0c-1.3,1.3-2.4,2.7-2.9,4.5c-0.3,1-0.1,2.2,0.6,3.1c0.1,0.3,0.2,0.6,0.4,0.9
			c0.5,0.7,1.2,1.3,2,1.5c-0.8,1.4-0.9,3.4,0.6,4.7c-0.1,0.3-0.3,0.6-0.4,0.9c-0.1,0.2-0.1,0.4-0.2,0.6c-0.7-0.6-1.7-0.9-2.9-0.6
			c-5.1,1.2-6.3,6.4-4.2,10.3c-3.3,2.3,0.1,7.8,3.9,5.8c2.1-1.1,3.5-2.5,4.3-4.8c0.5-1.5-0.3-3.2-1.6-4c-0.5-0.3-0.3-0.1-0.7-0.5
			c0,0,0,0,0-0.1c0.1,0,0.1,0,0.2,0c0.7-0.2,1.3-0.5,1.7-0.9c0.4,0.7,0.8,1.4,1.4,2.1c0.9,1,1.2,0.9,1.1,1.8
			c-0.2,1.7,1.5,3.2,3.1,3.5c-1.7,0.2-3.2,1.3-4.4,2.4c-3.1,2.8,1,7.3,4.3,5.4c0.1,0.3,0.3,0.6,0.4,0.9c1.3,2.9,4.1,5.1,7.4,3.8
			C60.9,490.5,62.1,488.9,61.6,486.9z"/>
		<path class="beast-crown-15-st-4" d="M43,485.7c-1.4-1.4-3.5-1.3-4.9,0c-0.1,0.1-0.2,0.1-0.2,0.2c0.5-3.1-3.3-6.1-5.8-3.2
			c-2.8,3.3-3.6,8.7,0.1,11.6c3,2.3,5.7,0.8,8.1-1.2c0.3,0.4,0.6,0.8,0.9,1.2c2.4,3.8,8.5,0.3,6-3.5C46,488.9,44.6,487.3,43,485.7z"
			/>
		<path class="beast-crown-15-st-4" d="M73.6,489.5c-0.6,0.1-0.2,0-0.7-0.2c0.4,0.1-0.7-0.4-0.8-0.5c-0.9-0.6-1.8-1.2-2.8-1.6
			c-3.1-1-5.8,0.7-7.9,2.8c-3.2,3.2,1.8,8.2,4.9,4.9c0.3-0.3,0.6-0.7,1-0.9c0,0,0.1,0,0.1,0c0.4,0.2,0.8,0.5,1.2,0.8
			c2.1,1.4,4.4,1.8,6.9,1.4c1.9-0.3,2.9-2.6,2.4-4.3C77.3,489.9,75.5,489.2,73.6,489.5z"/>
		<path class="beast-crown-15-st-4" d="M169,456.6c3.2-2.2,4.9-5.1,4.4-9c-0.3-2-2.5-5.1-0.7-6.5c3.5-2.8-1.4-7.7-4.9-4.9c-2.6,2-3.1,4.9-2.6,8
			c0.4,2.1,2.5,4.8,0.3,6.4C161.8,453.1,165.2,459.1,169,456.6z"/>
		<path class="beast-crown-15-st-4" d="M170.4,474.9c0.9,0.1,1.8-0.2,2.6-0.9c0.7-0.6,1.4-1.2,2-1.9c0.6,0.7,1.3,1.3,2,1.9c0.8,0.7,1.7,0.9,2.6,0.9
			c3,0.3,5.8-3.4,3-5.8c-0.7-0.6-1.4-1.1-1.9-1.7c0.1-0.5,0.2-1.3,0.2-1.3c0-0.3,0-0.4,0-0.4c0,0,0.1-0.1,0.4-0.4
			c2.4-3,2.9-6.9-1.3-8.7c-0.7-0.3-1.4-0.4-2.2-0.4c-1-0.1-2,0.2-2.8,1c-0.7-0.8-1.7-1.1-2.8-1c-0.7-0.1-1.4,0.1-2.2,0.4
			c-4.1,1.8-3.7,5.7-1.3,8.7c0.2,0.3,0.3,0.4,0.4,0.4c0,0,0,0.1,0,0.4c0,0,0.1,0.8,0.2,1.3c-0.6,0.6-1.3,1.2-1.9,1.7
			C164.6,471.4,167.4,475.2,170.4,474.9z"/>
		<path class="beast-crown-15-st-4" d="M266.9,488.4c-4,0-4,7,0,7C271.9,495.4,271.9,488.4,266.9,488.4z"/>
		<path class="beast-crown-15-st-4" d="M191.1,487c-0.1,0-0.4,0-0.6-0.1c0.7-0.1,1.4-0.3,2.1-0.5c2.5-0.8,5.7-3.3,6.2-6c0.5-3-1.5-4.9-4-5.9
			c-1.7-0.7-4.1-0.9-5.5-2.1c-3.4-3-8.3,2-4.9,4.9c1.5,1.4,3.3,2,5.1,2.7c-0.7,0.2-1.4,0.2-2.2,0.4c-4,1-5.3,4.1-4.8,8
			c0.5,3.7,5.5,5.4,8.6,5.6C195.7,494.3,195.6,487.3,191.1,487z"/>
		<path class="beast-crown-15-st-4" d="M199,458c1.2-1.2,1.5-3.8,0-4.9c-2.9-2.3-7-2.7-10.1-0.3c-2.6,1.9-5.2,5.4-3.8,8.8c1.1,2.7,2.7,3.6,5.3,4.4
			c-1.3,2.6,1.7,6.3,5,4.6c2.2-1.2,5.1-3.5,4.1-6.4c-0.8-2.3-2.8-3.4-5-4.2c-0.8-0.3-1.6-0.5-2.4-0.8c0.2-0.3,0.5-0.5,0.8-0.7
			c0.3-0.2,0.7-0.4,1.1-0.4c0.4,0,0.7,0.3,0.1-0.1C195.5,459.2,197.5,459.5,199,458z"/>
		<path class="beast-crown-15-st-4" d="M213.5,461.1c-1.3-1.7-3.2-4-5.7-3.7c-2.1,0.2-3.7,1.2-4.8,3c-1.8,2.8-2.6,6.6-2.6,9.8
			c-0.1,4.2,6,4.5,6.9,0.8c0.2,1.7,0.7,3.3,1.9,4.4c3.3,3.2,6.9-0.4,8.7-3.1c1.9-2.9-1.1-5.6-3.8-5.1
			C214.1,465.3,214.5,462.5,213.5,461.1z"/>
		<path class="beast-crown-15-st-4" d="M212.7,485.6c3.8,2.5,7.3-3.5,3.5-6c-3.2-2.2-7.8-4.8-10.8-0.8c-1.4,1.7-2.2,3.8-3.5,5.6
			c-0.1,0.2-0.3,0.3-0.4,0.4c0,0,0,0,0,0c-0.8-0.1-1.6-0.1-2.4,0c-4.5,0.3-4.5,7.3,0,7c1.6-0.1,3.2,0.3,4.8-0.2c1.8-0.6,3-2.1,4-3.7
			c0.7-1.1,1.3-2.7,2.2-3.9C211,484.4,211.9,485,212.7,485.6z"/>
		<path class="beast-crown-15-st-4" d="M224.5,455.8c0.3-1.9-0.4-3.8-2.4-4.3c-0.7-0.2-1.5-0.1-2.2,0.1c-0.2-0.4-0.4-0.8-0.5-1.3
			c-1.1-2.7-1.7-6.4-3.8-8.5c-3.2-3.2-9.7-4.2-12.9-0.2c-4,5.1,0,9.6,5.2,11.3c2.1,0.7,3.7-0.6,4.1-2.3c0.2,0.4,0.3,0.8,0.5,1.2
			c1,2.6,2.1,6.2,4.4,8.1C220.6,462.9,223.9,459.7,224.5,455.8z"/>
		<path class="beast-crown-15-st-4" d="M198.5,439.8c0.7-0.7,1.2-1.7,1.2-2.6c0-2.1-1.6-3.3-3.5-3.5c-3.1-0.4-7.1-0.1-8.8,2.9
			c-1.3,2.3-0.8,5.1,0.7,7.1c1.3,1.8,3.2,3.7,5.5,4.2c3.1,0.6,5.9-1,6.6-4.2C200.5,442.2,199.9,440.6,198.5,439.8z"/>
		<path class="beast-crown-15-st-4" d="M203.3,429.8c-3.1,2.6,0.2,8.1,3.9,5.7c2.4-1.5,4.7-3.3,4.8-6.4c0.1-2.4-2.1-4.2-4.1-5
			c-1.9-0.8-4.3-1.1-6-2.2c-0.3-0.2-0.5-0.5-0.7-0.8c3.8,1,6.8-4.5,2.9-6.2c-2.9-1.3-5.9-1.5-8.3,0.9c-2.1,2.2-2.1,5.6-1,8.2
			c1.3,2.8,3.9,4.4,6.8,5.4C202.3,429.5,202.8,429.7,203.3,429.8z"/>
		<path class="beast-crown-15-st-4" d="M192,432.2c1.7,0.8,3.8,0.5,4.8-1.3c0.9-1.6,0.5-4-1.3-4.8c-0.4-0.2-0.7-0.3-1.1-0.5c-1.1-1.3-3-1.7-4.5-0.8
			c-1.7,1-2.2,3.1-1.3,4.8C189.5,430.9,190.8,431.6,192,432.2z"/>
		<path class="beast-crown-15-st-4" d="M236.6,456.2c3.9-2.2,0.5-8.1-3.4-6.1c0-0.5-0.1-1-0.2-1.5c-0.2-1.9-0.6-4-2.1-5.4c-1.4-1.4-3.1-1.8-5-1.6
			c3.7-3.2,4.2-11-1.1-12.9c-1.5-0.5-3.1-0.4-4.4,0.3c0.5-2.8,1-5.7,0.1-8.4c-1.7-5-7.1-5.2-11.6-4.5c-4.4,0.7-2.6,7.5,1.9,6.7
			c3.2-0.5,3.6-0.1,3.1,3.1c-0.4,2.6-1.2,5.5-0.6,8.2c0.7,2.8,3.6,5.2,6.6,4.6c-0.2,1.8,1.5,3.7,3.5,3.8c-2.1,1.9-0.6,6.1,2.6,6.1
			c0,0.2,0.1,0.3,0.1,0.5c0,0.3,0.1,0.6,0.1,1c0.1,0.9,0.2,1.9,0.4,2.8c0.3,1.7,1.3,3.6,3,4.3C232,458.2,234.3,457.5,236.6,456.2z"
			/>
		<path class="beast-crown-15-st-4" d="M227.3,477.6C227.3,477.6,227.4,477.6,227.3,477.6c0.2-0.1,0.3-0.2,0.5-0.2c0.4-0.3,0.7-0.6,1.1-0.9
			c0.7-0.5,1-1.5,1.7-2.1c1.4-1.4,1.5-3,0.7-4.7c0.5,1.1-0.1-1.1-0.1-1.3c-0.1-0.5-0.2-1-0.4-1.5c0-0.1,0-0.1-0.1-0.2
			c1.1-1.2,1.4-3.1-0.1-4.6c-1.7-1.6-3.4-2.4-5.7-1.4c-1.9,0.8-2,3.3-1.7,5c0.3,1.4,0.8,2.7,1.1,4.1c0,0.1,0,0.1,0,0.1
			c0,0.1,0,0.2,0,0.3c0,0.2,0.1,0.4,0.1,0.6c-0.1,0.1-0.2,0.2-0.2,0.3c-0.1,0.2-0.2,0.3-0.3,0.4c-1.6,0.8-2.6,1.9-3.2,3.7
			C219.6,479.4,225.8,481.3,227.3,477.6z"/>
		<path class="beast-crown-15-st-4" d="M240.2,473.8c0.7-2,0.7-4.2,1-6.2c0,0.1,0.2-0.9,0.2-1.1c0,0,0-0.1,0.1-0.2c1.5,0,2.9-0.8,3.4-2.5
			c0.5-1.7-0.6-4-2.4-4.3c-3.7-0.6-6.7,1.1-7.7,4.8c-0.7,2.6-0.5,5.3-1.3,7.7C232,476.2,238.8,478.1,240.2,473.8z"/>
		<path class="beast-crown-15-st-4" d="M243,440c1.5-1.2,1.3-3.8,0-4.9c-1.6-1.5-3.5-2.7-5.4-3.9c-3.9-2.3-7.4,3.7-3.5,6c0.5,0.3,1,0.6,1.5,0.9
			c-0.9,1.8-1.2,3.8-0.6,5.7c1.1,3.5,4,5.4,7.6,5.5c4.5,0.2,4.5-6.8,0-7c-0.7,0-0.8-0.1-0.8-0.3C241.7,441.1,242.2,440.6,243,440z"
			/>
		<path class="beast-crown-15-st-4" d="M233.3,417.3c-0.2-2.4-1.1-4.9-3.1-6.4c-2-1.5-4.7-1.1-7-0.8c-1.9,0.3-2.9,2.6-2.4,4.3c0.6,2,2.4,2.7,4.3,2.4
			c0.3,0,0.7-0.1,1.1-0.1c0.1,0.2,0.1,0.5,0.2,0.7c0,0,0.1-0.1,0.1-0.4c0,0.2-0.1,0.4-0.1,0.5c0,0,0,0.1,0,0.1c0-0.1,0-0.1,0-0.1
			c0,0.1,0,0.2,0,0.3c-0.2,0.9-0.3,1.8-0.4,2.7c-0.2,2,0.4,4.2,2.2,5.3c2.3,1.3,4.8,0.3,6.8-1c3.1-2,1.3-6.5-1.6-6.6
			C233.3,417.9,233.4,417.6,233.3,417.3z"/>
		<path class="beast-crown-15-st-4" d="M226.3,417.5C226.3,417.5,226.3,417.5,226.3,417.5c0,0,0,0.1,0,0.1c0,0,0,0,0,0
			C226.3,417.6,226.3,417.6,226.3,417.5z"/>
		<path class="beast-crown-15-st-4" d="M214.3,401.2c-2.3,0.8-3.9,2.8-5.5,4.5c-0.2-0.3-0.5-0.6-0.7-0.8c-0.9-1.1-1.9-2.2-3.3-2.6
			c-4-1.2-6.3,2.8-7.7,5.8c-1.8,4.1,4.2,7.6,6,3.5c0.2-0.4,0.3-0.8,0.5-1.2c0,0,0.1,0.1,0.1,0.1c1.4,1.4,3.4,2.8,5.5,2.5
			c2.1-0.2,3.2-1,4.5-2.5c0.3-0.3,0.6-0.7,0.9-1c2,1.9,6.1,1.1,6-2.4C220.5,403.7,218.5,399.7,214.3,401.2z"/>
		<path class="beast-crown-15-st-4" d="M177.4,400.3c0,0.4-0.1,0.7-0.2,1.1c-0.2,1.1-0.5,2.2-0.7,3.4c-0.4,2.5-0.3,5.1,1.2,7.2
			c1.6,2.2,4.3,1.8,5.8,0.4c-0.3,2.1,1,4.3,2.8,5.7c3.3,2.7,8-1.7,5.3-4.6c0.8-0.3,1.6-0.6,2.4-0.9c2.2-0.8,3.1-3,2.1-5.1
			c-0.5-1-1.2-2-1.7-3c-0.4-0.8-0.9-1.7-0.1-1.2c3.9,2.3,7.4-3.8,3.5-6c-3.7-2.2-7.7-1.3-9.8,2.4c-1.6,2.8-1,5.3,0.2,7.7
			c-1.4,0.7-2.7,1.5-3.7,2.8c0,0,0,0.1-0.1,0.1c0-0.6-0.2-1.1-0.6-1.7c-1.3-1.8,0.1-4.8,0.4-6.8c0.4-2.9-0.1-5.5-2.7-7.2
			c-3.6-2.2-6.9,3-4.1,5.6C177.4,400.1,177.4,400.2,177.4,400.3z"/>
		<path class="beast-crown-15-st-4" d="M206.6,391.9c-0.5-0.8-1-1.9-1.8-2.5c-2.4-2.1-5-1.9-7.8-0.5c-3.9,2-0.6,7.8,3.3,6.2c0.2,0.4,0.5,0.8,0.7,1.2
			c1.1,1.6,2.3,2.6,4.2,3.4c1.4,0.5,3-0.2,4.2-1c1.5,3,6.9,2.6,6.6-1.4c-0.2-2.7-1-6-4.2-6.5c-2-0.4-3.5,0.4-5.1,1.4
			C206.6,392,206.6,391.9,206.6,391.9z"/>
		<path class="beast-crown-15-st-4" d="M185.2,390.8c0.7,1,2,1.6,3.5,1.1c2.7-0.8,4.2-2.9,5.3-5.5c0.1-0.3,0.2-0.6,0.3-0.9c1.7,1.6,4,1.4,5.5-0.6
			c0.6-0.8,2.1,1,2.5,1.4c3.1,3.3,8.1-1.7,4.9-4.9c-3-3.1-6.8-4.4-10.1-2.8c-2.1-1.8-4.8-2.9-6.9-0.2c-1.1,1.3-1.7,2.7-2.2,4.3
			c-0.2,0.4-0.7,2.4-1.1,2.6c-0.9,0.3-1.5,0.8-1.9,1.4c0.1-1.6,1.9-3.8,2.3-5c1.1-3,0-5.5-2.4-7.3c-1.5-1.2-3.9-0.2-4.8,1.3
			c-0.8,1.4-0.5,2.9,0.5,4c-0.1,0.3-0.3,0.7-0.3,0.6c-0.6,1.1-1.2,2.3-1.7,3.5c-1,2.5-0.9,5.1,0.5,7.4
			C180.6,393.7,184,392.8,185.2,390.8z"/>
		<path class="beast-crown-15-st-4" d="M216.7,389.6c0.2,1.4,1.1,2.4,2.5,3c1.7,0.7,3.3,0.7,4.9,0.3c0.1,0.3,0.2,0.6,0.3,0.9c0.9,3.4,5.1,3,6.4,0.7
			c0.8,1.7,2.7,2.7,4.7,1.4c0,0,0.7-0.1,0.4,0.3c-0.6,1-1.3,1.8-1.7,2.9c-0.7,1.9-0.1,3.6,1,4.9c-0.1,0.4-0.2,0.8-0.2,1.3
			c-0.8,4.4,6,6.3,6.7,1.9c0.1-0.5,0.2-1,0.2-1.5c0,0,0-0.1,0-0.1c1.4-1.6,0.9-3.7-0.5-5c0.3-0.4,0.5-0.8,0.7-1.2c1-1.9,1-4.2,0-6.1
			c-1.9-3.8-6.5-5.8-10.2-3.3c-0.5,0.3-0.9,0.8-1.1,1.2c-0.5-1.6-1.3-3.1-2.1-4.6c-1.1-2.1-3.7-2.1-5.3-0.8c-0.5-2-1.7-3.8-3.7-4.8
			c-3.7-1.9-7.1,0.8-7.7,4.5C211.6,388.3,214.5,390.1,216.7,389.6z"/>
		<path class="beast-crown-15-st-4" d="M228,399.7c0-0.1-0.1-0.2-0.1-0.4c-0.8-2.7-2.8-4.8-5.8-4.7c-1.9,0.1-3.5,1.5-3.5,3.5c0,1.5,1.1,3,2.6,3.4
			c0.1,0.6,0.3,1.1,0.5,1.6c1.3,3.2,4.3,4.5,7.6,3.3c1.8-0.6,3-2.4,2.4-4.3C231.4,400.7,229.7,399.4,228,399.7z"/>
		<path class="beast-crown-15-st-4" d="M244.5,411.4c-0.2,0.1-0.4,0.2-0.7,0.3c-1.2,0.4-2.4,0.6-3.6,0.9c-2.1,0.4-3.4,3.4-2.1,5.1
			c0.5,0.6,0.9,1.2,1.5,1.7c1.9,1.5,4.3,0.7,5.4-0.7c1.8-0.5,3.6-1.2,4.8-2.5c1.4-1.6,1.9-3.3,1.7-5c1.9-1,3.3-2.6,3.1-5.1
			c-0.1-1.4-0.6-2.7-1.3-3.9c1.5-2.2,0.6-5.7-2.7-5.4c-3.3,0.3-6.2,2.7-4.7,6.3c0.3,0.8,0.8,1.6,1.2,2.4c-0.4,0.1-0.9,0.1-1.1,0.1
			c-2.2,0.4-3.2,3.4-2.1,5.1C244.3,411,244.5,411.2,244.5,411.4z"/>
		<path class="beast-crown-15-st-4" d="M252.9,433.3C252.9,433.3,252.9,433.3,252.9,433.3c-0.5-0.3-0.9-0.7-1.3-1.1c-1.3-1.2-2.6-2.1-4.3-2.8
			c-0.1,0-0.2-0.1-0.4-0.1c1.3,0,2.6-0.4,3.6-1.2c3.2-2.5,5.7-7.1,2.3-10.5c-2.9-3-7.3,1-5.6,4.1c0,0,0,0.1-0.1,0.1
			c-0.2,0.2-0.8,0.4-0.6,0.5c-1,0-1.5-0.5-2.6-0.9c-3.2-1.1-5.6,0.7-7.4,3.2c-2.6,3.6,3.2,7,5.9,3.7c0.6,0.3,1.3,0.6,1.9,0.7
			c0.3,0.1,0.7,0.1,1,0.2c-2.9,0.6-3.6,5.6-0.1,6.9c1,0.4,1.9,1.7,2.8,2.4c1.3,1,2.9,1.9,4.7,1.7c1.7-0.2,3.2-0.7,4.5-1.8
			c0.4-0.4,0.8-0.7,1.1-1.1c0,0,0.1-0.1,0.1-0.1c2.9-0.7,3.7-5.7,0-6.8c-1.5-0.5-3.1,0-4.2,1C254,432,253.3,433.1,252.9,433.3z"/>
		<path class="beast-crown-15-st-4" d="M255.2,443c-0.8-0.5-1.3-0.8-2-1.6c-1.9-2.1-5-0.8-5.8,1.5c-0.6,1.7-1,3.5-1.3,5.3c-0.3,1.5,0.2,2.9,1.3,3.8
			c-0.7,0.3-1.4,0.8-2.1,1.4c-1.5,1.2-1.3,3.7,0,4.9c1.3,1.3,3.1,1.3,4.5,0.4c0.4,0.4,0.9,0.9,1.3,1.4c1.7,1.7,3.8,3,6.4,3
			c4.5-0.1,4.5-7.1,0-7c-0.1,0-0.2,0-0.3,0c0,0-0.1-0.1-0.3-0.1c-0.2-0.2-0.4-0.3-0.9-0.8c-0.7-0.7-1.4-1.5-2.1-2.1
			c-0.7-0.5-1.4-0.9-2.1-1.2c0.5-0.4,0.9-1,1-1.7c0-0.2,0.1-0.4,0.1-0.6c3.4,1.3,7.1,0.7,8.5-3.7C262.8,441.9,257.3,440,255.2,443z"
			/>
		<path class="beast-crown-15-st-4" d="M258.3,474.2c0-2-0.2-4.8-1.9-6.2c-1.5-1.3-3.4-1.8-5.3-1.1c-1.7,0.6-3,1.7-4.4,2.8c-0.4,0.3,0.2-0.2-0.5,0.4
			c-0.2,0.2-0.4,0.3-0.7,0.5c-0.1,0.1-0.3,0.2-0.5,0.2c-1.4,0.2-2.5,1-3,2.5c-0.5,1.7,0.6,4,2.4,4.3c1.5,0.3,3,0,4.3-0.9
			c0.5-0.3,0.9-0.6,1.4-1c0.4-0.3,0.8-0.6,1.2-0.9C252.1,478.7,258.4,478.5,258.3,474.2z"/>
		<path class="beast-crown-15-st-4" d="M239.1,480.3c-0.9,0.4-1.9,0.9-2.8,1.2c-0.6,0.2-1.2,0.5-1.7,0.8c-0.4-0.2-1.3-1.1-1.7-1.3
			c-1.4-0.6-2.6-0.6-4-0.1c-4.1,1.2-2.6,7.4,1.2,6.9c0.2,0.2,0.5,0.5,0.8,0.6c0.8,0.6,1.9,1,2.9,1c1.5,0,2.9-0.1,4.2-0.9
			c1.1-0.7,2.3-1.1,3.5-1.6c0.2,0.4,0.4,0.9,0.6,1.3c1.6,4.2,8.4,2.4,6.7-1.9C247.1,481.6,244.5,477.8,239.1,480.3z"/>
		<path class="beast-crown-15-st-4" d="M228.9,489.8c-0.4,0.1-1.9-3.5-2.4-4.4c-1.1-1.9-3.9-2.3-5.5-0.7c-3.2,3.3-8.4,2.3-11.7,6
			c-3,3.4,2,8.3,4.9,4.9c1.6-1.8,3.6-1.6,5.7-2.3c0.9-0.3,1.6-0.6,2.4-1c1.8,3,3.9,5.2,8.4,4.2C235.1,495.5,233.3,488.8,228.9,489.8
			z"/>
		<path class="beast-crown-15-st-4" d="M264.4,487.9c4.3-1.4,2.4-8.2-1.9-6.7c-2.2,0.7-4.4,1.4-6.7,2c-2.7,0.8-3.3,3.9-1.5,5.8
			c0.3,0.3,0.7,0.7,1,1.1c-0.6,0.1-1.2,0.2-1.8,0.3c-1.9,0.3-2.9,2.6-2.4,4.3c0.5,2,2.4,2.8,4.3,2.4c3-0.6,7.2-1.2,8.1-4.7
			c0.4-1.5,0-2.9-0.8-4.1C263.3,488.2,263.9,488.1,264.4,487.9z"/>
		<path class="beast-crown-15-st-4" d="M273.2,468c2.1-5,0.5-10.7-3.9-13.8c-3.7-2.6-7.2,3.5-3.5,6c1.4,1,1.8,3.3,1.1,4.9c-0.1,0-0.3,0.1-0.5,0.1
			c-0.5,0.1-1.1,0.3-1.6,0.5c-4.4,1.7-4.1,5.9-2.3,9.6c2,4,7.9,0.6,6.1-3.4c0.3-0.1,0.5-0.1,0.8-0.2
			C271.2,471.1,272.4,469.8,273.2,468z"/>
		<path class="beast-crown-15-st-4" d="M269.4,449.2c1.9-0.3,2.9-2.6,2.4-4.3c0,0,0,0,0,0c1.2-0.8,2.3-1.7,2.8-3c1.7-4.1-0.8-6.8-4.1-9.1
			c-3.7-2.6-7.2,3.5-3.5,6c0.1,0.1,0.3,0.2,0.5,0.4c-1.5,1.1-3,2.1-4.3,3.5c-1.2,1.3-1.5,3.7,0,4.9
			C265.3,449.3,266.9,449.6,269.4,449.2z"/>
		<path class="beast-crown-15-st-4" d="M284.2,455.8c-1.4-2.6-0.9-3.1,0.7-5.5c1.1-1.6,2.3-3.1,3.2-4.8c1.9-3.7,0.6-7.2-2.8-9.3
			c-3.9-2.4-7.4,3.7-3.5,6c0.2,0.1-4.2,6.5-4.8,7.7c-1.6,3.3-0.4,6.4,1.2,9.4C280.3,463.3,286.3,459.7,284.2,455.8z"/>
		<path class="beast-crown-15-st-4" d="M275.5,473.6c3.6,0.7,6.7,4.1,10.1,0.6c1.2-1.3,2.3-2.9,3-4.6c1.2,0.6,2.7,0.6,4-0.6c5-4.7-5.4-13.8-9-6.6
			c-0.9,1.8-0.9,4.2-2.1,5.9c-0.2-0.1-0.4-0.2-0.6-0.3c-1.1-0.5-2.2-1-3.5-1.2C273,466,271.1,472.8,275.5,473.6z"/>
		<path class="beast-crown-15-st-4" d="M276.4,484.3c0.2,0.2,0.4,0.4,0.7,0.6c1.4,1,3.4,1.6,5.1,1.9c3,0.6,5.2-0.4,6.5-2.4c2.6-0.1,4.8-3.5,2.5-6
			c-0.8-0.9-1.6-1.4-2.7-1.9c-1.8-0.8-4.8-0.3-5.1,2.1c0,0.4-0.1,0.8-0.2,1.2c-0.1,0-0.2-0.1-0.2-0.1c-0.6-0.2-2-1-1.6-0.3
			c-0.2-0.4-0.6-0.8-0.9-1.2c-2.4-3.1-7.9,0-10.2,1.6c-3.7,2.5-0.2,8.6,3.5,6C274.7,485.4,275.5,484.7,276.4,484.3z"/>
		<path class="beast-crown-15-st-4" d="M303,481.1c-1.2-1.1-2.7-2.2-4.4-2.4c1.6-0.2,3.3-1.7,3.1-3.5c-0.1-0.9,0.3-0.8,1.1-1.8
			c0.6-0.7,1-1.3,1.4-2.1c0.4,0.4,0.9,0.8,1.7,0.9c0.1,0,0.1,0,0.2,0c0,0,0,0.1,0,0.1c-0.4,0.4-0.1,0.2-0.7,0.5
			c-1.3,0.7-2.1,2.5-1.6,4c0.7,2.2,2.2,3.7,4.3,4.8c3.8,2,7.2-3.5,3.9-5.8c2.1-3.8,0.9-9.1-4.2-10.3c-1.2-0.3-2.2,0-2.9,0.6
			c-0.1-0.2-0.1-0.4-0.2-0.6c-0.1-0.3-0.3-0.6-0.4-0.9c1.5-1.3,1.4-3.3,0.6-4.7c0.8-0.3,1.5-0.8,2-1.5c0.2-0.3,0.3-0.6,0.4-0.9
			c0.6-0.9,0.9-2.1,0.6-3.1c-0.5-1.8-1.6-3.2-2.9-4.5c-1.3-1.3-3.6-1.3-4.9,0c-0.5,0.5-0.8,1.1-0.9,1.7c-0.5-0.8-1.1-1.4-1.9-2
			c-0.7-0.5-0.9-0.8-1-1c0.6-1,0.9-2.1,1.4-3.4c1.6-4.5,2-8.2-1.2-12.1c-2.9-3.5-7.8,1.5-4.9,4.9c2.2,2.7-2.2,7.2-2.5,9.9
			c-0.2,1.6,0.4,3.4,1.4,4.6c0.9,1.2,2.5,1.8,3.2,3c1.8,3,5.8,1.5,6.5-1.1c0,0,0,0.1,0.1,0.1c0.1,0.1,0.2,0.2,0.2,0.3
			c-0.1,0.3-0.1,0.6-0.1,0.9c0,0.5,0.1,1,0.3,1.5c0.1,0.4,0.3,0.8,0.5,1.1c-0.2,0.1-0.4,0.2-0.6,0.3c-1.7,1.2-3.2,2.6-3.4,4.8
			c-0.1,1.6,0.7,2.7,1,4.2c0.1,0.7-1.9,2.2-2.3,2.9c-0.9,1.3-1.3,2.8-1.1,4.4c0.2,1.7,1.2,3.2,3,3.5c-1.9,0.2-3.4,1.3-4.4,2.9
			c-0.5,0.9-0.8,1.8-1.3,2.7c-1.6-0.1-3.2,1.1-3.6,2.6c-0.5,2,0.7,3.6,2.4,4.3c3.3,1.3,6.1-0.9,7.4-3.8c0.1-0.3,0.3-0.6,0.4-0.9
			C301.9,488.4,306.1,483.9,303,481.1z"/>
		<path class="beast-crown-15-st-4" d="M318,482.7c-2.5-2.9-6.3,0.2-5.8,3.2c-0.1-0.1-0.2-0.2-0.2-0.2c-1.4-1.3-3.5-1.4-4.9,0c-1.6,1.6-3,3.2-4.2,5
			c-2.4,3.8,3.6,7.3,6,3.5c0.3-0.4,0.6-0.8,0.9-1.2c2.4,2,5.1,3.5,8.1,1.2C321.6,491.4,320.8,486,318,482.7z"/>
		<path class="beast-crown-15-st-4" d="M280.7,487.3c-1.1,0.4-1.9,1-2.8,1.6c-0.1,0.1-1.1,0.6-0.8,0.5c-0.5,0.1-0.1,0.3-0.7,0.2
			c-1.9-0.3-3.8,0.4-4.3,2.4c-0.5,1.7,0.6,4,2.4,4.3c2.5,0.4,4.7,0.1,6.9-1.4c0.4-0.3,0.8-0.5,1.2-0.8c0,0,0,0,0.1,0
			c0.4,0.3,0.7,0.6,1,0.9c3.2,3.2,8.1-1.7,4.9-4.9C286.5,487.9,283.8,486.2,280.7,487.3z"/>
		<path class="beast-crown-15-st-4" d="M171.8,416.7c-0.7-0.1-1.4,0.1-2.1,0.5c-2.6,1.5-3,4.3-2.1,7c0.2,0.5,0.3,0.9,0.5,1.4
			c0.1,0.3,0.4,1.6,0.4,1.3c0,0.2,0,0.4,0,0.5c-0.3,0.3-1,0.6-1.4,0.8c-1.7,0.8-2.1,3.3-1.3,4.8c0.7,1.3,2,1.7,3.2,1.6
			c0.7,0.1,1.5-0.1,2.2-0.4c1.6-0.7,2.9-1.8,3.7-3.1c0.9,1.3,2.2,2.4,3.7,3.1c0.7,0.3,1.5,0.5,2.2,0.4c1.3,0.1,2.5-0.4,3.2-1.6
			c0.9-1.5,0.5-4-1.3-4.8c-0.4-0.2-1.1-0.5-1.4-0.8c0-0.1-0.1-0.3,0-0.5c0,0.3,0.3-1,0.4-1.3c0.2-0.5,0.3-0.9,0.5-1.4
			c0.9-2.7,0.5-5.4-2.1-7c-0.7-0.4-1.4-0.6-2.1-0.5c-1.3-0.1-2.5,0.6-3.2,1.7C174.3,417.3,173.2,416.5,171.8,416.7z"/>
		<path class="beast-crown-15-st-4" d="M184.6,450.5c-2.3-1.6-0.1-4.3,0.3-6.4c0.6-3.1,0-6-2.6-8c-3.5-2.8-8.5,2.2-4.9,4.9c1.8,1.4-0.4,4.5-0.7,6.5
			c-0.6,3.9,1.2,6.8,4.4,9C184.8,459.1,188.2,453.1,184.6,450.5z"/>
		<path class="beast-crown-15-st-4" d="M180.2,489.2c-1.8-1.2-0.6-2.2,0.1-4.1c0.9-2.4,0.9-4.8-0.5-7c-0.8-1.3-2-1.7-3.2-1.6c-0.6,0-1.1,0-1.6,0.2
			c-0.5-0.2-1.1-0.3-1.6-0.2c-1.2-0.1-2.4,0.3-3.2,1.6c-1.4,2.2-1.4,4.6-0.5,7c0.7,1.9,1.9,2.8,0.1,4.1c-3.1,2.2-1,7,2,6.6
			c0.7,0.1,1.4-0.1,2.2-0.6c0.4-0.3,0.7-0.6,1.1-0.8c0.3,0.3,0.7,0.6,1.1,0.8c0.7,0.5,1.5,0.7,2.2,0.6
			C181.3,496.2,183.4,491.4,180.2,489.2z"/>
	</g>
</g>
</svg>
