<?xml version="1.0" encoding="utf-8"?>
<!-- Generator: Adobe Illustrator 19.1.0, SVG Export Plug-In . SVG Version: 6.00 Build 0)  -->
<svg version="1.1" id="Layer_1" xmlns="http://www.w3.org/2000/svg" xmlns:xlink="http://www.w3.org/1999/xlink" x="0px" y="0px"
	 viewBox="-65 292 480 210" style="enable-background:new -65 292 480 210;" xml:space="preserve">
<style type="text/css">
	.beast-crown-17-st-0{display:none;}
	.beast-crown-17-st-1{display:inline;fill:#0E5941;}
	.beast-crown-17-st-2{fill:#FCDCA4;}
	.beast-crown-17-st-3{fill:#0B3746;}
	.beast-crown-17-st-4{fill:#75A08A;}
</style>
<g id="Layer_1_1_" class="beast-crown-17-st-0">
	<path class="beast-crown-17-st-1" d="M263,1041.4c0,84.3-68.3,152.6-152.6,152.6h-0.7C25.3,1194-43,1125.7-43,1041.4V817.6
		C-43,733.3,25.3,665,109.6,665h0.7c84.3,0,152.6,68.3,152.6,152.6L263,1041.4L263,1041.4z"/>
</g>
<g>
	<path class="beast-crown-17-st-2" d="M90.3,428C89,414.9,77.1,409.5,66,406.3c-11-3.2-19.5-9.8-28.6-16.1c-4.4-8.7-4.3-20.2-2.2-29.9
		c3.1-14.5,12.7-31,29.3-31.4c2,0,2.7-2.7,1-3.7c-11.5-6.8-23.7-8.5-36.7-6.1c-12.5,2.3-25.7,7.9-35.5,16.1
		c-18,14.9-22.7,39.5-20.5,61.7c2,20.2,11.9,38.4,28.2,50.5C16,458.5,35,462.9,53.4,463c0.4,0.7,1.2,1.2,2.2,0.8
		c1-0.3,2-0.6,2.9-0.9c0.3,0,0.7,0,1,0c0.6,0,1.1-0.3,1.4-0.7c7.1-1.9,13.4-3.5,18.7-9.9c0.4-0.5,0.8-1,1.2-1.5
		C86.8,444.7,91.1,436.6,90.3,428z"/>
	<path class="beast-crown-17-st-3" d="M82.6,410.1c-0.5-0.4-1.2,0.3-0.7,0.7c2.9,2.4,5.9,4.8,8.1,7.9c2.4,3.3,3.2,7.2,3,11.2
		c-0.5,8.6-3.4,17.5-9.2,24.1c-5.3,6-13.7,9.3-21.3,11.2c-8.2,2-17,2.2-25.1-0.2c-0.6-0.2-0.9,0.8-0.3,1c8.3,2.5,17.2,2.1,25.6,0.2
		c8.4-2,17.1-5.9,22.7-12.6c5.5-6.5,7.9-15.3,8.5-23.7C94.6,420.9,88.9,415.5,82.6,410.1z"/>
	<path class="beast-crown-17-st-3" d="M96.2,422c-2-4.6-5.2-8.6-7.9-12.8c-0.3-0.5-1.2,0-0.9,0.5c2.5,3.9,5.2,7.5,7.3,11.6c2.4,4.6,3.1,9.6,2.6,14.8
		c-0.1,0.6,0.9,0.6,1,0C98.9,431.2,98.2,426.6,96.2,422z"/>
	<path class="beast-crown-17-st-3" d="M95.4,441.7c-2.3,5.5-3.7,11.3-6.9,16.3c-3.7,5.8-10.4,9.1-16.7,11.2c-2.9,0.9-6,1.8-9.1,2.1
		c-3.2,0.3-6.4-0.2-9.6,0.1c-1.2,0.1-3.7,0.3-4.4,1.5c-0.3,0.5-0.4,1.1-0.6,1.6c-0.8,3-5-0.6-2-2.3c0.3-0.2,0.3-0.6,0.1-0.8
		c-2.4-2.4-5.9-1.6-9-1.8c-0.6-0.1-0.6,0.9,0,1c2.6,0.2,5.7-0.5,7.8,1.1c-3.8,2.8,2,6.6,3.5,4.4c0.4-0.6,0.6-1.3,0.8-2
		c0.6-2,4.5-1.8,6.2-1.9c3.8-0.1,7.4,0.2,11.1-0.7c7.5-1.7,14.7-4.6,20.2-10c5.3-5.2,6.8-13.1,9.6-19.7
		C96.6,441.3,95.6,441.1,95.4,441.7z"/>
	<path class="beast-crown-17-st-3" d="M71.9,473c-4.9,0.1-10.3,2.6-15.1,1.4c-1.4-0.3-2.4-0.7-3.7-0.1c-0.3,0.2-0.6,0.6-0.8,0.9
		c-0.6,1-1.6,1.3-2.6,1.8c-1.9,1-3.3,1.5-5.3,0.3c-1.8-1.1-2.4-2.4-3.2-4.2c-1-2.3-2.9-2.2-4.9-1.1c-0.6,0.3-0.1,1.2,0.5,0.9
		c2.1-1.2,3-0.4,3.8,1.5c0.5,1.2,1,1.9,1.9,2.7c1.8,1.6,3.8,2.5,6.1,1.5c1.2-0.5,3.1-1.1,4-2c0.9-0.9,0.3-2,2.7-1.6
		c0.8,0.1,1.6,0.4,2.4,0.6c1.7,0.3,3.7-0.1,5.4-0.4c3-0.4,5.9-1.1,8.9-1.2C72.5,473.9,72.5,472.9,71.9,473z"/>
	<path class="beast-crown-17-st-3" d="M95.7,459.7c-2,5.5-7.8,9.1-12.8,11.8c-5,2.6-10.7,4.9-16.4,5.2c-0.6,0-0.6,1,0,1c6.1-0.3,12.2-2.8,17.5-5.6
		c5-2.7,10.6-6.5,12.6-12.1C96.9,459.3,95.9,459.1,95.7,459.7z"/>
	<path class="beast-crown-17-st-3" d="M103.1,446.9c-1.3,1.9-1.2,4.3-1.4,6.5c-0.1,0.7-0.2,1.3-0.5,1.9c-0.2,0.5-1.6,2.3-1.4,0.8
		c0.2-1.4,0.6-2.7,0.9-4c0.7-2.7,1.3-5.5,1.7-8.3c0.2-1.7,0.4-4-0.9-5.4c-0.1-0.2-0.4-0.2-0.6-0.1c-4.6,3-4,10.8-5.7,15.4
		c-1.1,3-3.5,5.7-5.7,8c-2.3,2.5-5.7,5.8-9.4,5.5c-0.6,0-0.6,1,0,1c4.7,0.3,8.7-4.1,11.5-7.3c3.1-3.6,4.9-7.2,5.8-11.8
		c0.5-2.6,1-5.3,2.1-7.7c0.3-0.6,1.3-2.6,1.7-1.5c0.4,1,0.2,2.3,0.1,3.3c-0.4,4.7-2.3,9.2-2.8,13.9c0,0.2,0.2,0.5,0.5,0.5
		c5.1-0.7,2.6-7.1,4.8-10.2C104.3,446.8,103.5,446.3,103.1,446.9z"/>
	<path class="beast-crown-17-st-3" d="M106.5,432.1c-0.9-1.3-2.3-2.3-3.8-2.7c-0.3-0.1-0.7-0.1-1-0.1c0.1,0,0-1.8-0.1-1.9c-0.1-1.6-0.4-3.1-0.8-4.6
		c-1-4-11.8-24.7-16.7-14.9c-0.3,0.6,0.6,1.1,0.9,0.5c3.1-6.3,9.1,3.6,10.9,6.3c3.1,4.6,4.8,9.6,4.8,15.2c0,0.3,0.2,0.5,0.5,0.5
		c4-0.3,7.8,5.8,4.7,8.7c0.3-2.5-0.1-5.4-3.1-5.4c-0.1,0-0.3,0.1-0.3,0.1v-0.1c-1,0-1,1,0,1v-0.1c0.1,0.1,0.2,0.1,0.3,0.1
		c2.8-0.1,2.3,3.6,1.9,5.4c-0.1,0.4,0.3,0.8,0.7,0.6C108.9,438.8,108.4,434.8,106.5,432.1z"/>
	<path class="beast-crown-17-st-3" d="M98.2,408.4c-2.4-2.5-4.5-5.7-8.4-5.5c-0.6,0-0.6,1,0,1c3.5-0.2,5.5,3,7.6,5.2C98,409.6,98.7,408.9,98.2,408.4
		z"/>
	<path class="beast-crown-17-st-3" d="M37.8,476.4c-1-0.8-3-1.9-4.4-1.4c-0.6,0.2-0.3,1.2,0.3,1c1.1-0.4,2.8,0.7,3.6,1.3
		C37.8,477.6,38.3,476.7,37.8,476.4z"/>
	<path class="beast-crown-17-st-3" d="M44.5,481.6c-1.4,0-2.8,0-4.1-0.6c-0.6-0.3-1.1,0.6-0.5,0.9c1.5,0.7,3,0.7,4.6,0.7
		C45.2,482.6,45.2,481.6,44.5,481.6z"/>
	<path class="beast-crown-17-st-3" d="M58.3,479.7c-0.5,0.3-1,0.6-1.4,1.1c-0.5,0.5,0.3,1.2,0.7,0.7c0.4-0.4,0.8-0.7,1.2-0.9
		C59.4,480.3,58.9,479.4,58.3,479.7z"/>
	<path class="beast-crown-17-st-3" d="M50.5,488h-0.7c-0.6,0-0.6,1,0,1h0.7C51.2,489,51.2,488,50.5,488z"/>
	<path class="beast-crown-17-st-3" d="M68.2,481c-0.5,0-0.9,0.1-1.4,0.5c-0.5,0.4,0.2,1.1,0.7,0.7c0.2-0.2,0.4-0.2,0.6-0.2
		C68.8,482,68.8,481,68.2,481z"/>
	<path class="beast-crown-17-st-3" d="M83.5,480h-2c-0.6,0-0.6,1,0,1h2C84.2,481,84.2,480,83.5,480z"/>
	<path class="beast-crown-17-st-3" d="M98.8,465.1c-1.3,1.7-2.4,3.5-3.1,5.6c-0.2,0.6,0.8,0.9,1,0.3c0.7-1.9,1.6-3.6,2.9-5.1
		C100,465.3,99.2,464.6,98.8,465.1z"/>
	<path class="beast-crown-17-st-3" d="M108.7,454.1c0-0.3,0-0.6-0.2-0.8c-0.2-0.3-0.7-0.1-0.8,0.1c-0.3,0.4-0.3,1-0.5,1.3c-0.4,0.5,0.3,1.2,0.7,0.7
		c0.2-0.2,0.3-0.5,0.4-0.8c0,0,0-0.1,0-0.1C108.5,454.5,108.7,454.4,108.7,454.1z"/>
	<path class="beast-crown-17-st-4" d="M66.3,326.2c-0.6-1.9-2.6-3.1-4.5-3.9c-6.4-3.6-14.6-4.7-21.7-4.8c-8.2-0.1-16.2,1.9-23.8,4.8
		c-2.9,0.8-5.7,1.8-8.5,2.9c-5.8,2.4-11,6.1-15.8,10.1c-1.4,1.2-2.9,2.4-4.3,3.7c-1.1,0.9-2.2,1.8-3.2,2.9c-0.1,0.1-0.2,0.2-0.3,0.3
		c-0.1,0.1-0.1,0.1-0.2,0.2c-0.3,0.3-0.6,0.7-0.8,1c0,0-0.1,0.1-0.1,0.1c-1.3,1.7-3.2,4.5-2.1,6.7c0.1,0.3,0.3,0.5,0.5,0.7
		c0,0,0,0.1,0.1,0.1c0.2,0.2,0.5,0.3,0.7,0.3c1.8,0.4,4.8-0.9,5.8-1.5c1.1-0.6,5.1-3.6,5.9-1.8c0.1,0.3,0.2,0.7,0.2,1.1
		c-0.1,1.9-0.8,3.8-0.6,5.7c0,0.7,0.1,1.2,0.4,1.5c0,0,0.1,0.1,0.1,0.1c1.4,2.1,4.4-1.2,5.8-2.4c1.5-1.4,3.4-1.7,4.2,0.7
		c0.4,1.1,0.4,2.4,0.5,3.5c0.1,1.1,0.4,2.9,1.5,3.6c1.9,1.2,4.1-1.7,5.2-2.8c1-0.9,2.5-2.4,4-1.6c1.8,1,1.3,4.7,1.5,6.4
		c0.5,3.3,3.2,3.8,5.1,1.3c1.1-1.5,2.2-4.6,4.3-4.6c0.7,0.2,1.2,0.5,1.6,0.9c0.8,1.3,0.9,3.7,1.1,4.7c0.4,1.8,1.8,4.5,3.7,2.5
		c2.3-2.3,3.1-6.6,4-9.6c1.1-3.7,2-7.4,3.6-10.9c2.7-6.2,6.9-11.6,12.6-15.2c2.9-1.8,5.9-2.8,9.3-2.8c0.9,0,2.1,0,2.9-0.5
		C67.4,328.7,67.3,327.4,66.3,326.2z"/>
	<path class="beast-crown-17-st-4" d="M0.1,355.6c-0.9,0.8-1.7,1.6-2.8,2.2c-1,0.6-2,0.8-3.1,0.6c-1.1-0.2-1.1-2.4-1.2-3.2C-7,354-6.7,351-7.7,350
		c-0.8-0.8-1.9-0.1-2.7,0.3c-1.8,0.9-6.2,3.8-8.1,1.6c-0.4-0.5-1.1,0.2-0.7,0.7c1.2,1.4,3,1.1,4.6,0.6c1.1-0.3,2.1-0.8,3.2-1.3
		c0.7-0.3,3-2.1,3.3,0.3c0.1,1.2,0.2,2.5,0.3,3.7c0.5,5.7,6,2.7,8.7,0.2C1.3,355.9,0.6,355.2,0.1,355.6z"/>
	<path class="beast-crown-17-st-4" d="M12.6,360.9c-1.3,1.4-3.2,3.1-5,3.7c-3.7,1.4-4.4-2.9-4.2-5.5c0.1-1.5,0.6-4.7-1.2-5.3c-0.6-0.2-0.9,0.8-0.3,1
		c1.2,0.4,0.5,4.6,0.4,5.5c-0.1,1.8,0.3,3.5,1.7,4.7c3,2.5,7.3-1.3,9.2-3.4C13.7,361.1,13,360.4,12.6,360.9z"/>
	<path class="beast-crown-17-st-4" d="M-11.6,354.2c-1.1-0.7-2.2,0.2-2.9,0.9c-0.5,0.4,0.2,1.1,0.7,0.7c0.5-0.4,1.4-1.4,1.9-0.5
		c0.3,0.6,0.3,1.4,0.4,2.1c0.1,0.6,1.1,0.4,1-0.3C-10.7,356.2-10.6,354.8-11.6,354.2z"/>
	<path class="beast-crown-17-st-4" d="M12,366.4c-2.1,1.7-5.2,3.9-8,2.7c-3.1-1.3-2.4-4.5-3.1-7C0,359-2.2,361-3.9,362.3c-0.5,0.4,0,1.2,0.5,0.9
		c0.4-0.3,0.8-0.6,1.2-1c2.1-1.8,2.2,1.6,2.3,2.9c0.2,1.8,1.4,3.4,2.7,4.6c3.1,2.5,7.4-0.4,9.8-2.4C13.2,366.7,12.5,366,12,366.4z"
		/>
	<path class="beast-crown-17-st-4" d="M25.1,364.5c-1.6,1.4-2.4,3.1-3.9,4.7c-0.5,0.4-1,0.8-1.6,1.1c-0.4,0.2-0.8,0.3-1.2,0.5c-2-0.6-2.7-1.8-2-3.5
		c0.2-1,0.4-1.9,0.2-2.9c-0.2-1.3-1.2-6.8-3.7-5.1c-0.5,0.4,0,1.2,0.5,0.9c0.9-0.6,1.4,1.5,1.6,1.9c0.7,2,0.6,3.7,0.3,5.8
		c-0.2,1.2-0.3,3.2,1.1,3.7c4.4,1.8,6.8-4.2,9.4-6.3C26.3,364.8,25.5,364.1,25.1,364.5z"/>
	<path class="beast-crown-17-st-4" d="M25.2,367.6c-1.5,1.9-2.3,4.1-4.4,5.5c-2.6,1.7-7.4,1.3-7.1-2.7c0.1-0.6-0.9-0.6-1,0c-0.3,3.5,2.7,5,5.8,4.6
		c4.1-0.5,5.4-4,7.5-6.9C26.5,367.6,25.6,367.1,25.2,367.6z"/>
	<path class="beast-crown-17-st-4" d="M32.1,371.7c-4.2,2.7-2.6-8.5-5.9-9.1c-0.6-0.1-0.9,0.9-0.3,1c1.4,0.2,1.5,3.6,1.7,4.5c0.2,1,0.4,2.2,0.8,3.2
		c0.9,2,2.3,2.5,4.2,1.3C33.2,372.3,32.7,371.4,32.1,371.7z"/>
	<path class="beast-crown-17-st-4" d="M30.5,374.3c-1.5,0.3-2.8-0.5-3-2c-0.1-0.6-1.1-0.4-1,0.3c0.4,2,2.3,3.1,4.3,2.7
		C31.4,375.1,31.2,374.2,30.5,374.3z"/>
	<path class="beast-crown-17-st-4" d="M-17.4,357c-0.6,0.4-1.3,0.6-2,0.2c-0.6-0.3-1.1,0.6-0.5,0.9c1,0.5,2,0.5,3-0.2
		C-16.3,357.5-16.8,356.6-17.4,357z"/>
	<path class="beast-crown-17-st-4" d="M-8.8,363.7c-1.5-1.4-2.7-2.9-4.9-3.3c-2-0.3-3.6,1.1-5.5,1.4c-0.6,0.1-0.4,1.1,0.3,1c1.3-0.2,2.5-0.9,3.7-1.3
		c2.5-0.7,4.1,1.5,5.6,2.9C-9.1,364.9-8.4,364.2-8.8,363.7z"/>
	<path class="beast-crown-17-st-4" d="M-1.8,371.2c-0.9,0-1.7-0.4-1.6-1.4c0.1-0.6-0.9-0.6-1,0c-0.2,1.6,1.2,2.4,2.6,2.4
		C-1.2,372.2-1.2,371.2-1.8,371.2z"/>
	<path class="beast-crown-17-st-4" d="M11.3,376.8c-0.6-0.2-1-0.5-1.3-1c-0.3-0.6-1.2-0.1-0.9,0.5c0.4,0.8,1.1,1.2,1.9,1.5
		C11.7,377.9,12,377,11.3,376.8z"/>
	<path class="beast-crown-17-st-4" d="M25.1,377.6c-0.5,0.3-1.6,0.3-1.6,0.3c-1,0-1,1,0,1c1,0,1.4-0.1,2.1-0.4C26.3,378.1,25.7,377.3,25.1,377.6z"/>
	<path class="beast-crown-17-st-2" d="M259.7,428c1.3-13.2,13.1-18.5,24.3-21.7c11-3.2,19.5-9.8,28.6-16.1c4.4-8.7,4.3-20.2,2.2-29.9
		c-3.1-14.5-12.7-31-29.3-31.4c-2,0-2.7-2.7-1-3.7c11.5-6.8,23.7-8.5,36.7-6.1c12.5,2.3,25.7,7.9,35.5,16.1
		c18,14.9,22.7,39.5,20.5,61.7c-2,20.2-11.9,38.4-28.2,50.5c-15,11.1-33.9,15.5-52.4,15.7c-0.4,0.7-1.2,1.2-2.2,0.8
		c-1-0.3-2-0.6-2.9-0.9c-0.3,0-0.7,0-1,0c-0.6,0-1.1-0.3-1.4-0.7c-7.1-1.9-13.4-3.5-18.7-9.9c-0.4-0.5-0.8-1-1.2-1.5
		C263.2,444.7,258.9,436.6,259.7,428z"/>
	<path class="beast-crown-17-st-3" d="M267.4,410.1c0.5-0.4,1.2,0.3,0.7,0.7c-2.9,2.4-5.9,4.8-8.1,7.9c-2.4,3.3-3.2,7.2-3,11.2
		c0.5,8.6,3.4,17.5,9.2,24.1c5.3,6,13.7,9.3,21.3,11.2c8.2,2,17,2.2,25.1-0.2c0.6-0.2,0.9,0.8,0.3,1c-8.3,2.5-17.2,2.1-25.6,0.2
		c-8.4-2-17.1-5.9-22.7-12.6c-5.5-6.5-7.9-15.3-8.5-23.7C255.4,420.9,261.1,415.5,267.4,410.1z"/>
	<path class="beast-crown-17-st-3" d="M253.8,422c2-4.6,5.2-8.6,7.9-12.8c0.3-0.5,1.2,0,0.9,0.5c-2.5,3.9-5.2,7.5-7.3,11.6
		c-2.4,4.6-3.1,9.6-2.6,14.8c0.1,0.6-0.9,0.6-1,0C251.1,431.2,251.8,426.6,253.8,422z"/>
	<path class="beast-crown-17-st-3" d="M254.6,441.7c2.3,5.5,3.7,11.3,6.9,16.3c3.7,5.8,10.4,9.1,16.7,11.2c2.9,0.9,6,1.8,9.1,2.1
		c3.2,0.3,6.4-0.2,9.6,0.1c1.2,0.1,3.7,0.3,4.4,1.5c0.3,0.5,0.4,1.1,0.6,1.6c0.8,3,5-0.6,2-2.3c-0.3-0.2-0.3-0.6-0.1-0.8
		c2.4-2.4,5.9-1.6,9-1.8c0.6-0.1,0.6,0.9,0,1c-2.6,0.2-5.7-0.5-7.8,1.1c3.8,2.8-2,6.6-3.5,4.4c-0.4-0.6-0.6-1.3-0.8-2
		c-0.6-2-4.5-1.8-6.2-1.9c-3.8-0.1-7.4,0.2-11.1-0.7c-7.5-1.7-14.7-4.6-20.2-10c-5.3-5.2-6.8-13.1-9.6-19.7
		C253.4,441.3,254.4,441.1,254.6,441.7z"/>
	<path class="beast-crown-17-st-3" d="M278.1,473c4.9,0.1,10.3,2.6,15.1,1.4c1.4-0.3,2.4-0.7,3.7-0.1c0.3,0.2,0.6,0.6,0.8,0.9c0.6,1,1.6,1.3,2.6,1.8
		c1.9,1,3.3,1.5,5.3,0.3c1.8-1.1,2.4-2.4,3.2-4.2c1-2.3,2.9-2.2,4.9-1.1c0.6,0.3,0.1,1.2-0.5,0.9c-2.1-1.2-3-0.4-3.8,1.5
		c-0.5,1.2-1,1.9-1.9,2.7c-1.8,1.6-3.8,2.5-6.1,1.5c-1.2-0.5-3.1-1.1-4-2c-0.9-0.9-0.3-2-2.7-1.6c-0.8,0.1-1.6,0.4-2.4,0.6
		c-1.7,0.3-3.7-0.1-5.4-0.4c-3-0.4-5.9-1.1-8.9-1.2C277.5,473.9,277.5,472.9,278.1,473z"/>
	<path class="beast-crown-17-st-3" d="M254.3,459.7c2,5.5,7.8,9.1,12.8,11.8c5,2.6,10.7,4.9,16.4,5.2c0.6,0,0.6,1,0,1c-6.1-0.3-12.2-2.8-17.5-5.6
		c-5-2.7-10.6-6.5-12.6-12.1C253.1,459.3,254.1,459.1,254.3,459.7z"/>
	<path class="beast-crown-17-st-3" d="M246.9,446.9c1.3,1.9,1.2,4.3,1.4,6.5c0.1,0.7,0.2,1.3,0.5,1.9c0.2,0.5,1.6,2.3,1.4,0.8
		c-0.2-1.4-0.6-2.7-0.9-4c-0.7-2.7-1.3-5.5-1.7-8.3c-0.2-1.7-0.4-4,0.9-5.4c0.1-0.2,0.4-0.2,0.6-0.1c4.6,3,4,10.8,5.7,15.4
		c1.1,3,3.5,5.7,5.7,8c2.3,2.5,5.7,5.8,9.4,5.5c0.6,0,0.6,1,0,1c-4.7,0.3-8.7-4.1-11.5-7.3c-3.1-3.6-4.9-7.2-5.8-11.8
		c-0.5-2.6-1-5.3-2.1-7.7c-0.3-0.6-1.3-2.6-1.7-1.5c-0.4,1-0.2,2.3-0.1,3.3c0.4,4.7,2.3,9.2,2.8,13.9c0,0.2-0.2,0.5-0.5,0.5
		c-5.1-0.7-2.6-7.1-4.8-10.2C245.7,446.8,246.5,446.3,246.9,446.9z"/>
	<path class="beast-crown-17-st-3" d="M243.5,432.1c0.9-1.3,2.3-2.3,3.8-2.7c0.3-0.1,0.7-0.1,1-0.1c-0.1,0,0-1.8,0.1-1.9c0.1-1.6,0.4-3.1,0.8-4.6
		c1-4,11.8-24.7,16.7-14.9c0.3,0.6-0.6,1.1-0.9,0.5c-3.1-6.3-9.1,3.6-10.9,6.3c-3.1,4.6-4.8,9.6-4.8,15.2c0,0.3-0.2,0.5-0.5,0.5
		c-4-0.3-7.8,5.8-4.7,8.7c-0.3-2.5,0.1-5.4,3.1-5.4c0.1,0,0.4,0.1,0.4,0.1v-0.1c1,0,1,1,0,1v-0.1c0,0.1-0.2,0.1-0.4,0.1
		c-2.8-0.1-2.3,3.6-1.9,5.4c0.1,0.4-0.4,0.8-0.7,0.6C241.1,438.8,241.6,434.8,243.5,432.1z"/>
	<path class="beast-crown-17-st-3" d="M251.8,408.4c2.4-2.5,4.5-5.7,8.4-5.5c0.6,0,0.6,1,0,1c-3.5-0.2-5.5,3-7.6,5.2
		C252,409.6,251.3,408.9,251.8,408.4z"/>
	<path class="beast-crown-17-st-3" d="M312.2,476.4c1-0.8,3-1.9,4.4-1.4c0.6,0.2,0.3,1.2-0.3,1c-1.1-0.4-2.8,0.7-3.6,1.3
		C312.2,477.6,311.7,476.7,312.2,476.4z"/>
	<path class="beast-crown-17-st-3" d="M305.5,481.6c1,0,2.8,0,4-0.6c0.6-0.3,1.1,0.6,0.5,0.9c-1.5,0.7-2.6,0.7-4.6,0.7
		C304.5,482.6,304.5,481.6,305.5,481.6z"/>
	<path class="beast-crown-17-st-3" d="M291.7,479.7c0.5,0.3,1,0.6,1.4,1.1c0.5,0.5-0.3,1.2-0.7,0.7c-0.4-0.4-0.8-0.7-1.2-0.9
		C290.6,480.3,291.1,479.4,291.7,479.7z"/>
	<path class="beast-crown-17-st-3" d="M299.5,488h0.7c0.6,0,0.6,1,0,1h-0.7C298.8,489,298.8,488,299.5,488z"/>
	<path class="beast-crown-17-st-3" d="M281.8,481c0.5,0,0.9,0.1,1.4,0.5c0.5,0.4-0.2,1.1-0.7,0.7c-0.2-0.2-0.4-0.2-0.6-0.2
		C281.2,482,281.2,481,281.8,481z"/>
	<path class="beast-crown-17-st-3" d="M266.5,480.5h2c1,0,1,1,0,1h-2C265.5,481.5,265.5,480.5,266.5,480.5z"/>
	<path class="beast-crown-17-st-3" d="M251.2,465.1c1.3,1.7,2.4,3.5,3.1,5.6c0.2,0.6-0.8,0.9-1,0.3c-0.7-1.9-1.6-3.6-2.9-5.1
		C250,465.3,250.8,464.6,251.2,465.1z"/>
	<path class="beast-crown-17-st-3" d="M241.3,454.1c0-0.3,0-0.6,0.2-0.8c0.2-0.3,0.7-0.1,0.8,0.1c0.3,0.4,0.3,1,0.5,1.3c0.4,0.5-0.3,1.2-0.7,0.7
		c-0.2-0.2-0.3-0.5-0.4-0.8c0,0,0-0.1,0-0.1C241.5,454.5,241.3,454.4,241.3,454.1z"/>
	<path class="beast-crown-17-st-4" d="M283.7,326.2c0.6-1.9,2.6-3.1,4.5-3.9c6.4-3.6,14.6-4.7,21.7-4.8c8.2-0.1,16.2,1.9,23.8,4.8
		c2.9,0.8,5.7,1.8,8.5,2.9c5.8,2.4,11,6.1,15.8,10.1c1.4,1.2,2.9,2.4,4.3,3.7c1.1,0.9,2.2,1.8,3.2,2.9c0.1,0.1,0.2,0.2,0.3,0.3
		c0.1,0.1,0.1,0.1,0.2,0.2c0.3,0.3,0.6,0.7,0.8,1c0,0,0.1,0.1,0.1,0.1c1.3,1.7,3.2,4.5,2.1,6.7c-0.1,0.3-0.3,0.5-0.5,0.7
		c0,0,0,0.1-0.1,0.1c-0.2,0.2-0.5,0.3-0.7,0.3c-1.8,0.4-4.8-0.9-5.8-1.5c-1.1-0.6-5.1-3.6-5.9-1.8c-0.1,0.3-0.2,0.7-0.2,1.1
		c0.1,1.9,0.8,3.8,0.6,5.7c0,0.7-0.1,1.2-0.4,1.5c0,0-0.1,0.1-0.1,0.1c-1.4,2.1-4.4-1.2-5.8-2.4c-1.5-1.4-3.4-1.7-4.2,0.7
		c-0.4,1.1-0.4,2.4-0.5,3.5c-0.1,1.1-0.4,2.9-1.5,3.6c-1.9,1.2-4.1-1.7-5.2-2.8c-1-0.9-2.5-2.4-4-1.6c-1.8,1-1.3,4.7-1.5,6.4
		c-0.5,3.3-3.2,3.8-5.1,1.3c-1.1-1.5-2.2-4.6-4.3-4.6c-0.7,0.2-1.2,0.5-1.6,0.9c-0.8,1.3-0.9,3.7-1.1,4.7c-0.4,1.8-1.8,4.5-3.7,2.5
		c-2.3-2.3-3.1-6.6-4-9.6c-1.1-3.7-2-7.4-3.6-10.9c-2.7-6.2-6.9-11.6-12.6-15.2c-2.9-1.8-5.9-2.8-9.3-2.8c-0.9,0-2.1,0-2.9-0.5
		C282.6,328.7,282.7,327.4,283.7,326.2z"/>
	<path class="beast-crown-17-st-4" d="M349.9,355.6c0.9,0.8,1.7,1.6,2.8,2.2c1,0.6,2,0.8,3.1,0.6c1.1-0.2,1.1-2.4,1.2-3.2c0.1-1.2-0.2-4.2,0.8-5.1
		c0.8-0.8,1.9-0.1,2.7,0.3c1.8,0.9,6.2,3.8,8.1,1.6c0.4-0.5,1.1,0.2,0.7,0.7c-1.2,1.4-3,1.1-4.6,0.6c-1.1-0.3-2.1-0.8-3.2-1.3
		c-0.7-0.3-3-2.1-3.3,0.3c-0.1,1.2-0.2,2.5-0.3,3.7c-0.5,5.7-6,2.7-8.7,0.2C348.7,355.9,349.4,355.2,349.9,355.6z"/>
	<path class="beast-crown-17-st-4" d="M337.4,360.9c1.3,1.4,3.2,3.1,5,3.7c3.7,1.4,4.4-2.9,4.2-5.5c-0.1-1.5-0.6-4.7,1.2-5.3c0.6-0.2,0.9,0.8,0.3,1
		c-1.2,0.4-0.5,4.6-0.4,5.5c0.1,1.8-0.3,3.5-1.7,4.7c-3,2.5-7.3-1.3-9.2-3.4C336.3,361.1,337,360.4,337.4,360.9z"/>
	<path class="beast-crown-17-st-4" d="M361.6,354.2c1.1-0.7,2.2,0.2,2.9,0.9c0.5,0.4-0.2,1.1-0.7,0.7c-0.5-0.4-1.4-1.4-1.9-0.5
		c-0.3,0.6-0.3,1.4-0.4,2.1c-0.1,0.6-1.1,0.4-1-0.3C360.7,356.2,360.6,354.8,361.6,354.2z"/>
	<path class="beast-crown-17-st-4" d="M338,366.4c2.1,1.7,5.2,3.9,8,2.7c3.1-1.3,2.4-4.5,3.1-7c0.9-3.1,3.1-1.1,4.8,0.1c0.5,0.4,0,1.2-0.5,0.9
		c-0.4-0.3-0.8-0.6-1.2-1c-2.1-1.8-2.2,1.6-2.3,2.9c-0.2,1.8-1.4,3.4-2.7,4.6c-3.1,2.5-7.4-0.4-9.8-2.4
		C336.8,366.7,337.5,366,338,366.4z"/>
	<path class="beast-crown-17-st-4" d="M324.9,364.5c1.6,1.4,2.4,3.1,3.9,4.7c0.5,0.4,1,0.8,1.6,1.1c0.4,0.2,0.8,0.3,1.2,0.5c2-0.6,2.7-1.8,2-3.5
		c-0.2-1-0.4-1.9-0.2-2.9c0.2-1.3,1.2-6.8,3.7-5.1c0.5,0.4,0,1.2-0.5,0.9c-0.9-0.6-1.4,1.5-1.6,1.9c-0.7,2-0.6,3.7-0.3,5.8
		c0.2,1.2,0.3,3.2-1.1,3.7c-4.4,1.8-6.8-4.2-9.4-6.3C323.7,364.8,324.5,364.1,324.9,364.5z"/>
	<path class="beast-crown-17-st-4" d="M324.8,367.6c1.5,1.9,2.3,4.1,4.4,5.5c2.6,1.7,7.4,1.3,7.1-2.7c-0.1-0.6,0.9-0.6,1,0c0.3,3.5-2.7,5-5.8,4.6
		c-4.1-0.5-5.4-4-7.5-6.9C323.5,367.6,324.4,367.1,324.8,367.6z"/>
	<path class="beast-crown-17-st-4" d="M317.9,371.7c4.2,2.7,2.6-8.5,5.9-9.1c0.6-0.1,0.9,0.9,0.3,1c-1.4,0.2-1.5,3.6-1.7,4.5c-0.2,1-0.4,2.2-0.8,3.2
		c-0.9,2-2.3,2.5-4.2,1.3C316.8,372.3,317.3,371.4,317.9,371.7z"/>
	<path class="beast-crown-17-st-4" d="M319.5,374.3c1.5,0.3,2.8-0.5,3-2c0.1-0.6,1.1-0.4,1,0.3c-0.4,2-2.3,3.1-4.3,2.7
		C318.6,375.1,318.8,374.2,319.5,374.3z"/>
	<path class="beast-crown-17-st-4" d="M367.4,357c0.6,0.4,1.3,0.6,2,0.2c0.6-0.3,1.1,0.6,0.5,0.9c-1,0.5-2,0.5-3-0.2
		C366.3,357.5,366.8,356.6,367.4,357z"/>
	<path class="beast-crown-17-st-4" d="M358.8,363.7c1.5-1.4,2.7-2.9,4.9-3.3c2-0.3,3.6,1.1,5.5,1.4c0.6,0.1,0.4,1.1-0.3,1c-1.3-0.2-2.5-0.9-3.7-1.3
		c-2.5-0.7-4.1,1.5-5.6,2.9C359.1,364.9,358.4,364.2,358.8,363.7z"/>
	<path class="beast-crown-17-st-4" d="M351.8,371.2c0.9,0,1.7-0.4,1.6-1.4c-0.1-0.6,0.9-0.6,1,0c0.2,1.6-1.2,2.4-2.6,2.4
		C351.2,372.2,351.2,371.2,351.8,371.2z"/>
	<path class="beast-crown-17-st-4" d="M338.7,376.8c0.6-0.2,1-0.5,1.3-1c0.3-0.6,1.2-0.1,0.9,0.5c-0.4,0.8-1.1,1.2-1.9,1.5
		C338.3,377.9,338,377,338.7,376.8z"/>
	<path class="beast-crown-17-st-4" d="M324.9,377.6c0.5,0.3,1.6,0.3,1.6,0.3c1,0,1,1,0,1c-1,0-1.4-0.1-2.2-0.4C323.8,378.1,324.3,377.3,324.9,377.6z
		"/>
	<path class="beast-crown-17-st-3" d="M202.6,421.5c-4,1.5-7.8,3.3-11.6,5.2c0-1.8-0.1-3.5-0.3-5.3c-0.1-0.6-1.1-0.6-1,0c0.3,1.9,0.3,3.9,0.3,5.8
		c-0.5,0.3-1.1,0.5-1.6,0.8c-2.6,1.2-5.1,2.4-7.7,3.5c0.4-3.7,1-7.4,1.7-11.1c0.1-0.6-0.8-0.9-1-0.3c-0.8,3.9-1.4,7.8-1.8,11.8
		c-1.9,0.8-3.7,1.6-5.6,2.4c-2.1,0.9-4.2,1.8-6.4,2.8c0.4-5.3,1-10.5,2.4-15.6c0.2-0.6-0.8-0.9-1-0.3c-1.5,5.3-2.1,10.8-2.5,16.4
		c-3,1.3-6,2.7-8.9,4.2c0.6-6.8,0.9-13.7,2-20.5c0.1-0.6-0.9-0.9-1-0.3c-1.1,7.1-1.4,14.2-2,21.3c-3.6,1.9-7.1,3.9-10.4,6.2
		c-0.5,0.4,0,1.2,0.5,0.9c3.2-2.2,6.5-4.1,9.8-5.9c-0.2,1.8-0.4,3.5-0.6,5.3c-0.1,0.6,0.9,0.9,1,0.3c0.3-2,0.5-4.1,0.7-6.1
		c2.9-1.5,5.9-2.9,8.9-4.3c-0.2,4-0.4,8.1-0.6,12.1c0,0.6,1,0.6,1,0c0.3-4.2,0.4-8.4,0.6-12.6c2-0.9,4.1-1.8,6.1-2.7
		c1.9-0.8,3.9-1.7,5.8-2.5c-0.6,5.7-0.8,11.4-1.1,17.1c0,0.6,1,0.6,1,0c0.2-5.9,0.5-11.7,1.1-17.6c2.3-1,4.5-2,6.7-3
		c0.9-0.4,1.8-0.9,2.7-1.3c-0.3,8.2-2.5,16.4-2.6,24.6c0,0.6,1,0.6,1,0c0.1-8.4,2.4-16.7,2.6-25.1c3.9-1.9,7.8-3.8,11.9-5.3
		C203.4,422.3,203.2,421.3,202.6,421.5z"/>
</g>
</svg>
