<?xml version="1.0" encoding="utf-8"?>
<!-- Generator: Adobe Illustrator 15.0.0, SVG Export Plug-In . SVG Version: 6.00 Build 0)  -->
<!DOCTYPE svg PUBLIC "-//W3C//DTD SVG 1.1//EN" "http://www.w3.org/Graphics/SVG/1.1/DTD/svg11.dtd">
<svg version="1.1" xmlns="http://www.w3.org/2000/svg" xmlns:xlink="http://www.w3.org/1999/xlink" x="0px" y="0px" width="480px"
	 height="210px" viewBox="0 0 480 210" enable-background="new 0 0 480 210" xml:space="preserve">
<g id="Layer_1" display="none">
	<path display="inline" fill="#0E5941" d="M393,457.365C393,541.663,324.663,610,240.364,610h-0.729
		C155.337,610,87,541.663,87,457.365v-223.73C87,149.337,155.337,81,239.636,81h0.729C324.663,81,393,149.337,393,233.635V457.365z"
		/>
</g>
<g id="Layer_2">
	<g>
		<path fill="#F0A733" d="M240.254,196.083L285.455,87.94c-14.252-4.401-29.394-6.773-45.091-6.773h-0.729
			c-15.718,0-30.88,2.378-45.148,6.791L240.254,196.083z"/>
		<path fill="#D72251" d="M130.727,126.876l62.205,45.582l-27.444-72.09C152.647,107.519,140.948,116.466,130.727,126.876z"/>
		<path fill="#D72251" d="M317.013,101.787l-30.785,70.671l63.544-45.072C340.098,117.441,329.082,108.81,317.013,101.787z"/>
		<polygon fill="#D72251" points="248.477,124.167 230.523,124.167 239.5,37.167 		"/>
		<polygon fill="#F0A733" points="161.52,121.489 152.584,129.146 119.947,82.016 		"/>
		<polygon fill="#F0A733" points="318.19,123.191 327.051,130.937 360.154,84.133 		"/>
	</g>
</g>
</svg>
