<?xml version="1.0" encoding="utf-8"?>
<!-- Generator: Adobe Illustrator 15.0.0, SVG Export Plug-In . SVG Version: 6.00 Build 0)  -->
<!DOCTYPE svg PUBLIC "-//W3C//DTD SVG 1.1//EN" "http://www.w3.org/Graphics/SVG/1.1/DTD/svg11.dtd">
<svg version="1.1" xmlns="http://www.w3.org/2000/svg" xmlns:xlink="http://www.w3.org/1999/xlink" x="0px" y="0px" width="480px"
	 height="210px" viewBox="0 0 480 210" enable-background="new 0 0 480 210" xml:space="preserve">
<g id="Layer_1" display="none">
	<path display="inline" fill="#0E5941" d="M393,457.365C393,541.663,324.663,610,240.364,610h-0.729
		C155.337,610,87,541.663,87,457.365v-223.73C87,149.337,155.337,81,239.636,81h0.729C324.663,81,393,149.337,393,233.635V457.365z"
		/>
</g>
<g id="Layer_2">
	<g>
		<defs>
			<rect id="beast-crown-9-id-1" x="113.667" y="89.668" width="253.875" height="119.166"/>
		</defs>
		<clipPath id="beast-crown-9-id-2">
			<use xlink:href="#beast-crown-9-id-1"  overflow="visible"/>
		</clipPath>
		<path clip-path="url(#beast-crown-9-id-2)" fill="#D72251" d="M251.417,143.709l5.125-6.875l-6.25-14.75l18.875-6.75l0.589-5.843
			l-0.839-2.782c0,0,6,2.125,7,5.875l11.375,4c0,0,4.25-0.5,6.75,2.625s5.5,6.5,3.75,11.375c0,0,7.5,0.375,8.375,3.375
			c0.375,0,6,1.125,6,1.125s8-1.375,11.25,3.5c0,0,16.5,5.125,19.25,6.75l2.75,12l-22.625,12.125l-15.75-9.875c0,0-33.625,5-41.25,7
			C265.792,166.584,253.042,151.459,251.417,143.709"/>
		<path clip-path="url(#beast-crown-9-id-2)" fill="#D72251" d="M155.926,138.208c-6.69,5.509-18.194,16.248-16.832,21.21
			c1.724,6.277,8.272,9.275,17.125,5.89c8.853-3.385,14.32-18.226,18.486-20.568c4.166-2.345,15.352-10.153,10.415-18.487
			C183.558,123.614,169.205,127.272,155.926,138.208"/>
		<path clip-path="url(#beast-crown-9-id-2)" fill="#D72251" d="M172.369,168.855c-3.061,4.591-3.989,11.869-3.652,12.075
			c4.43,2.714,11.717,0.781,14.32-6.509c2.604-7.291,4.704-10.917,0.034-13.351C180.851,159.915,176.014,163.388,172.369,168.855"/>
		<path clip-path="url(#beast-crown-9-id-2)" fill="#F0A733" d="M138.561,158.993c0,0-2.228-7.055,3.564-13.812
			c5.793-6.758,19.68-17.601,24.358-19.604c4.679-2.006,13.144-5.644,18.119,0.742c0,0-6.237-1.708-14.703,2.079
			c-8.466,3.787-19.828,13.293-22.947,16.857S138.561,158.993,138.561,158.993"/>
		<path clip-path="url(#beast-crown-9-id-2)" fill="#F0A733" d="M168.191,180.157c0,0-1.708-3.268-0.891-6.312
			c0.817-3.045,5.718-12.179,8.837-14.034c3.119-1.857,5.792-2.005,8.169-0.669c2.376,1.337,1.782,3.786,1.782,3.786
			s-4.307-3.489-6.461-2.078c-2.153,1.41-6.46,5.272-8.02,10.1S168.191,180.157,168.191,180.157"/>
		<polygon clip-path="url(#beast-crown-9-id-2)" fill="#F0A733" points="250.547,121.937 269.292,115.335 269.542,109.5 248.394,117.927 		"/>
		<path clip-path="url(#beast-crown-9-id-2)" fill="#F0A733" d="M266.364,103.074l29.928,6.906l3.489,12.848l40.621,11.881l2.377,10.026
			l-19.362-6.151c0,0-3.395-5.948-11.25-3.5l-14.242-4.162c0,0,1.633-7.203-2.08-10.842c-3.711-3.639-8.836-3.639-8.836-3.639
			l-10.842-3.862c0,0-3.49-5.643-7.65-6.015L266.364,103.074z"/>
		<path clip-path="url(#beast-crown-9-id-2)" fill="#0C3846" d="M216.291,207.365c-0.459-0.008-0.977,0.024-1.565-0.016
			c-0.586-0.04-1.234-0.084-1.94-0.133c-0.705-0.068-1.467-0.143-2.282-0.223c-1.629-0.173-3.462-0.411-5.467-0.661
			c-4.016-0.52-8.702-1.124-13.722-1.772c-2.518-0.312-5.122-0.649-7.78-0.928c-2.667-0.263-5.351-0.53-8.109-0.684
			c-1.381-0.11-2.715-0.116-4.067-0.156c-0.704,0.016-1.406,0.03-2.106,0.046c-0.681,0.044-1.359,0.088-2.034,0.131
			c-2.688,0.215-5.309,0.487-7.832,0.832c-5.047,0.666-9.735,1.367-13.738,2.068c-3.999,0.724-7.311,1.445-9.617,2.017
			c-2.307,0.564-3.614,0.947-3.614,0.947s1.36-0.061,3.727-0.234c2.368-0.169,5.736-0.485,9.766-0.928
			c4.025-0.46,8.713-1.064,13.74-1.552c2.514-0.247,5.108-0.479,7.731-0.643c0.654-0.03,1.309-0.061,1.967-0.091
			c0.64-0.003,1.281-0.007,1.925-0.01c1.339,0.069,2.711,0.094,4.026,0.187c2.644,0.139,5.344,0.397,7.975,0.648
			c2.644,0.263,5.245,0.521,7.762,0.771c2.521,0.256,4.958,0.531,7.278,0.735c2.318,0.214,4.518,0.384,6.555,0.481
			c2.035,0.117,3.912,0.13,5.574,0.125c0.832-0.028,1.611-0.055,2.331-0.08c0.721-0.07,1.382-0.136,1.979-0.193
			c0.595-0.062,1.126-0.185,1.584-0.255c0.228-0.042,0.44-0.08,0.633-0.115c0.19-0.062,0.363-0.116,0.517-0.165
			c0.606-0.2,0.93-0.307,0.93-0.307s-0.338,0.033-0.972,0.098C217.134,207.346,216.751,207.381,216.291,207.365 M343.913,206.433
			c-0.897-0.022-2.211-0.1-3.879-0.194c-3.34-0.213-8.103-0.582-13.812-1.025c-2.856-0.237-5.952-0.493-9.226-0.766
			c-3.278-0.233-6.736-0.479-10.312-0.735c-3.57-0.273-7.254-0.586-10.982-0.978c-3.731-0.368-7.513-0.804-11.256-1.385
			c-1.867-0.289-3.742-0.624-5.553-1.014c-1.785-0.358-3.623-0.887-5.466-1.363c-3.782-1.019-7.692-1.279-11.39-1.005
			c-3.703,0.295-7.17,1.129-10.36,2.005c-1.582,0.442-3.122,0.871-4.611,1.287c-0.729,0.204-1.464,0.393-2.19,0.574
			c-0.707,0.188-1.395,0.303-2.072,0.45c-2.743,0.457-5.335,0.571-7.633,0.616c-2.299,0.051-4.318,0.007-5.985-0.025
			c-3.353-0.105-5.268-0.166-5.268-0.166s1.828,0.658,5.16,1.247c1.664,0.297,3.703,0.564,6.067,0.69
			c2.363,0.108,5.054,0.077,7.987-0.353c0.727-0.139,1.49-0.251,2.232-0.429c0.725-0.162,1.469-0.335,2.233-0.528
			c1.502-0.38,3.055-0.772,4.651-1.176c3.166-0.798,6.502-1.477,9.963-1.709c3.457-0.199,7.041,0.094,10.531,1.092
			c1.799,0.487,3.599,1.058,5.551,1.46c1.918,0.415,3.812,0.753,5.727,1.053c7.639,1.193,15.303,1.813,22.482,2.257
			c3.582,0.209,7.049,0.411,10.334,0.603c3.265,0.166,6.4,0.365,9.277,0.406c5.758,0.142,10.563,0.009,13.924-0.24
			c1.679-0.118,2.996-0.265,3.89-0.396c0.894-0.134,1.364-0.227,1.364-0.227S344.811,206.464,343.913,206.433 M232.932,189.479
			c1.526-0.264,3.09-0.609,4.683-0.938c1.594-0.317,3.201-0.706,4.812-1.072c1.615-0.381,3.191-0.713,4.773-1.017
			c1.577-0.296,3.135-0.542,4.646-0.743c1.512-0.188,2.979-0.306,4.37-0.353c1.39-0.015,2.712-0.043,3.923,0.068
			c1.215,0.075,2.318,0.257,3.289,0.455c0.972,0.194,1.82,0.407,2.494,0.647c0.689,0.211,1.205,0.438,1.566,0.582
			c0.36,0.146,0.553,0.225,0.553,0.225s-0.176-0.109-0.504-0.316c-0.328-0.211-0.812-0.521-1.475-0.831
			c-0.646-0.343-1.472-0.685-2.438-1.03c-0.971-0.322-2.092-0.635-3.338-0.856c-2.486-0.509-5.457-0.621-8.604-0.478
			c-1.572,0.082-3.195,0.213-4.829,0.429c-1.63,0.215-3.312,0.443-4.925,0.762c-1.625,0.302-3.254,0.581-4.846,0.921
			c-1.592,0.328-3.164,0.63-4.67,0.992c-3.021,0.683-5.84,1.332-8.229,2.022c-4.79,1.318-7.894,2.636-7.894,2.636
			s3.367-0.019,8.284-0.704C227.042,190.568,229.887,190.049,232.932,189.479 M343.915,145.787l-1.528-5.729l-0.813-2.863
			c-0.257-0.946-0.611-1.933-0.908-2.901l-0.14-0.451l-0.538-0.162l-9.865-2.978c-1.641-0.506-3.295-0.97-4.943-1.449
			c-1.645-0.489-3.303-0.938-4.984-1.302c-1.677-0.382-3.357-0.751-5.006-1.227l-4.961-1.389l-9.318-2.61
			c-0.164-1.029-0.343-2.042-0.545-3.06c-0.248-1.224-0.525-2.443-0.847-3.658c-0.324-1.215-0.687-2.425-1.149-3.623
			c-0.477-1.195-0.98-2.396-1.944-3.524l-0.195-0.229l-0.313-0.069l-14.836-3.252l-14.543-3.267
			c-0.822-1.143-1.666-2.264-2.541-3.355c-1.274-1.578-2.586-3.119-3.934-4.628c-1.355-1.502-2.742-2.975-4.186-4.394
			c2.233,3.373,4.49,6.708,6.682,10.062c1.102,1.674,2.148,3.375,3.197,5.055l0.773,1.265l0.742,1.267l0.7,1.268l0.179,0.355
			c-1.464,0.518-2.923,1.038-4.378,1.577c-1.815,0.653-3.627,1.323-5.43,2.022c-1.804,0.698-3.599,1.424-5.382,2.214
			c-0.891,0.396-1.776,0.812-2.659,1.272c-0.44,0.229-3.509,1.934-3.509,1.934l0.685,1.013c0.749,1.491,1.461,3.017,2.142,4.548
			l2.057,4.581c0.336,0.765,0.679,1.525,1.066,2.264c0.389,0.738,0.789,1.473,1.147,2.222c0.354,0.75,0.642,1.525,0.905,2.295
			c0.219,0.641,0.404,1.289,0.521,1.889l-4.89,6.653l-0.371,0.506l0.301,0.539c2.209,3.969,4.494,7.871,6.902,11.718
			c1.206,1.92,2.436,3.831,3.717,5.715c0.635,0.946,1.308,1.871,1.985,2.796l0.973,1.262c-0.378,0.075-0.756,0.146-1.132,0.229
			c-1.325,0.286-2.642,0.608-3.962,0.926c-2.635,0.642-5.277,1.252-7.9,1.952c-2.629,0.673-5.252,1.377-7.861,2.139
			c2.7-0.315,5.391-0.68,8.075-1.067c2.69-0.362,5.363-0.809,8.044-1.215c1.34-0.206,2.682-0.408,4.014-0.642
			c1.334-0.234,2.66-0.512,3.988-0.78c2.647-0.571,5.305-1.095,7.965-1.606c2.658-0.514,5.316-1.029,7.981-1.509
			c2.664-0.483,5.325-0.979,7.998-1.404c2.67-0.438,5.342-0.862,8.013-1.251c1.336-0.191,2.668-0.384,4-0.535
			c0.663-0.067,1.332-0.146,1.982-0.191c0.331-0.03,0.652-0.051,0.96-0.059c0.226-0.017,0.397-0.012,0.562-0.006
			c2.33,1.436,4.684,2.83,7.041,4.219c1.239,0.704,2.469,1.423,3.719,2.11l3.755,2.048l7.522,4.078
			c2.506,1.358,5.035,2.687,7.598,3.941c-1.2-0.776-2.391-1.551-3.568-2.358l-3.553-2.378l-4.307-2.896l10.146-5.171l5.718-2.987
			l2.851-1.53l1.422-0.791c0.476-0.279,0.947-0.546,1.471-0.905l0.554-0.379l-0.169-0.678
			C345.903,153.427,344.925,149.605,343.915,145.787 M299.452,125.703l0.943-1.086l9.294,2.631l4.957,1.402
			c1.655,0.455,3.281,1.017,4.91,1.565c1.624,0.567,3.272,1.049,4.933,1.491c1.656,0.449,3.309,0.917,4.973,1.341l9.459,2.474
			c0.26,0.736,0.531,1.459,0.742,2.246l0.817,2.821c0.265,0.962,0.531,1.924,0.794,2.889c-4.912-1.993-13.718-4.839-17.596-6.07
			c-0.145-0.209-0.277-0.423-0.441-0.624c-0.263-0.353-0.638-0.669-0.966-1.003c-0.341-0.323-0.651-0.515-0.978-0.778
			c-0.834-0.555-1.608-0.918-2.5-1.203c-0.432-0.144-0.885-0.203-1.325-0.292c-0.444-0.043-0.888-0.062-1.321-0.074
			c-0.428,0.037-0.857,0.039-1.264,0.112c-0.399,0.09-0.805,0.14-1.172,0.263c-0.305,0.087-0.59,0.187-0.87,0.289
			c-4.986-1.502-6.515-1.929-7.021-2.047l-0.052-0.041c-0.28-0.225-0.617-0.377-0.927-0.561c-0.311-0.185-0.633-0.348-0.977-0.463
			c-0.34-0.12-0.668-0.277-1.016-0.361l-1.044-0.247c-0.701-0.099-1.405-0.191-2.103-0.169c-0.149-0.005-0.297,0.001-0.444,0.01
			C299.628,128.718,299.684,127.194,299.452,125.703 M310.226,135.4c-0.416,0.275-0.766,0.536-1.059,0.765
			c-0.152-0.325-0.273-0.651-0.459-0.972c-0.065-0.1-0.133-0.201-0.198-0.302C309.025,135.044,309.602,135.215,310.226,135.4
			 M296.569,113.077c0.424,1.103,0.768,2.258,1.074,3.426c0.568,2.187,1.008,4.441,1.352,6.679l-0.164,0.188
			c-0.209-0.546-0.443-1.085-0.735-1.608c-1.304-2.333-3.324-4.165-5.636-5.191l3.304-5.272
			C296.065,111.853,296.335,112.463,296.569,113.077 M280.673,107.148l13.46,2.984l-3.628,5.791c-0.09-0.021-0.176-0.052-0.266-0.07
			c-0.578-0.115-1.143-0.17-1.695-0.191l0.029-0.057c-3.73-1.864-9.945-3.623-11.91-4.157c-1.633-3.651-5.408-5.587-8.033-6.247
			c-0.15-0.256-0.305-0.509-0.463-0.76L280.673,107.148z M277.333,113.713c1.836,0.524,4.781,1.413,7.404,2.418
			c-1.652,0.469-2.982,1.179-3.8,1.685c-0.321-0.218-0.633-0.409-0.946-0.608c-0.498-0.335-1.059-0.51-1.584-0.762
			c-0.318-0.126-0.648-0.214-0.98-0.295C277.495,115.28,277.454,114.471,277.333,113.713 M250.868,120.978l-1.216-2.249
			c0.128-0.091,0.261-0.182,0.392-0.266c0.375-0.235,0.773-0.463,1.186-0.679c0.82-0.434,1.674-0.842,2.539-1.23
			c1.73-0.78,3.499-1.506,5.279-2.207c3.18-1.261,6.412-2.416,9.66-3.502l-0.353,3.766L250.868,120.978z M298.799,159.482
			c-2.681,0.461-5.351,0.956-8.017,1.464l-15.99,2.997c-2.664,0.501-5.328,1.006-8,1.467c-0.209,0.039-0.416,0.078-0.625,0.117
			l-0.617-0.712l-1.028-1.303c-0.667-0.889-1.333-1.782-1.968-2.703c-1.287-1.83-2.514-3.711-3.691-5.625
			c-0.49-0.791-0.957-1.599-1.441-2.396c0.138-0.354,0.291-0.714,0.467-1.057c0.258-0.497,0.546-0.978,0.871-1.428
			c0.326-0.45,0.682-0.872,1.072-1.253c0.387-0.386,0.815-0.713,1.26-1.013l0.695-0.398l0.736-0.303
			c0.243-0.11,0.514-0.14,0.77-0.217c0.252-0.08,0.52-0.117,0.789-0.137c0.531-0.089,1.078-0.06,1.627-0.037l0.205,0.006
			c-0.037-0.011,0.119,0.018,0.17,0.023l0.449,0.069c0.287,0.054,0.633,0.074,0.873,0.155c0.508,0.136,1.02,0.266,1.527,0.495
			c0.262,0.09,0.505,0.211,0.738,0.35c0.236,0.136,0.492,0.239,0.701,0.411c0.217,0.161,0.449,0.304,0.654,0.478l0.6,0.543
			c0.361,0.398,0.709,0.809,0.996,1.267c0.576,0.91,0.965,1.944,1.138,3.011c0.09,0.532,0.116,1.073,0.09,1.605
			c-0.022,0.534-0.127,1.051-0.263,1.55l-0.986,3.636l2.686-2.668l0,0c0.164-0.121,0.403-0.317,0.621-0.453
			c0.225-0.144,0.45-0.278,0.678-0.383c0.455-0.216,0.904-0.353,1.33-0.355c0.213,0.008,0.427,0.021,0.643,0.081l0.298,0.096
			l0.438,0.208c0.225,0.126,0.461,0.253,0.731,0.431l0.8,0.521c0.545,0.354,1.123,0.722,1.75,1.029
			c0.31,0.157,0.651,0.275,0.984,0.394c0.354,0.089,0.697,0.184,1.064,0.2c0.355,0.05,0.728,0.003,1.074-0.046
			c0.353-0.066,0.687-0.175,0.993-0.335c0.323-0.121,0.584-0.351,0.865-0.523c0.265-0.2,0.495-0.441,0.735-0.657
			c-0.297,0.143-0.582,0.295-0.871,0.423c-0.305,0.093-0.586,0.242-0.895,0.271c-0.15,0.024-0.299,0.062-0.447,0.073l-0.443,0.008
			c-0.291-0.021-0.578-0.038-0.852-0.139c-0.275-0.068-0.535-0.205-0.793-0.326c-0.252-0.157-0.5-0.301-0.738-0.491
			c-0.483-0.35-0.941-0.758-1.416-1.194l-0.74-0.652c-0.244-0.215-0.543-0.446-0.857-0.674l-0.404-0.27
			c-0.23-0.133-0.391-0.19-0.592-0.286c-0.394-0.154-0.817-0.258-1.25-0.287c-0.43-0.018-0.86,0.014-1.264,0.113
			c-0.311,0.08-0.604,0.188-0.884,0.315c0-0.515-0.027-1.027-0.111-1.53c-0.17-1.058-0.517-2.083-1.012-3.034
			c0.931-1.191,3.786-4.218,8.435-3.58c2.978,0.409,4.152,2.102,5.289,3.737c1.047,1.51,2.231,3.224,4.75,3.147
			c1.824-0.053,4.313,0.199,5.782,1.718c0.862,0.891,1.283,2.186,1.31,3.812L298.799,159.482z M344.001,157.457l-1.396,0.768
			l-2.831,1.504l-5.715,2.944l-11.245,5.649l-0.737-0.495l-3.541-2.394c-1.184-0.795-2.387-1.556-3.576-2.338
			c-2.407-1.522-4.814-3.044-7.246-4.523l-0.287-0.175l-0.253-0.008c-0.44-0.012-0.884-0.008-1.218,0.032
			c-0.369,0.026-0.724,0.064-1.064,0.111c-0.698,0.08-1.372,0.19-2.055,0.289l-0.539,0.089c-0.082-2.021-0.707-3.661-1.881-4.875
			c-1.564-1.616-4.075-2.416-7.279-2.326c-1.361,0.036-1.986-0.758-3.051-2.289c-1.252-1.805-2.81-4.05-6.659-4.577
			c-5.082-0.701-8.39,2.155-9.859,3.828c-0.168-0.201-0.338-0.402-0.517-0.596l-0.752-0.685c-0.26-0.217-0.547-0.4-0.818-0.599
			c-0.27-0.21-0.578-0.347-0.869-0.514c-0.294-0.169-0.595-0.316-0.91-0.429c-0.604-0.271-1.27-0.452-1.94-0.617
			c-0.343-0.098-0.613-0.106-0.925-0.164l-0.45-0.069c-0.101-0.013-0.093-0.021-0.282-0.037l-0.251-0.01
			c-0.669-0.031-1.338-0.06-2.015,0.047c-0.338,0.026-0.674,0.074-1.004,0.174c-0.328,0.095-0.67,0.144-0.984,0.28l-0.95,0.393
			l-0.889,0.508c-0.565,0.378-1.103,0.794-1.58,1.269c-0.479,0.468-0.911,0.979-1.298,1.516c-0.36,0.5-0.676,1.027-0.963,1.568
			c-1.297-2.196-2.569-4.407-3.803-6.635l4.806-6.482l0.241-0.324l-0.055-0.383c-0.139-0.986-0.402-1.811-0.677-2.643l-0.869-2.433
			l-0.817-2.432c-0.287-0.805-0.642-1.577-1.01-2.343c-0.678-1.449-1.408-2.868-2.162-4.276l18.403-6.699l0.547-5.851l0.072-0.02
			l-0.365-1.026c-0.161-0.454-0.321-0.925-0.51-1.366c2.362,1.046,5.776,3.387,5.472,8.09c-0.133-0.005-0.266-0.021-0.396-0.015
			c-1.102,0.027-2.161,0.184-3.08,0.53c-0.94,0.286-1.74,0.742-2.455,1.158c-0.696,0.455-1.299,0.906-1.787,1.356
			c-0.49,0.445-0.883,0.865-1.189,1.224c-0.608,0.722-0.869,1.195-0.869,1.195s0.455-0.289,1.252-0.733
			c0.397-0.223,0.887-0.476,1.441-0.753c0.284-0.128,0.586-0.263,0.893-0.412c0.318-0.125,0.652-0.256,1-0.394
			c0.695-0.255,1.457-0.486,2.256-0.639c0.199-0.038,0.402-0.076,0.605-0.113c0.207-0.017,0.414-0.025,0.623-0.05
			c0.414-0.07,0.836-0.024,1.262-0.024c0.427,0.01,0.846,0.123,1.274,0.176c0.411,0.143,0.847,0.211,1.253,0.391
			c0.397,0.193,0.842,0.322,1.217,0.56c0.446,0.25,0.948,0.498,1.295,0.758c0.383,0.246,0.765,0.513,1.138,0.821
			c0.392,0.28,0.726,0.615,1.071,0.939c0.351,0.318,0.623,0.699,0.946,1.035c0.261,0.38,0.568,0.729,0.787,1.123
			c0.478,0.767,0.858,1.563,1.127,2.357c0.152,0.393,0.224,0.795,0.345,1.177c0.075,0.389,0.145,0.77,0.197,1.14
			c0.02,0.369,0.064,0.729,0.062,1.071c-0.012,0.344-0.023,0.669-0.034,0.976c-0.054,0.614-0.127,1.156-0.242,1.593
			c-0.08,0.447-0.222,0.774-0.282,1.015c-0.072,0.236-0.111,0.362-0.111,0.362s0.07-0.11,0.203-0.318
			c0.125-0.212,0.35-0.509,0.526-0.94c0.216-0.418,0.416-0.948,0.618-1.582c0.168-0.639,0.297-1.378,0.355-2.202
			c0.014-0.411,0.01-0.844,0-1.292c-0.053-0.442-0.064-0.915-0.18-1.38c-0.188-0.938-0.486-1.921-0.957-2.865
			c-0.211-0.486-0.517-0.929-0.781-1.406c-0.322-0.434-0.621-0.907-0.994-1.316c-0.369-0.416-0.735-0.844-1.159-1.212
			c-0.015-0.014-0.031-0.026-0.046-0.041c1.548-0.842,4.26-1.931,7.218-1.339c2.647,0.529,5.078,2.37,6.504,4.922
			c1.36,2.435,1.604,5.2,0.724,7.826c-0.471,0.119-0.937,0.252-1.383,0.433c-0.628,0.244-1.23,0.54-1.805,0.883
			c-0.568,0.351-1.119,0.73-1.594,1.206c1.3-0.279,2.543-0.515,3.768-0.687c0.616-0.063,1.218-0.157,1.822-0.167
			c0.3-0.035,0.599-0.029,0.896-0.032c0.298-0.013,0.593,0.001,0.884,0.029c0.59,0.009,1.157,0.123,1.721,0.229l0.82,0.24
			c0.272,0.077,0.518,0.224,0.778,0.328c0.265,0.1,0.507,0.241,0.739,0.401c0.23,0.161,0.49,0.272,0.703,0.459l0.648,0.541
			l0.143,0.116l0.033,0.035l0.08,0.091l0.317,0.36c0.501,0.499,0.673,0.929,0.954,1.348c0.21,0.495,0.501,0.982,0.619,1.539
			c0.185,0.529,0.26,1.102,0.351,1.669c0.037,0.58,0.116,1.157,0.082,1.753c0.011,0.591-0.065,1.188-0.114,1.786
			c-0.078,0.598-0.16,1.197-0.287,1.795c-0.121,0.598-0.269,1.191-0.439,1.78c-0.174,0.577-0.35,1.196-0.553,1.722l-0.973,2.511
			l2.301-1.188l0.002-0.001c0.433-0.164,0.951-0.323,1.432-0.464c0.492-0.13,0.986-0.25,1.48-0.316
			c0.492-0.076,0.979-0.124,1.451-0.126c0.475-0.011,0.924,0.052,1.346,0.147c0.207,0.059,0.394,0.142,0.592,0.206
			c0.164,0.112,0.354,0.188,0.507,0.311c0.132,0.145,0.313,0.231,0.431,0.397c0.103,0.151,0.293,0.332,0.342,0.45
			c0.11,0.228,0.299,0.514,0.347,0.695c0.054,0.199,0.146,0.347,0.19,0.587c0.119,0.449,0.199,0.928,0.235,1.431
			c0.083,1.008,0.004,2.077,0.065,3.26c0.059,0.597,0.072,1.24,0.451,1.934c0.351,0.692,1.142,1.193,1.807,1.266
			c0.663,0.103,1.293,0.031,1.812-0.036c0.537-0.042,1.102-0.147,1.666-0.266c0.28-0.046,0.555-0.125,0.825-0.214
			c0.271-0.083,0.541-0.16,0.802-0.28c0.521-0.198,1.051-0.474,1.424-0.889c-0.478,0.277-1.006,0.401-1.539,0.477
			c-0.528,0.083-1.073,0.106-1.602,0.113c-0.525,0.013-1.055-0.001-1.613-0.037c-0.576-0.012-1.055-0.062-1.463-0.185
			c-0.425-0.123-0.597-0.34-0.717-0.633c-0.123-0.297-0.14-0.789-0.127-1.277c0.049-1.012,0.199-2.135,0.18-3.319
			c-0.006-0.593-0.059-1.207-0.188-1.827c-0.048-0.302-0.19-0.659-0.294-0.983c-0.115-0.344-0.238-0.521-0.357-0.788
			c-0.373-0.672-0.787-1.175-1.361-1.625c-0.276-0.216-0.594-0.369-0.895-0.547c-0.316-0.12-0.637-0.253-0.958-0.342
			c-0.646-0.156-1.29-0.234-1.913-0.227c-0.623,0.002-1.234,0.053-1.818,0.179c-0.404,0.074-0.793,0.177-1.18,0.288
			c0.184-0.551,0.36-1.104,0.508-1.669c0.174-0.652,0.301-1.318,0.424-1.988c0.084-0.678,0.173-1.356,0.18-2.052
			c0.046-0.688-0.012-1.393-0.068-2.091c-0.052-0.334-0.104-0.667-0.166-1c0.123-0.09,0.27-0.196,0.469-0.335
			c0.537-0.384,1.357-0.865,2.363-1.341c0.504-0.237,1.064-0.446,1.664-0.61c0.602-0.166,1.239-0.252,1.898-0.312
			c0.326,0.004,0.66,0.006,0.998,0.024c0.328,0.068,0.673,0.08,1.006,0.169c0.324,0.113,0.676,0.164,0.995,0.32
			c0.298,0.149,0.698,0.3,0.925,0.442c0.326,0.218,0.732,0.432,0.991,0.65c0.249,0.233,0.53,0.405,0.77,0.677
			c0.503,0.515,0.964,1.071,1.32,1.682c0.362,0.604,0.683,1.227,0.911,1.854c0.248,0.62,0.424,1.239,0.55,1.818
			c0.132,0.579,0.233,1.121,0.302,1.605c0.075,0.486,0.11,0.914,0.135,1.269c0.049,0.708,0.047,1.12,0.047,1.12
			s0.121-0.394,0.234-1.107c0.053-0.357,0.11-0.794,0.143-1.3c0.037-0.505,0.064-1.082,0.012-1.709
			c-0.033-0.629-0.112-1.314-0.27-2.031c-0.084-0.416-0.203-0.845-0.348-1.277c7.745,2.488,13.939,4.673,16.784,5.924l0.108-0.247
			c0.061,0.233,0.125,0.465,0.185,0.698c0.085,0.331,0.165,0.663,0.25,0.994c-0.651-0.19-1.438-0.373-2.364-0.45
			c-0.67-0.065-1.402-0.07-2.173-0.008s-1.575,0.2-2.388,0.418c-0.403,0.116-0.805,0.261-1.215,0.395
			c-0.412,0.159-0.827,0.35-1.238,0.538c-0.379,0.193-0.717,0.396-1.078,0.597c-0.445,0.256-0.771,0.532-1.159,0.801
			c-0.712,0.586-1.338,1.267-1.854,1.994c-0.514,0.73-0.891,1.517-1.197,2.284c-0.295,0.771-0.486,1.54-0.622,2.267
			c-0.13,0.729-0.194,1.421-0.218,2.058c-0.051,1.271,0.084,2.318,0.18,3.041c0.11,0.723,0.229,1.122,0.229,1.122
			s0.014-0.417,0.08-1.133c0.057-0.715,0.209-1.73,0.474-2.905c0.137-0.587,0.319-1.209,0.532-1.852
			c0.227-0.638,0.513-1.284,0.842-1.922c0.343-0.631,0.761-1.231,1.227-1.79c0.475-0.552,1.021-1.041,1.619-1.446
			c0.303-0.178,0.624-0.415,0.896-0.55c0.367-0.174,0.744-0.369,1.095-0.521c0.332-0.126,0.661-0.251,0.987-0.374
			c0.348-0.101,0.688-0.213,1.027-0.302c0.684-0.153,1.348-0.28,1.985-0.335c0.64-0.048,1.245-0.068,1.806-0.036
			c0.557,0.028,1.071,0.081,1.521,0.154c0.451,0.067,0.838,0.161,1.152,0.245c0.181,0.051,0.332,0.094,0.463,0.132
			c0.621,2.445,1.242,4.89,1.843,7.338C344.485,157.176,344.243,157.316,344.001,157.457 M277.6,135.543
			c-0.515-0.719-1.188-1.381-2.212-1.858c-0.197-0.083-0.396-0.167-0.598-0.252l-0.149-0.062l-0.075-0.03l-0.099-0.03l-0.025-0.006
			l-0.052-0.012l-0.418-0.089c-0.28-0.07-0.566-0.097-0.859-0.095c-0.296-0.02-0.582-0.001-0.863,0.044
			c-1.139,0.16-2.117,0.584-2.989,0.978c-0.88,0.391-1.681,0.76-2.47,0.971c-0.783,0.213-1.562,0.3-2.348,0.146
			c-0.205-0.007-0.365-0.081-0.554-0.115c-0.185-0.048-0.351-0.06-0.584-0.169l-0.649-0.261l-0.154-0.062l-0.02-0.01l-0.066-0.037
			l-0.265-0.145c-0.737-0.353-1.3-0.858-1.799-1.372c-0.458-0.546-0.8-1.144-1.024-1.758c-0.42-1.242-0.42-2.453-0.355-3.285
			c0.08-0.837,0.195-1.324,0.195-1.324s-0.31,0.396-0.644,1.214c-0.171,0.406-0.353,0.921-0.462,1.544
			c-0.129,0.621-0.143,1.351-0.059,2.162c0.14,0.8,0.423,1.676,0.951,2.488c0.555,0.771,1.258,1.547,2.129,2.075l0.319,0.217
			l0.08,0.056l0.041,0.026l0.021,0.014l0.076,0.039l0.153,0.081l0.621,0.323c0.185,0.113,0.481,0.21,0.746,0.311
			c0.271,0.089,0.55,0.22,0.823,0.261c1.086,0.297,2.306,0.268,3.41,0.044c2.223-0.482,3.912-1.721,5.26-1.953
			c0.169-0.045,0.33-0.085,0.484-0.081c0.158-0.018,0.313-0.053,0.463-0.02l0.203-0.038l0.008,0.115l0.078,0.021l0.156,0.043
			c0.201,0.058,0.426,0.112,0.602,0.169c0.514,0.193,1.119,0.521,1.541,0.917c0.455,0.391,0.793,0.871,1.054,1.343
			c0.258,0.474,0.455,0.934,0.584,1.328c0.272,0.792,0.36,1.302,0.36,1.302s0.052-0.116,0.125-0.346
			c0.078-0.229,0.16-0.572,0.211-1.024c0.059-0.453,0.062-1.018-0.049-1.671C278.354,137.015,278.097,136.265,277.6,135.543
			 M273.812,135.448l0.024-0.114h0.015C273.823,135.334,273.899,135.453,273.812,135.448 M142.739,165.834
			c1.923,1.275,4.222,1.95,6.649,1.95c5.029,0,10.346-2.761,14.973-7.771c3.269-3.542,5.141-6.566,6.645-8.995
			c1.717-2.773,2.958-4.778,5.341-6.052c5.289-2.827,11.023-8.32,11.112-13.699c0.045-2.69-0.863-5.12-2.556-6.842
			c-2.095-2.13-5.267-3.067-9.049-2.669c-6.917,0.732-14.407,6.163-20.425,10.526l-1.138,0.824
			c-11.498,8.301-17.504,16.305-17.37,23.146C136.996,160.044,139.008,163.356,142.739,165.834 M140.562,161.077
			c-0.021-0.191-0.041-0.475-0.041-0.845c2.703-3.726,15.198-19.94,36.714-33.151c1.139-0.182,2.336-0.273,3.486-0.177
			c-15.852,10.32-25.607,19.552-31.019,25.532c-4.647,5.134-6.94,8.732-7.788,10.195
			C141.394,162.138,140.947,161.617,140.562,161.077 M140.684,158.344c0.495-3.073,2.381-8.185,8.856-13.928
			c11.274-10.004,20.874-15.688,24.089-16.531c0.237-0.062,0.494-0.129,0.76-0.196C156.035,139.487,144.625,153.172,140.684,158.344
			 M175.405,143.202c-2.859,1.527-4.289,3.839-6.1,6.763c-1.459,2.356-3.274,5.29-6.414,8.69c-1.457,1.579-2.981,2.908-4.533,3.981
			c3.049-5.239,11.823-18.733,25.286-26.538C181.724,138.904,178.546,141.522,175.405,143.202 M184.625,134.409
			c-16.275,8.712-26.161,25.864-28.035,29.328c-1.702,0.946-3.421,1.573-5.114,1.86c2.835-4.749,14.729-23.217,33.954-34.04
			C185.365,132.494,185.083,133.453,184.625,134.409 M185.227,129.084c0.101,0.427,0.174,0.868,0.208,1.325
			c-20.799,11.494-33.227,31.916-35.21,35.346c-0.28,0.02-0.559,0.029-0.837,0.029c-1.208,0-2.339-0.21-3.401-0.58
			c2.691-3.904,17.449-24.39,38.724-36.692C184.893,128.686,185.064,128.877,185.227,129.084 M145.031,164.832
			c-0.408-0.193-0.804-0.412-1.185-0.664c-0.415-0.275-0.802-0.562-1.165-0.855c1.661-2.878,11.299-18.006,39.494-36.163
			c0.594,0.157,1.157,0.391,1.674,0.71C162.204,140.515,147.337,161.457,145.031,164.832 M138.92,156.214
			c-0.119-6.069,5.755-13.698,16.54-21.486l1.142-0.826c5.825-4.224,13.075-9.48,19.462-10.156c0.505-0.054,1.002-0.08,1.478-0.08
			c2.122,0,3.921,0.547,5.27,1.584c-3.418-0.939-7.407,0.104-9.69,0.701c-4.035,1.057-14.455,7.692-24.911,16.97
			c-6.061,5.378-8.402,10.277-9.253,13.739C138.948,156.511,138.924,156.365,138.92,156.214 M182.378,157.283
			c-0.535-0.141-1.085-0.212-1.634-0.212c-5.334,0-9.6,6.5-11.668,10.375c-3.795,7.109-3.117,11.059-1.882,13.119
			c1.075,1.791,3.017,2.818,5.331,2.818c1.195,0,2.463-0.276,3.665-0.799c6.166-2.682,7.455-6.316,9.794-12.917
			c1.665-4.697,1.921-7.413,0.884-9.372C186.109,158.861,184.642,157.877,182.378,157.283 M170.841,168.389
			c1.167-2.187,5.329-9.317,9.904-9.317c0.378,0,0.757,0.049,1.127,0.146c1.625,0.427,2.626,1.026,3.143,1.875
			c-0.795-0.424-1.785-0.722-3.011-0.986c-3.012-0.649-6.288,2.116-10.315,8.706c-1.789,2.927-2.788,6.849-3.291,9.419
			C167.98,176.471,168.159,173.415,170.841,168.389 M170.011,180.687c0.224-1.568,1.154-7.18,3.385-10.831
			c2.081-3.406,3.749-5.409,5.074-6.539c-4.944,7.028-7.282,14.868-7.999,17.63C170.31,180.869,170.156,180.782,170.011,180.687
			 M172.525,181.384c-0.39,0-0.758-0.04-1.106-0.114c0.733-2.85,3.38-11.82,9.219-19.188c0.36-0.082,0.674-0.079,0.942-0.021
			c0.087,0.02,0.164,0.038,0.247,0.056c-4.594,5.681-8.072,16.205-9.015,19.25C172.717,181.371,172.62,181.384,172.525,181.384
			 M175.394,180.751c-0.49,0.213-0.99,0.372-1.486,0.479c1.126-3.528,4.621-13.694,8.992-18.835
			c0.537,0.162,0.947,0.329,1.263,0.511c-4.786,6.579-6.802,14.568-7.359,17.156C176.366,180.298,175.905,180.527,175.394,180.751
			 M184.1,169c-1.863,5.256-2.903,8.188-6.111,10.356c0.751-3.145,2.751-10.014,6.926-15.786c0.203,0.301,0.311,0.646,0.4,1.06
			l0.013-0.003C185.125,165.805,184.728,167.229,184.1,169 M185.585,106.444c2.64,0.609,4.762,3.323,4.784,3.351
			c0.147,0.191,0.369,0.292,0.594,0.292c0.16,0,0.321-0.052,0.457-0.156c0.328-0.253,0.389-0.723,0.137-1.051
			c-0.099-0.129-2.465-3.165-5.634-3.897c-0.404-0.091-0.806,0.159-0.9,0.562C184.932,105.948,185.183,106.351,185.585,106.444
			 M193.417,104.084c0.072,0,0.145-0.011,0.217-0.032c0.397-0.119,0.621-0.538,0.501-0.935c-0.653-2.16-1.505-5.573-1.355-6.398
			c0.075-0.408-0.196-0.798-0.603-0.872c-0.409-0.075-0.798,0.196-0.872,0.603c-0.269,1.479,1.115,6.176,1.395,7.102
			C192.796,103.875,193.095,104.084,193.417,104.084 M204.231,103.267c0.61,0.277,1.017,1.179,1.286,1.775
			c0.282,0.626,0.527,1.167,1.15,1.167c0.414,0,0.75-0.335,0.75-0.75c0-0.264-0.137-0.495-0.342-0.63
			c-0.054-0.102-0.131-0.271-0.191-0.404c-0.361-0.801-0.908-2.013-2.032-2.523c-0.377-0.172-0.822-0.005-0.993,0.372
			C203.688,102.65,203.854,103.096,204.231,103.267 M123.753,164.989l-4.25-1.25c-0.395-0.114-0.814,0.11-0.931,0.509
			c-0.117,0.396,0.111,0.813,0.508,0.931l4.25,1.25c0.07,0.021,0.142,0.03,0.212,0.03c0.324,0,0.623-0.211,0.719-0.538
			C124.378,165.523,124.15,165.106,123.753,164.989 M127.542,157.834c0.211,0,0.42-0.089,0.568-0.261
			c0.271-0.313,0.236-0.787-0.078-1.057c-0.926-0.799-3.291-3.25-3.118-4.983c0.041-0.412-0.26-0.779-0.672-0.82
			c-0.417-0.048-0.78,0.259-0.821,0.672c-0.28,2.807,3.23,5.922,3.632,6.267C127.193,157.774,127.369,157.834,127.542,157.834
			 M130.627,161.414c-0.081-0.041-1.99-0.982-3.709-0.694c-0.408,0.067-0.685,0.454-0.616,0.863c0.068,0.408,0.45,0.681,0.863,0.615
			c1.234-0.199,2.777,0.551,2.792,0.558c0.107,0.053,0.221,0.078,0.333,0.078c0.276,0,0.541-0.152,0.672-0.416
			C131.147,162.048,130.998,161.599,130.627,161.414 M122.281,183.334c-1.613,0.024-6.982,0.182-8.304,1.144
			c-0.336,0.244-0.41,0.712-0.166,1.047c0.147,0.203,0.376,0.31,0.607,0.31c0.153,0,0.308-0.047,0.44-0.144
			c0.644-0.468,4.366-0.809,7.446-0.856c0.414-0.007,0.745-0.348,0.739-0.762C123.036,183.658,122.684,183.353,122.281,183.334
			 M220.458,144.43c2.536,0.739,3.207,3.121,3.234,3.222c0.09,0.336,0.393,0.558,0.725,0.558c0.063,0,0.127-0.008,0.19-0.024
			c0.401-0.104,0.641-0.514,0.536-0.915c-0.035-0.134-0.896-3.298-4.265-4.281c-0.398-0.111-0.814,0.112-0.931,0.511
			C219.832,143.896,220.06,144.312,220.458,144.43 M203.716,180.137c0.134,0.257,0.395,0.404,0.666,0.404
			c0.117,0,0.235-0.028,0.346-0.085c0.367-0.191,0.51-0.645,0.318-1.013l-2.427-4.662c-0.191-0.366-0.645-0.51-1.012-0.318
			c-0.367,0.19-0.51,0.644-0.318,1.012L203.716,180.137z M210.707,172.505c0.108,0.054,0.222,0.079,0.335,0.079
			c0.275,0,0.54-0.151,0.671-0.414c0.186-0.371,0.036-0.821-0.335-1.006c-0.008-0.005-0.85-0.448-1.158-1.416
			c-0.252-0.79-0.089-1.735,0.484-2.812c0.195-0.365,0.057-0.819-0.308-1.014c-0.366-0.195-0.82-0.058-1.015,0.308
			c-0.771,1.446-0.97,2.783-0.59,3.973C209.293,171.783,210.648,172.477,210.707,172.505 M206.889,176.817
			c0.051,0.011,0.103,0.017,0.155,0.017c0.347,0,0.658-0.242,0.732-0.596c0.112-0.529,1.025-5.236-1.24-7.219
			c-0.311-0.271-0.785-0.241-1.058,0.071c-0.273,0.311-0.241,0.785,0.071,1.058c1.365,1.194,1.011,4.579,0.76,5.782
			C206.224,176.336,206.482,176.732,206.889,176.817 M357.96,176.589c-2.446,0.271-5.519,2.811-5.648,2.919
			c-0.316,0.265-0.359,0.737-0.096,1.056c0.148,0.178,0.361,0.271,0.578,0.271c0.168,0,0.338-0.058,0.478-0.174
			c0.788-0.655,3.196-2.396,4.854-2.581c0.41-0.046,0.707-0.415,0.662-0.828C358.743,176.84,358.378,176.547,357.96,176.589
			 M367.222,176.97c-0.34-0.239-0.807-0.156-1.044,0.184c-1.622,2.317-3.729,3.514-3.751,3.526c-0.361,0.202-0.491,0.658-0.289,1.02
			c0.137,0.246,0.393,0.385,0.656,0.385c0.123,0,0.248-0.03,0.363-0.095c0.096-0.054,2.422-1.363,4.25-3.975
			C367.644,177.675,367.562,177.207,367.222,176.97 M365.724,183.337l-5.5,0.5c-0.412,0.038-0.716,0.402-0.68,0.814
			c0.037,0.391,0.363,0.683,0.748,0.683c0.021,0,0.045-0.001,0.068-0.002l5.5-0.5c0.412-0.038,0.717-0.403,0.68-0.815
			C366.503,183.604,366.141,183.295,365.724,183.337 M321.439,113.995c0.112,0.061,0.231,0.089,0.353,0.089
			c0.268,0,0.526-0.145,0.662-0.397l2-3.75c0.194-0.365,0.057-0.819-0.31-1.014c-0.364-0.196-0.817-0.057-1.015,0.308l-2,3.75
			C320.936,113.347,321.073,113.801,321.439,113.995"/>
	</g>
</g>
</svg>
