<svg id="Layer_1" xmlns="http://www.w3.org/2000/svg" viewBox="-152 341 305.8 112"><style>.nav-eye-18-st-0{fill:#0b3746}.nav-eye-18-st-1{fill:#f0a732}.nav-eye-18-st-2{fill:#fcdca4}.nav-eye-18-st-3{fill:#d72050}.nav-eye-18-st-4{fill:#75a08a}</style><path class="nav-eye-18-st-0" d="M29.4 391c25.7-6 97.6-22.7 97.6-22.7s-12.6-13.3-33.4-7.7C80 364.3 54.5 381.7 29.4 391zM-3 391c-25.7-6-97.6-22.7-97.6-22.7s12.6-13.3 33.4-7.7C-53.6 364.3-28 381.7-3 391zM-17.6 422.2s-14.3-1.5-40.5-12.3c-21-8.8-38.5-23.8-38.5-23.8s-4 42.1 24.7 54.4c30.4 12.9 54.3-18.3 54.3-18.3z"/><path class="nav-eye-18-st-1" d="M-61.8 420.3l15.5-15.4-15.5-31.4-15.5 31.4z"/><path class="nav-eye-18-st-1" d="M-75.3 414.8l15.4-15.4-15.4-31.4-15.5 31.4z"/><path class="nav-eye-18-st-1" d="M-83.1 408.6l11-10.1-15.5-31.4-9 19z"/><path class="nav-eye-18-st-2" d="M-17.6 422.2s-6.5-18-32.6-28.8c-21-8.8-46.4-7.3-46.4-7.3s.9 26.9 29.7 39.2c30.3 13 49.3-3.1 49.3-3.1z"/><path class="nav-eye-18-st-3" d="M-49.4 393.7c2.6 4.4 4.9 9.9 4.9 16 0 8-4 15.2-7.5 19.9-3.7-.6-7.7-1.6-11.9-3.2-2.8-4.5-5.3-10.3-5.3-16.7 0-8.2 4.1-15.4 7.6-20.1 3.8 1 7.7 2.2 11.4 3.8.2.1.5.2.8.3z"/><g><path class="nav-eye-18-st-0" d="M48.2 422.2s14.3-1.5 40.5-12.3c21-8.8 38.5-23.8 38.5-23.8s4 42.1-24.7 54.4c-30.4 12.9-54.3-18.3-54.3-18.3z"/><path class="nav-eye-18-st-1" d="M92.4 420.3l-15.5-15.4 15.5-31.4 15.5 31.4z"/><path class="nav-eye-18-st-1" d="M106 414.8l-15.5-15.4L106 368l15.4 31.4z"/><path class="nav-eye-18-st-1" d="M113.7 408.6l-10.9-10.1 15.4-31.4 9 19z"/><path class="nav-eye-18-st-2" d="M48.2 422.2s6.5-18 32.6-28.8c21-8.8 46.4-7.3 46.4-7.3s-.9 26.9-29.7 39.2c-30.3 13-49.3-3.1-49.3-3.1z"/><path class="nav-eye-18-st-3" d="M80.1 393.7c-2.6 4.4-4.9 9.9-4.9 16 0 8 4 15.2 7.5 19.9 3.7-.6 7.7-1.6 11.9-3.2 2.8-4.5 5.3-10.3 5.3-16.7 0-8.2-4.1-15.4-7.6-20.1-3.8 1-7.7 2.2-11.4 3.8-.3.1-.6.2-.8.3z"/></g><g><path class="nav-eye-18-st-4" d="M47.4 366H34.7c0-4 2.8-7.5 6.3-7.5s6.4 3.5 6.4 7.5z"/><path class="nav-eye-18-st-1" d="M40.7 350.4h1v10.3h-1zM45.26 353.332l.964.262-2.697 9.94-.965-.26zM35.85 356.792l.95-.31 1.98 6.086-.95.31z"/></g><path class="nav-eye-18-st-4" d="M-110 405.7v12.7c-4 0-7.5-2.8-7.5-6.3s3.5-6.4 7.5-6.4z"/><path class="nav-eye-18-st-1" d="M-125.6 411.4h10.3v1h-10.3zM-122.65 407.84l.263-.966 9.94 2.697-.262.966zM-119.224 417.292l-.31-.95 6.086-1.98.31.95z"/></svg>