<svg xmlns="http://www.w3.org/2000/svg" width="480" height="210" viewBox="0 0 480 210"><defs><path id="a" d="M116.312 89.38h247.375V210H116.312z"/></defs><path clip-path="url(#b)" fill="#D72251" d="M224.837 162.353s15.345-1.566 16.74-2.35c0 0 0-25.168.465-28.523.465-3.356 2.79-16.108 2.79-16.108s.814 18.568.93 23.38c.116 4.81.233 18.232.233 18.232s20.46 1.79 30.225.447c0 0-5.93 4.588-29.18 6.49l-1.976 23.824-3.14-21.14-4.765-2.462-12.323-1.79z"/><path clip-path="url(#beast-crown-11-id-2)" fill="#EE6372" d="M212.79 160.14s14.242 2.658 13.923 2.658c-.32 0 14.877-2.454 14.877-2.454s.638-22.292.53-24.747c-.104-2.454 3.083-15.543 2.765-18.202-.32-2.658-2.23-16.872-2.23-16.872s-1.914 18.713-2.445 20.45c-.53 1.74-2.55 18.92-2.125 21.782.424 2.863-.744 15.134-.744 15.134s-20.617 2.555-24.55 2.25M238.402 164.434l3.523 2.17 3.172 23.19s-.744 9.61-1.063 9.51c-.32-.104-4.888-27.917-5.632-34.87"/><path clip-path="url(#beast-crown-11-id-2)" fill="#0C3846" d="M277.465 156.193c-2.737.49-6.842.74-12.205.74-7.584 0-15.562-.51-18.166-.69-.125-3.865-.607-19.457-.527-27.415.093-9.245-2.723-31.585-2.988-33.08l-1.13-6.367-.81 6.417c-.044.35-.083 1.21-.16 2.972-.24 5.492-.736 16.926-2.242 24.036-1.785 8.42-2.478 29.943-2.603 34.3-6.08 1.428-19.56 1.587-25.237 1.587-1.497 0-2.402-.012-2.406-.012l-7.997-.1 7.736 2.03c10.668 2.8 24.97 4.335 28.517 4.687.89 9.38 5.857 35.77 6.074 36.92l1.47 7.783.475-7.905c.006-.095.354-5.882.707-11.45l.046-.013c-.013-.05-.024-.102-.035-.15.22-3.477.44-6.843.582-8.663.313-4.08 1.024-14.026 1.24-17.02 20.49-1.096 29.937-6.562 30.335-6.798l4.674-2.768-5.35.96zm-36.31-32.982c.955-4.498 1.51-10.634 1.853-15.973.254 2.334.515 4.85.748 7.36a.788.788 0 0 1-.05-.212c.022.633-.675 5.51-1.235 9.43-.376 2.634-.757 5.302-1.015 7.29-.635 4.874-.734 21.935-.75 27.465l-2.113-1.248c.11-3.806.812-25.844 2.564-34.11m-23.38 37.377c6.63-.137 15.214-.54 19.667-1.667l1.655.978c-3.69.622-10.816 1.28-15.744 1.64a200.79 200.79 0 0 1-5.577-.95m26.02 33.37c-1.506-8.333-3.738-21.13-4.477-27.703l1.432.87c.27 2.81 1.633 16.436 3.254 23.516l-.21 3.318m3.044-31.077l-.87.04-.063.87s-.928 13.048-1.3 17.874l-.06.784c-1.09-7.51-1.876-15.878-1.89-15.996l-.044-.49-3.522-2.14-.022-.327-.828-.075c-.062-.006-2.48-.227-6.11-.668 4.317-.43 8.86-.997 10.15-1.57l.782-.26v-.637c0-.232-.19-23.335.536-28.928.258-1.984.438-4.644.813-7.268l.048-.325c.104 1.904.16 3.63.146 5.04-.093 9.126.55 28.192.558 28.384l.03.88.875.065c.1.008 9.933.76 19.192.76 2.18 0 4.16-.042 5.937-.124-4.925 1.638-12.968 3.583-24.357 4.113m114.156 26.393a100.98 100.98 0 0 0-3.17-1.554 121.742 121.742 0 0 0-4.208-1.81 85.385 85.385 0 0 0-5.083-1.897 130.722 130.722 0 0 0-5.79-1.8c-1.018-.27-2.048-.564-3.1-.825-1.06-.24-2.13-.485-3.208-.73l-3.303-.64-3.3-.5a90.978 90.978 0 0 0-6.698-.644c-2.207-.148-4.387-.178-6.49-.178-2.107-.01-4.143.083-6.064.195a89.975 89.975 0 0 0-5.41.497c-1.668.21-3.19.442-4.537.67-1.348.212-2.51.475-3.467.685-1.912.418-2.98.758-2.98.758s1.113-.113 3.055-.266c1.945-.122 4.713-.334 8.038-.4 1.662-.04 3.46-.08 5.36-.068 1.9-.016 3.903.038 5.97.103 2.068.058 4.202.213 6.366.365 2.157.15 4.37.406 6.528.633 1.103.148 2.205.295 3.303.44 1.078.17 2.152.34 3.216.51 1.065.2 2.124.4 3.17.6 1.04.22 2.07.436 3.083.648 2.02.458 3.964.944 5.798 1.45 1.828.52 3.56 1.012 5.15 1.5a157.22 157.22 0 0 1 7.614 2.61c1.818.695 2.85 1.124 2.85 1.124s-.95-.59-2.692-1.476M305 164.576c1.942-.052 3.916-.137 5.89-.115l2.956-.03c.984.016 1.962.03 2.934.047l2.887.046 2.814.114 2.726.11c.89.062 1.758.12 2.604.176 1.694.115 3.3.202 4.772.37 1.48.14 2.834.265 4.035.376l3.102.398 2.718.31s-.962-.25-2.645-.692l-3.056-.754c-1.19-.236-2.537-.49-4.01-.75-1.47-.296-3.076-.506-4.778-.707l-2.62-.33c-.896-.092-1.814-.144-2.746-.22l-2.843-.215c-.96-.058-1.934-.078-2.916-.108l-2.965-.082-2.99.007c-1.995 0-3.987.107-5.95.182-1.96.072-3.885.276-5.75.403-1.858.188-3.656.368-5.353.6-1.7.215-3.3.454-4.774.708-2.95.475-5.38 1.035-7.078 1.407-1.698.392-2.652.678-2.652.678l2.715-.31c1.725-.208 4.195-.43 7.154-.68l4.78-.373c1.69-.143 3.485-.194 5.33-.335 1.853-.075 3.765-.178 5.708-.232m-8.05-12.934c1.5.082 3.046.258 4.62.346 1.572.14 3.168.28 4.764.42 1.59.168 3.19.29 4.752.493 1.56.207 3.112.316 4.592.556 1.48.236 2.934.355 4.285.608 1.353.243 2.65.392 3.83.622 1.185.22 2.27.42 3.232.597.963.18 1.79.387 2.482.528l2.18.444s-.744-.312-2.062-.83c-.664-.244-1.457-.597-2.398-.893l-3.17-.984c-1.166-.352-2.45-.648-3.805-.98-1.353-.347-2.797-.608-4.29-.895-1.495-.3-3.05-.508-4.628-.75-1.582-.227-3.195-.375-4.805-.568-3.23-.283-6.46-.504-9.496-.547a87.96 87.96 0 0 0-4.374-.018c-1.39.002-2.705.06-3.917.115-4.85.213-8.056.727-8.056.727l8.05.478 8.213.533m-122.247-1.5c1.76.124 3.586.237 5.445.282 1.87.05 3.76.03 5.627.015a74.21 74.21 0 0 1 5.495.233c1.82.137 3.617.287 5.35.49 1.734.208 3.415.393 5.003.62l4.476.656c2.768.44 5.072.855 6.682 1.174 1.613.308 2.53.52 2.53.52l-.628-.25c-.41-.162-1.01-.408-1.792-.673a76.502 76.502 0 0 0-6.55-1.957c-1.37-.344-2.86-.71-4.45-1.026-1.59-.324-3.27-.66-5.023-.917-1.752-.268-3.57-.522-5.427-.694a74.726 74.726 0 0 0-5.686-.314c-1.885.004-3.746.074-5.57.043-1.835-.035-3.642-.072-5.39-.107l-9.592-.29c-5.623-.18-9.392-.19-9.392-.19s3.697.744 9.296 1.437c2.796.353 6.07.7 9.593.946m-40.168 25.628c1.93-.21 4.025-.404 6.242-.534 2.216-.153 4.557-.21 6.975-.222 2.414.036 4.92.118 7.43.31 2.585.193 5.102.494 7.676.807 2.57.304 5.133.7 7.66 1.095 2.527.37 5.015.776 7.424 1.176 4.814.817 9.34 1.512 13.25 1.96 1.958.202 3.756.38 5.36.446 1.602.086 3.005.1 4.16.05l1.536-.078 1.13-.145.934-.128-.94-.07c-.305-.02-.68-.048-1.12-.078-.44-.057-.944-.12-1.51-.192a26.065 26.065 0 0 1-1.86-.27c-.676-.116-1.406-.208-2.184-.367a212.336 212.336 0 0 1-5.217-1.016l-6.172-1.266c-2.196-.443-4.51-.92-6.92-1.36-2.41-.45-4.9-.913-7.446-1.34a179.29 179.29 0 0 0-7.76-1.09c-2.6-.336-5.283-.515-7.824-.65-1.315-.088-2.595-.076-3.873-.115-1.274-.006-2.532.04-3.77.056-2.47.11-4.856.263-7.107.51-2.25.258-4.37.54-6.307.923-1.942.342-3.7.77-5.255 1.152-1.547.415-2.888.8-3.976 1.173-2.184.715-3.383 1.25-3.383 1.25s1.28-.28 3.526-.68c2.248-.382 5.46-.89 9.322-1.307m70.033 20.41c-.636.01-1.334.057-2.097.036l-2.464-.057-2.795-.208c-.98-.093-2.01-.248-3.083-.368l-3.342-.493-3.57-.628-7.713-1.484c-2.676-.546-5.474-1.006-8.323-1.47-2.865-.42-5.763-.804-8.728-1.066-1.484-.168-2.918-.207-4.374-.316-1.51-.044-2.957-.115-4.42-.102-1.453.04-2.9.02-4.318.14l-2.116.14-2.075.225c-1.376.133-2.716.34-4.026.547-1.313.187-2.585.434-3.827.654-2.48.462-4.81.95-6.946 1.46a192.19 192.19 0 0 0-5.8 1.494c-1.72.47-3.203.933-4.424 1.31-2.44.768-3.814 1.262-3.814 1.262s1.415-.36 3.91-.893c1.25-.25 2.768-.557 4.51-.908 1.742-.334 3.71-.69 5.864-1.035 2.155-.334 4.486-.703 6.96-.997 2.475-.303 5.09-.556 7.792-.737 2.7-.2 5.49-.34 8.32-.37 1.406-.014 2.853.054 4.245.097 1.438.133 2.922.202 4.333.39 2.842.29 5.715.77 8.52 1.246 2.818.464 5.58 1.01 8.282 1.442 2.694.463 5.318.88 7.822 1.193 1.25.167 2.477.29 3.658.412l3.44.25c1.11.025 2.168.064 3.177.06 1.01-.03 1.966-.055 2.865-.08l2.51-.21c.773-.087 1.477-.234 2.112-.33 1.274-.18 2.25-.473 2.914-.638.663-.175 1.016-.27 1.016-.27l-1.05.092c-.685.033-1.668.213-2.944.206"/></svg>