<svg id="Layer_1" xmlns="http://www.w3.org/2000/svg" viewBox="-65 292 480 210"><style>.beast-crown-12-st-0{display:none}.beast-crown-12-st-1{display:inline;fill:#0e5941}.beast-crown-12-st-2{fill:#fcdca4}.beast-crown-12-st-3{fill:#0b3746}.beast-crown-12-st-4{fill:#f0a732}.beast-crown-12-st-5{fill:none}.beast-crown-12-st-6{fill-rule:evenodd;clip-rule:evenodd;fill:#0d565f}.beast-crown-12-st-7{fill:#0d565f}.beast-crown-12-st-8{fill:#d72050}.beast-crown-12-st-9{fill:#d72051}</style><path class="beast-crown-12-st-0 beast-crown-12-st-1" d="M328 749.4c0 84.3-68.3 152.6-152.6 152.6h-.7C90.3 902 22 833.7 22 749.4V525.6C22 441.3 90.3 373 174.6 373h.7c84.3 0 152.6 68.3 152.6 152.6v223.8z" id="Layer_1_1_"/><path class="beast-crown-12-st-2" d="M407.7 339.4s-37.9 58.9-156.7 54c0 0-14.9 71.5 33.4 71.9 48.3.4 104.1-57.7 123.3-125.9zM-57.7 358.9s34.6 52.1 146.4 45.7c0 0 12.7 63.8-32.7 65-45.4 1.2-96.9-49.9-113.7-110.7z"/><path class="beast-crown-12-st-3" d="M245 491.2h-.7s.2.1.7 0zM253.6 486.9s4.2-1.2 5.5-5.2c-1 2.2-2.7 4.1-5.5 5.2zM105.5 463.8c-2 .6-4.1 1.2-6.2 1.7 0 .1 3 0 6.2-1.7z"/><path class="beast-crown-12-st-3" d="M295.8 436.6c-3.3-3.9-13.8-4.8-18.4-7-8.2-4-13.3-11.7-21.6-15.3-15.1-6.6-33.2-2.7-48.6 1.2 33.8-14.7 41-44.7 41-44.7-10.1 27.8-33.6 41-48.6 46.9 20.7-15.4 25.6-35.9 25.6-35.9-6.6 18-18.7 29.9-30.6 37.7-4.9 1.6-8.2 2.3-8.6 2.3 1.8-.3 3.6-.7 5.3-1.1-4.8 1.8-9.6 3.6-14.6 4.5-3.9.7-7.9.9-11.8.2-1.8-.5-3.6-1-5.3-1.5-9.9-4.2-17.5-10.6-26.8-14.8-10.8-8.6-16.7-17.2-17.1-17.7 4.4 6.5 9 11.9 13.8 16.3-2.4-.9-5-1.7-7.8-2.2-13.7-2.6-28.2-1.6-41.8-.2-25.1 2.5-46.5 23.4-52.1 48.1-1.7 7.8-.9 15.9 1.6 23.4.9 2.8 3.6 6.1 4.1 8.9-6.4-37 30-36 30-36 34.8-15.3 50.6-5.7 48.7 5-.9 5-3.8 7.8-6.7 9.3 39-11.3 49.2-20.9 49.2-20.9-7.7 12.7 5.5 30.7 5.5 30.7-10.3-18 3.5-30 3.5-17.7s2.6 16.7 2.6 16.7c-6.4-27.7 26.8-30.3 17.4-26.7-9.3 3.7-9.3 8.3-9.3 8.3 3.2-6.7 57.4-28.3 43.5 19.3-2.7 9.1-5.9 16.5-9.5 22.3 4.5-6.3 9.2-13.5 15.3-21 18.7-23 28.7-13.3 34.2-2 1.9 3.9 2 6.8 1.3 8.8.2-.3.3-.6.4-.9-2.9 9.3-12 10.3-14.6 10.4 30.7-.5 18.8-32.7 40.6-36.7 21.9-4 27.7 44.7 27.7 44.7 4.1-40.1-15.2-60.1-17.5-62.7zM186 421.7zM115.6 391.3z"/><path class="beast-crown-12-st-4" d="M172 376.7s-17.1 2.3-24.5 30.2c0 0 2.8-23.2 15.5-30.3l15-.4-6 .5z"/><path class="beast-crown-12-st-4" d="M173 376.6s-11.9 2.1-17.4 22.7c0 0 2.2-17.1 11.1-22.5l10.5-.6-4.2.4z"/><path class="beast-crown-12-st-4" d="M176.7 376.5s-12 1.2-18.9 21.4c0 0 3.4-16.9 12.6-21.7l10.5.1-4.2.2z"/><circle class="beast-crown-12-st-2" cx="73.1" cy="454.9" r="1.8"/><path class="beast-crown-12-st-4" d="M233.5 470.6c3.2 1.4 6.3 1.4 6.3 1.4-2.2-.5-4.3-1-6.3-1.4z"/><path class="beast-crown-12-st-4" d="M309 453.6c-11.9-17.6-35.9-30.8-35.9-30.8s-69.2-5-85 9.6c-15.8 14.6-42.5-.3-63-2.5-20.4-2.2-43.8-5.2-55 5s-29 11-31.3 13.2c-2.3 2.2-22.1 18.7-17.8 51.7 0 0 5.9-40.2 28.3-36.9 22.2 3.3 10.1 29.9 41.5 30.3-2.6-.1-11.9-1-14.9-8.6.1.3.3.5.4.8-.7-1.7-.6-4.1 1.3-7.3 5.6-9.4 15.8-17.3 34.9 1.7 6.2 6.2 11.1 12.1 15.7 17.3-3.7-4.8-7-10.9-9.7-18.4-14.2-39.4 41.2-21.5 44.5-16 0 0 0-3.9-9.6-6.9-9.6-3 24.4-.8 17.8 22 0 0 2.6-3.6 2.6-13.8s14.2-.3 3.6 14.6c0 0 13.5-14.9 5.6-25.3 0 0 10.5 8 50.3 17.3-2.9-1.2-5.9-3.5-6.8-7.6-2-8.8 14.2-16.8 49.8-4.1 0 0 37.2-.8 30.7 29.7.1-.1 13.9-17.4 2-35z"/><circle class="beast-crown-12-st-2" cx="120.1" cy="452.9" r="1.8"/><circle class="beast-crown-12-st-2" cx="82.1" cy="460.9" r="1.8"/><circle class="beast-crown-12-st-2" cx="214.1" cy="442.9" r="1.8"/><circle class="beast-crown-12-st-2" cx="273.1" cy="446.9" r="1.8"/><circle class="beast-crown-12-st-2" cx="207.1" cy="462.9" r="1.8"/><circle class="beast-crown-12-st-2" cx="128.1" cy="384.9" r="1.8"/><circle class="beast-crown-12-st-2" cx="134.1" cy="384.9" r="1.8"/><circle class="beast-crown-12-st-2" cx="128.1" cy="389.9" r="1.8"/><circle class="beast-crown-12-st-2" cx="134.1" cy="389.9" r="1.8"/><circle class="beast-crown-12-st-2" cx="305.1" cy="468.9" r="1.8"/><path class="beast-crown-12-st-5" d="M-49.9 406.2v-2.3h-2.3v2.3z"/><path class="beast-crown-12-st-6" d="M-51.1 403.9c.6 0 1.1.5 1.1 1.1 0 .6-.5 1.1-1.1 1.1-.6 0-1.1-.5-1.2-1.1.1-.6.6-1.1 1.2-1.1z"/><path class="beast-crown-12-st-5" d="M-49.9 400.9s0-.6.1-1.1c0-.6.1-1.1.1-1.1l-2.3-.2s-.1.6-.1 1.2-.1 1.2-.1 1.2h2.3z"/><path class="beast-crown-12-st-6" d="M-50.9 398.5c.6.1 1.1.6 1 1.2 0 .6-.6 1.1-1.2 1.1s-1.1-.6-1.1-1.2c.1-.6.7-1.1 1.3-1.1z"/><path class="beast-crown-12-st-5" d="M-49.5 396.7s.1-.5.2-1.1c.1-.5.2-1.1.2-1.1l-2.2-.5-.2 1.2-.2 1.2 2.2.3z"/><path class="beast-crown-12-st-6" d="M-50.2 394.3c.6.1 1 .7.9 1.3-.1.6-.7 1-1.3.9-.6-.1-1-.7-.9-1.3.1-.7.7-1.1 1.3-.9z"/><path class="beast-crown-12-st-5" d="M-48.6 392.6s.1-.5.3-1l.4-1-2.1-.9s-.2.6-.4 1.1c-.2.6-.4 1.1-.4 1.1l2.2.7z"/><path class="beast-crown-12-st-6" d="M-48.9 390.1c.6.2.9.9.7 1.4-.2.6-.8.9-1.4.7-.6-.2-.9-.8-.7-1.5.1-.5.8-.8 1.4-.6z"/><path class="beast-crown-12-st-5" d="M-47 388.8s.2-.5.5-1 .6-.9.6-.9l-1.9-1.2-.6 1-.6 1 2 1.1z"/><path class="beast-crown-12-st-6" d="M-46.9 386.3c.5.3.7 1 .4 1.5-.3.5-1 .7-1.5.4-.6-.3-.8-1-.4-1.6.2-.5.9-.7 1.5-.3z"/><path class="beast-crown-12-st-5" d="M-44.8 385.3s.3-.4.7-.9c.4-.4.7-.8.7-.8l-1.7-1.5s-.4.4-.8.9-.7.9-.7.9l1.8 1.4z"/><path class="beast-crown-12-st-6" d="M-44.3 382.8c.5.4.5 1.1.1 1.6s-1.1.6-1.6.2c-.5-.4-.6-1.1-.2-1.6.5-.5 1.2-.6 1.7-.2z"/><path class="beast-crown-12-st-5" d="M-42.1 382.1s.4-.4.8-.7c.4-.4.8-.7.8-.7L-42 379s-.5.4-.9.8-.9.8-.9.8l1.7 1.5z"/><path class="beast-crown-12-st-6" d="M-41.2 379.8c.4.5.3 1.2-.1 1.6-.4.4-1.2.4-1.6-.1-.4-.4-.4-1.2.1-1.6.5-.4 1.2-.4 1.6.1z"/><path class="beast-crown-12-st-5" d="M-38.9 379.5s.1-.1.3-.2c.2-.1.4-.3.6-.4.5-.3.9-.6.9-.6l-1.2-1.9-1 .6c-.2.2-.5.3-.7.5-.2.1-.3.2-.3.2l1.4 1.8z"/><path class="beast-crown-12-st-6" d="M-37.7 377.3c.3.5.2 1.2-.3 1.6-.5.3-1.2.2-1.6-.3-.4-.5-.3-1.2.3-1.6.6-.4 1.3-.3 1.6.3z"/><path class="beast-crown-12-st-5" d="M-35.3 377.2s.5-.3 1-.5 1-.5 1-.5l-1-2.1s-.5.3-1.1.5l-1 .6 1.1 2z"/><path class="beast-crown-12-st-6" d="M-33.9 375.2c.3.6 0 1.2-.5 1.5-.5.3-1.2.1-1.5-.5-.3-.5-.1-1.3.5-1.5.6-.3 1.3-.1 1.5.5z"/><path class="beast-crown-12-st-5" d="M-31.5 375.4l1-.4 1-.4-.7-2.1s-.6.2-1.1.4c-.5.2-1.1.4-1.1.4l.9 2.1z"/><path class="beast-crown-12-st-6" d="M-29.8 373.5c.2.6-.1 1.2-.7 1.4-.6.2-1.2-.1-1.5-.6-.2-.6.1-1.2.7-1.5.6-.2 1.3.2 1.5.7z"/><path class="beast-crown-12-st-5" d="M-27.6 374s.5-.2 1.1-.3c.5-.1 1.1-.3 1.1-.3l-.5-2.2s-.6.1-1.1.3c-.6.1-1.1.3-1.1.3l.5 2.2z"/><path class="beast-crown-12-st-6" d="M-25.7 372.3c.1.6-.2 1.2-.8 1.4-.6.2-1.2-.2-1.4-.8-.2-.6.2-1.2.8-1.4.7-.2 1.3.2 1.4.8z"/><path class="beast-crown-12-st-5" d="M-23.4 373s.5-.1 1.1-.2c.6-.1 1.1-.2 1.1-.2l-.4-2.2s-.6.1-1.1.2c-.6.1-1.1.2-1.1.2l.4 2.2z"/><path class="beast-crown-12-st-6" d="M-21.4 371.4c.1.6-.3 1.2-.9 1.3-.6.1-1.2-.3-1.3-.9-.1-.6.3-1.2.9-1.3.6-.1 1.2.3 1.3.9z"/><path class="beast-crown-12-st-5" d="M-19.2 372.2l2.2-.3-.3-2.2-2.3.3z"/><path class="beast-crown-12-st-6" d="M-17.1 370.8c.1.6-.4 1.2-1 1.3-.6.1-1.2-.3-1.3-1-.1-.6.3-1.2 1-1.3.6-.1 1.2.4 1.3 1z"/><path class="beast-crown-12-st-5" d="M-15 371.7s.5 0 1.1-.1h1l.1-2.3H-14c-.6 0-1.2.1-1.2.1l.2 2.3z"/><path class="beast-crown-12-st-6" d="M-12.8 370.5c0 .6-.5 1.1-1.1 1.1-.6 0-1.1-.4-1.2-1.1-.1-.6.4-1.2 1.1-1.2.7 0 1.2.6 1.2 1.2z"/><path class="beast-crown-12-st-5" d="M-11.1 371.9s.5.1.9.3c.4.2.8.5.8.5l1.3-1.9s-.5-.4-1.2-.6c-.6-.3-1.2-.5-1.2-.5l-.6 2.2z"/><path class="beast-crown-12-st-6" d="M-8.7 371.8c-.4.5-1 .7-1.5.5-.5-.2-.7-.8-.6-1.4.2-.6.9-1 1.5-.6.7.2.9 1 .6 1.5z"/><path class="beast-crown-12-st-5" d="M-8 373.9l.2.2c.1.1.3.3.5.6.3.4.6.9.6.9l1.9-1.3s-.3-.5-.7-1c-.2-.2-.4-.5-.5-.6l-.3-.3-1.7 1.5z"/><path class="beast-crown-12-st-6" d="M-5.8 374.9c-.5.3-1.2.2-1.6-.2-.3-.5-.3-1.1.2-1.6.4-.4 1.2-.4 1.6.2.5.5.4 1.3-.2 1.6z"/><path class="beast-crown-12-st-5" d="M-5.7 377.2s.3.5.5 1l.4 1 2.1-.8s-.2-.6-.5-1.1c-.2-.6-.5-1.1-.5-1.1l-2 1z"/><path class="beast-crown-12-st-6" d="M-3.8 378.8c-.6.2-1.2-.1-1.5-.6-.2-.5 0-1.2.5-1.5.6-.3 1.3-.1 1.5.6.4.6.1 1.3-.5 1.5z"/><path class="beast-crown-12-st-5" d="M-4.2 381s.1.5.3 1.1c.1.5.2 1.1.2 1.1l2.2-.4s-.1-.6-.3-1.2c-.1-.6-.3-1.1-.3-1.1l-2.1.5z"/><path class="beast-crown-12-st-6" d="M-2.6 382.9c-.6.1-1.2-.3-1.3-.8-.1-.6.2-1.2.8-1.4.6-.2 1.2.2 1.4.8.1.7-.3 1.3-.9 1.4z"/><path class="beast-crown-12-st-5" d="M-3.4 385.1s.1.5.1 1.1c0 .5.1 1.1.1 1.1l2.3-.1s0-.6-.1-1.2-.1-1.2-.1-1.2l-2.3.3z"/><path class="beast-crown-12-st-6" d="M-2.1 387.2c-.6 0-1.2-.4-1.2-1-.1-.6.4-1.2 1-1.2.6-.1 1.2.4 1.3 1 0 .7-.4 1.2-1.1 1.2z"/><path class="beast-crown-12-st-5" d="M-3.2 389.3v2.2l2.3.1v-1.2-1.2l-2.3.1z"/><path class="beast-crown-12-st-6" d="M-2 391.6c-.6 0-1.1-.5-1.1-1.2 0-.6.5-1.1 1.1-1.1.6 0 1.2.5 1.1 1.2 0 .6-.5 1.1-1.1 1.1z"/><path class="beast-crown-12-st-5" d="M-3.3 393.6s-.1.6-.1 1.1c0 .6-.1 1.1-.1 1.1l2.3.3s.1-.6.1-1.2c.1-.6.1-1.2.1-1.2l-2.3-.1z"/><path class="beast-crown-12-st-6" d="M-2.4 395.9c-.6-.1-1.1-.6-1-1.2.1-.6.6-1.1 1.2-1 .6 0 1.1.6 1 1.2 0 .6-.6 1.1-1.2 1z"/><path class="beast-crown-12-st-5" d="M-3.8 397.8s-.1.6-.2 1.1c-.1.5-.2 1.1-.2 1.1l2.2.4s.1-.6.2-1.1c.1-.6.2-1.1.2-1.1l-2.2-.4z"/><path class="beast-crown-12-st-6" d="M-3.1 400.2c-.6-.1-1-.7-.9-1.3.1-.6.7-1 1.3-.9.6.1 1 .7.9 1.3-.1.6-.7 1-1.3.9z"/><path class="beast-crown-12-st-5" d="M-4.6 401.9s-.1.5-.3 1.1c-.1.5-.3 1.1-.3 1.1l2.2.6s.1-.6.3-1.1c.2-.6.3-1.1.3-1.1l-2.2-.6z"/><path class="beast-crown-12-st-6" d="M-4.1 404.4c-.6-.2-1-.8-.8-1.4.2-.6.8-1 1.4-.8.6.1 1 .8.8 1.4-.2.6-.8 1-1.4.8z"/><path class="beast-crown-12-st-5" d="M-5.8 406.1s-.2.5-.3 1.1c-.2.5-.4 1.1-.4 1.1l2.1.7s.2-.5.4-1.1c.2-.6.4-1.1.4-1.1l-2.2-.7z"/><path class="beast-crown-12-st-6" d="M-5.4 408.6c-.6-.2-.9-.8-.7-1.4.2-.6.8-.9 1.4-.7.6.2.9.8.7 1.4-.1.5-.8.9-1.4.7z"/><path class="beast-crown-12-st-5" d="M-7.1 410.1l-.4 1-.4 1 2.1.9s.2-.5.4-1.1c.2-.5.4-1.1.4-1.1l-2.1-.7z"/><path class="beast-crown-12-st-6" d="M-6.9 412.6c-.6-.2-.9-.9-.6-1.5.2-.6.9-.9 1.5-.6.6.2.9.9.6 1.5-.3.6-.9.9-1.5.6z"/><path class="beast-crown-12-st-5" d="M-8.8 414s-.2.5-.5 1c-.2.5-.5 1-.5 1l2 1s.2-.5.5-1 .5-1.1.5-1.1l-2-.9z"/><path class="beast-crown-12-st-6" d="M-8.7 416.6c-.6-.3-.8-1-.5-1.5.3-.6.9-.8 1.5-.5.6.3.8.9.5 1.5-.3.5-1 .8-1.5.5z"/><path class="beast-crown-12-st-5" d="M-11.68 419.988l1.025-2.058 2.058 1.026-1.026 2.06z"/><circle class="beast-crown-12-st-6" cx="-10.1" cy="419.4" r="1.1"/><path class="beast-crown-12-st-5" d="M-12.6 421.8l-1 2 2 1 1.1-2z"/><circle class="beast-crown-12-st-6" cx="-12.1" cy="423.3" r="1.1"/><path class="beast-crown-12-st-5" d="M-14.5 425.7l-1 2.1 2.1.9 1-2z"/><path class="beast-crown-12-st-6" d="M-14.4 428.3c-.6-.3-.8-.9-.5-1.5.3-.6 1-.8 1.5-.5.6.3.8.9.5 1.5-.3.5-1 .7-1.5.5z"/><path class="beast-crown-12-st-5" d="M-16.3 429.7l-1 2.1 2.1.9.9-2.1z"/><path class="beast-crown-12-st-6" d="M-16.2 432.2c-.6-.2-.8-.9-.6-1.5.3-.6.9-.8 1.5-.6.6.3.8.9.6 1.5-.3.6-.9.9-1.5.6z"/><g><path class="beast-crown-12-st-5" d="M-18.1 433.7s-.2.5-.4 1.1c-.2.5-.4 1.1-.4 1.1l2.1.8.8-2.1-2.1-.9z"/><path class="beast-crown-12-st-6" d="M-17.8 436.3c-.6-.2-.9-.9-.7-1.5.2-.6.9-.9 1.5-.6.6.2.9.9.6 1.5-.2.5-.8.8-1.4.6z"/></g><g><path class="beast-crown-12-st-5" d="M-19.6 437.9s-.2.6-.3 1.1c-.2.6-.3 1.1-.3 1.1l2.2.6s.1-.5.3-1.1c.2-.5.3-1.1.3-1.1l-2.2-.6z"/><path class="beast-crown-12-st-6" d="M-19.2 440.4c-.6-.2-1-.8-.8-1.4.2-.6.8-1 1.4-.8.6.2.9.8.8 1.4-.1.6-.8.9-1.4.8z"/></g><g><path class="beast-crown-12-st-5" d="M-20.8 442.1s-.1.6-.2 1.1c-.1.6-.2 1.1-.2 1.1l2.2.4s.1-.6.2-1.1c.1-.5.2-1.1.2-1.1l-2.2-.4z"/><path class="beast-crown-12-st-6" d="M-20.1 444.6c-.6-.1-1-.7-.9-1.3.1-.6.7-1 1.4-.9.6.1 1 .7.9 1.3-.2.6-.8 1-1.4.9z"/></g><g><path class="beast-crown-12-st-5" d="M-21.7 446.4s-.1.6-.3 1.2l-.2 1.2 2.3.2s0-.5.2-1c.1-.5.2-1.1.2-1.1l-2.2-.5z"/><path class="beast-crown-12-st-6" d="M-21 448.9c-.6 0-1.1-.7-.9-1.3.1-.7.8-1 1.4-.9.6.1 1 .8.9 1.3-.2.5-.8.9-1.4.9z"/></g><g><path class="beast-crown-12-st-5" d="M-21.9 451.2s.1.2.2.5.3.6.6.9c.2.3.6.5.8.7.2.2.4.2.4.2l1-2s-.1 0-.2-.1-.3-.2-.3-.3c-.2-.2-.3-.6-.3-.6l-2.2.7z"/><path class="beast-crown-12-st-6" d="M-19.4 452.6c-.1.3-.4.5-.7.5-.3 0-.8-.1-1-.5-.3-.4-.4-.8-.3-1.1.1-.3.3-.5.6-.6.6-.2 1.2 0 1.4.3.1.2.2.3.2.6-.1.2-.1.5-.2.8z"/></g><g><path class="beast-crown-12-st-5" d="M-17.5 454.2h1.3c.3 0 .6-.1.8-.1.2 0 .4-.1.4-.1l-.4-2.2h-.3c-.2 0-.5.1-.7.1-.5.1-1 0-1 0l-.1 2.3z"/><path class="beast-crown-12-st-6" d="M-15.2 452.9c.1.6-.3 1.2-1 1.3-.7.1-1.3-.5-1.2-1.1 0-.6.5-1.1 1-1.2.5-.1 1.1.3 1.2 1z"/></g><g><path class="beast-crown-12-st-5" d="M-12.8 453.5s.6-.2 1.1-.4c.6-.2 1.1-.5 1.1-.5l-.9-2.1-1 .4c-.5.2-1 .3-1 .3l.7 2.3z"/><path class="beast-crown-12-st-6" d="M-11 451.6c.3.6 0 1.3-.7 1.5-.6.2-1.3-.1-1.5-.7-.2-.6.1-1.2.7-1.4.6-.3 1.2 0 1.5.6z"/></g><g><path class="beast-crown-12-st-5" d="M-8.7 451.7s.5-.3 1-.5l1-.6-1.1-2s-.5.3-1 .5c-.5.3-1 .5-1 .5l1.1 2.1z"/><path class="beast-crown-12-st-6" d="M-7.2 449.6c.3.5.1 1.2-.5 1.6-.6.3-1.3.1-1.5-.5-.3-.6-.1-1.2.5-1.5.5-.4 1.2-.2 1.5.4z"/></g><g><path class="beast-crown-12-st-5" d="M-4.8 449.5l1-.6 1-.6-1.3-1.9s-.5.3-.9.6c-.5.3-.9.6-.9.6l1.1 1.9z"/><path class="beast-crown-12-st-6" d="M-3.5 447.3c.4.5.2 1.2-.3 1.6-.5.3-1.2.2-1.6-.3-.3-.5-.2-1.2.3-1.6.6-.4 1.3-.2 1.6.3z"/></g><g><path class="beast-crown-12-st-5" d="M-1.1 447.1s.5-.3.9-.7c.5-.3.9-.7.9-.7l-1.4-1.8s-.4.3-.9.7c-.4.3-.9.7-.9.7l1.4 1.8z"/><path class="beast-crown-12-st-6" d="M0 444.8c.4.5.3 1.2-.2 1.6-.5.4-1.2.3-1.6-.2-.4-.5-.2-1.2.2-1.6.6-.4 1.3-.3 1.6.2z"/></g><g><path class="beast-crown-12-st-5" d="M2.4 444.4s.4-.4.9-.7c.4-.4.9-.7.9-.7l-1.5-1.7s-.4.4-.9.7c-.4.4-.9.7-.9.7l1.5 1.7z"/><path class="beast-crown-12-st-6" d="M3.4 442.1c.4.5.3 1.2-.1 1.6-.5.4-1.2.3-1.6-.2-.4-.5-.3-1.2.2-1.6.4-.4 1.1-.3 1.5.2z"/></g><g><path class="beast-crown-12-st-5" d="M5.7 441.5l1.7-1.5-1.5-1.7-1.7 1.5z"/><path class="beast-crown-12-st-6" d="M6.6 439.2c.4.5.4 1.2-.1 1.6-.5.4-1.2.4-1.6-.1-.4-.5-.4-1.2.1-1.6.5-.4 1.2-.4 1.6.1z"/></g><g><path class="beast-crown-12-st-5" d="M8.9 438.5l.8-.8.8-.8-1.7-1.6-.8.8-.8.8 1.7 1.6z"/><path class="beast-crown-12-st-6" d="M9.7 436.1c.5.4.5 1.2 0 1.6-.4.5-1.2.5-1.6 0-.4-.4-.4-1.2 0-1.6.5-.4 1.2-.4 1.6 0z"/></g><g><path class="beast-crown-12-st-5" d="M12 435.3s.4-.4.7-.9c.4-.5.7-.9.7-.9l-1.8-1.4s-.3.5-.7.9c-.3.4-.7.9-.7.9l1.8 1.4z"/><path class="beast-crown-12-st-6" d="M12.5 432.7c.5.4.6 1.1.2 1.6-.4.5-1.1.6-1.6.2-.5-.4-.6-1.1-.2-1.6.4-.4 1.1-.5 1.6-.2z"/></g><g><path class="beast-crown-12-st-5" d="M14.6 431.7l.6-1 .6-1-1.9-1.2s-.3.5-.6.9c-.3.5-.6.9-.6.9l1.9 1.4z"/><path class="beast-crown-12-st-6" d="M14.9 429.1c.5.3.7 1 .4 1.6-.4.5-1.1.7-1.6.3-.5-.3-.7-1.1-.3-1.6.3-.4 1-.6 1.5-.3z"/></g><g><path class="beast-crown-12-st-5" d="M16.9 427.9l.6-1 .6-1-2-1.1s-.3.5-.5 1c-.3.5-.5 1-.5 1l1.8 1.1z"/><path class="beast-crown-12-st-6" d="M17.1 425.4c.6.3.8 1 .5 1.6-.3.6-1 .8-1.6.4-.5-.3-.7-1-.4-1.5.2-.6.9-.8 1.5-.5z"/></g><g><path class="beast-crown-12-st-5" d="M19 424.1l1.1-2.1-2.1-1-1 2z"/><path class="beast-crown-12-st-6" d="M19 421.5c.6.3.8 1 .5 1.5-.3.6-1 .8-1.5.5-.6-.3-.8-1-.5-1.5.3-.5 1-.8 1.5-.5z"/></g><g><path class="beast-crown-12-st-5" d="M21 420.1l.9-2-2-1-1 2.1z"/><circle class="beast-crown-12-st-6" cx="20.4" cy="418.6" r="1.1"/></g><g><path class="beast-crown-12-st-5" d="M22.8 416.1s.2-.5.4-1.1c.2-.5.4-1.1.4-1.1l-2.1-.8-.4 1-.4 1 2.1 1z"/><path class="beast-crown-12-st-6" d="M22.6 413.6c.6.2.9.9.7 1.5-.2.6-.9.9-1.5.6-.6-.2-.9-.9-.6-1.5.1-.5.8-.8 1.4-.6z"/></g><g><path class="beast-crown-12-st-5" d="M24.3 412l.7-2.2-2.2-.7-.6 2.2z"/><path class="beast-crown-12-st-6" d="M23.9 409.5c.6.2.9.8.7 1.4-.2.6-.8.9-1.4.7-.6-.2-.9-.8-.7-1.4.2-.6.8-.9 1.4-.7z"/></g><g><path class="beast-crown-12-st-5" d="M25.6 407.8l.7-2.2-2.2-.6-.7 2.2z"/><path class="beast-crown-12-st-6" d="M25.2 405.3c.6.2.9.8.8 1.4-.2.6-.8.9-1.4.8-.6-.2-.9-.8-.8-1.4.1-.6.8-1 1.4-.8z"/></g><g><path class="beast-crown-12-st-5" d="M26.9 403.7s.2-.5.4-1.1c.2-.5.4-1.1.4-1.1l-2.1-.8s-.2.5-.4 1.1c-.2.5-.4 1.1-.4 1.1l2.1.8z"/><path class="beast-crown-12-st-6" d="M26.5 401.2c.6.2.9.9.7 1.4-.2.6-.8.9-1.4.7-.6-.2-.9-.8-.7-1.5.2-.5.9-.8 1.4-.6z"/></g><g><path class="beast-crown-12-st-5" d="M28.3 399.7l.9-2.1-2.1-.9-.9 2.1z"/><path class="beast-crown-12-st-6" d="M28.1 397.1c.6.2.9.9.6 1.5-.2.6-.9.9-1.5.6-.6-.2-.9-.9-.6-1.5.3-.5 1-.8 1.5-.6z"/></g><g><path class="beast-crown-12-st-5" d="M30 395.7s.2-.5.5-1c.2-.5.5-1 .5-1l-2-1s-.3.5-.5 1.1c-.2.5-.5 1.1-.5 1.1l2 .8z"/><path class="beast-crown-12-st-6" d="M29.9 393.2c.6.3.8 1 .5 1.5-.3.6-.9.8-1.5.6-.6-.2-.8-.9-.6-1.5.3-.7 1-.9 1.6-.6z"/></g><g><path class="beast-crown-12-st-5" d="M31.9 392s.3-.5.6-.9.6-.9.6-.9l-1.8-1.4s-.4.5-.7 1c-.4.5-.7 1-.7 1l2 1.2z"/><path class="beast-crown-12-st-6" d="M32.2 389.5c.5.4.6 1.1.3 1.6s-1 .6-1.6.3c-.5-.3-.7-1-.3-1.6.4-.6 1.1-.7 1.6-.3z"/></g><g><path class="beast-crown-12-st-5" d="M34.4 388.8s.4-.4.8-.7l.8-.6-1.3-1.8-1 .8c-.5.4-.9.8-.9.8l1.6 1.5z"/><path class="beast-crown-12-st-6" d="M35.3 386.5c.4.5.3 1.2-.2 1.6-.4.4-1.1.3-1.6-.1-.4-.4-.4-1.2.1-1.6.6-.5 1.4-.4 1.7.1z"/></g><g><path class="beast-crown-12-st-5" d="M37.6 386.5s.4-.2.9-.3c.5-.1.9-.2.9-.2l-.2-2.3s-.7.1-1.3.3c-.6.2-1.2.5-1.2.5l.9 2z"/><path class="beast-crown-12-st-6" d="M39.3 384.9c0 .6-.3 1.2-.8 1.3-.5.1-1.1-.1-1.4-.7-.3-.6 0-1.3.8-1.5.7-.2 1.4.2 1.4.9z"/></g><g><path class="beast-crown-12-st-5" d="M40.9 386.2s.1 0 .3.1l.6.3.8.6 1.5-1.7-.3-.3c-.2-.2-.5-.3-.8-.5-.3-.2-.6-.3-.8-.4l-.4-.2-.9 2.1z"/><path class="beast-crown-12-st-6" d="M43.2 386.3c-.4.5-1.1.6-1.5.3-.2-.1-.4-.3-.5-.6-.1-.2-.1-.6 0-.8.1-.3.3-.5.6-.6.3-.1.6 0 1 .1.8.4.9 1.1.4 1.6z"/></g><g><path class="beast-crown-12-st-7" d="M48 385.4c.4.6.3 1.3-.1 1.5-.4.2-1 0-1.3-.5-.3-.5-.4-1.2-.1-1.5.3-.3 1.1-.1 1.5.5zM46.1 386.6c.4.5.2 1.1-.2 1.3-.4.2-.9.1-1.2-.3-.3-.4-.3-.9.1-1.3.3-.3 1-.2 1.3.3zM44.3 387.9c.3.4.1.9-.3 1.1-.4.2-.9.1-1.1-.2-.2-.3-.1-.7.3-1.1.2-.2.8-.2 1.1.2zM42.4 389.1c.2.3 0 .7-.4.9-.4.2-.9.2-1 0-.1-.2.1-.5.4-.8.3-.3.8-.4 1-.1zM48.3 388.3c.2.5 0 1.1-.4 1.3-.5.2-.9-.1-1.2-.6-.2-.5-.1-1 .4-1.3.4-.2 1 .1 1.2.6zM46.2 389.2c.2.5 0 1-.5 1.2-.5.2-.9-.1-1.1-.5-.2-.4 0-.9.4-1.1.5-.3 1-.1 1.2.4zM44.2 390c.2.4-.1.9-.5 1-.4.2-.9 0-1.1-.4-.1-.4.1-.8.5-1 .4-.1.9 0 1.1.4zM48.1 390.8c.2.5-.1.9-.5 1.1-.5.2-.9-.1-1.1-.5-.2-.5.1-1 .5-1.1.4-.2.9.1 1.1.5zM45.9 391.5c.2.5-.1.9-.5 1.1-.5.2-.9-.1-1.1-.5-.1-.4.1-.9.5-1.1.5-.2 1 .1 1.1.5zM47.6 393.1c.2.4-.1.9-.5 1.1-.4.2-.9 0-1.1-.5-.2-.5.1-1 .5-1.1.5-.2 1 .1 1.1.5z"/></g><g><path class="beast-crown-12-st-5" d="M311 460.1h2.3l-.1-2.3H311v2.3z"/><path class="beast-crown-12-st-6" d="M313.3 458.9c0 .6-.5 1.2-1.1 1.2-.6 0-1.1-.5-1.2-1.1 0-.6.5-1.1 1.1-1.1.7-.1 1.2.4 1.2 1z"/><path class="beast-crown-12-st-5" d="M316.5 459.8s.6-.1 1.2-.1l1.2-.2-.4-2.2s-.5.1-1.1.2c-.5.1-1.1.1-1.1.1l.2 2.2z"/><path class="beast-crown-12-st-6" d="M318.6 458.4c.1.6-.3 1.2-1 1.3-.6.1-1.2-.4-1.3-1-.1-.6.4-1.2 1-1.3.7 0 1.2.4 1.3 1z"/><path class="beast-crown-12-st-5" d="M320.9 459.1s.6-.1 1.1-.3c.6-.2 1.1-.4 1.1-.4l-.8-2.1s-.5.2-1 .3c-.5.2-1 .3-1 .3l.6 2.2z"/><path class="beast-crown-12-st-6" d="M322.8 457.3c.2.6-.1 1.3-.7 1.5-.6.2-1.3-.2-1.4-.8-.2-.6.2-1.2.8-1.4.4-.2 1.1.1 1.3.7z"/><path class="beast-crown-12-st-5" d="M325.2 457.5s.5-.3 1.1-.6c.5-.3 1-.7 1-.7l-1.3-1.8s-.4.3-.9.6-.9.5-.9.5l1 2z"/><path class="beast-crown-12-st-6" d="M326.6 455.3c.4.5.2 1.2-.3 1.6-.6.3-1.3.1-1.6-.4-.3-.6-.1-1.2.4-1.5.4-.4 1.1-.2 1.5.3z"/><path class="beast-crown-12-st-5" d="M329 454.8s.4-.4.9-.8c.4-.4.8-.9.8-.9l-1.7-1.5s-.4.4-.7.8c-.4.4-.8.7-.8.7l1.5 1.7z"/><path class="beast-crown-12-st-6" d="M329.7 452.3c.5.4.5 1.1.1 1.6-.5.5-1.2.5-1.6 0-.4-.5-.4-1.2 0-1.6.3-.3 1.1-.3 1.5 0z"/><path class="beast-crown-12-st-5" d="M331.9 451.3l.6-1c.3-.5.6-1.1.6-1.1l-2-1s-.3.5-.5.9c-.3.5-.6.9-.6.9l1.9 1.3z"/><path class="beast-crown-12-st-6" d="M332.1 448.7c.6.3.8 1 .4 1.6-.4.6-1.1.7-1.6.4-.5-.4-.7-1-.4-1.5.4-.5 1.1-.7 1.6-.5z"/><path class="beast-crown-12-st-5" d="M334 447.3s.2-.6.4-1.1c.2-.6.4-1.1.4-1.1l-2.2-.6s-.2.5-.3 1l-.4 1 2.1.8z"/><path class="beast-crown-12-st-6" d="M333.7 444.7c.6.2.9.8.7 1.5-.2.6-.9.9-1.5.7-.6-.2-.9-.9-.7-1.4.3-.6.9-.9 1.5-.8z"/><path class="beast-crown-12-st-5" d="M335.3 443l.2-1.2.2-1.2-2.3-.3s-.1.5-.2 1.1c-.1.5-.2 1.1-.2 1.1l2.3.5z"/><path class="beast-crown-12-st-6" d="M334.6 440.5c.6.1 1.1.7 1 1.3-.1.6-.7 1.1-1.3.9-.6-.1-1-.7-.9-1.3 0-.5.5-1 1.2-.9z"/><path class="beast-crown-12-st-5" d="M335.9 438.5v-1.2-1.2h-2.3v2.2l2.3.2z"/><path class="beast-crown-12-st-6" d="M334.8 436.2c.6 0 1.2.5 1.1 1.2 0 .7-.5 1.2-1.2 1.1-.6 0-1.1-.6-1.1-1.2.1-.6.6-1.1 1.2-1.1z"/><path class="beast-crown-12-st-5" d="M335.8 434.1s0-.6-.1-1.2l-.2-1.2-2.2.3s.1.5.2 1.1c.1.5.1 1.1.1 1.1l2.2-.1z"/><path class="beast-crown-12-st-6" d="M334.4 431.9c.6-.1 1.2.3 1.3 1 .1.6-.4 1.2-1 1.3-.6 0-1.2-.4-1.2-1-.1-.6.3-1.2.9-1.3z"/><path class="beast-crown-12-st-5" d="M335.2 429.6s-.1-.6-.3-1.1c-.1-.3-.2-.6-.2-.8-.1-.2-.1-.3-.1-.3l-2.2.7s.1.1.1.3c.1.2.1.5.2.7.1.5.3 1.1.3 1.1l2.2-.6z"/><path class="beast-crown-12-st-6" d="M333.4 427.7c.6-.2 1.2.2 1.4.8.2.6-.2 1.3-.8 1.4-.6.1-1.2-.2-1.4-.8-.1-.6.3-1.2.8-1.4z"/><path class="beast-crown-12-st-5" d="M333.8 425.4s-.2-.5-.5-1.1c-.1-.3-.2-.5-.3-.7-.1-.2-.2-.3-.2-.3l-2.1 1s.1.1.1.3c.1.2.2.4.3.7l.4 1 2.3-.9z"/><path class="beast-crown-12-st-6" d="M331.9 423.7c.6-.3 1.2 0 1.5.6.3.6 0 1.3-.6 1.5-.6.2-1.3 0-1.5-.6-.3-.6 0-1.2.6-1.5z"/><path class="beast-crown-12-st-5" d="M331.9 421.3l-1.2-2-1.9 1.2 1.1 1.9z"/><path class="beast-crown-12-st-6" d="M329.8 419.9c.5-.3 1.2-.2 1.6.4.3.6.2 1.3-.4 1.6-.5.3-1.2.1-1.6-.4-.3-.5-.2-1.2.4-1.6z"/><path class="beast-crown-12-st-5" d="M329.5 417.6s-.3-.5-.7-.9c-.4-.5-.7-.9-.7-.9l-1.8 1.4s.3.4.7.9c.3.4.7.9.7.9l1.8-1.4z"/><path class="beast-crown-12-st-6" d="M327.2 416.4c.5-.4 1.2-.3 1.6.2.4.5.3 1.2-.2 1.6-.5.4-1.2.3-1.6-.2-.3-.5-.2-1.2.2-1.6z"/><path class="beast-crown-12-st-5" d="M326.8 414.1s-.4-.4-.8-.9l-.8-.8-1.6 1.6.8.8c.4.4.7.8.7.8l1.7-1.5z"/><path class="beast-crown-12-st-6" d="M324.4 413.2c.5-.4 1.2-.4 1.6.1.4.5.4 1.2-.1 1.6-.5.4-1.2.4-1.6-.1-.4-.5-.4-1.2.1-1.6z"/><path class="beast-crown-12-st-5" d="M323.7 410.9l-.8-.8-.8-.8-1.5 1.7.8.8.8.8 1.5-1.7z"/><path class="beast-crown-12-st-6" d="M321.3 410.1c.4-.5 1.1-.5 1.6-.1s.5 1.2 0 1.6c-.4.4-1.1.5-1.6 0-.4-.3-.4-1 0-1.5z"/><path class="beast-crown-12-st-5" d="M320.5 407.9s-.4-.4-.9-.7c-.4-.4-.9-.7-.9-.7l-1.4 1.8s.4.4.9.7c.4.4.8.7.8.7l1.5-1.8z"/><path class="beast-crown-12-st-6" d="M318 407.3c.4-.5 1.1-.6 1.6-.2.5.4.5 1.1.1 1.6s-1.1.5-1.6.1c-.4-.3-.5-1-.1-1.5z"/><path class="beast-crown-12-st-5" d="M317.1 405.2s-.5-.4-.9-.7c-.5-.3-.9-.7-.9-.7l-1.4 1.8s.4.3.9.7c.4.3.9.7.9.7l1.4-1.8z"/><path class="beast-crown-12-st-6" d="M314.6 404.7c.4-.5 1.1-.6 1.6-.2.5.4.6 1.1.2 1.6-.4.5-1.1.6-1.6.2-.5-.4-.6-1.1-.2-1.6z"/><path class="beast-crown-12-st-5" d="M311.752 401.21l1.85 1.367-1.368 1.85-1.85-1.368z"/><circle class="beast-crown-12-st-6" cx="312.1" cy="402.8" r="1.1"/><path class="beast-crown-12-st-5" d="M308.355 398.66l1.85 1.367-1.368 1.85-1.85-1.368z"/><circle class="beast-crown-12-st-6" cx="308.6" cy="400.2" r="1.1"/><path class="beast-crown-12-st-5" d="M306.7 397.4s-.5-.3-.9-.7c-.5-.3-.9-.7-.9-.7l-1.3 1.8s.5.3.9.7c.5.3.9.7.9.7l1.3-1.8z"/><path class="beast-crown-12-st-6" d="M304.2 397c.4-.5 1.1-.6 1.6-.3.5.4.6 1.1.2 1.6-.4.5-1.1.6-1.6.2-.5-.3-.6-1-.2-1.5z"/><path class="beast-crown-12-st-5" d="M303.2 394.9s-.4-.3-.9-.7c-.4-.3-.9-.7-.9-.7l-1.4 1.8s.5.4.9.7c.5.3.9.7.9.7l1.4-1.8z"/><path class="beast-crown-12-st-6" d="M300.7 394.4c.4-.5 1.1-.6 1.6-.2.5.4.6 1.1.2 1.6-.4.5-1.1.6-1.6.2-.5-.4-.6-1.1-.2-1.6z"/><path class="beast-crown-12-st-5" d="M299.9 392.2s-.4-.4-.9-.7c-.4-.4-.8-.7-.8-.7l-1.5 1.7s.4.4.9.8c.4.4.9.7.9.7l1.4-1.8z"/><path class="beast-crown-12-st-6" d="M297.4 391.6c.4-.5 1.1-.5 1.6-.1s.5 1.1.1 1.6-1.1.5-1.6.1-.5-1.1-.1-1.6z"/><path class="beast-crown-12-st-5" d="M296.7 389.4s-.1-.1-.3-.2c-.1-.1-.2-.2-.3-.2l-.1-.1-.1-.1c-.3-.4-.7-.9-.7-.9l-1.8 1.4s.4.5.7.9c.1.1.1.2.2.2l.2.1.3.3c.2.1.3.2.3.2l1.6-1.6z"/><path class="beast-crown-12-st-6" d="M294.4 388.6c.5-.4 1.2-.3 1.6.2v.1c0 .1.1.1.1.2.1.1.1.3.1.4 0 .3-.1.6-.3.8-.2.2-.5.4-.8.4-.1 0-.3 0-.4-.1-.1 0-.1-.1-.2-.1-.1-.1-.2-.2-.3-.2-.4-.6-.3-1.3.2-1.7z"/><path class="beast-crown-12-st-5" d="M294.1 386.3s-.3-.4-.6-.9-.5-.9-.5-.9l-2 1.1.6 1 .6 1 1.9-1.3z"/><path class="beast-crown-12-st-6" d="M292 385c.6-.3 1.2-.1 1.5.4.3.5.2 1.2-.4 1.5-.5.4-1.2.2-1.6-.4-.3-.5-.1-1.2.5-1.5z"/><path class="beast-crown-12-st-5" d="M292.2 382.7s0-.1-.1-.3c-.1-.2-.1-.4-.2-.7-.1-.2-.1-.5-.2-.7 0-.2-.1-.3-.1-.3l-2.2.4s0 .2.1.4.1.5.2.8c.1.3.2.6.3.8.1.2.1.4.1.4l2.1-.8z"/><path class="beast-crown-12-st-6" d="M290.6 380.9c.6-.1 1.2.3 1.3.8.2.5-.2 1.1-.7 1.4-.6.2-1.3-.1-1.4-.8-.3-.6.1-1.3.8-1.4z"/><path class="beast-crown-12-st-5" d="M291.6 379v-.3c0-.2.1-.4.1-.7.1-.5.3-.9.3-.9l-2.1-.8s-.1.2-.1.4c-.1.2-.2.5-.2.9-.1.3-.1.6-.1.9v.4l2.1.1z"/><path class="beast-crown-12-st-6" d="M290.9 376.7c.6.2.9.8.8 1.3-.1.5-.6.9-1.3.9-.6 0-1.1-.6-1-1.4.2-.7 1-1.1 1.5-.8z"/><path class="beast-crown-12-st-5" d="M292.8 375.5s.1-.1.2-.3c.1-.2.2-.4.4-.6.3-.4.7-.8.7-.8l-1.7-1.5s-.4.4-.8.9c-.2.2-.4.5-.5.7-.1.2-.2.3-.2.3l1.9 1.3z"/><path class="beast-crown-12-st-6" d="M293.2 373.1c.5.4.5 1.1.2 1.6-.4.4-1 .6-1.6.2-.5-.3-.7-1.1-.2-1.6.4-.6 1.2-.7 1.6-.2z"/><path class="beast-crown-12-st-5" d="M295.5 372.5s.4-.3.8-.7c.4-.3.9-.6.9-.6l-1.3-1.9s-.5.3-1 .7c-.5.4-.9.7-.9.7l1.5 1.8z"/><path class="beast-crown-12-st-6" d="M296.5 370.3c.3.5.2 1.2-.2 1.6-.5.4-1.2.3-1.6-.2-.4-.5-.3-1.2.2-1.6.6-.5 1.3-.3 1.6.2z"/><path class="beast-crown-12-st-5" d="M298.8 370.2s.5-.3 1-.5l1-.4-.9-2.1s-.6.2-1.1.5c-.5.3-1.1.5-1.1.5l1.1 2z"/><path class="beast-crown-12-st-6" d="M300.3 368.2c.2.6 0 1.2-.5 1.5-.5.3-1.2 0-1.5-.5-.3-.5-.1-1.3.5-1.5.6-.3 1.3 0 1.5.5z"/><path class="beast-crown-12-st-5" d="M302.6 368.6s.1 0 .3-.1c.2-.1.5-.1.7-.2l1-.2-.4-2.2s-.6.1-1.2.3c-.3.1-.6.2-.8.2-.2.1-.4.1-.4.1l.8 2.1z"/><path class="beast-crown-12-st-6" d="M304.5 367c.1.6-.3 1.2-.8 1.4-.6.1-1.2-.2-1.4-.8-.2-.6.2-1.2.8-1.4.6-.2 1.2.2 1.4.8z"/><path class="beast-crown-12-st-5" d="M306.6 367.8s.5-.1 1.1-.1h1.1v-2.3h-1.2c-.6 0-1.2.1-1.2.1l.2 2.3z"/><path class="beast-crown-12-st-6" d="M308.8 366.5c0 .6-.5 1.1-1.1 1.2-.6 0-1.1-.4-1.2-1-.1-.6.4-1.2 1.1-1.2.6-.1 1.1.4 1.2 1z"/><path class="beast-crown-12-st-5" d="M310.7 367.7s.5 0 1.1.1c.5.1 1.1.1 1.1.1l.3-2.3s-.6-.1-1.2-.1-1.2-.1-1.2-.1l-.1 2.3z"/><path class="beast-crown-12-st-6" d="M313.1 366.8c-.1.6-.6 1.1-1.2 1-.6-.1-1.1-.6-1-1.2 0-.6.6-1.1 1.2-1 .6 0 1 .6 1 1.2z"/><path class="beast-crown-12-st-5" d="M314.9 368.2s.5.1 1.1.2c.5.1 1.1.2 1.1.2l.5-2.2s-.6-.1-1.1-.3c-.6-.1-1.1-.2-1.1-.2l-.5 2.3z"/><path class="beast-crown-12-st-6" d="M317.3 367.6c-.1.6-.7 1-1.3.9-.6-.1-1-.7-.9-1.3.1-.6.7-1 1.3-.9.7 0 1.1.7.9 1.3z"/><path class="beast-crown-12-st-5" d="M319 369.2s.5.1 1 .3l1 .4.8-2.1s-.6-.2-1.1-.4c-.6-.2-1.1-.3-1.1-.3l-.6 2.1z"/><path class="beast-crown-12-st-6" d="M321.4 368.8c-.2.6-.9.9-1.4.7-.6-.2-.9-.8-.7-1.4.2-.6.8-1 1.4-.7.7.2 1 .8.7 1.4z"/><path class="beast-crown-12-st-5" d="M322.9 370.6s.5.2 1 .5c.5.2 1 .5 1 .5l1.1-2-1-.6c-.5-.3-1.1-.5-1.1-.5l-1 2.1z"/><path class="beast-crown-12-st-6" d="M325.4 370.6c-.3.6-1 .7-1.5.5-.5-.3-.8-.9-.5-1.5.3-.6 1-.8 1.5-.5.6.3.8 1 .5 1.5z"/><path class="beast-crown-12-st-5" d="M326.5 372.6s.4.3.9.6c.4.3.9.7.9.7l1.4-1.8s-.5-.4-.9-.7c-.5-.3-1-.7-1-.7l-1.3 1.9z"/><path class="beast-crown-12-st-6" d="M328.9 373c-.4.5-1.1.6-1.6.2-.5-.3-.6-1-.3-1.6.3-.5 1.1-.6 1.6-.3.6.5.7 1.3.3 1.7z"/><path class="beast-crown-12-st-5" d="M329.7 375.2l.8.8.8.8 1.7-1.6-.8-.8c-.4-.4-.9-.8-.9-.8l-1.6 1.6z"/><path class="beast-crown-12-st-6" d="M332.1 376c-.5.4-1.2.4-1.6 0-.4-.4-.4-1.1 0-1.6s1.2-.5 1.6 0c.5.4.5 1.1 0 1.6z"/><path class="beast-crown-12-st-5" d="M332.6 378.2s.3.4.7.9c.3.4.7.9.7.9l1.8-1.3s-.4-.5-.7-.9c-.4-.5-.7-.9-.7-.9l-1.8 1.3z"/><path class="beast-crown-12-st-6" d="M334.8 379.3c-.5.4-1.2.3-1.6-.2-.4-.5-.3-1.2.2-1.6.5-.4 1.2-.3 1.6.2.5.5.4 1.2-.2 1.6z"/><path class="beast-crown-12-st-5" d="M335 381.6s.3.5.6.9c.3.5.5 1 .5 1l2-1.1-.6-1-.6-1-1.9 1.2z"/><path class="beast-crown-12-st-6" d="M337.2 382.9c-.6.3-1.2.1-1.5-.4-.3-.5-.2-1.2.4-1.5.5-.3 1.2-.2 1.6.4.2.5 0 1.2-.5 1.5z"/><path class="beast-crown-12-st-5" d="M337.1 385.3s.3.5.5 1l.4 1 2.1-.9s-.2-.5-.5-1.1c-.2-.5-.5-1.1-.5-1.1l-2 1.1z"/><path class="beast-crown-12-st-6" d="M339.1 386.8c-.6.2-1.2 0-1.5-.6-.2-.6 0-1.2.5-1.5.6-.3 1.3 0 1.5.6.3.6 0 1.3-.5 1.5z"/><path class="beast-crown-12-st-5" d="M338.8 389.1l.4 1c.2.5.4 1.1.4 1.1l2.2-.7s-.2-.5-.4-1.1c-.2-.5-.4-1.1-.4-1.1l-2.2.8z"/><path class="beast-crown-12-st-6" d="M340.6 390.9c-.6.2-1.2-.1-1.4-.7-.2-.6.1-1.2.7-1.4.6-.2 1.3.1 1.5.7.1.5-.2 1.2-.8 1.4z"/><path class="beast-crown-12-st-5" d="M340.1 393.2s.2.5.3 1.1c.2.5.3 1.1.3 1.1l2.2-.6s-.2-.6-.3-1.1c-.2-.6-.3-1.1-.3-1.1l-2.2.6z"/><path class="beast-crown-12-st-6" d="M341.8 395c-.6.2-1.2-.2-1.4-.8-.2-.6.2-1.2.8-1.4.6-.2 1.2.2 1.4.8.2.6-.2 1.2-.8 1.4z"/><path class="beast-crown-12-st-5" d="M341.2 397.3l.6 2.2 2.2-.6-.6-2.2z"/><path class="beast-crown-12-st-6" d="M342.9 399.2c-.6.1-1.2-.2-1.4-.8-.2-.6.2-1.2.8-1.4.6-.2 1.2.2 1.4.8.2.6-.2 1.2-.8 1.4z"/><path class="beast-crown-12-st-5" d="M342.3 401.4l.5 2.2 2.2-.4-.5-2.3z"/><path class="beast-crown-12-st-6" d="M343.9 403.4c-.6.1-1.2-.2-1.4-.9-.1-.6.2-1.2.9-1.4.6-.1 1.2.2 1.4.9.1.7-.3 1.3-.9 1.4z"/><path class="beast-crown-12-st-5" d="M343.2 405.6l.4 2.2 2.3-.4-.5-2.2z"/><path class="beast-crown-12-st-6" d="M344.8 407.6c-.6.1-1.2-.3-1.3-.9-.1-.6.3-1.2.9-1.3.6-.1 1.2.3 1.3.9.1.6-.3 1.2-.9 1.3z"/><path class="beast-crown-12-st-5" d="M344 409.9l.5 2.2 2.2-.5-.4-2.2z"/><circle class="beast-crown-12-st-6" cx="345.4" cy="410.7" r="1.1"/><g><path class="beast-crown-12-st-5" d="M345.318 416.282l-.433-2.258 2.26-.433.43 2.26z"/><circle class="beast-crown-12-st-6" cx="346.2" cy="415" r="1.1"/></g><g><path class="beast-crown-12-st-5" d="M345.7 418.3l.4 2.3 2.3-.5-.5-2.2z"/><ellipse transform="rotate(78.89 347.004 419.195)" class="beast-crown-12-st-6" cx="347" cy="419.2" rx="1.1" ry="1.1"/></g><g><path class="beast-crown-12-st-5" d="M346.5 422.6l.5 2.2 2.2-.5-.4-2.2z"/><path class="beast-crown-12-st-6" d="M348.1 424.6c-.6.1-1.2-.3-1.3-.9-.1-.6.3-1.2.9-1.3.6-.1 1.2.3 1.3.9.1.5-.3 1.1-.9 1.3z"/></g><g><path class="beast-crown-12-st-5" d="M347.4 426.8l.6 2.3 2.2-.6-.5-2.2z"/><path class="beast-crown-12-st-6" d="M349.1 428.8c-.6.1-1.2-.2-1.4-.8-.1-.6.2-1.2.9-1.4.6-.1 1.2.2 1.4.8 0 .6-.3 1.2-.9 1.4z"/></g><g><path class="beast-crown-12-st-5" d="M348.4 431.1l.6 2.2 2.2-.6-.5-2.2z"/><path class="beast-crown-12-st-6" d="M350.1 433c-.6.2-1.2-.2-1.4-.8-.2-.6.2-1.2.8-1.4.6-.2 1.2.2 1.4.8.2.6-.2 1.2-.8 1.4z"/></g><g><path class="beast-crown-12-st-5" d="M349.6 435.3s.2.6.3 1.1c.2.6.4 1.1.4 1.1l2.1-.8-.4-1c-.2-.5-.3-1.1-.3-1.1l-2.1.7z"/><path class="beast-crown-12-st-6" d="M351.4 437.1c-.6.2-1.3-.1-1.5-.7-.2-.6.1-1.3.7-1.4.6-.2 1.2.2 1.4.7.3.5 0 1.2-.6 1.4z"/></g><g><path class="beast-crown-12-st-5" d="M351.2 439.5s.3.6.7 1.1c.2.3.4.5.6.7l.3.3 1.6-1.6-.2-.2c-.1-.1-.3-.3-.4-.5-.3-.4-.5-.8-.5-.8l-2.1 1z"/><path class="beast-crown-12-st-6" d="M353.6 440.8c-.4.5-1.2.4-1.7-.2-.4-.6-.2-1.3.3-1.6.6-.3 1.2-.1 1.5.3.4.4.3 1-.1 1.5z"/></g><g><path class="beast-crown-12-st-5" d="M354.8 443l.4.2c.2.1.6.2.9.2.3.1.7.1.9.1h.4l.1-2.3h-.3c-.2 0-.4-.1-.6-.1-.2 0-.4-.1-.6-.2-.2 0-.3-.1-.3-.1l-.9 2.2z"/><path class="beast-crown-12-st-6" d="M357.5 442.4c0 .3-.2.6-.4.8-.2.2-.6.3-1 .2-.8-.2-1.1-.9-.8-1.5.3-.6.8-.9 1.3-.8.3 0 .5.2.6.4.2.3.3.6.3.9z"/></g><g><path class="beast-crown-12-st-5" d="M359.8 443.3s.7-.1 1.3-.4c.7-.3 1.2-.8 1.2-.8l-1.5-1.7s-.3.3-.7.4c-.4.2-.8.3-.8.3l.5 2.2z"/><path class="beast-crown-12-st-6" d="M361.6 441.3c.4.5.3 1.3-.5 1.6-.8.3-1.4-.1-1.5-.7-.1-.6.2-1.2.6-1.4.3-.1.9 0 1.4.5z"/></g><g><path class="beast-crown-12-st-5" d="M363.8 440.2l.6-1c.3-.5.5-1.1.5-1.1l-2.1-.9s-.2.5-.5 1-.5.9-.5.9l2 1.1z"/><path class="beast-crown-12-st-6" d="M363.8 437.6c.6.3.8.9.5 1.5-.3.6-1 .8-1.5.5-.5-.3-.7-1-.5-1.5.3-.5 1-.7 1.5-.5z"/></g><g><path class="beast-crown-12-st-5" d="M365.7 436.1s.2-.6.4-1.1c.2-.6.3-1.1.3-1.1l-2.2-.6s-.1.5-.3 1.1c-.2.5-.3 1-.3 1l2.1.7z"/><path class="beast-crown-12-st-6" d="M365.2 433.6c.6.2 1 .8.8 1.4-.2.6-.8 1-1.4.8-.6-.2-.9-.8-.7-1.4.1-.6.7-1 1.3-.8z"/></g><g><path class="beast-crown-12-st-5" d="M366.8 431.8s.1-.6.2-1.1c.1-.6.2-1.1.2-1.1l-2.2-.3s-.1.6-.2 1.1c-.1.5-.2 1.1-.2 1.1l2.2.3z"/><path class="beast-crown-12-st-6" d="M366.1 429.3c.6.1 1.1.7.9 1.3-.1.6-.7 1-1.3.9-.6-.1-1-.7-.9-1.3.1-.5.7-1 1.3-.9z"/></g><g><path class="beast-crown-12-st-5" d="M367.5 427.4s.1-.6.1-1.1c.1-.6.1-1.1.1-1.1l-2.3-.2s-.1.6-.1 1.1c-.1.6-.1 1.1-.1 1.1l2.3.2z"/><path class="beast-crown-12-st-6" d="M366.6 425c.6.1 1.1.6 1 1.2-.1.6-.6 1.1-1.3 1-.6-.1-1.1-.6-1-1.2.1-.6.7-1 1.3-1z"/></g><g><path class="beast-crown-12-st-5" d="M367.9 423.1l.2-2.3-2.3-.1-.2 2.2z"/><path class="beast-crown-12-st-6" d="M366.9 420.7c.6 0 1.1.6 1.1 1.2s-.6 1.1-1.2 1.1-1.1-.6-1.1-1.2c.1-.6.6-1.1 1.2-1.1z"/></g><g><path class="beast-crown-12-st-5" d="M368.38 416.49l-.16 2.295-2.295-.162.162-2.295z"/><circle class="beast-crown-12-st-6" cx="367.1" cy="417.6" r="1.1"/></g><g><path class="beast-crown-12-st-5" d="M368.5 414.4l.1-2.2-2.2-.1-.2 2.2z"/><path class="beast-crown-12-st-6" d="M367.5 412.1c.6 0 1.1.6 1.1 1.2s-.6 1.1-1.2 1.1-1.1-.6-1.1-1.2.6-1.1 1.2-1.1z"/></g><g><path class="beast-crown-12-st-5" d="M368.7 410.1l.1-2.3h-2.3v2.2z"/><path class="beast-crown-12-st-6" d="M367.6 407.8c.6 0 1.1.5 1.1 1.2 0 .6-.5 1.1-1.2 1.1-.6 0-1.1-.5-1.1-1.2.1-.6.6-1.1 1.2-1.1z"/></g><g><path class="beast-crown-12-st-5" d="M368.8 405.7v-1.2-1.2l-2.3.1v2.2l2.3.1z"/><path class="beast-crown-12-st-6" d="M367.6 403.5c.6 0 1.2.5 1.2 1.1 0 .6-.5 1.2-1.1 1.2-.6 0-1.1-.5-1.2-1.1 0-.7.5-1.2 1.1-1.2z"/></g><g><path class="beast-crown-12-st-5" d="M368.6 401.3s0-.6-.1-1.1c-.1-.6-.1-1.1-.1-1.1l-2.3.2s.1.6.1 1.1c0 .6.1 1.1.1 1.1l2.3-.2z"/><path class="beast-crown-12-st-6" d="M367.3 399.2c.6-.1 1.2.4 1.2 1 .1.6-.4 1.2-1 1.2s-1.2-.4-1.2-1c-.1-.6.4-1.2 1-1.2z"/></g><g><path class="beast-crown-12-st-5" d="M368.2 397l-.4-2.3-2.2.4.3 2.2z"/><path class="beast-crown-12-st-6" d="M366.7 394.9c.6-.1 1.2.3 1.3 1 .1.6-.3 1.2-1 1.3-.6.1-1.2-.3-1.3-1 0-.6.4-1.2 1-1.3z"/></g><g><path class="beast-crown-12-st-5" d="M367.5 392.7l-.4-2.3-2.2.4.4 2.3z"/><path class="beast-crown-12-st-6" d="M366 390.6c.6-.1 1.2.3 1.3.9.1.6-.3 1.2-.9 1.3-.6.1-1.2-.3-1.3-.9-.1-.6.3-1.2.9-1.3z"/></g><g><path class="beast-crown-12-st-5" d="M366.7 388.4l-.5-2.2-2.2.4.5 2.2z"/><path class="beast-crown-12-st-6" d="M365.1 386.4c.6-.1 1.2.3 1.3.9.1.6-.3 1.2-.9 1.3-.6.1-1.2-.3-1.3-.9-.1-.6.3-1.2.9-1.3z"/></g><g><path class="beast-crown-12-st-5" d="M365.8 384.2l-.4-2.2-2.2.4.4 2.2z"/><path class="beast-crown-12-st-6" d="M364.3 382.2c.6-.1 1.2.3 1.3.9.1.6-.3 1.2-.9 1.3-.6.1-1.2-.3-1.3-.9-.1-.6.3-1.2.9-1.3z"/></g><g><path class="beast-crown-12-st-5" d="M365 379.9l-.5-2.2-2.2.4.5 2.2z"/><path class="beast-crown-12-st-6" d="M363.4 377.9c.6-.1 1.2.3 1.3.9.1.6-.3 1.2-.9 1.3-.6.1-1.2-.3-1.3-.9-.1-.6.3-1.2.9-1.3z"/></g><g><path class="beast-crown-12-st-5" d="M364.1 375.7s-.1-.6-.2-1.1c-.1-.6-.2-1.1-.2-1.1l-2.2.4s.1.6.2 1.1c.1.5.2 1.1.2 1.1l2.2-.4z"/><path class="beast-crown-12-st-6" d="M362.6 373.7c.6-.1 1.2.3 1.3.9.1.6-.3 1.2-.9 1.3-.6.1-1.2-.3-1.3-.9-.1-.6.3-1.2.9-1.3z"/></g><g><path class="beast-crown-12-st-5" d="M363.4 371.5s-.1-.5-.2-1.1c-.1-.5-.2-1.1-.2-1.1l-2.3.3.2 1.2c.1.6.2 1.1.2 1.1l2.3-.4z"/><path class="beast-crown-12-st-6" d="M361.9 369.4c.6-.1 1.2.3 1.3.9.1.6-.3 1.2-.9 1.3-.6.1-1.2-.3-1.3-.9-.2-.6.3-1.2.9-1.3z"/></g><g><path class="beast-crown-12-st-5" d="M362.8 367.3v-1.1-.7-.3l-2.3-.2V367.4l2.3-.1z"/><path class="beast-crown-12-st-6" d="M361.7 365.1c.6.1 1.1.6 1.1 1.1 0 .6-.5 1.1-1.1 1.1-.6 0-1.2-.5-1.2-1.1 0-.6.6-1.1 1.2-1.1z"/></g><g><path class="beast-crown-12-st-5" d="M363.2 363.6s0-.1.1-.3c.1-.2.2-.4.3-.5.2-.4.6-.6.6-.7l-1.5-1.7-.3.3c-.2.2-.4.4-.6.7-.2.3-.4.6-.5.8l-.2.4 2.1 1z"/><path class="beast-crown-12-st-6" d="M363.5 361.3c.2.2.3.5.3.8v.4c0 .1-.1.2-.1.3-.2.2-.4.3-.6.4-.3.1-.6.1-.9-.1-.3-.1-.5-.3-.6-.7-.1-.3 0-.7.2-1 .1-.2.2-.3.4-.4.2-.1.3-.1.5-.1.3 0 .6.1.8.4z"/></g><g><path class="beast-crown-12-st-5" d="M365.6 361.4s.4-.2.9-.2c.2-.1.5 0 .6 0h.3l.1-2.3h-1.3c-.7.1-1.3.3-1.3.3l.7 2.2z"/><path class="beast-crown-12-st-6" d="M367.5 360c-.1.6-.5 1.1-1 1.2-.5 0-1-.3-1.2-.9-.2-.6.2-1.3 1-1.4.7-.1 1.2.5 1.2 1.1z"/></g><g><path class="beast-crown-12-st-5" d="M369.1 361.5s.5.2.9.4c.2.1.4.3.6.4l.2.2 1.4-1.8s-.1-.1-.3-.2c-.2-.1-.5-.3-.8-.5l-1.2-.6-.8 2.1z"/><path class="beast-crown-12-st-6" d="M371.4 361.5c-.4.5-1.1.6-1.5.4-.4-.3-.7-.9-.5-1.5.2-.6.9-.9 1.6-.5.7.4.8 1.2.4 1.6z"/></g><g><path class="beast-crown-12-st-5" d="M372 363.7l.2.2c.1.2.3.4.4.6.3.4.6.9.6.9l2-1.2s-.3-.5-.7-1c-.2-.2-.4-.5-.5-.7-.1-.2-.2-.3-.2-.3l-1.8 1.5z"/><path class="beast-crown-12-st-6" d="M374.2 364.8c-.6.3-1.2.2-1.5-.3-.3-.5-.2-1.2.2-1.6.5-.4 1.2-.3 1.6.3.4.6.2 1.3-.3 1.6z"/></g><g><path class="beast-crown-12-st-5" d="M374.1 367.1l.4 1 .4 1 2.1-.8s-.2-.5-.4-1.1c-.2-.5-.5-1.1-.5-1.1l-2 1z"/><path class="beast-crown-12-st-6" d="M376 368.8c-.6.2-1.2-.1-1.5-.6-.2-.6 0-1.2.6-1.5.6-.3 1.3 0 1.5.6.3.6-.1 1.3-.6 1.5z"/></g><g><path class="beast-crown-12-st-5" d="M375.5 371.1l.8 2.1 2.1-.7-.7-2.2z"/><path class="beast-crown-12-st-6" d="M377.3 372.9c-.6.2-1.2-.1-1.4-.7-.2-.6.1-1.2.7-1.4.6-.2 1.2.1 1.4.7.3.5-.1 1.2-.7 1.4z"/></g><g><path class="beast-crown-12-st-5" d="M377 375.2s.2.5.4 1.1c.3.5.5 1.1.5 1.1l2-1s-.2-.5-.5-1l-.4-1-2 .8z"/><path class="beast-crown-12-st-6" d="M378.9 376.9c-.6.3-1.2 0-1.5-.6-.2-.6 0-1.3.6-1.5.6-.2 1.2 0 1.5.6.3.5 0 1.2-.6 1.5z"/></g><g><path class="beast-crown-12-st-5" d="M379 379.3s.1.1.2.3c.1.2.3.5.5.7.4.5.9.9.9.9l1.5-1.7s-.4-.3-.7-.7c-.1-.2-.3-.4-.4-.5-.1-.2-.2-.3-.2-.3l-1.8 1.3z"/><path class="beast-crown-12-st-6" d="M381.4 380.4c-.4.5-1.2.5-1.7-.1-.2-.3-.3-.6-.3-.9.1-.3.2-.6.5-.7.3-.2.6-.2.8-.2.3 0 .5.1.7.4.4.3.4 1 0 1.5z"/></g><g><path class="beast-crown-12-st-5" d="M382.4 382.6l1 .6c.5.3 1.1.6 1.1.6l1-2.1s-.5-.2-.9-.5c-.5-.3-.9-.5-.9-.5l-1.3 1.9z"/><path class="beast-crown-12-st-6" d="M385 382.7c-.3.6-1 .8-1.6.5-.6-.3-.8-1.1-.4-1.6s1-.7 1.5-.4c.6.3.8 1 .5 1.5z"/></g><g><path class="beast-crown-12-st-5" d="M386.5 384.6s.6.2 1.1.4c.6.2 1.1.4 1.1.4l.7-2.2s-.5-.2-1-.3l-1-.4-.9 2.1z"/><path class="beast-crown-12-st-6" d="M389.1 384.3c-.2.6-.8.9-1.4.7-.6-.2-.9-.9-.7-1.5.2-.6.9-.9 1.4-.7.5.2.8.9.7 1.5z"/></g><g><path class="beast-crown-12-st-5" d="M390.7 385.9s.1 0 .3.1c.2.1.5.2.7.3.5.2 1.3.4 1.3.4l.4-2.2s-.4-.1-.9-.3c-.3-.1-.5-.2-.7-.3-.2-.1-.4-.1-.4-.1l-.7 2.1z"/><path class="beast-crown-12-st-6" d="M393.2 385.5c-.1.6-.8 1-1.5.7-.6-.2-.8-.8-.7-1.4.2-.6.9-.9 1.5-.7.5.2.8.8.7 1.4z"/></g><g><path class="beast-crown-12-st-5" d="M395.9 385.8s.1-.2.3-.4c.1-.2.4-.6.5-.9.3-.7.4-1.3.4-1.3l-2.2-.4s-.1.5-.2.9c-.1.2-.2.3-.2.5l-.1.1 1.5 1.5z"/><path class="beast-crown-12-st-6" d="M395.9 382.9c.6.1 1 .8.7 1.5-.1.4-.5.6-.8.7-.3.1-.6 0-.9-.2-.2-.2-.4-.5-.4-.7-.1-.3-.1-.4 0-.7.3-.3.8-.7 1.4-.6z"/></g><g><path class="beast-crown-12-st-5" d="M397.3 380.9v-1.2c0-.6-.1-1.2-.1-1.2l-2.3.2s.1.5.1 1.1v1.1h2.3z"/><path class="beast-crown-12-st-6" d="M396 378.6c.6-.1 1.2.4 1.2 1.1 0 .7-.5 1.2-1.1 1.2-.6 0-1.1-.5-1.2-1.1 0-.6.5-1.1 1.1-1.2z"/></g><g><path class="beast-crown-12-st-5" d="M396.8 376.4s-.1-.6-.2-1.1c-.1-.6-.3-1.1-.3-1.1l-2.2.6s.1.5.3 1.1c.1.5.2 1.1.2 1.1l2.2-.6z"/><path class="beast-crown-12-st-6" d="M395.2 374.4c.6-.2 1.2.2 1.4.8.1.6-.3 1.2-.9 1.4-.6.1-1.2-.3-1.3-.9-.2-.5.2-1.1.8-1.3z"/></g><g><path class="beast-crown-12-st-5" d="M395.7 372.1s-.2-.6-.4-1.1c-.2-.5-.4-1.1-.4-1.1l-2.1.8.4 1c.2.5.3 1.1.3 1.1l2.2-.7z"/><path class="beast-crown-12-st-6" d="M393.9 370.3c.6-.2 1.2.1 1.5.7.2.6-.1 1.3-.7 1.4-.6.2-1.2-.1-1.4-.7-.3-.6 0-1.2.6-1.4z"/></g><g><path class="beast-crown-12-st-5" d="M394.2 367.9l-.9-2.1-2.1.9.9 2.1z"/><path class="beast-crown-12-st-6" d="M392.3 366.3c.6-.2 1.2 0 1.5.6.2.6 0 1.3-.6 1.5-.6.2-1.2 0-1.5-.6-.3-.6 0-1.3.6-1.5z"/></g><g><path class="beast-crown-12-st-5" d="M392.5 363.9l-.9-2-2.1.9.9 2z"/><path class="beast-crown-12-st-6" d="M390.5 362.3c.6-.3 1.2 0 1.5.6.3.6 0 1.2-.6 1.5-.6.3-1.2 0-1.5-.6-.2-.5.1-1.2.6-1.5z"/></g><g><path class="beast-crown-12-st-5" d="M390.7 360l-.9-2.1-2.1.9 1 2.1z"/><path class="beast-crown-12-st-6" d="M388.8 358.4c.6-.2 1.2 0 1.5.6.2.6 0 1.2-.6 1.5-.6.3-1.2 0-1.5-.6-.3-.6 0-1.3.6-1.5z"/></g><g><path class="beast-crown-12-st-5" d="M389.1 356.1l-.8-2.2-2.2.9.9 2.1z"/><path class="beast-crown-12-st-6" d="M387.2 354.4c.6-.2 1.2.1 1.5.7.2.6-.1 1.2-.7 1.5-.6.2-1.2-.1-1.5-.7-.2-.7.1-1.3.7-1.5z"/></g><g><path class="beast-crown-12-st-7" d="M382.6 354.1c-.2-.4 0-.9.5-1.1.4-.2.9 0 1.1.4.2.4 0 .9-.5 1.1-.4.3-.9.1-1.1-.4zM384.7 353.3c-.2-.4 0-.9.5-1.1.4-.2.9 0 1.1.5.2.4 0 .9-.5 1.1-.4.2-.9 0-1.1-.5zM386.8 352.5c-.2-.4 0-.9.5-1.1.4-.2.9 0 1.1.5.2.4 0 1-.5 1.1-.4.2-1 0-1.1-.5zM388.8 351.7c-.2-.4 0-1 .5-1.2.4-.2.9 0 1.1.5.2.5 0 1-.5 1.1-.4.3-.9.1-1.1-.4zM382.9 351.9c-.2-.4 0-.9.4-1.1.4-.2.9 0 1.1.4.2.4 0 .9-.5 1.1-.3.3-.8.1-1-.4zM385 351.1c-.2-.4 0-.9.4-1.1.4-.2.9 0 1.1.4.2.4 0 1-.4 1.1-.4.2-1 0-1.1-.4zM387 350.2c-.2-.4 0-1 .4-1.2.4-.2 1 0 1.2.5.2.5 0 1-.4 1.2-.5.2-1 0-1.2-.5zM383.1 349.7c-.2-.4 0-.9.4-1.1.4-.2.9-.1 1.2.4.2.4 0 .9-.4 1.1-.5.2-1 0-1.2-.4zM385.1 348.8c-.2-.4-.1-.9.4-1.2.4-.2 1 0 1.2.4.2.4 0 1-.4 1.2-.5.2-1 0-1.2-.4zM383.2 347.5c-.2-.4-.1-.9.3-1.2.4-.2.9-.1 1.2.3.2.4.1 1-.3 1.2-.5.3-1 .1-1.2-.3z"/></g></g><g><path class="beast-crown-12-st-3" d="M58.8 463.6c-.4-6.8 2.3-13.3 4.7-19.6 2.5-6.6 5.4-13.1 8.6-19.5.3-.6-.6-1.1-.9-.5-3.2 6.4-6.2 13-8.7 19.7-2.4 6.4-5.1 12.9-4.7 19.9 0 .6 1.1.7 1 0z"/></g><g><path class="beast-crown-12-st-3" d="M89.7 436.1c.7 0 .7-1 0-1s-.7 1 0 1z"/></g><g><path class="beast-crown-12-st-3" d="M99 454.1c.7 0 .7-1 0-1s-.7 1 0 1z"/></g><g><path class="beast-crown-12-st-3" d="M79.7 463.4h12c.7 0 .7-1 0-1h-12c-.7 0-.7 1 0 1z"/></g><g><path class="beast-crown-12-st-3" d="M164.2 444.2v-.7c0-.7-1-.7-1 0v.7c-.1.7 1 .7 1 0z"/></g><g><path class="beast-crown-12-st-3" d="M219 438.1h4c.7 0 .7-1 0-1h-4c-.7 0-.7 1 0 1z"/></g><g><path class="beast-crown-12-st-3" d="M256.3 444.1c.7 0 .7-1 0-1s-.7 1 0 1z"/></g><g><path class="beast-crown-12-st-3" d="M172 394.7s-7.6-.3-10.9-9.1c0 0 3 7.8 10.9 9.1z"/><path class="beast-crown-12-st-3" d="M173.2 396s-6.5-4-5.1-13.2c0 0-1.1 8.3 5.1 13.2z"/><circle class="beast-crown-12-st-8" cx="173" cy="396.2" r="3.3"/></g><g><path class="beast-crown-12-st-3" d="M189.6 483.8s-3.9-.2-5.5-4.6c0 0 1.5 4 5.5 4.6z"/><path class="beast-crown-12-st-3" d="M190.2 484.5s-3.3-2-2.6-6.7c.1 0-.5 4.2 2.6 6.7z"/><circle class="beast-crown-12-st-8" cx="190.1" cy="484.6" r="1.7"/></g><g><path class="beast-crown-12-st-3" d="M310.9 406.9c-.3.1-.4.1-.4.1-.1 0-.1-.1-.1-.1 0-.1 0-.2.2-.2l2-.5c.1 0 .2 0 .3.1 0 .1 0 .2-.2.2l-.9.2 1 3.7 2.1-.6-.2-1.3c0-.1 0-.2.1-.2s.2 0 .2.1l.3 1.4c0 .2 0 .3-.1.3l-3.5.9c-.1 0-.2 0-.3-.1 0-.1 0-.2.2-.2l.7-.2-1-3.6h-.4zM318.3 405c.5.3.9.9 1.1 1.6.4 1.3-.2 2.5-1.4 2.8-1.1.3-2.2-.4-2.6-1.8-.2-.8-.1-1.6.4-2.2.2-.3.6-.5.9-.6.6-.1 1.1-.1 1.6.2zm-2.5 2.5c.3 1.2 1.2 1.8 2.1 1.5.9-.2 1.3-1.2 1-2.3-.2-.8-.7-1.4-1.4-1.5h-.7c-.8.2-1.3 1.1-1 2.3zM319.6 404.5c-.1 0-.2 0-.3-.1 0-.1 0-.2.2-.2l1.2-.3c.1 0 .2 0 .3.1 0 .1 0 .2-.2.2l-.7.2 2.4 3.4.4-4.1-.7.2c-.1 0-.2 0-.3-.1s0-.2.2-.2l1.2-.3c.1 0 .2 0 .3.1s0 .2-.2.2h-.1l-.5 4.3c0 .1 0 .1-.1.2h-.2c-.1 0-.1 0-.2-.1l-2.6-3.5h-.1zM324.4 403.3c-.1 0-.2 0-.3-.1 0-.1 0-.2.2-.2l2.8-.8c.2 0 .2 0 .3.1l.4 1c0 .1 0 .2-.1.2s-.1 0-.2-.1l-.4-.8-1.8.5.4 1.6 1-.3-.1-.4c0-.1 0-.2.1-.2s.2 0 .2.2l.3 1.1c0 .1 0 .2-.1.2s-.2 0-.2-.2l-.1-.4-1 .3.5 1.8 1.9-.5v-.7c0-.1 0-.2.1-.2s.2 0 .2.1l.1.8c0 .1 0 .2-.1.2l-3 .8c-.1 0-.2 0-.3-.1 0-.1 0-.2.2-.2l.5-.1-1-3.6h-.5zM337.1 403.8c-.3.4-.6.6-1 .7-.7.2-1.4-.1-1.6-.8-.1-.3 0-.7.2-1.1.1-.1.1-.2.3-.4-.4-.3-.6-.5-.7-.8-.1-.5.2-1 .8-1.2.2-.1.5-.1.7 0 .1 0 .2 0 .3.1l.1-.1h.1c.1 0 .2 0 .2.1v.1l-.1.3h-.1-.1c-.2-.1-.5-.2-.8-.1-.4.1-.7.4-.6.7 0 .1.1.3.3.4l1.9 1.4c.1-.3.1-.5.1-1 0-.1 0-.2.1-.2l.2-.1c.1 0 .2 0 .2.1s0 .2-.1.2c0 .5 0 .7-.1 1.1l.3.3h.2c.1 0 .2 0 .2.1s0 .2-.1.2l-.3.1c-.1 0-.2 0-.4-.2-.1.1-.1.1-.2.1zm-1.7-1.3c-.2.2-.2.2-.3.4-.1.2-.2.5-.1.7.1.4.6.7 1.1.5.3-.1.5-.2.7-.6l-1.4-1zM345.2 397.7c-.1 0-.2 0-.3-.1 0-.1 0-.2.2-.2l1.1-.3c.1 0 .2 0 .3.1 0 .1 0 .2-.2.2l-.3.1 1 3.7.3-.1c.1 0 .2 0 .3.1 0 .1 0 .2-.2.2l-1.1.3c-.1 0-.2 0-.3-.1 0-.1 0-.2.2-.2l.4-.1-.5-1.8-2.1.5.5 1.8.4-.1c.1 0 .2 0 .3.1 0 .1 0 .2-.2.2l-1.1.3c-.1 0-.2 0-.3-.1 0-.1 0-.2.2-.2l.3-.1-1-3.7-.3.1c-.1 0-.2 0-.3-.1 0-.1 0-.2.2-.2l1.1-.3c.1 0 .2 0 .3.1 0 .1 0 .2-.2.2l-.4.1.4 1.6 2.1-.5-.4-1.6-.4.1zM347.9 397c-.1 0-.2 0-.3-.1 0-.1 0-.2.2-.2l1.5-.4h.1l2.5 3.5h.1c.1 0 .2 0 .3.1 0 .1 0 .2-.2.2l-1.1.3c-.1 0-.2 0-.3-.1s0-.2.2-.2l.6-.2-.7-1-2 .5-.1 1.2.6-.2c.1 0 .2 0 .3.1 0 .1 0 .2-.2.2l-1.1.3c-.1 0-.2 0-.3-.1 0-.1 0-.2.2-.2h.2l.4-4-.9.3zm1 2.1l1.8-.5-1.5-2h-.1l-.2 2.5zM352.5 395.7c-.1 0-.2 0-.3-.1s0-.2.2-.2l1.5-.4h.1l2.5 3.5h.1c.1 0 .2 0 .3.1 0 .1 0 .2-.2.2l-1.1.3c-.1 0-.2 0-.3-.1 0-.1 0-.2.2-.2l.6-.2-.7-1-2 .5-.1 1.2.6-.2c.1 0 .2 0 .3.1 0 .1 0 .2-.2.2l-1.1.3c-.1 0-.2 0-.3-.1 0-.1 0-.2.2-.2h.2l.4-4-.9.3zm1 2.2l1.8-.5-1.5-2h-.1l-.2 2.5zM357.1 394.5c-.1 0-.2 0-.3-.1 0-.1 0-.2.2-.2l1.5-.4h.1l2.5 3.5h.1c.1 0 .2 0 .3.1 0 .1 0 .2-.2.2l-1.1.3c-.1 0-.2 0-.3-.1 0-.1 0-.2.2-.2l.6-.2-.7-1-2 .5-.1 1.2.6-.2c.1 0 .2 0 .3.1 0 .1 0 .2-.2.2l-1.1.3c-.1 0-.2 0-.3-.1 0-.1 0-.2.2-.2h.2l.4-4-.9.3zm1 2.2l1.8-.5-1.5-2h-.1l-.2 2.5zM361.8 393.3c-.1 0-.2 0-.3-.1 0-.1 0-.2.2-.2l1.5-.4h.1l2.5 3.5h.1c.1 0 .2 0 .3.1 0 .1 0 .2-.2.2l-1.1.3c-.1 0-.2 0-.3-.1 0-.1 0-.2.2-.2l.6-.2-.7-1-2 .5-.1 1.2.6-.2c.1 0 .2 0 .3.1 0 .1 0 .2-.2.2l-1.1.3c-.1 0-.2 0-.3-.1 0-.1 0-.2.2-.2h.2l.4-4-.9.3zm1 2.1l1.8-.5-1.5-2h-.1l-.2 2.5zM366.4 393.3c0 .2 0 .3-.1.3s-.2 0-.3-.2l-.3-1.4c0-.1 0-.2.2-.2l3.4-.9c.1 0 .2 0 .2.2l.4 1.3c0 .1 0 .3-.1.3s-.2 0-.2-.2l-.4-1.2-1.3.3 1 3.7.8-.2c.1 0 .2 0 .3.1 0 .1 0 .2-.2.2l-2.1.6c-.1 0-.2 0-.3-.1 0-.1 0-.2.2-.2l.8-.2-1-3.7-1.3.3.3 1.2zM370.5 390.9c-.1 0-.2 0-.3-.1 0-.1 0-.2.2-.2l2.8-.8c.2 0 .2 0 .3.1l.4 1c0 .1 0 .2-.1.2s-.1 0-.2-.1l-.4-.8-1.8.5.4 1.6 1-.3-.1-.4c0-.1 0-.2.1-.2s.2 0 .2.2l.3 1.1c0 .1 0 .2-.1.2s-.2 0-.2-.2l-.1-.4-1 .3.5 1.8 1.9-.5v-.7c0-.1 0-.2.1-.2s.2 0 .2.1l.1.8c0 .1 0 .2-.1.2l-3 .8c-.1 0-.2 0-.3-.1 0-.1 0-.2.2-.2l.5-.1-1-3.6h-.5z"/></g><g><path class="beast-crown-12-st-9" d="M268.8 454.7c-3-.3-2.9-8.8-3.6-11.6-.6-2.3-1.6-4.9-3.7-6.3-2.8-2-6.8-2.3-10.1-2.6-1.7-.1-3.4-.2-5.1-.1-2.3.2-3.3 1.2-4.5-1.4-1.7-3.8-1.3-9.1-1.4-13.2-.1-2.7.1-5.9-1.8-8.1-1.6-1.9-3.6-1.8-5.8-2.2-1.7-.3 0 2.3-2.6-.9-.3-.4-.6-1.3-.8-1.8-.9-2.1-1.5-4.4-2.6-6.4-.3-.6-1.2-.1-.9.5 1.4 2.6 1.8 8 4.2 9.7 2.8 1.9 5.4-1.2 7.8 2.8 2.6 4.2 1.4 11.3 2.2 16.2.3 1.7.5 5.4 2 6.6 1.6 1.2 3.7-.5 5.5-.6 4.8-.5 12.9.6 15.4 5.1 2.2 4 1.8 8.7 2.4 13 .4 2.6.9 2.4 3.4 2.6.7-.2.7-1.2 0-1.3z"/></g></svg>