<svg id="Layer_1" width="480" height="210" xmlns="http://www.w3.org/2000/svg" viewBox="-65 292 480 210"><style>.beast-crown-13-st-0{display:none}.beast-crown-13-st-1{display:inline;fill:transparent}.beast-crown-13-st-2{fill:#d72050}.beast-crown-13-st-3{fill:#f0a732}.beast-crown-13-st-4{fill:#fcdca4}.beast-crown-13-st-5{fill:#75a08a}</style><path class="beast-crown-12-st-0 beast-crown-13-st-1" d="M328 749.4c0 84.3-68.3 152.6-152.6 152.6h-.7C90.3 902 22 833.7 22 749.4V525.6C22 441.3 90.3 373 174.6 373h.7c84.3 0 152.6 68.3 152.6 152.6v223.8z" id="Layer_1_1_"/><path class="beast-crown-13-st-2" d="M100.5 415.9c-7.9 10.6-17.8 19.3-25.8 29.8-4 5.2-8.4 10.2-11.7 15.9-1.6 2.7-3.2 5.5-4.7 8.3-1.6 2.9-2.9 6.1-5.1 8.7-.4.5.3 1.2.7.7 1.7-2 2.9-4.4 4.1-6.7 1.4-2.8 3-5.4 4.5-8.1 3.4-6.1 7.8-11.2 11.9-16.8 8.3-11 18.6-20.2 26.9-31.2.5-.6-.4-1.1-.8-.6z"/><path class="beast-crown-13-st-2" d="M59.3 473c-2.3-.3-4.7 0-6.9-.8-.6-.2-.9.8-.3 1 2.2.7 4.6.4 6.9.8.7.1 1-.9.3-1zM63 469.3c-2-1.1-4-2.2-5.9-3.5-.5-.4-1 .5-.5.9 1.9 1.3 3.9 2.4 5.9 3.5.5.3 1-.6.5-.9zM64.6 464.7c-1.9-1-2.6-3.5-4.6-4.4-.6-.3-1.1.6-.5.9 2 .9 2.7 3.4 4.6 4.4.6.3 1.1-.6.5-.9zM68.7 459.5c-1.6-.6-2.7-1.9-3.9-3.1-.5-.5-1.2.2-.7.7 1.3 1.3 2.6 2.7 4.3 3.4.7.2.9-.8.3-1zM71.8 455.3c-1.8-.9-3.4-2.2-5.4-2.8-.6-.2-.9.8-.3 1 1.9.6 3.4 1.9 5.1 2.7.7.3 1.2-.6.6-.9zM76 449.5c-1.7-.6-3.5-1-5.2-1.8-.6-.2-.9.7-.3 1 1.7.7 3.5 1.1 5.2 1.8.6.2.9-.8.3-1zM77.8 445.8c-.8-.3-1.6-.6-2.2-1.1-.6-.5-1-1.3-1.3-2-.2-.6-1.2-.3-1 .3.4.9.8 1.8 1.6 2.5.7.7 1.7 1 2.6 1.4.7.1.9-.9.3-1.1zM82.5 441.6c-2.3-1-4.2-3.2-5.7-5.2-.4-.5-1.2 0-.9.5 1.6 2.2 3.5 4.4 6.1 5.6.5.2 1-.7.5-.9zM85.2 438.1c-1.1-1.2-2.4-2.2-3.7-3.1-.3-.7-.4-1.3-.5-2-.1-.6-1.1-.6-1 0 .1.7.3 1.5.5 2.2 0 .2 0 .4.2.5.8 1.7 2.1 3.1 4.1 3.3.5.1.6-.6.4-.9zM88.1 433.9c-1-.5-1.7-1.3-2.4-2-.5-.5-1.2.2-.7.7.8.8 1.6 1.7 2.6 2.2.5.3 1.1-.6.5-.9zM90.6 431.1c-1.7-.9-3.3-2.1-4.5-3.5-.4-.5-1.1.2-.7.7 1.3 1.5 2.9 2.8 4.7 3.7.6.2 1.1-.6.5-.9zM94.2 428.2c-1.6-1.1-3.5-1.7-4.8-3.2-.4-.5-1.1.2-.7.7 1.4 1.5 3.4 2.1 5 3.3.5.4 1-.4.5-.8zM97.5 424.7c-1.6-1.1-3.4-1.7-5.1-2.4-.6-.2-.9.7-.3 1 1.7.7 3.4 1.2 4.9 2.3.5.3 1-.5.5-.9zM99.7 421.2c-1.6-.9-3.4-1.5-4.6-2.9-.4-.5-1.1.2-.7.7 1.3 1.5 3.2 2.2 4.9 3.1.5.3 1-.6.4-.9z"/><path class="beast-crown-13-st-3" d="M100.5 414.9c-1.1 1.3-2.3 2.7-3.4 4-.7-.4-1.3-.7-2-1.1-.6-.3-1.1.6-.5.9.6.3 1.2.6 1.8 1-.7.9-1.5 1.7-2.2 2.6-.6-.2-1.1-.3-1.7-.5-.6-.2-.9.8-.3 1l1.2.3-2.1 2.4c-.6-.4-1.2-.8-1.8-1.1-.6-.3-1.1.6-.5.9.6.3 1.1.6 1.6 1-.7.8-1.5 1.6-2.2 2.5L86 427c-.5-.4-1 .5-.5.9.8.6 1.5 1.1 2.3 1.7-.6.7-1.3 1.4-1.9 2.2-.1-.1-.2-.2-.4-.2-.6-.3-1.1.6-.5.9.1 0 .1.1.2.1-.8.9-1.6 1.9-2.5 2.8-.7-.7-1.2-1.6-1.5-2.5-.2-.6-1.1-.4-1 .3.3 1.1 1 2.1 1.8 3-.9 1-1.7 2-2.6 3-.9-.8-1.7-1.7-2.3-2.8-.3-.6-1.2-.1-.9.5.6 1.2 1.5 2.2 2.5 3.1-1.2 1.4-2.3 2.7-3.4 4.1-.4-.4-.6-.9-.7-1.4 0-.6-1-.6-1 0 0 .9.5 1.6 1 2.2-.9 1.1-1.8 2.1-2.6 3.2-.4-.1-.9-.2-1.3-.4-.6-.2-.9.8-.3 1 .3.1.6.2.9.2l-3.3 4.2-1.8-.9c-.6-.3-1.1.6-.5.9l1.6.8c-.7 1-1.5 2-2.2 3-.3-.2-.6-.5-1-.7-.5-.4-1 .5-.5.9l.9.6c-1 1.4-1.9 2.8-2.8 4.2-.7-.6-1.3-1.3-1.9-2-.4-.5-1.3 0-.9.5.7.9 1.4 1.6 2.2 2.3-.9 1.4-1.8 2.8-2.6 4.2-.6-.4-1.3-.8-1.9-1.2-.5-.4-1 .5-.5.9.6.5 1.3.9 1.9 1.2-.9 1.5-1.7 3.1-2.5 4.6-1.4-.2-2.7-.3-4.1-.3-.6 0-.6 1 0 1 1.2 0 2.4.1 3.6.3-.9 1.8-1.8 3.6-2.6 5.5-.3.6.6 1.1.9.5.8-2 1.8-3.9 2.7-5.8 1.1.2 2.1.3 3.2.6.6.1.9-.8.3-1-1-.2-2-.4-3-.5.8-1.5 1.6-2.9 2.4-4.3 1.2.7 2.5 1.3 3.9 1.8.6.2.9-.7.3-1-1.2-.5-2.4-1.1-3.6-1.7.8-1.4 1.6-2.7 2.5-4 .9.8 1.8 1.5 2.7 2.2.5.4 1-.5.5-.9l-2.7-2.1c.9-1.5 1.9-2.9 2.9-4.3 1.1.8 2.2 1.6 3.3 2.3.5.4 1-.5.5-.9-1.1-.7-2.1-1.5-3.2-2.2.7-1 1.5-2.1 2.3-3.1 1.1.6 2.3 1.1 3.4 1.7.6.3 1.1-.6.5-.9l-3.3-1.7c1.1-1.5 2.2-2.9 3.4-4.4 1.2.3 2.4.7 3.6 1 .6.2.9-.8.3-1-1.1-.3-2.1-.6-3.1-.9.8-1 1.5-1.9 2.3-2.8.8.6 1.7.9 2.6 1.2.6.2.9-.8.3-1-.7-.2-1.5-.5-2.2-1 1.1-1.4 2.3-2.7 3.4-4.1.9.7 1.9 1.4 2.9 2 .6.3 1.1-.5.5-.9-.9-.6-1.9-1.2-2.7-1.9.8-1 1.7-1.9 2.5-2.9.9.8 1.8 1.5 2.7 2.1.5.4 1-.5.5-.9-.8-.6-1.7-1.3-2.5-2 .9-1 1.7-1.9 2.6-2.9.7.5 1.3 1.1 1.9 1.7.5.5 1.2-.3.7-.7-.6-.6-1.2-1.2-1.9-1.8.6-.7 1.3-1.4 1.9-2.1.8.6 1.6 1.2 2.4 1.7.5.4 1-.5.5-.9-.8-.5-1.5-1-2.2-1.6.7-.8 1.5-1.7 2.2-2.5 1 .7 2 1.4 3 1.9.6.3 1.1-.6.5-.9-1-.5-1.9-1.2-2.9-1.8.8-.9 1.5-1.7 2.3-2.6 1.1.4 2.1.9 3 1.7.5.4 1.2-.3.7-.7-.9-.8-1.9-1.4-3-1.8l2.1-2.4c.9.5 1.8 1 2.8 1.5.6.3 1.1-.6.5-.9-.9-.5-1.6-1-2.5-1.5h-.1c1.1-1.2 2.1-2.5 3.2-3.7.5-.7-.2-1.4-.6-.9z"/><path class="beast-crown-13-st-2" d="M251.6 447.8c-2.6 1.7-5 3.6-7.4 5.6.1-1 .4-2.1.7-3.1.2-.6-.8-.9-1-.3-.4 1.2-.6 2.4-.7 3.6-1.6-.2-3.2-.4-4.8-.5-.6 0-.6 1 0 1 1.5 0 2.9.2 4.4.4-3.2 2.6-6.3 5.3-9.8 7.5.3-1.4.6-2.8.9-4.3.1-.6-.9-.9-1-.3-.3 1.6-.6 3.2-1 4.7-1.6-.5-3.2-.8-4.9-1.1-.6-.1-.9.9-.3 1 1.5.2 3 .6 4.5 1-.9.5-1.8 1.1-2.8 1.5-2.7 1.3-5.5 2.2-8.3 2.7.7-1.1 1.5-2 2.6-2.8.5-.4-.2-1.1-.7-.7-1.1.9-2 2-2.8 3.2-.7-.4-1.4-.9-2.1-1.2-.6-.3-1.1.6-.5.9.6.3 1.2.7 1.8 1-2.8.4-5.6.5-8.4.3.7-.7 1.4-1.3 2.2-1.8.5-.4 0-1.3-.5-.9-1 .8-2.1 1.7-3 2.6-1.1-1-2.1-2.2-2.8-3.5-.3-.5-1.2 0-.9.5.6 1 1.3 1.9 2.1 2.8-3.5-.4-6.9-1-10.3-1.9-.2-.6-.4-1.2-.6-1.9 1.7-1.7 3.5-3.4 5.5-4.9.5-.4 0-1.3-.5-.9-1.9 1.4-3.6 3-5.3 4.7-.3-.9-.6-1.7-1-2.5-.3-.6-1.1-.1-.9.5.4.9.8 1.8 1.1 2.8l-1.3 1.3c-.3-.1-.5-.2-.8-.2-3.3-1-6.4-1.9-9.7-2.6 1.2-1.2 2.4-2.4 3.5-3.7.4-.5-.3-1.2-.7-.7-1.2 1.4-2.6 2.7-3.9 4.1h-.2c-.5-1.2-.8-2.5-1-3.9-.1-.6-1.1-.4-1 .3.2 1.2.5 2.3.9 3.4-1.2-.2-2.4-.4-3.7-.5-2.8-.3-5.6-.3-8.5-.1l2.7-3.6c.4-.5-.5-1-.9-.5-1 1.4-2.1 2.8-3.1 4.2h-.3c-.8-.8-1.5-1.6-2.3-2.4-.5-.5-1.2.3-.7.7l1.8 1.8c-1.5.1-3 .3-4.4.5-2.8.4-5.6 1.1-8.4 1.9.9-1.6 1.8-3.2 2.8-4.8.4-.5-.5-1-.9-.5-1.1 1.6-2 3.3-2.9 5-1-.7-1.9-1.3-2.8-2.1-.5-.4-1.2.3-.7.7 1 .8 1.9 1.5 2.9 2.2-3.9 1.2-7.7 2.7-11.3 4.4.2-.9.5-1.8.7-2.7.2-.6-.8-.9-1-.3-.3 1.2-.6 2.4-1 3.6-.5.2-.9.5-1.4.7-1.7-1.3-3.3-2.9-4.8-4.5-.5-.5-1.2.3-.7.7 1.5 1.5 2.9 2.9 4.6 4.2-2.2 1.1-4.4 2.3-6.5 3.5-.6.3-.1 1.2.5.9 2.2-1.3 4.5-2.5 6.8-3.7.3.2.5.4.8.6-.4 1.7-.9 3.4-1.4 5-.2.6.8.9 1 .3.4-1.6.9-3.2 1.3-4.7 1.1.7 2.3 1.2 3.6 1.6.6.2.9-.8.3-1-1.3-.4-2.5-.9-3.6-1.6l.3-1.2c3.7-1.7 7.4-3.2 11.3-4.4-.4 1-.8 2.1-1.2 3.1-.2.6.8.9 1 .3.4-1.3.9-2.6 1.5-3.8.1 0 .2 0 .2-.1 1.5 1 3 1.9 4.6 2.7.6.3 1.1-.6.5-.9-1.3-.7-2.5-1.4-3.8-2.2 2.8-.8 5.7-1.4 8.6-1.9 1.4-.2 2.8-.4 4.2-.5l.1.1c-.6 1-1.1 2.1-1.3 3.3-.1.6.8.9 1 .3.2-1 .6-1.9 1.1-2.8 1.4 1.5 2.8 3 4.1 4.5.4.5 1.1-.2.7-.7-1.4-1.6-2.8-3.2-4.3-4.7 4.2-.3 8.4-.1 12.5.5.2 0 .4.1.7.1 0 .1.1.1.1.2-.7.8-1.3 1.6-1.8 2.5-.3.6.6 1.1.9.5.4-.7.9-1.4 1.4-2 .7 1.5 1.7 2.9 2.9 4.1.4.5 1.2-.2.7-.7-1.2-1.3-2.1-2.7-2.9-4.2l.1-.1c3.6.7 7 1.8 10.5 2.9-.8.8-1.6 1.7-2.5 2.5-.5.5.3 1.2.7.7 1-1 1.9-1.9 2.8-2.9.6.2 1.3.4 2 .5.4 1.3.9 2.5 1.4 3.8.3.6 1.1.1.9-.5-.5-1-.8-1.9-1.2-2.9 3.5.9 7.1 1.5 10.7 1.8-.5.7-1 1.4-1.4 2.1-.3.6.6 1.1.9.5.4-.8.9-1.5 1.5-2.2.7.6 1.6 1 2.4 1.4.6.3.9-.7.3-1-.5-.2-1-.5-1.4-.8 2.8.1 5.5 0 8.2-.4-.3.7-.6 1.3-.9 2-.2.6.7.9 1 .3.3-.8.7-1.7 1.2-2.4 1.1.7 2.1 1.5 3.1 2.2.5.4 1-.5.5-.9-.7-.6-1.5-1.1-2.2-1.6 2.5-.5 5-1.2 7.4-2.3 1.1-.5 2.1-1 3.2-1.6-.2.9-.4 1.9-.6 2.8-.1.6.9.9 1 .3.2-1.3.5-2.5.8-3.8 2 .6 4.1 1.4 6.1 2.1.6.2.9-.7.3-1-1.7-.7-3.5-1.3-5.3-1.9 3.2-2.1 6.2-4.3 9.2-6.8-.1 1.3-.1 2.2-.1 4.2h1c0-2 0-3.5.2-5.1l.3-.3c1.6.3 3.3.6 4.9.8.6.1.9-.9.3-1-1.4-.2-2.8-.5-4.2-.7 2.2-1.8 4.4-3.7 6.8-5.3.2 0-.3-1-.8-.7z"/><path class="beast-crown-13-st-3" d="M253.1 447.5c-.3-.1-.7-.2-1-.3-1-.3-1.5.9-1 1.6-2.3 2.1-5 3.8-7.6 5.6v-.4c.2-1.5.9-2.8 1.1-4.3.1-.6-.9-.6-1 0-.2 1.5-.9 2.9-1.1 4.5-1.4-.2-2.8-.5-4.3-.6-.6 0-.6 1 0 1 1.4.1 2.7.4 4.1.6-.8.6-1.6 1.2-2.3 1.8-2.5 2.2-4.7 4.2-7.1 5.9-.2-.1-.3-.1-.5-.2 0-.1.1-.3.1-.4.3-1.5.5-3 .6-4.5 0-.6-.8-.7-1-.1-.4 1.5-1 3-1.6 4.5-1.2-.4-2.5-.6-3.8-.5-.6 0-.6 1 0 1 1.2 0 2.4.2 3.5.5 0 .1-.1.2-.1.2-.1.4-.3 1-.4 1.5-1.2.6-2.5 1.2-4 1.6-2.2.7-4.3 1.1-6.5 1.4.9-1.5 2-2.8 3.2-4.2.4-.5-.3-1.2-.7-.7-1.3 1.4-2.4 2.9-3.4 4.5-.6-.3-1.3-.7-1.9-1-.6-.3-1.1.6-.5.9.5.2 1 .5 1.4.7-2.8.2-5.7.2-8.5 0 .9-1 2-1.9 2.9-2.8.4-.5-.3-1.2-.7-.7-1 1.1-2.2 2.1-3.2 3.3-1.3-.9-2-2.3-3-3.5-.4-.5-1.1.2-.7.7.7.9 1.3 1.9 2.1 2.7-3.4-.5-6.8-1.2-10.1-2.1-.2-.6-.5-1.2-.7-1.8 0 0 .1 0 .1-.1 2-2.1 4.5-3.6 6.6-5.5.5-.4-.2-1.1-.7-.7-2 1.8-4.3 3.4-6.3 5.3-.3-.8-.5-1.6-.6-2.5-.1-.6-1.1-.4-1 .3.2 1 .5 2 .8 3l-1.2 1.2c-.9-.2-1.7-.5-2.6-.8-2.7-.8-5.6-1.4-8.5-1.8 1.3-1.4 2.9-2.6 4.3-3.9.5-.4-.2-1.1-.7-.7-1.5 1.4-3.2 2.7-4.6 4.2-.4-1.1-.7-2.3-.8-3.5-.1-.6-1.1-.6-1 0 .2 1.2.4 2.5.8 3.7-4.2-.5-8.5-.5-12.6-.2 1-1.6 2.3-3 3.5-4.5.4-.5-.5-1-.9-.5-1.3 1.7-2.8 3.3-3.8 5.1h-.1c-.3-.4-.5-.9-.8-1.3-.1-.2-.3-.4-.5-.7-.1-.2-.2-.4-.3-.4 0 0 0-.1-.1-.1l-.1-.1c-.2-.3-.8-.1-.8.2-.1.4.2.6.4.9.4.5.7 1.1 1.1 1.7-1.7.2-3.3.4-4.9.7-2.5.4-5 1-7.6 1.7-.2-.1-.4-.3-.6-.4 1-2 2.3-3.8 3.8-5.3.5-.5-.3-1.2-.7-.7-1.5 1.5-2.8 3.4-3.9 5.3-.8-.6-1.6-1.2-2.4-1.7-.6-.3-1.1.5-.5.9.9.5 1.7 1.1 2.5 1.7-.1.3-.3.5-.4.8-3.9 1.2-7.7 2.6-11.4 4.3.3-.9.6-1.8.8-2.8v-.2c.2-.3.3-.7.5-1 .3-.6-.5-1.1-.9-.5-.9 1.6-1.6 3.4-2 5.2-.1 0-.2.1-.3.1-1.9-1-3.6-2.3-4.7-4.4-.3-.6-1.1-.1-.9.5 1 2.1 2.6 3.4 4.5 4.4-1.8.9-3.6 1.9-5.2 2.9-1.1.7-.1 2.4 1 1.7 1.6-1 3.3-1.9 5.1-2.8-.2 1.4-.3 2.8-.3 4.1 0 .6 1 .6 1 0 0-1.6.1-3.1.4-4.7.1-.1.2-.1.4-.2 1.6.8 3.3 1.5 4.8 2.5.5.4 1-.5.5-.9-1.3-.9-2.7-1.6-4.1-2.2 3.2-1.5 6.6-2.7 10-3.8-.2.7-.3 1.3-.4 2-.1.6.9.6 1 0 .1-.8.3-1.6.5-2.3 1-.3 1.9-.6 2.9-.8 1.3 1 2.7 1.8 4.3 2.3.6.2.9-.8.3-1-1.2-.4-2.3-1-3.3-1.7 3.2-.8 6.4-1.5 9.5-2.1.4-.1.7-.1 1.1-.2-.3.8-.4 1.6-.5 2.5 0 .6 1 .6 1 0 0-.9.2-1.7.5-2.4 1.4 1.5 3.3 2.5 4.8 3.9.4.4 1.1-.1.8-.6-.9-1.2-1.8-2.7-3-3.7 3.5-.2 7 .1 10.5.7-.3.5-.5 1.1-.7 1.7-.2.6.8.9 1 .3.2-.7.4-1.3.7-1.8.2 0 .4.1.6.1.8 1.6 1.8 3 3.1 4.2.5.4 1.2-.3.7-.7-1-.9-1.9-2.1-2.6-3.3 3 .6 6.1 1.3 9.1 2.1-.4.6-.8 1.2-1 1.9-.2.6.8.9 1 .3.2-.7.6-1.3 1.1-1.9 1.2.3 2.3.6 3.5.9.3.8.7 1.7 1 2.5.2.6 1.2.3 1-.3-.2-.7-.5-1.3-.7-2l2.4.6c2.3.5 4.6.9 6.9 1.2-.2.5-.4.9-.5 1.5-.1.6.8.9 1 .3.1-.6.3-1.1.6-1.6.7.1 1.5.1 2.2.2.7.4 1.4.7 2.1 1 .6.2.8-.6.4-.9 1.6 0 3.2 0 4.9-.2-.1.3-.3.7-.4 1-.2.6.8.9 1 .3.1-.5.3-1 .5-1.4.6-.1 1.3-.2 1.9-.3.8.5 1.5.9 2.3 1.4.6.3 1.1-.5.5-.9-.4-.2-.8-.5-1.2-.8 2.6-.5 5.2-1.1 7.8-2.1.2-.1.3-.1.5-.2.1.2.2.4.4.6.1.1.1.1.2.1v.1c0 .6 1 .6 1 0 0-.5 0-1 .1-1.5 1.1-.5 2-1.2 3-1.8 1.6.4 3.3.8 4.6 1.7.5.4 1-.5.5-.9-1.2-.9-2.7-1.2-4.1-1.6 1.6-1.3 3.1-2.7 4.6-4.2.7-.7 1.4-1.3 2.2-1.9v2.5c0 .6 1 .6 1 0v-3.3l2.1-1.5c1.3 0 2.7.1 3.9.6.6.3 1.1-.6.5-.9-1-.4-2-.6-3-.6 2.4-1.6 4.8-3.2 6.8-5.4.1-.5-.2-1.3-.9-1.6z"/><path class="beast-crown-13-st-2" d="M165.1 399.2zM164.8 396v-.2c0-.1.2-.1.2-.2 0-.2.2-.4.2-.5 0-.6-.7-.6-.9-.1-.5 1.4-1.1 2.8-1.8 4.2-.1 0-.1.1-.1.2-.2.4-.4.9-.6 1.3-2 3.9-4.2 7.8-6.1 11.7-2 3.5-3.9 7-5.6 10.6-2.4 4.4-4.3 8.9-4.8 14.1 0 .6.7.6.9.2.1 0 .3-.1.3-.3 0-.2.1-.5.1-.7 3.6-8.8 9.6-16.6 13.9-25 2.2-3.7 3.9-7.5 4.5-11.9v-.2c0-.2-.1-.3-.2-.4.1-.4.1-.8.2-1.2 0-.2.1-.5.1-.7.1-.1-.1-.3-.1-.5.1-.3.8-.3-.2-.4z"/><path class="beast-crown-13-st-3" d="M166.8 400.6c-.8-.4-1.6-.8-2.4-1.3.2-.4.4-.9.5-1.4.4.3.8.6 1.1.9.5.4 1.2-.3.7-.7-.4-.4-.9-.8-1.4-1.2.2-.7.4-1.4.5-2.1.2-1.3-1.7-1.8-1.9-.5-.1.6-.3 1.2-.4 1.7-.5-.1-1.1-.2-1.6-.1-.6.1-.4 1.1.3 1 .3-.1.7 0 1.1 0-.2.5-.3.9-.5 1.4-.6-.3-1.2-.5-1.8-.7-.6-.2-.9.8-.3 1 .6.2 1.1.4 1.7.6-.4.8-.8 1.7-1.2 2.5-.5-.3-1-.7-1.5-1-.5-.4-1 .5-.5.9s1 .7 1.5 1c-.3.6-.6 1.1-1 1.7-.6-.3-1.1-.6-1.7-.9-.6-.3-1.1.6-.5.9.6.3 1.1.6 1.6.9-.3.5-.6.9-.9 1.4-.6-.4-1.2-.9-1.7-1.3s-1 .5-.5.9c.6.4 1.1.9 1.7 1.3-.5.7-.9 1.4-1.4 2-.5-.3-1-.7-1.5-1-.5-.4-1 .5-.5.9s1 .7 1.5 1c-.5.8-1.1 1.5-1.6 2.3-.7-.4-1.3-.8-2-1.3-.5-.3-1 .5-.5.9.7.4 1.3.8 2 1.2-.5.8-1 1.6-1.5 2.3l-2.1-.9c-.6-.2-.9.8-.3 1 .6.2 1.3.5 1.9.8-.5.8-.9 1.6-1.3 2.4-.3-.3-.5-.5-.7-.9-.4-.5-1.2 0-.9.5.3.5.7.9 1.1 1.2-.4.7-.7 1.4-1.1 2.1-.5-.3-1-.6-1.5-1s-1 .5-.5.9 1 .7 1.5 1c-.4.8-.7 1.5-1.1 2.3-.4-.2-.8-.4-1.2-.7-.5-.4-1 .5-.5.9.4.3.9.5 1.3.7-.2.6-.5 1.2-.7 1.8-.8-.3-1.6-.6-1.8-1.1-.3-.6-1.1-.1-.9.5.3.8 1.5 1.2 2.4 1.5-.2.5-.3 1-.5 1.5-.8-.1-1.6-.3-2.5-.4-.6-.1-.9.8-.3 1 .8.1 1.6.3 2.5.4-.1.4-.2.9-.3 1.3l-2.1-.3c-.6-.1-.9.9-.3 1 .7.1 1.5.2 2.2.3-.1.5-.2.9-.3 1.4-1.4-.1-2.8-.3-4.1-.5-.6-.1-.6.9 0 1 1.3.2 2.6.3 4 .5 0 .3-.1.6-.1.9 0 .1-.1.2-.1.3v.6c0 1.3 2 1.3 2.1 0 0-.6.1-1.1.1-1.7 1.7 0 3.3-.1 4.8-.6.6-.2.4-1.2-.3-1-1.4.4-2.9.6-4.4.5.1-.4.1-.8.2-1.2.9.1 1.8.2 2.7.2.6 0 .6-1 0-1-.8 0-1.7-.1-2.5-.2l.3-1.2 4.2.6c.6.1.6-.9 0-1l-3.9-.6c.1-.4.3-.8.4-1.2 1.4.4 2.9.8 4.3 1.3.6.2.9-.8.3-1-1.3-.4-2.6-.8-4-1.2-.1 0-.2-.1-.3-.1l.6-1.5c1.5.6 3.1 1 4.6 1.4.6.2.9-.8.3-1-1.5-.4-3-.8-4.5-1.3.3-.7.6-1.4 1-2.1 1.7 1 3.4 1.9 5.2 2.8.6.3 1.1-.6.5-.9-1.8-.9-3.5-1.9-5.2-2.9.3-.6.6-1.2 1-1.8 1.3.9 2.8 1.6 4 2.6.5.4 1-.5.5-.9-1.3-.9-2.7-1.7-4.1-2.6.5-.9 1-1.8 1.6-2.8 1.9 1.1 3.7 2.3 5.8 3.2.6.3 1.1-.6.5-.9-2-.9-3.9-2.1-5.8-3.2.4-.8.9-1.5 1.3-2.3 1.5.9 3 1.6 4.7 2.2.6.2.9-.7.3-1-1.5-.6-3-1.3-4.4-2.1.5-.8 1-1.5 1.5-2.3.8.5 1.6.9 2.3 1.5.5.4 1-.5.5-.9-.7-.5-1.5-1-2.2-1.4.4-.6.9-1.3 1.3-1.9.7.5 1.4.9 2.2 1.3.6.3 1.1-.6.5-.9-.7-.4-1.4-.8-2.1-1.3.3-.5.7-1 1-1.5 1.6 1 3.1 2 4.7 3 .5.4 1-.5.5-.9-1.5-1-3.1-2-4.7-3 .4-.5.7-1.1 1-1.7.8.4 1.6.9 2.4 1.3.6.3 1.1-.6.5-.9-.8-.4-1.6-.8-2.3-1.3.5-.9 1-1.7 1.4-2.6.8.4 1.5.9 2.3 1.2.3.7.8-.2.2-.4z"/><path class="beast-crown-13-st-2" d="M275.9 439.2c0-10.4-10.5-21.4-16.9-27.9-6.5-6.6-13.7-8.2-22.5-9.5-4.9-.7-9.9-.9-14.8-1.8-3.9-.7-7.1-3-11.1-3.5-2-.2-2.7 2.9-1 3.7 0 0 .1 0 .1.1.1.2.3.4.5.6 8.7 7.7 19.2 11.8 29.3 17.2 6.2 3.3 11.9 7.5 17.3 11.9 3.1 2.6 5.9 5.5 8.7 8.4 1.3 3.7 3 7.2 5.9 10 .8.8 2 .8 2.8 0 2.5-2.3 2.6-5.8 1.7-9.2z"/><path class="beast-crown-13-st-3" d="M282.1 426.5l-6.3 3.3c-.2-.8-.5-1.6-.8-2.3.4-.9.7-1.8 1.1-2.7.2-.6-.7-.9-1-.3-.2.5-.4 1.1-.6 1.6-1.4-3.2-3.3-6.2-5.5-9 1.3-1 2.6-2.1 3.8-3.1.5-.4-.2-1.1-.7-.7-1.2 1.1-2.5 2.1-3.7 3.1-1.2-1.4-2.4-2.7-3.8-3.9.1-.9.3-1.7.4-2.6.1-.6-.9-.6-1 0-.1.6-.2 1.2-.2 1.8-1.8-1.6-3.7-3.1-5.8-4.5 1.3-1.5 2.6-3 3.9-4.6.4-.5-.3-1.2-.7-.7-1.3 1.6-2.6 3.2-4 4.7-.1 0-.1-.1-.2-.1-2.1-1.4-4.3-2.4-6.4-3.2.1-1 .2-2.1.3-3.1.1-.6-.9-.9-1-.3-.1 1-.2 2-.3 3.1-1.9-.6-3.8-1.1-5.7-1.4.9-1.2 1.9-2.5 2.9-3.7.4-.5-.3-1.2-.7-.7-1.1 1.4-2.2 2.8-3.2 4.2-.4-.1-.8-.1-1.2-.2.2-.8.5-1.6.8-2.4.2-.6-.7-.9-1-.3-.3.8-.6 1.7-.8 2.5l-5.1-.6c1.1-1.1 2.2-2.2 3.3-3.4.4-.5-.3-1.2-.7-.7-1.2 1.4-2.5 2.7-3.8 4-.4 0-.7-.1-1.1-.1.3-.9.7-1.8 1-2.7.2-.6-.6-1.1-.9-.5-.4 1-.8 2.1-1.2 3.1-1.5-.2-3.1-.4-4.7-.7-.4-.1-.9-.2-1.3-.3 1.2-1 2.5-2.1 3.8-3.1.5-.4-.2-1.1-.7-.7-1.4 1.1-2.9 2.3-4.2 3.5-.5-.1-.9-.3-1.4-.4.3-1 .7-2 .9-3 .2-.6-.8-.9-1-.3l-.9 3c-1.4-.5-2.9-1-4.3-1.4.5-.7 1-1.3 1.5-1.9.4-.5-.3-1.2-.7-.7-.6.8-1.3 1.6-1.9 2.4-.2 0-.4-.1-.6-.1.1-.4.2-.7.3-1.1.1-.4-.3-.7-.6-.6 0-.4-.5-.7-.9-.4-.7.6-1.3 1.2-1.9 1.8h-.3l.6-1.5c.2-.6-.7-.9-1-.3-.2.6-.5 1.2-.8 1.9-.4.1-.9.2-1.3.4-.4 0-.7.1-1.1.1-.5.1-.9.6-1 1.1-.1.1-.2.2-.4.3-.9.8-.4 1.9.4 2.3-.5.4-1.1.8-1.7 1.2-.5.4 0 1.2.5.9l2.1-1.5c.1.1.3.1.4.2.1.1.2.1.3.1-.3 1.2-.4 2.3-.2 3.4.1.6 1.1.4 1-.3-.2-1 0-2 .3-3.1.9-.1 1.7 0 2.6 0-.9 1.6-1.5 3.3-1.9 5.1-.1.6.8.9 1 .3.2-.8.4-1.6.7-2.4-.1.7-.3 1.3-.3 2-.1.6.9.9 1 .3.2-1.7.6-3.4 1-5.1 1.9.2 3.7.6 5.6 1-2.1 2-4.1 4.1-5.9 6.4-.4.5.3 1.2.7.7 1.5-1.9 3.2-3.7 4.9-5.5-.7 2.2-1.2 4.5-1.4 6.8-.1.6.9.6 1 0 .3-2.8 1-5.5 1.9-8.1 2.6.6 5.2 1.4 7.8 1.9-2.5 2.6-4.8 5.4-6.5 8.6-.3.6.6 1.1.9.5 1.6-3.2 3.8-5.8 6.2-8.4-.9 3.7-1.6 7.6-2.3 11.3-.1.6.8.9 1 .3.8-4 1.5-8.1 2.5-12 2.7.4 5.3.5 7.9.7 0 .2-.1.4-.1.5-2.5 3.9-4.6 8.1-5.9 12.6-.2.6.8.9 1 .3 1.1-3.6 2.7-7.2 4.7-10.5-.5 5-.5 9.9-.5 14.9 0 1 1 1 1 0 0-5-.1-11.3.8-17 .2-.3.3-.5.5-.7 2.9.2 5.7.6 8.4 1.7v7.1c-2.9 2.7-5.9 5.2-8.3 8.5-.4.5.5 1 .9.5 2.1-2.9 4.7-5.3 7.4-7.6-.1 4.3-.4 8.6-1.6 12.7-.2.6.8.9 1 .3 1.4-4.5 1.6-9.2 1.6-13.9.4-.4.8-.8 1.3-1.1 1.1-1 2.2-2.2 3.3-3.3 2.8 2 5.4 4.5 7.7 7.1-.3 1.3-.7 2.6-1 3.8-3.6 2.5-7.4 4.8-11.3 6.9-.6.3-.1 1.2.5.9 3.5-1.9 7-4 10.3-6.3-1.4 4.7-3 9.4-4.2 14.2-.2.6.8.9 1 .3 1.3-5.2 3.1-10.2 4.6-15.4.8-.5 1.6-1.1 2.4-1.7 1.3 1.8 2.5 3.7 3.5 5.7 1.1 2.1 2.1 4 2.8 6.1-3.6 1.7-7.3 3.3-11 4.7-.6.2-.3 1.2.3 1 3.8-1.4 7.4-3 11.1-4.7.1.2.1.5.2.7-1.8 4.6-3.5 9.1-5.5 13.6-.3.6.6 1.1.9.5 1.8-4.1 3.4-8.3 5.1-12.4.2.8.3 1.7.3 2.6.1 2.3.1 4.8 0 7.3-1.4.4-2.9.8-4.3 1.3-.6.2-.3 1.2.3 1 1.3-.5 2.6-.9 3.9-1.2 0 .5-.1 1-.1 1.5-1.2.4-2.5.7-3.7 1.3-.6.3-.1 1.2.5.9 1-.5 2-.8 3.1-1.2.2 1.2 2.2 1.5 2.8.4.1-.2.2-.4.3-.5.5-.1.9-.4 1.1-1.1.5-1.9.8-3.8 1-5.7v-.1-.2c.3-3.8-.1-7.5-1-10.9 2.2-1.1 4.4-2.2 6.6-3.4-.3-.7-.9-1.5-1.4-1.2zM215.5 396c-.2 0-.5-.1-.7-.1.3-.3.7-.6 1-.9-.1.3-.2.6-.3 1zm35.2 17c-.2.2-.4.3-.6.5v-5.8c.8.3 1.5.7 2.3 1.2.5.3 1 .6 1.4 1-1 1-2 2.1-3.1 3.1zm11.9 7.5c.2-.7.4-1.3.5-2 .3.3.6.7.8 1-.4.4-.8.7-1.3 1zM140.7 384.8c-1.5.5-3 1.1-4.5 1.7-.6-1-1.1-2.1-1.6-3.1-.3-.6-1.2-.1-.9.5l1.5 3c-1.1.4-2.1.8-3.2 1.2-.3-.7-.7-1.3-1.2-2-.4-.5-1.2 0-.9.5.4.6.8 1.2 1.1 1.8l-2.4.9c-.2.1-.3.1-.5.2-.2-.6-.4-1.2-.6-1.9-.2-.6-1.1-.4-1 .3.2.6.4 1.3.6 1.9-1.1.3-2.2.7-3.3 1-.2-.9-.3-1.8-.3-2.7 0-.6-1-.6-1 0 0 1 .1 2 .3 2.9-.4.1-.8.2-1.3.3-.5.1-1.1.3-1.8.4-.1-1.1-.3-2.3-.6-3.4-.2-.6-1.1-.4-1 .3.3 1.1.4 2.1.6 3.2-.9.1-1.8 0-2.5-.4-.6-.3-1.1.5-.5.9.9.5 2 .7 3.1.7l.3 2.4c.1.6 1.1.4 1-.3-.1-.7-.2-1.4-.3-2.2 1.1-.1 2.1-.4 3.2-.7.1.5.3 1 .5 1.4.2.6 1.2.3 1-.3-.2-.5-.3-1-.5-1.4 1.2-.4 2.2-.7 3.1-1 .1 0 .2-.1.3-.1.2.5.3 1 .4 1.5.2.6 1.1.4 1-.3-.1-.5-.3-1-.5-1.5 1-.3 2.1-.7 3.1-1.1.3.5.5 1.1.8 1.6.3.6 1.1.1.9-.5-.2-.5-.5-1-.7-1.5 1.1-.4 2.1-.8 3.2-1.2.4.7.8 1.5 1.3 2.2.4.5 1.2 0 .9-.5-.4-.7-.8-1.3-1.2-2 1.4-.5 2.8-1.1 4.3-1.6.7-.4.4-1.4-.2-1.1zM291.9 464.2c-1.4.9-2.6 1.9-3.9 2.9.2-.7.4-1.3.7-2 .2-.6-.8-.9-1-.3-.3.8-.5 1.7-.8 2.5-.6-.1-1.3-.3-1.9-.5-.6-.2-.9.8-.3 1 .6.2 1.2.4 1.9.5-1.6 1.3-3.1 2.7-4.7 4h-.1c.1-.4.1-.8.2-1.2.1-.6-.9-.9-1-.3-.1.4-.1.9-.2 1.3-.7-.1-1.5-.2-2.2-.3-.6-.1-.9.9-.3 1 .8.1 1.5.2 2.3.4v.2c-1.1.9-2.2 1.8-3.3 2.6-.1-.4-.7-.7-.9-.2-.2.4-.3.8-.5 1.2-.9-.2-1.7-.5-2.5-1-.6-.3-1.1.5-.5.9.6.3 1.3.6 1.9.8-.7.5-1.5.9-2.2 1.3-.6.3-.1 1.2.5.9.8-.4 1.6-.9 2.4-1.4-.2.6-.3 1.2-.5 1.8-.2.6.8.9 1 .3l.6-2.4c.7.2 1.4.3 2.1.4.6.1.9-.9.3-1-.6-.1-1.2-.2-1.7-.3 1.1-.8 2.2-1.6 3.2-2.4-.1.6-.1 1.3-.1 1.9 0 .6 1 .6 1 0 0-.9.1-1.9.2-2.8.2-.2.4-.3.6-.5.8.1 1.6.1 2.3.2.6 0 .6-1 0-1-.4 0-.8 0-1.3-.1 1-.9 2-1.7 3-2.6-.1.3-.1.7-.2 1-.1.6.9.9 1 .3.1-.8.3-1.6.5-2.3.1-.1.2-.1.3-.2l3.6.6c.6.1.9-.9.3-1-.9-.1-1.9-.3-2.8-.4 1.2-.9 2.3-1.8 3.6-2.7.5-.6 0-1.5-.6-1.1zM99.9 471c-1.6-2.3-3.3-4.6-4.5-7.1 1.2-1.1 2.3-2.2 3.4-3.3.1-.2.1-.4.1-.5-.1-.2-.2-.3-.4-.3h-.1-.1c-.1 0-.1.1-.1.1-1 1-2.1 2-3.2 3-.3-.7-.5-1.4-.7-2.1-.1-.6-1.1-.4-1 .3.2.9.5 1.8.9 2.6-.9.8-1.8 1.7-2.6 2.5-.5-1-1-2-1.3-3.1-.1-.6-1.1-.4-1 .3.3 1.3.9 2.4 1.5 3.5-.8.8-1.6 1.6-2.3 2.4-.5-1.2-.8-2.4-.8-3.7 0-.6-1-.6-1 0 .1 1.6.5 3.1 1.1 4.5-.6.7-1.2 1.4-1.8 2.2-.7-1.3-1.4-2.6-2-4-.3-.6-1.1-.1-.9.5.7 1.5 1.4 2.9 2.2 4.3-.8 1.1-1.6 2.3-2.2 3.5-.3.6.6 1.1.9.5.6-1.1 1.2-2.1 1.9-3 .3.5.6.9.9 1.4.4.5 1.2 0 .9-.5-.4-.6-.7-1.2-1.1-1.7.6-.7 1.1-1.4 1.7-2.1.6 1.2 1.4 2.3 2.2 3.4.4.5 1.2 0 .9-.5-.9-1.2-1.7-2.4-2.3-3.7.8-.9 1.6-1.7 2.4-2.5.9 1.4 1.7 2.7 2.3 4.3.2.6 1.2.3 1-.3-.6-1.7-1.6-3.2-2.6-4.7.8-.8 1.7-1.6 2.6-2.5 1.2 2.4 2.9 4.6 4.4 6.9.2.4 1.1-.1.7-.6z"/><path class="beast-crown-13-st-4" d="M107.1 421.1c-.5-2.1-4.9-2.1-2.4-5 1.2-1.4 1.2-3.8.5-5.4-1.6-3.8-6.4-1.1-7.9 1.2-.6 1-1.1 2.1-1.7 3.1-1.1 1.8-2.3.5-3.5-.2-.7-.5-2.9-.3-3.2.6-.1.3 0 .6.2.9.3.6 0 1.3.3 1.8.6 1 .1 1.2-.8 1-.7-.2-1.7 0-2.4.1-1.1.2-1.2 1.6-.6 2.2.5.6.3 1.7-.4 2-1.2.6-1.8.5-3 .5-.9 0-1.7 1.8-1.7 2.6 0 .5.1.8.4 1.2.7.7-.6 1.3-1.2 1-.4-.1-1-.3-1.4-.2-1.5.3-2 2.5-2 3.9 0 1.7-2.3.3-2.9.2-.7-.1-1.2.3-1.7.8-1.3 1.3-.4 3.1.5 4.5-1.3-.3-3.1-.4-3.5 1-.4 1.6.6 3.1.6 4.6-1.3-.3-3-.6-3.6.9-.4 1.1 1.4 4.7 0 4.8-1.6.1-3.4-.6-5 .1-1.2.5-.4 2.1.3 3.1h-1.1c-.3 0-.5 0-.6.2-.3 0-.5.1-.8.2-.4.2-.3.6 0 .8.9.6 2.6 1.6.7 1.7-.9 0-1.7 0-2.6-.1-1.2-.1-2.5-.3-3.2.8-1 1.4-.2 2.4.9 3.4.5.4 1.9 1.8.3 2.5-.5.2-1.4 0-2-.1-.7 0-1.6.3-2 1-1 1.6-.3 2.7 1 3.9 2.3 2.1-1.1 2.4-2.3 2.5-1 .1-1.8.4-2.4 1.1-.9.9-1 2.7-.2 3.6 1.2 1.3 3.8 1.6 3.4 3.4-.1 0-.3.1-.3.3-.6 2.1-2.5 5.8 1 5.9 2.1 0 4.4-.5 6.3-1.4 2.2-1.2 3.7-4.2 6.3-4.2 1.5 0 1.7-1.1 1.4-2.2-.2-1 .9-3 2-2.6.4.2.9.1 1.2-.3.6-.9.8-1.6.8-2.7 0-1.5.3-2.4 1.9-2.7.5-.1.6-.6.7-.9.1-.4 0-.8 0-1.2 0-.8 1-1.2 1.6-1.7 1-.7 2.2-1.5 2.1-2.8 0-.6-.5-1.1-.8-1.5-1.1-1.8 3-2.6 3.9-3.3.3-.2.2-.6.3-.9.1-1.8.7-2.7 2.4-3.2 1.5-.5 1.9-2 1.3-3.3-1.1-2.5 1.1-1.6 1.7-1.4.2.1.5.1.7 0 .5-.2.7-.4.9-.9.2-.5.6-1.3.5-1.8-.1-.4-.3-.9-.5-1.3-.1-.2 1.9-1.2 2.1-1.3 1.2-.4 2.7-.7 2.7-2.4 0-.3-.1-.6-.2-.9-.4-1.1.9-2.2 1.8-1.6.5.3 1.3.8 1.9.6 2.1-.8 1-2.9 1.3-4.7 1.1.7 2.8 1.5 3.3.1.3-.7-.5-5.1-.1-5.2 1.6-.5 3.3.1 4.8-.8 1.1-.7.5-1.8-.3-2.6 2.2 0 4.9-.1 4.3-3.3zm-6 1.9c-.4-.1-.7.6-.4.9 4.4 3.4-1.8 1.8-3.2 3-1.9 1.7 2.3 8-2.6 4.7-.3-.2-.6 0-.7.3-.3.8-.3 1.7-.2 2.5v1.6c0 1.5-1.8.1-2.1-.1-1.3-.9-2.3-.3-3.1.9-.3.5-.1 1.2 0 1.7.6 1.7-.7 2.1-1.9 2.6-1.7.6-2.9 1-2.2 2.9.4 1-.1 2.4-1.5 2-.5-.2-1-.3-1.5 0-2.1 1.2 1.1 4.2-1.5 5.1-1.6.6-2.3 1.2-2.6 3-.2 1.4.2 1.4-1.4 2-.7.3-1.9.4-2.4 1.1-.4.5-.8 1.2-.6 1.9.2.8 1.1 1.7.8 2.5-.4 1.4-3 1.6-3.5 3-.3 1 .1 2.1-1.4 2.2-.5.1-.8.3-1.1.7-.5.8-.3 2-.3 2.8 0 .8-.2 2.2-1.2 1.8-.3-.1-.6-.2-.9-.1-.9.3-2 2.5-2 3.5.1 1.6-.9 1.3-1.9 1.6-1 .3-1.8 1.5-2.5 2.2-2.3 2.3-4.7 3.1-8 3.4-1.1.1-1.7.1-1.5-1.1.2-.9.5-1.8.7-2.7.1 0 .1-.1.2-.2.6-1.2.9-2.5-.4-3.5-.7-.5-1.5-.9-2.3-1.4-.8-.5-1-1.2-.7-2.1.4-1.5 1.9-1.5 3-1.6 1.6-.1 3.1-.7 3-2.6 0-.8-.8-1.4-1.3-1.9-1.1-1-.7-2.9 1.1-2.8.5 0 1 .1 1.4.1 1.6-.2 2.1-1.9 1.4-3.2-.3-.5-3.5-2.9-1.2-3.5.8-.2 1.9 0 2.7 0 1 0 3 .4 3.8-.5.7-.8-.2-1.7-1.1-2.3.3 0 .6.1.8.2.3.1.5-.1.6-.3.2 0 .4-.1.7-.2.4-.1.5-.5.2-.8-3.4-4.3 2.9-.9 4.6-2.4 2.1-1.9-3.3-6.9 2.6-5.2.3.1.6-.1.6-.3.2-1 0-2-.3-3-.2-.6-.3-1.2-.3-1.8 0-1.4 2.9-.5 3.5-.4.4.1.8-.3.6-.7-.2-.3-.3-.6-.5-.9-.1-.2-.2-.4-.3-.5-.7-1.1-.5-2.1.8-3.3.6.1 1.3.6 1.9.8.9.3 1.8-.7 1.9-1.5.1-.9.2-1.6.5-2.5.5-1.4 2.3-.2 3.2-.6.6-.2 1.6-1.4 1.2-2.2-.4-.8-.6-1.5-.1-2.4.2-.4 1.3-.1 1.6-.1.9-.1 2.2-.5 2.7-1.4.6-1.2 1.1-1.6.2-2.6-.8-.9 2-.8 2.2-.7.5.3.8.4 1.4.3 1.1-.3.9-1.7.6-2.4-.3-.6-.2-1-.3-1.6-.2-.7-.7-.8.2-1 1.5-.4 3.1 2.3 4.6 1.3 1.4-.9 2-2.7 2.8-4.1 1.6-2.9 6.6-4.8 6.8 0 .1 1.5-.7 2.3-1.5 3.5-.4.5-.8 1.1-.6 1.8.6 1.8 3 1.6 3.5 3.2.6 2.7-4 1.6-5.3 1.4zM146.4 383.5c-.1-1.6-1.5-2.6-2.8-3-.9-.2-1.9 0-2.8.2-1.4.3-3.2 1.9-4.7 1.1-1.4-.8-2.6-2.3-4.4-1.6-1.2.4-1.2 1.9-1.1 3-1.8-.5-2.7-.5-3.2 1.5-.7-.4-1.4-.7-2.1-.5-.7.2-.9 1.7-1.4 1.4-.8-.4-1.4-1.4-2.4-1.4-.7 0-1.1.7-1.3 1.4-1.2-1.4-2.5-2.7-4.4-1.4-1.3.9-1.1 3.2-1 4.7-.8-.2-1.6-.3-2.4-.6h-.3c-1.1-.5-1.8.4-2 1.8-.3 2.5 3.1 3.4 4.8 4.1 2.6.9 1.4 5.4 4.5 5.3 1.6 0 1.7-2.3 2.2-3.7.6.9 1.3 1.5 2.6 1.4 1.5-.1 1.7-1.5 1.9-2.8.9.9 1.1 2.2 2.7 2 1.2-.2 1.1-2.8 1.5-3.6.3-.6 1.1 1.3 1.2 1.4.4.4.7.4 1.3.4 1.8-.1 1.8-1.8 2.1-3.1 1.4 1.1 2.7 2 4.5 1.3 1.5-.6.8-2.2.5-3.4-.5-2.4 6.7-2.6 6.5-5.9zm-6.9 4.4c-.4.6-.4 1.1-.3 1.8.1.9 1.1 1.8-.4 2.4-1.2.5-2.7-1.1-3.5-1.7-.2-.2-.6-.2-.8.1-.2.4-.3.7-.4 1.2.1 1.1-.5 1.6-1.8 1.5-.1-.2-.1-.5-.3-.7-.3-.6-1-1.2-1.7-.7-.9.5-1 1.5-1.1 2.4-.2 1.5-1 1.2-1.7.1-.3-.5-.7-.8-1.2-1.1-.3-.1-.6 0-.7.3-.1.4-.2.7-.3 1.1 0 1.4-1 1.4-3 0-.1-.3-.6-.5-.8-.2-.6.7-.7 1.5-1 2.3-.1.3-.2.6-.3.8-.3 1.2-1 1.1-2-.2-.2-.7-.3-1.4-.6-2.1-.3-.9-1-1.5-1.8-1.8-.7-.3-1.4-.5-2.2-.8-.6-.2-1.2-.5-1.7-.9-1.1-1.1-1-1.8.2-2.3.2.2.4.1.6 0 .8.3 1.6.5 2.5.6.3 0 .6-.1.6-.5v-2.9c.1-1.6 1.4-2.7 2.9-1.4.6.5 1 1.2 1.5 1.8.2.3.8.1.8-.2.4-1.8.9-1.4 2-.6.5.4 1.1.6 1.7.6.3 0 .5-.2.5-.5.1-2 1.4-.8 2.2-.4.3.1.7 0 .7-.3.4-2 1.3-1.6 2.9-1.2.4.1.7-.3.6-.6-1-5.5 3.8-.2 6-.8 1.5-.4 2.8-1.3 4.4-1.5 1.5-.2 3.5.8 3.2 2.6-.1.7-1 1.1-1.5 1.4-1.2.7-3.3 1-4.2 2.4zM170.4 399.8c.3-.1.6-.4.5-.8-.7-2.1-2.8-2.2-2.3-5.1.3-2.1-.2-4.4-2.4-5.1-1.8-.6-3.8 1.3-4.4 2.8-.5 1.4-.1 2.7-2.1 2.1-.5-.1-1.4.3-1.5.8-.1.5.3 1.5-.5 1.4-.8-.1-1.2.3-1.5 1.1-.2.7.5 1.2.9 1.6.9.8-.4.3-1 .7-.2.1-.3.3-.2.6.1.4.2 1.1.4 1.4.3.4-.9-.1-1.3-.1-.9.1-1.2.9-1.3 1.7-1-.2-2.1.1-1.7 1.5.1.4 1.7 2 .3 1.5-.5-.2-1.4-.3-1.9.2-.5.6-.6 1-.4 1.7 0-.1 1.1 1.7.3 1.4-.4-.1-.8-.3-1.2-.2-2.2.6-2.1 2.1-1.2 3.6-.9-.1-1.8-.2-2.4.8-.2.4-.2 1.2 0 1.6.7 1.1.3 1.1-.2 1.9-.3.4.2 1 .4 1.3.6 1-.7.2-1.2.5-1.3.7-1.2 1.9-.8 3.1-1.4-.2-2.1.7-2.1 2.2-1.8-.3-2 1.1-1.3 2.9.6 1.5.2.9-.7 1.8-.5.6-.4 1.3 0 1.9-.4.1-.7.4-1.1.7-.2.2-.2.5 0 .7.2.3-3.8 1.7-2.6 3.6.8 1.3 2.7 1.8 4.1 2.2 2 .6 2.1 1.9 2.4 3.6.1.6.6 1 1.1 1.2.1.1.2.1.3 0 .2.1.4.1.5-.1.4-.5 1.3.4 2.1.2.9-.3 1.3-1.7 1.7-2.4 1-2.1 3-1.3 4.7-2.1 1.6-.8-.1-3 1.6-3.4.3-.1.5-.5.3-.7-.3-.4.1-2.3.1-2.8 0-1.4 1.7-1.4 2.1-2.6.1-.4.8-.3 1.1-.7.4-.5.2-1.6 0-1.6h.3c.4 0 .5-.6.5-.9-.1-.6-.2-1.3-.3-1.9-.1-.3 1-.3 1.3-.3 1.2-.1 2.6-.3 3.5-1.2 1-1-.4-2.7-1.4-3.7 2.2-.6 1.5-2.1-.1-3.5.6-.4 1.2-.9 1.5-1.4.3-.5.6-.8.7-1.4.2-1.2 1.9.2 2.5.4 1 .5 2.2-.1 2.5-1.2.5-1.9-1-2.7-1.8-4.1.3-.1.7-.1 1-.1.4 0 .6-.4.4-.8-.2-.3-.2-.8-.4-1.1-.2-.4-1.4-.9.1-1.1.8-.1 1.3 0 1.9-.6 1.3-1.5-2-2.7.2-3.7zm-1.8.5c-.2.3-.2 1 .1 1.3 1.2 1.3-.4 1.1-1.3 1.6-1.5.7-.6 1.8.1 2.8-.3 0-.6.1-.9.1-.3 0-.6.3-.5.6.2.5.4.9.7 1.4.1.2.3.3.4.5.8 1 .4 3.2-1.1 2.4-.7-.3-1.7-1.1-2.5-.6-.8.5-.8 1.6-1.3 2.3 0-.1-1.4 1.2-1.7 1.4-.4.1-.5.7-.1.9.6.4 3.2 2 .4 2.3-.5.1-.6.5-.4.9.6.8 3 2.8 1.1 3.5-1.1.4-2.4.6-3.6.8-1 .2-.7 1.8-.5 2.8h-.5c-.4 0-.6.2-.4.5.5.7.4 1.2-.3 1.7-.3 0-.5.2-.5.4 0 1.1-1.9 1.5-2.1 2.8-.1 1-.5 2.2-.2 3.2-.4.2-.9.4-1 .9-.1.3-.1.7 0 1 .3 1.6-1.5 1.8-2.7 1.9-.8.1-1.5.4-2 1-.7.9-1.3 3.9-3.1 2.4-.2-.2-.5-.2-.7 0-.1.1-.2.3-.3.4-.7-.5-.5-1.6-.7-2.4-.1-.6-.6-1.1-1.1-1.5-.6-.6-6.3-2.2-5.3-3.2.7-.7 1.9-.8 2.6-1.6 1.2-1.2-1.3-1.1 1.3-1.5.4-.1.5-.6.2-.8.2-.5.3-1 .5-1.5.3 0 .5-.2.5-.5-.1-1-1.8-4 .2-3.4.4.1.7-.3.6-.6.2-1.6.8-2.1 1.8-1.5.5.2.7-.4.6-.7-.4-.9-.7-2.7 1-2.4.3.1.5-.1.8-.3.5-.3.3-1 .1-1.4-.8-1.3.4-1 .4-1.9 0-.5-.3-.9-.6-1.3-1.1-1.7 1.8-1.2 2.2-1.2.4 0 .7-.5.4-.8-.3-.3-.5-.7-.7-1.1-1.9-3 1.8-1.6 2.1-1.6.6 0 .7 0 1.1-.5.6-.6-1.2-3.4.2-3 .7.2 1.3.5 1.8-.3.2-.4.2-1.1.1-1.4 0 0-1.2-1.8 0-1.1.3.2.8-.1.8-.4-.1-2.3 1.5-.6 2.2-1.3.5-.4.9-.8.5-1.4-.4-.6-.2-.9.3-.9s.8-.7.9-1.1c.1-.6-.6-1.1-1-1.4-.2-.2 1.7-.7 1.8-.9.4-.7-.4-1.9 1.2-1.6.7.1 1.4.1 1.8-.6.7-1.2.2-2.5 1.2-3.6 2.5-2.6 4.6.5 4.2 2.9-.1.5-.3 1.3-.2 1.9.2 1.1.5 1.8 1.4 2.4 1.5 1 .3 1.3-.3 2.3zM99.7 466.8c-2.2-2.4 5-6.1 1.7-9-1.7-1.5-4.1-.4-5.6 1-2-2.8-5.6-1.4-5.4 1.7-.9-.6-1.8-.9-2.8-.3-.7.4-.8 1.3-.7 2.1-1.4-.4-2.1 1.7-2.4 3.5-1.1-1.4-2.9-2.6-4.2-.7-1.1 1.5-1.3 2.8-1 4.6.2 1 .5 1.9.8 2.9.7 2.2-.2 3.4-1.7 4.9-.2.2-.2.4-.1.6-.1.3 0 .6.3.6 1.1.2 1.4.4 2 1.4.3.6 1.1 1.2 1.8 1.1 1.7-.2 2.9-1.5 3.8-2.9 1.4 1.4 3.5.5 3.7-1.3 1.9 1.1 3.5-.2 3.4-2.4 2 1.2 4 .6 3.8-1.7 2 1.5 4 3.2 5.9.4 1.8-2.5-2-5.1-3.3-6.5zm-.5 6.4c-.9-.6-1.7-1.4-2.6-2-.4-.2-.9.1-.7.6.5.9.3 1.7-.5 2.5-.9.1-1.7-.7-2.3-1.3-.4-.4-1 0-.8.5.1.4.1.8.2 1.2-1.3 1.5-2.3 1.6-3 .5-.4-.4-1.1.1-.8.6-.7.4-1.3.8-2 1.2-.2-.3-.7-.3-.9 0-.4.7-.9 1.3-1.5 1.9-.8 1-1.8 1-3 0 0-.2 0-.4-.1-.6-.5-.8-1-.7-1.7-.7 1.1-1.1 2.1-2.3 1.8-4.1-.2-1.2-.6-2.3-.9-3.5-.4-1.4-.5-2.6.2-3.9 1.4-2.7 3.3.3 3.8 1.1.3.5.9.2.9-.3.1-.9.5-5 2.1-3.1.4.4 1-.1.8-.6-.9-1.3-.4-2 1.3-2.2.4.3.9.6 1.2.9.3.3 1 0 .8-.5-1.2-3 2-4.8 3.6-1.7.1.3.6.3.8.1.7-.8 1.4-1.3 2.4-1.7 2.6-1 3 1.8 1.8 3.6-.9 1.3-2.6 2.5-2.1 4.4.4 1.4 2 2.5 3 3.4.5.5.9 1.1 1.2 1.7.9 2-1.8 2.7-3 2zM257.2 446.7c-1.1-5.1-8.6-3.1-10.9.2-.2-.3-.3-.5-.5-.8 0-.4-.4-.6-.8-.4-2.2 1.3-.6-1.4-2.1-1.7-1.7-.3-2.5 1.1-3 2.5-.4 1-.8 3.8-2.3 3.7-.8 0-1.6 0-2.2.6-1.2 1.2-.6 2.5 0 3.9-1.8-.6-3.3-2.5-5.2-1.3-1.3.8-1.7 3-2.2 4.5-1.2-.3-2.7-.8-3.7.1-.4.4-.7.7-.9 1.2-.4.8-1.3.2-2 .3-1.7.1-1.6 1.4-2.9 2.3-.6.4-2.7 1.1-3 .2-.2-.7-.5-1.2-1-1.7-2.6-2.8-5.2 1.3-7.3 2.2-.7.3-1.7-1.6-2.7-1.5-.5 0-.8.2-1.1.5 2.2-2.6 4.7-6.1 1.7-7.6-2.7-1.3-6.7 2.2-9.1 3.5-2.2-2.7-4.3 1.9-6 3.2-1.5 1.1-.3-3-.1-3.7.3-1.1.4-2.5-.6-3.2-.8-.6-2.2.2-2.9.6-.8.4-1.5.9-2.2 1.3-1.3.8-1.7.7-2.4-.7-.6-1.3-2.3-1.3-3.3-.7-.5.3-.7.9-.8 1.4-.1.4-.2.9-.3 1.4-.2 1.4-1.2 1.4-2.8.1l.3-.9c.3-1-.1-2.9-1.1-3.4-1.2-.6-2.3 0-3.4.7-1.4.9-2.4 2.2-3.8 3.1-.7.5-2-.5-2.8-.7-.9-.2-1.6.4-2.1.9s-.5 1.2-.5 1.8c-.4.2-.9.5-1.3.7v-.7c0-.4.1-.9.1-1.3.1-1.4 0-2.9-1.3-3.7-3.2-1.8-5.3 1.6-6.8 3.9-1 1.5-1.8 2.2-3.5 1.1-.9-.6-1.6-.7-2.6-.4-1 .3-1.7 1.1-2 2.1-.1.4 0 1.1.1 1.5 0 .2.1.4.2.5.1.2.1.3.2.5.4.4.3.7-.4.9-.9-1.3-1.8-4.9-4.3-3.5-1.1.6-1.8 1.5-2.5 2.6-.5.7-.6 1.8-1.6 1.3s-1.9-1.2-2.8-1.7c-1.8-1-4.8-.6-5.6 1.6-.7 2.1 2.3 4.4 3 6.2.5 1.2-1.9 2.8-2.5 3.8-.5 1-.2 2.3.2 3.2 1.1 2.2 4.2 2.3 6 1.2 1.4 1 1.9 2.9 4 2.4 2.4-.5 2.8-2.3 3.2-4.4 1.5.8 4.2 3.2 5.4 1.2 1-1.7-.1-4-1-5.7.6-.3 1.3-.6 1.9-.8.5 1.5 1.8 2.9 3.5 2.3 1.8-.6 2.3-2.2 3.1-3.7 2.3 2 5.3 2.3 7.9.3 1.1-.8 1.4-1.7 1.1-2.4.9.7 1.5 1.9 2.7 2.4.9.5 1.7-.1 2.3-.7 1.7 1.8 4.3 3.7 6.8 2.6 3-1.3.4-3.8-.9-5.4 1.2 0 2.3.1 2.8 1.5.2.4.6 1.1 1 1.4 1.1.8 2.1.5 2.9-.3.4 1.6 1.3 3 3.1 3.3.6.1 1.2-.2 1.6-.6.6-.4 2.5-2.1 2.5-2.2 0 1.4-.5 2.5.8 3.4 1 .8 2.3-.1 3.1-.7.8-.6 1.4-1.4 2.3-1.9 1.4-.8 1.6 2 1.8 2.6.3 1.3 1 2 2.3 1.8 1.8-.2 2.5-2 3.8-3 2-1.5 2.8 1.7 3 2.8.1.5.3 1 .8 1.2 1.3.7 3-.9 3.8-1.7.7-.7 1.2-.8 2.1-.5.6.3 2.1-.7 2.6-.9.2-.1 2 2.7 3.2 2.6 2.1-.1 2-4.3 5-1.8.8.7 1.9 1.4 2.8.6.7-.6 1.2-1.2 1.4-2.1.3-1.1 1.3-1.3 2.2-1.5.8-.2 1 1.1 1.4 1.5 1 1 2.6.5 3.4-.6.6-.9.8-1.6 1-2.7.2-1.5 3.3.7 3.9.9 2.3.7 7.7-1 4.7-4-.5-.5-.5-.5-1-.9-.2-.1-.3-.2-.5-.2-.8-.2-.7-.6.3-1.3 1.1.2 2 .6 3.1.9 1.4.5 2.5.1 2.8-1.4 0-.2 0-.3-.1-.4 0-1.1-.3-2.1-.4-3.1.1 0 .1-.1.1-.1s0-.1.1-.1c.1-.1.2-.2.2-.3.9-.5 2.1-.2 2.9.4.2.2.4.2.6 0 .1.1.2.1.4.1 2.3-.4 5.5-2.4 2.8-4.7-2-1.7 1.9-2.9 2.6-4.1 0-1.3.5-2.6.2-3.7zm-1.4 2.4c-.6 1.4-3.8 2.1-3.7 3.9 0 .7.2 1 .7 1.5 1.8 1.9 0 3-2 3.3h-.1c-1.3-1.1-3.4-1.3-4.6 0v.1c-.1.1-.2.2-.2.4 0 1.3.6 2.7.4 4v.1c-.8 1.4-4.5-1.2-5.8-.6-1.8.9-1.2 2.4.3 3.2.8.4 2.4 1.5 1.5 2.7-.6.8-2.1.8-3 .8-1.7 0-2.6-1.3-4.1-1.8-.7-.2-1.4.3-1.7.8-.3.3-.3.8-.4 1.2 0 .5-.2 1-.5 1.4-1.4.9-2.2 1-2.5.1-.8-1.5-2.7-1.2-3.9-.2-.9.7-1.5 3.8-2.9 3-.8-.4-1.3-1.4-2.3-1.5-.8-.1-1.6.2-2.2.7-.5.4-.8.8-1.2 1.2-1.1 1.4-1.9-.6-2.4-1.3-.3-.4-.7-.9-1.3-.7-.5.1-.9.3-1.4.6-1 .5-1.1.3-1.9-.2-.1-.1-.4-.1-.5 0-1.6 1-4.2 4.8-4.8 1.2-.3-1.6-1.7-2.5-3.2-2.6-1.6-.1-2.5 2.1-3.6 2.9-2.2 1.6-2.2-2.7-3.2-3.7-.8-.9-2-.4-2.8.2-.6.5-1.2 1.1-1.8 1.6-1.7 1.5-2.5.2-2.2-1.5.1-.6.1-1.8-.9-1.5-.7.2-1.3.9-1.9 1.4-.5.5-1 .9-1.5 1.3-1.7 1.1-2.8-2.1-3-3.3-.1-.4-.6-.5-.8-.2-1 1.1-2.7.6-3.2-.9-.1-.2-.3-.5-.5-.7-1.2-.8-2.5-.7-4-.6-.4 0-.6.4-.4.8.8 1.2 4 3.2 1.9 4.8-1.8 1.4-4.9-1.7-6-2.9-.2-.3-.6-.1-.8.1-1.8 2.4-3.2-1.1-4.3-2-.8-.6-1.8-.2-2.6 0-.6.2-.4.9.1 1 3 .4 0 2.4-.7 2.8-2 1.1-4.4-.1-5.8-1.5-.2-.2-.6-.2-.8.1-.3.6-.6 1.3-.9 1.9-.2.5-.5.9-.8 1.3-2.2.6-3.4.1-3.5-1.4-.1-.3-.4-.4-.6-.3-1.1.4-2.1.9-3.1 1.3-.2.1-.3.5-.2.7.8 1.3 1.5 2.7 1.6 4.2.2 2.5-4.3-.7-5.1-.9-.2-.1-.6.1-.6.3-.3 1.8-.8 5.4-3.7 4.1-1-.4-1.4-1.9-2.5-2.4-.3-.2-.6 0-.7.3-1.6.9-3.4.7-4.6-.9-1.3-1.8.5-3.2 1.6-4.3.8-.8 1-1.9.5-2.9-.8-1.6-2.6-3.1-2.8-5 .4-1.1 1.3-1.7 2.5-1.6 1-.1 2 .6 2.7 1.1 1 .6 1.9 1.2 2.9 1.6.2.1.5 0 .6-.2.7-1.1 1.4-2.3 2.2-3.3 1.7-2 3.2.5 3.8 1.9.5 1.3 1.6 1.8 2.7.9.4-.3.2-.9.1-1.3s-.3-.7-.5-1.1c-.8-1.5.3-4 2.4-3 1.3.6 2.3 1.5 3.7.6 1.1-.7 1.8-2.2 2.5-3.3.6-.9 1.2-1.6 2.1-2.2 1.9-1.1 3.3.7 3.2 2.4 0 .9-.6 3 .2 3.6.9.7 2.2.2 2.7-.7.1-.2.2-.5.2-.7.1-1.4 1.7-2.2 2.9-1.7.5.2 1 .4 1.6.3 1.2-.2 2.5-1.9 3.3-2.6.8-.6 1.6-1.3 2.5-1.5 2.1-.6 1.2 2.9 1 3.8-.3 1.3 1.4 2.6 2.6 2.4 1.6-.3 2.1-1.9 2.4-3.4.2-1.2 2.1-1.6 2.6-.5.1.3.2.6.5.9.3.4.8.7 1.3.6 1.3-.3 2.5-1.3 3.7-2 .5-.3 2.2-1.4 2.5-.5.4.9-.2 2.1-.4 3-.3 1.1-1.1 3.7.5 4.1 2 .4 4.8-5.9 6.3-3.6.2.2.4.3.7.2 2.4-1.1 4.5-2.8 7.1-3.6 3.7-1.1 1.6 3.4.5 4.7-1.1 1.4-2.4 2.5-3.3 4-.2.3 0 .8.4.8 1-.1 1.6-.6 2.3-1.3.8-.9 1.7-1.4 2.7 0 .1.2.4.4.6.4 1 .2 1.8-.2 2.6-.8.4-.3.8-.7 1.2-1.1 1.4-1.3 4.2-1.8 4.5 1.3 0 .3.2.5.5.5 1.1.1 2.3.1 3.4-.4.8-.3 2.6-2.5 3.2-2.2.7.3 1.7.1 2.3-.3.2-.1.3-.3.3-.5.6-1.7 2.7-1.1 3.9-.8.3.1.5-.1.6-.3.6-1.5 1.1-5.6 3.8-4.3 1.3.6 2 1.5 3.6 1.5.3 0 .6-.3.5-.6-.2-.9-.6-1.7-.9-2.5-.6-1.8 2.7-1.2 3.4-1.7 1.1-.6 1.3-2.7 1.6-3.7.1-.4 1.2-3 1.8-1.9.3.6.6 1.1.8 1.6.3.6 1 .2 1.6-.1.2.6.5 1 1.1 1.4.2.1.6.1.7-.2 1-2.3 3.3-3.4 5.7-3.4 2.8-.7 4.6 1.1 3.4 3.8z"/><path class="beast-crown-13-st-4" d="M286.3 425.6c-1.4-2.9-6-1.4-8.6.2.3-1.6.3-3.1-1.1-4.4-.8-.7-1.6-.6-2.2-.1-.7-1.3-1.8-2.2-2.7-3.4 2-1.5 5.5-6.2 2-7.4-.9-.3-1.5-.3-2.4 0-1.2.5-2.3 2.9-3.9 1.4-1.4-1.3.6-3.8-1.2-5.4-1.5-1.3-2.2-.7-3.5.7-.7.8-.5-1.2-.3-1.5.4-.5.5-1 .7-1.6.3-.9.5-2.1.3-3-.4-1.6-1.4-2.5-3-2.2-1.7.3-2.9 2.5-4 4-.1 0-.2-.1-.3-.1-4.2.3-1.5-5.2-3.8-6.6-1.7-1.1-2.4-.1-3.2 1 .2-1.2.1-2.4-.8-3-2.3-1.2-3.5.8-4.8 2.4-.9-1.2-1.9-1.7-2.9-.7-1.1-2-3-2.8-4.7-1.1-1.1-2-2.5-1.4-4 .1-.2-1.1-.7-2.6-1.8-2.6-1.3 0-2.5 1.1-3.5 2-.2-1.2-.6-2.5-1.9-2.6-1.2-.1-2.1.7-2.7 1.7-.1-1.4-.5-3-1.9-2.7-1.1.2-3 2-3.8 1.2-.5-.5-.9-.4-1.3-.1-.9-1.3-2.7-.6-3.8.6-.5.5-.7 1.3-1.1 1.9-.6.7-1.6 1.1-2.4 1.5-.7.3-2.1 1.1-2.2 2-.3 2.7-4.9 3.1-3.8 6.6.6 1.9 3.2.8 4.7.5.1.1.2.1.4 0 .3-.1.5-.1.7-.2.2.9.3 1.8.6 2.7.3.7.8.8 1.3.5.1.9.1 1.7.5 2.5.4.9 1.2.7 1.9.2.1.5.3 1 .5 1.3-.2.2-.3.5-.1.7.2.2.4.5.6.8.4.5 1.1-.2.7-.7l-.1-.1c.9.1 2.1-.6 3.3-1.3-.1 1.5-.3 3.1 1 4.1 1.1.8 2.3-.1 3.2-1.1-.1.9.1 1.7.8 2.4.8.7 1.9.6 2.8.2.1.1.3.2.5.1 0 0 0 .1.1.3v.1c0 .7 0 1.3.3 2 .1.2.2.3.4.3.3.3.6.6 1.2.8.6.2 1.2-.1 1.7-.4.3-.2 2.2-2.9 2.6-1.7.4 1.4-.7 3.7.9 4.7 1.4.8 2.6-.4 3.5-1.5.4 2.5.6 7.2 3.8 6.2.6-.2 1.1-.8 1.5-1.3.2-.2.7.2 1 .3.9.2 1.7-.7 2.4-1.2 1.4.4 1.9 1.1 1.4 2.2-.1.4-.2.7-.4 1.1-.2.7-.6 1.4-.7 2.2 0 1.1.3 1.9 1.4 2.2 1 .3 3.4-1.5 3.9-1 .3.3.6.7 1.1.7 1.2 0 3.3-2.2 3.4 1.1 0 1.9-2.6 6.7.9 7.4.5.1 1-.1 1.4-.2 1.1-.3 1.8.3 2.7.6 1.5.5 3.4-1.7 4 .2.6 1.9.2 4.3-.3 6.1-.2.7-.7 2.7.3 3.2.3.2.5.2.8.1 1.3-.2.9 1 1.3 1.5 1 1.3 1.5.4 3.1.6.2 0 .3 0 .4-.1 1.7-.8 2.9-.5 4.7-.2.5.1 1.1 0 1.4-.4.2-.2.8-1.9.6-1.9.7 0 1.4-.5 1.8-1 1.2-1.6 1.4-3.8 1.6-5.8.4-3.5.6-6.8-.1-10.2-.8-3.4 2.9-3.6 5.3-4.8 1-.9 2.5-2.1 1.9-3.6zm-1.5 1.8c-1.7 1.7-4.9 1.5-6.4 3.4-.6.7-.5 1.8-.4 2.6.4 2.3.7 4.4.6 6.7-.1 2.2 0 9.6-3.2 9.7-.3 0-.5.2-.5.5-.1 2.8-1.8 1.3-3.5 1.2-1.1 0-1.8.4-2.8.9-.5-.1-1 0-1.6.1-.7.1-.4-1.1-.6-1.4-.4-.5-.9-1.2-1.7-1-1.6.3 0-2.8 0-3.7.1-1.4.1-2.8 0-4.2-.2-1.6-1.2-3.2-3-2.2-.8.4-1.4 1.1-2.2.2-.3-.3-.7-.4-1.1-.4-.4-.1-.8.1-1.2.1-2 .4-2.7-1.3-2.3-3.1.3-1.3 1.8-5.2-.7-5.7-.6-.1-3 .5-3.3.1-.6-.6-1.5-.2-2.2.1-1.2.5-3.2.7-2.5-1.5.2-.7.5-1.4.7-2.1.3-1 .2-2-.4-2.8-1.6-2.4-3.4 1.6-5 .1-.2-.2-.5-.2-.7 0l-.9.9c-.9-.3-1.7-.7-2.6-1-.2-.6-.3-1.3-.3-1.9-.1-1-.2-1.9-.5-2.9-.1-.4-.6-.5-.8-.2-.7.7-1.3 1.4-2 2-1.6 1.2-1.3-2.1-1.3-2.5 0-.9 0-2.2-.9-2.7-.7-.4-1.3 0-1.8.5-.4.4-2.4 3.5-3.3 1.4-.1-.6-.2-1.1-.2-1.7 0-.3.1-.6.1-1 .1-.6-.7-.9-.9-.4h-.1c-.1 0-.2.1-.3.1-.1-.2-.4-.2-.6-.1-3.3 2.3-2.2-2.8-2.1-3.3.1-.5-.6-.9-.9-.4-.3.5-.7 1-1 1.4-1 1.2-2.6 1-2.7-.7 0-.8.1-1.7.1-2.5 0-.4-.4-.7-.8-.4-1.5 1-4.1 3.2-4.4-.2 0-.1-.1-.2-.1-.3-.1-.2-.4-.3-.6-.2-.1 0-.2.1-.2.2-.2.2-.7.8-.9.6-.2-.2-.3-.7-.3-1-.1-.7-.1-1.5-.2-2.2-.1-.5-.7-.4-.9-.1-.3.5-.2.5-.4 0-.1-.4-.2-.8-.3-1.1-.1-.6-.2-1.3-.4-1.9-.1-.3-.6-.3-.8-.1-.2.2-.4.3-.6.3-.1 0-.2-.1-.3-.1l-1.5.3c-.3.1-.7.2-1 .3-1.2-1.3-1.4-2.2-.4-3 .6-.6 2.6-1.4 2.7-2.4.2-2.1 2.4-2.5 4-3.6.6-.4 3.4-5 4.1-2.7.1.4.6.5.8.2.2-.2 1.5.7 2.2.5.9-.2 1.7-1.3 2.6-1.7 1.2-.4 1.1 2.9 1.2 3.4.1.4.7.8.9.3.3-.8.7-1.4 1.2-2 1.3-1.5 2.3.8 2.5 1.9 0 .3.4.7.8.4.8-.6 1.6-1.3 2.4-1.9 1.6-1.2 2 1.3 2.2 2.4.1.3.6.5.8.2.5-.7 2.3-3.3 3.3-.6.1.3.6.5.8.2 1.2-1.6 3.2-.7 3.9.9.2.4.6.5.9.1 1.1-.4 1.8-.2 2.1.6.2.3.6.4.8.1.6-.7 1.1-1.5 1.7-2.2.9.2 1.8.4 2.6.6 0 .5-.1.9-.2 1.4-.1.5-.2.9-.3 1.4-.1.5.4.8.8.5.7-.6 1-1.4 1.5-2.2.7.2 1.4.4 2.1.5.1.4.1.8.1 1.2 0 .5.1.9.2 1.4.4 1.7 1.5 3.2 3.3 3.3 0 .4.5.7.8.4 1.3-1.4 2.2-3.5 4-4.3 2.4-.9 1.7 3.1 1.5 4-.3 1.1-1.3 1.9-1.5 3.1-.1.6.9 2.2 1.7 1.9.4-.2.6-.3.8-.6.5-.7 1.5-1.9 2.5-.6.7.9.4 2.5-.1 3.4-.1.2-.1.4.1.6 1.4 1.5 2.4 2.4 4.4 1.1.3-.2.6-.5.9-.8 1.1-1.1 2.1-.9 3.1.7-.1.6-.2 1.1-.5 1.6-.6 1.3-1.6 2.5-2.9 3.1-.2.1-.3.5-.2.7 1.1 1.5 2.7 2.6 3.3 4.4.2.5.8.5 1 0 1.9-.4 2.5.6 2 2.9l-.3 1.5c-.1.5.4.8.8.5 1.1-.9 2.5-1.4 3.8-1.8 1.4 0 6.4-.2 3.9 2.3zM296.9 462.1c-2-1-4.3.6-6.3 1.1-1-4-4.1-1.7-5.3 1.2-2.2-.2-3.9 1.1-3.5 3.2-2.1-.4-4.2.3-3.6 2.6-1.9.6-3.6 1.3-2.5 3.2-.5.3-.9.7-1.6.5-.9-.2-2.4-.7-3.3-.2-2 1.1-1.5 2.9-.1 4.1-1.1.7-2.6 1.6-2 3 .7 1.6 2.4 2.4 3.9 1.8 1.1.8 1.7 2.4 3.3 1.5 1.1-.6 2-1.6 2.1-2.9 1 .2 1.8 0 2.4-.7 1 1.9 3.3-1.7 3.7-3.8 1.7.2 2.7-1.1 3.1-2.7 1.1.3 1.9-.3 2.7-1.4.6-.8.3-1.4 1.4-1.5.9-.1 1.9.2 2.9.2 1.2 0 1.8-.9 1.8-2 0-1-1-1.5-2-1.8 1.3-.9 2.8-1.5 3.3-3 .1-.7.5-1.9-.4-2.4zm-2 3.5c-.8.6-1.7 1-2.5 1.7-.3.3-.1.8.4.9 1.2-.1 1.5.6.8 2.1-.5 0-1-.1-1.5-.2-.8-.1-1.2-.1-1.9.2-1.2.4-1.2 3.6-3.1 2.6-.4-.2-.7 0-.8.4 0 1.4-.8 2.1-2.5 2.3-.3-.1-.6.2-.6.5 0 1-1.8 5.2-2.1 3-.1-.5-.8-.4-1 0-.8.4-1.5.7-2.3 1.1-.3-.1-.8 0-.8.4-.1.4-.1.8-.2 1.3-.5 1.2-1.5 1.4-2.9.7-.3-.4-.5-.6-1-.9H272.6h-.1-.1-.1c-2.4 1.3-3.3-1.5-1.8-2.6.4-.3.9-.6 1.3-.9.3-.2.2-.6-.1-.8-.3-2.2.2-3.1 1.4-2.6.6.1 1.1.3 1.7.4.2 0 .4 0 .6-.2.4-.3.7-.5 1.1-.8.3-.1.5-.5.3-.7-1.3-1.8.8-2 2.1-2.4.3-.1.4-.4.3-.6-.8-2.4 1.8-2.1 3.1-1.6.3.1.8-.3.6-.6-.7-1.8.7-3.1 2.5-2.8.3.1.5-.1.6-.3.6-1.6 3-5 3.7-1.1.1.3.4.4.6.3 1.4-.3 2.7-.9 4.1-1.3 2.5-.7 2.1 1.4.5 2.5zM49.8 436.4c-.4-2.7-2.5-4.9-4.6-6.5-3.6-2.7-7.4-4.8-10.4-8.2-3.2-3.5-5.3-7.9-6.7-12.4-3.1-9.9-1.4-20.5-4.9-30.3-.1-.4-.7-.5-.9-.1-4.1 7.1-7 14.8-9.3 22.6-2.1 7.5-4 15.9-3.1 23.7.8 6.8 5.4 11.8 9.7 16.7 4.8 5.4 10 11.5 16.9 14.1-.1.2 0 .6.3.6 6.4 1.5 9.8-5.6 11.5-10.5 1.2-3 2-6.4 1.5-9.7z"/><path class="beast-crown-13-st-5" d="M46.6 465.4c-4.4 1.6-8 2.4-12.5.9-.6-.2-.9.8-.3 1 4.7 1.6 8.5.8 13-.9.6-.2.4-1.2-.2-1zM52.6 430.9c-.2-.2-.4-.4-.7-.2-.9.7-.8 2.9-.9 3.8-.2 3-.3 6.1-.8 9.1-1 6.6-6.2 14.8-13.6 14.4-.6 0-.6 1 0 1 7.3.4 11.1-5.9 13.6-11.9 1-2.4 1.2-5 1.4-7.7.1-1.6.2-3.3.3-4.9 0-.4 0-1.7.2-2.5 4.1 6.2 1.3 14.9-2.2 20.8-2.1 3.5-4.9 7-9.2 7.5-2.6.3-5.5-.2-7.3 2.1-.2.2-.2.6.1.8 1.1.6 2.3.9 3.6 1 .6 0 .6-1 0-1-1 0-1.7-.2-2.5-.6 1.5-1.3 3.5-1.2 5.4-1.2 1.7-.1 3.1-.4 4.6-1.2 3.2-1.8 5.5-5.5 7.2-8.7 3.4-6 5.3-14.8.8-20.6z"/><path class="beast-crown-13-st-5" d="M53.6 430.5c-.5-.4-1 .5-.5.9 2.5 1.8 3.6 5.7 3.7 8.7 0 .6 1 .6 1 0 0-3.4-1.3-7.6-4.2-9.6zM56.3 444.9c-1 1.8-1.5 3.9-1.9 5.9-.1.6.9.9 1 .3.3-1.9.8-3.9 1.8-5.7.3-.5-.6-1-.9-.5z"/><path class="beast-crown-13-st-5" d="M59.7 440.6c.5-4.6-1.3-8.4-3.7-12.1-.4-.5-1.2 0-.9.5 2.4 3.6 4 7.2 3.6 11.6-.1.7.9.7 1 0zM57.8 443.6v-1c-1 0-1 1 0 1zM41.3 465.5c1.4-.3 2.8-.9 4.1-1.6.6-.3.1-1.2-.5-.9-1.2.6-2.5 1.2-3.8 1.5-.6.1-.4 1.1.2 1zM49.8 460.3v-1c-1 0-1 1 0 1z"/><path class="beast-crown-13-st-5" d="M61.6 433.7c-1-2.9-2.7-7.5-6.4-7.5-.6 0-.6 1 0 1 3.2 0 4.7 4.8 5.6 7.3 1.6 4.4.1 9-2.1 13-.3.6.6 1.1.9.5 2.4-4.5 3.8-9.4 2-14.3z"/><g><path class="beast-crown-13-st-2" d="M16.6 395.8c2 .6 4.3.6 6.3.6v-1c-2 0-4.1 0-6-.6-.7-.2-.9.8-.3 1zM15.2 399.7c2.3.9 4.8 1.2 7.3.6.6-.2.4-1.1-.3-1-2.3.6-4.6.3-6.7-.6-.6-.2-.9.8-.3 1zM14.1 405.2c2.9.1 5.6.7 8.2-1 .5-.4 0-1.2-.5-.9-2.4 1.6-5 .9-7.7.8-.6.1-.6 1.1 0 1.1zM23.3 408.5c-3.1 2.1-7.4 1.5-10.9.9-.6-.1-.9.9-.3 1 3.7.7 8.3 1.3 11.6-1 .6-.4.1-1.2-.4-.9zM22.5 392.7c.6-.1.4-1.1-.3-1-1.2.2-2.3.1-3.2-.8-.5-.4-1.2.3-.7.7 1.2 1.2 2.6 1.4 4.2 1.1zM19.6 388.8c.6 0 1.2.3 1.8.3.6 0 .6-1 0-1s-1.2-.3-1.8-.3c-.6 0-.6 1 0 1zM21.1 385.1c.3 0 .6.3.9.5.5.4 1.2-.3.7-.7-.4-.4-1-.7-1.6-.8-.6 0-.6 1 0 1z"/></g><path class="beast-crown-13-st-4" d="M301.6 446.1c1.8 4.9 5.1 12 11.5 10.5.3-.1.4-.4.3-.6 7-2.6 12.2-8.7 16.9-14.1 4.3-4.9 8.9-9.9 9.7-16.7.9-7.8-1-16.2-3.1-23.7-2.2-7.8-5.2-15.5-9.3-22.6-.2-.4-.8-.3-.9.1-3.5 9.8-1.9 20.5-4.9 30.3-1.4 4.5-3.5 8.9-6.7 12.4-3.1 3.4-6.8 5.5-10.4 8.2-2.1 1.6-4.2 3.8-4.6 6.5-.4 3.3.4 6.7 1.5 9.7z"/><g><path class="beast-crown-13-st-5" d="M303.4 465.4c4.4 1.6 8 2.4 12.5.9.6-.2.9.8.3 1-4.7 1.6-8.5.8-13-.9-.6-.2-.4-1.2.2-1zM297.4 430.9c.2-.2.4-.4.7-.2.9.7.8 2.9.9 3.8.2 3 .3 6.1.8 9.1 1 6.6 6.2 14.8 13.6 14.4.6 0 .6 1 0 1-7.3.4-11.1-5.9-13.6-11.9-1-2.4-1.2-5-1.4-7.7-.1-1.6-.2-3.3-.3-4.9 0-.4 0-1.7-.2-2.5-4.1 6.2-1.3 14.9 2.2 20.8 2.1 3.5 4.9 7 9.2 7.5 2.6.3 5.5-.2 7.3 2.1.2.2.2.6-.1.8-1.1.6-2.3.9-3.6 1-.6 0-.6-1 0-1 1 0 1.7-.2 2.5-.6-1.5-1.3-3.5-1.2-5.4-1.2-1.7-.1-3.1-.4-4.6-1.2-3.2-1.8-5.5-5.5-7.2-8.7-3.4-6-5.3-14.8-.8-20.6z"/><path class="beast-crown-13-st-5" d="M296.4 430.5c.5-.4 1 .5.5.9-2.5 1.8-3.6 5.7-3.7 8.7 0 .6-1 .6-1 0 0-3.4 1.3-7.6 4.2-9.6zM293.7 444.9c1 1.8 1.5 3.9 1.9 5.9.1.6-.9.9-1 .3-.3-1.9-.8-3.9-1.8-5.7-.3-.5.6-1 .9-.5z"/><path class="beast-crown-13-st-5" d="M290.3 440.6c-.5-4.6 1.3-8.4 3.7-12.1.4-.5 1.2 0 .9.5-2.4 3.6-4 7.2-3.6 11.6.1.7-.9.7-1 0zM291.8 443.6v-1c1 0 1 1 0 1zM308.7 465.5c-1.4-.3-2.8-.9-4.1-1.6-.6-.3-.1-1.2.5-.9 1.2.6 2.5 1.2 3.8 1.5.6.1.4 1.1-.2 1zM299.8 460.3v-1c1 0 1 1 0 1z"/><path class="beast-crown-13-st-5" d="M288.4 433.7c1-2.9 2.7-7.5 6.4-7.5.6 0 .6 1 0 1-3.2 0-4.7 4.8-5.6 7.3-1.6 4.4-.1 9 2.1 13 .3.6-.6 1.1-.9.5-2.4-4.5-3.8-9.4-2-14.3z"/></g><g><path class="beast-crown-13-st-2" d="M333.3 395.8c-2 .6-4.4.6-6.4.6v-1c2 0 4.2 0 6.1-.6.6-.2.9.8.3 1zM334.8 399.7c-2.3.9-4.8 1.2-7.3.6-.6-.2-.4-1.1.3-1 2.3.6 4.6.3 6.7-.6.6-.2.9.8.3 1zM335.9 405.2c-2.9.1-5.6.7-8.2-1-.5-.4 0-1.2.5-.9 2.4 1.6 5 .9 7.7.8.6.1.6 1.1 0 1.1zM326.7 408.5c3.1 2.1 7.4 1.5 10.9.9.6-.1.9.9.3 1-3.7.7-8.3 1.3-11.6-1-.6-.4-.1-1.2.4-.9zM327.5 392.7c-.6-.1-.4-1.1.3-1 1.2.2 2.3.1 3.2-.8.5-.4 1.2.3.7.7-1.2 1.2-2.6 1.4-4.2 1.1zM330.4 388.8c-.6 0-1.2.3-1.8.3-.6 0-.6-1 0-1s1.2-.3 1.8-.3c.6 0 .6 1 0 1zM328.9 385.1c-.3 0-.6.3-.9.5-.5.4-1.2-.3-.7-.7.4-.4 1-.7 1.6-.8.6 0 .6 1 0 1z"/></g></svg>