<svg id="Layer_1" xmlns="http://www.w3.org/2000/svg" viewBox="-65 292 480 210"><style>.beast-crown-14-st-0{display:none}.beast-crown-14-st-1{display:inline;fill:#0e5941}.beast-crown-14-st-2{fill:#f0a732}.beast-crown-14-st-3{fill:#d72050}.beast-crown-14-st-4{fill:#fcdca4}</style><path class="beast-crown-14-st-0 beast-crown-14-st-1" d="M263 1041.4c0 84.3-68.3 152.6-152.6 152.6h-.7C25.3 1194-43 1125.7-43 1041.4V817.6C-43 733.3 25.3 665 109.6 665h.7c84.3 0 152.6 68.3 152.6 152.6l.1 223.8z" id="Layer_1_1_"/><path class="beast-crown-14-st-2" d="M106.1 333.1c-10.8-16.7-26.5-29.6-45.7-35.5-18-5.5-37.6-4.2-55.2 1.9-18.8 6.5-35.5 18.7-47.9 34.2-14.6 18.2-18.3 41.7-13.7 64.2 4.2 21 15.2 39.4 29.7 55 7.3 7.9 15.5 15 24.6 20.8 8.2 5.2 17.5 9.3 27.3 9.9 1.5.1 2.9 0 4.4-.1 7.1 1.2 14.3 1.4 21.4-1.2 10.5-3.8 18.1-11.9 22.7-21.8 4.1-8.9 5.7-19.9 1.1-28.9-2.1-4.2-5.8-7.5-10.1-9.3-5-2.1-10.8-2.2-16.2-2.8-6.9-.7-13-2.8-19.3-5.6-6.5-3-13-6.6-18.4-11.3C2.4 395.3-.3 383.8.4 373c.7-11.3 5.1-22.5 12.1-31.4 6.3-8.1 15.2-12.8 24.8-15.9 11.5-3.7 24-5 36-4.1 11.4.9 23.5 4.1 32.1 12.1.3.4 1-.1.7-.6z"/><path class="beast-crown-14-st-3" d="M18.3 314.5c1.7 4.2 2.5 8.6 4.7 12.6.7 1.3 2 1.5 3 1 .1 0 .2-.1.3-.2.5-.3.9-.8 1.1-1.4 2.2-2.4 5-4.2 6.7-7.1.2-.3 0-.6-.3-.7-3-.9-5.9-.1-9-.2v-.1c2.4-2.7 5-5.3 6.9-8.4.2-.3 0-.6-.3-.7-3.3-1.2-6.8-1.1-10.2-1.5 0-.1-.1-.2-.1-.3 2.6-2.4 5.4-4.5 8.4-6.4.4-.2.3-.8-.1-.9-3.9-1.4-8.1-1.2-12.1-2.3H17c-1.4-.2-2.8.6-2.5 2.3.6 5.1 1.9 9.7 3.8 14.3zM18.5 324.8c.9 2.1 1.7 4.2 3.7 5.5.5.4 1-.5.5-.9-2.2-1.5-2.8-4.2-3.9-6.5-1.3-2.7-2.6-5.4-3.4-8.2-1.4-4.9-4.1-9.8-3-15 .1-.6-.8-.9-1-.3-1.2 5.7 1.7 11.1 3.2 16.4.9 3.2 2.7 6 3.9 9zM92.2 323.9c.6-.6 1.1-1.4 1.6-2 0 1.3 0 2.6.4 3.8.1.3.4.5.7.3.8-.4 1.4-.9 2.2-1.2.1 1 0 1.8.8 2.6.4.4 1 .6 1.5.8 1.3.7 2.4 2.1 3.5 3 .5.4 1.2-.3.7-.7-1-.9-2-1.9-3.1-2.7-.5-.4-1-.7-1.6-1-.9-.5-.8-2-.9-2.9-.1-.3-.4-.4-.6-.3-.9.2-1.6.7-2.4 1.2-.3-1.4-.1-2.8-.3-4.3 0-.4-.5-.7-.9-.4-.9.9-1.5 2-2.4 3-.4.6.3 1.3.8.8zM48.9 485c-4.3.9-9.3.8-13.7.5-2.8-.2-5.8-1.6-8.1.5-.5.4.2 1.1.7.7 1.8-1.7 4.6-.6 6.7-.3 2 .3 4 .2 6 .1 4.6-.1 9-.4 13.3-2 7.9-3 13.7-9.2 18.5-15.9 5-7 8.1-14.8 7.9-23.5-.1-4.7-.3-9.3-1.7-13.8-1.3-4.1-4.8-6.6-6.5-10.5-.3-.6-1.1-.1-.9.5 1.7 3.8 5 6.3 6.4 10.2 1.5 4.3 1.6 9 1.7 13.5.2 9.2-3.4 17.1-8.7 24.3-5.4 7.6-12.4 13.8-21.6 15.7z"/><path class="beast-crown-14-st-3" d="M30.1 492c2 0 4 .1 6 .1 1.8 0 3.6-.3 5.4-.1 1.8.2 3.5.4 5.3.3 3.5-.1 7.1-1.2 10.4-2.3 6.6-2.1 11.4-6 15.7-11.3 4.3-5.2 8.2-10.1 11-16.4 2.6-6 3.7-12.4 3.7-18.9 0-6.7-2-12.7-4.8-18.6-2-4.2-3.8-8.6-8.5-10.2-2-.7-4.4-.8-6.2.4-1 .7-2.4 2.7-2.4 3.9 0 1.9 2.6 3.2 4 1.6.3-.3.5-1 .6-1.3 1.1-1.8 2.7-.7 3.9.4 2.2 1.9 3.3 4.6 4.4 7.3 1.9 4.9 4.3 9.5 4.2 14.9-.2 6-1 11.9-3.7 17.4-2.2 4.5-4.9 8.9-7.6 13.1-3 4.7-7 8.1-11.8 10.8-4.8 2.8-9.9 4.3-15.5 4.6-2.9.1-5.7.1-8.6-.1-1.2-.1-2.4 0-3.6.2-.8.1-1.5.6-2.3.5-.6-.1-.6.9 0 1 .7.1 1.5-.3 2.2-.4 1.8-.5 3.7-.2 5.6-.1 3.5.3 7.4.2 10.9-.3 6.2-1 12-4 17-7.8 5.1-3.9 8-9.5 11.3-14.9 3.6-5.9 6.1-11.6 6.8-18.6.3-3.2.6-6.5 0-9.7-.6-3.5-2.3-6.8-3.6-10-1-2.5-1.9-4.9-3.6-7.1-1-1.2-3.3-3.6-5.1-3.2-1.6.4-1.6 2.9-3.2 3-2.5.2-1.1-1.9-.8-2.5.2-.4.5-.8.8-1.2 1.4-2.1 5-1.3 6.9-.5 2.5 1.1 4 3.6 5.2 5.9 1.5 2.9 3 6 4.1 9.1 5.8 15.8 0 33-10.6 45.2-2.7 3.1-5.2 6.4-8.5 8.9-3.4 2.5-7.6 3.9-11.7 5-4.5 1.2-8.5 1.3-13.1.9-2.4-.2-4.7.4-7.1.1-.6-.1-1.2-.1-1.8-.1-.5 0-1.1.1-1.6.1-1.1.2-1.8-.3-2.2-1.7.5-.4-.2-1.1-.7-.7-1 .8-1.3 2.2.1 2.9 1.3.4 2.1.5 3.1.4z"/><path class="beast-crown-14-st-3" d="M72.3 412.7c.9.4 1.8.6 2.8.8 1.9.3 3.6 1.1 5.1 2.3 2.4 1.9 4 4.7 5.3 7.4 3 6 3.5 13.1 3.9 19.6.5 7-.1 14.2-3.5 20.4-2.8 5.2-7.1 9.5-10.1 14.6-.3.6.5 1.1.9.5 3.3-5.5 7.8-10.2 10.8-15.9 3.2-6.2 3.3-13.7 2.9-20.5-.5-6.6-1.2-13.2-4-19.2-1.3-2.8-3.2-5.5-5.5-7.6-1-.9-2.1-1.5-3.3-2-1.4-.6-2.9-.6-4.3-1.1.7-1 2.1-1.7 3.3-2 .3 1.5 2.2 1.5 3.6 1.9.6.2.9-.8.3-1-.7-.2-3.1-.3-2.9-1.5.1-.4-.2-.7-.6-.6-1.8.3-4 1.4-4.8 3.1-.2.3-.1.7.1.8zM75.3 480.4c.3-.6-.6-1.1-.9-.5-5.4 10.3-17 13.9-27.9 14.7-5.1.4-10.5-.1-15.5-.9-.7-.1-5.4-.6-3.5 1.4.4.5 1.1-.2.7-.7.5.5 3.4.4 4.2.5 1.8.3 3.6.4 5.4.5 5.4.4 10.7.2 16-.8 8.8-1.6 17.2-6 21.5-14.2z"/><path class="beast-crown-14-st-3" d="M84.4 481.5c-.2.3-2.5 3.3-2.1 2.1.2-1 .9-1.9 1.3-2.7 3.3-5.8 9-9.7 11.6-16 1.3-3 1.9-6.1 1.9-9.4 0-4-.7-7.9-.5-12 .4-6.7.7-13.4-1.9-19.8-1.2-2.8-2.9-5.3-4.8-7.7-1.3-1.6-2.7-3.1-3.4-5.1-.4-1.3-.5-2.6-1.1-3.8-.8-1.6-2.6-2.4-4.3-2.3-1.3.1-2.8 1.4-2.7 2.8.1 1 1.6 1.4 2.4 1.7 1.1.4 2 .8 1.5 2.5-.1.4-.4.9-.3 1.3.1 1 .4 1.3 1.2 1.9 2.1 2 4.1 3.7 5.8 6.2 1.8 2.7 2.9 5.9 3.5 9 .7 3.7.2 7.7 0 11.4-.3 3.7-.1 7.4-.3 11.2-.2 7.5-3.1 13.2-7.4 19-2.7 3.6-7.7 7.7-7.4 12.7 0 .6 1 .6 1 0-.2-3.1 2.1-5.9 4-8.1 1.8-2.2 3.5-4.3 5.2-6.6 3.9-5.4 5.5-11.2 5.7-17.9.1-3.7 0-7.4.3-11.1.3-3.6.5-7.2-.1-10.8-.8-5.4-3.9-10.9-8.1-14.4-1.2-1-2.6-1.7-2-3.5.2-.7.4-1.6 0-2.2-.3-.5-.7-.8-1.3-1.1-.8-.4-3.3-.7-2-2.1 2.2-2.6 4.8.8 5.3 2.7.3 1.1.5 2.2 1 3.2.6 1.3 1.7 2.5 2.6 3.6 1.4 1.8 2.8 3.6 3.9 5.7 3.7 6.8 3.5 14.3 3 21.8-.2 3.7.2 7.3.4 11 .3 4.3-.9 8.3-2.9 12-2.5 4.6-6.6 8.1-9.6 12.3-.6.8-3.7 5-2.1 5.9.6.4 1.6-.2 2.1-.5.5-.4.8-.9 1.1-1.5.1-.5.5-.7 1-.7-.1.5-.5 1.1-.7 1.5-.9 1.5-2.7 2.4-3.9 3.6-.4.4-.8 1-.9 1.5 0 .2-.1.4-.1.6-.4-.3-.7-.7-1.1-1 0-.5.1-1 .3-1.5.1-.3-.2-.6-.5-.6-.5 0-.9.1-1.4.3-1.2.5-2.1 1.9-2.2-.5 0-.3-.3-.6-.6-.5-.5.2-.9.3-1.2.8-.8 1.2-1.7 2.1-2.8 2.9-1 .6-2.4 1.7-2.4 3 0 1.7 3-.6 4.1-1.4.5 1.4 1.4 2 3 1.2.6-.3.1-1.2-.5-.9-.6-.4-1.1-.8-1.7-1.3-.1-.2-.4-.5-.6-.3-1.1.4-1.9 1.2-2.9 1.9.2-.3.4-.5.6-.7.6-.6 1.4-1 2-1.4.8-.6 1.4-1.8 2.2-2.4.1.8.3 1.6 1 1.8 1 .3 1.9-.9 2.9-1.3-.3 1.7.3 2.8 2.5 2.9.3 0 .5-.2.5-.5-.1-2.5 3.2-3.4 4.5-5.2.5-.7 1.8-2.5 1.1-3.5-1.1-.8-2.2-.4-2.7.3z"/><path class="beast-crown-14-st-3" d="M100.9 436.6c.1.5.3.9.5 1.3 1 1.8 2.5-.7 2.6-1.6.2-1.6 0-4-1.8-4.7-2.5-1-2.9-2.5-3.3-5-.4-2-1-3.9-1.9-5.7-1.9-3.8-4.7-7.3-7-10.9-.9-1.5-1.6-3.3-2.9-4.5-.6-.5-1.2-.9-1.8-1.4-.6-.5-.9-1.1-.7-2 .6-.2 1.3-.4 1.9-.6 0 .2-.1.4-.1.5 0 2.3 3.3 1.6 4.3.7.4-.4.7-1.5.4-2-.4-.7-.9-.5-1.6-.8-.2-.1-.4 0-.5.1.6-.6 1-1.2 2.2-1.2 2.4 0 1.8 3.1 1 4.4-.7 1.3-1.4 1.8-1.3 3.5.2 1.7 1.5 3.2 2.6 4.5.4.5 1.1-.2.7-.7-1.7-1.9-3.1-3.9-1.4-6.3.6-.8 1-1.8 1.1-2.8.1-1.3-.2-2.9-1.7-3.3-1.7-.5-5.2.7-3.3 2.9.2.2.4.2.6.1.9.1-2.2 1.9-2 .3.1-.8-.3-1-1-1.3-1.8-.6-3.4 1.9-3 3.4.2 1 1.3 1.7 2.1 2.2 1.9 1.5 2.8 3.6 4.1 5.7 2.2 3.6 4.9 7 6.8 10.8 1 2 1.3 4.1 1.7 6.2.2 1 .6 2.6 1.5 3.3.6.4 1.1.6 1.7.9 1.5.5 1.5 1.6 1.6 2.8 0 .3-.4 3.3-1 1.6-.2-.5-.2-1-.5-1.5-.6-1.2-2-1.4-2.6-.1-.7 1.5-.5 4.1.1 5.6.2.4.6.5.9.1s.5-.7.8-1.1c1.2 2 1.5 5.1 1.1 7.2-.4 2.4-1.3.2-1.5-.8-.2-.8-.3-1.6-.8-2.2-.2-.2-.5-.2-.7 0-1.5 1.4-1.2 3.7-1 5.5.4 3.3.9 6.5.7 9.9-.2 4.1-2.3 7.8-4.5 11.1-1.7 2.6-4.5 4.4-5.1 7.6-.1.6.8.9 1 .3.5-3 3.3-5.1 5-7.4 1.8-2.4 3.2-5.3 4.1-8.2 1-3.1.7-6.7.3-9.9-.2-2.4-1.1-4.9-.5-7.3.2-.9.6 1.4.7 1.7.1.5.2 1.2.6 1.6.7.9 1.5.2 2.1-.4 1.8-2.1.4-7.8-1.1-9.8-.2-.3-.6-.3-.9 0-.2.3-.4.6-.7.9-.2-.8-.2-1.7-.2-2.5.4-1.2 1.3-2 1.6-.7zM-7.4 311.3c3.9-3 8.4-6.6 13.3-7.5-2.2 6.1-7 10.8-9.6 16.8-.3.8.6 1.3 1.2 1.2 1.9-.3 3.4-1 5.1-1.9 1.5-.8 2.9-1.6 4.6-2.2 2.2-.8-.7 5.6-.4 4.8-2.1 4.9-5.5 8.9-6.4 14.3-.1.8.7 1.7 1.5 1.1 3.8-2.6 7.1-6.2 11.5-7.7 2.7-.9 1.1 3.2.5 4.2-1 1.7-2.5 3.1-3.8 4.5-2.1 2.4-4.5 4.4-6.2 7-.7 1.1 1 2.1 1.7 1 2.2-3.3 15.9-13.3 10.4-18.3-3-2.7-9.2 2.7-12.9 5.8 2.1-6.2 6.9-11.2 7.3-18 0-.5-.5-1-1-1-3.9 0-6.8 2.6-10.3 3.9 2.9-5.6 7.5-10.3 9.2-16.5.2-.6-.3-1.3-1-1.3-6.2.5-11.5 4.6-16.2 8.3-1 .9.5 2.3 1.5 1.5zM44.9 304.5c-3.5 2.2-7.9 2.3-11 5.4-.5.5-.3 1.2.2 1.6 1.4 1 2.5 1.4 4.2 1.6 1 .1 5.9-.1 5.9-.1-2.1 1.5-5.5 3-6.3 5.7-1.3 4.9 15.1.5 16.6.1 1.2-.3.7-2.3-.5-1.9-4.5 1.2-8.8 2.2-13.5 2-1 .3-.8 0 .6-1.1.8-.8 1.6-1.5 2.6-2.1.9-.6 1.9-1.1 2.7-1.9.7-.7.3-1.7-.5-2.2-3-1.8-6.3.1-9.4-1.1 3.3-2.4 7.9-2.5 11.1-5.3.5-.5.3-1.2-.2-1.6-2.4-1.8-5.8-1.7-8.7-2.1-2.6-.4-6.7-2.6-1-3.1 3.9-.3 7.9 1 11.8 1.6 1.3.2 1.8-1.7.5-1.9-5.8-.9-11.3-2.6-17-.8-.4.1-.8.5-.7 1 .4 6.4 8.1 4.4 12.6 6.2zM59 316.6l-.3.3c-.9.9.5 2.3 1.4 1.4l.3-.3c.9-.9-.5-2.3-1.4-1.4zM55.5 300c.6 0 1.1-.4 1.2-1 .1-.5-.1-1.1-.7-1.2-.4-.1-.9.1-1.1.5-.6.5-.4 1.8.6 1.7zM66 319.1c1 0 1-2 0-2-2 0-2 2 0 2zM64.3 312.9v.3c0 1.3 2 1.3 2 0v-.3c0-1.3-2-1.3-2 0zM65 308.5c1 0 1-2 0-2-2 0-2 2 0 2zM64 302.1c1 0 1-2 0-2-2 0-2 2 0 2zM59 310.6c-1 0-1 2 0 2s1-2 0-2zM59 307.2c1 0 1-2 0-2-2 0-2 2 0 2z"/><path class="beast-crown-14-st-3" d="M52 312.7c-2 0-2 2 0 2 1 0 1-2 0-2zM51 310.3c2 0 2-2 0-2-1 0-1 2 0 2zM52 304.6c1 0 1-2 0-2s-1 2 0 2zM71 316.8h-.3c-1.3 0-1.3 2 0 2h.3c1.3 0 1.3-2 0-2zM69 313.1c1 0 1-2 0-2s-1 2 0 2zM69 308.8c2 0 2-2 0-2-1 0-1 2 0 2zM71.3 305.7h.5c1.3 0 1.3-2 0-2h-.5c-1.3 0-1.3 2 0 2zM74.6 314.2h.5c1.3 0 1.3-2 0-2h-.5c-1.3 0-1.3 2 0 2zM75 309.3c2 0 2-2 0-2-1 0-1 2 0 2zM75 319.1c1 0 1-2 0-2s-1 2 0 2zM80 318.4h-.3c-1.3 0-1.3 2 0 2h.3c1.3 0 1.3-2 0-2zM79 315.7c1 0 1-2 0-2-2 0-2 2 0 2zM80.5 311.6h.3c1.3 0 1.3-2 0-2h-.3c-1.3 0-1.3 2 0 2zM85 317.3c1 0 1-2 0-2-2 0-2 2 0 2zM85 321.1c2 0 2-2 0-2-1 0-1 2 0 2zM90 322.9c1 0 1-2 0-2s-1 2 0 2zM90 319.1c1 0 1-2 0-2s-1 2 0 2zM84 313.4c2 0 2-2 0-2-1 0-1 2 0 2zM7.9 311.3s.1.1.2.1c.5.7 1.8.5 1.8-.5 0-.4-.1-.8-.4-1.1-.5-.5-1.1-.3-1.6.1-.4.3-.3 1 0 1.4zM12.3 325.2c.4.4 1.1.4 1.4 0 .3-.3.5-.7.4-1.2-.2-.5-.5-.7-1.1-.8-.5 0-1 .5-1 1v.2c0 .3.1.6.3.8zM8 336.7c-1 0-1 2 0 2s1-2 0-2zM2.7 325.8v-.5c0-1.3-2-1.3-2 0v.5c0 1.3 2 1.3 2 0zM-1.5 311.4v-.3c0-1.3-2-1.3-2 0v.3c0 1.3 2 1.3 2 0zM1.3 347.5c-1.2-1.3-1.6-3.1-.9-4.7.5-1.2-1.2-2.2-1.7-1-1.1 2.5-.7 5.1 1.2 7.1.9 1 2.3-.4 1.4-1.4zM-2.2 332.2c-2-1.4-1.9-4-1.1-6.1.5-1.2-1.5-1.7-1.9-.5-1.1 3-.7 6.4 2 8.3 1 .7 2-1 1-1.7zM-7.6 318.6c.5-.1 1-.4 1-1 0-.5-.5-1.1-1-1-1.1.1-1.4-.9-1.1-1.8.4-1.2-1.6-1.8-1.9-.5-.7 2 .5 4.5 3 4.3zM-17.7 317.2c1.7.5 3.1 2.2 3.4 3.9.2 1.3 2.1.7 1.9-.5-.4-2.5-2.5-4.6-4.8-5.3-1.2-.4-1.7 1.5-.5 1.9zM-6.4 334.1c-.1-3.8-3.2-6-6.2-7.8-1.1-.7-2.1 1-1 1.7 2.3 1.4 5.1 3.1 5.2 6.1.1 1.2 2.1 1.2 2 0zM-6.9 344.3c1.6.7 2.1 2.4 2.1 3.9 0 1.3 2 1.3 2 0 0-2.6-1.1-4.8-3.6-5.9-1.1-.4-1.6 1.5-.5 2z"/><path class="beast-crown-14-st-3" d="M60.1 453.7c4.3-7 5-15.6 6-23.7 1.7 4.5 1.1 10.5.3 14.7-1.5 7.3-7.2 14.5-11.7 20.2-3.9 4.9-9.3 8.5-15.4 10-4.3 1.1-9.2 1.3-12.6 4.3-.6.5-.2 1.5.4 1.7 27 8.8 56.3-22.9 45.6-49.2-.5-1.2-2.4-.7-1.9.5 9.9 24.2-16 53.5-41.1 47.3 4.6-2.8 11.7-2.8 16.5-5.1 5.8-2.8 10-7.9 13.5-13.1 4.1-6.2 8.3-12 9.2-19.6.6-4.8.6-11.4-2.5-15.5-.4-.6-1.7-.7-1.8.2-2 13.2-2.7 26.1-14.4 34.7-9.1 6.6-20.2 11.4-30.6 15.4-.9.3-1.8.6-2.7.8-.5.1-.9.1-1.4.2-.9.2-1.6-.2-2.2-1 2.1-.3 4.2-1.3 6.1-2.3 5.6-2.8 10.7-6.4 16.4-8.9 11.5-5.1 20.5-12.8 24.8-25 1.4-3.9 2.8-13.8-.4-17-5-5-5.5 8.4-5.6 10.1-.4 5.3-1.9 10.3-5.6 14.2-4.9 5.1-12.9 6.5-19 10-5.9 3.3-10.9 8-16.8 11.2-4 2.2-15.1 3.2-18.8-1.2 7.7-2.2 15.3 2.3 21.9-4 3.5-3.3 8-5.1 11.6-8.3 3.6-3.2 8.1-4.2 12.3-6.2 6.4-3.1 9.2-8.7 10.9-15.3.7-2.9 2.8-8.3 1.1-11.2-1.9-3.3-5.2.6-5.9 2.7-1.2 3.6-.3 7.4-2 10.9-2.2 4.4-7.9 6-12.1 7.6-9 3.2-14.6 11.7-23.7 14.4-5.2 1.6-11.4 2.5-16.8 1.7-2.1-.3-10.3-2.6-12.5-5.6 8.1 3.3 16.4 4.5 25 2.1 4.4-1.2 8.4-3.8 12-6.6 4.8-3.7 9.8-6.8 14.9-10.2 5.4-3.6 10.2-8.2 11.1-14.9.6-5-1.8-8.1-7-6.6-.6.2-1 .9-.6 1.5 6.7 9.9-12.7 15.9-18.5 20.3-6.8 5.2-14.2 9.5-22.9 10.7-4.7.6-8.9-.7-13.1-2.7-3.4-1.6-7.5-3.1-10.5-5.4.5-.4 1.1-.9 1.6-1.3 1.5.2 3 .7 4.3 1.5l4.8 2.4c3.1 1.5 6.5 1.9 9.9 2.1 7.2.4 13.2-1.9 19.3-5.6 6-3.6 11.8-8.1 17.2-12.5 4.2-3.4 4.8-6.1 3.5-9.9.4-.2.7-.6.5-1.1-.6-1.6-2-3.6-3.9-2.2-3.8 2.6-5.4 7.2-9.4 9.9-4.6 3.1-9.6 5.3-14 8.9-3.1 2.5-6.1 4.7-10.2 4.9-4.4.3-9.1-1.4-13.4-2.2-6.5-1.4-13.5-2-19.2-5.7-3.6-2.3-.3-5.1 3-3.5 1.9.9 3.6 2.4 5.3 3.6 4.4 3.4 11 4.7 16.4 4.6 5.8-.2 11.4-3.5 16.3-6.2 5.1-2.8 10.7-5 15.7-8 2.7-1.7 5.2-4 5.5-7.4.2-2.6-1.6-5.7-4.5-4.9-1.7.5-3.1 2.9-4.4 3.9-2.3 1.8-5.1 2.8-7.3 4.7-6.5 5.4-13 8.7-21.6 8.9-7.5.1-14.5-3-21.5-5.2-2.4-.7-4.8-1-7.1-2.1 0 0-4.1-5.3-1.1-4.3 1.5.5 2.9 1.1 4.4 1.7 3.3 1.3 6.8 2 10.2 3s6.5 2.6 10 3.3c4.7.9 9.8-.3 14.1-2.2 5.2-2.3 10.1-5.4 15.2-7.9 2.4-1.2 5.7-3.4 3.7-6.4-1.7-2.6-3.6-3.4-6.2-1.5-1.7 1.2-3 3.1-4.4 4.6-2.4 2.6-6.1 2.9-9.4 3.5-3.7.7-7.3 1.8-11 2-4 .2-8-1.2-11.7-2.5-3.4-1.1-6.9-2.2-10.4-3.2-3.3-1-11.5-1.9-11-6.9 13.7 4.3 26.5 11.8 41.3 8.9 7.2-1.4 19.7-6.3 13.7-15.5-.4-.6-1.3-.6-1.7 0-7.8 12-23.5 8.7-35.1 5.7-6.1-1.6-12.9-3.5-17.5-8-3-3-4.7-9.3-4.6-14.2 3.7 6 8.8 9.9 15.2 13.3 4.1 2.2 8.2 4.2 12.5 5.8 4.4 1.7 8.3.8 12.6.9.1 0 .2.1.3.1 5.1.5 12.4-.7 15.3-5.4.3-.4.2-.9-.1-1.1.1-.3.1-.6.2-.9.1-.4-.1-.9-.5-1.1-.5-.3-.7-1-1.3-1.3-.3-.2-.6-.2-.8-.1-1.3-.4-2.2-.4-3.8.1-4.2 1.3-6.5 3.2-11.3 2.5-6-.9-12.2-2.6-17.9-4.6-6-2.2-10.9-6-13.8-11.7-1.9-3.8-2.8-8-2.9-12.2 0-1.5.3-3 .6-4.5.6-2.9 1.6 3.8 1.6 4.9 0 5 .8 9.1 4 13.1 3.1 3.9 8.9 5.4 13.3 7.4 8.7 3.8 18.6 7.8 28 3.7 1.7-.8 4.5-3.8 2.6-5.7-2.7-3.1-6.7-1.7-9.7-.1-5.4 2.8-13.1-.9-18.2-3.2-6.1-2.8-10.3-6.7-12.6-13-2-5.4-3.5-11.1-3.7-16.9-.1-1.4 1.5-10.1 2.9-5.8 1.1 3.5.7 7.5 1 11 .7 10.6 5.2 18.3 15.3 22.1 6.3 2.4 13 3.9 19.7 2.9 3.5-.5 7.4-2.6 2.7-5.3-2.8-1.6-6.9-.6-10-1.4-5-1.2-10-2.8-14.1-6-4.8-3.7-5.8-9.5-6.5-15.1-.3-2.3-.7-4.5-1.2-6.7-.9-3.6-4.1-6.8-2.8-10.7 4.5 3.1 4.7 9.7 5.3 14.6.5 4.7 2.1 9.1 4.8 13 2.3 3.3 5.8 5.9 9.5 7.2 4.6 1.7 10 4.3 15 2.9 2.6-.7.6-3.2-.6-4.1-1.5-1.3-3.7-1.6-5.6-1.9-5.1-.9-8.5-3.2-11.5-7.4-3.4-4.9-4.3-11.5-6.1-17.1-1-3.1-2.8-6-4-9-.1-.3-1.5-4.4-.9-4.3 3.2.4 4.6 5.1 5.4 7.5 1.8 5.3 2.9 10.9 5.1 16.1 2.7 6.5 11.5 17.7 20 13.3 2.1-1.1.1-3.5-.9-4.4-1.7-1.5-4.2-2.2-6.1-3.3-2.9-1.8-5-4.5-6.5-7.5-2.2-4.3-3-9.1-5.4-13.3-1.3-2.3-2.6-4.5-3.8-6.8-.7-1.3-1.2-2.7-1.6-4.1s.6-6.6 1.7-3.4c.6 1.9 1 3.8 1.6 5.7.9 2.9 3.7 5.3 5.3 7.7 2 3 2.3 7.4 3.5 10.8 1.1 3.1 2.9 5.7 5.3 7.9 3.4 3.4 14.1 5.6 10.6-2.2-.2-.4-.7-.6-1.1-.5-8.6 2-9.3-11.9-11-17.3-1.2-3.7-5.2-5.5-6.5-9.2-1.3-3.8-.4-6.1-3.9-8.7-1-.8-2 1-1 1.7 3 2.3 2.4 5.6 3.4 8.7.5 1.6 1.6 2.8 2.8 4 3.8 4 4 8.1 5.5 13.1 1 3.2 2.4 6.5 5.1 8.6.8.6 2 1.2 3 1.2.7 0 1.4.1 2.1-.1.1 1.6-.5 2.2-1.8 1.7-.6-.1-1.1-.2-1.6-.4-6.1-1.8-8.6-7.7-10.2-13.3-.7-2.4-1.2-4.8-2.4-7.1-1.6-3.1-4.4-5.1-5.5-8.6-.7-2.3-.8-5.4-2.6-7.2-1.8-1.8-3.6 1.9-4 3-1 3.5.7 6.9 2.3 9.9 2.7 5.2 5.1 9.8 7.1 15.4 1.4 3.9 3.5 7.4 6.6 10.2 1.7 1.5 3.8 2.6 5.9 3.6.8.4 5.3 2.6 1.1 2.7-2.5 0-5-1.1-7.1-2.4-5.8-3.5-8.6-11.9-10.4-17.9-1.5-4.8-2.3-9.8-5-14.1-2.6-4-8-4.3-6.5 1.3.7 2.9 2.2 5.6 3.5 8.3 1.7 3.7 2.8 7.6 3.9 11.5 1.2 4.2 2.9 8.1 5.7 11.5 3.3 4 7.3 5.2 12.2 6.1 1.4.1 2.5.8 3.2 2.2-1.8.2-3.5-.4-5.2-.8-3.1-.9-6.4-2-9.3-3.4-5.2-2.6-8.2-7.6-9.8-13-2.2-7.1-.2-17.2-8.1-21.3-.5-.2-1.1-.1-1.4.4-2.5 4.8.7 8.5 2.2 13.2 1.8 5.8 1.2 11.8 3.9 17.4 3.6 7.6 13.8 11.2 21.5 12.3 2.8.4 6.1-.3 8.5 1.6-.1-.1-4.6 1-4.9 1-4.6.5-9.1-.5-13.5-1.8-5.7-1.6-11.2-4.6-14.5-9.7-4-6.3-2.4-14.4-3.6-21.3-.2-1.4-.8-5.6-3.1-5.3-3.2.5-3.9 5.7-4.1 8.2-.6 8.5 2.7 20.7 8.6 27 3 3.3 7.4 5.5 11.5 7.1 3.8 1.5 9.9 4.4 14.1 3.3 2.2-.6 4.1-1.8 6.3-2.6.8 1.1 1.5 2.3 2.3 3.4-1 .4-2 .8-3 1-1.5.4-3.2.4-4.7.4-7.2.1-13.4-2.9-19.8-5.7-4.7-2.1-9.6-3.6-12.6-8.1-3.5-5.4-1-11.9-3.5-17.5-.9-1.9-2.6-1.1-3.5.2-2 3.3-1.5 8.8-.9 12.4 1.6 10.1 8.5 17 17.7 20.6 5.2 2 10.8 3 16.2 4.3 2.2.5 4.7 1 7 .6 2.6-.4 7.8-3.7 10.1-2.7.1.1.3.1.4.1.1.1.2.2.3.4-.1.4-.1.9-.3 1.3-.1.2-.1.4-.1.6-2.5 2.9-7.5 3.7-11.4 3.7-.1 0-.2-.1-.3-.1-4.8-.4-8.9.6-13.7-1-4.2-1.4-8.1-3.6-12-5.6-7-3.6-12.5-8.2-16-15.4-.4-.8-1.7-.6-1.8.2-1.2 5.7.7 12.4 3.5 17.4 3.4 6 12.3 8.2 18.4 9.9 12.3 3.5 28.9 6.7 37.7-4.9C6.9 406.9-8.2 410-14 410.7c-12.8 1.5-25.1-6.3-37-9.9-.5-.2-1.1.2-1.2.7-1 3.4-.3 5.7 3 7.3 6 3 13.3 4.3 19.7 6.3 6.1 1.9 11.5 3.1 17.8 1.8 4.9-1 11.5-1.2 15.4-4.5 2.1-1.7 3.4-4.1 5.6-5.7.6 1.3 1.1 2.6 1.7 3.9-.6.4-1.3.8-2 1.2-.9.5-1.9.9-2.8 1.4-6.7 3.4-12.8 7.8-20.5 8.7-7 .8-14.6-3.5-21.2-5.4-1.8-.5-8.7-4.5-10.6-2.8-1.7 1.5-.8 5.2.6 6.5 3.1 3.1 8.7 3.5 12.7 4.8 12.1 4 23.3 6.3 35-.2 2.9-1.6 5.2-4 7.9-5.9 2.3-1.6 5.2-2.7 7.2-4.7l.7-.7c.9-1.7 2.1-1.3 3.6 1.2.1 2.1-2.1 3.8-3.5 4.9-2.3 1.8-5.1 3-7.7 4.2-6.2 2.8-11.9 6.6-18.2 9.1-7.2 2.8-16.1 1.3-22.2-3.4-2.7-2.1-6.4-5.2-10-3.8-1.9.7-2.7 3.1-2.2 4.9 1.5 5.3 12.3 6.8 16.6 7.7 9 1.9 19.3 5.8 27.6.5 2.3-1.5 4.4-3.4 6.5-5.1 2.9-2.2 6.2-3.7 9.3-5.4 2.3-1.3 4.8-3 6.3-5.2.4-.5 2.8-4.3 4.3-4.9 1.3 2.8 2.1 4.8-.4 7.8-1.3 1.6-3.3 2.9-4.9 4.1-3.8 2.7-7.4 5.6-11.3 8.2-9.5 6.6-20.5 9.6-31.4 4.4-2-1-11-6.4-12.4-1.4-.4 1.6.5 2.7 1.9 3.6 3.6 2.3 7.7 3.9 11.5 5.7 7.1 3.4 14.6 2.5 21.8-.1 6.9-2.5 12.1-7.5 18.4-11 6.5-3.7 21-10 16.1-19.4 5.4-.5 2.8 7.6 1.1 10.7-3.2 5.7-10.4 9-15.7 12.3-6.4 4-11.4 9.3-18.7 11.7-8.5 2.9-17.6.8-25.5-2.7-.7-.3-1.4.1-1.5.9-.6 4.8 6.9 6.7 10.3 8 7.4 3 16.4 1.3 23.8-.9 8.4-2.5 13.7-10.9 22-13.9 5.2-1.9 11.9-4.1 13.9-9.9 1-2.8.8-5.9 1.2-8.9.2-1.6 2.5-5.3 2.7-2 .1 1.6-.3 3.2-.6 4.7-1.4 6.8-3.3 12.9-9.4 16.9-3.4 2.2-7.4 3-10.9 4.8-3.9 2.1-7 5.4-10.9 7.6-1.4.8-2.7 2-3.9 3.2-3.2 3.1-6.3 3.4-10.4 3.2-4.1-.2-8-.8-11.9.7-.6.2-.9.8-.6 1.5 2 4.2 8.3 4.8 12.5 4.9 7.9.2 13-4 19.2-8.3 3.8-2.7 7.6-5.2 11.7-7.3 3.9-2 8.1-2.7 11.8-5.2 5.1-3.5 7.6-8.3 9-14.2.5-2 .4-4.2.6-6.2.1-1.6.3-3.3.6-4.9.3-2 1.8-1 2.1.4 1.2 5.7-.1 12.3-2.6 17.4-4.4 9-11.7 14.8-20.7 18.8-3.8 1.7-7.6 3.4-11.3 5.6-4.2 2.4-8.1 5.5-13 6.1-.5.1-1.1.4-1 1 .4 4.6 4.8 4.1 8.3 3.1 6.3-1.9 12.6-5.3 18.5-8 7.9-4.3 16.7-9.4 21.7-17.5z"/><path class="beast-crown-14-st-2" d="M244.7 333.7c8.5-8 20.7-11.3 32.1-12.1 12.1-.9 24.5.4 36 4.1 9.6 3.1 18.4 7.8 24.8 15.9 6.9 8.9 11.4 20.1 12.1 31.4.7 10.7-2 22.2-10.4 29.6-5.4 4.7-11.9 8.4-18.4 11.3-6.3 2.9-12.4 4.9-19.3 5.6-5.4.6-11.1.7-16.2 2.8-4.3 1.8-8 5.1-10.1 9.3-4.6 9-2.9 20 1.1 28.9 4.5 10 12.2 18.1 22.7 21.8 7.1 2.6 14.3 2.4 21.4 1.2 1.5.1 2.9.2 4.4.1 9.8-.6 19.1-4.7 27.3-9.9 9.1-5.8 17.2-13 24.6-20.8 14.5-15.5 25.5-34 29.7-55 4.5-22.5.9-46-13.7-64.2-12.4-15.5-29.1-27.7-47.9-34.2-17.7-6.1-37.2-7.4-55.2-1.9-19.2 5.9-34.9 18.7-45.7 35.5-.4.5.3 1 .7.6z"/><g><path class="beast-crown-14-st-3" d="M331.7 314.5c-1.7 4.2-2.5 8.6-4.7 12.6-.7 1.3-2 1.5-3 1-.1 0-.2-.1-.3-.2-.5-.3-.9-.8-1.1-1.4-2.2-2.4-5-4.2-6.7-7.1-.2-.3 0-.6.3-.7 3-.9 5.9-.1 9-.2v-.1c-2.4-2.7-5-5.3-6.9-8.4-.2-.3 0-.6.3-.7 3.3-1.2 6.8-1.1 10.2-1.5 0-.1.1-.2.1-.3-2.6-2.4-5.4-4.5-8.4-6.4-.4-.2-.3-.8.1-.9 3.9-1.4 8.1-1.2 12.1-2.3h.3c1.4-.2 2.8.6 2.5 2.3-.6 5.1-1.9 9.7-3.8 14.3zM331.5 324.8c-.9 2.1-1.7 4.2-3.7 5.5-.5.4-1-.5-.5-.9 2.2-1.5 2.8-4.2 3.9-6.5 1.3-2.7 2.6-5.4 3.4-8.2 1.4-4.9 4.1-9.8 3-15-.1-.6.8-.9 1-.3 1.2 5.7-1.7 11.1-3.2 16.4-.9 3.2-2.7 6-3.9 9zM257.8 323.9c-.6-.6-1.1-1.4-1.6-2 0 1.3 0 2.6-.4 3.8-.1.3-.4.5-.7.3-.8-.4-1.4-.9-2.2-1.2-.1 1 0 1.8-.8 2.6-.4.4-1 .6-1.5.8-1.3.7-2.4 2.1-3.5 3-.5.4-1.2-.3-.7-.7 1-.9 2-1.9 3.1-2.7.5-.4 1-.7 1.6-1 .9-.5.8-2 .9-2.9.1-.3.4-.4.6-.3.9.2 1.6.7 2.4 1.2.3-1.4.1-2.8.3-4.3 0-.4.5-.7.9-.4.9.9 1.5 2 2.4 3 .4.6-.3 1.3-.8.8zM301.1 485c4.3.9 9.3.8 13.7.5 2.8-.2 5.8-1.6 8.1.5.5.4-.2 1.1-.7.7-1.8-1.7-4.6-.6-6.7-.3-2 .3-4 .2-6 .1-4.6-.1-9-.4-13.3-2-7.9-3-13.7-9.2-18.5-15.9-5-7-8.1-14.8-7.9-23.5.1-4.7.3-9.3 1.7-13.8 1.3-4.1 4.8-6.6 6.5-10.5.3-.6 1.1-.1.9.5-1.7 3.8-5 6.3-6.4 10.2-1.5 4.3-1.6 9-1.7 13.5-.2 9.2 3.4 17.1 8.7 24.3 5.4 7.6 12.4 13.8 21.6 15.7z"/><path class="beast-crown-14-st-3" d="M319.9 492c-2 0-4 .1-6 .1-1.8 0-3.6-.3-5.4-.1-1.8.2-3.5.4-5.3.3-3.5-.1-7.1-1.2-10.4-2.3-6.6-2.1-11.4-6-15.7-11.3-4.3-5.2-8.2-10.1-11-16.4-2.6-6-3.7-12.4-3.7-18.9 0-6.7 2-12.7 4.8-18.6 2-4.2 3.8-8.6 8.5-10.2 2-.7 4.4-.8 6.2.4 1 .7 2.4 2.7 2.4 3.9 0 1.9-2.6 3.2-4 1.6-.3-.3-.5-1-.6-1.3-1.1-1.8-2.7-.7-3.9.4-2.2 1.9-3.3 4.6-4.4 7.3-1.9 4.9-4.3 9.5-4.2 14.9.2 6 1 11.9 3.7 17.4 2.2 4.5 4.9 8.9 7.6 13.1 3 4.7 7 8.1 11.8 10.8 4.8 2.8 9.9 4.3 15.5 4.6 2.9.1 5.7.1 8.6-.1 1.2-.1 2.4 0 3.6.2.8.1 1.5.6 2.3.5.6-.1.6.9 0 1-.7.1-1.5-.3-2.2-.4-1.8-.5-3.7-.2-5.6-.1-3.5.3-7.4.2-10.9-.3-6.2-1-12-4-17-7.8-5.1-3.9-8-9.5-11.3-14.9-3.6-5.9-6.1-11.6-6.8-18.6-.3-3.2-.6-6.5 0-9.7.6-3.5 2.3-6.8 3.6-10 1-2.5 1.9-4.9 3.6-7.1 1-1.2 3.3-3.6 5.1-3.2 1.6.4 1.6 2.9 3.2 3 2.5.2 1.1-1.9.8-2.5-.2-.4-.5-.8-.8-1.2-1.4-2.1-5-1.3-6.9-.5-2.5 1.1-4 3.6-5.2 5.9-1.5 2.9-3 6-4.1 9.1-5.8 15.8 0 33 10.6 45.2 2.7 3.1 5.2 6.4 8.5 8.9 3.4 2.5 7.6 3.9 11.7 5 4.5 1.2 8.5 1.3 13.1.9 2.4-.2 4.7.4 7.1.1.6-.1 1.2-.1 1.8-.1.5 0 1.1.1 1.6.1 1.1.2 1.8-.3 2.2-1.7-.5-.4.2-1.1.7-.7 1 .8 1.3 2.2-.1 2.9-1.3.4-2.1.5-3.1.4z"/><path class="beast-crown-14-st-3" d="M277.7 412.7c-.9.4-1.8.6-2.8.8-1.9.3-3.6 1.1-5.1 2.3-2.4 1.9-4 4.7-5.3 7.4-3 6-3.5 13.1-3.9 19.6-.5 7 .1 14.2 3.5 20.4 2.8 5.2 7.1 9.5 10.1 14.6.3.6-.5 1.1-.9.5-3.3-5.5-7.8-10.2-10.8-15.9-3.2-6.2-3.3-13.7-2.9-20.5.5-6.6 1.2-13.2 4-19.2 1.3-2.8 3.2-5.5 5.5-7.6 1-.9 2.1-1.5 3.3-2 1.4-.6 2.9-.6 4.3-1.1-.7-1-2.1-1.7-3.3-2-.3 1.5-2.2 1.5-3.6 1.9-.6.2-.9-.8-.3-1 .7-.2 3.1-.3 2.9-1.5-.1-.4.2-.7.6-.6 1.8.3 4 1.4 4.8 3.1.2.3.1.7-.1.8zM274.7 480.4c-.3-.6.6-1.1.9-.5 5.4 10.3 17 13.9 27.9 14.7 5.1.4 10.5-.1 15.5-.9.7-.1 5.4-.6 3.5 1.4-.4.5-1.1-.2-.7-.7-.5.5-3.4.4-4.2.5-1.8.3-3.6.4-5.4.5-5.4.4-10.7.2-16-.8-8.8-1.6-17.2-6-21.5-14.2z"/><path class="beast-crown-14-st-3" d="M265.6 481.5c.2.3 2.5 3.3 2.1 2.1-.2-1-.9-1.9-1.3-2.7-3.3-5.8-9-9.7-11.6-16-1.3-3-1.9-6.1-1.9-9.4 0-4 .7-7.9.5-12-.4-6.7-.7-13.4 1.9-19.8 1.2-2.8 2.9-5.3 4.8-7.7 1.3-1.6 2.7-3.1 3.4-5.1.4-1.3.5-2.6 1.1-3.8.8-1.6 2.6-2.4 4.3-2.3 1.3.1 2.8 1.4 2.7 2.8-.1 1-1.6 1.4-2.4 1.7-1.1.4-2 .8-1.5 2.5.1.4.4.9.3 1.3-.1 1-.4 1.3-1.2 1.9-2.1 2-4.1 3.7-5.8 6.2-1.8 2.7-2.9 5.9-3.5 9-.7 3.7-.2 7.7 0 11.4.3 3.7.1 7.4.3 11.2.2 7.5 3.1 13.2 7.4 19 2.7 3.6 7.7 7.7 7.4 12.7 0 .6-1 .6-1 0 .2-3.1-2.1-5.9-4-8.1-1.8-2.2-3.5-4.3-5.2-6.6-3.9-5.4-5.5-11.2-5.7-17.9-.1-3.7 0-7.4-.3-11.1-.3-3.6-.5-7.2.1-10.8.8-5.4 3.9-10.9 8.1-14.4 1.2-1 2.6-1.7 2-3.5-.2-.7-.4-1.6 0-2.2.3-.5.7-.8 1.3-1.1.8-.4 3.3-.7 2-2.1-2.2-2.6-4.8.8-5.3 2.7-.3 1.1-.5 2.2-1 3.2-.6 1.3-1.7 2.5-2.6 3.6-1.4 1.8-2.8 3.6-3.9 5.7-3.7 6.8-3.5 14.3-3 21.8.2 3.7-.2 7.3-.4 11-.3 4.3.9 8.3 2.9 12 2.5 4.6 6.6 8.1 9.6 12.3.6.8 3.7 5 2.1 5.9-.6.4-1.6-.2-2.1-.5-.5-.4-.8-.9-1.1-1.5-.1-.5-.5-.7-1-.7.1.5.5 1.1.7 1.5.9 1.5 2.7 2.4 3.9 3.6.4.4.8 1 .9 1.5 0 .2.1.4.1.6.4-.3.7-.7 1.1-1 0-.5-.1-1-.3-1.5-.1-.3.2-.6.5-.6.5 0 .9.1 1.4.3 1.2.5 2.1 1.9 2.2-.5 0-.3.3-.6.6-.5.5.2.9.3 1.2.8.8 1.2 1.7 2.1 2.8 2.9 1 .6 2.4 1.7 2.4 3 0 1.7-3-.6-4.1-1.4-.5 1.4-1.4 2-3 1.2-.6-.3-.1-1.2.5-.9.6-.4 1.1-.8 1.7-1.3.1-.2.4-.5.6-.3 1.1.4 1.9 1.2 2.9 1.9-.2-.3-.4-.5-.6-.7-.6-.6-1.4-1-2-1.4-.8-.6-1.4-1.8-2.2-2.4-.1.8-.3 1.6-1 1.8-1 .3-1.9-.9-2.9-1.3.3 1.7-.3 2.8-2.5 2.9-.3 0-.5-.2-.5-.5.1-2.5-3.2-3.4-4.5-5.2-.5-.7-1.8-2.5-1.1-3.5 1.1-.8 2.2-.4 2.7.3z"/><path class="beast-crown-14-st-3" d="M249.1 436.6c-.1.5-.3.9-.5 1.3-1 1.8-2.5-.7-2.6-1.6-.2-1.6 0-4 1.8-4.7 2.5-1 2.9-2.5 3.3-5 .4-2 1-3.9 1.9-5.7 1.9-3.8 4.7-7.3 7-10.9.9-1.5 1.6-3.3 2.9-4.5.6-.5 1.2-.9 1.8-1.4.6-.5.9-1.1.7-2-.6-.2-1.3-.4-1.9-.6 0 .2.1.4.1.5 0 2.3-3.3 1.6-4.3.7-.4-.4-.7-1.5-.4-2 .4-.7.9-.5 1.6-.8.2-.1.4 0 .5.1-.6-.6-1-1.2-2.2-1.2-2.4 0-1.8 3.1-1 4.4.7 1.3 1.4 1.8 1.3 3.5-.2 1.7-1.5 3.2-2.6 4.5-.4.5-1.1-.2-.7-.7 1.7-1.9 3.1-3.9 1.4-6.3-.6-.8-1-1.8-1.1-2.8-.1-1.3.2-2.9 1.7-3.3 1.7-.5 5.2.7 3.3 2.9-.2.2-.4.2-.6.1-.9.1 2.2 1.9 2 .3-.1-.8.3-1 1-1.3 1.8-.6 3.4 1.9 3 3.4-.2 1-1.3 1.7-2.1 2.2-1.9 1.5-2.8 3.6-4.1 5.7-2.2 3.6-4.9 7-6.8 10.8-1 2-1.3 4.1-1.7 6.2-.2 1-.6 2.6-1.5 3.3-.6.4-1.1.6-1.7.9-1.5.5-1.5 1.6-1.6 2.8 0 .3.4 3.3 1 1.6.2-.5.2-1 .5-1.5.6-1.2 2-1.4 2.6-.1.7 1.5.5 4.1-.1 5.6-.2.4-.6.5-.9.1s-.5-.7-.8-1.1c-1.2 2-1.5 5.1-1.1 7.2.4 2.4 1.3.2 1.5-.8.2-.8.3-1.6.8-2.2.2-.2.5-.2.7 0 1.5 1.4 1.2 3.7 1 5.5-.4 3.3-.9 6.5-.7 9.9.2 4.1 2.3 7.8 4.5 11.1 1.7 2.6 4.5 4.4 5.1 7.6.1.6-.8.9-1 .3-.5-3-3.3-5.1-5-7.4-1.8-2.4-3.2-5.3-4.1-8.2-1-3.1-.7-6.7-.3-9.9.2-2.4 1.1-4.9.5-7.3-.2-.9-.6 1.4-.7 1.7-.1.5-.2 1.2-.6 1.6-.7.9-1.5.2-2.1-.4-1.8-2.1-.4-7.8 1.1-9.8.2-.3.6-.3.9 0 .2.3.4.6.7.9.2-.8.2-1.7.2-2.5-.4-1.2-1.3-2-1.6-.7zM357.4 311.3c-3.9-3-8.4-6.6-13.3-7.5 2.2 6.1 7 10.8 9.6 16.8.3.8-.6 1.3-1.2 1.2-1.9-.3-3.4-1-5.1-1.9-1.5-.8-2.9-1.6-4.6-2.2-2.2-.8.7 5.6.4 4.8 2.1 4.9 5.5 8.9 6.4 14.3.1.8-.7 1.7-1.5 1.1-3.8-2.6-7.1-6.2-11.5-7.7-2.7-.9-1.1 3.2-.5 4.2 1 1.7 2.5 3.1 3.8 4.5 2.1 2.3 4.5 4.3 6.2 6.9.7 1.1-1 2.1-1.7 1-2.2-3.3-15.9-13.3-10.4-18.3 3-2.7 9.2 2.7 12.9 5.8-2.1-6.2-6.9-11.2-7.3-18 0-.5.5-1 1-1 3.9 0 6.8 2.6 10.3 3.9-2.9-5.6-7.5-10.3-9.2-16.5-.2-.6.3-1.3 1-1.3 6.2.5 11.5 4.6 16.2 8.3 1 1-.5 2.4-1.5 1.6zM305.1 304.5c3.5 2.2 7.9 2.3 11 5.4.5.5.3 1.2-.2 1.6-1.4 1-2.5 1.4-4.2 1.6-1 .1-5.9-.1-5.9-.1 2.1 1.5 5.5 3 6.3 5.7 1.3 4.9-15.1.5-16.6.1-1.2-.3-.7-2.3.5-1.9 4.5 1.2 8.8 2.2 13.5 2 1 .3.8 0-.6-1.1-.8-.8-1.6-1.5-2.6-2.1-.9-.6-1.9-1.1-2.7-1.9-.7-.7-.3-1.7.5-2.2 3-1.8 6.3.1 9.4-1.1-3.3-2.4-7.9-2.5-11.1-5.3-.5-.5-.3-1.2.2-1.6 2.4-1.8 5.8-1.7 8.7-2.1 2.6-.4 6.7-2.6 1-3.1-3.9-.3-7.9 1-11.8 1.6-1.3.2-1.8-1.7-.5-1.9 5.8-.9 11.3-2.6 17-.8.4.1.8.5.7 1-.4 6.4-8.1 4.4-12.6 6.2zM291 316.6l.3.3c.9.9-.5 2.3-1.4 1.4l-.3-.3c-.9-.9.5-2.3 1.4-1.4zM294.5 300c-.6 0-1.1-.4-1.2-1-.1-.5.1-1.1.7-1.2.4-.1.9.1 1.1.5.6.5.4 1.8-.6 1.7zM284 319.1c-1 0-1-2 0-2 2 0 2 2 0 2zM286 313.3c0 1-2 1-2 0 0-2 2-2 2 0zM285 308.5c-1 0-1-2 0-2 2 0 2 2 0 2zM286 302.1c-1 0-1-2 0-2 2 0 2 2 0 2zM291 310.6c1 0 1 2 0 2s-1-2 0-2zM291 307.2c-1 0-1-2 0-2 2 0 2 2 0 2z"/><path class="beast-crown-14-st-3" d="M298 312.7c2 0 2 2 0 2-1 0-1-2 0-2zM299 310.3c-2 0-2-2 0-2 1 0 1 2 0 2zM298 304.6c-1 0-1-2 0-2s1 2 0 2zM279 317.3c2 0 2 2 0 2-1 0-1-2 0-2zM281 313.1c-1 0-1-2 0-2s1 2 0 2zM281 308.8c-2 0-2-2 0-2 1 0 1 2 0 2zM279 305.3h-1c-1 0-1-2 0-2h1c1 0 1 2 0 2zM275 314.3c-1 0-1-2 0-2 2 0 2 2 0 2zM275 309.3c-2 0-2-2 0-2 1 0 1 2 0 2zM275 319.1c-1 0-1-2 0-2s1 2 0 2zM270 318.3c2 0 2 2 0 2-1 0-1-2 0-2zM271 315.7c-1 0-1-2 0-2 2 0 2 2 0 2zM269 311.3c-1 0-1-2 0-2 2 0 2 2 0 2zM265 317.3c-1 0-1-2 0-2 2 0 2 2 0 2zM265 321.1c-2 0-2-2 0-2 1 0 1 2 0 2zM260 322.9c-1 0-1-2 0-2s1 2 0 2zM260 319.1c-1 0-1-2 0-2s1 2 0 2zM266 313.4c-2 0-2-2 0-2 1 0 1 2 0 2zM342.1 311.3s-.1.1-.2.1c-.5.7-1.8.5-1.8-.5 0-.4.1-.8.4-1.1.5-.5 1.1-.3 1.6.1.4.3.3 1 0 1.4zM337.7 325.2c-.4.4-1.1.4-1.4 0-.3-.3-.5-.7-.4-1.2.2-.5.5-.7 1.1-.8.5 0 1 .5 1 1v.2c0 .3-.1.6-.3.8zM342 336.7c1 0 1 2 0 2s-1-2 0-2zM347 326.3v-1c0-1 2-1 2 0v1c0 1-2 1-2 0zM351 311.3c0-1 2-1 2 0s-2 1-2 0zM348.7 347.5c1.2-1.3 1.6-3.1.9-4.7-.5-1.2 1.2-2.2 1.7-1 1.1 2.5.7 5.1-1.2 7.1-.9 1-2.3-.4-1.4-1.4zM352.2 332.2c2-1.4 1.9-4 1.1-6.1-.5-1.2 1.5-1.7 1.9-.5 1.1 3 .7 6.4-2 8.3-1 .7-2-1-1-1.7zM357.6 318.6c-.5-.1-1-.4-1-1 0-.5.5-1.1 1-1 1.1.1 1.4-.9 1.1-1.8-.4-1.2 1.6-1.8 1.9-.5.7 2-.5 4.5-3 4.3zM367.7 317.2c-1.7.5-3.1 2.2-3.4 3.9-.2 1.3-2.1.7-1.9-.5.4-2.5 2.5-4.6 4.8-5.3 1.2-.4 1.7 1.5.5 1.9zM356.4 334.1c.1-3.8 3.2-6 6.2-7.8 1.1-.7 2.1 1 1 1.7-2.3 1.4-5.1 3.1-5.2 6.1-.1 1.2-2.1 1.2-2 0zM356.9 344.3c-1.6.7-2.1 2.4-2.1 3.9 0 1.3-2 1.3-2 0 0-2.6 1.1-4.8 3.6-5.9 1.1-.4 1.6 1.5.5 2z"/><path class="beast-crown-14-st-3" d="M289.9 453.7c-4.3-7-5-15.6-6-23.7-1.7 4.5-1.1 10.5-.3 14.7 1.5 7.3 7.2 14.5 11.7 20.2 3.9 4.9 9.3 8.5 15.4 10 4.3 1.1 9.2 1.3 12.6 4.3.6.5.2 1.5-.4 1.7-27 8.8-56.3-22.9-45.6-49.2.5-1.2 2.4-.7 1.9.5-9.9 24.2 16 53.5 41.1 47.3-4.6-2.8-11.7-2.8-16.5-5.1-5.8-2.8-10-7.9-13.5-13.1-4.1-6.2-8.3-12-9.2-19.6-.6-4.8-.6-11.4 2.5-15.5.4-.6 1.7-.7 1.8.2 2 13.2 2.7 26.1 14.4 34.7 9.1 6.6 20.2 11.4 30.6 15.4.9.3 1.8.6 2.7.8.5.1.9.1 1.4.2.9.2 1.6-.2 2.2-1-2.1-.3-4.2-1.3-6.1-2.3-5.6-2.8-10.7-6.4-16.4-8.9-11.5-5.1-20.5-12.8-24.8-25-1.4-3.9-2.8-13.8.4-17 5-5 5.5 8.4 5.6 10.1.4 5.3 1.9 10.3 5.6 14.2 4.9 5.1 12.9 6.5 19 10 5.9 3.3 10.9 8 16.8 11.2 4 2.2 15.1 3.2 18.8-1.2-7.7-2.2-15.3 2.3-21.9-4-3.5-3.3-8-5.1-11.6-8.3-3.6-3.2-8.1-4.2-12.3-6.2-6.4-3.1-9.2-8.7-10.9-15.3-.7-2.9-2.8-8.3-1.1-11.2 1.9-3.3 5.2.6 5.9 2.7 1.2 3.6.3 7.4 2 10.9 2.2 4.4 7.9 6 12.1 7.6 9 3.2 14.6 11.7 23.7 14.4 5.2 1.6 11.4 2.5 16.8 1.7 2.1-.3 10.3-2.6 12.5-5.6-8.1 3.3-16.4 4.5-25 2.1-4.4-1.2-8.4-3.8-12-6.6-4.8-3.7-9.8-6.8-14.9-10.2-5.4-3.6-10.2-8.2-11.1-14.9-.6-5 1.8-8.1 7-6.6.6.2 1 .9.6 1.5-6.7 9.9 12.7 15.9 18.5 20.3 6.8 5.2 14.2 9.5 22.9 10.7 4.7.6 8.9-.7 13.1-2.7 3.4-1.6 7.5-3.1 10.5-5.4-.5-.4-1.1-.9-1.6-1.3-1.5.2-3 .7-4.3 1.5l-4.8 2.4c-3.1 1.5-6.5 1.9-9.9 2.1-7.2.4-13.2-1.9-19.3-5.6-6-3.6-11.8-8.1-17.2-12.5-4.2-3.4-4.8-6.1-3.5-9.9-.4-.2-.7-.6-.5-1.1.6-1.6 2-3.6 3.9-2.2 3.8 2.6 5.4 7.2 9.4 9.9 4.6 3.1 9.6 5.3 14 8.9 3.1 2.5 6.1 4.7 10.2 4.9 4.4.3 9.1-1.4 13.4-2.2 6.5-1.4 13.5-2 19.2-5.7 3.6-2.3.3-5.1-3-3.5-1.9.9-3.6 2.4-5.3 3.6-4.4 3.4-11 4.7-16.4 4.6-5.8-.2-11.4-3.5-16.3-6.2-5.1-2.8-10.7-5-15.7-8-2.7-1.7-5.2-4-5.5-7.4-.2-2.6 1.6-5.7 4.5-4.9 1.7.5 3.1 2.9 4.4 3.9 2.3 1.8 5.1 2.8 7.3 4.7 6.5 5.4 13 8.7 21.6 8.9 7.5.1 14.5-3 21.5-5.2 2.4-.7 4.8-1 7.1-2.1 0 0 4.1-5.3 1.1-4.3-1.5.5-2.9 1.1-4.4 1.7-3.3 1.3-6.8 2-10.2 3-3.4 1-6.5 2.6-10 3.3-4.7.9-9.8-.3-14.1-2.2-5.2-2.3-10.1-5.4-15.2-7.9-2.4-1.2-5.7-3.4-3.7-6.4 1.7-2.6 3.6-3.4 6.2-1.5 1.7 1.2 3 3.1 4.4 4.6 2.4 2.6 6.1 2.9 9.4 3.5 3.7.7 7.3 1.8 11 2 4 .2 8-1.2 11.7-2.5 3.4-1.1 6.9-2.2 10.4-3.2 3.3-1 11.5-1.9 11-6.9-13.7 4.3-26.5 11.8-41.3 8.9-7.2-1.4-19.7-6.3-13.7-15.5.4-.6 1.3-.6 1.7 0 7.8 12 23.5 8.7 35.1 5.7 6.1-1.6 12.9-3.5 17.5-8 3-3 4.7-9.3 4.6-14.2-3.7 6-8.8 9.9-15.2 13.3-4.1 2.2-8.2 4.2-12.5 5.8-4.4 1.7-8.3.8-12.6.9-.1 0-.2.1-.3.1-5.1.5-12.4-.7-15.3-5.4-.3-.4-.2-.9.1-1.1-.1-.3-.1-.6-.2-.9-.1-.4.1-.9.5-1.1.5-.3.7-1 1.3-1.3.3-.2.6-.2.8-.1 1.3-.4 2.2-.4 3.8.1 4.2 1.3 6.5 3.2 11.3 2.5 6-.9 12.2-2.6 17.9-4.6 6-2.2 10.9-6 13.8-11.7 1.9-3.8 2.8-8 2.9-12.2 0-1.5-.3-3-.6-4.5-.6-2.9-1.6 3.8-1.6 4.9 0 5-.8 9.1-4 13.1-3.1 3.9-8.9 5.4-13.3 7.4-8.7 3.8-18.6 7.8-28 3.7-1.7-.8-4.5-3.8-2.6-5.7 2.8-2.9 6.8-1.5 9.9.1 5.4 2.8 13.1-.9 18.2-3.2 6.1-2.8 10.3-6.7 12.6-13 2-5.4 3.5-11.1 3.7-16.9.1-1.4-1.5-10.1-2.9-5.8-1.1 3.5-.7 7.5-1 11-.7 10.6-5.2 18.3-15.3 22.1-6.3 2.4-13 3.9-19.7 2.9-3.5-.5-7.4-2.6-2.7-5.3 2.8-1.6 6.9-.6 10-1.4 5-1.2 10-2.8 14.1-6 4.8-3.7 5.8-9.5 6.5-15.1.3-2.3.7-4.5 1.2-6.7.9-3.6 4.1-6.8 2.8-10.7-4.5 3.1-4.7 9.7-5.3 14.6-.5 4.7-2.1 9.1-4.8 13-2.3 3.3-5.8 5.9-9.5 7.2-4.6 1.7-10 4.3-15 2.9-2.6-.7-.6-3.2.6-4.1 1.5-1.3 3.7-1.6 5.6-1.9 5.1-.9 8.5-3.2 11.5-7.4 3.4-4.9 4.3-11.5 6.1-17.1 1-3.1 2.8-6 4-9 .1-.3 1.5-4.4.9-4.3-3.2.4-4.6 5.1-5.4 7.5-1.8 5.3-2.9 10.9-5.1 16.1-2.7 6.5-11.5 17.7-20 13.3-2.1-1.1-.1-3.5.9-4.4 1.7-1.5 4.2-2.2 6.1-3.3 2.9-1.8 5-4.5 6.5-7.5 2.2-4.3 3-9.1 5.4-13.3 1.3-2.3 2.6-4.5 3.8-6.8.7-1.3 1.2-2.7 1.6-4.1s-.6-6.6-1.7-3.4c-.6 1.9-1 3.8-1.6 5.7-.9 2.9-3.7 5.3-5.3 7.7-2 3-2.3 7.4-3.5 10.8-1.1 3.1-2.9 5.7-5.3 7.9-3.4 3.4-14.1 5.6-10.6-2.2.2-.4.7-.6 1.1-.5 8.6 2 9.3-11.9 11-17.3 1.2-3.7 5.2-5.5 6.5-9.2 1.3-3.8.4-6.1 3.9-8.7 1-.8 2 1 1 1.7-3 2.3-2.4 5.6-3.4 8.7-.5 1.6-1.6 2.8-2.8 4-3.8 4-4 8.1-5.5 13.1-1 3.2-2.4 6.5-5.1 8.6-.8.6-2 1.2-3 1.2-.7 0-1.4.1-2.1-.1-.1 1.6.5 2.2 1.8 1.7.6-.1 1.1-.2 1.6-.4 6.1-1.8 8.6-7.7 10.2-13.3.7-2.4 1.2-4.8 2.4-7.1 1.6-3.1 4.4-5.1 5.5-8.6.7-2.3.8-5.4 2.6-7.2 1.8-1.8 3.6 1.9 4 3 1 3.5-.7 6.9-2.3 9.9-2.7 5.2-5.1 9.8-7.1 15.4-1.4 3.9-3.5 7.4-6.6 10.2-1.7 1.5-3.8 2.6-5.9 3.6-.8.4-5.3 2.6-1.1 2.7 2.5 0 5-1.1 7.1-2.4 5.8-3.5 8.6-11.9 10.4-17.9 1.5-4.8 2.3-9.8 5-14.1 2.6-4 8-4.3 6.5 1.3-.7 2.9-2.2 5.6-3.5 8.3-1.7 3.7-2.8 7.6-3.9 11.5-1.2 4.2-2.9 8.1-5.7 11.5-3.3 4-7.3 5.2-12.2 6.1-1.4.1-2.5.8-3.2 2.2 1.8.2 3.5-.4 5.2-.8 3.1-.9 6.4-2 9.3-3.4 5.2-2.6 8.2-7.6 9.8-13 2.2-7.1.2-17.2 8.1-21.3.5-.2 1.1-.1 1.4.4 2.5 4.8-.7 8.5-2.2 13.2-1.8 5.8-1.2 11.8-3.9 17.4-3.6 7.6-13.8 11.2-21.5 12.3-2.8.4-6.1-.3-8.5 1.6.1-.1 4.6 1 4.9 1 4.6.5 9.1-.5 13.5-1.8 5.7-1.6 11.2-4.6 14.5-9.7 4-6.3 2.4-14.4 3.6-21.3.2-1.4.8-5.6 3.1-5.3 3.2.5 3.9 5.7 4.1 8.2.6 8.5-2.7 20.7-8.6 27-3 3.3-7.4 5.5-11.5 7.1-3.8 1.5-9.9 4.4-14.1 3.3-2.2-.6-4.1-1.8-6.3-2.6-.8 1.1-1.5 2.3-2.3 3.4 1 .4 2 .8 3 1 1.5.4 3.2.4 4.7.4 7.2.1 13.4-2.9 19.8-5.7 4.7-2.1 9.6-3.6 12.6-8.1 3.5-5.4 1-11.9 3.5-17.5.9-1.9 2.6-1.1 3.5.2 2 3.3 1.5 8.8.9 12.4-1.6 10.1-8.5 17-17.7 20.6-5.2 2-10.8 3-16.2 4.3-2.2.5-4.7 1-7 .6-2.6-.4-7.8-3.7-10.1-2.7-.1.1-.3.1-.4.1-.1.1-.2.2-.3.4.1.4.1.9.3 1.3.1.2.1.4.1.6 2.5 2.9 7.5 3.7 11.4 3.7.1 0 .2-.1.3-.1 4.8-.4 8.9.6 13.7-1 4.2-1.4 8.1-3.6 12-5.6 7-3.6 12.5-8.2 16-15.4.4-.8 1.7-.6 1.8.2 1.2 5.7-.7 12.4-3.5 17.4-3.4 6-12.3 8.2-18.4 9.9-12.3 3.5-28.9 6.7-37.7-4.9-3.4 8.1 11.7 11.2 17.5 11.9 12.8 1.5 25.1-6.3 37-9.9.5-.2 1.1.2 1.2.7 1 3.4.3 5.7-3 7.3-6 3-13.3 4.3-19.7 6.3-6.1 1.9-11.5 3.1-17.8 1.8-4.9-1-11.5-1.2-15.4-4.5-2.1-1.7-3.4-4.1-5.6-5.7-.6 1.3-1.1 2.6-1.7 3.9.6.4 1.3.8 2 1.2.9.5 1.9.9 2.8 1.4 6.7 3.4 12.8 7.8 20.5 8.7 7 .8 14.6-3.5 21.2-5.4 1.8-.5 8.7-4.5 10.6-2.8 1.7 1.5.8 5.2-.6 6.5-3.1 3.1-8.7 3.5-12.7 4.8-12.1 4-23.3 6.3-35-.2-2.9-1.6-5.2-4-7.9-5.9-2.3-1.6-5.2-2.7-7.2-4.7l-.7-.7c-.9-1.7-2.1-1.3-3.6 1.2-.1 2.1 2.1 3.8 3.5 4.9 2.3 1.8 5.1 3 7.7 4.2 6.2 2.8 11.9 6.6 18.2 9.1 7.2 2.8 16.1 1.3 22.2-3.4 2.7-2.1 6.4-5.2 10-3.8 1.9.7 2.7 3.1 2.2 4.9-1.5 5.3-12.3 6.8-16.6 7.7-9 1.9-19.3 5.8-27.6.5-2.3-1.5-4.4-3.4-6.5-5.1-2.9-2.2-6.2-3.7-9.3-5.4-2.3-1.3-4.8-3-6.3-5.2-.4-.5-2.8-4.3-4.3-4.9-1.3 2.8-2.1 4.8.4 7.8 1.3 1.6 3.3 2.9 4.9 4.1 3.8 2.7 7.4 5.6 11.3 8.2 9.5 6.6 20.5 9.6 31.4 4.4 2-1 11-6.4 12.4-1.4.4 1.6-.5 2.7-1.9 3.6-3.6 2.3-7.7 3.9-11.5 5.7-7.1 3.4-14.6 2.5-21.8-.1-6.9-2.5-12.1-7.5-18.4-11-6.5-3.7-21-10-16.1-19.4-5.4-.5-2.8 7.6-1.1 10.7 3.2 5.7 10.4 9 15.7 12.3 6.4 4 11.4 9.3 18.7 11.7 8.5 2.9 17.6.8 25.5-2.7.7-.3 1.4.1 1.5.9.6 4.8-6.9 6.7-10.3 8-7.4 3-16.4 1.3-23.8-.9-8.4-2.5-13.7-10.9-22-13.9-5.2-1.9-11.9-4.1-13.9-9.9-1-2.8-.8-5.9-1.2-8.9-.2-1.6-2.5-5.3-2.7-2-.1 1.6.3 3.2.6 4.7 1.4 6.8 3.3 12.9 9.4 16.9 3.4 2.2 7.4 3 10.9 4.8 3.9 2.1 7 5.4 10.9 7.6 1.4.8 2.7 2 3.9 3.2 3.2 3.1 6.3 3.4 10.4 3.2 4.1-.2 8-.8 11.9.7.6.2.9.8.6 1.5-2 4.2-8.3 4.8-12.5 4.9-7.9.2-13-4-19.2-8.3-3.8-2.7-7.6-5.2-11.7-7.3-3.9-2-8.1-2.7-11.8-5.2-5.1-3.5-7.6-8.3-9-14.2-.5-2-.4-4.2-.6-6.2-.1-1.6-.3-3.3-.6-4.9-.3-2-1.8-1-2.1.4-1.2 5.7.1 12.3 2.6 17.4 4.4 9 11.7 14.8 20.7 18.8 3.8 1.7 7.6 3.4 11.3 5.6 4.2 2.4 8.1 5.5 13 6.1.5.1 1.1.4 1 1-.4 4.6-4.8 4.1-8.3 3.1-6.3-1.9-12.6-5.3-18.5-8-8.1-4.5-16.9-9.6-21.9-17.7z"/></g><path class="beast-crown-14-st-4" d="M216.7 295.2c-2.5 1.8-4.9 4-7.8 5.2.3-.7.6-1.5 1-2.2.6-1.2-1.2-2.2-1.7-1-.4.8-.7 1.5-1 2.3-.8-1.3-1.6-2.5-2.3-3.8-.5-1-.7-2.2-1.3-3.2-.7-1.1-2.4-.1-1.7 1 .5.9.8 2 1.2 2.9.7 1.7 1.9 3.1 2.8 4.7.1.2.3.4.6.4-.4 1.2-.8 2.3-1.2 3.5-1.3-2.3-2.6-4.5-3.6-6.9-.5-1.2-2.4-.7-1.9.5 1.2 3 2.9 5.7 4.4 8.5.1.2.2.3.4.4-.3 1-.5 1.9-.8 2.9-1.2-2.9-2.9-5.5-4.2-8.4-.5-1.2-2.3-.2-1.7 1 1.4 3.1 3.5 6 4.6 9.3.1.4.4.6.8.7l-.6 2.7c-1.5-2.6-3-5.2-4.1-8-.5-1.2-2.4-.7-1.9.5 1.3 3.5 3.3 6.7 5.1 10 .1.2.2.3.4.4-.2 1.2-.5 2.4-.7 3.5-1.1-2.9-2.7-5.7-4.4-8.4-.7-1.1-2.4-.1-1.7 1 2 3.2 4 6.6 5 10.3.1.3.2.4.4.5-.3 1.3-.5 2.5-.8 3.8-.4-.8-.8-1.5-1-2-1-2.2-2.5-4.6-3-7-.3-1.3-2.2-.7-1.9.5.4 1.8 1.4 3.6 2.2 5.3.5 1.1 1 2.3 1.5 3.4l.6 1.5c.2.5 0 .8.3.4-.4.6 0 1.2.5 1.4-1.4 6.2-2.8 12.5-4.1 18.7-2 9.6-3.7 19.1-6.6 28.5-3 9.9-6.6 19.5-8.2 29.8-.2 1.3 1.7 1.8 1.9.5 1.4-9 4.3-17.6 7.1-26.2 3-9.3 5-18.8 6.9-28.4 1.5-7.7 3.3-15.3 5-22.9 0 0 .1 0 .1-.1 2.5-2.2 5.5-3.8 8.3-5.6 1.1-.7.1-2.4-1-1.7-2.3 1.4-4.6 2.7-6.8 4.3.2-1 .4-1.9.6-2.9l.3-1.5c3.1-.7 5.8-2.5 8.7-3.8 1.2-.5.2-2.3-1-1.7-2.4 1.1-4.7 2.6-7.3 3.4l.9-4.5c3.1-.9 6-2.5 9-3.7 1.2-.5.7-2.4-.5-1.9-2.7 1.1-5.3 2.5-8 3.4l.6-3c1.6-.5 2.8-1.4 4.3-2.2 1.7-.9 3.5-1.8 5.2-2.5 1.2-.5.2-2.2-1-1.7-1.6.7-3.1 1.4-4.6 2.2-1.1.6-2.2 1.3-3.3 1.8.3-1 .5-2.1.8-3.1.2.1.5.1.8-.1 3.2-1.8 6.4-3.6 9.7-5.2 1.2-.6.1-2.3-1-1.7-3 1.5-5.9 3.1-8.8 4.7.3-1 .7-2 1-3h.4c3.6-1.1 6.4-3.7 9.3-5.8.8-.7-.2-2.4-1.2-1.7zM168.8 454.5c-.7.5-.8 1.3-1.1 2.1-1.2 3.2-2.3 6.4-3.5 9.5-1.9 4.9-3.5 10-6 14.7-1.8-1.2-3.2-2.9-4.3-5-.3-.7-.6-1.4-1-2.1-.3-.5-1-.5-1.5-.3-.5.1-.9.4-.9 1v.4c0 .1-.1.1-.1.2-.1.3-.1.6 0 .9 0 .2.1.3.2.4.4 4.5 1.2 8.9 1.9 13.4.1.4.6.7 1 .7 2.4 0 4.5-1.1 6.6-2.3 2.3-1.3 4.7-2.5 6.6-4.4.6-.6.1-1.8-.8-1.7-.1-.1-.3-.1-.5-.1h-.3c-.6.1-1.1.2-1.7.2-1.3 0-2.5-.2-3.6-.6 1.8-3.4 3.1-7 4.5-10.7.9-2.5 1.9-5 2.8-7.5.5-1.5 1.4-6.5 2.5-7.3 1.2-.6.2-2.3-.8-1.5z"/><path class="beast-crown-14-st-3" d="M182.1 411.7c-1.2.5-3-.4-3-1.9 0-.6-1-.6-1 0 0 2 2.4 3.5 4.3 2.8.5-.1.3-1.1-.3-.9zM183.1 410v.3c0 .6 1 .6 1 0v-.3c0-.7-1-.7-1 0zM182.6 413.4c-1.2.6-2.7.3-3.9-.3-.6-.3-1.1.6-.5.9 1.5.7 3.4 1.1 4.9.3.6-.4.1-1.2-.5-.9z"/><path class="beast-crown-14-st-3" d="M178.9 407.8c-2.4-.6-2.7 2.5-1.9 4 .3.6 1.2.1.9-.5-.4-.7-.6-2.9.7-2.5.6.1.9-.8.3-1zM183.4 411.5c0 .1-.1.2-.2.2-.6.3-.1 1.2.5.9.2-.1.4-.3.6-.6.3-.6-.5-1.1-.9-.5zM171.4 454c-1.6-1.9-4.2-.8-5.2 1.1-.3.6.6 1.1.9.5.7-1.4 2.4-2.3 3.6-.9.4.4 1.1-.3.7-.7zM170.9 456.3c-.1.2-.2.3-.4.4-.6.3-.1 1.2.5.9.4-.2.7-.6.9-1 .1-.6-.9-.9-1-.3z"/><path class="beast-crown-14-st-3" d="M171.9 452.1c-2.4-1.6-5.7-.5-7 1.9-.1.1-.1.2 0 .3-.1.1-.1.2-.1.3-.1 1.2.2 2.2 1 3.2.4.5 1.1-.2.7-.7-.6-.7-.8-1.5-.7-2.5v-.1c1-1.9 3.9-2.9 5.8-1.4 1.4 1.2.8 3.6-.1 4.8-.4.5.5 1 .9.5 1.1-1.8 1.6-4.9-.5-6.3z"/><path class="beast-crown-14-st-3" d="M170.2 458.4h-.5c-.6 0-.6 1 0 1h.5c.7 0 .7-1 0-1zM166.9 450.2c-.4.1-.7.3-1 .5-.5.4.2 1.1.7.7.2-.1.3-.2.5-.2.7-.3.4-1.2-.2-1zM171.1 450c-.5-.2-.9-.3-1.5-.3s-.6 1 0 1c.3 0 .7.1 1 .2.6.3 1.1-.6.5-.9zM183.8 407.4c-.6-.3-1.1.6-.5.9 1.8.9 2.6 3.2 1.1 4.8-.4.5.3 1.2.7.7 2-2.1 1.2-5.2-1.3-6.4z"/><path class="beast-crown-14-st-4" d="M138.2 424.2c-1.6-3.4-2-7.2-5.4-9.4-2.8-1.8-5.6 1.5-6.8 3.6-2.2 3.8 0 8 .8 11.8.1.3.3.4.6.3 1.2.2 2.1.3 3.2 0 0 1.7.1 5.4 1.9 4.7.8-.3 1.1-1.2 1.1-2.2.4.7.8 1.4 1.3 2 .2.3.8.1.8-.2.1-.6.1-1.2 0-1.8.2.3.3.5.5.7.3.4.8 0 .9-.4.1-1.8-.4-3.2-1.1-4.7 2-1.2 3.5-1.6 2.2-4.4z"/><path class="beast-crown-14-st-4" d="M144.2 430c.1.1.3.2.5.2 3 .3 3.1-2.9.9-3.2.1-.7.1-1.5-.3-1.8-1-.8-2.1-.4-2.7.7-.3.4-.1 1.2.1 1.6.8 1.7-2.3 4.8-3.1 5.8-1.1 1.3-2 2.8-2.9 4.2-.6.1-1.1.1-1.7.2-2.7.2-5.4-.1-8.1-.1-.5-1.2-1.5-2.2-2.8-1.8-.7.2-1.2.9-1.2 1.7 0 .3.1.6.2.9-.1.1-.2.1-.3.2-.5.5-.7 1.2-.5 1.9.2.7.9 1.2 1.7 1.2 1 0 1.8-1.1 2.4-1.9.1-.1.1.5.1-.5.1 0 .2.2.3.1 2.3 0 4.6.3 6.9.3h1.8c-.6 1-1.2 1.9-1.8 2.9-.7-.2-1.4-.2-1.9.3s-.5 1.2-.3 1.8c.3.6 1.1.9 1.7.8h.1c.1.3.2.5.5.8.5.6 1.4.6 2.1.3.7-.3 1-1.1.9-1.8-.1-.6-.6-1-1.1-1.3.8-1.3 1.7-2.5 2.5-3.8 1.5-.1 3-.3 4.5-.3.2 1.4.7 2.3 2.2 2.8.5.2 1.1-.2 1.2-.7.1-.5-.2-1.8-.2-2.7.5-.3.8-.9.9-1.7.1-.7-.4-1.4-1.2-1.2-1.2.3-1.7.8-2.1 1.6-1.3 0-2.6 0-3.9.1 1-1.5 2-3 3.1-4.4.4-1.2 1-2.2 1.5-3.2z"/><path class="beast-crown-14-st-3" d="M127.7 423s0-.1 0 0c.2-.7-.8-.9-.9-.3-.1.1-.1.1-.1.3-.1.5 0 .8.6.9.2 0 .4-.2.5-.4 0-.2 0-.4-.1-.5zM134 420c-1 0-1 1 0 1s1-1 0-1zM133.6 425.5c-.4-.4-.8-.6-1.3-.8-.3-.1-.6.2-.6.5 0 .6-.1 1.2 0 1.8.1.6 1.1.4 1-.3-.1-.2 0-.5 0-.7l.3.3c.3.4 1.1-.3.6-.8z"/><path class="beast-crown-14-st-4" d="M216.5 455.2c-1.2.1-2.3.1-3.5.2.3-.8.5-1.7.8-2.5.2-.6-.8-.9-1-.3-.3 1-.6 1.9-.9 2.9-1.7.1-3.5.3-5.2.5.4-1.3.9-2.7 1.3-4 .2-.6-.8-.9-1-.3-.5 1.5-1 3-1.4 4.4-.6.1-1.2.1-1.8.2s-1.3.2-1.9.2c.4-1.8.7-3.6 1.1-5.4.1-.6-.8-.9-1-.3-.4 1.9-.8 3.9-1.2 5.8-1.4.2-2.8.4-4.2.5.6-2.6 1.3-5.1 2.2-7.6.2-.6-.7-.9-1-.3-1 2.6-1.7 5.3-2.3 8-1.8.2-3.4.3-5.2.9-.6.2-.3 1.2.3 1 1.5-.5 3.1-.8 4.7-1-.3 1-.5 2-.8 3-.2.6.8.9 1 .3.3-1.1.6-2.2.9-3.4l4.2-.3c-.4 1.8-1 3.5-1.9 5.2-.3.6.6 1.1.9.5 1-1.8 1.6-3.8 2.1-5.8.2 0 .4 0 .5-.1 1-.2 2.1-.3 3.1-.4-.7 2.3-1.3 4.7-1.6 7.1-.1.6.9.6 1 0 .3-2.5 1-4.9 1.7-7.2 1.7-.2 3.5-.4 5.2-.5-.9 3.1-1.7 6.2-2.1 9.5-.1.6.9.6 1 0 .4-3.2 1.2-6.4 2.1-9.5 1.3-.1 2.6-.2 3.8-.3.7-.1.7-1.1.1-1zM118.3 483.6c-.6-.6-1.3-1.2-2-1.8.6-.9 1-2 1.5-2.6.3-.5-.5-1-.9-.5-.5.8-.9 1.6-1.4 2.4-.7-.6-1.4-1.3-1.9-2 .9-1.6 1.7-3.6.1-5-.4-.4-1.2-.5-1.6 0-.8.9-.6 2.2-.4 3.2.1.7.4 1.4.8 2-.3.5-.6 1-.8 1.5-.7 1.7.2 3.6 2.2 3.3.8-.1 1.4-.7 1.9-1.3.7.6 1.3 1.1 1.9 1.7.3.3 1-.4.6-.9zm-5.9-7.3c0-.3-.1-2.1.6-1.5.6.5.5 1.7.3 2.3-.1.3-.2.7-.4 1-.2-.6-.4-1.2-.5-1.8zm.6 6.7c-1.4-.3-.4-2.2-.1-2.9v-.1c.6.7 1.2 1.3 1.9 1.9-.4.6-1 1.2-1.8 1.1zM221.8 427.1c-.1-.1-.2-.2-.3-.2-1.1-.5-1.9-1.3-2.8-2l-.1-.1c-.2-.2-.5-.1-.6.2-.5-.2-1 .4-.6.8l.3.3c0 .1 0 .2.1.3l.8.8c-10.3 0-21.1.3-32 .4.2-.1.3-.4.1-.6-.5-.8-1.2-1.6-1.7-2.5-.3-.6-1.2-.1-.9.5.5.9 1.2 1.6 1.7 2.5 0 .1.1.1.1.1h-1.4c0-.1 0-.2-.1-.3-.5-.8-1.1-1.6-1.8-2.3-.5-.5-1.2.2-.7.7.6.6 1.1 1.2 1.5 1.9h-1.5v-.1c-.4-.8-1-1.5-1.6-2.1-.5-.5-1.2.2-.7.7.4.4.8.9 1.2 1.4h-1v1h1.4c-.6.5-1.2 1.2-1.5 1.9-.3.6.6 1.1.9.5.4-.7.9-1.3 1.5-1.7.2-.2.2-.5 0-.6h1.2c-.3.5-.7.9-1.1 1.4s.5 1 .9.5c.3-.5.7-.9 1.1-1.4.1-.2.1-.4 0-.5h2l-.1.1c-.5.6-.9 1.3-1.2 2-.3.6.6 1.1.9.5.4-.7.8-1.4 1.2-2 .2-.2.1-.4-.1-.6 11-.1 21.8-.4 32.1-.4-.2.6-1.2 1.6-1.5 1.9-.4.5.3 1.2.7.7h.1c.2.2.5.3.7.1.9-.9 1.9-1.7 2.4-2.8.6-.2.8-.8.4-1z"/></svg>