<svg id="Layer_1" xmlns="http://www.w3.org/2000/svg" viewBox="-65 292 480 210" width="480" height="210"><style>.beast-crown-15-st-0{display:none}.beast-crown-15-st-1{display:inline;fill:#0e5941}.beast-crown-15-st-2{fill:#fcdca4}.beast-crown-15-st-3{fill:#0b3746}.beast-crown-15-st-4{fill:#75a08a}</style><path class="beast-crown-15-st-0 beast-crown-15-st-1" d="M263 1041.4c0 84.3-68.3 152.6-152.6 152.6h-.7C25.3 1194-43 1125.7-43 1041.4V817.6C-43 733.3 25.3 665 109.6 665h.7c84.3 0 152.6 68.3 152.6 152.6l.1 223.8z" id="Layer_1_1_"/><path class="beast-crown-15-st-2" d="M74.3 405.2c-3.4-2.5-6.4-4.5-8.5-8.3-2.3-4.3-1.9-10.6-2.2-15.3-.7-11-.7-22.1-1.3-33.2-.1-1.6-2.5-2.1-2.9-.4-2.1 8.4-4 16.8-5.6 25.3-1.2 6.7-3.2 13.3-4 20.1-1.7 13.1 7.6 20.7 17.3 27.7.1.5.4.9 1.1 1.1 3.9.8 9.1-3 11-6.2 2.7-4.6-1.2-8.1-4.9-10.8z"/><path class="beast-crown-15-st-3" d="M79.2 407.1c-.6-.3-1.1.5-.5.9 2 1.2 2.6 3.9 2.7 6.1 0 2.6-2.1 4.6-3.9 6.2-2.8 2.5-8.5 5.8-11.5 2-.4-.5-1.1.2-.7.7 3.5 4.3 9.7.8 13-2 2.4-2.1 4.2-4.4 4.2-7.7-.2-2.2-1.3-5-3.3-6.2z"/><path class="beast-crown-15-st-3" d="M79.7 405.6c-.6-.2-.9.7-.3 1 2.9 1.1 4.1 4.8 4 7.6-.1 3.3-2.8 6.5-5.1 8.6-2 1.9-4.9 3.1-7.6 3.7-1.5.3-2.9.3-4.3-.3-.8-.3-1.4-.9-2-1.5-.4-.4-1.8-2.8-.1-2.9.6 0 .6-1 0-1-3.4.1-1.1 4.5.5 5.5 3.7 2.4 7.9 1 11.5-1 3.7-2 7.4-6.2 7.9-10.4.6-3.4-.9-7.9-4.5-9.3z"/><path class="beast-crown-15-st-3" d="M86.8 408.6c-.9-1.6-4-6.3-6-3.3-.1.2-.1.6.2.7 6.9 3.7 4.3 14.4-1.1 18.3-2.9 2.2-6.9 3.4-10.5 3.5-2.5.1-7.7-1.1-7-4.5.1-.6-.8-.9-1-.3-.7 3.2 2.5 4.8 5.2 5.5 4.4 1.2 9.5-.7 13.3-3 6.4-3.9 9.2-15.6 2.2-20 1.6-.7 4.7 5.1 4.9 6.2 1.2 5.4-.2 10.9-4.8 14.3-3.1 2.3-7.3 3.2-11.1 4.1-2.4.6-4 .1-6.1-.8-1.4-.5-2.9-1-3.8-2.3-.4-.6-.6-1.1-1.1-1.7-.4-.5-1.1.2-.7.7.8.9 1 2 2 2.7 1 .7 2.1 1.2 3.3 1.6 2.9 1.1 4.5 1.3 7.5.5 5.5-1.4 10.8-2.9 14.1-7.8 2.8-4 2.9-10.3.5-14.4zM61.5 429.6c-.8-.6-1.6-1.2-2-2.1-.3-.6-1.1-.1-.9.5.5 1 1.4 1.6 2.2 2.3.5.5 1.2-.2.7-.7z"/><path class="beast-crown-15-st-3" d="M75.4 431.4c-1.6.5-3 .3-4.6.2-1.8-.1-3.5.3-5.3-.3-.6-.2-.9.7-.3 1 1.8.7 3.7.3 5.6.4 1.7 0 3.1.3 4.8-.2.7-.3.5-1.3-.2-1.1zM82.1 428.8c-1.2.6-2.6 1-3.7 2-.5.4.2 1.1.7.7.9-.9 2.3-1.3 3.5-1.8.6-.3.1-1.2-.5-.9zM85.9 424.7c-.8.8-1.7 1.5-2.3 2.3-.4.5.3 1.2.7.7.7-.9 1.6-1.6 2.3-2.3.5-.4-.2-1.1-.7-.7zM89.7 412.9c-.5 3-.6 6-2 8.8-.3.6.6 1.1.9.5 1.4-2.9 1.6-5.9 2.1-9 .1-.7-.9-.9-1-.3zM85.6 404c-.4-.5-1.1.2-.7.7 1.3 1.4 3.2 2.8 3.3 4.9 0 .6 1 .6 1 0-.1-2.5-2-4-3.6-5.6zM87.8 403.4c-.2-.3-.5-.7-.7-1-.4-.5-1.1.2-.7.7.2.2.4.5.6.8.3.6 1.2.1.8-.5zM75.8 415.1c-1.2-.4-2.4-.5-3.6-.4.1-1.4 0-2.8-.1-4.2 0-.3-.3-.6-.6-.5-1.5.3-3 .5-4.5.5.1-1.9.2-4.3-1.3-5.4-.4-.3-1.5-.7-2.9-1 .3-1.2.7-2.7.3-3.9-.3-.9-1.7-1.2-2.4-1.4-.9-.3-1.7-.6-2.5-.9 1.2-1.6 2.4-3.3 2.1-5.1-.2-1-.7-1.7-1.4-2.3 1-1.4 2-2.9 1.7-4.7-.2-1.2-1.1-2.4-1.9-3.5 1.5-1.7 3.4-3.8 2.7-5.7-.4-1.2-1.1-2-1.9-2.8.7-1.1 1.3-2.3 1.3-3.7 0-1.1-.6-1.9-1.2-2.7 1.8-1.9 2-3.8 1.3-5.8.5-.8.8-1.6.7-2.6 0-.8-.5-1.6-.8-2.3-.8-1.7-.2-2.9.3-4.6.2-.6-.8-.9-1-.3-.5 1.8-1.2 2.6-.5 4.5.5 1.5 1.2 2.6.8 4-.3-.7-.8-1.3-1.2-1.9-.4-.5-1.3 0-.9.5.6.8 1.2 1.6 1.6 2.5-.5.8-1.3 1.5-1.8 2.4-.7 1.1-.5 2.1 0 3.2.1.1.1.2.2.4l-.7.7c-1 1-1.4 2.3-.9 3.7.3.9.9 1.6 1.6 2.2l-.6.9c-.7 1.1-2.2 2.3-2.2 3.7 0 1.3 1.2 2.6 2 3.7-.2.2-.4.4-.5.6-.9 1.1-1.9 2.4-2.1 3.8-.1 1.5 1.8 3 2.8 3.9-1.3 1.9-2.8 3.8-3.8 5.9-.1.3 0 .6.3.7.9.3 1.7.7 2.5 1.1-.8 1.3-1.6 2.7-1.8 4.2 0 .2.2.4.4.5 2.1.4 4.4.9 6.6 1.5 0 .1 0 .2-.1.3-.4 1.9-.8 3.9-1.1 5.8 0 .3.1.6.5.6 1.6.1 3.3.2 4.9.2v1c0 .8.1 2.9 1.2 3 1.3.2 2.6.2 4 .1-.1 1-.3 2.1-.5 3.1-.2.6.8.9 1 .3.3-1.1.5-2.2.6-3.3 1.2 0 2.3.1 3.4.5.4.2.6-.8 0-1zm-16.1-51.7c.2-.3.4-.6.7-.8.1.5.1 1 0 1.6-.1.9-.6 1.6-1.2 2.3-.5-.8-.6-1.7.5-3.1zm-2.1 6.6c.1-.6.7-1.3 1.3-1.8.6.9 1.2 1.7.9 3-.1.6-.5 1.3-.8 1.9-.9-.8-1.6-1.7-1.4-3.1zm.3 11.1c-.7-.9-1.7-2-1.1-3.2.4-.9 1.3-1.6 1.8-2.5.1-.2.3-.5.5-.7.4.4.8.8 1.2 1.3 1.2 1.7-.6 3.9-2 5.5l-.4-.4zm-1.7 6.3c-.7-1.1.8-2.7 1.3-3.5.2-.2.4-.5.6-.8.3.5.7 1.1 1 1.6 1.1 1.7.4 3.1-.5 4.6-.1.2-.2.3-.3.4-.8-.7-1.5-1.4-2.1-2.3zm2.2 3.9c1 1 1.3 2 .4 3.8-.4.8-1 1.6-1.5 2.4-.8-.3-1.5-.6-2.3-.9.9-1.9 2.2-3.6 3.4-5.3zm-2.3 10.3c.2-.9.9-1.9 1.6-2.8.3.1.6.3.9.4.9.4 3.8.6 3.9 1.8.1.9-.1 1.9-.4 2.8-2.9-.8-6.2-1.6-6-2.2zm5.7 8.7c.3-1.8.6-3.7 1-5.5.7.2 1.4.5 2.1.8 1.3.6 1.3 2.9 1.2 4.8-1.4.1-2.9 0-4.3-.1zm8.6 4.5c-2.7.2-3.4-.4-3.4-3v-.3c1.4 0 2.8-.1 4.2-.4.1 1.2.1 2.5 0 3.7h-.8z"/><path class="beast-crown-15-st-2" d="M270.9 416.1c1.9 3.2 7.1 7 11 6.2.7-.1 1-.6 1.1-1.1 9.7-7 19-14.6 17.3-27.7-.9-6.8-2.8-13.4-4-20.1-1.5-8.5-3.5-16.9-5.6-25.3-.4-1.7-2.9-1.2-2.9.4-.5 11-.6 22.1-1.3 33.2-.3 4.7.1 11-2.2 15.3-2.1 3.8-5.1 5.8-8.5 8.3-3.8 2.6-7.7 6.1-4.9 10.8z"/><path class="beast-crown-15-st-3" d="M270.8 407.1c.6-.3 1.1.5.5.9-2 1.2-2.6 3.9-2.7 6.1 0 2.6 2.1 4.6 3.9 6.2 2.8 2.5 8.5 5.8 11.5 2 .4-.5 1.1.2.7.7-3.5 4.3-9.7.8-13-2-2.4-2.1-4.2-4.4-4.2-7.7.2-2.2 1.3-5 3.3-6.2z"/><path class="beast-crown-15-st-3" d="M270.3 405.6c.6-.2.9.7.3 1-2.9 1.1-4.1 4.8-4 7.6.1 3.3 2.8 6.5 5.1 8.6 2 1.9 4.9 3.1 7.6 3.7 1.5.3 2.9.3 4.3-.3.8-.3 1.4-.9 2-1.5.4-.4 1.8-2.8.1-2.9-.6 0-.6-1 0-1 3.4.1 1.1 4.5-.5 5.5-3.7 2.4-7.9 1-11.5-1-3.7-2-7.4-6.2-7.9-10.4-.6-3.4.9-7.9 4.5-9.3z"/><path class="beast-crown-15-st-3" d="M263.2 408.6c.9-1.6 4-6.3 6-3.3.1.2.1.6-.2.7-6.9 3.7-4.3 14.4 1.1 18.3 2.9 2.2 6.9 3.4 10.5 3.5 2.5.1 7.7-1.1 7-4.5-.1-.6.8-.9 1-.3.7 3.2-2.5 4.8-5.2 5.5-4.4 1.2-9.5-.7-13.3-3-6.4-3.9-9.2-15.6-2.2-20-1.6-.7-4.7 5.1-4.9 6.2-1.2 5.4.2 10.9 4.8 14.3 3.1 2.3 7.3 3.2 11.1 4.1 2.4.6 4 .1 6.1-.8 1.4-.5 2.9-1 3.8-2.3.4-.6.6-1.1 1.1-1.7.4-.5 1.1.2.7.7-.8.9-1 2-2 2.7-1 .7-2.1 1.2-3.3 1.6-2.9 1.1-4.5 1.3-7.5.5-5.5-1.4-10.8-2.9-14.1-7.8-2.8-4-2.9-10.3-.5-14.4zM288.5 429.6c.8-.6 1.6-1.2 2-2.1.3-.6 1.1-.1.9.5-.5 1-1.4 1.6-2.2 2.3-.5.5-1.2-.2-.7-.7z"/><path class="beast-crown-15-st-3" d="M274.6 431.4c1.6.5 3 .3 4.6.2 1.8-.1 3.5.3 5.3-.3.6-.2.9.7.3 1-1.8.7-3.7.3-5.6.4-1.7 0-3.1.3-4.8-.2-.7-.3-.5-1.3.2-1.1zM267.9 428.8c1.2.6 2.6 1 3.7 2 .5.4-.2 1.1-.7.7-.9-.9-2.3-1.3-3.5-1.8-.6-.3-.1-1.2.5-.9zM264.1 424.7c.8.8 1.7 1.5 2.3 2.3.4.5-.3 1.2-.7.7-.7-.9-1.6-1.6-2.3-2.3-.5-.4.2-1.1.7-.7zM260.3 412.9c.5 3 .6 6 2 8.8.3.6-.6 1.1-.9.5-1.4-2.9-1.6-5.9-2.1-9-.1-.7.9-.9 1-.3zM264.4 404c.4-.5 1.1.2.7.7-1.3 1.4-3.2 2.8-3.3 4.9 0 .6-1 .6-1 0 .1-2.5 2-4 3.6-5.6zM262.2 403.4c.2-.3.5-.7.7-1 .4-.5 1.1.2.7.7-.2.2-.4.5-.6.8-.3.6-1.2.1-.8-.5zM274.4 416.1c1.1-.4 2.2-.4 3.4-.5.1 1.1.3 2.2.6 3.3.2.6 1.1.4 1-.3-.3-1-.4-2-.5-3.1 1.3 0 2.7.1 4-.1 1.1-.2 1.2-2.2 1.2-3v-1c1.6 0 3.3-.1 4.9-.2.4 0 .5-.3.5-.6-.3-1.9-.7-3.9-1.1-5.8 0-.1 0-.2-.1-.3 2.2-.7 4.5-1.1 6.6-1.5.2 0 .4-.3.4-.5-.2-1.6-.9-2.9-1.8-4.2.8-.4 1.6-.8 2.5-1.1.3-.1.4-.4.3-.7-1-2.1-2.5-4-3.8-5.9 1-.9 2.9-2.4 2.8-3.9-.1-1.5-1.2-2.7-2.1-3.8-.1-.2-.3-.4-.5-.6.8-1 2-2.3 2-3.7 0-1.4-1.5-2.6-2.2-3.7l-.6-.9c.7-.7 1.3-1.4 1.6-2.2.4-1.4.1-2.6-.9-3.7l-.7-.7c.1-.1.1-.2.2-.4.5-1.1.7-2.1 0-3.2-.6-.8-1.3-1.5-1.8-2.4.4-.9 1-1.7 1.6-2.5.4-.5-.5-1-.9-.5-.5.6-.9 1.3-1.2 1.9-.4-1.4.2-2.5.8-4 .7-1.9 0-2.7-.5-4.5-.2-.6-1.1-.4-1 .3.5 1.7 1.1 2.8.3 4.6-.3.7-.8 1.5-.8 2.3 0 1 .3 1.9.7 2.6-.7 1.9-.5 3.9 1.3 5.8-.6.8-1.2 1.6-1.2 2.7 0 1.4.6 2.5 1.3 3.7-.8.8-1.6 1.6-1.9 2.8-.6 1.9 1.2 4 2.7 5.7-.8 1.1-1.7 2.3-1.9 3.5-.3 1.8.7 3.3 1.7 4.7-.7.7-1.2 1.3-1.4 2.3-.3 1.7.9 3.4 2.1 5.1-.8.3-1.6.6-2.5.9-.7.2-2.1.6-2.4 1.4-.4 1.2 0 2.7.3 3.9-1.4.4-2.5.7-2.9 1-1.4 1.1-1.3 3.5-1.3 5.4-1.5 0-3-.2-4.5-.5-.3-.1-.6.2-.6.5-.1 1.4-.1 2.8-.1 4.2-1.2 0-2.4 0-3.6.4-.8.2-.6 1.2 0 1zm16.4-49.6c-.6-.7-1.1-1.4-1.2-2.3-.1-.6-.1-1.1 0-1.6.2.3.4.5.7.8 1.1 1.4 1 2.3.5 3.1zm.2 6.6c-.4-.6-.7-1.2-.8-1.9-.3-1.3.3-2.1.9-3 .6.6 1.2 1.2 1.3 1.8.2 1.4-.5 2.3-1.4 3.1zm.8 8.4c-1.5-1.7-3.2-3.9-2-5.5.3-.4.7-.9 1.2-1.3.2.2.3.5.5.7.5.9 1.3 1.6 1.8 2.5.6 1.2-.5 2.3-1.1 3.2-.2.1-.3.2-.4.4zm0 8.3c-.1-.1-.2-.3-.3-.4-.9-1.6-1.6-3-.5-4.6.3-.5.7-1.1 1-1.6.2.3.4.5.6.8.6.8 2.1 2.4 1.3 3.5-.7.8-1.4 1.5-2.1 2.3zm3.2 6.7c-.8.3-1.5.6-2.3.9-.5-.8-1.1-1.5-1.5-2.4-.9-1.7-.6-2.7.4-3.8 1.2 1.8 2.5 3.5 3.4 5.3zm-7 7.3c-.2-.9-.5-1.9-.4-2.8.1-1.3 2.9-1.5 3.9-1.8.3-.1.6-.2.9-.4.7 1 1.3 1.9 1.6 2.8.1.6-3.2 1.4-6 2.2zm-4.1 6.7c-.1-1.9-.1-4.2 1.2-4.8.7-.3 1.4-.6 2.1-.8.4 1.8.7 3.6 1 5.5-1.4 0-2.9.1-4.3.1zm-5.1 4.3c-.1-1.2 0-2.5 0-3.7 1.4.3 2.8.4 4.2.4v.3c0 2.6-.7 3.2-3.4 3h-.8z"/><path class="beast-crown-15-st-4" d="M82.9 488.4c-5 0-5 7 0 7 4 0 4-7 0-7zM162.7 480.4c-.8-.2-1.5-.3-2.2-.4 1.8-.6 3.6-1.3 5.1-2.7 3.4-3-1.6-7.9-4.9-4.9-1.3 1.2-3.8 1.4-5.5 2.1-2.5 1.1-4.5 3-4 5.9.5 2.7 3.7 5.2 6.2 6 .7.2 1.4.4 2.1.5-.3 0-.5.1-.6.1-4.5.3-4.5 7.3 0 7 3.1-.2 8.1-1.9 8.6-5.6.5-3.8-.8-7-4.8-8zM165 461.6c1.4-3.4-1.3-6.9-3.8-8.8-3.1-2.3-7.2-2-10.1.3-1.5 1.2-1.2 3.7 0 4.9 1.5 1.5 3.4 1.2 4.9 0-.5.4-.3.1.1.1s.8.2 1.1.4c.3.1.6.4.8.7-.8.3-1.6.5-2.4.8-2.2.8-4.2 1.9-5 4.2-1 2.9 1.9 5.2 4.1 6.4 3.3 1.7 6.2-2 5-4.6 2.6-.9 4.2-1.7 5.3-4.4zM140.9 475.4c1.2-1.1 1.7-2.7 1.9-4.4.9 3.6 7 3.4 6.9-.8-.1-3.3-.9-7-2.6-9.8-1.2-1.8-2.7-2.8-4.8-3-2.5-.3-4.4 2-5.7 3.7-1 1.4-.6 4.2-.5 6.1-2.7-.5-5.7 2.2-3.8 5.1 1.7 2.8 5.3 6.3 8.6 3.1z"/><path class="beast-crown-15-st-4" d="M150.9 484.7h-2.4l-.4-.4c-1.2-1.8-2.1-3.8-3.5-5.6-3.1-4-7.6-1.4-10.8.8-3.7 2.5-.2 8.6 3.5 6 .8-.6 1.7-1.1 2.6-1.6.8 1.2 1.5 2.8 2.2 3.9 1 1.5 2.2 3.1 4 3.7 1.6.5 3.2.1 4.8.2 4.5.3 4.4-6.7 0-7zM133.1 459.9c2.3-1.8 3.4-5.5 4.4-8.1.2-.4.3-.8.5-1.2.5 1.7 2 3 4.1 2.3 5.2-1.7 9.2-6.2 5.2-11.3-3.2-4-9.6-3-12.9.2-2.1 2.1-2.7 5.8-3.8 8.5-.2.4-.3.8-.5 1.3-.7-.3-1.5-.3-2.2-.1-2 .5-2.7 2.4-2.4 4.3.6 3.9 3.9 7.1 7.6 4.1zM149.8 443.8c.7 3.2 3.5 4.8 6.6 4.2 2.3-.5 4.2-2.4 5.5-4.2 1.5-2.1 2-4.9.7-7.1-1.7-3-5.7-3.3-8.8-2.9-1.9.2-3.5 1.4-3.5 3.5 0 .9.5 1.9 1.2 2.6-1.4.7-2 2.3-1.7 3.9zM155 424c1.2-2.6 1.2-6.1-1-8.2-2.4-2.4-5.4-2.2-8.3-.9-3.9 1.7-.9 7.2 2.9 6.2-.1.3-.4.6-.7.8-1.7 1.2-4.1 1.4-6 2.2-2 .9-4.2 2.6-4.1 5 .1 3.1 2.4 4.9 4.8 6.4 3.7 2.4 7-3.2 3.9-5.7.5-.2 1.1-.3 1.6-.4 3-1 5.6-2.6 6.9-5.4z"/><path class="beast-crown-15-st-4" d="M153.2 431c1 1.7 3.1 2.1 4.8 1.3 1.3-.6 2.5-1.3 3.3-2.6.9-1.7.4-3.8-1.3-4.8-1.5-.9-3.4-.5-4.5.8-.4.2-.7.4-1.1.5-1.7.8-2.1 3.2-1.2 4.8zM120.5 457.2c1.7-.7 2.6-2.6 3-4.3.2-.9.3-1.9.4-2.8 0-.3.1-.6.1-1 0-.2.1-.3.1-.5 3.2 0 4.7-4.3 2.6-6.1 2-.2 3.7-2 3.5-3.8 3 .6 6-1.8 6.6-4.6.6-2.7-.2-5.5-.6-8.2-.5-3.1-.1-3.6 3.1-3.1 4.4.7 6.3-6 1.9-6.7-4.5-.7-9.9-.6-11.6 4.5-1 2.8-.4 5.6.1 8.4-1.3-.7-2.9-.9-4.4-.3-5.4 1.9-4.8 9.7-1.1 12.9-1.8-.2-3.5.2-5 1.6-1.5 1.4-1.8 3.5-2.1 5.4-.1.5-.1 1-.2 1.5-3.9-2-7.3 3.9-3.4 6.1 2.2 1.3 4.5 2 7 1zM119.4 474.4c.6.6 1 1.6 1.7 2.1.4.3.7.6 1.1.9.1.1.3.1.4.2h.1c1.6 3.7 7.7 1.8 6.6-2.4-.5-1.8-1.5-3-3.2-3.7-.1-.1-.2-.2-.3-.4-.1-.1-.2-.2-.2-.3 0-.2.1-.4.1-.6v-.3-.1c.3-1.4.8-2.7 1.1-4.1.3-1.7.2-4.2-1.7-5-2.3-1-4-.2-5.7 1.4-1.6 1.5-1.2 3.4-.1 4.6 0 .1 0 .1-.1.2-.1.5-.3 1-.4 1.5 0 .2-.6 2.4-.1 1.3-.8 1.7-.6 3.3.7 4.7zM105.1 463.8c.5 1.7 1.8 2.5 3.4 2.5 0 .1.1.2.1.2.1.2.2 1.2.2 1.1.3 2.1.3 4.2 1 6.2 1.4 4.3 8.2 2.4 6.7-1.9-.8-2.4-.6-5-1.3-7.7-1-3.7-4-5.4-7.7-4.8-1.8.4-2.8 2.7-2.4 4.4z"/><path class="beast-crown-15-st-4" d="M107.5 442.4c-4.5.2-4.5 7.2 0 7 3.6-.2 6.5-2 7.6-5.5.6-1.9.2-3.9-.6-5.7l1.5-.9c3.9-2.3.3-8.4-3.5-6-1.9 1.1-3.7 2.4-5.4 3.9-1.3 1.2-1.5 3.8 0 4.9.8.6 1.3 1.1 1.3 2-.1.2-.2.2-.9.3zM115.1 424.9c2 1.3 4.5 2.3 6.8 1 1.8-1.1 2.4-3.3 2.2-5.3-.1-.9-.2-1.8-.4-2.7v-.3 0c0-.2-.1-.4-.1-.5 0 .3.1.4.1.4.1-.2.1-.5.2-.7.4 0 .7 0 1.1.1 1.9.3 3.8-.4 4.3-2.4.5-1.7-.6-4-2.4-4.3-2.3-.3-5-.7-7 .8s-2.9 3.9-3.1 6.4c0 .3 0 .7.1 1-3.1 0-4.9 4.5-1.8 6.5zM123.7 417.6v-.1.1zM135.3 409.6c.3.3.6.7.9 1 1.4 1.5 2.4 2.3 4.5 2.5 2.1.2 4.1-1.2 5.5-2.5l.1-.1c.2.4.4.8.5 1.2 1.9 4.1 7.9.5 6-3.5-1.4-3-3.7-7-7.7-5.8-1.4.4-2.4 1.5-3.3 2.6-.2.3-.4.6-.7.8-1.6-1.7-3.2-3.7-5.5-4.5-4.2-1.5-6.2 2.5-6.3 6-.1 3.4 4.1 4.2 6 2.3z"/><path class="beast-crown-15-st-4" d="M168.4 394.5c-2.6 1.6-3.1 4.3-2.7 7.2.3 2 1.7 5 .4 6.8-.4.6-.6 1.2-.6 1.7 0 0 0-.1-.1-.1-1-1.3-2.3-2.1-3.7-2.8 1.1-2.4 1.8-4.9.2-7.7-2.1-3.8-6.2-4.6-9.8-2.4-3.9 2.3-.4 8.3 3.5 6 .8-.5.3.4-.1 1.2-.5 1-1.2 2-1.7 3-1 2.1-.1 4.3 2.1 5.1l2.4.9c-2.7 2.9 2 7.3 5.3 4.6 1.7-1.4 3-3.6 2.8-5.7 1.4 1.4 4.2 1.8 5.8-.4 1.5-2.1 1.6-4.7 1.2-7.2-.2-1.1-.4-2.2-.7-3.4-.1-.4-.2-.7-.2-1.1v-.2c2.9-2.5-.5-7.7-4.1-5.5zM134 397.2c-.3 4 5.1 4.4 6.6 1.4 1.2.7 2.8 1.5 4.2 1 1.9-.7 3-1.7 4.2-3.4.3-.4.5-.8.7-1.2 3.9 1.6 7.2-4.1 3.3-6.2-2.7-1.4-5.4-1.6-7.8.5-.7.6-1.3 1.7-1.8 2.5 0 .1-.1.1-.1.2-1.6-1-3.1-1.8-5.1-1.4-3.1.6-3.9 3.9-4.2 6.6z"/><path class="beast-crown-15-st-4" d="M147.7 386.3c.4-.4 1.9-2.2 2.5-1.4 1.5 2 3.8 2.2 5.5.6l.3.9c1 2.5 2.5 4.6 5.3 5.5 1.6.5 2.8-.1 3.5-1.1 1.2 2.1 4.5 2.9 6.1.2 1.3-2.4 1.5-4.9.5-7.4-.5-1.2-1.1-2.3-1.7-3.5 0 .1-.1-.3-.3-.6 1-1.1 1.3-2.6.5-4-.9-1.5-3.3-2.4-4.8-1.3-2.4 1.9-3.5 4.4-2.4 7.3.5 1.2 2.2 3.4 2.3 5-.4-.6-1-1.1-1.9-1.4-.4-.1-1-2.1-1.1-2.6-.6-1.6-1.2-3-2.2-4.3-2.1-2.6-4.8-1.5-6.9.2-3.3-1.5-7.1-.3-10.1 2.8-3.2 3.4 1.7 8.4 4.9 5.1zM108.5 400.5c-1.5 1.3-2 3.4-.5 5v.1c.1.5.1 1 .2 1.5.8 4.4 7.5 2.6 6.7-1.9-.1-.5-.2-.9-.2-1.3 1.1-1.4 1.7-3 1-4.9-.4-1.1-1.1-1.9-1.7-2.9-.2-.4.4-.3.4-.3 2 1.3 3.9.3 4.7-1.4 1.4 2.3 5.6 2.7 6.4-.7l.3-.9c1.6.4 3.3.3 4.9-.3 1.4-.6 2.4-1.6 2.5-3 2.2.5 5.1-1.3 4.6-4.3-.6-3.7-4.1-6.4-7.7-4.5-2 1-3.2 2.8-3.7 4.8-1.6-1.3-4.3-1.2-5.3.8-.8 1.5-1.5 3-2.1 4.6-.3-.4-.6-.9-1.1-1.2-3.7-2.5-8.4-.5-10.2 3.3-1 2-1 4.2 0 6.1.2.6.5 1 .8 1.4z"/><path class="beast-crown-15-st-4" d="M127.9 394.7c-3-.1-5 2-5.8 4.7 0 .1-.1.2-.1.4-1.7-.3-3.4 1-3.8 2.5-.5 1.9.6 3.7 2.4 4.3 3.3 1.2 6.3-.1 7.6-3.3.2-.5.4-1.1.5-1.6 1.5-.4 2.6-1.9 2.6-3.4.1-2.1-1.5-3.5-3.4-3.6zM98.4 411.1c-.2 1.7.4 3.4 1.7 5 1.2 1.3 3 2.1 4.8 2.5 1.2 1.5 3.5 2.3 5.4.7.6-.5 1.1-1.1 1.5-1.7 1.3-1.8 0-4.7-2.1-5.1-1.2-.2-2.4-.5-3.6-.9-.2-.1-.5-.2-.7-.3.1-.1.2-.4.4-.7 1.1-1.8.1-4.8-2.1-5.1-.2 0-.7-.1-1.1-.1.4-.8.9-1.5 1.2-2.4 1.5-3.6-1.5-6-4.7-6.3-3.2-.3-4.1 3.2-2.7 5.4-.7 1.2-1.2 2.5-1.3 3.9 0 2.5 1.4 4.1 3.3 5.1z"/><path class="beast-crown-15-st-4" d="M91.3 437.3l.1.1c.3.4.7.8 1.1 1.1 1.3 1.2 2.8 1.6 4.5 1.8 1.7.2 3.4-.7 4.7-1.7.9-.7 1.8-2 2.8-2.4 3.5-1.3 2.8-6.3-.1-6.9.3 0 .7-.1 1-.2.7-.1 1.3-.4 1.9-.7 2.7 3.3 8.5-.1 5.9-3.7-1.8-2.5-4.2-4.3-7.4-3.2-1.1.4-1.6.8-2.6.9.3 0-.4-.2-.6-.5 0 0 0-.1-.1-.1 1.7-3.2-2.7-7.1-5.6-4.1-3.4 3.5-.9 8 2.3 10.5 1 .8 2.3 1.1 3.6 1.2-.1 0-.2 0-.4.1-1.7.6-3 1.5-4.3 2.8-.4.4-.8.8-1.2 1.1h-.1c-.4-.2-1-1.3-1.6-1.8-1.1-1-2.7-1.5-4.2-1-3.4 1-2.6 6 .3 6.7z"/><path class="beast-crown-15-st-4" d="M97 449.5c0 .2.1.4.1.6.1.7.5 1.3 1 1.7-.7.3-1.4.6-2.1 1.2-.8.6-1.4 1.4-2.1 2.1-.5.5-.6.6-.9.8-.2.1-.2.1-.3.1h-.3c-4.5-.1-4.5 6.9 0 7 2.5.1 4.6-1.2 6.4-3 .4-.4.9-.9 1.3-1.4 1.4.9 3.2.9 4.5-.4 1.3-1.3 1.5-3.7 0-4.9-.7-.6-1.4-1-2.1-1.4 1.1-.8 1.6-2.3 1.3-3.8-.4-1.8-.7-3.6-1.3-5.3-.9-2.3-3.9-3.7-5.8-1.5-.7.8-1.1 1.1-2 1.6-2-3-7.6-1.1-6.3 2.8 1.5 4.5 5.2 5.1 8.6 3.8zM105.5 477.6c1.9-.4 2.9-2.6 2.4-4.3-.4-1.5-1.6-2.3-3-2.5-.2-.1-.4-.2-.5-.2-.2-.1-.5-.3-.7-.5-.7-.5-.1 0-.5-.4-1.4-1.1-2.7-2.2-4.4-2.8-1.9-.7-3.8-.2-5.3 1.1-1.7 1.5-1.9 4.2-1.9 6.2-.1 4.3 6.2 4.5 6.9.6l1.2.9c.4.3.9.7 1.4 1 1.4.9 2.8 1.2 4.4.9zM119.9 487.7c3.9.5 5.3-5.6 1.2-6.9-1.4-.4-2.7-.5-4 .1-.4.2-1.4 1.1-1.7 1.3-.5-.3-1.1-.6-1.7-.8-1-.4-1.9-.8-2.8-1.2-5.4-2.5-7.9 1.3-9.7 6-1.6 4.2 5.2 6 6.7 1.9.2-.5.4-.9.6-1.3 1.2.5 2.5 1 3.5 1.6 1.3.8 2.7.9 4.2.9 1 0 2.1-.5 2.9-1 .3-.1.5-.4.8-.6z"/><path class="beast-crown-15-st-4" d="M129 484.7c-1.6-1.6-4.4-1.2-5.5.7-.5.9-2 4.5-2.4 4.4-4.4-1-6.3 5.7-1.9 6.8 4.5 1.1 6.6-1.2 8.4-4.2.7.4 1.5.7 2.4 1 2.1.7 4.1.5 5.7 2.3 3 3.4 7.9-1.6 4.9-4.9-3.2-3.8-8.4-2.7-11.6-6.1zM96.5 490.5l-1.8-.3c.3-.4.7-.8 1-1.1 1.7-2 1.1-5.1-1.5-5.8-2.2-.6-4.5-1.3-6.7-2-4.3-1.4-6.1 5.3-1.9 6.7.5.2 1.1.3 1.6.5-.7 1.3-1.1 2.7-.8 4.1.9 3.5 5.1 4.1 8.1 4.7 1.9.3 3.8-.5 4.3-2.4.6-1.8-.5-4.1-2.3-4.4zM87.5 475.3c1.9-3.6 2.1-7.9-2.3-9.6-.5-.2-1-.3-1.6-.5-.2 0-.4-.1-.5-.1-.7-1.6-.4-3.9 1.1-4.9 3.7-2.6.2-8.6-3.5-6-4.4 3.1-6.1 8.8-3.9 13.8.8 1.8 1.9 3.1 3.8 3.7.3.1.5.2.8.2-1.8 4 4.1 7.4 6.1 3.4zM78.2 444.9c-.5 1.7.6 4 2.4 4.3 2.5.4 4.1.1 6.1-1.6 1.5-1.3 1.2-3.6 0-4.9-1.2-1.4-2.8-2.4-4.3-3.5.2-.1.4-.3.5-.4 3.7-2.6.2-8.6-3.5-6-3.2 2.2-5.8 5-4.1 9.1.6 1.3 1.7 2.2 2.9 3zM65.2 450.3c1.6 2.4 2.1 2.8.7 5.5-2.1 4 3.9 7.5 6 3.5 1.6-3 2.9-6.1 1.2-9.4-.6-1.1-5-7.6-4.8-7.7 3.8-2.4.3-8.4-3.5-6-3.4 2.1-4.7 5.6-2.8 9.3.9 1.7 2.1 3.2 3.2 4.8z"/><path class="beast-crown-15-st-4" d="M72.6 466.8c-1.2.2-2.3.7-3.5 1.2l-.6.3c-1.2-1.7-1.2-4.2-2.1-5.9-3.6-7.2-14 1.8-9 6.6 1.3 1.2 2.8 1.2 4 .6.7 1.7 1.7 3.3 3 4.6 3.4 3.5 6.6.1 10.1-.6 4.4-.8 2.5-7.6-1.9-6.8zM79.6 479.8c-2.3-1.5-7.7-4.7-10.2-1.6l-.9 1.2c.4-.8-1 .1-1.6.3-.1 0-.2 0-.2.1-.1-.4-.2-.8-.2-1.2-.4-2.4-3.3-2.9-5.1-2.1-1.1.5-1.9 1-2.7 1.9-2.3 2.5 0 6 2.5 6 1.3 2 3.5 2.9 6.5 2.4 1.7-.3 3.7-.9 5.1-1.9.3-.2.5-.4.7-.6.9.3 1.8 1 2.5 1.5 3.8 2.6 7.3-3.4 3.6-6z"/><path class="beast-crown-15-st-4" d="M61.6 486.9c-.4-1.5-2-2.7-3.6-2.6-.4-.9-.8-1.9-1.3-2.7-.9-1.7-2.5-2.8-4.4-2.9 1.8-.2 2.8-1.7 3-3.5.2-1.6-.2-3.1-1.1-4.4-.4-.6-2.4-2.2-2.3-2.9.3-1.5 1.2-2.6 1-4.2-.2-2.2-1.6-3.6-3.4-4.8l-.6-.3c.2-.3.4-.7.5-1.1.2-.5.3-1 .3-1.5 0-.3-.1-.6-.1-.9.1-.1.2-.2.2-.3 0 0 0-.1.1-.1.6 2.6 4.7 4 6.5 1.1.8-1.3 2.3-1.8 3.2-3 .9-1.3 1.6-3 1.4-4.6-.3-2.7-4.7-7.3-2.5-9.9 2.9-3.4-2.1-8.4-4.9-4.9-3.2 3.9-2.8 7.5-1.2 12.1.4 1.2.8 2.3 1.4 3.4-.1.1-.3.4-1 1-.8.6-1.4 1.2-1.9 2-.1-.6-.4-1.2-.9-1.7-1.3-1.3-3.6-1.3-4.9 0-1.3 1.3-2.4 2.7-2.9 4.5-.3 1-.1 2.2.6 3.1.1.3.2.6.4.9.5.7 1.2 1.3 2 1.5-.8 1.4-.9 3.4.6 4.7-.1.3-.3.6-.4.9-.1.2-.1.4-.2.6-.7-.6-1.7-.9-2.9-.6-5.1 1.2-6.3 6.4-4.2 10.3-3.3 2.3.1 7.8 3.9 5.8 2.1-1.1 3.5-2.5 4.3-4.8.5-1.5-.3-3.2-1.6-4-.5-.3-.3-.1-.7-.5v-.1h.2c.7-.2 1.3-.5 1.7-.9.4.7.8 1.4 1.4 2.1.9 1 1.2.9 1.1 1.8-.2 1.7 1.5 3.2 3.1 3.5-1.7.2-3.2 1.3-4.4 2.4-3.1 2.8 1 7.3 4.3 5.4.1.3.3.6.4.9 1.3 2.9 4.1 5.1 7.4 3.8 1.7-1 2.9-2.6 2.4-4.6zM43 485.7c-1.4-1.4-3.5-1.3-4.9 0-.1.1-.2.1-.2.2.5-3.1-3.3-6.1-5.8-3.2-2.8 3.3-3.6 8.7.1 11.6 3 2.3 5.7.8 8.1-1.2l.9 1.2c2.4 3.8 8.5.3 6-3.5-1.2-1.9-2.6-3.5-4.2-5.1zM73.6 489.5c-.6.1-.2 0-.7-.2.4.1-.7-.4-.8-.5-.9-.6-1.8-1.2-2.8-1.6-3.1-1-5.8.7-7.9 2.8-3.2 3.2 1.8 8.2 4.9 4.9.3-.3.6-.7 1-.9h.1c.4.2.8.5 1.2.8 2.1 1.4 4.4 1.8 6.9 1.4 1.9-.3 2.9-2.6 2.4-4.3-.6-2-2.4-2.7-4.3-2.4zM169 456.6c3.2-2.2 4.9-5.1 4.4-9-.3-2-2.5-5.1-.7-6.5 3.5-2.8-1.4-7.7-4.9-4.9-2.6 2-3.1 4.9-2.6 8 .4 2.1 2.5 4.8.3 6.4-3.7 2.5-.3 8.5 3.5 6zM170.4 474.9c.9.1 1.8-.2 2.6-.9.7-.6 1.4-1.2 2-1.9.6.7 1.3 1.3 2 1.9.8.7 1.7.9 2.6.9 3 .3 5.8-3.4 3-5.8-.7-.6-1.4-1.1-1.9-1.7.1-.5.2-1.3.2-1.3v-.4l.4-.4c2.4-3 2.9-6.9-1.3-8.7-.7-.3-1.4-.4-2.2-.4-1-.1-2 .2-2.8 1-.7-.8-1.7-1.1-2.8-1-.7-.1-1.4.1-2.2.4-4.1 1.8-3.7 5.7-1.3 8.7.2.3.3.4.4.4v.4s.1.8.2 1.3c-.6.6-1.3 1.2-1.9 1.7-2.8 2.3 0 6.1 3 5.8zM266.9 488.4c-4 0-4 7 0 7 5 0 5-7 0-7z"/><path class="beast-crown-15-st-4" d="M191.1 487c-.1 0-.4 0-.6-.1.7-.1 1.4-.3 2.1-.5 2.5-.8 5.7-3.3 6.2-6 .5-3-1.5-4.9-4-5.9-1.7-.7-4.1-.9-5.5-2.1-3.4-3-8.3 2-4.9 4.9 1.5 1.4 3.3 2 5.1 2.7-.7.2-1.4.2-2.2.4-4 1-5.3 4.1-4.8 8 .5 3.7 5.5 5.4 8.6 5.6 4.6.3 4.5-6.7 0-7zM199 458c1.2-1.2 1.5-3.8 0-4.9-2.9-2.3-7-2.7-10.1-.3-2.6 1.9-5.2 5.4-3.8 8.8 1.1 2.7 2.7 3.6 5.3 4.4-1.3 2.6 1.7 6.3 5 4.6 2.2-1.2 5.1-3.5 4.1-6.4-.8-2.3-2.8-3.4-5-4.2-.8-.3-1.6-.5-2.4-.8.2-.3.5-.5.8-.7.3-.2.7-.4 1.1-.4.4 0 .7.3.1-.1 1.4 1.2 3.4 1.5 4.9 0zM213.5 461.1c-1.3-1.7-3.2-4-5.7-3.7-2.1.2-3.7 1.2-4.8 3-1.8 2.8-2.6 6.6-2.6 9.8-.1 4.2 6 4.5 6.9.8.2 1.7.7 3.3 1.9 4.4 3.3 3.2 6.9-.4 8.7-3.1 1.9-2.9-1.1-5.6-3.8-5.1 0-1.9.4-4.7-.6-6.1z"/><path class="beast-crown-15-st-4" d="M212.7 485.6c3.8 2.5 7.3-3.5 3.5-6-3.2-2.2-7.8-4.8-10.8-.8-1.4 1.7-2.2 3.8-3.5 5.6-.1.2-.3.3-.4.4-.8-.1-1.6-.1-2.4 0-4.5.3-4.5 7.3 0 7 1.6-.1 3.2.3 4.8-.2 1.8-.6 3-2.1 4-3.7.7-1.1 1.3-2.7 2.2-3.9.9.4 1.8 1 2.6 1.6zM224.5 455.8c.3-1.9-.4-3.8-2.4-4.3-.7-.2-1.5-.1-2.2.1-.2-.4-.4-.8-.5-1.3-1.1-2.7-1.7-6.4-3.8-8.5-3.2-3.2-9.7-4.2-12.9-.2-4 5.1 0 9.6 5.2 11.3 2.1.7 3.7-.6 4.1-2.3.2.4.3.8.5 1.2 1 2.6 2.1 6.2 4.4 8.1 3.7 3 7-.2 7.6-4.1zM198.5 439.8c.7-.7 1.2-1.7 1.2-2.6 0-2.1-1.6-3.3-3.5-3.5-3.1-.4-7.1-.1-8.8 2.9-1.3 2.3-.8 5.1.7 7.1 1.3 1.8 3.2 3.7 5.5 4.2 3.1.6 5.9-1 6.6-4.2.3-1.5-.3-3.1-1.7-3.9zM203.3 429.8c-3.1 2.6.2 8.1 3.9 5.7 2.4-1.5 4.7-3.3 4.8-6.4.1-2.4-2.1-4.2-4.1-5-1.9-.8-4.3-1.1-6-2.2-.3-.2-.5-.5-.7-.8 3.8 1 6.8-4.5 2.9-6.2-2.9-1.3-5.9-1.5-8.3.9-2.1 2.2-2.1 5.6-1 8.2 1.3 2.8 3.9 4.4 6.8 5.4.7.1 1.2.3 1.7.4z"/><path class="beast-crown-15-st-4" d="M192 432.2c1.7.8 3.8.5 4.8-1.3.9-1.6.5-4-1.3-4.8-.4-.2-.7-.3-1.1-.5-1.1-1.3-3-1.7-4.5-.8-1.7 1-2.2 3.1-1.3 4.8.9 1.3 2.2 2 3.4 2.6zM236.6 456.2c3.9-2.2.5-8.1-3.4-6.1 0-.5-.1-1-.2-1.5-.2-1.9-.6-4-2.1-5.4-1.4-1.4-3.1-1.8-5-1.6 3.7-3.2 4.2-11-1.1-12.9-1.5-.5-3.1-.4-4.4.3.5-2.8 1-5.7.1-8.4-1.7-5-7.1-5.2-11.6-4.5-4.4.7-2.6 7.5 1.9 6.7 3.2-.5 3.6-.1 3.1 3.1-.4 2.6-1.2 5.5-.6 8.2.7 2.8 3.6 5.2 6.6 4.6-.2 1.8 1.5 3.7 3.5 3.8-2.1 1.9-.6 6.1 2.6 6.1 0 .2.1.3.1.5 0 .3.1.6.1 1 .1.9.2 1.9.4 2.8.3 1.7 1.3 3.6 3 4.3 2.4 1 4.7.3 7-1zM227.3 477.6s.1 0 0 0c.2-.1.3-.2.5-.2.4-.3.7-.6 1.1-.9.7-.5 1-1.5 1.7-2.1 1.4-1.4 1.5-3 .7-4.7.5 1.1-.1-1.1-.1-1.3-.1-.5-.2-1-.4-1.5 0-.1 0-.1-.1-.2 1.1-1.2 1.4-3.1-.1-4.6-1.7-1.6-3.4-2.4-5.7-1.4-1.9.8-2 3.3-1.7 5 .3 1.4.8 2.7 1.1 4.1v.4c0 .2.1.4.1.6-.1.1-.2.2-.2.3-.1.2-.2.3-.3.4-1.6.8-2.6 1.9-3.2 3.7-1.1 4.2 5.1 6.1 6.6 2.4zM240.2 473.8c.7-2 .7-4.2 1-6.2 0 .1.2-.9.2-1.1 0 0 0-.1.1-.2 1.5 0 2.9-.8 3.4-2.5s-.6-4-2.4-4.3c-3.7-.6-6.7 1.1-7.7 4.8-.7 2.6-.5 5.3-1.3 7.7-1.5 4.2 5.3 6.1 6.7 1.8z"/><path class="beast-crown-15-st-4" d="M243 440c1.5-1.2 1.3-3.8 0-4.9-1.6-1.5-3.5-2.7-5.4-3.9-3.9-2.3-7.4 3.7-3.5 6l1.5.9c-.9 1.8-1.2 3.8-.6 5.7 1.1 3.5 4 5.4 7.6 5.5 4.5.2 4.5-6.8 0-7-.7 0-.8-.1-.8-.3-.1-.9.4-1.4 1.2-2zM233.3 417.3c-.2-2.4-1.1-4.9-3.1-6.4s-4.7-1.1-7-.8c-1.9.3-2.9 2.6-2.4 4.3.6 2 2.4 2.7 4.3 2.4.3 0 .7-.1 1.1-.1.1.2.1.5.2.7 0 0 .1-.1.1-.4 0 .2-.1.4-.1.5v.3c-.2.9-.3 1.8-.4 2.7-.2 2 .4 4.2 2.2 5.3 2.3 1.3 4.8.3 6.8-1 3.1-2 1.3-6.5-1.6-6.6-.1-.3 0-.6-.1-.9zM226.3 417.5v0zM214.3 401.2c-2.3.8-3.9 2.8-5.5 4.5-.2-.3-.5-.6-.7-.8-.9-1.1-1.9-2.2-3.3-2.6-4-1.2-6.3 2.8-7.7 5.8-1.8 4.1 4.2 7.6 6 3.5.2-.4.3-.8.5-1.2l.1.1c1.4 1.4 3.4 2.8 5.5 2.5 2.1-.2 3.2-1 4.5-2.5.3-.3.6-.7.9-1 2 1.9 6.1 1.1 6-2.4-.1-3.4-2.1-7.4-6.3-5.9z"/><path class="beast-crown-15-st-4" d="M177.4 400.3c0 .4-.1.7-.2 1.1-.2 1.1-.5 2.2-.7 3.4-.4 2.5-.3 5.1 1.2 7.2 1.6 2.2 4.3 1.8 5.8.4-.3 2.1 1 4.3 2.8 5.7 3.3 2.7 8-1.7 5.3-4.6l2.4-.9c2.2-.8 3.1-3 2.1-5.1-.5-1-1.2-2-1.7-3-.4-.8-.9-1.7-.1-1.2 3.9 2.3 7.4-3.8 3.5-6-3.7-2.2-7.7-1.3-9.8 2.4-1.6 2.8-1 5.3.2 7.7-1.4.7-2.7 1.5-3.7 2.8 0 0 0 .1-.1.1 0-.6-.2-1.1-.6-1.7-1.3-1.8.1-4.8.4-6.8.4-2.9-.1-5.5-2.7-7.2-3.6-2.2-6.9 3-4.1 5.6v.1zM206.6 391.9c-.5-.8-1-1.9-1.8-2.5-2.4-2.1-5-1.9-7.8-.5-3.9 2-.6 7.8 3.3 6.2.2.4.5.8.7 1.2 1.1 1.6 2.3 2.6 4.2 3.4 1.4.5 3-.2 4.2-1 1.5 3 6.9 2.6 6.6-1.4-.2-2.7-1-6-4.2-6.5-2-.4-3.5.4-5.1 1.4-.1-.2-.1-.3-.1-.3z"/><path class="beast-crown-15-st-4" d="M185.2 390.8c.7 1 2 1.6 3.5 1.1 2.7-.8 4.2-2.9 5.3-5.5l.3-.9c1.7 1.6 4 1.4 5.5-.6.6-.8 2.1 1 2.5 1.4 3.1 3.3 8.1-1.7 4.9-4.9-3-3.1-6.8-4.4-10.1-2.8-2.1-1.8-4.8-2.9-6.9-.2-1.1 1.3-1.7 2.7-2.2 4.3-.2.4-.7 2.4-1.1 2.6-.9.3-1.5.8-1.9 1.4.1-1.6 1.9-3.8 2.3-5 1.1-3 0-5.5-2.4-7.3-1.5-1.2-3.9-.2-4.8 1.3-.8 1.4-.5 2.9.5 4-.1.3-.3.7-.3.6-.6 1.1-1.2 2.3-1.7 3.5-1 2.5-.9 5.1.5 7.4 1.5 2.5 4.9 1.6 6.1-.4zM216.7 389.6c.2 1.4 1.1 2.4 2.5 3 1.7.7 3.3.7 4.9.3l.3.9c.9 3.4 5.1 3 6.4.7.8 1.7 2.7 2.7 4.7 1.4 0 0 .7-.1.4.3-.6 1-1.3 1.8-1.7 2.9-.7 1.9-.1 3.6 1 4.9-.1.4-.2.8-.2 1.3-.8 4.4 6 6.3 6.7 1.9.1-.5.2-1 .2-1.5v-.1c1.4-1.6.9-3.7-.5-5 .3-.4.5-.8.7-1.2 1-1.9 1-4.2 0-6.1-1.9-3.8-6.5-5.8-10.2-3.3-.5.3-.9.8-1.1 1.2-.5-1.6-1.3-3.1-2.1-4.6-1.1-2.1-3.7-2.1-5.3-.8-.5-2-1.7-3.8-3.7-4.8-3.7-1.9-7.1.8-7.7 4.5-.4 2.8 2.5 4.6 4.7 4.1z"/><path class="beast-crown-15-st-4" d="M228 399.7c0-.1-.1-.2-.1-.4-.8-2.7-2.8-4.8-5.8-4.7-1.9.1-3.5 1.5-3.5 3.5 0 1.5 1.1 3 2.6 3.4.1.6.3 1.1.5 1.6 1.3 3.2 4.3 4.5 7.6 3.3 1.8-.6 3-2.4 2.4-4.3-.3-1.4-2-2.7-3.7-2.4zM244.5 411.4c-.2.1-.4.2-.7.3-1.2.4-2.4.6-3.6.9-2.1.4-3.4 3.4-2.1 5.1.5.6.9 1.2 1.5 1.7 1.9 1.5 4.3.7 5.4-.7 1.8-.5 3.6-1.2 4.8-2.5 1.4-1.6 1.9-3.3 1.7-5 1.9-1 3.3-2.6 3.1-5.1-.1-1.4-.6-2.7-1.3-3.9 1.5-2.2.6-5.7-2.7-5.4-3.3.3-6.2 2.7-4.7 6.3.3.8.8 1.6 1.2 2.4-.4.1-.9.1-1.1.1-2.2.4-3.2 3.4-2.1 5.1.4.3.6.5.6.7z"/><path class="beast-crown-15-st-4" d="M252.9 433.3c-.5-.3-.9-.7-1.3-1.1-1.3-1.2-2.6-2.1-4.3-2.8-.1 0-.2-.1-.4-.1 1.3 0 2.6-.4 3.6-1.2 3.2-2.5 5.7-7.1 2.3-10.5-2.9-3-7.3 1-5.6 4.1 0 0 0 .1-.1.1-.2.2-.8.4-.6.5-1 0-1.5-.5-2.6-.9-3.2-1.1-5.6.7-7.4 3.2-2.6 3.6 3.2 7 5.9 3.7.6.3 1.3.6 1.9.7.3.1.7.1 1 .2-2.9.6-3.6 5.6-.1 6.9 1 .4 1.9 1.7 2.8 2.4 1.3 1 2.9 1.9 4.7 1.7 1.7-.2 3.2-.7 4.5-1.8.4-.4.8-.7 1.1-1.1l.1-.1c2.9-.7 3.7-5.7 0-6.8-1.5-.5-3.1 0-4.2 1-.2.6-.9 1.7-1.3 1.9z"/><path class="beast-crown-15-st-4" d="M255.2 443c-.8-.5-1.3-.8-2-1.6-1.9-2.1-5-.8-5.8 1.5-.6 1.7-1 3.5-1.3 5.3-.3 1.5.2 2.9 1.3 3.8-.7.3-1.4.8-2.1 1.4-1.5 1.2-1.3 3.7 0 4.9 1.3 1.3 3.1 1.3 4.5.4.4.4.9.9 1.3 1.4 1.7 1.7 3.8 3 6.4 3 4.5-.1 4.5-7.1 0-7h-.3s-.1-.1-.3-.1c-.2-.2-.4-.3-.9-.8-.7-.7-1.4-1.5-2.1-2.1-.7-.5-1.4-.9-2.1-1.2.5-.4.9-1 1-1.7 0-.2.1-.4.1-.6 3.4 1.3 7.1.7 8.5-3.7 1.4-4-4.1-5.9-6.2-2.9zM258.3 474.2c0-2-.2-4.8-1.9-6.2-1.5-1.3-3.4-1.8-5.3-1.1-1.7.6-3 1.7-4.4 2.8-.4.3.2-.2-.5.4-.2.2-.4.3-.7.5-.1.1-.3.2-.5.2-1.4.2-2.5 1-3 2.5-.5 1.7.6 4 2.4 4.3 1.5.3 3 0 4.3-.9.5-.3.9-.6 1.4-1l1.2-.9c.8 3.9 7.1 3.7 7-.6zM239.1 480.3c-.9.4-1.9.9-2.8 1.2-.6.2-1.2.5-1.7.8-.4-.2-1.3-1.1-1.7-1.3-1.4-.6-2.6-.6-4-.1-4.1 1.2-2.6 7.4 1.2 6.9.2.2.5.5.8.6.8.6 1.9 1 2.9 1 1.5 0 2.9-.1 4.2-.9 1.1-.7 2.3-1.1 3.5-1.6.2.4.4.9.6 1.3 1.6 4.2 8.4 2.4 6.7-1.9-1.7-4.7-4.3-8.5-9.7-6z"/><path class="beast-crown-15-st-4" d="M228.9 489.8c-.4.1-1.9-3.5-2.4-4.4-1.1-1.9-3.9-2.3-5.5-.7-3.2 3.3-8.4 2.3-11.7 6-3 3.4 2 8.3 4.9 4.9 1.6-1.8 3.6-1.6 5.7-2.3.9-.3 1.6-.6 2.4-1 1.8 3 3.9 5.2 8.4 4.2 4.4-1 2.6-7.7-1.8-6.7zM264.4 487.9c4.3-1.4 2.4-8.2-1.9-6.7-2.2.7-4.4 1.4-6.7 2-2.7.8-3.3 3.9-1.5 5.8.3.3.7.7 1 1.1l-1.8.3c-1.9.3-2.9 2.6-2.4 4.3.5 2 2.4 2.8 4.3 2.4 3-.6 7.2-1.2 8.1-4.7.4-1.5 0-2.9-.8-4.1.6-.1 1.2-.2 1.7-.4zM273.2 468c2.1-5 .5-10.7-3.9-13.8-3.7-2.6-7.2 3.5-3.5 6 1.4 1 1.8 3.3 1.1 4.9-.1 0-.3.1-.5.1-.5.1-1.1.3-1.6.5-4.4 1.7-4.1 5.9-2.3 9.6 2 4 7.9.6 6.1-3.4.3-.1.5-.1.8-.2 1.8-.6 3-1.9 3.8-3.7zM269.4 449.2c1.9-.3 2.9-2.6 2.4-4.3 1.2-.8 2.3-1.7 2.8-3 1.7-4.1-.8-6.8-4.1-9.1-3.7-2.6-7.2 3.5-3.5 6 .1.1.3.2.5.4-1.5 1.1-3 2.1-4.3 3.5-1.2 1.3-1.5 3.7 0 4.9 2.1 1.7 3.7 2 6.2 1.6zM284.2 455.8c-1.4-2.6-.9-3.1.7-5.5 1.1-1.6 2.3-3.1 3.2-4.8 1.9-3.7.6-7.2-2.8-9.3-3.9-2.4-7.4 3.7-3.5 6 .2.1-4.2 6.5-4.8 7.7-1.6 3.3-.4 6.4 1.2 9.4 2.1 4 8.1.4 6-3.5z"/><path class="beast-crown-15-st-4" d="M275.5 473.6c3.6.7 6.7 4.1 10.1.6 1.2-1.3 2.3-2.9 3-4.6 1.2.6 2.7.6 4-.6 5-4.7-5.4-13.8-9-6.6-.9 1.8-.9 4.2-2.1 5.9l-.6-.3c-1.1-.5-2.2-1-3.5-1.2-4.4-.8-6.3 6-1.9 6.8zM276.4 484.3c.2.2.4.4.7.6 1.4 1 3.4 1.6 5.1 1.9 3 .6 5.2-.4 6.5-2.4 2.6-.1 4.8-3.5 2.5-6-.8-.9-1.6-1.4-2.7-1.9-1.8-.8-4.8-.3-5.1 2.1 0 .4-.1.8-.2 1.2-.1 0-.2-.1-.2-.1-.6-.2-2-1-1.6-.3-.2-.4-.6-.8-.9-1.2-2.4-3.1-7.9 0-10.2 1.6-3.7 2.5-.2 8.6 3.5 6 .9-.4 1.7-1.1 2.6-1.5z"/><path class="beast-crown-15-st-4" d="M303 481.1c-1.2-1.1-2.7-2.2-4.4-2.4 1.6-.2 3.3-1.7 3.1-3.5-.1-.9.3-.8 1.1-1.8.6-.7 1-1.3 1.4-2.1.4.4.9.8 1.7.9h.2v.1c-.4.4-.1.2-.7.5-1.3.7-2.1 2.5-1.6 4 .7 2.2 2.2 3.7 4.3 4.8 3.8 2 7.2-3.5 3.9-5.8 2.1-3.8.9-9.1-4.2-10.3-1.2-.3-2.2 0-2.9.6-.1-.2-.1-.4-.2-.6-.1-.3-.3-.6-.4-.9 1.5-1.3 1.4-3.3.6-4.7.8-.3 1.5-.8 2-1.5.2-.3.3-.6.4-.9.6-.9.9-2.1.6-3.1-.5-1.8-1.6-3.2-2.9-4.5-1.3-1.3-3.6-1.3-4.9 0-.5.5-.8 1.1-.9 1.7-.5-.8-1.1-1.4-1.9-2-.7-.5-.9-.8-1-1 .6-1 .9-2.1 1.4-3.4 1.6-4.5 2-8.2-1.2-12.1-2.9-3.5-7.8 1.5-4.9 4.9 2.2 2.7-2.2 7.2-2.5 9.9-.2 1.6.4 3.4 1.4 4.6.9 1.2 2.5 1.8 3.2 3 1.8 3 5.8 1.5 6.5-1.1 0 0 0 .1.1.1.1.1.2.2.2.3-.1.3-.1.6-.1.9 0 .5.1 1 .3 1.5.1.4.3.8.5 1.1l-.6.3c-1.7 1.2-3.2 2.6-3.4 4.8-.1 1.6.7 2.7 1 4.2.1.7-1.9 2.2-2.3 2.9-.9 1.3-1.3 2.8-1.1 4.4.2 1.7 1.2 3.2 3 3.5-1.9.2-3.4 1.3-4.4 2.9-.5.9-.8 1.8-1.3 2.7-1.6-.1-3.2 1.1-3.6 2.6-.5 2 .7 3.6 2.4 4.3 3.3 1.3 6.1-.9 7.4-3.8.1-.3.3-.6.4-.9 3.2 2.2 7.4-2.3 4.3-5.1zM318 482.7c-2.5-2.9-6.3.2-5.8 3.2l-.2-.2c-1.4-1.3-3.5-1.4-4.9 0-1.6 1.6-3 3.2-4.2 5-2.4 3.8 3.6 7.3 6 3.5l.9-1.2c2.4 2 5.1 3.5 8.1 1.2 3.7-2.8 2.9-8.2.1-11.5zM280.7 487.3c-1.1.4-1.9 1-2.8 1.6-.1.1-1.1.6-.8.5-.5.1-.1.3-.7.2-1.9-.3-3.8.4-4.3 2.4-.5 1.7.6 4 2.4 4.3 2.5.4 4.7.1 6.9-1.4.4-.3.8-.5 1.2-.8h.1c.4.3.7.6 1 .9 3.2 3.2 8.1-1.7 4.9-4.9-2.1-2.2-4.8-3.9-7.9-2.8zM171.8 416.7c-.7-.1-1.4.1-2.1.5-2.6 1.5-3 4.3-2.1 7 .2.5.3.9.5 1.4.1.3.4 1.6.4 1.3v.5c-.3.3-1 .6-1.4.8-1.7.8-2.1 3.3-1.3 4.8.7 1.3 2 1.7 3.2 1.6.7.1 1.5-.1 2.2-.4 1.6-.7 2.9-1.8 3.7-3.1.9 1.3 2.2 2.4 3.7 3.1.7.3 1.5.5 2.2.4 1.3.1 2.5-.4 3.2-1.6.9-1.5.5-4-1.3-4.8-.4-.2-1.1-.5-1.4-.8 0-.1-.1-.3 0-.5 0 .3.3-1 .4-1.3.2-.5.3-.9.5-1.4.9-2.7.5-5.4-2.1-7-.7-.4-1.4-.6-2.1-.5-1.3-.1-2.5.6-3.2 1.7-.5-1.1-1.6-1.9-3-1.7zM184.6 450.5c-2.3-1.6-.1-4.3.3-6.4.6-3.1 0-6-2.6-8-3.5-2.8-8.5 2.2-4.9 4.9 1.8 1.4-.4 4.5-.7 6.5-.6 3.9 1.2 6.8 4.4 9 3.7 2.6 7.1-3.4 3.5-6zM180.2 489.2c-1.8-1.2-.6-2.2.1-4.1.9-2.4.9-4.8-.5-7-.8-1.3-2-1.7-3.2-1.6-.6 0-1.1 0-1.6.2-.5-.2-1.1-.3-1.6-.2-1.2-.1-2.4.3-3.2 1.6-1.4 2.2-1.4 4.6-.5 7 .7 1.9 1.9 2.8.1 4.1-3.1 2.2-1 7 2 6.6.7.1 1.4-.1 2.2-.6.4-.3.7-.6 1.1-.8.3.3.7.6 1.1.8.7.5 1.5.7 2.2.6 2.9.4 5-4.4 1.8-6.6z"/></svg>