<svg xmlns="http://www.w3.org/2000/svg" width="480" height="210" viewBox="0 0 480 210"><defs><path id="a" d="M113.667 89.668h253.875v119.166H113.667z"/></defs><path clip-path="url(#b)" fill="#D72251" d="M251.417 143.71l5.125-6.876-6.25-14.75 18.875-6.75.59-5.843-.84-2.78s6 2.124 7 5.874l11.375 4s4.25-.5 6.75 2.625 5.5 6.5 3.75 11.374c0 0 7.5.375 8.375 3.375.375 0 6 1.124 6 1.124s8-1.375 11.25 3.5c0 0 16.5 5.125 19.25 6.75l2.75 12-22.625 12.125-15.75-9.876s-33.625 5-41.25 7c0 0-12.75-15.125-14.375-22.875"/><path clip-path="url(#beast-crown-9-id-2)" fill="#D72251" d="M155.926 138.208c-6.69 5.51-18.194 16.248-16.832 21.21 1.724 6.277 8.272 9.275 17.125 5.89 8.852-3.385 14.32-18.226 18.485-20.568 4.166-2.345 15.352-10.153 10.415-18.487-1.562-2.64-15.915 1.02-29.194 11.955M172.37 168.855c-3.062 4.59-3.99 11.87-3.653 12.075 4.43 2.714 11.717.78 14.32-6.51 2.604-7.29 4.704-10.916.034-13.35-2.22-1.155-7.056 2.318-10.7 7.785"/><path clip-path="url(#beast-crown-9-id-2)" fill="#F0A733" d="M138.56 158.993s-2.227-7.055 3.565-13.812c5.793-6.757 19.68-17.6 24.358-19.603 4.68-2.006 13.144-5.644 18.12.742 0 0-6.238-1.71-14.704 2.078-8.467 3.787-19.83 13.293-22.948 16.857s-8.39 13.738-8.39 13.738M168.19 180.157s-1.707-3.268-.89-6.312c.817-3.045 5.718-12.18 8.837-14.034 3.12-1.856 5.792-2.004 8.17-.668 2.375 1.337 1.78 3.786 1.78 3.786s-4.306-3.49-6.46-2.078c-2.153 1.41-6.46 5.272-8.02 10.1s-3.416 9.207-3.416 9.207M250.547 121.937l18.745-6.602.25-5.835-21.148 8.427zM266.364 103.074l29.928 6.906 3.49 12.848 40.62 11.88 2.377 10.027-19.363-6.15s-3.395-5.95-11.25-3.5l-14.242-4.163s1.633-7.203-2.08-10.842c-3.71-3.64-8.836-3.64-8.836-3.64l-10.843-3.86s-3.49-5.644-7.65-6.016l-2.153-3.49z"/><path clip-path="url(#beast-crown-9-id-2)" fill="#0C3846" d="M216.29 207.365c-.458-.008-.976.024-1.564-.016l-1.94-.134-2.282-.223c-1.63-.173-3.462-.41-5.467-.66-4.016-.52-8.702-1.125-13.722-1.773-2.518-.312-5.122-.65-7.78-.928-2.667-.263-5.35-.53-8.11-.684-1.38-.11-2.714-.116-4.066-.156l-2.107.046c-.68.044-1.36.088-2.034.13-2.69.216-5.31.488-7.833.833-5.047.667-9.735 1.368-13.738 2.07-4 .723-7.312 1.444-9.618 2.016-2.307.564-3.614.947-3.614.947s1.36-.06 3.727-.234c2.368-.17 5.736-.486 9.766-.93 4.026-.46 8.714-1.063 13.74-1.55 2.515-.248 5.11-.48 7.732-.644l1.967-.09c.64-.004 1.28-.008 1.924-.01 1.34.068 2.71.093 4.026.186 2.644.14 5.344.397 7.975.648l7.762.77c2.52.257 4.958.532 7.278.736 2.318.214 4.518.384 6.555.48 2.035.118 3.912.13 5.574.126l2.33-.08c.722-.07 1.383-.136 1.98-.193.595-.063 1.126-.186 1.584-.256l.633-.115c.19-.063.364-.117.518-.166l.93-.307s-.338.033-.972.098c-.312.04-.695.076-1.155.06m127.623-.932c-.897-.022-2.21-.1-3.88-.194-3.34-.214-8.102-.583-13.81-1.026-2.857-.237-5.953-.493-9.227-.766l-10.312-.735c-3.57-.273-7.254-.586-10.982-.978-3.73-.368-7.513-.804-11.256-1.385a97.09 97.09 0 0 1-5.553-1.014c-1.785-.358-3.623-.887-5.466-1.363-3.782-1.02-7.692-1.28-11.39-1.005-3.703.295-7.17 1.13-10.36 2.005-1.582.442-3.122.87-4.61 1.287-.73.204-1.465.393-2.19.574-.708.188-1.396.303-2.073.45-2.743.457-5.335.57-7.633.616-2.298.05-4.317.007-5.984-.025l-5.268-.166s1.828.657 5.16 1.246c1.664.297 3.703.564 6.067.69 2.363.108 5.054.077 7.987-.353.727-.14 1.49-.25 2.232-.43.725-.16 1.47-.334 2.233-.527l4.65-1.176c3.167-.798 6.503-1.477 9.964-1.71 3.458-.198 7.042.095 10.532 1.093 1.8.487 3.6 1.058 5.55 1.46 1.92.415 3.813.753 5.728 1.053 7.64 1.193 15.303 1.813 22.482 2.257 3.582.21 7.05.41 10.334.603 3.265.166 6.4.365 9.277.406 5.758.142 10.563.01 13.924-.24a53.92 53.92 0 0 0 3.89-.396c.894-.134 1.364-.227 1.364-.227s-.48.004-1.377-.027m-110.98-16.954c1.525-.265 3.09-.61 4.682-.94 1.594-.316 3.2-.705 4.812-1.07 1.615-.382 3.19-.714 4.773-1.018a88.495 88.495 0 0 1 4.646-.743 48.984 48.984 0 0 1 4.37-.354c1.39-.015 2.712-.043 3.923.068 1.214.075 2.317.257 3.288.455.972.193 1.82.406 2.494.646.69.21 1.205.438 1.566.582l.553.225-.503-.316c-.328-.21-.812-.52-1.475-.83-.646-.344-1.472-.686-2.438-1.03a23.79 23.79 0 0 0-3.338-.857c-2.486-.51-5.457-.62-8.604-.478a61.228 61.228 0 0 0-4.83.43c-1.63.214-3.31.442-4.924.76-1.625.303-3.254.582-4.846.922-1.592.328-3.164.63-4.67.992-3.02.683-5.84 1.332-8.23 2.022-4.79 1.318-7.893 2.636-7.893 2.636s3.366-.02 8.283-.704c2.47-.312 5.314-.83 8.36-1.4m110.982-43.693l-1.528-5.73-.813-2.862c-.257-.946-.61-1.933-.908-2.9l-.14-.452-.538-.162-9.865-2.977c-1.64-.506-3.295-.97-4.943-1.45a68.043 68.043 0 0 0-4.984-1.3c-1.677-.383-3.357-.752-5.006-1.228l-4.96-1.39-9.32-2.61a81.863 81.863 0 0 0-.544-3.06 63.415 63.415 0 0 0-.847-3.657c-.325-1.215-.688-2.425-1.15-3.623-.477-1.195-.98-2.396-1.944-3.524l-.195-.228-.312-.07-14.836-3.25-14.543-3.268a80.185 80.185 0 0 0-2.542-3.355 121.698 121.698 0 0 0-3.934-4.63 100.908 100.908 0 0 0-4.186-4.393c2.233 3.373 4.49 6.708 6.682 10.062 1.102 1.673 2.148 3.374 3.197 5.054l.773 1.265.742 1.266.7 1.268.18.355a316.478 316.478 0 0 0-4.38 1.576 236.63 236.63 0 0 0-5.43 2.022c-1.803.698-3.598 1.424-5.38 2.214-.892.396-1.777.812-2.66 1.272-.44.23-3.51 1.934-3.51 1.934l.686 1.013c.75 1.492 1.46 3.018 2.142 4.55l2.057 4.58c.336.765.68 1.525 1.066 2.264.39.738.79 1.473 1.147 2.222.354.75.642 1.525.905 2.295.22.642.404 1.29.52 1.89l-4.89 6.653-.37.506.3.538a264.2 264.2 0 0 0 6.903 11.718c1.206 1.92 2.436 3.83 3.717 5.715a84.47 84.47 0 0 0 1.985 2.797l.973 1.262c-.378.074-.756.145-1.132.228-1.324.286-2.64.608-3.96.926-2.636.642-5.278 1.252-7.9 1.952a242.79 242.79 0 0 0-7.862 2.14c2.7-.316 5.39-.68 8.075-1.068 2.69-.362 5.363-.81 8.044-1.215 1.34-.206 2.682-.408 4.014-.642 1.335-.233 2.66-.51 3.99-.78 2.646-.57 5.304-1.094 7.964-1.605 2.658-.514 5.316-1.03 7.98-1.51 2.665-.482 5.326-.978 8-1.403 2.67-.438 5.34-.862 8.012-1.25 1.336-.192 2.668-.385 4-.536.663-.067 1.332-.146 1.982-.19.33-.03.652-.052.96-.06.226-.017.397-.012.562-.006a414.42 414.42 0 0 0 7.04 4.22c1.24.703 2.47 1.422 3.72 2.11l3.755 2.047 7.522 4.078a205.988 205.988 0 0 0 7.598 3.94c-1.2-.775-2.39-1.55-3.568-2.357l-3.553-2.378-4.307-2.896 10.146-5.17 5.718-2.988 2.852-1.53 1.422-.79c.476-.28.947-.547 1.47-.906l.555-.38-.17-.677a838.388 838.388 0 0 0-2.945-11.476m-44.463-20.084l.943-1.086 9.294 2.63 4.956 1.403c1.655.455 3.28 1.017 4.91 1.565a67.933 67.933 0 0 0 4.933 1.49c1.655.45 3.308.918 4.972 1.342l9.46 2.474c.26.737.53 1.46.74 2.247l.818 2.82c.265.963.53 1.925.794 2.89-4.912-1.993-13.718-4.84-17.596-6.07-.145-.21-.277-.423-.44-.624-.264-.353-.64-.67-.967-1.003-.34-.323-.65-.515-.977-.778a9.605 9.605 0 0 0-2.5-1.203c-.432-.145-.885-.204-1.325-.293a19.24 19.24 0 0 0-1.32-.074c-.43.037-.858.04-1.265.112-.4.09-.805.14-1.172.263-.304.087-.59.187-.87.29-4.985-1.503-6.514-1.93-7.02-2.048l-.052-.04c-.28-.226-.617-.378-.927-.562a5.05 5.05 0 0 0-.976-.463c-.34-.12-.668-.277-1.016-.36l-1.044-.248c-.7-.1-1.405-.19-2.103-.17-.148-.004-.296.002-.443.01.37-1.5.427-3.023.195-4.514m10.774 9.697c-.416.275-.766.536-1.06.765-.15-.325-.272-.65-.458-.972-.065-.1-.133-.2-.198-.302l1.716.51m-13.657-22.323c.423 1.103.767 2.258 1.073 3.426a67.44 67.44 0 0 1 1.352 6.68l-.164.187a12.267 12.267 0 0 0-.734-1.608c-1.304-2.333-3.324-4.165-5.636-5.19l3.304-5.273c.3.553.57 1.163.805 1.777m-15.897-5.93l13.46 2.985-3.628 5.79c-.09-.02-.176-.05-.266-.07a10.73 10.73 0 0 0-1.696-.19l.03-.057c-3.73-1.864-9.946-3.623-11.91-4.157-1.634-3.65-5.41-5.587-8.034-6.247-.15-.255-.305-.508-.463-.76l12.506 2.708zm-3.34 6.566c1.836.524 4.78 1.413 7.404 2.418a15.278 15.278 0 0 0-3.8 1.686c-.32-.218-.633-.41-.946-.608-.497-.335-1.058-.51-1.583-.762a7.418 7.418 0 0 0-.98-.295c.068-.87.027-1.68-.094-2.437m-26.465 7.265l-1.216-2.25c.128-.09.26-.18.392-.265.375-.235.773-.463 1.186-.68.82-.433 1.674-.84 2.54-1.23 1.73-.78 3.498-1.505 5.278-2.206 3.18-1.26 6.412-2.416 9.66-3.502l-.353 3.766-17.487 6.368zm47.93 38.504c-2.68.46-5.35.956-8.016 1.464l-15.99 2.997c-2.664.5-5.328 1.006-8 1.467l-.625.117-.617-.712-1.028-1.303a83.364 83.364 0 0 1-1.968-2.703 109.318 109.318 0 0 1-3.69-5.626c-.49-.79-.958-1.6-1.442-2.396.138-.354.29-.714.467-1.057.257-.496.545-.977.87-1.427.326-.45.682-.872 1.072-1.253a8.448 8.448 0 0 1 1.26-1.013l.695-.398.736-.304c.243-.11.514-.14.77-.217.252-.08.52-.118.79-.138.53-.09 1.077-.06 1.626-.037l.204.006c-.037-.01.12.02.17.024l.45.07c.286.053.632.073.872.154.508.136 1.02.266 1.527.495.262.09.505.21.738.35.237.136.493.24.702.41.217.162.45.305.654.48l.6.542c.36.398.71.81.996 1.267.576.91.965 1.944 1.138 3.01a7.46 7.46 0 0 1 .09 1.606 6.99 6.99 0 0 1-.263 1.55l-.986 3.636 2.687-2.668c.164-.12.403-.317.62-.453a5.71 5.71 0 0 1 .68-.383c.454-.216.903-.353 1.33-.355.212.008.426.02.642.08l.297.097.438.208c.225.126.46.253.73.43l.8.522c.546.354 1.124.722 1.75 1.03.31.156.652.274.985.393.354.09.697.184 1.064.2.355.05.728.003 1.074-.046.353-.067.687-.176.993-.336.324-.12.585-.35.866-.523.265-.2.495-.44.735-.656-.296.143-.58.295-.87.423-.305.093-.586.242-.895.27-.15.025-.3.063-.447.074l-.443.01c-.29-.022-.578-.04-.852-.14-.275-.068-.535-.205-.793-.326-.252-.157-.5-.3-.738-.49-.483-.35-.94-.76-1.416-1.195l-.74-.653a11.97 11.97 0 0 0-.857-.674l-.405-.27c-.23-.133-.39-.19-.592-.286a4.224 4.224 0 0 0-1.25-.287 4.54 4.54 0 0 0-1.264.113c-.312.08-.605.188-.885.315 0-.515-.027-1.027-.11-1.53a10.03 10.03 0 0 0-1.013-3.034c.93-1.19 3.786-4.218 8.435-3.58 2.978.41 4.152 2.102 5.29 3.737 1.046 1.51 2.23 3.225 4.75 3.148 1.823-.053 4.312.2 5.78 1.718.863.89 1.284 2.186 1.31 3.812l-1.488.244zm45.203-2.025l-1.395.768-2.83 1.504-5.716 2.943-11.246 5.65-.737-.496-3.54-2.394c-1.185-.795-2.388-1.556-3.577-2.338-2.407-1.522-4.814-3.044-7.246-4.523l-.287-.175-.253-.008a9.01 9.01 0 0 0-1.218.03c-.37.027-.724.065-1.064.112-.698.08-1.372.19-2.055.29l-.54.088c-.08-2.02-.706-3.66-1.88-4.875-1.564-1.616-4.075-2.416-7.28-2.326-1.36.035-1.985-.76-3.05-2.29-1.252-1.805-2.81-4.05-6.66-4.577-5.08-.7-8.39 2.155-9.858 3.828-.17-.2-.34-.4-.518-.595l-.752-.685c-.26-.217-.547-.4-.818-.6-.27-.21-.578-.346-.87-.513a5.67 5.67 0 0 0-.91-.43c-.603-.27-1.27-.45-1.94-.616-.342-.097-.612-.105-.924-.163l-.45-.07c-.1-.012-.093-.02-.282-.036l-.25-.01c-.67-.03-1.34-.06-2.016.048a4.673 4.673 0 0 0-1.004.174c-.328.095-.67.144-.984.28l-.95.393-.89.508c-.564.378-1.102.794-1.58 1.27-.478.467-.91.978-1.297 1.515-.36.5-.676 1.027-.963 1.568a276.264 276.264 0 0 1-3.803-6.635l4.805-6.48.24-.325-.054-.383c-.138-.986-.4-1.81-.676-2.643l-.87-2.434-.816-2.432c-.287-.805-.642-1.577-1.01-2.343a88.67 88.67 0 0 0-2.162-4.275l18.403-6.7.546-5.85.072-.02-.365-1.026c-.16-.455-.32-.926-.51-1.367 2.362 1.046 5.776 3.387 5.472 8.09-.133-.005-.266-.02-.396-.015-1.103.027-2.162.184-3.08.53-.94.286-1.74.742-2.456 1.158-.696.455-1.3.906-1.787 1.356-.49.445-.883.865-1.19 1.224-.607.722-.868 1.195-.868 1.195s.454-.288 1.25-.732c.398-.223.888-.476 1.442-.753.284-.128.586-.263.893-.412l1-.394a14.505 14.505 0 0 1 2.256-.64l.606-.113c.207-.017.414-.025.623-.05.413-.07.835-.024 1.26-.024.428.01.847.123 1.275.176.41.142.847.21 1.253.39.397.193.842.322 1.217.56.446.25.948.498 1.295.758a11.7 11.7 0 0 1 1.138.82c.392.28.726.616 1.07.94.352.318.624.7.947 1.035.26.38.568.73.787 1.123.478.767.858 1.563 1.127 2.357.15.393.223.795.344 1.177.075.39.145.77.197 1.14.02.37.065.73.063 1.07l-.034.977c-.055.614-.128 1.156-.243 1.593-.08.447-.222.774-.282 1.015l-.11.362.202-.318c.125-.213.35-.51.526-.94.216-.42.416-.95.618-1.583.17-.64.298-1.378.356-2.202.014-.41.01-.844 0-1.292-.053-.442-.064-.915-.18-1.38a11.455 11.455 0 0 0-.957-2.865c-.212-.486-.518-.93-.782-1.406-.322-.434-.62-.907-.994-1.316-.37-.416-.735-.844-1.16-1.212-.014-.014-.03-.026-.045-.04 1.547-.843 4.26-1.932 7.217-1.34 2.647.53 5.078 2.37 6.504 4.922 1.36 2.435 1.605 5.2.725 7.826-.47.12-.937.252-1.383.433-.628.244-1.23.54-1.805.883-.568.35-1.12.73-1.594 1.206a53.26 53.26 0 0 1 3.768-.687c.617-.063 1.22-.157 1.823-.167.3-.035.6-.03.896-.032.297-.013.592 0 .883.03.59.008 1.157.122 1.72.228l.82.24c.273.077.52.224.78.328.264.1.506.24.738.4.23.162.49.273.704.46l.648.54.143.117.033.036.08.09.317.36c.5.5.673.93.954 1.35.21.494.5.98.618 1.538.185.53.26 1.102.35 1.67.038.58.117 1.156.083 1.752.012.59-.064 1.188-.113 1.786-.078.598-.16 1.197-.287 1.795-.12.598-.27 1.19-.44 1.78-.173.577-.35 1.196-.552 1.722l-.973 2.51 2.3-1.188h.003c.433-.165.95-.324 1.432-.465.492-.13.986-.25 1.48-.316.492-.075.98-.123 1.45-.125.476-.01.925.052 1.347.147.207.06.394.142.592.206.163.112.353.188.506.31.132.146.313.232.43.398.104.15.294.332.343.45.11.228.298.514.346.695.054.2.146.348.19.588.12.45.2.928.235 1.43.084 1.01.005 2.078.066 3.26.06.598.072 1.24.45 1.935.352.692 1.143 1.193 1.808 1.266.663.102 1.293.03 1.812-.037a13.227 13.227 0 0 0 1.666-.266c.28-.046.555-.125.825-.214.27-.083.54-.16.802-.28.52-.198 1.05-.474 1.423-.89-.478.278-1.006.402-1.54.478-.527.084-1.072.107-1.6.114-.526.013-1.056 0-1.614-.037-.577-.012-1.056-.062-1.464-.185-.425-.123-.597-.34-.717-.633-.124-.298-.14-.79-.128-1.278.05-1.012.2-2.135.18-3.32a9.422 9.422 0 0 0-.188-1.826c-.048-.302-.19-.66-.294-.983-.115-.344-.238-.52-.357-.788-.373-.672-.787-1.175-1.36-1.625-.277-.216-.595-.37-.896-.547-.316-.12-.637-.253-.958-.342a7.8 7.8 0 0 0-1.914-.226 8.766 8.766 0 0 0-1.818.18 12.31 12.31 0 0 0-1.18.287c.184-.55.36-1.103.508-1.668.174-.652.3-1.318.424-1.988.084-.678.173-1.356.18-2.052.046-.688-.012-1.393-.068-2.09a34.156 34.156 0 0 0-.166-1c.123-.09.27-.197.47-.336.536-.384 1.356-.865 2.362-1.34a10.318 10.318 0 0 1 1.664-.61c.602-.167 1.24-.253 1.898-.313.326.004.66.006.998.024.328.068.673.08 1.006.17.324.112.676.163.995.32.297.148.697.3.924.44.326.22.732.433.99.65.25.234.53.406.77.678.504.515.965 1.07 1.32 1.682.363.604.684 1.227.912 1.854.248.62.424 1.24.55 1.82.132.578.233 1.12.302 1.604.075.486.11.914.135 1.27.05.707.047 1.12.047 1.12s.12-.395.234-1.108c.053-.357.11-.794.143-1.3.037-.505.064-1.082.012-1.71a12.462 12.462 0 0 0-.27-2.03 10.693 10.693 0 0 0-.35-1.277c7.746 2.487 13.94 4.672 16.785 5.923l.108-.247c.06.233.125.465.185.698.085.33.165.663.25.994-.65-.19-1.438-.373-2.364-.45-.67-.065-1.402-.07-2.173-.008s-1.574.2-2.387.418c-.403.116-.805.26-1.215.395-.412.16-.827.35-1.238.538-.38.194-.717.397-1.078.598-.445.256-.77.532-1.16.8a10.36 10.36 0 0 0-1.853 1.995c-.515.73-.892 1.517-1.198 2.284-.295.77-.486 1.54-.622 2.267-.13.73-.194 1.42-.218 2.058-.05 1.27.084 2.318.18 3.04.11.724.23 1.123.23 1.123s.013-.417.08-1.133c.056-.715.208-1.73.473-2.905.137-.587.32-1.21.532-1.852.227-.638.513-1.284.842-1.922.342-.63.76-1.23 1.226-1.79a8.235 8.235 0 0 1 1.62-1.446c.302-.178.623-.415.895-.55.368-.174.745-.37 1.096-.52.332-.127.66-.252.987-.375.348-.1.688-.213 1.027-.302.684-.153 1.348-.28 1.985-.335a13.87 13.87 0 0 1 3.327.118c.45.067.838.16 1.152.245.18.05.332.094.463.132a947.97 947.97 0 0 1 1.843 7.338l-.72.42m-66.4-21.915c-.515-.72-1.188-1.38-2.212-1.858l-.598-.252-.15-.062-.074-.03-.1-.03-.024-.005-.052-.012-.418-.09a3.424 3.424 0 0 0-.86-.094c-.295-.02-.58-.002-.862.043-1.14.16-2.117.584-2.99.978-.88.392-1.68.76-2.47.972-.782.213-1.56.3-2.347.146-.205-.007-.365-.08-.554-.115-.186-.048-.352-.06-.585-.17l-.65-.26-.153-.062-.02-.01-.066-.036-.265-.145c-.736-.354-1.3-.86-1.798-1.373a5.877 5.877 0 0 1-1.024-1.758c-.42-1.243-.42-2.454-.355-3.286.08-.837.195-1.324.195-1.324s-.31.396-.644 1.214c-.17.406-.353.92-.462 1.544-.13.62-.143 1.35-.06 2.162.14.8.424 1.676.952 2.488.555.77 1.258 1.547 2.13 2.075l.318.217.08.056.04.026.022.014.076.04.153.08.62.323c.186.112.482.21.747.31.27.09.55.22.823.26 1.086.298 2.306.27 3.41.045 2.223-.482 3.912-1.72 5.26-1.953.17-.045.33-.085.484-.08.158-.02.313-.054.463-.02l.203-.04.008.116.08.02.155.044c.2.058.426.112.602.17.514.192 1.12.52 1.54.916.456.39.794.87 1.055 1.343.258.475.455.935.584 1.33.272.79.36 1.3.36 1.3s.052-.115.125-.345c.08-.23.16-.572.212-1.024a5.66 5.66 0 0 0-.05-1.67 5.123 5.123 0 0 0-.852-2.127m-3.788-.095l.024-.114h.015c-.027 0 .05.12-.038.114M142.74 165.834c1.922 1.275 4.22 1.95 6.648 1.95 5.03 0 10.346-2.76 14.973-7.77 3.27-3.543 5.142-6.567 6.646-8.996 1.717-2.773 2.958-4.778 5.34-6.052 5.29-2.827 11.024-8.32 11.113-13.7.044-2.69-.864-5.12-2.557-6.84-2.095-2.13-5.267-3.068-9.05-2.67-6.916.732-14.406 6.163-20.424 10.526l-1.14.824c-11.497 8.3-17.503 16.305-17.37 23.146.076 3.792 2.088 7.104 5.82 9.582m-2.178-4.757c-.02-.19-.04-.475-.04-.845 2.702-3.726 15.197-19.94 36.713-33.15 1.14-.183 2.336-.274 3.486-.178-15.85 10.32-25.606 19.552-31.018 25.532-4.647 5.134-6.94 8.732-7.788 10.195a10.68 10.68 0 0 1-1.352-1.553m.122-2.733c.495-3.073 2.38-8.185 8.856-13.928 11.274-10.004 20.874-15.688 24.09-16.53.236-.063.493-.13.76-.197-18.355 11.797-29.765 25.482-33.706 30.654m34.72-15.142c-2.858 1.527-4.288 3.84-6.1 6.763-1.458 2.356-3.273 5.29-6.413 8.69-1.456 1.58-2.98 2.908-4.532 3.98 3.05-5.238 11.823-18.732 25.286-26.537-1.92 2.806-5.098 5.424-8.24 7.104m9.22-8.793c-16.274 8.71-26.16 25.863-28.034 29.327-1.702.946-3.42 1.573-5.114 1.86 2.835-4.75 14.73-23.217 33.954-34.04-.065.937-.347 1.896-.805 2.852m.602-5.326c.1.427.174.868.208 1.325-20.8 11.493-33.227 31.915-35.21 35.345-.28.02-.56.03-.837.03-1.208 0-2.34-.21-3.4-.58 2.69-3.905 17.448-24.39 38.723-36.693.183.174.354.365.517.572m-40.196 35.748a9.523 9.523 0 0 1-1.184-.664 15.378 15.378 0 0 1-1.165-.855c1.662-2.878 11.3-18.006 39.495-36.163.594.157 1.157.39 1.674.71-21.646 12.655-36.513 33.597-38.82 36.972m-6.11-8.618c-.12-6.07 5.755-13.698 16.54-21.486l1.142-.826c5.825-4.224 13.075-9.48 19.462-10.156.505-.054 1.002-.08 1.478-.08 2.122 0 3.92.547 5.27 1.584-3.418-.94-7.407.104-9.69.7-4.035 1.058-14.455 7.693-24.91 16.97-6.062 5.38-8.403 10.278-9.254 13.74-.01-.15-.034-.295-.038-.446m43.458 1.07a6.416 6.416 0 0 0-1.634-.213c-5.334 0-9.6 6.5-11.668 10.376-3.795 7.11-3.117 11.06-1.882 13.12 1.075 1.79 3.017 2.817 5.33 2.817 1.196 0 2.464-.276 3.666-.8 6.166-2.68 7.455-6.315 9.794-12.916 1.665-4.697 1.92-7.413.884-9.372-.76-1.434-2.226-2.418-4.49-3.012M170.84 168.39c1.168-2.188 5.33-9.318 9.905-9.318.378 0 .757.05 1.127.146 1.625.427 2.626 1.026 3.143 1.875-.795-.424-1.785-.722-3.01-.986-3.013-.65-6.29 2.116-10.316 8.706-1.79 2.927-2.79 6.85-3.292 9.42-.418-1.762-.24-4.818 2.443-9.844m-.83 12.297c.225-1.568 1.155-7.18 3.386-10.83 2.08-3.407 3.75-5.41 5.074-6.54-4.944 7.028-7.282 14.868-8 17.63a4.11 4.11 0 0 1-.46-.26m2.515.697a5.3 5.3 0 0 1-1.106-.114c.732-2.85 3.38-11.82 9.218-19.188.36-.082.674-.08.942-.02l.247.055c-4.594 5.68-8.072 16.205-9.015 19.25-.095.004-.192.017-.287.017m2.87-.633c-.49.214-.99.373-1.487.48 1.126-3.528 4.62-13.694 8.992-18.835.537.162.947.33 1.263.51-4.786 6.58-6.802 14.57-7.36 17.157-.437.236-.898.465-1.41.69M184.1 169c-1.863 5.256-2.903 8.188-6.11 10.356.75-3.145 2.75-10.014 6.925-15.786.203.3.31.646.4 1.06l.013-.003c-.203 1.178-.6 2.602-1.228 4.373m1.485-62.556c2.64.61 4.762 3.323 4.784 3.35a.748.748 0 0 0 1.05.137.75.75 0 0 0 .137-1.05c-.1-.13-2.465-3.165-5.634-3.897a.753.753 0 0 0-.9.562c-.09.403.16.806.562.9m7.832-2.36a.75.75 0 0 0 .718-.967c-.653-2.16-1.505-5.574-1.355-6.4a.75.75 0 1 0-1.475-.268c-.27 1.48 1.115 6.176 1.395 7.102a.748.748 0 0 0 .717.532m10.814-.817c.61.277 1.018 1.18 1.287 1.775.282.626.527 1.167 1.15 1.167a.75.75 0 0 0 .408-1.38 8.485 8.485 0 0 1-.19-.405c-.362-.8-.91-2.013-2.033-2.523a.75.75 0 1 0-.62 1.365m-80.48 61.722l-4.25-1.25a.75.75 0 0 0-.423 1.44l4.25 1.25a.75.75 0 0 0 .423-1.44m3.79-7.156a.748.748 0 0 0 .49-1.318c-.927-.8-3.292-3.25-3.12-4.983a.75.75 0 0 0-.67-.82.742.742 0 0 0-.822.672c-.28 2.807 3.23 5.922 3.633 6.267.14.122.316.182.49.182m3.084 3.58c-.08-.04-1.99-.982-3.71-.694a.75.75 0 0 0 .248 1.478c1.234-.2 2.777.55 2.792.558a.75.75 0 0 0 1.005-.338.747.747 0 0 0-.335-1.004m-8.346 21.92c-1.612.024-6.98.182-8.303 1.144a.748.748 0 0 0-.166 1.047.748.748 0 0 0 1.048.166c.644-.467 4.366-.808 7.446-.855a.752.752 0 0 0 .74-.762c-.008-.415-.36-.72-.763-.74m98.178-38.903c2.536.74 3.207 3.12 3.234 3.222a.752.752 0 0 0 .915.534.75.75 0 0 0 .536-.915c-.035-.133-.896-3.297-4.265-4.28a.755.755 0 0 0-.93.51.752.752 0 0 0 .51.93m-16.742 35.707a.75.75 0 0 0 1.33-.694l-2.427-4.662a.75.75 0 1 0-1.33.695l2.426 4.662zm6.99-7.632a.748.748 0 0 0 1.006-.335.748.748 0 0 0-.334-1.006c-.008-.005-.85-.448-1.158-1.416-.252-.79-.09-1.735.484-2.812a.75.75 0 0 0-1.323-.706c-.77 1.446-.97 2.783-.59 3.973.503 1.58 1.858 2.274 1.917 2.302m-3.818 4.312a.748.748 0 0 0 .887-.58c.11-.528 1.024-5.235-1.24-7.218a.75.75 0 0 0-.987 1.13c1.364 1.192 1.01 4.577.76 5.78a.747.747 0 0 0 .58.887m151.07-.228c-2.446.27-5.52 2.81-5.648 2.918a.754.754 0 0 0-.096 1.056.75.75 0 0 0 1.056.097c.788-.654 3.196-2.395 4.854-2.58a.75.75 0 0 0-.166-1.49m9.262.38a.747.747 0 0 0-1.044.184c-1.622 2.317-3.73 3.514-3.75 3.526a.75.75 0 1 0 .73 1.31c.095-.054 2.42-1.363 4.25-3.975a.75.75 0 0 0-.186-1.045m-1.498 6.367l-5.5.5a.752.752 0 0 0-.68.814.752.752 0 0 0 .816.682l5.5-.5a.752.752 0 0 0 .68-.815.746.746 0 0 0-.816-.68m-44.285-69.342c.11.06.23.09.352.09a.752.752 0 0 0 .662-.398l2-3.75a.75.75 0 0 0-1.325-.706l-2 3.75a.75.75 0 0 0 .31 1.015"/></svg>